<?xml version="1.0" encoding="utf-8"?>
<!-- Generator: Adobe Illustrator 26.0.1, SVG Export Plug-In . SVG Version: 6.00 Build 0)  -->
<svg version="1.1" id="Layer_1" xmlns="http://www.w3.org/2000/svg" xmlns:xlink="http://www.w3.org/1999/xlink" x="0px" y="0px"
	 viewBox="0 0 432 648" style="enable-background:new 0 0 432 648;" xml:space="preserve">
<style type="text/css">
	.st0{display:none;opacity:0.5;fill:none;stroke:#231F20;stroke-width:0.05;stroke-miterlimit:10;}
	.st1{fill:#E92A2A;}
	.st2{fill:#D52626;}
	.st3{fill:#9A1A1C;}
	.st4{fill:#8D1819;}
</style>
<path class="st0" d="M418.44,444.92c-2.94,1.51-8.31,5.17-9.04,17.27"/>
<g>
	<path class="st1" d="M211.36,351.84c-0.33,2.6-1.37,7.01-2.56,12.1c-1.77,7.52-3.96,16.87-5.03,25.18
		c-0.59,4.54-1.09,9.85-1.55,15.09c-3.88-18.6-8.75-37.39-2.16-55.81c4.14-1.63,7.89-3.84,10.42-7.73c0.18-0.28,0.34-0.56,0.49-0.86
		C211.3,341.81,211.99,346.88,211.36,351.84"/>
	<path class="st2" d="M202.91,396.68c-2.79-9.51-3.87-19.29-3.25-29c0.21,0.22,0.42,0.46,0.64,0.71c-0.49,8.86,0.44,17.77,2.8,26.47
		C203.03,395.46,202.97,396.07,202.91,396.68"/>
	<path class="st3" d="M204.79,382.51c0.06-0.77-0.04-6.05-2.01-10.34c-0.67-1.46-1.58-2.73-2.49-3.79
		c0.41-7.48,1.85-14.93,4.29-22.17c0.11-0.07,0.22-0.13,0.33-0.2c0.92-0.57,1.79-1.21,2.61-1.92c-2.01,10.08-2.4,20.31-1.14,30.44
		C205.81,377.16,205.27,379.85,204.79,382.51 M206.82,372.52c-1.01-9.71-0.5-19.51,1.54-29.21c0.78-0.78,1.49-1.65,2.13-2.63
		c0.07-0.11,0.14-0.23,0.21-0.35c0.1-0.16,0.19-0.32,0.28-0.49c0.14,0.86,0.35,2.28,0.49,4.01c0.15,1.82,0.22,3.99,0.07,6.21
		c-0.04,0.59-0.1,1.18-0.17,1.77c-0.04,0.31-0.09,0.63-0.14,0.98c-0.44,2.66-1.36,6.62-2.42,11.12c-0.21,0.9-0.43,1.82-0.65,2.77
		C207.71,368.58,207.26,370.52,206.82,372.52 M199.66,367.68c-1.37-1.45-2.59-2.36-2.78-2.57c0.06-1.33,0.16-2.65,0.3-3.98
		c0.46-4.05,1.33-8.22,2.67-12.14c0.07-0.19,0.14-0.39,0.21-0.58c1.26-0.5,2.49-1.05,3.65-1.68
		C201.46,353.58,200.11,360.61,199.66,367.68"/>
	<path class="st4" d="M200.29,368.39c-0.21-0.25-0.43-0.48-0.64-0.71c0.45-7.07,1.8-14.1,4.05-20.96c0.3-0.16,0.59-0.33,0.87-0.5
		C202.14,353.46,200.71,360.9,200.29,368.39"/>
	<path class="st4" d="M206.38,374.53c-1.26-10.12-0.88-20.35,1.14-30.44c0.29-0.25,0.57-0.52,0.84-0.79
		c-2.03,9.7-2.55,19.5-1.54,29.21C206.67,373.18,206.53,373.85,206.38,374.53"/>
</g>
<g>
	<path class="st1" d="M213.98,351.84c0.34,2.6,1.41,7.01,2.64,12.1c1.82,7.52,4.08,16.87,5.18,25.18c0.6,4.54,1.12,9.85,1.6,15.09
		c4-18.6,9.01-37.39,2.22-55.81c-4.26-1.63-8.12-3.84-10.73-7.73c-0.19-0.28-0.35-0.56-0.51-0.86
		C214.04,341.81,213.33,346.88,213.98,351.84"/>
	<path class="st2" d="M222.69,396.68c-0.06-0.61-0.13-1.22-0.19-1.82c2.43-8.7,3.39-17.61,2.89-26.46c0.22-0.25,0.44-0.48,0.66-0.71
		C226.68,377.39,225.56,387.17,222.69,396.68"/>
	<path class="st3" d="M220.76,382.57c-0.11-0.6-0.22-1.21-0.34-1.81l0,0c0-0.01,0-0.03-0.01-0.04c-0.4-2.07-0.84-4.15-1.3-6.2
		c1.3-10.12,0.91-20.35-1.17-30.43c0.94,0.8,1.95,1.5,3.02,2.12c2.52,7.24,3.99,14.68,4.42,22.17c-0.93,1.05-1.87,2.33-2.56,3.78
		C220.73,376.61,220.69,382.09,220.76,382.57 M218.66,372.51c-0.68-3-1.38-5.9-2.03-8.57c-1.23-5.09-2.29-9.5-2.64-12.1
		c-0.64-4.94,0.05-10,0.39-12c0.06,0.1,0.11,0.2,0.17,0.3c0.1,0.18,0.21,0.36,0.33,0.53c0.65,0.98,1.39,1.85,2.19,2.63
		C219.17,352.98,219.71,362.79,218.66,372.51 M226.04,367.68c-0.46-7.07-1.85-14.1-4.17-20.96c1.2,0.63,2.46,1.18,3.75,1.68
		c0.64,1.74,1.18,3.49,1.62,5.24c0.37,1.48,0.68,2.98,0.93,4.47c0.38,2.33,0.62,4.67,0.72,7.01
		C228.66,365.36,227.42,366.26,226.04,367.68"/>
	<path class="st4" d="M225.39,368.39c-0.43-7.48-1.9-14.93-4.42-22.17c0.3,0.17,0.6,0.34,0.9,0.5c2.32,6.86,3.71,13.89,4.17,20.96
		C225.83,367.91,225.61,368.14,225.39,368.39"/>
	<path class="st4" d="M219.12,374.53c-0.15-0.68-0.3-1.35-0.45-2.02c1.04-9.72,0.51-19.53-1.58-29.2c0.28,0.28,0.57,0.54,0.87,0.8
		C220.02,354.18,220.42,364.41,219.12,374.53"/>
</g>
</svg>
