<?xml version="1.0" encoding="utf-8"?>
<!-- Generator: Adobe Illustrator 26.0.1, SVG Export Plug-In . SVG Version: 6.00 Build 0)  -->
<svg version="1.1" id="Layer_1" xmlns="http://www.w3.org/2000/svg" xmlns:xlink="http://www.w3.org/1999/xlink" x="0px" y="0px"
	 viewBox="0 0 432 648" style="enable-background:new 0 0 432 648;" xml:space="preserve">
<style type="text/css">
	.st0{display:none;opacity:0.5;fill:none;stroke:#231F20;stroke-width:0.05;stroke-miterlimit:10;}
	.st1{fill:#E92A2A;}
	.st2{fill:#D52626;}
	.st3{fill:#9A1A1C;}
	.st4{fill:#8D1819;}
</style>
<path class="st0" d="M418.44,444.92c-2.94,1.51-8.31,5.17-9.04,17.27"/>
<path class="st1" d="M238.89,368.98c0.67,8.95,2.11,17.85,3.87,26.64c2.97,14.84,9.05,28.85,15.14,42.74l0.11,0.24
	c0.66,1.42,1.3,2.89,1.9,4.37c0.22,0.48,0.42,0.96,0.63,1.43c0.03-0.19,0.06-0.36,0.07-0.54c0.2-2.84,0-4.34-0.18-5.67
	c-0.14-1.02-0.26-2-0.18-3.38c0.03-0.55,0.25-2.27,0.59-4.87c0.68-5.4,1.89-14.79,2.88-25.26v-0.01
	c-2.53-17.75-4.46-35.42-11.43-52.14c-0.16,1.25-0.68,2.21-1.73,2.61c-2.11,0.8-4.09,0.46-6.19-0.22c-1.82-0.57-3.63-1.18-5.44-1.81
	C237.81,358.2,238.54,364.11,238.89,368.98"/>
<path class="st2" d="M260.27,436.78c-1.61-4.42-3.43-8.84-5.2-13.13c-2.38-5.78-4.84-11.76-6.81-17.78
	c-4.25-12.97-6.56-24.91-6.95-36.12c0.02-0.05,0.04-0.1,0.06-0.14c0.17-0.42,0.37-0.83,0.59-1.24c0.28,11.78,2.75,24.52,7.53,39.08
	c1.92,5.84,4.3,11.62,6.6,17.2c1.39,3.39,2.83,6.87,4.16,10.36C260.21,435.68,260.23,436.25,260.27,436.78 M242.7,354.39
	c-0.22-0.07-0.43-0.14-0.64-0.21l0,0C242.27,354.25,242.48,354.32,242.7,354.39L242.7,354.39"/>
<path class="st2" d="M260.58,431.99c-0.54-10.9-4.47-21.57-8.28-31.91c-4.13-11.21-8.37-22.72-8.26-34.57
	c0.21-0.22,0.43-0.42,0.66-0.62c-0.29,12.04,4.02,23.74,8.22,35.13c3.45,9.36,7,18.99,8.06,28.84c-0.05,0.38-0.09,0.74-0.14,1.09
	C260.74,430.7,260.65,431.39,260.58,431.99 M245.96,355.36c-0.21-0.05-0.43-0.1-0.64-0.16c0,0,0,0,0,0
	C245.53,355.26,245.75,355.32,245.96,355.36C245.96,355.36,245.96,355.36,245.96,355.36"/>
<path class="st2" d="M261.76,422.58c-0.94-9.12-4.1-18.06-7.17-26.74c-3.71-10.5-7.52-21.28-7.43-32.48
	c0.22-0.09,0.44-0.17,0.66-0.24c-0.16,11.25,3.67,22.1,7.41,32.67c2.77,7.84,5.62,15.91,6.85,24.14
	C261.97,420.84,261.87,421.73,261.76,422.58 M248.03,355.61c-0.05,0-0.09,0-0.14,0l0,0C247.94,355.61,247.98,355.61,248.03,355.61
	c0.18,0,0.36-0.01,0.54-0.02l0,0C248.39,355.6,248.21,355.61,248.03,355.61"/>
<path class="st2" d="M263.19,409.97c-1.02-7.07-3.39-14.18-5.51-20.54c-0.25-0.76-0.5-1.51-0.75-2.24
	c-2.53-7.65-5.04-15.74-6.26-24.37c0.24,0.02,0.48,0.05,0.72,0.1c1.28,8.66,3.92,16.9,6.67,25.5c0.52,1.63,1.05,3.28,1.56,4.93
	c1.38,4.4,2.87,9.39,3.79,14.52C263.34,408.57,263.27,409.28,263.19,409.97"/>
<path class="st3" d="M239.73,377.17c-0.33-2.72-0.62-5.45-0.82-8.19c-0.36-4.88-1.09-10.78,0.02-15.86
	c0.22,0.08,0.45,0.15,0.67,0.23c0.8,0.27,1.6,0.55,2.4,0.81c0.02,0.01,0.04,0.01,0.05,0.02c-0.68,5.04-0.93,10.22-0.74,15.57
	C240.36,372.1,239.98,374.63,239.73,377.17 M241.95,368.37c-0.11-4.8,0.14-9.44,0.74-13.98c0.56,0.18,1.12,0.37,1.68,0.54
	c0.32,0.1,0.63,0.19,0.94,0.27c-0.86,3.46-1.25,6.9-1.28,10.3C243.21,366.35,242.51,367.33,241.95,368.37 M257.06,366.71
	c-1.24-1.97-3.38-3.37-5.67-3.78c-0.38-2.56-0.64-5.15-0.75-7.8c0.3-0.13,0.56-0.3,0.78-0.51c0.5-0.49,0.78-1.19,0.89-2.04
	C254.24,357.21,255.78,361.93,257.06,366.71 M244.7,364.89c0.08-3.15,0.47-6.32,1.26-9.52c0.65,0.14,1.29,0.23,1.93,0.24
	c-0.48,2.61-0.7,5.19-0.72,7.75C246.27,363.73,245.44,364.25,244.7,364.89 M247.83,363.12c0.04-2.49,0.27-5,0.74-7.54
	c0.09-0.01,0.19-0.01,0.28-0.03c0.37-0.04,0.75-0.11,1.12-0.22c0.11,2.54,0.36,5.03,0.7,7.48c-0.23-0.02-0.46-0.03-0.68-0.03
	c-0.63,0-1.26,0.08-1.88,0.25C248.01,363.07,247.92,363.09,247.83,363.12"/>
<path class="st4" d="M241.31,369.75c-0.19-5.35,0.06-10.53,0.74-15.57c0.22,0.07,0.43,0.14,0.64,0.21
	c-0.61,4.54-0.86,9.18-0.74,13.98c-0.22,0.4-0.41,0.82-0.59,1.24C241.35,369.65,241.33,369.7,241.31,369.75"/>
<path class="st4" d="M244.04,365.51c0.03-3.4,0.42-6.84,1.28-10.3c0.22,0.06,0.43,0.11,0.64,0.16c-0.79,3.2-1.18,6.37-1.26,9.52
	C244.47,365.08,244.25,365.29,244.04,365.51"/>
<path class="st4" d="M247.17,363.36c0.02-2.56,0.24-5.15,0.72-7.75c0.05,0,0.09,0,0.14,0c0.18,0,0.36-0.01,0.54-0.02
	c-0.47,2.53-0.71,5.04-0.74,7.54C247.6,363.19,247.38,363.27,247.17,363.36"/>
<path class="st4" d="M251.39,362.92c-0.24-0.04-0.48-0.08-0.72-0.1c-0.35-2.45-0.59-4.94-0.7-7.48c0.2-0.06,0.4-0.12,0.59-0.2
	c0.03-0.01,0.05-0.02,0.07-0.03C250.75,357.77,251.01,360.36,251.39,362.92"/>
<path class="st1" d="M186.44,368.72c-0.67,8.95-2.11,17.85-3.87,26.64c-2.97,14.84-9.05,28.85-15.14,42.74l-0.11,0.24
	c-0.66,1.42-1.3,2.89-1.9,4.37c-0.22,0.48-0.42,0.96-0.63,1.43c-0.03-0.19-0.06-0.36-0.07-0.54c-0.2-2.84,0-4.34,0.18-5.67
	c0.14-1.02,0.26-2,0.18-3.38c-0.03-0.55-0.25-2.27-0.59-4.87c-0.68-5.4-1.89-14.79-2.88-25.26v-0.01
	c2.53-17.75,4.46-35.42,11.43-52.14c0.16,1.25,0.68,2.21,1.73,2.61c2.11,0.8,4.09,0.46,6.19-0.22c1.82-0.57,3.63-1.18,5.44-1.81
	C187.52,357.95,186.79,363.86,186.44,368.72"/>
<path class="st2" d="M165.06,436.52c0.04-0.53,0.06-1.1,0.03-1.76c1.33-3.49,2.76-6.97,4.16-10.36c2.3-5.58,4.68-11.36,6.6-17.2
	c4.78-14.56,7.25-27.3,7.53-39.08c0.22,0.4,0.41,0.82,0.59,1.24c0.02,0.05,0.04,0.1,0.06,0.14c-0.39,11.2-2.7,23.15-6.95,36.12
	c-1.98,6.03-4.44,12.01-6.81,17.78C168.5,427.68,166.67,432.11,165.06,436.52 M182.63,354.14L182.63,354.14
	c0.22-0.07,0.43-0.14,0.64-0.21l0,0C183.06,354,182.85,354.07,182.63,354.14"/>
<path class="st2" d="M164.76,431.73c-0.08-0.6-0.17-1.28-0.27-2.04c-0.04-0.35-0.09-0.71-0.14-1.09c1.05-9.85,4.61-19.48,8.06-28.84
	c4.2-11.39,8.52-23.09,8.22-35.13c0.23,0.2,0.45,0.4,0.66,0.62c0.11,11.85-4.13,23.36-8.26,34.57
	C169.22,410.16,165.29,420.83,164.76,431.73 M179.37,355.11C179.37,355.11,179.37,355.11,179.37,355.11
	c0.21-0.05,0.43-0.1,0.64-0.16c0,0,0,0,0,0C179.8,355.01,179.58,355.06,179.37,355.11"/>
<path class="st2" d="M163.57,422.32c-0.1-0.85-0.21-1.74-0.32-2.65c1.23-8.22,4.08-16.3,6.85-24.14
	c3.73-10.56,7.57-21.42,7.41-32.67c0.22,0.07,0.45,0.15,0.66,0.24c0.09,11.19-3.72,21.98-7.43,32.48
	C167.67,404.26,164.51,413.2,163.57,422.32 M177.3,355.35c-0.18,0-0.36-0.01-0.54-0.02l0,0
	C176.94,355.34,177.12,355.35,177.3,355.35c0.04,0,0.09,0,0.14,0l0,0C177.4,355.35,177.35,355.35,177.3,355.35"/>
<path class="st2" d="M162.14,409.72c1.02-7.07,3.39-14.18,5.51-20.54c0.25-0.76,0.5-1.51,0.75-2.24c2.53-7.65,5.04-15.74,6.26-24.37
	c-0.24,0.02-0.48,0.05-0.72,0.1c-1.28,8.66-3.92,16.9-6.67,25.5c-0.52,1.63-1.05,3.28-1.56,4.93c-1.38,4.4-2.87,9.39-3.79,14.52
	C161.99,408.32,162.06,409.02,162.14,409.72"/>
<path class="st3" d="M185.6,376.91c-0.25-2.54-0.63-5.07-1.58-7.42c0.19-5.35-0.06-10.53-0.74-15.57c0.02-0.01,0.03-0.01,0.05-0.02
	c0.8-0.27,1.6-0.54,2.4-0.81c0.22-0.08,0.45-0.15,0.67-0.23c1.11,5.08,0.38,10.98,0.02,15.86
	C186.22,371.46,185.94,374.19,185.6,376.91 M183.38,368.12c-0.56-1.04-1.26-2.02-2.08-2.86c-0.03-3.4-0.42-6.84-1.28-10.3
	c0.31-0.08,0.63-0.18,0.94-0.27c0.56-0.18,1.12-0.36,1.68-0.54C183.24,358.68,183.49,363.32,183.38,368.12 M168.27,366.45
	c1.28-4.78,2.83-9.49,4.76-14.14c0.11,0.84,0.39,1.55,0.89,2.04c0.22,0.21,0.47,0.39,0.78,0.51c-0.11,2.65-0.37,5.25-0.75,7.8
	C171.65,363.08,169.51,364.48,168.27,366.45 M180.63,364.63c-0.74-0.64-1.57-1.16-2.46-1.53c-0.02-2.56-0.24-5.15-0.72-7.75
	c0.64-0.01,1.28-0.1,1.93-0.24C180.16,358.31,180.55,361.48,180.63,364.63 M177.5,362.87c-0.09-0.03-0.19-0.06-0.28-0.08
	c-0.62-0.17-1.25-0.25-1.88-0.25c-0.23,0-0.46,0.01-0.68,0.03c0.35-2.45,0.59-4.94,0.7-7.48c0.38,0.11,0.75,0.18,1.12,0.22
	c0.09,0.01,0.19,0.02,0.28,0.03C177.24,357.86,177.47,360.38,177.5,362.87"/>
<path class="st4" d="M184.02,369.5c0.19-5.35-0.06-10.53-0.74-15.57c-0.22,0.07-0.43,0.14-0.64,0.21c0.61,4.54,0.86,9.18,0.74,13.98
	c0.22,0.4,0.41,0.82,0.59,1.24C183.98,369.4,184,369.45,184.02,369.5"/>
<path class="st4" d="M181.3,365.25c-0.03-3.4-0.42-6.84-1.28-10.3c-0.22,0.06-0.43,0.11-0.64,0.16c0.79,3.2,1.18,6.37,1.26,9.52
	C180.86,364.83,181.08,365.04,181.3,365.25"/>
<path class="st4" d="M178.17,363.11c-0.02-2.56-0.24-5.15-0.72-7.75c-0.05,0-0.09,0-0.14,0c-0.18,0-0.36-0.01-0.54-0.02
	c0.47,2.53,0.71,5.04,0.74,7.54C177.73,362.94,177.95,363.02,178.17,363.11"/>
<path class="st4" d="M173.94,362.67c0.24-0.04,0.48-0.08,0.72-0.1c0.35-2.45,0.59-4.94,0.7-7.48c-0.2-0.06-0.4-0.12-0.59-0.2
	c-0.03-0.01-0.05-0.02-0.07-0.03C174.58,357.51,174.32,360.11,173.94,362.67"/>
</svg>
