<?xml version="1.0" encoding="utf-8"?>
<!-- Generator: Adobe Illustrator 26.0.1, SVG Export Plug-In . SVG Version: 6.00 Build 0)  -->
<svg version="1.1" id="Layer_1" xmlns="http://www.w3.org/2000/svg" xmlns:xlink="http://www.w3.org/1999/xlink" x="0px" y="0px"
	 viewBox="0 0 432 648" style="enable-background:new 0 0 432 648;" xml:space="preserve">
<style type="text/css">
	.st0{display:none;opacity:0.5;fill:none;stroke:#231F20;stroke-width:0.05;stroke-miterlimit:10;}
	.st1{fill:#E92A2A;}
	.st2{fill:#D52626;}
</style>
<path class="st0" d="M418.44,444.92c-2.94,1.51-8.31,5.17-9.04,17.27"/>
<g>
	<path class="st1" d="M290.85,235.11c0,0,9.11,9.81,7.58,28.16c-1.34-1.53-6.69-6.75-8.35-8.73c-1.66-1.97-3.25-5.8-3.63-7.2
		C287.09,245.75,290.66,236.83,290.85,235.11z"/>
	<path class="st2" d="M297.84,259.16v-1.13c-1.25-1.66-2.72-3.18-4.16-4.66c-2.41-2.49-4.91-5.07-6.23-8.25
		c-0.11,0.28-0.22,0.56-0.33,0.83c1.4,2.96,3.74,5.39,6.01,7.74C294.79,255.41,296.5,257.18,297.84,259.16"/>
	<path class="st2" d="M297.84,255.7c-1.18-2.49-3-4.74-4.76-6.92c-1.65-2.04-3.35-4.14-4.57-6.48c0.1-0.28,0.2-0.57,0.3-0.85
		c1.22,2.56,3.06,4.83,4.84,7.04c1.5,1.85,3.03,3.75,4.19,5.81c0,0,0,0.01,0,0.01V255.7"/>
	<path class="st2" d="M296.59,247.36c-0.19-0.59-0.41-1.18-0.63-1.75c-0.73-0.82-1.5-1.6-2.25-2.37c-1.4-1.43-2.85-2.9-3.97-4.53
		c-0.09,0.26-0.17,0.52-0.26,0.79c1.07,1.45,2.38,2.78,3.66,4.07C294.34,244.77,295.57,246.02,296.59,247.36"/>
</g>
<g>
	<path class="st1" d="M134.19,235.62c0,0-9.11,9.81-7.58,28.16c1.34-1.53,6.69-6.75,8.35-8.73c1.66-1.97,3.25-5.8,3.63-7.2
		C137.94,246.26,134.38,237.34,134.19,235.62z"/>
	<path class="st2" d="M127.2,259.67v-1.13c1.25-1.66,2.72-3.18,4.16-4.66c2.41-2.49,4.91-5.07,6.23-8.25
		c0.11,0.28,0.22,0.56,0.33,0.83c-1.4,2.96-3.74,5.39-6.01,7.74C130.25,255.92,128.54,257.69,127.2,259.67"/>
	<path class="st2" d="M127.2,256.21v-1.38c0,0,0-0.01,0-0.01c1.16-2.06,2.7-3.96,4.19-5.81c1.78-2.21,3.62-4.48,4.84-7.04
		c0.1,0.28,0.2,0.57,0.3,0.85c-1.22,2.33-2.92,4.44-4.57,6.48C130.19,251.48,128.38,253.72,127.2,256.21"/>
	<path class="st2" d="M128.45,247.87c0.19-0.59,0.41-1.18,0.63-1.75c0.73-0.82,1.5-1.6,2.25-2.37c1.4-1.43,2.85-2.9,3.97-4.53
		c0.09,0.26,0.17,0.52,0.26,0.79c-1.07,1.45-2.38,2.78-3.66,4.07C130.7,245.28,129.46,246.53,128.45,247.87"/>
</g>
</svg>
