<?xml version="1.0" encoding="utf-8"?>
<!-- Generator: Adobe Illustrator 26.0.1, SVG Export Plug-In . SVG Version: 6.00 Build 0)  -->
<svg version="1.1" id="Layer_1" xmlns="http://www.w3.org/2000/svg" xmlns:xlink="http://www.w3.org/1999/xlink" x="0px" y="0px"
	 viewBox="0 0 432 648" style="enable-background:new 0 0 432 648;" xml:space="preserve">
<style type="text/css">
	.st0{display:none;opacity:0.5;fill:none;stroke:#231F20;stroke-width:0.05;stroke-miterlimit:10;}
	.st1{fill:#E92A2A;}
	.st2{fill:#D52626;}
	.st3{fill:#9A1A1C;}
	.st4{fill:#8D1819;}
</style>
<path class="st0" d="M418.44,444.92c-2.94,1.51-8.31,5.17-9.04,17.27"/>
<g id="Delts_00000034785510812040924740000016240124741117884326_">
	<path class="st1" d="M162.7,189.97c-4.87,2.52-10.18,3.52-14.87,6.5c-2.88,1.84-5.36,4.27-7.7,6.81c-0.48-1.48-1.58-5.13-2.26-9.48
		c-0.89-5.66,3.03-19.75,5.38-25.71c1.43-3.62,4.38-4.98,6.99-6.19c0.86-0.4,1.7-0.78,2.42-1.23c4.64,0.67,8.48,2.93,12.26,6.55
		C171.53,173.56,170.48,185.96,162.7,189.97"/>
	<path class="st2" d="M139.96,192.77c-0.19-0.11-0.38-0.23-0.56-0.36c3.07-11.42,10.72-21.57,17.98-30.4
		c0.21,0.09,0.42,0.18,0.63,0.28C150.38,171.56,142.9,181.48,139.96,192.77"/>
	<path class="st2" d="M140.48,176.67c0.29-1.04,0.58-2.04,0.88-3c3.27-5.25,8.55-9.42,13.13-12.62c0.28,0.07,0.56,0.14,0.84,0.23
		C149.84,165.05,143.4,170.15,140.48,176.67"/>
	<path class="st2" d="M140.14,203.29c-0.08-0.25-0.18-0.57-0.3-0.95c0,0,0-0.01,0-0.01C139.96,202.7,140.06,203.02,140.14,203.29
		C140.15,203.28,140.14,203.28,140.14,203.29 M142.46,193.73c-0.22-0.04-0.43-0.1-0.64-0.16c2.38-6.51,6.49-12.44,10.5-18.25
		c2.68-3.87,5.45-7.87,7.65-11.97c0.19,0.11,0.38,0.23,0.57,0.35c-2.21,4.1-4.97,8.08-7.64,11.94
		C148.91,181.4,144.83,187.29,142.46,193.73"/>
	<path class="st2" d="M147.13,193.35c1.88-2.81,4.11-5.41,6.3-7.97c4.78-5.58,9.71-11.34,10.64-18.94c0.2,0.18,0.4,0.37,0.6,0.56
		c-1.09,7.48-5.96,13.17-10.68,18.68c-2.04,2.39-4.13,4.82-5.91,7.41C147.75,193.18,147.43,193.27,147.13,193.35"/>
	<path class="st2" d="M156.73,189.73c6.09-5.3,11.81-10.9,11.14-18.32c0.27,0.6,0.51,1.21,0.7,1.84c-0.3,5.96-4.56,10.75-9.48,15.23
		C158.32,188.92,157.53,189.33,156.73,189.73"/>
	<path class="st3" d="M140.34,203.01c0.19-3.21,0.91-6.26,1.99-9.2c0.52,0.11,1.04,0.16,1.55,0.16c0.49,0,0.98-0.05,1.44-0.15
		c0.52-0.11,1.08-0.24,1.67-0.39c-1.3,1.95-2.44,4-3.26,6.2c-0.16,0.15-0.33,0.3-0.49,0.45C142.24,201.01,141.28,202,140.34,203.01
		 M139.72,202.41c-0.24-0.79-0.54-1.83-0.85-3.04c-0.05-0.18-0.09-0.37-0.14-0.56c0.22-2.03,0.59-4.01,1.1-5.95
		c0.59,0.35,1.22,0.62,1.86,0.8C140.66,196.45,139.96,199.36,139.72,202.41 M144.81,198.69c0.84-1.94,1.92-3.77,3.13-5.52
		c2.61-0.75,5.67-1.88,8.66-3.36c-0.56,0.49-1.13,0.97-1.69,1.46c-1.43,1.23-2.79,2.4-4.07,3.59c-1.07,0.5-2.12,1.05-3.14,1.7
		C146.7,197.2,145.74,197.92,144.81,198.69 M138.32,196.98c-0.19-0.89-0.37-1.84-0.53-2.83c-0.01-0.09-0.03-0.17-0.04-0.26
		c-0.04-0.23-0.06-0.47-0.08-0.72c-0.05-0.66-0.05-1.4-0.01-2.21c0.47,0.6,1.02,1.11,1.61,1.53
		C138.87,193.96,138.55,195.46,138.32,196.98 M152.71,194.05c0.84-0.75,1.72-1.51,2.62-2.29c1.22-1.06,2.44-2.12,3.63-3.2
		c4.43-2.52,8.41-5.82,10.14-9.76c-0.18,4.01-1.83,7.86-4.89,10.22c-0.51,0.39-1.05,0.74-1.64,1.04c-1.54,0.8-3.12,1.44-4.71,2.04
		l-3.03,1.12C154.12,193.49,153.41,193.76,152.71,194.05"/>
	<path class="st4" d="M140.03,203.36c-0.08-0.26-0.19-0.58-0.3-0.95c0.24-3.05,0.95-5.95,1.97-8.75c0.21,0.06,0.43,0.11,0.64,0.16
		c-1.08,2.94-1.8,5.99-1.99,9.2c-0.09,0.1-0.18,0.2-0.27,0.3C140.06,203.33,140.04,203.35,140.03,203.36"/>
	<path class="st4" d="M143.74,199.63c0.83-2.2,1.96-4.25,3.26-6.2c0.31-0.08,0.62-0.17,0.94-0.26c-1.21,1.75-2.29,3.58-3.13,5.52
		C144.46,199,144.1,199.31,143.74,199.63"/>
	<path class="st4" d="M150.84,194.86c1.28-1.18,2.64-2.36,4.07-3.59c0.56-0.48,1.13-0.97,1.69-1.46c0.79-0.39,1.58-0.81,2.36-1.25
		c-1.19,1.08-2.41,2.14-3.63,3.2c-0.9,0.78-1.78,1.54-2.62,2.29C152.08,194.3,151.45,194.57,150.84,194.86"/>
	<path class="st4" d="M138.74,198.81c-0.14-0.58-0.28-1.19-0.41-1.83c0.23-1.52,0.55-3.01,0.95-4.49c0.18,0.13,0.37,0.25,0.56,0.36
		C139.33,194.8,138.96,196.78,138.74,198.81"/>
</g>
<g id="Delts_00000096037099193994339300000012239167524529539488_">
	<path class="st1" d="M262.48,189.97c4.87,2.52,10.18,3.52,14.87,6.5c2.88,1.84,5.36,4.27,7.7,6.81c0.48-1.48,1.58-5.13,2.26-9.48
		c0.89-5.66-3.03-19.75-5.38-25.71c-1.43-3.62-4.38-4.98-6.99-6.19c-0.86-0.4-1.7-0.78-2.42-1.23c-4.64,0.67-8.48,2.93-12.26,6.55
		C253.65,173.56,254.71,185.96,262.48,189.97"/>
	<path class="st2" d="M285.23,192.77c0.19-0.11,0.38-0.23,0.56-0.36c-3.07-11.42-10.72-21.57-17.98-30.4
		c-0.21,0.09-0.42,0.18-0.63,0.28C274.81,171.56,282.28,181.48,285.23,192.77"/>
	<path class="st2" d="M284.7,176.67c-0.29-1.04-0.58-2.04-0.88-3c-3.27-5.25-8.55-9.42-13.13-12.62c-0.28,0.07-0.56,0.14-0.84,0.23
		C275.34,165.05,281.79,170.15,284.7,176.67"/>
	<path class="st2" d="M285.04,203.29C285.04,203.28,285.04,203.28,285.04,203.29c0.08-0.26,0.18-0.58,0.3-0.96c0,0,0,0.01,0,0.01
		C285.23,202.71,285.13,203.03,285.04,203.29 M282.72,193.73c-2.36-6.44-6.44-12.33-10.43-18.09c-2.67-3.86-5.43-7.84-7.64-11.94
		c0.19-0.12,0.38-0.24,0.57-0.35c2.2,4.1,4.97,8.1,7.65,11.97c4.02,5.81,8.12,11.74,10.5,18.25
		C283.15,193.63,282.94,193.69,282.72,193.73"/>
	<path class="st2" d="M278.06,193.35c-1.88-2.81-4.11-5.41-6.3-7.97c-4.78-5.58-9.71-11.34-10.64-18.94c-0.2,0.18-0.4,0.37-0.6,0.56
		c1.09,7.48,5.96,13.17,10.68,18.68c2.04,2.39,4.13,4.82,5.91,7.41C277.44,193.18,277.75,193.27,278.06,193.35"/>
	<path class="st2" d="M268.45,189.73c-6.09-5.3-11.81-10.9-11.14-18.32c-0.27,0.6-0.51,1.21-0.7,1.84
		c0.3,5.96,4.56,10.75,9.48,15.23C266.87,188.92,267.66,189.33,268.45,189.73"/>
	<path class="st3" d="M284.77,202.83c-0.94-1.01-1.9-2-2.9-2.93c-0.16-0.15-0.33-0.3-0.49-0.45c-0.83-2.2-1.96-4.25-3.26-6.2
		c0.59,0.15,1.14,0.28,1.67,0.39c0.47,0.1,0.95,0.15,1.44,0.15c0.51,0,1.03-0.05,1.55-0.16
		C283.86,196.57,284.58,199.62,284.77,202.83 M285.4,202.23c-0.24-3.05-0.95-5.95-1.97-8.75c0.64-0.19,1.27-0.45,1.86-0.8
		c0.51,1.94,0.88,3.92,1.1,5.95c-0.05,0.19-0.09,0.38-0.14,0.56C285.94,200.4,285.64,201.44,285.4,202.23 M280.3,198.51
		c-0.92-0.77-1.88-1.48-2.89-2.13c-1.02-0.65-2.07-1.21-3.14-1.7c-1.28-1.18-2.64-2.36-4.07-3.59c-0.56-0.48-1.13-0.97-1.69-1.46
		c2.99,1.48,6.05,2.62,8.66,3.36C278.39,194.75,279.46,196.57,280.3,198.51 M286.8,196.8c-0.23-1.52-0.55-3.01-0.95-4.49
		c0.59-0.42,1.14-0.93,1.61-1.53c0.04,0.8,0.04,1.55-0.01,2.21c-0.02,0.25-0.05,0.49-0.08,0.72c-0.01,0.09-0.03,0.17-0.04,0.26
		C287.17,194.96,286.99,195.91,286.8,196.8 M272.41,193.87c-0.7-0.29-1.41-0.56-2.12-0.82l-0.24-0.14l0.03,0.07
		c-0.66-0.25-1.32-0.49-1.98-0.73l0-0.01l-0.2-0.08l-0.28-0.11l-0.37-0.14l0.01,0.02c-1.59-0.6-3.18-1.25-4.71-2.04
		c-0.58-0.3-1.13-0.65-1.64-1.04c-3.06-2.36-4.71-6.21-4.89-10.22c1.73,3.94,5.71,7.24,10.14,9.76c1.19,1.08,2.41,2.14,3.63,3.2
		C270.69,192.36,271.56,193.12,272.41,193.87"/>
	<path class="st4" d="M285.02,203.26c0.08-0.26,0.19-0.58,0.3-0.95c-0.24-3.05-0.95-5.95-1.97-8.75c-0.21,0.06-0.43,0.11-0.64,0.16
		c1.08,2.94,1.8,5.99,1.99,9.2c0.09,0.1,0.18,0.2,0.27,0.3C284.98,203.23,285,203.25,285.02,203.26"/>
	<path class="st4" d="M281.36,199.6c-0.83-2.2-1.96-4.25-3.26-6.2c-0.31-0.08-0.62-0.17-0.94-0.26c1.21,1.75,2.29,3.58,3.13,5.52
		C280.65,198.96,281.01,199.28,281.36,199.6"/>
	<path class="st4" d="M274.35,194.86c-1.28-1.18-2.64-2.36-4.07-3.59c-0.56-0.48-1.13-0.97-1.69-1.46
		c-0.79-0.39-1.58-0.81-2.36-1.25c1.19,1.08,2.41,2.14,3.63,3.2c0.9,0.78,1.78,1.54,2.62,2.29
		C273.11,194.3,273.73,194.57,274.35,194.86"/>
	<path class="st4" d="M286.36,198.72c0.14-0.58,0.28-1.19,0.41-1.83c-0.23-1.52-0.55-3.01-0.95-4.49c-0.18,0.13-0.37,0.25-0.56,0.36
		C285.77,194.71,286.14,196.7,286.36,198.72"/>
</g>
</svg>
