<?xml version="1.0" encoding="utf-8"?>
<!-- Generator: Adobe Illustrator 26.0.1, SVG Export Plug-In . SVG Version: 6.00 Build 0)  -->
<svg version="1.1" id="Layer_1" xmlns="http://www.w3.org/2000/svg" xmlns:xlink="http://www.w3.org/1999/xlink" x="0px" y="0px"
	 viewBox="0 0 432 648" style="enable-background:new 0 0 432 648;" xml:space="preserve">
<style type="text/css">
	.st0{display:none;opacity:0.5;fill:none;stroke:#231F20;stroke-width:0.05;stroke-miterlimit:10;}
	.st1{fill:#E92A2A;}
	.st2{fill:#D52626;}
	.st3{fill:#9A1A1C;}
	.st4{fill:#8D1819;}
</style>
<path class="st0" d="M418.44,444.92c-2.94,1.51-8.31,5.17-9.04,17.27"/>
<g>
	<path class="st1" d="M252.09,291.67c0,0,6.45-11.33-3.98-24.56c-1.96,5.33-10.39,11.91-15.21,13.6c2.81,1.57,6,3.32,8.15,4.11
		C244.77,286.2,250.95,290.01,252.09,291.67z"/>
	<path class="st2" d="M250.17,289.48c-0.19-0.15-0.38-0.29-0.57-0.44c0,0,0,0,0-0.01C249.79,289.18,249.98,289.32,250.17,289.48
		C250.17,289.48,250.17,289.48,250.17,289.48 M250.29,285.29c0.48-4.94-0.69-10.07-3.48-15.04c0.14-0.22,0.27-0.44,0.39-0.66
		l0.01,0.01c2.98,5.17,4.25,10.51,3.76,15.66C250.75,285.27,250.52,285.28,250.29,285.29"/>
	<path class="st2" d="M246.84,287.31c-0.21-0.11-0.41-0.22-0.62-0.33c0,0,0,0,0-0.01C246.42,287.09,246.63,287.2,246.84,287.31
		C246.84,287.31,246.84,287.31,246.84,287.31 M247.09,285.1c-0.21-0.04-0.42-0.08-0.63-0.12c-0.01,0-0.02,0-0.03-0.01
		c0.32-4.14-0.21-8.24-1.58-12.22c0.18-0.19,0.35-0.37,0.52-0.56C246.87,276.38,247.45,280.71,247.09,285.1"/>
	<path class="st2" d="M244.27,286.03c-0.22-0.1-0.44-0.2-0.67-0.31c0,0,0,0,0-0.01C243.83,285.82,244.05,285.93,244.27,286.03
		C244.27,286.03,244.27,286.03,244.27,286.03 M244.3,284.28c-0.23-0.09-0.46-0.19-0.68-0.3c-0.05-3.06-0.47-6.08-1.25-9.01
		c0.19-0.15,0.38-0.31,0.57-0.46C243.83,277.74,244.28,280.95,244.3,284.28"/>
	<path class="st2" d="M240.39,284.28c-0.22-0.1-0.45-0.2-0.67-0.31c0,0,0,0,0,0C239.94,284.08,240.16,284.18,240.39,284.28
		C240.39,284.28,240.39,284.28,240.39,284.28 M240.31,282.11c-0.23-0.14-0.47-0.3-0.71-0.46c-0.11-1.42-0.31-2.83-0.58-4.21
		c0.2-0.14,0.4-0.28,0.61-0.43C239.97,278.67,240.2,280.38,240.31,282.11"/>
	<path class="st3" d="M251.63,290.79c-0.46-0.47-0.95-0.91-1.46-1.31c0.4-1.38,0.67-2.79,0.8-4.21c0.2-0.01,0.4-0.02,0.6-0.03
		c0.5-0.03,1.06-0.11,1.53-0.31c-0.67,4.23-1.37,5.56-1.38,5.57l-0.09,0.17l-0.02,0.03v0l0,0L251.63,290.79 M249.6,289.04
		c-0.87-0.64-1.79-1.2-2.76-1.73c0.11-0.74,0.2-1.47,0.26-2.21c0.86,0.14,1.72,0.2,2.59,0.2c0.2,0,0.4,0,0.6-0.01
		C250.17,286.55,249.94,287.8,249.6,289.04 M246.21,286.98c-0.63-0.33-1.28-0.64-1.94-0.95c0.02-0.59,0.03-1.17,0.03-1.75
		c0.69,0.29,1.4,0.52,2.14,0.69C246.38,285.64,246.31,286.31,246.21,286.98 M243.61,285.72c-1.07-0.49-2.15-0.96-3.22-1.44
		c-0.01-0.73-0.03-1.45-0.08-2.17c0.55,0.34,1.04,0.63,1.39,0.84c0.62,0.37,1.26,0.72,1.92,1.03
		C243.63,284.56,243.62,285.14,243.61,285.72 M239.71,283.97c-2.08-0.96-4.1-2.01-5.89-3.36c0.98-0.39,1.93-0.91,2.9-1.57
		c0.65,0.98,1.79,1.88,2.88,2.61C239.66,282.42,239.7,283.2,239.71,283.97"/>
	<path class="st4" d="M250.17,289.47c-0.19-0.15-0.38-0.29-0.57-0.44c0.34-1.23,0.57-2.49,0.7-3.75c0.23-0.01,0.45-0.01,0.68-0.03
		C250.84,286.68,250.57,288.09,250.17,289.47"/>
	<path class="st4" d="M246.84,287.31c-0.21-0.11-0.41-0.22-0.63-0.33c0.1-0.67,0.17-1.34,0.22-2.01c0.01,0,0.02,0,0.03,0.01
		c0.21,0.05,0.42,0.09,0.63,0.12C247.03,285.83,246.95,286.57,246.84,287.31"/>
	<path class="st4" d="M244.27,286.03c-0.22-0.1-0.44-0.2-0.66-0.31c0.02-0.58,0.02-1.16,0.01-1.74c0.23,0.1,0.45,0.2,0.68,0.3
		C244.3,284.86,244.3,285.44,244.27,286.03"/>
	<path class="st4" d="M240.39,284.28c-0.22-0.1-0.45-0.2-0.67-0.31c-0.01-0.78-0.05-1.55-0.11-2.32c0.24,0.16,0.48,0.32,0.71,0.46
		C240.35,282.83,240.38,283.55,240.39,284.28"/>
</g>
<g>
	<path class="st1" d="M173.23,291.67c0,0-6.45-11.33,3.98-24.56c1.96,5.33,10.39,11.91,15.21,13.6c-2.81,1.57-6,3.32-8.15,4.11
		C180.55,286.2,174.38,290.01,173.23,291.67z"/>
	<path class="st2" d="M175.16,289.48C175.15,289.48,175.15,289.48,175.16,289.48c0.18-0.16,0.38-0.3,0.57-0.44c0,0,0,0,0,0.01
		C175.53,289.19,175.34,289.33,175.16,289.48 M175.03,285.29c-0.23-0.01-0.45-0.01-0.68-0.03c-0.49-5.16,0.79-10.5,3.76-15.66
		l0.01-0.01c0.12,0.22,0.25,0.45,0.39,0.66C175.72,275.22,174.54,280.35,175.03,285.29"/>
	<path class="st2" d="M178.49,287.31C178.49,287.31,178.48,287.31,178.49,287.31c0.21-0.12,0.41-0.23,0.62-0.34c0,0,0,0,0,0.01
		C178.9,287.09,178.69,287.2,178.49,287.31 M178.23,285.1c-0.36-4.39,0.22-8.72,1.73-12.91c0.17,0.19,0.34,0.37,0.52,0.56
		c-1.38,3.98-1.91,8.08-1.58,12.22c-0.01,0-0.02,0-0.03,0.01C178.65,285.02,178.44,285.06,178.23,285.1"/>
	<path class="st2" d="M181.05,286.03C181.05,286.03,181.05,286.03,181.05,286.03c0.22-0.11,0.44-0.21,0.66-0.31c0,0,0,0,0,0.01
		C181.49,285.83,181.27,285.93,181.05,286.03 M181.02,284.28c0.02-3.33,0.47-6.54,1.36-9.77c0.19,0.16,0.38,0.31,0.57,0.46
		c-0.78,2.92-1.2,5.94-1.25,9.01C181.48,284.09,181.25,284.19,181.02,284.28"/>
	<path class="st2" d="M184.94,284.28C184.94,284.28,184.94,284.28,184.94,284.28c0.22-0.11,0.45-0.21,0.67-0.31c0,0,0,0,0,0
		C185.38,284.08,185.16,284.18,184.94,284.28 M185.01,282.11c0.11-1.73,0.34-3.44,0.67-5.1c0.2,0.14,0.41,0.29,0.61,0.43
		c-0.27,1.38-0.46,2.79-0.58,4.21C185.48,281.82,185.24,281.97,185.01,282.11"/>
	<path class="st3" d="M173.69,290.79l0.03-0.09l0,0v0l-0.02-0.03l-0.09-0.17c-0.01-0.01-0.71-1.35-1.38-5.57
		c0.47,0.19,1.02,0.28,1.53,0.31c0.2,0.01,0.4,0.02,0.6,0.03c0.13,1.42,0.4,2.83,0.8,4.21
		C174.64,289.88,174.15,290.32,173.69,290.79 M175.72,289.04c-0.34-1.23-0.57-2.49-0.7-3.75c0.2,0,0.4,0.01,0.6,0.01
		c0.87,0,1.74-0.05,2.59-0.2c0.06,0.73,0.15,1.47,0.26,2.21C177.52,287.83,176.59,288.4,175.72,289.04 M179.11,286.98
		c-0.1-0.67-0.17-1.34-0.22-2.01c0.73-0.17,1.44-0.4,2.14-0.69c0,0.58,0,1.16,0.03,1.75C180.39,286.33,179.74,286.65,179.11,286.98
		 M181.71,285.72c-0.02-0.58-0.02-1.16-0.01-1.74c0.66-0.31,1.3-0.66,1.92-1.03c0.35-0.21,0.84-0.5,1.39-0.84
		c-0.05,0.72-0.07,1.44-0.08,2.17C183.86,284.77,182.78,285.24,181.71,285.72 M185.61,283.97c0.01-0.78,0.05-1.55,0.11-2.32
		c1.08-0.73,2.23-1.64,2.88-2.61c0.96,0.65,1.91,1.17,2.9,1.57C189.71,281.96,187.69,283.01,185.61,283.97"/>
	<path class="st4" d="M175.15,289.47c0.19-0.15,0.38-0.29,0.57-0.44c-0.34-1.23-0.57-2.49-0.7-3.75c-0.23-0.01-0.45-0.01-0.68-0.03
		C174.48,286.68,174.75,288.09,175.15,289.47"/>
	<path class="st4" d="M178.48,287.31c0.21-0.11,0.41-0.22,0.63-0.33c-0.1-0.67-0.17-1.34-0.22-2.01c-0.01,0-0.02,0-0.03,0.01
		c-0.21,0.05-0.42,0.09-0.63,0.12C178.29,285.83,178.37,286.57,178.48,287.31"/>
	<path class="st4" d="M181.05,286.03c0.22-0.1,0.44-0.2,0.66-0.31c-0.02-0.58-0.02-1.16-0.01-1.74c-0.23,0.1-0.45,0.2-0.68,0.3
		C181.02,284.86,181.03,285.44,181.05,286.03"/>
	<path class="st4" d="M184.94,284.28c0.22-0.1,0.45-0.2,0.67-0.31c0.01-0.78,0.05-1.55,0.11-2.32c-0.24,0.16-0.48,0.32-0.71,0.46
		C184.97,282.83,184.94,283.55,184.94,284.28"/>
</g>
</svg>
