<?xml version="1.0" encoding="utf-8"?>
<!-- Generator: Adobe Illustrator 26.0.1, SVG Export Plug-In . SVG Version: 6.00 Build 0)  -->
<svg version="1.1" id="Layer_1" xmlns="http://www.w3.org/2000/svg" xmlns:xlink="http://www.w3.org/1999/xlink" x="0px" y="0px"
	 viewBox="0 0 432 648" style="enable-background:new 0 0 432 648;" xml:space="preserve">
<style type="text/css">
	.st0{display:none;opacity:0.5;fill:none;stroke:#231F20;stroke-width:0.05;stroke-miterlimit:10;}
	.st1{fill:#E92A2A;}
	.st2{fill:#D52626;}
</style>
<path class="st0" d="M418.44,444.92c-2.94,1.51-8.31,5.17-9.04,17.27"/>
<path class="st1" d="M141.07,252.19c-1.8,9.31-6.4,17.17-10.42,25.71c-2.95,6.28-4.17,14.1-4.68,20.94
	c-0.18-1.51-0.52-4.05-0.71-5.53c-0.5-4.13-0.98-8.03-1.23-12.24c-0.66-10.86,2.51-16.45,2.94-17.14l0.05-0.08
	c3.9-5.2,10.04-8.98,11.67-15.37c0.32,0.74,0.64,1.44,0.97,2.13C140.05,251.45,140.54,251.94,141.07,252.19"/>
<path class="st2" d="M124.94,290.59c-0.1-0.82-0.19-1.63-0.28-2.44c1.34-6.78,4.7-13.01,7.97-19.06c3-5.57,6.11-11.32,7.65-17.5
	c0.09,0.1,0.18,0.19,0.27,0.27c0.1,0.08,0.19,0.16,0.3,0.22c-1.58,6.1-4.64,11.76-7.6,17.25
	C129.62,276.03,125.88,282.94,124.94,290.59"/>
<path class="st2" d="M124.01,280.54c-0.07-1.3-0.08-2.53-0.04-3.68c1.3-4.67,4.39-8.89,7.4-13c3.26-4.46,6.64-9.07,7.81-14.27
	c0.15,0.32,0.29,0.64,0.44,0.95c-1.35,4.94-4.56,9.32-7.68,13.57C128.03,269.44,124.32,274.5,124.01,280.54"/>
<path class="st1" d="M283.56,252.19c1.8,9.31,6.4,17.17,10.42,25.71c2.95,6.28,4.17,14.1,4.68,20.94c0.18-1.51,0.52-4.05,0.71-5.53
	c0.5-4.13,0.98-8.03,1.23-12.24c0.66-10.86-2.51-16.45-2.94-17.14l-0.05-0.08c-3.9-5.2-10.04-8.98-11.67-15.37
	c-0.32,0.74-0.64,1.44-0.97,2.13C284.58,251.45,284.09,251.94,283.56,252.19"/>
<path class="st2" d="M299.69,290.59c0.1-0.82,0.19-1.63,0.28-2.44c-1.34-6.78-4.7-13.01-7.97-19.06c-3-5.57-6.11-11.32-7.65-17.5
	c-0.09,0.1-0.18,0.19-0.27,0.27c-0.1,0.08-0.19,0.16-0.3,0.22c1.58,6.1,4.64,11.76,7.6,17.25
	C295.01,276.03,298.75,282.94,299.69,290.59"/>
<path class="st2" d="M300.62,280.54c0.07-1.3,0.08-2.53,0.04-3.68c-1.3-4.67-4.39-8.89-7.4-13c-3.26-4.46-6.64-9.07-7.81-14.27
	c-0.15,0.32-0.29,0.64-0.44,0.95c1.35,4.94,4.56,9.32,7.68,13.57C296.6,269.44,300.3,274.5,300.62,280.54"/>
</svg>
