<svg id="Layer_1" data-name="Layer 1" xmlns="http://www.w3.org/2000/svg" viewBox="0 0 167.96 63.94"><defs><style>.cls-1{fill:#e92a2a;}.cls-2{fill:#d52626;}</style></defs><path class="cls-1" d="M145.34,273.35a71.48,71.48,0,0,0-5.78,24.83c-1.22,4.47-3.19,9.89-4,14.31-.38,2.07-.63,4.17-1,6.24-.7,3.36-4.68,5.46-5.15.41-1.07-11.41-.28-24.72.53-36v0a61.5,61.5,0,0,1,3.26-8.08c2.79-5.67,5.59-11,7.48-16.8a28.07,28.07,0,0,0,4.73,15.14" transform="translate(-128.82 -258.21)"/><path class="cls-2" d="M132,322.05a137.71,137.71,0,0,1,2.23-49.16c.45-.9.9-1.8,1.33-2.7a136.87,136.87,0,0,0-2.93,51.55l-.15.09a2.56,2.56,0,0,1-.48.22" transform="translate(-128.82 -258.21)"/><path class="cls-2" d="M134.25,319.55a189.21,189.21,0,0,1,3.46-54c.26-.58.51-1.16.76-1.73s.41-1,.61-1.47a188.93,188.93,0,0,0-4.33,54.94c-.08.48-.17.95-.26,1.42a5.54,5.54,0,0,1-.24.82" transform="translate(-128.82 -258.21)"/><path class="cls-2" d="M136.59,308.14a288.16,288.16,0,0,1,5.29-42c.13.42.28.85.43,1.27a290.29,290.29,0,0,0-4.89,37.9c-.29,1-.57,1.91-.83,2.85" transform="translate(-128.82 -258.21)"/><path class="cls-1" d="M280.26,273.35a71.27,71.27,0,0,1,5.79,24.83c1.21,4.47,3.18,9.89,4,14.31.39,2.07.64,4.17,1.06,6.24.69,3.36,4.67,5.46,5.15.41,1.07-11.41.27-24.72-.54-36v0a58.86,58.86,0,0,0-3.26-8.08c-2.78-5.67-5.58-11-7.48-16.8a27.9,27.9,0,0,1-4.73,15.14" transform="translate(-128.82 -258.21)"/><path class="cls-2" d="M293.66,322.05a137.71,137.71,0,0,0-2.24-49.16l-1.33-2.7A137.08,137.08,0,0,1,293,321.74l.15.09a2.56,2.56,0,0,0,.48.22" transform="translate(-128.82 -258.21)"/><path class="cls-2" d="M291.36,319.55a189.57,189.57,0,0,0-3.46-54l-.77-1.73-.61-1.47a188.25,188.25,0,0,1,4.33,54.94c.09.48.17.95.27,1.42a5.54,5.54,0,0,0,.24.82" transform="translate(-128.82 -258.21)"/><path class="cls-2" d="M289,308.14a289.55,289.55,0,0,0-5.3-42c-.13.42-.27.85-.43,1.27a286.91,286.91,0,0,1,4.89,37.9q.44,1.44.84,2.85" transform="translate(-128.82 -258.21)"/></svg>