<?xml version="1.0" encoding="utf-8"?>
<!-- Generator: Adobe Illustrator 26.0.1, SVG Export Plug-In . SVG Version: 6.00 Build 0)  -->
<svg version="1.1" id="Layer_1" xmlns="http://www.w3.org/2000/svg" xmlns:xlink="http://www.w3.org/1999/xlink" x="0px" y="0px"
	 viewBox="0 0 432 648" style="enable-background:new 0 0 432 648;" xml:space="preserve">
<style type="text/css">
	.st0{display:none;opacity:0.5;fill:none;stroke:#231F20;stroke-width:0.05;stroke-miterlimit:10;}
	.st1{fill:#E92A2A;}
	.st2{fill:#D52626;}
	.st3{fill:#9A1A1C;}
	.st4{fill:#8D1819;}
</style>
<path class="st0" d="M418.44,444.92c-2.94,1.51-8.31,5.17-9.04,17.27"/>
<g>
	<g>
		<path class="st1" d="M153.81,260.64c-12.12,15.21-16.56,38.46-11.57,57.33v0.01c0.4-2.09,0.84-6.66,2.12-11.47
			c1.28-4.82,3.39-9.88,4.7-13.34c2.98-7.89,5.95-15.73,6.15-20.46c0.31-7.34-0.48-10.04-0.83-11.09
			C154.38,261.62,153.82,260.64,153.81,260.64z"/>
		<path class="st2" d="M142.29,315.25c0-0.01,0-0.01,0-0.02c0.07-1.22,0.19-2.56,0.37-4.06c0,0,0,0,0,0
			C142.48,312.68,142.35,314.03,142.29,315.25 M141.54,300.66c0.03-4.16,0.39-8.29,1.39-12.28c1.94-7.74,5.76-14.14,9.81-20.9
			c0.01-0.02,0.03-0.04,0.04-0.06c0.14,0.2,0.29,0.38,0.41,0.59c-4.05,6.77-8.17,13.81-9.78,21.38c-0.68,3.2-1.01,6.33-1.12,9.45
			C142.02,299.44,141.77,300.05,141.54,300.66"/>
		<path class="st2" d="M143.74,306.17C143.74,306.17,143.74,306.17,143.74,306.17c0.2-0.71,0.43-1.44,0.68-2.2c0,0,0,0.01,0,0.01
			C144.17,304.73,143.94,305.47,143.74,306.17 M145.85,292.14c2.25-7.63,5.86-14.87,8.72-20.52l0,0.01
			c-0.01,0.33-0.02,0.68-0.04,1.02c-0.01,0.19-0.02,0.39-0.04,0.59c-2.62,5.23-5.25,10.82-7.17,16.47c-0.47,0.76-0.94,1.52-1.4,2.28
			C145.91,292.05,145.88,292.1,145.85,292.14"/>
		<path class="st3" d="M142.24,317.94c-1.11-4.21-1.73-8.64-1.91-13.13c0.28-1.41,0.7-2.79,1.2-4.15
			c-0.03,4.47,0.32,8.99,0.66,13.43c0.03,0.38,0.06,0.77,0.09,1.15c-0.04,0.67-0.06,1.2-0.06,1.8
			C142.22,317.31,142.24,317.68,142.24,317.94 M142.66,311.17c-0.3-4.17-0.52-8.24-0.38-12.34c1.02-2.31,2.27-4.54,3.57-6.69
			c-1.36,4.62-2.22,9.38-2.11,14.02c-0.51,1.75-0.87,3.32-1.04,4.64C142.69,310.93,142.67,311.05,142.66,311.17 M144.42,303.97
			c0.19-4.68,1.31-9.49,2.92-14.24c2.66-4.3,5.33-8.64,6.67-13.47c-1.03,4.61-3.37,10.82-5.66,16.87
			C146.88,296.97,145.47,300.7,144.42,303.97"/>
		<path class="st4" d="M143.74,306.16c-0.11-4.64,0.75-9.4,2.11-14.02c0,0,0,0,0,0c0.49-0.81,0.99-1.61,1.49-2.42
			c-1.61,4.76-2.73,9.56-2.92,14.24C144.17,304.73,143.94,305.46,143.74,306.16"/>
		<path class="st4" d="M142.26,314.7c-0.4-4.35-0.76-10.72-0.74-13.99c0.29-0.78,0.44-1.09,0.76-1.87
			c-0.18,4.26,0.15,9.35,0.36,12.26C142.7,311.9,142.26,313.96,142.26,314.7"/>
		<path class="st4" d="M153.19,268c0.22-0.39,0.72-1.17,1.25-2.11c-0.05-0.55-0.03-0.65-0.09-1.13c-0.47,0.81-1,1.69-1.58,2.65
			L153.19,268z"/>
		<path class="st3" d="M154.57,271.62L154.57,271.62c-0.22-1.06-1.18-3.28-1.38-3.62c0.3-0.5,0.95-1.62,1.25-2.12
			C154.57,267.41,154.64,269.33,154.57,271.62C154.57,271.62,154.57,271.62,154.57,271.62 M152.77,267.41
			c-0.56-0.81-1.21-1.55-1.96-2.19c0.71-1.09,1.44-2.17,2.21-3.21c0.2-0.27,0.41-0.54,0.62-0.8c0.03,0.08,0.05,0.18,0.08,0.29
			c0.17,0.65,0.42,1.71,0.61,3.28C153.82,265.66,153.29,266.55,152.77,267.41"/>
	</g>
	<g>
		<path class="st1" d="M272.03,260.65c12.12,15.21,16.67,38.25,11.68,57.12v0.01c-0.12,0.46-0.55-2.98-1.03-6.83
			c-0.5-4-3.03-10.97-5.65-17.89c-2.98-7.89-6.09-15.82-6.28-20.55C270.44,265.17,272.03,260.65,272.03,260.65z"/>
		<path class="st2" d="M283.67,315.06c-0.07-1.22-0.19-2.57-0.37-4.08c0,0,0,0,0,0c0.18,1.5,0.31,2.84,0.37,4.06
			C283.67,315.04,283.67,315.05,283.67,315.06 M284.42,300.46c-0.23-0.61-0.48-1.22-0.74-1.82c-0.11-3.12-0.44-6.25-1.12-9.45
			c-1.61-7.57-5.73-14.61-9.78-21.38c0.13-0.21,0.27-0.39,0.41-0.59c0.01,0.02,0.03,0.04,0.04,0.06c4.04,6.77,7.86,13.16,9.81,20.9
			C284.03,292.17,284.39,296.3,284.42,300.46"/>
		<path class="st2" d="M282.21,305.97c-0.2-0.7-0.43-1.44-0.68-2.19c0,0,0-0.01,0-0.01C281.78,304.53,282.01,305.26,282.21,305.97
			C282.21,305.97,282.21,305.97,282.21,305.97 M280.11,291.95c-0.03-0.05-0.06-0.1-0.09-0.14c-0.46-0.76-0.93-1.52-1.4-2.28
			c-1.92-5.66-4.55-11.24-7.17-16.47c-0.02-0.2-0.03-0.4-0.04-0.59c-0.01-0.35-0.03-0.69-0.04-1.02l0-0.01
			C274.25,277.07,277.86,284.32,280.11,291.95"/>
		<path class="st3" d="M283.71,317.74c0.01-0.26,0.02-0.63,0.02-0.9c0-0.6-0.03-1.13-0.06-1.8c0.03-0.38,0.06-0.77,0.09-1.15
			c0.34-4.44,0.69-8.96,0.66-13.43c0.51,1.36,0.92,2.74,1.2,4.15C285.44,309.1,284.82,313.53,283.71,317.74 M283.3,310.97
			c-0.01-0.12-0.03-0.25-0.05-0.37c-0.16-1.32-0.53-2.88-1.04-4.64c0.11-4.64-0.75-9.4-2.11-14.02c1.3,2.15,2.55,4.38,3.57,6.69
			C283.82,302.74,283.59,306.81,283.3,310.97 M281.54,303.77c-1.06-3.27-2.47-7-3.93-10.85c-2.29-6.05-4.63-12.25-5.66-16.87
			c1.33,4.83,4.01,9.17,6.67,13.47C280.23,294.28,281.35,299.09,281.54,303.77"/>
		<path class="st4" d="M282.21,305.97c0.11-4.64-0.75-9.4-2.11-14.02c0,0,0,0,0,0c-0.49-0.81-0.99-1.61-1.49-2.42
			c1.61,4.76,2.73,9.56,2.92,14.24C281.78,304.53,282.01,305.26,282.21,305.97"/>
		<path class="st4" d="M283.69,314.5c0.4-4.35,0.76-10.72,0.74-13.99c-0.29-0.78-0.44-1.09-0.76-1.87
			c0.18,4.26-0.15,9.35-0.36,12.26C283.25,311.7,283.7,313.77,283.69,314.5"/>
		<path class="st4" d="M272.76,267.81c-0.22-0.39-0.72-1.17-1.25-2.11c0.05-0.55,0.03-0.65,0.09-1.13c0.47,0.81,1,1.69,1.58,2.65
			L272.76,267.81z"/>
		<path class="st3" d="M271.38,271.43C271.38,271.42,271.38,271.42,271.38,271.43c-0.06-2.29,0.01-4.21,0.13-5.73
			c0.3,0.5,0.95,1.61,1.25,2.12C272.57,268.15,271.6,270.37,271.38,271.43L271.38,271.43 M273.18,267.22
			c-0.52-0.86-1.04-1.75-1.56-2.63c0.18-1.57,0.43-2.63,0.61-3.28c0.03-0.11,0.06-0.21,0.08-0.29c0.21,0.26,0.41,0.53,0.62,0.8
			c0.77,1.04,1.5,2.11,2.21,3.21C274.39,265.67,273.74,266.41,273.18,267.22"/>
	</g>
</g>
</svg>
