<?xml version="1.0" encoding="utf-8"?>
<!-- Generator: Adobe Illustrator 26.0.1, SVG Export Plug-In . SVG Version: 6.00 Build 0)  -->
<svg version="1.1" id="Layer_1" xmlns="http://www.w3.org/2000/svg" xmlns:xlink="http://www.w3.org/1999/xlink" x="0px" y="0px"
	 viewBox="0 0 432 648" style="enable-background:new 0 0 432 648;" xml:space="preserve">
<style type="text/css">
	.st0{display:none;opacity:0.5;fill:none;stroke:#231F20;stroke-width:0.05;stroke-miterlimit:10;}
	.st1{fill:#E92A2A;}
	.st2{fill:#D52626;}
	.st3{fill:#9A1A1C;}
	.st4{fill:#8D1819;}
</style>
<path class="st0" d="M418.44,444.92c-2.94,1.51-8.31,5.17-9.04,17.27"/>
<g>
	<g>
		<path class="st1" d="M228.95,473.32c0,2.81,0.97,5.71,1.9,8.5c0.48,1.43,0.97,2.91,1.31,4.3l0.91,2.09
			c2.33,5.31,4.68,10.66,6.66,16.11c2.77,3.79,8.34,2.84,10-1.09v-0.01c0.01-7.03-0.1-14.04-0.34-21.05
			c-0.3-8.51-1.63-16.74-4.25-24.48l-0.13-0.36c-1.97-5.72-4.65-11.15-8.16-16.23c-0.51,1.33-0.96,2.61-1.3,3.83
			c-0.28,5.79-2.16,10.9-3.72,16.2C230.58,465.35,229.39,469.34,228.95,473.32"/>
		<path class="st2" d="M243.75,506.68c-0.25-0.03-0.51-0.07-0.76-0.14c-1.37-3.69-3.06-7.39-4.69-10.97
			c-1.07-2.35-2.15-4.71-3.15-7.1c-0.14-0.86-0.26-1.72-0.37-2.58c1.26,3.19,2.69,6.33,4.12,9.44
			C240.6,499.03,242.35,502.86,243.75,506.68 M230.32,466.44c0-0.01,0-0.01,0-0.02c0.37-1.41,0.79-2.83,1.21-4.28
			c0,0.01,0,0.01,0,0.01C231.11,463.6,230.7,465.03,230.32,466.44"/>
		<path class="st2" d="M246.18,506.44c-4.29-8.71-9.16-18.64-11.87-28.9c0.01-0.89,0.04-1.79,0.08-2.68
			c2.57,11.31,7.97,22.33,12.41,31.35C246.6,506.29,246.39,506.37,246.18,506.44"/>
		<path class="st2" d="M249.35,481.2c-1.34-8.53-4.29-16.69-8.69-24.06c0.21-0.08,0.43-0.15,0.65-0.2
			c3.48,5.89,6.07,12.27,7.66,18.93C249.15,477.63,249.27,479.41,249.35,481.2 M235.09,449.15
			C235.09,449.14,235.09,449.14,235.09,449.15c0.05-0.29,0.1-0.59,0.14-0.88c0,0,0,0,0,0C235.19,448.56,235.14,448.85,235.09,449.15
			"/>
		<path class="st2" d="M247.98,505.5c-4.38-12.26-9.04-26.35-12.1-41.34c0.11-0.47,0.24-0.94,0.39-1.4
			c2.96,15.11,7.57,29.16,12.25,42.27C248.35,505.19,248.17,505.35,247.98,505.5 M248.61,504.93c-0.67-15.65-2.49-31.88-10.19-46.23
			c0.16-0.18,0.33-0.35,0.51-0.51c7.73,14.29,9.61,30.41,10.31,45.95C249.06,504.42,248.84,504.69,248.61,504.93 M234.05,453.71
			L234.05,453.71c0.21-0.79,0.41-1.58,0.6-2.38c0,0,0,0,0,0C234.47,452.13,234.27,452.92,234.05,453.71"/>
		<path class="st3" d="M240.1,504.74c-0.11-0.13-0.23-0.25-0.34-0.4c-1.98-5.45-4.34-10.81-6.67-16.13l-0.92-2.09
			c-0.31-1.27-0.75-2.6-1.18-3.91c-0.04-0.13-0.09-0.25-0.13-0.38c-0.13-0.38-0.25-0.76-0.38-1.15c-0.8-2.44-1.52-4.94-1.52-7.36
			c0.25-2.28,0.75-4.56,1.37-6.88c-0.45,7.69,1.86,14.97,4.83,22.03C236.07,494.08,237.73,499.57,240.1,504.74 M234.79,485.89
			c-2.98-7.56-4.93-15.39-3.25-23.74c0.08-0.28,0.16-0.55,0.25-0.83c0.02-0.07,0.04-0.14,0.06-0.2c0.16-0.54,0.33-1.08,0.49-1.62
			c-0.43,6.01,0.41,12.08,1.98,18.04C234.29,480.32,234.45,483.12,234.79,485.89 M234.4,474.85c-1.42-6.28-1.98-12.66-1-18.83
			c0.22-0.75,0.44-1.5,0.64-2.25c0-0.02,0.01-0.04,0.01-0.06c0.51,3.52,1.13,7.01,1.83,10.44c-0.09,0.37-0.17,0.73-0.25,1.1
			C234.97,468.41,234.56,471.63,234.4,474.85 M236.27,462.75c-0.67-3.41-1.25-6.88-1.73-10.4c1.44,2.07,2.73,4.18,3.89,6.34
			C237.4,459.82,236.74,461.25,236.27,462.75 M238.94,458.19c-1.27-2.34-2.69-4.63-4.29-6.86c0.16-0.72,0.31-1.45,0.44-2.18
			c2.06,2.54,3.92,5.21,5.57,7.99c-0.54,0.2-1.05,0.49-1.5,0.85C239.09,458.05,239.01,458.12,238.94,458.19 M245.01,457.37
			c-0.68-0.4-1.5-0.59-2.34-0.59c-0.45,0-0.91,0.05-1.35,0.16c-1.8-3.03-3.83-5.94-6.08-8.68c0.17-1.11,0.29-2.25,0.34-3.41
			c0.04-0.13,0.07-0.26,0.11-0.39c0.07-0.23,0.11-0.54,0.18-0.78c0.28-0.87,0.63-1.78,0.98-2.69c3.51,5.08,6.19,10.61,8.16,16.33
			V457.37"/>
		<path class="st4" d="M235.15,488.47c-2.97-7.07-5.28-14.34-4.83-22.03c0.37-1.41,0.79-2.83,1.21-4.28
			c-1.68,8.34,0.27,16.17,3.25,23.74C234.89,486.75,235.01,487.61,235.15,488.47"/>
		<path class="st4" d="M234.32,477.53c-1.57-5.96-2.41-12.03-1.98-18.04c0.36-1.16,0.72-2.31,1.06-3.48
			c-0.97,6.18-0.42,12.55,1,18.83C234.35,475.74,234.32,476.64,234.32,477.53"/>
		<path class="st4" d="M240.66,457.14c-1.66-2.78-3.52-5.45-5.57-7.99c0.05-0.29,0.1-0.59,0.14-0.88c2.26,2.74,4.29,5.64,6.08,8.68
			C241.1,456.99,240.88,457.06,240.66,457.14"/>
		<path class="st4" d="M235.88,464.16c-0.7-3.44-1.32-6.92-1.83-10.44c0.21-0.79,0.41-1.58,0.6-2.38c1.6,2.23,3.02,4.52,4.29,6.86
			c-0.18,0.16-0.35,0.33-0.51,0.51c-1.16-2.16-2.45-4.28-3.89-6.34c0.48,3.52,1.07,6.99,1.73,10.4
			C236.12,463.22,236,463.68,235.88,464.16"/>
	</g>
	<g>
		<path class="st1" d="M195.24,473.32c0,2.81-0.97,5.71-1.9,8.5c-0.48,1.43-0.97,2.91-1.31,4.3l-0.91,2.09
			c-2.33,5.31-4.68,10.66-6.66,16.11c-2.77,3.79-8.34,2.84-10-1.09v-0.01c-0.01-7.03,0.1-14.04,0.34-21.05
			c0.3-8.51,1.63-16.74,4.25-24.48l0.13-0.36c1.97-5.72,4.65-11.15,8.16-16.23c0.51,1.33,0.96,2.61,1.3,3.83
			c0.28,5.79,2.16,10.9,3.72,16.2C193.61,465.35,194.79,469.34,195.24,473.32"/>
		<path class="st2" d="M180.43,506.68c1.41-3.82,3.16-7.65,4.85-11.35c1.42-3.11,2.86-6.25,4.12-9.44
			c-0.11,0.86-0.23,1.72-0.37,2.58c-1,2.39-2.08,4.75-3.15,7.1c-1.63,3.58-3.32,7.29-4.69,10.97
			C180.94,506.6,180.69,506.65,180.43,506.68 M193.86,466.44c-0.37-1.41-0.79-2.83-1.21-4.28c0,0,0-0.01,0-0.01
			c0.43,1.45,0.84,2.87,1.21,4.28C193.86,466.42,193.86,466.43,193.86,466.44"/>
		<path class="st2" d="M178,506.44c4.29-8.71,9.16-18.64,11.87-28.9c-0.01-0.89-0.04-1.79-0.08-2.68
			c-2.57,11.31-7.97,22.33-12.41,31.35C177.58,506.29,177.79,506.37,178,506.44"/>
		<path class="st2" d="M174.83,481.2c0.08-1.79,0.2-3.57,0.38-5.33c1.59-6.66,4.17-13.04,7.66-18.93c0.22,0.05,0.44,0.12,0.65,0.2
			C179.13,464.52,176.18,472.67,174.83,481.2 M189.1,449.15c-0.05-0.29-0.1-0.59-0.14-0.88c0,0,0,0,0,0
			C189,448.56,189.05,448.85,189.1,449.15C189.1,449.14,189.1,449.14,189.1,449.15"/>
		<path class="st2" d="M176.2,505.5c-0.19-0.15-0.37-0.3-0.54-0.47c4.68-13.11,9.29-27.16,12.25-42.27c0.15,0.46,0.27,0.93,0.39,1.4
			C185.25,479.15,180.59,493.24,176.2,505.5 M175.57,504.93c-0.23-0.24-0.44-0.5-0.63-0.79c0.7-15.54,2.58-31.66,10.31-45.95
			c0.18,0.16,0.35,0.33,0.51,0.51C178.06,473.05,176.24,489.28,175.57,504.93 M190.13,453.71c-0.21-0.79-0.41-1.58-0.6-2.38
			c0,0,0,0,0,0C189.72,452.13,189.92,452.92,190.13,453.71L190.13,453.71"/>
		<path class="st3" d="M184.09,504.74c2.37-5.17,4.03-10.66,4.95-16.27c2.97-7.07,5.28-14.34,4.83-22.03
			c0.61,2.33,1.11,4.61,1.37,6.88c0,2.42-0.72,4.92-1.52,7.36c-0.13,0.38-0.25,0.77-0.38,1.15c-0.04,0.13-0.08,0.25-0.13,0.38
			c-0.44,1.31-0.88,2.65-1.18,3.91l-0.92,2.09c-2.33,5.32-4.69,10.68-6.67,16.13C184.32,504.49,184.2,504.61,184.09,504.74
			 M189.4,485.89c0.34-2.77,0.49-5.56,0.47-8.35c1.57-5.96,2.41-12.03,1.98-18.04c0.16,0.54,0.33,1.08,0.49,1.62
			c0.02,0.07,0.04,0.14,0.06,0.2c0.08,0.28,0.16,0.56,0.25,0.83C194.33,470.49,192.38,478.33,189.4,485.89 M189.79,474.85
			c-0.16-3.22-0.58-6.44-1.24-9.6c-0.08-0.36-0.16-0.73-0.25-1.1c0.7-3.44,1.32-6.92,1.83-10.44c0,0.02,0.01,0.04,0.01,0.06
			c0.2,0.75,0.42,1.5,0.64,2.25C191.76,462.19,191.21,468.57,189.79,474.85 M187.92,462.75c-0.47-1.5-1.13-2.93-2.16-4.06
			c1.16-2.16,2.45-4.28,3.89-6.34C189.17,455.87,188.59,459.34,187.92,462.75 M185.25,458.19c-0.08-0.07-0.15-0.13-0.23-0.2
			c-0.44-0.36-0.95-0.65-1.5-0.85c1.66-2.78,3.52-5.45,5.57-7.99c0.13,0.74,0.28,1.46,0.44,2.18
			C187.94,453.56,186.52,455.85,185.25,458.19 M179.17,457.37v-0.04c1.97-5.72,4.65-11.25,8.16-16.33c0.35,0.92,0.7,1.83,0.98,2.69
			c0.07,0.23,0.12,0.55,0.18,0.78c0.04,0.13,0.08,0.26,0.11,0.39c0.05,1.16,0.17,2.29,0.34,3.41c-2.26,2.74-4.29,5.64-6.08,8.68
			c-0.44-0.11-0.9-0.16-1.35-0.16C180.68,456.78,179.86,456.97,179.17,457.37"/>
		<path class="st4" d="M189.03,488.47c2.97-7.07,5.28-14.34,4.83-22.03c-0.37-1.41-0.79-2.83-1.21-4.28
			c1.68,8.34-0.27,16.17-3.25,23.74C189.29,486.75,189.17,487.61,189.03,488.47"/>
		<path class="st4" d="M189.87,477.53c1.57-5.96,2.41-12.03,1.98-18.04c-0.36-1.16-0.72-2.31-1.06-3.48
			c0.97,6.18,0.42,12.55-1,18.83C189.83,475.74,189.86,476.64,189.87,477.53"/>
		<path class="st4" d="M183.52,457.14c1.66-2.78,3.52-5.45,5.57-7.99c-0.05-0.29-0.1-0.59-0.14-0.88c-2.26,2.74-4.29,5.64-6.08,8.68
			C183.09,456.99,183.31,457.06,183.52,457.14"/>
		<path class="st4" d="M188.3,464.16c0.7-3.44,1.32-6.92,1.83-10.44c-0.21-0.79-0.41-1.58-0.6-2.38c-1.6,2.23-3.02,4.52-4.29,6.86
			c0.18,0.16,0.35,0.33,0.51,0.51c1.16-2.16,2.45-4.28,3.89-6.34c-0.48,3.52-1.07,6.99-1.73,10.4
			C188.06,463.22,188.19,463.68,188.3,464.16"/>
	</g>
</g>
</svg>
