<?xml version="1.0" encoding="utf-8"?>
<!-- Generator: Adobe Illustrator 26.0.1, SVG Export Plug-In . SVG Version: 6.00 Build 0)  -->
<svg version="1.1" id="Layer_1" xmlns="http://www.w3.org/2000/svg" xmlns:xlink="http://www.w3.org/1999/xlink" x="0px" y="0px"
	 viewBox="0 0 432 648" style="enable-background:new 0 0 432 648;" xml:space="preserve">
<style type="text/css">
	.st0{display:none;opacity:0.5;fill:none;stroke:#231F20;stroke-width:0.05;stroke-miterlimit:10;}
	.st1{fill:#E92A2A;}
	.st2{fill:#D52626;}
	.st3{fill:#9A1A1C;}
	.st4{fill:#8D1819;}
</style>
<path class="st0" d="M418.44,444.92c-2.94,1.51-8.31,5.17-9.04,17.27"/>
<path class="st1" d="M179.12,456.44c-2.47,7.3-3.8,15.05-4.29,23.11c-0.34,5.67-0.47,11.39-0.48,17.1
	c-2.91,3.84-9.47,2.61-10.31-2.9l-0.05-0.13c-2.07-13.06-3.58-26.16-1.89-39.26l0.08-0.2c1.38-4.12,3.97-11.28,5.73-16.12l0.05-0.11
	c0.85-1.94,1.69-3.9,2.51-5.85C176.36,438.94,179.38,447.44,179.12,456.44"/>
<path class="st1" d="M246.19,456.44c2.47,7.3,3.8,15.05,4.29,23.11c0.34,5.67,0.46,11.39,0.48,17.1c2.91,3.84,9.47,2.61,10.31-2.9
	l0.05-0.13c2.07-13.06,3.58-26.16,1.89-39.26l-0.08-0.2c-1.38-4.12-3.97-11.28-5.73-16.12l-0.05-0.11c-0.85-1.94-1.69-3.9-2.51-5.85
	C248.94,438.94,245.93,447.44,246.19,456.44"/>
<path class="st2" d="M176.11,468.4c-0.24-9.9-2.8-19.55-7.44-28.05c0.18-0.13,0.37-0.25,0.56-0.36c4.26,7.8,6.79,16.57,7.41,25.63
	C176.45,466.54,176.27,467.47,176.11,468.4 M167.71,438.65C167.71,438.65,167.7,438.65,167.71,438.65c0.06-0.2,0.13-0.38,0.2-0.57
	c0.02-0.04,0.03-0.08,0.05-0.12l-0.01,0.04C167.87,438.21,167.79,438.43,167.71,438.65"/>
<path class="st2" d="M171.9,498.5c3.19-19.76,0.99-38.36-6.37-53.86c0.11-0.3,0.21-0.59,0.32-0.89c7.58,15.62,9.93,34.41,6.78,54.4
	c-0.22,0.12-0.45,0.23-0.68,0.32C171.93,498.49,171.91,498.5,171.9,498.5"/>
<path class="st2" d="M169.93,498.88c0.88-18-1.14-34.14-6.17-49.27c0.12-0.34,0.24-0.68,0.36-1.02c5.25,15.43,7.37,31.87,6.48,50.24
	C170.37,498.86,170.15,498.87,169.93,498.88"/>
<path class="st2" d="M168.5,498.73c-0.26-0.06-0.52-0.14-0.78-0.24c-4.61-14.28-5.1-29.11-5.12-45.54c0.17-0.49,0.34-1,0.53-1.54
	c0.08,0.06,0.13,0.15,0.13,0.27c0,17.01,0.4,32.29,5.21,46.95L168.5,498.73"/>
<path class="st2" d="M249.2,468.4c-0.16-0.93-0.34-1.85-0.53-2.77c0.61-9.06,3.15-17.84,7.41-25.64c0.19,0.11,0.38,0.23,0.57,0.36
	C252.01,448.85,249.44,458.5,249.2,468.4"/>
<path class="st2" d="M253.41,498.5c-0.25-0.09-0.49-0.2-0.72-0.33c-3.15-20-0.81-38.78,6.77-54.4c0.11,0.29,0.21,0.59,0.32,0.89
	C252.42,460.16,250.22,478.75,253.41,498.5"/>
<path class="st2" d="M255.39,498.88c-0.22,0-0.45-0.02-0.67-0.05c-0.89-18.36,1.22-34.8,6.47-50.22c0.12,0.34,0.24,0.69,0.36,1.02
	C256.52,464.75,254.51,480.88,255.39,498.88"/>
<path class="st2" d="M256.82,498.73l0.03-0.09c4.81-14.66,5.2-29.94,5.2-46.95c0-0.11,0.05-0.2,0.13-0.26
	c0.19,0.54,0.37,1.07,0.54,1.56c-0.03,16.42-0.51,31.24-5.12,45.51C257.34,498.59,257.08,498.67,256.82,498.73"/>
<path class="st3" d="M166.15,442.91c0.54-1.5,1.07-2.95,1.55-4.26c0.33,0.56,0.65,1.12,0.96,1.69c-0.92,0.64-1.72,1.47-2.38,2.37
	L166.15,442.91 M169.23,439.99c-0.37-0.68-0.76-1.36-1.15-2.02c-0.02-0.04-0.05-0.07-0.08-0.09c0.31-0.73,0.63-1.46,0.94-2.19
	c0.18-0.43,0.37-0.85,0.55-1.28c0.33-0.77,0.66-1.54,0.99-2.32c2.03,2.37,3.71,4.94,5.04,7.66c-0.91-0.44-1.92-0.67-2.94-0.67
	c-0.74,0-1.47,0.12-2.17,0.36C170,439.59,169.61,439.77,169.23,439.99"/>
<path class="st4" d="M168.67,440.35c-0.31-0.57-0.63-1.13-0.96-1.69c0.08-0.22,0.16-0.44,0.24-0.65l0.01-0.04
	c0.01-0.03,0.03-0.06,0.04-0.09c0.03,0.02,0.06,0.05,0.08,0.09c0.4,0.67,0.78,1.34,1.15,2.02
	C169.04,440.1,168.85,440.22,168.67,440.35"/>
<path class="st3" d="M259.13,442.87l-0.1-0.15c-0.67-0.9-1.47-1.73-2.39-2.37c0.31-0.57,0.63-1.13,0.96-1.69
	C258.08,439.95,258.6,441.38,259.13,442.87 M256.08,439.99c-0.38-0.21-0.77-0.4-1.18-0.54c-0.7-0.24-1.43-0.36-2.17-0.36
	c-1.01,0-2.02,0.23-2.94,0.67c1.33-2.71,3.01-5.28,5.04-7.65c0.79,1.9,1.61,3.79,2.43,5.67c0.02,0.04,0.03,0.07,0.05,0.11
	c-0.03,0.02-0.06,0.05-0.08,0.09C256.84,438.63,256.45,439.31,256.08,439.99"/>
<path class="st4" d="M256.65,440.34c-0.18-0.13-0.37-0.25-0.57-0.36c0.37-0.68,0.76-1.35,1.15-2.02c0.02-0.04,0.05-0.07,0.08-0.09
	c0.01,0.03,0.02,0.06,0.04,0.08l0.03,0.08c0.07,0.2,0.15,0.4,0.22,0.61C257.28,439.21,256.96,439.77,256.65,440.34"/>
</svg>
