<?xml version="1.0" encoding="utf-8"?>
<!-- Generator: Adobe Illustrator 26.0.1, SVG Export Plug-In . SVG Version: 6.00 Build 0)  -->
<svg version="1.1" id="Layer_1" xmlns="http://www.w3.org/2000/svg" xmlns:xlink="http://www.w3.org/1999/xlink" x="0px" y="0px"
	 viewBox="0 0 432 648" style="enable-background:new 0 0 432 648;" xml:space="preserve">
<style type="text/css">
	.st0{display:none;opacity:0.5;fill:none;stroke:#231F20;stroke-width:0.05;stroke-miterlimit:10;}
	.st1{fill:#E92A2A;}
	.st2{fill:#D52626;}
	.st3{fill:#9A1A1C;}
	.st4{fill:#8D1819;}
</style>
<path class="st0" d="M418.44,444.92c-2.94,1.51-8.31,5.17-9.04,17.27"/>
<g id="Gluteus_medius_00000164483266437158420150000007764617854512399014_">
	<g>
		<path class="st1" d="M205.75,302.73c-2.9-2.58-7-3.35-12.88-0.88c-3.67,1.55-7.15,3.76-10.64,5.67c-0.91,0.49-5.92,2.25-5.94,4.19
			v0.01c-2.48,1.53-4.66,3.44-6.53,5.68c0.05-0.72,0.05-1.37,0.01-1.99c-0.56-8.62,2.48-20.15,3.76-24.57
			c7.74-5.69,15.94-8.74,23.23,0C199.95,294.68,203.06,298.57,205.75,302.73"/>
		<path class="st2" d="M178.83,309.12c2.33-7.24,5.97-14.08,10.84-20.36c0.22-0.01,0.43-0.01,0.65-0.01c0.07,0,0.14,0,0.2,0
			c-4.83,6.13-8.46,12.82-10.83,19.92C179.41,308.81,179.12,308.96,178.83,309.12 M192.08,286.83c-0.2-0.11-0.4-0.22-0.61-0.31
			c0,0,0,0,0,0C191.68,286.61,191.88,286.72,192.08,286.83C192.08,286.83,192.08,286.83,192.08,286.83"/>
		<path class="st2" d="M184.13,306.45c1.65-6.81,5.4-12.67,10.89-16.99c0.23,0.08,0.46,0.16,0.69,0.24l0,0l0,0
			c-0.15-0.15-0.29-0.3-0.44-0.44c0,0,0,0,0.01,0c0.16,0.16,0.32,0.31,0.47,0.48c-5.36,4.12-9.09,9.72-10.82,16.26
			C184.67,306.14,184.4,306.3,184.13,306.45"/>
		<path class="st2" d="M188.84,303.8c1.98-4.64,5-8.55,8.99-11.65c0.14,0.17,0.28,0.34,0.42,0.52c-3.7,2.86-6.54,6.43-8.48,10.64
			C189.47,303.47,189.16,303.64,188.84,303.8"/>
		<path class="st2" d="M194.53,301.22c0.01-0.02,0.03-0.05,0.04-0.07c1.48-1.91,3.36-3.62,6.07-5.51c0.14,0.18,0.28,0.35,0.41,0.53
			c-2.32,1.62-4.03,3.1-5.39,4.71C195.29,300.98,194.92,301.09,194.53,301.22"/>
		<path class="st2" d="M173.48,313.71c1.75-8.71,5.26-16.67,10.45-23.74c0.37-0.15,0.75-0.28,1.14-0.41
			c-5.31,6.98-8.92,14.86-10.77,23.51C174.02,313.28,173.75,313.49,173.48,313.71 M188.42,285.53c-0.23-0.04-0.47-0.07-0.7-0.1
			C187.95,285.46,188.18,285.49,188.42,285.53C188.42,285.53,188.42,285.53,188.42,285.53"/>
		<path class="st2" d="M169.78,316.03c0-0.21-0.01-0.42-0.02-0.62c-0.05-0.77-0.07-1.57-0.07-2.38c1.14-5.3,2.75-10.38,4.82-15.21
			c0.53-0.78,1.11-1.53,1.74-2.25C173.26,301.95,171.1,308.79,169.78,316.03"/>
		<path class="st3" d="M169.98,308.09c0.29-2.83,0.78-5.69,1.32-8.29c0.78-3.78,1.67-7.04,2.23-8.96c2.22-1.63,4.48-3.04,6.74-4.02
			c-2.2,3.5-4.12,7.18-5.76,11.01c-0.56,0.82-1.08,1.67-1.54,2.54C171.66,302.83,170.73,305.43,169.98,308.09 M176.25,295.57
			c1.49-3.18,3.19-6.25,5.08-9.19c1.73-0.64,3.46-1.01,5.18-1.01c0.37,0,0.74,0.02,1.1,0.05c-1.31,1.47-2.54,2.99-3.68,4.54
			c-0.12,0.05-0.24,0.1-0.37,0.15C180.69,291.36,178.24,293.28,176.25,295.57 M185.07,289.56c1.05-1.38,2.17-2.73,3.35-4.03
			c1.03,0.17,2.05,0.5,3.06,0.99c-0.62,0.74-1.22,1.49-1.81,2.24C188.1,288.82,186.55,289.09,185.07,289.56 M195.02,289.46
			c-1.44-0.46-2.96-0.69-4.5-0.71c0.51-0.64,1.03-1.28,1.56-1.92c1.08,0.6,2.14,1.4,3.19,2.42
			C195.19,289.32,195.11,289.39,195.02,289.46"/>
		<path class="st4" d="M189.67,288.76c0.59-0.75,1.19-1.5,1.81-2.24c0.2,0.1,0.4,0.2,0.61,0.31c-0.53,0.63-1.05,1.27-1.56,1.92
			c-0.07,0-0.14,0-0.2,0C190.1,288.75,189.88,288.75,189.67,288.76"/>
		<path class="st4" d="M195.71,289.7c-0.23-0.09-0.46-0.17-0.69-0.24c0.08-0.07,0.17-0.13,0.25-0.2
			C195.42,289.4,195.57,289.55,195.71,289.7"/>
		<path class="st4" d="M183.93,289.97c1.15-1.56,2.37-3.07,3.68-4.54c0.03,0,0.07,0.01,0.1,0.01c0.23,0.03,0.47,0.06,0.7,0.1
			c-1.18,1.31-2.3,2.65-3.35,4.03C184.68,289.68,184.3,289.82,183.93,289.97"/>
		<path class="st4" d="M174.51,297.82c1.64-3.83,3.56-7.51,5.76-11.01c0.35-0.15,0.71-0.3,1.06-0.43c-1.9,2.94-3.59,6.01-5.08,9.19
			C175.62,296.29,175.04,297.04,174.51,297.82"/>
	</g>
	<g>
		<path class="st1" d="M220.58,302.73c2.9-2.58,7-3.35,12.88-0.88c3.67,1.55,7.15,3.76,10.64,5.67c0.91,0.49,5.92,2.25,5.94,4.19
			v0.01c2.48,1.53,4.66,3.44,6.53,5.68c-0.05-0.72-0.05-1.37-0.01-1.99c0.56-8.62-2.48-20.15-3.76-24.57
			c-7.74-5.69-15.94-8.74-23.23,0C226.38,294.68,223.27,298.57,220.58,302.73"/>
		<path class="st2" d="M247.51,309.12c-0.07-0.04-0.15-0.08-0.22-0.12c-0.21-0.12-0.43-0.23-0.64-0.33
			c-2.37-7.11-6-13.79-10.83-19.93c0.07,0,0.14,0,0.21,0c0.21,0,0.43,0,0.64,0.01C241.54,295.04,245.18,301.88,247.51,309.12
			 M234.26,286.84C234.26,286.83,234.26,286.83,234.26,286.84c0.2-0.12,0.4-0.22,0.6-0.32c0,0,0,0,0,0
			C234.66,286.62,234.46,286.72,234.26,286.84"/>
		<path class="st2" d="M242.2,306.45c-0.27-0.15-0.54-0.3-0.8-0.46c-1.72-6.54-5.45-12.14-10.82-16.26
			c0.16-0.16,0.32-0.32,0.48-0.48c0,0,0,0,0.01,0.01c-0.15,0.14-0.29,0.29-0.44,0.44c0.23-0.09,0.46-0.17,0.69-0.24
			C236.81,293.78,240.56,299.64,242.2,306.45"/>
		<path class="st2" d="M237.49,303.8c-0.31-0.17-0.62-0.33-0.94-0.49c-1.93-4.2-4.78-7.78-8.48-10.64c0.14-0.17,0.28-0.34,0.42-0.52
			C232.49,295.25,235.51,299.17,237.49,303.8"/>
		<path class="st2" d="M231.81,301.22c-0.38-0.13-0.76-0.24-1.12-0.34c-1.37-1.61-3.07-3.09-5.4-4.71c0.14-0.18,0.27-0.35,0.41-0.53
			c2.71,1.89,4.59,3.6,6.07,5.51C231.78,301.18,231.79,301.2,231.81,301.22"/>
		<path class="st2" d="M252.86,313.71c-0.27-0.22-0.54-0.43-0.82-0.64c-1.85-8.65-5.47-16.53-10.77-23.51
			c0.38,0.12,0.76,0.26,1.14,0.41C247.6,297.04,251.11,304.99,252.86,313.71 M237.92,285.53
			C237.92,285.53,237.92,285.53,237.92,285.53c0.26-0.05,0.53-0.08,0.8-0.11c0,0,0,0,0,0C238.45,285.45,238.19,285.49,237.92,285.53
			"/>
		<path class="st2" d="M256.54,315.98c-1.31-7.22-3.48-14.05-6.46-20.42c0.62,0.72,1.2,1.47,1.74,2.25
			c2.06,4.82,3.67,9.89,4.81,15.17c0,0.83-0.02,1.64-0.07,2.43C256.56,315.59,256.55,315.78,256.54,315.98"/>
		<path class="st3" d="M256.34,308.01c-0.74-2.63-1.67-5.2-2.97-7.64c-0.46-0.87-0.98-1.73-1.55-2.56
			c-1.63-3.83-3.55-7.49-5.75-10.99c2.26,0.98,4.52,2.4,6.74,4.02C253.74,294.07,255.62,301.09,256.34,308.01 M250.09,295.56
			c-1.99-2.29-4.43-4.21-7.31-5.44c-0.12-0.05-0.25-0.1-0.37-0.15c-1.15-1.56-2.37-3.07-3.68-4.54c0.16-0.02,0.32-0.03,0.48-0.04
			c0.2-0.01,0.41-0.02,0.61-0.02c1.72,0,3.46,0.37,5.19,1.02C246.9,289.32,248.6,292.38,250.09,295.56 M241.27,289.56
			c-1.48-0.47-3.03-0.74-4.59-0.8c-0.59-0.75-1.19-1.5-1.81-2.24c1.01-0.49,2.03-0.81,3.06-0.99
			C239.1,286.84,240.22,288.18,241.27,289.56 M231.32,289.46c-0.08-0.07-0.17-0.13-0.25-0.2c1.05-1.02,2.12-1.82,3.19-2.42
			c0.53,0.63,1.05,1.27,1.56,1.91C234.28,288.77,232.75,289,231.32,289.46"/>
		<path class="st4" d="M236.67,288.76c-0.21-0.01-0.43-0.01-0.64-0.01c-0.07,0-0.14,0-0.21,0c-0.51-0.64-1.03-1.28-1.56-1.91
			c0.2-0.11,0.4-0.22,0.6-0.32C235.48,287.26,236.09,288,236.67,288.76"/>
		<path class="st4" d="M230.63,289.7c0.15-0.15,0.29-0.3,0.44-0.44c0.08,0.07,0.17,0.13,0.25,0.2
			C231.09,289.53,230.86,289.61,230.63,289.7"/>
		<path class="st4" d="M242.4,289.97c-0.37-0.15-0.75-0.28-1.14-0.41c-1.05-1.38-2.16-2.72-3.35-4.03c0.27-0.05,0.53-0.08,0.8-0.11
			C240.03,286.89,241.26,288.41,242.4,289.97"/>
		<path class="st4" d="M251.82,297.81c-0.53-0.78-1.11-1.53-1.74-2.25c-1.49-3.18-3.18-6.24-5.08-9.17
			c0.35,0.13,0.71,0.27,1.06,0.43C248.27,290.31,250.19,293.98,251.82,297.81"/>
	</g>
</g>
</svg>
