<?xml version="1.0" encoding="utf-8"?>
<!-- Generator: Adobe Illustrator 26.0.1, SVG Export Plug-In . SVG Version: 6.00 Build 0)  -->
<svg version="1.1" id="Layer_1" xmlns="http://www.w3.org/2000/svg" xmlns:xlink="http://www.w3.org/1999/xlink" x="0px" y="0px"
	 viewBox="0 0 432 648" style="enable-background:new 0 0 432 648;" xml:space="preserve">
<style type="text/css">
	.st0{display:none;opacity:0.5;fill:none;stroke:#231F20;stroke-width:0.05;stroke-miterlimit:10;}
	.st1{fill:#E92A2A;}
	.st2{fill:#D52626;}
	.st3{fill:#9A1A1C;}
	.st4{fill:#8D1819;}
</style>
<path class="st0" d="M418.44,444.92c-2.94,1.51-8.31,5.17-9.04,17.27"/>
<g>
	<path class="st1" d="M213.53,337.91c1.47,6.53,9.08,9.39,14.67,11.21l0.06,0.01c5.47,1.72,10.82,3.75,16.29,5.47
		c10.55,3.33,3.67-13.2,2.17-17.65c-1.53-4.6-2.96-9.99-2.06-14.88c0.42-2.34,1.1-4.34,2.2-6.43c2.43-4.61-5.65-7.23-8.23-8.62
		c-6.14-3.33-13.91-8.46-20.11-2.57c-1.35,2.14-2.59,4.33-3.67,6.62v0.01c-0.7,2.41-1.08,4.93-1.44,7.16
		C212.39,324.71,212.1,331.49,213.53,337.91"/>
	<path class="st2" d="M245.96,316.12c-3.1-2.28-6.23-4.27-9.53-6.08l-0.31-0.17c-3.96-2.17-9.33-5.1-14.28-5.34
		c0.09-0.25,0.18-0.5,0.28-0.74c2.84,0.15,5.67,1.2,8.1,2.24c5.37,2.28,10.7,5.43,16.27,9.6
		C246.3,315.79,246.13,315.95,245.96,316.12 M218.54,304.45C218.54,304.45,218.54,304.45,218.54,304.45
		c0.16-0.16,0.32-0.3,0.48-0.44c0,0,0,0,0,0C218.86,304.16,218.7,304.3,218.54,304.45"/>
	<path class="st2" d="M243.06,321.03c-6.23-4.19-14.05-8.66-23.05-10.44c0.05-0.22,0.11-0.43,0.16-0.65
		c9.03,1.8,16.87,6.26,23.1,10.44C243.2,320.59,243.13,320.81,243.06,321.03 M215.43,309.93L215.43,309.93
		c0.02-0.04,0.04-0.09,0.06-0.13C215.47,309.85,215.45,309.89,215.43,309.93"/>
	<path class="st2" d="M245.27,350.27c-1.12-0.12-2.23-0.46-3.31-0.85c-2.44-1.09-4.94-2.07-7.41-3.03
		c-4.75-1.86-9.59-3.75-13.87-6.43c-0.86-0.66-1.62-1.41-2.2-2.3c4.83,3.66,10.68,5.94,16.41,8.17
		C238.37,347.19,241.92,348.58,245.27,350.27 M212.77,332.99C212.77,332.99,212.77,332.99,212.77,332.99
		c-0.05-0.42-0.08-0.84-0.11-1.26c0,0,0,0,0.01,0.01C212.7,332.16,212.73,332.58,212.77,332.99"/>
	<path class="st2" d="M245.78,333.94c-3.97-2.94-8.87-4.7-13.62-6.41c-4.9-1.76-9.92-3.57-13.94-6.7c0.03-0.25,0.06-0.49,0.09-0.74
		c3.94,3.22,8.96,5.03,14.18,6.91c4.49,1.62,9.13,3.28,13.01,5.96C245.6,333.29,245.69,333.61,245.78,333.94 M213.8,316.1
		c0,0,0-0.01-0.01-0.01c0.05-0.32,0.11-0.65,0.17-0.98c0,0,0,0.01,0.01,0.01C213.91,315.46,213.85,315.78,213.8,316.1"/>
	<path class="st2" d="M249.6,348.94c-4.71-3.61-10.3-6.11-15.72-8.54c-5.81-2.6-11.77-5.26-16.66-9.33c0.02-0.27,0.04-0.54,0.06-0.8
		c4.93,4.24,11.03,6.96,16.99,9.61c5.43,2.42,11.04,4.92,15.77,8.55C249.91,348.61,249.76,348.78,249.6,348.94 M212.61,326.32
		C212.61,326.32,212.6,326.32,212.61,326.32c0.01-0.35,0.02-0.7,0.04-1.04c0,0,0,0.01,0.01,0.01
		C212.64,325.63,212.62,325.98,212.61,326.32"/>
	<path class="st2" d="M248.19,341.14c-4.23-3.06-9.31-5.16-14.21-7.2c-5.72-2.37-11.59-4.81-16.22-8.8c0.03-0.27,0.05-0.54,0.08-0.8
		c4.65,4.17,10.65,6.66,16.51,9.09c4.62,1.91,9.39,3.89,13.48,6.67C247.95,340.43,248.07,340.78,248.19,341.14 M213.19,319.98
		c0,0-0.01-0.01-0.01-0.01c0.05-0.34,0.1-0.68,0.15-1.01l0.01,0.01C213.28,319.3,213.24,319.64,213.19,319.98"/>
	<path class="st2" d="M243.56,328.94c-3.81-2.57-8.11-4.51-12.27-6.39c-4.21-1.9-8.51-3.84-12.38-6.45
		c0.04-0.24,0.08-0.48,0.12-0.72c3.92,2.7,8.33,4.69,12.63,6.63c3.88,1.75,7.87,3.56,11.49,5.87
		C243.27,328.24,243.41,328.6,243.56,328.94 M214.49,312.58C214.49,312.58,214.48,312.58,214.49,312.58
		c0.05-0.26,0.11-0.51,0.18-0.75c0,0,0,0,0.01,0.01C214.61,312.09,214.55,312.33,214.49,312.58"/>
	<path class="st3" d="M247,355.04c-0.49,0-1.04-0.07-1.66-0.22c-0.04-0.01-0.09-0.02-0.13-0.03l0.01-0.05l-0.17-0.04l-0.22-0.05
		l-0.26-0.07l-0.01,0.03c0,0-0.01,0-0.01,0c-0.9-0.28-1.79-0.57-2.68-0.87l0.01-0.04l-0.64-0.27l-0.01,0.09
		c-4.33-1.45-8.62-3.02-12.97-4.4c-3.72-1.2-8.33-2.85-11.44-5.74c0,0,0,0,0,0l-0.03-0.08l-0.07-0.04c-0.03-0.02-0.06-0.04-0.1-0.06
		c-1.49-1.44-2.61-3.17-3.09-5.3c-0.36-1.62-0.62-3.26-0.77-4.91c2.23,2.87,4.93,5.11,7.91,6.96c1.1,0.84,2.35,1.53,3.58,2.16
		c5.46,2.76,11.2,4.89,16.93,7.02c0.25,0.09,0.51,0.19,0.76,0.28c2.71,1.21,5.34,2.57,7.75,4.2
		C249.21,354.51,248.35,355.04,247,355.04 M249.99,353c-1.5-1.01-3.09-1.91-4.72-2.73c0.26,0.03,0.52,0.04,0.78,0.04
		c0.33,0,0.66-0.02,0.99-0.08c0.95-0.15,1.87-0.63,2.55-1.3c0.21,0.16,0.43,0.33,0.64,0.5C250.37,350.81,250.32,352.04,249.99,353
		 M250.13,348.5c-0.03-0.02-0.06-0.04-0.08-0.07c0.02-0.03,0.04-0.06,0.06-0.09C250.11,348.4,250.12,348.45,250.13,348.5
		 M218.49,337.66c-2.18-1.65-4.15-3.59-5.81-5.92c-0.12-1.8-0.14-3.61-0.06-5.42c1.38,1.79,2.94,3.35,4.62,4.75
		c-0.12,1.99-0.07,4,0.79,5.77C218.16,337.13,218.32,337.4,218.49,337.66 M217.28,330.27c-1.7-1.46-3.26-3.1-4.63-4.98
		c0.1-1.78,0.29-3.55,0.53-5.31c1.31,1.99,2.85,3.68,4.57,5.16c-0.14,1.44-0.28,2.88-0.41,4.31
		C217.33,329.73,217.31,330,217.28,330.27 M217.84,324.34c-1.71-1.53-3.24-3.3-4.5-5.37l0,0c0.04-0.24,0.07-0.48,0.11-0.72
		c0.11-0.69,0.22-1.41,0.35-2.14c1.25,1.87,2.76,3.41,4.44,4.72C218.09,322,217.96,323.17,217.84,324.34 M218.33,320.09
		c-1.67-1.36-3.14-2.98-4.36-4.97c0.15-0.84,0.32-1.69,0.52-2.54c1.38,1.31,2.86,2.46,4.42,3.51
		C218.69,317.42,218.5,318.76,218.33,320.09 M219.03,315.38c-1.54-1.06-3-2.23-4.35-3.54c0.07-0.27,0.14-0.54,0.22-0.8
		c0.17-0.37,0.35-0.74,0.53-1.1c1.56,0.13,3.09,0.36,4.58,0.65C219.63,312.17,219.31,313.77,219.03,315.38 M220.18,309.94
		c-1.44-0.29-2.92-0.51-4.42-0.65c0.77-1.49,1.6-2.94,2.48-4.36c0.91-0.27,1.91-0.41,2.97-0.41c0.21,0,0.41,0,0.62,0.01
		C221.18,306.3,220.64,308.11,220.18,309.94 M219.02,304.02c0.69-0.59,1.4-1.04,2.12-1.39c0.56-0.26,1.12-0.46,1.69-0.6
		c-0.25,0.58-0.49,1.17-0.72,1.77c-0.23-0.01-0.46-0.02-0.69-0.02C220.59,303.77,219.79,303.85,219.02,304.02"/>
	<path class="st4" d="M218.24,304.93c0.1-0.16,0.2-0.32,0.3-0.47c0.16-0.15,0.32-0.3,0.49-0.44c0.77-0.16,1.57-0.25,2.39-0.25
		c0.23,0,0.46,0.01,0.69,0.02c-0.09,0.25-0.19,0.5-0.28,0.74c-0.21-0.01-0.42-0.01-0.62-0.01
		C220.15,304.52,219.15,304.66,218.24,304.93"/>
	<path class="st4" d="M220.01,310.59c-1.5-0.3-3.02-0.52-4.58-0.65c0.02-0.04,0.04-0.09,0.06-0.13c0.09-0.17,0.17-0.34,0.26-0.52
		c1.5,0.14,2.97,0.36,4.42,0.65C220.12,310.15,220.07,310.37,220.01,310.59"/>
	<path class="st4" d="M249.71,353.62c-2.41-1.63-5.04-2.99-7.75-4.2c1.08,0.39,2.19,0.73,3.31,0.85c1.63,0.83,3.22,1.73,4.72,2.73
		C249.91,353.22,249.82,353.43,249.71,353.62 M220.68,339.96c-2.98-1.86-5.68-4.1-7.91-6.96c-0.04-0.42-0.07-0.83-0.1-1.25
		c1.66,2.34,3.63,4.27,5.81,5.92C219.07,338.55,219.83,339.3,220.68,339.96"/>
	<path class="st4" d="M218.23,320.83c-1.68-1.31-3.19-2.85-4.44-4.72c0.05-0.32,0.11-0.65,0.17-0.98c1.22,1.98,2.69,3.6,4.36,4.97
		C218.29,320.34,218.26,320.58,218.23,320.83"/>
	<path class="st4" d="M250.24,349.44c-0.21-0.17-0.42-0.34-0.64-0.5c0.16-0.16,0.31-0.33,0.44-0.5c0.03,0.02,0.06,0.04,0.08,0.07
		C250.17,348.82,250.21,349.13,250.24,349.44 M217.23,331.07c-1.68-1.4-3.24-2.97-4.62-4.75c0.01-0.34,0.03-0.69,0.05-1.03
		c1.37,1.88,2.93,3.52,4.63,4.98C217.26,330.54,217.24,330.81,217.23,331.07"/>
	<path class="st4" d="M217.76,325.14c-1.72-1.48-3.26-3.18-4.57-5.16c0.05-0.34,0.1-0.68,0.15-1.01l0,0
		c1.27,2.07,2.79,3.83,4.5,5.37C217.81,324.61,217.79,324.88,217.76,325.14"/>
	<path class="st4" d="M218.91,316.1c-1.56-1.05-3.04-2.21-4.42-3.51c0.06-0.25,0.12-0.5,0.19-0.75c1.35,1.32,2.81,2.48,4.35,3.54
		C218.99,315.62,218.95,315.86,218.91,316.1"/>
	<path class="st3" d="M245.31,332.14c-0.65-1.04-1.27-2.09-1.75-3.19c0.43,0.29,0.85,0.58,1.26,0.89
		C244.96,330.61,245.12,331.38,245.31,332.14 M244.67,328.91c-0.5-0.35-1.01-0.69-1.52-1.02c-0.07-0.21-0.14-0.42-0.2-0.63
		c-0.57-2.03-0.5-4.21,0.11-6.23c0.54,0.37,1.08,0.73,1.6,1.09C244.26,324.32,244.33,326.62,244.67,328.91 M244.79,321.41
		c-0.49-0.34-1-0.69-1.52-1.03c0.58-1.59,1.49-3.06,2.68-4.26c0.16,0.12,0.32,0.24,0.49,0.36
		C245.68,318.07,245.16,319.65,244.79,321.41 M246.76,315.84c-0.09-0.07-0.19-0.14-0.29-0.21c0.19-0.17,0.4-0.34,0.6-0.49
		c-0.04,0.11-0.08,0.22-0.12,0.33c-0.03,0.06-0.06,0.12-0.09,0.17C246.83,315.71,246.8,315.78,246.76,315.84"/>
	<path class="st4" d="M246.45,316.48c-0.16-0.12-0.33-0.24-0.49-0.36c0.17-0.17,0.34-0.33,0.52-0.49c0.1,0.07,0.19,0.14,0.29,0.21
		C246.65,316.05,246.55,316.27,246.45,316.48"/>
	<path class="st4" d="M244.66,322.12c-0.52-0.36-1.05-0.72-1.6-1.09c0.07-0.22,0.14-0.44,0.22-0.66c0.52,0.35,1.02,0.69,1.52,1.03
		c-0.05,0.22-0.09,0.44-0.13,0.67C244.66,322.09,244.66,322.11,244.66,322.12"/>
	<path class="st4" d="M244.82,329.83c-0.41-0.3-0.83-0.6-1.26-0.89c-0.15-0.35-0.29-0.7-0.41-1.06c0.52,0.33,1.02,0.67,1.52,1.02
		C244.71,329.22,244.76,329.52,244.82,329.83"/>
</g>
<g>
	<path class="st1" d="M209.78,337.91c-1.47,6.53-9.08,9.39-14.67,11.21l-0.06,0.01c-5.47,1.72-10.82,3.75-16.29,5.47
		c-10.55,3.33-3.67-13.2-2.17-17.65c1.53-4.6,2.96-9.99,2.06-14.88c-0.42-2.34-1.1-4.34-2.2-6.43c-2.43-4.61,5.65-7.23,8.23-8.62
		c6.14-3.33,13.91-8.46,20.11-2.57c1.35,2.14,2.59,4.33,3.67,6.62v0.01c0.7,2.41,1.08,4.93,1.44,7.16
		C210.92,324.71,211.21,331.49,209.78,337.91"/>
	<path class="st2" d="M177.35,316.12c-0.17-0.17-0.34-0.33-0.52-0.49c5.57-4.17,10.9-7.32,16.27-9.6c2.43-1.03,5.26-2.08,8.1-2.24
		c0.09,0.25,0.19,0.5,0.28,0.74c-4.95,0.23-10.32,3.17-14.28,5.34l-0.31,0.17C183.58,311.85,180.45,313.84,177.35,316.12
		 M204.77,304.45c-0.16-0.15-0.32-0.3-0.49-0.44c0,0,0,0,0,0C204.45,304.15,204.61,304.3,204.77,304.45
		C204.77,304.45,204.77,304.45,204.77,304.45"/>
	<path class="st2" d="M180.25,321.03c-0.07-0.22-0.14-0.44-0.22-0.66c6.23-4.18,14.07-8.64,23.1-10.44
		c0.05,0.22,0.11,0.43,0.16,0.65C194.3,312.37,186.47,316.84,180.25,321.03 M207.88,309.93c-0.02-0.04-0.04-0.09-0.06-0.13
		C207.83,309.85,207.86,309.89,207.88,309.93L207.88,309.93"/>
	<path class="st2" d="M178.04,350.27c3.35-1.7,6.9-3.08,10.38-4.44c5.72-2.23,11.58-4.51,16.41-8.17c-0.58,0.89-1.34,1.64-2.2,2.3
		c-4.29,2.68-9.13,4.57-13.87,6.43c-2.47,0.96-4.97,1.94-7.41,3.03C180.26,349.81,179.15,350.15,178.04,350.27 M210.53,332.99
		c0.04-0.42,0.07-0.83,0.1-1.25c0,0,0-0.01,0.01-0.01C210.61,332.15,210.58,332.57,210.53,332.99
		C210.54,332.99,210.54,332.99,210.53,332.99"/>
	<path class="st2" d="M177.52,333.94c0.09-0.32,0.18-0.65,0.27-0.98c3.88-2.67,8.52-4.34,13.01-5.96
		c5.22-1.88,10.24-3.69,14.18-6.91c0.03,0.24,0.06,0.49,0.09,0.74c-4.02,3.13-9.03,4.93-13.94,6.7
		C186.39,329.23,181.49,331,177.52,333.94 M209.51,316.1c-0.05-0.32-0.11-0.65-0.17-0.98c0,0,0-0.01,0.01-0.01
		c0.06,0.33,0.12,0.66,0.17,0.98C209.52,316.1,209.51,316.1,209.51,316.1"/>
	<path class="st2" d="M173.71,348.94c-0.16-0.16-0.31-0.33-0.44-0.5c4.73-3.63,10.34-6.13,15.77-8.55
		c5.96-2.65,12.06-5.38,16.99-9.61c0.02,0.27,0.04,0.53,0.06,0.8c-4.89,4.07-10.85,6.73-16.66,9.33
		C184,342.83,178.41,345.33,173.71,348.94 M210.7,326.32c-0.01-0.34-0.03-0.69-0.05-1.03c0,0,0-0.01,0.01-0.01
		C210.68,325.62,210.69,325.97,210.7,326.32C210.7,326.32,210.7,326.32,210.7,326.32"/>
	<path class="st2" d="M175.12,341.14c0.12-0.36,0.24-0.71,0.36-1.04c4.09-2.78,8.86-4.75,13.48-6.67
		c5.86-2.43,11.87-4.92,16.51-9.09c0.03,0.27,0.05,0.54,0.08,0.8c-4.63,3.99-10.5,6.42-16.22,8.8
		C184.42,335.98,179.35,338.08,175.12,341.14 M210.12,319.98c-0.05-0.34-0.1-0.68-0.15-1.01l0.01-0.01c0.05,0.34,0.1,0.67,0.15,1.01
		C210.13,319.97,210.12,319.98,210.12,319.98"/>
	<path class="st2" d="M179.75,328.94c0.15-0.35,0.29-0.7,0.41-1.06c3.62-2.32,7.61-4.12,11.49-5.87c4.3-1.94,8.71-3.93,12.63-6.63
		c0.04,0.24,0.08,0.48,0.12,0.72c-3.86,2.61-8.17,4.55-12.38,6.45C187.86,324.44,183.56,326.38,179.75,328.94 M208.82,312.58
		c-0.06-0.25-0.12-0.5-0.19-0.75c0,0,0,0,0.01-0.01C208.7,312.08,208.77,312.33,208.82,312.58
		C208.82,312.58,208.82,312.58,208.82,312.58"/>
	<path class="st3" d="M176.3,355.04c-1.34,0-2.2-0.53-2.71-1.42c2.41-1.63,5.04-2.99,7.75-4.2c0.26-0.09,0.51-0.19,0.76-0.28
		c5.73-2.13,11.48-4.27,16.93-7.02c1.23-0.62,2.49-1.31,3.58-2.16c2.98-1.86,5.68-4.1,7.91-6.96c-0.16,1.65-0.41,3.29-0.77,4.91
		c-0.48,2.13-1.6,3.86-3.09,5.3c-0.03,0.02-0.06,0.04-0.1,0.06l-0.07,0.04l-0.03,0.08c0,0,0,0,0,0c-3.12,2.89-7.73,4.54-11.44,5.74
		c-4.35,1.38-8.64,2.95-12.97,4.4l-0.01-0.09l-0.64,0.27l0.01,0.04c-0.89,0.3-1.78,0.59-2.68,0.87c0,0-0.01,0-0.01,0l-0.01-0.03
		l-0.26,0.07l-0.22,0.05l-0.17,0.04l0.01,0.05c-0.04,0.01-0.09,0.02-0.13,0.03C177.34,354.97,176.79,355.04,176.3,355.04
		 M173.32,353c-0.33-0.96-0.38-2.2-0.25-3.56c0.21-0.17,0.42-0.34,0.64-0.5c0.68,0.67,1.61,1.15,2.55,1.3
		c0.33,0.05,0.66,0.08,0.99,0.08c0.26,0,0.52-0.01,0.78-0.04C176.41,351.1,174.82,352,173.32,353 M173.18,348.5
		c0.01-0.05,0.01-0.1,0.02-0.15c0.02,0.03,0.04,0.06,0.06,0.09C173.24,348.46,173.21,348.48,173.18,348.5 M204.82,337.66
		c0.17-0.26,0.33-0.53,0.46-0.82c0.86-1.77,0.92-3.78,0.79-5.77c1.68-1.4,3.24-2.97,4.62-4.75c0.07,1.81,0.06,3.62-0.06,5.42
		C208.98,334.08,207,336.01,204.82,337.66 M206.02,330.27c-0.02-0.27-0.05-0.54-0.07-0.82c-0.13-1.44-0.26-2.87-0.41-4.31
		c1.72-1.48,3.26-3.18,4.57-5.16c0.24,1.75,0.43,3.53,0.53,5.31C209.28,327.17,207.72,328.81,206.02,330.27 M205.47,324.34
		c-0.12-1.17-0.25-2.34-0.39-3.51c1.68-1.31,3.19-2.85,4.44-4.72c0.12,0.74,0.24,1.46,0.35,2.14c0.04,0.24,0.08,0.48,0.11,0.72l0,0
		C208.7,321.04,207.18,322.8,205.47,324.34 M204.98,320.09c-0.17-1.34-0.36-2.67-0.58-3.99c1.56-1.05,3.04-2.21,4.42-3.51
		c0.2,0.85,0.37,1.7,0.52,2.54C208.13,317.11,206.65,318.73,204.98,320.09 M204.28,315.38c-0.28-1.61-0.6-3.21-0.99-4.79
		c1.5-0.3,3.02-0.52,4.58-0.65c0.18,0.37,0.36,0.73,0.53,1.1c0.08,0.27,0.15,0.53,0.22,0.8
		C207.28,313.15,205.82,314.32,204.28,315.38 M203.13,309.94c-0.46-1.83-1.01-3.63-1.66-5.4c0.21-0.01,0.42-0.01,0.62-0.01
		c1.06,0,2.06,0.14,2.97,0.41c0.88,1.42,1.71,2.87,2.48,4.36C206.05,309.43,204.58,309.65,203.13,309.94 M204.28,304.02
		c-0.77-0.16-1.57-0.25-2.39-0.25c-0.23,0-0.46,0.01-0.69,0.02c-0.23-0.59-0.47-1.18-0.72-1.77c0.57,0.14,1.13,0.34,1.69,0.6
		C202.89,302.97,203.59,303.43,204.28,304.02"/>
	<path class="st4" d="M205.07,304.93c-0.1-0.16-0.2-0.32-0.3-0.47c-0.16-0.15-0.32-0.3-0.49-0.44c-0.77-0.16-1.57-0.25-2.39-0.25
		c-0.23,0-0.46,0.01-0.69,0.02c0.09,0.25,0.19,0.5,0.28,0.74c0.21-0.01,0.42-0.01,0.62-0.01
		C203.16,304.52,204.15,304.66,205.07,304.93"/>
	<path class="st4" d="M203.29,310.59c1.5-0.3,3.02-0.52,4.58-0.65c-0.02-0.04-0.04-0.09-0.06-0.13c-0.09-0.17-0.17-0.34-0.26-0.52
		c-1.5,0.14-2.97,0.36-4.42,0.65C203.19,310.15,203.24,310.37,203.29,310.59"/>
	<path class="st4" d="M173.59,353.62c-0.11-0.19-0.2-0.4-0.28-0.62c1.5-1.01,3.09-1.91,4.72-2.73c1.12-0.12,2.23-0.46,3.31-0.85
		C178.63,350.63,176,351.99,173.59,353.62 M202.63,339.96c0.86-0.66,1.62-1.41,2.2-2.3c2.18-1.65,4.15-3.59,5.81-5.92
		c-0.03,0.42-0.06,0.84-0.1,1.25C208.31,335.86,205.6,338.1,202.63,339.96"/>
	<path class="st4" d="M205.08,320.83c1.68-1.31,3.19-2.85,4.44-4.72c-0.05-0.32-0.11-0.65-0.17-0.98c-1.22,1.98-2.69,3.6-4.36,4.97
		C205.02,320.34,205.05,320.58,205.08,320.83"/>
	<path class="st4" d="M173.07,349.44c0.03-0.31,0.07-0.62,0.12-0.94c0.03-0.02,0.06-0.04,0.08-0.07c0.13,0.18,0.28,0.35,0.44,0.5
		C173.49,349.1,173.28,349.27,173.07,349.44 M206.08,331.07c-0.02-0.27-0.04-0.54-0.06-0.8c1.7-1.46,3.26-3.1,4.63-4.98
		c0.02,0.34,0.04,0.69,0.05,1.03C209.32,328.11,207.76,329.67,206.08,331.07"/>
	<path class="st4" d="M205.55,325.14c1.72-1.48,3.26-3.18,4.57-5.16c-0.05-0.34-0.1-0.68-0.15-1.01l0,0
		c-1.27,2.07-2.79,3.83-4.5,5.37C205.49,324.61,205.52,324.88,205.55,325.14"/>
	<path class="st4" d="M204.4,316.1c1.56-1.05,3.04-2.21,4.42-3.51c-0.06-0.25-0.12-0.5-0.19-0.75c-1.35,1.32-2.81,2.48-4.35,3.54
		C204.32,315.62,204.36,315.86,204.4,316.1"/>
	<path class="st3" d="M178,332.14c0.19-0.76,0.35-1.53,0.49-2.31c0.41-0.3,0.83-0.6,1.26-0.89
		C179.27,330.05,178.65,331.1,178,332.14 M178.64,328.91c0.34-2.28,0.41-4.59,0.01-6.79c0.52-0.36,1.05-0.72,1.6-1.09
		c0.61,2.02,0.69,4.19,0.11,6.23c-0.06,0.21-0.12,0.42-0.2,0.63C179.65,328.21,179.14,328.56,178.64,328.91 M178.51,321.41
		c-0.36-1.75-0.89-3.33-1.65-4.93c0.16-0.12,0.33-0.24,0.49-0.36c1.19,1.2,2.1,2.67,2.68,4.26
		C179.51,320.72,179.01,321.06,178.51,321.41 M176.54,315.84c-0.03-0.07-0.07-0.13-0.11-0.2c-0.03-0.06-0.06-0.12-0.09-0.17
		c-0.05-0.11-0.08-0.22-0.12-0.33c0.21,0.16,0.41,0.32,0.6,0.49C176.73,315.7,176.64,315.77,176.54,315.84"/>
	<path class="st4" d="M176.86,316.48c0.16-0.12,0.33-0.24,0.49-0.36c-0.17-0.17-0.34-0.33-0.52-0.49c-0.1,0.07-0.19,0.14-0.29,0.21
		C176.65,316.05,176.76,316.27,176.86,316.48"/>
	<path class="st4" d="M178.65,322.12c0.52-0.36,1.05-0.72,1.6-1.09c-0.07-0.22-0.14-0.44-0.22-0.66c-0.52,0.35-1.02,0.69-1.52,1.03
		c0.05,0.22,0.09,0.44,0.13,0.67C178.65,322.09,178.65,322.11,178.65,322.12"/>
	<path class="st4" d="M178.49,329.83c0.41-0.3,0.83-0.6,1.26-0.89c0.15-0.35,0.29-0.7,0.41-1.06c-0.52,0.33-1.02,0.67-1.52,1.02
		C178.6,329.22,178.55,329.52,178.49,329.83"/>
</g>
</svg>
