<?xml version="1.0" encoding="utf-8"?>
<!-- Generator: Adobe Illustrator 26.0.1, SVG Export Plug-In . SVG Version: 6.00 Build 0)  -->
<svg version="1.1" id="Layer_1" xmlns="http://www.w3.org/2000/svg" xmlns:xlink="http://www.w3.org/1999/xlink" x="0px" y="0px"
	 viewBox="0 0 432 648" style="enable-background:new 0 0 432 648;" xml:space="preserve">
<style type="text/css">
	.st0{display:none;opacity:0.5;fill:none;stroke:#231F20;stroke-width:0.05;stroke-miterlimit:10;}
	.st1{fill:#E92A2A;}
	.st2{fill:#D52626;}
	.st3{fill:#9A1A1C;}
	.st4{fill:#8D1819;}
</style>
<path class="st0" d="M418.44,444.92c-2.94,1.51-8.31,5.17-9.04,17.27"/>
<path class="st1" d="M201.27,404.75c-0.16,1.76-0.31,3.51-0.44,5.19c-0.67,7.94-1.3,15.43-1.99,19.17
	c-0.43,2.39-1.59,5.66-3.17,9.13c2.96-18.14-4.79-37.68,1.29-55.13C198.13,390.33,199.8,397.55,201.27,404.75"/>
<path class="st1" d="M222.81,404.75c0.16,1.76,0.31,3.51,0.44,5.19c0.67,7.94,1.3,15.43,1.99,19.17c0.43,2.39,1.59,5.66,3.17,9.13
	c-2.96-18.14,4.79-37.68-1.29-55.13C225.95,390.33,224.28,397.55,222.81,404.75"/>
<path class="st2" d="M198.1,431.98c0,0,0-0.01,0-0.01c0.24-0.79,0.45-1.53,0.6-2.21C198.55,430.45,198.35,431.19,198.1,431.98
	 M198.03,426.82c-0.1-2.58-0.29-5.16-0.48-7.68c-0.62-8.54-1.26-17.37,1.32-25.78c0.1,0.47,0.19,0.94,0.29,1.41
	c-2.16,7.97-1.55,16.33-0.96,24.43c0.17,2.36,0.35,4.77,0.46,7.18C198.47,426.54,198.26,426.69,198.03,426.82"/>
<path class="st2" d="M225.99,431.98c-0.28-0.91-0.51-1.76-0.66-2.52c0-0.01,0-0.02,0-0.03c0.16,0.77,0.38,1.61,0.66,2.52
	C225.98,431.96,225.99,431.97,225.99,431.98 M226.06,426.81c-0.23-0.13-0.45-0.28-0.64-0.45c0.11-2.41,0.28-4.81,0.46-7.17
	c0.59-8.1,1.2-16.46-0.95-24.43c0.1-0.47,0.2-0.94,0.29-1.41c2.59,8.41,1.95,17.23,1.32,25.78
	C226.35,421.66,226.17,424.24,226.06,426.81"/>
<path class="st3" d="M195.68,438.2c0.59-3.61,0.75-7.29,0.68-10.98c0.06,0,0.11,0.01,0.17,0.01c0.51,0,1.03-0.15,1.49-0.41
	c0.07,1.72,0.1,3.44,0.08,5.15c-0.23,0.76-0.51,1.55-0.82,2.38C196.82,435.58,196.28,436.88,195.68,438.2 M198.77,429.44
	c-0.02-1.02-0.05-2.05-0.1-3.07c0.08-0.06,0.15-0.13,0.22-0.2c0.17-0.17,0.31-0.35,0.45-0.54c-0.07,0.56-0.14,1.09-0.21,1.58
	c-0.1,0.71-0.2,1.34-0.3,1.9C198.81,429.22,198.79,429.33,198.77,429.44"/>
<path class="st4" d="M198.1,431.97c0.03-1.71-0.01-3.43-0.08-5.15c0.23-0.13,0.45-0.27,0.64-0.44c0.05,1.02,0.08,2.05,0.1,3.07
	c-0.02,0.1-0.04,0.21-0.07,0.32C198.55,430.44,198.35,431.18,198.1,431.97"/>
<path class="st3" d="M228.4,438.21c-1.01-2.23-1.84-4.38-2.42-6.26c-0.03-1.7,0.01-3.42,0.08-5.14c0.47,0.26,0.98,0.41,1.5,0.41
	c0.06,0,0.11,0,0.17-0.01c-0.04,2.11,0,4.2,0.14,6.28C227.98,435.08,228.15,436.65,228.4,438.21 M225.32,429.43
	c-0.02-0.11-0.04-0.22-0.06-0.32c-0.17-0.94-0.34-2.11-0.51-3.47c0.14,0.19,0.29,0.37,0.45,0.54c0.07,0.07,0.14,0.13,0.22,0.2
	C225.37,427.39,225.34,428.41,225.32,429.43"/>
<path class="st4" d="M225.98,431.95c-0.28-0.91-0.51-1.76-0.66-2.52c0.02-1.02,0.05-2.04,0.1-3.06c0.2,0.17,0.41,0.32,0.64,0.45
	C225.99,428.53,225.96,430.25,225.98,431.95"/>
</svg>
