<?xml version="1.0" encoding="utf-8"?>
<!-- Generator: Adobe Illustrator 26.0.1, SVG Export Plug-In . SVG Version: 6.00 Build 0)  -->
<svg version="1.1" id="Layer_1" xmlns="http://www.w3.org/2000/svg" xmlns:xlink="http://www.w3.org/1999/xlink" x="0px" y="0px"
	 viewBox="0 0 432 648" style="enable-background:new 0 0 432 648;" xml:space="preserve">
<style type="text/css">
	.st0{display:none;opacity:0.5;fill:none;stroke:#231F20;stroke-width:0.05;stroke-miterlimit:10;}
	.st1{fill:#E92A2A;}
	.st2{fill:#D52626;}
	.st3{fill:#9A1A1C;}
	.st4{fill:#8D1819;}
</style>
<path class="st0" d="M418.44,444.92c-2.94,1.51-8.31,5.17-9.04,17.27"/>
<g>
	<path class="st1" d="M237.13,187.73c0.29,1.15,0.51,2.28,0.67,3.39l0.13,0.1c0.76,1.05,1.5,2.12,2.2,3.22
		c6.02-2.02,11.42-5.26,15.46-10.18c-0.19-0.41-0.36-0.84-0.51-1.31c-0.82-2.63-1.07-5.14-0.84-7.48l-0.05-0.03
		c-3.45-3.63-7.47-6.48-12.03-8.51c-1.09,0.14-2.19,0.32-3.28,0.59C230.48,169.65,235.73,182.17,237.13,187.73"/>
	<path class="st2" d="M234.89,179.57c-0.07-0.32-0.14-0.64-0.2-0.97c0.83-0.45,1.74-0.88,2.61-1.29c1.02-0.48,2.07-0.98,2.99-1.51
		c2.51-1.43,5.03-3.28,7.72-5.64c0.19,0.13,0.38,0.26,0.57,0.39c-4.1,3.61-8.7,6.53-13.69,8.68
		C234.88,179.36,234.89,179.46,234.89,179.57"/>
	<path class="st2" d="M238.71,192.3c-0.07-0.11-0.15-0.21-0.22-0.32c0.62-0.31,1.23-0.63,1.84-0.96l10.72-7.86
		c-0.42,0.69-0.92,1.33-1.49,1.88C246.81,187.71,242.8,190.18,238.71,192.3"/>
	<path class="st2" d="M237.21,187.98c-0.02-0.08-0.04-0.16-0.06-0.25c-0.03-0.13-0.07-0.27-0.11-0.41
		c5.67-2.56,10.9-5.89,15.59-9.93c0,0.3-0.01,0.6-0.04,0.9C247.94,182.23,242.78,185.48,237.21,187.98"/>
	<path class="st2" d="M235.78,182.99c-0.06-0.21-0.12-0.43-0.18-0.64c6.02-1.91,11.45-5.01,16.14-9.22c0.1,0.21,0.19,0.43,0.27,0.65
		C247.28,177.99,241.83,181.08,235.78,182.99"/>
	<path class="st2" d="M234.29,175.83c-0.02-0.25-0.04-0.5-0.05-0.74c3.4-2.02,6.52-4.54,9.28-7.52c0.21,0.1,0.42,0.21,0.62,0.31
		C241.24,171.04,237.93,173.72,234.29,175.83"/>
	<path class="st3" d="M240.14,194.44c-0.03-0.04-0.05-0.08-0.07-0.12c-0.39-0.6-0.78-1.19-1.19-1.78
		c5.85-2.9,11.14-6.72,15.73-11.37c0.13,0.58,0.29,1.18,0.47,1.78c0.15,0.47,0.32,0.9,0.51,1.31
		C251.56,189.18,247.41,192.01,240.14,194.44 M251.05,183.17c0.88-1.46,1.41-3.15,1.55-4.87c0.53-0.45,1.05-0.9,1.56-1.36
		c-0.01,1.11,0.08,2.26,0.29,3.44c-0.39,0.39-0.78,0.78-1.17,1.16L251.05,183.17 M252.63,177.39c0-1.24-0.2-2.47-0.62-3.61
		c0.09-0.08,0.18-0.16,0.26-0.23c0.66,0.6,1.3,1.23,1.92,1.88l0.01,0.01c0.01,0.01,0.02,0.02,0.03,0.03
		c-0.02,0.18-0.03,0.35-0.04,0.53C253.68,176.48,253.16,176.94,252.63,177.39 M251.74,173.13c-0.02-0.03-0.03-0.07-0.05-0.1
		c0.03,0.02,0.05,0.05,0.08,0.07C251.76,173.11,251.75,173.12,251.74,173.13"/>
	<path class="st4" d="M238.88,192.54c-0.05-0.08-0.11-0.16-0.16-0.24c4.08-2.12,8.1-4.59,10.84-7.25c0.58-0.56,1.08-1.19,1.49-1.88
		l2.23-1.63c0.39-0.38,0.79-0.77,1.17-1.16c0.05,0.26,0.1,0.53,0.16,0.8C250.02,185.81,244.73,189.63,238.88,192.54"/>
	<path class="st4" d="M252.59,178.3c0.02-0.3,0.04-0.6,0.04-0.9c0.53-0.45,1.05-0.92,1.56-1.39c-0.02,0.31-0.03,0.62-0.04,0.93
		C253.64,177.4,253.12,177.85,252.59,178.3"/>
	<path class="st4" d="M252.01,173.78c-0.08-0.22-0.17-0.44-0.27-0.65c0.01-0.01,0.02-0.02,0.03-0.03c0.17,0.15,0.33,0.3,0.5,0.45
		C252.18,173.62,252.1,173.7,252.01,173.78"/>
</g>
<g>
	<path class="st1" d="M186.1,187.6c-0.29,1.15-0.51,2.28-0.67,3.39l-0.13,0.1c-0.76,1.05-1.5,2.12-2.2,3.22
		c-6.02-2.02-11.42-5.26-15.46-10.18c0.19-0.41,0.36-0.84,0.51-1.31c0.82-2.63,1.07-5.14,0.84-7.48l0.05-0.03
		c3.45-3.63,7.47-6.48,12.03-8.51c1.09,0.14,2.19,0.32,3.28,0.59C192.76,169.51,187.5,182.03,186.1,187.6"/>
	<path class="st2" d="M188.34,179.43c0.07-0.32,0.14-0.64,0.2-0.97c-0.83-0.45-1.74-0.88-2.61-1.29c-1.02-0.48-2.07-0.98-2.99-1.51
		c-2.51-1.43-5.03-3.28-7.72-5.64c-0.19,0.13-0.38,0.26-0.57,0.39c4.1,3.61,8.7,6.53,13.69,8.68
		C188.35,179.22,188.34,179.33,188.34,179.43"/>
	<path class="st2" d="M184.52,192.16c0.07-0.11,0.15-0.21,0.22-0.32c-0.62-0.31-1.23-0.63-1.84-0.96l-10.72-7.86
		c0.42,0.69,0.92,1.33,1.49,1.88C176.42,187.57,180.44,190.04,184.52,192.16"/>
	<path class="st2" d="M186.02,187.84c0.02-0.08,0.04-0.16,0.06-0.25c0.03-0.13,0.07-0.27,0.11-0.41c-5.67-2.56-10.9-5.89-15.59-9.93
		c0,0.3,0.01,0.6,0.04,0.9C175.29,182.09,180.45,185.34,186.02,187.84"/>
	<path class="st2" d="M187.45,182.86c0.06-0.21,0.12-0.43,0.18-0.64c-6.02-1.91-11.45-5.01-16.14-9.22
		c-0.1,0.21-0.19,0.43-0.27,0.65C175.95,177.85,181.41,180.94,187.45,182.86"/>
	<path class="st2" d="M188.94,175.69c0.02-0.25,0.04-0.5,0.05-0.74c-3.4-2.02-6.52-4.54-9.28-7.52c-0.21,0.1-0.42,0.21-0.62,0.31
		C181.99,170.9,185.31,173.58,188.94,175.69"/>
	<path class="st3" d="M183.09,194.3c-7.27-2.42-11.42-5.26-15.46-10.18c0.19-0.41,0.36-0.84,0.51-1.31c0.19-0.6,0.34-1.19,0.47-1.78
		c4.59,4.64,9.88,8.47,15.73,11.37c-0.41,0.59-0.8,1.18-1.19,1.78C183.14,194.22,183.12,194.26,183.09,194.3 M172.18,183.03
		l-2.23-1.63c-0.39-0.38-0.79-0.77-1.17-1.16c0.21-1.18,0.3-2.33,0.29-3.44c0.51,0.46,1.04,0.92,1.56,1.36
		C170.78,179.87,171.3,181.57,172.18,183.03 M170.6,177.26c-0.53-0.45-1.05-0.92-1.56-1.39c-0.01-0.18-0.03-0.36-0.04-0.53
		c0.01-0.01,0.02-0.02,0.03-0.03l0.01-0.01c0.62-0.65,1.26-1.28,1.92-1.88c0.09,0.08,0.17,0.16,0.26,0.23
		C170.8,174.78,170.6,176.01,170.6,177.26 M171.49,172.99c-0.01-0.01-0.02-0.02-0.03-0.03c0.03-0.02,0.05-0.05,0.08-0.07
		C171.53,172.92,171.51,172.96,171.49,172.99"/>
	<path class="st4" d="M184.36,192.4c0.05-0.08,0.11-0.16,0.16-0.24c-4.08-2.12-8.1-4.59-10.84-7.25c-0.58-0.56-1.08-1.19-1.49-1.88
		l-2.23-1.63c-0.39-0.38-0.79-0.77-1.17-1.16c-0.05,0.26-0.1,0.53-0.16,0.8C173.22,185.67,178.5,189.5,184.36,192.4"/>
	<path class="st4" d="M170.64,178.16c-0.02-0.3-0.04-0.6-0.04-0.9c-0.53-0.45-1.05-0.92-1.56-1.39c0.02,0.31,0.03,0.62,0.04,0.93
		C169.59,177.26,170.11,177.71,170.64,178.16"/>
	<path class="st4" d="M171.22,173.64c0.08-0.22,0.17-0.44,0.27-0.65c-0.01-0.01-0.02-0.02-0.03-0.03c-0.17,0.15-0.33,0.3-0.5,0.45
		C171.05,173.49,171.14,173.56,171.22,173.64"/>
</g>
</svg>
