<?xml version="1.0" encoding="utf-8"?>
<!-- Generator: Adobe Illustrator 26.0.1, SVG Export Plug-In . SVG Version: 6.00 Build 0)  -->
<svg version="1.1" id="Layer_1" xmlns="http://www.w3.org/2000/svg" xmlns:xlink="http://www.w3.org/1999/xlink" x="0px" y="0px"
	 viewBox="0 0 432 648" style="enable-background:new 0 0 432 648;" xml:space="preserve">
<style type="text/css">
	.st0{display:none;opacity:0.5;fill:none;stroke:#231F20;stroke-width:0.05;stroke-miterlimit:10;}
	.st1{fill:#E92A2A;}
	.st2{fill:#D52626;}
	.st3{fill:#9A1A1C;}
	.st4{fill:#8D1819;}
</style>
<path class="st0" d="M418.44,444.92c-2.94,1.51-8.31,5.17-9.04,17.27"/>
<g>
	<path class="st1" d="M216.28,236.6c0.56,8.31,2.3,16.65,4.35,24.69c0.88,3.43,1.95,6.8,2.88,10.21c0.66,2.38,1.38,5.24,3.46,6.83
		c3.05,2.35,4.47-2.11,4.88-4.45c1.2-6.79,4.94-13.84,7.93-20.02c2.96-6.13,5.94-12.3,9.09-18.37l0.08-0.17
		c0.54-1.53,1.13-3.25,1.82-5.08c0.9-2.37,1.83-4.82,2.56-7c0.96-2.87,3.06-12.89,4.79-21.57c-4.1,4.69-15.43,2.57-20.27,0.99
		c-0.88,2.98-2.22,5.92-3.96,8.9c-4.83,8.28-10.59,16.57-16.59,24.03C216.94,236.06,216.6,236.39,216.28,236.6"/>
	<path class="st2" d="M216.32,237.15c-0.01-0.19-0.03-0.37-0.04-0.55c0.07-0.05,0.15-0.1,0.22-0.16c13.21-2.63,25-8.83,34.5-18.1
		c0,0.22,0,0.45,0,0.67c0,0.08,0,0.17,0,0.25C241.42,228.45,229.56,234.59,216.32,237.15"/>
	<path class="st2" d="M239.55,214.86c-2.34,0-4.68-0.35-6.97-1.05c0.12-0.19,0.24-0.39,0.35-0.59c2.18,0.65,4.41,0.97,6.63,0.97
		c3.77,0,7.38-0.94,10.57-2.68c0.06,0.21,0.12,0.43,0.18,0.64C247.04,213.92,243.37,214.86,239.55,214.86"/>
	<path class="st2" d="M244.23,209.68c-2.86,0-5.67-0.61-8.37-1.8c0.1-0.2,0.19-0.41,0.28-0.61c2.61,1.16,5.34,1.74,8.11,1.74
		c1.57,0,3.11-0.19,4.61-0.55c0.11,0.2,0.22,0.4,0.32,0.6C247.58,209.48,245.92,209.68,244.23,209.68"/>
	<path class="st2" d="M227.33,278.58c-0.12-0.07-0.24-0.16-0.36-0.25c-0.08-0.06-0.15-0.12-0.23-0.18c0.75-3.24,1.72-6.41,2.86-9.49
		c-0.24,1.13-0.4,2.27-0.47,3.42C228.43,274.21,227.83,276.38,227.33,278.58 M223.84,272.66c-0.11-0.39-0.22-0.78-0.32-1.16
		c-0.02-0.08-0.04-0.15-0.06-0.23c2.27-9.59,9.01-17.65,15.54-25.45c3.78-4.51,7.63-9.15,10.67-14.11
		c-0.29,1.38-0.64,2.75-1.03,4.11c-0.15,0.29-0.3,0.57-0.44,0.86c-3.71,5.4-7.65,11.31-11.17,17.66c-0.96,1.18-1.87,2.39-2.71,3.65
		c3.77-7.38,8.27-14.3,12.72-20.8c-1.79,2.45-3.68,4.79-5.57,7.02c-0.55,0.64-1.09,1.29-1.64,1.93c-3.89,4.57-7.92,9.3-11.15,14.52
		c-1.7,2.74-3.1,5.93-4.29,9.74C224.18,271.1,224.01,271.84,223.84,272.66 M221.58,264.75c-0.14-0.48-0.28-0.97-0.41-1.46
		c2.08-9.25,9.57-15.62,16.83-21.79c4.33-3.68,8.78-7.46,12.07-11.85c-0.08,0.46-0.17,0.93-0.26,1.39
		c-3.21,3.98-7.3,7.47-11.3,10.86C230.96,248.3,223.17,254.91,221.58,264.75"/>
	<path class="st2" d="M216.89,242.68c-0.03-0.22-0.06-0.44-0.08-0.66c13.29-2.94,25.18-9.96,34.13-20.03
		c-0.02,0.35-0.04,0.7-0.06,1.05C241.87,232.91,230.04,239.79,216.89,242.68"/>
	<path class="st2" d="M223.09,228.06c0.18-0.25,0.36-0.5,0.54-0.75c10.14-1.43,19.56-5.59,27.22-11.95c0.03,0.27,0.05,0.53,0.07,0.8
		C243.07,222.57,233.43,226.71,223.09,228.06"/>
	<path class="st2" d="M232.93,219.54c-1.27,0-2.55-0.08-3.81-0.24c0.14-0.21,0.27-0.42,0.4-0.62c1.13,0.13,2.27,0.19,3.41,0.19
		c6.28,0,12.47-1.98,17.63-5.49c0.04,0.24,0.08,0.47,0.12,0.71C245.47,217.58,239.23,219.54,232.93,219.54"/>
	<path class="st2" d="M217.85,248.82c-0.04-0.22-0.08-0.44-0.12-0.66c13.33-3.18,24.78-10.79,32.81-21.7
		c-0.05,0.44-0.11,0.88-0.18,1.32C242.26,238.34,230.93,245.71,217.85,248.82"/>
	<path class="st3" d="M249.66,231.71c0.05-0.22,0.09-0.44,0.14-0.67c0.36-0.45,0.72-0.91,1.06-1.37
		C250.48,230.36,250.08,231.04,249.66,231.71 M250.07,229.66c0.11-0.62,0.21-1.25,0.3-1.87c0.96-1.25,1.88-2.55,2.74-3.89
		c-0.3,0.87-0.62,1.77-0.96,2.69c-0.04,0.02-0.08,0.06-0.11,0.11C251.45,227.71,250.79,228.7,250.07,229.66 M250.55,226.46
		c0.14-1.14,0.25-2.28,0.33-3.43c1.28-1.4,2.5-2.87,3.67-4.39c-0.25,1.08-0.49,2.04-0.7,2.84
		C252.82,223.21,251.72,224.87,250.55,226.46 M250.93,221.99c0.04-0.91,0.07-1.82,0.07-2.73c1.54-1.48,3.03-3.03,4.44-4.67
		c-0.19,0.86-0.37,1.68-0.55,2.46C253.66,218.77,252.33,220.41,250.93,221.99 M251,218.34c-0.01-0.72-0.04-1.45-0.09-2.17
		c1.85-1.51,3.61-3.15,5.25-4.9c-0.14,0.67-0.28,1.32-0.42,1.97C254.24,215.02,252.65,216.73,251,218.34 M250.85,215.37
		c-0.04-0.42-0.09-0.84-0.16-1.26c2.19-1.46,4.2-3.19,5.96-5.15c-0.07,0.35-0.14,0.7-0.22,1.04
		C254.7,211.93,252.83,213.72,250.85,215.37 M250.57,213.39c-0.08-0.41-0.16-0.82-0.27-1.23c2.56-1.38,4.88-3.26,6.83-5.58
		c-0.07,0.35-0.14,0.7-0.22,1.05l-0.1,0.12C255.01,209.92,252.9,211.81,250.57,213.39 M250.13,211.52
		c-0.22-0.74-0.48-1.46-0.81-2.16c-0.04-0.1-0.09-0.19-0.14-0.29c2.99-0.76,5.8-2.21,8.32-4.31c-0.03,0.14-0.06,0.28-0.09,0.42
		C255.41,207.85,252.92,209.99,250.13,211.52 M248.86,208.47c-1.03-1.8-2.53-3.35-4.33-4.29c1.55,0.22,3.18,0.36,4.77,0.36
		c3.57,0,6.95-0.72,8.82-2.85c-0.13,0.67-0.27,1.34-0.41,2.02C255.07,206.08,252.07,207.68,248.86,208.47"/>
	<path class="st3" d="M228.59,279.01c-0.2,0-0.42-0.04-0.64-0.11c0.47-0.39,0.82-0.95,0.99-1.54c0.31-1.05,0.18-2.18,0.14-3.27
		c-0.02-0.67-0.01-1.33,0.03-1.99c2.03-6.22,4.8-12.15,7.9-17.73c1.69-2.08,3.52-4.04,5.4-5.97c-0.89,1.84-1.77,3.67-2.65,5.5
		c-2.98,6.17-6.68,13.23-7.88,20.02c-0.28,1.62-1.1,4.24-2.55,4.94C229.11,278.95,228.86,279.01,228.59,279.01 M229.59,268.68
		c0.78-3.61,2.38-7.07,4.4-10.18c0.1-0.16,0.21-0.32,0.31-0.48C232.54,261.47,230.94,265.02,229.59,268.68"/>
	<path class="st4" d="M229.13,272.08c0.07-1.15,0.23-2.29,0.47-3.42c1.35-3.66,2.95-7.21,4.71-10.66c0.84-1.26,1.76-2.48,2.71-3.65
		C233.93,259.93,231.15,265.86,229.13,272.08"/>
	<path class="st4" d="M251.01,219.26c0-0.08,0-0.17,0-0.25c0-0.22,0-0.45,0-0.67c1.65-1.61,3.23-3.32,4.74-5.11
		c-0.1,0.46-0.2,0.92-0.29,1.36C254.03,216.22,252.55,217.78,251.01,219.26"/>
	<path class="st4" d="M250.31,212.16c-0.05-0.22-0.11-0.43-0.18-0.64c2.79-1.52,5.27-3.66,7.29-6.34c-0.09,0.47-0.19,0.94-0.29,1.41
		C255.19,208.9,252.87,210.78,250.31,212.16"/>
	<path class="st4" d="M249.18,209.07c-0.1-0.2-0.21-0.4-0.32-0.6c3.2-0.78,6.21-2.39,8.86-4.76c-0.07,0.35-0.14,0.7-0.21,1.05
		C254.98,206.85,252.17,208.31,249.18,209.07"/>
	<path class="st4" d="M248.64,235.82c0.39-1.36,0.73-2.73,1.03-4.11c0.41-0.67,0.81-1.35,1.19-2.04c-0.34,0.46-0.69,0.92-1.06,1.37
		c0.09-0.46,0.18-0.93,0.26-1.39c0.72-0.96,1.38-1.94,1.98-2.97c0.03-0.05,0.06-0.08,0.11-0.11c-0.45,1.21-0.92,2.45-1.38,3.66
		c-0.44,1.15-0.9,2.26-1.29,3.31c-0.05,0.08-0.43,1.26-0.62,1.82"/>
	<path class="st4" d="M250.87,223.03c0.02-0.35,0.04-0.7,0.06-1.05c1.4-1.57,2.72-3.22,3.97-4.94c-0.13,0.56-0.25,1.09-0.37,1.59
		C253.38,220.16,252.16,221.63,250.87,223.03"/>
	<path class="st4" d="M250.92,216.17c-0.02-0.27-0.04-0.54-0.07-0.8c1.99-1.65,3.85-3.44,5.58-5.37c-0.09,0.43-0.18,0.85-0.27,1.27
		C254.52,213.02,252.77,214.66,250.92,216.17"/>
	<path class="st4" d="M250.69,214.1c-0.04-0.24-0.08-0.48-0.12-0.71c2.32-1.58,4.43-3.47,6.25-5.63l0.1-0.12
		c-0.09,0.44-0.18,0.88-0.27,1.32C254.89,210.92,252.88,212.64,250.69,214.1"/>
	<path class="st4" d="M250.37,227.78c0.06-0.44,0.12-0.88,0.18-1.32c1.17-1.59,2.27-3.25,3.29-4.98c-0.19,0.73-0.36,1.33-0.51,1.76
		c-0.07,0.22-0.15,0.43-0.22,0.65C252.25,225.24,251.33,226.53,250.37,227.78"/>
</g>
<g>
	<g>
		<path class="st1" d="M208.85,236.61c-0.56,8.31-2.3,16.65-4.35,24.69c-0.88,3.43-1.95,6.8-2.88,10.21
			c-0.66,2.38-1.38,5.24-3.46,6.83c-3.05,2.35-4.47-2.11-4.88-4.45c-1.2-6.79-4.94-13.84-7.93-20.02
			c-2.96-6.13-5.94-12.3-9.09-18.37l-0.08-0.17c-0.54-1.53-1.13-3.25-1.82-5.08c-0.9-2.37-1.83-4.82-2.56-7
			c-0.96-2.87-3.06-12.89-4.79-21.57c4.1,4.69,15.43,2.57,20.27,0.99c0.88,2.98,2.22,5.92,3.96,8.9
			c4.83,8.28,10.59,16.57,16.59,24.03C208.19,236.07,208.53,236.4,208.85,236.61"/>
		<path class="st2" d="M208.8,237.16c0.01-0.19,0.03-0.37,0.04-0.55c-0.07-0.05-0.15-0.1-0.22-0.16c-13.21-2.63-25-8.83-34.5-18.1
			c0,0.22,0,0.45,0,0.67c0,0.08,0,0.17,0,0.25C183.7,228.46,195.56,234.6,208.8,237.16"/>
		<path class="st2" d="M185.57,214.87c2.34,0,4.68-0.35,6.97-1.05c-0.12-0.19-0.24-0.39-0.35-0.59c-2.18,0.65-4.41,0.97-6.63,0.97
			c-3.77,0-7.38-0.94-10.57-2.68c-0.06,0.21-0.12,0.43-0.18,0.64C178.08,213.93,181.75,214.87,185.57,214.87"/>
		<path class="st2" d="M180.89,209.7c2.86,0,5.67-0.61,8.37-1.8c-0.1-0.2-0.19-0.41-0.28-0.61c-2.61,1.16-5.34,1.74-8.11,1.74
			c-1.57,0-3.11-0.19-4.61-0.55c-0.11,0.2-0.22,0.4-0.32,0.6C177.55,209.49,179.2,209.7,180.89,209.7"/>
		<path class="st2" d="M197.8,278.59c-0.5-2.2-1.18-4.6-1.88-6.74c-0.07-1.15-0.11-2.06-0.36-3.19c1.14,3.08,2.07,6.25,2.82,9.49
			c-0.07,0.06-0.15,0.13-0.23,0.18C198.03,278.44,197.91,278.52,197.8,278.59 M201.28,272.67c-0.17-0.82-0.35-1.56-0.54-2.26
			c-1.19-3.81-2.59-6.99-4.29-9.74c-3.23-5.23-7.26-9.95-11.15-14.52c-0.55-0.64-1.09-1.29-1.64-1.93
			c-1.89-2.23-3.79-4.57-5.57-7.02c4.45,6.51,8.96,13.42,12.72,20.8c-0.84-1.26-1.76-2.48-2.71-3.65
			c-3.52-6.35-7.46-12.26-11.17-17.66c-0.15-0.29-0.3-0.58-0.44-0.86c-0.39-1.36-0.73-2.73-1.03-4.11
			c3.04,4.96,6.9,9.59,10.67,14.11c6.53,7.8,13.27,15.86,15.54,25.45c-0.02,0.08-0.04,0.15-0.06,0.23
			C201.5,271.89,201.4,272.28,201.28,272.67 M203.55,264.76c-1.6-9.84-9.39-16.44-16.93-22.84c-4-3.4-8.09-6.88-11.3-10.86
			c-0.09-0.46-0.18-0.93-0.26-1.39c3.29,4.39,7.74,8.17,12.07,11.85c7.26,6.17,14.75,12.54,16.83,21.79
			C203.82,263.79,203.69,264.27,203.55,264.76"/>
		<path class="st2" d="M208.23,242.69c0.03-0.22,0.06-0.44,0.08-0.66c-13.29-2.94-25.18-9.96-34.13-20.03
			c0.02,0.35,0.04,0.7,0.06,1.05C183.25,232.92,195.08,239.8,208.23,242.69"/>
		<path class="st2" d="M202.03,228.07c-0.18-0.25-0.36-0.5-0.54-0.75c-10.14-1.43-19.56-5.59-27.22-11.95
			c-0.03,0.27-0.05,0.53-0.07,0.8C182.06,222.58,191.69,226.73,202.03,228.07"/>
		<path class="st2" d="M192.19,219.55c1.27,0,2.55-0.08,3.81-0.24c-0.14-0.21-0.27-0.42-0.4-0.62c-1.13,0.13-2.27,0.19-3.41,0.19
			c-6.28,0-12.47-1.98-17.63-5.49c-0.04,0.24-0.08,0.47-0.12,0.71C179.65,217.59,185.89,219.55,192.19,219.55"/>
		<path class="st2" d="M207.27,248.83c0.04-0.22,0.08-0.44,0.12-0.66c-13.33-3.18-24.78-10.79-32.81-21.7
			c0.05,0.44,0.11,0.88,0.18,1.32C182.86,238.35,194.19,245.72,207.27,248.83"/>
		<path class="st3" d="M175.46,231.72c-0.41-0.67-0.81-1.35-1.19-2.04c0.34,0.46,0.69,0.92,1.06,1.37
			C175.36,231.28,175.41,231.5,175.46,231.72 M175.06,229.67c-0.72-0.96-1.38-1.94-1.98-2.97c-0.03-0.05-0.06-0.08-0.11-0.11
			c-0.34-0.92-0.66-1.82-0.96-2.69c0.87,1.34,1.78,2.63,2.74,3.89C174.84,228.42,174.94,229.04,175.06,229.67 M174.57,226.47
			c-1.17-1.59-2.27-3.25-3.29-4.98c-0.21-0.8-0.45-1.76-0.7-2.84c1.16,1.52,2.39,2.99,3.67,4.39
			C174.32,224.19,174.43,225.33,174.57,226.47 M174.19,222c-1.4-1.57-2.72-3.22-3.97-4.94c-0.18-0.78-0.36-1.6-0.55-2.46
			c1.42,1.63,2.9,3.19,4.44,4.67C174.12,220.18,174.14,221.09,174.19,222 M174.12,218.35c-1.65-1.61-3.23-3.32-4.74-5.11
			c-0.14-0.64-0.28-1.3-0.42-1.97c1.64,1.75,3.4,3.39,5.25,4.9C174.16,216.9,174.13,217.63,174.12,218.35 M174.27,215.38
			c-1.99-1.65-3.85-3.44-5.58-5.37c-0.07-0.34-0.14-0.69-0.22-1.04c1.76,1.96,3.77,3.69,5.96,5.15
			C174.37,214.53,174.32,214.95,174.27,215.38 M174.55,213.4c-2.32-1.58-4.43-3.47-6.25-5.63l-0.1-0.12
			c-0.07-0.35-0.14-0.7-0.22-1.05c1.95,2.32,4.26,4.2,6.83,5.58C174.71,212.58,174.63,212.99,174.55,213.4 M174.99,211.53
			c-2.79-1.52-5.27-3.66-7.29-6.34c-0.03-0.14-0.06-0.28-0.09-0.42c2.53,2.1,5.34,3.55,8.32,4.31c-0.05,0.1-0.1,0.19-0.14,0.29
			C175.47,210.07,175.21,210.79,174.99,211.53 M176.26,208.48c-3.2-0.78-6.21-2.39-8.86-4.76c-0.14-0.68-0.27-1.35-0.41-2.02
			c1.87,2.13,5.25,2.85,8.82,2.85c1.59,0,3.22-0.14,4.77-0.36C178.79,205.12,177.29,206.68,176.26,208.48"/>
		<path class="st4" d="M174.12,219.27c0-0.08,0-0.17,0-0.25c0-0.22,0-0.45,0-0.67c-1.65-1.61-3.23-3.32-4.74-5.11
			c0.1,0.46,0.2,0.92,0.29,1.36C171.09,216.23,172.57,217.79,174.12,219.27"/>
		<path class="st4" d="M174.82,212.17c0.05-0.22,0.11-0.43,0.18-0.64c-2.79-1.52-5.27-3.66-7.29-6.34c0.09,0.47,0.19,0.94,0.29,1.41
			C169.94,208.92,172.25,210.79,174.82,212.17"/>
		<path class="st4" d="M175.94,209.08c0.1-0.2,0.21-0.4,0.32-0.6c-3.2-0.78-6.21-2.39-8.86-4.76c0.07,0.35,0.14,0.7,0.21,1.05
			C170.14,206.86,172.95,208.32,175.94,209.08"/>
		<path class="st4" d="M176.48,235.83c-0.39-1.36-0.73-2.73-1.03-4.11c-0.41-0.67-0.81-1.35-1.19-2.04
			c0.34,0.46,0.69,0.92,1.06,1.37c-0.09-0.46-0.18-0.93-0.26-1.39c-0.72-0.96-1.38-1.94-1.98-2.97c-0.03-0.05-0.06-0.08-0.11-0.11
			c0.45,1.21,0.92,2.45,1.38,3.66c0.44,1.15,0.9,2.26,1.29,3.31c0.05,0.08,0.43,1.26,0.62,1.82"/>
		<path class="st4" d="M174.25,223.04c-0.02-0.35-0.04-0.7-0.06-1.05c-1.4-1.57-2.72-3.22-3.97-4.94c0.13,0.56,0.25,1.09,0.37,1.59
			C171.74,220.17,172.97,221.64,174.25,223.04"/>
		<path class="st4" d="M174.21,216.18c0.02-0.27,0.04-0.54,0.07-0.8c-1.99-1.65-3.85-3.44-5.58-5.37c0.09,0.43,0.18,0.85,0.27,1.27
			C170.6,213.03,172.35,214.67,174.21,216.18"/>
		<path class="st4" d="M174.43,214.11c0.04-0.24,0.08-0.48,0.12-0.71c-2.32-1.58-4.43-3.47-6.25-5.63l-0.1-0.12
			c0.09,0.44,0.18,0.88,0.27,1.32C170.23,210.93,172.24,212.65,174.43,214.11"/>
		<path class="st4" d="M174.75,227.79c-0.06-0.44-0.12-0.88-0.18-1.32c-1.17-1.59-2.27-3.25-3.29-4.98
			c0.19,0.73,0.36,1.33,0.51,1.76c0.07,0.22,0.15,0.43,0.22,0.65C172.88,225.25,173.79,226.54,174.75,227.79"/>
		<path class="st3" d="M196.44,279.02c-0.27,0-0.51-0.06-0.74-0.17c-1.45-0.7-2.27-3.32-2.55-4.94c-1.2-6.79-4.89-13.85-7.88-20.02
			c-0.88-1.82-1.76-3.66-2.65-5.5c1.87,1.93,3.93,3.89,5.53,6.04c3.73,5.02,7.53,9.38,7.77,17.66c0.02,0.66,0.05,1.33,0.03,1.99
			c-0.04,1.1-0.17,2.22,0.14,3.27c0.17,0.59,0.53,1.15,0.99,1.54C196.86,278.99,196.65,279.02,196.44,279.02"/>
	</g>
	<path class="st4" d="M195.92,271.21c-0.07-1.15-0.07-1.3-0.31-2.43c-1.35-3.66-3.05-7.35-4.81-10.8c-0.84-1.26-1.71-2.4-2.67-3.58
		c3.1,5.58,5.76,11.26,7.78,17.48L195.92,271.21z"/>
</g>
</svg>
