<?xml version="1.0" encoding="utf-8"?>
<!-- Generator: Adobe Illustrator 26.0.1, SVG Export Plug-In . SVG Version: 6.00 Build 0)  -->
<svg version="1.1" id="Layer_1" xmlns="http://www.w3.org/2000/svg" xmlns:xlink="http://www.w3.org/1999/xlink" x="0px" y="0px"
	 viewBox="0 0 432 648" style="enable-background:new 0 0 432 648;" xml:space="preserve">
<style type="text/css">
	.st0{display:none;opacity:0.5;fill:none;stroke:#231F20;stroke-width:0.05;stroke-miterlimit:10;}
	.st1{fill:#E92A2A;}
	.st2{fill:#D52626;}
	.st3{fill:#9A1A1C;}
	.st4{fill:#8D1819;}
</style>
<path class="st0" d="M418.44,444.92c-2.94,1.51-8.31,5.17-9.04,17.27"/>
<g>
	<path class="st1" d="M214.78,223.48c0.06,3.85,0.31,7.71,0.27,11.56c-0.04,3.03,3.95,0.03,4.97-1.41c1.41-1.99,2.89-3.92,4.27-5.93
		c4.31-6.31,8.98-12.51,12.37-19.39c4.69-9.49,1.4-18.39-0.73-27.97c-0.87-3.94-1.71-8.44,1.96-10.99c1.98-1.38,5.08-1.59,7.35-1.95
		c1.09-0.17,2.14-0.22,3.23-0.28c3.22-0.2,10.9-0.57,10.05-6.25c-6.59,1.13-15.06-0.16-18.84-0.74c-4.28-0.66-8.4-1.98-12.07-3.98
		c-6.26,3.47-10.68,8.77-12.5,15.95c-2.23,8.74-0.5,18.36-0.17,27.24C215.27,207.36,214.67,215.44,214.78,223.48"/>
	<path class="st2" d="M214.5,191.94c-0.07-0.88-0.13-1.77-0.2-2.66c0-0.01,0-0.03,0-0.04c0,0,0-0.01,0-0.01
		c0.06,0.9,0.13,1.79,0.2,2.69L214.5,191.94 M216.55,186.37c-0.08-0.43-0.15-0.86-0.22-1.29c0.62-0.86,1.35-1.67,2.19-2.45
		c3.98-3.63,8.82-6.66,13.5-9.58c0.42-0.26,0.85-0.53,1.27-0.79c0.04,0.25,0.09,0.49,0.16,0.74c-0.24,0.15-0.48,0.31-0.71,0.46
		c-3.09,1.98-6.28,4.02-9.73,6.56C220.02,182.23,217.93,184.26,216.55,186.37"/>
	<path class="st2" d="M248.4,163.48c-2.65,0-5.29-0.25-7.84-0.76c-1.43-0.28-2.88-0.66-4.41-1.06c-3.07-0.81-6.25-1.64-9.3-1.64
		c-2.31,0-4.29,0.48-6.06,1.46c0.44-0.48,0.9-0.94,1.37-1.39c1.33-0.51,2.72-0.75,4.23-0.75c2.17,0,4.4,0.51,6.76,1.05l0.36,0.08
		c4.98,1.13,10.34,2.18,15.86,2.18c3.2,0,6.23-0.35,9.25-1.06c0,0.24-0.01,0.47-0.04,0.69C255.16,163.08,251.74,163.48,248.4,163.48
		"/>
	<path class="st2" d="M215.08,172.31c0.02-0.08,0.04-0.15,0.06-0.22c0.17-0.67,0.36-1.32,0.57-1.95c0.01-0.01,0.01-0.01,0.02-0.02
		c-0.22,0.64-0.41,1.3-0.58,1.97c-0.02,0.06-0.03,0.13-0.05,0.2L215.08,172.31 M217.36,169.15c0.11-0.42,0.23-0.84,0.35-1.26
		c2.87-2.63,6.6-3.84,11.63-3.84c2.94,0,6.1,0.41,9.15,0.8c3.11,0.4,6.32,0.81,9.37,0.81c4.38,0,7.75-0.85,10.56-2.67
		c-0.13,0.4-0.31,0.77-0.54,1.09c-2.7,1.5-5.86,2.21-9.85,2.21h0c-3.1,0-6.36-0.43-9.5-0.84c-3.05-0.4-6.21-0.82-9.14-0.82
		C224.07,164.62,220.23,166.04,217.36,169.15"/>
	<path class="st2" d="M214.05,184.34c-0.02-0.85-0.04-1.71-0.03-2.56c0-0.01,0-0.01,0-0.02c-0.01,0.85,0,1.7,0.03,2.56
		L214.05,184.34 M215.96,178.31c0.03-0.7,0.07-1.39,0.14-2.09c1.33-2.59,3.19-4.71,6.01-5.83c3.99-1.58,8.25-1.83,12.41-1.96
		c-0.2,0.21-0.38,0.43-0.54,0.67c-1.11,0.04-2.23,0.1-3.34,0.19C222.07,170.02,218.29,172.87,215.96,178.31"/>
	<path class="st2" d="M215.35,236.08c-0.15-0.17-0.26-0.44-0.28-0.82C215.1,235.64,215.2,235.91,215.35,236.08
		C215.35,236.08,215.35,236.08,215.35,236.08 M219.65,226.66c1.5-1.78,3.21-3.44,5.02-5.19c0.53-0.51,1.07-1.04,1.61-1.58
		c1.9-1.87,3.57-3.71,5.01-5.54c-1.2,1.7-2.43,3.37-3.66,5.03c-0.57,0.57-1.15,1.14-1.71,1.69c-1.77,1.74-3.5,3.44-5.06,5.23
		C220.42,226.5,220.02,226.61,219.65,226.66 M235.23,208.42c1.83-3.4,3.03-6.94,3.73-10.84c0.01-0.08,0.05-0.14,0.11-0.19
		c0.02,1.21-0.04,2.42-0.19,3.63c-0.17,0.62-0.34,1.23-0.54,1.83C237.39,204.75,236.34,206.6,235.23,208.42"/>
	<path class="st2" d="M214.92,228.02c-0.01-0.43-0.03-0.87-0.04-1.3C214.89,227.16,214.9,227.59,214.92,228.02L214.92,228.02
		 M216.48,224.27c-0.1-0.28-0.18-0.58-0.25-0.88c1.85-3.13,4.49-5.44,7.25-7.85c0.78-0.68,1.59-1.39,2.4-2.13
		c7.28-6.66,11.35-13.24,12.79-20.66c0.1,0.65,0.18,1.29,0.24,1.94c-1.29,5.05-3.85,9.78-7.79,14.39c-1.86,2.17-4.05,4.06-6.17,5.89
		C221.64,217.82,218.47,220.56,216.48,224.27"/>
	<path class="st2" d="M214.88,214.5c0.01-0.54,0.03-1.07,0.04-1.6c0,0,0-0.01,0.01-0.01C214.91,213.42,214.9,213.96,214.88,214.5
		C214.88,214.49,214.88,214.5,214.88,214.5 M217.79,209.46c0.13-0.52,0.26-1.04,0.38-1.57c1.95-2.45,4.24-4.69,6.48-6.89
		c6.03-5.92,11.72-11.52,11.26-20.38l0.06-0.17c0.19,0.84,0.38,1.68,0.58,2.51c-0.58,7.78-6.05,13.16-11.35,18.38
		C222.59,203.9,219.91,206.53,217.79,209.46"/>
	<path class="st2" d="M215,199.98c-0.01-0.21-0.01-0.43-0.02-0.64c-0.02-0.44-0.04-0.87-0.06-1.31c0,0,0-0.01,0.01-0.01
		c0.02,0.45,0.04,0.89,0.06,1.33c0.01,0.21,0.01,0.41,0.02,0.62C215.01,199.96,215,199.97,215,199.98 M218.35,193.14
		c-0.08-0.33-0.17-0.66-0.27-0.99c1.26-1.66,2.79-3.17,4.59-4.55c0.91-0.7,1.86-1.38,2.78-2.04c3.7-2.64,7.51-5.37,9.16-9.72
		c0.13,0.28,0.26,0.56,0.39,0.84c-1.43,3.33-4.05,5.65-6.74,7.66l-0.56,0.42C224.1,187.45,220.79,189.91,218.35,193.14"/>
	<path class="st2" d="M215.04,207.08c0.01-0.77,0.02-1.54,0.02-2.31c0-0.01,0-0.01,0.01-0.02c0,0.77-0.01,1.54-0.02,2.3
		C215.05,207.06,215.05,207.07,215.04,207.08 M219.22,198.65c-0.02-0.37-0.04-0.75-0.07-1.12c1.27-1.59,2.79-3.16,4.59-4.75
		c0.82-0.73,1.68-1.44,2.51-2.14c3.99-3.34,8.11-6.78,9.31-12.18c0.09,0.48,0.19,0.95,0.29,1.42c-1.42,4.48-4.77,7.59-8.09,10.4
		C224.44,193.08,221.5,195.7,219.22,198.65"/>
	<path class="st2" d="M214.78,221.45c0-0.88,0.01-1.76,0.02-2.64c0,0,0-0.01,0-0.01C214.78,219.68,214.78,220.56,214.78,221.45
		L214.78,221.45 M216.13,217.34c0.09-0.58,0.18-1.16,0.28-1.73c1.64-2.54,3.88-4.6,6.02-6.37c0.6-0.5,1.21-0.99,1.82-1.49
		c7.24-5.91,14.72-12.02,13.01-21.89c0.3,1.24,0.58,2.47,0.83,3.69c-0.24,3.96-1.85,7.79-4.68,11c-2.03,2.31-4.67,4.38-7.22,6.37
		C222.27,209.99,218.25,213.14,216.13,217.34"/>
	<path class="st3" d="M235.41,177.57c-0.14-0.3-0.27-0.59-0.41-0.89c0.08-0.19,0.16-0.39,0.24-0.6
		C235.27,176.58,235.33,177.07,235.41,177.57 M234.61,175.84c-0.07-0.15-0.14-0.3-0.21-0.46c-0.35-0.77-0.71-1.56-0.94-2.38
		c0.86-0.55,1.73-1.11,2.61-1.68c-0.38,0.68-0.62,1.41-0.75,2.18c-0.06,0.05-0.09,0.11-0.11,0.19
		C235.07,174.45,234.87,175.16,234.61,175.84 M233.3,172.27c-0.08-0.52-0.09-1.04,0-1.57c0.11-0.58,0.34-1.12,0.66-1.6
		c0.69-0.03,1.38-0.05,2.06-0.07c0.83-0.02,1.68-0.05,2.53-0.08c-0.02,0.01-0.05,0.02-0.07,0.04c-0.01,0-0.01,0-0.02,0
		c-0.06,0-0.12,0.02-0.17,0.05C236.69,170.13,234.99,171.21,233.3,172.27 M234.51,168.44c0.8-0.82,1.88-1.42,2.99-1.72
		c1.09-0.3,2.21-0.38,3.34-0.38c0.91,0,1.82,0.05,2.73,0.08c0.65,0.02,1.3,0.03,1.94,0.03c2.96,0,5.93-0.23,8.86-0.69
		c0.59-0.09,1.38-0.22,2.12-0.42c-1.5,0.94-3.57,1.36-5.38,1.57c-0.99,0.11-1.91,0.17-2.61,0.21c-0.57,0.03-1.14,0.07-1.7,0.11
		c-0.26,0.02-0.52,0.04-0.78,0.07c-0.25,0.03-0.51,0.06-0.76,0.1c-1.05,0.17-2.27,0.3-3.47,0.53c-0.39,0.08-0.78,0.16-1.16,0.26
		c-1.66,0.12-3.34,0.17-4.97,0.22C235.28,168.41,234.9,168.42,234.51,168.44"/>
	<path class="st4" d="M233.46,173.01c-0.07-0.25-0.12-0.49-0.16-0.74c1.69-1.06,3.39-2.14,5-3.23c0.05-0.04,0.11-0.05,0.17-0.05
		c0.01,0,0.01,0,0.02,0c-0.2,0.11-0.4,0.23-0.58,0.36c-0.82,0.57-1.42,1.24-1.84,1.98C235.19,171.9,234.32,172.46,233.46,173.01"/>
	<path class="st4" d="M233.97,169.1c0.16-0.24,0.34-0.46,0.54-0.67c0.38-0.01,0.77-0.02,1.15-0.03c1.63-0.05,3.31-0.1,4.97-0.22
		c-0.74,0.19-1.45,0.44-2.08,0.77c-0.85,0.04-1.7,0.06-2.53,0.08C235.35,169.06,234.66,169.08,233.97,169.1"/>
	<path class="st4" d="M235,176.68c-0.13-0.28-0.26-0.56-0.39-0.84c0.26-0.68,0.46-1.39,0.6-2.15c0.01-0.08,0.05-0.14,0.11-0.19
		c-0.14,0.83-0.15,1.7-0.08,2.58C235.16,176.29,235.08,176.49,235,176.68"/>
	<path class="st3" d="M215.99,236.34c-0.03,0-0.07,0-0.1,0c-0.05,0-0.09-0.01-0.13-0.02c-0.16-0.04-0.3-0.11-0.41-0.23
		c1.01-3.83,3.04-6.92,5.51-9.77c0.34-0.15,0.71-0.34,1.1-0.58c1.67-1.04,2.9-2.65,4.08-4.22c0.53-0.71,1.06-1.42,1.59-2.13
		c1.41-1.41,2.81-2.87,4.08-4.41c2.97-3.61,5.19-7.68,6.63-12.12c0.13-0.26,0.26-0.52,0.38-0.79c-0.36,2.06-1,4.14-2.04,6.24
		c-3.39,6.88-8.06,13.08-12.37,19.39c-1.38,2.02-2.86,3.94-4.27,5.93C219.33,234.61,217.23,236.34,215.99,236.34 M215.07,234.68
		c0-0.16,0-0.32,0-0.47c0-2.06-0.07-4.12-0.15-6.18c0.06-0.04,0.11-0.1,0.13-0.18c0.36-1.29,0.84-2.47,1.43-3.57
		c0.5,1.4,1.36,2.41,2.76,2.41c0.13,0,0.27-0.01,0.41-0.03C217.7,228.96,216.1,231.48,215.07,234.68 M214.86,226.27
		c-0.03-0.93-0.06-1.87-0.07-2.8c0-0.08,0-0.16,0-0.23c-0.01-0.6-0.01-1.2-0.01-1.79l0.07-0.37c0.25-1.34,0.69-2.58,1.28-3.74
		c-0.01,0.07-0.02,0.15-0.04,0.22c-0.25,1.57-0.32,3.92,0.13,5.83C215.7,224.28,215.24,225.23,214.86,226.27 M214.8,218.8
		c0.02-1.44,0.05-2.87,0.09-4.31c0.04-0.04,0.08-0.08,0.1-0.14c0.73-1.74,1.69-3.36,2.8-4.9c-0.15,0.59-0.31,1.17-0.46,1.75
		c-0.4,1.47-0.68,2.92-0.92,4.39C215.76,216.59,215.21,217.66,214.8,218.8 M231.29,214.35c1.37-1.94,2.7-3.92,3.94-5.94
		C234.15,210.43,232.84,212.39,231.29,214.35 M214.92,212.88c0.05-1.94,0.1-3.89,0.13-5.83c0.83-3.24,2.28-5.94,4.17-8.4
		c0.13,3.1-0.36,6.21-1.05,9.24C216.92,209.46,215.8,211.11,214.92,212.88 M215.07,204.75c0-1.6-0.01-3.2-0.06-4.79
		c0.73-2.68,1.88-4.89,3.34-6.81c0.34,1.33,0.62,2.67,0.77,4.03c0.01,0.12,0.03,0.24,0.04,0.36
		C217.3,199.84,215.98,202.2,215.07,204.75 M214.93,198.01c-0.1-2-0.26-4.04-0.42-6.09l0.02-0.16c0.28-1.94,0.92-3.69,2.02-5.38
		c0.22,1.17,0.51,2.34,0.86,3.5c0.23,0.76,0.46,1.51,0.67,2.28C216.73,193.93,215.68,195.87,214.93,198.01 M214.31,189.23
		c0-0.04-0.01-0.08-0.01-0.12c-0.06-0.8-0.11-1.6-0.15-2.41c-0.04-0.79-0.07-1.58-0.1-2.37l0.1-0.39c0.53-2.12,1.1-3.99,1.81-5.63
		c-0.08,2.26,0.03,4.52,0.37,6.77C215.42,186.36,214.74,187.74,214.31,189.23 M214.03,181.77c0.03-3.22,0.31-6.41,1.07-9.49
		l0.02-0.04c0.68-1.17,1.42-2.21,2.24-3.1c-0.62,2.34-1.05,4.7-1.27,7.08C215.22,177.92,214.57,179.82,214.03,181.77 M215.73,170.11
		c0.87-2.55,2.1-4.84,3.63-6.87c-0.47,1.07-0.87,2.18-1.24,3.33c-0.14,0.44-0.28,0.87-0.41,1.31
		C217,168.54,216.34,169.28,215.73,170.11"/>
	<path class="st4" d="M214.51,191.92c-0.07-0.89-0.14-1.79-0.2-2.69c0.44-1.49,1.11-2.87,2.03-4.14c0.07,0.43,0.14,0.86,0.22,1.29
		c-1.1,1.69-1.74,3.44-2.02,5.38L214.51,191.92"/>
	<path class="st4" d="M215.1,172.28c0.02-0.06,0.03-0.13,0.05-0.2c0.17-0.68,0.37-1.33,0.58-1.97c0.61-0.83,1.27-1.57,1.98-2.22
		c-0.12,0.42-0.24,0.84-0.35,1.26c-0.82,0.89-1.57,1.92-2.24,3.1L215.1,172.28"/>
	<path class="st4" d="M214.05,184.33c-0.02-0.85-0.03-1.71-0.03-2.56c0.54-1.95,1.19-3.85,2.07-5.54c-0.06,0.7-0.11,1.39-0.14,2.09
		c-0.7,1.64-1.27,3.51-1.81,5.63L214.05,184.33"/>
	<path class="st4" d="M215.35,236.08c-0.15-0.17-0.26-0.44-0.28-0.81c0-0.07-0.01-0.15-0.01-0.23c0-0.12,0-0.24,0-0.36
		c1.03-3.2,2.63-5.71,4.58-8.02c0.37-0.05,0.77-0.16,1.21-0.35C218.39,229.16,216.37,232.25,215.35,236.08 M227.63,219.38
		c1.24-1.66,2.47-3.33,3.66-5.03c1.55-1.96,2.86-3.93,3.94-5.94c1.11-1.82,2.16-3.67,3.1-5.57c-1.43,4.45-3.65,8.51-6.63,12.12
		C230.44,216.51,229.04,217.97,227.63,219.38"/>
	<path class="st4" d="M214.92,228.02c-0.02-0.43-0.03-0.87-0.05-1.3c-0.01-0.15-0.01-0.3-0.01-0.45c0.38-1.04,0.84-2,1.36-2.89
		c0.07,0.31,0.16,0.6,0.25,0.88c-0.59,1.1-1.07,2.28-1.43,3.57C215.03,227.92,214.98,227.98,214.92,228.02"/>
	<path class="st4" d="M214.88,214.49c0.01-0.54,0.03-1.07,0.04-1.61c0.88-1.77,1.99-3.42,3.24-4.99c-0.12,0.52-0.25,1.05-0.38,1.57
		c-1.11,1.54-2.08,3.16-2.8,4.9C214.96,214.41,214.93,214.46,214.88,214.49"/>
	<path class="st4" d="M215.01,199.96c-0.01-0.21-0.01-0.41-0.02-0.62c-0.02-0.44-0.04-0.89-0.06-1.33c0.75-2.13,1.8-4.08,3.16-5.86
		c0.09,0.33,0.18,0.66,0.27,0.99C216.89,195.07,215.73,197.27,215.01,199.96"/>
	<path class="st4" d="M215.05,207.05c0.01-0.77,0.02-1.54,0.02-2.3c0.91-2.55,2.23-4.91,4.08-7.21c0.03,0.37,0.06,0.75,0.07,1.12
		C217.33,201.11,215.88,203.81,215.05,207.05"/>
	<path class="st4" d="M214.78,221.44c0-0.88,0.01-1.76,0.02-2.64c0.42-1.15,0.97-2.21,1.61-3.2c-0.1,0.57-0.19,1.15-0.28,1.73
		c-0.59,1.16-1.03,2.4-1.28,3.74L214.78,221.44"/>
</g>
<g>
	<path class="st1" d="M211.99,223.46c-0.06,3.85-0.31,7.71-0.27,11.56c0.04,3.03-3.95,0.03-4.97-1.41
		c-1.41-1.99-2.89-3.92-4.27-5.93c-4.31-6.31-8.98-12.51-12.37-19.39c-4.69-9.49-1.4-18.39,0.73-27.97
		c0.87-3.94,1.71-8.44-1.96-10.99c-1.98-1.38-5.08-1.59-7.35-1.95c-1.09-0.17-2.14-0.22-3.23-0.28c-3.22-0.2-10.9-0.57-10.05-6.25
		c6.59,1.13,15.06-0.16,18.84-0.74c4.28-0.66,8.4-1.98,12.07-3.98c6.26,3.47,10.68,8.77,12.5,15.95c2.23,8.74,0.5,18.36,0.17,27.24
		C211.5,207.34,212.11,215.42,211.99,223.46"/>
	<path class="st2" d="M212.27,191.92l0-0.02c0.07-0.89,0.14-1.79,0.2-2.69c0,0,0,0.01,0,0.01c0,0.01,0,0.03,0,0.04
		C212.41,190.15,212.34,191.04,212.27,191.92 M210.22,186.35c-1.38-2.11-3.47-4.14-6.47-6.35c-3.44-2.54-6.64-4.58-9.73-6.56
		c-0.24-0.15-0.47-0.31-0.71-0.46c0.07-0.25,0.12-0.49,0.16-0.74c0.42,0.27,0.85,0.53,1.27,0.79c4.68,2.92,9.53,5.95,13.5,9.58
		c0.84,0.77,1.57,1.59,2.19,2.45C210.38,185.5,210.3,185.93,210.22,186.35"/>
	<path class="st2" d="M178.38,163.46c2.65,0,5.29-0.25,7.84-0.76c1.43-0.28,2.88-0.66,4.41-1.06c3.07-0.81,6.25-1.64,9.3-1.64
		c2.31,0,4.29,0.48,6.06,1.46c-0.44-0.48-0.9-0.94-1.37-1.39c-1.33-0.51-2.72-0.75-4.23-0.75c-2.17,0-4.4,0.51-6.76,1.05l-0.36,0.08
		c-4.98,1.13-10.34,2.18-15.86,2.18c-3.2,0-6.23-0.35-9.25-1.06c0,0.24,0.01,0.47,0.04,0.69
		C171.62,163.06,175.04,163.46,178.38,163.46"/>
	<path class="st2" d="M211.69,172.29l-0.01-0.03c-0.02-0.06-0.03-0.13-0.05-0.2c-0.17-0.68-0.37-1.33-0.58-1.97
		c0.01,0.01,0.01,0.01,0.02,0.02c0.21,0.63,0.41,1.28,0.57,1.95C211.65,172.14,211.67,172.21,211.69,172.29 M209.41,169.13
		c-2.87-3.11-6.71-4.53-12.03-4.53c-2.93,0-6.09,0.42-9.14,0.82c-3.14,0.41-6.4,0.84-9.5,0.84h0c-3.99,0-7.15-0.7-9.85-2.21
		c-0.23-0.33-0.42-0.69-0.54-1.09c2.81,1.82,6.18,2.67,10.56,2.67c3.05,0,6.26-0.41,9.37-0.81c3.05-0.39,6.21-0.8,9.15-0.8
		c5.03,0,8.76,1.21,11.63,3.84C209.19,168.29,209.3,168.71,209.41,169.13"/>
	<path class="st2" d="M212.72,184.32l0-0.01c0.02-0.85,0.03-1.71,0.03-2.56c0,0,0,0.01,0,0.02
		C212.76,182.62,212.75,183.47,212.72,184.32 M210.82,178.29c-2.34-5.44-6.12-8.29-14.67-9.02c-1.11-0.09-2.23-0.15-3.34-0.19
		c-0.16-0.24-0.34-0.46-0.54-0.67c4.16,0.13,8.42,0.38,12.41,1.96c2.82,1.12,4.68,3.24,6.01,5.83
		C210.74,176.9,210.79,177.6,210.82,178.29"/>
	<path class="st2" d="M211.42,236.06C211.42,236.06,211.42,236.06,211.42,236.06c0.15-0.17,0.25-0.44,0.28-0.82
		C211.68,235.63,211.58,235.89,211.42,236.06 M207.13,226.64c-0.37-0.05-0.77-0.16-1.21-0.35c-1.56-1.79-3.29-3.5-5.06-5.23
		c-0.57-0.56-1.14-1.12-1.71-1.69c-1.24-1.66-2.47-3.33-3.66-5.03c1.45,1.83,3.11,3.67,5.01,5.54c0.55,0.54,1.08,1.06,1.61,1.58
		C203.92,223.2,205.63,224.86,207.13,226.64 M191.55,208.4c-1.11-1.82-2.16-3.67-3.1-5.57c-0.19-0.6-0.37-1.21-0.54-1.83
		c-0.15-1.21-0.21-2.42-0.19-3.63c0.05,0.04,0.09,0.11,0.11,0.19C188.52,201.46,189.71,205,191.55,208.4"/>
	<path class="st2" d="M211.86,228L211.86,228c0.01-0.43,0.03-0.87,0.04-1.3C211.89,227.14,211.87,227.57,211.86,228 M210.3,224.25
		c-1.99-3.71-5.16-6.45-8.47-9.3c-2.12-1.83-4.31-3.72-6.17-5.89c-3.94-4.61-6.5-9.34-7.79-14.39c0.06-0.65,0.15-1.29,0.24-1.94
		c1.44,7.42,5.51,14,12.79,20.66c0.81,0.74,1.62,1.44,2.4,2.13c2.76,2.41,5.4,4.72,7.25,7.85
		C210.48,223.68,210.4,223.97,210.3,224.25"/>
	<path class="st2" d="M211.9,214.48C211.89,214.48,211.89,214.48,211.9,214.48c-0.02-0.54-0.03-1.08-0.05-1.62c0,0,0,0.01,0.01,0.01
		C211.87,213.41,211.88,213.94,211.9,214.48 M208.98,209.44c-2.12-2.93-4.8-5.56-7.41-8.13c-5.31-5.22-10.78-10.6-11.35-18.38
		c0.2-0.83,0.4-1.67,0.58-2.51l0.06,0.17c-0.46,8.87,5.23,14.46,11.26,20.38c2.24,2.2,4.53,4.45,6.48,6.89
		C208.73,208.4,208.85,208.92,208.98,209.44"/>
	<path class="st2" d="M211.77,199.96c0-0.01,0-0.01,0-0.02c0.01-0.21,0.01-0.41,0.02-0.62c0.02-0.44,0.04-0.89,0.06-1.33
		c0,0,0,0.01,0.01,0.01c-0.02,0.44-0.04,0.88-0.06,1.31C211.79,199.53,211.78,199.74,211.77,199.96 M208.43,193.12
		c-2.45-3.23-5.75-5.69-9.35-8.38l-0.56-0.42c-2.69-2.01-5.31-4.33-6.74-7.66c0.13-0.28,0.26-0.56,0.39-0.84
		c1.65,4.35,5.46,7.08,9.16,9.72c0.92,0.66,1.88,1.34,2.78,2.04c1.8,1.38,3.33,2.9,4.59,4.55
		C208.6,192.46,208.51,192.79,208.43,193.12"/>
	<path class="st2" d="M211.73,207.06c0-0.01,0-0.02-0.01-0.03c-0.01-0.77-0.02-1.54-0.02-2.3c0,0.01,0,0.01,0.01,0.02
		C211.71,205.52,211.72,206.29,211.73,207.06 M207.55,198.63c-2.28-2.96-5.22-5.57-8.53-8.37c-3.33-2.81-6.67-5.92-8.09-10.4
		c0.1-0.47,0.2-0.94,0.29-1.42c1.2,5.4,5.32,8.84,9.31,12.18c0.83,0.69,1.69,1.41,2.51,2.14c1.8,1.59,3.32,3.16,4.59,4.75
		C207.59,197.89,207.57,198.26,207.55,198.63"/>
	<path class="st2" d="M212,221.43L212,221.43c0-0.89-0.01-1.77-0.02-2.65c0,0,0,0.01,0,0.01C211.99,219.67,212,220.55,212,221.43
		 M210.65,217.32c-2.12-4.2-6.14-7.35-10.06-10.42c-2.55-2-5.18-4.07-7.22-6.37c-2.83-3.21-4.45-7.04-4.68-11
		c0.25-1.23,0.54-2.46,0.83-3.69c-1.71,9.87,5.77,15.98,13.01,21.89c0.61,0.5,1.22,1,1.82,1.49c2.14,1.77,4.38,3.84,6.02,6.37
		C210.46,216.16,210.56,216.73,210.65,217.32"/>
	<path class="st3" d="M191.37,177.55c0.08-0.5,0.14-0.99,0.17-1.48c0.08,0.2,0.15,0.4,0.24,0.6
		C191.64,176.96,191.5,177.25,191.37,177.55 M192.17,175.82c-0.26-0.68-0.46-1.39-0.6-2.15c-0.01-0.08-0.05-0.14-0.11-0.19
		c-0.13-0.77-0.36-1.51-0.75-2.18c0.88,0.58,1.75,1.14,2.61,1.68c-0.22,0.81-0.58,1.61-0.94,2.38
		C192.31,175.52,192.23,175.67,192.17,175.82 M193.47,172.25c-1.69-1.06-3.39-2.14-5-3.23c-0.05-0.04-0.11-0.05-0.17-0.05
		c-0.01,0-0.01,0-0.02,0c-0.02-0.01-0.04-0.02-0.07-0.04c0.85,0.04,1.7,0.06,2.53,0.08c0.68,0.02,1.37,0.04,2.06,0.07
		c0.33,0.48,0.56,1.02,0.66,1.6C193.57,171.2,193.56,171.73,193.47,172.25 M192.26,168.42c-0.38-0.01-0.77-0.02-1.15-0.03
		c-1.63-0.05-3.31-0.1-4.97-0.22c-0.38-0.1-0.77-0.18-1.16-0.26c-1.21-0.23-2.43-0.37-3.47-0.53c-0.26-0.04-0.51-0.07-0.76-0.1
		c-0.26-0.03-0.52-0.05-0.78-0.07c-0.56-0.04-1.12-0.08-1.7-0.11c-0.7-0.04-1.62-0.09-2.61-0.21c-1.81-0.21-3.88-0.62-5.38-1.57
		c0.75,0.2,1.53,0.33,2.12,0.42c2.93,0.46,5.89,0.69,8.86,0.69c0.65,0,1.3-0.01,1.94-0.03c0.91-0.03,1.82-0.08,2.73-0.08
		c1.13,0,2.26,0.08,3.34,0.38C190.39,167,191.47,167.59,192.26,168.42"/>
	<path class="st4" d="M193.31,172.99c0.07-0.25,0.12-0.49,0.16-0.74c-1.69-1.06-3.39-2.14-5-3.23c-0.05-0.04-0.11-0.05-0.17-0.05
		c-0.01,0-0.01,0-0.02,0c0.2,0.11,0.4,0.23,0.58,0.36c0.82,0.57,1.42,1.24,1.84,1.98C191.59,171.88,192.46,172.44,193.31,172.99"/>
	<path class="st4" d="M192.81,169.08c-0.16-0.24-0.34-0.46-0.54-0.67c-0.38-0.01-0.77-0.02-1.15-0.03c-1.63-0.05-3.31-0.1-4.97-0.22
		c0.74,0.19,1.45,0.44,2.08,0.77c0.85,0.04,1.7,0.06,2.53,0.08C191.43,169.04,192.12,169.06,192.81,169.08"/>
	<path class="st4" d="M191.78,176.66c0.13-0.28,0.26-0.56,0.39-0.84c-0.26-0.68-0.46-1.39-0.6-2.15c-0.01-0.08-0.05-0.14-0.11-0.19
		c0.14,0.83,0.15,1.7,0.08,2.58C191.61,176.27,191.69,176.47,191.78,176.66"/>
	<path class="st3" d="M210.77,236.42c-1.24,0-3.38-1.77-4.08-2.76c-1.41-1.99-2.92-3.92-4.3-5.93c-4.31-6.31-8.97-12.48-12.36-19.35
		c-1.04-2.11-1.68-4.37-2.03-6.43c0.13,0.26,0.31,0.62,0.44,0.88c1.43,4.45,3.65,8.51,6.63,12.12c1.27,1.54,2.67,3,4.08,4.41
		c0.53,0.71,1.06,1.42,1.59,2.13c1.18,1.58,2.41,3.19,4.08,4.22c0.39,0.24,0.75,0.43,1.1,0.58c2.47,2.85,4.49,5.93,5.51,9.77
		c-0.11,0.12-0.26,0.3-0.42,0.34c-0.04,0.01-0.09,0.02-0.13,0.02 M211.71,234.66c-1.03-3.2-2.63-5.71-4.58-8.02
		c0.14,0.02,0.28,0.03,0.41,0.03c1.4,0,2.26-1.01,2.76-2.41c0.59,1.1,1.07,2.28,1.43,3.57c0.02,0.08,0.07,0.14,0.13,0.18
		c-0.07,2.06-0.15,4.12-0.15,6.18C211.71,234.34,211.71,234.5,211.71,234.66 M211.92,226.25c-0.38-1.04-0.84-2-1.36-2.89
		c0.45-1.92,0.38-4.26,0.13-5.83c-0.01-0.07-0.02-0.15-0.04-0.22c0.59,1.16,1.03,2.4,1.28,3.74l0.07,0.37c0,0.6,0,1.2-0.01,1.79
		c0,0.08,0,0.16,0,0.23C211.97,224.39,211.94,225.32,211.92,226.25 M211.98,218.78c-0.42-1.15-0.97-2.21-1.61-3.2
		c-0.25-1.47-0.52-2.92-0.92-4.39c-0.16-0.58-0.31-1.17-0.46-1.75c1.11,1.54,2.08,3.16,2.8,4.9c0.02,0.05,0.06,0.1,0.1,0.14
		C211.93,215.91,211.96,217.35,211.98,218.78 M195.48,214.33c-1.55-1.96-2.86-3.93-3.94-5.94
		C192.79,210.42,194.11,212.39,195.48,214.33 M211.85,212.86c-0.88-1.77-1.99-3.42-3.24-4.99c-0.7-3.03-1.18-6.14-1.05-9.24
		c1.9,2.46,3.34,5.16,4.17,8.4C211.75,208.98,211.8,210.92,211.85,212.86 M211.7,204.73c-0.91-2.55-2.23-4.91-4.08-7.21
		c0.01-0.12,0.02-0.24,0.04-0.36c0.15-1.37,0.42-2.71,0.77-4.03c1.46,1.93,2.62,4.13,3.34,6.81
		C211.72,201.53,211.7,203.13,211.7,204.73 M211.85,197.99c-0.75-2.13-1.8-4.08-3.16-5.86c0.21-0.76,0.44-1.52,0.67-2.28
		c0.35-1.16,0.64-2.33,0.86-3.5c1.1,1.69,1.74,3.44,2.02,5.38l0.02,0.16C212.11,193.95,211.95,195.98,211.85,197.99 M212.47,189.21
		c-0.44-1.49-1.11-2.87-2.03-4.14c0.34-2.25,0.46-4.52,0.37-6.77c0.7,1.64,1.27,3.51,1.81,5.63l0.1,0.39
		c-0.02,0.79-0.06,1.58-0.1,2.37c-0.04,0.8-0.09,1.61-0.15,2.41C212.47,189.13,212.47,189.17,212.47,189.21 M212.75,181.75
		c-0.54-1.95-1.19-3.85-2.07-5.54c-0.22-2.37-0.65-4.74-1.27-7.08c0.82,0.89,1.57,1.92,2.24,3.1l0.02,0.04
		C212.44,175.34,212.72,178.53,212.75,181.75 M211.04,170.09c-0.61-0.83-1.27-1.57-1.98-2.22c-0.13-0.44-0.26-0.88-0.41-1.31
		c-0.37-1.15-0.78-2.26-1.24-3.33C208.95,165.26,210.17,167.54,211.04,170.09"/>
	<path class="st4" d="M212.27,191.9c0.07-0.89,0.14-1.79,0.2-2.69c-0.44-1.49-1.11-2.87-2.03-4.14c-0.07,0.43-0.14,0.86-0.22,1.29
		c1.1,1.69,1.74,3.44,2.02,5.38L212.27,191.9"/>
	<path class="st4" d="M211.68,172.26c-0.02-0.06-0.03-0.13-0.05-0.2c-0.17-0.68-0.37-1.33-0.58-1.97c-0.61-0.83-1.27-1.57-1.98-2.22
		c0.12,0.42,0.24,0.84,0.35,1.26c0.82,0.89,1.57,1.92,2.24,3.1L211.68,172.26"/>
	<path class="st4" d="M212.72,184.31c0.02-0.85,0.03-1.71,0.03-2.56c-0.54-1.95-1.19-3.85-2.07-5.54c0.06,0.7,0.11,1.39,0.14,2.09
		c0.7,1.64,1.27,3.51,1.81,5.63L212.72,184.31"/>
	<path class="st4" d="M211.42,236.06c-1.01-3.83-3.04-6.92-5.51-9.77c0.44,0.19,0.84,0.3,1.21,0.35c1.95,2.31,3.55,4.82,4.58,8.02
		c0,0.12,0,0.24,0,0.36c0,0.08,0,0.16-0.01,0.23C211.68,235.62,211.58,235.89,211.42,236.06 M199.15,219.36
		c-1.41-1.41-2.81-2.87-4.08-4.41c-2.97-3.61-5.19-7.68-6.63-12.12c0.94,1.9,1.99,3.75,3.1,5.57c1.08,2.01,2.39,3.97,3.94,5.94
		C196.68,216.03,197.91,217.7,199.15,219.36"/>
	<path class="st4" d="M211.85,228c0.02-0.43,0.03-0.87,0.05-1.3c0.01-0.15,0.01-0.3,0.01-0.45c-0.38-1.04-0.84-2-1.36-2.89
		c-0.07,0.31-0.16,0.6-0.25,0.88c0.59,1.1,1.07,2.28,1.43,3.57C211.75,227.9,211.79,227.96,211.85,228"/>
	<path class="st4" d="M211.89,214.47c-0.01-0.54-0.03-1.07-0.04-1.61c-0.88-1.77-1.99-3.42-3.24-4.99c0.12,0.52,0.25,1.05,0.38,1.57
		c1.11,1.54,2.08,3.16,2.8,4.9C211.81,214.39,211.85,214.44,211.89,214.47"/>
	<path class="st4" d="M211.77,199.94c0.01-0.21,0.01-0.41,0.02-0.62c0.02-0.44,0.04-0.89,0.06-1.33c-0.75-2.13-1.8-4.08-3.16-5.86
		c-0.09,0.33-0.18,0.66-0.27,0.99C209.89,195.05,211.04,197.25,211.77,199.94"/>
	<path class="st4" d="M211.72,207.03c-0.01-0.77-0.02-1.54-0.02-2.3c-0.91-2.55-2.23-4.91-4.08-7.21c-0.03,0.37-0.06,0.75-0.07,1.12
		C209.45,201.09,210.89,203.79,211.72,207.03"/>
	<path class="st4" d="M212,221.42c0-0.88-0.01-1.76-0.02-2.64c-0.42-1.15-0.97-2.21-1.61-3.2c0.1,0.57,0.19,1.15,0.28,1.73
		c0.59,1.16,1.03,2.4,1.28,3.74L212,221.42"/>
</g>
</svg>
