<?xml version="1.0" encoding="utf-8"?>
<!-- Generator: Adobe Illustrator 26.0.1, SVG Export Plug-In . SVG Version: 6.00 Build 0)  -->
<svg version="1.1" id="Layer_1" xmlns="http://www.w3.org/2000/svg" xmlns:xlink="http://www.w3.org/1999/xlink" x="0px" y="0px"
	 viewBox="0 0 432 648" style="enable-background:new 0 0 432 648;" xml:space="preserve">
<style type="text/css">
	.st0{display:none;opacity:0.5;fill:none;stroke:#231F20;stroke-width:0.05;stroke-miterlimit:10;}
	.st1{fill:#E92A2A;}
	.st2{fill:#D52626;}
</style>
<path class="st0" d="M418.44,444.92c-2.94,1.51-8.31,5.17-9.04,17.27"/>
<g id="Soleus_00000119118187610177405940000008738910031865360015_">
	<path class="st1" d="M167.16,527.74v0.01c-1.22,4.28-3.28,8.14-6.14,11.49c0.36-0.95,0.73-2.08,1.09-3.45
		c1.7-6.41,0.92-13.32,0.18-19.99l-0.1-0.87c-0.58-3.69-1.28-7.43-1.95-11.06c-3.05-16.41-5.94-31.94-0.14-47.14
		c-1.25,12.47,0.24,24.92,2.21,37.36v0.02v0.06c0.02,0.14,0.05,0.27,0.08,0.41C164.18,505.65,166.3,516.71,167.16,527.74"/>
	<path class="st1" d="M256.11,527.74v0.01c1.22,4.28,3.28,8.14,6.14,11.49c-0.36-0.95-0.73-2.08-1.09-3.45
		c-1.7-6.41-0.92-13.32-0.18-19.99l0.1-0.87c0.58-3.69,1.28-7.43,1.95-11.06c3.05-16.41,5.94-31.94,0.14-47.14
		c1.25,12.47-0.24,24.92-2.21,37.36v0.02v0.06c-0.02,0.14-0.05,0.27-0.08,0.41C259.09,505.65,256.97,516.71,256.11,527.74"/>
	<path class="st2" d="M162.98,536.7c4.01-8.9,1.37-20.14-0.96-30.11c-0.45-1.91-0.87-3.71-1.23-5.44
		c-1.89-9.03-3.59-17.92-3.99-26.86c0.07-2.47,0.27-4.92,0.65-7.35c-0.51,12.12,1.98,24.18,4.4,35.87c0.42,2.01,0.83,4.02,1.23,6.03
		c0.12,0.59,0.24,1.18,0.36,1.78c1.54,7.58,3.25,16.03,1.17,23.45C164.1,534.96,163.56,535.84,162.98,536.7"/>
	<path class="st2" d="M260.3,536.7c-0.58-0.85-1.12-1.73-1.62-2.63c-2.09-7.43-0.37-15.88,1.16-23.47c0.12-0.6,0.24-1.2,0.36-1.78
		c0.4-2.01,0.82-4.02,1.23-6.03c2.41-11.66,4.9-23.69,4.4-35.78c0.37,2.44,0.57,4.89,0.63,7.35c-0.41,8.92-2.11,17.78-3.99,26.77
		c-0.36,1.73-0.78,3.53-1.23,5.44C258.93,516.56,256.29,527.8,260.3,536.7"/>
</g>
</svg>
