<?xml version="1.0" encoding="utf-8"?>
<!-- Generator: Adobe Illustrator 26.0.1, SVG Export Plug-In . SVG Version: 6.00 Build 0)  -->
<svg version="1.1" id="Layer_1" xmlns="http://www.w3.org/2000/svg" xmlns:xlink="http://www.w3.org/1999/xlink" x="0px" y="0px"
	 viewBox="0 0 432 648" style="enable-background:new 0 0 432 648;" xml:space="preserve">
<style type="text/css">
	.st0{display:none;opacity:0.5;fill:none;stroke:#231F20;stroke-width:0.05;stroke-miterlimit:10;}
	.st1{fill:#E92A2A;}
	.st2{fill:#D52626;}
</style>
<path class="st0" d="M418.44,444.92c-2.94,1.51-8.31,5.17-9.04,17.27"/>
<g>
	<path class="st1" d="M237.58,201.96c1.75,0.57,4.43,1.22,7.29,1.58c-1.77-4.03-3.92-7.83-6.46-11.42
		C238.74,195.54,238.43,198.79,237.58,201.96"/>
	<path class="st2" d="M243.29,203.31c-0.25-0.04-0.51-0.09-0.75-0.13c-0.92-2.65-2.26-5.08-4-7.26c0.01-0.34,0.02-0.68,0.02-1.03
		C240.67,197.37,242.26,200.2,243.29,203.31"/>
	<path class="st2" d="M241.47,202.97c-0.29-0.06-0.58-0.12-0.86-0.19c-0.67-1.32-1.46-2.64-2.36-3.93c0.05-0.34,0.1-0.68,0.13-1.02
		C239.57,199.45,240.61,201.18,241.47,202.97"/>
</g>
<g>
	<path class="st1" d="M186.87,201.96c-1.75,0.57-4.43,1.22-7.29,1.58c1.77-4.03,3.92-7.83,6.46-11.42
		C185.72,195.54,186.02,198.79,186.87,201.96"/>
	<path class="st2" d="M181.17,203.31c0.25-0.04,0.51-0.09,0.75-0.13c0.92-2.65,2.26-5.08,4-7.26c-0.01-0.34-0.02-0.68-0.02-1.03
		C183.79,197.37,182.2,200.2,181.17,203.31"/>
	<path class="st2" d="M182.98,202.97c0.29-0.06,0.58-0.12,0.86-0.19c0.67-1.32,1.46-2.64,2.36-3.93c-0.05-0.34-0.1-0.68-0.13-1.02
		C184.89,199.45,183.85,201.18,182.98,202.97"/>
</g>
</svg>
