<?xml version="1.0" encoding="utf-8"?>
<!-- Generator: Adobe Illustrator 26.0.1, SVG Export Plug-In . SVG Version: 6.00 Build 0)  -->
<svg version="1.1" id="Layer_1" xmlns="http://www.w3.org/2000/svg" xmlns:xlink="http://www.w3.org/1999/xlink" x="0px" y="0px"
	 viewBox="0 0 432 648" style="enable-background:new 0 0 432 648;" xml:space="preserve">
<style type="text/css">
	.st0{display:none;opacity:0.5;fill:none;stroke:#231F20;stroke-width:0.05;stroke-miterlimit:10;}
	.st1{fill:#E92A2A;}
	.st2{fill:#D52626;}
	.st3{fill:#9A1A1C;}
	.st4{fill:#8D1819;}
</style>
<path class="st0" d="M418.44,444.92c-2.94,1.51-8.31,5.17-9.04,17.27"/>
<g>
	<path class="st1" d="M229.62,382.63c7.05,18.58-2.14,39.51,2.12,58.69c1.29,2.66,2.77,5.35,4.33,7.8c0.98-3.74,1.76-6.74,1.76-6.74
		l0.07-0.19c3.87-11.86,10.89-21.86,9.65-33.49v-0.01l-0.01-0.02c-1.79-5.55-3.3-11.21-4.4-17c-1.6-8.46-2.78-17.04-3.35-25.65
		c-0.27-4.26-0.7-9.25,0.25-13.67c-3.09-1.06-6.18-2.17-9.31-3.15c-0.97-0.31-1.94-0.64-2.89-0.98
		C231.79,359.59,231.4,371.1,229.62,382.63"/>
	<path class="st2" d="M234.16,445.93c-0.22-0.39-0.44-0.79-0.66-1.19c0,0,0-0.01,0-0.01c0.22,0.4,0.44,0.79,0.66,1.18
		C234.16,445.92,234.16,445.92,234.16,445.93 M234.75,437.71c-0.2-0.19-0.4-0.4-0.59-0.62c0.77-4.28,2.09-8.53,3.45-12.62
		c4.64-13.98,5.93-27.66,3.94-41.81l-0.01-0.1l0.04-0.03c0.46,3.06,0.98,6.11,1.55,9.15c0.02,0.12,0.04,0.23,0.07,0.35
		c0.38,7.4-0.13,14.41-1.56,21.24c-0.8,3.85-2.08,7.78-3.32,11.58C236.95,429.06,235.54,433.38,234.75,437.71"/>
	<path class="st2" d="M233.04,443.9c-0.1-0.2-0.21-0.4-0.31-0.6c-0.23-0.45-0.46-0.9-0.69-1.35c0,0,0,0,0,0
		c0.32,0.64,0.65,1.29,1,1.94C233.04,443.89,233.04,443.89,233.04,443.9 M232.12,433.5c-0.24-0.61-0.44-1.25-0.62-1.9
		c0.1-2.45,0.36-4.91,0.79-7.37c0.56-2.85,1.34-5.69,2.09-8.43c0.59-2.15,1.2-4.37,1.7-6.58c1.61-7.09,1.1-14.59,0.66-21.2
		c-0.56-8.28-1.17-16.68-1.77-24.85c0.23,0.06,0.46,0.15,0.68,0.25c0.64,8.73,1.29,17.69,1.89,26.53
		c0.46,6.84,0.31,12.43-0.46,17.59c-0.47,3.18-1.37,6.32-2.24,9.37c-0.69,2.43-1.41,4.95-1.9,7.46
		C232.42,427.42,232.14,430.46,232.12,433.5"/>
	<path class="st2" d="M235.52,448.23c-0.2-0.33-0.4-0.67-0.61-1c0-0.01,0-0.01,0-0.02c0.2,0.34,0.4,0.67,0.61,1
		C235.52,448.22,235.52,448.22,235.52,448.23 M236.97,438.99c-0.2-0.04-0.4-0.11-0.59-0.18c1.07-3.86,2.56-7.64,4.02-11.34
		c3.08-7.81,6.27-15.89,5.41-24.48c0.26,0.91,0.52,1.82,0.8,2.73c0.02,7.61-2.82,14.81-5.58,21.8
		C239.55,431.26,238.04,435.09,236.97,438.99"/>
	<path class="st3" d="M239.93,368.04c-1.06-1.98-2.53-3.83-4.27-4.63c-0.05-0.72-0.1-1.44-0.16-2.15
		c-0.26-3.59-0.53-7.17-0.79-10.76c1.04,0.35,2.07,0.71,3.11,1.07c0.74,0.26,1.48,0.52,2.22,0.77c-0.95,4.42-0.52,9.4-0.25,13.67
		C239.83,366.69,239.87,367.37,239.93,368.04 M230.85,364.28c-0.13-2.74-0.42-5.48-0.92-8.21c-0.48-2.62-1.15-5.24-2.05-7.85
		c0.94,0.34,1.9,0.67,2.86,0.97c1.1,0.35,2.2,0.71,3.3,1.08c0.27,3.68,0.54,7.36,0.81,11.04c0.04,0.61,0.09,1.23,0.14,1.85
		c-0.36-0.1-0.73-0.15-1.1-0.15c-0.61,0-1.25,0.14-1.91,0.46C231.54,363.67,231.17,363.95,230.85,364.28"/>
	<path class="st4" d="M235.65,363.42c-0.22-0.1-0.45-0.19-0.68-0.25c-0.05-0.62-0.09-1.23-0.14-1.85
		c-0.27-3.68-0.54-7.34-0.81-11.02c0.23,0.08,0.46,0.14,0.69,0.22c0.26,3.59,0.52,7.17,0.79,10.76
		C235.55,361.98,235.6,362.7,235.65,363.42"/>
	<path class="st3" d="M236.08,449.1c-0.19-0.29-0.38-0.59-0.56-0.89c0.07-3.12,0.63-6.19,1.46-9.22c0,0,0.01,0,0.02,0
		c0.21,0.05,0.42,0.07,0.64,0.07c0.52,0,1.04-0.13,1.52-0.39c-0.44,1.16-0.86,2.33-1.25,3.52l-0.07,0.19
		C237.83,442.39,237.06,445.37,236.08,449.1 M234.91,447.21c-0.25-0.43-0.51-0.86-0.75-1.3c-0.16-2.72,0.09-5.46,0.59-8.2
		c0.5,0.48,1.05,0.86,1.63,1.09C235.62,441.57,235.08,444.37,234.91,447.21 M233.5,444.73c-0.15-0.28-0.31-0.57-0.46-0.85
		c-0.64-3.43-0.95-6.9-0.92-10.39c0.35,0.91,0.77,1.77,1.27,2.54c0.24,0.37,0.5,0.72,0.77,1.05
		C233.71,439.63,233.45,442.19,233.5,444.73 M232.05,441.95c-0.04-0.09-0.09-0.18-0.13-0.26c-0.05-0.09-0.09-0.19-0.14-0.28v-0.01
		c-1.17-5.22-1.33-10.58-1.1-15.98c0.01,0.26,0,0.53,0.01,0.79c0.1,1.83,0.36,3.67,0.82,5.39
		C231.36,435.07,231.54,438.53,232.05,441.95"/>
	<path class="st4" d="M234.16,445.91c-0.22-0.39-0.44-0.79-0.66-1.18c-0.05-2.54,0.21-5.1,0.67-7.64c0.19,0.22,0.38,0.43,0.59,0.62
		C234.25,440.45,234,443.19,234.16,445.91"/>
	<path class="st4" d="M233.04,443.88c-0.34-0.64-0.68-1.29-1-1.94c-0.5-3.42-0.68-6.88-0.54-10.35c0.18,0.65,0.38,1.29,0.62,1.9
		C232.1,436.99,232.4,440.46,233.04,443.88"/>
	<path class="st4" d="M235.52,448.21c-0.2-0.33-0.41-0.66-0.61-1c0.16-2.84,0.71-5.65,1.47-8.41c0.19,0.08,0.39,0.14,0.59,0.18
		C236.15,442.02,235.59,445.09,235.52,448.21"/>
</g>
<g>
	<path class="st1" d="M199.02,382.63c-7.05,18.58,2.14,39.51-2.12,58.69c-1.29,2.66-2.77,5.35-4.33,7.8
		c-0.98-3.74-1.76-6.74-1.76-6.74l-0.07-0.19c-3.87-11.86-10.89-21.86-9.65-33.49v-0.01l0.01-0.02c1.79-5.55,3.3-11.21,4.4-17
		c1.6-8.46,2.78-17.04,3.35-25.65c0.27-4.26,0.7-9.25-0.25-13.67c3.09-1.06,6.18-2.17,9.31-3.15c0.97-0.31,1.94-0.64,2.89-0.98
		C196.85,359.59,197.24,371.1,199.02,382.63"/>
	<path class="st2" d="M194.48,445.93c0-0.01,0-0.01,0-0.01c0.22-0.39,0.44-0.79,0.66-1.18c0,0,0,0.01,0,0.01
		C194.92,445.14,194.7,445.54,194.48,445.93 M193.89,437.71c-0.79-4.33-2.2-8.65-3.57-12.88c-1.24-3.8-2.52-7.73-3.32-11.58
		c-1.42-6.83-1.94-13.84-1.56-21.24c0.02-0.12,0.05-0.23,0.07-0.35c0.57-3.04,1.09-6.08,1.55-9.15l0.04,0.03l-0.01,0.1
		c-1.99,14.16-0.71,27.84,3.94,41.81c1.36,4.1,2.69,8.34,3.45,12.62C194.29,437.31,194.09,437.52,193.89,437.71"/>
	<path class="st2" d="M195.6,443.9c0-0.01,0-0.01,0-0.02c0.34-0.64,0.68-1.29,1-1.94c0,0,0,0,0,0c-0.22,0.45-0.45,0.9-0.69,1.35
		C195.81,443.5,195.7,443.7,195.6,443.9 M196.52,433.5c-0.02-3.03-0.3-6.08-0.82-9.13c-0.49-2.51-1.21-5.03-1.9-7.46
		c-0.87-3.04-1.76-6.19-2.24-9.37c-0.77-5.16-0.92-10.75-0.46-17.59c0.59-8.84,1.25-17.81,1.89-26.53c0.22-0.1,0.45-0.19,0.68-0.25
		c-0.6,8.17-1.22,16.57-1.77,24.85c-0.44,6.61-0.95,14.11,0.66,21.2c0.5,2.21,1.11,4.43,1.7,6.58c0.75,2.74,1.53,5.58,2.09,8.43
		c0.42,2.46,0.69,4.92,0.79,7.37C196.96,432.25,196.76,432.88,196.52,433.5"/>
	<path class="st2" d="M193.12,448.23c0-0.01,0-0.01,0-0.02c0.2-0.33,0.41-0.66,0.61-1c0,0.01,0,0.01,0,0.02
		C193.53,447.57,193.33,447.9,193.12,448.23 M191.67,438.99c-1.07-3.9-2.57-7.72-4.06-11.48c-2.76-6.99-5.6-14.19-5.58-21.8
		c0.27-0.91,0.54-1.82,0.8-2.73c-0.86,8.59,2.33,16.67,5.41,24.48c1.46,3.71,2.95,7.49,4.02,11.34
		C192.06,438.88,191.87,438.94,191.67,438.99"/>
	<path class="st3" d="M188.71,368.04c0.05-0.67,0.1-1.35,0.14-2.02c0.27-4.26,0.7-9.24-0.25-13.67c0.74-0.26,1.48-0.51,2.22-0.77
		c1.03-0.36,2.07-0.72,3.11-1.07c-0.26,3.59-0.52,7.17-0.79,10.76c-0.05,0.71-0.1,1.43-0.16,2.15
		C191.24,364.21,189.77,366.07,188.71,368.04 M197.79,364.28c-0.32-0.33-0.69-0.61-1.1-0.81c-0.66-0.32-1.3-0.46-1.91-0.46
		c-0.38,0-0.75,0.05-1.1,0.15c0.05-0.62,0.09-1.23,0.14-1.85c0.27-3.68,0.54-7.36,0.81-11.04c1.09-0.37,2.19-0.73,3.3-1.08
		c0.96-0.3,1.92-0.63,2.86-0.97c-0.9,2.61-1.57,5.22-2.05,7.85C198.22,358.8,197.92,361.54,197.79,364.28"/>
	<path class="st4" d="M192.99,363.42c0.22-0.1,0.45-0.19,0.68-0.25c0.05-0.62,0.09-1.23,0.14-1.85c0.27-3.68,0.54-7.34,0.81-11.02
		c-0.23,0.08-0.46,0.14-0.69,0.22c-0.26,3.59-0.52,7.17-0.79,10.76C193.09,361.98,193.04,362.7,192.99,363.42"/>
	<path class="st3" d="M192.56,449.1c-0.98-3.73-1.75-6.72-1.75-6.72l-0.07-0.19c-0.39-1.19-0.81-2.37-1.25-3.52
		c0.48,0.26,1,0.39,1.52,0.39c0.21,0,0.43-0.02,0.64-0.07c0.01,0,0.01,0,0.02,0c0.83,3.03,1.39,6.1,1.46,9.22
		C192.94,448.51,192.75,448.81,192.56,449.1 M193.73,447.21c-0.16-2.84-0.71-5.65-1.47-8.41c0.58-0.23,1.13-0.61,1.63-1.09
		c0.5,2.74,0.75,5.48,0.59,8.2C194.23,446.35,193.98,446.78,193.73,447.21 M195.14,444.73c0.05-2.54-0.21-5.1-0.67-7.64
		c0.27-0.33,0.53-0.68,0.77-1.05c0.5-0.78,0.92-1.63,1.27-2.54c0.03,3.49-0.28,6.96-0.92,10.39
		C195.45,444.17,195.3,444.45,195.14,444.73 M196.59,441.95c0.5-3.42,0.68-6.88,0.54-10.35c0.46-1.72,0.72-3.56,0.82-5.39
		c0.01-0.26,0-0.53,0.01-0.79c0.23,5.4,0.07,10.76-1.1,15.98v0.01c-0.05,0.09-0.09,0.19-0.14,0.28
		C196.68,441.77,196.64,441.86,196.59,441.95"/>
	<path class="st4" d="M194.48,445.91c0.22-0.39,0.44-0.79,0.66-1.18c0.05-2.54-0.21-5.1-0.67-7.64c-0.19,0.22-0.38,0.43-0.59,0.62
		C194.39,440.45,194.64,443.19,194.48,445.91"/>
	<path class="st4" d="M195.6,443.88c0.34-0.64,0.68-1.29,1-1.94c0.5-3.42,0.68-6.88,0.54-10.35c-0.18,0.65-0.38,1.29-0.62,1.9
		C196.55,436.99,196.24,440.46,195.6,443.88"/>
	<path class="st4" d="M193.12,448.21c0.2-0.33,0.41-0.66,0.61-1c-0.16-2.84-0.71-5.65-1.47-8.41c-0.19,0.08-0.39,0.14-0.59,0.18
		C192.49,442.02,193.05,445.09,193.12,448.21"/>
</g>
</svg>
