<?xml version="1.0" encoding="utf-8"?>
<!-- Generator: Adobe Illustrator 26.0.1, SVG Export Plug-In . SVG Version: 6.00 Build 0)  -->
<svg version="1.1" id="Layer_1" xmlns="http://www.w3.org/2000/svg" xmlns:xlink="http://www.w3.org/1999/xlink" x="0px" y="0px"
	 viewBox="0 0 432 648" style="enable-background:new 0 0 432 648;" xml:space="preserve">
<style type="text/css">
	.st0{display:none;opacity:0.5;fill:none;stroke:#231F20;stroke-width:0.05;stroke-miterlimit:10;}
	.st1{fill:#E92A2A;}
	.st2{fill:#D52626;}
	.st3{fill:#9A1A1C;}
	.st4{fill:#8D1819;}
</style>
<path class="st0" d="M418.44,444.92c-2.94,1.51-8.31,5.17-9.04,17.27"/>
<g>
	<polygon class="st1" points="247.55,265.28 245.85,268.69 241.71,272.92 234.59,278.11 230.59,279.83 230.46,278.94 232.69,269.92 
		236.12,260.77 241.07,251.05 247.68,237.71 247.36,247.81 	"/>
	<path class="st2" d="M234.54,277.8C234.54,277.79,234.54,277.79,234.54,277.8c0.41-0.23,0.81-0.47,1.21-0.73
		c-0.14-0.24-0.25-0.48-0.35-0.74c0.36-0.62,0.72-1.23,1.08-1.85c4.49-7.62,9.1-15.46,10.34-24.28c0,1.19,0,2.41,0,3.61
		c-1.82,7.52-5.84,14.36-9.76,21.03c-0.44,0.74-0.87,1.49-1.31,2.23C235.34,277.33,234.94,277.57,234.54,277.8"/>
	<path class="st3" d="M230.89,279.28c0.02-0.03,0.04-0.07,0.06-0.11c0.17-0.31,0.3-0.71,0.39-1.22c0.99-5.34,2.49-10.07,4.6-15.1
		c2.31-5.56,5.2-10.68,7.91-16.02c0.03-0.05,0.05-0.11,0.08-0.16c0.03-0.06,0.06-0.11,0.08-0.17l0.06-0.06
		c-0.14,7.14-2.2,14.23-5.9,20.33c-1.14,1.89-2.47,3.73-2.98,5.87c-0.29,1.2-0.23,2.54,0.2,3.69c-0.29,0.49-0.57,0.98-0.85,1.47
		C233.38,278.44,232.17,278.95,230.89,279.28"/>
	<path class="st4" d="M234.54,277.79c0.28-0.49,0.57-0.98,0.85-1.47c0.1,0.26,0.21,0.51,0.35,0.74
		C235.35,277.32,234.95,277.56,234.54,277.79"/>
</g>
<g>
	<polygon class="st1" points="176.23,265.28 177.94,268.69 182.07,272.92 189.19,278.11 193.19,279.83 193.32,278.94 191.1,269.92 
		187.67,260.77 182.71,251.05 176.11,237.71 176.42,247.81 	"/>
	<path class="st2" d="M189.25,277.8C189.25,277.79,189.25,277.79,189.25,277.8c-0.41-0.23-0.81-0.47-1.21-0.73
		c0.14-0.24,0.25-0.48,0.35-0.74c-0.36-0.62-0.72-1.23-1.08-1.85c-4.49-7.62-9.1-15.46-10.34-24.28c0,1.19,0,2.41,0,3.61
		c1.82,7.52,5.84,14.36,9.76,21.03c0.44,0.74,0.87,1.49,1.31,2.23C188.44,277.33,188.84,277.57,189.25,277.8"/>
	<path class="st3" d="M192.9,279.28c-0.02-0.03-0.04-0.07-0.06-0.11c-0.17-0.31-0.3-0.71-0.39-1.22c-0.99-5.34-2.49-10.07-4.6-15.1
		c-2.31-5.56-5.2-10.68-7.91-16.02c-0.03-0.05-0.05-0.11-0.08-0.16c-0.03-0.06-0.06-0.11-0.08-0.17l-0.06-0.06
		c0.14,7.14,2.2,14.23,5.9,20.33c1.14,1.89,2.47,3.73,2.98,5.87c0.29,1.2,0.23,2.54-0.2,3.69c0.29,0.49,0.57,0.98,0.85,1.47
		C190.4,278.44,191.61,278.95,192.9,279.28"/>
	<path class="st4" d="M189.25,277.79c-0.28-0.49-0.57-0.98-0.85-1.47c-0.1,0.26-0.21,0.51-0.35,0.74
		C188.44,277.32,188.84,277.56,189.25,277.79"/>
</g>
</svg>
