<?xml version="1.0" encoding="utf-8"?>
<!-- Generator: Adobe Illustrator 26.0.1, SVG Export Plug-In . SVG Version: 6.00 Build 0)  -->
<svg version="1.1" id="Layer_1" xmlns="http://www.w3.org/2000/svg" xmlns:xlink="http://www.w3.org/1999/xlink" x="0px" y="0px"
	 viewBox="0 0 432 648" style="enable-background:new 0 0 432 648;" xml:space="preserve">
<style type="text/css">
	.st0{display:none;opacity:0.5;fill:none;stroke:#231F20;stroke-width:0.05;stroke-miterlimit:10;}
	.st1{fill:#E92A2A;}
	.st2{fill:#D52626;}
	.st3{fill:#9A1A1C;}
	.st4{fill:#8D1819;}
</style>
<path class="st0" d="M418.44,444.92c-2.94,1.51-8.31,5.17-9.04,17.27"/>
<g>
	<path class="st1" d="M248.48,312.69c0,0,3.47,0.87,7.9,6.65c0.19,1.06,0.96,4.05,1.64,7.33s7.42,21.77,7.9,44.63
		c0.32,15.23-0.84,23.94-1.54,33.93c-1.9-7.9-2.89-21.98-5.3-32.2c-2.41-10.22-5.49-20.05-7.23-22.17c-0.1-1.74-0.39-3.57-2.8-10.8
		c-2.41-7.23-5.49-14.36-1.16-23.52C248.48,315.3,249.06,314.82,248.48,312.69z"/>
	<path class="st2" d="M265.03,387.26c-0.94-9.12-4.59-20.57-7.66-29.24c-3.71-10.5-7.52-21.28-7.43-32.48
		c0.22-0.09,0.44-0.17,0.66-0.24c-0.16,11.25,3.67,22.1,7.41,32.67c2.77,7.84,6.11,18.42,7.34,26.64c-0.11,0.92,0.39,3.04,0.29,3.89
		"/>
	<path class="st2" d="M265.98,372.15c-1.02-7.07-3.39-14.18-5.51-20.54c-0.25-0.76-0.5-1.51-0.75-2.24
		c-2.53-7.65-5.04-15.74-6.26-24.37c0.24,0.02,0.48,0.05,0.72,0.1c1.28,8.66,3.92,16.9,6.67,25.5c0.52,1.63,1.05,3.28,1.56,4.93
		c1.38,4.4,2.87,9.39,3.79,14.52C266.12,370.75,266.05,371.46,265.98,372.15"/>
	<path class="st3" d="M257.38,326.4c-0.97-0.64-2.07-1.09-3.21-1.3c-0.38-2.56-0.69-6.15-0.8-8.8c0.3-0.13,0.6,0.28,0.83,0.49
		c0.27,0.24,1.1,0.55,2.08,2.46c1.29,2.49,0.72,4.1,1.45,6.8L257.38,326.4z M245.94,328.83c-1.51-4.37,2.26-12.87,3.05-16.07
		c0.65,0.14,1.51,1.07,2.25,1.64c-0.84,3.66-1.28,8.58-1.3,11.14c-0.9,0.37-1.77,0.84-2.46,1.53
		C247.07,327.48,245.94,328.83,245.94,328.83z M250.61,325.3c0.09-2.7,0.7-7.78,1.18-10.31c0.25,0.18,0.51,0.41,0.87,0.77
		c0.11,2.54,0.41,6.8,0.8,9.24c-0.36-0.03-0.46-0.03-0.68-0.03c-0.63,0-1.26,0.08-1.88,0.25C250.8,325.25,250.7,325.27,250.61,325.3
		"/>
	<path class="st4" d="M249.95,325.54c0.02-2.59,0.46-7.43,1.29-11.11c0.13-0.6,0.44,0.12,0.62,0.1c-0.47,2.53-1.22,8.28-1.26,10.77
		C250.38,325.37,250.16,325.45,249.95,325.54"/>
	<path class="st4" d="M254.17,325.1c-0.24-0.04-0.5-0.07-0.72-0.1c-0.39-2.54-0.69-6.69-0.8-9.23c0.22-0.06,0.39,0.28,0.72,0.64
		C253.49,319.09,253.79,322.52,254.17,325.1"/>
</g>
<g>
	<path class="st1" d="M176.8,312.95c0,0-3.47,0.87-7.9,6.65c-0.19,1.06-0.96,4.05-1.64,7.33c-0.67,3.28-7.42,21.77-7.9,44.63
		c-0.32,15.23,0.84,23.94,1.54,33.93c1.9-7.9,2.89-21.98,5.3-32.2c2.41-10.22,5.49-20.05,7.23-22.17c0.1-1.74,0.39-3.57,2.8-10.8
		c2.41-7.23,5.49-14.36,1.16-23.52C176.8,315.55,176.22,315.07,176.8,312.95z"/>
	<path class="st2" d="M159.64,388.75c-0.1-0.85,0.4-2.97,0.29-3.89c1.23-8.22,4.57-18.8,7.34-26.64
		c3.73-10.56,7.57-21.42,7.41-32.67c0.22,0.07,0.45,0.15,0.66,0.24c0.09,11.19-3.72,21.98-7.43,32.48
		c-3.06,8.68-6.71,20.12-7.66,29.24"/>
	<path class="st2" d="M159.3,372.41c1.02-7.07,3.39-14.18,5.51-20.54c0.25-0.76,0.5-1.51,0.75-2.24c2.53-7.65,5.04-15.74,6.26-24.37
		c-0.24,0.02-0.48,0.05-0.72,0.1c-1.28,8.66-3.92,16.9-6.67,25.5c-0.52,1.63-1.05,3.28-1.56,4.93c-1.38,4.4-2.87,9.39-3.79,14.52
		C159.16,371.01,159.23,371.72,159.3,372.41"/>
	<path class="st3" d="M167.56,326.31c0.73-2.71,0.15-4.31,1.45-6.8c0.99-1.91,1.81-2.21,2.08-2.46c0.23-0.2,0.52-0.61,0.83-0.49
		c-0.11,2.65-0.42,6.24-0.8,8.8c-1.14,0.21-2.24,0.65-3.21,1.3L167.56,326.31z M177.8,327.33c-0.69-0.69-1.57-1.16-2.46-1.53
		c-0.02-2.56-0.46-7.48-1.3-11.14c0.74-0.57,1.6-1.5,2.25-1.64c0.79,3.2,4.56,11.7,3.05,16.07
		C179.34,329.08,178.21,327.74,177.8,327.33z M174.67,325.56c-0.09-0.03-0.19-0.06-0.28-0.08c-0.62-0.17-1.25-0.25-1.88-0.25
		c-0.23,0-0.32,0-0.68,0.03c0.39-2.44,0.69-6.7,0.8-9.24c0.36-0.37,0.62-0.59,0.87-0.77C173.97,317.78,174.58,322.86,174.67,325.56"
		/>
	<path class="st4" d="M175.33,325.8c-0.02-2.59-0.46-7.43-1.29-11.11c-0.13-0.6-0.44,0.12-0.62,0.1c0.47,2.53,1.22,8.28,1.26,10.77
		C174.9,325.63,175.12,325.71,175.33,325.8"/>
	<path class="st4" d="M171.11,325.36c0.24-0.04,0.5-0.07,0.72-0.1c0.39-2.54,0.69-6.69,0.8-9.23c-0.22-0.06-0.39,0.28-0.72,0.64
		C171.79,319.34,171.49,322.77,171.11,325.36"/>
</g>
</svg>
