<?xml version="1.0" encoding="utf-8"?>
<!-- Generator: Adobe Illustrator 26.0.1, SVG Export Plug-In . SVG Version: 6.00 Build 0)  -->
<svg version="1.1" id="Layer_1" xmlns="http://www.w3.org/2000/svg" xmlns:xlink="http://www.w3.org/1999/xlink" x="0px" y="0px"
	 viewBox="0 0 432 648" style="enable-background:new 0 0 432 648;" xml:space="preserve">
<style type="text/css">
	.st0{display:none;opacity:0.5;fill:none;stroke:#231F20;stroke-width:0.05;stroke-miterlimit:10;}
	.st1{fill:#E92A2A;}
	.st2{fill:#D52626;}
	.st3{fill:#9A1A1C;}
	.st4{fill:#8D1819;}
</style>
<path class="st0" d="M418.44,444.92c-2.94,1.51-8.31,5.17-9.04,17.27"/>
<g>
	<path class="st1" d="M242.65,195.4c1.8,2.85,3.36,5.85,4.72,8.98l0.03,0.09c5.18,0.53,10.72-0.1,12.37-4l0.01-0.06
		c1-5.05,1.83-9.38,2.17-11.21c-1.58-1-2.96-2.24-3.9-3.9C253.99,190.16,248.62,193.36,242.65,195.4"/>
	<path class="st2" d="M250.46,198.07c-2.18,0-4.39-0.22-6.58-0.64c-0.07-0.11-0.13-0.23-0.2-0.34c0.31-0.06,0.62-0.12,0.92-0.2
		c1.96,0.35,3.93,0.52,5.87,0.52c2.27,0,4.55-0.24,6.8-0.71c0.02,0.23,0.03,0.45,0.01,0.68
		C255.03,197.84,252.75,198.07,250.46,198.07"/>
	<path class="st2" d="M249.85,194.33c0.42-0.29,0.84-0.57,1.28-0.82c1.14-0.14,2.27-0.31,3.4-0.54c0.34,0.11,0.66,0.29,0.95,0.5
		C253.63,193.89,251.76,194.17,249.85,194.33"/>
	<path class="st2" d="M251.78,201.55c-2.05,0-4.11-0.29-6.13-0.85c-0.14-0.27-0.27-0.54-0.41-0.8c2.14,0.66,4.33,0.99,6.52,0.99
		c1.44,0,2.89-0.14,4.32-0.43c-0.21,0.28-0.44,0.54-0.69,0.79C254.2,201.45,252.99,201.55,251.78,201.55"/>
	<path class="st3" d="M248.25,204.47c1.91-0.15,3.77-0.9,5.43-1.88c0.62-0.37,1.21-0.82,1.72-1.33c1.49-0.24,2.98-0.64,4.44-1.18
		c-0.02,0.11-0.04,0.23-0.07,0.34l-0.01,0.06c-0.92,2.17-2.61,3.06-5.52,3.73c-1.11,0.25-2.68,0.35-3.91,0.35L248.25,204.47
		 M256.09,200.46c0.67-0.9,1.12-1.93,1.21-3.05c0-0.01,0-0.03,0-0.04c1.08-0.22,2.16-0.5,3.24-0.83c-0.17,0.88-0.35,1.81-0.54,2.77
		C258.7,199.82,257.4,200.2,256.09,200.46 M244.61,196.89c-0.39-0.07-0.78-0.14-1.18-0.23c-0.25-0.42-0.51-0.84-0.77-1.26
		c0.83-0.28,1.64-0.59,2.45-0.92c0.31,0.01,0.61,0.01,0.92,0.01c1.29,0,2.56-0.05,3.82-0.16c-0.39,0.27-0.77,0.54-1.16,0.79
		C247.44,195.93,246.05,196.52,244.61,196.89 M257.28,196.69c-0.13-1.26-0.81-2.49-1.8-3.21c2.01-0.44,4-1.04,5.99-1.78
		c-0.22,1.15-0.49,2.55-0.79,4.1C259.55,196.16,258.42,196.45,257.28,196.69 M246.66,193.81c1.51-0.69,2.96-1.47,4.35-2.36
		c0.26-0.16,0.52-0.33,0.77-0.51l0.02,0c3.05-0.43,5.98-1.36,8.71-2.77c0.45,0.37,0.93,0.71,1.43,1.03
		c-0.08,0.44-0.19,1.02-0.33,1.73c-2.31,0.89-4.68,1.57-7.09,2.05c-0.29-0.1-0.59-0.15-0.9-0.17c-0.05,0-0.1,0-0.14,0
		c-0.84,0-1.61,0.29-2.36,0.71C249.65,193.69,248.16,193.79,246.66,193.81 M253.01,190.07c1.62-1.21,3.12-2.57,4.48-4.12
		c0.19-0.21,0.37-0.42,0.55-0.64c0.52,0.91,1.17,1.7,1.92,2.39C257.77,188.81,255.44,189.61,253.01,190.07"/>
	<path class="st4" d="M257.3,197.37c0.01-0.23,0.01-0.45-0.01-0.68c1.14-0.24,2.27-0.54,3.39-0.89c-0.05,0.24-0.1,0.49-0.14,0.74
		C259.46,196.87,258.38,197.15,257.3,197.37 M243.68,197.09c-0.08-0.14-0.17-0.29-0.25-0.43c0.39,0.08,0.78,0.16,1.18,0.23
		C244.3,196.96,243.99,197.03,243.68,197.09"/>
	<path class="st4" d="M246.03,194.49c-0.31,0-0.61,0-0.92-0.01c0.52-0.21,1.04-0.44,1.55-0.67c1.5-0.02,2.99-0.12,4.47-0.3
		c-0.44,0.24-0.86,0.53-1.28,0.82C248.59,194.44,247.32,194.49,246.03,194.49 M255.48,193.48c-0.29-0.21-0.61-0.38-0.95-0.5
		c2.41-0.48,4.77-1.16,7.09-2.05c-0.05,0.24-0.09,0.5-0.15,0.77C259.48,192.44,257.49,193.03,255.48,193.48"/>
	<path class="st4" d="M255.4,201.25c0.25-0.25,0.48-0.51,0.69-0.79c1.32-0.26,2.62-0.64,3.9-1.15c-0.05,0.25-0.1,0.5-0.15,0.76
		C258.38,200.62,256.89,201.01,255.4,201.25"/>
	<path class="st4" d="M251.78,190.95c0.42-0.28,0.83-0.57,1.23-0.88c2.43-0.46,4.76-1.26,6.95-2.37c0.18,0.16,0.36,0.32,0.54,0.47
		c-2.73,1.41-5.66,2.35-8.71,2.77L251.78,190.95"/>
</g>
<g>
	<path class="st1" d="M185.09,195.4c-1.8,2.85-3.36,5.85-4.72,8.98l-0.03,0.09c-5.18,0.53-10.72-0.1-12.37-4l-0.01-0.06
		c-1-5.05-1.83-9.38-2.17-11.21c1.58-1,2.96-2.24,3.9-3.9C173.75,190.16,179.12,193.36,185.09,195.4"/>
	<path class="st2" d="M177.28,198.07c2.18,0,4.39-0.22,6.58-0.64c0.07-0.11,0.13-0.23,0.2-0.34c-0.31-0.06-0.62-0.12-0.92-0.2
		c-1.96,0.35-3.93,0.52-5.87,0.52c-2.27,0-4.55-0.24-6.8-0.71c-0.02,0.23-0.03,0.45-0.01,0.68
		C172.71,197.84,174.99,198.07,177.28,198.07"/>
	<path class="st2" d="M177.89,194.33c-0.42-0.29-0.84-0.57-1.28-0.82c-1.14-0.14-2.27-0.31-3.4-0.54c-0.34,0.11-0.66,0.29-0.95,0.5
		C174.11,193.89,175.98,194.17,177.89,194.33"/>
	<path class="st2" d="M175.96,201.55c2.05,0,4.11-0.29,6.13-0.85c0.14-0.27,0.27-0.54,0.41-0.8c-2.14,0.66-4.33,0.99-6.52,0.99
		c-1.44,0-2.89-0.14-4.32-0.43c0.21,0.28,0.44,0.54,0.69,0.79C173.54,201.45,174.75,201.55,175.96,201.55"/>
	<path class="st3" d="M179.49,204.47l-2.07,0.08c-1.23,0-2.81-0.1-3.91-0.35c-2.91-0.67-4.6-1.56-5.52-3.73l-0.01-0.06
		c-0.02-0.11-0.04-0.23-0.07-0.34c1.46,0.54,2.94,0.94,4.44,1.18c0.51,0.52,1.1,0.97,1.72,1.33
		C175.72,203.57,177.58,204.31,179.49,204.47 M171.65,200.46c-1.32-0.26-2.62-0.64-3.9-1.15c-0.19-0.96-0.37-1.89-0.54-2.77
		c1.07,0.33,2.15,0.61,3.24,0.83c0,0.01,0,0.03,0,0.04C170.53,198.53,170.98,199.57,171.65,200.46 M183.13,196.89
		c-1.44-0.36-2.83-0.95-4.08-1.76c-0.39-0.25-0.77-0.52-1.16-0.79c1.26,0.11,2.53,0.16,3.82,0.16c0.31,0,0.61,0,0.92-0.01
		c0.8,0.33,1.62,0.63,2.45,0.92c-0.26,0.42-0.52,0.84-0.77,1.26C183.92,196.74,183.53,196.82,183.13,196.89 M170.46,196.69
		c-1.14-0.24-2.27-0.54-3.39-0.89c-0.3-1.56-0.57-2.95-0.79-4.1c1.98,0.74,3.97,1.34,5.99,1.78
		C171.27,194.2,170.58,195.43,170.46,196.69 M181.08,193.81c-1.5-0.02-2.99-0.12-4.47-0.3c-0.74-0.41-1.52-0.71-2.36-0.71
		c-0.05,0-0.1,0-0.14,0c-0.31,0.01-0.61,0.07-0.9,0.17c-2.41-0.48-4.77-1.16-7.09-2.05c-0.13-0.7-0.24-1.29-0.33-1.73
		c0.5-0.32,0.98-0.66,1.43-1.03c2.73,1.41,5.66,2.35,8.71,2.77l0.02,0c0.26,0.17,0.51,0.34,0.77,0.51
		C178.12,192.34,179.57,193.12,181.08,193.81 M174.73,190.07c-2.43-0.46-4.76-1.26-6.95-2.37c0.74-0.69,1.4-1.47,1.92-2.39
		c0.18,0.22,0.36,0.43,0.55,0.64C171.61,187.5,173.11,188.87,174.73,190.07"/>
	<path class="st4" d="M170.44,197.37c-1.08-0.22-2.16-0.5-3.24-0.83c-0.05-0.25-0.1-0.5-0.14-0.74c1.12,0.36,2.26,0.66,3.39,0.89
		C170.44,196.92,170.43,197.14,170.44,197.37 M184.06,197.09c-0.31-0.06-0.62-0.12-0.92-0.2c0.39-0.07,0.78-0.14,1.18-0.23
		C184.22,196.8,184.14,196.94,184.06,197.09"/>
	<path class="st4" d="M181.71,194.49c-1.29,0-2.56-0.05-3.82-0.16c-0.42-0.29-0.84-0.57-1.28-0.82c1.48,0.17,2.97,0.27,4.47,0.3
		c0.51,0.23,1.02,0.46,1.55,0.67C182.32,194.49,182.01,194.49,181.71,194.49 M172.26,193.48c-2.01-0.44-4-1.04-5.99-1.78
		c-0.05-0.27-0.1-0.53-0.15-0.77c2.31,0.89,4.68,1.57,7.09,2.05C172.87,193.1,172.55,193.27,172.26,193.48"/>
	<path class="st4" d="M172.34,201.25c-0.25-0.25-0.48-0.51-0.69-0.79c-1.32-0.26-2.62-0.64-3.9-1.15c0.05,0.25,0.1,0.5,0.15,0.76
		C169.36,200.62,170.85,201.01,172.34,201.25"/>
	<path class="st4" d="M175.96,190.95c-0.42-0.28-0.83-0.57-1.23-0.88c-2.43-0.46-4.76-1.26-6.95-2.37
		c-0.18,0.16-0.36,0.32-0.54,0.47c2.73,1.41,5.66,2.35,8.71,2.77L175.96,190.95"/>
</g>
</svg>
