<?xml version="1.0" encoding="utf-8"?>
<!-- Generator: Adobe Illustrator 26.0.1, SVG Export Plug-In . SVG Version: 6.00 Build 0)  -->
<svg version="1.1" id="Layer_1" xmlns="http://www.w3.org/2000/svg" xmlns:xlink="http://www.w3.org/1999/xlink" x="0px" y="0px"
	 viewBox="0 0 432 648" style="enable-background:new 0 0 432 648;" xml:space="preserve">
<style type="text/css">
	.st0{display:none;opacity:0.5;fill:none;stroke:#231F20;stroke-width:0.05;stroke-miterlimit:10;}
	.st1{fill:#E92A2A;}
	.st2{fill:#D52626;}
</style>
<path class="st0" d="M418.44,444.92c-2.94,1.51-8.31,5.17-9.04,17.27"/>
<path class="st1" d="M211.3,130.7c-0.13,5.88-0.52,10.25-4.08,15.18c-3.63,5.02-6.15,8.02-12.04,10.4
	c-5.53,2.25-29.54,7.6-34.98-0.35c0.55-0.33,1.06-0.8,1.71-1.39c1.35-1.23,3.39-3.08,7.75-5.61c2.54-1.48,6.35-3.23,10.39-5.07
	c6.4-2.92,13.02-5.96,14.89-8.14c4.31-3.49,7.03-8.71,9.44-13.64c0.52-1.08,1.01-2.18,1.55-3.26c0.58-1.15,1.54-2.39,2.8-2.88
	c1.16-0.44,2.36,0.56,2.46,1.7c0.16,0.99,0.24,1.98,0.24,2.99C211.54,123.96,211.37,127.35,211.3,130.7"/>
<path class="st1" d="M213.79,130.7c0.12,5.88,0.52,10.25,4.08,15.18c3.63,5.02,6.15,8.02,12.04,10.4c5.53,2.25,29.54,7.6,34.98-0.35
	c-0.55-0.33-1.06-0.8-1.71-1.39c-1.35-1.23-3.39-3.08-7.75-5.61c-2.54-1.48-6.35-3.23-10.39-5.07c-6.4-2.92-13.02-5.96-14.89-8.14
	c-4.31-3.49-7.03-8.71-9.44-13.64c-0.52-1.08-1.01-2.18-1.55-3.26c-0.58-1.15-1.54-2.39-2.8-2.88c-1.16-0.44-2.36,0.56-2.46,1.7
	c-0.16,0.99-0.24,1.98-0.24,2.99C213.55,123.96,213.72,127.35,213.79,130.7"/>
<path class="st2" d="M192.25,137.88l0.11-0.16c1.09-0.68,1.95-1.32,2.48-1.9c1.49-0.66,3.05-1.24,4.58-1.8
	c5.15-1.9,10.02-3.7,12.01-8.46c-0.01,0.53-0.03,1.06-0.04,1.59c-2.39,4-7.12,5.75-11.7,7.45c-2.32,0.86-4.71,1.75-6.79,2.92
	L192.25,137.88"/>
<path class="st2" d="M198.06,132.62c0.56-0.67,1.08-1.36,1.58-2.08c0.89-0.64,1.8-1.25,2.7-1.85c3.91-2.61,7.6-5.07,8.97-9.61
	c0.01-0.04,0.03-0.08,0.06-0.11c0.05,0.54,0.07,1.09,0.07,1.64c0,0.01,0,0.02,0,0.03c-1.71,3.87-5.24,6.24-8.67,8.53
	C201.17,130.25,199.51,131.36,198.06,132.62"/>
<path class="st2" d="M201.42,127.74c0.54-0.93,1.05-1.87,1.54-2.82l2.75-3.22c0.29-0.35,0.63-0.7,0.98-1.07
	c1.33-1.41,2.84-3,2.85-4.8c0.24,0.03,0.46,0.12,0.66,0.24c-0.09,1.63-1.2,2.87-2.27,4.07c-0.18,0.21-0.37,0.42-0.55,0.62
	l-5.96,6.97L201.42,127.74"/>
<path class="st2" d="M174.67,146.35c1.15-0.55,2.38-1.12,3.64-1.7c2.8-0.68,5.72-1.16,8.57-1.64c10.43-1.73,20.28-3.37,24.44-13.24
	l0-0.01c-0.01,0.31-0.01,0.62-0.02,0.93c0,0.25-0.01,0.5-0.02,0.74c-4.61,8.89-14.56,10.55-24.19,12.16
	C182.88,144.3,178.56,145.03,174.67,146.35"/>
<path class="st2" d="M164.7,152.19c0.7-0.53,1.52-1.11,2.49-1.75c4.05-1.35,8.46-1.84,12.74-2.32c1.87-0.21,3.8-0.42,5.63-0.7
	l0.6-0.09c9.32-1.43,20.85-3.21,24.94-12.39c-0.06,0.67-0.13,1.32-0.23,1.97c-5.12,8.9-16.58,10.19-27.68,11.44
	C176.66,149.07,169.91,149.83,164.7,152.19"/>
<path class="st2" d="M176.28,155.55L176.28,155.55c-1.35,0-2.74-0.03-4.27-0.09c-1.07-0.04-2.19-0.13-3.28-0.21
	c-1.59-0.12-3.23-0.24-4.83-0.24c-0.97,0-1.85,0.05-2.67,0.14c0.21-0.19,0.44-0.39,0.68-0.61c0.02-0.02,0.04-0.04,0.07-0.06
	c1-0.09,2.1-0.13,3.33-0.13c2.09,0,4.29,0.12,6.41,0.24c2.05,0.11,4.18,0.23,6.12,0.23c0.83,0,1.58-0.02,2.28-0.06
	c11.38-0.7,20.01-3.49,27.03-8.77c-0.43,0.6-0.85,1.17-1.26,1.71c-5.43,3.64-11.9,6-19.65,7.18
	C183.25,155.32,179.99,155.55,176.28,155.55"/>
<path class="st2" d="M232.86,137.88l-0.66-0.37c-2.08-1.17-4.47-2.06-6.79-2.91c-4.58-1.7-9.31-3.45-11.7-7.45
	c-0.01-0.53-0.03-1.06-0.04-1.59c1.99,4.76,6.86,6.56,12.01,8.46c1.52,0.56,3.08,1.14,4.57,1.8c0.54,0.58,1.4,1.23,2.5,1.91
	L232.86,137.88"/>
<path class="st2" d="M227.04,132.61c-1.45-1.25-3.1-2.36-4.71-3.43c-3.43-2.3-6.96-4.66-8.67-8.54c0-0.01,0-0.02,0-0.03
	c0-0.55,0.03-1.1,0.08-1.64c0.03,0.03,0.05,0.07,0.06,0.11c1.37,4.54,5.06,7,8.97,9.61c0.89,0.6,1.81,1.2,2.69,1.84
	C225.96,131.25,226.48,131.94,227.04,132.61"/>
<path class="st2" d="M223.68,127.74L223.68,127.74l-5.97-6.97c-0.18-0.21-0.36-0.41-0.55-0.62c-1.07-1.2-2.17-2.44-2.27-4.07
	c0.2-0.12,0.43-0.21,0.66-0.24c0.01,1.79,1.52,3.39,2.85,4.8c0.35,0.37,0.69,0.73,0.98,1.07l2.73,3.19
	C222.62,125.85,223.14,126.8,223.68,127.74"/>
<path class="st2" d="M250.44,146.35c-3.89-1.32-8.21-2.05-12.43-2.75c-9.63-1.61-19.58-3.27-24.19-12.16
	c-0.01-0.24-0.01-0.49-0.02-0.74c-0.01-0.31-0.01-0.62-0.02-0.93l0,0.01c4.15,9.87,14.01,11.51,24.44,13.24
	c2.86,0.47,5.77,0.96,8.57,1.63C248.06,145.23,249.28,145.8,250.44,146.35"/>
<path class="st2" d="M260.39,152.18c-5.21-2.35-11.95-3.1-18.48-3.84c-11.1-1.25-22.57-2.54-27.69-11.45
	c-0.1-0.64-0.17-1.29-0.23-1.96c4.09,9.19,15.62,10.96,24.94,12.39l0.6,0.09c1.83,0.28,3.76,0.5,5.63,0.7
	c4.28,0.48,8.68,0.96,12.72,2.31C258.87,151.07,259.69,151.65,260.39,152.18"/>
<path class="st2" d="M248.83,155.55c-3.71,0-6.97-0.22-9.97-0.68c-7.76-1.18-14.22-3.54-19.65-7.18c-0.41-0.54-0.83-1.11-1.26-1.71
	c7.02,5.28,15.65,8.08,27.04,8.77c0.7,0.04,1.44,0.06,2.28,0.06c1.94,0,4.06-0.12,6.12-0.23c2.13-0.12,4.33-0.24,6.41-0.24
	c1.22,0,2.32,0.04,3.32,0.13c0.02,0.02,0.05,0.04,0.07,0.06c0.24,0.22,0.47,0.43,0.68,0.61c-0.82-0.09-1.7-0.14-2.66-0.14
	c-1.6,0-3.25,0.12-4.83,0.24c-1.08,0.08-2.2,0.17-3.27,0.21C251.57,155.52,250.18,155.55,248.83,155.55"/>
</svg>
