<?xml version="1.0" encoding="utf-8"?>
<!-- Generator: Adobe Illustrator 26.0.1, SVG Export Plug-In . SVG Version: 6.00 Build 0)  -->
<svg version="1.1" id="Layer_1" xmlns="http://www.w3.org/2000/svg" xmlns:xlink="http://www.w3.org/1999/xlink" x="0px" y="0px"
	 viewBox="0 0 432 648" style="enable-background:new 0 0 432 648;" xml:space="preserve">
<style type="text/css">
	.st0{display:none;opacity:0.5;fill:none;stroke:#231F20;stroke-width:0.05;stroke-miterlimit:10;}
	.st1{fill:#E92A2A;}
	.st2{fill:#D52626;}
	.st3{fill:#9A1A1C;}
	.st4{fill:#8D1819;}
</style>
<path class="st0" d="M418.44,444.92c-2.94,1.51-8.31,5.17-9.04,17.27"/>
<g>
	<path class="st1" d="M256.3,214.57v0.01c0.89,2.68,4.36,10.39,7.11,14.75c2.1,3.34,3.6,9.15,4.37,12.67
		c1.78,3.61,4.22,6.51,8.81,8.05c0.53,0.18,1.09,0.34,1.65,0.49c-3.96-6.89-6.07-14.34-8.62-21.92c-0.33-0.99-3.62-9.66,0.39-9.23
		c3.87,0.42,6.05,6.98,7.36,9.89c3.07,6.86,5.02,14,5.69,21.47c1.09-0.61,1.78-1.86,2.52-3.52c1.62-3.64,3.22-8.62,4.37-12.77
		c-0.23-3.74-0.9-13.43-1.88-18.27c-1.24-6.02-3.56-11.76-3.59-11.82l-0.08-0.19l0.03-0.07c-5.38-5.43-11-9.32-18.77-12.07
		c-1.52-0.53-3.04-1.14-4.44-1.9C260.47,194.04,258.21,205.73,256.3,214.57"/>
	<path class="st2" d="M279.57,234.81c-0.14-0.39-0.28-0.78-0.42-1.16c2.71-12.01,1.64-24.24-3.07-35.54
		c0.26,0.02,0.51,0.05,0.76,0.09c4.78,11.66,5.72,24.27,2.73,36.6L279.57,234.81 M276.55,197.49c-0.34-0.23-0.68-0.46-1.03-0.68
		c0-0.01-0.01-0.01-0.01-0.02c0.35,0.22,0.69,0.45,1.03,0.68C276.55,197.48,276.55,197.48,276.55,197.49"/>
	<path class="st2" d="M282.55,246.59c4.07-9.48,5.97-19.43,5.66-29.62c-0.05-0.28-0.1-0.54-0.15-0.79
		c-0.22-1.06-0.47-2.12-0.74-3.13c0.97,11.12-0.7,21.98-4.97,32.33C282.42,245.78,282.49,246.18,282.55,246.59"/>
	<path class="st2" d="M276.14,246.52c-0.26-0.55-0.51-1.11-0.76-1.67c-3.6-3.62-6.98-7.48-10.06-11.5c0.24,0.63,0.46,1.28,0.68,1.93
		C269.1,239.2,272.51,242.97,276.14,246.52"/>
	<path class="st2" d="M272.38,236.96c-3.71-3.89-7.09-8.04-10.13-12.42c-0.1-0.52-0.19-1.04-0.26-1.56
		c2.96,4.41,6.27,8.58,9.89,12.49C272.04,235.97,272.21,236.47,272.38,236.96 M256.3,214.58v-0.01c0.06-0.27,0.11-0.53,0.17-0.8
		c0,0,0,0,0,0C256.42,214.04,256.36,214.31,256.3,214.58"/>
	<path class="st2" d="M280.98,239.3c4.19-11.71,4.96-24.27,2.24-36.38c-0.29-0.28-0.58-0.55-0.88-0.83
		c2.93,12.15,2.36,24.29-1.68,36.1C280.77,238.56,280.88,238.93,280.98,239.3"/>
	<path class="st2" d="M269.22,219.44c0.04-0.01,0.09-0.02,0.14-0.03c0.11-0.02,0.24-0.03,0.37-0.03c0.05,0,0.1,0,0.16,0.01
		c-0.07-5.97-0.95-11.84-2.64-17.55c-0.18,0.19-0.35,0.38-0.52,0.57C268.32,207.94,269.16,213.64,269.22,219.44"/>
	<path class="st2" d="M268.17,220.64c0.08-0.3,0.21-0.57,0.38-0.77c-1.98-3.91-3.67-7.95-5.06-12.09c-0.13,0.33-0.26,0.66-0.38,0.99
		C264.52,212.83,266.2,216.8,268.17,220.64"/>
	<path class="st2" d="M273.43,221.59c0.09-7.52-0.97-14.94-3.16-22.15c-0.2,0.11-0.39,0.23-0.58,0.35c2.06,6.85,3.1,13.9,3.08,21.06
		C273,221.08,273.22,221.33,273.43,221.59"/>
	<path class="st2" d="M276.4,227.01c-0.17-0.4-0.35-0.81-0.54-1.24c0.87-9.23-0.42-18.52-3.73-27.17c0.21-0.07,0.43-0.14,0.64-0.19
		c3.47,9.09,4.72,18.86,3.64,28.55L276.4,227.01 M271.02,194.28c-0.32-0.15-0.64-0.31-0.96-0.46c0,0,0,0,0,0
		C270.38,193.97,270.7,194.12,271.02,194.28C271.02,194.27,271.02,194.28,271.02,194.28"/>
	<path class="st2" d="M269.7,228.86c-0.03-0.08-0.05-0.16-0.08-0.24c-0.08-0.23-0.31-0.87-0.58-1.7c-2.88-3.9-5.3-8.08-7.24-12.51
		c-0.05,0.44-0.09,0.88-0.12,1.32C263.82,220.4,266.5,224.79,269.7,228.86"/>
	<path class="st3" d="M263.44,229.38c-0.01-0.02-0.02-0.03-0.03-0.05l0,0c-0.94-1.49-1.96-3.36-2.93-5.29
		c-1.64-3.26-3.15-6.68-3.9-8.67c1.73,3.16,3.62,6.22,5.67,9.18C262.56,226.17,262.97,227.78,263.44,229.38 M261.99,222.98
		c-1.99-2.97-3.84-6.04-5.51-9.21c0.41-1.93,0.84-3.97,1.26-6.03c0.12-0.6,0.24-1.2,0.37-1.79c0.95,3.38,2.14,6.64,3.58,9.78
		c-0.14,1.97-0.09,3.96,0.13,5.93C261.86,222.1,261.92,222.54,261.99,222.98 M261.81,214.41c-1.39-3.17-2.53-6.47-3.42-9.89
		c0.54-2.68,1.06-5.29,1.51-7.59c0.81,4.02,1.88,7.97,3.21,11.83C262.46,210.59,262.04,212.49,261.81,214.41 M263.49,207.78
		c-1.38-4.1-2.46-8.31-3.25-12.6c0.22-1.13,0.42-2.16,0.59-3.04c0.15-0.79,0.28-1.47,0.39-2c0.15,0.08,0.29,0.15,0.44,0.23
		c0.13,0.06,0.25,0.13,0.38,0.19c1.96,3.85,3.52,7.8,4.68,11.83c-0.84,0.97-1.56,2.03-2.16,3.13
		C264.17,206.26,263.81,207.01,263.49,207.78 M267.25,201.82c-1.08-3.67-2.5-7.29-4.24-10.82c0.87,0.38,1.76,0.71,2.65,1.03
		c0.49,0.17,0.97,0.35,1.44,0.53c0.99,2.38,1.86,4.79,2.59,7.23C268.8,200.37,267.98,201.06,267.25,201.82 M270.27,199.44
		c-0.67-2.2-1.44-4.38-2.32-6.54c0.33,0.13,0.66,0.27,0.98,0.41c0.38,0.17,0.76,0.34,1.14,0.51c0.76,1.57,1.45,3.16,2.07,4.78
		c-0.11,0.04-0.22,0.08-0.32,0.12C271.27,198.92,270.76,199.16,270.27,199.44 M277.86,198.41c-0.33-0.09-0.67-0.16-1.01-0.21
		c-0.1-0.24-0.19-0.47-0.29-0.7C277,197.79,277.43,198.09,277.86,198.41 M272.77,198.4c-0.53-1.39-1.11-2.77-1.75-4.13
		c1.58,0.78,3.08,1.62,4.51,2.54c0.19,0.43,0.38,0.86,0.56,1.29c-0.25-0.02-0.51-0.03-0.76-0.03
		C274.46,198.08,273.6,198.19,272.77,198.4"/>
	<path class="st4" d="M262.25,224.54c-0.1-0.52-0.19-1.04-0.26-1.56c-1.99-2.97-3.84-6.04-5.51-9.21c-0.06,0.27-0.12,0.54-0.17,0.81
		v0c0.07,0.23,0.17,0.49,0.28,0.78C258.31,218.52,260.2,221.58,262.25,224.54"/>
	<path class="st4" d="M266.73,202.4c0.17-0.2,0.34-0.39,0.52-0.57c-1.08-3.67-2.5-7.29-4.24-10.82c-0.32-0.14-0.64-0.29-0.96-0.44
		C264.01,194.42,265.57,198.37,266.73,202.4"/>
	<path class="st4" d="M263.12,208.77c0.12-0.33,0.25-0.66,0.38-0.99c-1.38-4.1-2.46-8.31-3.25-12.6c-0.11,0.56-0.22,1.14-0.34,1.75
		C260.71,200.95,261.79,204.91,263.12,208.77"/>
	<path class="st4" d="M269.69,199.79c0.19-0.12,0.38-0.24,0.58-0.35c-0.67-2.2-1.44-4.38-2.32-6.54c-0.28-0.11-0.56-0.23-0.85-0.34
		C268.09,194.95,268.96,197.35,269.69,199.79"/>
	<path class="st4" d="M272.13,198.6c0.21-0.07,0.43-0.14,0.64-0.19c-0.53-1.39-1.11-2.77-1.75-4.13c-0.32-0.15-0.64-0.31-0.96-0.46
		C270.82,195.39,271.51,196.98,272.13,198.6"/>
	<path class="st4" d="M261.68,215.73c0.03-0.44,0.07-0.88,0.12-1.32c-1.39-3.17-2.53-6.47-3.42-9.89c-0.1,0.47-0.19,0.95-0.29,1.43
		C259.05,209.33,260.24,212.59,261.68,215.73"/>
	<path class="st4" d="M276.86,198.19c-0.1-0.23-0.19-0.47-0.29-0.7c-0.34-0.23-0.68-0.46-1.03-0.68c0.19,0.43,0.38,0.86,0.56,1.29
		C276.35,198.12,276.61,198.15,276.86,198.19"/>
</g>
<g>
	<path class="st1" d="M168.18,214.57v0.01c-0.89,2.68-4.36,10.39-7.11,14.75c-2.1,3.34-3.6,9.15-4.37,12.67
		c-1.78,3.61-4.19,6.62-8.78,8.16c-0.53,0.18-1.22,0.38-1.78,0.53c3.96-6.89,6.17-14.49,8.72-22.08c0.33-0.99,3.64-9.54-0.37-9.1
		c-3.87,0.42-6.03,6.99-7.34,9.89c-3.07,6.86-5.08,14.01-5.75,21.48c-1.09-0.61-1.84-1.91-2.58-3.57c-1.62-3.64-3.4-8.63-4.54-12.79
		c0.23-3.74,1.15-13.5,2.14-18.34c1.24-6.02,3.56-11.76,3.59-11.82l0.08-0.19l-0.03-0.07c5.38-5.43,11-9.32,18.77-12.07
		c1.52-0.53,3.04-1.14,4.44-1.9C164.02,194.04,166.28,205.73,168.18,214.57"/>
	<path class="st2" d="M144.91,234.81l0-0.01c-2.99-12.34-2.05-24.94,2.73-36.6c0.25-0.04,0.51-0.07,0.76-0.09
		c-4.71,11.3-5.77,23.53-3.07,35.54C145.19,234.03,145.05,234.42,144.91,234.81 M147.93,197.49c0-0.01,0-0.01,0.01-0.02
		c0.34-0.23,0.68-0.45,1.03-0.68c0,0.01,0,0.01-0.01,0.02C148.61,197.03,148.27,197.26,147.93,197.49"/>
	<path class="st2" d="M141.94,246.59c-4.07-9.48-5.97-19.43-5.66-29.62c0.05-0.28,0.1-0.54,0.15-0.79c0.22-1.06,0.47-2.12,0.74-3.13
		c-0.97,11.12,0.7,21.98,4.97,32.33C142.07,245.78,142,246.18,141.94,246.59"/>
	<path class="st2" d="M148.35,246.52c0.26-0.55,0.51-1.11,0.76-1.67c3.6-3.62,6.98-7.48,10.06-11.5c-0.24,0.63-0.46,1.28-0.68,1.93
		C155.38,239.2,151.98,242.97,148.35,246.52"/>
	<path class="st2" d="M152.11,236.96c0.17-0.5,0.34-1,0.5-1.5c3.62-3.91,6.93-8.08,9.89-12.49c-0.08,0.52-0.17,1.04-0.26,1.56
		C159.2,228.92,155.81,233.08,152.11,236.96 M168.18,214.58c-0.06-0.27-0.12-0.54-0.17-0.81c0,0,0,0,0,0
		c0.06,0.27,0.12,0.54,0.17,0.8V214.58"/>
	<path class="st2" d="M143.51,239.3c-4.19-11.71-4.96-24.27-2.24-36.38c0.29-0.28,0.58-0.55,0.88-0.83
		c-2.93,12.15-2.36,24.29,1.68,36.1C143.71,238.56,143.61,238.93,143.51,239.3"/>
	<path class="st2" d="M155.27,219.44c-0.04-0.01-0.09-0.02-0.14-0.03c-0.11-0.02-0.24-0.03-0.37-0.03c-0.05,0-0.1,0-0.16,0.01
		c0.07-5.97,0.95-11.84,2.64-17.55c0.18,0.19,0.35,0.38,0.52,0.57C156.16,207.94,155.33,213.64,155.27,219.44"/>
	<path class="st2" d="M156.32,220.64c-0.08-0.3-0.21-0.57-0.38-0.77c1.98-3.91,3.67-7.95,5.06-12.09c0.13,0.33,0.26,0.66,0.38,0.99
		C159.97,212.83,158.29,216.8,156.32,220.64"/>
	<path class="st2" d="M151.06,221.59c-0.09-7.52,0.97-14.94,3.16-22.15c0.2,0.11,0.39,0.23,0.58,0.35
		c-2.06,6.85-3.1,13.9-3.08,21.06C151.49,221.08,151.27,221.33,151.06,221.59"/>
	<path class="st2" d="M148.09,227.01l-0.01-0.06c-1.09-9.69,0.17-19.46,3.64-28.55c0.22,0.06,0.43,0.12,0.64,0.19
		c-3.31,8.66-4.59,17.94-3.73,27.17C148.44,226.19,148.26,226.61,148.09,227.01 M153.46,194.28
		C153.47,194.28,153.47,194.27,153.46,194.28c0.32-0.16,0.64-0.31,0.96-0.46c0,0,0,0,0,0C154.1,193.97,153.78,194.12,153.46,194.28"
		/>
	<path class="st2" d="M154.79,228.86c0.03-0.08,0.05-0.16,0.08-0.24c0.08-0.23,0.31-0.87,0.58-1.7c2.88-3.9,5.3-8.08,7.24-12.51
		c0.05,0.44,0.09,0.88,0.12,1.32C160.67,220.4,157.99,224.79,154.79,228.86"/>
	<path class="st3" d="M161.04,229.38c0.48-1.6,0.88-3.21,1.19-4.84c2.05-2.96,3.94-6.02,5.67-9.18c-0.75,1.99-2.26,5.42-3.9,8.67
		c-0.98,1.93-1.99,3.8-2.93,5.29l0,0C161.06,229.35,161.05,229.36,161.04,229.38 M162.5,222.98c0.07-0.44,0.12-0.88,0.17-1.33
		c0.22-1.96,0.27-3.95,0.13-5.93c1.44-3.14,2.63-6.4,3.58-9.78c0.12,0.6,0.24,1.2,0.37,1.79c0.42,2.05,0.85,4.1,1.26,6.03
		C166.33,216.94,164.49,220.01,162.5,222.98 M162.68,214.41c-0.23-1.92-0.65-3.82-1.31-5.64c1.33-3.86,2.4-7.81,3.21-11.83
		c0.45,2.3,0.97,4.9,1.51,7.59C165.21,207.93,164.07,211.24,162.68,214.41 M160.99,207.78c-0.31-0.77-0.67-1.52-1.07-2.25
		c-0.61-1.1-1.32-2.17-2.16-3.13c1.16-4.03,2.72-7.98,4.68-11.83c0.13-0.06,0.26-0.13,0.38-0.19c0.15-0.07,0.3-0.15,0.44-0.23
		c0.1,0.53,0.23,1.21,0.39,2c0.17,0.88,0.37,1.9,0.59,3.04C163.46,199.46,162.37,203.67,160.99,207.78 M157.24,201.82
		c-0.73-0.77-1.55-1.46-2.44-2.03c0.73-2.44,1.6-4.85,2.59-7.23c0.47-0.18,0.95-0.36,1.44-0.53c0.89-0.31,1.78-0.65,2.65-1.03
		C159.74,194.54,158.32,198.15,157.24,201.82 M154.22,199.44c-0.49-0.28-1-0.52-1.53-0.73c-0.11-0.04-0.21-0.08-0.32-0.12
		c0.62-1.62,1.31-3.21,2.07-4.78c0.37-0.17,0.75-0.34,1.14-0.51c0.32-0.14,0.65-0.27,0.98-0.41
		C155.66,195.06,154.89,197.24,154.22,199.44 M146.63,198.41c0.43-0.31,0.86-0.62,1.3-0.92c-0.1,0.23-0.2,0.47-0.29,0.7
		C147.3,198.25,146.96,198.32,146.63,198.41 M151.72,198.4c-0.83-0.22-1.69-0.33-2.55-0.33c-0.25,0-0.51,0.01-0.76,0.03
		c0.18-0.43,0.37-0.86,0.56-1.29c1.43-0.91,2.92-1.76,4.51-2.54C152.83,195.63,152.25,197.01,151.72,198.4"/>
	<path class="st4" d="M162.24,224.54c0.1-0.52,0.19-1.04,0.26-1.56c1.99-2.97,3.84-6.04,5.51-9.21c0.06,0.27,0.12,0.54,0.17,0.81v0
		c-0.07,0.23-0.17,0.49-0.28,0.78C166.18,218.52,164.29,221.58,162.24,224.54"/>
	<path class="st4" d="M157.76,202.4c-0.17-0.2-0.34-0.39-0.52-0.57c1.08-3.67,2.5-7.29,4.24-10.82c0.32-0.14,0.64-0.29,0.96-0.44
		C160.48,194.42,158.92,198.37,157.76,202.4"/>
	<path class="st4" d="M161.37,208.77c-0.12-0.33-0.25-0.66-0.38-0.99c1.38-4.1,2.46-8.31,3.25-12.6c0.11,0.56,0.22,1.14,0.34,1.75
		C163.77,200.95,162.7,204.91,161.37,208.77"/>
	<path class="st4" d="M154.8,199.79c-0.19-0.12-0.38-0.24-0.58-0.35c0.67-2.2,1.44-4.38,2.32-6.54c0.28-0.11,0.56-0.23,0.85-0.34
		C156.4,194.95,155.53,197.35,154.8,199.79"/>
	<path class="st4" d="M152.36,198.6c-0.21-0.07-0.43-0.14-0.64-0.19c0.53-1.39,1.11-2.77,1.75-4.13c0.32-0.15,0.64-0.31,0.96-0.46
		C153.67,195.39,152.98,196.98,152.36,198.6"/>
	<path class="st4" d="M162.81,215.73c-0.03-0.44-0.07-0.88-0.12-1.32c1.39-3.17,2.53-6.47,3.41-9.89c0.1,0.47,0.19,0.95,0.29,1.43
		C165.44,209.33,164.24,212.59,162.81,215.73"/>
	<path class="st4" d="M147.63,198.19c0.1-0.23,0.19-0.47,0.29-0.7c0.34-0.23,0.68-0.46,1.03-0.68c-0.19,0.43-0.38,0.86-0.56,1.29
		C148.13,198.12,147.88,198.15,147.63,198.19"/>
</g>
</svg>
