<?xml version="1.0" encoding="utf-8"?>
<!-- Generator: Adobe Illustrator 26.0.1, SVG Export Plug-In . SVG Version: 6.00 Build 0)  -->
<svg version="1.1" id="Layer_1" xmlns="http://www.w3.org/2000/svg" xmlns:xlink="http://www.w3.org/1999/xlink" x="0px" y="0px"
	 viewBox="0 0 432 648" style="enable-background:new 0 0 432 648;" xml:space="preserve">
<style type="text/css">
	.st0{display:none;opacity:0.5;fill:none;stroke:#231F20;stroke-width:0.05;stroke-miterlimit:10;}
	.st1{fill:#FFFFFF;}
	.st2{fill:#E92A2A;}
	.st3{fill:#D52626;}
	.st4{fill:#9A1A1C;}
	.st5{fill:#8D1819;}
</style>
<path class="st0" d="M418.44,444.92c-2.94,1.51-8.31,5.17-9.04,17.27"/>
<g>
	<g id="White_00000060752001501497400420000015092441499437081527_">
		<path class="st1" d="M299.02,263.36v-8.71c0-8.5-6.36-17.76-7.25-19.02c-0.09-1.63-0.79-14-1.99-19.84
			c-1.13-5.51-3.16-10.79-3.57-11.85c0.32-0.94,1.7-5.12,2.49-10.22c0.92-5.87-3.07-20.28-5.46-26.36c-1.59-4.03-4.9-5.56-7.57-6.79
			c-1.44-0.66-2.69-1.24-3.39-2.06c-1.8-2.1-3.59-2.67-5.17-3.18c-0.41-0.13-0.82-0.26-1.2-0.42c-0.61-0.24-1.14-0.73-1.96-1.47
			c-1.38-1.25-3.47-3.15-7.93-5.74c-2.58-1.5-6.41-3.25-10.46-5.11c-6.07-2.78-12.95-5.93-14.56-7.92c-0.65-0.81-1.6-3.52-2.46-6.36
			c0.49-0.97,1.84-3.64,1.96-4.06c0.52-1.81,0.58-4.28,0.56-5.78c0.3,0.14,0.67,0.22,1.11,0.17c1.49-0.18,2.89-2.5,4.56-5.52
			c0.47-0.85,0.91-1.65,1.25-2.13c1.45-2.07,1.13-6.54,0.07-9.89c-0.31-0.98-0.83-1.54-1.56-1.68c-1-0.18-2.09,0.57-2.87,1.29
			c0.15-4.18,0.09-15.92-4.73-21.71c-4.15-4.98-12.46-6.22-15.61-6.52h-1.24c-3.15,0.3-11.45,1.54-15.61,6.52
			c-4.82,5.79-4.88,17.53-4.73,21.71c-0.78-0.72-1.87-1.47-2.87-1.29c-0.73,0.13-1.25,0.7-1.56,1.68c-1.06,3.35-1.37,7.83,0.07,9.89
			c0.34,0.49,0.78,1.28,1.25,2.13c1.67,3.02,3.07,5.34,4.56,5.52c0.44,0.05,0.81-0.03,1.11-0.17c-0.02,1.5,0.04,3.97,0.56,5.78
			c0.12,0.41,1.45,3.04,1.95,4.03c-0.87,2.85-1.81,5.58-2.47,6.39c-1.61,1.99-8.49,5.14-14.56,7.92c-4.05,1.86-7.88,3.61-10.46,5.11
			c-4.46,2.59-6.55,4.48-7.93,5.74c-0.81,0.74-1.35,1.23-1.96,1.47c-0.38,0.15-0.79,0.28-1.2,0.42c-1.58,0.51-3.37,1.08-5.17,3.18
			c-0.7,0.82-1.95,1.39-3.39,2.06c-2.66,1.23-5.98,2.76-7.57,6.79c-2.39,6.08-6.38,20.49-5.46,26.36c0.8,5.1,2.17,9.29,2.49,10.22
			c-0.42,1.06-2.44,6.34-3.57,11.85c-1.2,5.84-1.91,18.21-1.99,19.84c-0.9,1.26-7.25,10.52-7.25,19.02v8.71
			c-0.6,0.98-3.75,6.66-3.08,17.76c0.26,4.25,0.73,8.17,1.24,12.32c0.9,7.39,2.72,15.03,2.37,24.93
			c-0.53,15.08-0.4,27.99,1.47,33.73c0.81,2.48,5.18,14.88,5.38,15.4c0,0,0.17,0.57,0.72,0.4c0.03-0.01,2.79-0.79,3.09-4.42
			l1.15,1.17c0.2,0.21,0.54,0.18,0.71-0.05l0.05-0.08c0.09-0.12,1.37-1.96,1.76-4.24c0.81-1.25,2.46-4.43,0.47-7.47
			c-0.82-1.26-3.8-4.31-4.49-5.01c-0.05-0.63-0.25-2.59-0.78-4.72c-0.46-2.59-0.19-4.52,0.39-5.85c0.16-0.32,0.34-0.64,0.53-0.95
			c0.45-0.63,0.98-1.03,1.48-1.22c0.13-0.05,0.2-0.03,0.28,0.02c1.17,0.75,1.44,2.76,1.72,4.88c0.27,1.99,0.62,4,1.56,5.64
			c1.15,2.03,4.44,2.79,4.87-1.08c0.3-2.75,0.3-6.13,0.29-7.57l-0.08-1.45c-0.31-5.52-0.51-8.34-3.48-13.16
			c-1.3-2.11-1.32-3.29-0.5-11.5c0.4-4,2.96-10.52,5.58-17.43c2.98-7.9,6.07-16.06,6.27-20.8c0.31-7.34-0.66-10.98-1.01-12.04
			c0.62-0.74,2.35-3.04,2.81-6c0.55-3.45,0.38-9.44,0.36-9.59c0.02-0.1,1.83-10.45,4.81-15.19c2.2-3.5,5.18-9.72,6.63-13.42
			c0.81,3.67,1.52,6.65,1.99,8.05c0.74,2.21,1.67,4.67,2.58,7.05c1.29,3.39,2.52,6.6,2.83,8.27c0.31,1.64,0.39,9.97,0.24,24.75
			c-0.01,0.77-0.01,1.28-0.01,1.43c-0.03,0.28-0.65,1.39-1.21,2.37c-1.88,3.32-5.01,8.87-4.43,13.56c0.65,5.23,1.44,7.42,1.73,8.07
			c-0.59,1.89-4.97,16.2-4.3,26.52c0.23,3.6-1.18,9.22-2.97,16.33c-2.31,9.17-5.18,20.58-6.16,33.75
			c-1.44,19.48,2.66,51.49,4.2,63.53c0.33,2.58,0.55,4.28,0.58,4.8c0.08,1.27-0.04,2.15-0.18,3.17c-0.19,1.38-0.4,2.95-0.18,5.89
			c0.05,0.67,0.2,1.46,0.45,2.35c-1.09,2.81-2.08,5.61-2.94,8.2c-7.21,16.22-4,33.45-0.9,50.12c0.67,3.61,1.37,7.35,1.94,11
			l0.09,0.84c0.73,6.58,1.49,13.38-0.15,19.6c-0.83,3.15-1.7,4.99-2.35,6.14c0,0-0.01,0.01-0.01,0.01
			c-0.06,0.05-0.08,0.11-0.09,0.17c-0.15,0.26-0.29,0.49-0.4,0.68c-0.11,0.19-0.21,0.35-0.29,0.49c-0.66,1.19-0.66,2.54-0.38,3.85
			c-0.19,0.51-1.62,4.1-5.25,6.16c-3.41,1.94-6.46,3.22-7.56,3.76c-2.56-0.42-5.55,0.37-6.15,1.02c-0.46,0.49-0.93,1.25-0.93,3.15
			c0,1.84,2.21,2.68,3.2,2.96c0,0.66,0.16,1.87,1.06,3.27c1.29,2,9.28,4.53,12.66,5.52c1.15,0.34,3.38,1.87,5.35,3.22
			c1.85,1.27,3.6,2.48,4.67,2.88c1.09,0.41,3.4,0.81,6.11,0.81c3.32,0,7.24-0.59,10.26-2.48c5.71-3.57,1.78-18.39,1.61-19.02
			c-0.2-0.74-0.42-1.56-0.65-2.41c-0.71-2.68-1.52-5.71-2.34-8.17c0.03-0.93,0.51-1.9,1.03-2.93c0.56-1.12,1.14-2.29,1.14-3.5
			l-0.02-0.14c-5.16-18.59,2.5-36.06,9.92-52.95l0.95-2.18c0.36-1.43,0.84-2.89,1.32-4.3c0.96-2.89,1.96-5.88,1.96-8.92
			c-0.46-4.14-1.66-8.19-2.94-12.47c-0.76-2.54-1.77-6.29-2.67-9.7c4.41-6.72,8.29-15.27,9.23-20.35c0.7-3.79,1.3-10.97,2-19.28
			c0.62-7.34,1.32-15.66,2.17-22.3c1.05-8.2,3.22-17.46,4.97-24.89c1.19-5.09,2.22-9.48,2.56-12.13c0.75-5.86-0.34-12.74-0.59-14.17
			c0.68-2.1,0.97-4.49,1.03-6.93c0.06,2.43,0.35,4.82,1.03,6.93c-0.25,1.43-1.33,8.31-0.59,14.17c0.34,2.65,1.37,7.04,2.56,12.13
			c1.74,7.44,3.91,16.69,4.97,24.89c0.85,6.64,1.55,14.96,2.17,22.3c0.7,8.31,1.3,15.48,2,19.28c0.93,5.08,4.8,13.61,9.2,20.32
			c-0.94,3.56-1.98,7.42-2.67,9.73c-1.27,4.28-2.48,8.33-2.94,12.47c0,3.04,0.99,6.03,1.96,8.92c0.47,1.41,0.96,2.88,1.32,4.3
			l0.95,2.18c7.41,16.89,15.08,34.36,9.92,52.95l-0.02,0.14c0,1.21,0.58,2.38,1.14,3.5c0.51,1.03,1,2,1.03,2.93
			c-0.82,2.47-1.62,5.5-2.34,8.17c-0.23,0.86-0.45,1.68-0.65,2.41c-0.17,0.63-4.1,15.45,1.61,19.02c3.02,1.89,6.94,2.48,10.26,2.48
			c2.71,0,5.02-0.4,6.11-0.81c1.07-0.4,2.82-1.6,4.67-2.88c1.97-1.35,4.19-2.88,5.35-3.22c3.38-0.99,11.37-3.52,12.66-5.52
			c0.9-1.4,1.06-2.62,1.06-3.27c0.99-0.28,3.2-1.12,3.2-2.96c0-1.91-0.47-2.66-0.93-3.15c-0.61-0.65-3.6-1.43-6.15-1.02
			c-1.09-0.55-4.14-1.83-7.56-3.76c-3.63-2.06-5.06-5.65-5.25-6.16c0.28-1.31,0.27-2.67-0.38-3.85c-0.08-0.14-0.17-0.3-0.29-0.49
			c-0.12-0.19-0.25-0.42-0.4-0.68c-0.01-0.06-0.03-0.12-0.09-0.17c0,0-0.01-0.01-0.01-0.01c-0.64-1.15-1.52-2.99-2.35-6.14
			c-1.64-6.22-0.88-13.02-0.15-19.6l0.09-0.84c0.58-3.65,1.27-7.39,1.94-11c3.1-16.66,6.31-33.9-0.9-50.12
			c-0.86-2.59-1.85-5.38-2.93-8.19c0.25-0.89,0.41-1.69,0.46-2.36c0.21-2.94,0-4.51-0.18-5.89c-0.14-1.02-0.25-1.89-0.18-3.17
			c0.03-0.52,0.25-2.22,0.58-4.8c1.54-12.05,5.64-44.05,4.2-63.53c-0.97-13.17-3.84-24.58-6.15-33.75
			c-1.79-7.11-3.21-12.73-2.97-16.33c0.67-10.32-3.7-24.64-4.3-26.52c0.29-0.66,1.08-2.84,1.73-8.07
			c0.58-4.69-2.56-10.24-4.43-13.56c-0.55-0.98-1.18-2.09-1.21-2.37c0-0.15,0-0.66-0.01-1.43c-0.14-14.78-0.06-23.11,0.24-24.75
			c0.31-1.67,1.54-4.88,2.83-8.27c0.91-2.38,1.84-4.83,2.58-7.05c0.46-1.39,1.18-4.36,1.98-8.02c1.46,3.7,4.42,9.9,6.62,13.39
			c2.99,4.74,4.8,15.09,4.81,15.19c-0.01,0.15-0.18,6.14,0.36,9.59c0.47,2.97,2.19,5.26,2.81,6c-0.35,1.05-1.32,4.7-1.01,12.04
			c0.2,4.74,3.28,12.9,6.27,20.8c2.61,6.91,5.18,13.43,5.58,17.43c0.82,8.22,0.8,9.39-0.5,11.5c-2.97,4.82-3.17,7.64-3.48,13.16
			l-0.08,1.45c-0.01,1.44-0.02,4.82,0.29,7.57c0.43,3.87,3.72,3.1,4.87,1.08c0.94-1.65,1.29-3.66,1.56-5.64
			c0.29-2.12,0.56-4.13,1.72-4.88c0.08-0.05,0.15-0.07,0.28-0.02c0.51,0.19,1.03,0.59,1.48,1.22c0.19,0.32,0.37,0.64,0.53,0.95
			c0.58,1.33,0.85,3.26,0.39,5.85c-0.54,2.13-0.73,4.09-0.78,4.72c-0.69,0.71-3.67,3.75-4.49,5.01c-1.99,3.04-0.34,6.23,0.47,7.47
			c0.39,2.29,1.68,4.12,1.76,4.24l0.05,0.08c0.17,0.23,0.51,0.26,0.71,0.05l1.15-1.17c0.29,3.62,3.06,4.41,3.09,4.42
			c0.55,0.17,0.72-0.4,0.72-0.4c0.2-0.53,4.57-12.93,5.38-15.4c1.87-5.74,2-18.65,1.47-33.73c-0.35-9.89,1.48-17.54,2.37-24.93
			c0.5-4.15,0.98-8.07,1.24-12.32C302.77,270.02,299.62,264.34,299.02,263.36z"/>
	</g>
	<path class="st2" d="M238.89,368.98c0.67,8.95,2.11,17.85,3.87,26.64c2.97,14.84,9.05,28.85,15.14,42.74l0.11,0.24
		c0.66,1.42,1.3,2.89,1.9,4.37c0.22,0.48,0.42,0.96,0.63,1.43c0.03-0.19,0.06-0.36,0.07-0.54c0.2-2.84,0-4.34-0.18-5.67
		c-0.14-1.02-0.26-2-0.18-3.38c0.03-0.55,0.25-2.27,0.59-4.87c0.68-5.4,1.89-14.79,2.88-25.26v-0.01
		c-2.53-17.75-4.46-35.42-11.43-52.14c-0.16,1.25-0.68,2.21-1.73,2.61c-2.11,0.8-4.09,0.46-6.19-0.22
		c-1.82-0.57-3.63-1.18-5.44-1.81C237.81,358.2,238.54,364.11,238.89,368.98"/>
	<path class="st3" d="M260.27,436.78c-1.61-4.42-3.43-8.84-5.2-13.13c-2.38-5.78-4.84-11.76-6.81-17.78
		c-4.25-12.97-6.56-24.91-6.95-36.12c0.02-0.05,0.04-0.1,0.06-0.14c0.17-0.42,0.37-0.83,0.59-1.24c0.28,11.78,2.75,24.52,7.53,39.08
		c1.92,5.84,4.3,11.62,6.6,17.2c1.39,3.39,2.83,6.87,4.16,10.36C260.21,435.68,260.23,436.25,260.27,436.78 M242.7,354.39
		c-0.22-0.07-0.43-0.14-0.64-0.21l0,0C242.27,354.25,242.48,354.32,242.7,354.39L242.7,354.39"/>
	<path class="st3" d="M260.58,431.99c-0.54-10.9-4.47-21.57-8.28-31.91c-4.13-11.21-8.37-22.72-8.26-34.57
		c0.21-0.22,0.43-0.42,0.66-0.62c-0.29,12.04,4.02,23.74,8.22,35.13c3.45,9.36,7,18.99,8.06,28.84c-0.05,0.38-0.09,0.74-0.14,1.09
		C260.74,430.7,260.65,431.39,260.58,431.99 M245.96,355.36c-0.21-0.05-0.43-0.1-0.64-0.16c0,0,0,0,0,0
		C245.53,355.26,245.75,355.32,245.96,355.36C245.96,355.36,245.96,355.36,245.96,355.36"/>
	<path class="st3" d="M261.76,422.58c-0.94-9.12-4.1-18.06-7.17-26.74c-3.71-10.5-7.52-21.28-7.43-32.48
		c0.22-0.09,0.44-0.17,0.66-0.24c-0.16,11.25,3.67,22.1,7.41,32.67c2.77,7.84,5.62,15.91,6.85,24.14
		C261.97,420.84,261.87,421.73,261.76,422.58 M248.03,355.61c-0.05,0-0.09,0-0.14,0l0,0C247.94,355.61,247.98,355.61,248.03,355.61
		c0.18,0,0.36-0.01,0.54-0.02l0,0C248.39,355.6,248.21,355.61,248.03,355.61"/>
	<path class="st3" d="M263.19,409.97c-1.02-7.07-3.39-14.18-5.51-20.54c-0.25-0.76-0.5-1.51-0.75-2.24
		c-2.53-7.65-5.04-15.74-6.26-24.37c0.24,0.02,0.48,0.05,0.72,0.1c1.28,8.66,3.92,16.9,6.67,25.5c0.52,1.63,1.05,3.28,1.56,4.93
		c1.38,4.4,2.87,9.39,3.79,14.52C263.34,408.57,263.27,409.28,263.19,409.97"/>
	<path class="st4" d="M239.73,377.17c-0.33-2.72-0.62-5.45-0.82-8.19c-0.36-4.88-1.09-10.78,0.02-15.86
		c0.22,0.08,0.45,0.15,0.67,0.23c0.8,0.27,1.6,0.55,2.4,0.81c0.02,0.01,0.04,0.01,0.05,0.02c-0.68,5.04-0.93,10.22-0.74,15.57
		C240.36,372.1,239.98,374.63,239.73,377.17 M241.95,368.37c-0.11-4.8,0.14-9.44,0.74-13.98c0.56,0.18,1.12,0.37,1.68,0.54
		c0.32,0.1,0.63,0.19,0.94,0.27c-0.86,3.46-1.25,6.9-1.28,10.3C243.21,366.35,242.51,367.33,241.95,368.37 M257.06,366.71
		c-1.24-1.97-3.38-3.37-5.67-3.78c-0.38-2.56-0.64-5.15-0.75-7.8c0.3-0.13,0.56-0.3,0.78-0.51c0.5-0.49,0.78-1.19,0.89-2.04
		C254.24,357.21,255.78,361.93,257.06,366.71 M244.7,364.89c0.08-3.15,0.47-6.32,1.26-9.52c0.65,0.14,1.29,0.23,1.93,0.24
		c-0.48,2.61-0.7,5.19-0.72,7.75C246.27,363.73,245.44,364.25,244.7,364.89 M247.83,363.12c0.04-2.49,0.27-5,0.74-7.54
		c0.09-0.01,0.19-0.01,0.28-0.03c0.37-0.04,0.75-0.11,1.12-0.22c0.11,2.54,0.36,5.03,0.7,7.48c-0.23-0.02-0.46-0.03-0.68-0.03
		c-0.63,0-1.26,0.08-1.88,0.25C248.01,363.07,247.92,363.09,247.83,363.12"/>
	<path class="st5" d="M241.31,369.75c-0.19-5.35,0.06-10.53,0.74-15.57c0.22,0.07,0.43,0.14,0.64,0.21
		c-0.61,4.54-0.86,9.18-0.74,13.98c-0.22,0.4-0.41,0.82-0.59,1.24C241.35,369.65,241.33,369.7,241.31,369.75"/>
	<path class="st5" d="M244.04,365.51c0.03-3.4,0.42-6.84,1.28-10.3c0.22,0.06,0.43,0.11,0.64,0.16c-0.79,3.2-1.18,6.37-1.26,9.52
		C244.47,365.08,244.25,365.29,244.04,365.51"/>
	<path class="st5" d="M247.17,363.36c0.02-2.56,0.24-5.15,0.72-7.75c0.05,0,0.09,0,0.14,0c0.18,0,0.36-0.01,0.54-0.02
		c-0.47,2.53-0.71,5.04-0.74,7.54C247.6,363.19,247.38,363.27,247.17,363.36"/>
	<path class="st5" d="M251.39,362.92c-0.24-0.04-0.48-0.08-0.72-0.1c-0.35-2.45-0.59-4.94-0.7-7.48c0.2-0.06,0.4-0.12,0.59-0.2
		c0.03-0.01,0.05-0.02,0.07-0.03C250.75,357.77,251.01,360.36,251.39,362.92"/>
	<g>
		<path class="st2" d="M186.44,368.72c-0.67,8.95-2.11,17.85-3.87,26.64c-2.97,14.84-9.05,28.85-15.14,42.74l-0.11,0.24
			c-0.66,1.42-1.3,2.89-1.9,4.37c-0.22,0.48-0.42,0.96-0.63,1.43c-0.03-0.19-0.06-0.36-0.07-0.54c-0.2-2.84,0-4.34,0.18-5.67
			c0.14-1.02,0.26-2,0.18-3.38c-0.03-0.55-0.25-2.27-0.59-4.87c-0.68-5.4-1.89-14.79-2.88-25.26v-0.01
			c2.53-17.75,4.46-35.42,11.43-52.14c0.16,1.25,0.68,2.21,1.73,2.61c2.11,0.8,4.09,0.46,6.19-0.22c1.82-0.57,3.63-1.18,5.44-1.81
			C187.52,357.95,186.79,363.86,186.44,368.72"/>
		<path class="st3" d="M165.06,436.52c0.04-0.53,0.06-1.1,0.03-1.76c1.33-3.49,2.76-6.97,4.16-10.36c2.3-5.58,4.68-11.36,6.6-17.2
			c4.78-14.56,7.25-27.3,7.53-39.08c0.22,0.4,0.41,0.82,0.59,1.24c0.02,0.05,0.04,0.1,0.06,0.14c-0.39,11.2-2.7,23.15-6.95,36.12
			c-1.98,6.03-4.44,12.01-6.81,17.78C168.5,427.68,166.67,432.11,165.06,436.52 M182.63,354.14L182.63,354.14
			c0.22-0.07,0.43-0.14,0.64-0.21l0,0C183.06,354,182.85,354.07,182.63,354.14"/>
		<path class="st3" d="M164.76,431.73c-0.08-0.6-0.17-1.28-0.27-2.04c-0.04-0.35-0.09-0.71-0.14-1.09
			c1.05-9.85,4.61-19.48,8.06-28.84c4.2-11.39,8.52-23.09,8.22-35.13c0.23,0.2,0.45,0.4,0.66,0.62c0.11,11.85-4.13,23.36-8.26,34.57
			C169.22,410.16,165.29,420.83,164.76,431.73 M179.37,355.11C179.37,355.11,179.37,355.11,179.37,355.11
			c0.21-0.05,0.43-0.1,0.64-0.16c0,0,0,0,0,0C179.8,355.01,179.58,355.06,179.37,355.11"/>
		<path class="st3" d="M163.57,422.32c-0.1-0.85-0.21-1.74-0.32-2.65c1.23-8.22,4.08-16.3,6.85-24.14
			c3.73-10.56,7.57-21.42,7.41-32.67c0.22,0.07,0.45,0.15,0.66,0.24c0.09,11.19-3.72,21.98-7.43,32.48
			C167.67,404.26,164.51,413.2,163.57,422.32 M177.3,355.35c-0.18,0-0.36-0.01-0.54-0.02l0,0
			C176.94,355.34,177.12,355.35,177.3,355.35c0.04,0,0.09,0,0.14,0l0,0C177.4,355.35,177.35,355.35,177.3,355.35"/>
		<path class="st3" d="M162.14,409.72c1.02-7.07,3.39-14.18,5.51-20.54c0.25-0.76,0.5-1.51,0.75-2.24
			c2.53-7.65,5.04-15.74,6.26-24.37c-0.24,0.02-0.48,0.05-0.72,0.1c-1.28,8.66-3.92,16.9-6.67,25.5c-0.52,1.63-1.05,3.28-1.56,4.93
			c-1.38,4.4-2.87,9.39-3.79,14.52C161.99,408.32,162.06,409.02,162.14,409.72"/>
		<path class="st4" d="M185.6,376.91c-0.25-2.54-0.63-5.07-1.58-7.42c0.19-5.35-0.06-10.53-0.74-15.57
			c0.02-0.01,0.03-0.01,0.05-0.02c0.8-0.27,1.6-0.54,2.4-0.81c0.22-0.08,0.45-0.15,0.67-0.23c1.11,5.08,0.38,10.98,0.02,15.86
			C186.22,371.46,185.94,374.19,185.6,376.91 M183.38,368.12c-0.56-1.04-1.26-2.02-2.08-2.86c-0.03-3.4-0.42-6.84-1.28-10.3
			c0.31-0.08,0.63-0.18,0.94-0.27c0.56-0.18,1.12-0.36,1.68-0.54C183.24,358.68,183.49,363.32,183.38,368.12 M168.27,366.45
			c1.28-4.78,2.83-9.49,4.76-14.14c0.11,0.84,0.39,1.55,0.89,2.04c0.22,0.21,0.47,0.39,0.78,0.51c-0.11,2.65-0.37,5.25-0.75,7.8
			C171.65,363.08,169.51,364.48,168.27,366.45 M180.63,364.63c-0.74-0.64-1.57-1.16-2.46-1.53c-0.02-2.56-0.24-5.15-0.72-7.75
			c0.64-0.01,1.28-0.1,1.93-0.24C180.16,358.31,180.55,361.48,180.63,364.63 M177.5,362.87c-0.09-0.03-0.19-0.06-0.28-0.08
			c-0.62-0.17-1.25-0.25-1.88-0.25c-0.23,0-0.46,0.01-0.68,0.03c0.35-2.45,0.59-4.94,0.7-7.48c0.38,0.11,0.75,0.18,1.12,0.22
			c0.09,0.01,0.19,0.02,0.28,0.03C177.24,357.86,177.47,360.38,177.5,362.87"/>
		<path class="st5" d="M184.02,369.5c0.19-5.35-0.06-10.53-0.74-15.57c-0.22,0.07-0.43,0.14-0.64,0.21
			c0.61,4.54,0.86,9.18,0.74,13.98c0.22,0.4,0.41,0.82,0.59,1.24C183.98,369.4,184,369.45,184.02,369.5"/>
		<path class="st5" d="M181.3,365.25c-0.03-3.4-0.42-6.84-1.28-10.3c-0.22,0.06-0.43,0.11-0.64,0.16c0.79,3.2,1.18,6.37,1.26,9.52
			C180.86,364.83,181.08,365.04,181.3,365.25"/>
		<path class="st5" d="M178.17,363.11c-0.02-2.56-0.24-5.15-0.72-7.75c-0.05,0-0.09,0-0.14,0c-0.18,0-0.36-0.01-0.54-0.02
			c0.47,2.53,0.71,5.04,0.74,7.54C177.73,362.94,177.95,363.02,178.17,363.11"/>
		<path class="st5" d="M173.94,362.67c0.24-0.04,0.48-0.08,0.72-0.1c0.35-2.45,0.59-4.94,0.7-7.48c-0.2-0.06-0.4-0.12-0.59-0.2
			c-0.03-0.01-0.05-0.02-0.07-0.03C174.58,357.51,174.32,360.11,173.94,362.67"/>
	</g>
	<path d="M299.02,263.36v-8.71c0-8.5-6.36-17.76-7.25-19.02c-0.09-1.63-0.79-14-1.99-19.84c-1.13-5.51-3.16-10.79-3.57-11.85
		c0.32-0.94,1.7-5.12,2.49-10.22c0.92-5.87-3.07-20.28-5.46-26.36c-1.59-4.03-4.9-5.56-7.57-6.79c-1.44-0.66-2.69-1.24-3.39-2.06
		c-1.8-2.1-3.59-2.67-5.17-3.18c-0.41-0.13-0.82-0.26-1.2-0.42c-0.61-0.24-1.14-0.73-1.96-1.47c-1.38-1.25-3.47-3.15-7.93-5.74
		c-2.58-1.5-6.41-3.25-10.46-5.11c-6.07-2.78-12.95-5.93-14.56-7.92c-0.65-0.81-1.6-3.52-2.46-6.36c0.49-0.97,1.84-3.64,1.96-4.06
		c0.52-1.81,0.58-4.28,0.56-5.78c0.3,0.14,0.67,0.22,1.11,0.17c1.49-0.18,2.89-2.5,4.56-5.52c0.47-0.85,0.91-1.65,1.25-2.13
		c1.45-2.07,1.13-6.54,0.07-9.89c-0.31-0.98-0.83-1.54-1.56-1.68c-1-0.18-2.09,0.57-2.87,1.29c0.15-4.18,0.09-15.92-4.73-21.71
		c-4.15-4.98-12.46-6.22-15.61-6.52h-1.24c-3.15,0.3-11.45,1.54-15.61,6.52c-4.82,5.79-4.88,17.53-4.73,21.71
		c-0.78-0.72-1.87-1.47-2.87-1.29c-0.73,0.13-1.25,0.7-1.56,1.68c-1.06,3.35-1.37,7.83,0.07,9.89c0.34,0.49,0.78,1.28,1.25,2.13
		c1.67,3.02,3.07,5.34,4.56,5.52c0.44,0.05,0.81-0.03,1.11-0.17c-0.02,1.5,0.04,3.97,0.56,5.78c0.12,0.41,1.45,3.04,1.95,4.03
		c-0.87,2.85-1.81,5.58-2.47,6.39c-1.61,1.99-8.49,5.14-14.56,7.92c-4.05,1.86-7.88,3.61-10.46,5.11c-4.46,2.59-6.55,4.48-7.93,5.74
		c-0.81,0.74-1.35,1.23-1.96,1.47c-0.39,0.15-0.79,0.28-1.2,0.42c-1.58,0.51-3.37,1.08-5.17,3.18c-0.7,0.82-1.95,1.39-3.39,2.06
		c-2.66,1.23-5.98,2.76-7.57,6.79c-2.39,6.08-6.38,20.49-5.46,26.36c0.8,5.1,2.17,9.29,2.49,10.22c-0.42,1.06-2.44,6.34-3.57,11.85
		c-1.2,5.84-1.91,18.21-1.99,19.84c-0.9,1.26-7.25,10.52-7.25,19.02v8.71c-0.6,0.98-3.75,6.66-3.08,17.76
		c0.26,4.25,0.73,8.17,1.24,12.32c0.9,7.39,2.72,15.03,2.37,24.93c-0.53,15.08-0.4,27.99,1.47,33.73c0.81,2.48,5.18,14.88,5.38,15.4
		c0,0,0.17,0.57,0.72,0.4c0.03-0.01,2.79-0.79,3.09-4.42l1.15,1.17c0.2,0.21,0.54,0.18,0.71-0.05l0.05-0.08
		c0.09-0.12,1.37-1.96,1.76-4.24c0.81-1.25,2.46-4.43,0.47-7.47c-0.82-1.26-3.8-4.31-4.49-5.01c-0.05-0.63-0.25-2.59-0.78-4.72
		c-0.46-2.59-0.19-4.52,0.39-5.85c0.16-0.32,0.34-0.64,0.53-0.95c0.45-0.63,0.98-1.03,1.48-1.22c0.13-0.05,0.2-0.03,0.28,0.02
		c1.17,0.75,1.44,2.76,1.72,4.88c0.27,1.99,0.62,4,1.56,5.65c1.15,2.03,4.44,2.79,4.87-1.08c0.3-2.75,0.3-6.13,0.29-7.57l-0.08-1.45
		c-0.31-5.52-0.51-8.34-3.48-13.16c-1.3-2.11-1.32-3.29-0.5-11.5c0.4-4,2.96-10.52,5.58-17.43c2.98-7.9,6.07-16.06,6.27-20.8
		c0.31-7.34-0.66-10.98-1.01-12.04c0.62-0.74,2.35-3.04,2.81-6c0.55-3.45,0.38-9.44,0.36-9.59c0.02-0.1,1.83-10.45,4.81-15.19
		c2.2-3.5,5.18-9.72,6.63-13.42c0.81,3.67,1.52,6.65,1.99,8.05c0.74,2.21,1.67,4.67,2.58,7.05c1.29,3.39,2.52,6.6,2.83,8.27
		c0.31,1.64,0.39,9.97,0.24,24.75c-0.01,0.77-0.01,1.28-0.01,1.43c-0.03,0.28-0.65,1.39-1.21,2.37c-1.88,3.32-5.01,8.87-4.43,13.56
		c0.65,5.23,1.44,7.42,1.73,8.07c-0.59,1.89-4.97,16.2-4.3,26.52c0.23,3.6-1.18,9.22-2.97,16.33c-2.31,9.17-5.18,20.58-6.15,33.75
		c-1.44,19.48,2.66,51.49,4.2,63.53c0.33,2.58,0.55,4.28,0.58,4.8c0.08,1.27-0.04,2.15-0.18,3.17c-0.19,1.38-0.4,2.95-0.18,5.89
		c0.05,0.67,0.2,1.46,0.45,2.35c-1.09,2.81-2.08,5.61-2.94,8.2c-7.21,16.22-4,33.45-0.9,50.12c0.67,3.61,1.37,7.35,1.94,11
		l0.09,0.84c0.73,6.58,1.49,13.38-0.15,19.6c-0.83,3.15-1.7,4.99-2.35,6.14c0,0-0.01,0.01-0.01,0.01c-0.06,0.05-0.08,0.11-0.09,0.17
		c-0.15,0.26-0.29,0.49-0.4,0.68c-0.11,0.19-0.21,0.35-0.29,0.48c-0.66,1.19-0.66,2.54-0.38,3.85c-0.19,0.51-1.62,4.1-5.25,6.16
		c-3.41,1.93-6.46,3.22-7.55,3.76c-2.56-0.42-5.55,0.37-6.15,1.02c-0.46,0.49-0.93,1.25-0.93,3.16c0,1.84,2.21,2.68,3.2,2.96
		c0,0.66,0.16,1.87,1.06,3.27c1.29,2,9.28,4.53,12.66,5.52c1.15,0.34,3.38,1.87,5.35,3.22c1.85,1.27,3.6,2.48,4.67,2.88
		c1.09,0.41,3.4,0.81,6.11,0.81c3.32,0,7.24-0.59,10.26-2.48c5.71-3.57,1.78-18.39,1.61-19.02c-0.2-0.74-0.42-1.56-0.65-2.41
		c-0.71-2.68-1.52-5.71-2.34-8.17c0.03-0.93,0.51-1.9,1.03-2.93c0.56-1.12,1.14-2.29,1.14-3.5l-0.02-0.14
		c-5.16-18.59,2.5-36.06,9.92-52.95l0.95-2.18c0.36-1.43,0.85-2.89,1.32-4.3c0.96-2.89,1.96-5.88,1.96-8.92
		c-0.46-4.14-1.66-8.19-2.94-12.47c-0.76-2.54-1.77-6.29-2.67-9.7c4.41-6.72,8.29-15.27,9.23-20.35c0.7-3.79,1.3-10.97,2-19.28
		c0.62-7.34,1.32-15.66,2.17-22.3c1.05-8.2,3.22-17.46,4.97-24.89c1.19-5.09,2.22-9.48,2.56-12.13c0.75-5.86-0.34-12.74-0.59-14.17
		c0.68-2.1,0.98-4.49,1.03-6.93c0.06,2.43,0.35,4.82,1.03,6.93c-0.25,1.43-1.33,8.31-0.59,14.17c0.34,2.65,1.37,7.04,2.56,12.13
		c1.74,7.44,3.91,16.69,4.97,24.89c0.85,6.64,1.55,14.96,2.17,22.3c0.7,8.31,1.3,15.48,2,19.28c0.93,5.08,4.8,13.61,9.21,20.32
		c-0.94,3.56-1.98,7.42-2.67,9.73c-1.27,4.28-2.48,8.33-2.94,12.47c0,3.04,0.99,6.03,1.96,8.92c0.47,1.41,0.96,2.88,1.32,4.3
		l0.95,2.18c7.41,16.89,15.08,34.36,9.92,52.95l-0.02,0.14c0,1.21,0.58,2.38,1.14,3.5c0.51,1.03,1,2,1.03,2.93
		c-0.82,2.47-1.62,5.5-2.34,8.17c-0.23,0.86-0.45,1.68-0.65,2.41c-0.17,0.63-4.1,15.45,1.61,19.02c3.02,1.89,6.94,2.48,10.26,2.48
		c2.71,0,5.02-0.4,6.11-0.81c1.07-0.4,2.82-1.6,4.67-2.88c1.97-1.35,4.19-2.88,5.35-3.22c3.38-0.99,11.37-3.52,12.66-5.52
		c0.9-1.4,1.06-2.62,1.06-3.27c0.99-0.28,3.2-1.12,3.2-2.96c0-1.91-0.47-2.66-0.93-3.16c-0.61-0.65-3.6-1.43-6.15-1.02
		c-1.09-0.55-4.14-1.83-7.56-3.76c-3.63-2.06-5.06-5.65-5.25-6.16c0.28-1.31,0.27-2.67-0.38-3.85c-0.08-0.14-0.17-0.3-0.29-0.48
		c-0.12-0.19-0.25-0.42-0.4-0.68c-0.01-0.06-0.03-0.12-0.09-0.17c0,0-0.01-0.01-0.01-0.01c-0.64-1.15-1.52-2.99-2.35-6.14
		c-1.64-6.22-0.88-13.02-0.15-19.6l0.09-0.84c0.58-3.65,1.27-7.39,1.94-11c3.1-16.66,6.31-33.9-0.9-50.12
		c-0.86-2.59-1.85-5.38-2.93-8.19c0.25-0.89,0.41-1.69,0.46-2.36c0.21-2.94,0-4.51-0.18-5.89c-0.14-1.02-0.25-1.89-0.18-3.17
		c0.03-0.52,0.25-2.22,0.58-4.8c1.54-12.05,5.64-44.05,4.2-63.53c-0.97-13.17-3.85-24.58-6.15-33.75
		c-1.79-7.11-3.21-12.73-2.97-16.33c0.67-10.32-3.7-24.64-4.3-26.52c0.29-0.66,1.08-2.84,1.73-8.07c0.58-4.69-2.56-10.24-4.43-13.56
		c-0.55-0.98-1.18-2.09-1.21-2.37c0-0.15,0-0.66-0.01-1.43c-0.14-14.78-0.06-23.11,0.24-24.75c0.31-1.67,1.54-4.88,2.83-8.27
		c0.91-2.38,1.84-4.83,2.58-7.05c0.46-1.39,1.18-4.36,1.98-8.02c1.46,3.7,4.42,9.9,6.62,13.39c2.99,4.74,4.8,15.09,4.81,15.19
		c-0.01,0.15-0.18,6.14,0.36,9.59c0.47,2.97,2.19,5.26,2.81,6c-0.35,1.05-1.31,4.7-1.01,12.04c0.2,4.74,3.28,12.9,6.27,20.8
		c2.61,6.91,5.18,13.43,5.58,17.43c0.82,8.22,0.8,9.39-0.5,11.5c-2.97,4.82-3.17,7.64-3.48,13.16l-0.08,1.45
		c-0.01,1.44-0.02,4.82,0.29,7.57c0.43,3.87,3.72,3.1,4.87,1.08c0.94-1.65,1.29-3.66,1.56-5.65c0.29-2.12,0.56-4.13,1.72-4.88
		c0.08-0.05,0.15-0.07,0.28-0.02c0.51,0.19,1.03,0.59,1.48,1.22c0.19,0.32,0.37,0.64,0.53,0.95c0.58,1.33,0.85,3.26,0.39,5.85
		c-0.54,2.13-0.73,4.09-0.78,4.72c-0.69,0.71-3.67,3.75-4.49,5.01c-1.99,3.04-0.34,6.23,0.47,7.47c0.39,2.29,1.68,4.12,1.77,4.24
		l0.05,0.08c0.17,0.23,0.51,0.26,0.71,0.05l1.15-1.17c0.29,3.62,3.06,4.41,3.09,4.42c0.55,0.17,0.72-0.4,0.72-0.4
		c0.2-0.53,4.57-12.93,5.38-15.4c1.87-5.74,2-18.65,1.47-33.73c-0.35-9.89,1.48-17.53,2.37-24.93c0.5-4.15,0.98-8.07,1.24-12.32
		C302.77,270.02,299.62,264.33,299.02,263.36z M290.79,236.13c0.05,0.07,3.24,4.51,5.34,10.01c0.07,0.19,0.14,0.38,0.21,0.57
		c0.03,0.09,0.07,0.19,0.1,0.28c0.07,0.19,0.13,0.37,0.19,0.56c0.77,2.31,1.3,4.74,1.3,7.09v8.13c-4.12-4.98-10.03-8.83-11.18-15.34
		c1.49-3.59,2.89-7.6,4.01-11.33L290.79,236.13z M272.79,160.31c0.72,0.45,1.55,0.83,2.41,1.23c2.62,1.21,5.58,2.57,7.01,6.2
		c2.36,5.98,6.29,20.11,5.4,25.79c-0.68,4.36-1.79,8.02-2.27,9.51c-2.34-2.55-4.83-4.99-7.72-6.83c-4.7-2.99-10.03-4-14.91-6.52
		c-7.8-4.03-8.86-16.46-2.23-22.81C264.28,163.25,268.13,160.98,272.79,160.31z M214.26,198.38c-0.34-8.88-2.07-18.51,0.16-27.25
		c1.83-7.18,6.25-12.47,12.51-15.95c3.66,2,7.78,3.32,12.06,3.99c3.78,0.58,12.25,1.87,18.84,0.74c0.83,5.67-6.83,6.05-10.05,6.24
		c-1.09,0.07-2.15,0.11-3.23,0.28c-2.28,0.36-5.38,0.58-7.36,1.95c-3.66,2.55-2.83,7.05-1.96,10.99c2.13,9.59,5.38,18.46,0.68,27.96
		c-3.39,6.87-8.02,13.1-12.33,19.41c-1.38,2.02-2.86,3.93-4.27,5.93c-1.02,1.44-5.01,4.45-4.98,1.42c0.04-3.85-0.22-7.71-0.27-11.56
		C213.95,214.49,214.56,206.41,214.26,198.38z M256.03,183.46c0.15,0.47,0.33,0.9,0.53,1.32c-4.05,4.92-9.43,8.14-15.44,10.16
		c-0.7-1.09-1.43-2.16-2.19-3.22c-0.04-0.05-0.08-0.08-0.13-0.1c-0.16-1.11-0.38-2.23-0.67-3.38c-1.41-5.56-6.66-18.05,1.74-20.18
		c1.09-0.28,2.19-0.46,3.29-0.59c4.54,2.03,8.55,4.88,11.99,8.49c0.01,0.01,0.02,0.01,0.03,0.02
		C254.97,178.32,255.21,180.83,256.03,183.46z M238.96,192.92c2.54,3.61,4.7,7.45,6.5,11.51c-2.88-0.35-5.57-1.01-7.33-1.58
		C238.98,199.65,239.29,196.38,238.96,192.92z M241.47,195.51c5.97-2.04,11.36-5.24,15.42-10.1c0.95,1.66,2.33,2.92,3.92,3.91
		c-0.35,1.82-1.18,6.13-2.18,11.15c-1.58,4-7.19,4.58-12.43,4.05C244.85,201.38,243.27,198.38,241.47,195.51z M265.54,155.93
		c0.4,0.16,0.81,0.29,1.23,0.43c1.51,0.48,3.08,0.99,4.67,2.85c0.17,0.19,0.36,0.37,0.56,0.54c-8.55,1.36-15.53,7.28-16.72,15.42
		c-3.17-3.24-6.8-5.87-10.87-7.83c2.78-0.25,5.57-0.29,8.29-0.89c3.71-0.81,6.26-3.25,5.79-6.67
		C261.55,159.18,264.12,158,265.54,155.93z M245.1,143.58c4.03,1.85,7.83,3.59,10.37,5.06c4.36,2.53,6.4,4.38,7.75,5.6
		c0.65,0.59,1.17,1.06,1.72,1.39c-5.44,7.93-29.41,2.59-34.92,0.35c-5.89-2.38-8.41-5.38-12.03-10.39
		c-3.55-4.92-3.95-9.28-4.07-15.16c-0.07-3.34-0.24-6.73-0.14-10.07c0-1,0.08-1.99,0.24-2.98c0.11-1.14,1.3-2.15,2.46-1.7
		c1.26,0.49,2.22,1.73,2.8,2.88c0.54,1.07,1.03,2.18,1.55,3.26c2.39,4.91,5.11,10.1,9.38,13.59
		C232.06,137.61,238.68,140.64,245.1,143.58z M198.94,120.52c0,0-0.75,2.98-1.7,6.22c-0.47-0.9-1.29-2.53-1.37-2.79
		c-0.73-2.53-0.47-6.68-0.47-6.73l0.16-2.56l-1.19,2.28c-0.01,0.03-0.38,0.69-1.08,0.61c-1.06-0.13-2.74-3.16-3.74-4.97
		c-0.5-0.91-0.94-1.7-1.31-2.23c-1.08-1.54-1.05-5.39,0.07-8.94c0.18-0.56,0.42-0.88,0.72-0.93c0.78-0.14,2.13,1.09,2.86,2.01
		l1.1,1.39l-0.13-1.76c-0.01-0.16-1.12-15.8,4.4-22.43c4.1-4.92,12.92-5.97,15.39-6.17c2.47,0.2,11.29,1.26,15.39,6.17
		c5.52,6.62,4.41,22.27,4.4,22.43l-0.13,1.76l1.1-1.39c0.73-0.92,2.09-2.15,2.86-2.01c0.3,0.06,0.54,0.37,0.72,0.93
		c1.12,3.55,1.15,7.4,0.07,8.94c-0.37,0.53-0.81,1.32-1.31,2.23c-1,1.81-2.68,4.84-3.74,4.97c-0.7,0.08-1.06-0.58-1.08-0.61
		l-1.19-2.28l0.16,2.56c0,0.04,0.26,4.19-0.47,6.73c-0.08,0.26-0.92,1.91-1.38,2.81c-0.95-3.25-1.7-6.24-1.7-6.24
		c0.06,0.43,1.3,9.13,2.93,13.22c-4.09-3.97-6.55-9.55-9.01-14.64c-0.56-1.15-2.91-6-5.22-4.62c-2.4,1.42-1.99,5.39-1.92,7.77
		c0.15,5.26-0.75,11.29,0.58,16.42c1.9,7.32,6.55,12.67,12.54,16.13c-5.53,3.14-10.4,8.03-12,14.31
		c-2.64,10.34-0.58,20.69-0.62,31.18c-0.05,11.24,0.32,22.58,0.05,33.8c-0.04,1.67,0.66,3.87,2.05,3.6
		c0.12,1.78,0.31,3.55,0.53,5.32c-0.7-1.32-1.87-3.33-2.85-4.31c-0.4-0.4-1.12-0.38-1.54,0.04c-0.95,0.95-2.02,2.64-2.78,3.97
		c0.2-1.67,0.38-3.35,0.5-5.03c1.39,0.27,2.09-1.93,2.05-3.6c-0.27-11.22,0.1-22.56,0.05-33.8c-0.04-10.49,2.01-20.84-0.62-31.18
		c-1.6-6.28-6.47-11.17-12-14.31c5.99-3.46,10.64-8.81,12.54-16.13c1.33-5.13,0.43-11.16,0.58-16.42c0.07-2.38,0.48-6.35-1.92-7.77
		c-2.31-1.37-4.66,3.47-5.22,4.62c-2.47,5.1-4.93,10.69-9.04,14.67C197.64,129.7,198.88,120.95,198.94,120.52z M216.54,245.08
		c1.11,7.75,3.01,15.43,5.18,22.9c0.83,2.87,1.84,10.3,5.51,12.23c2.62,2.06,1.96,5.37,1.71,6.44
		c-0.55,2.29-11.84,16.63-15.71,20.41c-0.3,0.29-0.86,0.3-1.17,0.01c-4.17-3.86-15.38-17.91-15.93-20.2
		c-0.26-1.07-0.82-4.51,1.85-6.59c3.78-1.81,4.8-9.39,5.64-12.3c2.21-7.6,4.14-15.42,5.24-23.31c0.86-1.77,2.19-3.87,3.03-4.97
		c0.6-0.79,1.06-0.71,1.61,0.08C214.21,240.82,215.69,243.26,216.54,245.08z M170.12,176c0.02-0.01,0.03-0.02,0.05-0.03
		c3.44-3.61,7.45-6.46,11.99-8.49c1.1,0.13,2.2,0.31,3.29,0.59c8.4,2.13,3.15,14.63,1.74,20.18c-0.29,1.15-0.51,2.28-0.67,3.38
		c-0.05,0.02-0.09,0.05-0.13,0.1c-0.76,1.05-1.49,2.12-2.19,3.22c-6.02-2.03-11.41-5.25-15.45-10.18c0.2-0.41,0.38-0.84,0.52-1.31
		C170.1,180.84,170.35,178.33,170.12,176z M183.86,195.51c-1.8,2.87-3.38,5.87-4.74,9.01c-5.11,0.53-10.59,0.02-12.35-3.68
		c-1.03-5.19-1.9-9.67-2.25-11.53c1.59-0.99,2.96-2.25,3.91-3.91C172.49,190.26,177.88,193.47,183.86,195.51z M186.38,192.92
		c-0.34,3.45-0.03,6.72,0.83,9.92c-1.75,0.57-4.45,1.23-7.33,1.59C181.67,200.37,183.84,196.54,186.38,192.92z M190.09,179.38
		c0.87-3.94,1.7-8.44-1.96-10.99c-1.98-1.38-5.08-1.6-7.36-1.95c-1.09-0.17-2.14-0.22-3.24-0.28c-3.22-0.19-10.88-0.58-10.05-6.24
		c6.59,1.13,15.06-0.16,18.84-0.74c4.28-0.66,8.4-1.99,12.06-3.99c6.26,3.47,10.68,8.76,12.51,15.95c2.23,8.75,0.5,18.37,0.16,27.25
		c-0.3,8.03,0.31,16.1,0.19,24.14c-0.06,3.85-0.31,7.71-0.27,11.56c0.03,3.03-3.96,0.03-4.98-1.42c-1.41-1.99-2.89-3.91-4.27-5.93
		c-4.32-6.31-8.98-12.52-12.38-19.39c-0.72-1.46-1.25-2.9-1.63-4.34c0,0,0-0.01,0-0.01C185.66,195.1,188.3,187.49,190.09,179.38z
		 M162.1,154.25c1.35-1.22,3.38-3.07,7.75-5.6c2.54-1.47,6.34-3.21,10.37-5.06c6.36-2.92,12.93-5.93,14.84-8.1
		c4.31-3.49,7.06-8.71,9.45-13.64c0.53-1.08,1.01-2.18,1.55-3.26c0.58-1.15,1.54-2.39,2.8-2.88c1.16-0.45,2.35,0.56,2.46,1.7
		c0.16,0.99,0.24,1.98,0.24,2.98c0.1,3.35-0.07,6.73-0.14,10.07c-0.12,5.88-0.52,10.24-4.07,15.16c-3.62,5.01-6.14,8-12.03,10.39
		c-5.52,2.23-29.5,7.58-34.93-0.36C160.94,155.3,161.45,154.84,162.1,154.25z M153.87,159.21c1.6-1.86,3.16-2.36,4.67-2.85
		c0.43-0.14,0.85-0.27,1.25-0.43c1.41,2.07,3.99,3.25,7.04,3.86c-0.48,3.42,2.08,5.87,5.79,6.67c2.73,0.59,5.51,0.64,8.29,0.89
		c-4.08,1.96-7.72,4.59-10.89,7.84c-1.17-8.15-8.17-14.08-16.72-15.44C153.51,159.58,153.7,159.4,153.87,159.21z M137.7,193.54
		c-0.89-5.68,3.04-19.81,5.4-25.79c1.43-3.63,4.4-4.99,7.01-6.2c0.86-0.4,1.69-0.78,2.41-1.23c4.66,0.67,8.51,2.94,12.3,6.57
		c6.63,6.35,5.57,18.78-2.23,22.81c-4.88,2.52-10.21,3.53-14.91,6.52c-2.89,1.84-5.38,4.28-7.72,6.83
		C139.48,201.56,138.38,197.9,137.7,193.54z M127.38,254.64c0-2.35,0.53-4.78,1.3-7.09c0.06-0.19,0.13-0.38,0.19-0.56
		c0.03-0.09,0.07-0.19,0.1-0.28c0.07-0.19,0.14-0.38,0.21-0.57c2.1-5.51,5.29-9.95,5.34-10.01l0.03-0.04
		c1.11,3.73,2.51,7.75,4.01,11.33c-1.15,6.52-7.06,10.36-11.18,15.34V254.64z M126.26,298.47c-0.27-1.75-0.52-3.47-0.73-5.17
		c-0.5-4.13-0.98-8.04-1.23-12.26c-0.02-0.27-0.03-0.54-0.04-0.81c-0.01-0.15-0.01-0.29-0.02-0.44c-0.01-0.2-0.01-0.4-0.02-0.59
		c0-0.13-0.01-0.26-0.01-0.39c0-0.21,0-0.41,0-0.61c0-0.12,0-0.23,0-0.35c0-0.23,0.01-0.45,0.01-0.67c0-0.08,0-0.17,0-0.25
		c0.23-8.37,2.76-12.64,3.03-13.08c3.9-5.22,10.07-9.02,11.72-15.44c0.32,0.74,0.64,1.46,0.96,2.14c0.39,0.84,0.87,1.33,1.41,1.59
		c-1.81,9.31-6.4,17.18-10.42,25.73C127.87,284.37,126.56,291.38,126.26,298.47z M143.39,252.25c0.04,5.29,1.95,10.14,5.5,14.06
		c-1.29,2.13-2.45,4.36-3.5,6.67c-3.19-5.01-4.69-10.63-4.37-16.61c0.37-1.31,0.7-2.64,0.97-4.02
		C142.43,252.41,142.9,252.36,143.39,252.25z M142.25,250.92c0.85-9.84,3.9-20.01,9.3-28.38c0.58-0.95,1.32-1.75,2.22-2.4
		c3.72-2.74,1.52,5.82,1.38,6.25c-0.65,2.06-1.36,4.09-1.98,6.16c-1.92,6.33-4.21,12.49-7.6,18.16c-0.13,0.04-0.26,0.07-0.39,0.11
		C143.95,251.14,143.01,251.16,142.25,250.92z M145.07,273.69c-3.43,7.81-5.43,16.45-5.81,25.02c-1.21,4.44-3.15,9.81-3.98,14.21
		c-0.39,2.07-0.64,4.18-1.06,6.25c-0.03,0.13-0.06,0.25-0.09,0.38c-0.01,0.04-0.02,0.07-0.03,0.11c-0.03,0.09-0.06,0.18-0.09,0.27
		c-1.07,2.9-4.5,4.33-4.94-0.33c-1.07-11.38-0.28-24.67,0.52-35.96c0.87-2.78,1.95-5.52,3.28-8.24c2.79-5.69,5.58-11.03,7.5-16.84
		C140.46,263.98,142.05,269.11,145.07,273.69z M136.44,362.84c0,2.42-1.19,3.43-1.87,3.81c-0.58-1.53-2.26-6.09-3.57-9.81l5.44,5.57
		C136.44,362.55,136.44,362.74,136.44,362.84z M138.87,363.33l-8.7-8.89c-0.39-1.15-0.69-2.08-0.81-2.57
		c-0.28-1.09-0.51-2.29-0.72-3.6c1.07,1.97,2.62,4.25,4.23,5.94c3.16,3.32,6.51,6.16,7.06,6.62
		C139.64,361.87,139.18,362.78,138.87,363.33z M143.08,323.01c2.31,3.67,2.94,7.22,3.24,12.54l0.08,1.43
		c0.02,2.55-0.08,5.33-0.29,7.41c-0.17,1.7-1.55,2.7-2.86,0.62c-0.89-1.4-1.15-3.34-1.4-5.21c-0.32-2.38-0.62-4.63-2.21-5.65
		c-0.24-0.15-0.5-0.22-0.77-0.21c0.97-1.3,1.89-2.38,2.28-2.92c-1.85,0.66-5.91,3.96-6.08,7.51c-0.23,1.21-0.22,2.62,0.12,4.19
		c-0.01,0.06,0,0.13,0.02,0.21c0.7,2.6,0.87,5.1,0.88,5.13c0.22,0.84,3.8,4.02,4.65,5.33c1.68,2.56,0.24,5.24-0.46,6.28
		c-1.07-0.91-3.91-3.4-6.61-6.23c-2.72-2.85-5.13-7.41-5.48-8.93c-0.63-6.55-0.65-15.23-0.27-26.12c0.21-5.95-0.36-11.08-1.04-15.83
		c-0.03-5.2,0.48-10.21,1.65-15.11c-0.46,7.41-0.67,14.81-0.47,22.24c0.04,1.51-0.47,13.47,1.76,14.19c2.3,0.74,4.26-1.57,4.84-3.3
		c0.96-2.87,1.04-6.23,1.6-9.2c0.57-3.03,1.87-6.73,2.93-10.08c-0.04,6.64,0.9,13.18,2.92,19.22
		C142.32,321.46,142.63,322.29,143.08,323.01z M154.18,272.55c-0.19,4.56-3.24,12.64-6.2,20.46c-2.64,6.98-5.05,13.58-5.64,17.68
		c-0.32,2.21-0.54,4.26-0.57,6.11c-4.59-18.52-0.2-40.72,11.51-55.69C153.64,262.3,154.46,265.84,154.18,272.55z M156,254.38
		c-0.51,3.23-2.74,5.67-2.76,5.69c0,0-2.83,3.78-3.99,5.65c-3.41-3.82-5.21-8.51-5.2-13.65c1.07-0.34,2.21-0.9,3.32-1.21
		c4.51-1.29,7.2-3.72,9.15-6.9c-0.1,0.51-0.15,0.84-0.17,0.93C156.36,244.94,156.53,251.03,156,254.38z M161.2,229.26
		c-2.06,3.4-3.47,9.04-4.24,12.57c-1.79,3.6-4.26,6.59-8.85,8.13c-0.54,0.18-1.09,0.34-1.65,0.49c3.97-6.91,6.09-14.38,8.64-21.98
		c0.33-0.99,3.63-9.7-0.39-9.26c-3.88,0.42-6.06,7-7.37,9.92c-3.09,6.87-5.04,14.03-5.72,21.52c-1.09-0.62-1.79-1.87-2.53-3.52
		c-1.63-3.65-3.22-8.64-4.38-12.82c0.23-3.75,0.9-13.47,1.89-18.31c1.24-6.03,3.57-11.8,3.59-11.86l0.2-0.29
		c5.39-5.44,10.89-9.31,18.67-12.07c1.52-0.54,3.05-1.14,4.46-1.9c0.75,3.91,3.01,15.61,4.93,24.5
		C167.55,217.03,163.98,224.68,161.2,229.26z M176.37,236.19c-0.53-1.53-1.21-3.31-1.91-5.14c-0.9-2.37-1.84-4.81-2.57-7
		c-0.96-2.87-3.05-12.89-4.8-21.59c4.08,4.71,15.43,2.59,20.28,1.01c0.87,2.98,2.21,5.92,3.95,8.91
		c4.84,8.27,10.59,16.56,16.59,24.04c0.37,0.46,0.71,0.78,1.02,0.99c-0.56,8.32-2.28,16.65-4.34,24.71
		c-0.87,3.42-1.95,6.8-2.88,10.21c-0.65,2.38-1.37,5.24-3.45,6.84c-3.06,2.34-4.48-2.11-4.89-4.46c-1.19-6.78-4.94-13.84-7.92-20.01
		C182.5,248.55,179.53,242.27,176.37,236.19z M177.43,240.15c1.02,2.31,2.02,4.62,3.22,6.99c2.71,5.36,5.61,10.49,7.93,16.05
		c2.1,5.04,3.61,9.78,4.6,15.12c0.11,0.57,0.25,0.99,0.46,1.33c-4.97-1.26-8.83-5.39-12.82-8.55c-1.62-1.28-2.64-3.01-3.25-4.92
		c0.02-0.09,0.03-0.18,0.03-0.25c0-0.16,0-0.67,0.01-1.43C177.66,259.28,177.81,244.12,177.43,240.15z M171.95,281.69
		c-0.54-4.33,2.49-9.69,4.3-12.89c0.5-0.88,0.84-1.5,1.06-1.96c0.51,1.31,1.2,2.58,2.13,3.77c2.19,2.82,6.03,5.31,8.93,7.35
		c1.06,0.74,2.1,1.31,3.17,1.75c-5.45,4.14-13.13,5.42-17.81,10.22l0.04-0.12l-0.11-0.2C173.65,289.58,172.7,287.77,171.95,281.69z
		 M173.15,291.83c7.71-5.65,15.88-8.68,23.14,0.03c3.19,3.82,6.29,7.72,8.98,11.86c-2.89-2.58-6.98-3.36-12.85-0.89
		c-3.66,1.54-7.13,3.75-10.61,5.64c-0.9,0.49-5.86,2.25-5.9,4.17c-2.48,1.54-4.66,3.45-6.54,5.69c0.04-0.71,0.05-1.37,0.01-1.98
		C168.83,307.73,171.87,296.21,173.15,291.83z M160.26,366.58c0.96-13.08,3.83-24.44,6.12-33.56c1.37-5.43,2.52-10,2.9-13.54
		c1.9-2.43,4.14-4.48,6.72-6.12c0.64,3.65,2.88,6.59,3.26,10.51c0.55,5.64-1.68,11.37-3.47,16.61c-0.52,1.53-2.66,6.68-2.84,10.48
		l-0.03,0.03c-7.03,16.29-9.17,33.48-11.6,50.82C160.24,389.68,159.53,376.49,160.26,366.58z M161.58,404.61
		c2.53-17.75,4.47-35.41,11.43-52.12c0.17,1.25,0.68,2.2,1.73,2.6c2.1,0.8,4.09,0.45,6.2-0.22c1.82-0.58,3.63-1.19,5.44-1.82
		c1.11,5.09,0.39,11,0.03,15.87c-0.67,8.94-2.1,17.85-3.86,26.63c-2.96,14.8-9.01,28.76-15.09,42.61c-0.7,1.5-1.38,3.05-2.03,4.63
		c-0.23,0.52-0.45,1.04-0.68,1.55c-0.03-0.19-0.05-0.37-0.06-0.54c-0.2-2.83,0-4.34,0.18-5.67c0.14-1.03,0.27-2,0.19-3.37
		c-0.03-0.56-0.25-2.28-0.59-4.88C163.77,424.5,162.56,415.1,161.58,404.61z M178.84,411c-0.08,10.27,5.48,20.7,8.79,29.13
		c-3.34,4.78-5.93,9.86-7.9,15.19c-0.18-8.6-3.32-16.69-9.03-23.26C173.64,425.11,176.46,418.13,178.84,411z M162.05,455.01
		c0.02-0.06,0.05-0.11,0.07-0.17c1.37-4.12,3.96-11.27,5.73-16.12c0.86-2,1.72-3.99,2.57-5.99c5.9,6.89,8.91,15.42,8.65,24.45
		c-2.47,7.3-3.81,15.04-4.29,23.1c-0.34,5.69-0.46,11.41-0.48,17.14c-2.94,3.81-9.49,2.59-10.33-2.92c0-0.03-0.02-0.05-0.03-0.07
		C161.87,481.31,160.35,468.17,162.05,455.01z M163.15,536.29c1.69-6.42,0.92-13.32,0.18-20l-0.1-0.87
		c-0.58-3.69-1.28-7.43-1.95-11.06c-3.05-16.39-5.93-31.92-0.14-47.11c-1.24,12.45,0.25,24.88,2.22,37.29
		c-0.01,0.04-0.01,0.08-0.01,0.12c0.03,0.22,0.08,0.43,0.13,0.64c1.76,11,3.86,21.99,4.72,32.95c-1.22,4.26-3.27,8.11-6.12,11.45
		C162.42,538.77,162.79,537.65,163.15,536.29z M181.7,541.65c-0.02,0.94-0.51,1.91-1.03,2.95c-0.26,0.52-0.52,1.05-0.73,1.59
		c-1.91-8.19-1.72-16.59,0.57-24.64C179.62,528.11,179.81,534.79,181.7,541.65z M181.21,517.35c-3.74,9.9-4.4,20.5-1.68,30.7
		c0,0.02,0,0.03,0,0.05l0.03,0.17c0.11,0.34,0.23,0.7,0.34,1.06c0.11,0.38,0.22,0.76,0.35,1.14c0.58,1.95,1.14,4.06,1.66,5.99
		c0.23,0.86,0.45,1.68,0.65,2.42c0.04,0.15,3.89,14.67-1.14,17.81c-5.1,3.18-13.19,2.41-15.41,1.58c-0.95-0.36-2.72-1.57-4.43-2.75
		c-2.13-1.47-4.33-2.98-5.65-3.37c-5.4-1.59-11.22-3.77-12.05-5.07c-1.08-1.67-0.88-2.95-0.87-3l0.09-0.52l-0.52-0.11
		c-0.03-0.01-2.79-0.6-2.79-2.01c0-1.73,0.43-2.19,0.63-2.41c0.3-0.32,1.72-1.04,3.78-0.79l-2.52,1.56c0,0,1.36,0.66,3.99-1.06
		c3.2-2.09,6.21-3.16,8.2-4.29c2.96-1.68,4.51-4.25,5.17-5.59c0.46,1.22,1.06,2.32,1.49,3.07c0.16,0.27,0.31,0.54,0.45,0.8
		c0,0-2.33-6.43-1.06-8.72c0.07-0.13,0.16-0.27,0.26-0.44c0.29-0.47,0.68-1.12,1.13-2.06c3.18-3.31,5.54-7.19,7.01-11.5
		c0.66,10.05,0.22,20.08-2.55,30.09c-0.11,0.41,1.87-4.86,2.3-7.37c3.08-18.34-0.6-36.74-3.62-55.18c2.24,3.28,7.09,3.6,9.86,0.79
		c0,5.56,0.1,11.11,0.19,16.64c0.04,2.25,0.15,4.43,0.33,6.58c0,0,0.34-5.69,0.29-8.66c-0.05-2.84-0.08-5.68-0.09-8.52
		c2.06,3.03,6.5,3.88,9.43,1.39C183.13,509.59,182,513.45,181.21,517.35z M192.93,460.92c1.26,4.24,2.45,8.24,2.89,12.22
		c0,2.81-0.97,5.71-1.9,8.52c-0.48,1.43-0.97,2.92-1.31,4.3l-0.92,2.1c-2.33,5.32-4.69,10.69-6.67,16.14
		c-2.78,3.76-8.31,2.84-9.99-1.06c-0.01-7.05,0.08-14.1,0.32-21.14c0.29-8.51,1.62-16.75,4.24-24.49c0.05-0.1,0.09-0.19,0.13-0.29
		c0-0.03,0-0.06,0-0.08c1.98-5.73,4.67-11.19,8.18-16.28c0.51,1.32,0.95,2.59,1.3,3.8C189.48,450.47,191.36,455.61,192.93,460.92z
		 M190.92,449.48c-0.98-3.73-1.75-6.72-1.75-6.72c0,0.03,0,0.07,0,0.1c-0.02-0.12-0.05-0.22-0.07-0.3
		c-3.86-11.84-10.88-21.85-9.62-33.47c1.79-5.54,3.3-11.18,4.39-16.97c1.6-8.46,2.78-17.02,3.35-25.61
		c0.28-4.26,0.69-9.23-0.25-13.65c3.09-1.07,6.18-2.17,9.3-3.15c0.97-0.31,1.94-0.64,2.88-1c-3.94,11.36-3.55,22.87-1.78,34.38
		c-7.05,18.56,2.15,39.51-2.14,58.67C193.94,444.4,192.46,447.05,190.92,449.48z M201.44,411.19c-0.67,7.94-1.3,15.43-1.99,19.17
		c-0.44,2.38-1.59,5.65-3.16,9.12c2.95-18.13-4.8-37.65,1.27-55.11c1.17,7.22,2.85,14.45,4.31,21.63
		C201.73,407.77,201.58,409.51,201.44,411.19z M211.15,351.82c-0.33,2.59-1.35,6.96-2.54,12.02c-1.75,7.46-3.93,16.75-4.99,25
		c-0.58,4.5-1.08,9.76-1.54,14.96c-3.85-18.46-8.66-37.12-2.13-55.4c4.09-1.61,7.82-3.81,10.33-7.66c0.18-0.28,0.34-0.57,0.5-0.86
		C211.1,341.85,211.77,346.9,211.15,351.82z M210.78,337.88c-1.47,6.55-9.09,9.39-14.69,11.19c-5.45,1.72-10.8,3.74-16.24,5.46
		c-10.52,3.32-3.65-13.17-2.17-17.6c1.53-4.59,2.95-9.96,2.06-14.84c-0.43-2.33-1.1-4.33-2.2-6.41c-2.43-4.6,5.63-7.2,8.21-8.6
		c6.13-3.32,13.87-8.43,20.05-2.55c1.34,2.13,2.57,4.32,3.65,6.6c0.7,2.4,1.07,4.93,1.43,7.15
		C211.92,324.73,212.21,331.49,210.78,337.88z M212.67,329.05c-0.07-3.17-0.46-6.29-0.83-8.75c-0.78-5.2-2.05-10.56-4.55-14.25
		c-3.71-7.17-7.81-11.79-12.78-17.23c-5.93-6.49-14.08-2.84-20.21,1.39c4.72-4.77,12.62-6.04,17.97-10.24
		c0.95,0.32,1.95,0.52,3.04,0.63c0.13,0.02,0.25,0.05,0.39,0.06c0.3,0.04,0.59,0.03,0.87,0c-1.49,1.86-1.64,4.35-1.16,6.37
		c0.64,2.68,6.36,10.26,16.65,21.17c0.28,0.29,0.76,0.34,1.05,0.06c10.66-10.73,15.89-18.76,16.54-21.44
		c0.47-1.98,0.42-4.35-0.95-6.15c0.3,0.03,0.61,0.03,0.94,0c0.14-0.02,0.27-0.04,0.39-0.06c1.08-0.1,2.08-0.31,3.04-0.63
		c5.36,4.21,13.28,5.47,18,10.26c-6.14-4.23-14.3-7.91-20.24-1.41c-4.97,5.44-9.07,10.05-12.77,17.22
		c-2.5,3.69-3.78,9.05-4.56,14.25C213.12,322.77,212.73,325.88,212.67,329.05z M247.72,264.47c0.01,0.76,0.01,1.27,0.01,1.43
		c0,0.08,0.01,0.16,0.03,0.25c-0.61,1.92-1.63,3.64-3.25,4.92c-3.99,3.16-7.85,7.29-12.82,8.55c0.21-0.33,0.35-0.76,0.46-1.33
		c0.99-5.35,2.5-10.08,4.6-15.12c2.32-5.56,5.21-10.69,7.93-16.05c1.18-2.34,2.19-4.67,3.22-7.01
		C247.52,244.07,247.67,259.27,247.72,264.47z M214.45,318.29c0.36-2.22,0.73-4.75,1.43-7.15c1.08-2.28,2.31-4.47,3.65-6.6
		c6.18-5.89,13.93-0.78,20.05,2.55c2.58,1.4,10.63,4,8.21,8.6c-1.1,2.08-1.77,4.08-2.2,6.41c-0.9,4.88,0.52,10.25,2.06,14.84
		c1.48,4.44,8.35,20.93-2.17,17.6c-5.44-1.72-10.79-3.74-16.24-5.46c-5.59-1.8-13.22-4.65-14.68-11.19
		C213.12,331.49,213.41,324.73,214.45,318.29z M221.72,388.84c-1.06-8.25-3.24-17.54-4.99-25c-1.19-5.06-2.21-9.43-2.54-12.02
		c-0.63-4.92,0.05-9.97,0.37-11.94c0.16,0.3,0.32,0.59,0.5,0.86c2.51,3.86,6.24,6.05,10.33,7.66c6.53,18.27,1.72,36.93-2.13,55.4
		C222.8,398.6,222.29,393.34,221.72,388.84z M225.88,430.36c-0.69-3.74-1.32-11.24-1.98-19.17c-0.14-1.69-0.29-3.42-0.44-5.18
		c1.46-7.19,3.13-14.41,4.31-21.64c6.07,17.45-1.67,36.98,1.27,55.11C227.47,436.01,226.31,432.75,225.88,430.36z M230.1,441.76
		c-4.29-19.17,4.91-40.11-2.14-58.67c1.77-11.51,2.15-23.02-1.78-34.38c0.95,0.35,1.91,0.68,2.89,1c3.12,0.99,6.2,2.08,9.3,3.15
		c-0.94,4.42-0.53,9.39-0.25,13.65c0.57,8.59,1.75,17.15,3.35,25.61c1.09,5.78,2.61,11.42,4.39,16.96
		c1.26,11.63-5.83,21.73-9.69,33.57c-0.03,0.08-0.81,3.12-1.78,6.81C232.85,447.03,231.38,444.38,230.1,441.76z M246.49,411.01
		c2.43,7.25,5.29,14.35,8.29,21.42c-5.43,5.79-9.01,15.41-8.92,23.61c-2-5.59-4.67-10.92-8.16-15.91
		C241.02,431.7,246.57,421.28,246.49,411.01z M240.29,504.17c-1.98-5.44-4.33-10.81-6.66-16.12l-0.92-2.1
		c-0.34-1.38-0.83-2.87-1.31-4.3c-0.94-2.81-1.9-5.71-1.9-8.52c0.45-3.98,1.63-7.98,2.89-12.22c1.6-5.39,3.75-10.73,3.98-16.66
		c0-0.78,0.58-2.17,1.05-3.4c8.33,12.07,12.05,26.18,12.56,41.14c0.24,7.04,0.34,14.09,0.32,21.14
		C248.62,507.04,243.06,507.96,240.29,504.17z M244.65,544.6c-0.52-1.03-1-2.01-1.03-2.95c1.89-6.86,2.08-13.55,1.2-20.1
		c2.28,8.05,2.48,16.45,0.57,24.64C245.17,545.65,244.91,545.12,244.65,544.6z M265.15,543.57c0.11,0.17,0.19,0.32,0.26,0.44
		c1.27,2.29-1.06,8.72-1.06,8.72c0.14-0.26,0.29-0.53,0.45-0.8c0.43-0.75,1.04-1.85,1.49-3.07c0.66,1.34,2.21,3.91,5.17,5.59
		c1.98,1.12,5,2.2,8.2,4.29c2.64,1.72,3.99,1.06,3.99,1.06l-2.52-1.56c2.06-0.24,3.48,0.48,3.78,0.79c0.21,0.22,0.63,0.68,0.63,2.41
		c0,1.41-2.76,2.01-2.79,2.01l-0.52,0.11l0.09,0.52c0.01,0.05,0.2,1.33-0.87,3c-0.83,1.3-6.65,3.48-12.05,5.07
		c-1.32,0.39-3.52,1.9-5.65,3.37c-1.71,1.18-3.49,2.4-4.43,2.75c-2.22,0.83-10.31,1.6-15.41-1.58c-5.03-3.15-1.18-17.67-1.14-17.81
		c0.2-0.74,0.42-1.56,0.65-2.42c0.51-1.93,1.08-4.05,1.66-5.99c0.12-0.38,0.23-0.76,0.35-1.14c0.11-0.36,0.23-0.72,0.34-1.06
		l0.03-0.17c0-0.02,0-0.03,0-0.05c2.72-10.2,2.06-20.8-1.68-30.7c-0.79-3.91-1.92-7.77-3.25-11.59c2.94,2.51,7.38,1.66,9.45-1.37
		c-0.01,2.84-0.04,5.68-0.09,8.52c-0.05,2.97,0.29,8.66,0.29,8.66c0.18-2.15,0.29-4.33,0.33-6.58c0.1-5.53,0.19-11.09,0.19-16.64
		c2.77,2.8,7.61,2.48,9.85-0.79c-3.02,18.44-6.7,36.83-3.62,55.17c0.42,2.52,2.41,7.78,2.3,7.37c-2.77-10.01-3.21-20.04-2.55-30.09
		c1.48,4.31,3.83,8.18,7.01,11.5C264.47,542.45,264.86,543.1,265.15,543.57z M264.05,504.37c-0.67,3.62-1.37,7.37-1.95,11.06
		l-0.1,0.87c-0.75,6.68-1.52,13.58,0.18,20c0.36,1.36,0.72,2.48,1.08,3.42c-2.85-3.34-4.9-7.19-6.12-11.45
		c0.86-10.93,2.95-21.88,4.7-32.85c0.06-0.24,0.11-0.48,0.15-0.74c0.01-0.06,0-0.11-0.01-0.15c1.97-12.4,3.46-24.82,2.21-37.26
		C269.98,472.45,267.1,487.97,264.05,504.37z M263.2,454.84c0.03,0.06,0.05,0.11,0.07,0.17c1.7,13.16,0.18,26.31-1.89,39.43
		c-0.01,0.02-0.02,0.03-0.02,0.06c-0.84,5.52-7.39,6.74-10.33,2.92c-0.01-5.72-0.13-11.44-0.48-17.14
		c-0.47-7.78-1.74-15.26-4.04-22.34l0.01,0c-0.73-8.35,2.84-18.76,8.51-24.94c0.79,1.86,1.59,3.72,2.39,5.58
		C259.19,443.43,261.82,450.68,263.2,454.84z M260.87,429.9c-0.33,2.6-0.55,4.32-0.59,4.88c-0.08,1.38,0.05,2.35,0.19,3.37
		c0.18,1.33,0.38,2.84,0.18,5.67c-0.01,0.17-0.04,0.35-0.06,0.54c-0.3-0.68-0.59-1.36-0.89-2.04c-0.54-1.29-1.1-2.57-1.67-3.81
		c-6.13-13.96-12.25-28.04-15.24-42.96c-1.76-8.79-3.19-17.69-3.86-26.63c-0.36-4.87-1.08-10.78,0.03-15.87
		c1.81,0.63,3.62,1.24,5.44,1.82c2.11,0.67,4.09,1.01,6.19,0.22c1.05-0.4,1.57-1.36,1.73-2.6c6.96,16.71,8.9,34.37,11.43,52.12
		C262.77,415.09,261.56,424.5,260.87,429.9z M258.94,333.02c2.3,9.13,5.16,20.49,6.13,33.56c0.73,9.91,0.02,23.1-1.06,35.23
		c-2.43-17.34-4.57-34.53-11.6-50.82l-0.03-0.03c-0.18-3.8-2.32-8.95-2.84-10.48c-1.79-5.24-4.02-10.98-3.46-16.61
		c0.38-3.92,2.61-6.86,3.26-10.51c2.57,1.64,4.82,3.7,6.72,6.12C256.43,323.02,257.58,327.59,258.94,333.02z M255.94,316.35
		c-0.04,0.61-0.03,1.27,0.01,1.98c-1.88-2.24-4.06-4.15-6.54-5.69c-0.04-1.92-4.99-3.68-5.9-4.17c-3.49-1.89-6.95-4.1-10.61-5.64
		c-5.87-2.47-9.96-1.69-12.85,0.89c2.69-4.14,5.8-8.04,8.98-11.86c7.26-8.71,15.43-5.68,23.14-0.03
		C253.46,296.21,256.5,307.73,255.94,316.35z M249.08,268.8c1.81,3.2,4.84,8.56,4.3,12.89c-0.75,6.08-1.7,7.89-1.71,7.91l-0.11,0.2
		l0.04,0.12c-4.68-4.8-12.36-6.08-17.81-10.22c1.08-0.43,2.11-1,3.17-1.75c2.91-2.04,6.74-4.53,8.93-7.35
		c0.93-1.2,1.62-2.46,2.13-3.78C248.24,267.3,248.58,267.92,249.08,268.8z M253.44,224.05c-0.73,2.19-1.66,4.64-2.57,7
		c-0.7,1.83-1.38,3.61-1.91,5.14c-3.16,6.08-6.13,12.36-9.09,18.49c-2.98,6.17-6.73,13.23-7.92,20.01c-0.41,2.35-1.83,6.8-4.89,4.46
		c-2.08-1.6-2.8-4.46-3.45-6.84c-0.94-3.41-2.01-6.78-2.88-10.21c-2.06-8.06-3.78-16.39-4.34-24.71c0.32-0.21,0.66-0.53,1.03-0.99
		c6-7.48,11.76-15.76,16.59-24.04c1.74-2.98,3.08-5.92,3.95-8.9c4.88,1.58,16.25,3.7,20.29-1.06
		C256.5,211.12,254.39,221.17,253.44,224.05z M263.99,229.18c-2.74-4.35-6.21-12.04-7.12-14.75c1.92-8.89,4.18-20.62,4.94-24.54
		c1.41,0.75,2.93,1.36,4.44,1.89c7.78,2.76,13.42,6.66,18.81,12.11l-0.02,0.06l0.08,0.19c0.02,0.06,2.35,5.82,3.59,11.86
		c1,4.84,1.66,14.56,1.89,18.31c-1.16,4.18-2.75,9.16-4.38,12.82c-0.74,1.65-1.44,2.91-2.53,3.52c-0.68-7.5-2.63-14.65-5.72-21.52
		c-1.31-2.92-3.49-9.5-7.37-9.92c-4.02-0.44-0.72,8.27-0.39,9.26c2.55,7.6,4.67,15.07,8.64,21.98c-0.55-0.15-1.11-0.31-1.65-0.49
		c-4.59-1.54-7.04-4.43-8.83-8.04C267.61,238.39,266.11,232.55,263.99,229.18z M292.45,275.38c1.33,2.72,2.42,5.46,3.28,8.24
		c0.8,11.3,1.59,24.58,0.52,35.96c-0.44,4.66-3.87,3.23-4.94,0.33c-0.03-0.09-0.06-0.18-0.09-0.27c-0.01-0.04-0.02-0.07-0.03-0.11
		c-0.04-0.12-0.07-0.25-0.09-0.38c-0.42-2.07-0.67-4.18-1.06-6.25c-0.83-4.39-2.76-9.76-3.98-14.21
		c-0.38-8.57-2.38-17.21-5.82-25.02c3.81-5.61,4.68-11.53,4.83-14.81C286.99,264.55,289.72,269.8,292.45,275.38z M284.32,256.41
		c0.03,0.34,0.67,8.64-4.45,16.48c-1.03-2.27-2.17-4.48-3.44-6.58c3.55-3.91,5.46-8.76,5.5-14.06c0.49,0.11,0.96,0.16,1.4,0.09
		C283.59,253.74,283.94,255.08,284.32,256.41z M280.14,250.81c-0.13-0.04-0.26-0.07-0.39-0.11c-3.39-5.67-5.68-11.83-7.6-18.16
		c-0.63-2.07-1.33-4.1-1.98-6.16c-0.14-0.43-2.33-8.99,1.38-6.25c0.9,0.65,1.64,1.45,2.22,2.4c5.39,8.37,8.44,18.54,9.3,28.38
		C282.3,251.16,281.36,251.14,280.14,250.81z M269.31,254.38c-0.53-3.35-0.36-9.44-0.36-9.5c-0.01-0.09-0.07-0.42-0.17-0.93
		c1.96,3.18,4.64,5.61,9.15,6.9c1.12,0.32,2.25,0.87,3.32,1.21c0,5.14-1.79,9.83-5.2,13.65c-1.16-1.87-2.87-4.33-3.99-5.65
		C272.05,260.04,269.82,257.6,269.31,254.38z M277.33,293c-2.95-7.82-6.01-15.9-6.2-20.46c-0.28-6.7,0.54-10.25,0.89-11.44
		c11.71,14.97,16.1,37.16,11.51,55.69c-0.02-1.85-0.25-3.9-0.57-6.11C282.38,306.58,279.97,299.98,277.33,293z M290.74,366.65
		c-0.67-0.38-1.87-1.38-1.87-3.81c0-0.1-0.01-0.29-0.01-0.44l5.44-5.57C293,360.56,291.32,365.12,290.74,366.65z M295.95,351.86
		c-0.13,0.5-0.42,1.42-0.81,2.57l-8.7,8.89c-0.32-0.55-0.78-1.45-1.06-2.51c0.55-0.46,3.9-3.3,7.06-6.62
		c1.61-1.69,3.16-3.97,4.23-5.94C296.46,349.57,296.23,350.78,295.95,351.86z M297.4,318.4c0.38,10.89,0.36,19.57-0.27,26.12
		c-0.35,1.53-2.76,6.08-5.48,8.93c-2.7,2.83-5.54,5.32-6.61,6.23c-0.7-1.04-2.14-3.73-0.46-6.28c0.86-1.31,4.44-4.49,4.65-5.33
		c0.01-0.03,0.17-2.53,0.88-5.13c0.02-0.08,0.02-0.14,0.02-0.21c0.34-1.57,0.35-2.98,0.12-4.19c-0.17-3.55-4.24-6.85-6.08-7.51
		c0.39,0.53,1.31,1.62,2.28,2.92c-0.27-0.01-0.53,0.06-0.77,0.21c-1.59,1.02-1.89,3.27-2.21,5.65c-0.25,1.87-0.51,3.81-1.4,5.21
		c-1.32,2.08-2.69,1.09-2.86-0.62c-0.21-2.09-0.31-4.86-0.29-7.41l0.08-1.43c0.29-5.32,0.92-8.87,3.24-12.54
		c0.45-0.72,0.77-1.55,0.97-2.48c2.02-6.04,2.96-12.58,2.92-19.22c1.05,3.35,2.35,7.05,2.93,10.08c0.56,2.97,0.64,6.32,1.6,9.2
		c0.58,1.73,2.54,4.03,4.84,3.3c2.23-0.72,1.72-12.68,1.76-14.19c0.2-7.42,0-14.83-0.47-22.24c1.16,4.9,1.67,9.92,1.65,15.11
		C297.75,307.32,297.19,312.45,297.4,318.4z M301.1,278.2c0,0.2,0,0.4,0,0.61c0,0.13-0.01,0.26-0.01,0.39c0,0.2-0.01,0.39-0.02,0.59
		c-0.01,0.14-0.01,0.29-0.02,0.44c-0.01,0.27-0.02,0.54-0.04,0.81c-0.26,4.22-0.73,8.12-1.23,12.26c-0.21,1.7-0.46,3.42-0.73,5.17
		c-0.3-7.09-1.61-14.1-4.66-20.6c-4.02-8.55-8.61-16.42-10.42-25.73c0.54-0.26,1.01-0.75,1.41-1.59c0.32-0.69,0.64-1.4,0.96-2.14
		c1.64,6.42,7.81,10.22,11.72,15.44c0.28,0.44,2.81,4.71,3.03,13.08c0,0.08,0,0.17,0,0.25c0.01,0.22,0.01,0.44,0.01,0.67
		C301.1,277.97,301.1,278.09,301.1,278.2z"/>
</g>
</svg>
