<?xml version="1.0" encoding="utf-8"?>
<!-- Generator: Adobe Illustrator 26.0.1, SVG Export Plug-In . SVG Version: 6.00 Build 0)  -->
<svg version="1.1" id="Layer_1" xmlns="http://www.w3.org/2000/svg" xmlns:xlink="http://www.w3.org/1999/xlink" x="0px" y="0px"
	 viewBox="0 0 432 648" style="enable-background:new 0 0 432 648;" xml:space="preserve">
<style type="text/css">
	.st0{display:none;opacity:0.5;fill:none;stroke:#231F20;stroke-width:0.05;stroke-miterlimit:10;}
	.st1{display:none;fill:#E9E7E9;}
	.st2{fill:#FFFFFF;stroke:#000000;stroke-width:0.1;stroke-miterlimit:10;}
</style>
<path class="st0" d="M418.44,444.92c-2.94,1.51-8.31,5.17-9.04,17.27"/>
<path class="st1" d="M562.07,173.97c-0.08-0.8-0.2-1.58-0.4-2.32c0.51-5.35-0.03-10.79-0.55-16.08c-0.09-0.87-0.17-1.74-0.25-2.61
	c-0.44-4.73-0.94-9.57-1.48-14.43c0.11,0.05,0.23,0.1,0.34,0.15c0.12,0.05,0.23,0.09,0.35,0.13c0.65,5.8,1.19,11.13,1.63,16.16
	c0.06,0.69,0.12,1.39,0.19,2.08C562.41,162.59,562.93,168.32,562.07,173.97"/>
<g id="White_00000080191433879531514690000012910509714976131205_">
	<path class="st2" d="M300.4,263.91v-8.77c0-8.56-6.4-17.88-7.3-19.15c-0.09-1.64-0.8-14.09-2.01-19.98
		c-1.14-5.55-3.18-10.87-3.6-11.94c0.32-0.94,1.71-5.16,2.51-10.29c0.92-5.91-3.09-20.42-5.5-26.54c-1.6-4.06-4.94-5.6-7.62-6.84
		c-1.45-0.67-2.7-1.25-3.41-2.07c-1.81-2.11-3.61-2.69-5.2-3.2c-0.42-0.13-0.82-0.26-1.21-0.42c-0.61-0.24-1.15-0.73-1.97-1.48
		c-1.39-1.26-3.49-3.17-7.99-5.78c-2.6-1.51-6.45-3.27-10.53-5.14c-6.11-2.8-13.04-5.97-14.66-7.97c-0.66-0.81-1.61-3.55-2.48-6.41
		c0.5-0.98,1.86-3.67,1.98-4.08c0.53-1.82,0.58-4.31,0.56-5.82c0.3,0.14,0.67,0.22,1.11,0.17c1.5-0.18,2.91-2.52,4.59-5.56
		c0.47-0.85,0.92-1.66,1.26-2.14c1.46-2.08,1.14-6.58,0.07-9.96c-0.31-0.98-0.84-1.55-1.57-1.69c-1-0.18-2.1,0.58-2.89,1.3
		c0.15-4.2,0.09-16.03-4.76-21.86c-4.18-5.02-12.54-6.26-15.71-6.56h-1.25c-3.17,0.3-11.53,1.55-15.71,6.56
		c-4.85,5.83-4.91,17.65-4.76,21.86c-0.79-0.72-1.88-1.48-2.89-1.3c-0.73,0.13-1.26,0.7-1.57,1.69c-1.06,3.37-1.38,7.88,0.07,9.96
		c0.34,0.49,0.79,1.29,1.26,2.14c1.68,3.04,3.09,5.38,4.59,5.56c0.44,0.06,0.81-0.03,1.11-0.17c-0.02,1.51,0.04,4,0.56,5.82
		c0.12,0.41,1.46,3.06,1.96,4.06c-0.87,2.87-1.83,5.61-2.49,6.43c-1.62,2-8.55,5.17-14.66,7.97c-4.08,1.87-7.94,3.64-10.53,5.14
		c-4.5,2.61-6.6,4.52-7.99,5.78c-0.82,0.74-1.36,1.24-1.97,1.48c-0.39,0.16-0.79,0.28-1.21,0.42c-1.59,0.51-3.39,1.09-5.2,3.2
		c-0.71,0.83-1.96,1.4-3.41,2.07c-2.68,1.24-6.02,2.77-7.62,6.84c-2.41,6.12-6.42,20.63-5.5,26.54c0.8,5.14,2.19,9.35,2.51,10.29
		c-0.42,1.07-2.46,6.39-3.6,11.94c-1.21,5.88-1.92,18.34-2.01,19.98c-0.9,1.27-7.3,10.59-7.3,19.15v8.77
		c-0.61,0.99-3.78,6.71-3.1,17.88c0.26,4.28,0.74,8.23,1.25,12.41c0.9,7.44,2.74,15.14,2.39,25.1c-0.54,15.19-0.41,28.19,1.48,33.96
		c0.81,2.49,5.22,14.98,5.42,15.51c0,0,0.18,0.57,0.73,0.4c0.03-0.01,2.81-0.8,3.11-4.45l1.15,1.18c0.2,0.21,0.55,0.18,0.72-0.05
		l0.05-0.08c0.09-0.12,1.38-1.97,1.78-4.27c0.82-1.25,2.48-4.46,0.47-7.52c-0.83-1.27-3.82-4.34-4.52-5.05
		c-0.05-0.63-0.25-2.61-0.79-4.75c-0.46-2.61-0.19-4.55,0.39-5.89c0.17-0.32,0.34-0.64,0.54-0.96c0.45-0.63,0.99-1.04,1.49-1.23
		c0.13-0.05,0.2-0.03,0.28,0.02c1.17,0.75,1.45,2.77,1.73,4.91c0.27,2,0.63,4.03,1.57,5.68c1.16,2.04,4.47,2.81,4.9-1.08
		c0.31-2.77,0.3-6.18,0.29-7.62l-0.08-1.46c-0.31-5.56-0.52-8.39-3.5-13.25c-1.31-2.13-1.33-3.31-0.51-11.58
		c0.4-4.03,2.99-10.59,5.62-17.55c3-7.95,6.11-16.17,6.31-20.94c0.31-7.39-0.67-11.06-1.02-12.12c0.62-0.75,2.36-3.06,2.83-6.05
		c0.55-3.47,0.38-9.51,0.36-9.66c0.02-0.1,1.84-10.52,4.85-15.3c2.22-3.52,5.21-9.79,6.68-13.51c0.81,3.7,1.54,6.7,2,8.1
		c0.74,2.23,1.69,4.7,2.6,7.1c1.3,3.42,2.53,6.64,2.85,8.33c0.31,1.65,0.39,10.04,0.25,24.92c-0.01,0.78-0.01,1.29-0.01,1.44
		c-0.03,0.28-0.66,1.4-1.22,2.38c-1.89,3.34-5.05,8.93-4.47,13.66c0.65,5.27,1.45,7.47,1.74,8.13c-0.6,1.9-5,16.31-4.33,26.71
		c0.24,3.63-1.19,9.28-2.99,16.44c-2.32,9.23-5.22,20.72-6.2,33.98c-1.45,19.62,2.68,51.84,4.23,63.97c0.33,2.6,0.55,4.31,0.58,4.83
		c0.08,1.28-0.04,2.16-0.18,3.19c-0.19,1.39-0.4,2.97-0.19,5.93c0.05,0.67,0.21,1.47,0.45,2.36c-1.09,2.83-2.09,5.65-2.96,8.26
		c-7.26,16.33-4.03,33.68-0.91,50.46c0.68,3.64,1.38,7.4,1.96,11.08l0.1,0.85c0.74,6.62,1.5,13.47-0.15,19.74
		c-0.84,3.17-1.72,5.02-2.36,6.18c0,0-0.01,0.01-0.01,0.01c-0.06,0.05-0.08,0.11-0.09,0.17c-0.15,0.26-0.29,0.49-0.41,0.68
		c-0.12,0.19-0.21,0.35-0.29,0.49c-0.66,1.19-0.67,2.56-0.38,3.88c-0.2,0.51-1.63,4.13-5.29,6.2c-3.44,1.95-6.51,3.24-7.61,3.79
		c-2.57-0.42-5.59,0.37-6.2,1.03c-0.46,0.49-0.93,1.26-0.93,3.18c0,1.85,2.23,2.7,3.22,2.98c0,0.66,0.16,1.88,1.07,3.29
		c1.3,2.02,9.35,4.56,12.75,5.56c1.16,0.34,3.4,1.88,5.38,3.24c1.86,1.28,3.62,2.49,4.7,2.9c1.1,0.41,3.43,0.81,6.15,0.81
		c3.34,0,7.29-0.6,10.33-2.5c5.75-3.59,1.79-18.51,1.62-19.15c-0.2-0.74-0.42-1.57-0.65-2.43c-0.72-2.7-1.53-5.75-2.35-8.23
		c0.03-0.94,0.52-1.92,1.04-2.95c0.57-1.13,1.15-2.3,1.15-3.53l-0.02-0.15c-5.2-18.71,2.52-36.3,9.99-53.31l0.95-2.2
		c0.36-1.44,0.85-2.91,1.33-4.33c0.97-2.91,1.97-5.92,1.97-8.98c-0.46-4.17-1.67-8.24-2.96-12.56c-0.76-2.56-1.78-6.34-2.69-9.77
		c4.44-6.76,8.35-15.37,9.29-20.49c0.7-3.82,1.31-11.04,2.01-19.41c0.62-7.39,1.33-15.77,2.19-22.46c1.06-8.26,3.25-17.58,5-25.07
		c1.2-5.12,2.24-9.55,2.58-12.21c0.75-5.9-0.34-12.83-0.59-14.27c0.68-2.12,0.98-4.52,1.04-6.97c0.06,2.45,0.35,4.86,1.04,6.97
		c-0.25,1.44-1.34,8.37-0.59,14.27c0.34,2.67,1.38,7.09,2.58,12.21c1.76,7.49,3.94,16.81,5,25.07c0.86,6.69,1.56,15.06,2.19,22.46
		c0.7,8.37,1.31,15.59,2.01,19.41c0.94,5.11,4.83,13.7,9.27,20.46c-0.95,3.58-1.99,7.47-2.68,9.8c-1.28,4.31-2.49,8.39-2.96,12.56
		c0,3.07,1,6.07,1.97,8.98c0.47,1.42,0.97,2.9,1.33,4.33l0.95,2.2c7.47,17.01,15.19,34.6,9.99,53.31l-0.02,0.15
		c0,1.22,0.58,2.39,1.15,3.53c0.52,1.04,1.01,2.01,1.04,2.95c-0.82,2.48-1.63,5.53-2.35,8.23c-0.23,0.87-0.45,1.69-0.65,2.43
		c-0.17,0.64-4.12,15.56,1.62,19.15c3.04,1.9,6.99,2.5,10.33,2.5c2.73,0,5.05-0.4,6.15-0.81c1.08-0.4,2.84-1.61,4.7-2.9
		c1.98-1.36,4.22-2.9,5.38-3.24c3.4-1,11.45-3.54,12.75-5.56c0.91-1.41,1.06-2.63,1.07-3.29c0.99-0.29,3.22-1.13,3.22-2.98
		c0-1.92-0.47-2.68-0.93-3.18c-0.61-0.65-3.62-1.44-6.2-1.03c-1.1-0.55-4.17-1.84-7.61-3.79c-3.66-2.07-5.09-5.69-5.29-6.2
		c0.28-1.32,0.28-2.69-0.38-3.88c-0.08-0.14-0.17-0.3-0.29-0.49c-0.12-0.19-0.26-0.42-0.41-0.68c-0.01-0.06-0.03-0.12-0.09-0.17
		c0,0-0.01-0.01-0.01-0.01c-0.65-1.15-1.53-3.01-2.36-6.18c-1.65-6.27-0.89-13.11-0.15-19.74l0.1-0.85
		c0.58-3.68,1.28-7.44,1.96-11.08c3.12-16.78,6.35-34.13-0.91-50.46c-0.87-2.61-1.86-5.42-2.95-8.24c0.25-0.9,0.41-1.7,0.46-2.38
		c0.21-2.96,0-4.54-0.18-5.93c-0.14-1.02-0.25-1.91-0.18-3.19c0.03-0.52,0.25-2.24,0.58-4.83c1.55-12.13,5.68-44.35,4.23-63.97
		c-0.98-13.26-3.87-24.75-6.2-33.98c-1.8-7.16-3.23-12.82-2.99-16.44c0.68-10.39-3.73-24.81-4.33-26.71
		c0.29-0.66,1.09-2.86,1.74-8.13c0.58-4.72-2.58-10.31-4.47-13.66c-0.56-0.98-1.19-2.1-1.21-2.38c0-0.15,0-0.67-0.01-1.44
		c-0.15-14.88-0.06-23.27,0.25-24.92c0.32-1.69,1.55-4.91,2.85-8.33c0.91-2.39,1.86-4.87,2.6-7.1c0.47-1.4,1.18-4.39,2-8.07
		c1.47,3.73,4.45,9.97,6.66,13.48c3.01,4.77,4.83,15.19,4.85,15.3c-0.01,0.15-0.19,6.18,0.36,9.66c0.47,2.99,2.21,5.3,2.83,6.05
		c-0.35,1.06-1.32,4.73-1.02,12.12c0.2,4.77,3.31,12.99,6.31,20.94c2.63,6.96,5.21,13.53,5.62,17.55c0.82,8.27,0.8,9.45-0.51,11.58
		c-2.99,4.86-3.19,7.69-3.5,13.25l-0.08,1.46c-0.01,1.45-0.02,4.85,0.29,7.62c0.43,3.9,3.74,3.12,4.9,1.08
		c0.94-1.66,1.3-3.68,1.57-5.68c0.29-2.14,0.56-4.16,1.73-4.91c0.08-0.05,0.15-0.07,0.28-0.02c0.51,0.19,1.04,0.6,1.49,1.23
		c0.19,0.32,0.37,0.64,0.54,0.96c0.59,1.34,0.86,3.28,0.39,5.89c-0.54,2.15-0.74,4.12-0.79,4.75c-0.7,0.71-3.69,3.78-4.52,5.05
		c-2.01,3.06-0.35,6.27,0.47,7.52c0.4,2.3,1.69,4.15,1.78,4.27l0.05,0.08c0.17,0.24,0.51,0.26,0.72,0.05l1.15-1.18
		c0.3,3.65,3.08,4.44,3.11,4.45c0.55,0.17,0.73-0.4,0.73-0.4c0.2-0.53,4.6-13.02,5.42-15.51c1.88-5.78,2.02-18.78,1.48-33.96
		c-0.35-9.96,1.49-17.66,2.39-25.1c0.51-4.18,0.99-8.12,1.25-12.41C304.17,270.62,301.01,264.9,300.4,263.91z"/>
</g>
</svg>
