<?xml version="1.0" encoding="utf-8"?>
<!-- Generator: Adobe Illustrator 26.0.1, SVG Export Plug-In . SVG Version: 6.00 Build 0)  -->
<svg version="1.1" id="Layer_1" xmlns="http://www.w3.org/2000/svg" xmlns:xlink="http://www.w3.org/1999/xlink" x="0px" y="0px"
	 viewBox="0 0 432 648" style="enable-background:new 0 0 432 648;" xml:space="preserve">
<style type="text/css">
	.st0{display:none;opacity:0.5;fill:none;stroke:#231F20;stroke-width:0.05;stroke-miterlimit:10;}
	.st1{fill:#FFFFFF;}
</style>
<path class="st0" d="M418.44,444.92c-2.94,1.51-8.31,5.17-9.04,17.27"/>
<g id="White_00000008146272988381087930000002203879022052071609_">
	<path class="st1" d="M301.09,264.91v-8.77c0-8.56-6.4-17.88-7.3-19.15c-0.09-1.64-0.8-14.09-2.01-19.98
		c-1.14-5.55-3.18-10.87-3.6-11.94c0.32-0.94,1.71-5.16,2.51-10.29c0.92-5.91-3.09-20.42-5.5-26.54c-1.6-4.06-4.94-5.6-7.62-6.84
		c-1.45-0.67-2.7-1.25-3.41-2.07c-1.81-2.11-3.61-2.69-5.2-3.2c-0.42-0.13-0.82-0.26-1.21-0.42c-0.61-0.24-1.15-0.73-1.97-1.48
		c-1.39-1.26-3.49-3.17-7.99-5.78c-2.6-1.51-6.45-3.27-10.53-5.14c-6.11-2.8-13.04-5.97-14.66-7.97c-0.66-0.81-1.61-3.55-2.48-6.41
		c0.5-0.98,1.86-3.67,1.98-4.08c0.53-1.82,0.58-4.31,0.56-5.82c0.3,0.14,0.67,0.22,1.11,0.17c1.5-0.18,2.91-2.52,4.59-5.56
		c0.47-0.85,0.92-1.66,1.26-2.14c1.46-2.08,1.14-6.58,0.07-9.96c-0.31-0.98-0.84-1.55-1.57-1.69c-1-0.18-2.1,0.58-2.89,1.3
		c0.15-4.2,0.09-16.03-4.76-21.86c-4.18-5.02-12.54-6.26-15.71-6.56h-1.25c-3.17,0.3-11.53,1.55-15.71,6.56
		c-4.85,5.83-4.91,17.65-4.76,21.86c-0.79-0.72-1.88-1.48-2.89-1.3c-0.73,0.13-1.26,0.7-1.57,1.69c-1.06,3.37-1.38,7.88,0.07,9.96
		c0.34,0.49,0.79,1.29,1.26,2.14c1.68,3.04,3.09,5.38,4.59,5.56c0.44,0.06,0.81-0.03,1.11-0.17c-0.02,1.51,0.04,4,0.56,5.82
		c0.12,0.41,1.46,3.06,1.96,4.06c-0.87,2.87-1.83,5.61-2.49,6.43c-1.62,2-8.55,5.17-14.66,7.97c-4.08,1.87-7.94,3.64-10.53,5.14
		c-4.5,2.61-6.6,4.52-7.99,5.78c-0.82,0.74-1.36,1.24-1.97,1.48c-0.39,0.16-0.79,0.28-1.21,0.42c-1.59,0.51-3.39,1.09-5.2,3.2
		c-0.71,0.83-1.96,1.4-3.41,2.07c-2.68,1.24-6.02,2.77-7.62,6.84c-2.41,6.12-6.42,20.63-5.5,26.54c0.8,5.14,2.19,9.35,2.51,10.29
		c-0.42,1.07-2.46,6.39-3.6,11.94c-1.21,5.88-1.92,18.34-2.01,19.98c-0.9,1.27-7.3,10.59-7.3,19.15v8.77
		c-0.61,0.99-3.78,6.71-3.1,17.88c0.26,4.28,0.74,8.23,1.25,12.41c0.9,7.44,2.74,15.14,2.39,25.1c-0.54,15.19-0.41,28.19,1.48,33.96
		c0.81,2.49,5.22,14.98,5.42,15.51c0,0,0.18,0.57,0.73,0.4c0.03-0.01,2.81-0.8,3.11-4.45l1.15,1.18c0.2,0.21,0.55,0.18,0.72-0.05
		l0.05-0.08c0.09-0.12,1.38-1.97,1.78-4.27c0.82-1.25,2.48-4.46,0.47-7.52c-0.83-1.27-3.82-4.34-4.52-5.05
		c-0.05-0.63-0.25-2.61-0.79-4.75c-0.46-2.61-0.19-4.55,0.39-5.89c0.17-0.32,0.34-0.64,0.54-0.96c0.45-0.63,0.99-1.04,1.49-1.23
		c0.13-0.05,0.2-0.03,0.28,0.02c1.17,0.75,1.45,2.77,1.73,4.91c0.27,2,0.63,4.03,1.57,5.68c1.16,2.04,4.47,2.81,4.9-1.08
		c0.31-2.77,0.3-6.18,0.29-7.62l-0.08-1.46c-0.31-5.56-0.52-8.39-3.5-13.25c-1.31-2.13-1.33-3.31-0.51-11.58
		c0.4-4.03,2.99-10.59,5.62-17.55c3-7.95,6.11-16.17,6.31-20.94c0.31-7.39-0.67-11.06-1.02-12.12c0.62-0.75,2.36-3.06,2.83-6.05
		c0.55-3.47,0.38-9.51,0.36-9.66c0.02-0.1,1.84-10.52,4.85-15.3c2.22-3.52,5.21-9.79,6.68-13.51c0.81,3.7,1.54,6.7,2,8.1
		c0.74,2.23,1.69,4.7,2.6,7.1c1.3,3.42,2.53,6.64,2.85,8.33c0.31,1.65,0.39,10.04,0.25,24.92c-0.01,0.78-0.01,1.29-0.01,1.44
		c-0.03,0.28-0.66,1.4-1.22,2.38c-1.89,3.34-5.05,8.93-4.47,13.66c0.65,5.27,1.45,7.47,1.74,8.13c-0.6,1.9-5,16.31-4.33,26.71
		c0.24,3.63-1.19,9.28-2.99,16.44c-2.32,9.23-5.22,20.72-6.2,33.98c-1.45,19.62,2.68,51.84,4.23,63.97c0.33,2.6,0.55,4.31,0.58,4.83
		c0.08,1.28-0.04,2.16-0.18,3.19c-0.19,1.39-0.4,2.97-0.19,5.93c0.05,0.67,0.21,1.47,0.45,2.36c-1.09,2.83-2.09,5.65-2.96,8.26
		c-7.26,16.33-4.03,33.68-0.91,50.46c0.68,3.64,1.38,7.4,1.96,11.08l0.1,0.85c0.74,6.62,1.5,13.47-0.15,19.74
		c-0.84,3.17-1.72,5.02-2.36,6.18c0,0-0.01,0.01-0.01,0.01c-0.06,0.05-0.08,0.11-0.09,0.17c-0.15,0.26-0.29,0.49-0.41,0.68
		c-0.12,0.19-0.21,0.35-0.29,0.49c-0.66,1.19-0.67,2.56-0.38,3.88c-0.2,0.51-1.63,4.13-5.29,6.2c-3.44,1.95-6.51,3.24-7.61,3.79
		c-2.57-0.42-5.59,0.37-6.2,1.03c-0.46,0.49-0.93,1.26-0.93,3.18c0,1.85,2.23,2.7,3.22,2.98c0,0.66,0.16,1.88,1.07,3.29
		c1.3,2.02,9.35,4.56,12.75,5.56c1.16,0.34,3.4,1.88,5.38,3.24c1.86,1.28,3.62,2.49,4.7,2.9c1.1,0.41,3.43,0.81,6.15,0.81
		c3.34,0,7.29-0.6,10.33-2.5c5.75-3.59,1.79-18.51,1.62-19.15c-0.2-0.74-0.42-1.57-0.65-2.43c-0.72-2.7-1.53-5.75-2.35-8.23
		c0.03-0.94,0.52-1.92,1.04-2.95c0.57-1.13,1.15-2.3,1.15-3.53l-0.02-0.15c-5.2-18.71,2.52-36.3,9.99-53.31l0.95-2.2
		c0.36-1.44,0.85-2.91,1.33-4.33c0.97-2.91,1.97-5.92,1.97-8.98c-0.46-4.17-1.67-8.24-2.96-12.56c-0.76-2.56-1.78-6.34-2.69-9.77
		c4.44-6.76,8.35-15.37,9.29-20.49c0.7-3.82,1.31-11.04,2.01-19.41c0.62-7.39,1.33-15.77,2.18-22.46c1.06-8.26,3.25-17.58,5-25.07
		c1.2-5.12,2.24-9.55,2.58-12.21c0.75-5.9-0.34-12.83-0.59-14.27c0.68-2.12,0.98-4.52,1.04-6.97c0.06,2.45,0.35,4.86,1.04,6.97
		c-0.25,1.44-1.34,8.37-0.59,14.27c0.34,2.67,1.38,7.09,2.58,12.21c1.76,7.49,3.94,16.81,5,25.07c0.86,6.69,1.56,15.06,2.19,22.46
		c0.7,8.37,1.31,15.59,2.01,19.41c0.94,5.11,4.83,13.7,9.27,20.46c-0.95,3.58-1.99,7.47-2.68,9.8c-1.28,4.31-2.49,8.39-2.96,12.56
		c0,3.07,1,6.07,1.97,8.98c0.47,1.42,0.97,2.9,1.33,4.33l0.95,2.2c7.47,17.01,15.19,34.6,9.99,53.31l-0.02,0.15
		c0,1.22,0.58,2.39,1.15,3.53c0.52,1.04,1.01,2.01,1.04,2.95c-0.82,2.48-1.63,5.53-2.35,8.23c-0.23,0.87-0.45,1.69-0.65,2.43
		c-0.17,0.64-4.12,15.56,1.62,19.15c3.04,1.9,6.99,2.5,10.33,2.5c2.73,0,5.05-0.4,6.15-0.81c1.08-0.4,2.84-1.61,4.7-2.9
		c1.98-1.36,4.22-2.9,5.38-3.24c3.4-1,11.45-3.54,12.75-5.56c0.91-1.41,1.06-2.63,1.07-3.29c0.99-0.29,3.22-1.13,3.22-2.98
		c0-1.92-0.47-2.68-0.93-3.18c-0.61-0.65-3.62-1.44-6.2-1.03c-1.1-0.55-4.17-1.84-7.61-3.79c-3.66-2.07-5.09-5.69-5.29-6.2
		c0.28-1.32,0.28-2.69-0.38-3.88c-0.08-0.14-0.17-0.3-0.29-0.49c-0.12-0.19-0.26-0.42-0.41-0.68c-0.01-0.06-0.03-0.12-0.09-0.17
		c0,0-0.01-0.01-0.01-0.01c-0.65-1.15-1.53-3.01-2.36-6.18c-1.65-6.27-0.89-13.11-0.15-19.74l0.1-0.85
		c0.58-3.68,1.28-7.44,1.96-11.08c3.12-16.78,6.35-34.13-0.91-50.46c-0.87-2.61-1.86-5.42-2.95-8.24c0.25-0.9,0.41-1.7,0.46-2.38
		c0.21-2.96,0-4.54-0.18-5.93c-0.14-1.02-0.25-1.91-0.18-3.19c0.03-0.52,0.25-2.24,0.58-4.83c1.55-12.13,5.68-44.35,4.23-63.97
		c-0.98-13.26-3.87-24.75-6.2-33.98c-1.8-7.16-3.23-12.82-2.99-16.44c0.68-10.39-3.73-24.81-4.33-26.71
		c0.29-0.66,1.09-2.86,1.74-8.13c0.58-4.72-2.58-10.31-4.47-13.66c-0.56-0.98-1.19-2.1-1.21-2.38c0-0.15,0-0.67-0.01-1.44
		c-0.15-14.88-0.06-23.27,0.25-24.92c0.32-1.69,1.55-4.91,2.85-8.33c0.91-2.39,1.86-4.87,2.6-7.1c0.47-1.4,1.18-4.39,2-8.07
		c1.47,3.73,4.45,9.97,6.66,13.48c3.01,4.77,4.83,15.19,4.85,15.3c-0.01,0.15-0.19,6.18,0.36,9.66c0.47,2.99,2.21,5.3,2.83,6.05
		c-0.35,1.06-1.32,4.73-1.02,12.12c0.2,4.77,3.31,12.99,6.31,20.94c2.63,6.96,5.21,13.53,5.62,17.55c0.82,8.27,0.8,9.45-0.51,11.58
		c-2.99,4.86-3.19,7.69-3.5,13.25l-0.08,1.46c-0.01,1.45-0.02,4.85,0.29,7.62c0.43,3.9,3.74,3.12,4.9,1.08
		c0.94-1.66,1.3-3.68,1.57-5.68c0.29-2.14,0.56-4.16,1.73-4.91c0.08-0.05,0.15-0.07,0.28-0.02c0.51,0.19,1.04,0.6,1.49,1.23
		c0.19,0.32,0.37,0.64,0.54,0.96c0.59,1.34,0.86,3.28,0.39,5.89c-0.54,2.15-0.74,4.12-0.79,4.75c-0.7,0.71-3.69,3.78-4.52,5.05
		c-2.01,3.06-0.35,6.27,0.47,7.52c0.4,2.3,1.69,4.15,1.78,4.27l0.05,0.08c0.17,0.24,0.51,0.26,0.72,0.05l1.15-1.18
		c0.3,3.65,3.08,4.44,3.11,4.45c0.55,0.17,0.73-0.4,0.73-0.4c0.2-0.53,4.6-13.02,5.42-15.51c1.88-5.78,2.02-18.78,1.48-33.96
		c-0.35-9.96,1.49-17.66,2.39-25.1c0.51-4.18,0.99-8.12,1.25-12.41C304.87,271.62,301.7,265.9,301.09,264.91z"/>
</g>
<path id="Outline_black_00000012467778204523605170000009782990369117439880_" d="M301.09,264.91v-8.77c0-8.56-6.4-17.88-7.3-19.15
	c-0.09-1.64-0.8-14.09-2.01-19.98c-1.14-5.55-3.18-10.87-3.6-11.94c0.32-0.94,1.71-5.16,2.51-10.29c0.92-5.91-3.09-20.42-5.5-26.54
	c-1.6-4.06-4.94-5.6-7.62-6.84c-1.45-0.67-2.7-1.25-3.41-2.07c-1.81-2.11-3.61-2.69-5.2-3.2c-0.42-0.13-0.82-0.26-1.21-0.42
	c-0.61-0.24-1.15-0.73-1.97-1.48c-1.39-1.26-3.49-3.17-7.99-5.78c-2.6-1.51-6.45-3.27-10.53-5.14c-6.11-2.8-13.04-5.97-14.66-7.97
	c-0.66-0.81-1.61-3.55-2.48-6.41c0.5-0.98,1.86-3.67,1.98-4.08c0.53-1.82,0.58-4.31,0.56-5.82c0.3,0.14,0.67,0.22,1.11,0.17
	c1.5-0.18,2.91-2.52,4.59-5.56c0.47-0.85,0.92-1.66,1.26-2.14c1.46-2.08,1.14-6.58,0.07-9.96c-0.31-0.98-0.84-1.55-1.57-1.69
	c-1-0.18-2.1,0.58-2.89,1.3c0.15-4.2,0.09-16.03-4.76-21.86c-4.18-5.02-12.54-6.26-15.71-6.56h-1.25
	c-3.17,0.3-11.53,1.55-15.71,6.56c-4.86,5.83-4.91,17.65-4.76,21.86c-0.79-0.72-1.88-1.48-2.89-1.3c-0.73,0.13-1.26,0.7-1.57,1.69
	c-1.06,3.37-1.38,7.88,0.07,9.96c0.34,0.49,0.79,1.29,1.26,2.14c1.68,3.04,3.09,5.38,4.59,5.56c0.44,0.05,0.81-0.03,1.11-0.17
	c-0.02,1.51,0.04,4,0.56,5.82c0.12,0.41,1.46,3.06,1.96,4.06c-0.87,2.87-1.83,5.61-2.49,6.43c-1.62,2-8.55,5.17-14.66,7.97
	c-4.08,1.87-7.94,3.64-10.53,5.14c-4.49,2.61-6.6,4.52-7.99,5.78c-0.82,0.74-1.36,1.24-1.97,1.48c-0.39,0.16-0.79,0.28-1.21,0.42
	c-1.59,0.51-3.39,1.09-5.2,3.2c-0.71,0.83-1.96,1.4-3.41,2.07c-2.68,1.24-6.02,2.77-7.62,6.84c-2.41,6.12-6.42,20.63-5.5,26.54
	c0.8,5.14,2.19,9.35,2.51,10.29c-0.42,1.07-2.46,6.39-3.6,11.94c-1.21,5.88-1.92,18.34-2.01,19.98c-0.9,1.27-7.3,10.59-7.3,19.15
	v8.77c-0.61,0.99-3.78,6.71-3.1,17.88c0.26,4.28,0.74,8.23,1.25,12.41c0.9,7.44,2.74,15.14,2.39,25.1
	c-0.54,15.19-0.41,28.19,1.48,33.96c0.81,2.49,5.22,14.98,5.42,15.51c0,0,0.18,0.57,0.73,0.4c0.03-0.01,2.81-0.8,3.11-4.45
	l1.15,1.18c0.2,0.21,0.55,0.18,0.72-0.05l0.05-0.08c0.09-0.12,1.38-1.97,1.78-4.27c0.82-1.25,2.48-4.46,0.47-7.52
	c-0.83-1.27-3.82-4.34-4.52-5.05c-0.05-0.63-0.25-2.61-0.79-4.75c-0.46-2.61-0.19-4.55,0.39-5.89c0.17-0.32,0.34-0.64,0.54-0.96
	c0.45-0.63,0.99-1.04,1.49-1.23c0.13-0.05,0.2-0.03,0.28,0.02c1.17,0.75,1.45,2.77,1.73,4.91c0.27,2,0.63,4.03,1.57,5.68
	c1.16,2.04,4.47,2.81,4.9-1.08c0.31-2.77,0.3-6.18,0.29-7.62l-0.08-1.46c-0.31-5.56-0.52-8.39-3.5-13.25
	c-1.31-2.13-1.33-3.31-0.51-11.58c0.4-4.03,2.99-10.59,5.62-17.55c3-7.95,6.11-16.17,6.31-20.94c0.31-7.39-0.67-11.06-1.02-12.12
	c0.62-0.75,2.36-3.06,2.83-6.05c0.55-3.47,0.38-9.51,0.36-9.66c0.02-0.1,1.84-10.52,4.85-15.3c2.22-3.52,5.21-9.79,6.68-13.51
	c0.81,3.7,1.54,6.7,2,8.1c0.74,2.23,1.69,4.7,2.6,7.1c1.3,3.42,2.53,6.64,2.85,8.33c0.31,1.65,0.39,10.04,0.25,24.92
	c-0.01,0.78-0.01,1.29-0.01,1.44c-0.03,0.28-0.66,1.4-1.21,2.38c-1.89,3.34-5.05,8.93-4.47,13.66c0.65,5.27,1.45,7.47,1.74,8.13
	c-0.6,1.9-5,16.31-4.33,26.71c0.24,3.63-1.19,9.28-2.99,16.44c-2.32,9.23-5.22,20.72-6.2,33.98c-1.45,19.62,2.68,51.84,4.23,63.97
	c0.33,2.6,0.55,4.31,0.58,4.83c0.08,1.28-0.04,2.16-0.18,3.19c-0.19,1.39-0.4,2.97-0.19,5.93c0.05,0.67,0.21,1.47,0.45,2.36
	c-1.09,2.83-2.09,5.65-2.96,8.26c-7.26,16.33-4.03,33.68-0.91,50.46c0.68,3.64,1.38,7.4,1.96,11.08l0.09,0.85
	c0.74,6.62,1.5,13.47-0.15,19.74c-0.84,3.17-1.72,5.02-2.36,6.18c-0.01,0-0.01,0.01-0.01,0.01c-0.06,0.05-0.08,0.11-0.09,0.17
	c-0.15,0.26-0.29,0.49-0.41,0.68c-0.12,0.19-0.21,0.35-0.29,0.49c-0.66,1.19-0.67,2.56-0.38,3.88c-0.2,0.51-1.63,4.13-5.29,6.2
	c-3.44,1.95-6.51,3.24-7.61,3.79c-2.57-0.42-5.59,0.37-6.2,1.03c-0.46,0.49-0.93,1.26-0.93,3.18c0,1.85,2.23,2.7,3.22,2.98
	c0,0.66,0.16,1.88,1.07,3.29c1.3,2.02,9.35,4.56,12.75,5.56c1.16,0.34,3.4,1.88,5.38,3.24c1.86,1.28,3.62,2.49,4.7,2.9
	c1.1,0.41,3.43,0.81,6.15,0.81c3.34,0,7.29-0.6,10.33-2.5c5.75-3.59,1.79-18.51,1.62-19.15c-0.2-0.74-0.42-1.57-0.65-2.43
	c-0.72-2.69-1.53-5.75-2.35-8.23c0.03-0.94,0.52-1.92,1.04-2.95c0.57-1.13,1.15-2.3,1.15-3.53l-0.02-0.15
	c-5.2-18.71,2.52-36.3,9.99-53.31l0.95-2.2c0.36-1.44,0.85-2.91,1.33-4.33c0.97-2.91,1.97-5.92,1.97-8.98
	c-0.46-4.17-1.67-8.24-2.96-12.56c-0.76-2.56-1.78-6.34-2.69-9.77c4.44-6.76,8.35-15.37,9.29-20.49c0.7-3.82,1.31-11.04,2.01-19.41
	c0.62-7.39,1.33-15.77,2.18-22.46c1.06-8.26,3.25-17.58,5-25.07c1.2-5.12,2.24-9.55,2.58-12.21c0.75-5.9-0.34-12.83-0.59-14.27
	c0.68-2.12,0.98-4.52,1.04-6.97c0.06,2.45,0.35,4.86,1.04,6.97c-0.25,1.44-1.34,8.37-0.59,14.27c0.34,2.67,1.38,7.09,2.58,12.21
	c1.76,7.49,3.94,16.81,5,25.07c0.86,6.69,1.56,15.06,2.19,22.46c0.7,8.37,1.31,15.59,2.01,19.41c0.94,5.11,4.83,13.7,9.27,20.46
	c-0.95,3.58-1.99,7.47-2.68,9.8c-1.28,4.31-2.49,8.39-2.96,12.56c0,3.07,1,6.07,1.97,8.98c0.47,1.42,0.97,2.9,1.33,4.33l0.95,2.2
	c7.47,17.01,15.19,34.6,9.99,53.31l-0.02,0.15c0,1.22,0.58,2.39,1.15,3.53c0.52,1.04,1.01,2.01,1.04,2.95
	c-0.82,2.48-1.63,5.53-2.35,8.23c-0.23,0.87-0.45,1.69-0.65,2.43c-0.17,0.64-4.12,15.56,1.62,19.15c3.04,1.9,6.99,2.5,10.33,2.5
	c2.73,0,5.05-0.4,6.15-0.81c1.08-0.4,2.84-1.61,4.7-2.9c1.98-1.36,4.22-2.9,5.38-3.24c3.4-1,11.45-3.54,12.75-5.56
	c0.91-1.41,1.06-2.63,1.07-3.29c0.99-0.29,3.22-1.13,3.22-2.98c0-1.92-0.47-2.68-0.93-3.18c-0.61-0.65-3.62-1.44-6.2-1.03
	c-1.1-0.55-4.17-1.84-7.61-3.79c-3.66-2.07-5.09-5.69-5.29-6.2c0.28-1.32,0.28-2.68-0.38-3.88c-0.08-0.14-0.17-0.3-0.29-0.49
	c-0.12-0.19-0.25-0.42-0.41-0.68c-0.01-0.06-0.03-0.12-0.09-0.17c0,0-0.01-0.01-0.01-0.01c-0.65-1.15-1.53-3.01-2.36-6.18
	c-1.65-6.27-0.89-13.11-0.15-19.74l0.09-0.85c0.58-3.68,1.28-7.44,1.96-11.08c3.12-16.78,6.35-34.13-0.91-50.46
	c-0.87-2.61-1.86-5.42-2.95-8.24c0.25-0.9,0.41-1.7,0.46-2.38c0.21-2.96,0-4.54-0.18-5.93c-0.14-1.02-0.25-1.91-0.18-3.19
	c0.03-0.52,0.25-2.24,0.58-4.83c1.55-12.13,5.68-44.35,4.23-63.97c-0.98-13.26-3.87-24.75-6.2-33.98
	c-1.8-7.16-3.23-12.82-2.99-16.44c0.68-10.39-3.73-24.81-4.33-26.71c0.29-0.66,1.09-2.86,1.74-8.13c0.58-4.72-2.58-10.31-4.47-13.66
	c-0.56-0.98-1.19-2.1-1.21-2.38c0-0.15,0-0.67-0.01-1.44c-0.15-14.88-0.06-23.27,0.25-24.92c0.32-1.69,1.55-4.91,2.85-8.33
	c0.91-2.39,1.86-4.87,2.6-7.1c0.47-1.4,1.18-4.39,2-8.07c1.47,3.73,4.45,9.97,6.66,13.48c3.01,4.77,4.83,15.19,4.85,15.3
	c-0.01,0.15-0.19,6.18,0.36,9.66c0.47,2.99,2.21,5.3,2.83,6.05c-0.35,1.06-1.32,4.73-1.02,12.12c0.2,4.77,3.31,12.99,6.31,20.94
	c2.63,6.96,5.21,13.53,5.61,17.55c0.82,8.27,0.8,9.45-0.51,11.58c-2.99,4.86-3.19,7.69-3.5,13.25l-0.08,1.46
	c-0.01,1.45-0.02,4.85,0.29,7.62c0.43,3.9,3.74,3.12,4.9,1.08c0.94-1.66,1.3-3.68,1.57-5.68c0.29-2.14,0.56-4.16,1.73-4.91
	c0.08-0.05,0.15-0.07,0.28-0.02c0.51,0.19,1.04,0.6,1.49,1.23c0.19,0.32,0.37,0.64,0.54,0.96c0.59,1.34,0.86,3.28,0.39,5.89
	c-0.54,2.15-0.74,4.12-0.79,4.75c-0.7,0.71-3.69,3.78-4.52,5.05c-2.01,3.06-0.35,6.27,0.47,7.52c0.4,2.3,1.69,4.15,1.78,4.27
	l0.05,0.08c0.17,0.24,0.51,0.26,0.72,0.05l1.15-1.18c0.3,3.65,3.08,4.44,3.11,4.45c0.55,0.17,0.73-0.4,0.73-0.4
	c0.2-0.53,4.6-13.02,5.42-15.51c1.88-5.78,2.02-18.78,1.48-33.96c-0.35-9.96,1.49-17.66,2.39-25.1c0.51-4.18,0.99-8.12,1.25-12.41
	C304.87,271.62,301.7,265.9,301.09,264.91z M292.81,237.5c0.05,0.07,3.26,4.54,5.38,10.08c0.07,0.19,0.14,0.38,0.21,0.57
	c0.03,0.09,0.07,0.19,0.1,0.28c0.07,0.19,0.13,0.38,0.2,0.57c0.77,2.32,1.31,4.78,1.31,7.14v8.18c-4.14-5.01-10.1-8.89-11.25-15.45
	c1.5-3.61,2.91-7.65,4.04-11.41L292.81,237.5z M274.68,161.16c0.72,0.45,1.56,0.84,2.43,1.24c2.64,1.21,5.62,2.59,7.06,6.24
	c2.37,6.02,6.33,20.25,5.44,25.97c-0.69,4.39-1.8,8.08-2.29,9.57c-2.36-2.57-4.87-5.02-7.77-6.88c-4.73-3.01-10.1-4.03-15.01-6.57
	c-7.86-4.06-8.92-16.58-2.25-22.97C266.12,164.12,270,161.84,274.68,161.16z M215.75,199.49c-0.34-8.94-2.08-18.63,0.16-27.44
	c1.84-7.23,6.3-12.56,12.6-16.06c3.69,2.01,7.84,3.35,12.15,4.01c3.8,0.59,12.33,1.88,18.97,0.75c0.84,5.71-6.87,6.09-10.12,6.29
	c-1.1,0.07-2.16,0.11-3.26,0.29c-2.3,0.36-5.41,0.58-7.41,1.97c-3.69,2.57-2.85,7.1-1.97,11.06c2.14,9.65,5.41,18.59,0.69,28.15
	c-3.42,6.92-8.07,13.19-12.42,19.54c-1.39,2.03-2.88,3.96-4.3,5.97c-1.03,1.45-5.04,4.48-5.01,1.43c0.04-3.88-0.22-7.77-0.27-11.64
	C215.44,215.71,216.06,207.57,215.75,199.49z M257.81,184.47c0.15,0.47,0.33,0.91,0.53,1.33c-4.07,4.95-9.5,8.2-15.55,10.23
	c-0.7-1.1-1.44-2.18-2.2-3.24c-0.04-0.05-0.08-0.08-0.13-0.1c-0.16-1.11-0.38-2.25-0.67-3.41c-1.42-5.59-6.71-18.18,1.75-20.32
	c1.1-0.28,2.2-0.46,3.31-0.59c4.58,2.05,8.61,4.91,12.08,8.55c0.01,0.01,0.02,0.01,0.03,0.02
	C256.74,179.3,256.99,181.82,257.81,184.47z M240.62,193.99c2.56,3.64,4.74,7.5,6.54,11.59c-2.9-0.35-5.61-1.02-7.38-1.59
	C240.64,200.76,240.96,197.47,240.62,193.99z M243.15,196.6c6.01-2.05,11.43-5.28,15.52-10.17c0.96,1.68,2.34,2.94,3.95,3.94
	c-0.35,1.84-1.19,6.17-2.19,11.22c-1.59,4.03-7.24,4.61-12.51,4.08C246.55,202.51,244.96,199.49,243.15,196.6z M267.38,156.75
	c0.4,0.16,0.81,0.29,1.24,0.43c1.52,0.49,3.1,0.99,4.7,2.87c0.17,0.2,0.36,0.38,0.57,0.55c-8.6,1.37-15.64,7.33-16.83,15.53
	c-3.19-3.27-6.84-5.91-10.95-7.88c2.8-0.25,5.6-0.3,8.35-0.89c3.73-0.81,6.3-3.27,5.83-6.72
	C263.36,160.02,265.96,158.83,267.38,156.75z M246.8,144.32c4.06,1.86,7.89,3.61,10.44,5.09c4.39,2.55,6.44,4.41,7.8,5.64
	c0.66,0.6,1.18,1.07,1.73,1.4c-5.48,7.99-29.61,2.6-35.16,0.36c-5.93-2.4-8.46-5.42-12.11-10.46c-3.58-4.95-3.98-9.35-4.1-15.26
	c-0.07-3.37-0.24-6.77-0.14-10.14c0-1.01,0.08-2,0.24-3c0.11-1.15,1.31-2.16,2.48-1.71c1.27,0.49,2.24,1.74,2.82,2.9
	c0.54,1.08,1.03,2.19,1.56,3.28c2.4,4.94,5.15,10.17,9.45,13.68C233.67,138.3,240.34,141.36,246.8,144.32z M200.33,121.1
	c0,0-0.76,3-1.71,6.26c-0.47-0.91-1.3-2.54-1.38-2.8c-0.74-2.55-0.48-6.73-0.48-6.77l0.16-2.58l-1.2,2.3
	c-0.01,0.03-0.39,0.69-1.09,0.62c-1.07-0.13-2.76-3.18-3.77-5c-0.51-0.92-0.95-1.71-1.32-2.24c-1.09-1.55-1.06-5.42,0.07-9
	c0.18-0.57,0.42-0.89,0.72-0.94c0.78-0.14,2.15,1.1,2.88,2.03l1.11,1.4l-0.13-1.78c-0.01-0.16-1.13-15.91,4.43-22.58
	c4.12-4.95,13.01-6.01,15.5-6.22c2.48,0.2,11.37,1.27,15.5,6.22c5.56,6.67,4.44,22.42,4.43,22.58l-0.13,1.78l1.11-1.4
	c0.74-0.93,2.1-2.17,2.88-2.03c0.3,0.06,0.55,0.37,0.73,0.94c1.13,3.58,1.16,7.45,0.07,9c-0.38,0.54-0.81,1.33-1.32,2.24
	c-1.01,1.82-2.7,4.87-3.77,5c-0.7,0.08-1.07-0.59-1.09-0.62l-1.2-2.3l0.16,2.58c0,0.04,0.26,4.22-0.47,6.77
	c-0.08,0.26-0.92,1.93-1.39,2.83c-0.96-3.28-1.72-6.29-1.72-6.29c0.06,0.43,1.31,9.2,2.95,13.31c-4.12-4-6.6-9.62-9.07-14.74
	c-0.56-1.16-2.93-6.04-5.26-4.65c-2.41,1.43-2,5.43-1.93,7.82c0.15,5.3-0.75,11.37,0.58,16.54c1.91,7.37,6.6,12.75,12.63,16.24
	c-5.57,3.16-10.47,8.08-12.08,14.4c-2.65,10.41-0.58,20.83-0.63,31.39c-0.05,11.32,0.32,22.74,0.05,34.03
	c-0.04,1.68,0.66,3.9,2.06,3.62c0.12,1.79,0.32,3.58,0.54,5.36c-0.71-1.33-1.88-3.35-2.87-4.34c-0.4-0.4-1.13-0.38-1.55,0.04
	c-0.95,0.96-2.04,2.65-2.8,4c0.2-1.69,0.38-3.37,0.5-5.06c1.4,0.28,2.1-1.94,2.06-3.62c-0.27-11.3,0.1-22.72,0.05-34.03
	c-0.04-10.56,2.03-20.98-0.63-31.39c-1.61-6.32-6.51-11.24-12.08-14.4c6.03-3.49,10.72-8.87,12.63-16.24
	c1.34-5.17,0.43-11.24,0.58-16.54c0.07-2.39,0.48-6.39-1.93-7.82c-2.33-1.38-4.7,3.49-5.26,4.65c-2.48,5.13-4.97,10.76-9.11,14.77
	C199.01,130.34,200.27,121.53,200.33,121.1z M228.81,281.88c2.64,2.07,1.98,5.41,1.72,6.48c-0.55,2.31-11.92,16.75-15.82,20.55
	c-0.3,0.3-0.87,0.3-1.18,0.01c-4.2-3.89-15.49-18.03-16.04-20.34c-0.26-1.08-0.82-4.54,1.86-6.63c3.81-1.82,4.83-9.46,5.68-12.38
	c2.22-7.66,4.17-15.52,5.27-23.47c0.87-1.78,2.2-3.89,3.05-5c0.61-0.79,1.07-0.71,1.62,0.08c0.73,1.04,2.22,3.51,3.07,5.34
	c1.11,7.81,3.03,15.53,5.22,23.06C224.1,272.46,225.11,279.94,228.81,281.88z M171.31,176.96c0.02-0.01,0.03-0.02,0.05-0.03
	c3.46-3.63,7.5-6.5,12.08-8.55c1.11,0.13,2.21,0.31,3.31,0.59c8.46,2.14,3.17,14.73,1.76,20.32c-0.29,1.16-0.52,2.29-0.67,3.41
	c-0.05,0.02-0.09,0.05-0.13,0.1c-0.77,1.06-1.5,2.14-2.2,3.24c-6.06-2.04-11.48-5.29-15.56-10.25c0.2-0.42,0.38-0.85,0.52-1.32
	C171.29,181.83,171.53,179.31,171.31,176.96z M185.14,196.6c-1.81,2.89-3.4,5.91-4.77,9.07c-5.14,0.54-10.66,0.02-12.43-3.71
	c-1.04-5.22-1.91-9.73-2.27-11.61c1.6-1,2.98-2.27,3.94-3.94C173.7,191.32,179.12,194.55,185.14,196.6z M187.67,193.99
	c-0.34,3.48-0.03,6.77,0.84,9.99c-1.76,0.57-4.48,1.24-7.38,1.6C182.94,201.49,185.12,197.63,187.67,193.99z M191.42,180.36
	c0.88-3.97,1.72-8.49-1.97-11.06c-1.99-1.39-5.11-1.61-7.41-1.97c-1.09-0.17-2.16-0.22-3.26-0.29c-3.24-0.19-10.96-0.58-10.12-6.29
	c6.64,1.14,15.17-0.16,18.97-0.75c4.31-0.67,8.46-2,12.15-4.01c6.3,3.5,10.76,8.82,12.6,16.06c2.24,8.81,0.5,18.5,0.16,27.44
	c-0.31,8.08,0.31,16.21,0.19,24.31c-0.06,3.88-0.31,7.77-0.27,11.64c0.03,3.05-3.99,0.03-5.01-1.43c-1.42-2.01-2.91-3.94-4.3-5.97
	c-4.35-6.35-9.04-12.6-12.46-19.52c-0.73-1.47-1.26-2.92-1.64-4.37c0,0,0-0.01,0-0.01C186.95,196.19,189.61,188.53,191.42,180.36z
	 M163.23,155.05c1.36-1.23,3.41-3.09,7.8-5.64c2.55-1.48,6.39-3.24,10.44-5.09c6.41-2.94,13.02-5.97,14.94-8.16
	c4.34-3.52,7.1-8.77,9.52-13.74c0.53-1.09,1.02-2.2,1.57-3.28c0.58-1.16,1.55-2.41,2.82-2.9c1.17-0.45,2.37,0.56,2.48,1.71
	c0.16,0.99,0.24,1.99,0.24,3c0.1,3.37-0.08,6.77-0.14,10.14c-0.12,5.92-0.52,10.31-4.1,15.26c-3.65,5.04-6.18,8.06-12.11,10.46
	c-5.55,2.25-29.7,7.64-35.17-0.36C162.06,156.11,162.58,155.65,163.23,155.05z M154.94,160.05c1.61-1.88,3.18-2.38,4.7-2.87
	c0.43-0.14,0.85-0.28,1.26-0.44c1.42,2.08,4.02,3.27,7.09,3.89c-0.48,3.45,2.09,5.91,5.83,6.72c2.74,0.6,5.55,0.64,8.35,0.89
	c-4.11,1.97-7.77,4.62-10.97,7.9c-1.18-8.2-8.22-14.17-16.83-15.54C154.58,160.43,154.78,160.25,154.94,160.05z M138.66,194.62
	c-0.89-5.72,3.06-19.95,5.44-25.97c1.44-3.65,4.43-5.03,7.06-6.24c0.87-0.4,1.71-0.79,2.43-1.24c4.69,0.67,8.57,2.96,12.39,6.62
	c6.67,6.39,5.61,18.91-2.25,22.97c-4.91,2.54-10.28,3.55-15.01,6.57c-2.91,1.85-5.42,4.31-7.77,6.88
	C140.46,202.69,139.35,199,138.66,194.62z M128.28,256.14c0-2.36,0.53-4.81,1.31-7.14c0.06-0.19,0.13-0.38,0.19-0.57
	c0.03-0.09,0.07-0.19,0.1-0.28c0.07-0.19,0.14-0.38,0.21-0.57c2.11-5.54,5.33-10.02,5.38-10.08l0.03-0.04
	c1.12,3.76,2.53,7.8,4.04,11.41c-1.16,6.56-7.11,10.44-11.25,15.45V256.14z M127.15,300.27c-0.27-1.76-0.53-3.49-0.73-5.21
	c-0.51-4.16-0.98-8.09-1.24-12.34c-0.02-0.28-0.03-0.55-0.04-0.82c-0.01-0.15-0.01-0.3-0.02-0.44c-0.01-0.2-0.01-0.4-0.02-0.6
	c0-0.13-0.01-0.26-0.01-0.4c0-0.21,0-0.41,0-0.61c0-0.12,0-0.24,0-0.35c0-0.23,0.01-0.45,0.01-0.67c0-0.08,0-0.17,0-0.25
	c0.23-8.43,2.78-12.72,3.05-13.17c3.93-5.26,10.14-9.08,11.8-15.55c0.32,0.74,0.64,1.47,0.97,2.16c0.4,0.84,0.88,1.34,1.42,1.6
	c-1.82,9.37-6.45,17.3-10.49,25.9C128.77,286.07,127.45,293.13,127.15,300.27z M144.4,253.73c0.04,5.33,1.96,10.21,5.53,14.15
	c-1.3,2.15-2.47,4.39-3.52,6.71c-3.21-5.04-4.72-10.7-4.4-16.73c0.37-1.32,0.71-2.66,0.97-4.04
	C143.43,253.89,143.9,253.84,144.4,253.73z M143.24,252.39c0.86-9.91,3.93-20.15,9.36-28.58c0.59-0.96,1.33-1.76,2.24-2.42
	c3.74-2.76,1.53,5.86,1.39,6.29c-0.66,2.07-1.37,4.12-2,6.2c-1.94,6.37-4.24,12.58-7.65,18.28c-0.13,0.04-0.26,0.07-0.39,0.11
	C144.96,252.62,144.01,252.63,143.24,252.39z M146.08,275.32c-3.46,7.87-5.47,16.56-5.85,25.19c-1.22,4.47-3.17,9.88-4,14.3
	c-0.39,2.09-0.65,4.21-1.07,6.29c-0.03,0.13-0.06,0.26-0.09,0.38c-0.01,0.04-0.02,0.07-0.03,0.11c-0.03,0.09-0.06,0.18-0.09,0.27
	c-1.07,2.92-4.53,4.36-4.97-0.33c-1.08-11.46-0.28-24.84,0.52-36.21c0.87-2.79,1.96-5.56,3.31-8.3c2.81-5.73,5.62-11.11,7.55-16.95
	C141.44,265.54,143.05,270.71,146.08,275.32z M137.39,365.08c0,2.44-1.2,3.45-1.88,3.83c-0.58-1.54-2.27-6.13-3.59-9.88l5.48,5.61
	C137.4,364.79,137.39,364.98,137.39,365.08z M139.84,365.57l-8.75-8.95c-0.39-1.16-0.69-2.09-0.82-2.59
	c-0.28-1.09-0.52-2.31-0.72-3.63c1.08,1.98,2.64,4.28,4.26,5.98c3.18,3.34,6.55,6.2,7.1,6.67
	C140.62,364.11,140.16,365.02,139.84,365.57z M144.08,324.98c2.33,3.7,2.96,7.26,3.26,12.62l0.08,1.44
	c0.02,2.57-0.08,5.36-0.29,7.46c-0.17,1.72-1.56,2.72-2.88,0.62c-0.89-1.41-1.16-3.36-1.41-5.25c-0.32-2.39-0.63-4.66-2.23-5.69
	c-0.24-0.16-0.5-0.22-0.77-0.21c0.98-1.31,1.9-2.4,2.29-2.94c-1.86,0.67-5.95,3.99-6.13,7.56c-0.23,1.22-0.22,2.64,0.12,4.22
	c-0.01,0.06,0,0.13,0.02,0.21c0.71,2.62,0.87,5.14,0.88,5.17c0.22,0.85,3.82,4.05,4.69,5.37c1.69,2.57,0.24,5.28-0.46,6.33
	c-1.08-0.92-3.94-3.42-6.65-6.27c-2.73-2.87-5.16-7.46-5.51-8.99c-0.63-6.59-0.66-15.34-0.27-26.3c0.21-5.99-0.36-11.15-1.05-15.94
	c-0.03-5.23,0.49-10.28,1.66-15.22c-0.46,7.46-0.67,14.91-0.47,22.39c0.04,1.52-0.47,13.57,1.78,14.29
	c2.32,0.74,4.29-1.58,4.87-3.32c0.97-2.89,1.05-6.27,1.61-9.26c0.57-3.05,1.89-6.78,2.95-10.15c-0.04,6.68,0.91,13.27,2.94,19.35
	C143.31,323.42,143.63,324.26,144.08,324.98z M155.26,274.17c-0.19,4.59-3.27,12.73-6.24,20.6c-2.66,7.02-5.08,13.67-5.68,17.8
	c-0.32,2.22-0.55,4.29-0.57,6.15c-4.62-18.65-0.21-41,11.59-56.07C154.72,263.85,155.54,267.42,155.26,274.17z M157.09,255.87
	c-0.51,3.25-2.76,5.71-2.78,5.73c0,0-2.85,3.81-4.02,5.69c-3.43-3.84-5.24-8.57-5.24-13.74c1.08-0.35,2.22-0.9,3.35-1.22
	c4.54-1.3,7.25-3.75,9.22-6.95c-0.1,0.51-0.15,0.85-0.17,0.93C157.45,246.37,157.62,252.5,157.09,255.87z M162.33,230.58
	c-2.07,3.43-3.5,9.1-4.27,12.66c-1.8,3.63-4.29,6.64-8.91,8.18c-0.55,0.18-1.1,0.34-1.66,0.5c4-6.96,6.13-14.48,8.7-22.13
	c0.33-1,3.66-9.76-0.39-9.32c-3.91,0.43-6.1,7.05-7.42,9.99c-3.11,6.91-5.07,14.12-5.75,21.67c-1.1-0.62-1.8-1.88-2.54-3.55
	c-1.64-3.68-3.25-8.7-4.41-12.91c0.23-3.77,0.9-13.56,1.91-18.44c1.25-6.08,3.59-11.88,3.62-11.94l0.2-0.29
	c5.43-5.48,10.96-9.38,18.8-12.16c1.53-0.54,3.07-1.15,4.49-1.92c0.75,3.93,3.03,15.72,4.96,24.67
	C168.72,218.27,165.12,225.97,162.33,230.58z M177.6,237.57c-0.54-1.54-1.22-3.33-1.92-5.17c-0.91-2.38-1.85-4.85-2.58-7.05
	c-0.96-2.89-3.08-12.98-4.83-21.74c4.11,4.74,15.54,2.6,20.42,1.01c0.87,3.01,2.22,5.96,3.98,8.97c4.87,8.33,10.67,16.67,16.71,24.2
	c0.37,0.46,0.71,0.78,1.03,0.99c-0.56,8.38-2.29,16.77-4.37,24.88c-0.88,3.45-1.96,6.84-2.9,10.28c-0.66,2.4-1.38,5.28-3.48,6.89
	c-3.08,2.36-4.51-2.12-4.92-4.49c-1.2-6.83-4.97-13.94-7.97-20.15C183.77,250.01,180.78,243.69,177.6,237.57z M178.67,241.54
	c1.03,2.32,2.03,4.65,3.24,7.03c2.73,5.39,5.64,10.56,7.98,16.16c2.12,5.08,3.64,9.84,4.63,15.23c0.11,0.57,0.25,1,0.46,1.34
	c-5-1.27-8.89-5.43-12.91-8.61c-1.63-1.29-2.65-3.03-3.27-4.96c0.02-0.09,0.03-0.18,0.03-0.25c0-0.16,0-0.67,0.01-1.44
	C178.9,260.81,179.05,245.55,178.67,241.54z M173.15,283.37c-0.54-4.36,2.51-9.76,4.33-12.98c0.5-0.88,0.85-1.51,1.07-1.97
	c0.51,1.32,1.21,2.6,2.14,3.8c2.2,2.84,6.07,5.34,8.99,7.4c1.07,0.75,2.11,1.32,3.19,1.76c-5.49,4.17-13.22,5.46-17.93,10.29
	l0.04-0.12l-0.11-0.21C174.86,291.32,173.91,289.5,173.15,283.37z M174.36,293.58c7.77-5.69,15.99-8.74,23.3,0.03
	c3.21,3.85,6.33,7.77,9.04,11.94c-2.91-2.59-7.02-3.38-12.94-0.89c-3.69,1.55-7.17,3.77-10.69,5.68c-0.91,0.49-5.9,2.27-5.94,4.2
	c-2.49,1.55-4.69,3.47-6.59,5.73c0.04-0.71,0.05-1.38,0.01-1.99C170.01,309.59,173.07,297.99,174.36,293.58z M161.38,368.85
	c0.97-13.17,3.85-24.6,6.17-33.79c1.38-5.47,2.54-10.07,2.92-13.63c1.91-2.44,4.17-4.51,6.76-6.16c0.65,3.68,2.9,6.63,3.28,10.59
	c0.55,5.67-1.69,11.45-3.49,16.73c-0.52,1.54-2.68,6.73-2.86,10.55l-0.03,0.03c-7.08,16.4-9.23,33.71-11.68,51.17
	C161.36,392.11,160.65,378.83,161.38,368.85z M162.7,407.14c2.55-17.87,4.5-35.65,11.51-52.48c0.17,1.25,0.69,2.22,1.75,2.62
	c2.12,0.8,4.12,0.45,6.24-0.22c1.83-0.58,3.66-1.2,5.48-1.83c1.11,5.12,0.39,11.07,0.03,15.98c-0.67,9-2.12,17.97-3.89,26.82
	c-2.98,14.9-9.07,28.96-15.19,42.91c-0.7,1.51-1.39,3.08-2.04,4.66c-0.23,0.52-0.46,1.04-0.68,1.56c-0.03-0.19-0.05-0.37-0.06-0.55
	c-0.2-2.85,0-4.37,0.18-5.71c0.14-1.04,0.27-2.01,0.19-3.4c-0.03-0.56-0.25-2.29-0.59-4.91C164.91,427.17,163.7,417.7,162.7,407.14z
	 M180.09,413.57c-0.08,10.34,5.51,20.84,8.85,29.33c-3.36,4.81-5.97,9.93-7.95,15.3c-0.18-8.66-3.34-16.8-9.09-23.42
	C174.85,427.78,177.69,420.75,180.09,413.57z M163.18,457.89c0.03-0.06,0.05-0.11,0.07-0.17c1.38-4.15,3.99-11.35,5.77-16.23
	c0.87-2.01,1.73-4.02,2.59-6.04c5.94,6.94,8.97,15.52,8.71,24.62c-2.48,7.35-3.83,15.14-4.32,23.26
	c-0.34,5.73-0.47,11.49-0.48,17.26c-2.96,3.84-9.56,2.61-10.41-2.94c0-0.03-0.02-0.05-0.03-0.07
	C163.01,484.37,161.47,471.14,163.18,457.89z M164.29,539.72c1.7-6.46,0.93-13.42,0.18-20.14l-0.1-0.87
	c-0.59-3.72-1.29-7.49-1.97-11.13c-3.07-16.5-5.97-32.14-0.14-47.43c-1.25,12.53,0.25,25.05,2.23,37.54
	c-0.01,0.04-0.01,0.08-0.01,0.12c0.03,0.22,0.08,0.43,0.13,0.64c1.77,11.08,3.88,22.14,4.75,33.18c-1.23,4.29-3.29,8.16-6.16,11.53
	C163.56,542.22,163.93,541.09,164.29,539.72z M182.97,545.12c-0.02,0.94-0.52,1.93-1.03,2.97c-0.26,0.53-0.53,1.06-0.74,1.61
	c-1.92-8.24-1.73-16.7,0.57-24.81C180.88,531.48,181.06,538.22,182.97,545.12z M182.47,520.66c-3.76,9.97-4.43,20.64-1.69,30.91
	c0,0.02,0,0.03,0,0.05l0.03,0.17c0.12,0.35,0.23,0.71,0.34,1.07c0.11,0.38,0.23,0.76,0.35,1.15c0.58,1.96,1.15,4.09,1.67,6.04
	c0.23,0.87,0.45,1.69,0.65,2.44c0.04,0.15,3.92,14.77-1.15,17.94c-5.13,3.21-13.28,2.43-15.52,1.59c-0.95-0.36-2.74-1.59-4.46-2.77
	c-2.14-1.48-4.36-3-5.69-3.39c-5.44-1.6-11.3-3.8-12.14-5.1c-1.08-1.69-0.89-2.97-0.88-3.02l0.1-0.53l-0.53-0.11
	c-0.03-0.01-2.81-0.61-2.81-2.03c0-1.75,0.43-2.21,0.64-2.43c0.3-0.32,1.73-1.05,3.8-0.8l-2.53,1.57c0,0,1.37,0.67,4.02-1.07
	c3.22-2.1,6.26-3.18,8.25-4.31c2.98-1.69,4.54-4.27,5.2-5.62c0.46,1.23,1.07,2.33,1.5,3.09c0.16,0.27,0.31,0.54,0.45,0.81
	c0,0-2.35-6.47-1.07-8.78c0.07-0.13,0.16-0.27,0.27-0.45c0.29-0.47,0.69-1.13,1.14-2.08c3.2-3.34,5.57-7.24,7.06-11.58
	c0.67,10.12,0.22,20.22-2.57,30.29c-0.11,0.41,1.89-4.89,2.31-7.42c3.1-18.47-0.61-36.99-3.64-55.56c2.26,3.3,7.13,3.62,9.93,0.8
	c0,5.59,0.1,11.19,0.2,16.76c0.04,2.26,0.15,4.46,0.33,6.62c0,0,0.34-5.73,0.29-8.72c-0.05-2.86-0.08-5.72-0.09-8.58
	c2.07,3.05,6.54,3.91,9.5,1.4C184.41,512.84,183.27,516.73,182.47,520.66z M194.28,463.83c1.27,4.27,2.46,8.3,2.91,12.31
	c0,2.83-0.97,5.75-1.92,8.58c-0.48,1.44-0.98,2.94-1.32,4.33l-0.92,2.11c-2.35,5.35-4.72,10.76-6.72,16.25
	c-2.79,3.79-8.37,2.86-10.06-1.06c-0.02-7.1,0.08-14.2,0.33-21.29c0.29-8.57,1.63-16.86,4.27-24.65c0.05-0.1,0.09-0.2,0.13-0.29
	c0-0.03,0-0.06,0-0.08c1.99-5.77,4.7-11.26,8.24-16.39c0.51,1.33,0.95,2.61,1.31,3.83C190.8,453.32,192.69,458.49,194.28,463.83z
	 M192.25,452.31c-0.99-3.75-1.76-6.77-1.76-6.77c0,0.03,0,0.07,0,0.1c-0.02-0.12-0.05-0.22-0.07-0.3c-3.89-11.92-10.95-22-9.69-33.7
	c1.8-5.58,3.32-11.26,4.42-17.08c1.61-8.51,2.8-17.14,3.37-25.78c0.28-4.29,0.7-9.29-0.25-13.74c3.11-1.08,6.22-2.18,9.36-3.17
	c0.98-0.32,1.95-0.65,2.9-1c-3.96,11.44-3.58,23.02-1.79,34.62c-7.1,18.69,2.17,39.78-2.16,59.08
	C195.29,447.2,193.8,449.87,192.25,452.31z M202.85,413.76c-0.67,7.99-1.31,15.54-2,19.3c-0.44,2.4-1.6,5.69-3.18,9.18
	c2.97-18.25-4.83-37.91,1.28-55.49c1.18,7.27,2.87,14.54,4.34,21.78C203.14,410.32,202.99,412.07,202.85,413.76z M212.61,353.98
	c-0.33,2.61-1.36,7.01-2.56,12.1c-1.76,7.51-3.95,16.86-5.02,25.18c-0.58,4.53-1.09,9.82-1.55,15.06
	c-3.87-18.59-8.72-37.38-2.15-55.78c4.12-1.63,7.88-3.83,10.4-7.71c0.18-0.28,0.34-0.57,0.5-0.87
	C212.57,343.95,213.25,349.03,212.61,353.98z M212.25,339.95c-1.48,6.59-9.15,9.45-14.79,11.27c-5.49,1.73-10.87,3.77-16.35,5.5
	c-10.59,3.35-3.68-13.26-2.19-17.72c1.54-4.62,2.97-10.03,2.07-14.94c-0.43-2.34-1.11-4.36-2.21-6.45
	c-2.44-4.63,5.66-7.25,8.26-8.66c6.17-3.35,13.97-8.49,20.19-2.57c1.35,2.14,2.59,4.35,3.68,6.65c0.7,2.41,1.08,4.96,1.44,7.2
	C213.4,326.71,213.69,333.51,212.25,339.95z M214.15,331.06c-0.07-3.19-0.46-6.33-0.83-8.81c-0.78-5.24-2.07-10.63-4.58-14.35
	c-3.73-7.22-7.86-11.87-12.87-17.34c-5.97-6.54-14.17-2.85-20.35,1.4c4.75-4.8,12.71-6.08,18.1-10.31c0.96,0.32,1.97,0.53,3.06,0.63
	c0.13,0.02,0.25,0.05,0.39,0.06c0.31,0.04,0.59,0.03,0.87,0c-1.5,1.87-1.65,4.38-1.16,6.41c0.65,2.7,6.41,10.33,16.76,21.32
	c0.28,0.3,0.77,0.34,1.06,0.06c10.74-10.8,16-18.88,16.65-21.59c0.48-1.99,0.42-4.38-0.96-6.2c0.3,0.03,0.62,0.03,0.95,0
	c0.14-0.02,0.27-0.04,0.39-0.06c1.09-0.1,2.1-0.31,3.06-0.63c5.4,4.24,13.38,5.51,18.12,10.33c-6.18-4.26-14.4-7.96-20.38-1.42
	c-5,5.48-9.13,10.12-12.86,17.34c-2.52,3.71-3.8,9.11-4.59,14.35C214.61,324.73,214.21,327.87,214.15,331.06z M249.44,266.04
	c0.01,0.77,0.01,1.28,0.01,1.44c0,0.08,0.01,0.16,0.03,0.25c-0.62,1.93-1.65,3.67-3.27,4.96c-4.02,3.18-7.91,7.34-12.91,8.61
	c0.21-0.34,0.35-0.77,0.46-1.34c1-5.38,2.52-10.15,4.63-15.23c2.34-5.6,5.25-10.76,7.98-16.16c1.19-2.35,2.21-4.71,3.24-7.05
	C249.24,245.49,249.39,260.8,249.44,266.04z M215.94,320.22c0.36-2.24,0.74-4.79,1.44-7.2c1.08-2.3,2.32-4.5,3.67-6.64
	c6.22-5.93,14.02-0.78,20.19,2.57c2.6,1.41,10.7,4.03,8.26,8.66c-1.11,2.09-1.78,4.11-2.21,6.45c-0.9,4.91,0.53,10.32,2.07,14.94
	c1.49,4.47,8.41,21.07-2.19,17.72c-5.48-1.73-10.87-3.77-16.35-5.5c-5.63-1.82-13.31-4.68-14.79-11.27
	C214.6,333.51,214.89,326.71,215.94,320.22z M223.26,391.26c-1.07-8.31-3.26-17.66-5.02-25.18c-1.19-5.09-2.23-9.49-2.56-12.1
	c-0.63-4.96,0.05-10.03,0.38-12.03c0.16,0.3,0.32,0.59,0.5,0.87c2.52,3.88,6.28,6.09,10.4,7.71c6.57,18.4,1.73,37.19-2.14,55.78
	C224.35,401.08,223.84,395.79,223.26,391.26z M227.45,433.07c-0.69-3.77-1.33-11.31-2-19.3c-0.14-1.7-0.29-3.45-0.44-5.22
	c1.47-7.24,3.16-14.51,4.34-21.79c6.11,17.57-1.68,37.23,1.28,55.49C229.05,438.75,227.89,435.47,227.45,433.07z M231.7,444.54
	c-4.32-19.3,4.94-40.39-2.15-59.07c1.78-11.59,2.17-23.18-1.79-34.62c0.96,0.36,1.93,0.69,2.91,1c3.14,0.99,6.25,2.09,9.36,3.17
	c-0.95,4.45-0.54,9.45-0.25,13.74c0.57,8.65,1.76,17.27,3.37,25.78c1.1,5.82,2.63,11.5,4.42,17.08c1.26,11.71-5.87,21.87-9.76,33.8
	c-0.03,0.08-0.81,3.14-1.79,6.85C234.47,449.85,232.99,447.18,231.7,444.54z M248.21,413.58c2.44,7.3,5.33,14.45,8.34,21.56
	c-5.47,5.83-9.07,15.52-8.98,23.78c-2.01-5.63-4.7-10.99-8.21-16.02C242.69,434.41,248.29,423.92,248.21,413.58z M241.96,507.38
	c-1.99-5.48-4.36-10.88-6.71-16.23l-0.93-2.11c-0.34-1.39-0.84-2.89-1.32-4.33c-0.94-2.83-1.92-5.75-1.92-8.58
	c0.45-4.01,1.65-8.04,2.91-12.31c1.61-5.43,3.77-10.81,4.01-16.77c0-0.79,0.58-2.18,1.06-3.42c8.39,12.15,12.13,26.36,12.65,41.42
	c0.24,7.09,0.34,14.19,0.33,21.28C250.35,510.27,244.75,511.2,241.96,507.38z M246.35,548.09c-0.52-1.04-1.01-2.02-1.03-2.97
	c1.91-6.91,2.09-13.64,1.2-20.24c2.3,8.11,2.49,16.57,0.57,24.81C246.87,549.15,246.61,548.61,246.35,548.09z M266.99,547.06
	c0.11,0.17,0.2,0.32,0.27,0.45c1.28,2.31-1.07,8.78-1.07,8.78c0.14-0.27,0.3-0.54,0.45-0.81c0.43-0.76,1.05-1.86,1.5-3.09
	c0.67,1.35,2.23,3.94,5.2,5.62c2,1.13,5.04,2.21,8.25,4.31c2.66,1.74,4.02,1.07,4.02,1.07l-2.53-1.57c2.07-0.25,3.5,0.48,3.8,0.8
	c0.21,0.22,0.64,0.68,0.64,2.43c0,1.42-2.78,2.02-2.81,2.03l-0.52,0.11l0.09,0.53c0.01,0.05,0.21,1.34-0.88,3.02
	c-0.84,1.31-6.7,3.51-12.14,5.1c-1.33,0.39-3.55,1.92-5.69,3.39c-1.73,1.19-3.51,2.42-4.46,2.77c-2.23,0.84-10.38,1.61-15.52-1.59
	c-5.07-3.17-1.19-17.79-1.15-17.94c0.2-0.75,0.42-1.57,0.65-2.44c0.52-1.95,1.09-4.08,1.67-6.04c0.12-0.38,0.24-0.76,0.35-1.15
	c0.11-0.37,0.23-0.73,0.34-1.07l0.03-0.17c0-0.02,0-0.03,0-0.05c2.74-10.27,2.07-20.94-1.69-30.91c-0.8-3.94-1.93-7.82-3.28-11.67
	c2.96,2.53,7.44,1.67,9.51-1.38c-0.01,2.86-0.04,5.72-0.09,8.58c-0.05,2.99,0.29,8.72,0.29,8.72c0.18-2.16,0.29-4.36,0.33-6.62
	c0.1-5.57,0.2-11.16,0.2-16.76c2.79,2.82,7.66,2.5,9.92-0.79c-3.04,18.56-6.74,37.08-3.65,55.55c0.43,2.53,2.42,7.83,2.31,7.42
	c-2.79-10.08-3.23-20.18-2.57-30.29c1.49,4.34,3.86,8.24,7.06,11.57C266.3,545.93,266.7,546.58,266.99,547.06z M265.88,507.58
	c-0.68,3.65-1.38,7.42-1.97,11.13l-0.1,0.87c-0.75,6.72-1.53,13.67,0.18,20.14c0.36,1.37,0.73,2.5,1.09,3.44
	c-2.87-3.36-4.93-7.24-6.16-11.53c0.87-11,2.97-22.03,4.74-33.07c0.06-0.24,0.12-0.49,0.16-0.74c0.01-0.06,0-0.11-0.01-0.16
	c1.98-12.49,3.48-24.99,2.23-37.51C271.85,475.44,268.95,491.08,265.88,507.58z M265.03,457.71c0.03,0.06,0.05,0.11,0.07,0.17
	c1.71,13.25,0.18,26.49-1.91,39.7c-0.01,0.02-0.02,0.03-0.02,0.06c-0.85,5.56-7.44,6.78-10.4,2.94c-0.01-5.76-0.13-11.52-0.48-17.26
	c-0.47-7.84-1.75-15.37-4.07-22.49l0.01,0c-0.74-8.41,2.86-18.89,8.57-25.11c0.8,1.87,1.6,3.75,2.41,5.62
	C260.99,446.23,263.63,453.53,265.03,457.71z M262.68,432.6c-0.33,2.62-0.56,4.35-0.59,4.91c-0.08,1.38,0.05,2.36,0.19,3.4
	c0.18,1.34,0.38,2.86,0.18,5.71c-0.01,0.17-0.04,0.36-0.06,0.55c-0.3-0.68-0.6-1.37-0.9-2.05c-0.54-1.3-1.1-2.58-1.68-3.83
	c-6.17-14.06-12.34-28.23-15.34-43.25c-1.77-8.85-3.21-17.81-3.89-26.82c-0.37-4.91-1.09-10.86,0.03-15.98
	c1.82,0.63,3.64,1.25,5.48,1.83c2.12,0.67,4.12,1.02,6.24,0.22c1.06-0.4,1.58-1.37,1.75-2.62c7.01,16.82,8.96,34.61,11.51,52.48
	C264.59,417.7,263.38,427.17,262.68,432.6z M260.74,335.06c2.31,9.19,5.2,20.63,6.17,33.79c0.74,9.98,0.02,23.26-1.07,35.48
	c-2.45-17.45-4.6-34.77-11.68-51.17l-0.03-0.03c-0.19-3.83-2.34-9.02-2.86-10.55c-1.8-5.27-4.04-11.05-3.49-16.73
	c0.39-3.95,2.63-6.91,3.28-10.58c2.59,1.65,4.85,3.72,6.76,6.16C258.21,324.98,259.36,329.59,260.74,335.06z M257.72,318.27
	c-0.04,0.61-0.03,1.28,0.01,1.99c-1.89-2.26-4.09-4.17-6.59-5.73c-0.04-1.93-5.03-3.71-5.94-4.2c-3.51-1.9-7-4.13-10.69-5.68
	c-5.91-2.49-10.03-1.7-12.94,0.89c2.71-4.17,5.84-8.09,9.05-11.94c7.31-8.77,15.53-5.72,23.3-0.03
	C255.22,297.99,258.29,309.59,257.72,318.27z M250.81,270.39c1.82,3.22,4.87,8.62,4.33,12.98c-0.76,6.12-1.71,7.94-1.72,7.96
	l-0.11,0.21l0.04,0.12c-4.71-4.83-12.44-6.13-17.93-10.29c1.08-0.43,2.13-1.01,3.19-1.76c2.93-2.05,6.79-4.56,8.99-7.4
	c0.93-1.21,1.63-2.48,2.14-3.8C249.96,268.88,250.31,269.51,250.81,270.39z M255.2,225.34c-0.74,2.21-1.68,4.67-2.58,7.05
	c-0.7,1.85-1.39,3.63-1.92,5.17c-3.18,6.12-6.17,12.44-9.15,18.62c-3,6.21-6.78,13.32-7.97,20.15c-0.42,2.37-1.84,6.85-4.92,4.49
	c-2.1-1.61-2.82-4.49-3.48-6.89c-0.94-3.43-2.02-6.83-2.9-10.28c-2.07-8.11-3.8-16.5-4.37-24.88c0.32-0.21,0.66-0.53,1.03-0.99
	c6.04-7.53,11.84-15.87,16.71-24.2c1.75-3,3.1-5.96,3.98-8.96c4.91,1.59,16.36,3.73,20.43-1.06
	C258.28,212.32,256.16,222.44,255.2,225.34z M265.82,230.51c-2.76-4.38-6.25-12.12-7.16-14.85c1.93-8.95,4.21-20.76,4.97-24.71
	c1.41,0.76,2.95,1.36,4.47,1.91c7.83,2.78,13.51,6.71,18.94,12.19l-0.02,0.06l0.08,0.19c0.02,0.06,2.37,5.86,3.62,11.94
	c1,4.88,1.67,14.66,1.91,18.44c-1.16,4.21-2.77,9.23-4.41,12.91c-0.74,1.67-1.45,2.93-2.54,3.55c-0.68-7.55-2.65-14.76-5.76-21.67
	c-1.32-2.94-3.52-9.56-7.42-9.99c-4.05-0.44-0.72,8.33-0.39,9.32c2.57,7.65,4.7,15.17,8.7,22.13c-0.56-0.15-1.11-0.31-1.66-0.5
	c-4.63-1.55-7.08-4.46-8.89-8.09C269.47,239.78,267.95,233.89,265.82,230.51z M283.87,253.73c0.49,0.11,0.97,0.16,1.41,0.09
	c1.63,8.42,5.42,15.5,9.2,23.2c1.34,2.74,2.43,5.5,3.31,8.3c0.8,11.37,1.6,24.75,0.53,36.21c-0.44,4.69-3.9,3.25-4.97,0.33
	c-0.03-0.09-0.06-0.18-0.09-0.27c-0.01-0.04-0.02-0.07-0.03-0.11c-0.04-0.13-0.07-0.25-0.09-0.38c-0.43-2.08-0.68-4.2-1.07-6.29
	c-0.83-4.42-2.78-9.83-4-14.3c-0.51-11.46-3.89-23.03-9.7-32.63C281.92,263.94,283.83,259.06,283.87,253.73z M282.08,252.28
	c-0.13-0.04-0.26-0.07-0.39-0.11c-3.41-5.71-5.71-11.91-7.65-18.28c-0.63-2.08-1.34-4.13-2-6.2c-0.14-0.43-2.35-9.05,1.39-6.29
	c0.9,0.66,1.65,1.46,2.24,2.42c5.43,8.43,8.5,18.67,9.36,28.58C284.26,252.63,283.32,252.62,282.08,252.28z M271.18,255.87
	c-0.53-3.37-0.36-9.5-0.36-9.56c-0.01-0.09-0.07-0.42-0.17-0.93c1.97,3.2,4.67,5.65,9.22,6.95c1.12,0.32,2.27,0.88,3.35,1.22
	c0,5.17-1.81,9.9-5.24,13.74c-1.17-1.88-2.89-4.36-4.02-5.69C273.94,261.58,271.7,259.12,271.18,255.87z M279.25,294.76
	c-2.97-7.87-6.05-16-6.24-20.6c-0.28-6.75,0.54-10.32,0.9-11.51c11.79,15.07,16.21,37.42,11.59,56.07
	c-0.02-1.86-0.25-3.93-0.57-6.15C284.33,308.43,281.91,301.79,279.25,294.76z M292.76,368.91c-0.68-0.38-1.88-1.39-1.88-3.83
	c0-0.1-0.01-0.29-0.01-0.44l5.48-5.61C295.03,362.78,293.34,367.37,292.76,368.91z M298,354.03c-0.13,0.5-0.42,1.43-0.82,2.59
	l-8.75,8.95c-0.32-0.55-0.78-1.46-1.07-2.53c0.55-0.46,3.92-3.32,7.1-6.67c1.62-1.7,3.18-4,4.26-5.98
	C298.52,351.72,298.28,352.93,298,354.03z M299.46,320.33c0.39,10.96,0.36,19.71-0.27,26.3c-0.35,1.54-2.78,6.12-5.51,8.99
	c-2.71,2.85-5.58,5.35-6.65,6.27c-0.7-1.05-2.15-3.75-0.46-6.33c0.86-1.32,4.47-4.52,4.69-5.37c0.01-0.03,0.18-2.55,0.88-5.17
	c0.02-0.08,0.02-0.15,0.02-0.21c0.34-1.58,0.35-3,0.12-4.22c-0.18-3.57-4.27-6.9-6.13-7.56c0.39,0.54,1.32,1.63,2.29,2.94
	c-0.27-0.01-0.53,0.06-0.77,0.21c-1.6,1.03-1.9,3.29-2.23,5.69c-0.25,1.89-0.52,3.84-1.41,5.25c-1.33,2.1-2.71,1.09-2.88-0.62
	c-0.21-2.1-0.31-4.9-0.29-7.46l0.08-1.44c0.3-5.36,0.93-8.93,3.26-12.62c0.45-0.72,0.77-1.56,0.98-2.5
	c2.03-6.08,2.98-12.67,2.94-19.35c1.06,3.37,2.37,7.1,2.95,10.15c0.56,2.99,0.65,6.36,1.61,9.26c0.58,1.74,2.56,4.06,4.87,3.32
	c2.25-0.72,1.74-12.77,1.78-14.29c0.2-7.47,0-14.93-0.47-22.39c1.17,4.93,1.69,9.99,1.66,15.22
	C299.82,309.18,299.25,314.35,299.46,320.33z M303.19,279.86c0,0.2,0,0.41,0,0.61c0,0.13-0.01,0.26-0.01,0.4
	c0,0.2-0.01,0.4-0.02,0.6c-0.01,0.15-0.01,0.29-0.02,0.44c-0.01,0.27-0.02,0.54-0.04,0.82c-0.26,4.25-0.73,8.18-1.24,12.34
	c-0.21,1.71-0.47,3.44-0.73,5.21c-0.3-7.14-1.62-14.2-4.7-20.74c-4.04-8.61-8.67-16.53-10.49-25.9c0.54-0.26,1.02-0.75,1.42-1.6
	c0.33-0.69,0.65-1.41,0.97-2.16c1.65,6.47,7.87,10.29,11.8,15.55c0.28,0.44,2.83,4.74,3.05,13.17c0,0.08,0,0.17,0,0.25
	c0.01,0.22,0.01,0.44,0.01,0.67C303.19,279.63,303.19,279.75,303.19,279.86z"/>
</svg>
