<?xml version="1.0" encoding="utf-8"?>
<!-- Generator: Adobe Illustrator 26.0.1, SVG Export Plug-In . SVG Version: 6.00 Build 0)  -->
<svg version="1.1" id="Layer_1" xmlns="http://www.w3.org/2000/svg" xmlns:xlink="http://www.w3.org/1999/xlink" x="0px" y="0px"
	 viewBox="0 0 432 648" style="enable-background:new 0 0 432 648;" xml:space="preserve">
<style type="text/css">
	.st0{display:none;opacity:0.5;fill:none;stroke:#231F20;stroke-width:0.05;stroke-miterlimit:10;}
	.st1{fill:#FFFFFF;}
	.st2{fill:#E92A2A;}
	.st3{fill:#D52626;}
	.st4{fill:#9A1A1C;}
	.st5{fill:#8D1819;}
</style>
<path class="st0" d="M418.44,444.92c-2.94,1.51-8.31,5.17-9.04,17.27"/>
<g>
	<g id="White_00000135649446365281199720000009711297041755659193_">
		<path class="st1" d="M298.66,263.39v-8.69c0-8.47-6.34-17.7-7.23-18.96c-0.09-1.62-0.79-13.96-1.99-19.78
			c-1.13-5.49-3.15-10.76-3.56-11.82c0.32-0.94,1.69-5.1,2.49-10.19c0.91-5.85-3.06-20.22-5.45-26.27
			c-1.58-4.02-4.89-5.54-7.55-6.77c-1.44-0.66-2.68-1.23-3.38-2.05c-1.79-2.09-3.58-2.66-5.15-3.17c-0.41-0.13-0.81-0.26-1.2-0.41
			c-0.6-0.24-1.14-0.73-1.95-1.46c-1.38-1.25-3.46-3.14-7.91-5.72c-2.57-1.49-6.39-3.24-10.43-5.09
			c-6.05-2.77-12.91-5.91-14.51-7.89c-0.65-0.81-1.59-3.51-2.45-6.34c0.49-0.97,1.84-3.63,1.96-4.04c0.52-1.8,0.58-4.27,0.56-5.76
			c0.3,0.14,0.67,0.22,1.1,0.16c1.49-0.18,2.88-2.5,4.55-5.5c0.47-0.84,0.91-1.64,1.25-2.12c1.44-2.06,1.13-6.52,0.07-9.86
			c-0.31-0.98-0.83-1.54-1.56-1.67c-0.99-0.18-2.08,0.57-2.86,1.29c0.15-4.16,0.09-15.87-4.71-21.64c-4.14-4.97-12.42-6.2-15.56-6.5
			h-1.24c-3.14,0.3-11.42,1.53-15.56,6.5c-4.81,5.77-4.86,17.48-4.71,21.64c-0.78-0.72-1.87-1.47-2.86-1.29
			c-0.72,0.13-1.25,0.7-1.56,1.67c-1.05,3.34-1.37,7.8,0.07,9.86c0.34,0.48,0.78,1.28,1.25,2.12c1.67,3.01,3.06,5.32,4.55,5.5
			c0.44,0.05,0.8-0.02,1.1-0.16c-0.02,1.49,0.04,3.96,0.56,5.76c0.12,0.41,1.44,3.03,1.94,4.02c-0.86,2.84-1.81,5.56-2.46,6.37
			c-1.6,1.98-8.46,5.12-14.51,7.89c-4.04,1.85-7.86,3.6-10.43,5.09c-4.45,2.58-6.53,4.47-7.91,5.72c-0.81,0.74-1.35,1.22-1.95,1.46
			c-0.38,0.15-0.78,0.28-1.2,0.41c-1.57,0.5-3.36,1.08-5.15,3.17c-0.7,0.82-1.94,1.39-3.38,2.05c-2.66,1.22-5.96,2.75-7.55,6.77
			c-2.39,6.06-6.36,20.42-5.45,26.27c0.8,5.09,2.17,9.26,2.49,10.19c-0.42,1.06-2.43,6.32-3.56,11.82
			c-1.2,5.82-1.9,18.16-1.99,19.78c-0.89,1.26-7.23,10.49-7.23,18.96v8.69c-0.6,0.98-3.74,6.64-3.07,17.7
			c0.26,4.24,0.73,8.15,1.23,12.28c0.9,7.37,2.71,14.99,2.37,24.85c-0.53,15.03-0.4,27.91,1.46,33.63
			c0.81,2.47,5.16,14.83,5.36,15.36c0,0,0.17,0.57,0.72,0.4c0.03-0.01,2.79-0.79,3.08-4.4l1.14,1.17c0.2,0.21,0.54,0.18,0.71-0.05
			l0.05-0.07c0.09-0.12,1.37-1.95,1.76-4.23c0.81-1.24,2.45-4.42,0.47-7.45c-0.82-1.25-3.79-4.29-4.48-5
			c-0.05-0.63-0.25-2.58-0.78-4.71c-0.46-2.58-0.19-4.51,0.39-5.83c0.16-0.32,0.34-0.63,0.53-0.95c0.45-0.63,0.98-1.03,1.48-1.22
			c0.13-0.05,0.2-0.03,0.28,0.02c1.16,0.75,1.43,2.75,1.72,4.86c0.27,1.98,0.62,3.99,1.55,5.63c1.15,2.02,4.43,2.79,4.85-1.07
			c0.3-2.74,0.3-6.12,0.29-7.55l-0.08-1.45c-0.3-5.51-0.51-8.31-3.47-13.12c-1.3-2.11-1.32-3.28-0.5-11.47
			c0.4-3.99,2.96-10.49,5.56-17.38c2.97-7.87,6.05-16.01,6.25-20.73c0.3-7.32-0.66-10.95-1.01-12c0.62-0.74,2.34-3.03,2.81-5.99
			c0.54-3.44,0.37-9.42,0.36-9.56c0.02-0.1,1.82-10.42,4.8-15.15c2.19-3.49,5.16-9.69,6.61-13.38c0.81,3.66,1.52,6.63,1.98,8.02
			c0.74,2.21,1.67,4.66,2.57,7.03c1.29,3.38,2.51,6.58,2.82,8.24c0.31,1.64,0.39,9.94,0.24,24.67c-0.01,0.77-0.01,1.28-0.01,1.43
			c-0.03,0.28-0.65,1.38-1.2,2.36c-1.87,3.31-5,8.85-4.42,13.52c0.65,5.21,1.44,7.39,1.72,8.05c-0.59,1.88-4.95,16.15-4.28,26.44
			c0.23,3.59-1.18,9.19-2.96,16.28c-2.3,9.14-5.17,20.52-6.14,33.64c-1.43,19.42,2.65,51.33,4.19,63.34
			c0.33,2.57,0.55,4.27,0.58,4.79c0.07,1.27-0.04,2.14-0.18,3.16c-0.18,1.38-0.39,2.94-0.18,5.88c0.05,0.67,0.2,1.45,0.45,2.34
			c-1.08,2.8-2.07,5.59-2.93,8.18c-7.19,16.17-3.99,33.35-0.9,49.96c0.67,3.6,1.36,7.33,1.94,10.97l0.09,0.84
			c0.73,6.56,1.49,13.34-0.15,19.54c-0.83,3.14-1.7,4.97-2.34,6.12c0,0-0.01,0.01-0.01,0.01c-0.06,0.05-0.08,0.11-0.09,0.17
			c-0.15,0.26-0.29,0.49-0.4,0.68c-0.11,0.19-0.21,0.35-0.29,0.48c-0.65,1.18-0.66,2.54-0.38,3.84c-0.19,0.51-1.61,4.09-5.23,6.14
			c-3.4,1.93-6.44,3.21-7.53,3.75c-2.55-0.41-5.53,0.37-6.14,1.02c-0.46,0.49-0.92,1.25-0.92,3.15c0,1.84,2.21,2.67,3.19,2.95
			c0,0.65,0.16,1.87,1.06,3.26c1.28,2,9.26,4.52,12.62,5.51c1.15,0.34,3.37,1.87,5.33,3.21c1.84,1.27,3.58,2.47,4.65,2.87
			c1.09,0.41,3.39,0.8,6.09,0.8c3.31,0,7.21-0.59,10.23-2.48c5.69-3.56,1.78-18.33,1.61-18.96c-0.2-0.74-0.42-1.55-0.65-2.41
			c-0.71-2.67-1.51-5.69-2.33-8.15c0.03-0.93,0.51-1.9,1.02-2.92c0.56-1.12,1.14-2.28,1.14-3.49l-0.02-0.14
			c-5.15-18.53,2.5-35.94,9.89-52.78l0.95-2.17c0.36-1.42,0.84-2.88,1.31-4.29c0.96-2.88,1.95-5.86,1.95-8.9
			c-0.46-4.13-1.66-8.16-2.93-12.43c-0.75-2.54-1.77-6.27-2.67-9.67c4.4-6.7,8.27-15.22,9.2-20.29c0.69-3.78,1.3-10.93,1.99-19.22
			c0.62-7.32,1.31-15.61,2.16-22.23c1.05-8.17,3.21-17.4,4.95-24.82c1.19-5.07,2.22-9.45,2.55-12.09c0.74-5.84-0.34-12.7-0.59-14.13
			c0.68-2.09,0.97-4.48,1.03-6.9c0.05,2.42,0.35,4.81,1.03,6.9c-0.25,1.43-1.33,8.29-0.58,14.13c0.34,2.64,1.36,7.02,2.55,12.09
			c1.74,7.42,3.9,16.64,4.95,24.82c0.85,6.62,1.55,14.92,2.16,22.23c0.7,8.28,1.3,15.44,1.99,19.22c0.93,5.06,4.78,13.56,9.18,20.26
			c-0.94,3.55-1.97,7.4-2.66,9.7c-1.27,4.27-2.47,8.31-2.93,12.43c0,3.04,0.99,6.01,1.95,8.9c0.47,1.41,0.96,2.87,1.31,4.29
			l0.95,2.17c7.39,16.84,15.03,34.26,9.89,52.78l-0.02,0.14c0,1.21,0.58,2.37,1.14,3.49c0.51,1.02,1,1.99,1.02,2.92
			c-0.81,2.46-1.62,5.48-2.33,8.15c-0.23,0.86-0.44,1.67-0.65,2.41c-0.17,0.63-4.08,15.4,1.61,18.96c3.01,1.88,6.92,2.48,10.23,2.48
			c2.7,0,5-0.4,6.09-0.8c1.07-0.4,2.81-1.6,4.65-2.87c1.96-1.35,4.18-2.87,5.33-3.21c3.37-0.99,11.34-3.51,12.62-5.51
			c0.9-1.4,1.05-2.61,1.06-3.26c0.98-0.28,3.19-1.12,3.19-2.95c0-1.9-0.47-2.66-0.92-3.15c-0.6-0.64-3.59-1.43-6.14-1.02
			c-1.09-0.54-4.13-1.82-7.53-3.75c-3.62-2.05-5.04-5.63-5.23-6.14c0.28-1.31,0.27-2.66-0.38-3.84c-0.07-0.14-0.17-0.3-0.29-0.48
			c-0.12-0.19-0.25-0.41-0.4-0.68c-0.01-0.06-0.03-0.12-0.09-0.17c0,0-0.01-0.01-0.01-0.01c-0.64-1.14-1.51-2.98-2.34-6.12
			c-1.64-6.2-0.88-12.98-0.15-19.54l0.09-0.84c0.58-3.64,1.27-7.37,1.94-10.97c3.09-16.61,6.29-33.79-0.9-49.96
			c-0.86-2.58-1.85-5.36-2.93-8.16c0.25-0.89,0.41-1.68,0.45-2.36c0.21-2.94,0-4.5-0.18-5.88c-0.14-1.01-0.25-1.89-0.18-3.16
			c0.03-0.52,0.25-2.22,0.58-4.79c1.54-12.01,5.62-43.91,4.19-63.34c-0.97-13.13-3.83-24.5-6.13-33.64
			c-1.79-7.09-3.2-12.69-2.96-16.28c0.67-10.29-3.69-24.56-4.28-26.44c0.29-0.65,1.08-2.84,1.72-8.05
			c0.58-4.67-2.55-10.21-4.42-13.52c-0.55-0.98-1.17-2.08-1.2-2.36c0-0.15,0-0.66-0.01-1.43c-0.14-14.74-0.06-23.04,0.24-24.67
			c0.31-1.67,1.53-4.86,2.82-8.24c0.9-2.37,1.84-4.82,2.57-7.03c0.46-1.39,1.17-4.34,1.98-7.99c1.45,3.69,4.41,9.87,6.6,13.34
			c2.98,4.73,4.78,15.04,4.8,15.15c-0.01,0.15-0.18,6.12,0.36,9.56c0.47,2.96,2.19,5.24,2.81,5.99c-0.35,1.05-1.31,4.68-1.01,12
			c0.2,4.72,3.27,12.86,6.25,20.73c2.6,6.89,5.16,13.39,5.56,17.38c0.81,8.19,0.8,9.36-0.5,11.47c-2.96,4.81-3.16,7.61-3.47,13.12
			l-0.08,1.45c-0.01,1.43-0.02,4.81,0.29,7.55c0.43,3.86,3.71,3.09,4.85,1.07c0.93-1.64,1.29-3.64,1.55-5.63
			c0.28-2.12,0.56-4.12,1.72-4.86c0.08-0.05,0.15-0.07,0.28-0.02c0.5,0.19,1.03,0.59,1.48,1.22c0.19,0.32,0.37,0.63,0.53,0.95
			c0.58,1.33,0.85,3.25,0.39,5.83c-0.54,2.13-0.73,4.08-0.78,4.71c-0.69,0.7-3.66,3.74-4.48,5c-1.99,3.03-0.34,6.21,0.47,7.45
			c0.39,2.28,1.67,4.11,1.76,4.23l0.05,0.07c0.17,0.23,0.51,0.26,0.71,0.05l1.14-1.17c0.29,3.61,3.05,4.4,3.08,4.4
			c0.55,0.17,0.72-0.4,0.72-0.4c0.2-0.52,4.56-12.89,5.36-15.36c1.87-5.72,2-18.59,1.46-33.63c-0.35-9.86,1.47-17.48,2.37-24.85
			c0.5-4.14,0.98-8.04,1.23-12.28C302.4,270.03,299.26,264.37,298.66,263.39z"/>
	</g>
	<g id="Delts_00000080202506385419138630000005812433598628446361_">
		<g id="Delts_00000034785510812040924740000016240124741117884326_">
			<path class="st2" d="M162.7,189.97c-4.87,2.52-10.18,3.52-14.87,6.5c-2.88,1.84-5.36,4.27-7.7,6.81
				c-0.48-1.48-1.58-5.13-2.26-9.48c-0.89-5.66,3.03-19.75,5.38-25.71c1.43-3.62,4.38-4.98,6.99-6.19c0.86-0.4,1.7-0.78,2.42-1.23
				c4.64,0.67,8.48,2.93,12.26,6.55C171.53,173.56,170.48,185.96,162.7,189.97"/>
			<path class="st3" d="M139.96,192.77c-0.19-0.11-0.38-0.23-0.56-0.36c3.07-11.42,10.72-21.57,17.98-30.4
				c0.21,0.09,0.42,0.18,0.63,0.28C150.38,171.56,142.9,181.48,139.96,192.77"/>
			<path class="st3" d="M140.48,176.67c0.29-1.04,0.58-2.04,0.88-3c3.27-5.25,8.55-9.42,13.13-12.62c0.28,0.07,0.56,0.14,0.84,0.23
				C149.84,165.05,143.4,170.15,140.48,176.67"/>
			<path class="st3" d="M140.14,203.29c-0.08-0.25-0.18-0.57-0.3-0.95c0,0,0-0.01,0-0.01C139.96,202.7,140.06,203.02,140.14,203.29
				C140.15,203.28,140.14,203.28,140.14,203.29 M142.46,193.73c-0.22-0.04-0.43-0.1-0.64-0.16c2.38-6.51,6.49-12.44,10.5-18.25
				c2.68-3.87,5.45-7.87,7.65-11.97c0.19,0.11,0.38,0.23,0.57,0.35c-2.21,4.1-4.97,8.08-7.64,11.94
				C148.91,181.4,144.83,187.29,142.46,193.73"/>
			<path class="st3" d="M147.13,193.35c1.88-2.81,4.11-5.41,6.3-7.97c4.78-5.58,9.71-11.34,10.64-18.94c0.2,0.18,0.4,0.37,0.6,0.56
				c-1.09,7.48-5.96,13.17-10.68,18.68c-2.04,2.39-4.13,4.82-5.91,7.41C147.75,193.18,147.43,193.27,147.13,193.35"/>
			<path class="st3" d="M156.73,189.73c6.09-5.3,11.81-10.9,11.14-18.32c0.27,0.6,0.51,1.21,0.7,1.84
				c-0.3,5.96-4.56,10.75-9.48,15.23C158.32,188.92,157.53,189.33,156.73,189.73"/>
			<path class="st4" d="M140.34,203.01c0.19-3.21,0.91-6.26,1.99-9.2c0.52,0.11,1.04,0.16,1.55,0.16c0.49,0,0.98-0.05,1.44-0.15
				c0.52-0.11,1.08-0.24,1.67-0.39c-1.3,1.95-2.44,4-3.26,6.2c-0.16,0.15-0.33,0.3-0.49,0.45
				C142.24,201.01,141.28,202,140.34,203.01 M139.72,202.41c-0.24-0.79-0.54-1.83-0.85-3.04c-0.05-0.18-0.09-0.37-0.14-0.56
				c0.22-2.03,0.59-4.01,1.1-5.95c0.59,0.35,1.22,0.62,1.86,0.8C140.66,196.45,139.96,199.36,139.72,202.41 M144.81,198.69
				c0.84-1.94,1.92-3.77,3.13-5.52c2.61-0.75,5.67-1.88,8.66-3.36c-0.56,0.49-1.13,0.97-1.69,1.46c-1.43,1.23-2.79,2.4-4.07,3.59
				c-1.07,0.5-2.12,1.05-3.14,1.7C146.7,197.2,145.74,197.92,144.81,198.69 M138.32,196.98c-0.19-0.89-0.37-1.84-0.53-2.83
				c-0.01-0.09-0.03-0.17-0.04-0.26c-0.04-0.23-0.06-0.47-0.08-0.72c-0.05-0.66-0.05-1.4-0.01-2.21c0.47,0.6,1.02,1.11,1.61,1.53
				C138.87,193.96,138.55,195.46,138.32,196.98 M152.71,194.05c0.84-0.75,1.72-1.51,2.62-2.29c1.22-1.06,2.44-2.12,3.63-3.2
				c4.43-2.52,8.41-5.82,10.14-9.76c-0.18,4.01-1.83,7.86-4.89,10.22c-0.51,0.39-1.05,0.74-1.64,1.04c-1.54,0.8-3.12,1.44-4.71,2.04
				l-3.03,1.12C154.12,193.49,153.41,193.76,152.71,194.05"/>
			<path class="st5" d="M140.03,203.36c-0.08-0.26-0.19-0.58-0.3-0.95c0.24-3.05,0.95-5.95,1.97-8.75c0.21,0.06,0.43,0.11,0.64,0.16
				c-1.08,2.94-1.8,5.99-1.99,9.2c-0.09,0.1-0.18,0.2-0.27,0.3C140.06,203.33,140.04,203.35,140.03,203.36"/>
			<path class="st5" d="M143.74,199.63c0.83-2.2,1.96-4.25,3.26-6.2c0.31-0.08,0.62-0.17,0.94-0.26c-1.21,1.75-2.29,3.58-3.13,5.52
				C144.46,199,144.1,199.31,143.74,199.63"/>
			<path class="st5" d="M150.84,194.86c1.28-1.18,2.64-2.36,4.07-3.59c0.56-0.48,1.13-0.97,1.69-1.46c0.79-0.39,1.58-0.81,2.36-1.25
				c-1.19,1.08-2.41,2.14-3.63,3.2c-0.9,0.78-1.78,1.54-2.62,2.29C152.08,194.3,151.45,194.57,150.84,194.86"/>
			<path class="st5" d="M138.74,198.81c-0.14-0.58-0.28-1.19-0.41-1.83c0.23-1.52,0.55-3.01,0.95-4.49
				c0.18,0.13,0.37,0.25,0.56,0.36C139.33,194.8,138.96,196.78,138.74,198.81"/>
		</g>
		<g id="Delts_00000096037099193994339300000012239167524529539488_">
			<path class="st2" d="M262.48,189.97c4.87,2.52,10.18,3.52,14.87,6.5c2.88,1.84,5.36,4.27,7.7,6.81c0.48-1.48,1.58-5.13,2.26-9.48
				c0.89-5.66-3.03-19.75-5.38-25.71c-1.43-3.62-4.38-4.98-6.99-6.19c-0.86-0.4-1.7-0.78-2.42-1.23c-4.64,0.67-8.48,2.93-12.26,6.55
				C253.65,173.56,254.71,185.96,262.48,189.97"/>
			<path class="st3" d="M285.23,192.77c0.19-0.11,0.38-0.23,0.56-0.36c-3.07-11.42-10.72-21.57-17.98-30.4
				c-0.21,0.09-0.42,0.18-0.63,0.28C274.81,171.56,282.28,181.48,285.23,192.77"/>
			<path class="st3" d="M284.7,176.67c-0.29-1.04-0.58-2.04-0.88-3c-3.27-5.25-8.55-9.42-13.13-12.62
				c-0.28,0.07-0.56,0.14-0.84,0.23C275.34,165.05,281.79,170.15,284.7,176.67"/>
			<path class="st3" d="M285.04,203.29C285.04,203.28,285.04,203.28,285.04,203.29c0.08-0.26,0.18-0.58,0.3-0.96c0,0,0,0.01,0,0.01
				C285.23,202.71,285.13,203.03,285.04,203.29 M282.72,193.73c-2.36-6.44-6.44-12.33-10.43-18.09c-2.67-3.86-5.43-7.84-7.64-11.94
				c0.19-0.12,0.38-0.24,0.57-0.35c2.2,4.1,4.97,8.1,7.65,11.97c4.02,5.81,8.12,11.74,10.5,18.25
				C283.15,193.63,282.94,193.69,282.72,193.73"/>
			<path class="st3" d="M278.06,193.35c-1.88-2.81-4.11-5.41-6.3-7.97c-4.78-5.58-9.71-11.34-10.64-18.94
				c-0.2,0.18-0.4,0.37-0.6,0.56c1.09,7.48,5.96,13.17,10.68,18.68c2.04,2.39,4.13,4.82,5.91,7.41
				C277.44,193.18,277.75,193.27,278.06,193.35"/>
			<path class="st3" d="M268.45,189.73c-6.09-5.3-11.81-10.9-11.14-18.32c-0.27,0.6-0.51,1.21-0.7,1.84
				c0.3,5.96,4.56,10.75,9.48,15.23C266.87,188.92,267.66,189.33,268.45,189.73"/>
			<path class="st4" d="M284.77,202.83c-0.94-1.01-1.9-2-2.9-2.93c-0.16-0.15-0.33-0.3-0.49-0.45c-0.83-2.2-1.96-4.25-3.26-6.2
				c0.59,0.15,1.14,0.28,1.67,0.39c0.47,0.1,0.95,0.15,1.44,0.15c0.51,0,1.03-0.05,1.55-0.16
				C283.86,196.57,284.58,199.62,284.77,202.83 M285.4,202.23c-0.24-3.05-0.95-5.95-1.97-8.75c0.64-0.19,1.27-0.45,1.86-0.8
				c0.51,1.94,0.88,3.92,1.1,5.95c-0.05,0.19-0.09,0.38-0.14,0.56C285.94,200.4,285.64,201.44,285.4,202.23 M280.3,198.51
				c-0.92-0.77-1.88-1.48-2.89-2.13c-1.02-0.65-2.07-1.21-3.14-1.7c-1.28-1.18-2.64-2.36-4.07-3.59c-0.56-0.48-1.13-0.97-1.69-1.46
				c2.99,1.48,6.05,2.62,8.66,3.36C278.39,194.75,279.46,196.57,280.3,198.51 M286.8,196.8c-0.23-1.52-0.55-3.01-0.95-4.49
				c0.59-0.42,1.14-0.93,1.61-1.53c0.04,0.8,0.04,1.55-0.01,2.21c-0.02,0.25-0.05,0.49-0.08,0.72c-0.01,0.09-0.03,0.17-0.04,0.26
				C287.17,194.96,286.99,195.91,286.8,196.8 M272.41,193.87c-0.7-0.29-1.41-0.56-2.12-0.82l-0.24-0.14l0.03,0.07
				c-0.66-0.25-1.32-0.49-1.98-0.73l0-0.01l-0.2-0.08l-0.28-0.11l-0.37-0.14l0.01,0.02c-1.59-0.6-3.18-1.25-4.71-2.04
				c-0.58-0.3-1.13-0.65-1.64-1.04c-3.06-2.36-4.71-6.21-4.89-10.22c1.73,3.94,5.71,7.24,10.14,9.76c1.19,1.08,2.41,2.14,3.63,3.2
				C270.69,192.36,271.56,193.12,272.41,193.87"/>
			<path class="st5" d="M285.02,203.26c0.08-0.26,0.19-0.58,0.3-0.95c-0.24-3.05-0.95-5.95-1.97-8.75
				c-0.21,0.06-0.43,0.11-0.64,0.16c1.08,2.94,1.8,5.99,1.99,9.2c0.09,0.1,0.18,0.2,0.27,0.3
				C284.98,203.23,285,203.25,285.02,203.26"/>
			<path class="st5" d="M281.36,199.6c-0.83-2.2-1.96-4.25-3.26-6.2c-0.31-0.08-0.62-0.17-0.94-0.26c1.21,1.75,2.29,3.58,3.13,5.52
				C280.65,198.96,281.01,199.28,281.36,199.6"/>
			<path class="st5" d="M274.35,194.86c-1.28-1.18-2.64-2.36-4.07-3.59c-0.56-0.48-1.13-0.97-1.69-1.46
				c-0.79-0.39-1.58-0.81-2.36-1.25c1.19,1.08,2.41,2.14,3.63,3.2c0.9,0.78,1.78,1.54,2.62,2.29
				C273.11,194.3,273.73,194.57,274.35,194.86"/>
			<path class="st5" d="M286.36,198.72c0.14-0.58,0.28-1.19,0.41-1.83c-0.23-1.52-0.55-3.01-0.95-4.49
				c-0.18,0.13-0.37,0.25-0.56,0.36C285.77,194.71,286.14,196.7,286.36,198.72"/>
		</g>
	</g>
</g>
<path d="M298.72,263.45v-8.69c0-8.47-6.34-17.7-7.23-18.96c-0.09-1.62-0.79-13.96-1.99-19.78c-1.13-5.49-3.15-10.76-3.56-11.82
	c0.32-0.94,1.69-5.1,2.49-10.19c0.91-5.85-3.06-20.22-5.45-26.28c-1.58-4.02-4.89-5.54-7.55-6.77c-1.44-0.66-2.68-1.23-3.38-2.05
	c-1.79-2.09-3.58-2.66-5.15-3.17c-0.41-0.13-0.81-0.26-1.2-0.41c-0.6-0.24-1.14-0.73-1.95-1.46c-1.38-1.25-3.46-3.14-7.91-5.72
	c-2.57-1.49-6.39-3.24-10.43-5.09c-6.05-2.77-12.91-5.91-14.51-7.89c-0.65-0.81-1.59-3.51-2.45-6.34c0.49-0.97,1.84-3.63,1.96-4.04
	c0.52-1.8,0.58-4.27,0.56-5.76c0.3,0.14,0.67,0.22,1.1,0.16c1.49-0.18,2.88-2.5,4.55-5.5c0.47-0.84,0.91-1.64,1.25-2.12
	c1.44-2.06,1.13-6.52,0.07-9.86c-0.31-0.98-0.83-1.54-1.56-1.67c-0.99-0.18-2.08,0.57-2.86,1.29c0.15-4.16,0.09-15.87-4.71-21.64
	c-4.14-4.97-12.42-6.2-15.56-6.5h-1.24c-3.14,0.3-11.42,1.53-15.56,6.5c-4.81,5.77-4.86,17.48-4.71,21.64
	c-0.78-0.72-1.87-1.47-2.86-1.29c-0.72,0.13-1.25,0.7-1.55,1.67c-1.05,3.34-1.37,7.8,0.07,9.86c0.34,0.48,0.78,1.28,1.25,2.12
	c1.67,3.01,3.06,5.32,4.55,5.5c0.44,0.05,0.8-0.02,1.1-0.16c-0.02,1.49,0.04,3.96,0.56,5.76c0.12,0.41,1.44,3.03,1.94,4.02
	c-0.86,2.84-1.81,5.56-2.46,6.37c-1.6,1.98-8.46,5.12-14.51,7.89c-4.04,1.85-7.86,3.6-10.43,5.09c-4.45,2.58-6.53,4.47-7.91,5.72
	c-0.81,0.74-1.35,1.22-1.95,1.46c-0.38,0.15-0.78,0.28-1.2,0.41c-1.57,0.5-3.36,1.08-5.15,3.17c-0.7,0.82-1.94,1.39-3.38,2.05
	c-2.66,1.22-5.96,2.75-7.55,6.77c-2.39,6.06-6.36,20.42-5.45,26.28c0.8,5.09,2.17,9.26,2.49,10.19c-0.42,1.06-2.43,6.32-3.56,11.82
	c-1.2,5.82-1.9,18.16-1.99,19.78c-0.89,1.26-7.23,10.49-7.23,18.96v8.69c-0.6,0.98-3.74,6.64-3.07,17.7
	c0.26,4.24,0.73,8.15,1.23,12.28c0.9,7.37,2.71,14.99,2.37,24.85c-0.53,15.03-0.4,27.91,1.46,33.63c0.81,2.47,5.16,14.83,5.36,15.36
	c0,0,0.17,0.57,0.72,0.4c0.03-0.01,2.79-0.79,3.08-4.41l1.14,1.17c0.2,0.21,0.54,0.18,0.71-0.05l0.05-0.07
	c0.09-0.12,1.37-1.95,1.76-4.23c0.81-1.24,2.45-4.42,0.47-7.45c-0.82-1.25-3.79-4.29-4.48-5c-0.05-0.63-0.25-2.58-0.78-4.71
	c-0.46-2.58-0.19-4.51,0.39-5.83c0.16-0.32,0.34-0.63,0.53-0.95c0.45-0.63,0.98-1.03,1.48-1.22c0.13-0.05,0.2-0.03,0.28,0.02
	c1.16,0.75,1.43,2.75,1.72,4.86c0.27,1.98,0.62,3.99,1.55,5.63c1.15,2.02,4.43,2.79,4.85-1.07c0.3-2.74,0.3-6.12,0.29-7.55
	l-0.08-1.45c-0.3-5.51-0.51-8.31-3.47-13.12c-1.3-2.11-1.32-3.28-0.5-11.47c0.4-3.99,2.96-10.49,5.56-17.38
	c2.97-7.87,6.05-16.01,6.25-20.73c0.3-7.32-0.66-10.95-1.01-12c0.62-0.74,2.34-3.03,2.81-5.99c0.54-3.44,0.37-9.42,0.36-9.56
	c0.02-0.1,1.82-10.42,4.8-15.15c2.19-3.49,5.16-9.69,6.61-13.38c0.81,3.66,1.52,6.63,1.98,8.02c0.74,2.21,1.67,4.66,2.57,7.03
	c1.29,3.38,2.51,6.58,2.82,8.24c0.31,1.64,0.39,9.94,0.24,24.67c-0.01,0.77-0.01,1.28-0.01,1.43c-0.03,0.28-0.65,1.38-1.2,2.36
	c-1.87,3.31-5,8.85-4.42,13.52c0.65,5.21,1.44,7.4,1.72,8.05c-0.59,1.88-4.95,16.15-4.28,26.44c0.23,3.59-1.18,9.19-2.96,16.28
	c-2.3,9.14-5.17,20.52-6.14,33.64c-1.43,19.42,2.65,51.33,4.19,63.34c0.33,2.57,0.55,4.27,0.58,4.79c0.07,1.27-0.04,2.14-0.18,3.16
	c-0.19,1.38-0.39,2.94-0.18,5.88c0.05,0.67,0.2,1.45,0.45,2.34c-1.08,2.8-2.07,5.59-2.93,8.18c-7.19,16.17-3.99,33.35-0.9,49.96
	c0.67,3.6,1.36,7.33,1.94,10.97l0.09,0.84c0.73,6.56,1.49,13.34-0.15,19.54c-0.83,3.14-1.7,4.97-2.34,6.12c0,0-0.01,0.01-0.01,0.01
	c-0.06,0.05-0.08,0.11-0.09,0.17c-0.15,0.26-0.29,0.48-0.4,0.68c-0.11,0.19-0.21,0.35-0.29,0.48c-0.65,1.18-0.66,2.54-0.38,3.84
	c-0.19,0.51-1.61,4.09-5.23,6.14c-3.4,1.93-6.44,3.21-7.53,3.75c-2.55-0.41-5.53,0.37-6.14,1.02c-0.46,0.49-0.92,1.25-0.92,3.15
	c0,1.84,2.21,2.67,3.19,2.95c0,0.65,0.16,1.87,1.06,3.26c1.28,2,9.25,4.52,12.62,5.51c1.15,0.34,3.37,1.87,5.33,3.21
	c1.84,1.27,3.58,2.47,4.65,2.87c1.09,0.41,3.39,0.8,6.09,0.8c3.31,0,7.21-0.59,10.23-2.48c5.69-3.56,1.78-18.33,1.61-18.96
	c-0.2-0.74-0.42-1.55-0.65-2.41c-0.71-2.67-1.51-5.69-2.33-8.15c0.03-0.93,0.51-1.9,1.02-2.92c0.56-1.12,1.14-2.28,1.14-3.49
	l-0.02-0.14c-5.15-18.53,2.5-35.94,9.89-52.78l0.95-2.17c0.36-1.42,0.84-2.88,1.31-4.29c0.96-2.88,1.95-5.86,1.95-8.9
	c-0.46-4.13-1.66-8.16-2.93-12.43c-0.75-2.54-1.77-6.27-2.67-9.67c4.4-6.7,8.27-15.22,9.2-20.29c0.69-3.78,1.3-10.93,1.99-19.22
	c0.62-7.32,1.31-15.61,2.16-22.23c1.05-8.17,3.21-17.4,4.95-24.82c1.19-5.07,2.22-9.45,2.55-12.09c0.74-5.84-0.34-12.7-0.59-14.13
	c0.68-2.09,0.97-4.48,1.03-6.9c0.06,2.42,0.35,4.81,1.03,6.9c-0.25,1.43-1.33,8.29-0.58,14.13c0.34,2.64,1.36,7.02,2.55,12.09
	c1.74,7.42,3.9,16.64,4.95,24.82c0.85,6.62,1.55,14.92,2.16,22.23c0.7,8.28,1.3,15.44,1.99,19.22c0.93,5.06,4.78,13.56,9.18,20.26
	c-0.94,3.55-1.98,7.4-2.66,9.7c-1.27,4.27-2.47,8.31-2.93,12.43c0,3.04,0.99,6.01,1.95,8.9c0.47,1.41,0.96,2.87,1.31,4.29l0.95,2.17
	c7.39,16.84,15.03,34.26,9.89,52.78l-0.02,0.14c0,1.21,0.58,2.37,1.14,3.49c0.51,1.03,1,1.99,1.02,2.92
	c-0.82,2.46-1.62,5.48-2.33,8.15c-0.23,0.86-0.44,1.67-0.65,2.41c-0.17,0.63-4.08,15.4,1.61,18.96c3.01,1.88,6.92,2.48,10.23,2.48
	c2.7,0,5-0.4,6.09-0.8c1.07-0.4,2.81-1.6,4.65-2.87c1.96-1.35,4.18-2.87,5.33-3.21c3.37-0.99,11.34-3.51,12.62-5.51
	c0.9-1.4,1.05-2.61,1.06-3.26c0.98-0.28,3.19-1.12,3.19-2.95c0-1.9-0.47-2.66-0.92-3.15c-0.6-0.64-3.59-1.43-6.14-1.01
	c-1.09-0.54-4.13-1.82-7.53-3.75c-3.62-2.05-5.04-5.63-5.23-6.14c0.28-1.31,0.27-2.66-0.38-3.84c-0.07-0.14-0.17-0.3-0.29-0.48
	c-0.12-0.19-0.25-0.41-0.4-0.68c-0.01-0.06-0.03-0.12-0.09-0.17c0,0-0.01-0.01-0.01-0.01c-0.64-1.14-1.51-2.98-2.34-6.12
	c-1.64-6.2-0.88-12.98-0.15-19.54l0.09-0.84c0.58-3.64,1.27-7.37,1.94-10.97c3.09-16.61,6.29-33.79-0.9-49.96
	c-0.86-2.58-1.85-5.36-2.93-8.16c0.25-0.89,0.41-1.68,0.45-2.36c0.21-2.94,0-4.5-0.18-5.88c-0.14-1.01-0.25-1.89-0.18-3.16
	c0.03-0.52,0.25-2.22,0.58-4.79c1.54-12.01,5.62-43.91,4.19-63.34c-0.97-13.13-3.83-24.5-6.14-33.64
	c-1.79-7.09-3.2-12.69-2.96-16.28c0.67-10.29-3.69-24.56-4.28-26.44c0.29-0.65,1.08-2.84,1.72-8.05c0.58-4.67-2.55-10.21-4.42-13.52
	c-0.55-0.98-1.17-2.08-1.2-2.36c0-0.15,0-0.66-0.01-1.43c-0.14-14.74-0.06-23.04,0.24-24.67c0.31-1.67,1.53-4.86,2.82-8.24
	c0.9-2.37,1.84-4.82,2.57-7.03c0.46-1.39,1.17-4.34,1.98-7.99c1.45,3.69,4.41,9.87,6.6,13.34c2.98,4.73,4.78,15.04,4.8,15.15
	c-0.01,0.15-0.18,6.12,0.36,9.56c0.47,2.96,2.19,5.24,2.81,5.99c-0.35,1.05-1.31,4.68-1.01,12c0.2,4.72,3.27,12.86,6.25,20.73
	c2.6,6.89,5.16,13.39,5.56,17.38c0.82,8.19,0.8,9.36-0.5,11.47c-2.96,4.81-3.16,7.61-3.47,13.12l-0.08,1.45
	c-0.01,1.43-0.02,4.81,0.29,7.55c0.43,3.86,3.71,3.09,4.85,1.07c0.93-1.64,1.29-3.64,1.55-5.63c0.29-2.12,0.56-4.12,1.72-4.86
	c0.08-0.05,0.15-0.07,0.28-0.02c0.5,0.19,1.03,0.59,1.48,1.22c0.19,0.32,0.37,0.63,0.53,0.95c0.58,1.33,0.85,3.25,0.39,5.83
	c-0.54,2.13-0.73,4.08-0.78,4.71c-0.69,0.7-3.66,3.74-4.48,5c-1.99,3.03-0.34,6.21,0.47,7.45c0.39,2.28,1.67,4.11,1.76,4.23
	l0.05,0.07c0.17,0.23,0.51,0.26,0.71,0.05l1.14-1.17c0.29,3.61,3.05,4.4,3.08,4.41c0.55,0.17,0.72-0.4,0.72-0.4
	c0.2-0.52,4.56-12.89,5.36-15.36c1.87-5.72,2-18.59,1.46-33.63c-0.35-9.86,1.47-17.48,2.37-24.85c0.5-4.14,0.98-8.04,1.23-12.28
	C302.46,270.09,299.32,264.43,298.72,263.45z M290.52,236.31c0.05,0.07,3.23,4.49,5.32,9.98c0.07,0.19,0.14,0.37,0.21,0.56
	c0.03,0.09,0.07,0.19,0.1,0.28c0.07,0.19,0.13,0.37,0.19,0.56c0.77,2.3,1.29,4.73,1.29,7.07v8.1c-4.1-4.96-10-8.8-11.14-15.3
	c1.49-3.57,2.89-7.58,4-11.3L290.52,236.31z M272.57,160.73c0.71,0.45,1.54,0.83,2.4,1.23c2.61,1.2,5.57,2.56,6.99,6.18
	c2.35,5.96,6.27,20.05,5.38,25.71c-0.68,4.34-1.78,8-2.26,9.48c-2.33-2.54-4.82-4.97-7.69-6.81c-4.68-2.99-10-3.99-14.86-6.5
	c-7.78-4.02-8.83-16.41-2.23-22.74C264.09,163.66,267.93,161.4,272.57,160.73z M214.22,198.68c-0.34-8.85-2.06-18.45,0.16-27.17
	c1.83-7.16,6.23-12.44,12.47-15.9c3.65,1.99,7.76,3.31,12.03,3.97c3.76,0.58,12.21,1.86,18.78,0.74c0.83,5.65-6.81,6.03-10.02,6.22
	c-1.09,0.07-2.14,0.11-3.22,0.28c-2.27,0.36-5.36,0.57-7.33,1.95c-3.65,2.54-2.82,7.03-1.95,10.95c2.12,9.56,5.36,18.4,0.68,27.87
	c-3.38,6.85-7.99,13.05-12.29,19.35c-1.37,2.01-2.85,3.92-4.26,5.91c-1.02,1.44-4.99,4.43-4.96,1.41c0.04-3.84-0.22-7.69-0.27-11.53
	C213.92,214.73,214.53,206.68,214.22,198.68z M255.87,183.81c0.15,0.47,0.33,0.9,0.53,1.32c-4.03,4.9-9.4,8.11-15.39,10.13
	c-0.7-1.09-1.42-2.16-2.18-3.21c-0.04-0.05-0.08-0.08-0.13-0.1c-0.16-1.1-0.38-2.23-0.67-3.37c-1.4-5.54-6.64-18,1.74-20.12
	c1.09-0.28,2.18-0.45,3.28-0.58c4.53,2.03,8.53,4.87,11.96,8.46c0.01,0.01,0.02,0.01,0.03,0.02
	C254.8,178.69,255.05,181.19,255.87,183.81z M238.85,193.24c2.53,3.6,4.69,7.42,6.48,11.47c-2.87-0.35-5.55-1.01-7.31-1.58
	C238.87,199.94,239.18,196.68,238.85,193.24z M241.35,195.82c5.95-2.03,11.32-5.23,15.37-10.07c0.95,1.66,2.32,2.91,3.91,3.9
	c-0.35,1.82-1.18,6.11-2.17,11.11c-1.57,3.99-7.17,4.57-12.39,4.04C244.72,201.67,243.14,198.68,241.35,195.82z M265.34,156.36
	c0.39,0.16,0.81,0.29,1.23,0.42c1.51,0.48,3.07,0.98,4.66,2.84c0.17,0.19,0.36,0.37,0.56,0.54c-8.52,1.36-15.49,7.26-16.67,15.37
	c-3.16-3.23-6.78-5.85-10.84-7.8c2.77-0.25,5.55-0.29,8.27-0.88c3.7-0.8,6.24-3.24,5.77-6.65
	C261.37,159.6,263.93,158.42,265.34,156.36z M244.97,144.05c4.02,1.84,7.81,3.58,10.34,5.04c4.35,2.52,6.38,4.37,7.72,5.59
	c0.65,0.59,1.17,1.06,1.72,1.39c-5.43,7.91-29.32,2.58-34.81,0.35c-5.87-2.38-8.38-5.36-11.99-10.36c-3.54-4.9-3.94-9.25-4.06-15.11
	c-0.07-3.33-0.24-6.71-0.14-10.04c0-1,0.08-1.98,0.24-2.97c0.11-1.13,1.29-2.14,2.45-1.69c1.26,0.48,2.21,1.72,2.79,2.87
	c0.54,1.07,1.02,2.17,1.55,3.25c2.38,4.89,5.1,10.07,9.35,13.55C231.97,138.09,238.57,141.12,244.97,144.05z M198.96,121.06
	c0,0-0.75,2.97-1.69,6.2c-0.46-0.9-1.28-2.52-1.36-2.78c-0.73-2.52-0.47-6.66-0.47-6.7l0.16-2.56l-1.19,2.28
	c-0.01,0.03-0.38,0.69-1.08,0.61c-1.06-0.13-2.73-3.15-3.73-4.95c-0.5-0.91-0.94-1.69-1.31-2.22c-1.08-1.54-1.05-5.37,0.07-8.91
	c0.18-0.56,0.42-0.88,0.72-0.93c0.77-0.14,2.13,1.09,2.85,2.01l1.1,1.38l-0.13-1.76c-0.01-0.16-1.11-15.75,4.39-22.36
	c4.08-4.9,12.88-5.95,15.34-6.15c2.46,0.2,11.26,1.25,15.34,6.15c5.5,6.6,4.4,22.2,4.39,22.36l-0.13,1.76l1.1-1.38
	c0.73-0.92,2.08-2.15,2.85-2.01c0.3,0.06,0.54,0.37,0.72,0.93c1.12,3.54,1.15,7.37,0.07,8.91c-0.37,0.53-0.81,1.31-1.31,2.22
	c-1,1.8-2.67,4.82-3.73,4.95c-0.69,0.08-1.06-0.58-1.08-0.61l-1.19-2.28l0.16,2.56c0,0.04,0.26,4.18-0.47,6.7
	c-0.08,0.26-0.91,1.91-1.38,2.8c-0.95-3.24-1.7-6.23-1.7-6.23c0.06,0.43,1.3,9.11,2.92,13.18c-4.08-3.96-6.53-9.52-8.98-14.59
	c-0.56-1.15-2.9-5.98-5.21-4.61c-2.39,1.42-1.98,5.37-1.91,7.74c0.15,5.24-0.75,11.26,0.58,16.37c1.89,7.3,6.53,12.63,12.5,16.08
	c-5.51,3.13-10.37,8-11.96,14.26c-2.63,10.31-0.58,20.63-0.62,31.08c-0.05,11.2,0.32,22.51,0.05,33.7
	c-0.04,1.66,0.65,3.86,2.04,3.58c0.12,1.77,0.31,3.54,0.53,5.31c-0.7-1.32-1.86-3.32-2.84-4.29c-0.4-0.4-1.12-0.38-1.54,0.04
	c-0.94,0.95-2.02,2.63-2.77,3.96c0.2-1.67,0.38-3.34,0.49-5.01c1.39,0.27,2.08-1.92,2.04-3.58c-0.27-11.19,0.1-22.49,0.05-33.7
	c-0.04-10.45,2.01-20.77-0.62-31.08c-1.6-6.26-6.45-11.13-11.96-14.26c5.97-3.45,10.61-8.78,12.5-16.08
	c1.33-5.11,0.43-11.13,0.58-16.37c0.07-2.37,0.48-6.33-1.91-7.74c-2.31-1.37-4.65,3.46-5.21,4.61c-2.46,5.08-4.92,10.66-9.02,14.62
	C197.65,130.21,198.9,121.49,198.96,121.06z M216.49,245.24c1.1,7.73,3,15.38,5.17,22.83c0.83,2.86,1.83,10.27,5.49,12.19
	c2.61,2.05,1.96,5.36,1.7,6.42c-0.55,2.29-11.8,16.58-15.66,20.35c-0.3,0.29-0.86,0.3-1.17,0.01c-4.16-3.85-15.33-17.85-15.88-20.14
	c-0.26-1.07-0.81-4.5,1.84-6.57c3.77-1.81,4.79-9.37,5.63-12.26c2.2-7.58,4.13-15.37,5.22-23.24c0.86-1.76,2.18-3.85,3.02-4.95
	c0.6-0.79,1.06-0.7,1.6,0.08C214.17,240.98,215.65,243.42,216.49,245.24z M170.23,176.37c0.02-0.01,0.03-0.02,0.05-0.03
	c3.43-3.6,7.42-6.44,11.96-8.46c1.1,0.13,2.19,0.31,3.28,0.58c8.38,2.12,3.14,14.58,1.74,20.12c-0.29,1.15-0.51,2.27-0.67,3.37
	c-0.05,0.02-0.09,0.05-0.13,0.1c-0.76,1.05-1.49,2.12-2.18,3.21c-6-2.02-11.37-5.24-15.4-10.15c0.2-0.41,0.38-0.84,0.52-1.3
	C170.2,181.19,170.45,178.69,170.23,176.37z M183.92,195.82c-1.79,2.86-3.37,5.85-4.72,8.98c-5.09,0.53-10.55,0.02-12.31-3.67
	c-1.03-5.17-1.89-9.64-2.25-11.49c1.59-0.99,2.95-2.24,3.9-3.9C172.59,190.59,177.96,193.78,183.92,195.82z M186.43,193.24
	c-0.34,3.44-0.03,6.7,0.83,9.89c-1.75,0.57-4.43,1.23-7.31,1.59C181.74,200.66,183.9,196.84,186.43,193.24z M190.13,179.74
	c0.87-3.93,1.7-8.41-1.95-10.95c-1.97-1.37-5.06-1.59-7.33-1.95c-1.08-0.17-2.13-0.22-3.23-0.28c-3.21-0.19-10.85-0.57-10.02-6.22
	c6.57,1.12,15.02-0.16,18.78-0.74c4.27-0.66,8.38-1.98,12.03-3.97c6.24,3.46,10.65,8.74,12.48,15.9c2.22,8.72,0.49,18.32,0.16,27.17
	c-0.3,8,0.3,16.05,0.19,24.07c-0.06,3.84-0.31,7.69-0.27,11.53c0.03,3.02-3.95,0.03-4.96-1.41c-1.41-1.99-2.88-3.9-4.26-5.91
	c-4.3-6.29-8.95-12.48-12.34-19.33c-0.72-1.45-1.25-2.89-1.62-4.32c0,0,0-0.01,0-0.01C185.71,195.41,188.34,187.82,190.13,179.74z
	 M162.22,154.68c1.34-1.22,3.37-3.06,7.72-5.59c2.53-1.47,6.32-3.2,10.34-5.04c6.34-2.91,12.89-5.91,14.79-8.08
	c4.3-3.48,7.03-8.68,9.42-13.6c0.52-1.08,1.01-2.18,1.55-3.25c0.58-1.15,1.53-2.39,2.79-2.87c1.16-0.45,2.35,0.56,2.45,1.69
	c0.16,0.98,0.24,1.97,0.24,2.97c0.1,3.33-0.07,6.71-0.14,10.04c-0.12,5.86-0.51,10.21-4.06,15.11c-3.61,4.99-6.12,7.98-11.99,10.36
	c-5.5,2.23-29.4,7.56-34.82-0.36C161.07,155.73,161.58,155.27,162.22,154.68z M154.02,159.63c1.59-1.86,3.15-2.36,4.66-2.84
	c0.43-0.14,0.85-0.27,1.25-0.43c1.41,2.06,3.98,3.24,7.02,3.85c-0.47,3.41,2.07,5.85,5.77,6.65c2.72,0.59,5.5,0.64,8.27,0.88
	c-4.07,1.95-7.7,4.58-10.86,7.82c-1.17-8.12-8.14-14.03-16.67-15.39C153.66,160,153.85,159.82,154.02,159.63z M137.9,193.85
	c-0.89-5.66,3.03-19.75,5.38-25.71c1.42-3.62,4.38-4.98,6.99-6.18c0.86-0.4,1.69-0.78,2.4-1.23c4.64,0.67,8.48,2.93,12.27,6.55
	c6.61,6.33,5.55,18.72-2.22,22.74c-4.86,2.51-10.18,3.52-14.86,6.5c-2.88,1.84-5.36,4.26-7.69,6.81
	C139.68,201.85,138.58,198.2,137.9,193.85z M127.62,254.77c0-2.34,0.53-4.77,1.29-7.07c0.06-0.19,0.13-0.38,0.19-0.56
	c0.03-0.09,0.07-0.19,0.1-0.28c0.07-0.19,0.14-0.38,0.21-0.56c2.09-5.49,5.27-9.92,5.32-9.98l0.03-0.04c1.11,3.72,2.51,7.73,4,11.3
	c-1.15,6.5-7.04,10.33-11.14,15.3V254.77z M126.5,298.46c-0.27-1.75-0.52-3.46-0.73-5.15c-0.5-4.12-0.97-8.01-1.23-12.22
	c-0.02-0.27-0.03-0.54-0.04-0.81c-0.01-0.15-0.01-0.29-0.02-0.44c-0.01-0.2-0.01-0.4-0.02-0.59c0-0.13-0.01-0.26-0.01-0.39
	c0-0.2,0-0.41,0-0.61c0-0.12,0-0.23,0-0.35c0-0.23,0.01-0.45,0.01-0.67c0-0.08,0-0.17,0-0.25c0.22-8.34,2.75-12.6,3.02-13.04
	c3.89-5.21,10.04-8.99,11.68-15.39c0.32,0.74,0.64,1.45,0.96,2.14c0.39,0.84,0.87,1.33,1.4,1.58c-1.81,9.28-6.39,17.12-10.39,25.65
	C128.11,284.4,126.8,291.39,126.5,298.46z M143.58,252.38c0.04,5.27,1.94,10.11,5.48,14.01c-1.29,2.12-2.45,4.35-3.49,6.65
	c-3.18-4.99-4.68-10.59-4.35-16.56c0.37-1.31,0.7-2.64,0.96-4C142.62,252.54,143.09,252.49,143.58,252.38z M142.43,251.06
	c0.85-9.81,3.89-19.95,9.27-28.29c0.58-0.95,1.32-1.75,2.21-2.4c3.7-2.73,1.52,5.8,1.38,6.23c-0.65,2.05-1.35,4.08-1.98,6.14
	c-1.92,6.31-4.2,12.45-7.58,18.1c-0.13,0.03-0.26,0.07-0.39,0.11C144.13,251.28,143.2,251.29,142.43,251.06z M145.25,273.75
	c-3.42,7.79-5.41,16.4-5.8,24.94c-1.21,4.43-3.14,9.78-3.96,14.16c-0.39,2.07-0.64,4.17-1.06,6.23c-0.03,0.13-0.06,0.25-0.09,0.38
	c-0.01,0.04-0.02,0.07-0.03,0.11c-0.03,0.09-0.06,0.18-0.09,0.26c-1.06,2.89-4.49,4.32-4.93-0.33c-1.07-11.34-0.28-24.59,0.52-35.85
	c0.86-2.77,1.94-5.5,3.27-8.21c2.78-5.67,5.56-11,7.47-16.78C140.65,264.07,142.24,269.19,145.25,273.75z M136.64,362.63
	c0,2.42-1.19,3.42-1.86,3.79c-0.58-1.52-2.25-6.07-3.56-9.78l5.43,5.55C136.65,362.34,136.64,362.53,136.64,362.63z M139.07,363.11
	l-8.67-8.87c-0.39-1.15-0.68-2.07-0.81-2.56c-0.27-1.08-0.51-2.28-0.71-3.59c1.07,1.97,2.61,4.24,4.22,5.92
	c3.15,3.31,6.49,6.14,7.03,6.6C139.84,361.66,139.38,362.57,139.07,363.11z M143.27,322.92c2.31,3.66,2.94,7.19,3.23,12.5l0.08,1.43
	c0.02,2.54-0.08,5.31-0.29,7.39c-0.17,1.7-1.54,2.69-2.85,0.62c-0.88-1.4-1.14-3.33-1.4-5.19c-0.32-2.37-0.62-4.61-2.21-5.63
	c-0.24-0.15-0.5-0.22-0.77-0.21c0.97-1.3,1.89-2.38,2.27-2.91c-1.84,0.66-5.89,3.95-6.07,7.49c-0.23,1.21-0.22,2.61,0.12,4.18
	c-0.01,0.06,0,0.13,0.02,0.21c0.7,2.59,0.86,5.09,0.87,5.12c0.22,0.84,3.78,4.01,4.64,5.32c1.67,2.55,0.24,5.23-0.46,6.26
	c-1.06-0.91-3.9-3.39-6.59-6.21c-2.71-2.85-5.11-7.38-5.46-8.9c-0.62-6.53-0.65-15.19-0.27-26.04c0.21-5.93-0.36-11.04-1.04-15.78
	c-0.03-5.18,0.48-10.18,1.64-15.07c-0.46,7.38-0.66,14.77-0.46,22.17c0.04,1.5-0.47,13.43,1.76,14.14c2.29,0.73,4.25-1.56,4.82-3.29
	c0.96-2.86,1.04-6.21,1.6-9.17c0.57-3.02,1.87-6.71,2.92-10.05c-0.04,6.62,0.9,13.14,2.91,19.16
	C142.5,321.38,142.82,322.21,143.27,322.92z M154.33,272.61c-0.19,4.55-3.23,12.6-6.18,20.39c-2.63,6.95-5.03,13.53-5.62,17.63
	c-0.32,2.2-0.54,4.25-0.56,6.09c-4.58-18.47-0.2-40.59,11.47-55.51C153.8,262.4,154.61,265.93,154.33,272.61z M156.14,254.5
	c-0.51,3.22-2.73,5.65-2.75,5.67c0,0-2.82,3.77-3.98,5.63c-3.4-3.8-5.19-8.48-5.19-13.61c1.07-0.34,2.2-0.89,3.31-1.21
	c4.5-1.29,7.17-3.71,9.12-6.88c-0.1,0.51-0.15,0.84-0.17,0.92C156.5,245.1,156.67,251.16,156.14,254.5z M161.33,229.46
	c-2.05,3.39-3.46,9.01-4.23,12.54c-1.79,3.59-4.24,6.57-8.82,8.1c-0.54,0.18-1.09,0.34-1.64,0.49c3.96-6.89,6.07-14.33,8.61-21.91
	c0.33-0.99,3.62-9.67-0.39-9.23c-3.87,0.42-6.04,6.98-7.35,9.89c-3.08,6.85-5.02,13.98-5.7,21.45c-1.09-0.62-1.78-1.86-2.52-3.51
	c-1.62-3.64-3.21-8.61-4.37-12.78c0.23-3.74,0.89-13.42,1.89-18.25c1.24-6.02,3.56-11.76,3.58-11.82l0.2-0.29
	c5.38-5.43,10.85-9.28,18.61-12.04c1.51-0.54,3.04-1.14,4.44-1.9c0.75,3.89,3,15.56,4.91,24.42
	C167.66,217.27,164.1,224.9,161.33,229.46z M176.46,236.38c-0.53-1.53-1.21-3.3-1.9-5.12c-0.9-2.36-1.83-4.8-2.56-6.98
	c-0.95-2.86-3.05-12.85-4.78-21.52c4.07,4.7,15.38,2.58,20.22,1c0.87,2.98,2.2,5.9,3.94,8.88c4.82,8.25,10.56,16.51,16.54,23.96
	c0.37,0.46,0.71,0.78,1.02,0.98c-0.56,8.3-2.27,16.6-4.32,24.63c-0.87,3.41-1.94,6.78-2.87,10.17c-0.65,2.37-1.37,5.23-3.44,6.82
	c-3.05,2.34-4.46-2.1-4.88-4.45c-1.19-6.76-4.92-13.8-7.89-19.95C182.56,248.7,179.6,242.44,176.46,236.38z M177.51,240.31
	c1.02,2.3,2.01,4.61,3.21,6.97c2.71,5.34,5.59,10.45,7.9,16c2.1,5.02,3.6,9.75,4.59,15.08c0.1,0.57,0.25,0.99,0.46,1.32
	c-4.96-1.26-8.8-5.37-12.78-8.52c-1.61-1.28-2.63-3-3.24-4.91c0.02-0.09,0.03-0.18,0.03-0.25c0-0.16,0-0.67,0.01-1.43
	C177.74,259.39,177.89,244.28,177.51,240.31z M172.05,281.73c-0.53-4.32,2.48-9.66,4.29-12.85c0.49-0.88,0.84-1.49,1.06-1.95
	c0.51,1.31,1.2,2.57,2.12,3.76c2.18,2.81,6.01,5.29,8.91,7.32c1.05,0.74,2.09,1.31,3.16,1.74c-5.44,4.12-13.09,5.41-17.76,10.19
	l0.04-0.12l-0.11-0.2C173.74,289.6,172.8,287.79,172.05,281.73z M173.25,291.84c7.69-5.63,15.84-8.65,23.07,0.03
	c3.18,3.81,6.27,7.7,8.96,11.83c-2.88-2.57-6.95-3.35-12.81-0.89c-3.65,1.54-7.1,3.74-10.58,5.62c-0.9,0.49-5.84,2.25-5.88,4.16
	c-2.47,1.54-4.65,3.44-6.52,5.67c0.04-0.71,0.05-1.37,0.01-1.97C168.93,307.69,171.97,296.2,173.25,291.84z M160.4,366.36
	c0.96-13.03,3.81-24.36,6.1-33.46c1.36-5.42,2.51-9.97,2.89-13.5c1.89-2.42,4.13-4.47,6.7-6.1c0.64,3.64,2.87,6.57,3.25,10.48
	c0.55,5.62-1.67,11.34-3.46,16.56c-0.52,1.52-2.65,6.66-2.83,10.45l-0.03,0.03c-7.01,16.24-9.14,33.38-11.57,50.66
	C160.38,389.39,159.67,376.24,160.4,366.36z M161.7,404.27c2.52-17.7,4.46-35.3,11.39-51.96c0.17,1.24,0.68,2.2,1.73,2.59
	c2.1,0.8,4.07,0.45,6.18-0.21c1.82-0.57,3.62-1.19,5.42-1.81c1.1,5.07,0.39,10.96,0.03,15.82c-0.67,8.92-2.1,17.79-3.85,26.55
	c-2.95,14.75-8.98,28.67-15.04,42.48c-0.7,1.5-1.37,3.04-2.02,4.61c-0.23,0.52-0.45,1.03-0.68,1.55c-0.03-0.19-0.05-0.37-0.06-0.54
	c-0.2-2.83,0-4.33,0.18-5.65c0.14-1.02,0.27-1.99,0.19-3.36c-0.03-0.55-0.25-2.27-0.58-4.86
	C163.89,424.1,162.69,414.72,161.7,404.27z M178.92,410.64c-0.08,10.24,5.46,20.63,8.76,29.04c-3.33,4.76-5.91,9.83-7.87,15.14
	c-0.18-8.57-3.3-16.64-9-23.19C173.73,424.71,176.54,417.75,178.92,410.64z M162.17,454.52c0.02-0.06,0.05-0.11,0.07-0.17
	c1.37-4.11,3.95-11.24,5.72-16.07c0.86-1.99,1.71-3.98,2.56-5.98c5.88,6.87,8.88,15.37,8.63,24.37c-2.46,7.27-3.8,14.99-4.28,23.03
	c-0.34,5.67-0.46,11.38-0.47,17.08c-2.93,3.8-9.46,2.59-10.3-2.91c0-0.03-0.02-0.05-0.03-0.07
	C162,480.73,160.48,467.63,162.17,454.52z M163.27,535.54c1.69-6.4,0.92-13.28,0.18-19.94l-0.1-0.86
	c-0.58-3.68-1.28-7.41-1.95-11.02c-3.04-16.34-5.91-31.82-0.14-46.96c-1.24,12.41,0.25,24.8,2.21,37.17
	c-0.01,0.04-0.01,0.08-0.01,0.12c0.03,0.22,0.08,0.43,0.13,0.64c1.76,10.97,3.85,21.92,4.7,32.85c-1.22,4.25-3.26,8.08-6.1,11.41
	C162.55,538.01,162.91,536.89,163.27,535.54z M181.77,540.89c-0.02,0.93-0.51,1.91-1.02,2.94c-0.26,0.52-0.52,1.05-0.73,1.59
	c-1.9-8.16-1.71-16.54,0.56-24.56C179.7,527.38,179.88,534.05,181.77,540.89z M181.28,516.66c-3.73,9.87-4.38,20.44-1.67,30.6
	c0,0.02,0,0.03,0,0.05l0.03,0.17c0.11,0.34,0.23,0.7,0.34,1.06c0.11,0.38,0.22,0.76,0.35,1.13c0.58,1.94,1.14,4.05,1.65,5.98
	c0.23,0.86,0.45,1.67,0.65,2.41c0.04,0.15,3.88,14.62-1.14,17.76c-5.08,3.17-13.15,2.41-15.36,1.58c-0.94-0.35-2.71-1.57-4.42-2.75
	c-2.12-1.46-4.32-2.97-5.64-3.36c-5.38-1.58-11.18-3.76-12.02-5.05c-1.07-1.67-0.88-2.95-0.87-2.99l0.09-0.52l-0.52-0.11
	c-0.03-0.01-2.78-0.6-2.78-2.01c0-1.73,0.43-2.18,0.63-2.41c0.3-0.32,1.72-1.04,3.77-0.79l-2.51,1.56c0,0,1.35,0.66,3.98-1.06
	c3.19-2.08,6.19-3.15,8.17-4.27c2.95-1.67,4.49-4.23,5.15-5.57c0.46,1.22,1.06,2.31,1.49,3.06c0.15,0.27,0.31,0.54,0.45,0.8
	c0,0-2.32-6.41-1.06-8.7c0.07-0.13,0.16-0.27,0.26-0.44c0.29-0.47,0.68-1.12,1.13-2.06c3.17-3.3,5.52-7.17,6.99-11.46
	c0.66,10.02,0.22,20.02-2.54,29.99c-0.11,0.41,1.87-4.84,2.29-7.35c3.07-18.29-0.6-36.63-3.61-55.01c2.24,3.27,7.06,3.59,9.83,0.79
	c0,5.54,0.1,11.08,0.19,16.59c0.04,2.24,0.15,4.42,0.33,6.56c0,0,0.34-5.67,0.29-8.64c-0.05-2.83-0.08-5.66-0.09-8.49
	c2.05,3.02,6.48,3.87,9.4,1.38C183.19,508.92,182.07,512.77,181.28,516.66z M192.97,460.4c1.25,4.22,2.44,8.21,2.88,12.18
	c0,2.8-0.96,5.69-1.9,8.49c-0.48,1.43-0.97,2.91-1.31,4.29l-0.92,2.09c-2.33,5.3-4.68,10.66-6.65,16.09
	c-2.77,3.75-8.29,2.83-9.96-1.05c-0.01-7.03,0.08-14.06,0.32-21.07c0.29-8.49,1.62-16.69,4.23-24.41c0.05-0.1,0.09-0.19,0.13-0.29
	c0-0.03,0-0.05,0-0.08c1.97-5.71,4.65-11.15,8.16-16.23c0.5,1.32,0.94,2.59,1.29,3.79C189.53,449.99,191.39,455.11,192.97,460.4z
	 M190.96,449c-0.98-3.71-1.74-6.7-1.74-6.7c0,0.03,0,0.07,0,0.1c-0.02-0.12-0.05-0.22-0.07-0.3c-3.85-11.81-10.85-21.78-9.59-33.37
	c1.78-5.53,3.29-11.15,4.38-16.91c1.6-8.43,2.77-16.97,3.34-25.53c0.28-4.25,0.69-9.2-0.25-13.61c3.08-1.07,6.16-2.16,9.27-3.14
	c0.97-0.31,1.93-0.64,2.88-0.99c-3.92,11.33-3.54,22.8-1.78,34.27c-7.03,18.5,2.15,39.38-2.13,58.49
	C193.97,443.93,192.5,446.58,190.96,449z M201.45,410.83c-0.67,7.91-1.29,15.38-1.98,19.11c-0.44,2.38-1.59,5.63-3.15,9.09
	c2.94-18.07-4.78-37.54,1.27-54.94c1.17,7.2,2.84,14.4,4.3,21.57C201.73,407.42,201.59,409.15,201.45,410.83z M211.12,351.64
	c-0.33,2.58-1.35,6.94-2.53,11.98c-1.74,7.44-3.91,16.7-4.97,24.93c-0.58,4.48-1.08,9.73-1.54,14.91
	c-3.84-18.41-8.63-37.01-2.12-55.22c4.08-1.61,7.8-3.79,10.3-7.64c0.18-0.27,0.34-0.57,0.49-0.86
	C211.07,341.71,211.74,346.73,211.12,351.64z M210.75,337.75c-1.46,6.53-9.06,9.36-14.64,11.16c-5.43,1.72-10.76,3.73-16.19,5.45
	c-10.49,3.31-3.64-13.13-2.16-17.55c1.53-4.57,2.94-9.93,2.05-14.79c-0.43-2.32-1.1-4.32-2.19-6.39c-2.42-4.58,5.61-7.18,8.18-8.57
	c6.11-3.31,13.83-8.41,19.99-2.54c1.34,2.12,2.57,4.3,3.64,6.58c0.7,2.39,1.07,4.91,1.43,7.12
	C211.9,324.64,212.18,331.37,210.75,337.75z M212.64,328.95c-0.07-3.16-0.45-6.27-0.82-8.73c-0.78-5.19-2.05-10.53-4.54-14.2
	c-3.7-7.15-7.78-11.75-12.74-17.17c-5.91-6.47-14.03-2.83-20.15,1.38c4.7-4.76,12.58-6.02,17.92-10.21
	c0.95,0.32,1.95,0.52,3.03,0.62c0.13,0.02,0.25,0.05,0.39,0.06c0.3,0.04,0.59,0.03,0.86,0c-1.48,1.85-1.64,4.34-1.15,6.35
	c0.64,2.67,6.34,10.22,16.6,21.11c0.28,0.29,0.76,0.34,1.05,0.06c10.63-10.69,15.84-18.7,16.49-21.38c0.47-1.97,0.42-4.33-0.95-6.14
	c0.3,0.03,0.61,0.03,0.94,0c0.14-0.02,0.26-0.04,0.39-0.06c1.08-0.1,2.08-0.31,3.03-0.62c5.35,4.2,13.24,5.46,17.94,10.23
	c-6.12-4.22-14.26-7.89-20.18-1.4c-4.95,5.42-9.04,10.02-12.73,17.17c-2.49,3.68-3.76,9.02-4.54,14.21
	C213.09,322.68,212.7,325.78,212.64,328.95z M247.58,264.57c0.01,0.76,0.01,1.27,0.01,1.43c0,0.08,0.01,0.16,0.03,0.25
	c-0.61,1.91-1.63,3.63-3.24,4.91c-3.98,3.15-7.83,7.26-12.78,8.52c0.21-0.33,0.35-0.76,0.46-1.32c0.99-5.33,2.49-10.05,4.59-15.08
	c2.31-5.54,5.2-10.66,7.9-16c1.18-2.33,2.19-4.66,3.21-6.99C247.38,244.22,247.53,259.38,247.58,264.57z M214.42,318.21
	c0.36-2.21,0.73-4.74,1.43-7.13c1.07-2.28,2.3-4.46,3.64-6.58c6.16-5.87,13.88-0.77,19.99,2.54c2.57,1.39,10.6,3.99,8.18,8.57
	c-1.09,2.07-1.76,4.07-2.19,6.39c-0.89,4.86,0.52,10.22,2.05,14.79c1.48,4.42,8.32,20.86-2.17,17.55
	c-5.43-1.71-10.76-3.73-16.19-5.45c-5.58-1.8-13.18-4.63-14.64-11.16C213.09,331.37,213.38,324.64,214.42,318.21z M221.66,388.55
	c-1.06-8.23-3.23-17.49-4.97-24.93c-1.18-5.04-2.2-9.4-2.53-11.98c-0.63-4.91,0.05-9.93,0.37-11.91c0.16,0.3,0.32,0.59,0.49,0.86
	c2.5,3.84,6.22,6.03,10.3,7.64c6.51,18.22,1.71,36.82-2.12,55.22C222.74,398.27,222.23,393.03,221.66,388.55z M225.8,429.94
	c-0.68-3.73-1.31-11.2-1.98-19.11c-0.14-1.68-0.29-3.41-0.44-5.16c1.45-7.17,3.13-14.37,4.3-21.57c6.05,17.4-1.67,36.86,1.27,54.94
	C227.39,435.57,226.24,432.32,225.8,429.94z M230.02,441.3c-4.28-19.11,4.89-39.99-2.13-58.49c1.77-11.48,2.15-22.95-1.78-34.27
	c0.95,0.35,1.91,0.68,2.88,0.99c3.11,0.98,6.19,2.07,9.27,3.14c-0.94,4.4-0.53,9.36-0.25,13.61c0.57,8.56,1.74,17.1,3.34,25.53
	c1.09,5.77,2.6,11.38,4.38,16.91c1.25,11.6-5.81,21.66-9.66,33.47c-0.03,0.08-0.8,3.11-1.77,6.79
	C232.76,446.56,231.3,443.92,230.02,441.3z M246.36,410.65c2.42,7.23,5.28,14.31,8.26,21.35c-5.42,5.78-8.98,15.36-8.89,23.54
	c-1.99-5.58-4.65-10.88-8.13-15.86C240.9,431.27,246.44,420.88,246.36,410.65z M240.18,503.52c-1.97-5.43-4.32-10.77-6.64-16.07
	l-0.92-2.09c-0.34-1.38-0.83-2.86-1.31-4.29c-0.93-2.8-1.9-5.69-1.9-8.49c0.44-3.97,1.63-7.96,2.88-12.18
	c1.6-5.37,3.74-10.7,3.97-16.61c0-0.78,0.58-2.16,1.05-3.39c8.31,12.03,12.01,26.09,12.52,41.01c0.24,7.02,0.34,14.05,0.32,21.07
	C248.48,506.38,242.94,507.3,240.18,503.52z M244.52,543.82c-0.51-1.03-1-2-1.02-2.94c1.89-6.84,2.07-13.51,1.19-20.04
	c2.27,8.03,2.47,16.4,0.56,24.56C245.04,544.87,244.78,544.34,244.52,543.82z M264.96,542.8c0.11,0.17,0.19,0.32,0.26,0.44
	c1.26,2.29-1.06,8.7-1.06,8.7c0.14-0.26,0.29-0.53,0.45-0.8c0.43-0.75,1.03-1.84,1.49-3.06c0.66,1.34,2.21,3.9,5.15,5.57
	c1.98,1.12,4.99,2.19,8.17,4.27c2.63,1.72,3.98,1.06,3.98,1.06l-2.51-1.56c2.05-0.24,3.47,0.48,3.77,0.79
	c0.2,0.22,0.63,0.68,0.63,2.41c0,1.41-2.75,2-2.78,2.01l-0.52,0.11l0.09,0.52c0.01,0.05,0.2,1.33-0.87,2.99
	c-0.83,1.29-6.63,3.47-12.02,5.05c-1.32,0.39-3.51,1.9-5.64,3.36c-1.71,1.18-3.48,2.39-4.42,2.75c-2.21,0.83-10.28,1.6-15.36-1.58
	c-5.02-3.14-1.17-17.61-1.13-17.76c0.2-0.74,0.42-1.55,0.65-2.41c0.51-1.93,1.08-4.03,1.65-5.98c0.12-0.38,0.23-0.76,0.34-1.13
	c0.11-0.36,0.23-0.72,0.34-1.06l0.03-0.17c0-0.02,0-0.03,0-0.05c2.71-10.17,2.05-20.73-1.67-30.6c-0.79-3.9-1.91-7.75-3.24-11.56
	c2.93,2.51,7.36,1.66,9.42-1.37c-0.01,2.83-0.04,5.66-0.09,8.49c-0.05,2.96,0.28,8.64,0.28,8.64c0.18-2.14,0.29-4.32,0.33-6.56
	c0.1-5.51,0.19-11.05,0.19-16.59c2.76,2.79,7.58,2.47,9.82-0.78c-3.01,18.38-6.68,36.72-3.61,55c0.42,2.51,2.4,7.75,2.29,7.35
	c-2.76-9.98-3.2-19.98-2.54-29.99c1.47,4.29,3.82,8.16,6.99,11.46C264.28,541.68,264.67,542.33,264.96,542.8z M263.86,503.71
	c-0.67,3.61-1.37,7.34-1.95,11.02l-0.1,0.86c-0.74,6.65-1.51,13.54,0.18,19.94c0.36,1.35,0.72,2.47,1.08,3.41
	c-2.84-3.33-4.89-7.17-6.1-11.42c0.86-10.9,2.94-21.81,4.69-32.75c0.06-0.24,0.11-0.48,0.15-0.74c0.01-0.06,0-0.11-0.01-0.15
	c1.96-12.36,3.44-24.74,2.21-37.14C269.77,471.89,266.9,487.37,263.86,503.71z M263.01,454.34c0.03,0.06,0.05,0.11,0.07,0.17
	c1.69,13.12,0.18,26.22-1.89,39.31c-0.01,0.02-0.02,0.03-0.02,0.06c-0.84,5.5-7.37,6.72-10.3,2.91c-0.01-5.71-0.13-11.41-0.47-17.08
	c-0.47-7.76-1.73-15.22-4.03-22.27l0.01,0c-0.73-8.32,2.83-18.7,8.49-24.86c0.79,1.86,1.58,3.71,2.38,5.56
	C259.02,442.97,261.63,450.2,263.01,454.34z M260.69,429.48c-0.33,2.59-0.55,4.31-0.58,4.86c-0.08,1.37,0.05,2.34,0.19,3.36
	c0.18,1.33,0.38,2.83,0.18,5.65c-0.01,0.17-0.04,0.35-0.06,0.54c-0.29-0.68-0.59-1.35-0.89-2.03c-0.54-1.29-1.09-2.56-1.66-3.79
	c-6.11-13.92-12.22-27.95-15.19-42.82c-1.75-8.76-3.18-17.64-3.85-26.55c-0.36-4.86-1.08-10.75,0.03-15.82
	c1.8,0.62,3.61,1.24,5.42,1.81c2.1,0.66,4.08,1.01,6.17,0.21c1.05-0.4,1.56-1.35,1.73-2.59c6.94,16.66,8.87,34.26,11.39,51.96
	C262.58,414.72,261.38,424.1,260.69,429.48z M258.77,332.9c2.29,9.1,5.14,20.43,6.11,33.46c0.73,9.88,0.02,23.03-1.06,35.12
	c-2.43-17.28-4.55-34.42-11.57-50.66l-0.03-0.03c-0.18-3.79-2.31-8.93-2.83-10.45c-1.78-5.22-4-10.94-3.45-16.56
	c0.38-3.91,2.61-6.84,3.25-10.48c2.56,1.64,4.81,3.68,6.7,6.1C256.26,322.93,257.41,327.48,258.77,332.9z M255.78,316.28
	c-0.04,0.61-0.03,1.27,0.01,1.97c-1.88-2.23-4.05-4.13-6.52-5.67c-0.04-1.91-4.98-3.67-5.88-4.16c-3.48-1.89-6.93-4.09-10.58-5.62
	c-5.85-2.46-9.93-1.68-12.81,0.89c2.69-4.13,5.78-8.01,8.96-11.83c7.24-8.69,15.38-5.66,23.07-0.03
	C253.3,296.21,256.34,307.69,255.78,316.28z M248.94,268.88c1.8,3.19,4.82,8.53,4.29,12.85c-0.75,6.06-1.69,7.87-1.7,7.88l-0.11,0.2
	l0.04,0.12c-4.67-4.78-12.32-6.07-17.76-10.19c1.07-0.43,2.11-1,3.16-1.74c2.9-2.03,6.72-4.51,8.91-7.32
	c0.93-1.19,1.62-2.45,2.12-3.76C248.1,267.38,248.44,268,248.94,268.88z M253.28,224.27c-0.73,2.19-1.66,4.62-2.56,6.98
	c-0.7,1.83-1.37,3.6-1.9,5.12c-3.15,6.06-6.11,12.32-9.06,18.43c-2.97,6.15-6.71,13.19-7.9,19.95c-0.41,2.35-1.82,6.78-4.87,4.45
	c-2.08-1.59-2.79-4.44-3.44-6.82c-0.93-3.4-2-6.76-2.87-10.17c-2.05-8.03-3.77-16.34-4.32-24.63c0.31-0.21,0.65-0.53,1.02-0.98
	c5.98-7.45,11.72-15.71,16.54-23.96c1.74-2.97,3.07-5.9,3.94-8.87c4.86,1.58,16.2,3.69,20.23-1.05
	C256.33,211.38,254.23,221.4,253.28,224.27z M263.8,229.39c-2.73-4.34-6.19-12-7.09-14.71c1.91-8.86,4.17-20.55,4.92-24.46
	c1.4,0.75,2.92,1.35,4.43,1.89c7.76,2.75,13.38,6.64,18.75,12.07l-0.02,0.06l0.08,0.19c0.02,0.06,2.34,5.8,3.58,11.82
	c0.99,4.83,1.66,14.52,1.89,18.25c-1.15,4.16-2.74,9.14-4.37,12.78c-0.74,1.65-1.43,2.9-2.52,3.51c-0.68-7.47-2.62-14.61-5.7-21.45
	c-1.31-2.91-3.48-9.47-7.35-9.89c-4.01-0.44-0.72,8.24-0.39,9.23c2.54,7.58,4.65,15.02,8.61,21.91c-0.55-0.15-1.1-0.31-1.64-0.49
	c-4.58-1.53-7.01-4.42-8.8-8.01C267.41,238.57,265.91,232.74,263.8,229.39z M292.18,275.44c1.33,2.71,2.41,5.45,3.27,8.21
	c0.8,11.26,1.59,24.51,0.52,35.85c-0.44,4.65-3.86,3.22-4.93,0.33c-0.03-0.09-0.06-0.17-0.09-0.26c-0.01-0.04-0.02-0.07-0.03-0.11
	c-0.04-0.12-0.07-0.25-0.09-0.38c-0.42-2.06-0.67-4.16-1.06-6.23c-0.83-4.38-2.76-9.73-3.96-14.16c-0.38-8.55-2.38-17.16-5.8-24.95
	c3.8-5.59,4.66-11.49,4.82-14.76C286.73,264.65,289.45,269.88,292.18,275.44z M284.07,256.53c0.03,0.34,0.67,8.62-4.44,16.43
	c-1.03-2.26-2.16-4.47-3.43-6.56c3.54-3.9,5.44-8.74,5.48-14.01c0.49,0.11,0.96,0.16,1.4,0.09
	C283.34,253.86,283.69,255.21,284.07,256.53z M279.9,250.94c-0.13-0.04-0.26-0.07-0.39-0.11c-3.38-5.65-5.66-11.79-7.58-18.1
	c-0.63-2.06-1.33-4.09-1.98-6.14c-0.14-0.43-2.33-8.96,1.38-6.23c0.89,0.65,1.63,1.45,2.21,2.4c5.38,8.34,8.42,18.49,9.27,28.29
	C282.06,251.29,281.12,251.28,279.9,250.94z M269.11,254.5c-0.53-3.34-0.36-9.41-0.35-9.47c-0.01-0.09-0.07-0.41-0.17-0.92
	c1.95,3.17,4.63,5.59,9.12,6.88c1.11,0.32,2.25,0.87,3.31,1.21c0,5.12-1.79,9.8-5.19,13.61c-1.16-1.87-2.87-4.32-3.98-5.63
	C271.84,260.15,269.62,257.72,269.11,254.5z M277.1,293.01c-2.94-7.79-5.99-15.85-6.18-20.39c-0.28-6.68,0.54-10.22,0.89-11.4
	c11.68,14.92,16.05,37.05,11.47,55.51c-0.02-1.84-0.25-3.89-0.56-6.09C282.13,306.54,279.73,299.96,277.1,293.01z M290.47,366.42
	c-0.67-0.37-1.86-1.38-1.86-3.79c0-0.1-0.01-0.29-0.01-0.44l5.43-5.55C292.72,360.35,291.05,364.9,290.47,366.42z M295.66,351.68
	c-0.12,0.49-0.42,1.41-0.81,2.56l-8.67,8.87c-0.32-0.55-0.77-1.45-1.06-2.5c0.55-0.46,3.88-3.29,7.03-6.6
	c1.6-1.68,3.15-3.96,4.21-5.92C296.17,349.4,295.94,350.6,295.66,351.68z M297.1,318.32c0.38,10.85,0.36,19.51-0.27,26.04
	c-0.35,1.52-2.75,6.06-5.46,8.9c-2.69,2.82-5.52,5.3-6.59,6.21c-0.7-1.04-2.13-3.72-0.46-6.26c0.85-1.3,4.42-4.48,4.64-5.32
	c0.01-0.03,0.17-2.53,0.87-5.12c0.02-0.08,0.02-0.14,0.02-0.21c0.34-1.57,0.35-2.97,0.12-4.18c-0.17-3.54-4.23-6.83-6.07-7.49
	c0.39,0.53,1.31,1.61,2.27,2.91c-0.27-0.01-0.53,0.06-0.77,0.21c-1.58,1.02-1.89,3.26-2.21,5.63c-0.25,1.87-0.51,3.8-1.4,5.19
	c-1.31,2.08-2.68,1.08-2.85-0.62c-0.21-2.08-0.31-4.85-0.29-7.39l0.08-1.43c0.29-5.3,0.92-8.84,3.23-12.5
	c0.45-0.71,0.76-1.54,0.97-2.47c2.01-6.02,2.95-12.54,2.91-19.16c1.05,3.34,2.35,7.03,2.92,10.05c0.56,2.96,0.64,6.3,1.6,9.17
	c0.58,1.73,2.53,4.02,4.82,3.29c2.23-0.71,1.72-12.64,1.76-14.14c0.2-7.4,0-14.78-0.46-22.17c1.16,4.89,1.67,9.89,1.64,15.07
	C297.46,307.28,296.9,312.4,297.1,318.32z M300.79,278.25c0,0.2,0,0.4,0,0.61c0,0.13-0.01,0.26-0.01,0.39c0,0.2-0.01,0.39-0.02,0.59
	c-0.01,0.14-0.01,0.29-0.02,0.44c-0.01,0.27-0.02,0.53-0.04,0.81c-0.26,4.21-0.73,8.1-1.23,12.22c-0.21,1.7-0.46,3.41-0.73,5.15
	c-0.29-7.07-1.6-14.06-4.65-20.54c-4-8.52-8.58-16.37-10.39-25.65c0.53-0.25,1.01-0.75,1.4-1.58c0.32-0.68,0.64-1.4,0.96-2.14
	c1.64,6.4,7.79,10.19,11.68,15.39c0.28,0.44,2.8,4.69,3.02,13.04c0,0.08,0,0.17,0,0.25c0.01,0.22,0.01,0.44,0.01,0.67
	C300.79,278.02,300.79,278.14,300.79,278.25z"/>
</svg>
