<?xml version="1.0" encoding="utf-8"?>
<!-- Generator: Adobe Illustrator 26.0.1, SVG Export Plug-In . SVG Version: 6.00 Build 0)  -->
<svg version="1.1" id="Layer_1" xmlns="http://www.w3.org/2000/svg" xmlns:xlink="http://www.w3.org/1999/xlink" x="0px" y="0px"
	 viewBox="0 0 432 648" style="enable-background:new 0 0 432 648;" xml:space="preserve">
<style type="text/css">
	.st0{display:none;opacity:0.5;fill:none;stroke:#231F20;stroke-width:0.05;stroke-miterlimit:10;}
	.st1{fill:#FFFFFF;}
	.st2{fill:#E92A2A;}
	.st3{fill:#D52626;}
</style>
<path class="st0" d="M418.44,444.92c-2.94,1.51-8.31,5.17-9.04,17.27"/>
<g>
	<g id="White_00000001627154629310619270000009738141650453350309_">
		<path class="st1" d="M298.6,263.37v-8.71c0-8.49-6.35-17.74-7.25-19c-0.09-1.62-0.79-13.99-1.99-19.82
			c-1.13-5.51-3.15-10.78-3.57-11.84c0.32-0.94,1.69-5.12,2.49-10.22c0.92-5.87-3.07-20.26-5.46-26.33
			c-1.59-4.03-4.9-5.56-7.56-6.78c-1.44-0.66-2.68-1.24-3.39-2.05c-1.8-2.1-3.58-2.67-5.16-3.17c-0.41-0.13-0.82-0.26-1.2-0.42
			c-0.61-0.24-1.14-0.73-1.95-1.47c-1.38-1.25-3.47-3.15-7.93-5.73c-2.58-1.5-6.4-3.25-10.45-5.1c-6.06-2.78-12.94-5.93-14.54-7.91
			c-0.65-0.81-1.6-3.52-2.46-6.36c0.49-0.97,1.84-3.64,1.96-4.05c0.52-1.81,0.58-4.28,0.56-5.78c0.3,0.14,0.67,0.22,1.11,0.16
			c1.49-0.18,2.89-2.5,4.56-5.52c0.47-0.85,0.91-1.64,1.25-2.13c1.44-2.06,1.13-6.53,0.07-9.88c-0.31-0.98-0.83-1.54-1.56-1.67
			c-0.99-0.18-2.08,0.57-2.86,1.29c0.15-4.17,0.09-15.91-4.72-21.69c-4.15-4.98-12.45-6.22-15.59-6.51h-1.24
			c-3.15,0.3-11.44,1.53-15.59,6.51c-4.82,5.78-4.87,17.52-4.72,21.69c-0.78-0.72-1.87-1.47-2.86-1.29
			c-0.72,0.13-1.25,0.7-1.56,1.67c-1.06,3.35-1.37,7.82,0.07,9.88c0.34,0.48,0.78,1.28,1.25,2.13c1.67,3.01,3.07,5.34,4.56,5.52
			c0.44,0.05,0.81-0.03,1.11-0.16c-0.02,1.5,0.04,3.97,0.56,5.78c0.12,0.41,1.44,3.04,1.95,4.03c-0.87,2.85-1.81,5.57-2.47,6.38
			c-1.61,1.99-8.48,5.13-14.54,7.91c-4.05,1.86-7.87,3.61-10.45,5.1c-4.46,2.59-6.55,4.48-7.93,5.73c-0.81,0.74-1.35,1.23-1.95,1.47
			c-0.38,0.15-0.79,0.28-1.2,0.42c-1.58,0.51-3.37,1.08-5.16,3.17c-0.7,0.82-1.95,1.39-3.39,2.05c-2.66,1.23-5.97,2.75-7.56,6.78
			c-2.39,6.07-6.38,20.47-5.46,26.33c0.8,5.1,2.17,9.28,2.49,10.22c-0.42,1.06-2.44,6.34-3.57,11.84c-1.2,5.84-1.9,18.2-1.99,19.82
			c-0.9,1.26-7.25,10.51-7.25,19v8.71c-0.6,0.98-3.75,6.66-3.07,17.74c0.26,4.25,0.73,8.17,1.24,12.31
			c0.9,7.39,2.72,15.02,2.37,24.91c-0.53,15.07-0.4,27.97,1.47,33.7c0.81,2.47,5.18,14.87,5.38,15.39c0,0,0.17,0.57,0.72,0.4
			c0.03-0.01,2.79-0.79,3.09-4.41l1.14,1.17c0.2,0.21,0.54,0.18,0.71-0.05l0.05-0.07c0.09-0.12,1.37-1.95,1.76-4.24
			c0.81-1.24,2.46-4.43,0.47-7.47c-0.82-1.26-3.79-4.3-4.49-5.01c-0.05-0.63-0.25-2.59-0.78-4.72c-0.46-2.59-0.19-4.52,0.39-5.85
			c0.16-0.32,0.34-0.64,0.53-0.95c0.45-0.63,0.98-1.03,1.48-1.22c0.13-0.05,0.2-0.03,0.28,0.02c1.16,0.75,1.44,2.75,1.72,4.87
			c0.27,1.99,0.62,4,1.56,5.64c1.15,2.02,4.44,2.79,4.86-1.08c0.3-2.75,0.3-6.13,0.29-7.56l-0.08-1.45
			c-0.3-5.52-0.51-8.33-3.48-13.15c-1.3-2.11-1.32-3.28-0.5-11.49c0.4-4,2.96-10.51,5.57-17.42c2.98-7.89,6.06-16.05,6.26-20.78
			c0.3-7.33-0.66-10.98-1.01-12.03c0.62-0.74,2.34-3.03,2.81-6c0.54-3.45,0.38-9.44,0.36-9.58c0.02-0.1,1.83-10.44,4.81-15.18
			c2.2-3.49,5.17-9.71,6.63-13.41c0.81,3.67,1.52,6.65,1.99,8.04c0.74,2.21,1.67,4.67,2.58,7.04c1.29,3.39,2.52,6.59,2.83,8.26
			c0.31,1.64,0.39,9.96,0.24,24.73c-0.01,0.77-0.01,1.28-0.01,1.43c-0.03,0.28-0.65,1.39-1.21,2.36c-1.87,3.32-5.01,8.87-4.43,13.55
			c0.65,5.23,1.44,7.41,1.73,8.07c-0.59,1.88-4.96,16.19-4.29,26.5c0.23,3.6-1.18,9.21-2.97,16.32c-2.31,9.16-5.18,20.56-6.15,33.72
			c-1.44,19.47,2.66,51.44,4.2,63.48c0.33,2.58,0.55,4.28,0.58,4.8c0.08,1.27-0.04,2.15-0.18,3.16c-0.19,1.38-0.39,2.95-0.18,5.89
			c0.05,0.67,0.2,1.46,0.45,2.34c-1.08,2.81-2.08,5.61-2.94,8.2c-7.2,16.21-4,33.42-0.9,50.07c0.67,3.61,1.37,7.35,1.94,10.99
			l0.09,0.84c0.73,6.57,1.49,13.37-0.15,19.58c-0.83,3.14-1.7,4.98-2.34,6.13c0,0-0.01,0.01-0.01,0.01
			c-0.06,0.05-0.08,0.11-0.09,0.17c-0.15,0.26-0.29,0.49-0.4,0.68c-0.11,0.19-0.21,0.35-0.29,0.48c-0.66,1.19-0.66,2.54-0.38,3.85
			c-0.19,0.51-1.62,4.1-5.25,6.16c-3.41,1.93-6.46,3.21-7.55,3.76c-2.55-0.41-5.54,0.37-6.15,1.02c-0.46,0.49-0.93,1.25-0.93,3.15
			c0,1.84,2.21,2.68,3.2,2.96c0,0.66,0.16,1.87,1.06,3.27c1.29,2,9.28,4.53,12.65,5.52c1.15,0.34,3.38,1.87,5.34,3.22
			c1.85,1.27,3.59,2.47,4.66,2.87c1.09,0.41,3.4,0.81,6.1,0.81c3.31,0,7.23-0.59,10.25-2.48c5.7-3.57,1.78-18.37,1.61-19
			c-0.2-0.74-0.42-1.55-0.65-2.41c-0.71-2.67-1.52-5.7-2.33-8.17c0.03-0.93,0.51-1.9,1.03-2.93c0.56-1.12,1.14-2.29,1.14-3.5
			l-0.02-0.14c-5.16-18.57,2.5-36.02,9.91-52.9l0.95-2.18c0.36-1.43,0.84-2.89,1.32-4.3c0.96-2.89,1.96-5.87,1.95-8.92
			c-0.46-4.14-1.66-8.18-2.93-12.46c-0.75-2.54-1.77-6.29-2.67-9.69c4.41-6.71,8.28-15.25,9.22-20.33c0.7-3.79,1.3-10.96,2-19.26
			c0.62-7.33,1.32-15.65,2.17-22.28c1.05-8.19,3.22-17.44,4.96-24.87c1.19-5.08,2.22-9.47,2.56-12.12
			c0.75-5.85-0.34-12.73-0.59-14.16c0.68-2.1,0.97-4.49,1.03-6.92c0.06,2.43,0.35,4.82,1.03,6.92c-0.25,1.43-1.33,8.31-0.59,14.16
			c0.34,2.65,1.37,7.04,2.56,12.12c1.74,7.43,3.91,16.68,4.96,24.87c0.85,6.64,1.55,14.95,2.17,22.28c0.7,8.3,1.3,15.47,2,19.26
			c0.93,5.07,4.79,13.6,9.2,20.3c-0.94,3.55-1.98,7.42-2.66,9.72c-1.27,4.28-2.47,8.32-2.93,12.46c0,3.04,0.99,6.03,1.95,8.92
			c0.47,1.41,0.96,2.87,1.32,4.3l0.95,2.18c7.41,16.88,15.07,34.33,9.91,52.9l-0.02,0.14c0,1.21,0.58,2.38,1.14,3.5
			c0.51,1.03,1,2,1.03,2.93c-0.82,2.46-1.62,5.49-2.33,8.17c-0.23,0.86-0.45,1.67-0.65,2.41c-0.17,0.63-4.09,15.44,1.61,19
			c3.02,1.89,6.93,2.48,10.25,2.48c2.71,0,5.01-0.4,6.1-0.81c1.07-0.4,2.81-1.6,4.66-2.87c1.96-1.35,4.19-2.88,5.34-3.22
			c3.38-0.99,11.36-3.52,12.65-5.52c0.9-1.4,1.06-2.61,1.06-3.27c0.99-0.28,3.2-1.12,3.2-2.96c0-1.9-0.47-2.66-0.93-3.15
			c-0.61-0.65-3.6-1.43-6.15-1.02c-1.09-0.55-4.14-1.83-7.55-3.76c-3.63-2.06-5.05-5.65-5.25-6.16c0.28-1.31,0.27-2.66-0.38-3.85
			c-0.08-0.14-0.17-0.3-0.29-0.48c-0.12-0.19-0.25-0.41-0.4-0.68c-0.01-0.06-0.03-0.12-0.09-0.17c0,0-0.01-0.01-0.01-0.01
			c-0.64-1.15-1.51-2.99-2.34-6.13c-1.64-6.22-0.88-13.01-0.15-19.58l0.09-0.84c0.58-3.65,1.27-7.38,1.94-10.99
			c3.1-16.65,6.3-33.87-0.9-50.07c-0.86-2.59-1.85-5.38-2.93-8.18c0.25-0.89,0.41-1.69,0.46-2.36c0.21-2.94,0-4.51-0.18-5.89
			c-0.14-1.02-0.25-1.89-0.18-3.16c0.03-0.52,0.25-2.22,0.58-4.8c1.54-12.04,5.63-44.01,4.2-63.48
			c-0.97-13.16-3.84-24.56-6.15-33.72c-1.79-7.11-3.2-12.72-2.97-16.32c0.67-10.31-3.7-24.62-4.29-26.5
			c0.29-0.66,1.08-2.84,1.73-8.07c0.58-4.68-2.56-10.23-4.43-13.55c-0.55-0.98-1.18-2.09-1.2-2.36c0-0.15,0-0.66-0.01-1.43
			c-0.14-14.77-0.06-23.09,0.24-24.73c0.31-1.67,1.54-4.87,2.83-8.26c0.91-2.38,1.84-4.83,2.58-7.04c0.46-1.39,1.18-4.35,1.98-8.01
			c1.46,3.7,4.42,9.89,6.61,13.37c2.98,4.74,4.79,15.08,4.81,15.18c-0.01,0.15-0.18,6.13,0.36,9.58c0.47,2.97,2.19,5.26,2.81,6
			c-0.35,1.05-1.31,4.69-1.01,12.03c0.2,4.73,3.28,12.89,6.26,20.78c2.61,6.91,5.17,13.42,5.57,17.42c0.82,8.21,0.8,9.38-0.5,11.49
			c-2.96,4.82-3.17,7.63-3.48,13.15l-0.08,1.45c-0.01,1.43-0.02,4.82,0.29,7.56c0.43,3.87,3.71,3.1,4.86,1.08
			c0.93-1.64,1.29-3.65,1.56-5.64c0.29-2.12,0.56-4.13,1.72-4.87c0.08-0.05,0.15-0.07,0.28-0.02c0.5,0.19,1.03,0.59,1.48,1.22
			c0.19,0.32,0.37,0.64,0.53,0.95c0.58,1.33,0.85,3.26,0.39,5.85c-0.54,2.13-0.73,4.09-0.78,4.72c-0.69,0.71-3.66,3.75-4.49,5.01
			c-1.99,3.04-0.34,6.22,0.47,7.47c0.39,2.28,1.68,4.11,1.76,4.24l0.05,0.07c0.17,0.23,0.51,0.26,0.71,0.05l1.14-1.17
			c0.29,3.62,3.06,4.41,3.09,4.41c0.55,0.17,0.72-0.4,0.72-0.4c0.2-0.53,4.57-12.92,5.38-15.39c1.87-5.73,2-18.63,1.47-33.7
			c-0.35-9.88,1.47-17.52,2.37-24.91c0.5-4.15,0.98-8.06,1.24-12.31C302.34,270.03,299.2,264.35,298.6,263.37z"/>
	</g>
	<g id="Extensor_digitorum_00000124162019894593838020000004664259669823616942_">
		<path class="st2" d="M141.07,252.19c-1.8,9.31-6.4,17.17-10.42,25.71c-2.95,6.28-4.17,14.1-4.68,20.94
			c-0.18-1.51-0.52-4.05-0.71-5.53c-0.5-4.13-0.98-8.03-1.23-12.24c-0.66-10.86,2.51-16.45,2.94-17.14l0.05-0.08
			c3.9-5.2,10.04-8.98,11.67-15.37c0.32,0.74,0.64,1.44,0.97,2.13C140.05,251.45,140.54,251.94,141.07,252.19"/>
		<path class="st3" d="M124.94,290.59c-0.1-0.82-0.19-1.63-0.28-2.44c1.34-6.78,4.7-13.01,7.97-19.06c3-5.57,6.11-11.32,7.65-17.5
			c0.09,0.1,0.18,0.19,0.27,0.27c0.1,0.08,0.19,0.16,0.3,0.22c-1.58,6.1-4.64,11.76-7.6,17.25
			C129.62,276.03,125.88,282.94,124.94,290.59"/>
		<path class="st3" d="M124.01,280.54c-0.07-1.3-0.08-2.53-0.04-3.68c1.3-4.67,4.39-8.89,7.4-13c3.26-4.46,6.64-9.07,7.81-14.27
			c0.15,0.32,0.29,0.64,0.44,0.95c-1.35,4.94-4.56,9.32-7.68,13.57C128.03,269.44,124.32,274.5,124.01,280.54"/>
		<path class="st2" d="M283.56,252.19c1.8,9.31,6.4,17.17,10.42,25.71c2.95,6.28,4.17,14.1,4.68,20.94
			c0.18-1.51,0.52-4.05,0.71-5.53c0.5-4.13,0.98-8.03,1.23-12.24c0.66-10.86-2.51-16.45-2.94-17.14l-0.05-0.08
			c-3.9-5.2-10.04-8.98-11.67-15.37c-0.32,0.74-0.64,1.44-0.97,2.13C284.58,251.45,284.09,251.94,283.56,252.19"/>
		<path class="st3" d="M299.69,290.59c0.1-0.82,0.19-1.63,0.28-2.44c-1.34-6.78-4.7-13.01-7.97-19.06c-3-5.57-6.11-11.32-7.65-17.5
			c-0.09,0.1-0.18,0.19-0.27,0.27c-0.1,0.08-0.19,0.16-0.3,0.22c1.58,6.1,4.64,11.76,7.6,17.25
			C295.01,276.03,298.75,282.94,299.69,290.59"/>
		<path class="st3" d="M300.62,280.54c0.07-1.3,0.08-2.53,0.04-3.68c-1.3-4.67-4.39-8.89-7.4-13c-3.26-4.46-6.64-9.07-7.81-14.27
			c-0.15,0.32-0.29,0.64-0.44,0.95c1.35,4.94,4.56,9.32,7.68,13.57C296.6,269.44,300.3,274.5,300.62,280.54"/>
	</g>
	<path d="M298.6,263.37v-8.71c0-8.49-6.35-17.74-7.25-19c-0.09-1.62-0.79-13.99-1.99-19.82c-1.13-5.51-3.15-10.78-3.57-11.84
		c0.32-0.94,1.69-5.12,2.49-10.22c0.92-5.87-3.07-20.26-5.46-26.33c-1.59-4.03-4.9-5.56-7.56-6.78c-1.44-0.66-2.68-1.24-3.39-2.05
		c-1.8-2.1-3.58-2.67-5.16-3.17c-0.41-0.13-0.82-0.26-1.2-0.42c-0.61-0.24-1.14-0.73-1.95-1.47c-1.38-1.25-3.47-3.15-7.93-5.73
		c-2.58-1.5-6.4-3.25-10.45-5.1c-6.06-2.78-12.94-5.93-14.54-7.91c-0.65-0.81-1.6-3.52-2.46-6.36c0.49-0.97,1.84-3.64,1.96-4.05
		c0.52-1.81,0.58-4.28,0.56-5.78c0.3,0.14,0.67,0.22,1.11,0.16c1.49-0.18,2.89-2.5,4.56-5.52c0.47-0.85,0.91-1.64,1.25-2.13
		c1.44-2.06,1.13-6.53,0.07-9.88c-0.31-0.98-0.83-1.54-1.56-1.67c-0.99-0.18-2.08,0.57-2.86,1.29c0.15-4.17,0.09-15.91-4.72-21.69
		c-4.15-4.98-12.45-6.22-15.59-6.51h-1.24c-3.15,0.3-11.44,1.53-15.59,6.51c-4.82,5.78-4.87,17.52-4.72,21.69
		c-0.78-0.72-1.87-1.47-2.86-1.29c-0.72,0.13-1.25,0.7-1.56,1.67c-1.06,3.35-1.37,7.82,0.07,9.88c0.34,0.48,0.78,1.28,1.25,2.13
		c1.67,3.01,3.07,5.34,4.56,5.52c0.44,0.05,0.81-0.02,1.11-0.16c-0.02,1.5,0.04,3.97,0.56,5.78c0.12,0.41,1.44,3.04,1.95,4.03
		c-0.87,2.85-1.81,5.57-2.47,6.38c-1.61,1.99-8.48,5.13-14.54,7.91c-4.05,1.86-7.87,3.61-10.45,5.1c-4.46,2.59-6.55,4.48-7.93,5.73
		c-0.81,0.74-1.35,1.23-1.95,1.47c-0.38,0.15-0.79,0.28-1.2,0.42c-1.58,0.51-3.37,1.08-5.16,3.17c-0.7,0.82-1.95,1.39-3.39,2.05
		c-2.66,1.23-5.97,2.75-7.56,6.78c-2.39,6.07-6.38,20.47-5.46,26.33c0.8,5.1,2.17,9.28,2.49,10.22c-0.42,1.06-2.44,6.34-3.57,11.84
		c-1.2,5.84-1.9,18.2-1.99,19.82c-0.9,1.26-7.25,10.51-7.25,19v8.71c-0.6,0.98-3.75,6.66-3.07,17.74c0.26,4.25,0.73,8.17,1.24,12.31
		c0.9,7.39,2.72,15.02,2.37,24.91c-0.53,15.07-0.4,27.97,1.47,33.7c0.81,2.47,5.18,14.87,5.38,15.39c0,0,0.17,0.57,0.72,0.4
		c0.03-0.01,2.79-0.79,3.09-4.41l1.14,1.17c0.2,0.21,0.54,0.18,0.71-0.05l0.05-0.07c0.09-0.12,1.37-1.95,1.76-4.24
		c0.81-1.24,2.46-4.43,0.47-7.47c-0.82-1.26-3.79-4.3-4.49-5.01c-0.05-0.63-0.25-2.59-0.78-4.72c-0.46-2.59-0.19-4.52,0.39-5.85
		c0.16-0.32,0.34-0.63,0.53-0.95c0.45-0.63,0.98-1.03,1.48-1.22c0.13-0.05,0.2-0.03,0.28,0.02c1.16,0.75,1.44,2.75,1.72,4.87
		c0.27,1.99,0.62,4,1.56,5.64c1.15,2.02,4.44,2.79,4.86-1.08c0.3-2.75,0.3-6.13,0.29-7.56l-0.08-1.45
		c-0.3-5.52-0.51-8.33-3.48-13.15c-1.3-2.11-1.32-3.28-0.5-11.49c0.4-4,2.96-10.51,5.57-17.42c2.98-7.89,6.06-16.05,6.26-20.78
		c0.3-7.33-0.66-10.98-1.01-12.03c0.62-0.74,2.34-3.03,2.81-6c0.54-3.45,0.38-9.44,0.36-9.58c0.02-0.1,1.83-10.44,4.81-15.18
		c2.2-3.49,5.17-9.71,6.63-13.41c0.81,3.67,1.52,6.65,1.99,8.04c0.74,2.21,1.67,4.67,2.58,7.04c1.29,3.39,2.51,6.59,2.83,8.26
		c0.31,1.64,0.39,9.96,0.24,24.73c-0.01,0.77-0.01,1.28-0.01,1.43c-0.03,0.28-0.65,1.39-1.21,2.36c-1.87,3.32-5.01,8.87-4.43,13.55
		c0.65,5.23,1.44,7.41,1.73,8.07c-0.59,1.88-4.96,16.19-4.29,26.5c0.23,3.6-1.18,9.21-2.97,16.32c-2.31,9.16-5.18,20.56-6.15,33.72
		c-1.44,19.47,2.66,51.44,4.2,63.48c0.33,2.58,0.55,4.28,0.58,4.8c0.07,1.27-0.04,2.15-0.18,3.16c-0.19,1.38-0.4,2.95-0.18,5.89
		c0.05,0.67,0.2,1.46,0.45,2.34c-1.08,2.81-2.08,5.61-2.94,8.2c-7.2,16.21-4,33.42-0.9,50.07c0.67,3.61,1.37,7.35,1.94,10.99
		l0.09,0.84c0.73,6.57,1.49,13.37-0.15,19.58c-0.83,3.14-1.7,4.98-2.34,6.13c0,0-0.01,0.01-0.01,0.01
		c-0.06,0.05-0.08,0.11-0.09,0.17c-0.15,0.26-0.29,0.49-0.4,0.68c-0.11,0.19-0.21,0.35-0.29,0.48c-0.66,1.19-0.66,2.54-0.38,3.85
		c-0.19,0.51-1.62,4.1-5.25,6.16c-3.41,1.93-6.46,3.21-7.55,3.76c-2.55-0.41-5.54,0.37-6.15,1.02c-0.46,0.49-0.93,1.25-0.93,3.15
		c0,1.84,2.21,2.68,3.2,2.96c0,0.66,0.16,1.87,1.06,3.27c1.29,2,9.28,4.53,12.65,5.52c1.15,0.34,3.38,1.87,5.34,3.22
		c1.85,1.27,3.59,2.47,4.66,2.87c1.09,0.41,3.4,0.81,6.1,0.81c3.31,0,7.23-0.59,10.25-2.48c5.7-3.57,1.78-18.37,1.61-19
		c-0.2-0.74-0.42-1.55-0.65-2.41c-0.71-2.67-1.52-5.7-2.33-8.17c0.03-0.93,0.51-1.9,1.03-2.93c0.56-1.12,1.14-2.29,1.14-3.5
		l-0.02-0.14c-5.16-18.57,2.5-36.02,9.91-52.9l0.95-2.18c0.36-1.43,0.84-2.89,1.32-4.3c0.96-2.89,1.96-5.87,1.95-8.92
		c-0.46-4.14-1.66-8.18-2.93-12.46c-0.75-2.54-1.77-6.29-2.67-9.69c4.41-6.71,8.28-15.25,9.22-20.33c0.7-3.79,1.3-10.96,2-19.26
		c0.62-7.33,1.32-15.65,2.17-22.28c1.05-8.19,3.22-17.44,4.96-24.87c1.19-5.08,2.22-9.47,2.56-12.12
		c0.75-5.85-0.34-12.73-0.59-14.16c0.68-2.1,0.97-4.49,1.03-6.92c0.06,2.43,0.35,4.82,1.03,6.92c-0.25,1.43-1.33,8.31-0.59,14.16
		c0.34,2.65,1.37,7.04,2.56,12.12c1.74,7.43,3.91,16.68,4.96,24.87c0.85,6.64,1.55,14.95,2.17,22.28c0.7,8.3,1.3,15.47,2,19.26
		c0.93,5.07,4.79,13.6,9.2,20.3c-0.94,3.55-1.98,7.42-2.66,9.72c-1.27,4.28-2.47,8.32-2.93,12.46c0,3.04,0.99,6.03,1.95,8.92
		c0.47,1.41,0.96,2.87,1.32,4.3l0.95,2.18c7.41,16.88,15.07,34.33,9.91,52.9l-0.02,0.14c0,1.21,0.58,2.38,1.14,3.5
		c0.51,1.03,1,2,1.03,2.93c-0.82,2.46-1.62,5.49-2.33,8.17c-0.23,0.86-0.45,1.67-0.65,2.41c-0.17,0.63-4.09,15.44,1.61,19
		c3.02,1.89,6.93,2.48,10.25,2.48c2.71,0,5.01-0.4,6.1-0.81c1.07-0.4,2.81-1.6,4.66-2.87c1.96-1.35,4.19-2.88,5.34-3.22
		c3.38-0.99,11.36-3.52,12.65-5.52c0.9-1.4,1.06-2.61,1.06-3.27c0.99-0.28,3.2-1.12,3.2-2.96c0-1.9-0.47-2.66-0.93-3.15
		c-0.61-0.65-3.6-1.43-6.15-1.02c-1.09-0.55-4.14-1.83-7.55-3.76c-3.63-2.06-5.05-5.65-5.25-6.16c0.28-1.31,0.27-2.66-0.38-3.85
		c-0.07-0.14-0.17-0.3-0.29-0.48c-0.12-0.19-0.25-0.42-0.4-0.68c-0.01-0.06-0.03-0.12-0.09-0.17c0,0-0.01-0.01-0.01-0.01
		c-0.64-1.15-1.51-2.99-2.34-6.13c-1.64-6.22-0.88-13.01-0.15-19.58l0.09-0.84c0.58-3.65,1.27-7.38,1.94-10.99
		c3.1-16.65,6.3-33.87-0.9-50.07c-0.86-2.59-1.85-5.38-2.93-8.18c0.25-0.89,0.41-1.69,0.46-2.36c0.21-2.94,0-4.51-0.18-5.89
		c-0.14-1.02-0.25-1.89-0.18-3.16c0.03-0.52,0.25-2.22,0.58-4.8c1.54-12.04,5.63-44.01,4.2-63.48c-0.97-13.16-3.84-24.56-6.15-33.72
		c-1.79-7.11-3.2-12.72-2.97-16.32c0.67-10.31-3.7-24.62-4.29-26.5c0.29-0.66,1.08-2.84,1.73-8.07c0.58-4.68-2.56-10.23-4.43-13.55
		c-0.55-0.98-1.18-2.09-1.2-2.36c0-0.15,0-0.66-0.01-1.43c-0.14-14.77-0.06-23.09,0.24-24.73c0.31-1.67,1.54-4.87,2.83-8.26
		c0.91-2.38,1.84-4.83,2.58-7.04c0.46-1.39,1.17-4.35,1.98-8.01c1.46,3.7,4.42,9.89,6.61,13.37c2.98,4.74,4.79,15.08,4.81,15.18
		c-0.01,0.15-0.18,6.13,0.36,9.58c0.47,2.97,2.19,5.26,2.81,6c-0.35,1.05-1.31,4.69-1.01,12.03c0.2,4.73,3.28,12.89,6.26,20.78
		c2.61,6.91,5.17,13.42,5.57,17.42c0.82,8.21,0.8,9.38-0.5,11.49c-2.96,4.82-3.17,7.63-3.48,13.15l-0.08,1.45
		c-0.01,1.43-0.02,4.82,0.29,7.56c0.43,3.87,3.71,3.1,4.86,1.08c0.93-1.64,1.29-3.65,1.56-5.64c0.29-2.12,0.56-4.13,1.72-4.87
		c0.08-0.05,0.15-0.07,0.28-0.02c0.5,0.19,1.03,0.59,1.48,1.22c0.19,0.32,0.37,0.64,0.53,0.95c0.58,1.33,0.85,3.26,0.39,5.85
		c-0.54,2.13-0.73,4.09-0.78,4.72c-0.69,0.71-3.66,3.75-4.49,5.01c-1.99,3.04-0.34,6.22,0.47,7.47c0.39,2.28,1.68,4.12,1.76,4.24
		l0.05,0.07c0.17,0.23,0.51,0.26,0.71,0.05l1.14-1.17c0.29,3.62,3.06,4.41,3.09,4.41c0.55,0.17,0.72-0.4,0.72-0.4
		c0.2-0.53,4.57-12.92,5.38-15.39c1.87-5.73,2-18.63,1.47-33.7c-0.35-9.88,1.47-17.52,2.37-24.91c0.5-4.15,0.98-8.06,1.24-12.31
		C302.35,270.03,299.2,264.35,298.6,263.37z M290.38,236.17c0.05,0.07,3.24,4.5,5.33,10c0.07,0.19,0.14,0.38,0.21,0.57
		c0.03,0.09,0.07,0.19,0.1,0.28c0.07,0.19,0.13,0.37,0.19,0.56c0.77,2.3,1.3,4.74,1.3,7.08v8.12c-4.11-4.98-10.02-8.82-11.17-15.33
		c1.49-3.58,2.89-7.59,4-11.32L290.38,236.17z M272.4,160.42c0.72,0.45,1.55,0.83,2.41,1.23c2.62,1.2,5.58,2.57,7.01,6.19
		c2.35,5.98,6.28,20.1,5.4,25.77c-0.68,4.35-1.78,8.02-2.27,9.5c-2.34-2.55-4.83-4.98-7.71-6.82c-4.69-2.99-10.02-4-14.9-6.52
		c-7.8-4.03-8.85-16.45-2.23-22.79C263.89,163.36,267.74,161.09,272.4,160.42z M213.91,198.46c-0.34-8.87-2.07-18.49,0.16-27.23
		c1.83-7.18,6.25-12.46,12.5-15.93c3.66,2,7.78,3.32,12.05,3.98c3.77,0.58,12.24,1.87,18.82,0.74c0.83,5.66-6.82,6.05-10.04,6.24
		c-1.09,0.07-2.15,0.11-3.23,0.28c-2.28,0.36-5.37,0.58-7.35,1.95c-3.66,2.55-2.83,7.04-1.96,10.98c2.12,9.58,5.37,18.45,0.68,27.93
		c-3.39,6.87-8.01,13.08-12.32,19.39c-1.38,2.01-2.86,3.93-4.27,5.92c-1.02,1.44-5.01,4.44-4.97,1.42
		c0.04-3.85-0.22-7.71-0.27-11.55C213.61,214.55,214.22,206.48,213.91,198.46z M255.65,183.55c0.15,0.47,0.33,0.9,0.53,1.32
		c-4.04,4.91-9.42,8.13-15.43,10.16c-0.7-1.09-1.43-2.16-2.19-3.21c-0.04-0.05-0.08-0.08-0.13-0.1c-0.16-1.11-0.38-2.23-0.67-3.38
		c-1.41-5.55-6.65-18.04,1.74-20.17c1.09-0.28,2.19-0.46,3.29-0.58c4.54,2.03,8.55,4.88,11.98,8.48c0.01,0.01,0.02,0.01,0.03,0.02
		C254.59,178.42,254.83,180.92,255.65,183.55z M238.59,193c2.54,3.61,4.7,7.44,6.49,11.5c-2.88-0.35-5.57-1.01-7.32-1.58
		C238.62,199.72,238.93,196.45,238.59,193z M241.11,195.59c5.97-2.04,11.35-5.24,15.4-10.09c0.95,1.66,2.33,2.92,3.92,3.91
		c-0.35,1.82-1.18,6.13-2.18,11.14c-1.57,4-7.18,4.58-12.41,4.04C244.48,201.45,242.9,198.45,241.11,195.59z M265.15,156.05
		c0.4,0.16,0.81,0.29,1.23,0.43c1.51,0.48,3.07,0.99,4.67,2.85c0.17,0.19,0.36,0.37,0.56,0.54c-8.54,1.36-15.52,7.28-16.7,15.41
		c-3.16-3.24-6.79-5.87-10.86-7.82c2.78-0.25,5.56-0.29,8.28-0.89c3.7-0.81,6.26-3.25,5.78-6.67
		C261.16,159.28,263.74,158.11,265.15,156.05z M244.73,143.71c4.02,1.84,7.83,3.58,10.36,5.06c4.36,2.53,6.39,4.38,7.74,5.6
		c0.65,0.59,1.17,1.06,1.72,1.39c-5.44,7.93-29.38,2.58-34.89,0.35c-5.88-2.38-8.4-5.38-12.02-10.38
		c-3.55-4.91-3.95-9.27-4.07-15.14c-0.07-3.34-0.24-6.72-0.14-10.06c0-1,0.08-1.99,0.24-2.97c0.11-1.14,1.3-2.15,2.46-1.7
		c1.26,0.49,2.22,1.73,2.79,2.88c0.54,1.07,1.03,2.17,1.55,3.26c2.38,4.9,5.11,10.09,9.38,13.58
		C231.7,137.73,238.32,140.77,244.73,143.71z M198.61,120.66c0,0-0.75,2.97-1.7,6.22c-0.47-0.9-1.29-2.52-1.37-2.78
		c-0.73-2.53-0.47-6.68-0.47-6.72l0.16-2.56l-1.19,2.28c-0.01,0.03-0.38,0.69-1.08,0.61c-1.06-0.13-2.74-3.16-3.74-4.96
		c-0.5-0.91-0.94-1.69-1.31-2.23c-1.08-1.54-1.05-5.38,0.07-8.93c0.18-0.56,0.42-0.88,0.72-0.93c0.77-0.14,2.13,1.09,2.86,2.01
		l1.1,1.39l-0.13-1.76c-0.01-0.16-1.12-15.79,4.4-22.41c4.09-4.91,12.91-5.97,15.38-6.17c2.47,0.2,11.29,1.26,15.38,6.17
		c5.52,6.62,4.41,22.25,4.4,22.41l-0.13,1.76l1.1-1.39c0.73-0.92,2.09-2.15,2.86-2.01c0.3,0.06,0.54,0.37,0.72,0.93
		c1.12,3.55,1.15,7.39,0.07,8.93c-0.37,0.53-0.81,1.32-1.31,2.23c-1,1.81-2.68,4.84-3.74,4.96c-0.7,0.08-1.06-0.58-1.08-0.61
		l-1.19-2.28l0.16,2.56c0,0.04,0.26,4.19-0.47,6.72c-0.08,0.26-0.91,1.91-1.38,2.81c-0.95-3.25-1.7-6.24-1.7-6.24
		c0.06,0.43,1.3,9.13,2.92,13.21c-4.09-3.97-6.55-9.54-9-14.62c-0.56-1.15-2.91-5.99-5.22-4.62c-2.39,1.42-1.98,5.39-1.92,7.76
		c0.15,5.25-0.75,11.28,0.58,16.41c1.9,7.32,6.55,12.66,12.53,16.12c-5.53,3.14-10.39,8.02-11.99,14.29
		c-2.63,10.33-0.58,20.67-0.62,31.15c-0.05,11.23,0.32,22.56,0.05,33.77c-0.04,1.67,0.66,3.87,2.05,3.59
		c0.12,1.78,0.31,3.55,0.53,5.32c-0.7-1.32-1.87-3.33-2.85-4.3c-0.4-0.4-1.12-0.38-1.54,0.04c-0.94,0.95-2.02,2.63-2.78,3.97
		c0.2-1.67,0.38-3.35,0.49-5.02c1.39,0.27,2.09-1.93,2.05-3.59c-0.27-11.21,0.1-22.54,0.05-33.77c-0.04-10.48,2.01-20.82-0.62-31.15
		c-1.6-6.27-6.46-11.16-11.99-14.29c5.98-3.46,10.63-8.8,12.53-16.12c1.33-5.13,0.43-11.16,0.58-16.41
		c0.07-2.38,0.48-6.34-1.92-7.76c-2.31-1.37-4.66,3.47-5.22,4.62c-2.46,5.09-4.93,10.68-9.04,14.65
		C197.31,129.83,198.55,121.09,198.61,120.66z M216.19,245.12c1.11,7.75,3.01,15.41,5.18,22.88c0.83,2.87,1.84,10.3,5.5,12.22
		c2.62,2.06,1.96,5.37,1.71,6.43c-0.55,2.29-11.83,16.62-15.7,20.39c-0.3,0.29-0.86,0.3-1.17,0.01
		c-4.17-3.86-15.37-17.89-15.92-20.19c-0.26-1.07-0.82-4.51,1.85-6.58c3.78-1.81,4.8-9.39,5.64-12.29c2.21-7.6,4.14-15.4,5.23-23.29
		c0.86-1.76,2.19-3.86,3.03-4.96c0.6-0.79,1.06-0.71,1.6,0.08C213.86,240.86,215.34,243.3,216.19,245.12z M169.82,176.09
		c0.02-0.01,0.03-0.02,0.05-0.03c3.44-3.61,7.44-6.45,11.98-8.48c1.1,0.13,2.2,0.31,3.29,0.58c8.4,2.13,3.15,14.61,1.74,20.17
		c-0.29,1.15-0.51,2.27-0.67,3.38c-0.05,0.02-0.09,0.05-0.13,0.1c-0.76,1.05-1.49,2.12-2.19,3.21c-6.01-2.03-11.4-5.25-15.44-10.17
		c0.2-0.41,0.38-0.84,0.52-1.31C169.79,180.93,170.04,178.43,169.82,176.09z M183.54,195.59c-1.8,2.87-3.37,5.87-4.73,9
		c-5.1,0.53-10.58,0.02-12.34-3.68c-1.03-5.18-1.9-9.66-2.25-11.52c1.59-0.99,2.96-2.25,3.91-3.91
		C172.18,190.34,177.57,193.55,183.54,195.59z M186.06,193c-0.34,3.45-0.03,6.71,0.83,9.91c-1.75,0.57-4.44,1.23-7.32,1.59
		C181.35,200.44,183.52,196.61,186.06,193z M189.77,179.47c0.87-3.93,1.7-8.43-1.96-10.98c-1.98-1.38-5.07-1.59-7.35-1.95
		c-1.09-0.17-2.14-0.22-3.23-0.28c-3.22-0.19-10.87-0.57-10.04-6.24c6.59,1.13,15.05-0.16,18.82-0.74c4.28-0.66,8.4-1.98,12.05-3.98
		c6.25,3.47,10.67,8.75,12.5,15.93c2.23,8.74,0.5,18.36,0.16,27.23c-0.3,8.02,0.3,16.09,0.19,24.12c-0.06,3.85-0.31,7.71-0.27,11.55
		c0.03,3.03-3.96,0.03-4.98-1.42c-1.41-1.99-2.89-3.91-4.27-5.92c-4.31-6.31-8.97-12.5-12.37-19.37c-0.72-1.46-1.25-2.9-1.63-4.33
		c0,0,0-0.01,0-0.01C185.34,195.18,187.97,187.58,189.77,179.47z M161.8,154.36c1.35-1.22,3.38-3.07,7.74-5.6
		c2.53-1.47,6.34-3.21,10.36-5.06c6.36-2.91,12.92-5.92,14.82-8.1c4.31-3.49,7.05-8.7,9.45-13.63c0.53-1.08,1.01-2.18,1.55-3.26
		c0.58-1.15,1.53-2.39,2.8-2.88c1.16-0.45,2.35,0.56,2.46,1.7c0.16,0.99,0.24,1.98,0.24,2.97c0.1,3.34-0.07,6.72-0.14,10.06
		c-0.12,5.87-0.52,10.23-4.07,15.14c-3.62,5-6.14,8-12.02,10.38c-5.51,2.23-29.47,7.58-34.9-0.36
		C160.64,155.41,161.15,154.95,161.8,154.36z M153.58,159.32c1.6-1.86,3.16-2.36,4.67-2.85c0.43-0.14,0.85-0.27,1.25-0.43
		c1.41,2.07,3.99,3.24,7.04,3.86c-0.48,3.42,2.08,5.86,5.78,6.67c2.72,0.59,5.51,0.64,8.29,0.89c-4.08,1.96-7.71,4.59-10.88,7.84
		c-1.17-8.14-8.16-14.07-16.7-15.43C153.22,159.69,153.41,159.51,153.58,159.32z M137.42,193.62c-0.89-5.67,3.04-19.79,5.4-25.77
		c1.43-3.62,4.39-4.99,7.01-6.19c0.86-0.4,1.69-0.78,2.41-1.23c4.65,0.67,8.5,2.94,12.29,6.57c6.62,6.34,5.57,18.76-2.23,22.79
		c-4.87,2.52-10.2,3.53-14.9,6.52c-2.88,1.84-5.37,4.27-7.71,6.82C139.2,201.63,138.1,197.97,137.42,193.62z M127.11,254.67
		c0-2.34,0.53-4.78,1.3-7.08c0.06-0.19,0.13-0.38,0.19-0.56c0.03-0.09,0.07-0.19,0.1-0.28c0.07-0.19,0.14-0.38,0.21-0.57
		c2.1-5.5,5.29-9.94,5.33-10l0.03-0.04c1.11,3.73,2.51,7.74,4.01,11.32c-1.15,6.51-7.05,10.36-11.17,15.33V254.67z M126,298.46
		c-0.27-1.75-0.52-3.47-0.73-5.17c-0.5-4.13-0.98-8.03-1.23-12.25c-0.02-0.27-0.03-0.54-0.04-0.81c-0.01-0.15-0.01-0.29-0.02-0.44
		c-0.01-0.2-0.01-0.4-0.02-0.59c0-0.13-0.01-0.26-0.01-0.39c0-0.21,0-0.41,0-0.61c0-0.12,0-0.23,0-0.35c0-0.23,0.01-0.45,0.01-0.67
		c0-0.08,0-0.17,0-0.25c0.23-8.36,2.75-12.63,3.03-13.07c3.9-5.22,10.07-9.01,11.71-15.43c0.32,0.74,0.64,1.45,0.96,2.14
		c0.39,0.84,0.87,1.33,1.41,1.58c-1.81,9.3-6.4,17.16-10.41,25.7C127.6,284.37,126.29,291.38,126,298.46z M143.11,252.28
		c0.04,5.29,1.94,10.14,5.49,14.04c-1.29,2.13-2.45,4.36-3.49,6.66c-3.18-5-4.69-10.62-4.36-16.6c0.37-1.31,0.7-2.64,0.97-4.01
		C142.15,252.44,142.62,252.39,143.11,252.28z M141.96,250.95c0.85-9.83,3.9-20,9.29-28.36c0.58-0.95,1.32-1.75,2.22-2.4
		c3.71-2.74,1.52,5.82,1.38,6.25c-0.65,2.06-1.36,4.09-1.98,6.16c-1.92,6.32-4.21,12.48-7.59,18.14c-0.13,0.04-0.26,0.07-0.39,0.11
		C143.67,251.17,142.73,251.19,141.96,250.95z M144.78,273.7c-3.43,7.81-5.43,16.43-5.81,25c-1.21,4.44-3.15,9.81-3.97,14.19
		c-0.39,2.07-0.64,4.18-1.06,6.24c-0.03,0.13-0.06,0.25-0.09,0.38c-0.01,0.04-0.02,0.07-0.03,0.11c-0.03,0.09-0.06,0.18-0.09,0.26
		c-1.07,2.9-4.5,4.33-4.94-0.33c-1.07-11.37-0.28-24.65,0.52-35.93c0.87-2.77,1.95-5.51,3.28-8.23c2.79-5.68,5.58-11.02,7.49-16.82
		C140.18,264,141.77,269.12,144.78,273.7z M136.16,362.77c0,2.42-1.19,3.43-1.86,3.8c-0.58-1.53-2.26-6.08-3.56-9.8l5.44,5.56
		C136.17,362.48,136.16,362.68,136.16,362.77z M138.59,363.26l-8.69-8.89c-0.39-1.15-0.68-2.07-0.81-2.57
		c-0.28-1.09-0.51-2.29-0.72-3.6c1.07,1.97,2.62,4.25,4.22,5.93c3.16,3.32,6.5,6.15,7.05,6.61
		C139.36,361.81,138.9,362.71,138.59,363.26z M142.8,322.98c2.31,3.67,2.94,7.21,3.24,12.52l0.08,1.43
		c0.02,2.55-0.08,5.32-0.29,7.41c-0.17,1.7-1.54,2.7-2.86,0.62c-0.89-1.4-1.15-3.33-1.4-5.21c-0.32-2.38-0.62-4.62-2.21-5.64
		c-0.24-0.15-0.5-0.22-0.77-0.21c0.97-1.3,1.89-2.38,2.28-2.91c-1.84,0.66-5.91,3.96-6.08,7.5c-0.23,1.21-0.22,2.62,0.12,4.19
		c-0.01,0.06,0,0.13,0.02,0.21c0.7,2.6,0.87,5.1,0.87,5.13c0.22,0.84,3.79,4.02,4.65,5.33c1.67,2.55,0.24,5.24-0.46,6.28
		c-1.07-0.91-3.91-3.4-6.6-6.23c-2.71-2.85-5.12-7.4-5.47-8.92c-0.63-6.54-0.65-15.22-0.27-26.1c0.21-5.94-0.36-11.07-1.04-15.81
		c-0.03-5.19,0.48-10.2,1.65-15.1c-0.46,7.4-0.67,14.8-0.46,22.22c0.04,1.5-0.47,13.46,1.76,14.18c2.3,0.73,4.26-1.56,4.83-3.29
		c0.96-2.87,1.04-6.22,1.6-9.19c0.57-3.03,1.87-6.72,2.92-10.07c-0.04,6.63,0.9,13.17,2.92,19.2
		C142.03,321.43,142.35,322.26,142.8,322.98z M153.89,272.56c-0.19,4.56-3.24,12.63-6.19,20.44c-2.63,6.97-5.04,13.57-5.63,17.67
		c-0.32,2.21-0.54,4.26-0.56,6.11c-4.59-18.51-0.2-40.68,11.5-55.64C153.35,262.32,154.17,265.86,153.89,272.56z M155.7,254.4
		c-0.51,3.22-2.74,5.66-2.76,5.69c0,0-2.83,3.78-3.99,5.65c-3.41-3.81-5.2-8.5-5.2-13.64c1.07-0.34,2.21-0.89,3.32-1.21
		c4.51-1.29,7.19-3.72,9.14-6.89c-0.1,0.51-0.15,0.84-0.17,0.93C156.06,244.98,156.23,251.05,155.7,254.4z M160.9,229.31
		c-2.06,3.4-3.47,9.03-4.24,12.56c-1.79,3.6-4.25,6.58-8.84,8.12c-0.54,0.18-1.09,0.34-1.65,0.49c3.97-6.91,6.08-14.37,8.63-21.96
		c0.33-0.99,3.63-9.69-0.39-9.25c-3.88,0.42-6.06,7-7.37,9.91c-3.08,6.86-5.03,14.01-5.71,21.5c-1.09-0.62-1.79-1.87-2.52-3.52
		c-1.63-3.65-3.22-8.63-4.38-12.81c0.23-3.75,0.89-13.45,1.89-18.29c1.24-6.03,3.57-11.79,3.59-11.85l0.2-0.29
		c5.39-5.44,10.88-9.3,18.65-12.06c1.52-0.54,3.04-1.14,4.45-1.9c0.75,3.9,3.01,15.6,4.92,24.48
		C167.24,217.09,163.67,224.73,160.9,229.31z M176.06,236.24c-0.53-1.53-1.21-3.3-1.91-5.14c-0.9-2.36-1.83-4.81-2.56-7
		c-0.96-2.87-3.05-12.88-4.79-21.57c4.08,4.71,15.42,2.58,20.26,1.01c0.87,2.98,2.21,5.92,3.95,8.9
		c4.83,8.27,10.58,16.54,16.58,24.02c0.37,0.46,0.71,0.78,1.02,0.99c-0.56,8.32-2.28,16.64-4.33,24.69
		c-0.87,3.42-1.95,6.79-2.88,10.2c-0.65,2.38-1.37,5.24-3.45,6.83c-3.06,2.34-4.47-2.11-4.89-4.46c-1.19-6.77-4.94-13.83-7.91-19.99
		C182.18,248.58,179.22,242.31,176.06,236.24z M177.12,240.18c1.02,2.3,2.02,4.62,3.22,6.98c2.71,5.35,5.6,10.48,7.92,16.03
		c2.1,5.04,3.61,9.77,4.6,15.11c0.11,0.57,0.25,0.99,0.46,1.33c-4.97-1.26-8.82-5.39-12.81-8.54c-1.62-1.28-2.63-3-3.25-4.92
		c0.02-0.09,0.03-0.18,0.03-0.25c0-0.16,0-0.67,0.01-1.43C177.35,259.3,177.5,244.16,177.12,240.18z M171.64,281.69
		c-0.54-4.33,2.49-9.68,4.3-12.88c0.5-0.88,0.84-1.5,1.06-1.96c0.51,1.31,1.2,2.58,2.13,3.77c2.19,2.82,6.02,5.3,8.93,7.34
		c1.06,0.74,2.09,1.31,3.17,1.74c-5.45,4.13-13.12,5.42-17.8,10.21l0.04-0.12l-0.11-0.2C173.34,289.58,172.4,287.77,171.64,281.69z
		 M172.84,291.82c7.71-5.64,15.87-8.67,23.12,0.03c3.18,3.82,6.28,7.71,8.98,11.85c-2.89-2.57-6.97-3.36-12.84-0.89
		c-3.66,1.54-7.12,3.74-10.6,5.63c-0.9,0.49-5.85,2.25-5.89,4.17c-2.47,1.54-4.66,3.44-6.54,5.68c0.04-0.71,0.05-1.37,0.01-1.98
		C168.52,307.71,171.57,296.2,172.84,291.82z M159.96,366.51c0.96-13.06,3.82-24.41,6.12-33.54c1.37-5.43,2.52-9.99,2.9-13.53
		c1.89-2.42,4.14-4.48,6.71-6.12c0.64,3.65,2.87,6.58,3.26,10.5c0.55,5.63-1.68,11.36-3.46,16.6c-0.52,1.53-2.65,6.67-2.84,10.47
		l-0.03,0.03c-7.03,16.28-9.16,33.46-11.59,50.78C159.95,389.59,159.23,376.41,159.96,366.51z M161.28,404.51
		c2.53-17.74,4.47-35.38,11.42-52.08c0.17,1.24,0.68,2.2,1.73,2.6c2.1,0.8,4.08,0.45,6.19-0.21c1.82-0.58,3.63-1.19,5.44-1.82
		c1.11,5.08,0.39,10.99,0.03,15.86c-0.67,8.94-2.1,17.83-3.86,26.61c-2.96,14.78-9,28.74-15.08,42.58c-0.7,1.5-1.37,3.05-2.03,4.62
		c-0.23,0.52-0.45,1.03-0.68,1.55c-0.03-0.19-0.05-0.37-0.06-0.54c-0.2-2.83,0-4.34,0.18-5.67c0.14-1.03,0.27-2,0.19-3.37
		c-0.03-0.56-0.25-2.27-0.58-4.87C163.47,424.38,162.26,414.98,161.28,404.51z M178.53,410.89c-0.08,10.26,5.47,20.68,8.78,29.1
		c-3.34,4.77-5.93,9.85-7.89,15.18c-0.18-8.59-3.31-16.67-9.02-23.24C173.33,424.99,176.14,418.02,178.53,410.89z M161.75,454.87
		c0.02-0.06,0.05-0.11,0.07-0.17c1.37-4.12,3.96-11.26,5.73-16.11c0.86-2,1.72-3.99,2.57-5.99c5.89,6.89,8.9,15.4,8.65,24.43
		c-2.46,7.29-3.81,15.02-4.29,23.08c-0.34,5.69-0.46,11.4-0.48,17.12c-2.94,3.81-9.48,2.59-10.33-2.92c0-0.03-0.02-0.05-0.03-0.07
		C161.58,481.14,160.05,468.01,161.75,454.87z M162.85,536.07c1.69-6.41,0.92-13.31,0.18-19.98l-0.1-0.87
		c-0.58-3.69-1.28-7.43-1.95-11.05c-3.05-16.38-5.93-31.89-0.14-47.07c-1.24,12.44,0.25,24.86,2.22,37.25
		c-0.01,0.04-0.01,0.08-0.01,0.12c0.03,0.22,0.08,0.43,0.13,0.64c1.76,10.99,3.85,21.97,4.71,32.92c-1.22,4.26-3.27,8.1-6.12,11.44
		C162.12,538.55,162.49,537.43,162.85,536.07z M181.39,541.43c-0.02,0.94-0.51,1.91-1.03,2.94c-0.26,0.52-0.52,1.05-0.73,1.59
		c-1.91-8.18-1.71-16.57,0.56-24.62C179.31,527.9,179.49,534.58,181.39,541.43z M180.9,517.15c-3.73,9.89-4.39,20.48-1.68,30.67
		c0,0.02,0,0.03,0,0.05l0.03,0.17c0.11,0.34,0.23,0.7,0.34,1.06c0.11,0.38,0.22,0.76,0.35,1.14c0.58,1.95,1.14,4.06,1.66,5.99
		c0.23,0.86,0.45,1.68,0.65,2.42c0.04,0.15,3.89,14.65-1.14,17.8c-5.09,3.18-13.18,2.41-15.4,1.58c-0.95-0.36-2.72-1.57-4.43-2.75
		c-2.13-1.46-4.33-2.98-5.65-3.37c-5.39-1.59-11.21-3.77-12.04-5.07c-1.08-1.67-0.88-2.95-0.87-3l0.09-0.52l-0.52-0.11
		c-0.03-0.01-2.79-0.6-2.79-2.01c0-1.73,0.43-2.19,0.63-2.41c0.3-0.32,1.72-1.04,3.77-0.79l-2.52,1.56c0,0,1.35,0.66,3.99-1.06
		c3.19-2.09,6.21-3.16,8.19-4.28c2.95-1.67,4.5-4.24,5.16-5.58c0.46,1.22,1.06,2.31,1.49,3.07c0.15,0.27,0.31,0.54,0.45,0.8
		c0,0-2.33-6.42-1.06-8.72c0.07-0.13,0.16-0.27,0.26-0.44c0.29-0.47,0.68-1.12,1.13-2.06c3.18-3.31,5.53-7.18,7.01-11.49
		c0.66,10.04,0.22,20.06-2.55,30.06c-0.11,0.41,1.87-4.85,2.29-7.37c3.07-18.33-0.6-36.71-3.61-55.13c2.24,3.27,7.08,3.59,9.85,0.79
		c0,5.55,0.1,11.1,0.19,16.63c0.04,2.24,0.15,4.43,0.33,6.57c0,0,0.34-5.69,0.29-8.66c-0.05-2.84-0.08-5.67-0.09-8.51
		c2.06,3.03,6.49,3.88,9.42,1.39C182.81,509.4,181.68,513.25,180.9,517.15z M192.61,460.77c1.26,4.23,2.44,8.23,2.89,12.21
		c0,2.81-0.97,5.71-1.9,8.51c-0.48,1.43-0.97,2.91-1.31,4.3l-0.92,2.09c-2.33,5.31-4.69,10.68-6.67,16.13
		c-2.77,3.76-8.31,2.84-9.99-1.06c-0.01-7.04,0.08-14.09,0.32-21.12c0.29-8.5,1.62-16.73,4.24-24.47c0.05-0.1,0.09-0.19,0.13-0.29
		c0-0.03,0-0.06,0-0.08c1.98-5.73,4.66-11.18,8.18-16.26c0.5,1.32,0.95,2.59,1.3,3.8C189.16,450.33,191.03,455.47,192.61,460.77z
		 M190.6,449.34c-0.98-3.72-1.75-6.72-1.75-6.72c0,0.03,0,0.07,0,0.1c-0.02-0.12-0.05-0.22-0.07-0.3
		c-3.86-11.83-10.87-21.83-9.61-33.45c1.78-5.54,3.3-11.17,4.39-16.95c1.6-8.45,2.78-17,3.35-25.59c0.28-4.25,0.69-9.22-0.25-13.64
		c3.09-1.07,6.17-2.16,9.29-3.15c0.97-0.31,1.93-0.64,2.88-1c-3.93,11.35-3.55,22.85-1.78,34.35c-7.04,18.54,2.15,39.47-2.14,58.62
		C193.62,444.26,192.14,446.91,190.6,449.34z M201.11,411.08c-0.67,7.93-1.3,15.42-1.98,19.16c-0.44,2.38-1.59,5.64-3.15,9.11
		c2.95-18.11-4.79-37.62,1.27-55.06c1.17,7.22,2.85,14.43,4.31,21.62C201.4,407.66,201.25,409.4,201.11,411.08z M210.8,351.76
		c-0.33,2.59-1.35,6.96-2.54,12.01c-1.75,7.46-3.92,16.74-4.98,24.98c-0.58,4.49-1.08,9.75-1.54,14.94
		c-3.84-18.45-8.65-37.09-2.13-55.35c4.09-1.61,7.82-3.8,10.32-7.66c0.18-0.28,0.34-0.57,0.49-0.86
		C210.76,341.8,211.43,346.84,210.8,351.76z M210.44,337.84c-1.46,6.54-9.08,9.38-14.67,11.18c-5.44,1.72-10.79,3.74-16.23,5.46
		c-10.51,3.32-3.65-13.16-2.17-17.59c1.53-4.58,2.95-9.95,2.05-14.83c-0.43-2.33-1.1-4.33-2.19-6.4c-2.42-4.59,5.62-7.2,8.2-8.59
		c6.12-3.32,13.86-8.43,20.03-2.55c1.34,2.12,2.57,4.31,3.65,6.6c0.7,2.39,1.07,4.92,1.43,7.14
		C211.58,324.7,211.87,331.45,210.44,337.84z M212.32,329.01c-0.07-3.17-0.46-6.28-0.83-8.75c-0.78-5.2-2.05-10.55-4.55-14.24
		c-3.71-7.16-7.8-11.78-12.77-17.21c-5.93-6.49-14.06-2.83-20.2,1.39c4.71-4.77,12.61-6.03,17.96-10.24
		c0.95,0.32,1.95,0.52,3.03,0.63c0.13,0.02,0.25,0.05,0.39,0.06c0.3,0.04,0.59,0.03,0.87,0c-1.49,1.85-1.64,4.35-1.15,6.37
		c0.64,2.68,6.36,10.25,16.63,21.15c0.28,0.29,0.76,0.34,1.05,0.06c10.66-10.72,15.88-18.74,16.53-21.43
		c0.47-1.98,0.42-4.34-0.95-6.15c0.3,0.03,0.61,0.03,0.94,0c0.14-0.02,0.27-0.04,0.39-0.06c1.08-0.1,2.08-0.31,3.03-0.63
		c5.36,4.21,13.27,5.47,17.98,10.25c-6.14-4.23-14.29-7.9-20.22-1.41c-4.96,5.43-9.06,10.04-12.76,17.21
		c-2.5,3.69-3.77,9.04-4.55,14.24C212.78,322.73,212.39,325.85,212.32,329.01z M247.35,264.49c0.01,0.76,0.01,1.27,0.01,1.43
		c0,0.08,0.01,0.16,0.03,0.25c-0.61,1.91-1.63,3.64-3.25,4.92c-3.99,3.16-7.84,7.28-12.81,8.54c0.21-0.33,0.35-0.76,0.46-1.33
		c0.99-5.34,2.5-10.07,4.6-15.11c2.32-5.56,5.21-10.68,7.92-16.03c1.18-2.33,2.19-4.67,3.22-7
		C247.15,244.1,247.3,259.29,247.35,264.49z M214.11,318.26c0.36-2.22,0.73-4.75,1.43-7.15c1.08-2.28,2.3-4.47,3.64-6.59
		c6.17-5.88,13.91-0.78,20.04,2.55c2.58,1.4,10.62,4,8.2,8.59c-1.1,2.08-1.77,4.08-2.19,6.4c-0.9,4.87,0.52,10.24,2.05,14.83
		c1.48,4.43,8.34,20.91-2.17,17.59c-5.44-1.72-10.78-3.74-16.23-5.46c-5.59-1.8-13.21-4.64-14.67-11.18
		C212.78,331.45,213.07,324.7,214.11,318.26z M221.36,388.75c-1.06-8.25-3.24-17.53-4.98-24.98c-1.18-5.05-2.21-9.42-2.54-12.01
		c-0.63-4.92,0.05-9.96,0.37-11.93c0.16,0.3,0.32,0.59,0.5,0.86c2.5,3.85,6.23,6.04,10.32,7.66c6.52,18.26,1.72,36.9-2.13,55.35
		C222.45,398.5,221.94,393.25,221.36,388.75z M225.52,430.24c-0.69-3.74-1.32-11.23-1.98-19.16c-0.14-1.68-0.29-3.42-0.44-5.18
		c1.46-7.18,3.13-14.4,4.3-21.62c6.07,17.44-1.67,36.95,1.27,55.06C227.11,435.88,225.96,432.62,225.52,430.24z M229.74,441.62
		c-4.29-19.15,4.9-40.08-2.14-58.62c1.77-11.5,2.15-23-1.78-34.35c0.95,0.35,1.91,0.68,2.88,1c3.12,0.98,6.2,2.08,9.29,3.15
		c-0.94,4.41-0.53,9.38-0.25,13.64c0.57,8.58,1.75,17.14,3.35,25.59c1.09,5.78,2.61,11.41,4.39,16.95
		c1.25,11.62-5.82,21.71-9.68,33.54c-0.03,0.08-0.81,3.12-1.77,6.8C232.49,446.89,231.02,444.24,229.74,441.62z M246.12,410.9
		c2.42,7.24,5.29,14.34,8.28,21.4c-5.43,5.79-9,15.4-8.91,23.59c-1.99-5.59-4.66-10.91-8.15-15.89
		C240.65,431.57,246.2,421.16,246.12,410.9z M239.92,503.98c-1.98-5.44-4.33-10.8-6.66-16.1l-0.92-2.09
		c-0.34-1.38-0.83-2.86-1.31-4.3c-0.94-2.81-1.9-5.71-1.9-8.51c0.45-3.98,1.63-7.98,2.89-12.21c1.6-5.38,3.74-10.73,3.98-16.64
		c0-0.78,0.58-2.17,1.05-3.4c8.33,12.06,12.04,26.15,12.55,41.1c0.24,7.04,0.34,14.08,0.32,21.12
		C248.25,506.85,242.69,507.77,239.92,503.98z M244.28,544.38c-0.52-1.03-1-2.01-1.03-2.94c1.89-6.85,2.08-13.54,1.2-20.08
		c2.28,8.05,2.47,16.44,0.56,24.62C244.8,545.43,244.54,544.9,244.28,544.38z M264.76,543.35c0.11,0.17,0.19,0.32,0.26,0.44
		c1.27,2.29-1.06,8.72-1.06,8.72c0.14-0.26,0.29-0.53,0.45-0.8c0.43-0.75,1.04-1.85,1.49-3.07c0.66,1.34,2.21,3.91,5.16,5.58
		c1.98,1.12,5,2.19,8.19,4.28c2.64,1.72,3.99,1.06,3.99,1.06l-2.52-1.56c2.05-0.24,3.48,0.48,3.77,0.79
		c0.2,0.22,0.63,0.68,0.63,2.41c0,1.41-2.76,2.01-2.79,2.01l-0.52,0.11l0.09,0.52c0.01,0.05,0.2,1.33-0.87,3
		c-0.83,1.3-6.65,3.48-12.04,5.07c-1.32,0.39-3.52,1.9-5.65,3.37c-1.71,1.18-3.48,2.4-4.43,2.75c-2.21,0.83-10.3,1.6-15.4-1.58
		c-5.03-3.14-1.18-17.65-1.14-17.8c0.2-0.74,0.42-1.56,0.65-2.42c0.51-1.93,1.08-4.04,1.66-5.99c0.12-0.38,0.23-0.76,0.35-1.14
		c0.11-0.36,0.23-0.72,0.34-1.06l0.03-0.17c0-0.02,0-0.03,0-0.05c2.72-10.19,2.06-20.78-1.68-30.67c-0.79-3.91-1.92-7.76-3.25-11.58
		c2.93,2.51,7.38,1.66,9.44-1.37c-0.01,2.84-0.04,5.68-0.09,8.51c-0.05,2.97,0.29,8.66,0.29,8.66c0.18-2.14,0.29-4.33,0.33-6.57
		c0.1-5.53,0.19-11.08,0.19-16.63c2.77,2.8,7.6,2.48,9.84-0.79c-3.01,18.42-6.69,36.8-3.62,55.12c0.42,2.51,2.41,7.77,2.29,7.37
		c-2.77-10-3.21-20.02-2.55-30.06c1.48,4.3,3.83,8.18,7.01,11.49C264.08,542.23,264.47,542.88,264.76,543.35z M263.66,504.18
		c-0.67,3.62-1.37,7.36-1.95,11.05l-0.1,0.87c-0.75,6.67-1.52,13.57,0.18,19.98c0.36,1.36,0.72,2.48,1.08,3.42
		c-2.85-3.34-4.9-7.18-6.12-11.44c0.86-10.92,2.94-21.86,4.7-32.82c0.06-0.24,0.11-0.48,0.15-0.74c0.01-0.06,0-0.11-0.01-0.15
		c1.96-12.39,3.45-24.8,2.21-37.23C269.59,472.29,266.71,487.8,263.66,504.18z M262.81,454.69c0.03,0.06,0.05,0.11,0.07,0.17
		c1.7,13.15,0.18,26.28-1.89,39.39c-0.01,0.02-0.02,0.03-0.02,0.06c-0.84,5.51-7.39,6.73-10.32,2.92
		c-0.01-5.72-0.13-11.44-0.48-17.12c-0.47-7.78-1.74-15.25-4.04-22.32l0.01,0c-0.73-8.34,2.84-18.74,8.51-24.92
		c0.79,1.86,1.59,3.72,2.39,5.57C258.81,443.3,261.43,450.54,262.81,454.69z M260.49,429.77c-0.33,2.6-0.55,4.32-0.58,4.87
		c-0.08,1.37,0.05,2.34,0.19,3.37c0.18,1.33,0.38,2.84,0.18,5.67c-0.01,0.17-0.04,0.35-0.06,0.54c-0.29-0.68-0.59-1.36-0.89-2.03
		c-0.54-1.29-1.1-2.56-1.67-3.8c-6.12-13.95-12.24-28.01-15.22-42.92c-1.76-8.78-3.19-17.68-3.86-26.61
		c-0.36-4.87-1.08-10.77,0.03-15.86c1.81,0.62,3.62,1.24,5.44,1.82c2.1,0.67,4.09,1.01,6.19,0.21c1.05-0.4,1.57-1.36,1.73-2.6
		c6.95,16.7,8.89,34.34,11.42,52.08C262.38,414.98,261.18,424.38,260.49,429.77z M258.56,332.98c2.3,9.12,5.16,20.47,6.12,33.54
		c0.73,9.9,0.02,23.08-1.06,35.2c-2.43-17.32-4.56-34.5-11.59-50.78l-0.03-0.03c-0.18-3.8-2.32-8.95-2.84-10.47
		c-1.78-5.23-4.01-10.97-3.46-16.6c0.38-3.92,2.61-6.86,3.26-10.5c2.57,1.64,4.82,3.69,6.71,6.12
		C256.05,322.98,257.19,327.55,258.56,332.98z M255.56,316.32c-0.04,0.61-0.03,1.27,0.01,1.98c-1.88-2.24-4.06-4.14-6.54-5.68
		c-0.04-1.92-4.99-3.68-5.89-4.17c-3.48-1.89-6.95-4.1-10.6-5.63c-5.87-2.47-9.95-1.69-12.84,0.89c2.69-4.14,5.79-8.03,8.98-11.85
		c7.25-8.71,15.41-5.68,23.12-0.03C253.08,296.2,256.12,307.71,255.56,316.32z M248.71,268.81c1.81,3.2,4.83,8.55,4.3,12.88
		c-0.75,6.08-1.7,7.88-1.71,7.9l-0.11,0.2l0.04,0.12c-4.68-4.8-12.35-6.08-17.8-10.21c1.08-0.43,2.11-1,3.17-1.74
		c2.91-2.04,6.74-4.52,8.93-7.34c0.93-1.2,1.62-2.46,2.13-3.77C247.87,267.31,248.21,267.93,248.71,268.81z M253.06,224.1
		c-0.73,2.19-1.66,4.63-2.57,7c-0.7,1.83-1.38,3.61-1.91,5.14c-3.16,6.07-6.12,12.35-9.08,18.48c-2.98,6.16-6.72,13.22-7.91,19.99
		c-0.41,2.35-1.83,6.8-4.89,4.46c-2.08-1.59-2.8-4.45-3.45-6.83c-0.94-3.41-2.01-6.78-2.88-10.2c-2.06-8.05-3.78-16.37-4.33-24.69
		c0.31-0.21,0.66-0.53,1.02-0.99c5.99-7.47,11.75-15.75,16.58-24.02c1.74-2.98,3.08-5.91,3.95-8.89c4.87,1.58,16.23,3.7,20.27-1.06
		C256.12,211.19,254.02,221.23,253.06,224.1z M263.6,229.23c-2.74-4.35-6.21-12.03-7.11-14.74c1.91-8.88,4.18-20.6,4.93-24.52
		c1.4,0.75,2.92,1.35,4.44,1.89c7.77,2.76,13.41,6.66,18.8,12.1l-0.02,0.06l0.08,0.19c0.02,0.06,2.35,5.82,3.59,11.85
		c1,4.84,1.66,14.55,1.89,18.29c-1.16,4.17-2.75,9.16-4.38,12.81c-0.74,1.65-1.44,2.9-2.52,3.52c-0.68-7.49-2.63-14.64-5.71-21.5
		c-1.31-2.91-3.49-9.49-7.37-9.91c-4.02-0.44-0.72,8.26-0.39,9.25c2.55,7.6,4.66,15.06,8.63,21.96c-0.55-0.15-1.1-0.31-1.65-0.49
		c-4.59-1.54-7.03-4.43-8.82-8.03C267.22,238.43,265.72,232.59,263.6,229.23z M292.04,275.39c1.33,2.72,2.41,5.46,3.28,8.23
		c0.8,11.29,1.59,24.56,0.52,35.93c-0.44,4.66-3.87,3.23-4.94,0.33c-0.03-0.09-0.06-0.18-0.09-0.26c-0.01-0.04-0.02-0.07-0.03-0.11
		c-0.04-0.12-0.07-0.25-0.09-0.38c-0.42-2.07-0.67-4.17-1.06-6.24c-0.83-4.39-2.76-9.75-3.97-14.19c-0.38-8.57-2.38-17.19-5.81-25
		c3.81-5.6,4.67-11.52,4.83-14.8C286.58,264.57,289.31,269.82,292.04,275.39z M283.91,256.44c0.03,0.34,0.67,8.64-4.45,16.46
		c-1.03-2.27-2.17-4.48-3.44-6.58c3.55-3.91,5.45-8.76,5.49-14.04c0.49,0.11,0.96,0.16,1.4,0.09
		C283.19,253.76,283.53,255.11,283.91,256.44z M279.74,250.84c-0.13-0.04-0.26-0.07-0.39-0.11c-3.39-5.66-5.67-11.82-7.59-18.14
		c-0.63-2.07-1.33-4.1-1.98-6.16c-0.14-0.43-2.33-8.98,1.38-6.25c0.9,0.65,1.64,1.45,2.22,2.4c5.39,8.36,8.44,18.53,9.29,28.36
		C281.9,251.19,280.96,251.17,279.74,250.84z M268.92,254.4c-0.53-3.35-0.36-9.43-0.35-9.49c-0.01-0.09-0.07-0.41-0.17-0.93
		c1.95,3.17,4.64,5.6,9.14,6.89c1.12,0.32,2.25,0.87,3.32,1.21c0,5.14-1.79,9.83-5.2,13.64c-1.16-1.87-2.87-4.33-3.99-5.65
		C271.66,260.06,269.43,257.63,268.92,254.4z M276.93,293c-2.95-7.81-6-15.88-6.19-20.44c-0.28-6.7,0.54-10.24,0.89-11.43
		c11.7,14.96,16.09,37.13,11.5,55.64c-0.02-1.84-0.25-3.9-0.56-6.11C281.97,306.56,279.56,299.97,276.93,293z M290.33,366.58
		c-0.67-0.38-1.86-1.38-1.86-3.8c0-0.1-0.01-0.29-0.01-0.44l5.44-5.56C292.59,360.49,290.91,365.05,290.33,366.58z M295.54,351.8
		c-0.13,0.5-0.42,1.42-0.81,2.57l-8.69,8.89c-0.32-0.55-0.77-1.45-1.06-2.51c0.55-0.46,3.89-3.3,7.05-6.61
		c1.61-1.69,3.15-3.96,4.22-5.93C296.05,349.52,295.81,350.72,295.54,351.8z M296.98,318.37c0.38,10.88,0.36,19.56-0.27,26.1
		c-0.35,1.52-2.76,6.07-5.47,8.92c-2.69,2.83-5.53,5.31-6.6,6.23c-0.7-1.04-2.13-3.73-0.46-6.28c0.86-1.31,4.43-4.49,4.65-5.33
		c0.01-0.03,0.17-2.53,0.87-5.13c0.02-0.08,0.02-0.14,0.02-0.21c0.34-1.57,0.35-2.98,0.12-4.19c-0.17-3.55-4.24-6.84-6.08-7.5
		c0.39,0.53,1.31,1.61,2.28,2.91c-0.27-0.01-0.53,0.06-0.77,0.21c-1.59,1.02-1.89,3.27-2.21,5.64c-0.25,1.87-0.51,3.81-1.4,5.21
		c-1.32,2.08-2.69,1.09-2.86-0.62c-0.21-2.08-0.31-4.86-0.29-7.41l0.08-1.43c0.29-5.32,0.92-8.86,3.24-12.52
		c0.45-0.72,0.76-1.55,0.97-2.48c2.01-6.03,2.96-12.57,2.92-19.2c1.05,3.34,2.35,7.04,2.92,10.07c0.56,2.97,0.64,6.32,1.6,9.19
		c0.58,1.73,2.54,4.03,4.83,3.29c2.23-0.71,1.72-12.67,1.76-14.18c0.2-7.42,0-14.82-0.46-22.22c1.16,4.9,1.67,9.91,1.64,15.1
		C297.34,307.3,296.77,312.43,296.98,318.37z M300.68,278.21c0,0.2,0,0.4,0,0.61c0,0.13-0.01,0.26-0.01,0.39
		c0,0.2-0.01,0.39-0.02,0.59c-0.01,0.14-0.01,0.29-0.02,0.44c-0.01,0.27-0.02,0.53-0.04,0.81c-0.26,4.22-0.73,8.12-1.23,12.25
		c-0.21,1.7-0.46,3.41-0.73,5.17c-0.29-7.08-1.61-14.09-4.66-20.58c-4.01-8.54-8.6-16.4-10.41-25.7c0.54-0.26,1.01-0.75,1.41-1.58
		c0.32-0.69,0.64-1.4,0.96-2.14c1.64,6.42,7.81,10.21,11.71,15.43c0.28,0.44,2.81,4.7,3.03,13.07c0,0.08,0,0.17,0,0.25
		c0.01,0.22,0.01,0.44,0.01,0.67C300.68,277.98,300.68,278.09,300.68,278.21z"/>
</g>
</svg>
