<?xml version="1.0" encoding="utf-8"?>
<!-- Generator: Adobe Illustrator 26.0.1, SVG Export Plug-In . SVG Version: 6.00 Build 0)  -->
<svg version="1.1" id="Layer_1" xmlns="http://www.w3.org/2000/svg" xmlns:xlink="http://www.w3.org/1999/xlink" x="0px" y="0px"
	 viewBox="0 0 432 648" style="enable-background:new 0 0 432 648;" xml:space="preserve">
<style type="text/css">
	.st0{display:none;opacity:0.5;fill:none;stroke:#231F20;stroke-width:0.05;stroke-miterlimit:10;}
	.st1{fill:#FFFFFF;}
	.st2{fill:#E92A2A;}
	.st3{fill:#D52626;}
	.st4{fill:#9A1A1C;}
	.st5{fill:#8D1819;}
</style>
<path class="st0" d="M418.44,444.92c-2.94,1.51-8.31,5.17-9.04,17.27"/>
<g>
	<g id="White_00000175312313660870068660000010917998471680139710_">
		<path class="st1" d="M298.26,263.18v-8.74c0-8.52-6.37-17.81-7.27-19.07c-0.09-1.63-0.79-14.04-2-19.9
			c-1.14-5.53-3.17-10.82-3.58-11.89c0.32-0.94,1.7-5.13,2.5-10.25c0.92-5.89-3.08-20.34-5.48-26.43c-1.59-4.05-4.92-5.58-7.59-6.81
			c-1.45-0.67-2.69-1.24-3.4-2.06c-1.8-2.1-3.6-2.68-5.18-3.19c-0.42-0.13-0.82-0.26-1.2-0.42c-0.61-0.24-1.15-0.73-1.96-1.47
			c-1.38-1.26-3.48-3.16-7.95-5.76c-2.59-1.5-6.43-3.26-10.49-5.12c-6.09-2.79-12.98-5.95-14.6-7.94c-0.66-0.81-1.6-3.53-2.47-6.38
			c0.49-0.97,1.85-3.65,1.97-4.07c0.52-1.82,0.58-4.3,0.56-5.8c0.3,0.14,0.67,0.22,1.11,0.17c1.5-0.18,2.9-2.51,4.57-5.54
			c0.47-0.85,0.91-1.65,1.25-2.14c1.45-2.07,1.13-6.56,0.07-9.92c-0.31-0.98-0.84-1.55-1.56-1.68c-1-0.18-2.09,0.58-2.87,1.3
			c0.15-4.19,0.09-15.97-4.74-21.77c-4.16-5-12.49-6.24-15.65-6.54h-1.24c-3.16,0.3-11.49,1.54-15.65,6.54
			c-4.84,5.8-4.89,17.58-4.74,21.77c-0.78-0.72-1.88-1.48-2.87-1.3c-0.73,0.13-1.25,0.7-1.56,1.68c-1.06,3.36-1.38,7.85,0.07,9.92
			c0.34,0.49,0.78,1.29,1.25,2.14c1.68,3.03,3.08,5.35,4.57,5.54c0.44,0.05,0.81-0.03,1.11-0.17c-0.02,1.5,0.04,3.98,0.56,5.8
			c0.12,0.41,1.45,3.05,1.96,4.04c-0.87,2.86-1.82,5.59-2.48,6.4c-1.61,1.99-8.51,5.15-14.6,7.94c-4.06,1.86-7.9,3.62-10.49,5.12
			c-4.48,2.6-6.57,4.5-7.95,5.76c-0.82,0.74-1.35,1.23-1.96,1.47c-0.39,0.16-0.79,0.28-1.2,0.42c-1.58,0.51-3.38,1.08-5.18,3.19
			c-0.7,0.82-1.95,1.4-3.4,2.06c-2.67,1.23-6,2.76-7.59,6.81c-2.4,6.09-6.4,20.54-5.48,26.43c0.8,5.12,2.18,9.31,2.5,10.25
			c-0.42,1.06-2.45,6.36-3.58,11.89c-1.21,5.86-1.91,18.27-2,19.9c-0.9,1.27-7.27,10.55-7.27,19.07v8.74
			c-0.61,0.98-3.76,6.68-3.09,17.81c0.26,4.26,0.74,8.2,1.24,12.36c0.9,7.41,2.73,15.08,2.38,25c-0.53,15.12-0.4,28.07,1.47,33.83
			c0.81,2.48,5.19,14.92,5.4,15.45c0,0,0.18,0.57,0.73,0.4c0.03-0.01,2.8-0.8,3.1-4.43l1.15,1.17c0.2,0.21,0.54,0.18,0.71-0.05
			l0.05-0.08c0.09-0.12,1.38-1.96,1.77-4.25c0.82-1.25,2.47-4.45,0.47-7.49c-0.83-1.26-3.81-4.32-4.5-5.03
			c-0.05-0.63-0.25-2.59-0.79-4.73c-0.46-2.6-0.19-4.54,0.39-5.87c0.17-0.32,0.34-0.64,0.53-0.96c0.45-0.63,0.98-1.03,1.49-1.23
			c0.13-0.05,0.2-0.03,0.28,0.02c1.17,0.75,1.44,2.76,1.73,4.89c0.27,1.99,0.62,4.01,1.56,5.66c1.15,2.03,4.45,2.8,4.88-1.08
			c0.31-2.76,0.3-6.15,0.29-7.59l-0.08-1.46c-0.31-5.54-0.51-8.36-3.49-13.2c-1.3-2.12-1.32-3.3-0.5-11.54
			c0.4-4.01,2.97-10.55,5.59-17.48c2.99-7.92,6.09-16.1,6.28-20.86c0.31-7.36-0.66-11.02-1.01-12.07c0.62-0.75,2.35-3.05,2.82-6.02
			c0.55-3.46,0.38-9.47,0.36-9.62c0.02-0.1,1.83-10.48,4.83-15.24c2.21-3.51,5.19-9.75,6.65-13.45c0.81,3.68,1.53,6.67,2,8.07
			c0.74,2.22,1.68,4.68,2.59,7.07c1.3,3.4,2.52,6.62,2.84,8.29c0.31,1.65,0.39,10,0.25,24.82c-0.01,0.77-0.01,1.28-0.01,1.44
			c-0.03,0.28-0.66,1.39-1.21,2.37c-1.88,3.33-5.03,8.9-4.45,13.6c0.65,5.25,1.45,7.44,1.73,8.1c-0.6,1.89-4.98,16.25-4.31,26.6
			c0.24,3.61-1.18,9.25-2.98,16.38c-2.32,9.19-5.2,20.64-6.17,33.84c-1.44,19.54,2.67,51.63,4.21,63.71
			c0.33,2.59,0.55,4.3,0.58,4.81c0.08,1.28-0.04,2.16-0.18,3.18c-0.19,1.39-0.4,2.96-0.18,5.91c0.05,0.67,0.2,1.46,0.45,2.35
			c-1.09,2.82-2.08,5.63-2.95,8.23c-7.23,16.27-4.01,33.55-0.9,50.26c0.67,3.63,1.37,7.37,1.95,11.03l0.09,0.84
			c0.74,6.6,1.5,13.42-0.15,19.66c-0.83,3.16-1.71,5-2.35,6.15c0,0-0.01,0.01-0.01,0.01c-0.06,0.05-0.08,0.11-0.09,0.17
			c-0.15,0.26-0.29,0.49-0.41,0.68c-0.12,0.19-0.21,0.35-0.29,0.49c-0.66,1.19-0.67,2.55-0.38,3.86c-0.19,0.51-1.62,4.11-5.27,6.18
			c-3.42,1.94-6.48,3.23-7.58,3.77c-2.56-0.42-5.56,0.37-6.17,1.02c-0.46,0.49-0.93,1.25-0.93,3.16c0,1.85,2.22,2.69,3.21,2.97
			c0,0.66,0.16,1.88,1.06,3.28c1.29,2.01,9.31,4.54,12.7,5.54c1.16,0.34,3.39,1.88,5.36,3.23c1.85,1.28,3.61,2.48,4.68,2.88
			c1.1,0.41,3.41,0.81,6.13,0.81c3.33,0,7.26-0.6,10.29-2.49c5.72-3.58,1.79-18.44,1.62-19.07c-0.2-0.74-0.42-1.56-0.65-2.42
			c-0.71-2.68-1.52-5.72-2.34-8.2c0.03-0.94,0.51-1.91,1.03-2.94c0.56-1.13,1.15-2.29,1.15-3.51l-0.02-0.14
			c-5.18-18.64,2.51-36.16,9.95-53.1l0.95-2.19c0.36-1.43,0.85-2.9,1.32-4.32c0.97-2.9,1.97-5.9,1.96-8.95
			c-0.46-4.15-1.67-8.21-2.94-12.51c-0.76-2.55-1.78-6.31-2.68-9.73c4.43-6.74,8.31-15.31,9.25-20.41c0.7-3.8,1.3-11,2-19.33
			c0.62-7.36,1.32-15.7,2.18-22.37c1.06-8.22,3.23-17.51,4.98-24.97c1.2-5.1,2.23-9.51,2.57-12.16c0.75-5.88-0.34-12.78-0.59-14.21
			c0.68-2.11,0.98-4.51,1.03-6.94c0.06,2.44,0.35,4.84,1.03,6.95c-0.25,1.43-1.34,8.34-0.59,14.21c0.34,2.66,1.37,7.06,2.57,12.16
			c1.75,7.46,3.93,16.74,4.98,24.97c0.86,6.66,1.56,15,2.18,22.37c0.7,8.33,1.31,15.53,2,19.33c0.94,5.09,4.81,13.65,9.23,20.38
			c-0.94,3.57-1.99,7.44-2.67,9.76c-1.28,4.3-2.48,8.36-2.94,12.51c0,3.05,1,6.05,1.96,8.95c0.47,1.42,0.96,2.89,1.32,4.32
			l0.95,2.19c7.44,16.94,15.12,34.46,9.95,53.1l-0.02,0.15c0,1.22,0.58,2.39,1.15,3.51c0.52,1.03,1,2.01,1.03,2.94
			c-0.82,2.47-1.63,5.51-2.34,8.2c-0.23,0.86-0.45,1.68-0.65,2.42c-0.17,0.63-4.11,15.49,1.62,19.07c3.03,1.89,6.96,2.49,10.29,2.49
			c2.72,0,5.03-0.4,6.13-0.81c1.07-0.4,2.82-1.61,4.68-2.88c1.97-1.35,4.2-2.89,5.36-3.23c3.39-1,11.41-3.53,12.7-5.54
			c0.9-1.4,1.06-2.62,1.06-3.28c0.99-0.28,3.21-1.13,3.21-2.97c0-1.91-0.47-2.67-0.93-3.16c-0.61-0.65-3.61-1.44-6.17-1.02
			c-1.1-0.55-4.15-1.83-7.58-3.77c-3.64-2.06-5.07-5.67-5.27-6.18c0.28-1.31,0.27-2.67-0.38-3.86c-0.08-0.14-0.17-0.3-0.29-0.49
			c-0.12-0.19-0.25-0.42-0.41-0.68c-0.01-0.06-0.03-0.12-0.09-0.17c0,0-0.01-0.01-0.01-0.01c-0.64-1.15-1.52-3-2.35-6.15
			c-1.65-6.24-0.88-13.06-0.15-19.66l0.09-0.84c0.58-3.66,1.28-7.41,1.95-11.03c3.11-16.71,6.32-33.99-0.9-50.26
			c-0.86-2.6-1.86-5.4-2.94-8.21c0.25-0.9,0.41-1.7,0.46-2.37c0.21-2.95,0-4.52-0.18-5.91c-0.14-1.02-0.25-1.9-0.18-3.18
			c0.03-0.52,0.25-2.23,0.58-4.81c1.55-12.08,5.66-44.17,4.21-63.71c-0.97-13.21-3.86-24.65-6.17-33.84
			c-1.8-7.13-3.22-12.77-2.98-16.38c0.67-10.35-3.71-24.71-4.31-26.6c0.29-0.66,1.08-2.85,1.73-8.1c0.58-4.7-2.57-10.27-4.45-13.6
			c-0.55-0.98-1.18-2.09-1.21-2.37c0-0.15,0-0.67-0.01-1.44c-0.15-14.82-0.06-23.17,0.25-24.82c0.32-1.68,1.54-4.89,2.84-8.29
			c0.91-2.38,1.85-4.85,2.59-7.07c0.46-1.4,1.18-4.37,1.99-8.04c1.46,3.71,4.44,9.93,6.64,13.42c2.99,4.76,4.81,15.13,4.83,15.24
			c-0.01,0.15-0.18,6.16,0.36,9.62c0.47,2.98,2.2,5.27,2.82,6.02c-0.35,1.06-1.32,4.71-1.01,12.07c0.2,4.75,3.29,12.94,6.28,20.86
			c2.62,6.93,5.19,13.47,5.59,17.48c0.82,8.24,0.8,9.42-0.5,11.54c-2.97,4.84-3.18,7.66-3.49,13.2l-0.08,1.46
			c-0.01,1.44-0.02,4.83,0.29,7.59c0.43,3.88,3.73,3.11,4.88,1.08c0.94-1.65,1.29-3.67,1.56-5.66c0.29-2.13,0.56-4.14,1.73-4.89
			c0.08-0.05,0.15-0.07,0.28-0.02c0.51,0.19,1.04,0.59,1.49,1.23c0.19,0.32,0.37,0.64,0.53,0.96c0.58,1.33,0.85,3.27,0.39,5.87
			c-0.54,2.14-0.73,4.1-0.79,4.73c-0.7,0.71-3.68,3.76-4.5,5.03c-2,3.05-0.35,6.25,0.47,7.49c0.39,2.29,1.68,4.13,1.77,4.25
			l0.05,0.08c0.17,0.24,0.51,0.26,0.71,0.05l1.15-1.17c0.29,3.63,3.07,4.42,3.1,4.43c0.55,0.17,0.73-0.4,0.73-0.4
			c0.2-0.53,4.59-12.97,5.4-15.45c1.88-5.75,2.01-18.7,1.47-33.83c-0.35-9.92,1.48-17.58,2.38-25c0.51-4.16,0.98-8.09,1.24-12.36
			C302.02,269.86,298.87,264.16,298.26,263.18z"/>
	</g>
	<g id="Gluteus_maximus_00000146470844256872893650000008072839783332148633_">
		<g>
			<path class="st2" d="M213.53,337.91c1.47,6.53,9.08,9.39,14.67,11.21l0.06,0.01c5.47,1.72,10.82,3.75,16.29,5.47
				c10.55,3.33,3.67-13.2,2.17-17.65c-1.53-4.6-2.96-9.99-2.06-14.88c0.42-2.34,1.1-4.34,2.2-6.43c2.43-4.61-5.65-7.23-8.23-8.62
				c-6.14-3.33-13.91-8.46-20.11-2.57c-1.35,2.14-2.59,4.33-3.67,6.62v0.01c-0.7,2.41-1.08,4.93-1.44,7.16
				C212.39,324.71,212.1,331.49,213.53,337.91"/>
			<path class="st3" d="M245.96,316.12c-3.1-2.28-6.23-4.27-9.53-6.08l-0.31-0.17c-3.96-2.17-9.33-5.1-14.28-5.34
				c0.09-0.25,0.18-0.5,0.28-0.74c2.84,0.15,5.67,1.2,8.1,2.24c5.37,2.28,10.7,5.43,16.27,9.6
				C246.3,315.79,246.13,315.95,245.96,316.12 M218.54,304.45C218.54,304.45,218.54,304.45,218.54,304.45
				c0.16-0.16,0.32-0.3,0.48-0.44c0,0,0,0,0,0C218.86,304.16,218.7,304.3,218.54,304.45"/>
			<path class="st3" d="M243.06,321.03c-6.23-4.19-14.05-8.66-23.05-10.44c0.05-0.22,0.11-0.43,0.16-0.65
				c9.03,1.8,16.87,6.26,23.1,10.44C243.2,320.59,243.13,320.81,243.06,321.03 M215.43,309.93L215.43,309.93
				c0.02-0.04,0.04-0.09,0.06-0.13C215.47,309.85,215.45,309.89,215.43,309.93"/>
			<path class="st3" d="M245.27,350.27c-1.12-0.12-2.23-0.46-3.31-0.85c-2.44-1.09-4.94-2.07-7.41-3.03
				c-4.75-1.86-9.59-3.75-13.87-6.43c-0.86-0.66-1.62-1.41-2.2-2.3c4.83,3.66,10.68,5.94,16.41,8.17
				C238.37,347.19,241.92,348.58,245.27,350.27 M212.77,332.99C212.77,332.99,212.77,332.99,212.77,332.99
				c-0.05-0.42-0.08-0.84-0.11-1.26c0,0,0,0,0.01,0.01C212.7,332.16,212.73,332.58,212.77,332.99"/>
			<path class="st3" d="M245.78,333.94c-3.97-2.94-8.87-4.7-13.62-6.41c-4.9-1.76-9.92-3.57-13.94-6.7
				c0.03-0.25,0.06-0.49,0.09-0.74c3.94,3.22,8.96,5.03,14.18,6.91c4.49,1.62,9.13,3.28,13.01,5.96
				C245.6,333.29,245.69,333.61,245.78,333.94 M213.8,316.1c0,0,0-0.01-0.01-0.01c0.05-0.32,0.11-0.65,0.17-0.98
				c0,0,0,0.01,0.01,0.01C213.91,315.46,213.85,315.78,213.8,316.1"/>
			<path class="st3" d="M249.6,348.94c-4.71-3.61-10.3-6.11-15.72-8.54c-5.81-2.6-11.77-5.26-16.66-9.33
				c0.02-0.27,0.04-0.54,0.06-0.8c4.93,4.24,11.03,6.96,16.99,9.61c5.43,2.42,11.04,4.92,15.77,8.55
				C249.91,348.61,249.76,348.78,249.6,348.94 M212.61,326.32C212.61,326.32,212.6,326.32,212.61,326.32
				c0.01-0.35,0.02-0.7,0.04-1.04c0,0,0,0.01,0.01,0.01C212.64,325.63,212.62,325.98,212.61,326.32"/>
			<path class="st3" d="M248.19,341.14c-4.23-3.06-9.31-5.16-14.21-7.2c-5.72-2.37-11.59-4.81-16.22-8.8
				c0.03-0.27,0.05-0.54,0.08-0.8c4.65,4.17,10.65,6.66,16.51,9.09c4.62,1.91,9.39,3.89,13.48,6.67
				C247.95,340.43,248.07,340.78,248.19,341.14 M213.19,319.98c0,0-0.01-0.01-0.01-0.01c0.05-0.34,0.1-0.68,0.15-1.01l0.01,0.01
				C213.28,319.3,213.24,319.64,213.19,319.98"/>
			<path class="st3" d="M243.56,328.94c-3.81-2.57-8.11-4.51-12.27-6.39c-4.21-1.9-8.51-3.84-12.38-6.45
				c0.04-0.24,0.08-0.48,0.12-0.72c3.92,2.7,8.33,4.69,12.63,6.63c3.88,1.75,7.87,3.56,11.49,5.87
				C243.27,328.24,243.41,328.6,243.56,328.94 M214.49,312.58C214.49,312.58,214.48,312.58,214.49,312.58
				c0.05-0.26,0.11-0.51,0.18-0.75c0,0,0,0,0.01,0.01C214.61,312.09,214.55,312.33,214.49,312.58"/>
			<path class="st4" d="M247,355.04c-0.49,0-1.04-0.07-1.66-0.22c-0.04-0.01-0.09-0.02-0.13-0.03l0.01-0.05l-0.17-0.04l-0.22-0.05
				l-0.26-0.07l-0.01,0.03c0,0-0.01,0-0.01,0c-0.9-0.28-1.79-0.57-2.68-0.87l0.01-0.04l-0.64-0.27l-0.01,0.09
				c-4.33-1.45-8.62-3.02-12.97-4.4c-3.72-1.2-8.33-2.85-11.44-5.74c0,0,0,0,0,0l-0.03-0.08l-0.07-0.04
				c-0.03-0.02-0.06-0.04-0.1-0.06c-1.49-1.44-2.61-3.17-3.09-5.3c-0.36-1.62-0.62-3.26-0.77-4.91c2.23,2.87,4.93,5.11,7.91,6.96
				c1.1,0.84,2.35,1.53,3.58,2.16c5.46,2.76,11.2,4.89,16.93,7.02c0.25,0.09,0.51,0.19,0.76,0.28c2.71,1.21,5.34,2.57,7.75,4.2
				C249.21,354.51,248.35,355.04,247,355.04 M249.99,353c-1.5-1.01-3.09-1.91-4.72-2.73c0.26,0.03,0.52,0.04,0.78,0.04
				c0.33,0,0.66-0.02,0.99-0.08c0.95-0.15,1.87-0.63,2.55-1.3c0.21,0.16,0.43,0.33,0.64,0.5C250.37,350.81,250.32,352.04,249.99,353
				 M250.13,348.5c-0.03-0.02-0.06-0.04-0.08-0.07c0.02-0.03,0.04-0.06,0.06-0.09C250.11,348.4,250.12,348.45,250.13,348.5
				 M218.49,337.66c-2.18-1.65-4.15-3.59-5.81-5.92c-0.12-1.8-0.14-3.61-0.06-5.42c1.38,1.79,2.94,3.35,4.62,4.75
				c-0.12,1.99-0.07,4,0.79,5.77C218.16,337.13,218.32,337.4,218.49,337.66 M217.28,330.27c-1.7-1.46-3.26-3.1-4.63-4.98
				c0.1-1.78,0.29-3.55,0.53-5.31c1.31,1.99,2.85,3.68,4.57,5.16c-0.14,1.44-0.28,2.88-0.41,4.31
				C217.33,329.73,217.31,330,217.28,330.27 M217.84,324.34c-1.71-1.53-3.24-3.3-4.5-5.37l0,0c0.04-0.24,0.07-0.48,0.11-0.72
				c0.11-0.69,0.22-1.41,0.35-2.14c1.25,1.87,2.76,3.41,4.44,4.72C218.09,322,217.96,323.17,217.84,324.34 M218.33,320.09
				c-1.67-1.36-3.14-2.98-4.36-4.97c0.15-0.84,0.32-1.69,0.52-2.54c1.38,1.31,2.86,2.46,4.42,3.51
				C218.69,317.42,218.5,318.76,218.33,320.09 M219.03,315.38c-1.54-1.06-3-2.23-4.35-3.54c0.07-0.27,0.14-0.54,0.22-0.8
				c0.17-0.37,0.35-0.74,0.53-1.1c1.56,0.13,3.09,0.36,4.58,0.65C219.63,312.17,219.31,313.77,219.03,315.38 M220.18,309.94
				c-1.44-0.29-2.92-0.51-4.42-0.65c0.77-1.49,1.6-2.94,2.48-4.36c0.91-0.27,1.91-0.41,2.97-0.41c0.21,0,0.41,0,0.62,0.01
				C221.18,306.3,220.64,308.11,220.18,309.94 M219.02,304.02c0.69-0.59,1.4-1.04,2.12-1.39c0.56-0.26,1.12-0.46,1.69-0.6
				c-0.25,0.58-0.49,1.17-0.72,1.77c-0.23-0.01-0.46-0.02-0.69-0.02C220.59,303.77,219.79,303.85,219.02,304.02"/>
			<path class="st5" d="M218.24,304.93c0.1-0.16,0.2-0.32,0.3-0.47c0.16-0.15,0.32-0.3,0.49-0.44c0.77-0.16,1.57-0.25,2.39-0.25
				c0.23,0,0.46,0.01,0.69,0.02c-0.09,0.25-0.19,0.5-0.28,0.74c-0.21-0.01-0.42-0.01-0.62-0.01
				C220.15,304.52,219.15,304.66,218.24,304.93"/>
			<path class="st5" d="M220.01,310.59c-1.5-0.3-3.02-0.52-4.58-0.65c0.02-0.04,0.04-0.09,0.06-0.13c0.09-0.17,0.17-0.34,0.26-0.52
				c1.5,0.14,2.97,0.36,4.42,0.65C220.12,310.15,220.07,310.37,220.01,310.59"/>
			<path class="st5" d="M249.71,353.62c-2.41-1.63-5.04-2.99-7.75-4.2c1.08,0.39,2.19,0.73,3.31,0.85c1.63,0.83,3.22,1.73,4.72,2.73
				C249.91,353.22,249.82,353.43,249.71,353.62 M220.68,339.96c-2.98-1.86-5.68-4.1-7.91-6.96c-0.04-0.42-0.07-0.83-0.1-1.25
				c1.66,2.34,3.63,4.27,5.81,5.92C219.07,338.55,219.83,339.3,220.68,339.96"/>
			<path class="st5" d="M218.23,320.83c-1.68-1.31-3.19-2.85-4.44-4.72c0.05-0.32,0.11-0.65,0.17-0.98c1.22,1.98,2.69,3.6,4.36,4.97
				C218.29,320.34,218.26,320.58,218.23,320.83"/>
			<path class="st5" d="M250.24,349.44c-0.21-0.17-0.42-0.34-0.64-0.5c0.16-0.16,0.31-0.33,0.44-0.5c0.03,0.02,0.06,0.04,0.08,0.07
				C250.17,348.82,250.21,349.13,250.24,349.44 M217.23,331.07c-1.68-1.4-3.24-2.97-4.62-4.75c0.01-0.34,0.03-0.69,0.05-1.03
				c1.37,1.88,2.93,3.52,4.63,4.98C217.26,330.54,217.24,330.81,217.23,331.07"/>
			<path class="st5" d="M217.76,325.14c-1.72-1.48-3.26-3.18-4.57-5.16c0.05-0.34,0.1-0.68,0.15-1.01l0,0
				c1.27,2.07,2.79,3.83,4.5,5.37C217.81,324.61,217.79,324.88,217.76,325.14"/>
			<path class="st5" d="M218.91,316.1c-1.56-1.05-3.04-2.21-4.42-3.51c0.06-0.25,0.12-0.5,0.19-0.75c1.35,1.32,2.81,2.48,4.35,3.54
				C218.99,315.62,218.95,315.86,218.91,316.1"/>
			<path class="st4" d="M245.31,332.14c-0.65-1.04-1.27-2.09-1.75-3.19c0.43,0.29,0.85,0.58,1.26,0.89
				C244.96,330.61,245.12,331.38,245.31,332.14 M244.67,328.91c-0.5-0.35-1.01-0.69-1.52-1.02c-0.07-0.21-0.14-0.42-0.2-0.63
				c-0.57-2.03-0.5-4.21,0.11-6.23c0.54,0.37,1.08,0.73,1.6,1.09C244.26,324.32,244.33,326.62,244.67,328.91 M244.79,321.41
				c-0.49-0.34-1-0.69-1.52-1.03c0.58-1.59,1.49-3.06,2.68-4.26c0.16,0.12,0.32,0.24,0.49,0.36
				C245.68,318.07,245.16,319.65,244.79,321.41 M246.76,315.84c-0.09-0.07-0.19-0.14-0.29-0.21c0.19-0.17,0.4-0.34,0.6-0.49
				c-0.04,0.11-0.08,0.22-0.12,0.33c-0.03,0.06-0.06,0.12-0.09,0.17C246.83,315.71,246.8,315.78,246.76,315.84"/>
			<path class="st5" d="M246.45,316.48c-0.16-0.12-0.33-0.24-0.49-0.36c0.17-0.17,0.34-0.33,0.52-0.49c0.1,0.07,0.19,0.14,0.29,0.21
				C246.65,316.05,246.55,316.27,246.45,316.48"/>
			<path class="st5" d="M244.66,322.12c-0.52-0.36-1.05-0.72-1.6-1.09c0.07-0.22,0.14-0.44,0.22-0.66c0.52,0.35,1.02,0.69,1.52,1.03
				c-0.05,0.22-0.09,0.44-0.13,0.67C244.66,322.09,244.66,322.11,244.66,322.12"/>
			<path class="st5" d="M244.82,329.83c-0.41-0.3-0.83-0.6-1.26-0.89c-0.15-0.35-0.29-0.7-0.41-1.06c0.52,0.33,1.02,0.67,1.52,1.02
				C244.71,329.22,244.76,329.52,244.82,329.83"/>
		</g>
		<g>
			<path class="st2" d="M209.78,337.91c-1.47,6.53-9.08,9.39-14.67,11.21l-0.06,0.01c-5.47,1.72-10.82,3.75-16.29,5.47
				c-10.55,3.33-3.67-13.2-2.17-17.65c1.53-4.6,2.96-9.99,2.06-14.88c-0.42-2.34-1.1-4.34-2.2-6.43c-2.43-4.61,5.65-7.23,8.23-8.62
				c6.14-3.33,13.91-8.46,20.11-2.57c1.35,2.14,2.59,4.33,3.67,6.62v0.01c0.7,2.41,1.08,4.93,1.44,7.16
				C210.92,324.71,211.21,331.49,209.78,337.91"/>
			<path class="st3" d="M177.35,316.12c-0.17-0.17-0.34-0.33-0.52-0.49c5.57-4.17,10.9-7.32,16.27-9.6c2.43-1.03,5.26-2.08,8.1-2.24
				c0.09,0.25,0.19,0.5,0.28,0.74c-4.95,0.23-10.32,3.17-14.28,5.34l-0.31,0.17C183.58,311.85,180.45,313.84,177.35,316.12
				 M204.77,304.45c-0.16-0.15-0.32-0.3-0.49-0.44c0,0,0,0,0,0C204.45,304.15,204.61,304.3,204.77,304.45
				C204.77,304.45,204.77,304.45,204.77,304.45"/>
			<path class="st3" d="M180.25,321.03c-0.07-0.22-0.14-0.44-0.22-0.66c6.23-4.18,14.07-8.64,23.1-10.44
				c0.05,0.22,0.11,0.43,0.16,0.65C194.3,312.37,186.47,316.84,180.25,321.03 M207.88,309.93c-0.02-0.04-0.04-0.09-0.06-0.13
				C207.83,309.85,207.86,309.89,207.88,309.93L207.88,309.93"/>
			<path class="st3" d="M178.04,350.27c3.35-1.7,6.9-3.08,10.38-4.44c5.72-2.23,11.58-4.51,16.41-8.17c-0.58,0.89-1.34,1.64-2.2,2.3
				c-4.29,2.68-9.13,4.57-13.87,6.43c-2.47,0.96-4.97,1.94-7.41,3.03C180.26,349.81,179.15,350.15,178.04,350.27 M210.53,332.99
				c0.04-0.42,0.07-0.83,0.1-1.25c0,0,0-0.01,0.01-0.01C210.61,332.15,210.58,332.57,210.53,332.99
				C210.54,332.99,210.54,332.99,210.53,332.99"/>
			<path class="st3" d="M177.52,333.94c0.09-0.32,0.18-0.65,0.27-0.98c3.88-2.67,8.52-4.34,13.01-5.96
				c5.22-1.88,10.24-3.69,14.18-6.91c0.03,0.24,0.06,0.49,0.09,0.74c-4.02,3.13-9.03,4.93-13.94,6.7
				C186.39,329.23,181.49,331,177.52,333.94 M209.51,316.1c-0.05-0.32-0.11-0.65-0.17-0.98c0,0,0-0.01,0.01-0.01
				c0.06,0.33,0.12,0.66,0.17,0.98C209.52,316.1,209.51,316.1,209.51,316.1"/>
			<path class="st3" d="M173.71,348.94c-0.16-0.16-0.31-0.33-0.44-0.5c4.73-3.63,10.34-6.13,15.77-8.55
				c5.96-2.65,12.06-5.38,16.99-9.61c0.02,0.27,0.04,0.53,0.06,0.8c-4.89,4.07-10.85,6.73-16.66,9.33
				C184,342.83,178.41,345.33,173.71,348.94 M210.7,326.32c-0.01-0.34-0.03-0.69-0.05-1.03c0,0,0-0.01,0.01-0.01
				C210.68,325.62,210.69,325.97,210.7,326.32C210.7,326.32,210.7,326.32,210.7,326.32"/>
			<path class="st3" d="M175.12,341.14c0.12-0.36,0.24-0.71,0.36-1.04c4.09-2.78,8.86-4.75,13.48-6.67
				c5.86-2.43,11.87-4.92,16.51-9.09c0.03,0.27,0.05,0.54,0.08,0.8c-4.63,3.99-10.5,6.42-16.22,8.8
				C184.42,335.98,179.35,338.08,175.12,341.14 M210.12,319.98c-0.05-0.34-0.1-0.68-0.15-1.01l0.01-0.01
				c0.05,0.34,0.1,0.67,0.15,1.01C210.13,319.97,210.12,319.98,210.12,319.98"/>
			<path class="st3" d="M179.75,328.94c0.15-0.35,0.29-0.7,0.41-1.06c3.62-2.32,7.61-4.12,11.49-5.87c4.3-1.94,8.71-3.93,12.63-6.63
				c0.04,0.24,0.08,0.48,0.12,0.72c-3.86,2.61-8.17,4.55-12.38,6.45C187.86,324.44,183.56,326.38,179.75,328.94 M208.82,312.58
				c-0.06-0.25-0.12-0.5-0.19-0.75c0,0,0,0,0.01-0.01C208.7,312.08,208.77,312.33,208.82,312.58
				C208.82,312.58,208.82,312.58,208.82,312.58"/>
			<path class="st4" d="M176.3,355.04c-1.34,0-2.2-0.53-2.71-1.42c2.41-1.63,5.04-2.99,7.75-4.2c0.26-0.09,0.51-0.19,0.76-0.28
				c5.73-2.13,11.48-4.27,16.93-7.02c1.23-0.62,2.49-1.31,3.58-2.16c2.98-1.86,5.68-4.1,7.91-6.96c-0.16,1.65-0.41,3.29-0.77,4.91
				c-0.48,2.13-1.6,3.86-3.09,5.3c-0.03,0.02-0.06,0.04-0.1,0.06l-0.07,0.04l-0.03,0.08c0,0,0,0,0,0
				c-3.12,2.89-7.73,4.54-11.44,5.74c-4.35,1.38-8.64,2.95-12.97,4.4l-0.01-0.09l-0.64,0.27l0.01,0.04
				c-0.89,0.3-1.78,0.59-2.68,0.87c0,0-0.01,0-0.01,0l-0.01-0.03l-0.26,0.07l-0.22,0.05l-0.17,0.04l0.01,0.05
				c-0.04,0.01-0.09,0.02-0.13,0.03C177.34,354.97,176.79,355.04,176.3,355.04 M173.32,353c-0.33-0.96-0.38-2.2-0.25-3.56
				c0.21-0.17,0.42-0.34,0.64-0.5c0.68,0.67,1.61,1.15,2.55,1.3c0.33,0.05,0.66,0.08,0.99,0.08c0.26,0,0.52-0.01,0.78-0.04
				C176.41,351.1,174.82,352,173.32,353 M173.18,348.5c0.01-0.05,0.01-0.1,0.02-0.15c0.02,0.03,0.04,0.06,0.06,0.09
				C173.24,348.46,173.21,348.48,173.18,348.5 M204.82,337.66c0.17-0.26,0.33-0.53,0.46-0.82c0.86-1.77,0.92-3.78,0.79-5.77
				c1.68-1.4,3.24-2.97,4.62-4.75c0.07,1.81,0.06,3.62-0.06,5.42C208.98,334.08,207,336.01,204.82,337.66 M206.02,330.27
				c-0.02-0.27-0.05-0.54-0.07-0.82c-0.13-1.44-0.26-2.87-0.41-4.31c1.72-1.48,3.26-3.18,4.57-5.16c0.24,1.75,0.43,3.53,0.53,5.31
				C209.28,327.17,207.72,328.81,206.02,330.27 M205.47,324.34c-0.12-1.17-0.25-2.34-0.39-3.51c1.68-1.31,3.19-2.85,4.44-4.72
				c0.12,0.74,0.24,1.46,0.35,2.14c0.04,0.24,0.08,0.48,0.11,0.72l0,0C208.7,321.04,207.18,322.8,205.47,324.34 M204.98,320.09
				c-0.17-1.34-0.36-2.67-0.58-3.99c1.56-1.05,3.04-2.21,4.42-3.51c0.2,0.85,0.37,1.7,0.52,2.54
				C208.13,317.11,206.65,318.73,204.98,320.09 M204.28,315.38c-0.28-1.61-0.6-3.21-0.99-4.79c1.5-0.3,3.02-0.52,4.58-0.65
				c0.18,0.37,0.36,0.73,0.53,1.1c0.08,0.27,0.15,0.53,0.22,0.8C207.28,313.15,205.82,314.32,204.28,315.38 M203.13,309.94
				c-0.46-1.83-1.01-3.63-1.66-5.4c0.21-0.01,0.42-0.01,0.62-0.01c1.06,0,2.06,0.14,2.97,0.41c0.88,1.42,1.71,2.87,2.48,4.36
				C206.05,309.43,204.58,309.65,203.13,309.94 M204.28,304.02c-0.77-0.16-1.57-0.25-2.39-0.25c-0.23,0-0.46,0.01-0.69,0.02
				c-0.23-0.59-0.47-1.18-0.72-1.77c0.57,0.14,1.13,0.34,1.69,0.6C202.89,302.97,203.59,303.43,204.28,304.02"/>
			<path class="st5" d="M205.07,304.93c-0.1-0.16-0.2-0.32-0.3-0.47c-0.16-0.15-0.32-0.3-0.49-0.44c-0.77-0.16-1.57-0.25-2.39-0.25
				c-0.23,0-0.46,0.01-0.69,0.02c0.09,0.25,0.19,0.5,0.28,0.74c0.21-0.01,0.42-0.01,0.62-0.01
				C203.16,304.52,204.15,304.66,205.07,304.93"/>
			<path class="st5" d="M203.29,310.59c1.5-0.3,3.02-0.52,4.58-0.65c-0.02-0.04-0.04-0.09-0.06-0.13c-0.09-0.17-0.17-0.34-0.26-0.52
				c-1.5,0.14-2.97,0.36-4.42,0.65C203.19,310.15,203.24,310.37,203.29,310.59"/>
			<path class="st5" d="M173.59,353.62c-0.11-0.19-0.2-0.4-0.28-0.62c1.5-1.01,3.09-1.91,4.72-2.73c1.12-0.12,2.23-0.46,3.31-0.85
				C178.63,350.63,176,351.99,173.59,353.62 M202.63,339.96c0.86-0.66,1.62-1.41,2.2-2.3c2.18-1.65,4.15-3.59,5.81-5.92
				c-0.03,0.42-0.06,0.84-0.1,1.25C208.31,335.86,205.6,338.1,202.63,339.96"/>
			<path class="st5" d="M205.08,320.83c1.68-1.31,3.19-2.85,4.44-4.72c-0.05-0.32-0.11-0.65-0.17-0.98
				c-1.22,1.98-2.69,3.6-4.36,4.97C205.02,320.34,205.05,320.58,205.08,320.83"/>
			<path class="st5" d="M173.07,349.44c0.03-0.31,0.07-0.62,0.12-0.94c0.03-0.02,0.06-0.04,0.08-0.07c0.13,0.18,0.28,0.35,0.44,0.5
				C173.49,349.1,173.28,349.27,173.07,349.44 M206.08,331.07c-0.02-0.27-0.04-0.54-0.06-0.8c1.7-1.46,3.26-3.1,4.63-4.98
				c0.02,0.34,0.04,0.69,0.05,1.03C209.32,328.11,207.76,329.67,206.08,331.07"/>
			<path class="st5" d="M205.55,325.14c1.72-1.48,3.26-3.18,4.57-5.16c-0.05-0.34-0.1-0.68-0.15-1.01l0,0
				c-1.27,2.07-2.79,3.83-4.5,5.37C205.49,324.61,205.52,324.88,205.55,325.14"/>
			<path class="st5" d="M204.4,316.1c1.56-1.05,3.04-2.21,4.42-3.51c-0.06-0.25-0.12-0.5-0.19-0.75c-1.35,1.32-2.81,2.48-4.35,3.54
				C204.32,315.62,204.36,315.86,204.4,316.1"/>
			<path class="st4" d="M178,332.14c0.19-0.76,0.35-1.53,0.49-2.31c0.41-0.3,0.83-0.6,1.26-0.89
				C179.27,330.05,178.65,331.1,178,332.14 M178.64,328.91c0.34-2.28,0.41-4.59,0.01-6.79c0.52-0.36,1.05-0.72,1.6-1.09
				c0.61,2.02,0.69,4.19,0.11,6.23c-0.06,0.21-0.12,0.42-0.2,0.63C179.65,328.21,179.14,328.56,178.64,328.91 M178.51,321.41
				c-0.36-1.75-0.89-3.33-1.65-4.93c0.16-0.12,0.33-0.24,0.49-0.36c1.19,1.2,2.1,2.67,2.68,4.26
				C179.51,320.72,179.01,321.06,178.51,321.41 M176.54,315.84c-0.03-0.07-0.07-0.13-0.11-0.2c-0.03-0.06-0.06-0.12-0.09-0.17
				c-0.05-0.11-0.08-0.22-0.12-0.33c0.21,0.16,0.41,0.32,0.6,0.49C176.73,315.7,176.64,315.77,176.54,315.84"/>
			<path class="st5" d="M176.86,316.48c0.16-0.12,0.33-0.24,0.49-0.36c-0.17-0.17-0.34-0.33-0.52-0.49
				c-0.1,0.07-0.19,0.14-0.29,0.21C176.65,316.05,176.76,316.27,176.86,316.48"/>
			<path class="st5" d="M178.65,322.12c0.52-0.36,1.05-0.72,1.6-1.09c-0.07-0.22-0.14-0.44-0.22-0.66
				c-0.52,0.35-1.02,0.69-1.52,1.03c0.05,0.22,0.09,0.44,0.13,0.67C178.65,322.09,178.65,322.11,178.65,322.12"/>
			<path class="st5" d="M178.49,329.83c0.41-0.3,0.83-0.6,1.26-0.89c0.15-0.35,0.29-0.7,0.41-1.06c-0.52,0.33-1.02,0.67-1.52,1.02
				C178.6,329.22,178.55,329.52,178.49,329.83"/>
		</g>
	</g>
	<path d="M298.27,263.18v-8.74c0-8.52-6.37-17.81-7.27-19.07c-0.09-1.63-0.79-14.04-2-19.9c-1.14-5.53-3.17-10.82-3.58-11.89
		c0.32-0.94,1.7-5.13,2.5-10.25c0.92-5.89-3.08-20.34-5.48-26.43c-1.59-4.05-4.92-5.58-7.59-6.81c-1.45-0.67-2.69-1.24-3.4-2.06
		c-1.8-2.1-3.6-2.68-5.18-3.19c-0.42-0.13-0.82-0.26-1.2-0.42c-0.61-0.24-1.15-0.73-1.96-1.47c-1.38-1.26-3.48-3.16-7.95-5.76
		c-2.59-1.5-6.43-3.26-10.49-5.12c-6.09-2.79-12.98-5.95-14.6-7.94c-0.66-0.81-1.6-3.53-2.47-6.38c0.49-0.97,1.85-3.65,1.97-4.07
		c0.52-1.82,0.58-4.3,0.56-5.8c0.3,0.14,0.67,0.22,1.11,0.17c1.5-0.18,2.9-2.51,4.57-5.54c0.47-0.85,0.91-1.65,1.26-2.14
		c1.45-2.07,1.13-6.56,0.07-9.92c-0.31-0.98-0.84-1.55-1.56-1.68c-1-0.18-2.09,0.58-2.87,1.3c0.15-4.19,0.09-15.97-4.74-21.77
		c-4.16-5-12.49-6.24-15.65-6.54h-1.24c-3.16,0.3-11.49,1.54-15.65,6.54c-4.84,5.8-4.89,17.58-4.74,21.77
		c-0.78-0.72-1.88-1.48-2.88-1.3c-0.73,0.13-1.25,0.7-1.56,1.68c-1.06,3.36-1.38,7.85,0.07,9.92c0.34,0.49,0.78,1.29,1.26,2.14
		c1.68,3.03,3.08,5.35,4.57,5.54c0.44,0.05,0.81-0.03,1.11-0.17c-0.02,1.5,0.04,3.98,0.56,5.8c0.12,0.41,1.45,3.05,1.96,4.04
		c-0.87,2.86-1.82,5.59-2.48,6.4c-1.61,1.99-8.51,5.15-14.6,7.94c-4.06,1.86-7.9,3.62-10.49,5.12c-4.48,2.6-6.57,4.5-7.95,5.76
		c-0.82,0.74-1.35,1.23-1.96,1.47c-0.39,0.16-0.79,0.28-1.2,0.42c-1.58,0.51-3.38,1.08-5.18,3.19c-0.7,0.82-1.95,1.4-3.4,2.06
		c-2.67,1.23-6,2.76-7.59,6.81c-2.4,6.09-6.4,20.54-5.48,26.43c0.8,5.12,2.18,9.31,2.5,10.25c-0.42,1.06-2.45,6.36-3.58,11.89
		c-1.21,5.86-1.91,18.27-2,19.9c-0.9,1.27-7.27,10.55-7.27,19.07v8.74c-0.61,0.98-3.76,6.68-3.09,17.81
		c0.26,4.26,0.74,8.2,1.24,12.36c0.9,7.41,2.73,15.08,2.38,25c-0.53,15.12-0.4,28.07,1.47,33.83c0.81,2.48,5.19,14.92,5.4,15.45
		c0,0,0.18,0.57,0.73,0.4c0.03-0.01,2.8-0.8,3.1-4.43l1.15,1.18c0.2,0.21,0.54,0.18,0.71-0.05l0.05-0.08
		c0.09-0.12,1.38-1.96,1.77-4.25c0.82-1.25,2.47-4.45,0.47-7.49c-0.83-1.26-3.81-4.32-4.5-5.03c-0.05-0.63-0.25-2.6-0.79-4.73
		c-0.46-2.6-0.19-4.54,0.39-5.87c0.17-0.32,0.34-0.64,0.53-0.96c0.45-0.63,0.98-1.03,1.49-1.23c0.13-0.05,0.2-0.03,0.28,0.02
		c1.17,0.75,1.44,2.76,1.73,4.89c0.27,1.99,0.62,4.01,1.56,5.66c1.15,2.03,4.45,2.8,4.88-1.08c0.31-2.76,0.3-6.15,0.29-7.59
		l-0.08-1.46c-0.31-5.54-0.51-8.36-3.49-13.2c-1.3-2.12-1.32-3.3-0.5-11.54c0.4-4.01,2.97-10.55,5.59-17.48
		c2.99-7.92,6.09-16.11,6.28-20.86c0.31-7.36-0.66-11.02-1.01-12.07c0.62-0.75,2.35-3.05,2.82-6.02c0.55-3.46,0.38-9.47,0.36-9.62
		c0.02-0.1,1.83-10.48,4.83-15.24c2.21-3.51,5.19-9.75,6.65-13.45c0.81,3.68,1.53,6.67,2,8.07c0.74,2.22,1.68,4.68,2.59,7.07
		c1.3,3.4,2.52,6.62,2.84,8.29c0.31,1.65,0.39,10,0.25,24.82c-0.01,0.77-0.01,1.28-0.01,1.44c-0.03,0.28-0.66,1.39-1.21,2.37
		c-1.88,3.33-5.03,8.9-4.45,13.6c0.65,5.25,1.45,7.44,1.73,8.1c-0.6,1.89-4.98,16.25-4.31,26.6c0.24,3.61-1.18,9.24-2.98,16.38
		c-2.32,9.19-5.2,20.64-6.17,33.84c-1.44,19.54,2.67,51.63,4.21,63.71c0.33,2.59,0.55,4.3,0.58,4.82c0.08,1.28-0.04,2.16-0.18,3.18
		c-0.19,1.39-0.4,2.96-0.19,5.91c0.05,0.67,0.2,1.46,0.45,2.35c-1.09,2.82-2.08,5.63-2.95,8.23c-7.23,16.27-4.01,33.55-0.9,50.26
		c0.67,3.63,1.37,7.37,1.95,11.03l0.09,0.84c0.74,6.6,1.5,13.42-0.15,19.66c-0.83,3.16-1.71,5-2.35,6.15c0,0-0.01,0.01-0.01,0.01
		c-0.06,0.05-0.08,0.11-0.09,0.17c-0.15,0.26-0.29,0.49-0.41,0.68c-0.12,0.19-0.21,0.35-0.29,0.49c-0.66,1.19-0.67,2.55-0.38,3.86
		c-0.19,0.51-1.62,4.11-5.27,6.18c-3.42,1.94-6.48,3.23-7.58,3.77c-2.56-0.42-5.56,0.37-6.17,1.02c-0.46,0.49-0.93,1.25-0.93,3.16
		c0,1.85,2.22,2.69,3.21,2.97c0,0.66,0.16,1.88,1.06,3.28c1.29,2.01,9.31,4.54,12.7,5.54c1.16,0.34,3.39,1.88,5.36,3.23
		c1.85,1.28,3.61,2.48,4.68,2.88c1.1,0.41,3.41,0.81,6.13,0.81c3.33,0,7.26-0.6,10.29-2.49c5.72-3.58,1.79-18.44,1.62-19.07
		c-0.2-0.74-0.42-1.56-0.65-2.42c-0.71-2.68-1.52-5.72-2.34-8.2c0.03-0.94,0.51-1.91,1.03-2.94c0.56-1.13,1.15-2.29,1.15-3.51
		l-0.02-0.15c-5.18-18.64,2.51-36.16,9.95-53.1l0.95-2.19c0.36-1.43,0.85-2.9,1.32-4.32c0.97-2.9,1.97-5.9,1.96-8.95
		c-0.46-4.15-1.67-8.21-2.94-12.51c-0.76-2.55-1.78-6.31-2.68-9.73c4.43-6.74,8.31-15.31,9.25-20.41c0.7-3.8,1.3-11,2-19.33
		c0.62-7.36,1.32-15.7,2.18-22.37c1.06-8.22,3.23-17.51,4.98-24.97c1.2-5.1,2.23-9.51,2.57-12.16c0.75-5.88-0.34-12.78-0.59-14.21
		c0.68-2.11,0.98-4.51,1.03-6.94c0.06,2.44,0.35,4.84,1.03,6.95c-0.25,1.43-1.34,8.34-0.59,14.21c0.34,2.66,1.37,7.06,2.57,12.16
		c1.75,7.46,3.93,16.74,4.98,24.97c0.86,6.66,1.56,15,2.18,22.37c0.7,8.33,1.31,15.53,2.01,19.33c0.94,5.09,4.81,13.65,9.23,20.38
		c-0.94,3.57-1.99,7.44-2.67,9.76c-1.28,4.3-2.48,8.36-2.94,12.51c0,3.05,1,6.05,1.96,8.95c0.47,1.42,0.96,2.89,1.32,4.32l0.95,2.19
		c7.44,16.94,15.12,34.46,9.95,53.1l-0.02,0.15c0,1.22,0.58,2.39,1.15,3.51c0.52,1.03,1,2.01,1.03,2.94
		c-0.82,2.47-1.63,5.51-2.34,8.2c-0.23,0.86-0.45,1.68-0.65,2.42c-0.17,0.63-4.11,15.49,1.62,19.07c3.03,1.89,6.96,2.49,10.29,2.49
		c2.72,0,5.03-0.4,6.13-0.81c1.07-0.4,2.82-1.61,4.68-2.88c1.97-1.35,4.2-2.89,5.36-3.23c3.39-1,11.41-3.53,12.7-5.54
		c0.9-1.4,1.06-2.62,1.06-3.28c0.99-0.28,3.21-1.13,3.21-2.97c0-1.91-0.47-2.67-0.93-3.16c-0.61-0.65-3.61-1.44-6.17-1.02
		c-1.1-0.55-4.15-1.83-7.58-3.77c-3.64-2.06-5.07-5.67-5.27-6.18c0.28-1.31,0.27-2.67-0.38-3.86c-0.08-0.14-0.17-0.3-0.29-0.49
		c-0.12-0.19-0.25-0.42-0.41-0.68c-0.01-0.06-0.03-0.12-0.09-0.17c0,0-0.01-0.01-0.01-0.01c-0.64-1.15-1.52-3-2.35-6.15
		c-1.65-6.24-0.88-13.06-0.15-19.66l0.09-0.84c0.58-3.66,1.28-7.41,1.95-11.03c3.11-16.71,6.32-33.99-0.9-50.26
		c-0.86-2.6-1.86-5.4-2.94-8.21c0.25-0.9,0.41-1.7,0.46-2.37c0.21-2.95,0-4.52-0.18-5.91c-0.14-1.02-0.25-1.9-0.18-3.18
		c0.03-0.52,0.25-2.23,0.58-4.82c1.55-12.08,5.66-44.17,4.21-63.71c-0.97-13.21-3.86-24.65-6.17-33.84
		c-1.8-7.13-3.22-12.77-2.98-16.38c0.67-10.35-3.71-24.71-4.31-26.6c0.29-0.66,1.08-2.85,1.73-8.1c0.58-4.7-2.57-10.27-4.45-13.6
		c-0.55-0.98-1.18-2.09-1.21-2.37c0-0.15,0-0.67-0.01-1.44c-0.15-14.82-0.06-23.17,0.25-24.82c0.32-1.68,1.54-4.89,2.84-8.29
		c0.91-2.38,1.85-4.85,2.59-7.07c0.46-1.4,1.18-4.37,1.99-8.04c1.46,3.71,4.44,9.93,6.64,13.42c3,4.76,4.81,15.13,4.83,15.24
		c-0.01,0.15-0.18,6.16,0.36,9.62c0.47,2.98,2.2,5.27,2.82,6.02c-0.35,1.06-1.32,4.71-1.01,12.07c0.2,4.75,3.29,12.94,6.28,20.86
		c2.62,6.93,5.19,13.47,5.59,17.48c0.82,8.24,0.8,9.42-0.5,11.54c-2.97,4.84-3.18,7.66-3.49,13.2l-0.08,1.46
		c-0.01,1.44-0.02,4.83,0.29,7.59c0.43,3.88,3.73,3.11,4.88,1.08c0.94-1.65,1.29-3.67,1.56-5.66c0.29-2.13,0.56-4.14,1.73-4.89
		c0.08-0.05,0.15-0.07,0.28-0.02c0.51,0.19,1.04,0.59,1.49,1.23c0.19,0.32,0.37,0.64,0.53,0.96c0.58,1.33,0.85,3.27,0.39,5.87
		c-0.54,2.14-0.73,4.1-0.79,4.73c-0.7,0.71-3.68,3.76-4.5,5.03c-2,3.05-0.35,6.25,0.47,7.49c0.39,2.29,1.68,4.13,1.77,4.25
		l0.05,0.08c0.17,0.24,0.51,0.26,0.71,0.05l1.15-1.18c0.29,3.64,3.07,4.42,3.1,4.43c0.55,0.17,0.73-0.4,0.73-0.4
		c0.2-0.53,4.58-12.97,5.4-15.45c1.88-5.75,2.01-18.7,1.47-33.83c-0.35-9.92,1.48-17.58,2.38-25c0.51-4.16,0.98-8.09,1.24-12.36
		C302.03,269.86,298.87,264.16,298.27,263.18z M290.02,235.88c0.05,0.07,3.25,4.52,5.35,10.04c0.07,0.19,0.14,0.38,0.21,0.57
		c0.03,0.09,0.07,0.19,0.1,0.28c0.07,0.19,0.13,0.38,0.19,0.57c0.77,2.31,1.3,4.76,1.3,7.11v8.15c-4.13-4.99-10.06-8.85-11.21-15.39
		c1.5-3.6,2.9-7.62,4.02-11.37L290.02,235.88z M271.96,159.85c0.72,0.45,1.55,0.84,2.42,1.24c2.63,1.21,5.6,2.58,7.03,6.22
		c2.36,6,6.31,20.17,5.42,25.86c-0.68,4.37-1.79,8.05-2.28,9.54c-2.35-2.56-4.85-5-7.74-6.85c-4.71-3-10.06-4.01-14.95-6.54
		c-7.82-4.05-8.89-16.51-2.24-22.88C263.43,162.8,267.3,160.52,271.96,159.85z M213.27,198.03c-0.34-8.9-2.08-18.56,0.16-27.33
		c1.84-7.2,6.27-12.51,12.55-15.99c3.67,2.01,7.81,3.33,12.1,4c3.79,0.59,12.28,1.87,18.89,0.74c0.84,5.68-6.85,6.07-10.08,6.26
		c-1.1,0.07-2.15,0.11-3.24,0.29c-2.29,0.36-5.39,0.58-7.38,1.96c-3.67,2.56-2.84,7.07-1.96,11.02c2.13,9.62,5.39,18.51,0.69,28.03
		c-3.4,6.89-8.04,13.13-12.37,19.46c-1.38,2.02-2.87,3.94-4.28,5.94c-1.02,1.45-5.02,4.46-4.99,1.42c0.04-3.86-0.22-7.73-0.27-11.6
		C212.96,214.18,213.57,206.07,213.27,198.03z M255.16,183.06c0.15,0.47,0.33,0.91,0.53,1.33c-4.06,4.93-9.46,8.16-15.48,10.19
		c-0.7-1.09-1.43-2.17-2.2-3.22c-0.04-0.05-0.08-0.08-0.13-0.1c-0.16-1.11-0.38-2.24-0.67-3.39c-1.41-5.57-6.68-18.11,1.75-20.24
		c1.09-0.28,2.2-0.46,3.3-0.59c4.56,2.04,8.58,4.89,12.03,8.51c0.01,0.01,0.02,0.01,0.03,0.02
		C254.09,177.91,254.34,180.43,255.16,183.06z M238.04,192.55c2.55,3.62,4.72,7.47,6.51,11.54c-2.89-0.35-5.59-1.01-7.35-1.59
		C238.06,199.29,238.37,196.02,238.04,192.55z M240.56,195.15c5.99-2.04,11.39-5.26,15.46-10.13c0.96,1.67,2.34,2.93,3.93,3.92
		c-0.35,1.83-1.18,6.15-2.19,11.18c-1.58,4.02-7.21,4.59-12.46,4.06C243.94,201.03,242.36,198.02,240.56,195.15z M264.69,155.46
		c0.4,0.16,0.81,0.29,1.24,0.43c1.52,0.49,3.08,0.99,4.69,2.86c0.17,0.19,0.36,0.37,0.57,0.54c-8.57,1.36-15.58,7.3-16.76,15.46
		c-3.18-3.25-6.82-5.89-10.9-7.85c2.79-0.25,5.58-0.29,8.31-0.89c3.72-0.81,6.28-3.26,5.8-6.69
		C260.69,158.71,263.27,157.53,264.69,155.46z M244.19,143.07c4.04,1.85,7.86,3.6,10.4,5.07c4.38,2.54,6.42,4.39,7.77,5.62
		c0.65,0.59,1.17,1.06,1.73,1.4c-5.46,7.96-29.49,2.59-35.02,0.35c-5.9-2.39-8.43-5.4-12.06-10.42c-3.56-4.93-3.96-9.31-4.08-15.2
		c-0.07-3.35-0.24-6.75-0.14-10.1c0-1,0.08-2,0.24-2.99c0.11-1.14,1.3-2.15,2.47-1.7c1.26,0.49,2.23,1.73,2.81,2.89
		c0.54,1.08,1.03,2.18,1.56,3.27c2.39,4.92,5.13,10.13,9.41,13.63C231.11,137.08,237.76,140.12,244.19,143.07z M197.91,119.95
		c0,0-0.75,2.98-1.7,6.24c-0.47-0.9-1.29-2.53-1.37-2.79c-0.73-2.54-0.48-6.7-0.47-6.74l0.16-2.57l-1.19,2.29
		c-0.01,0.03-0.39,0.69-1.08,0.61c-1.06-0.13-2.75-3.17-3.75-4.98c-0.51-0.91-0.94-1.7-1.32-2.23c-1.08-1.55-1.05-5.4,0.07-8.97
		c0.18-0.57,0.42-0.88,0.72-0.94c0.78-0.14,2.14,1.1,2.87,2.02l1.1,1.39l-0.13-1.77c-0.01-0.16-1.12-15.85,4.42-22.49
		c4.11-4.93,12.96-5.99,15.43-6.19c2.47,0.2,11.33,1.26,15.43,6.19c5.54,6.64,4.43,22.33,4.42,22.49l-0.13,1.77l1.1-1.39
		c0.73-0.92,2.09-2.16,2.87-2.02c0.3,0.06,0.54,0.37,0.72,0.94c1.12,3.56,1.16,7.42,0.07,8.97c-0.37,0.53-0.81,1.32-1.32,2.23
		c-1.01,1.82-2.69,4.85-3.75,4.98c-0.7,0.08-1.07-0.59-1.08-0.61l-1.19-2.29l0.16,2.57c0,0.04,0.26,4.21-0.47,6.74
		c-0.08,0.26-0.92,1.92-1.38,2.82c-0.95-3.26-1.71-6.26-1.71-6.26c0.06,0.43,1.3,9.16,2.93,13.25c-4.1-3.98-6.57-9.58-9.04-14.68
		c-0.56-1.16-2.92-6.01-5.24-4.64c-2.4,1.43-1.99,5.41-1.92,7.79c0.15,5.27-0.75,11.33,0.58,16.47c1.9,7.34,6.57,12.7,12.58,16.18
		c-5.55,3.15-10.43,8.05-12.03,14.35c-2.64,10.37-0.58,20.75-0.62,31.27c-0.05,11.27,0.32,22.64,0.05,33.9
		c-0.04,1.67,0.66,3.88,2.05,3.61c0.12,1.78,0.31,3.56,0.53,5.34c-0.7-1.32-1.87-3.34-2.86-4.32c-0.4-0.4-1.13-0.38-1.55,0.04
		c-0.95,0.95-2.03,2.64-2.79,3.98c0.2-1.68,0.38-3.36,0.5-5.04c1.4,0.28,2.09-1.93,2.05-3.61c-0.27-11.25,0.1-22.63,0.05-33.9
		c-0.04-10.52,2.02-20.89-0.62-31.27c-1.61-6.3-6.49-11.2-12.03-14.35c6-3.47,10.67-8.83,12.58-16.18
		c1.33-5.14,0.43-11.2,0.58-16.47c0.07-2.39,0.48-6.36-1.92-7.79c-2.32-1.38-4.68,3.48-5.24,4.64c-2.47,5.11-4.95,10.72-9.07,14.71
		C196.6,129.15,197.85,120.38,197.91,119.95z M215.55,244.86c1.11,7.78,3.02,15.47,5.2,22.96c0.84,2.88,1.84,10.33,5.53,12.26
		c2.63,2.07,1.97,5.39,1.71,6.46c-0.55,2.3-11.87,16.68-15.76,20.47c-0.3,0.3-0.87,0.3-1.18,0.01
		c-4.18-3.87-15.42-17.96-15.98-20.26c-0.26-1.07-0.82-4.53,1.86-6.61c3.79-1.82,4.81-9.42,5.66-12.33
		c2.21-7.62,4.15-15.46,5.25-23.38c0.86-1.77,2.19-3.88,3.04-4.98c0.6-0.79,1.06-0.71,1.61,0.08
		C213.22,240.58,214.7,243.03,215.55,244.86z M169.01,175.58c0.02-0.01,0.03-0.02,0.05-0.03c3.45-3.62,7.47-6.47,12.03-8.51
		c1.1,0.13,2.2,0.31,3.3,0.59c8.43,2.14,3.16,14.67,1.75,20.24c-0.29,1.15-0.51,2.28-0.67,3.39c-0.05,0.02-0.09,0.05-0.13,0.1
		c-0.76,1.06-1.5,2.13-2.2,3.22c-6.03-2.03-11.44-5.27-15.5-10.21c0.2-0.41,0.38-0.85,0.52-1.31
		C168.98,180.43,169.23,177.92,169.01,175.58z M182.78,195.15c-1.8,2.88-3.39,5.89-4.75,9.03c-5.12,0.54-10.61,0.02-12.38-3.69
		c-1.04-5.2-1.9-9.69-2.26-11.56c1.59-1,2.97-2.26,3.92-3.93C171.38,189.88,176.79,193.1,182.78,195.15z M185.31,192.55
		c-0.34,3.46-0.03,6.74,0.83,9.95c-1.76,0.57-4.46,1.24-7.35,1.6C180.59,200.02,182.76,196.17,185.31,192.55z M189.03,178.97
		c0.88-3.95,1.71-8.46-1.96-11.02c-1.98-1.38-5.09-1.6-7.38-1.96c-1.09-0.17-2.15-0.22-3.25-0.29c-3.23-0.19-10.91-0.58-10.08-6.26
		c6.61,1.13,15.11-0.16,18.89-0.74c4.29-0.66,8.43-1.99,12.1-4c6.28,3.48,10.71,8.79,12.55,15.99c2.24,8.77,0.5,18.43,0.16,27.33
		c-0.3,8.05,0.31,16.15,0.19,24.21c-0.06,3.86-0.31,7.74-0.27,11.6c0.03,3.04-3.97,0.03-4.99-1.42c-1.41-2-2.9-3.92-4.28-5.94
		c-4.33-6.33-9.01-12.55-12.41-19.44c-0.72-1.46-1.25-2.91-1.63-4.35c0,0,0-0.01,0-0.01C184.59,194.74,187.23,187.1,189.03,178.97z
		 M160.96,153.77c1.35-1.23,3.39-3.08,7.77-5.62c2.54-1.48,6.36-3.22,10.4-5.07c6.38-2.92,12.97-5.94,14.88-8.13
		c4.32-3.5,7.08-8.73,9.48-13.68c0.53-1.09,1.02-2.19,1.56-3.27c0.58-1.16,1.54-2.4,2.81-2.89c1.17-0.45,2.36,0.56,2.47,1.7
		c0.16,0.99,0.24,1.98,0.24,2.99c0.1,3.35-0.08,6.75-0.14,10.1c-0.12,5.89-0.52,10.27-4.08,15.2c-3.63,5.02-6.16,8.03-12.06,10.42
		c-5.53,2.24-29.58,7.61-35.03-0.36C159.79,154.82,160.31,154.36,160.96,153.77z M152.71,158.74c1.6-1.87,3.17-2.37,4.69-2.86
		c0.43-0.14,0.85-0.27,1.25-0.43c1.42,2.07,4,3.26,7.06,3.87c-0.48,3.43,2.09,5.88,5.8,6.69c2.73,0.6,5.53,0.64,8.32,0.89
		c-4.1,1.96-7.74,4.6-10.92,7.87c-1.18-8.17-8.19-14.12-16.77-15.48C152.35,159.12,152.54,158.94,152.71,158.74z M136.49,193.17
		c-0.89-5.7,3.05-19.86,5.42-25.86c1.43-3.64,4.41-5.01,7.03-6.22c0.87-0.4,1.7-0.79,2.42-1.24c4.67,0.67,8.53,2.95,12.34,6.59
		c6.65,6.37,5.59,18.83-2.24,22.88c-4.89,2.53-10.24,3.54-14.95,6.54c-2.89,1.85-5.39,4.29-7.74,6.85
		C138.28,201.21,137.17,197.54,136.49,193.17z M126.14,254.44c0-2.35,0.53-4.8,1.3-7.11c0.06-0.19,0.13-0.38,0.19-0.57
		c0.03-0.09,0.07-0.19,0.1-0.28c0.07-0.19,0.14-0.38,0.21-0.57c2.11-5.52,5.31-9.98,5.35-10.04l0.03-0.04
		c1.12,3.74,2.52,7.77,4.02,11.37c-1.15,6.53-7.08,10.39-11.21,15.39V254.44z M125.02,298.4c-0.27-1.76-0.52-3.48-0.73-5.18
		c-0.5-4.14-0.98-8.06-1.24-12.29c-0.02-0.28-0.03-0.54-0.04-0.81c-0.01-0.15-0.01-0.29-0.02-0.44c-0.01-0.2-0.01-0.4-0.02-0.6
		c0-0.13-0.01-0.26-0.01-0.39c0-0.21,0-0.41,0-0.61c0-0.12,0-0.23,0-0.35c0-0.23,0.01-0.45,0.01-0.67c0-0.08,0-0.17,0-0.25
		c0.23-8.39,2.76-12.67,3.04-13.12c3.91-5.24,10.1-9.05,11.75-15.49c0.32,0.74,0.64,1.46,0.97,2.15c0.4,0.84,0.87,1.33,1.41,1.59
		c-1.82,9.34-6.42,17.23-10.45,25.8C126.64,284.26,125.32,291.29,125.02,298.4z M142.2,252.05c0.04,5.31,1.95,10.17,5.51,14.1
		c-1.29,2.14-2.46,4.38-3.51,6.69c-3.2-5.02-4.71-10.66-4.38-16.66c0.37-1.31,0.7-2.65,0.97-4.03
		C141.24,252.21,141.71,252.16,142.2,252.05z M141.05,250.71c0.85-9.87,3.91-20.07,9.32-28.46c0.58-0.95,1.33-1.76,2.23-2.41
		c3.73-2.75,1.52,5.84,1.39,6.27c-0.65,2.06-1.36,4.1-1.99,6.18c-1.93,6.35-4.22,12.52-7.62,18.21c-0.13,0.04-0.26,0.07-0.39,0.11
		C142.76,250.93,141.82,250.95,141.05,250.71z M143.88,273.54c-3.44,7.84-5.45,16.5-5.83,25.09c-1.22,4.46-3.16,9.84-3.99,14.25
		c-0.39,2.08-0.64,4.19-1.07,6.27c-0.03,0.13-0.06,0.25-0.09,0.38c-0.01,0.04-0.02,0.07-0.03,0.11c-0.03,0.09-0.06,0.18-0.09,0.27
		c-1.07,2.91-4.52,4.34-4.95-0.33c-1.07-11.41-0.28-24.74,0.52-36.06c0.87-2.78,1.95-5.53,3.29-8.26c2.8-5.7,5.6-11.06,7.52-16.88
		C139.26,263.81,140.86,268.95,143.88,273.54z M135.22,362.95c0,2.43-1.19,3.44-1.87,3.82c-0.58-1.53-2.26-6.1-3.58-9.84l5.46,5.58
		C135.23,362.66,135.22,362.85,135.22,362.95z M137.66,363.44l-8.72-8.92c-0.39-1.16-0.69-2.08-0.81-2.58
		c-0.28-1.09-0.51-2.3-0.72-3.61c1.07,1.98,2.63,4.26,4.24,5.96c3.17,3.33,6.53,6.18,7.08,6.64
		C138.44,361.98,137.98,362.89,137.66,363.44z M141.89,323.01c2.32,3.68,2.95,7.24,3.25,12.57l0.08,1.44
		c0.02,2.56-0.08,5.34-0.29,7.43c-0.17,1.71-1.55,2.71-2.87,0.62c-0.89-1.4-1.15-3.35-1.4-5.22c-0.32-2.39-0.63-4.64-2.22-5.66
		c-0.24-0.15-0.5-0.22-0.77-0.21c0.97-1.3,1.9-2.39,2.28-2.92c-1.85,0.66-5.93,3.97-6.1,7.53c-0.23,1.21-0.22,2.63,0.12,4.2
		c-0.01,0.06,0,0.13,0.02,0.21c0.7,2.61,0.87,5.12,0.88,5.15c0.22,0.84,3.81,4.04,4.67,5.35c1.68,2.56,0.24,5.26-0.46,6.3
		c-1.07-0.92-3.92-3.41-6.62-6.25c-2.72-2.86-5.14-7.43-5.49-8.96c-0.63-6.57-0.65-15.28-0.27-26.19
		c0.21-5.96-0.36-11.11-1.04-15.87c-0.03-5.21,0.49-10.24,1.65-15.16c-0.46,7.43-0.67,14.85-0.47,22.3
		c0.04,1.51-0.47,13.51,1.77,14.23c2.31,0.74,4.27-1.57,4.85-3.31c0.96-2.88,1.04-6.24,1.61-9.22c0.57-3.04,1.88-6.75,2.93-10.11
		c-0.04,6.66,0.9,13.22,2.93,19.27C141.12,321.45,141.44,322.29,141.89,323.01z M153.02,272.4c-0.19,4.58-3.25,12.68-6.21,20.52
		c-2.64,7-5.06,13.62-5.66,17.73c-0.32,2.21-0.54,4.28-0.57,6.13c-4.6-18.58-0.2-40.83,11.54-55.84
		C152.48,262.12,153.3,265.68,153.02,272.4z M154.84,254.18c-0.51,3.24-2.75,5.68-2.77,5.71c0,0-2.84,3.79-4,5.67
		c-3.42-3.83-5.22-8.54-5.22-13.69c1.07-0.34,2.21-0.9,3.33-1.22c4.52-1.29,7.22-3.73,9.18-6.92c-0.1,0.51-0.15,0.84-0.17,0.93
		C155.2,244.72,155.37,250.82,154.84,254.18z M160.06,228.99c-2.07,3.41-3.48,9.06-4.25,12.61c-1.8,3.61-4.27,6.61-8.88,8.15
		c-0.54,0.18-1.1,0.34-1.65,0.5c3.98-6.93,6.11-14.42,8.66-22.04c0.33-0.99,3.64-9.73-0.39-9.29c-3.89,0.42-6.08,7.02-7.39,9.95
		c-3.09,6.89-5.05,14.07-5.73,21.58c-1.09-0.62-1.79-1.87-2.53-3.53c-1.63-3.66-3.23-8.67-4.39-12.86c0.23-3.76,0.9-13.5,1.9-18.36
		c1.25-6.05,3.58-11.83,3.6-11.89l0.2-0.29c5.41-5.46,10.92-9.34,18.72-12.11c1.52-0.54,3.06-1.15,4.47-1.91
		c0.75,3.92,3.02,15.66,4.94,24.57C166.42,216.73,162.84,224.4,160.06,228.99z M175.27,235.95c-0.53-1.53-1.21-3.32-1.91-5.15
		c-0.9-2.37-1.84-4.83-2.57-7.02c-0.96-2.88-3.06-12.93-4.81-21.65c4.09,4.72,15.47,2.59,20.34,1.01c0.87,2.99,2.22,5.94,3.97,8.93
		c4.85,8.3,10.62,16.61,16.64,24.1c0.37,0.46,0.71,0.78,1.03,0.99c-0.56,8.35-2.28,16.7-4.35,24.78c-0.88,3.43-1.95,6.82-2.89,10.24
		c-0.66,2.39-1.37,5.26-3.46,6.86c-3.07,2.35-4.49-2.11-4.9-4.47c-1.19-6.8-4.95-13.88-7.94-20.07
		C181.42,248.34,178.44,242.04,175.27,235.95z M176.33,239.91c1.02,2.31,2.03,4.63,3.23,7.01c2.72,5.37,5.62,10.52,7.95,16.09
		c2.11,5.05,3.62,9.8,4.62,15.17c0.11,0.57,0.25,1,0.46,1.33c-4.98-1.27-8.85-5.41-12.86-8.58c-1.62-1.28-2.64-3.01-3.26-4.94
		c0.02-0.09,0.03-0.18,0.03-0.25c0-0.16,0-0.67,0.01-1.44C176.57,259.09,176.72,243.89,176.33,239.91z M170.84,281.57
		c-0.54-4.35,2.5-9.72,4.31-12.93c0.5-0.88,0.84-1.5,1.06-1.97c0.51,1.32,1.2,2.58,2.13,3.79c2.19,2.83,6.04,5.32,8.96,7.37
		c1.06,0.74,2.1,1.32,3.18,1.75c-5.47,4.15-13.17,5.44-17.86,10.25l0.04-0.12l-0.11-0.21C172.54,289.48,171.59,287.67,170.84,281.57
		z M172.05,291.74c7.74-5.67,15.93-8.71,23.21,0.03c3.2,3.84,6.31,7.74,9.01,11.9c-2.9-2.58-7-3.37-12.88-0.89
		c-3.67,1.54-7.15,3.76-10.64,5.66c-0.91,0.49-5.88,2.26-5.91,4.18c-2.48,1.55-4.67,3.46-6.56,5.7c0.04-0.71,0.05-1.38,0.01-1.99
		C167.71,307.68,170.76,296.13,172.05,291.74z M159.12,366.7c0.97-13.11,3.84-24.5,6.14-33.66c1.37-5.45,2.53-10.03,2.91-13.58
		c1.9-2.43,4.16-4.49,6.74-6.14c0.65,3.66,2.88,6.61,3.27,10.54c0.55,5.65-1.68,11.41-3.48,16.66c-0.52,1.53-2.66,6.7-2.85,10.51
		l-0.03,0.03c-7.05,16.34-9.2,33.58-11.64,50.96C159.1,389.87,158.39,376.64,159.12,366.7z M160.44,404.84
		c2.54-17.8,4.48-35.51,11.46-52.27c0.17,1.25,0.68,2.21,1.74,2.61c2.11,0.8,4.1,0.45,6.21-0.22c1.83-0.58,3.64-1.2,5.46-1.82
		c1.11,5.1,0.39,11.03,0.03,15.91c-0.67,8.97-2.11,17.9-3.87,26.71c-2.97,14.84-9.03,28.84-15.13,42.73
		c-0.7,1.51-1.38,3.06-2.03,4.64c-0.23,0.52-0.46,1.04-0.68,1.56c-0.03-0.19-0.05-0.37-0.06-0.54c-0.2-2.84,0-4.35,0.18-5.69
		c0.14-1.03,0.27-2,0.19-3.38c-0.03-0.56-0.25-2.28-0.59-4.89C162.63,424.79,161.43,415.35,160.44,404.84z M177.75,411.25
		c-0.08,10.3,5.49,20.75,8.81,29.21c-3.35,4.79-5.95,9.89-7.92,15.23c-0.18-8.62-3.32-16.73-9.06-23.32
		C172.54,425.4,175.36,418.4,177.75,411.25z M160.91,455.38c0.02-0.06,0.05-0.11,0.07-0.17c1.38-4.13,3.97-11.3,5.75-16.17
		c0.86-2,1.72-4.01,2.58-6.01c5.92,6.91,8.93,15.46,8.68,24.52c-2.47,7.32-3.82,15.08-4.31,23.17c-0.34,5.71-0.47,11.45-0.48,17.19
		c-2.95,3.83-9.52,2.6-10.36-2.93c0-0.03-0.02-0.05-0.03-0.07C160.73,481.75,159.21,468.58,160.91,455.38z M162.01,536.89
		c1.7-6.44,0.93-13.36,0.18-20.06l-0.1-0.87c-0.58-3.7-1.28-7.46-1.96-11.09c-3.06-16.44-5.95-32.01-0.14-47.24
		c-1.25,12.48,0.25,24.95,2.23,37.39c-0.01,0.04-0.01,0.08-0.01,0.12c0.03,0.22,0.08,0.43,0.13,0.64
		c1.77,11.03,3.87,22.05,4.73,33.05c-1.22,4.27-3.28,8.13-6.14,11.48C161.28,539.38,161.65,538.25,162.01,536.89z M180.62,542.27
		c-0.02,0.94-0.51,1.92-1.03,2.95c-0.26,0.52-0.53,1.06-0.74,1.6c-1.92-8.21-1.72-16.64,0.57-24.71
		C178.53,528.68,178.72,535.39,180.62,542.27z M180.13,517.9c-3.75,9.93-4.41,20.56-1.68,30.79c0,0.02,0,0.03,0,0.05l0.03,0.17
		c0.11,0.34,0.23,0.7,0.34,1.07c0.11,0.38,0.23,0.76,0.35,1.14c0.58,1.95,1.15,4.07,1.66,6.01c0.23,0.86,0.45,1.68,0.65,2.43
		c0.04,0.15,3.9,14.71-1.14,17.86c-5.11,3.19-13.23,2.42-15.45,1.59c-0.95-0.36-2.73-1.58-4.45-2.76c-2.14-1.47-4.35-2.99-5.67-3.38
		c-5.41-1.59-11.25-3.78-12.09-5.08c-1.08-1.68-0.88-2.96-0.88-3.01l0.09-0.53l-0.52-0.11c-0.03-0.01-2.8-0.61-2.8-2.02
		c0-1.74,0.43-2.2,0.64-2.42c0.3-0.32,1.73-1.04,3.79-0.8l-2.52,1.57c0,0,1.36,0.67,4.01-1.06c3.2-2.1,6.23-3.17,8.22-4.3
		c2.96-1.68,4.52-4.26,5.18-5.6c0.46,1.23,1.07,2.32,1.5,3.08c0.16,0.27,0.31,0.54,0.45,0.8c0,0-2.34-6.45-1.07-8.75
		c0.07-0.13,0.16-0.27,0.27-0.45c0.29-0.47,0.68-1.12,1.13-2.07c3.19-3.32,5.55-7.21,7.03-11.53c0.67,10.08,0.22,20.13-2.56,30.17
		c-0.11,0.41,1.88-4.87,2.3-7.39c3.08-18.4-0.61-36.84-3.63-55.34c2.25,3.28,7.11,3.61,9.89,0.8c0,5.57,0.1,11.14,0.2,16.69
		c0.04,2.25,0.15,4.44,0.33,6.6c0,0,0.34-5.71,0.29-8.69c-0.05-2.85-0.08-5.7-0.09-8.54c2.07,3.04,6.51,3.89,9.46,1.39
		C182.05,510.11,180.92,513.98,180.13,517.9z M191.88,461.3c1.26,4.25,2.45,8.26,2.9,12.26c0,2.82-0.97,5.73-1.91,8.54
		c-0.48,1.44-0.98,2.93-1.31,4.31l-0.92,2.1c-2.34,5.33-4.7,10.72-6.69,16.18c-2.78,3.77-8.34,2.85-10.02-1.06
		c-0.01-7.07,0.08-14.14,0.33-21.2c0.29-8.54,1.62-16.79,4.26-24.56c0.05-0.1,0.09-0.2,0.13-0.29c0-0.03,0-0.06,0-0.08
		c1.98-5.75,4.68-11.22,8.21-16.32c0.51,1.33,0.95,2.6,1.3,3.81C188.42,450.83,190.3,455.98,191.88,461.3z M189.86,449.83
		c-0.98-3.74-1.75-6.74-1.75-6.74c0,0.03,0,0.07,0,0.1c-0.02-0.12-0.05-0.22-0.07-0.3c-3.87-11.88-10.91-21.91-9.65-33.57
		c1.79-5.56,3.31-11.21,4.41-17.01c1.61-8.48,2.79-17.07,3.36-25.68c0.28-4.27,0.69-9.26-0.25-13.69c3.1-1.08,6.19-2.17,9.32-3.16
		c0.97-0.31,1.94-0.64,2.89-1c-3.95,11.39-3.56,22.93-1.79,34.48c-7.07,18.61,2.16,39.62-2.15,58.84
		C192.89,444.73,191.41,447.4,189.86,449.83z M200.41,411.44c-0.67,7.96-1.3,15.48-1.99,19.23c-0.44,2.39-1.6,5.66-3.17,9.15
		c2.96-18.18-4.81-37.76,1.28-55.27c1.18,7.24,2.86,14.49,4.32,21.7C200.7,408,200.56,409.75,200.41,411.44z M210.14,351.9
		c-0.33,2.6-1.36,6.98-2.55,12.05c-1.75,7.48-3.94,16.8-5,25.07c-0.58,4.51-1.09,9.78-1.55,15c-3.86-18.52-8.68-37.23-2.14-55.55
		c4.1-1.62,7.85-3.82,10.36-7.68c0.18-0.28,0.34-0.57,0.5-0.87C210.1,341.9,210.77,346.96,210.14,351.9z M209.78,337.92
		c-1.47,6.56-9.12,9.41-14.73,11.22c-5.46,1.73-10.83,3.75-16.29,5.48c-10.55,3.33-3.67-13.2-2.18-17.65
		c1.54-4.6,2.96-9.99,2.06-14.88c-0.43-2.33-1.1-4.34-2.2-6.43c-2.43-4.61,5.64-7.22,8.23-8.62c6.14-3.33,13.91-8.46,20.11-2.56
		c1.35,2.13,2.58,4.33,3.66,6.62c0.7,2.4,1.08,4.94,1.44,7.17C210.93,324.73,211.21,331.51,209.78,337.92z M211.67,329.06
		c-0.07-3.18-0.46-6.3-0.83-8.78c-0.78-5.22-2.06-10.59-4.56-14.29c-3.72-7.19-7.83-11.82-12.81-17.27
		c-5.95-6.51-14.12-2.84-20.27,1.39c4.73-4.78,12.65-6.06,18.02-10.27c0.96,0.32,1.96,0.52,3.05,0.63c0.13,0.02,0.25,0.05,0.39,0.06
		c0.3,0.04,0.59,0.03,0.87,0c-1.49,1.86-1.64,4.36-1.16,6.39c0.64,2.69,6.38,10.29,16.69,21.23c0.28,0.29,0.77,0.34,1.05,0.06
		c10.69-10.76,15.94-18.81,16.59-21.51c0.48-1.98,0.42-4.36-0.96-6.17c0.3,0.03,0.62,0.03,0.95,0c0.14-0.02,0.27-0.04,0.39-0.06
		c1.09-0.1,2.09-0.31,3.04-0.63c5.38,4.22,13.32,5.49,18.05,10.29c-6.16-4.24-14.34-7.93-20.3-1.41
		c-4.98,5.45-9.09,10.08-12.81,17.27c-2.51,3.7-3.79,9.07-4.57,14.29C212.13,322.76,211.74,325.89,211.67,329.06z M246.82,264.3
		c0.01,0.77,0.01,1.27,0.01,1.44c0,0.08,0.01,0.16,0.03,0.25c-0.62,1.92-1.64,3.65-3.26,4.94c-4,3.17-7.87,7.31-12.86,8.58
		c0.21-0.33,0.35-0.76,0.46-1.33c0.99-5.36,2.51-10.11,4.62-15.17c2.33-5.58,5.23-10.72,7.95-16.09c1.19-2.34,2.2-4.69,3.23-7.03
		C246.62,243.84,246.77,259.08,246.82,264.3z M213.46,318.27c0.36-2.23,0.74-4.77,1.44-7.17c1.08-2.29,2.31-4.49,3.66-6.62
		c6.19-5.9,13.96-0.78,20.11,2.55c2.59,1.4,10.66,4.02,8.23,8.62c-1.1,2.08-1.77,4.09-2.2,6.43c-0.9,4.89,0.52,10.28,2.06,14.88
		c1.49,4.45,8.37,20.99-2.18,17.65c-5.46-1.73-10.82-3.75-16.29-5.48c-5.61-1.81-13.26-4.66-14.73-11.22
		C212.13,331.51,212.41,324.73,213.46,318.27z M220.74,389.02c-1.06-8.28-3.25-17.59-5-25.07c-1.19-5.07-2.22-9.45-2.55-12.05
		c-0.63-4.94,0.05-9.99,0.38-11.98c0.16,0.3,0.32,0.59,0.5,0.87c2.51,3.87,6.26,6.06,10.36,7.68c6.55,18.32,1.72,37.04-2.14,55.55
		C221.83,398.81,221.32,393.54,220.74,389.02z M224.92,430.66c-0.69-3.75-1.32-11.27-1.99-19.23c-0.14-1.69-0.29-3.43-0.44-5.2
		c1.46-7.21,3.14-14.46,4.32-21.7c6.09,17.5-1.68,37.08,1.28,55.26C226.51,436.32,225.36,433.05,224.92,430.66z M229.15,442.09
		c-4.3-19.22,4.92-40.22-2.15-58.84c1.78-11.54,2.16-23.08-1.79-34.48c0.95,0.36,1.92,0.69,2.89,1c3.13,0.99,6.22,2.08,9.32,3.16
		c-0.95,4.43-0.54,9.42-0.25,13.69c0.57,8.61,1.75,17.2,3.36,25.68c1.1,5.8,2.61,11.45,4.41,17.01c1.26,11.67-5.84,21.79-9.72,33.67
		c-0.03,0.08-0.81,3.13-1.78,6.83C231.91,447.38,230.44,444.72,229.15,442.09z M245.59,411.25c2.43,7.27,5.31,14.39,8.31,21.48
		c-5.45,5.81-9.04,15.45-8.95,23.68c-2-5.61-4.68-10.95-8.18-15.95C240.1,432,245.67,421.55,245.59,411.25z M239.37,504.68
		c-1.99-5.46-4.35-10.84-6.68-16.16l-0.92-2.1c-0.34-1.39-0.83-2.87-1.31-4.31c-0.94-2.82-1.91-5.73-1.91-8.54
		c0.45-3.99,1.64-8.01,2.9-12.26c1.6-5.4,3.76-10.76,3.99-16.71c0-0.79,0.58-2.17,1.05-3.41c8.36,12.1,12.08,26.25,12.6,41.26
		c0.24,7.06,0.34,14.13,0.33,21.2C247.73,507.56,242.15,508.48,239.37,504.68z M243.74,545.22c-0.52-1.04-1.01-2.02-1.03-2.96
		c1.9-6.88,2.08-13.59,1.2-20.16c2.29,8.07,2.48,16.5,0.57,24.71C244.27,546.28,244,545.74,243.74,545.22z M264.3,544.19
		c0.11,0.17,0.2,0.32,0.26,0.45c1.27,2.3-1.07,8.75-1.07,8.75c0.14-0.26,0.29-0.53,0.45-0.8c0.43-0.76,1.04-1.85,1.5-3.08
		c0.66,1.34,2.22,3.92,5.18,5.6c1.99,1.13,5.02,2.2,8.22,4.3c2.65,1.73,4.01,1.06,4.01,1.06l-2.52-1.57
		c2.06-0.24,3.49,0.48,3.79,0.8c0.21,0.22,0.64,0.68,0.64,2.42c0,1.41-2.77,2.01-2.8,2.02l-0.52,0.11l0.09,0.53
		c0.01,0.05,0.2,1.33-0.88,3.01c-0.84,1.3-6.67,3.49-12.09,5.08c-1.32,0.39-3.53,1.91-5.67,3.38c-1.72,1.18-3.5,2.41-4.45,2.76
		c-2.22,0.83-10.34,1.61-15.45-1.59c-5.05-3.15-1.18-17.72-1.14-17.86c0.2-0.74,0.42-1.56,0.65-2.43c0.52-1.94,1.08-4.06,1.66-6.01
		c0.12-0.38,0.23-0.76,0.35-1.14c0.11-0.37,0.23-0.72,0.34-1.07l0.03-0.17c0-0.02,0-0.03,0-0.05c2.73-10.23,2.07-20.86-1.68-30.79
		c-0.79-3.92-1.93-7.79-3.26-11.63c2.95,2.52,7.41,1.67,9.48-1.38c-0.01,2.85-0.04,5.7-0.09,8.54c-0.05,2.98,0.29,8.69,0.29,8.69
		c0.18-2.15,0.29-4.34,0.33-6.6c0.1-5.55,0.2-11.12,0.2-16.69c2.78,2.81,7.63,2.49,9.88-0.79c-3.02,18.49-6.72,36.93-3.63,55.33
		c0.42,2.52,2.42,7.8,2.3,7.39c-2.78-10.04-3.22-20.09-2.56-30.17c1.48,4.32,3.84,8.21,7.03,11.53
		C263.62,543.07,264.01,543.72,264.3,544.19z M263.2,504.87c-0.68,3.63-1.37,7.39-1.96,11.09l-0.1,0.87
		c-0.75,6.69-1.52,13.62,0.18,20.06c0.36,1.36,0.73,2.49,1.08,3.43c-2.86-3.35-4.92-7.21-6.14-11.48
		c0.86-10.96,2.95-21.94,4.72-32.94c0.06-0.24,0.12-0.48,0.15-0.74c0.01-0.06,0-0.11-0.01-0.15c1.97-12.44,3.47-24.89,2.22-37.36
		C269.15,472.86,266.25,488.44,263.2,504.87z M262.35,455.21c0.03,0.06,0.05,0.11,0.07,0.17c1.7,13.2,0.18,26.38-1.9,39.54
		c-0.01,0.02-0.02,0.03-0.02,0.06c-0.85,5.53-7.41,6.76-10.36,2.93c-0.01-5.74-0.13-11.48-0.48-17.19
		c-0.47-7.81-1.74-15.31-4.06-22.4l0.01,0c-0.73-8.37,2.85-18.81,8.54-25.01c0.79,1.87,1.59,3.73,2.4,5.59
		C258.33,443.77,260.96,451.04,262.35,455.21z M260.01,430.2c-0.33,2.61-0.55,4.33-0.59,4.89c-0.08,1.38,0.05,2.35,0.19,3.38
		c0.18,1.33,0.38,2.85,0.18,5.69c-0.01,0.17-0.04,0.35-0.06,0.54c-0.3-0.68-0.59-1.36-0.89-2.04c-0.54-1.29-1.1-2.57-1.67-3.82
		c-6.15-14-12.29-28.12-15.28-43.08c-1.76-8.81-3.2-17.74-3.87-26.71c-0.37-4.89-1.08-10.81,0.03-15.91
		c1.81,0.63,3.63,1.25,5.46,1.82c2.11,0.67,4.1,1.02,6.21,0.22c1.06-0.4,1.57-1.36,1.74-2.61c6.98,16.76,8.92,34.47,11.46,52.27
		C261.91,415.35,260.71,424.79,260.01,430.2z M258.08,333.04c2.31,9.15,5.17,20.55,6.14,33.66c0.73,9.94,0.02,23.17-1.06,35.33
		c-2.44-17.38-4.58-34.63-11.64-50.96l-0.03-0.03c-0.18-3.81-2.33-8.98-2.85-10.51c-1.79-5.25-4.03-11.01-3.47-16.66
		c0.38-3.94,2.62-6.88,3.27-10.54c2.58,1.65,4.83,3.71,6.74,6.14C255.55,323.01,256.71,327.6,258.08,333.04z M255.07,316.33
		c-0.04,0.61-0.03,1.28,0.01,1.99c-1.89-2.25-4.08-4.16-6.56-5.7c-0.04-1.92-5.01-3.69-5.92-4.18c-3.5-1.9-6.97-4.11-10.64-5.66
		c-5.89-2.48-9.98-1.69-12.88,0.89c2.7-4.16,5.81-8.06,9.01-11.9c7.28-8.74,15.47-5.7,23.21-0.03
		C252.58,296.13,255.63,307.68,255.07,316.33z M248.19,268.64c1.81,3.21,4.85,8.58,4.31,12.93c-0.75,6.1-1.7,7.91-1.71,7.93
		l-0.11,0.21l0.04,0.12c-4.69-4.81-12.39-6.1-17.86-10.25c1.08-0.43,2.12-1.01,3.18-1.75c2.92-2.05,6.76-4.54,8.96-7.37
		c0.93-1.2,1.63-2.47,2.13-3.79C247.34,267.14,247.69,267.76,248.19,268.64z M252.55,223.77c-0.73,2.2-1.67,4.65-2.57,7.02
		c-0.7,1.84-1.38,3.62-1.91,5.15c-3.17,6.1-6.14,12.39-9.12,18.54c-2.99,6.18-6.75,13.27-7.94,20.07c-0.41,2.36-1.83,6.82-4.9,4.47
		c-2.09-1.6-2.81-4.47-3.46-6.86c-0.94-3.42-2.01-6.8-2.89-10.24c-2.06-8.08-3.79-16.43-4.35-24.78c0.32-0.21,0.66-0.53,1.03-0.99
		c6.02-7.5,11.79-15.81,16.64-24.1c1.75-2.99,3.09-5.93,3.96-8.92c4.89,1.59,16.29,3.71,20.35-1.06
		C255.62,210.8,253.52,220.88,252.55,223.77z M263.14,228.91c-2.75-4.37-6.23-12.07-7.14-14.79c1.92-8.91,4.2-20.67,4.95-24.61
		c1.41,0.76,2.93,1.36,4.45,1.9c7.8,2.77,13.46,6.68,18.87,12.14l-0.02,0.06l0.08,0.19c0.02,0.06,2.36,5.84,3.6,11.89
		c1,4.86,1.67,14.6,1.9,18.36c-1.16,4.19-2.76,9.19-4.39,12.86c-0.74,1.66-1.44,2.91-2.53,3.53c-0.68-7.52-2.64-14.7-5.73-21.58
		c-1.31-2.93-3.5-9.52-7.39-9.95c-4.03-0.44-0.72,8.29-0.39,9.29c2.56,7.62,4.68,15.11,8.66,22.04c-0.55-0.15-1.11-0.31-1.65-0.5
		c-4.61-1.54-7.06-4.44-8.85-8.06C266.77,238.15,265.26,232.29,263.14,228.91z M291.68,275.24c1.34,2.73,2.42,5.48,3.29,8.26
		c0.8,11.33,1.6,24.65,0.52,36.06c-0.44,4.68-3.88,3.24-4.95,0.33c-0.03-0.09-0.06-0.18-0.09-0.27c-0.01-0.04-0.02-0.07-0.03-0.11
		c-0.04-0.12-0.07-0.25-0.09-0.38c-0.42-2.07-0.68-4.19-1.07-6.27c-0.83-4.4-2.77-9.79-3.99-14.25c-0.38-8.6-2.39-17.26-5.83-25.09
		c3.82-5.62,4.69-11.56,4.85-14.85C286.2,264.38,288.94,269.65,291.68,275.24z M283.52,256.22c0.03,0.34,0.67,8.67-4.47,16.52
		c-1.04-2.28-2.17-4.49-3.45-6.6c3.56-3.92,5.47-8.79,5.51-14.1c0.49,0.11,0.96,0.16,1.41,0.09
		C282.8,253.54,283.14,254.89,283.52,256.22z M279.34,250.6c-0.13-0.04-0.26-0.07-0.39-0.11c-3.4-5.68-5.69-11.86-7.62-18.21
		c-0.63-2.07-1.34-4.12-1.99-6.18c-0.14-0.43-2.34-9.02,1.39-6.27c0.9,0.65,1.64,1.46,2.23,2.41c5.41,8.39,8.47,18.6,9.32,28.46
		C281.5,250.95,280.56,250.93,279.34,250.6z M268.48,254.18c-0.53-3.36-0.36-9.46-0.36-9.52c-0.01-0.09-0.07-0.42-0.17-0.93
		c1.96,3.18,4.65,5.62,9.18,6.92c1.12,0.32,2.26,0.87,3.33,1.22c0,5.15-1.8,9.86-5.22,13.69c-1.17-1.88-2.88-4.34-4-5.67
		C271.22,259.86,268.99,257.41,268.48,254.18z M276.52,292.91c-2.96-7.84-6.02-15.94-6.21-20.52c-0.28-6.72,0.54-10.28,0.89-11.47
		c11.75,15.01,16.15,37.27,11.54,55.84c-0.02-1.85-0.25-3.91-0.57-6.13C281.58,306.53,279.16,299.91,276.52,292.91z M289.97,366.76
		c-0.68-0.38-1.87-1.39-1.87-3.82c0-0.1-0.01-0.29-0.01-0.44l5.46-5.58C292.23,360.66,290.55,365.23,289.97,366.76z M295.19,351.94
		c-0.13,0.5-0.42,1.42-0.81,2.58l-8.72,8.92c-0.32-0.55-0.78-1.46-1.06-2.52c0.55-0.46,3.91-3.31,7.08-6.64
		c1.61-1.69,3.17-3.98,4.24-5.96C295.7,349.64,295.47,350.85,295.19,351.94z M296.64,318.38c0.38,10.92,0.36,19.63-0.27,26.19
		c-0.35,1.53-2.77,6.09-5.49,8.96c-2.7,2.84-5.55,5.33-6.62,6.25c-0.7-1.04-2.14-3.74-0.46-6.3c0.86-1.31,4.45-4.51,4.67-5.35
		c0.01-0.03,0.18-2.54,0.88-5.15c0.02-0.08,0.02-0.14,0.02-0.21c0.34-1.58,0.35-2.99,0.12-4.2c-0.18-3.56-4.25-6.87-6.1-7.53
		c0.39,0.53,1.31,1.62,2.28,2.92c-0.27-0.01-0.53,0.06-0.77,0.21c-1.59,1.02-1.9,3.28-2.22,5.66c-0.25,1.88-0.51,3.82-1.4,5.22
		c-1.32,2.09-2.7,1.09-2.87-0.62c-0.21-2.09-0.31-4.88-0.29-7.43l0.08-1.44c0.29-5.34,0.93-8.89,3.25-12.57
		c0.45-0.72,0.77-1.55,0.98-2.49c2.02-6.06,2.97-12.62,2.93-19.27c1.06,3.36,2.36,7.07,2.93,10.11c0.56,2.98,0.64,6.34,1.61,9.22
		c0.58,1.74,2.55,4.04,4.85,3.31c2.24-0.72,1.73-12.72,1.77-14.23c0.2-7.44,0-14.87-0.47-22.3c1.17,4.91,1.68,9.95,1.65,15.16
		C297,307.27,296.43,312.42,296.64,318.38z M300.35,278.07c0,0.2,0,0.4,0,0.61c0,0.13-0.01,0.26-0.01,0.39c0,0.2-0.01,0.39-0.02,0.6
		c-0.01,0.15-0.01,0.29-0.02,0.44c-0.01,0.27-0.02,0.54-0.04,0.81c-0.26,4.23-0.73,8.15-1.24,12.29c-0.21,1.71-0.46,3.43-0.73,5.18
		c-0.3-7.11-1.61-14.14-4.68-20.66c-4.03-8.57-8.63-16.46-10.45-25.8c0.54-0.26,1.02-0.75,1.41-1.59c0.32-0.69,0.65-1.41,0.97-2.15
		c1.65,6.44,7.84,10.25,11.75,15.49c0.28,0.44,2.82,4.72,3.04,13.12c0,0.08,0,0.17,0,0.25c0.01,0.22,0.01,0.44,0.01,0.67
		C300.35,277.84,300.35,277.96,300.35,278.07z"/>
</g>
</svg>
