<?xml version="1.0" encoding="utf-8"?>
<!-- Generator: Adobe Illustrator 26.0.1, SVG Export Plug-In . SVG Version: 6.00 Build 0)  -->
<svg version="1.1" id="Layer_1" xmlns="http://www.w3.org/2000/svg" xmlns:xlink="http://www.w3.org/1999/xlink" x="0px" y="0px"
	 viewBox="0 0 432 648" style="enable-background:new 0 0 432 648;" xml:space="preserve">
<style type="text/css">
	.st0{display:none;opacity:0.5;fill:none;stroke:#231F20;stroke-width:0.05;stroke-miterlimit:10;}
	.st1{fill:#FFFFFF;}
	.st2{fill:#E92A2A;}
	.st3{fill:#D52626;}
	.st4{fill:#9A1A1C;}
	.st5{fill:#8D1819;}
</style>
<path class="st0" d="M418.44,444.92c-2.94,1.51-8.31,5.17-9.04,17.27"/>
<g>
	<g id="White_00000116930100486557453460000008776676268060087208_">
		<path class="st1" d="M299.92,262.29v-8.74c0-8.52-6.38-17.81-7.28-19.08c-0.09-1.63-0.79-14.04-2-19.9
			c-1.14-5.53-3.17-10.83-3.59-11.89c0.32-0.94,1.7-5.14,2.5-10.26c0.92-5.89-3.08-20.34-5.48-26.44c-1.59-4.05-4.92-5.58-7.59-6.81
			c-1.45-0.67-2.69-1.24-3.4-2.06c-1.8-2.1-3.6-2.68-5.18-3.19c-0.42-0.13-0.82-0.26-1.21-0.42c-0.61-0.24-1.15-0.73-1.96-1.47
			c-1.39-1.26-3.48-3.16-7.96-5.76c-2.59-1.5-6.43-3.26-10.5-5.12c-6.09-2.79-12.99-5.95-14.6-7.94c-0.66-0.81-1.6-3.53-2.47-6.38
			c0.49-0.97,1.85-3.66,1.97-4.07c0.52-1.82,0.58-4.3,0.56-5.8c0.3,0.14,0.67,0.22,1.11,0.17c1.5-0.18,2.9-2.51,4.57-5.54
			c0.47-0.85,0.91-1.65,1.26-2.14c1.45-2.07,1.14-6.56,0.07-9.92c-0.31-0.98-0.84-1.55-1.56-1.68c-1-0.18-2.09,0.58-2.87,1.3
			c0.15-4.19,0.09-15.97-4.74-21.78c-4.17-5-12.5-6.24-15.66-6.54l0-0.09c-0.06,0-0.28,0.01-0.62,0.04
			c-0.34-0.03-0.56-0.03-0.62-0.04l0,0.09c-3.16,0.3-11.49,1.54-15.65,6.54c-4.84,5.8-4.89,17.59-4.74,21.78
			c-0.78-0.72-1.88-1.48-2.88-1.3c-0.73,0.13-1.26,0.7-1.56,1.68c-1.06,3.36-1.38,7.85,0.07,9.92c0.34,0.49,0.78,1.29,1.26,2.14
			c1.68,3.03,3.08,5.36,4.57,5.54c0.44,0.05,0.81-0.03,1.11-0.17c-0.02,1.5,0.04,3.98,0.56,5.8c0.12,0.41,1.45,3.05,1.96,4.05
			c-0.87,2.86-1.82,5.59-2.48,6.41c-1.61,1.99-8.51,5.15-14.6,7.94c-4.07,1.86-7.91,3.62-10.5,5.12c-4.48,2.6-6.57,4.5-7.96,5.76
			c-0.82,0.74-1.35,1.23-1.96,1.47c-0.39,0.16-0.79,0.28-1.21,0.42c-1.58,0.51-3.38,1.08-5.18,3.19c-0.7,0.82-1.95,1.4-3.4,2.06
			c-2.67,1.23-6,2.76-7.59,6.81c-2.4,6.1-6.4,20.55-5.48,26.44c0.8,5.12,2.18,9.32,2.5,10.26c-0.42,1.06-2.45,6.36-3.59,11.89
			c-1.21,5.86-1.91,18.27-2,19.9c-0.9,1.27-7.28,10.55-7.28,19.08v8.74c-0.61,0.98-3.76,6.68-3.09,17.81
			c0.26,4.27,0.74,8.2,1.24,12.36c0.9,7.41,2.73,15.08,2.38,25c-0.53,15.13-0.4,28.08,1.47,33.84c0.81,2.48,5.2,14.93,5.4,15.45
			c0,0,0.18,0.57,0.73,0.4c0.03-0.01,2.8-0.8,3.1-4.43l1.15,1.18c0.2,0.21,0.54,0.18,0.71-0.05l0.05-0.08
			c0.09-0.12,1.38-1.96,1.77-4.25c0.82-1.25,2.47-4.45,0.47-7.5c-0.83-1.26-3.81-4.32-4.51-5.03c-0.05-0.63-0.25-2.6-0.79-4.73
			c-0.46-2.6-0.19-4.54,0.39-5.87c0.17-0.32,0.34-0.64,0.53-0.96c0.45-0.63,0.98-1.04,1.49-1.23c0.13-0.05,0.2-0.03,0.28,0.02
			c1.17,0.75,1.44,2.76,1.73,4.89c0.27,2,0.63,4.01,1.56,5.66c1.16,2.03,4.45,2.8,4.88-1.08c0.31-2.76,0.3-6.15,0.29-7.59
			l-0.08-1.46c-0.31-5.54-0.51-8.36-3.49-13.2c-1.3-2.12-1.32-3.3-0.5-11.54c0.4-4.01,2.97-10.55,5.59-17.49
			c2.99-7.92,6.09-16.11,6.29-20.86c0.31-7.36-0.66-11.02-1.01-12.08c0.62-0.75,2.35-3.05,2.82-6.02c0.55-3.46,0.38-9.47,0.36-9.62
			c0.02-0.1,1.83-10.48,4.83-15.24c2.21-3.51,5.19-9.75,6.65-13.46c0.81,3.69,1.53,6.67,2,8.07c0.74,2.22,1.68,4.69,2.59,7.07
			c1.3,3.4,2.53,6.62,2.84,8.3c0.31,1.65,0.39,10,0.25,24.83c-0.01,0.77-0.01,1.28-0.01,1.44c-0.03,0.28-0.66,1.39-1.21,2.37
			c-1.88,3.33-5.03,8.9-4.45,13.61c0.65,5.25,1.45,7.44,1.73,8.1c-0.6,1.89-4.98,16.25-4.31,26.61c0.24,3.61-1.18,9.25-2.98,16.38
			c-2.32,9.2-5.2,20.64-6.17,33.86c-1.44,19.54,2.67,51.65,4.21,63.73c0.33,2.59,0.55,4.3,0.58,4.82c0.08,1.28-0.04,2.16-0.18,3.18
			c-0.19,1.39-0.4,2.96-0.19,5.91c0.05,0.67,0.2,1.46,0.45,2.35c-1.09,2.82-2.08,5.63-2.95,8.23c-7.23,16.27-4.02,33.56-0.9,50.27
			c0.67,3.63,1.37,7.38,1.95,11.04l0.09,0.84c0.74,6.6,1.5,13.42-0.15,19.66c-0.83,3.16-1.71,5-2.35,6.15c0,0-0.01,0.01-0.01,0.01
			c-0.06,0.05-0.08,0.11-0.09,0.17c-0.15,0.26-0.29,0.49-0.41,0.68c-0.12,0.19-0.21,0.35-0.29,0.49c-0.66,1.19-0.67,2.55-0.38,3.87
			c-0.19,0.51-1.62,4.12-5.27,6.18c-3.43,1.94-6.48,3.23-7.58,3.77c-2.56-0.42-5.57,0.37-6.17,1.02c-0.46,0.49-0.93,1.25-0.93,3.16
			c0,1.85,2.22,2.69,3.21,2.97c0,0.66,0.16,1.88,1.06,3.28c1.29,2.01,9.31,4.54,12.7,5.54c1.16,0.34,3.39,1.88,5.36,3.23
			c1.85,1.28,3.61,2.48,4.68,2.88c1.1,0.41,3.41,0.81,6.13,0.81c3.33,0,7.26-0.6,10.29-2.49c5.73-3.58,1.79-18.45,1.62-19.08
			c-0.2-0.74-0.42-1.56-0.65-2.42c-0.71-2.69-1.52-5.72-2.34-8.2c0.03-0.94,0.52-1.91,1.03-2.94c0.56-1.13,1.15-2.29,1.15-3.51
			l-0.02-0.15c-5.18-18.64,2.51-36.17,9.95-53.11l0.95-2.19c0.36-1.43,0.85-2.9,1.32-4.32c0.97-2.9,1.97-5.9,1.96-8.95
			c-0.46-4.15-1.67-8.21-2.94-12.51c-0.76-2.55-1.78-6.31-2.68-9.73c4.43-6.74,8.32-15.31,9.25-20.42c0.7-3.8,1.3-11,2.01-19.34
			c0.62-7.36,1.32-15.71,2.18-22.37c1.06-8.23,3.23-17.51,4.98-24.97c1.2-5.1,2.23-9.51,2.57-12.17c0.75-5.88-0.34-12.78-0.59-14.22
			c0.68-2.11,0.98-4.51,1.03-6.95c0.06,2.44,0.35,4.84,1.03,6.95c-0.25,1.43-1.34,8.34-0.59,14.22c0.34,2.66,1.37,7.07,2.57,12.17
			c1.75,7.46,3.93,16.75,4.98,24.97c0.86,6.66,1.56,15.01,2.18,22.37c0.7,8.33,1.31,15.53,2.01,19.34
			c0.94,5.09,4.81,13.65,9.23,20.38c-0.94,3.57-1.99,7.45-2.67,9.76c-1.28,4.3-2.48,8.36-2.94,12.51c0,3.05,1,6.05,1.96,8.95
			c0.47,1.42,0.96,2.89,1.32,4.32l0.95,2.19c7.44,16.95,15.13,34.47,9.95,53.11l-0.02,0.15c0,1.22,0.58,2.39,1.15,3.51
			c0.52,1.03,1,2.01,1.03,2.94c-0.82,2.47-1.63,5.51-2.34,8.2c-0.23,0.86-0.45,1.68-0.65,2.42c-0.17,0.63-4.11,15.5,1.62,19.08
			c3.03,1.89,6.96,2.49,10.29,2.49c2.72,0,5.03-0.4,6.13-0.81c1.07-0.4,2.83-1.61,4.68-2.88c1.97-1.35,4.2-2.89,5.36-3.23
			c3.39-1,11.41-3.53,12.7-5.54c0.9-1.4,1.06-2.62,1.06-3.28c0.99-0.28,3.21-1.13,3.21-2.97c0-1.91-0.47-2.67-0.93-3.16
			c-0.61-0.65-3.61-1.44-6.17-1.02c-1.1-0.55-4.15-1.83-7.58-3.77c-3.64-2.06-5.07-5.67-5.27-6.18c0.28-1.31,0.27-2.68-0.38-3.87
			c-0.08-0.14-0.17-0.3-0.29-0.49c-0.12-0.19-0.25-0.42-0.41-0.68c-0.01-0.06-0.03-0.12-0.09-0.17c0,0-0.01-0.01-0.01-0.01
			c-0.64-1.15-1.52-3-2.35-6.15c-1.65-6.24-0.88-13.06-0.15-19.66l0.09-0.84c0.58-3.66,1.28-7.41,1.95-11.04
			c3.11-16.72,6.33-34-0.9-50.27c-0.86-2.6-1.86-5.4-2.94-8.21c0.25-0.9,0.41-1.7,0.46-2.37c0.21-2.95,0-4.53-0.18-5.91
			c-0.14-1.02-0.25-1.9-0.18-3.18c0.03-0.52,0.25-2.23,0.58-4.82c1.55-12.09,5.66-44.19,4.21-63.73
			c-0.97-13.21-3.86-24.66-6.17-33.86c-1.8-7.13-3.22-12.77-2.98-16.38c0.67-10.36-3.71-24.71-4.31-26.61
			c0.29-0.66,1.09-2.85,1.73-8.1c0.58-4.7-2.57-10.28-4.45-13.61c-0.55-0.98-1.18-2.09-1.21-2.37c0-0.15,0-0.67-0.01-1.44
			c-0.15-14.83-0.06-23.18,0.25-24.83c0.32-1.68,1.54-4.89,2.84-8.3c0.91-2.38,1.85-4.85,2.59-7.07c0.47-1.4,1.18-4.37,1.99-8.04
			c1.46,3.71,4.44,9.93,6.64,13.43c3,4.76,4.81,15.14,4.83,15.24c-0.01,0.15-0.18,6.16,0.36,9.62c0.47,2.98,2.2,5.28,2.82,6.02
			c-0.35,1.06-1.32,4.71-1.01,12.08c0.2,4.75,3.29,12.94,6.29,20.86c2.62,6.94,5.2,13.48,5.59,17.49c0.82,8.24,0.8,9.42-0.5,11.54
			c-2.98,4.84-3.18,7.66-3.49,13.2l-0.08,1.46c-0.01,1.44-0.02,4.84,0.29,7.59c0.43,3.88,3.73,3.11,4.88,1.08
			c0.94-1.65,1.29-3.67,1.56-5.66c0.29-2.13,0.56-4.14,1.73-4.89c0.08-0.05,0.15-0.07,0.28-0.02c0.51,0.19,1.04,0.59,1.49,1.23
			c0.19,0.32,0.37,0.64,0.53,0.96c0.58,1.33,0.85,3.27,0.39,5.87c-0.54,2.14-0.73,4.1-0.79,4.73c-0.7,0.71-3.68,3.77-4.51,5.03
			c-2,3.05-0.35,6.25,0.47,7.5c0.39,2.29,1.68,4.13,1.77,4.25l0.05,0.08c0.17,0.24,0.51,0.26,0.71,0.05l1.15-1.18
			c0.3,3.64,3.07,4.42,3.1,4.43c0.55,0.17,0.73-0.4,0.73-0.4c0.2-0.53,4.59-12.97,5.4-15.45c1.88-5.75,2.01-18.71,1.47-33.84
			c-0.35-9.92,1.48-17.59,2.38-25c0.51-4.16,0.98-8.09,1.24-12.36C303.68,268.97,300.52,263.27,299.92,262.29z"/>
	</g>
	<g id="Gluteus_medius_00000164483266437158420150000007764617854512399014_">
		<g>
			<path class="st2" d="M205.75,302.73c-2.9-2.58-7-3.35-12.88-0.88c-3.67,1.55-7.15,3.76-10.64,5.67
				c-0.91,0.49-5.92,2.25-5.94,4.19v0.01c-2.48,1.53-4.66,3.44-6.53,5.68c0.05-0.72,0.05-1.37,0.01-1.99
				c-0.56-8.62,2.48-20.15,3.76-24.57c7.74-5.69,15.94-8.74,23.23,0C199.95,294.68,203.06,298.57,205.75,302.73"/>
			<path class="st3" d="M178.83,309.12c2.33-7.24,5.97-14.08,10.84-20.36c0.22-0.01,0.43-0.01,0.65-0.01c0.07,0,0.14,0,0.2,0
				c-4.83,6.13-8.46,12.82-10.83,19.92C179.41,308.81,179.12,308.96,178.83,309.12 M192.08,286.83c-0.2-0.11-0.4-0.22-0.61-0.31
				c0,0,0,0,0,0C191.68,286.61,191.88,286.72,192.08,286.83C192.08,286.83,192.08,286.83,192.08,286.83"/>
			<path class="st3" d="M184.13,306.45c1.65-6.81,5.4-12.67,10.89-16.99c0.23,0.08,0.46,0.16,0.69,0.24l0,0l0,0
				c-0.15-0.15-0.29-0.3-0.44-0.44c0,0,0,0,0.01,0c0.16,0.16,0.32,0.31,0.47,0.48c-5.36,4.12-9.09,9.72-10.82,16.26
				C184.67,306.14,184.4,306.3,184.13,306.45"/>
			<path class="st3" d="M188.84,303.8c1.98-4.64,5-8.55,8.99-11.65c0.14,0.17,0.28,0.34,0.42,0.52c-3.7,2.86-6.54,6.43-8.48,10.64
				C189.47,303.47,189.16,303.64,188.84,303.8"/>
			<path class="st3" d="M194.53,301.22c0.01-0.02,0.03-0.05,0.04-0.07c1.48-1.91,3.36-3.62,6.07-5.51c0.14,0.18,0.28,0.35,0.41,0.53
				c-2.32,1.62-4.03,3.1-5.39,4.71C195.29,300.98,194.92,301.09,194.53,301.22"/>
			<path class="st3" d="M173.48,313.71c1.75-8.71,5.26-16.67,10.45-23.74c0.37-0.15,0.75-0.28,1.14-0.41
				c-5.31,6.98-8.92,14.86-10.77,23.51C174.02,313.28,173.75,313.49,173.48,313.71 M188.42,285.53c-0.23-0.04-0.47-0.07-0.7-0.1
				C187.95,285.46,188.18,285.49,188.42,285.53C188.42,285.53,188.42,285.53,188.42,285.53"/>
			<path class="st3" d="M169.78,316.03c0-0.21-0.01-0.42-0.02-0.62c-0.05-0.77-0.07-1.57-0.07-2.38c1.14-5.3,2.75-10.38,4.82-15.21
				c0.53-0.78,1.11-1.53,1.74-2.25C173.26,301.95,171.1,308.79,169.78,316.03"/>
			<path class="st4" d="M169.98,308.09c0.29-2.83,0.78-5.69,1.32-8.29c0.78-3.78,1.67-7.04,2.23-8.96c2.22-1.63,4.48-3.04,6.74-4.02
				c-2.2,3.5-4.12,7.18-5.76,11.01c-0.56,0.82-1.08,1.67-1.54,2.54C171.66,302.83,170.73,305.43,169.98,308.09 M176.25,295.57
				c1.49-3.18,3.19-6.25,5.08-9.19c1.73-0.64,3.46-1.01,5.18-1.01c0.37,0,0.74,0.02,1.1,0.05c-1.31,1.47-2.54,2.99-3.68,4.54
				c-0.12,0.05-0.24,0.1-0.37,0.15C180.69,291.36,178.24,293.28,176.25,295.57 M185.07,289.56c1.05-1.38,2.17-2.73,3.35-4.03
				c1.03,0.17,2.05,0.5,3.06,0.99c-0.62,0.74-1.22,1.49-1.81,2.24C188.1,288.82,186.55,289.09,185.07,289.56 M195.02,289.46
				c-1.44-0.46-2.96-0.69-4.5-0.71c0.51-0.64,1.03-1.28,1.56-1.92c1.08,0.6,2.14,1.4,3.19,2.42
				C195.19,289.32,195.11,289.39,195.02,289.46"/>
			<path class="st5" d="M189.67,288.76c0.59-0.75,1.19-1.5,1.81-2.24c0.2,0.1,0.4,0.2,0.61,0.31c-0.53,0.63-1.05,1.27-1.56,1.92
				c-0.07,0-0.14,0-0.2,0C190.1,288.75,189.88,288.75,189.67,288.76"/>
			<path class="st5" d="M195.71,289.7c-0.23-0.09-0.46-0.17-0.69-0.24c0.08-0.07,0.17-0.13,0.25-0.2
				C195.42,289.4,195.57,289.55,195.71,289.7"/>
			<path class="st5" d="M183.93,289.97c1.15-1.56,2.37-3.07,3.68-4.54c0.03,0,0.07,0.01,0.1,0.01c0.23,0.03,0.47,0.06,0.7,0.1
				c-1.18,1.31-2.3,2.65-3.35,4.03C184.68,289.68,184.3,289.82,183.93,289.97"/>
			<path class="st5" d="M174.51,297.82c1.64-3.83,3.56-7.51,5.76-11.01c0.35-0.15,0.71-0.3,1.06-0.43c-1.9,2.94-3.59,6.01-5.08,9.19
				C175.62,296.29,175.04,297.04,174.51,297.82"/>
		</g>
		<g>
			<path class="st2" d="M220.58,302.73c2.9-2.58,7-3.35,12.88-0.88c3.67,1.55,7.15,3.76,10.64,5.67c0.91,0.49,5.92,2.25,5.94,4.19
				v0.01c2.48,1.53,4.66,3.44,6.53,5.68c-0.05-0.72-0.05-1.37-0.01-1.99c0.56-8.62-2.48-20.15-3.76-24.57
				c-7.74-5.69-15.94-8.74-23.23,0C226.38,294.68,223.27,298.57,220.58,302.73"/>
			<path class="st3" d="M247.51,309.12c-0.07-0.04-0.15-0.08-0.22-0.12c-0.21-0.12-0.43-0.23-0.64-0.33
				c-2.37-7.11-6-13.79-10.83-19.93c0.07,0,0.14,0,0.21,0c0.21,0,0.43,0,0.64,0.01C241.54,295.04,245.18,301.88,247.51,309.12
				 M234.26,286.84C234.26,286.83,234.26,286.83,234.26,286.84c0.2-0.12,0.4-0.22,0.6-0.32c0,0,0,0,0,0
				C234.66,286.62,234.46,286.72,234.26,286.84"/>
			<path class="st3" d="M242.2,306.45c-0.27-0.15-0.54-0.3-0.8-0.46c-1.72-6.54-5.45-12.14-10.82-16.26
				c0.16-0.16,0.32-0.32,0.48-0.48c0,0,0,0,0.01,0.01c-0.15,0.14-0.29,0.29-0.44,0.44c0.23-0.09,0.46-0.17,0.69-0.24
				C236.81,293.78,240.56,299.64,242.2,306.45"/>
			<path class="st3" d="M237.49,303.8c-0.31-0.17-0.62-0.33-0.94-0.49c-1.93-4.2-4.78-7.78-8.48-10.64
				c0.14-0.17,0.28-0.34,0.42-0.52C232.49,295.25,235.51,299.17,237.49,303.8"/>
			<path class="st3" d="M231.81,301.22c-0.38-0.13-0.76-0.24-1.12-0.34c-1.37-1.61-3.07-3.09-5.4-4.71
				c0.14-0.18,0.27-0.35,0.41-0.53c2.71,1.89,4.59,3.6,6.07,5.51C231.78,301.18,231.79,301.2,231.81,301.22"/>
			<path class="st3" d="M252.86,313.71c-0.27-0.22-0.54-0.43-0.82-0.64c-1.85-8.65-5.47-16.53-10.77-23.51
				c0.38,0.12,0.76,0.26,1.14,0.41C247.6,297.04,251.11,304.99,252.86,313.71 M237.92,285.53
				C237.92,285.53,237.92,285.53,237.92,285.53c0.26-0.05,0.53-0.08,0.8-0.11c0,0,0,0,0,0
				C238.45,285.45,238.19,285.49,237.92,285.53"/>
			<path class="st3" d="M256.54,315.98c-1.31-7.22-3.48-14.05-6.46-20.42c0.62,0.72,1.2,1.47,1.74,2.25
				c2.06,4.82,3.67,9.89,4.81,15.17c0,0.83-0.02,1.64-0.07,2.43C256.56,315.59,256.55,315.78,256.54,315.98"/>
			<path class="st4" d="M256.34,308.01c-0.74-2.63-1.67-5.2-2.97-7.64c-0.46-0.87-0.98-1.73-1.55-2.56
				c-1.63-3.83-3.55-7.49-5.75-10.99c2.26,0.98,4.52,2.4,6.74,4.02C253.74,294.07,255.62,301.09,256.34,308.01 M250.09,295.56
				c-1.99-2.29-4.43-4.21-7.31-5.44c-0.12-0.05-0.25-0.1-0.37-0.15c-1.15-1.56-2.37-3.07-3.68-4.54c0.16-0.02,0.32-0.03,0.48-0.04
				c0.2-0.01,0.41-0.02,0.61-0.02c1.72,0,3.46,0.37,5.19,1.02C246.9,289.32,248.6,292.38,250.09,295.56 M241.27,289.56
				c-1.48-0.47-3.03-0.74-4.59-0.8c-0.59-0.75-1.19-1.5-1.81-2.24c1.01-0.49,2.03-0.81,3.06-0.99
				C239.1,286.84,240.22,288.18,241.27,289.56 M231.32,289.46c-0.08-0.07-0.17-0.13-0.25-0.2c1.05-1.02,2.12-1.82,3.19-2.42
				c0.53,0.63,1.05,1.27,1.56,1.91C234.28,288.77,232.75,289,231.32,289.46"/>
			<path class="st5" d="M236.67,288.76c-0.21-0.01-0.43-0.01-0.64-0.01c-0.07,0-0.14,0-0.21,0c-0.51-0.64-1.03-1.28-1.56-1.91
				c0.2-0.11,0.4-0.22,0.6-0.32C235.48,287.26,236.09,288,236.67,288.76"/>
			<path class="st5" d="M230.63,289.7c0.15-0.15,0.29-0.3,0.44-0.44c0.08,0.07,0.17,0.13,0.25,0.2
				C231.09,289.53,230.86,289.61,230.63,289.7"/>
			<path class="st5" d="M242.4,289.97c-0.37-0.15-0.75-0.28-1.14-0.41c-1.05-1.38-2.16-2.72-3.35-4.03c0.27-0.05,0.53-0.08,0.8-0.11
				C240.03,286.89,241.26,288.41,242.4,289.97"/>
			<path class="st5" d="M251.82,297.81c-0.53-0.78-1.11-1.53-1.74-2.25c-1.49-3.18-3.18-6.24-5.08-9.17
				c0.35,0.13,0.71,0.27,1.06,0.43C248.27,290.31,250.19,293.98,251.82,297.81"/>
		</g>
	</g>
	<path d="M299.92,262.29v-8.74c0-8.52-6.38-17.81-7.28-19.08c-0.09-1.63-0.79-14.04-2-19.9c-1.14-5.53-3.17-10.83-3.58-11.89
		c0.32-0.94,1.7-5.14,2.5-10.26c0.92-5.89-3.08-20.34-5.48-26.44c-1.59-4.05-4.92-5.58-7.59-6.81c-1.45-0.67-2.69-1.24-3.4-2.06
		c-1.8-2.1-3.6-2.68-5.18-3.19c-0.42-0.13-0.82-0.26-1.21-0.42c-0.61-0.24-1.15-0.73-1.96-1.47c-1.39-1.26-3.48-3.16-7.96-5.76
		c-2.59-1.5-6.43-3.26-10.5-5.12c-6.09-2.79-12.99-5.95-14.6-7.94c-0.66-0.81-1.6-3.53-2.47-6.38c0.49-0.97,1.85-3.66,1.97-4.07
		c0.52-1.82,0.58-4.3,0.56-5.8c0.3,0.14,0.67,0.22,1.11,0.17c1.5-0.18,2.9-2.51,4.57-5.54c0.47-0.85,0.92-1.65,1.26-2.14
		c1.45-2.07,1.14-6.56,0.07-9.92c-0.31-0.98-0.84-1.55-1.56-1.68c-1-0.18-2.09,0.58-2.87,1.3c0.15-4.19,0.09-15.97-4.74-21.78
		c-4.17-5-12.5-6.24-15.66-6.54h-1.24c-3.16,0.3-11.49,1.54-15.65,6.54c-4.84,5.8-4.89,17.59-4.74,21.78
		c-0.78-0.72-1.88-1.48-2.88-1.3c-0.73,0.13-1.25,0.7-1.56,1.68c-1.06,3.36-1.38,7.85,0.07,9.92c0.34,0.49,0.78,1.29,1.26,2.14
		c1.68,3.03,3.08,5.36,4.57,5.54c0.44,0.05,0.81-0.03,1.11-0.17c-0.02,1.5,0.04,3.98,0.56,5.8c0.12,0.41,1.45,3.05,1.96,4.05
		c-0.87,2.86-1.82,5.59-2.48,6.41c-1.61,1.99-8.51,5.15-14.6,7.94c-4.07,1.86-7.91,3.62-10.5,5.12c-4.48,2.6-6.57,4.5-7.96,5.76
		c-0.82,0.74-1.35,1.23-1.96,1.47c-0.39,0.16-0.79,0.28-1.21,0.42c-1.58,0.51-3.38,1.08-5.18,3.19c-0.7,0.82-1.95,1.4-3.4,2.06
		c-2.67,1.23-6,2.76-7.59,6.81c-2.4,6.1-6.4,20.55-5.48,26.44c0.8,5.12,2.18,9.32,2.5,10.26c-0.42,1.06-2.45,6.36-3.59,11.89
		c-1.21,5.86-1.91,18.27-2,19.9c-0.9,1.27-7.28,10.55-7.28,19.08v8.74c-0.61,0.98-3.76,6.68-3.09,17.81
		c0.26,4.27,0.74,8.2,1.24,12.36c0.9,7.41,2.73,15.08,2.38,25c-0.53,15.13-0.4,28.08,1.47,33.84c0.81,2.48,5.2,14.92,5.4,15.45
		c0,0,0.18,0.57,0.73,0.4c0.03-0.01,2.8-0.8,3.1-4.43l1.15,1.18c0.2,0.21,0.54,0.18,0.71-0.05l0.05-0.08
		c0.09-0.12,1.38-1.96,1.77-4.25c0.82-1.25,2.47-4.45,0.47-7.5c-0.83-1.26-3.81-4.32-4.51-5.03c-0.05-0.63-0.25-2.6-0.79-4.73
		c-0.46-2.6-0.19-4.54,0.39-5.87c0.17-0.32,0.34-0.64,0.53-0.96c0.45-0.63,0.98-1.03,1.49-1.23c0.13-0.05,0.2-0.03,0.28,0.02
		c1.17,0.75,1.44,2.76,1.73,4.89c0.27,2,0.63,4.01,1.56,5.66c1.16,2.03,4.45,2.8,4.88-1.08c0.31-2.76,0.3-6.15,0.29-7.59l-0.08-1.46
		c-0.31-5.54-0.51-8.36-3.49-13.2c-1.3-2.12-1.32-3.3-0.5-11.54c0.4-4.01,2.97-10.55,5.59-17.49c2.99-7.92,6.09-16.11,6.29-20.86
		c0.31-7.36-0.66-11.02-1.01-12.08c0.62-0.75,2.35-3.05,2.82-6.02c0.55-3.46,0.38-9.47,0.36-9.62c0.02-0.1,1.83-10.48,4.83-15.24
		c2.21-3.51,5.19-9.75,6.65-13.46c0.81,3.68,1.53,6.67,2,8.07c0.74,2.22,1.68,4.68,2.59,7.07c1.3,3.4,2.53,6.62,2.84,8.3
		c0.31,1.65,0.39,10,0.25,24.83c-0.01,0.77-0.01,1.28-0.01,1.44c-0.03,0.28-0.66,1.39-1.21,2.37c-1.88,3.33-5.03,8.9-4.45,13.6
		c0.65,5.25,1.45,7.44,1.73,8.1c-0.6,1.89-4.98,16.25-4.31,26.61c0.24,3.61-1.18,9.25-2.98,16.38c-2.32,9.2-5.2,20.64-6.17,33.86
		c-1.44,19.54,2.67,51.65,4.21,63.73c0.33,2.59,0.55,4.3,0.58,4.82c0.08,1.28-0.04,2.16-0.18,3.18c-0.19,1.39-0.4,2.96-0.19,5.91
		c0.05,0.67,0.2,1.46,0.45,2.35c-1.09,2.82-2.08,5.63-2.95,8.23c-7.23,16.27-4.02,33.56-0.9,50.27c0.67,3.63,1.37,7.38,1.95,11.04
		l0.09,0.84c0.74,6.6,1.5,13.42-0.15,19.66c-0.83,3.16-1.71,5-2.35,6.15c0,0-0.01,0.01-0.01,0.01c-0.06,0.05-0.08,0.11-0.09,0.17
		c-0.15,0.26-0.29,0.49-0.41,0.68c-0.12,0.19-0.21,0.35-0.29,0.49c-0.66,1.19-0.67,2.55-0.38,3.87c-0.19,0.51-1.62,4.12-5.27,6.18
		c-3.43,1.94-6.48,3.23-7.58,3.77c-2.56-0.42-5.57,0.37-6.17,1.02c-0.46,0.49-0.93,1.25-0.93,3.16c0,1.85,2.22,2.69,3.21,2.97
		c0,0.66,0.16,1.88,1.06,3.28c1.29,2.01,9.31,4.54,12.7,5.54c1.16,0.34,3.39,1.88,5.36,3.23c1.85,1.28,3.61,2.48,4.68,2.89
		c1.1,0.41,3.41,0.81,6.13,0.81c3.33,0,7.26-0.6,10.29-2.49c5.73-3.58,1.79-18.45,1.62-19.08c-0.2-0.74-0.42-1.56-0.65-2.42
		c-0.71-2.68-1.52-5.72-2.34-8.2c0.03-0.94,0.52-1.91,1.03-2.94c0.56-1.13,1.15-2.29,1.15-3.51l-0.02-0.15
		c-5.18-18.64,2.51-36.17,9.95-53.11l0.95-2.19c0.36-1.43,0.85-2.9,1.32-4.32c0.97-2.9,1.97-5.9,1.96-8.95
		c-0.46-4.15-1.67-8.21-2.94-12.51c-0.76-2.55-1.78-6.31-2.68-9.73c4.43-6.74,8.32-15.31,9.25-20.42c0.7-3.8,1.3-11,2.01-19.34
		c0.62-7.36,1.32-15.71,2.18-22.37c1.06-8.23,3.23-17.51,4.98-24.97c1.2-5.1,2.23-9.51,2.57-12.17c0.75-5.88-0.34-12.78-0.59-14.22
		c0.68-2.11,0.98-4.51,1.03-6.95c0.06,2.44,0.35,4.84,1.03,6.95c-0.25,1.43-1.34,8.34-0.59,14.22c0.34,2.66,1.37,7.07,2.57,12.17
		c1.75,7.46,3.93,16.75,4.98,24.97c0.86,6.66,1.56,15.01,2.18,22.37c0.7,8.33,1.31,15.53,2.01,19.34
		c0.94,5.09,4.81,13.65,9.23,20.38c-0.94,3.57-1.99,7.45-2.67,9.76c-1.28,4.3-2.48,8.36-2.94,12.51c0,3.05,1,6.05,1.96,8.95
		c0.47,1.42,0.96,2.89,1.32,4.32l0.95,2.19c7.44,16.95,15.13,34.47,9.95,53.11l-0.02,0.15c0,1.22,0.58,2.39,1.15,3.51
		c0.52,1.03,1,2.01,1.03,2.94c-0.82,2.47-1.63,5.51-2.34,8.2c-0.23,0.86-0.45,1.68-0.65,2.42c-0.17,0.63-4.11,15.5,1.62,19.08
		c3.03,1.89,6.96,2.49,10.29,2.49c2.72,0,5.03-0.4,6.13-0.81c1.07-0.4,2.83-1.61,4.68-2.89c1.97-1.35,4.2-2.89,5.36-3.23
		c3.39-1,11.41-3.53,12.7-5.54c0.9-1.4,1.06-2.62,1.06-3.28c0.99-0.28,3.21-1.13,3.21-2.97c0-1.91-0.47-2.67-0.93-3.16
		c-0.61-0.65-3.61-1.44-6.17-1.02c-1.1-0.55-4.15-1.83-7.58-3.77c-3.64-2.06-5.07-5.67-5.27-6.18c0.28-1.31,0.27-2.67-0.38-3.87
		c-0.08-0.14-0.17-0.3-0.29-0.49c-0.12-0.19-0.25-0.42-0.41-0.68c-0.01-0.06-0.03-0.12-0.09-0.17c0,0-0.01-0.01-0.01-0.01
		c-0.64-1.15-1.52-3-2.35-6.15c-1.65-6.24-0.88-13.07-0.15-19.66l0.09-0.84c0.58-3.66,1.28-7.41,1.95-11.04
		c3.11-16.72,6.33-34-0.9-50.27c-0.86-2.6-1.86-5.4-2.94-8.21c0.25-0.9,0.41-1.7,0.46-2.37c0.21-2.95,0-4.53-0.18-5.91
		c-0.14-1.02-0.25-1.9-0.18-3.18c0.03-0.52,0.25-2.23,0.58-4.82c1.55-12.09,5.66-44.19,4.21-63.73
		c-0.97-13.21-3.86-24.66-6.17-33.86c-1.8-7.13-3.22-12.77-2.98-16.38c0.67-10.36-3.71-24.71-4.31-26.61
		c0.29-0.66,1.09-2.85,1.74-8.1c0.58-4.7-2.57-10.28-4.45-13.6c-0.55-0.98-1.18-2.09-1.21-2.37c0-0.15,0-0.67-0.01-1.44
		c-0.15-14.83-0.06-23.18,0.25-24.83c0.32-1.68,1.54-4.89,2.84-8.3c0.91-2.38,1.85-4.85,2.59-7.07c0.46-1.4,1.18-4.37,1.99-8.04
		c1.46,3.71,4.44,9.93,6.64,13.43c3,4.76,4.81,15.14,4.83,15.24c-0.01,0.15-0.18,6.16,0.36,9.62c0.47,2.98,2.2,5.28,2.82,6.02
		c-0.35,1.06-1.32,4.71-1.01,12.08c0.2,4.75,3.29,12.94,6.29,20.86c2.62,6.94,5.19,13.48,5.59,17.49c0.82,8.24,0.8,9.42-0.5,11.54
		c-2.98,4.84-3.18,7.66-3.49,13.2l-0.08,1.46c-0.01,1.44-0.02,4.84,0.29,7.59c0.43,3.88,3.73,3.11,4.88,1.08
		c0.94-1.65,1.29-3.67,1.56-5.66c0.29-2.13,0.56-4.14,1.73-4.89c0.08-0.05,0.15-0.07,0.28-0.02c0.51,0.19,1.04,0.59,1.49,1.23
		c0.19,0.32,0.37,0.64,0.54,0.96c0.58,1.33,0.85,3.27,0.39,5.87c-0.54,2.14-0.73,4.1-0.79,4.73c-0.7,0.71-3.68,3.77-4.51,5.03
		c-2,3.05-0.35,6.25,0.47,7.5c0.39,2.29,1.68,4.13,1.77,4.25l0.05,0.08c0.17,0.24,0.51,0.26,0.71,0.05l1.15-1.18
		c0.3,3.64,3.07,4.42,3.1,4.43c0.55,0.17,0.73-0.4,0.73-0.4c0.2-0.53,4.59-12.97,5.4-15.45c1.88-5.75,2.01-18.71,1.47-33.84
		c-0.35-9.92,1.48-17.59,2.38-25c0.51-4.16,0.98-8.09,1.24-12.36C303.68,268.97,300.52,263.27,299.92,262.29z M291.67,234.97
		c0.05,0.07,3.25,4.52,5.36,10.04c0.07,0.19,0.14,0.38,0.21,0.57c0.03,0.09,0.07,0.19,0.1,0.28c0.07,0.19,0.13,0.38,0.19,0.57
		c0.77,2.31,1.3,4.76,1.3,7.11v8.15c-4.13-4.99-10.06-8.85-11.21-15.39c1.5-3.6,2.9-7.63,4.02-11.37L291.67,234.97z M273.61,158.92
		c0.72,0.45,1.55,0.84,2.42,1.24c2.63,1.21,5.6,2.58,7.04,6.22c2.36,6,6.31,20.18,5.42,25.87c-0.68,4.37-1.79,8.05-2.28,9.54
		c-2.35-2.56-4.85-5-7.74-6.85c-4.71-3-10.06-4.01-14.96-6.54c-7.83-4.05-8.89-16.51-2.24-22.88
		C265.07,161.87,268.94,159.59,273.61,158.92z M214.9,197.11c-0.34-8.91-2.08-18.56,0.16-27.34c1.84-7.21,6.27-12.51,12.55-16
		c3.67,2.01,7.81,3.33,12.1,4c3.79,0.59,12.29,1.88,18.9,0.74c0.84,5.69-6.85,6.07-10.08,6.26c-1.1,0.07-2.15,0.11-3.24,0.29
		c-2.29,0.36-5.39,0.58-7.38,1.96c-3.67,2.56-2.84,7.07-1.96,11.02c2.13,9.62,5.39,18.52,0.69,28.04
		c-3.41,6.9-8.04,13.14-12.37,19.47c-1.38,2.02-2.87,3.95-4.29,5.95c-1.02,1.45-5.03,4.46-4.99,1.42c0.04-3.86-0.22-7.74-0.27-11.6
		C214.59,213.26,215.2,205.16,214.9,197.11z M256.8,182.14c0.15,0.47,0.33,0.91,0.53,1.33c-4.06,4.93-9.46,8.16-15.49,10.2
		c-0.7-1.09-1.43-2.17-2.2-3.23c-0.04-0.05-0.08-0.08-0.13-0.1c-0.16-1.11-0.38-2.24-0.67-3.39c-1.41-5.57-6.68-18.11,1.75-20.25
		c1.09-0.28,2.2-0.46,3.3-0.59c4.56,2.04,8.58,4.9,12.03,8.52c0.01,0.01,0.02,0.01,0.03,0.02
		C255.73,176.99,255.98,179.5,256.8,182.14z M239.67,191.63c2.55,3.63,4.72,7.47,6.52,11.55c-2.89-0.35-5.59-1.01-7.35-1.59
		C239.7,198.38,240.01,195.1,239.67,191.63z M242.2,194.23c5.99-2.04,11.39-5.26,15.46-10.13c0.96,1.67,2.34,2.93,3.93,3.92
		c-0.35,1.83-1.18,6.15-2.19,11.18c-1.58,4.02-7.21,4.6-12.46,4.06C245.58,200.11,244,197.11,242.2,194.23z M266.34,154.53
		c0.4,0.16,0.81,0.29,1.24,0.43c1.52,0.49,3.08,0.99,4.69,2.86c0.17,0.19,0.36,0.37,0.57,0.54c-8.57,1.36-15.58,7.3-16.77,15.47
		c-3.18-3.25-6.82-5.89-10.91-7.85c2.79-0.25,5.58-0.29,8.32-0.89c3.72-0.81,6.28-3.26,5.81-6.69
		C262.33,157.78,264.92,156.6,266.34,154.53z M245.83,142.14c4.04,1.85,7.86,3.6,10.4,5.08c4.38,2.54,6.42,4.39,7.77,5.62
		c0.65,0.59,1.17,1.06,1.73,1.4c-5.46,7.96-29.5,2.59-35.03,0.35c-5.9-2.39-8.43-5.4-12.07-10.42c-3.57-4.93-3.97-9.31-4.08-15.21
		c-0.07-3.35-0.24-6.75-0.14-10.1c0-1,0.08-2,0.24-2.99c0.11-1.14,1.3-2.15,2.47-1.7c1.27,0.49,2.23,1.73,2.81,2.89
		c0.54,1.08,1.03,2.18,1.56,3.27c2.39,4.92,5.13,10.13,9.41,13.63C232.75,136.14,239.4,139.19,245.83,142.14z M199.53,119.01
		c0,0-0.75,2.98-1.7,6.24c-0.47-0.9-1.29-2.53-1.37-2.79c-0.73-2.54-0.48-6.71-0.47-6.75l0.16-2.57l-1.19,2.29
		c-0.01,0.03-0.39,0.69-1.08,0.61c-1.06-0.13-2.75-3.17-3.75-4.98c-0.51-0.91-0.94-1.7-1.32-2.23c-1.08-1.55-1.05-5.4,0.07-8.97
		c0.18-0.57,0.42-0.88,0.72-0.94c0.78-0.14,2.14,1.1,2.87,2.02l1.1,1.39l-0.13-1.77c-0.01-0.16-1.12-15.85,4.42-22.5
		c4.11-4.93,12.96-5.99,15.44-6.19c2.48,0.2,11.33,1.26,15.44,6.19c5.54,6.64,4.43,22.34,4.42,22.5l-0.13,1.77l1.1-1.39
		c0.73-0.92,2.09-2.16,2.87-2.02c0.3,0.06,0.54,0.37,0.72,0.94c1.13,3.56,1.16,7.42,0.07,8.97c-0.37,0.53-0.81,1.32-1.32,2.23
		c-1.01,1.82-2.69,4.86-3.75,4.98c-0.7,0.08-1.07-0.59-1.08-0.61l-1.19-2.29l0.16,2.57c0,0.04,0.26,4.21-0.47,6.75
		c-0.08,0.26-0.92,1.92-1.38,2.82c-0.95-3.26-1.71-6.26-1.71-6.26c0.06,0.43,1.3,9.16,2.93,13.26c-4.1-3.99-6.57-9.58-9.04-14.68
		c-0.56-1.16-2.92-6.02-5.24-4.64c-2.4,1.43-1.99,5.41-1.92,7.79c0.15,5.28-0.75,11.33,0.58,16.48c1.9,7.35,6.57,12.71,12.58,16.18
		c-5.55,3.15-10.43,8.05-12.04,14.35c-2.64,10.37-0.58,20.76-0.62,31.27c-0.05,11.27,0.32,22.65,0.05,33.91
		c-0.04,1.67,0.66,3.88,2.05,3.61c0.12,1.78,0.31,3.56,0.53,5.34c-0.7-1.32-1.88-3.34-2.86-4.32c-0.4-0.4-1.13-0.38-1.55,0.04
		c-0.95,0.95-2.03,2.64-2.79,3.98c0.2-1.68,0.38-3.36,0.5-5.04c1.4,0.28,2.09-1.94,2.05-3.61c-0.27-11.26,0.1-22.63,0.05-33.91
		c-0.04-10.52,2.02-20.9-0.62-31.27c-1.61-6.3-6.49-11.2-12.04-14.35c6.01-3.48,10.68-8.83,12.58-16.18
		c1.33-5.15,0.43-11.2,0.58-16.48c0.07-2.39,0.48-6.36-1.92-7.79c-2.32-1.38-4.68,3.48-5.24,4.64c-2.47,5.11-4.95,10.72-9.07,14.71
		C198.22,128.21,199.47,119.44,199.53,119.01z M217.18,243.96c1.11,7.78,3.02,15.48,5.2,22.97c0.84,2.88,1.84,10.34,5.53,12.27
		c2.63,2.07,1.97,5.39,1.71,6.46c-0.55,2.3-11.88,16.69-15.76,20.47c-0.3,0.3-0.87,0.3-1.18,0.01
		c-4.18-3.87-15.43-17.96-15.98-20.27c-0.26-1.07-0.82-4.53,1.86-6.61c3.79-1.82,4.82-9.42,5.66-12.34
		c2.22-7.63,4.15-15.47,5.25-23.38c0.86-1.77,2.19-3.88,3.04-4.98c0.6-0.79,1.06-0.71,1.61,0.08
		C214.85,239.68,216.33,242.13,217.18,243.96z M170.62,174.66c0.02-0.01,0.03-0.02,0.05-0.03c3.45-3.62,7.47-6.48,12.03-8.52
		c1.1,0.13,2.21,0.31,3.3,0.59c8.43,2.14,3.16,14.67,1.75,20.25c-0.29,1.15-0.51,2.28-0.67,3.39c-0.05,0.02-0.09,0.05-0.13,0.1
		c-0.77,1.06-1.5,2.13-2.2,3.23c-6.03-2.03-11.44-5.27-15.5-10.21c0.2-0.41,0.38-0.85,0.52-1.31
		C170.6,179.51,170.84,177,170.62,174.66z M184.4,194.23c-1.8,2.88-3.39,5.89-4.75,9.04c-5.13,0.54-10.62,0.02-12.39-3.69
		c-1.04-5.2-1.9-9.7-2.26-11.57c1.6-1,2.97-2.26,3.92-3.93C173,188.96,178.4,192.18,184.4,194.23z M186.92,191.63
		c-0.34,3.46-0.03,6.74,0.83,9.95c-1.76,0.57-4.46,1.24-7.35,1.6C182.21,199.1,184.38,195.26,186.92,191.63z M190.65,178.05
		c0.88-3.95,1.71-8.46-1.96-11.02c-1.99-1.38-5.09-1.6-7.38-1.96c-1.09-0.17-2.15-0.22-3.25-0.29c-3.23-0.19-10.92-0.58-10.08-6.26
		c6.61,1.13,15.11-0.16,18.9-0.74c4.29-0.66,8.43-1.99,12.1-4c6.28,3.48,10.72,8.79,12.55,16c2.24,8.77,0.5,18.43,0.16,27.34
		c-0.31,8.05,0.31,16.15,0.19,24.22c-0.06,3.86-0.31,7.74-0.27,11.6c0.03,3.04-3.97,0.03-5-1.42c-1.41-2-2.9-3.92-4.29-5.95
		c-4.33-6.33-9.01-12.55-12.42-19.45c-0.72-1.46-1.26-2.91-1.63-4.35c0,0,0-0.01,0-0.01C186.21,193.82,188.85,186.18,190.65,178.05z
		 M162.57,152.84c1.35-1.23,3.39-3.08,7.77-5.62c2.54-1.48,6.36-3.22,10.4-5.08c6.38-2.92,12.97-5.94,14.88-8.13
		c4.32-3.5,7.08-8.74,9.48-13.69c0.53-1.09,1.02-2.19,1.56-3.27c0.58-1.16,1.54-2.4,2.81-2.89c1.17-0.45,2.36,0.56,2.47,1.7
		c0.16,0.99,0.24,1.98,0.24,2.99c0.1,3.36-0.08,6.75-0.14,10.1c-0.12,5.89-0.52,10.27-4.08,15.21c-3.63,5.02-6.16,8.03-12.07,10.42
		c-5.53,2.24-29.59,7.61-35.04-0.36C161.41,153.89,161.92,153.43,162.57,152.84z M154.32,157.81c1.6-1.87,3.17-2.37,4.69-2.86
		c0.43-0.14,0.85-0.27,1.25-0.43c1.42,2.08,4,3.26,7.07,3.87c-0.48,3.43,2.09,5.89,5.8,6.7c2.73,0.6,5.53,0.64,8.32,0.89
		c-4.1,1.97-7.74,4.61-10.92,7.87c-1.18-8.17-8.19-14.12-16.77-15.49C153.96,158.19,154.15,158.01,154.32,157.81z M138.09,192.25
		c-0.89-5.7,3.05-19.87,5.42-25.87c1.43-3.64,4.41-5.01,7.04-6.22c0.87-0.4,1.7-0.79,2.42-1.24c4.67,0.67,8.54,2.95,12.34,6.59
		c6.65,6.37,5.59,18.84-2.24,22.88c-4.89,2.53-10.25,3.54-14.96,6.54c-2.89,1.85-5.4,4.29-7.74,6.85
		C139.89,200.3,138.78,196.62,138.09,192.25z M127.75,253.54c0-2.35,0.53-4.8,1.3-7.11c0.06-0.19,0.13-0.38,0.19-0.57
		c0.03-0.09,0.07-0.19,0.1-0.28c0.07-0.19,0.14-0.38,0.21-0.57c2.11-5.52,5.31-9.98,5.36-10.04l0.03-0.04
		c1.12,3.74,2.52,7.77,4.02,11.37c-1.15,6.54-7.08,10.4-11.21,15.39V253.54z M126.63,297.51c-0.27-1.76-0.52-3.48-0.73-5.19
		c-0.5-4.15-0.98-8.06-1.24-12.3c-0.02-0.28-0.03-0.54-0.04-0.81c-0.01-0.15-0.01-0.29-0.02-0.44c-0.01-0.2-0.01-0.4-0.02-0.6
		c0-0.13-0.01-0.26-0.01-0.39c0-0.21,0-0.41,0-0.61c0-0.12,0-0.23,0-0.35c0-0.23,0.01-0.45,0.01-0.67c0-0.08,0-0.17,0-0.25
		c0.23-8.4,2.76-12.68,3.04-13.12c3.91-5.24,10.11-9.05,11.75-15.49c0.32,0.74,0.64,1.46,0.97,2.15c0.4,0.84,0.87,1.33,1.41,1.59
		c-1.82,9.34-6.42,17.23-10.45,25.81C128.24,283.37,126.92,290.4,126.63,297.51z M143.81,251.14c0.04,5.31,1.95,10.18,5.51,14.1
		c-1.29,2.14-2.46,4.38-3.51,6.69c-3.2-5.02-4.71-10.66-4.38-16.67c0.37-1.31,0.7-2.65,0.97-4.03
		C142.85,251.3,143.32,251.26,143.81,251.14z M142.66,249.81c0.85-9.87,3.91-20.08,9.33-28.47c0.58-0.95,1.33-1.76,2.23-2.41
		c3.73-2.75,1.52,5.84,1.39,6.27c-0.65,2.06-1.36,4.11-1.99,6.18c-1.93,6.35-4.23,12.53-7.62,18.21c-0.13,0.04-0.26,0.07-0.39,0.11
		C144.37,250.03,143.42,250.05,142.66,249.81z M145.49,272.65c-3.44,7.84-5.45,16.5-5.83,25.1c-1.22,4.46-3.16,9.84-3.99,14.25
		c-0.39,2.08-0.64,4.19-1.07,6.27c-0.03,0.13-0.06,0.25-0.09,0.38c-0.01,0.04-0.02,0.07-0.03,0.11c-0.03,0.09-0.06,0.18-0.09,0.27
		c-1.07,2.91-4.52,4.34-4.96-0.33c-1.07-11.41-0.28-24.74,0.52-36.08c0.87-2.78,1.96-5.54,3.29-8.26c2.8-5.7,5.6-11.07,7.52-16.89
		C140.86,262.91,142.46,268.06,145.49,272.65z M136.83,362.08c0,2.43-1.19,3.44-1.87,3.82c-0.58-1.53-2.26-6.11-3.58-9.84l5.46,5.59
		C136.84,361.79,136.83,361.98,136.83,362.08z M139.27,362.57l-8.72-8.92c-0.39-1.16-0.69-2.08-0.81-2.58
		c-0.28-1.09-0.51-2.3-0.72-3.62c1.07,1.98,2.63,4.26,4.24,5.96c3.17,3.33,6.53,6.18,7.08,6.64
		C140.05,361.11,139.59,362.02,139.27,362.57z M143.49,322.13c2.32,3.68,2.95,7.24,3.25,12.57l0.08,1.44
		c0.02,2.56-0.08,5.34-0.29,7.44c-0.17,1.71-1.55,2.71-2.87,0.62c-0.89-1.4-1.15-3.35-1.4-5.23c-0.32-2.39-0.63-4.64-2.22-5.66
		c-0.24-0.15-0.5-0.22-0.77-0.21c0.97-1.3,1.9-2.39,2.29-2.93c-1.85,0.66-5.93,3.97-6.1,7.53c-0.23,1.21-0.22,2.63,0.12,4.2
		c-0.01,0.06,0,0.13,0.02,0.21c0.7,2.61,0.87,5.12,0.88,5.15c0.22,0.84,3.81,4.04,4.67,5.35c1.68,2.56,0.24,5.26-0.46,6.3
		c-1.07-0.92-3.92-3.41-6.63-6.25c-2.72-2.86-5.14-7.43-5.49-8.96c-0.63-6.57-0.66-15.28-0.27-26.2c0.21-5.97-0.36-11.11-1.04-15.88
		c-0.03-5.21,0.49-10.25,1.65-15.16c-0.46,7.43-0.67,14.86-0.47,22.31c0.04,1.51-0.47,13.51,1.77,14.23
		c2.31,0.74,4.27-1.57,4.85-3.31c0.96-2.88,1.04-6.25,1.61-9.22c0.57-3.04,1.88-6.75,2.93-10.11c-0.04,6.66,0.9,13.22,2.93,19.28
		C142.73,320.57,143.04,321.41,143.49,322.13z M154.63,271.5c-0.19,4.58-3.25,12.68-6.22,20.52c-2.65,7-5.06,13.62-5.66,17.74
		c-0.32,2.22-0.54,4.28-0.57,6.13c-4.6-18.58-0.2-40.84,11.55-55.86C154.09,261.22,154.91,264.78,154.63,271.5z M156.45,253.28
		c-0.51,3.24-2.75,5.68-2.77,5.71c0,0-2.84,3.79-4,5.67c-3.42-3.83-5.22-8.54-5.22-13.69c1.07-0.35,2.21-0.9,3.33-1.22
		c4.53-1.29,7.22-3.74,9.18-6.92c-0.1,0.51-0.15,0.84-0.17,0.93C156.81,243.81,156.98,249.92,156.45,253.28z M161.67,228.08
		c-2.07,3.41-3.48,9.07-4.25,12.61c-1.8,3.62-4.27,6.61-8.88,8.15c-0.54,0.18-1.1,0.34-1.65,0.5c3.98-6.93,6.11-14.42,8.66-22.05
		c0.33-0.99,3.65-9.73-0.39-9.29c-3.89,0.42-6.08,7.02-7.4,9.95c-3.1,6.89-5.05,14.07-5.73,21.59c-1.09-0.62-1.79-1.88-2.53-3.54
		c-1.63-3.67-3.23-8.67-4.39-12.86c0.23-3.76,0.9-13.51,1.9-18.37c1.25-6.05,3.58-11.84,3.6-11.89l0.2-0.29
		c5.41-5.46,10.92-9.34,18.73-12.11c1.52-0.54,3.06-1.15,4.47-1.91c0.75,3.92,3.02,15.66,4.94,24.58
		C168.04,215.82,164.45,223.49,161.67,228.08z M176.89,235.04c-0.53-1.53-1.21-3.32-1.92-5.16c-0.9-2.37-1.84-4.83-2.57-7.03
		c-0.96-2.88-3.06-12.93-4.81-21.65c4.1,4.73,15.48,2.59,20.34,1.01c0.87,2.99,2.22,5.94,3.97,8.93
		c4.85,8.3,10.63,16.61,16.64,24.11c0.37,0.46,0.71,0.78,1.03,0.99c-0.56,8.35-2.28,16.7-4.35,24.79
		c-0.88,3.43-1.95,6.82-2.89,10.24c-0.66,2.39-1.38,5.26-3.46,6.86c-3.07,2.35-4.49-2.11-4.91-4.47c-1.19-6.8-4.95-13.89-7.94-20.07
		C183.04,247.44,180.06,241.14,176.89,235.04z M177.95,239c1.02,2.31,2.03,4.63,3.23,7.01c2.72,5.37,5.62,10.52,7.95,16.1
		c2.11,5.06,3.63,9.81,4.62,15.17c0.11,0.57,0.25,1,0.46,1.33c-4.99-1.27-8.86-5.41-12.86-8.58c-1.62-1.28-2.64-3.02-3.26-4.94
		c0.02-0.09,0.03-0.18,0.03-0.25c0-0.16,0-0.67,0.01-1.44C178.18,258.19,178.33,242.99,177.95,239z M172.45,280.68
		c-0.54-4.35,2.5-9.72,4.32-12.93c0.5-0.88,0.84-1.5,1.06-1.97c0.51,1.32,1.2,2.59,2.13,3.79c2.2,2.83,6.05,5.32,8.96,7.37
		c1.06,0.75,2.1,1.32,3.18,1.75c-5.47,4.15-13.17,5.44-17.87,10.26l0.04-0.12l-0.11-0.21C174.16,288.59,173.21,286.78,172.45,280.68
		z M173.66,290.85c7.74-5.67,15.93-8.71,23.22,0.03c3.2,3.84,6.31,7.74,9.01,11.9c-2.9-2.58-7-3.37-12.89-0.89
		c-3.67,1.55-7.15,3.76-10.65,5.66c-0.91,0.49-5.88,2.26-5.92,4.18c-2.48,1.55-4.67,3.46-6.56,5.7c0.04-0.71,0.05-1.38,0.01-1.99
		C169.32,306.79,172.38,295.24,173.66,290.85z M160.73,365.84c0.97-13.12,3.84-24.51,6.14-33.67c1.37-5.45,2.53-10.03,2.91-13.58
		c1.9-2.43,4.16-4.49,6.74-6.14c0.65,3.66,2.88,6.61,3.27,10.55c0.55,5.65-1.68,11.41-3.48,16.66c-0.52,1.53-2.67,6.7-2.85,10.52
		l-0.03,0.03c-7.06,16.34-9.2,33.59-11.64,50.98C160.71,389.01,160,375.78,160.73,365.84z M162.05,403.99
		c2.54-17.81,4.48-35.52,11.46-52.28c0.17,1.25,0.68,2.21,1.74,2.61c2.11,0.8,4.1,0.45,6.21-0.22c1.83-0.58,3.64-1.2,5.46-1.82
		c1.11,5.1,0.39,11.03,0.03,15.92c-0.67,8.97-2.11,17.9-3.87,26.72c-2.97,14.84-9.04,28.85-15.14,42.75
		c-0.7,1.51-1.38,3.06-2.03,4.64c-0.23,0.52-0.46,1.04-0.68,1.56c-0.03-0.19-0.05-0.37-0.06-0.54c-0.2-2.84,0-4.36,0.18-5.69
		c0.14-1.03,0.27-2,0.19-3.38c-0.03-0.56-0.25-2.28-0.59-4.89C164.25,423.94,163.04,414.5,162.05,403.99z M179.37,410.39
		c-0.08,10.3,5.49,20.76,8.82,29.22c-3.35,4.79-5.95,9.89-7.92,15.24c-0.18-8.63-3.33-16.74-9.06-23.33
		C174.15,424.55,176.97,417.55,179.37,410.39z M162.52,454.54c0.02-0.06,0.05-0.11,0.07-0.17c1.38-4.13,3.97-11.31,5.75-16.17
		c0.86-2,1.73-4.01,2.58-6.01c5.92,6.92,8.94,15.47,8.68,24.53c-2.47,7.32-3.82,15.08-4.31,23.18c-0.34,5.71-0.47,11.45-0.48,17.19
		c-2.95,3.83-9.52,2.6-10.37-2.93c0-0.03-0.02-0.05-0.03-0.07C162.35,480.92,160.82,467.74,162.52,454.54z M163.62,536.07
		c1.7-6.44,0.93-13.37,0.18-20.06l-0.1-0.87c-0.58-3.7-1.28-7.46-1.96-11.09c-3.06-16.44-5.95-32.02-0.14-47.26
		c-1.25,12.49,0.25,24.96,2.23,37.4c-0.01,0.04-0.01,0.08-0.01,0.12c0.03,0.22,0.08,0.43,0.13,0.64
		c1.77,11.04,3.87,22.06,4.73,33.06c-1.23,4.28-3.28,8.13-6.14,11.49C162.9,538.56,163.27,537.44,163.62,536.07z M182.24,541.45
		c-0.02,0.94-0.51,1.92-1.03,2.96c-0.26,0.52-0.53,1.06-0.74,1.6c-1.92-8.21-1.72-16.64,0.57-24.72
		C180.15,527.87,180.34,534.57,182.24,541.45z M181.74,517.08c-3.75,9.93-4.41,20.57-1.68,30.79c0,0.02,0,0.03,0,0.05l0.03,0.17
		c0.11,0.34,0.23,0.7,0.34,1.07c0.11,0.38,0.23,0.76,0.35,1.14c0.58,1.95,1.15,4.07,1.66,6.01c0.23,0.86,0.45,1.68,0.65,2.43
		c0.04,0.15,3.91,14.71-1.14,17.87c-5.11,3.19-13.24,2.42-15.46,1.59c-0.95-0.36-2.73-1.58-4.45-2.76
		c-2.14-1.47-4.35-2.99-5.67-3.38c-5.42-1.59-11.25-3.78-12.09-5.09c-1.08-1.68-0.88-2.96-0.88-3.01l0.09-0.53l-0.52-0.11
		c-0.03-0.01-2.8-0.61-2.8-2.02c0-1.74,0.43-2.2,0.64-2.42c0.3-0.32,1.73-1.04,3.79-0.8l-2.53,1.57c0,0,1.36,0.67,4.01-1.06
		c3.21-2.1,6.23-3.17,8.22-4.3c2.96-1.68,4.52-4.26,5.18-5.6c0.46,1.23,1.07,2.32,1.5,3.08c0.16,0.27,0.31,0.54,0.45,0.81
		c0,0-2.34-6.45-1.07-8.75c0.07-0.13,0.16-0.27,0.27-0.45c0.29-0.47,0.68-1.12,1.14-2.07c3.19-3.32,5.55-7.21,7.04-11.53
		c0.67,10.08,0.22,20.14-2.56,30.18c-0.11,0.41,1.88-4.87,2.3-7.4c3.09-18.4-0.61-36.85-3.63-55.35c2.25,3.29,7.11,3.61,9.89,0.8
		c0,5.57,0.1,11.15,0.2,16.7c0.04,2.25,0.15,4.45,0.33,6.6c0,0,0.34-5.71,0.29-8.69c-0.05-2.85-0.08-5.7-0.09-8.55
		c2.07,3.04,6.52,3.9,9.46,1.39C183.67,509.29,182.54,513.16,181.74,517.08z M193.5,460.47c1.26,4.25,2.45,8.27,2.9,12.26
		c0,2.82-0.97,5.73-1.91,8.55c-0.48,1.44-0.98,2.93-1.31,4.31l-0.92,2.1c-2.34,5.33-4.71,10.72-6.69,16.19
		c-2.78,3.77-8.34,2.85-10.03-1.06c-0.01-7.07,0.08-14.14,0.33-21.21c0.29-8.54,1.63-16.8,4.26-24.56c0.05-0.1,0.09-0.2,0.13-0.29
		c0-0.03,0-0.06,0-0.08c1.98-5.75,4.68-11.22,8.21-16.33c0.51,1.33,0.95,2.6,1.3,3.82C190.04,449.99,191.92,455.15,193.5,460.47z
		 M191.48,448.99c-0.98-3.74-1.75-6.75-1.75-6.75c0,0.03,0,0.07,0,0.1c-0.02-0.12-0.05-0.22-0.07-0.3
		c-3.87-11.88-10.91-21.91-9.65-33.58c1.79-5.56,3.31-11.22,4.41-17.02c1.61-8.48,2.79-17.07,3.36-25.69
		c0.28-4.27,0.69-9.26-0.25-13.69c3.1-1.08,6.2-2.17,9.33-3.16c0.97-0.31,1.94-0.64,2.89-1c-3.95,11.4-3.56,22.94-1.79,34.49
		c-7.07,18.62,2.16,39.63-2.15,58.86C194.52,443.89,193.03,446.55,191.48,448.99z M202.04,410.58c-0.67,7.96-1.3,15.48-1.99,19.23
		c-0.44,2.39-1.6,5.67-3.17,9.15c2.96-18.19-4.81-37.77,1.28-55.28c1.18,7.25,2.86,14.49,4.32,21.7
		C202.33,407.15,202.18,408.89,202.04,410.58z M211.77,351.03c-0.33,2.6-1.36,6.98-2.55,12.06c-1.76,7.49-3.94,16.8-5,25.08
		c-0.58,4.51-1.09,9.79-1.55,15c-3.86-18.52-8.69-37.24-2.14-55.57c4.11-1.62,7.85-3.82,10.36-7.69c0.18-0.28,0.34-0.57,0.5-0.87
		C211.72,341.03,212.4,346.09,211.77,351.03z M211.4,337.05c-1.47,6.57-9.12,9.42-14.73,11.23c-5.46,1.73-10.83,3.76-16.29,5.48
		c-10.55,3.34-3.67-13.21-2.18-17.66c1.54-4.6,2.96-9.99,2.06-14.89c-0.43-2.34-1.1-4.34-2.2-6.43c-2.43-4.61,5.64-7.22,8.23-8.63
		c6.15-3.33,13.92-8.46,20.11-2.56c1.35,2.13,2.58,4.33,3.66,6.62c0.7,2.4,1.08,4.94,1.44,7.17
		C212.55,323.85,212.84,330.63,211.4,337.05z M213.3,328.19c-0.07-3.18-0.46-6.3-0.83-8.78c-0.78-5.22-2.06-10.59-4.57-14.29
		c-3.72-7.19-7.83-11.82-12.82-17.28c-5.95-6.51-14.12-2.84-20.28,1.39c4.73-4.79,12.66-6.06,18.03-10.28
		c0.96,0.32,1.96,0.52,3.05,0.63c0.13,0.02,0.25,0.05,0.39,0.06c0.3,0.04,0.59,0.03,0.87,0c-1.49,1.86-1.65,4.36-1.16,6.39
		c0.64,2.69,6.38,10.29,16.7,21.24c0.28,0.29,0.77,0.34,1.05,0.06c10.7-10.76,15.94-18.81,16.59-21.51
		c0.48-1.99,0.42-4.36-0.96-6.17c0.3,0.03,0.62,0.03,0.95,0c0.14-0.02,0.27-0.04,0.39-0.06c1.09-0.1,2.09-0.31,3.05-0.63
		c5.38,4.22,13.33,5.49,18.06,10.29c-6.16-4.24-14.35-7.94-20.3-1.41c-4.98,5.46-9.09,10.09-12.81,17.27
		c-2.51,3.7-3.79,9.08-4.57,14.3C213.76,321.88,213.36,325.01,213.3,328.19z M248.46,263.41c0.01,0.77,0.01,1.27,0.01,1.44
		c0,0.08,0.01,0.16,0.03,0.25c-0.62,1.92-1.64,3.65-3.26,4.94c-4,3.17-7.88,7.31-12.86,8.58c0.21-0.33,0.35-0.76,0.46-1.33
		c0.99-5.36,2.51-10.11,4.62-15.17c2.33-5.58,5.23-10.72,7.95-16.1c1.19-2.34,2.2-4.69,3.23-7.03
		C248.26,242.94,248.41,258.18,248.46,263.41z M215.09,317.39c0.36-2.23,0.74-4.77,1.44-7.17c1.08-2.29,2.31-4.49,3.66-6.62
		c6.2-5.91,13.97-0.78,20.12,2.56c2.59,1.4,10.66,4.02,8.23,8.63c-1.1,2.09-1.77,4.09-2.2,6.43c-0.9,4.89,0.52,10.28,2.06,14.89
		c1.49,4.45,8.37,20.99-2.18,17.66c-5.46-1.73-10.83-3.75-16.29-5.48c-5.61-1.81-13.26-4.66-14.73-11.23
		C213.76,330.63,214.04,323.85,215.09,317.39z M222.37,388.16c-1.06-8.28-3.25-17.6-5-25.08c-1.19-5.07-2.22-9.46-2.55-12.06
		c-0.63-4.94,0.05-10,0.38-11.98c0.16,0.3,0.32,0.59,0.5,0.87c2.51,3.87,6.26,6.07,10.36,7.69c6.55,18.33,1.72,37.05-2.14,55.57
		C223.46,397.95,222.95,392.68,222.37,388.16z M226.55,429.82c-0.69-3.75-1.32-11.27-1.99-19.23c-0.14-1.69-0.29-3.43-0.44-5.2
		c1.46-7.21,3.14-14.46,4.32-21.71c6.09,17.51-1.68,37.09,1.28,55.28C228.15,435.48,226.99,432.21,226.55,429.82z M230.79,441.25
		c-4.31-19.23,4.92-40.24-2.15-58.85c1.78-11.55,2.16-23.09-1.79-34.49c0.95,0.36,1.92,0.69,2.9,1c3.13,0.99,6.22,2.08,9.32,3.16
		c-0.95,4.43-0.54,9.42-0.25,13.69c0.57,8.62,1.75,17.21,3.36,25.69c1.1,5.8,2.62,11.46,4.41,17.02
		c1.26,11.67-5.85,21.79-9.72,33.68c-0.03,0.08-0.81,3.13-1.78,6.83C233.55,446.54,232.07,443.88,230.79,441.25z M247.23,410.4
		c2.43,7.27,5.31,14.4,8.31,21.48c-5.45,5.81-9.04,15.46-8.95,23.69c-2-5.61-4.68-10.95-8.18-15.96
		C241.74,431.16,247.31,420.7,247.23,410.4z M241.01,503.85c-1.99-5.46-4.35-10.84-6.68-16.17l-0.92-2.1
		c-0.34-1.39-0.83-2.87-1.31-4.31c-0.94-2.82-1.91-5.73-1.91-8.55c0.45-3.99,1.64-8.01,2.9-12.26c1.61-5.41,3.76-10.77,4-16.71
		c0-0.79,0.58-2.18,1.05-3.41c8.36,12.1,12.09,26.26,12.6,41.27c0.24,7.06,0.34,14.14,0.33,21.21
		C249.37,506.73,243.79,507.66,241.01,503.85z M245.38,544.41c-0.52-1.04-1.01-2.02-1.03-2.96c1.9-6.88,2.08-13.59,1.2-20.16
		c2.29,8.08,2.48,16.51,0.57,24.72C245.9,545.47,245.64,544.93,245.38,544.41z M265.95,543.38c0.11,0.17,0.2,0.32,0.27,0.45
		c1.27,2.3-1.07,8.75-1.07,8.75c0.14-0.26,0.29-0.53,0.45-0.81c0.43-0.76,1.04-1.85,1.5-3.08c0.66,1.34,2.22,3.92,5.18,5.6
		c1.99,1.13,5.02,2.2,8.22,4.3c2.65,1.73,4.01,1.06,4.01,1.06l-2.53-1.57c2.06-0.24,3.49,0.48,3.79,0.8
		c0.21,0.22,0.64,0.68,0.64,2.42c0,1.42-2.77,2.01-2.8,2.02l-0.52,0.11l0.09,0.53c0.01,0.05,0.2,1.33-0.88,3.01
		c-0.84,1.3-6.68,3.49-12.09,5.09c-1.32,0.39-3.53,1.91-5.67,3.38c-1.72,1.18-3.5,2.41-4.45,2.76c-2.22,0.84-10.34,1.61-15.46-1.59
		c-5.05-3.16-1.18-17.72-1.14-17.87c0.2-0.74,0.42-1.56,0.65-2.43c0.52-1.94,1.08-4.06,1.66-6.01c0.12-0.38,0.23-0.76,0.35-1.14
		c0.11-0.37,0.23-0.72,0.34-1.07l0.03-0.17c0-0.02,0-0.03,0-0.05c2.73-10.23,2.07-20.86-1.68-30.79c-0.79-3.92-1.93-7.79-3.26-11.63
		c2.95,2.52,7.41,1.67,9.48-1.38c-0.01,2.85-0.04,5.7-0.09,8.55c-0.05,2.98,0.29,8.69,0.29,8.69c0.18-2.15,0.29-4.35,0.33-6.6
		c0.1-5.55,0.2-11.12,0.2-16.7c2.78,2.81,7.63,2.49,9.88-0.79c-3.03,18.49-6.72,36.95-3.63,55.34c0.42,2.52,2.42,7.8,2.3,7.4
		c-2.78-10.04-3.22-20.1-2.56-30.18c1.48,4.32,3.84,8.21,7.04,11.53C265.26,542.26,265.66,542.91,265.95,543.38z M264.84,504.05
		c-0.68,3.63-1.38,7.39-1.96,11.09l-0.1,0.87c-0.75,6.7-1.52,13.62,0.18,20.06c0.36,1.36,0.73,2.49,1.08,3.43
		c-2.86-3.35-4.92-7.21-6.14-11.49c0.86-10.96,2.95-21.95,4.72-32.95c0.06-0.24,0.12-0.48,0.15-0.74c0.01-0.06,0-0.11-0.01-0.15
		c1.97-12.44,3.47-24.9,2.22-37.38C270.79,472.03,267.9,487.61,264.84,504.05z M263.99,454.37c0.03,0.06,0.05,0.11,0.07,0.17
		c1.7,13.2,0.18,26.39-1.9,39.55c-0.01,0.02-0.02,0.03-0.02,0.06c-0.85,5.53-7.41,6.76-10.37,2.93c-0.01-5.74-0.13-11.48-0.48-17.19
		c-0.47-7.81-1.74-15.31-4.06-22.41l0.01,0c-0.73-8.38,2.85-18.82,8.54-25.02c0.79,1.87,1.59,3.73,2.4,5.6
		C259.97,442.93,262.6,450.2,263.99,454.37z M261.66,429.35c-0.33,2.61-0.55,4.33-0.59,4.89c-0.08,1.38,0.05,2.35,0.19,3.38
		c0.18,1.33,0.38,2.85,0.18,5.69c-0.01,0.17-0.04,0.35-0.06,0.54c-0.3-0.68-0.59-1.36-0.89-2.04c-0.54-1.29-1.1-2.57-1.67-3.82
		c-6.15-14.01-12.29-28.13-15.29-43.09c-1.76-8.82-3.2-17.75-3.87-26.72c-0.37-4.89-1.08-10.82,0.03-15.92
		c1.81,0.63,3.63,1.25,5.46,1.82c2.11,0.67,4.1,1.02,6.21,0.22c1.06-0.4,1.57-1.36,1.74-2.61c6.98,16.76,8.92,34.48,11.46,52.28
		C263.56,414.5,262.35,423.94,261.66,429.35z M259.72,332.17c2.31,9.16,5.18,20.55,6.14,33.67c0.73,9.94,0.02,23.17-1.06,35.34
		c-2.44-17.39-4.58-34.64-11.64-50.98l-0.03-0.03c-0.18-3.81-2.33-8.98-2.85-10.51c-1.79-5.25-4.03-11.01-3.48-16.66
		c0.38-3.94,2.62-6.88,3.27-10.55c2.58,1.65,4.84,3.71,6.74,6.14C257.19,322.13,258.35,326.72,259.72,332.17z M256.71,315.45
		c-0.04,0.61-0.03,1.28,0.01,1.99c-1.89-2.25-4.08-4.16-6.56-5.7c-0.04-1.92-5.01-3.69-5.92-4.18c-3.5-1.9-6.97-4.11-10.65-5.66
		c-5.89-2.48-9.99-1.69-12.89,0.89c2.7-4.16,5.81-8.06,9.01-11.9c7.28-8.74,15.48-5.7,23.21-0.03
		C254.22,295.24,257.27,306.8,256.71,315.45z M249.83,267.74c1.82,3.21,4.85,8.59,4.32,12.93c-0.75,6.1-1.71,7.91-1.71,7.93
		l-0.11,0.21l0.04,0.12c-4.69-4.81-12.4-6.1-17.87-10.25c1.08-0.43,2.12-1.01,3.18-1.75c2.92-2.05,6.77-4.54,8.96-7.37
		c0.93-1.2,1.63-2.47,2.13-3.79C248.98,266.24,249.33,266.86,249.83,267.74z M254.19,222.86c-0.73,2.2-1.67,4.65-2.58,7.03
		c-0.7,1.84-1.38,3.62-1.91,5.16c-3.17,6.1-6.15,12.4-9.12,18.55c-2.99,6.19-6.75,13.27-7.94,20.07c-0.41,2.36-1.83,6.83-4.91,4.47
		c-2.09-1.6-2.81-4.47-3.47-6.86c-0.94-3.42-2.01-6.8-2.89-10.24c-2.06-8.08-3.79-16.44-4.35-24.79c0.32-0.21,0.66-0.53,1.03-0.99
		c6.02-7.5,11.79-15.81,16.64-24.11c1.75-2.99,3.09-5.93,3.96-8.93c4.89,1.59,16.3,3.71,20.35-1.06
		C257.27,209.89,255.16,219.97,254.19,222.86z M264.78,228.01c-2.75-4.37-6.23-12.07-7.14-14.8c1.92-8.92,4.2-20.68,4.95-24.62
		c1.41,0.76,2.94,1.36,4.45,1.9c7.81,2.77,13.46,6.68,18.87,12.14l-0.02,0.06l0.08,0.19c0.02,0.06,2.36,5.84,3.6,11.89
		c1,4.86,1.67,14.61,1.9,18.37c-1.16,4.19-2.76,9.19-4.39,12.86c-0.74,1.66-1.44,2.92-2.53,3.54c-0.68-7.52-2.64-14.7-5.73-21.59
		c-1.31-2.93-3.5-9.53-7.4-9.95c-4.04-0.44-0.72,8.3-0.39,9.29c2.56,7.63,4.68,15.12,8.66,22.05c-0.56-0.15-1.11-0.31-1.65-0.5
		c-4.61-1.54-7.06-4.45-8.85-8.06C268.42,237.24,266.9,231.38,264.78,228.01z M293.33,274.35c1.34,2.73,2.42,5.48,3.29,8.26
		c0.8,11.33,1.6,24.66,0.52,36.08c-0.44,4.68-3.88,3.24-4.96,0.33c-0.03-0.09-0.06-0.18-0.09-0.27c-0.01-0.04-0.02-0.07-0.03-0.11
		c-0.04-0.12-0.07-0.25-0.09-0.38c-0.42-2.08-0.68-4.19-1.07-6.27c-0.83-4.4-2.77-9.79-3.99-14.25c-0.38-8.6-2.39-17.26-5.83-25.1
		c3.82-5.62,4.69-11.56,4.85-14.85C287.85,263.49,290.59,268.75,293.33,274.35z M285.17,255.32c0.03,0.34,0.67,8.67-4.47,16.53
		c-1.04-2.28-2.17-4.5-3.45-6.6c3.56-3.92,5.47-8.79,5.51-14.1c0.49,0.11,0.96,0.16,1.41,0.09
		C284.44,252.64,284.79,253.99,285.17,255.32z M280.98,249.7c-0.13-0.04-0.26-0.07-0.39-0.11c-3.4-5.68-5.69-11.86-7.62-18.21
		c-0.63-2.07-1.34-4.12-1.99-6.18c-0.14-0.43-2.34-9.02,1.39-6.27c0.9,0.65,1.64,1.46,2.23,2.41c5.41,8.4,8.47,18.6,9.33,28.47
		C283.15,250.05,282.21,250.03,280.98,249.7z M270.12,253.28c-0.53-3.36-0.36-9.46-0.36-9.53c-0.01-0.09-0.07-0.42-0.17-0.93
		c1.96,3.19,4.66,5.63,9.18,6.92c1.12,0.32,2.26,0.87,3.33,1.22c0,5.16-1.8,9.87-5.22,13.69c-1.17-1.88-2.88-4.34-4-5.67
		C272.87,258.96,270.63,256.52,270.12,253.28z M278.16,292.03c-2.96-7.84-6.03-15.95-6.22-20.52c-0.28-6.72,0.54-10.28,0.89-11.47
		c11.75,15.02,16.15,37.28,11.55,55.86c-0.02-1.85-0.25-3.91-0.57-6.13C283.22,305.64,280.81,299.02,278.16,292.03z M291.62,365.9
		c-0.68-0.38-1.87-1.39-1.87-3.82c0-0.1-0.01-0.29-0.01-0.44l5.46-5.59C293.88,359.79,292.2,364.36,291.62,365.9z M296.84,351.07
		c-0.13,0.5-0.42,1.42-0.81,2.58l-8.72,8.92c-0.32-0.55-0.78-1.46-1.06-2.52c0.55-0.46,3.91-3.31,7.08-6.64
		c1.61-1.69,3.17-3.98,4.24-5.96C297.36,348.77,297.12,349.98,296.84,351.07z M298.29,317.5c0.38,10.92,0.36,19.63-0.27,26.2
		c-0.35,1.53-2.77,6.1-5.49,8.96c-2.7,2.84-5.56,5.33-6.63,6.25c-0.7-1.04-2.14-3.74-0.46-6.3c0.86-1.31,4.45-4.51,4.67-5.35
		c0.01-0.03,0.18-2.54,0.88-5.15c0.02-0.08,0.02-0.14,0.02-0.21c0.34-1.58,0.35-2.99,0.12-4.2c-0.18-3.56-4.25-6.87-6.1-7.53
		c0.39,0.53,1.31,1.62,2.29,2.93c-0.27-0.01-0.53,0.06-0.77,0.21c-1.59,1.02-1.9,3.28-2.22,5.66c-0.25,1.88-0.52,3.82-1.4,5.23
		c-1.32,2.09-2.7,1.09-2.87-0.62c-0.21-2.09-0.31-4.88-0.29-7.44l0.08-1.44c0.29-5.34,0.93-8.89,3.25-12.57
		c0.45-0.72,0.77-1.55,0.98-2.49c2.02-6.06,2.97-12.62,2.93-19.28c1.06,3.36,2.36,7.07,2.93,10.11c0.56,2.98,0.64,6.34,1.61,9.22
		c0.58,1.74,2.55,4.05,4.85,3.31c2.24-0.72,1.73-12.72,1.77-14.23c0.2-7.45,0-14.88-0.47-22.31c1.17,4.92,1.68,9.95,1.65,15.16
		C298.65,306.39,298.08,311.53,298.29,317.5z M302.01,277.18c0,0.2,0,0.4,0,0.61c0,0.13-0.01,0.26-0.01,0.39
		c0,0.2-0.01,0.39-0.02,0.6c-0.01,0.15-0.01,0.29-0.02,0.44c-0.01,0.27-0.02,0.54-0.04,0.81c-0.26,4.23-0.73,8.15-1.24,12.3
		c-0.21,1.71-0.46,3.43-0.73,5.19c-0.3-7.11-1.61-14.14-4.68-20.66c-4.03-8.58-8.64-16.47-10.45-25.81
		c0.54-0.26,1.02-0.75,1.41-1.59c0.32-0.69,0.65-1.41,0.97-2.15c1.65,6.44,7.84,10.25,11.75,15.49c0.28,0.44,2.82,4.72,3.04,13.12
		c0,0.08,0,0.17,0,0.25c0.01,0.22,0.01,0.44,0.01,0.67C302.01,276.95,302.01,277.06,302.01,277.18z"/>
</g>
</svg>
