<?xml version="1.0" encoding="utf-8"?>
<!-- Generator: Adobe Illustrator 26.0.1, SVG Export Plug-In . SVG Version: 6.00 Build 0)  -->
<svg version="1.1" id="Layer_1" xmlns="http://www.w3.org/2000/svg" xmlns:xlink="http://www.w3.org/1999/xlink" x="0px" y="0px"
	 viewBox="0 0 432 648" style="enable-background:new 0 0 432 648;" xml:space="preserve">
<style type="text/css">
	.st0{display:none;opacity:0.5;fill:none;stroke:#231F20;stroke-width:0.05;stroke-miterlimit:10;}
	.st1{fill:#FFFFFF;}
	.st2{fill:#E92A2A;}
	.st3{fill:#D52626;}
	.st4{fill:#9A1A1C;}
	.st5{fill:#8D1819;}
</style>
<path class="st0" d="M418.44,444.92c-2.94,1.51-8.31,5.17-9.04,17.27"/>
<g>
	<g id="White_00000129885143533219950000000004513706707098974092_">
		<path class="st1" d="M299.02,262.48v-8.71c0-8.5-6.36-17.76-7.25-19.02c-0.09-1.63-0.79-14-1.99-19.84
			c-1.13-5.51-3.16-10.79-3.57-11.85c0.32-0.94,1.7-5.12,2.49-10.22c0.92-5.87-3.07-20.28-5.46-26.36c-1.59-4.03-4.9-5.56-7.57-6.79
			c-1.44-0.66-2.69-1.24-3.39-2.06c-1.8-2.1-3.59-2.67-5.17-3.18c-0.41-0.13-0.82-0.26-1.2-0.42c-0.61-0.24-1.14-0.73-1.96-1.47
			c-1.38-1.25-3.47-3.15-7.93-5.74c-2.58-1.5-6.41-3.25-10.46-5.11c-6.07-2.78-12.95-5.93-14.55-7.92c-0.65-0.81-1.6-3.52-2.46-6.36
			c0.49-0.97,1.84-3.64,1.96-4.06c0.52-1.81,0.58-4.28,0.56-5.78c0.3,0.14,0.67,0.22,1.11,0.17c1.49-0.18,2.89-2.5,4.56-5.52
			c0.47-0.85,0.91-1.65,1.25-2.13c1.45-2.07,1.13-6.54,0.07-9.89c-0.31-0.98-0.83-1.54-1.56-1.68c-1-0.18-2.09,0.57-2.87,1.29
			c0.15-4.18,0.09-15.92-4.73-21.71c-4.15-4.98-12.46-6.22-15.61-6.52l0-0.09c-0.06,0-0.28,0.01-0.62,0.04
			c-0.34-0.03-0.56-0.03-0.62-0.04l0,0.09c-3.15,0.3-11.45,1.54-15.6,6.52c-4.82,5.79-4.88,17.53-4.73,21.71
			c-0.78-0.72-1.87-1.47-2.87-1.29c-0.73,0.13-1.25,0.7-1.56,1.68c-1.06,3.35-1.37,7.83,0.07,9.89c0.34,0.49,0.78,1.28,1.25,2.13
			c1.67,3.02,3.07,5.34,4.56,5.52c0.44,0.05,0.81-0.03,1.11-0.17c-0.02,1.5,0.04,3.97,0.56,5.78c0.12,0.41,1.45,3.04,1.95,4.03
			c-0.87,2.85-1.81,5.58-2.47,6.39c-1.61,1.99-8.49,5.14-14.55,7.92c-4.05,1.86-7.88,3.61-10.46,5.11
			c-4.46,2.59-6.55,4.48-7.93,5.74c-0.81,0.74-1.35,1.23-1.96,1.47c-0.38,0.15-0.79,0.28-1.2,0.42c-1.58,0.51-3.37,1.08-5.17,3.18
			c-0.7,0.82-1.95,1.39-3.39,2.06c-2.66,1.23-5.98,2.76-7.57,6.79c-2.39,6.08-6.38,20.49-5.46,26.36c0.8,5.1,2.17,9.29,2.49,10.22
			c-0.42,1.06-2.44,6.34-3.57,11.85c-1.2,5.84-1.91,18.21-1.99,19.84c-0.9,1.26-7.25,10.52-7.25,19.02v8.71
			c-0.6,0.98-3.75,6.66-3.08,17.76c0.26,4.25,0.73,8.17,1.24,12.32c0.9,7.39,2.72,15.03,2.37,24.93
			c-0.53,15.08-0.4,27.99,1.47,33.73c0.81,2.48,5.18,14.88,5.38,15.4c0,0,0.17,0.57,0.72,0.4c0.03-0.01,2.79-0.79,3.09-4.42
			l1.15,1.17c0.2,0.21,0.54,0.18,0.71-0.05l0.05-0.08c0.09-0.12,1.37-1.95,1.76-4.24c0.81-1.25,2.46-4.43,0.47-7.47
			c-0.82-1.26-3.8-4.31-4.49-5.01c-0.05-0.63-0.25-2.59-0.78-4.72c-0.46-2.59-0.19-4.52,0.39-5.85c0.16-0.32,0.34-0.64,0.53-0.95
			c0.45-0.63,0.98-1.03,1.48-1.22c0.13-0.05,0.2-0.03,0.28,0.02c1.17,0.75,1.44,2.76,1.72,4.88c0.27,1.99,0.62,4,1.56,5.64
			c1.15,2.03,4.44,2.79,4.87-1.08c0.3-2.75,0.3-6.13,0.29-7.57l-0.08-1.45c-0.31-5.52-0.51-8.34-3.48-13.16
			c-1.3-2.11-1.32-3.29-0.5-11.5c0.4-4,2.96-10.52,5.58-17.43c2.98-7.9,6.07-16.06,6.27-20.8c0.31-7.34-0.66-10.98-1.01-12.04
			c0.62-0.74,2.35-3.04,2.81-6c0.55-3.45,0.38-9.44,0.36-9.59c0.02-0.1,1.83-10.45,4.81-15.19c2.2-3.5,5.18-9.72,6.63-13.42
			c0.81,3.67,1.52,6.65,1.99,8.05c0.74,2.21,1.67,4.67,2.58,7.05c1.29,3.39,2.52,6.6,2.83,8.27c0.31,1.64,0.39,9.97,0.24,24.75
			c-0.01,0.77-0.01,1.28-0.01,1.43c-0.03,0.28-0.65,1.39-1.21,2.37c-1.88,3.32-5.01,8.87-4.43,13.56c0.65,5.23,1.44,7.42,1.73,8.07
			c-0.59,1.89-4.97,16.2-4.3,26.52c0.23,3.6-1.18,9.22-2.97,16.33c-2.31,9.17-5.18,20.58-6.15,33.75
			c-1.44,19.48,2.66,51.48,4.2,63.53c0.33,2.58,0.55,4.28,0.58,4.8c0.08,1.27-0.04,2.15-0.18,3.17c-0.19,1.38-0.4,2.95-0.18,5.89
			c0.05,0.67,0.2,1.46,0.45,2.35c-1.09,2.81-2.08,5.61-2.94,8.2c-7.21,16.22-4,33.45-0.9,50.11c0.67,3.61,1.37,7.35,1.94,11
			l0.09,0.84c0.73,6.58,1.49,13.38-0.15,19.6c-0.83,3.15-1.7,4.99-2.35,6.13c0,0-0.01,0.01-0.01,0.01
			c-0.06,0.05-0.08,0.11-0.09,0.17c-0.15,0.26-0.29,0.49-0.4,0.68c-0.11,0.19-0.21,0.35-0.29,0.49c-0.66,1.19-0.66,2.54-0.38,3.85
			c-0.19,0.51-1.62,4.1-5.25,6.16c-3.41,1.93-6.46,3.22-7.55,3.76c-2.55-0.41-5.55,0.37-6.15,1.02c-0.46,0.49-0.93,1.25-0.93,3.15
			c0,1.84,2.21,2.68,3.2,2.96c0,0.66,0.16,1.87,1.06,3.27c1.29,2,9.28,4.53,12.66,5.52c1.15,0.34,3.38,1.87,5.35,3.22
			c1.85,1.27,3.6,2.48,4.67,2.88c1.09,0.41,3.4,0.81,6.11,0.81c3.32,0,7.24-0.59,10.26-2.48c5.71-3.57,1.78-18.39,1.61-19.02
			c-0.2-0.74-0.42-1.56-0.65-2.41c-0.71-2.68-1.52-5.71-2.34-8.17c0.03-0.93,0.51-1.9,1.03-2.93c0.56-1.12,1.14-2.29,1.14-3.5
			l-0.02-0.14c-5.16-18.59,2.5-36.05,9.92-52.95l0.95-2.18c0.36-1.43,0.84-2.89,1.32-4.3c0.96-2.89,1.96-5.88,1.96-8.92
			c-0.46-4.14-1.66-8.19-2.94-12.47c-0.76-2.54-1.77-6.29-2.67-9.7c4.41-6.72,8.29-15.27,9.23-20.35c0.7-3.79,1.3-10.97,2-19.28
			c0.62-7.34,1.32-15.66,2.17-22.3c1.05-8.2,3.22-17.46,4.97-24.89c1.19-5.09,2.22-9.48,2.56-12.13c0.75-5.86-0.34-12.74-0.59-14.17
			c0.68-2.1,0.97-4.49,1.03-6.93c0.06,2.43,0.35,4.82,1.03,6.93c-0.25,1.43-1.33,8.31-0.59,14.17c0.34,2.65,1.37,7.04,2.56,12.13
			c1.74,7.44,3.91,16.69,4.97,24.89c0.85,6.64,1.55,14.96,2.17,22.3c0.7,8.31,1.3,15.48,2,19.28c0.93,5.08,4.8,13.61,9.2,20.32
			c-0.94,3.56-1.98,7.42-2.67,9.73c-1.27,4.28-2.48,8.33-2.94,12.47c0,3.04,0.99,6.03,1.96,8.92c0.47,1.41,0.96,2.88,1.32,4.3
			l0.95,2.18c7.41,16.89,15.08,34.36,9.92,52.95l-0.02,0.14c0,1.21,0.58,2.38,1.14,3.5c0.51,1.03,1,2,1.03,2.93
			c-0.82,2.47-1.62,5.5-2.34,8.17c-0.23,0.86-0.45,1.68-0.65,2.41c-0.17,0.63-4.1,15.45,1.61,19.02c3.02,1.89,6.94,2.48,10.26,2.48
			c2.71,0,5.02-0.4,6.11-0.81c1.07-0.4,2.82-1.6,4.67-2.88c1.97-1.35,4.19-2.88,5.35-3.22c3.38-0.99,11.37-3.52,12.66-5.52
			c0.9-1.4,1.06-2.62,1.06-3.27c0.99-0.28,3.2-1.12,3.2-2.96c0-1.91-0.47-2.66-0.93-3.15c-0.61-0.65-3.6-1.43-6.15-1.02
			c-1.09-0.55-4.14-1.83-7.55-3.76c-3.63-2.06-5.06-5.65-5.25-6.16c0.28-1.31,0.27-2.67-0.38-3.85c-0.08-0.14-0.17-0.3-0.29-0.49
			c-0.12-0.19-0.25-0.42-0.4-0.68c-0.01-0.06-0.03-0.12-0.09-0.17c0,0-0.01-0.01-0.01-0.01c-0.64-1.15-1.52-2.99-2.35-6.13
			c-1.64-6.22-0.88-13.02-0.15-19.6l0.09-0.84c0.58-3.65,1.27-7.39,1.94-11c3.1-16.66,6.31-33.89-0.9-50.11
			c-0.86-2.59-1.85-5.38-2.93-8.19c0.25-0.89,0.41-1.69,0.46-2.36c0.21-2.94,0-4.51-0.18-5.89c-0.14-1.02-0.25-1.89-0.18-3.17
			c0.03-0.52,0.25-2.22,0.58-4.8c1.54-12.05,5.64-44.05,4.2-63.53c-0.97-13.17-3.84-24.58-6.15-33.75
			c-1.79-7.11-3.21-12.73-2.97-16.33c0.67-10.32-3.7-24.64-4.3-26.52c0.29-0.66,1.08-2.84,1.73-8.07
			c0.58-4.69-2.56-10.24-4.43-13.56c-0.55-0.98-1.18-2.09-1.21-2.37c0-0.15,0-0.66-0.01-1.43c-0.14-14.78-0.06-23.11,0.24-24.75
			c0.31-1.67,1.54-4.88,2.83-8.27c0.91-2.38,1.84-4.83,2.58-7.05c0.46-1.39,1.18-4.36,1.98-8.02c1.46,3.7,4.42,9.9,6.62,13.38
			c2.99,4.74,4.8,15.09,4.81,15.19c-0.01,0.15-0.18,6.14,0.36,9.59c0.47,2.97,2.19,5.26,2.81,6c-0.35,1.05-1.31,4.7-1.01,12.04
			c0.2,4.74,3.28,12.9,6.27,20.8c2.61,6.91,5.18,13.43,5.58,17.43c0.82,8.22,0.8,9.39-0.5,11.5c-2.97,4.82-3.17,7.64-3.48,13.16
			l-0.08,1.45c-0.01,1.44-0.02,4.82,0.29,7.57c0.43,3.87,3.72,3.1,4.87,1.08c0.94-1.65,1.29-3.66,1.56-5.64
			c0.29-2.12,0.56-4.13,1.72-4.88c0.08-0.05,0.15-0.07,0.28-0.02c0.51,0.19,1.03,0.59,1.48,1.22c0.19,0.32,0.37,0.64,0.53,0.95
			c0.58,1.33,0.85,3.26,0.39,5.85c-0.54,2.13-0.73,4.09-0.78,4.72c-0.69,0.71-3.67,3.75-4.49,5.01c-1.99,3.04-0.34,6.23,0.47,7.47
			c0.39,2.29,1.68,4.12,1.76,4.24l0.05,0.08c0.17,0.23,0.51,0.26,0.71,0.05l1.15-1.17c0.29,3.62,3.06,4.41,3.09,4.42
			c0.55,0.17,0.72-0.4,0.72-0.4c0.2-0.53,4.57-12.93,5.38-15.4c1.87-5.74,2-18.65,1.47-33.73c-0.35-9.89,1.48-17.53,2.37-24.93
			c0.5-4.15,0.98-8.07,1.24-12.32C302.77,269.15,299.62,263.46,299.02,262.48z"/>
	</g>
	<g id="Lats_00000021119565058323997180000009470800763511265417_">
		<g>
			<path class="st2" d="M216.28,236.6c0.56,8.31,2.3,16.65,4.35,24.69c0.88,3.43,1.95,6.8,2.88,10.21c0.66,2.38,1.38,5.24,3.46,6.83
				c3.05,2.35,4.47-2.11,4.88-4.45c1.2-6.79,4.94-13.84,7.93-20.02c2.96-6.13,5.94-12.3,9.09-18.37l0.08-0.17
				c0.54-1.53,1.13-3.25,1.82-5.08c0.9-2.37,1.83-4.82,2.56-7c0.96-2.87,3.06-12.89,4.79-21.57c-4.1,4.69-15.43,2.57-20.27,0.99
				c-0.88,2.98-2.22,5.92-3.96,8.9c-4.83,8.28-10.59,16.57-16.59,24.03C216.94,236.06,216.6,236.39,216.28,236.6"/>
			<path class="st3" d="M216.32,237.15c-0.01-0.19-0.03-0.37-0.04-0.55c0.07-0.05,0.15-0.1,0.22-0.16c13.21-2.63,25-8.83,34.5-18.1
				c0,0.22,0,0.45,0,0.67c0,0.08,0,0.17,0,0.25C241.42,228.45,229.56,234.59,216.32,237.15"/>
			<path class="st3" d="M239.55,214.86c-2.34,0-4.68-0.35-6.97-1.05c0.12-0.19,0.24-0.39,0.35-0.59c2.18,0.65,4.41,0.97,6.63,0.97
				c3.77,0,7.38-0.94,10.57-2.68c0.06,0.21,0.12,0.43,0.18,0.64C247.04,213.92,243.37,214.86,239.55,214.86"/>
			<path class="st3" d="M244.23,209.68c-2.86,0-5.67-0.61-8.37-1.8c0.1-0.2,0.19-0.41,0.28-0.61c2.61,1.16,5.34,1.74,8.11,1.74
				c1.57,0,3.11-0.19,4.61-0.55c0.11,0.2,0.22,0.4,0.32,0.6C247.58,209.48,245.92,209.68,244.23,209.68"/>
			<path class="st3" d="M227.33,278.58c-0.12-0.07-0.24-0.16-0.36-0.25c-0.08-0.06-0.15-0.12-0.23-0.18
				c0.75-3.24,1.72-6.41,2.86-9.49c-0.24,1.13-0.4,2.27-0.47,3.42C228.43,274.21,227.83,276.38,227.33,278.58 M223.84,272.66
				c-0.11-0.39-0.22-0.78-0.32-1.16c-0.02-0.08-0.04-0.15-0.06-0.23c2.27-9.59,9.01-17.65,15.54-25.45
				c3.78-4.51,7.63-9.15,10.67-14.11c-0.29,1.38-0.64,2.75-1.03,4.11c-0.15,0.29-0.3,0.57-0.44,0.86
				c-3.71,5.4-7.65,11.31-11.17,17.66c-0.96,1.18-1.87,2.39-2.71,3.65c3.77-7.38,8.27-14.3,12.72-20.8
				c-1.79,2.45-3.68,4.79-5.57,7.02c-0.55,0.64-1.09,1.29-1.64,1.93c-3.89,4.57-7.92,9.3-11.15,14.52c-1.7,2.74-3.1,5.93-4.29,9.74
				C224.18,271.1,224.01,271.84,223.84,272.66 M221.58,264.75c-0.14-0.48-0.28-0.97-0.41-1.46c2.08-9.25,9.57-15.62,16.83-21.79
				c4.33-3.68,8.78-7.46,12.07-11.85c-0.08,0.46-0.17,0.93-0.26,1.39c-3.21,3.98-7.3,7.47-11.3,10.86
				C230.96,248.3,223.17,254.91,221.58,264.75"/>
			<path class="st3" d="M216.89,242.68c-0.03-0.22-0.06-0.44-0.08-0.66c13.29-2.94,25.18-9.96,34.13-20.03
				c-0.02,0.35-0.04,0.7-0.06,1.05C241.87,232.91,230.04,239.79,216.89,242.68"/>
			<path class="st3" d="M223.09,228.06c0.18-0.25,0.36-0.5,0.54-0.75c10.14-1.43,19.56-5.59,27.22-11.95
				c0.03,0.27,0.05,0.53,0.07,0.8C243.07,222.57,233.43,226.71,223.09,228.06"/>
			<path class="st3" d="M232.93,219.54c-1.27,0-2.55-0.08-3.81-0.24c0.14-0.21,0.27-0.42,0.4-0.62c1.13,0.13,2.27,0.19,3.41,0.19
				c6.28,0,12.47-1.98,17.63-5.49c0.04,0.24,0.08,0.47,0.12,0.71C245.47,217.58,239.23,219.54,232.93,219.54"/>
			<path class="st3" d="M217.85,248.82c-0.04-0.22-0.08-0.44-0.12-0.66c13.33-3.18,24.78-10.79,32.81-21.7
				c-0.05,0.44-0.11,0.88-0.18,1.32C242.26,238.34,230.93,245.71,217.85,248.82"/>
			<path class="st4" d="M249.66,231.71c0.05-0.22,0.09-0.44,0.14-0.67c0.36-0.45,0.72-0.91,1.06-1.37
				C250.48,230.36,250.08,231.04,249.66,231.71 M250.07,229.66c0.11-0.62,0.21-1.25,0.3-1.87c0.96-1.25,1.88-2.55,2.74-3.89
				c-0.3,0.87-0.62,1.77-0.96,2.69c-0.04,0.02-0.08,0.06-0.11,0.11C251.45,227.71,250.79,228.7,250.07,229.66 M250.55,226.46
				c0.14-1.14,0.25-2.28,0.33-3.43c1.28-1.4,2.5-2.87,3.67-4.39c-0.25,1.08-0.49,2.04-0.7,2.84
				C252.82,223.21,251.72,224.87,250.55,226.46 M250.93,221.99c0.04-0.91,0.07-1.82,0.07-2.73c1.54-1.48,3.03-3.03,4.44-4.67
				c-0.19,0.86-0.37,1.68-0.55,2.46C253.66,218.77,252.33,220.41,250.93,221.99 M251,218.34c-0.01-0.72-0.04-1.45-0.09-2.17
				c1.85-1.51,3.61-3.15,5.25-4.9c-0.14,0.67-0.28,1.32-0.42,1.97C254.24,215.02,252.65,216.73,251,218.34 M250.85,215.37
				c-0.04-0.42-0.09-0.84-0.16-1.26c2.19-1.46,4.2-3.19,5.96-5.15c-0.07,0.35-0.14,0.7-0.22,1.04
				C254.7,211.93,252.83,213.72,250.85,215.37 M250.57,213.39c-0.08-0.41-0.16-0.82-0.27-1.23c2.56-1.38,4.88-3.26,6.83-5.58
				c-0.07,0.35-0.14,0.7-0.22,1.05l-0.1,0.12C255.01,209.92,252.9,211.81,250.57,213.39 M250.13,211.52
				c-0.22-0.74-0.48-1.46-0.81-2.16c-0.04-0.1-0.09-0.19-0.14-0.29c2.99-0.76,5.8-2.21,8.32-4.31c-0.03,0.14-0.06,0.28-0.09,0.42
				C255.41,207.85,252.92,209.99,250.13,211.52 M248.86,208.47c-1.03-1.8-2.53-3.35-4.33-4.29c1.55,0.22,3.18,0.36,4.77,0.36
				c3.57,0,6.95-0.72,8.82-2.85c-0.13,0.67-0.27,1.34-0.41,2.02C255.07,206.08,252.07,207.68,248.86,208.47"/>
			<path class="st4" d="M228.59,279.01c-0.2,0-0.42-0.04-0.64-0.11c0.47-0.39,0.82-0.95,0.99-1.54c0.31-1.05,0.18-2.18,0.14-3.27
				c-0.02-0.67-0.01-1.33,0.03-1.99c2.03-6.22,4.8-12.15,7.9-17.73c1.69-2.08,3.52-4.04,5.4-5.97c-0.89,1.84-1.77,3.67-2.65,5.5
				c-2.98,6.17-6.68,13.23-7.88,20.02c-0.28,1.62-1.1,4.24-2.55,4.94C229.11,278.95,228.86,279.01,228.59,279.01 M229.59,268.68
				c0.78-3.61,2.38-7.07,4.4-10.18c0.1-0.16,0.21-0.32,0.31-0.48C232.54,261.47,230.94,265.02,229.59,268.68"/>
			<path class="st5" d="M229.13,272.08c0.07-1.15,0.23-2.29,0.47-3.42c1.35-3.66,2.95-7.21,4.71-10.66
				c0.84-1.26,1.76-2.48,2.71-3.65C233.93,259.93,231.15,265.86,229.13,272.08"/>
			<path class="st5" d="M251.01,219.26c0-0.08,0-0.17,0-0.25c0-0.22,0-0.45,0-0.67c1.65-1.61,3.23-3.32,4.74-5.11
				c-0.1,0.46-0.2,0.92-0.29,1.36C254.03,216.22,252.55,217.78,251.01,219.26"/>
			<path class="st5" d="M250.31,212.16c-0.05-0.22-0.11-0.43-0.18-0.64c2.79-1.52,5.27-3.66,7.29-6.34
				c-0.09,0.47-0.19,0.94-0.29,1.41C255.19,208.9,252.87,210.78,250.31,212.16"/>
			<path class="st5" d="M249.18,209.07c-0.1-0.2-0.21-0.4-0.32-0.6c3.2-0.78,6.21-2.39,8.86-4.76c-0.07,0.35-0.14,0.7-0.21,1.05
				C254.98,206.85,252.17,208.31,249.18,209.07"/>
			<path class="st5" d="M248.64,235.82c0.39-1.36,0.73-2.73,1.03-4.11c0.41-0.67,0.81-1.35,1.19-2.04
				c-0.34,0.46-0.69,0.92-1.06,1.37c0.09-0.46,0.18-0.93,0.26-1.39c0.72-0.96,1.38-1.94,1.98-2.97c0.03-0.05,0.06-0.08,0.11-0.11
				c-0.45,1.21-0.92,2.45-1.38,3.66c-0.44,1.15-0.9,2.26-1.29,3.31c-0.05,0.08-0.43,1.26-0.62,1.82"/>
			<path class="st5" d="M250.87,223.03c0.02-0.35,0.04-0.7,0.06-1.05c1.4-1.57,2.72-3.22,3.97-4.94c-0.13,0.56-0.25,1.09-0.37,1.59
				C253.38,220.16,252.16,221.63,250.87,223.03"/>
			<path class="st5" d="M250.92,216.17c-0.02-0.27-0.04-0.54-0.07-0.8c1.99-1.65,3.85-3.44,5.58-5.37
				c-0.09,0.43-0.18,0.85-0.27,1.27C254.52,213.02,252.77,214.66,250.92,216.17"/>
			<path class="st5" d="M250.69,214.1c-0.04-0.24-0.08-0.48-0.12-0.71c2.32-1.58,4.43-3.47,6.25-5.63l0.1-0.12
				c-0.09,0.44-0.18,0.88-0.27,1.32C254.89,210.92,252.88,212.64,250.69,214.1"/>
			<path class="st5" d="M250.37,227.78c0.06-0.44,0.12-0.88,0.18-1.32c1.17-1.59,2.27-3.25,3.29-4.98
				c-0.19,0.73-0.36,1.33-0.51,1.76c-0.07,0.22-0.15,0.43-0.22,0.65C252.25,225.24,251.33,226.53,250.37,227.78"/>
		</g>
		<g>
			<g>
				<path class="st2" d="M208.85,236.61c-0.56,8.31-2.3,16.65-4.35,24.69c-0.88,3.43-1.95,6.8-2.88,10.21
					c-0.66,2.38-1.38,5.24-3.46,6.83c-3.05,2.35-4.47-2.11-4.88-4.45c-1.2-6.79-4.94-13.84-7.93-20.02
					c-2.96-6.13-5.94-12.3-9.09-18.37l-0.08-0.17c-0.54-1.53-1.13-3.25-1.82-5.08c-0.9-2.37-1.83-4.82-2.56-7
					c-0.96-2.87-3.06-12.89-4.79-21.57c4.1,4.69,15.43,2.57,20.27,0.99c0.88,2.98,2.22,5.92,3.96,8.9
					c4.83,8.28,10.59,16.57,16.59,24.03C208.19,236.07,208.53,236.4,208.85,236.61"/>
				<path class="st3" d="M208.8,237.16c0.01-0.19,0.03-0.37,0.04-0.55c-0.07-0.05-0.15-0.1-0.22-0.16c-13.21-2.63-25-8.83-34.5-18.1
					c0,0.22,0,0.45,0,0.67c0,0.08,0,0.17,0,0.25C183.7,228.46,195.56,234.6,208.8,237.16"/>
				<path class="st3" d="M185.57,214.87c2.34,0,4.68-0.35,6.97-1.05c-0.12-0.19-0.24-0.39-0.35-0.59c-2.18,0.65-4.41,0.97-6.63,0.97
					c-3.77,0-7.38-0.94-10.57-2.68c-0.06,0.21-0.12,0.43-0.18,0.64C178.08,213.93,181.75,214.87,185.57,214.87"/>
				<path class="st3" d="M180.89,209.7c2.86,0,5.67-0.61,8.37-1.8c-0.1-0.2-0.19-0.41-0.28-0.61c-2.61,1.16-5.34,1.74-8.11,1.74
					c-1.57,0-3.11-0.19-4.61-0.55c-0.11,0.2-0.22,0.4-0.32,0.6C177.55,209.49,179.2,209.7,180.89,209.7"/>
				<path class="st3" d="M197.8,278.59c-0.5-2.2-1.18-4.6-1.88-6.74c-0.07-1.15-0.11-2.06-0.36-3.19c1.14,3.08,2.07,6.25,2.82,9.49
					c-0.07,0.06-0.15,0.13-0.23,0.18C198.03,278.44,197.91,278.52,197.8,278.59 M201.28,272.67c-0.17-0.82-0.35-1.56-0.54-2.26
					c-1.19-3.81-2.59-6.99-4.29-9.74c-3.23-5.23-7.26-9.95-11.15-14.52c-0.55-0.64-1.09-1.29-1.64-1.93
					c-1.89-2.23-3.79-4.57-5.57-7.02c4.45,6.51,8.96,13.42,12.72,20.8c-0.84-1.26-1.76-2.48-2.71-3.65
					c-3.52-6.35-7.46-12.26-11.17-17.66c-0.15-0.29-0.3-0.58-0.44-0.86c-0.39-1.36-0.73-2.73-1.03-4.11
					c3.04,4.96,6.9,9.59,10.67,14.11c6.53,7.8,13.27,15.86,15.54,25.45c-0.02,0.08-0.04,0.15-0.06,0.23
					C201.5,271.89,201.4,272.28,201.28,272.67 M203.55,264.76c-1.6-9.84-9.39-16.44-16.93-22.84c-4-3.4-8.09-6.88-11.3-10.86
					c-0.09-0.46-0.18-0.93-0.26-1.39c3.29,4.39,7.74,8.17,12.07,11.85c7.26,6.17,14.75,12.54,16.83,21.79
					C203.82,263.79,203.69,264.27,203.55,264.76"/>
				<path class="st3" d="M208.23,242.69c0.03-0.22,0.06-0.44,0.08-0.66c-13.29-2.94-25.18-9.96-34.13-20.03
					c0.02,0.35,0.04,0.7,0.06,1.05C183.25,232.92,195.08,239.8,208.23,242.69"/>
				<path class="st3" d="M202.03,228.07c-0.18-0.25-0.36-0.5-0.54-0.75c-10.14-1.43-19.56-5.59-27.22-11.95
					c-0.03,0.27-0.05,0.53-0.07,0.8C182.06,222.58,191.69,226.73,202.03,228.07"/>
				<path class="st3" d="M192.19,219.55c1.27,0,2.55-0.08,3.81-0.24c-0.14-0.21-0.27-0.42-0.4-0.62c-1.13,0.13-2.27,0.19-3.41,0.19
					c-6.28,0-12.47-1.98-17.63-5.49c-0.04,0.24-0.08,0.47-0.12,0.71C179.65,217.59,185.89,219.55,192.19,219.55"/>
				<path class="st3" d="M207.27,248.83c0.04-0.22,0.08-0.44,0.12-0.66c-13.33-3.18-24.78-10.79-32.81-21.7
					c0.05,0.44,0.11,0.88,0.18,1.32C182.86,238.35,194.19,245.72,207.27,248.83"/>
				<path class="st4" d="M175.46,231.72c-0.41-0.67-0.81-1.35-1.19-2.04c0.34,0.46,0.69,0.92,1.06,1.37
					C175.36,231.28,175.41,231.5,175.46,231.72 M175.06,229.67c-0.72-0.96-1.38-1.94-1.98-2.97c-0.03-0.05-0.06-0.08-0.11-0.11
					c-0.34-0.92-0.66-1.82-0.96-2.69c0.87,1.34,1.78,2.63,2.74,3.89C174.84,228.42,174.94,229.04,175.06,229.67 M174.57,226.47
					c-1.17-1.59-2.27-3.25-3.29-4.98c-0.21-0.8-0.45-1.76-0.7-2.84c1.16,1.52,2.39,2.99,3.67,4.39
					C174.32,224.19,174.43,225.33,174.57,226.47 M174.19,222c-1.4-1.57-2.72-3.22-3.97-4.94c-0.18-0.78-0.36-1.6-0.55-2.46
					c1.42,1.63,2.9,3.19,4.44,4.67C174.12,220.18,174.14,221.09,174.19,222 M174.12,218.35c-1.65-1.61-3.23-3.32-4.74-5.11
					c-0.14-0.64-0.28-1.3-0.42-1.97c1.64,1.75,3.4,3.39,5.25,4.9C174.16,216.9,174.13,217.63,174.12,218.35 M174.27,215.38
					c-1.99-1.65-3.85-3.44-5.58-5.37c-0.07-0.34-0.14-0.69-0.22-1.04c1.76,1.96,3.77,3.69,5.96,5.15
					C174.37,214.53,174.32,214.95,174.27,215.38 M174.55,213.4c-2.32-1.58-4.43-3.47-6.25-5.63l-0.1-0.12
					c-0.07-0.35-0.14-0.7-0.22-1.05c1.95,2.32,4.26,4.2,6.83,5.58C174.71,212.58,174.63,212.99,174.55,213.4 M174.99,211.53
					c-2.79-1.52-5.27-3.66-7.29-6.34c-0.03-0.14-0.06-0.28-0.09-0.42c2.53,2.1,5.34,3.55,8.32,4.31c-0.05,0.1-0.1,0.19-0.14,0.29
					C175.47,210.07,175.21,210.79,174.99,211.53 M176.26,208.48c-3.2-0.78-6.21-2.39-8.86-4.76c-0.14-0.68-0.27-1.35-0.41-2.02
					c1.87,2.13,5.25,2.85,8.82,2.85c1.59,0,3.22-0.14,4.77-0.36C178.79,205.12,177.29,206.68,176.26,208.48"/>
				<path class="st5" d="M174.12,219.27c0-0.08,0-0.17,0-0.25c0-0.22,0-0.45,0-0.67c-1.65-1.61-3.23-3.32-4.74-5.11
					c0.1,0.46,0.2,0.92,0.29,1.36C171.09,216.23,172.57,217.79,174.12,219.27"/>
				<path class="st5" d="M174.82,212.17c0.05-0.22,0.11-0.43,0.18-0.64c-2.79-1.52-5.27-3.66-7.29-6.34
					c0.09,0.47,0.19,0.94,0.29,1.41C169.94,208.92,172.25,210.79,174.82,212.17"/>
				<path class="st5" d="M175.94,209.08c0.1-0.2,0.21-0.4,0.32-0.6c-3.2-0.78-6.21-2.39-8.86-4.76c0.07,0.35,0.14,0.7,0.21,1.05
					C170.14,206.86,172.95,208.32,175.94,209.08"/>
				<path class="st5" d="M176.48,235.83c-0.39-1.36-0.73-2.73-1.03-4.11c-0.41-0.67-0.81-1.35-1.19-2.04
					c0.34,0.46,0.69,0.92,1.06,1.37c-0.09-0.46-0.18-0.93-0.26-1.39c-0.72-0.96-1.38-1.94-1.98-2.97c-0.03-0.05-0.06-0.08-0.11-0.11
					c0.45,1.21,0.92,2.45,1.38,3.66c0.44,1.15,0.9,2.26,1.29,3.31c0.05,0.08,0.43,1.26,0.62,1.82"/>
				<path class="st5" d="M174.25,223.04c-0.02-0.35-0.04-0.7-0.06-1.05c-1.4-1.57-2.72-3.22-3.97-4.94
					c0.13,0.56,0.25,1.09,0.37,1.59C171.74,220.17,172.97,221.64,174.25,223.04"/>
				<path class="st5" d="M174.21,216.18c0.02-0.27,0.04-0.54,0.07-0.8c-1.99-1.65-3.85-3.44-5.58-5.37
					c0.09,0.43,0.18,0.85,0.27,1.27C170.6,213.03,172.35,214.67,174.21,216.18"/>
				<path class="st5" d="M174.43,214.11c0.04-0.24,0.08-0.48,0.12-0.71c-2.32-1.58-4.43-3.47-6.25-5.63l-0.1-0.12
					c0.09,0.44,0.18,0.88,0.27,1.32C170.23,210.93,172.24,212.65,174.43,214.11"/>
				<path class="st5" d="M174.75,227.79c-0.06-0.44-0.12-0.88-0.18-1.32c-1.17-1.59-2.27-3.25-3.29-4.98
					c0.19,0.73,0.36,1.33,0.51,1.76c0.07,0.22,0.15,0.43,0.22,0.65C172.88,225.25,173.79,226.54,174.75,227.79"/>
				<path class="st4" d="M196.44,279.02c-0.27,0-0.51-0.06-0.74-0.17c-1.45-0.7-2.27-3.32-2.55-4.94
					c-1.2-6.79-4.89-13.85-7.88-20.02c-0.88-1.82-1.76-3.66-2.65-5.5c1.87,1.93,3.93,3.89,5.53,6.04c3.73,5.02,7.53,9.38,7.77,17.66
					c0.02,0.66,0.05,1.33,0.03,1.99c-0.04,1.1-0.17,2.22,0.14,3.27c0.17,0.59,0.53,1.15,0.99,1.54
					C196.86,278.99,196.65,279.02,196.44,279.02"/>
			</g>
			<path class="st5" d="M195.92,271.21c-0.07-1.15-0.07-1.3-0.31-2.43c-1.35-3.66-3.05-7.35-4.81-10.8
				c-0.84-1.26-1.71-2.4-2.67-3.58c3.1,5.58,5.76,11.26,7.78,17.48L195.92,271.21z"/>
		</g>
	</g>
	<path d="M299.02,262.48v-8.71c0-8.5-6.36-17.76-7.25-19.02c-0.09-1.63-0.79-14-1.99-19.84c-1.13-5.51-3.16-10.79-3.57-11.85
		c0.32-0.94,1.7-5.12,2.49-10.22c0.92-5.87-3.07-20.28-5.46-26.36c-1.59-4.03-4.9-5.56-7.57-6.79c-1.44-0.66-2.69-1.24-3.39-2.06
		c-1.8-2.1-3.59-2.67-5.17-3.18c-0.41-0.13-0.82-0.26-1.2-0.42c-0.61-0.24-1.14-0.73-1.96-1.47c-1.38-1.25-3.47-3.15-7.93-5.74
		c-2.58-1.5-6.41-3.25-10.46-5.11c-6.07-2.78-12.95-5.93-14.55-7.92c-0.65-0.81-1.6-3.52-2.46-6.36c0.49-0.97,1.84-3.64,1.96-4.06
		c0.52-1.81,0.58-4.28,0.56-5.78c0.3,0.14,0.67,0.22,1.11,0.17c1.49-0.18,2.89-2.5,4.56-5.52c0.47-0.85,0.91-1.65,1.25-2.13
		c1.45-2.07,1.13-6.54,0.07-9.89c-0.31-0.98-0.83-1.54-1.56-1.68c-1-0.18-2.09,0.57-2.87,1.29c0.15-4.18,0.09-15.92-4.73-21.71
		c-4.15-4.98-12.46-6.22-15.61-6.52h-1.24c-3.15,0.3-11.45,1.54-15.6,6.52c-4.82,5.79-4.88,17.53-4.73,21.71
		c-0.78-0.72-1.87-1.47-2.87-1.29c-0.73,0.13-1.25,0.7-1.56,1.68c-1.06,3.35-1.37,7.83,0.07,9.89c0.34,0.49,0.78,1.28,1.25,2.13
		c1.67,3.02,3.07,5.34,4.56,5.52c0.44,0.05,0.81-0.03,1.11-0.17c-0.02,1.5,0.04,3.97,0.56,5.78c0.12,0.41,1.45,3.04,1.95,4.03
		c-0.87,2.85-1.81,5.58-2.47,6.39c-1.61,1.99-8.49,5.14-14.55,7.92c-4.05,1.86-7.88,3.61-10.46,5.11c-4.46,2.59-6.55,4.48-7.93,5.74
		c-0.81,0.74-1.35,1.23-1.96,1.47c-0.39,0.15-0.79,0.28-1.2,0.42c-1.58,0.51-3.37,1.08-5.17,3.18c-0.7,0.82-1.95,1.39-3.39,2.06
		c-2.66,1.23-5.98,2.76-7.57,6.79c-2.39,6.08-6.38,20.49-5.46,26.36c0.8,5.1,2.17,9.29,2.49,10.22c-0.42,1.06-2.44,6.34-3.57,11.85
		c-1.2,5.84-1.91,18.21-1.99,19.84c-0.9,1.26-7.25,10.52-7.25,19.02v8.71c-0.6,0.98-3.75,6.66-3.08,17.76
		c0.26,4.25,0.73,8.17,1.24,12.32c0.9,7.39,2.72,15.03,2.37,24.93c-0.53,15.08-0.4,27.99,1.47,33.73c0.81,2.48,5.18,14.88,5.38,15.4
		c0,0,0.17,0.57,0.72,0.4c0.03-0.01,2.79-0.79,3.09-4.42l1.15,1.17c0.2,0.21,0.54,0.18,0.71-0.05l0.05-0.08
		c0.09-0.12,1.37-1.95,1.76-4.24c0.81-1.25,2.46-4.43,0.47-7.47c-0.82-1.26-3.8-4.31-4.49-5.01c-0.05-0.63-0.25-2.59-0.78-4.72
		c-0.46-2.59-0.19-4.52,0.39-5.85c0.16-0.32,0.34-0.64,0.53-0.95c0.45-0.63,0.98-1.03,1.48-1.22c0.13-0.05,0.2-0.03,0.28,0.02
		c1.17,0.75,1.44,2.76,1.72,4.88c0.27,1.99,0.62,4,1.56,5.64c1.15,2.03,4.44,2.79,4.87-1.08c0.3-2.75,0.3-6.13,0.29-7.57l-0.08-1.45
		c-0.31-5.52-0.51-8.34-3.48-13.16c-1.3-2.11-1.32-3.29-0.5-11.5c0.4-4,2.96-10.52,5.58-17.43c2.98-7.9,6.07-16.06,6.27-20.8
		c0.31-7.34-0.66-10.98-1.01-12.04c0.62-0.74,2.35-3.04,2.81-6c0.55-3.45,0.38-9.44,0.36-9.59c0.02-0.1,1.83-10.45,4.81-15.19
		c2.2-3.5,5.18-9.72,6.63-13.42c0.81,3.67,1.52,6.65,1.99,8.05c0.74,2.21,1.67,4.67,2.58,7.05c1.29,3.39,2.52,6.6,2.83,8.27
		c0.31,1.64,0.39,9.97,0.24,24.75c-0.01,0.77-0.01,1.28-0.01,1.43c-0.03,0.28-0.65,1.39-1.21,2.37c-1.88,3.32-5.01,8.87-4.43,13.56
		c0.65,5.23,1.44,7.42,1.73,8.07c-0.59,1.89-4.97,16.2-4.3,26.52c0.23,3.6-1.18,9.22-2.97,16.33c-2.31,9.17-5.18,20.58-6.15,33.75
		c-1.44,19.48,2.66,51.48,4.2,63.53c0.33,2.58,0.55,4.28,0.58,4.8c0.08,1.27-0.04,2.15-0.18,3.17c-0.19,1.38-0.4,2.95-0.18,5.89
		c0.05,0.67,0.2,1.46,0.45,2.35c-1.09,2.81-2.08,5.61-2.94,8.2c-7.21,16.22-4,33.45-0.9,50.11c0.67,3.61,1.37,7.35,1.94,11
		l0.09,0.84c0.73,6.58,1.49,13.38-0.15,19.6c-0.83,3.15-1.7,4.99-2.35,6.13c0,0-0.01,0.01-0.01,0.01c-0.06,0.05-0.08,0.11-0.09,0.17
		c-0.15,0.26-0.29,0.49-0.4,0.68c-0.11,0.19-0.21,0.35-0.29,0.48c-0.66,1.19-0.66,2.54-0.38,3.85c-0.19,0.51-1.62,4.1-5.25,6.16
		c-3.41,1.93-6.46,3.22-7.55,3.76c-2.56-0.42-5.55,0.37-6.15,1.02c-0.46,0.49-0.93,1.25-0.93,3.15c0,1.84,2.21,2.68,3.2,2.96
		c0,0.66,0.16,1.87,1.06,3.27c1.29,2,9.28,4.53,12.66,5.52c1.15,0.34,3.38,1.87,5.35,3.22c1.85,1.27,3.6,2.47,4.67,2.88
		c1.09,0.41,3.4,0.81,6.11,0.81c3.32,0,7.24-0.59,10.26-2.48c5.71-3.57,1.78-18.39,1.61-19.02c-0.2-0.74-0.42-1.56-0.65-2.41
		c-0.71-2.68-1.52-5.71-2.34-8.17c0.03-0.93,0.51-1.9,1.03-2.93c0.56-1.12,1.14-2.29,1.14-3.5l-0.02-0.14
		c-5.16-18.59,2.5-36.05,9.92-52.95l0.95-2.18c0.36-1.43,0.85-2.89,1.32-4.3c0.96-2.89,1.96-5.88,1.96-8.92
		c-0.46-4.14-1.66-8.19-2.94-12.47c-0.75-2.54-1.77-6.29-2.67-9.7c4.41-6.72,8.29-15.27,9.23-20.35c0.7-3.79,1.3-10.97,2-19.28
		c0.62-7.34,1.32-15.66,2.17-22.3c1.05-8.2,3.22-17.46,4.97-24.89c1.19-5.09,2.22-9.48,2.56-12.13c0.75-5.86-0.34-12.74-0.59-14.17
		c0.68-2.1,0.98-4.49,1.03-6.93c0.06,2.43,0.35,4.82,1.03,6.93c-0.25,1.43-1.33,8.31-0.59,14.17c0.34,2.65,1.37,7.04,2.56,12.13
		c1.74,7.44,3.91,16.69,4.97,24.89c0.85,6.64,1.55,14.96,2.17,22.3c0.7,8.31,1.3,15.48,2,19.28c0.93,5.08,4.8,13.61,9.2,20.32
		c-0.94,3.56-1.98,7.42-2.67,9.73c-1.27,4.28-2.48,8.33-2.94,12.47c0,3.04,0.99,6.03,1.96,8.92c0.47,1.41,0.96,2.88,1.32,4.3
		l0.95,2.18c7.41,16.89,15.08,34.36,9.92,52.95l-0.02,0.14c0,1.21,0.58,2.38,1.14,3.5c0.51,1.03,1,2,1.03,2.93
		c-0.82,2.47-1.62,5.5-2.34,8.17c-0.23,0.86-0.45,1.68-0.65,2.41c-0.17,0.63-4.1,15.45,1.61,19.02c3.02,1.89,6.94,2.48,10.26,2.48
		c2.71,0,5.02-0.4,6.11-0.81c1.07-0.4,2.82-1.6,4.67-2.88c1.97-1.35,4.19-2.88,5.35-3.22c3.38-0.99,11.37-3.52,12.66-5.52
		c0.9-1.4,1.06-2.62,1.06-3.27c0.99-0.28,3.2-1.12,3.2-2.96c0-1.91-0.47-2.66-0.93-3.15c-0.61-0.65-3.6-1.43-6.15-1.02
		c-1.09-0.55-4.14-1.83-7.55-3.76c-3.63-2.06-5.06-5.65-5.25-6.16c0.28-1.31,0.27-2.67-0.38-3.85c-0.08-0.14-0.17-0.3-0.29-0.48
		c-0.12-0.19-0.25-0.42-0.4-0.68c-0.01-0.06-0.03-0.12-0.09-0.17c0,0-0.01-0.01-0.01-0.01c-0.64-1.15-1.52-2.99-2.35-6.13
		c-1.64-6.22-0.88-13.02-0.15-19.6l0.09-0.84c0.58-3.65,1.27-7.39,1.94-11c3.1-16.66,6.31-33.89-0.9-50.11
		c-0.86-2.59-1.85-5.38-2.93-8.19c0.25-0.89,0.41-1.69,0.46-2.36c0.21-2.94,0-4.51-0.18-5.89c-0.14-1.02-0.25-1.89-0.18-3.17
		c0.03-0.52,0.25-2.22,0.58-4.8c1.54-12.05,5.64-44.05,4.2-63.53c-0.97-13.17-3.84-24.58-6.15-33.75
		c-1.79-7.11-3.21-12.73-2.97-16.33c0.67-10.32-3.7-24.64-4.3-26.52c0.29-0.66,1.08-2.84,1.73-8.07c0.58-4.69-2.56-10.24-4.43-13.56
		c-0.55-0.98-1.18-2.09-1.21-2.37c0-0.15,0-0.66-0.01-1.43c-0.14-14.78-0.06-23.11,0.24-24.75c0.31-1.67,1.54-4.88,2.83-8.27
		c0.91-2.38,1.84-4.83,2.58-7.05c0.46-1.39,1.18-4.36,1.98-8.02c1.46,3.7,4.42,9.9,6.62,13.38c2.99,4.74,4.8,15.09,4.81,15.19
		c-0.01,0.15-0.18,6.14,0.36,9.59c0.47,2.97,2.19,5.26,2.81,6c-0.35,1.05-1.31,4.7-1.01,12.04c0.2,4.74,3.28,12.9,6.27,20.8
		c2.61,6.91,5.18,13.43,5.58,17.43c0.82,8.22,0.8,9.39-0.5,11.5c-2.97,4.82-3.17,7.64-3.48,13.16l-0.08,1.45
		c-0.01,1.44-0.02,4.82,0.29,7.57c0.43,3.87,3.72,3.1,4.87,1.08c0.94-1.65,1.29-3.66,1.56-5.64c0.29-2.12,0.56-4.13,1.72-4.88
		c0.08-0.05,0.15-0.07,0.28-0.02c0.51,0.19,1.03,0.59,1.48,1.22c0.19,0.32,0.37,0.64,0.53,0.95c0.58,1.33,0.85,3.26,0.39,5.85
		c-0.54,2.13-0.73,4.09-0.78,4.72c-0.69,0.71-3.67,3.75-4.49,5.01c-1.99,3.04-0.34,6.23,0.47,7.47c0.39,2.29,1.68,4.12,1.76,4.24
		l0.05,0.08c0.17,0.23,0.51,0.26,0.71,0.05l1.15-1.17c0.29,3.62,3.06,4.41,3.09,4.42c0.55,0.17,0.72-0.4,0.72-0.4
		c0.2-0.53,4.57-12.93,5.38-15.4c1.87-5.74,2-18.65,1.47-33.73c-0.35-9.89,1.48-17.53,2.37-24.93c0.5-4.15,0.98-8.07,1.24-12.32
		C302.76,269.15,299.62,263.46,299.02,262.48z M290.79,235.26c0.05,0.07,3.24,4.51,5.34,10.01c0.07,0.19,0.14,0.38,0.21,0.57
		c0.03,0.09,0.07,0.19,0.1,0.28c0.07,0.19,0.13,0.37,0.19,0.56c0.77,2.31,1.3,4.74,1.3,7.09v8.13c-4.12-4.98-10.03-8.83-11.18-15.34
		c1.49-3.59,2.89-7.6,4.01-11.33L290.79,235.26z M272.79,159.45c0.72,0.45,1.55,0.83,2.41,1.23c2.62,1.21,5.58,2.57,7.01,6.2
		c2.36,5.98,6.29,20.11,5.4,25.79c-0.68,4.36-1.79,8.02-2.27,9.51c-2.34-2.55-4.83-4.99-7.72-6.83c-4.7-2.99-10.03-4-14.91-6.52
		c-7.8-4.03-8.86-16.46-2.23-22.81C264.28,162.39,268.13,160.12,272.79,159.45z M214.26,197.51c-0.34-8.88-2.07-18.5,0.16-27.25
		c1.83-7.18,6.25-12.47,12.51-15.95c3.66,2,7.78,3.32,12.06,3.99c3.78,0.58,12.25,1.87,18.84,0.74c0.83,5.67-6.83,6.05-10.05,6.24
		c-1.09,0.07-2.15,0.11-3.23,0.28c-2.28,0.36-5.38,0.58-7.35,1.95c-3.66,2.55-2.83,7.05-1.96,10.99c2.13,9.59,5.37,18.46,0.68,27.95
		c-3.39,6.87-8.01,13.09-12.33,19.41c-1.38,2.02-2.86,3.93-4.27,5.93c-1.02,1.44-5.01,4.45-4.98,1.42
		c0.04-3.85-0.22-7.71-0.27-11.56C213.96,213.62,214.57,205.54,214.26,197.51z M256.03,182.59c0.15,0.47,0.33,0.9,0.53,1.32
		c-4.05,4.92-9.43,8.14-15.44,10.16c-0.7-1.09-1.43-2.16-2.19-3.21c-0.04-0.05-0.08-0.08-0.13-0.1c-0.16-1.11-0.38-2.23-0.67-3.38
		c-1.41-5.56-6.66-18.05,1.74-20.18c1.09-0.28,2.19-0.46,3.29-0.59c4.54,2.03,8.55,4.88,11.99,8.49c0.01,0.01,0.02,0.01,0.03,0.02
		C254.97,177.46,255.21,179.97,256.03,182.59z M238.96,192.05c2.54,3.61,4.7,7.45,6.5,11.51c-2.88-0.35-5.57-1.01-7.33-1.58
		C238.98,198.78,239.3,195.51,238.96,192.05z M241.47,194.64c5.97-2.04,11.36-5.24,15.41-10.1c0.95,1.66,2.33,2.92,3.92,3.91
		c-0.35,1.82-1.18,6.13-2.18,11.15c-1.58,4-7.19,4.58-12.42,4.05C244.85,200.51,243.27,197.51,241.47,194.64z M265.54,155.07
		c0.4,0.16,0.81,0.29,1.23,0.43c1.51,0.48,3.08,0.99,4.67,2.85c0.17,0.19,0.36,0.37,0.56,0.54c-8.55,1.36-15.53,7.28-16.72,15.42
		c-3.17-3.24-6.8-5.87-10.87-7.83c2.78-0.25,5.57-0.29,8.29-0.89c3.71-0.81,6.26-3.25,5.79-6.67
		C261.55,158.31,264.12,157.13,265.54,155.07z M245.1,142.72c4.03,1.85,7.83,3.59,10.37,5.06c4.36,2.53,6.4,4.38,7.75,5.6
		c0.65,0.59,1.17,1.06,1.72,1.39c-5.44,7.93-29.41,2.59-34.92,0.35c-5.89-2.38-8.41-5.38-12.03-10.39
		c-3.55-4.92-3.95-9.28-4.07-15.16c-0.07-3.34-0.24-6.73-0.14-10.07c0-1,0.08-1.99,0.24-2.98c0.11-1.14,1.3-2.15,2.46-1.7
		c1.26,0.49,2.22,1.73,2.8,2.88c0.54,1.07,1.03,2.18,1.55,3.26c2.39,4.91,5.11,10.1,9.38,13.59
		C232.06,136.74,238.68,139.78,245.1,142.72z M198.95,119.66c0,0-0.75,2.98-1.7,6.22c-0.47-0.9-1.29-2.53-1.37-2.79
		c-0.73-2.53-0.47-6.68-0.47-6.73l0.16-2.56l-1.19,2.28c-0.01,0.03-0.38,0.69-1.08,0.61c-1.06-0.13-2.74-3.16-3.74-4.97
		c-0.5-0.91-0.94-1.7-1.31-2.23c-1.08-1.54-1.05-5.39,0.07-8.94c0.18-0.56,0.42-0.88,0.72-0.93c0.78-0.14,2.13,1.09,2.86,2.01
		l1.1,1.39l-0.13-1.76c-0.01-0.16-1.12-15.8,4.4-22.42c4.1-4.92,12.92-5.97,15.39-6.17c2.47,0.2,11.29,1.26,15.39,6.17
		c5.52,6.62,4.41,22.27,4.4,22.42l-0.13,1.76l1.1-1.39c0.73-0.92,2.09-2.15,2.86-2.01c0.3,0.06,0.54,0.37,0.72,0.93
		c1.12,3.55,1.15,7.4,0.07,8.94c-0.37,0.53-0.81,1.32-1.31,2.23c-1,1.81-2.68,4.84-3.74,4.97c-0.7,0.08-1.06-0.58-1.08-0.61
		l-1.19-2.28l0.16,2.56c0,0.04,0.26,4.19-0.47,6.73c-0.08,0.26-0.92,1.91-1.38,2.81c-0.95-3.25-1.7-6.24-1.7-6.24
		c0.06,0.43,1.3,9.13,2.93,13.22c-4.09-3.97-6.55-9.55-9.01-14.64c-0.56-1.15-2.91-6-5.22-4.62c-2.4,1.42-1.99,5.39-1.92,7.77
		c0.15,5.26-0.75,11.29,0.58,16.42c1.9,7.32,6.55,12.67,12.54,16.13c-5.53,3.14-10.4,8.03-12,14.3
		c-2.64,10.34-0.58,20.69-0.62,31.18c-0.05,11.24,0.32,22.58,0.05,33.8c-0.04,1.67,0.66,3.87,2.05,3.6
		c0.12,1.78,0.31,3.55,0.53,5.32c-0.7-1.32-1.87-3.33-2.85-4.31c-0.4-0.4-1.12-0.38-1.54,0.04c-0.95,0.95-2.02,2.64-2.78,3.97
		c0.2-1.67,0.38-3.35,0.49-5.03c1.39,0.27,2.09-1.93,2.05-3.6c-0.27-11.22,0.1-22.56,0.05-33.8c-0.04-10.49,2.01-20.84-0.62-31.18
		c-1.6-6.28-6.47-11.17-12-14.3c5.99-3.46,10.64-8.81,12.54-16.13c1.33-5.13,0.43-11.16,0.58-16.42c0.07-2.38,0.48-6.34-1.92-7.77
		c-2.31-1.37-4.66,3.47-5.22,4.62c-2.47,5.1-4.93,10.69-9.04,14.67C197.64,128.83,198.89,120.09,198.95,119.66z M216.54,244.21
		c1.11,7.75,3.01,15.43,5.18,22.9c0.83,2.87,1.84,10.3,5.51,12.23c2.62,2.06,1.96,5.37,1.71,6.44
		c-0.55,2.29-11.84,16.63-15.71,20.41c-0.3,0.29-0.86,0.3-1.17,0.01c-4.17-3.86-15.38-17.91-15.93-20.2
		c-0.26-1.07-0.82-4.51,1.85-6.59c3.78-1.81,4.8-9.39,5.64-12.3c2.21-7.6,4.14-15.42,5.24-23.31c0.86-1.77,2.19-3.87,3.03-4.97
		c0.6-0.79,1.06-0.71,1.61,0.08C214.21,239.95,215.69,242.39,216.54,244.21z M170.13,175.13c0.02-0.01,0.03-0.02,0.05-0.03
		c3.44-3.61,7.45-6.46,11.99-8.49c1.1,0.13,2.2,0.31,3.29,0.59c8.4,2.13,3.15,14.63,1.74,20.18c-0.29,1.15-0.51,2.28-0.67,3.38
		c-0.05,0.02-0.09,0.05-0.13,0.1c-0.76,1.05-1.49,2.12-2.19,3.21c-6.02-2.03-11.4-5.25-15.45-10.18c0.2-0.41,0.38-0.84,0.52-1.31
		C170.1,179.97,170.35,177.47,170.13,175.13z M183.86,194.64c-1.8,2.87-3.38,5.87-4.73,9.01c-5.11,0.53-10.58,0.02-12.35-3.68
		c-1.03-5.18-1.9-9.67-2.25-11.53c1.59-0.99,2.96-2.25,3.91-3.91C172.5,189.39,177.89,192.6,183.86,194.64z M186.38,192.05
		c-0.34,3.45-0.03,6.72,0.83,9.92c-1.75,0.57-4.45,1.23-7.33,1.59C181.68,199.5,183.84,195.67,186.38,192.05z M190.1,178.51
		c0.87-3.94,1.7-8.44-1.96-10.99c-1.98-1.38-5.08-1.6-7.35-1.95c-1.09-0.17-2.14-0.22-3.24-0.28c-3.22-0.19-10.88-0.58-10.05-6.24
		c6.59,1.13,15.06-0.16,18.84-0.74c4.28-0.66,8.4-1.99,12.06-3.99c6.26,3.47,10.68,8.76,12.51,15.94c2.23,8.75,0.5,18.37,0.16,27.25
		c-0.3,8.03,0.31,16.1,0.19,24.14c-0.06,3.85-0.31,7.71-0.27,11.56c0.03,3.03-3.96,0.03-4.98-1.42c-1.41-1.99-2.89-3.91-4.27-5.93
		c-4.32-6.31-8.98-12.51-12.38-19.39c-0.72-1.46-1.25-2.9-1.63-4.34c0,0,0-0.01,0-0.01C185.66,194.24,188.3,186.62,190.1,178.51z
		 M162.1,153.38c1.35-1.22,3.38-3.07,7.75-5.6c2.54-1.47,6.34-3.21,10.37-5.06c6.36-2.92,12.93-5.93,14.84-8.1
		c4.31-3.49,7.06-8.71,9.45-13.64c0.53-1.08,1.01-2.18,1.55-3.26c0.58-1.15,1.54-2.39,2.8-2.88c1.16-0.45,2.35,0.56,2.46,1.7
		c0.16,0.99,0.24,1.98,0.24,2.98c0.1,3.34-0.07,6.73-0.14,10.07c-0.12,5.88-0.52,10.24-4.07,15.16c-3.62,5.01-6.14,8-12.03,10.39
		c-5.52,2.23-29.49,7.58-34.93-0.36C160.94,154.43,161.45,153.97,162.1,153.38z M153.87,158.34c1.6-1.86,3.16-2.36,4.67-2.85
		c0.43-0.14,0.85-0.27,1.25-0.43c1.41,2.07,3.99,3.25,7.04,3.86c-0.48,3.42,2.08,5.87,5.79,6.67c2.73,0.59,5.51,0.64,8.29,0.89
		c-4.08,1.96-7.72,4.59-10.89,7.84c-1.17-8.15-8.17-14.08-16.72-15.44C153.51,158.72,153.71,158.54,153.87,158.34z M137.7,192.67
		c-0.89-5.68,3.04-19.81,5.4-25.79c1.43-3.63,4.4-4.99,7.01-6.2c0.86-0.4,1.69-0.78,2.41-1.23c4.66,0.67,8.51,2.94,12.3,6.57
		c6.63,6.35,5.57,18.78-2.23,22.81c-4.88,2.52-10.21,3.53-14.91,6.52c-2.89,1.84-5.38,4.28-7.72,6.83
		C139.49,200.69,138.38,197.03,137.7,192.67z M127.39,253.77c0-2.35,0.53-4.78,1.3-7.09c0.06-0.19,0.13-0.38,0.19-0.56
		c0.03-0.09,0.07-0.19,0.1-0.28c0.07-0.19,0.14-0.38,0.21-0.57c2.1-5.51,5.29-9.95,5.34-10.01l0.03-0.04
		c1.11,3.73,2.51,7.75,4.01,11.33c-1.15,6.52-7.06,10.36-11.18,15.34V253.77z M126.27,297.6c-0.27-1.75-0.52-3.47-0.73-5.17
		c-0.5-4.13-0.98-8.04-1.23-12.26c-0.02-0.27-0.03-0.54-0.04-0.81c-0.01-0.15-0.01-0.29-0.02-0.44c-0.01-0.2-0.01-0.4-0.02-0.59
		c0-0.13-0.01-0.26-0.01-0.39c0-0.21,0-0.41,0-0.61c0-0.12,0-0.23,0-0.35c0-0.23,0.01-0.45,0.01-0.67c0-0.08,0-0.17,0-0.25
		c0.23-8.37,2.76-12.64,3.03-13.08c3.9-5.22,10.07-9.02,11.71-15.44c0.32,0.74,0.64,1.46,0.96,2.14c0.39,0.84,0.87,1.33,1.41,1.59
		c-1.81,9.31-6.4,17.18-10.42,25.73C127.88,283.5,126.57,290.51,126.27,297.6z M143.4,251.38c0.04,5.29,1.95,10.14,5.5,14.05
		c-1.29,2.13-2.45,4.36-3.5,6.67c-3.19-5.01-4.69-10.63-4.37-16.61c0.37-1.31,0.7-2.64,0.97-4.02
		C142.44,251.54,142.91,251.49,143.4,251.38z M142.25,250.05c0.85-9.84,3.9-20.01,9.3-28.38c0.58-0.95,1.32-1.75,2.22-2.4
		c3.72-2.74,1.52,5.82,1.38,6.25c-0.65,2.06-1.36,4.09-1.98,6.16c-1.92,6.33-4.21,12.49-7.6,18.16c-0.13,0.04-0.26,0.07-0.39,0.11
		C143.96,250.27,143.02,250.29,142.25,250.05z M145.07,272.82c-3.43,7.81-5.43,16.45-5.81,25.02c-1.21,4.44-3.15,9.81-3.98,14.2
		c-0.39,2.07-0.64,4.18-1.06,6.25c-0.03,0.13-0.06,0.25-0.09,0.38c-0.01,0.04-0.02,0.07-0.03,0.11c-0.03,0.09-0.06,0.18-0.09,0.27
		c-1.07,2.9-4.5,4.33-4.94-0.33c-1.07-11.38-0.28-24.67,0.52-35.96c0.87-2.78,1.95-5.52,3.28-8.24c2.79-5.69,5.58-11.03,7.5-16.84
		C140.47,263.11,142.06,268.24,145.07,272.82z M136.44,361.96c0,2.42-1.19,3.43-1.87,3.8c-0.58-1.53-2.26-6.09-3.57-9.81l5.44,5.57
		C136.45,361.68,136.44,361.87,136.44,361.96z M138.87,362.45l-8.69-8.89c-0.39-1.15-0.69-2.07-0.81-2.57
		c-0.28-1.09-0.51-2.29-0.72-3.6c1.07,1.97,2.62,4.25,4.23,5.94c3.16,3.32,6.51,6.16,7.06,6.62
		C139.65,361,139.19,361.9,138.87,362.45z M143.09,322.13c2.31,3.67,2.94,7.21,3.24,12.54l0.08,1.43c0.02,2.55-0.08,5.33-0.29,7.41
		c-0.17,1.7-1.55,2.7-2.86,0.62c-0.89-1.4-1.15-3.34-1.4-5.21c-0.32-2.38-0.62-4.63-2.21-5.65c-0.24-0.15-0.5-0.22-0.77-0.21
		c0.97-1.3,1.89-2.38,2.28-2.92c-1.85,0.66-5.91,3.96-6.08,7.51c-0.23,1.21-0.22,2.62,0.12,4.19c-0.01,0.06,0,0.13,0.02,0.21
		c0.7,2.6,0.87,5.1,0.88,5.13c0.22,0.84,3.8,4.02,4.65,5.33c1.67,2.55,0.24,5.24-0.46,6.28c-1.07-0.91-3.91-3.4-6.61-6.23
		c-2.72-2.85-5.13-7.41-5.48-8.93c-0.63-6.55-0.65-15.23-0.27-26.12c0.21-5.95-0.36-11.08-1.04-15.83
		c-0.03-5.2,0.48-10.21,1.65-15.11c-0.46,7.41-0.67,14.81-0.47,22.24c0.04,1.51-0.47,13.47,1.76,14.19c2.3,0.74,4.26-1.57,4.84-3.3
		c0.96-2.87,1.04-6.23,1.6-9.19c0.57-3.03,1.87-6.73,2.92-10.08c-0.04,6.64,0.9,13.18,2.92,19.22
		C142.32,320.59,142.64,321.42,143.09,322.13z M154.19,271.67c-0.19,4.56-3.24,12.64-6.2,20.46c-2.64,6.98-5.05,13.58-5.64,17.68
		c-0.32,2.21-0.54,4.26-0.57,6.11c-4.59-18.52-0.2-40.72,11.51-55.68C153.65,261.42,154.47,264.97,154.19,271.67z M156,253.51
		c-0.51,3.23-2.74,5.67-2.76,5.69c0,0-2.83,3.78-3.99,5.65c-3.41-3.82-5.21-8.51-5.2-13.65c1.07-0.34,2.21-0.9,3.32-1.21
		c4.51-1.29,7.2-3.72,9.15-6.9c-0.1,0.51-0.15,0.84-0.17,0.93C156.36,244.07,156.53,250.15,156,253.51z M161.2,228.39
		c-2.06,3.4-3.47,9.04-4.24,12.57c-1.79,3.6-4.26,6.59-8.85,8.13c-0.54,0.18-1.09,0.34-1.65,0.49c3.97-6.91,6.09-14.38,8.64-21.98
		c0.33-0.99,3.63-9.7-0.39-9.26c-3.88,0.42-6.06,7-7.37,9.92c-3.09,6.87-5.04,14.03-5.72,21.52c-1.09-0.62-1.79-1.87-2.53-3.52
		c-1.63-3.65-3.22-8.64-4.38-12.82c0.23-3.75,0.9-13.47,1.89-18.31c1.24-6.03,3.57-11.8,3.59-11.86l0.2-0.29
		c5.39-5.44,10.89-9.31,18.67-12.07c1.52-0.54,3.05-1.14,4.46-1.9c0.75,3.91,3.01,15.61,4.93,24.5
		C167.55,216.16,163.98,223.81,161.2,228.39z M176.38,235.32c-0.53-1.53-1.21-3.31-1.91-5.14c-0.9-2.37-1.83-4.81-2.57-7
		c-0.96-2.87-3.05-12.89-4.8-21.59c4.08,4.71,15.43,2.59,20.28,1.01c0.87,2.98,2.21,5.92,3.95,8.91
		c4.83,8.27,10.59,16.56,16.59,24.04c0.37,0.46,0.71,0.78,1.02,0.99c-0.56,8.32-2.28,16.65-4.34,24.71
		c-0.87,3.42-1.95,6.8-2.88,10.21c-0.65,2.38-1.37,5.24-3.45,6.84c-3.06,2.34-4.48-2.11-4.89-4.46c-1.19-6.78-4.94-13.84-7.92-20.01
		C182.5,247.68,179.54,241.4,176.38,235.32z M177.43,239.27c1.02,2.31,2.02,4.62,3.22,6.99c2.71,5.36,5.61,10.49,7.93,16.05
		c2.1,5.04,3.61,9.78,4.6,15.12c0.11,0.57,0.25,0.99,0.46,1.33c-4.97-1.26-8.83-5.39-12.82-8.55c-1.62-1.28-2.64-3.01-3.25-4.92
		c0.02-0.09,0.03-0.18,0.03-0.25c0-0.16,0-0.67,0.01-1.43C177.67,258.4,177.81,243.25,177.43,239.27z M171.95,280.82
		c-0.54-4.33,2.49-9.69,4.3-12.89c0.5-0.88,0.84-1.5,1.06-1.96c0.51,1.31,1.2,2.58,2.13,3.77c2.19,2.82,6.03,5.31,8.93,7.35
		c1.06,0.74,2.1,1.31,3.17,1.75c-5.45,4.14-13.13,5.42-17.81,10.22l0.04-0.12l-0.11-0.2C173.65,288.71,172.71,286.9,171.95,280.82z
		 M173.16,290.96c7.71-5.65,15.88-8.68,23.14,0.03c3.19,3.82,6.29,7.72,8.98,11.86c-2.89-2.58-6.98-3.36-12.85-0.89
		c-3.66,1.54-7.12,3.75-10.61,5.64c-0.9,0.49-5.86,2.25-5.9,4.17c-2.48,1.54-4.66,3.45-6.54,5.69c0.04-0.71,0.05-1.37,0.01-1.98
		C168.83,306.85,171.88,295.33,173.16,290.96z M160.27,365.71c0.96-13.07,3.83-24.43,6.12-33.56c1.37-5.43,2.52-10,2.9-13.54
		c1.9-2.43,4.14-4.48,6.72-6.12c0.64,3.65,2.88,6.59,3.26,10.51c0.55,5.64-1.68,11.37-3.47,16.61c-0.52,1.53-2.66,6.68-2.84,10.48
		l-0.03,0.03c-7.03,16.29-9.17,33.48-11.6,50.82C160.25,388.8,159.54,375.62,160.27,365.71z M161.58,403.74
		c2.53-17.75,4.47-35.41,11.43-52.12c0.17,1.25,0.68,2.2,1.73,2.6c2.1,0.8,4.09,0.45,6.19-0.22c1.82-0.58,3.63-1.19,5.44-1.82
		c1.11,5.09,0.39,11,0.03,15.87c-0.67,8.94-2.1,17.85-3.86,26.63c-2.96,14.8-9.01,28.76-15.09,42.61c-0.7,1.5-1.38,3.05-2.03,4.63
		c-0.23,0.52-0.45,1.04-0.68,1.55c-0.03-0.19-0.05-0.37-0.06-0.54c-0.2-2.83,0-4.34,0.18-5.67c0.14-1.03,0.27-2,0.19-3.37
		c-0.03-0.56-0.25-2.28-0.59-4.88C163.77,423.62,162.57,414.22,161.58,403.74z M178.85,410.12c-0.08,10.27,5.48,20.69,8.79,29.12
		c-3.34,4.78-5.93,9.86-7.9,15.19c-0.18-8.6-3.32-16.69-9.03-23.26C173.65,424.23,176.46,417.25,178.85,410.12z M162.05,454.13
		c0.02-0.06,0.05-0.11,0.07-0.17c1.37-4.12,3.96-11.27,5.73-16.12c0.86-2,1.72-3.99,2.57-5.99c5.9,6.89,8.91,15.42,8.65,24.45
		c-2.47,7.3-3.81,15.04-4.29,23.1c-0.34,5.69-0.46,11.41-0.48,17.14c-2.94,3.81-9.49,2.59-10.33-2.92c0-0.03-0.02-0.05-0.03-0.07
		C161.88,480.43,160.36,467.29,162.05,454.13z M163.15,535.41c1.69-6.42,0.92-13.32,0.18-20l-0.1-0.87
		c-0.58-3.69-1.28-7.43-1.95-11.06c-3.05-16.39-5.93-31.92-0.14-47.11c-1.24,12.45,0.25,24.88,2.22,37.29
		c-0.01,0.04-0.01,0.08-0.01,0.12c0.03,0.22,0.08,0.43,0.13,0.64c1.76,11,3.86,21.99,4.72,32.95c-1.22,4.26-3.27,8.11-6.12,11.45
		C162.43,537.89,162.79,536.76,163.15,535.41z M181.71,540.77c-0.02,0.94-0.51,1.91-1.03,2.95c-0.26,0.52-0.52,1.05-0.73,1.59
		c-1.91-8.19-1.72-16.59,0.57-24.64C179.63,527.22,179.81,533.91,181.71,540.77z M181.22,516.47c-3.74,9.9-4.4,20.5-1.68,30.7
		c0,0.02,0,0.03,0,0.05l0.03,0.17c0.11,0.34,0.23,0.7,0.34,1.06c0.11,0.38,0.22,0.76,0.35,1.14c0.58,1.95,1.14,4.06,1.66,5.99
		c0.23,0.86,0.45,1.68,0.65,2.42c0.04,0.15,3.89,14.67-1.14,17.81c-5.1,3.18-13.19,2.41-15.41,1.58c-0.95-0.36-2.72-1.57-4.43-2.75
		c-2.13-1.47-4.33-2.98-5.65-3.37c-5.4-1.59-11.22-3.77-12.05-5.07c-1.08-1.67-0.88-2.95-0.87-3l0.09-0.52l-0.52-0.11
		c-0.03-0.01-2.79-0.6-2.79-2.01c0-1.73,0.43-2.19,0.63-2.41c0.3-0.32,1.72-1.04,3.78-0.79l-2.52,1.56c0,0,1.36,0.66,3.99-1.06
		c3.2-2.09,6.21-3.16,8.2-4.29c2.96-1.68,4.51-4.24,5.17-5.58c0.46,1.22,1.06,2.32,1.49,3.07c0.16,0.27,0.31,0.54,0.45,0.8
		c0,0-2.33-6.43-1.06-8.72c0.07-0.13,0.16-0.27,0.26-0.44c0.29-0.47,0.68-1.12,1.13-2.06c3.18-3.31,5.54-7.19,7.01-11.5
		c0.66,10.05,0.22,20.08-2.55,30.09c-0.11,0.41,1.87-4.86,2.3-7.37c3.08-18.34-0.6-36.74-3.62-55.18c2.24,3.28,7.08,3.6,9.86,0.79
		c0,5.56,0.1,11.11,0.19,16.64c0.04,2.25,0.15,4.43,0.33,6.58c0,0,0.34-5.69,0.29-8.66c-0.05-2.84-0.08-5.68-0.09-8.52
		c2.06,3.03,6.5,3.88,9.43,1.39C183.13,508.71,182.01,512.57,181.22,516.47z M192.94,460.04c1.26,4.24,2.45,8.24,2.89,12.22
		c0,2.81-0.97,5.71-1.9,8.52c-0.48,1.43-0.97,2.92-1.31,4.3l-0.92,2.09c-2.33,5.32-4.69,10.69-6.67,16.14
		c-2.78,3.76-8.31,2.84-9.99-1.06c-0.01-7.05,0.08-14.1,0.32-21.14c0.29-8.51,1.62-16.75,4.24-24.49c0.05-0.1,0.09-0.19,0.13-0.29
		c0-0.03,0-0.06,0-0.08c1.98-5.73,4.67-11.19,8.18-16.28c0.51,1.32,0.95,2.59,1.3,3.8C189.49,449.59,191.36,454.73,192.94,460.04z
		 M190.92,448.6c-0.98-3.73-1.75-6.72-1.75-6.72c0,0.03,0,0.07,0,0.1c-0.02-0.12-0.05-0.22-0.07-0.3
		c-3.86-11.84-10.88-21.85-9.62-33.47c1.79-5.54,3.3-11.18,4.39-16.97c1.6-8.46,2.78-17.02,3.35-25.61
		c0.28-4.26,0.69-9.23-0.25-13.65c3.09-1.07,6.18-2.17,9.3-3.15c0.97-0.31,1.94-0.64,2.88-1c-3.94,11.36-3.55,22.87-1.78,34.38
		c-7.05,18.56,2.15,39.5-2.14,58.67C193.95,443.51,192.47,446.17,190.92,448.6z M201.45,410.31c-0.67,7.94-1.3,15.43-1.99,19.17
		c-0.44,2.38-1.59,5.65-3.16,9.12c2.95-18.13-4.8-37.65,1.27-55.11c1.17,7.22,2.85,14.44,4.31,21.63
		C201.73,406.89,201.59,408.63,201.45,410.31z M211.15,350.94c-0.33,2.59-1.35,6.96-2.54,12.02c-1.75,7.46-3.93,16.75-4.99,25
		c-0.58,4.5-1.08,9.75-1.54,14.96c-3.85-18.46-8.66-37.12-2.13-55.39c4.09-1.61,7.82-3.81,10.33-7.66c0.18-0.28,0.34-0.57,0.5-0.86
		C211.1,340.98,211.77,346.02,211.15,350.94z M210.78,337.01c-1.47,6.55-9.09,9.39-14.68,11.19c-5.45,1.72-10.8,3.74-16.24,5.46
		c-10.52,3.32-3.65-13.17-2.17-17.6c1.53-4.59,2.95-9.96,2.06-14.84c-0.43-2.33-1.1-4.33-2.2-6.41c-2.43-4.6,5.63-7.2,8.21-8.6
		c6.13-3.32,13.87-8.43,20.05-2.55c1.34,2.13,2.57,4.32,3.65,6.6c0.7,2.4,1.07,4.93,1.43,7.15
		C211.93,323.86,212.21,330.61,210.78,337.01z M212.67,328.18c-0.07-3.17-0.46-6.28-0.83-8.75c-0.78-5.2-2.05-10.56-4.55-14.25
		c-3.71-7.17-7.81-11.78-12.78-17.23c-5.93-6.49-14.08-2.83-20.21,1.39c4.72-4.77,12.62-6.04,17.97-10.24
		c0.95,0.32,1.95,0.52,3.04,0.63c0.13,0.02,0.25,0.05,0.39,0.06c0.3,0.04,0.59,0.03,0.87,0c-1.49,1.86-1.64,4.35-1.16,6.37
		c0.64,2.68,6.36,10.26,16.65,21.17c0.28,0.29,0.76,0.34,1.05,0.06c10.66-10.73,15.89-18.75,16.54-21.44
		c0.47-1.98,0.42-4.35-0.95-6.15c0.3,0.03,0.61,0.03,0.94,0c0.14-0.02,0.27-0.04,0.39-0.06c1.08-0.1,2.08-0.31,3.04-0.63
		c5.36,4.21,13.28,5.47,18,10.26c-6.14-4.23-14.3-7.91-20.24-1.41c-4.97,5.44-9.07,10.05-12.77,17.22
		c-2.5,3.69-3.78,9.05-4.56,14.25C213.12,321.89,212.73,325.01,212.67,328.18z M247.72,263.6c0.01,0.76,0.01,1.27,0.01,1.43
		c0,0.08,0.01,0.16,0.03,0.25c-0.61,1.92-1.63,3.64-3.25,4.92c-3.99,3.16-7.85,7.29-12.82,8.55c0.21-0.33,0.35-0.76,0.46-1.33
		c0.99-5.35,2.5-10.08,4.6-15.12c2.32-5.56,5.21-10.69,7.93-16.05c1.18-2.34,2.19-4.67,3.22-7.01
		C247.52,243.2,247.67,258.4,247.72,263.6z M214.45,317.41c0.36-2.22,0.73-4.75,1.43-7.15c1.08-2.28,2.31-4.47,3.65-6.6
		c6.18-5.89,13.92-0.78,20.05,2.55c2.58,1.4,10.63,4,8.21,8.6c-1.1,2.08-1.77,4.08-2.2,6.41c-0.9,4.88,0.52,10.25,2.06,14.84
		c1.48,4.44,8.35,20.93-2.17,17.6c-5.44-1.72-10.79-3.74-16.24-5.46c-5.59-1.8-13.22-4.65-14.68-11.19
		C213.12,330.61,213.41,323.86,214.45,317.41z M221.72,387.96c-1.06-8.25-3.24-17.54-4.99-25c-1.19-5.06-2.21-9.43-2.54-12.02
		c-0.63-4.92,0.05-9.97,0.37-11.94c0.16,0.3,0.32,0.59,0.5,0.86c2.51,3.86,6.24,6.05,10.33,7.66c6.53,18.27,1.72,36.93-2.13,55.39
		C222.8,397.72,222.29,392.46,221.72,387.96z M225.88,429.48c-0.69-3.74-1.32-11.24-1.98-19.17c-0.14-1.69-0.29-3.42-0.44-5.18
		c1.46-7.19,3.13-14.41,4.31-21.64c6.07,17.45-1.67,36.98,1.27,55.11C227.47,435.13,226.31,431.87,225.88,429.48z M230.1,440.88
		c-4.29-19.17,4.91-40.11-2.14-58.67c1.77-11.51,2.15-23.02-1.78-34.38c0.95,0.35,1.91,0.68,2.89,1c3.12,0.99,6.2,2.08,9.3,3.15
		c-0.94,4.42-0.53,9.39-0.25,13.65c0.57,8.59,1.75,17.15,3.35,25.61c1.09,5.78,2.61,11.42,4.39,16.96
		c1.26,11.63-5.83,21.72-9.69,33.57c-0.03,0.08-0.81,3.12-1.78,6.81C232.85,446.15,231.38,443.5,230.1,440.88z M246.49,410.13
		c2.43,7.25,5.29,14.35,8.29,21.42c-5.43,5.79-9.01,15.41-8.92,23.61c-2-5.59-4.67-10.92-8.16-15.91
		C241.02,430.82,246.57,420.4,246.49,410.13z M240.29,503.29c-1.98-5.44-4.33-10.81-6.66-16.12l-0.92-2.09
		c-0.34-1.38-0.83-2.87-1.31-4.3c-0.94-2.81-1.9-5.71-1.9-8.52c0.45-3.98,1.63-7.98,2.89-12.22c1.6-5.39,3.75-10.73,3.98-16.66
		c0-0.78,0.58-2.17,1.05-3.4c8.33,12.07,12.05,26.17,12.56,41.14c0.24,7.04,0.34,14.09,0.32,21.14
		C248.62,506.16,243.06,507.08,240.29,503.29z M244.65,543.71c-0.52-1.03-1-2.01-1.03-2.95c1.89-6.86,2.08-13.55,1.2-20.1
		c2.28,8.05,2.48,16.45,0.57,24.64C245.17,544.77,244.91,544.24,244.65,543.71z M265.15,542.69c0.11,0.17,0.19,0.32,0.26,0.44
		c1.27,2.29-1.06,8.72-1.06,8.72c0.14-0.26,0.29-0.53,0.45-0.8c0.43-0.75,1.04-1.85,1.49-3.07c0.66,1.34,2.21,3.91,5.17,5.59
		c1.98,1.12,5,2.2,8.2,4.29c2.64,1.72,3.99,1.06,3.99,1.06l-2.52-1.56c2.06-0.24,3.48,0.48,3.78,0.79c0.21,0.22,0.63,0.68,0.63,2.41
		c0,1.41-2.76,2.01-2.79,2.01l-0.52,0.11l0.09,0.52c0.01,0.05,0.2,1.33-0.87,3c-0.83,1.3-6.65,3.48-12.05,5.07
		c-1.32,0.39-3.52,1.9-5.65,3.37c-1.71,1.18-3.49,2.4-4.43,2.75c-2.22,0.83-10.31,1.6-15.41-1.58c-5.03-3.15-1.18-17.67-1.14-17.81
		c0.2-0.74,0.42-1.56,0.65-2.42c0.51-1.93,1.08-4.05,1.66-5.99c0.12-0.38,0.23-0.76,0.35-1.14c0.11-0.36,0.23-0.72,0.34-1.06
		l0.03-0.17c0-0.02,0-0.03,0-0.05c2.72-10.2,2.06-20.8-1.68-30.7c-0.79-3.91-1.92-7.77-3.25-11.59c2.94,2.51,7.38,1.66,9.45-1.37
		c-0.01,2.84-0.04,5.68-0.09,8.52c-0.05,2.97,0.29,8.66,0.29,8.66c0.18-2.15,0.29-4.33,0.33-6.58c0.1-5.53,0.19-11.09,0.19-16.64
		c2.77,2.8,7.61,2.48,9.85-0.79c-3.02,18.44-6.7,36.83-3.62,55.17c0.42,2.52,2.41,7.78,2.3,7.37c-2.77-10.01-3.21-20.04-2.55-30.08
		c1.48,4.31,3.83,8.18,7.01,11.49C264.47,541.57,264.86,542.22,265.15,542.69z M264.05,503.48c-0.67,3.62-1.37,7.37-1.95,11.06
		l-0.1,0.87c-0.75,6.68-1.52,13.58,0.18,20c0.36,1.36,0.72,2.48,1.08,3.42c-2.85-3.34-4.9-7.19-6.12-11.45
		c0.86-10.93,2.95-21.88,4.7-32.85c0.06-0.24,0.11-0.48,0.15-0.74c0.01-0.06,0-0.11-0.01-0.15c1.97-12.4,3.46-24.82,2.21-37.26
		C269.98,471.57,267.1,487.09,264.05,503.48z M263.2,453.96c0.03,0.06,0.05,0.11,0.07,0.17c1.7,13.16,0.18,26.31-1.89,39.43
		c-0.01,0.02-0.02,0.03-0.02,0.06c-0.84,5.52-7.39,6.74-10.33,2.92c-0.01-5.72-0.13-11.44-0.48-17.14
		c-0.47-7.78-1.74-15.26-4.04-22.33l0.01,0c-0.73-8.35,2.84-18.76,8.51-24.94c0.79,1.86,1.59,3.72,2.39,5.58
		C259.19,442.55,261.82,449.8,263.2,453.96z M260.87,429.02c-0.33,2.6-0.55,4.32-0.59,4.88c-0.08,1.38,0.05,2.35,0.19,3.37
		c0.18,1.33,0.38,2.84,0.18,5.67c-0.01,0.17-0.04,0.35-0.06,0.54c-0.3-0.68-0.59-1.36-0.89-2.03c-0.54-1.29-1.1-2.57-1.67-3.81
		c-6.13-13.96-12.25-28.04-15.24-42.95c-1.76-8.79-3.19-17.69-3.86-26.63c-0.36-4.87-1.08-10.78,0.03-15.87
		c1.81,0.63,3.62,1.24,5.44,1.82c2.11,0.67,4.09,1.01,6.19,0.22c1.05-0.4,1.57-1.36,1.73-2.6c6.96,16.71,8.9,34.37,11.43,52.12
		C262.77,414.22,261.56,423.62,260.87,429.02z M258.94,332.14c2.3,9.13,5.16,20.49,6.13,33.56c0.73,9.91,0.02,23.1-1.06,35.23
		c-2.43-17.33-4.57-34.53-11.6-50.82l-0.03-0.03c-0.18-3.8-2.32-8.95-2.84-10.48c-1.79-5.24-4.02-10.98-3.46-16.61
		c0.38-3.92,2.61-6.86,3.26-10.51c2.57,1.64,4.82,3.7,6.72,6.12C256.43,322.14,257.58,326.71,258.94,332.14z M255.94,315.48
		c-0.04,0.61-0.03,1.27,0.01,1.98c-1.88-2.24-4.06-4.15-6.54-5.69c-0.04-1.92-4.99-3.68-5.9-4.17c-3.49-1.89-6.95-4.1-10.61-5.64
		c-5.87-2.47-9.96-1.69-12.85,0.89c2.69-4.14,5.8-8.04,8.98-11.86c7.26-8.71,15.43-5.68,23.14-0.03
		C253.46,295.34,256.5,306.86,255.94,315.48z M249.08,267.93c1.81,3.2,4.84,8.56,4.3,12.89c-0.75,6.08-1.7,7.89-1.71,7.91l-0.11,0.2
		l0.04,0.12c-4.68-4.8-12.36-6.08-17.81-10.22c1.08-0.43,2.11-1,3.17-1.75c2.91-2.04,6.74-4.53,8.93-7.35
		c0.93-1.2,1.62-2.46,2.13-3.78C248.24,266.43,248.59,267.05,249.08,267.93z M253.44,223.18c-0.73,2.19-1.66,4.64-2.57,7
		c-0.7,1.83-1.38,3.61-1.91,5.14c-3.16,6.08-6.13,12.36-9.09,18.49c-2.98,6.17-6.73,13.23-7.92,20.01c-0.41,2.35-1.83,6.8-4.89,4.46
		c-2.08-1.6-2.8-4.46-3.45-6.84c-0.94-3.41-2.01-6.78-2.88-10.21c-2.06-8.06-3.78-16.39-4.34-24.71c0.32-0.21,0.66-0.53,1.03-0.99
		c6-7.48,11.76-15.76,16.59-24.04c1.74-2.98,3.08-5.92,3.95-8.9c4.88,1.58,16.24,3.7,20.29-1.06
		C256.5,210.26,254.39,220.3,253.44,223.18z M263.99,228.31c-2.74-4.35-6.21-12.04-7.11-14.75c1.92-8.89,4.18-20.61,4.94-24.54
		c1.4,0.75,2.93,1.36,4.44,1.89c7.78,2.76,13.42,6.66,18.81,12.11l-0.02,0.06l0.08,0.19c0.02,0.06,2.35,5.82,3.59,11.86
		c1,4.84,1.66,14.56,1.89,18.31c-1.16,4.18-2.75,9.16-4.38,12.82c-0.74,1.65-1.44,2.91-2.53,3.52c-0.68-7.5-2.63-14.65-5.72-21.52
		c-1.31-2.92-3.49-9.5-7.37-9.92c-4.02-0.44-0.72,8.27-0.39,9.26c2.55,7.6,4.67,15.07,8.64,21.98c-0.55-0.15-1.11-0.31-1.65-0.49
		c-4.59-1.54-7.04-4.43-8.83-8.04C267.61,237.52,266.11,231.68,263.99,228.31z M292.45,274.51c1.33,2.72,2.42,5.46,3.28,8.24
		c0.8,11.3,1.59,24.58,0.52,35.96c-0.44,4.66-3.87,3.23-4.94,0.33c-0.03-0.09-0.06-0.18-0.09-0.27c-0.01-0.04-0.02-0.07-0.03-0.11
		c-0.04-0.12-0.07-0.25-0.09-0.38c-0.42-2.07-0.67-4.17-1.06-6.25c-0.83-4.39-2.76-9.76-3.98-14.2c-0.38-8.57-2.38-17.21-5.82-25.02
		c3.81-5.61,4.68-11.53,4.83-14.81C286.99,263.68,289.72,268.93,292.45,274.51z M284.32,255.54c0.03,0.34,0.67,8.64-4.45,16.48
		c-1.03-2.27-2.17-4.48-3.44-6.58c3.55-3.91,5.46-8.76,5.5-14.05c0.49,0.11,0.96,0.16,1.4,0.09
		C283.59,252.86,283.94,254.21,284.32,255.54z M280.14,249.94c-0.13-0.04-0.26-0.07-0.39-0.11c-3.39-5.67-5.68-11.83-7.6-18.16
		c-0.63-2.07-1.33-4.1-1.98-6.16c-0.14-0.43-2.33-8.99,1.38-6.25c0.9,0.65,1.64,1.45,2.22,2.4c5.39,8.37,8.44,18.54,9.3,28.38
		C282.3,250.29,281.36,250.27,280.14,249.94z M269.31,253.51c-0.53-3.35-0.36-9.43-0.36-9.5c-0.01-0.09-0.07-0.42-0.17-0.93
		c1.96,3.18,4.64,5.61,9.15,6.9c1.12,0.32,2.25,0.87,3.32,1.21c0,5.14-1.79,9.83-5.2,13.65c-1.16-1.87-2.87-4.33-3.99-5.65
		C272.05,259.17,269.82,256.73,269.31,253.51z M277.33,292.13c-2.95-7.81-6.01-15.89-6.2-20.46c-0.28-6.7,0.54-10.25,0.89-11.44
		c11.71,14.97,16.1,37.16,11.51,55.68c-0.02-1.85-0.25-3.9-0.57-6.11C282.37,305.71,279.96,299.11,277.33,292.13z M290.74,365.77
		c-0.67-0.38-1.87-1.38-1.87-3.8c0-0.1-0.01-0.29-0.01-0.44l5.44-5.57C293,359.68,291.32,364.24,290.74,365.77z M295.95,350.99
		c-0.13,0.5-0.42,1.42-0.81,2.57l-8.69,8.89c-0.32-0.55-0.78-1.45-1.06-2.51c0.55-0.46,3.9-3.3,7.06-6.62
		c1.61-1.69,3.16-3.97,4.23-5.94C296.46,348.7,296.22,349.9,295.95,350.99z M297.4,317.52c0.38,10.89,0.36,19.57-0.27,26.12
		c-0.35,1.53-2.76,6.08-5.48,8.93c-2.7,2.83-5.54,5.32-6.61,6.23c-0.7-1.04-2.14-3.73-0.46-6.28c0.86-1.31,4.44-4.49,4.65-5.33
		c0.01-0.03,0.17-2.53,0.88-5.13c0.02-0.08,0.02-0.14,0.02-0.21c0.34-1.57,0.35-2.98,0.12-4.19c-0.17-3.55-4.24-6.85-6.08-7.51
		c0.39,0.53,1.31,1.62,2.28,2.92c-0.27-0.01-0.53,0.06-0.77,0.21c-1.59,1.02-1.89,3.27-2.21,5.65c-0.25,1.87-0.51,3.81-1.4,5.21
		c-1.32,2.08-2.69,1.09-2.86-0.62c-0.21-2.09-0.31-4.86-0.29-7.41l0.08-1.43c0.29-5.32,0.92-8.87,3.24-12.54
		c0.45-0.72,0.77-1.55,0.97-2.48c2.02-6.04,2.96-12.58,2.92-19.22c1.05,3.35,2.35,7.05,2.93,10.08c0.56,2.97,0.64,6.32,1.6,9.19
		c0.58,1.73,2.54,4.03,4.84,3.3c2.23-0.71,1.72-12.68,1.76-14.19c0.2-7.42,0-14.83-0.47-22.24c1.16,4.9,1.67,9.92,1.65,15.11
		C297.75,306.45,297.19,311.58,297.4,317.52z M301.1,277.33c0,0.2,0,0.4,0,0.61c0,0.13-0.01,0.26-0.01,0.39
		c0,0.2-0.01,0.39-0.02,0.59c-0.01,0.14-0.01,0.29-0.02,0.44c-0.01,0.27-0.02,0.54-0.04,0.81c-0.26,4.22-0.73,8.12-1.23,12.26
		c-0.21,1.7-0.46,3.42-0.73,5.17c-0.3-7.09-1.61-14.1-4.66-20.6c-4.02-8.55-8.61-16.42-10.42-25.73c0.54-0.26,1.01-0.75,1.41-1.59
		c0.32-0.69,0.64-1.4,0.96-2.14c1.64,6.42,7.81,10.22,11.71,15.44c0.28,0.44,2.81,4.71,3.03,13.08c0,0.08,0,0.17,0,0.25
		c0.01,0.22,0.01,0.44,0.01,0.67C301.1,277.1,301.1,277.21,301.1,277.33z"/>
</g>
</svg>
