<?xml version="1.0" encoding="utf-8"?>
<!-- Generator: Adobe Illustrator 26.0.1, SVG Export Plug-In . SVG Version: 6.00 Build 0)  -->
<svg version="1.1" id="Layer_1" xmlns="http://www.w3.org/2000/svg" xmlns:xlink="http://www.w3.org/1999/xlink" x="0px" y="0px"
	 viewBox="0 0 432 648" style="enable-background:new 0 0 432 648;" xml:space="preserve">
<style type="text/css">
	.st0{display:none;opacity:0.5;fill:none;stroke:#231F20;stroke-width:0.05;stroke-miterlimit:10;}
	.st1{fill:#FFFFFF;}
	.st2{fill:#E92A2A;}
	.st3{fill:#D52626;}
	.st4{fill:#9A1A1C;}
	.st5{fill:#8D1819;}
</style>
<path class="st0" d="M418.44,444.92c-2.94,1.51-8.31,5.17-9.04,17.27"/>
<g>
	<g id="White_00000021094159601099754920000007660171979430566028_">
		<path class="st1" d="M299.72,264.28v-8.71c0-8.5-6.36-17.76-7.25-19.02c-0.09-1.63-0.79-14-1.99-19.84
			c-1.13-5.51-3.16-10.79-3.57-11.85c0.32-0.94,1.7-5.12,2.49-10.22c0.92-5.87-3.07-20.28-5.46-26.35c-1.59-4.03-4.9-5.56-7.57-6.79
			c-1.44-0.66-2.69-1.24-3.39-2.06c-1.8-2.1-3.59-2.67-5.17-3.18c-0.41-0.13-0.82-0.26-1.2-0.42c-0.61-0.24-1.14-0.73-1.96-1.47
			c-1.38-1.25-3.47-3.15-7.93-5.74c-2.58-1.5-6.41-3.25-10.46-5.11c-6.07-2.78-12.95-5.93-14.55-7.92c-0.65-0.81-1.6-3.52-2.46-6.36
			c0.49-0.97,1.84-3.64,1.96-4.06c0.52-1.81,0.58-4.28,0.56-5.78c0.3,0.14,0.67,0.22,1.11,0.17c1.49-0.18,2.89-2.5,4.56-5.52
			c0.47-0.85,0.91-1.65,1.25-2.13c1.45-2.07,1.13-6.54,0.07-9.89c-0.31-0.98-0.83-1.54-1.56-1.68c-0.99-0.18-2.09,0.57-2.87,1.29
			c0.15-4.18,0.09-15.92-4.73-21.71c-4.15-4.98-12.46-6.22-15.6-6.52h-1.24c-3.15,0.3-11.45,1.54-15.6,6.52
			c-4.82,5.79-4.87,17.53-4.73,21.71c-0.78-0.72-1.87-1.47-2.87-1.29c-0.73,0.13-1.25,0.7-1.56,1.68c-1.06,3.35-1.37,7.82,0.07,9.89
			c0.34,0.49,0.78,1.28,1.25,2.13c1.67,3.02,3.07,5.34,4.56,5.52c0.44,0.05,0.81-0.03,1.11-0.17c-0.02,1.5,0.04,3.97,0.56,5.78
			c0.12,0.41,1.45,3.04,1.95,4.03c-0.87,2.85-1.81,5.58-2.47,6.39c-1.61,1.99-8.49,5.14-14.55,7.92c-4.05,1.86-7.88,3.61-10.46,5.11
			c-4.46,2.59-6.55,4.48-7.93,5.74c-0.81,0.74-1.35,1.23-1.96,1.47c-0.38,0.15-0.79,0.28-1.2,0.42c-1.58,0.51-3.37,1.08-5.17,3.18
			c-0.7,0.82-1.95,1.39-3.39,2.06c-2.66,1.23-5.98,2.76-7.57,6.79c-2.39,6.08-6.38,20.48-5.46,26.35c0.8,5.1,2.17,9.29,2.49,10.22
			c-0.42,1.06-2.44,6.34-3.57,11.85c-1.2,5.84-1.91,18.21-1.99,19.84c-0.9,1.26-7.25,10.52-7.25,19.02v8.71
			c-0.6,0.98-3.75,6.66-3.08,17.75c0.26,4.25,0.73,8.17,1.24,12.32c0.9,7.39,2.72,15.03,2.37,24.92
			c-0.53,15.08-0.4,27.99,1.47,33.73c0.81,2.47,5.18,14.88,5.38,15.4c0,0,0.17,0.57,0.72,0.4c0.03-0.01,2.79-0.79,3.09-4.42
			l1.15,1.17c0.2,0.21,0.54,0.18,0.71-0.05l0.05-0.08c0.09-0.12,1.37-1.95,1.76-4.24c0.81-1.25,2.46-4.43,0.47-7.47
			c-0.82-1.26-3.8-4.31-4.49-5.01c-0.05-0.63-0.25-2.59-0.78-4.72c-0.46-2.59-0.19-4.52,0.39-5.85c0.16-0.32,0.34-0.64,0.53-0.95
			c0.45-0.63,0.98-1.03,1.48-1.22c0.13-0.05,0.2-0.03,0.28,0.02c1.17,0.75,1.44,2.76,1.72,4.88c0.27,1.99,0.62,4,1.56,5.64
			c1.15,2.03,4.44,2.79,4.87-1.08c0.3-2.75,0.3-6.13,0.29-7.57l-0.08-1.45c-0.31-5.52-0.51-8.34-3.48-13.16
			c-1.3-2.11-1.32-3.29-0.5-11.5c0.4-4,2.96-10.52,5.58-17.43c2.98-7.9,6.07-16.06,6.27-20.79c0.31-7.34-0.66-10.98-1.01-12.04
			c0.62-0.74,2.35-3.04,2.81-6c0.55-3.45,0.38-9.44,0.36-9.59c0.02-0.1,1.83-10.45,4.81-15.19c2.2-3.5,5.18-9.72,6.63-13.42
			c0.81,3.67,1.52,6.65,1.99,8.05c0.74,2.21,1.67,4.67,2.58,7.05c1.29,3.39,2.52,6.6,2.83,8.27c0.31,1.64,0.39,9.97,0.24,24.75
			c-0.01,0.77-0.01,1.28-0.01,1.43c-0.03,0.28-0.65,1.39-1.21,2.37c-1.88,3.32-5.01,8.87-4.43,13.56c0.65,5.23,1.44,7.42,1.73,8.07
			c-0.59,1.89-4.97,16.2-4.3,26.52c0.23,3.6-1.18,9.22-2.97,16.33c-2.31,9.17-5.18,20.58-6.15,33.75
			c-1.44,19.48,2.66,51.48,4.2,63.53c0.33,2.58,0.55,4.28,0.58,4.8c0.08,1.27-0.04,2.15-0.18,3.17c-0.19,1.38-0.4,2.95-0.18,5.89
			c0.05,0.67,0.2,1.46,0.45,2.35c-1.09,2.81-2.08,5.61-2.94,8.2c-7.21,16.22-4,33.45-0.9,50.11c0.67,3.61,1.37,7.35,1.94,11
			l0.09,0.84c0.73,6.58,1.49,13.38-0.15,19.6c-0.83,3.15-1.7,4.99-2.35,6.13c0,0-0.01,0.01-0.01,0.01
			c-0.06,0.05-0.08,0.11-0.09,0.17c-0.15,0.26-0.29,0.49-0.4,0.68c-0.11,0.19-0.21,0.35-0.29,0.48c-0.66,1.19-0.66,2.54-0.38,3.85
			c-0.19,0.51-1.62,4.1-5.25,6.16c-3.41,1.93-6.46,3.22-7.55,3.76c-2.55-0.41-5.55,0.37-6.15,1.02c-0.46,0.49-0.93,1.25-0.93,3.15
			c0,1.84,2.21,2.68,3.2,2.96c0,0.66,0.16,1.87,1.06,3.27c1.29,2,9.28,4.53,12.66,5.52c1.15,0.34,3.38,1.87,5.35,3.22
			c1.85,1.27,3.6,2.47,4.67,2.88c1.09,0.41,3.4,0.81,6.11,0.81c3.32,0,7.23-0.59,10.26-2.48c5.71-3.57,1.78-18.39,1.61-19.02
			c-0.2-0.74-0.42-1.56-0.65-2.41c-0.71-2.68-1.52-5.71-2.34-8.17c0.03-0.93,0.51-1.9,1.03-2.93c0.56-1.12,1.14-2.29,1.14-3.5
			l-0.02-0.14c-5.16-18.58,2.5-36.05,9.92-52.94l0.95-2.18c0.36-1.43,0.84-2.89,1.32-4.3c0.96-2.89,1.96-5.88,1.96-8.92
			c-0.46-4.14-1.66-8.19-2.93-12.47c-0.76-2.54-1.77-6.29-2.67-9.7c4.41-6.72,8.29-15.26,9.22-20.35c0.7-3.79,1.3-10.97,2-19.27
			c0.62-7.34,1.32-15.66,2.17-22.3c1.05-8.2,3.22-17.45,4.97-24.89c1.19-5.09,2.22-9.48,2.56-12.13c0.75-5.86-0.34-12.74-0.59-14.17
			c0.68-2.1,0.97-4.49,1.03-6.92c0.06,2.43,0.35,4.82,1.03,6.92c-0.25,1.43-1.33,8.31-0.59,14.17c0.34,2.65,1.37,7.04,2.56,12.13
			c1.74,7.44,3.91,16.69,4.97,24.89c0.85,6.64,1.55,14.96,2.17,22.3c0.7,8.31,1.3,15.48,2,19.27c0.93,5.08,4.8,13.61,9.2,20.32
			c-0.94,3.56-1.98,7.42-2.67,9.73c-1.27,4.28-2.47,8.33-2.93,12.47c0,3.04,0.99,6.03,1.96,8.92c0.47,1.41,0.96,2.88,1.32,4.3
			l0.95,2.18c7.41,16.89,15.08,34.36,9.92,52.94l-0.02,0.14c0,1.21,0.58,2.38,1.14,3.5c0.51,1.03,1,2,1.03,2.93
			c-0.82,2.47-1.62,5.5-2.34,8.17c-0.23,0.86-0.45,1.68-0.65,2.41c-0.17,0.63-4.1,15.45,1.61,19.02c3.02,1.89,6.94,2.48,10.26,2.48
			c2.71,0,5.01-0.4,6.11-0.81c1.07-0.4,2.82-1.6,4.67-2.88c1.96-1.35,4.19-2.88,5.35-3.22c3.38-0.99,11.37-3.52,12.66-5.52
			c0.9-1.4,1.06-2.62,1.06-3.27c0.99-0.28,3.2-1.12,3.2-2.96c0-1.91-0.47-2.66-0.93-3.15c-0.61-0.65-3.6-1.43-6.15-1.02
			c-1.09-0.55-4.14-1.83-7.55-3.76c-3.63-2.06-5.06-5.65-5.25-6.16c0.28-1.31,0.27-2.67-0.38-3.85c-0.08-0.14-0.17-0.3-0.29-0.48
			c-0.12-0.19-0.25-0.42-0.4-0.68c-0.01-0.06-0.03-0.12-0.09-0.17c0,0-0.01-0.01-0.01-0.01c-0.64-1.15-1.52-2.99-2.35-6.13
			c-1.64-6.22-0.88-13.02-0.15-19.6l0.09-0.84c0.58-3.65,1.27-7.39,1.94-11c3.1-16.66,6.31-33.89-0.9-50.11
			c-0.86-2.59-1.85-5.38-2.93-8.19c0.25-0.89,0.41-1.69,0.46-2.36c0.21-2.94,0-4.51-0.18-5.89c-0.14-1.02-0.25-1.89-0.18-3.17
			c0.03-0.52,0.25-2.22,0.58-4.8c1.54-12.05,5.64-44.05,4.2-63.53c-0.97-13.17-3.84-24.58-6.15-33.75
			c-1.79-7.11-3.21-12.73-2.97-16.33c0.67-10.32-3.7-24.63-4.3-26.52c0.29-0.66,1.08-2.84,1.73-8.07
			c0.58-4.69-2.56-10.24-4.43-13.56c-0.55-0.98-1.18-2.09-1.21-2.37c0-0.15,0-0.66-0.01-1.43c-0.14-14.78-0.06-23.1,0.24-24.75
			c0.31-1.67,1.54-4.88,2.83-8.27c0.91-2.38,1.84-4.83,2.58-7.05c0.46-1.39,1.18-4.36,1.98-8.02c1.46,3.7,4.42,9.9,6.62,13.38
			c2.99,4.74,4.8,15.09,4.81,15.19c-0.01,0.15-0.18,6.14,0.36,9.59c0.47,2.97,2.19,5.26,2.81,6c-0.35,1.05-1.31,4.7-1.01,12.04
			c0.2,4.74,3.28,12.9,6.27,20.79c2.61,6.91,5.18,13.43,5.58,17.43c0.82,8.22,0.8,9.39-0.5,11.5c-2.97,4.82-3.17,7.64-3.48,13.16
			l-0.08,1.45c-0.01,1.44-0.02,4.82,0.29,7.57c0.43,3.87,3.72,3.1,4.87,1.08c0.94-1.65,1.29-3.66,1.56-5.64
			c0.29-2.12,0.56-4.13,1.72-4.88c0.08-0.05,0.15-0.07,0.28-0.02c0.51,0.19,1.03,0.59,1.48,1.22c0.19,0.32,0.37,0.64,0.53,0.95
			c0.58,1.33,0.85,3.26,0.39,5.85c-0.54,2.13-0.73,4.09-0.78,4.72c-0.69,0.71-3.67,3.75-4.49,5.01c-1.99,3.04-0.34,6.23,0.47,7.47
			c0.39,2.29,1.68,4.12,1.76,4.24l0.05,0.08c0.17,0.23,0.51,0.26,0.71,0.05l1.15-1.17c0.29,3.62,3.06,4.41,3.09,4.42
			c0.55,0.17,0.72-0.4,0.72-0.4c0.2-0.53,4.57-12.93,5.38-15.4c1.87-5.74,2-18.65,1.47-33.73c-0.35-9.89,1.48-17.53,2.37-24.92
			c0.5-4.15,0.98-8.07,1.24-12.32C303.47,270.94,300.33,265.26,299.72,264.28z"/>
	</g>
	<g id="Middle_and_lower_trapz_00000120520687447615594010000018098336184276114616_">
		<g>
			<path class="st2" d="M214.78,223.48c0.06,3.85,0.31,7.71,0.27,11.56c-0.04,3.03,3.95,0.03,4.97-1.41
				c1.41-1.99,2.89-3.92,4.27-5.93c4.31-6.31,8.98-12.51,12.37-19.39c4.69-9.49,1.4-18.39-0.73-27.97
				c-0.87-3.94-1.71-8.44,1.96-10.99c1.98-1.38,5.08-1.59,7.35-1.95c1.09-0.17,2.14-0.22,3.23-0.28c3.22-0.2,10.9-0.57,10.05-6.25
				c-6.59,1.13-15.06-0.16-18.84-0.74c-4.28-0.66-8.4-1.98-12.07-3.98c-6.26,3.47-10.68,8.77-12.5,15.95
				c-2.23,8.74-0.5,18.36-0.17,27.24C215.27,207.36,214.67,215.44,214.78,223.48"/>
			<path class="st3" d="M214.5,191.94c-0.07-0.88-0.13-1.77-0.2-2.66c0-0.01,0-0.03,0-0.04c0,0,0-0.01,0-0.01
				c0.06,0.9,0.13,1.79,0.2,2.69L214.5,191.94 M216.55,186.37c-0.08-0.43-0.15-0.86-0.22-1.29c0.62-0.86,1.35-1.67,2.19-2.45
				c3.98-3.63,8.82-6.66,13.5-9.58c0.42-0.26,0.85-0.53,1.27-0.79c0.04,0.25,0.09,0.49,0.16,0.74c-0.24,0.15-0.48,0.31-0.71,0.46
				c-3.09,1.98-6.28,4.02-9.73,6.56C220.02,182.23,217.93,184.26,216.55,186.37"/>
			<path class="st3" d="M248.4,163.48c-2.65,0-5.29-0.25-7.84-0.76c-1.43-0.28-2.88-0.66-4.41-1.06c-3.07-0.81-6.25-1.64-9.3-1.64
				c-2.31,0-4.29,0.48-6.06,1.46c0.44-0.48,0.9-0.94,1.37-1.39c1.33-0.51,2.72-0.75,4.23-0.75c2.17,0,4.4,0.51,6.76,1.05l0.36,0.08
				c4.98,1.13,10.34,2.18,15.86,2.18c3.2,0,6.23-0.35,9.25-1.06c0,0.24-0.01,0.47-0.04,0.69
				C255.16,163.08,251.74,163.48,248.4,163.48"/>
			<path class="st3" d="M215.08,172.31c0.02-0.08,0.04-0.15,0.06-0.22c0.17-0.67,0.36-1.32,0.57-1.95c0.01-0.01,0.01-0.01,0.02-0.02
				c-0.22,0.64-0.41,1.3-0.58,1.97c-0.02,0.06-0.03,0.13-0.05,0.2L215.08,172.31 M217.36,169.15c0.11-0.42,0.23-0.84,0.35-1.26
				c2.87-2.63,6.6-3.84,11.63-3.84c2.94,0,6.1,0.41,9.15,0.8c3.11,0.4,6.32,0.81,9.37,0.81c4.38,0,7.75-0.85,10.56-2.67
				c-0.13,0.4-0.31,0.77-0.54,1.09c-2.7,1.5-5.86,2.21-9.85,2.21h0c-3.1,0-6.36-0.43-9.5-0.84c-3.05-0.4-6.21-0.82-9.14-0.82
				C224.07,164.62,220.23,166.04,217.36,169.15"/>
			<path class="st3" d="M214.05,184.34c-0.02-0.85-0.04-1.71-0.03-2.56c0-0.01,0-0.01,0-0.02c-0.01,0.85,0,1.7,0.03,2.56
				L214.05,184.34 M215.96,178.31c0.03-0.7,0.07-1.39,0.14-2.09c1.33-2.59,3.19-4.71,6.01-5.83c3.99-1.58,8.25-1.83,12.41-1.96
				c-0.2,0.21-0.38,0.43-0.54,0.67c-1.11,0.04-2.23,0.1-3.34,0.19C222.07,170.02,218.29,172.87,215.96,178.31"/>
			<path class="st3" d="M215.35,236.08c-0.15-0.17-0.26-0.44-0.28-0.82C215.1,235.64,215.2,235.91,215.35,236.08
				C215.35,236.08,215.35,236.08,215.35,236.08 M219.65,226.66c1.5-1.78,3.21-3.44,5.02-5.19c0.53-0.51,1.07-1.04,1.61-1.58
				c1.9-1.87,3.57-3.71,5.01-5.54c-1.2,1.7-2.43,3.37-3.66,5.03c-0.57,0.57-1.15,1.14-1.71,1.69c-1.77,1.74-3.5,3.44-5.06,5.23
				C220.42,226.5,220.02,226.61,219.65,226.66 M235.23,208.42c1.83-3.4,3.03-6.94,3.73-10.84c0.01-0.08,0.05-0.14,0.11-0.19
				c0.02,1.21-0.04,2.42-0.19,3.63c-0.17,0.62-0.34,1.23-0.54,1.83C237.39,204.75,236.34,206.6,235.23,208.42"/>
			<path class="st3" d="M214.92,228.02c-0.01-0.43-0.03-0.87-0.04-1.3C214.89,227.16,214.9,227.59,214.92,228.02L214.92,228.02
				 M216.48,224.27c-0.1-0.28-0.18-0.58-0.25-0.88c1.85-3.13,4.49-5.44,7.25-7.85c0.78-0.68,1.59-1.39,2.4-2.13
				c7.28-6.66,11.35-13.24,12.79-20.66c0.1,0.65,0.18,1.29,0.24,1.94c-1.29,5.05-3.85,9.78-7.79,14.39
				c-1.86,2.17-4.05,4.06-6.17,5.89C221.64,217.82,218.47,220.56,216.48,224.27"/>
			<path class="st3" d="M214.88,214.5c0.01-0.54,0.03-1.07,0.04-1.6c0,0,0-0.01,0.01-0.01C214.91,213.42,214.9,213.96,214.88,214.5
				C214.88,214.49,214.88,214.5,214.88,214.5 M217.79,209.46c0.13-0.52,0.26-1.04,0.38-1.57c1.95-2.45,4.24-4.69,6.48-6.89
				c6.03-5.92,11.72-11.52,11.26-20.38l0.06-0.17c0.19,0.84,0.38,1.68,0.58,2.51c-0.58,7.78-6.05,13.16-11.35,18.38
				C222.59,203.9,219.91,206.53,217.79,209.46"/>
			<path class="st3" d="M215,199.98c-0.01-0.21-0.01-0.43-0.02-0.64c-0.02-0.44-0.04-0.87-0.06-1.31c0,0,0-0.01,0.01-0.01
				c0.02,0.45,0.04,0.89,0.06,1.33c0.01,0.21,0.01,0.41,0.02,0.62C215.01,199.96,215,199.97,215,199.98 M218.35,193.14
				c-0.08-0.33-0.17-0.66-0.27-0.99c1.26-1.66,2.79-3.17,4.59-4.55c0.91-0.7,1.86-1.38,2.78-2.04c3.7-2.64,7.51-5.37,9.16-9.72
				c0.13,0.28,0.26,0.56,0.39,0.84c-1.43,3.33-4.05,5.65-6.74,7.66l-0.56,0.42C224.1,187.45,220.79,189.91,218.35,193.14"/>
			<path class="st3" d="M215.04,207.08c0.01-0.77,0.02-1.54,0.02-2.31c0-0.01,0-0.01,0.01-0.02c0,0.77-0.01,1.54-0.02,2.3
				C215.05,207.06,215.05,207.07,215.04,207.08 M219.22,198.65c-0.02-0.37-0.04-0.75-0.07-1.12c1.27-1.59,2.79-3.16,4.59-4.75
				c0.82-0.73,1.68-1.44,2.51-2.14c3.99-3.34,8.11-6.78,9.31-12.18c0.09,0.48,0.19,0.95,0.29,1.42c-1.42,4.48-4.77,7.59-8.09,10.4
				C224.44,193.08,221.5,195.7,219.22,198.65"/>
			<path class="st3" d="M214.78,221.45c0-0.88,0.01-1.76,0.02-2.64c0,0,0-0.01,0-0.01C214.78,219.68,214.78,220.56,214.78,221.45
				L214.78,221.45 M216.13,217.34c0.09-0.58,0.18-1.16,0.28-1.73c1.64-2.54,3.88-4.6,6.02-6.37c0.6-0.5,1.21-0.99,1.82-1.49
				c7.24-5.91,14.72-12.02,13.01-21.89c0.3,1.24,0.58,2.47,0.83,3.69c-0.24,3.96-1.85,7.79-4.68,11c-2.03,2.31-4.67,4.38-7.22,6.37
				C222.27,209.99,218.25,213.14,216.13,217.34"/>
			<path class="st4" d="M235.41,177.57c-0.14-0.3-0.27-0.59-0.41-0.89c0.08-0.19,0.16-0.39,0.24-0.6
				C235.27,176.58,235.33,177.07,235.41,177.57 M234.61,175.84c-0.07-0.15-0.14-0.3-0.21-0.46c-0.35-0.77-0.71-1.56-0.94-2.38
				c0.86-0.55,1.73-1.11,2.61-1.68c-0.38,0.68-0.62,1.41-0.75,2.18c-0.06,0.05-0.09,0.11-0.11,0.19
				C235.07,174.45,234.87,175.16,234.61,175.84 M233.3,172.27c-0.08-0.52-0.09-1.04,0-1.57c0.11-0.58,0.34-1.12,0.66-1.6
				c0.69-0.03,1.38-0.05,2.06-0.07c0.83-0.02,1.68-0.05,2.53-0.08c-0.02,0.01-0.05,0.02-0.07,0.04c-0.01,0-0.01,0-0.02,0
				c-0.06,0-0.12,0.02-0.17,0.05C236.69,170.13,234.99,171.21,233.3,172.27 M234.51,168.44c0.8-0.82,1.88-1.42,2.99-1.72
				c1.09-0.3,2.21-0.38,3.34-0.38c0.91,0,1.82,0.05,2.73,0.08c0.65,0.02,1.3,0.03,1.94,0.03c2.96,0,5.93-0.23,8.86-0.69
				c0.59-0.09,1.38-0.22,2.12-0.42c-1.5,0.94-3.57,1.36-5.38,1.57c-0.99,0.11-1.91,0.17-2.61,0.21c-0.57,0.03-1.14,0.07-1.7,0.11
				c-0.26,0.02-0.52,0.04-0.78,0.07c-0.25,0.03-0.51,0.06-0.76,0.1c-1.05,0.17-2.27,0.3-3.47,0.53c-0.39,0.08-0.78,0.16-1.16,0.26
				c-1.66,0.12-3.34,0.17-4.97,0.22C235.28,168.41,234.9,168.42,234.51,168.44"/>
			<path class="st5" d="M233.46,173.01c-0.07-0.25-0.12-0.49-0.16-0.74c1.69-1.06,3.39-2.14,5-3.23c0.05-0.04,0.11-0.05,0.17-0.05
				c0.01,0,0.01,0,0.02,0c-0.2,0.11-0.4,0.23-0.58,0.36c-0.82,0.57-1.42,1.24-1.84,1.98C235.19,171.9,234.32,172.46,233.46,173.01"
				/>
			<path class="st5" d="M233.97,169.1c0.16-0.24,0.34-0.46,0.54-0.67c0.38-0.01,0.77-0.02,1.15-0.03c1.63-0.05,3.31-0.1,4.97-0.22
				c-0.74,0.19-1.45,0.44-2.08,0.77c-0.85,0.04-1.7,0.06-2.53,0.08C235.35,169.06,234.66,169.08,233.97,169.1"/>
			<path class="st5" d="M235,176.68c-0.13-0.28-0.26-0.56-0.39-0.84c0.26-0.68,0.46-1.39,0.6-2.15c0.01-0.08,0.05-0.14,0.11-0.19
				c-0.14,0.83-0.15,1.7-0.08,2.58C235.16,176.29,235.08,176.49,235,176.68"/>
			<path class="st4" d="M215.99,236.34c-0.03,0-0.07,0-0.1,0c-0.05,0-0.09-0.01-0.13-0.02c-0.16-0.04-0.3-0.11-0.41-0.23
				c1.01-3.83,3.04-6.92,5.51-9.77c0.34-0.15,0.71-0.34,1.1-0.58c1.67-1.04,2.9-2.65,4.08-4.22c0.53-0.71,1.06-1.42,1.59-2.13
				c1.41-1.41,2.81-2.87,4.08-4.41c2.97-3.61,5.19-7.68,6.63-12.12c0.13-0.26,0.26-0.52,0.38-0.79c-0.36,2.06-1,4.14-2.04,6.24
				c-3.39,6.88-8.06,13.08-12.37,19.39c-1.38,2.02-2.86,3.94-4.27,5.93C219.33,234.61,217.23,236.34,215.99,236.34 M215.07,234.68
				c0-0.16,0-0.32,0-0.47c0-2.06-0.07-4.12-0.15-6.18c0.06-0.04,0.11-0.1,0.13-0.18c0.36-1.29,0.84-2.47,1.43-3.57
				c0.5,1.4,1.36,2.41,2.76,2.41c0.13,0,0.27-0.01,0.41-0.03C217.7,228.96,216.1,231.48,215.07,234.68 M214.86,226.27
				c-0.03-0.93-0.06-1.87-0.07-2.8c0-0.08,0-0.16,0-0.23c-0.01-0.6-0.01-1.2-0.01-1.79l0.07-0.37c0.25-1.34,0.69-2.58,1.28-3.74
				c-0.01,0.07-0.02,0.15-0.04,0.22c-0.25,1.57-0.32,3.92,0.13,5.83C215.7,224.28,215.24,225.23,214.86,226.27 M214.8,218.8
				c0.02-1.44,0.05-2.87,0.09-4.31c0.04-0.04,0.08-0.08,0.1-0.14c0.73-1.74,1.69-3.36,2.8-4.9c-0.15,0.59-0.31,1.17-0.46,1.75
				c-0.4,1.47-0.68,2.92-0.92,4.39C215.76,216.59,215.21,217.66,214.8,218.8 M231.29,214.35c1.37-1.94,2.7-3.92,3.94-5.94
				C234.15,210.43,232.84,212.39,231.29,214.35 M214.92,212.88c0.05-1.94,0.1-3.89,0.13-5.83c0.83-3.24,2.28-5.94,4.17-8.4
				c0.13,3.1-0.36,6.21-1.05,9.24C216.92,209.46,215.8,211.11,214.92,212.88 M215.07,204.75c0-1.6-0.01-3.2-0.06-4.79
				c0.73-2.68,1.88-4.89,3.34-6.81c0.34,1.33,0.62,2.67,0.77,4.03c0.01,0.12,0.03,0.24,0.04,0.36
				C217.3,199.84,215.98,202.2,215.07,204.75 M214.93,198.01c-0.1-2-0.26-4.04-0.42-6.09l0.02-0.16c0.28-1.94,0.92-3.69,2.02-5.38
				c0.22,1.17,0.51,2.34,0.86,3.5c0.23,0.76,0.46,1.51,0.67,2.28C216.73,193.93,215.68,195.87,214.93,198.01 M214.31,189.23
				c0-0.04-0.01-0.08-0.01-0.12c-0.06-0.8-0.11-1.6-0.15-2.41c-0.04-0.79-0.07-1.58-0.1-2.37l0.1-0.39c0.53-2.12,1.1-3.99,1.81-5.63
				c-0.08,2.26,0.03,4.52,0.37,6.77C215.42,186.36,214.74,187.74,214.31,189.23 M214.03,181.77c0.03-3.22,0.31-6.41,1.07-9.49
				l0.02-0.04c0.68-1.17,1.42-2.21,2.24-3.1c-0.62,2.34-1.05,4.7-1.27,7.08C215.22,177.92,214.57,179.82,214.03,181.77
				 M215.73,170.11c0.87-2.55,2.1-4.84,3.63-6.87c-0.47,1.07-0.87,2.18-1.24,3.33c-0.14,0.44-0.28,0.87-0.41,1.31
				C217,168.54,216.34,169.28,215.73,170.11"/>
			<path class="st5" d="M214.51,191.92c-0.07-0.89-0.14-1.79-0.2-2.69c0.44-1.49,1.11-2.87,2.03-4.14c0.07,0.43,0.14,0.86,0.22,1.29
				c-1.1,1.69-1.74,3.44-2.02,5.38L214.51,191.92"/>
			<path class="st5" d="M215.1,172.28c0.02-0.06,0.03-0.13,0.05-0.2c0.17-0.68,0.37-1.33,0.58-1.97c0.61-0.83,1.27-1.57,1.98-2.22
				c-0.12,0.42-0.24,0.84-0.35,1.26c-0.82,0.89-1.57,1.92-2.24,3.1L215.1,172.28"/>
			<path class="st5" d="M214.05,184.33c-0.02-0.85-0.03-1.71-0.03-2.56c0.54-1.95,1.19-3.85,2.07-5.54
				c-0.06,0.7-0.11,1.39-0.14,2.09c-0.7,1.64-1.27,3.51-1.81,5.63L214.05,184.33"/>
			<path class="st5" d="M215.35,236.08c-0.15-0.17-0.26-0.44-0.28-0.81c0-0.07-0.01-0.15-0.01-0.23c0-0.12,0-0.24,0-0.36
				c1.03-3.2,2.63-5.71,4.58-8.02c0.37-0.05,0.77-0.16,1.21-0.35C218.39,229.16,216.37,232.25,215.35,236.08 M227.63,219.38
				c1.24-1.66,2.47-3.33,3.66-5.03c1.55-1.96,2.86-3.93,3.94-5.94c1.11-1.82,2.16-3.67,3.1-5.57c-1.43,4.45-3.65,8.51-6.63,12.12
				C230.44,216.51,229.04,217.97,227.63,219.38"/>
			<path class="st5" d="M214.92,228.02c-0.02-0.43-0.03-0.87-0.05-1.3c-0.01-0.15-0.01-0.3-0.01-0.45c0.38-1.04,0.84-2,1.36-2.89
				c0.07,0.31,0.16,0.6,0.25,0.88c-0.59,1.1-1.07,2.28-1.43,3.57C215.03,227.92,214.98,227.98,214.92,228.02"/>
			<path class="st5" d="M214.88,214.49c0.01-0.54,0.03-1.07,0.04-1.61c0.88-1.77,1.99-3.42,3.24-4.99
				c-0.12,0.52-0.25,1.05-0.38,1.57c-1.11,1.54-2.08,3.16-2.8,4.9C214.96,214.41,214.93,214.46,214.88,214.49"/>
			<path class="st5" d="M215.01,199.96c-0.01-0.21-0.01-0.41-0.02-0.62c-0.02-0.44-0.04-0.89-0.06-1.33
				c0.75-2.13,1.8-4.08,3.16-5.86c0.09,0.33,0.18,0.66,0.27,0.99C216.89,195.07,215.73,197.27,215.01,199.96"/>
			<path class="st5" d="M215.05,207.05c0.01-0.77,0.02-1.54,0.02-2.3c0.91-2.55,2.23-4.91,4.08-7.21c0.03,0.37,0.06,0.75,0.07,1.12
				C217.33,201.11,215.88,203.81,215.05,207.05"/>
			<path class="st5" d="M214.78,221.44c0-0.88,0.01-1.76,0.02-2.64c0.42-1.15,0.97-2.21,1.61-3.2c-0.1,0.57-0.19,1.15-0.28,1.73
				c-0.59,1.16-1.03,2.4-1.28,3.74L214.78,221.44"/>
		</g>
		<g>
			<path class="st2" d="M211.99,223.46c-0.06,3.85-0.31,7.71-0.27,11.56c0.04,3.03-3.95,0.03-4.97-1.41
				c-1.41-1.99-2.89-3.92-4.27-5.93c-4.31-6.31-8.98-12.51-12.37-19.39c-4.69-9.49-1.4-18.39,0.73-27.97
				c0.87-3.94,1.71-8.44-1.96-10.99c-1.98-1.38-5.08-1.59-7.35-1.95c-1.09-0.17-2.14-0.22-3.23-0.28c-3.22-0.2-10.9-0.57-10.05-6.25
				c6.59,1.13,15.06-0.16,18.84-0.74c4.28-0.66,8.4-1.98,12.07-3.98c6.26,3.47,10.68,8.77,12.5,15.95
				c2.23,8.74,0.5,18.36,0.17,27.24C211.5,207.34,212.11,215.42,211.99,223.46"/>
			<path class="st3" d="M212.27,191.92l0-0.02c0.07-0.89,0.14-1.79,0.2-2.69c0,0,0,0.01,0,0.01c0,0.01,0,0.03,0,0.04
				C212.41,190.15,212.34,191.04,212.27,191.92 M210.22,186.35c-1.38-2.11-3.47-4.14-6.47-6.35c-3.44-2.54-6.64-4.58-9.73-6.56
				c-0.24-0.15-0.47-0.31-0.71-0.46c0.07-0.25,0.12-0.49,0.16-0.74c0.42,0.27,0.85,0.53,1.27,0.79c4.68,2.92,9.53,5.95,13.5,9.58
				c0.84,0.77,1.57,1.59,2.19,2.45C210.38,185.5,210.3,185.93,210.22,186.35"/>
			<path class="st3" d="M178.38,163.46c2.65,0,5.29-0.25,7.84-0.76c1.43-0.28,2.88-0.66,4.41-1.06c3.07-0.81,6.25-1.64,9.3-1.64
				c2.31,0,4.29,0.48,6.06,1.46c-0.44-0.48-0.9-0.94-1.37-1.39c-1.33-0.51-2.72-0.75-4.23-0.75c-2.17,0-4.4,0.51-6.76,1.05
				l-0.36,0.08c-4.98,1.13-10.34,2.18-15.86,2.18c-3.2,0-6.23-0.35-9.25-1.06c0,0.24,0.01,0.47,0.04,0.69
				C171.62,163.06,175.04,163.46,178.38,163.46"/>
			<path class="st3" d="M211.69,172.29l-0.01-0.03c-0.02-0.06-0.03-0.13-0.05-0.2c-0.17-0.68-0.37-1.33-0.58-1.97
				c0.01,0.01,0.01,0.01,0.02,0.02c0.21,0.63,0.41,1.28,0.57,1.95C211.65,172.14,211.67,172.21,211.69,172.29 M209.41,169.13
				c-2.87-3.11-6.71-4.53-12.03-4.53c-2.93,0-6.09,0.42-9.14,0.82c-3.14,0.41-6.4,0.84-9.5,0.84h0c-3.99,0-7.15-0.7-9.85-2.21
				c-0.23-0.33-0.42-0.69-0.54-1.09c2.81,1.82,6.18,2.67,10.56,2.67c3.05,0,6.26-0.41,9.37-0.81c3.05-0.39,6.21-0.8,9.15-0.8
				c5.03,0,8.76,1.21,11.63,3.84C209.19,168.29,209.3,168.71,209.41,169.13"/>
			<path class="st3" d="M212.72,184.32l0-0.01c0.02-0.85,0.03-1.71,0.03-2.56c0,0,0,0.01,0,0.02
				C212.76,182.62,212.75,183.47,212.72,184.32 M210.82,178.29c-2.34-5.44-6.12-8.29-14.67-9.02c-1.11-0.09-2.23-0.15-3.34-0.19
				c-0.16-0.24-0.34-0.46-0.54-0.67c4.16,0.13,8.42,0.38,12.41,1.96c2.82,1.12,4.68,3.24,6.01,5.83
				C210.74,176.9,210.79,177.6,210.82,178.29"/>
			<path class="st3" d="M211.42,236.06C211.42,236.06,211.42,236.06,211.42,236.06c0.15-0.17,0.25-0.44,0.28-0.82
				C211.68,235.63,211.58,235.89,211.42,236.06 M207.13,226.64c-0.37-0.05-0.77-0.16-1.21-0.35c-1.56-1.79-3.29-3.5-5.06-5.23
				c-0.57-0.56-1.14-1.12-1.71-1.69c-1.24-1.66-2.47-3.33-3.66-5.03c1.45,1.83,3.11,3.67,5.01,5.54c0.55,0.54,1.08,1.06,1.61,1.58
				C203.92,223.2,205.63,224.86,207.13,226.64 M191.55,208.4c-1.11-1.82-2.16-3.67-3.1-5.57c-0.19-0.6-0.37-1.21-0.54-1.83
				c-0.15-1.21-0.21-2.42-0.19-3.63c0.05,0.04,0.09,0.11,0.11,0.19C188.52,201.46,189.71,205,191.55,208.4"/>
			<path class="st3" d="M211.86,228L211.86,228c0.01-0.43,0.03-0.87,0.04-1.3C211.89,227.14,211.87,227.57,211.86,228 M210.3,224.25
				c-1.99-3.71-5.16-6.45-8.47-9.3c-2.12-1.83-4.31-3.72-6.17-5.89c-3.94-4.61-6.5-9.34-7.79-14.39c0.06-0.65,0.15-1.29,0.24-1.94
				c1.44,7.42,5.51,14,12.79,20.66c0.81,0.74,1.62,1.44,2.4,2.13c2.76,2.41,5.4,4.72,7.25,7.85
				C210.48,223.68,210.4,223.97,210.3,224.25"/>
			<path class="st3" d="M211.9,214.48C211.89,214.48,211.89,214.48,211.9,214.48c-0.02-0.54-0.03-1.08-0.05-1.62
				c0,0,0,0.01,0.01,0.01C211.87,213.41,211.88,213.94,211.9,214.48 M208.98,209.44c-2.12-2.93-4.8-5.56-7.41-8.13
				c-5.31-5.22-10.78-10.6-11.35-18.38c0.2-0.83,0.4-1.67,0.58-2.51l0.06,0.17c-0.46,8.87,5.23,14.46,11.26,20.38
				c2.24,2.2,4.53,4.45,6.48,6.89C208.73,208.4,208.85,208.92,208.98,209.44"/>
			<path class="st3" d="M211.77,199.96c0-0.01,0-0.01,0-0.02c0.01-0.21,0.01-0.41,0.02-0.62c0.02-0.44,0.04-0.89,0.06-1.33
				c0,0,0,0.01,0.01,0.01c-0.02,0.44-0.04,0.88-0.06,1.31C211.79,199.53,211.78,199.74,211.77,199.96 M208.43,193.12
				c-2.45-3.23-5.75-5.69-9.35-8.38l-0.56-0.42c-2.69-2.01-5.31-4.33-6.74-7.66c0.13-0.28,0.26-0.56,0.39-0.84
				c1.65,4.35,5.46,7.08,9.16,9.72c0.92,0.66,1.88,1.34,2.78,2.04c1.8,1.38,3.33,2.9,4.59,4.55
				C208.6,192.46,208.51,192.79,208.43,193.12"/>
			<path class="st3" d="M211.73,207.06c0-0.01,0-0.02-0.01-0.03c-0.01-0.77-0.02-1.54-0.02-2.3c0,0.01,0,0.01,0.01,0.02
				C211.71,205.52,211.72,206.29,211.73,207.06 M207.55,198.63c-2.28-2.96-5.22-5.57-8.53-8.37c-3.33-2.81-6.67-5.92-8.09-10.4
				c0.1-0.47,0.2-0.94,0.29-1.42c1.2,5.4,5.32,8.84,9.31,12.18c0.83,0.69,1.69,1.41,2.51,2.14c1.8,1.59,3.32,3.16,4.59,4.75
				C207.59,197.89,207.57,198.26,207.55,198.63"/>
			<path class="st3" d="M212,221.43L212,221.43c0-0.89-0.01-1.77-0.02-2.65c0,0,0,0.01,0,0.01C211.99,219.67,212,220.55,212,221.43
				 M210.65,217.32c-2.12-4.2-6.14-7.35-10.06-10.42c-2.55-2-5.18-4.07-7.22-6.37c-2.83-3.21-4.45-7.04-4.68-11
				c0.25-1.23,0.54-2.46,0.83-3.69c-1.71,9.87,5.77,15.98,13.01,21.89c0.61,0.5,1.22,1,1.82,1.49c2.14,1.77,4.38,3.84,6.02,6.37
				C210.46,216.16,210.56,216.73,210.65,217.32"/>
			<path class="st4" d="M191.37,177.55c0.08-0.5,0.14-0.99,0.17-1.48c0.08,0.2,0.15,0.4,0.24,0.6
				C191.64,176.96,191.5,177.25,191.37,177.55 M192.17,175.82c-0.26-0.68-0.46-1.39-0.6-2.15c-0.01-0.08-0.05-0.14-0.11-0.19
				c-0.13-0.77-0.36-1.51-0.75-2.18c0.88,0.58,1.75,1.14,2.61,1.68c-0.22,0.81-0.58,1.61-0.94,2.38
				C192.31,175.52,192.23,175.67,192.17,175.82 M193.47,172.25c-1.69-1.06-3.39-2.14-5-3.23c-0.05-0.04-0.11-0.05-0.17-0.05
				c-0.01,0-0.01,0-0.02,0c-0.02-0.01-0.04-0.02-0.07-0.04c0.85,0.04,1.7,0.06,2.53,0.08c0.68,0.02,1.37,0.04,2.06,0.07
				c0.33,0.48,0.56,1.02,0.66,1.6C193.57,171.2,193.56,171.73,193.47,172.25 M192.26,168.42c-0.38-0.01-0.77-0.02-1.15-0.03
				c-1.63-0.05-3.31-0.1-4.97-0.22c-0.38-0.1-0.77-0.18-1.16-0.26c-1.21-0.23-2.43-0.37-3.47-0.53c-0.26-0.04-0.51-0.07-0.76-0.1
				c-0.26-0.03-0.52-0.05-0.78-0.07c-0.56-0.04-1.12-0.08-1.7-0.11c-0.7-0.04-1.62-0.09-2.61-0.21c-1.81-0.21-3.88-0.62-5.38-1.57
				c0.75,0.2,1.53,0.33,2.12,0.42c2.93,0.46,5.89,0.69,8.86,0.69c0.65,0,1.3-0.01,1.94-0.03c0.91-0.03,1.82-0.08,2.73-0.08
				c1.13,0,2.26,0.08,3.34,0.38C190.39,167,191.47,167.59,192.26,168.42"/>
			<path class="st5" d="M193.31,172.99c0.07-0.25,0.12-0.49,0.16-0.74c-1.69-1.06-3.39-2.14-5-3.23c-0.05-0.04-0.11-0.05-0.17-0.05
				c-0.01,0-0.01,0-0.02,0c0.2,0.11,0.4,0.23,0.58,0.36c0.82,0.57,1.42,1.24,1.84,1.98C191.59,171.88,192.46,172.44,193.31,172.99"
				/>
			<path class="st5" d="M192.81,169.08c-0.16-0.24-0.34-0.46-0.54-0.67c-0.38-0.01-0.77-0.02-1.15-0.03
				c-1.63-0.05-3.31-0.1-4.97-0.22c0.74,0.19,1.45,0.44,2.08,0.77c0.85,0.04,1.7,0.06,2.53,0.08
				C191.43,169.04,192.12,169.06,192.81,169.08"/>
			<path class="st5" d="M191.78,176.66c0.13-0.28,0.26-0.56,0.39-0.84c-0.26-0.68-0.46-1.39-0.6-2.15
				c-0.01-0.08-0.05-0.14-0.11-0.19c0.14,0.83,0.15,1.7,0.08,2.58C191.61,176.27,191.69,176.47,191.78,176.66"/>
			<path class="st4" d="M210.77,236.42c-1.24,0-3.38-1.77-4.08-2.76c-1.41-1.99-2.92-3.92-4.3-5.93
				c-4.31-6.31-8.97-12.48-12.36-19.35c-1.04-2.11-1.68-4.37-2.03-6.43c0.13,0.26,0.31,0.62,0.44,0.88
				c1.43,4.45,3.65,8.51,6.63,12.12c1.27,1.54,2.67,3,4.08,4.41c0.53,0.71,1.06,1.42,1.59,2.13c1.18,1.58,2.41,3.19,4.08,4.22
				c0.39,0.24,0.75,0.43,1.1,0.58c2.47,2.85,4.49,5.93,5.51,9.77c-0.11,0.12-0.26,0.3-0.42,0.34c-0.04,0.01-0.09,0.02-0.13,0.02
				 M211.71,234.66c-1.03-3.2-2.63-5.71-4.58-8.02c0.14,0.02,0.28,0.03,0.41,0.03c1.4,0,2.26-1.01,2.76-2.41
				c0.59,1.1,1.07,2.28,1.43,3.57c0.02,0.08,0.07,0.14,0.13,0.18c-0.07,2.06-0.15,4.12-0.15,6.18
				C211.71,234.34,211.71,234.5,211.71,234.66 M211.92,226.25c-0.38-1.04-0.84-2-1.36-2.89c0.45-1.92,0.38-4.26,0.13-5.83
				c-0.01-0.07-0.02-0.15-0.04-0.22c0.59,1.16,1.03,2.4,1.28,3.74l0.07,0.37c0,0.6,0,1.2-0.01,1.79c0,0.08,0,0.16,0,0.23
				C211.97,224.39,211.94,225.32,211.92,226.25 M211.98,218.78c-0.42-1.15-0.97-2.21-1.61-3.2c-0.25-1.47-0.52-2.92-0.92-4.39
				c-0.16-0.58-0.31-1.17-0.46-1.75c1.11,1.54,2.08,3.16,2.8,4.9c0.02,0.05,0.06,0.1,0.1,0.14
				C211.93,215.91,211.96,217.35,211.98,218.78 M195.48,214.33c-1.55-1.96-2.86-3.93-3.94-5.94
				C192.79,210.42,194.11,212.39,195.48,214.33 M211.85,212.86c-0.88-1.77-1.99-3.42-3.24-4.99c-0.7-3.03-1.18-6.14-1.05-9.24
				c1.9,2.46,3.34,5.16,4.17,8.4C211.75,208.98,211.8,210.92,211.85,212.86 M211.7,204.73c-0.91-2.55-2.23-4.91-4.08-7.21
				c0.01-0.12,0.02-0.24,0.04-0.36c0.15-1.37,0.42-2.71,0.77-4.03c1.46,1.93,2.62,4.13,3.34,6.81
				C211.72,201.53,211.7,203.13,211.7,204.73 M211.85,197.99c-0.75-2.13-1.8-4.08-3.16-5.86c0.21-0.76,0.44-1.52,0.67-2.28
				c0.35-1.16,0.64-2.33,0.86-3.5c1.1,1.69,1.74,3.44,2.02,5.38l0.02,0.16C212.11,193.95,211.95,195.98,211.85,197.99
				 M212.47,189.21c-0.44-1.49-1.11-2.87-2.03-4.14c0.34-2.25,0.46-4.52,0.37-6.77c0.7,1.64,1.27,3.51,1.81,5.63l0.1,0.39
				c-0.02,0.79-0.06,1.58-0.1,2.37c-0.04,0.8-0.09,1.61-0.15,2.41C212.47,189.13,212.47,189.17,212.47,189.21 M212.75,181.75
				c-0.54-1.95-1.19-3.85-2.07-5.54c-0.22-2.37-0.65-4.74-1.27-7.08c0.82,0.89,1.57,1.92,2.24,3.1l0.02,0.04
				C212.44,175.34,212.72,178.53,212.75,181.75 M211.04,170.09c-0.61-0.83-1.27-1.57-1.98-2.22c-0.13-0.44-0.26-0.88-0.41-1.31
				c-0.37-1.15-0.78-2.26-1.24-3.33C208.95,165.26,210.17,167.54,211.04,170.09"/>
			<path class="st5" d="M212.27,191.9c0.07-0.89,0.14-1.79,0.2-2.69c-0.44-1.49-1.11-2.87-2.03-4.14c-0.07,0.43-0.14,0.86-0.22,1.29
				c1.1,1.69,1.74,3.44,2.02,5.38L212.27,191.9"/>
			<path class="st5" d="M211.68,172.26c-0.02-0.06-0.03-0.13-0.05-0.2c-0.17-0.68-0.37-1.33-0.58-1.97
				c-0.61-0.83-1.27-1.57-1.98-2.22c0.12,0.42,0.24,0.84,0.35,1.26c0.82,0.89,1.57,1.92,2.24,3.1L211.68,172.26"/>
			<path class="st5" d="M212.72,184.31c0.02-0.85,0.03-1.71,0.03-2.56c-0.54-1.95-1.19-3.85-2.07-5.54c0.06,0.7,0.11,1.39,0.14,2.09
				c0.7,1.64,1.27,3.51,1.81,5.63L212.72,184.31"/>
			<path class="st5" d="M211.42,236.06c-1.01-3.83-3.04-6.92-5.51-9.77c0.44,0.19,0.84,0.3,1.21,0.35c1.95,2.31,3.55,4.82,4.58,8.02
				c0,0.12,0,0.24,0,0.36c0,0.08,0,0.16-0.01,0.23C211.68,235.62,211.58,235.89,211.42,236.06 M199.15,219.36
				c-1.41-1.41-2.81-2.87-4.08-4.41c-2.97-3.61-5.19-7.68-6.63-12.12c0.94,1.9,1.99,3.75,3.1,5.57c1.08,2.01,2.39,3.97,3.94,5.94
				C196.68,216.03,197.91,217.7,199.15,219.36"/>
			<path class="st5" d="M211.85,228c0.02-0.43,0.03-0.87,0.05-1.3c0.01-0.15,0.01-0.3,0.01-0.45c-0.38-1.04-0.84-2-1.36-2.89
				c-0.07,0.31-0.16,0.6-0.25,0.88c0.59,1.1,1.07,2.28,1.43,3.57C211.75,227.9,211.79,227.96,211.85,228"/>
			<path class="st5" d="M211.89,214.47c-0.01-0.54-0.03-1.07-0.04-1.61c-0.88-1.77-1.99-3.42-3.24-4.99
				c0.12,0.52,0.25,1.05,0.38,1.57c1.11,1.54,2.08,3.16,2.8,4.9C211.81,214.39,211.85,214.44,211.89,214.47"/>
			<path class="st5" d="M211.77,199.94c0.01-0.21,0.01-0.41,0.02-0.62c0.02-0.44,0.04-0.89,0.06-1.33c-0.75-2.13-1.8-4.08-3.16-5.86
				c-0.09,0.33-0.18,0.66-0.27,0.99C209.89,195.05,211.04,197.25,211.77,199.94"/>
			<path class="st5" d="M211.72,207.03c-0.01-0.77-0.02-1.54-0.02-2.3c-0.91-2.55-2.23-4.91-4.08-7.21
				c-0.03,0.37-0.06,0.75-0.07,1.12C209.45,201.09,210.89,203.79,211.72,207.03"/>
			<path class="st5" d="M212,221.42c0-0.88-0.01-1.76-0.02-2.64c-0.42-1.15-0.97-2.21-1.61-3.2c0.1,0.57,0.19,1.15,0.28,1.73
				c0.59,1.16,1.03,2.4,1.28,3.74L212,221.42"/>
		</g>
	</g>
	<path d="M299.72,264.28v-8.71c0-8.5-6.36-17.75-7.25-19.02c-0.09-1.63-0.79-14-1.99-19.84c-1.13-5.51-3.16-10.79-3.57-11.85
		c0.32-0.94,1.7-5.12,2.49-10.22c0.92-5.87-3.07-20.28-5.46-26.35c-1.59-4.03-4.9-5.56-7.57-6.79c-1.44-0.66-2.69-1.24-3.39-2.06
		c-1.8-2.1-3.59-2.67-5.17-3.18c-0.41-0.13-0.82-0.26-1.2-0.42c-0.61-0.24-1.14-0.73-1.96-1.47c-1.38-1.25-3.47-3.15-7.93-5.74
		c-2.58-1.5-6.41-3.25-10.46-5.11c-6.07-2.78-12.94-5.93-14.55-7.92c-0.65-0.81-1.6-3.52-2.46-6.36c0.49-0.97,1.84-3.64,1.96-4.06
		c0.52-1.81,0.58-4.28,0.56-5.78c0.3,0.14,0.67,0.22,1.11,0.17c1.49-0.18,2.89-2.5,4.56-5.52c0.47-0.85,0.91-1.64,1.25-2.13
		c1.45-2.07,1.13-6.54,0.07-9.89c-0.31-0.98-0.83-1.54-1.56-1.68c-1-0.18-2.09,0.57-2.87,1.29c0.15-4.18,0.09-15.92-4.73-21.71
		c-4.15-4.98-12.46-6.22-15.6-6.52h-1.24c-3.15,0.3-11.45,1.54-15.6,6.52c-4.82,5.79-4.87,17.53-4.73,21.71
		c-0.78-0.72-1.87-1.47-2.87-1.29c-0.72,0.13-1.25,0.7-1.56,1.68c-1.06,3.35-1.37,7.82,0.07,9.89c0.34,0.49,0.78,1.28,1.25,2.13
		c1.67,3.02,3.07,5.34,4.56,5.52c0.44,0.05,0.81-0.03,1.11-0.17c-0.02,1.5,0.04,3.97,0.56,5.78c0.12,0.41,1.45,3.04,1.95,4.03
		c-0.87,2.85-1.81,5.57-2.47,6.39c-1.61,1.99-8.49,5.14-14.55,7.92c-4.05,1.86-7.88,3.61-10.46,5.11c-4.46,2.59-6.55,4.48-7.93,5.74
		c-0.81,0.74-1.35,1.23-1.96,1.47c-0.39,0.15-0.79,0.28-1.2,0.42c-1.58,0.51-3.37,1.08-5.17,3.18c-0.7,0.82-1.95,1.39-3.39,2.06
		c-2.66,1.23-5.98,2.76-7.57,6.79c-2.39,6.08-6.38,20.48-5.46,26.35c0.8,5.1,2.17,9.29,2.49,10.22c-0.42,1.06-2.44,6.34-3.57,11.85
		c-1.2,5.84-1.91,18.21-1.99,19.84c-0.9,1.26-7.25,10.52-7.25,19.02v8.71c-0.6,0.98-3.75,6.66-3.08,17.75
		c0.26,4.25,0.73,8.17,1.24,12.32c0.9,7.39,2.72,15.03,2.37,24.92c-0.53,15.08-0.4,27.99,1.47,33.73c0.81,2.47,5.18,14.88,5.38,15.4
		c0,0,0.17,0.57,0.72,0.4c0.03-0.01,2.79-0.79,3.09-4.42l1.15,1.17c0.2,0.21,0.54,0.18,0.71-0.05l0.05-0.08
		c0.09-0.12,1.37-1.95,1.76-4.24c0.81-1.25,2.46-4.43,0.47-7.47c-0.82-1.26-3.8-4.31-4.49-5.01c-0.05-0.63-0.25-2.59-0.78-4.72
		c-0.46-2.59-0.19-4.52,0.39-5.85c0.16-0.32,0.34-0.64,0.53-0.95c0.45-0.63,0.98-1.03,1.48-1.22c0.13-0.05,0.2-0.03,0.28,0.02
		c1.17,0.75,1.44,2.76,1.72,4.88c0.27,1.99,0.62,4,1.56,5.64c1.15,2.03,4.44,2.79,4.87-1.08c0.3-2.75,0.3-6.13,0.29-7.57l-0.08-1.45
		c-0.31-5.52-0.51-8.34-3.48-13.16c-1.3-2.11-1.32-3.29-0.5-11.5c0.4-4,2.96-10.52,5.58-17.43c2.98-7.9,6.07-16.06,6.27-20.79
		c0.31-7.34-0.66-10.98-1.01-12.04c0.62-0.74,2.35-3.04,2.81-6c0.55-3.45,0.38-9.44,0.36-9.59c0.02-0.1,1.83-10.45,4.81-15.19
		c2.2-3.5,5.18-9.72,6.63-13.42c0.81,3.67,1.52,6.65,1.99,8.05c0.74,2.21,1.67,4.67,2.58,7.05c1.29,3.39,2.52,6.6,2.83,8.27
		c0.31,1.64,0.39,9.97,0.24,24.75c-0.01,0.77-0.01,1.28-0.01,1.43c-0.03,0.28-0.65,1.39-1.21,2.37c-1.88,3.32-5.01,8.87-4.43,13.56
		c0.65,5.23,1.44,7.42,1.73,8.07c-0.59,1.89-4.97,16.2-4.3,26.52c0.23,3.6-1.18,9.22-2.97,16.33c-2.31,9.17-5.18,20.58-6.15,33.75
		c-1.44,19.48,2.66,51.48,4.2,63.53c0.33,2.58,0.55,4.28,0.58,4.8c0.08,1.27-0.04,2.15-0.18,3.17c-0.19,1.38-0.4,2.95-0.18,5.89
		c0.05,0.67,0.2,1.46,0.45,2.35c-1.09,2.81-2.08,5.61-2.94,8.2c-7.21,16.22-4,33.45-0.9,50.11c0.67,3.61,1.37,7.35,1.94,11
		l0.09,0.84c0.73,6.58,1.49,13.38-0.15,19.6c-0.83,3.15-1.7,4.99-2.35,6.13c0,0-0.01,0.01-0.01,0.01c-0.06,0.05-0.08,0.11-0.09,0.17
		c-0.15,0.26-0.29,0.49-0.4,0.68c-0.11,0.19-0.21,0.35-0.29,0.48c-0.66,1.19-0.66,2.54-0.38,3.85c-0.19,0.51-1.62,4.1-5.25,6.16
		c-3.41,1.93-6.46,3.22-7.55,3.76c-2.55-0.42-5.55,0.37-6.15,1.02c-0.46,0.49-0.93,1.25-0.93,3.15c0,1.84,2.21,2.68,3.2,2.96
		c0,0.66,0.16,1.87,1.06,3.27c1.29,2,9.28,4.53,12.66,5.52c1.15,0.34,3.38,1.87,5.34,3.22c1.85,1.27,3.6,2.47,4.67,2.88
		c1.09,0.41,3.4,0.81,6.11,0.81c3.32,0,7.23-0.59,10.26-2.48c5.71-3.57,1.78-18.39,1.61-19.02c-0.2-0.74-0.42-1.56-0.65-2.41
		c-0.71-2.68-1.52-5.71-2.34-8.17c0.03-0.93,0.51-1.9,1.03-2.93c0.56-1.12,1.14-2.29,1.14-3.5l-0.02-0.14
		c-5.16-18.58,2.5-36.05,9.92-52.94l0.95-2.18c0.36-1.43,0.84-2.89,1.32-4.3c0.96-2.89,1.96-5.88,1.96-8.92
		c-0.46-4.14-1.66-8.19-2.94-12.47c-0.75-2.54-1.77-6.29-2.67-9.7c4.41-6.72,8.29-15.26,9.22-20.35c0.7-3.79,1.3-10.97,2-19.27
		c0.62-7.34,1.32-15.66,2.17-22.3c1.05-8.2,3.22-17.45,4.97-24.89c1.19-5.09,2.22-9.48,2.56-12.13c0.75-5.86-0.34-12.74-0.59-14.17
		c0.68-2.1,0.98-4.49,1.03-6.92c0.06,2.43,0.35,4.82,1.03,6.92c-0.25,1.43-1.33,8.31-0.59,14.17c0.34,2.65,1.37,7.04,2.56,12.13
		c1.74,7.44,3.91,16.69,4.97,24.89c0.85,6.64,1.55,14.96,2.17,22.3c0.7,8.31,1.3,15.48,2,19.27c0.93,5.08,4.8,13.61,9.2,20.32
		c-0.94,3.56-1.98,7.42-2.67,9.73c-1.27,4.28-2.47,8.33-2.94,12.47c0,3.04,0.99,6.03,1.96,8.92c0.47,1.41,0.96,2.88,1.32,4.3
		l0.95,2.18c7.41,16.89,15.08,34.36,9.92,52.94l-0.02,0.14c0,1.21,0.58,2.38,1.14,3.5c0.51,1.03,1,2,1.03,2.93
		c-0.82,2.47-1.62,5.5-2.34,8.17c-0.23,0.86-0.45,1.68-0.65,2.41c-0.17,0.63-4.1,15.45,1.61,19.02c3.02,1.89,6.94,2.48,10.26,2.48
		c2.71,0,5.01-0.4,6.11-0.81c1.07-0.4,2.82-1.6,4.67-2.88c1.97-1.35,4.19-2.88,5.34-3.22c3.38-0.99,11.37-3.52,12.66-5.52
		c0.9-1.4,1.06-2.62,1.06-3.27c0.99-0.28,3.2-1.12,3.2-2.96c0-1.91-0.47-2.66-0.93-3.15c-0.61-0.65-3.6-1.43-6.15-1.02
		c-1.09-0.55-4.14-1.83-7.55-3.76c-3.63-2.06-5.06-5.65-5.25-6.16c0.28-1.31,0.27-2.67-0.38-3.85c-0.08-0.14-0.17-0.3-0.29-0.48
		c-0.12-0.19-0.25-0.42-0.4-0.68c-0.01-0.06-0.03-0.12-0.09-0.17c0,0-0.01-0.01-0.01-0.01c-0.64-1.15-1.52-2.99-2.35-6.13
		c-1.64-6.22-0.88-13.02-0.15-19.6l0.09-0.84c0.58-3.65,1.27-7.39,1.94-11c3.1-16.66,6.31-33.89-0.9-50.11
		c-0.86-2.59-1.85-5.38-2.93-8.19c0.25-0.89,0.41-1.69,0.46-2.36c0.21-2.94,0-4.51-0.18-5.89c-0.14-1.02-0.25-1.89-0.18-3.17
		c0.03-0.52,0.25-2.22,0.58-4.8c1.54-12.05,5.64-44.05,4.2-63.53c-0.97-13.17-3.84-24.58-6.15-33.75
		c-1.79-7.11-3.21-12.73-2.97-16.33c0.67-10.32-3.7-24.63-4.3-26.52c0.29-0.66,1.08-2.84,1.73-8.07c0.58-4.69-2.56-10.24-4.43-13.56
		c-0.55-0.98-1.18-2.09-1.21-2.37c0-0.15,0-0.66-0.01-1.43c-0.14-14.78-0.06-23.1,0.24-24.75c0.31-1.67,1.54-4.88,2.83-8.27
		c0.91-2.38,1.84-4.83,2.58-7.05c0.46-1.39,1.18-4.36,1.98-8.02c1.46,3.7,4.42,9.9,6.62,13.38c2.99,4.74,4.8,15.09,4.81,15.19
		c-0.01,0.15-0.18,6.14,0.36,9.59c0.47,2.97,2.19,5.26,2.81,6c-0.35,1.05-1.31,4.7-1.01,12.04c0.2,4.74,3.28,12.9,6.27,20.79
		c2.61,6.91,5.18,13.43,5.58,17.43c0.82,8.22,0.8,9.39-0.5,11.5c-2.97,4.82-3.17,7.64-3.48,13.16l-0.08,1.45
		c-0.01,1.44-0.02,4.82,0.29,7.57c0.43,3.87,3.72,3.1,4.87,1.08c0.94-1.65,1.29-3.66,1.56-5.64c0.29-2.12,0.56-4.13,1.72-4.88
		c0.08-0.05,0.15-0.07,0.28-0.02c0.51,0.19,1.03,0.59,1.48,1.22c0.19,0.32,0.37,0.64,0.53,0.95c0.58,1.33,0.85,3.26,0.39,5.85
		c-0.54,2.13-0.73,4.09-0.78,4.72c-0.69,0.71-3.67,3.75-4.49,5.01c-1.99,3.04-0.34,6.23,0.47,7.47c0.39,2.29,1.68,4.12,1.76,4.24
		l0.05,0.08c0.17,0.23,0.51,0.26,0.71,0.05l1.14-1.17c0.29,3.62,3.06,4.41,3.09,4.42c0.55,0.17,0.72-0.4,0.72-0.4
		c0.2-0.53,4.57-12.93,5.38-15.4c1.87-5.74,2-18.65,1.47-33.73c-0.35-9.89,1.48-17.53,2.37-24.92c0.5-4.15,0.98-8.07,1.24-12.32
		C303.47,270.94,300.32,265.26,299.72,264.28z M291.49,237.06c0.05,0.07,3.24,4.51,5.34,10.01c0.07,0.19,0.14,0.38,0.21,0.57
		c0.03,0.09,0.07,0.19,0.1,0.28c0.07,0.19,0.13,0.37,0.19,0.56c0.77,2.31,1.3,4.74,1.3,7.09v8.13c-4.11-4.98-10.03-8.83-11.17-15.34
		c1.49-3.59,2.89-7.6,4.01-11.33L291.49,237.06z M273.49,161.25c0.72,0.45,1.55,0.83,2.41,1.23c2.62,1.21,5.58,2.57,7.01,6.2
		c2.36,5.98,6.29,20.11,5.4,25.79c-0.68,4.36-1.79,8.02-2.27,9.51c-2.34-2.55-4.83-4.99-7.72-6.83c-4.7-2.99-10.03-4-14.91-6.52
		c-7.8-4.03-8.86-16.46-2.23-22.81C264.99,164.19,268.84,161.92,273.49,161.25z M214.97,199.31c-0.34-8.88-2.07-18.5,0.16-27.25
		c1.83-7.18,6.25-12.47,12.51-15.94c3.66,2,7.78,3.32,12.06,3.99c3.78,0.58,12.25,1.87,18.84,0.74c0.83,5.67-6.83,6.05-10.05,6.24
		c-1.09,0.07-2.15,0.11-3.23,0.28c-2.28,0.36-5.38,0.58-7.35,1.95c-3.66,2.55-2.83,7.05-1.96,10.99c2.13,9.59,5.37,18.46,0.68,27.95
		c-3.39,6.87-8.01,13.09-12.33,19.4c-1.38,2.02-2.86,3.93-4.27,5.93c-1.02,1.44-5.01,4.45-4.98,1.42c0.04-3.85-0.22-7.71-0.27-11.56
		C214.66,215.42,215.27,207.34,214.97,199.31z M256.74,184.39c0.15,0.47,0.33,0.9,0.53,1.32c-4.05,4.92-9.43,8.14-15.44,10.16
		c-0.7-1.09-1.43-2.16-2.19-3.21c-0.04-0.05-0.08-0.08-0.13-0.1c-0.16-1.11-0.38-2.23-0.67-3.38c-1.41-5.56-6.66-18.05,1.74-20.18
		c1.09-0.28,2.19-0.46,3.29-0.58c4.54,2.03,8.55,4.88,11.99,8.49c0.01,0.01,0.02,0.01,0.03,0.02
		C255.67,179.26,255.92,181.77,256.74,184.39z M239.67,193.85c2.54,3.61,4.7,7.44,6.5,11.51c-2.88-0.35-5.57-1.01-7.33-1.58
		C239.69,200.58,240,197.31,239.67,193.85z M242.18,196.44c5.97-2.04,11.35-5.24,15.41-10.1c0.95,1.66,2.33,2.92,3.92,3.91
		c-0.35,1.82-1.18,6.13-2.18,11.15c-1.58,4-7.19,4.58-12.42,4.05C245.55,202.31,243.98,199.31,242.18,196.44z M266.24,156.87
		c0.4,0.16,0.81,0.29,1.23,0.43c1.51,0.48,3.07,0.99,4.67,2.85c0.17,0.19,0.36,0.37,0.56,0.54c-8.55,1.36-15.53,7.28-16.72,15.42
		c-3.17-3.24-6.8-5.87-10.87-7.83c2.78-0.25,5.57-0.29,8.29-0.89c3.71-0.81,6.26-3.25,5.79-6.67
		C262.25,160.11,264.83,158.94,266.24,156.87z M245.81,144.52c4.03,1.85,7.83,3.59,10.37,5.06c4.36,2.53,6.4,4.38,7.75,5.6
		c0.65,0.59,1.17,1.06,1.72,1.39c-5.44,7.93-29.41,2.59-34.92,0.35c-5.88-2.38-8.41-5.38-12.03-10.39
		c-3.55-4.92-3.95-9.28-4.07-15.16c-0.07-3.34-0.24-6.73-0.14-10.07c0-1,0.08-1.99,0.24-2.98c0.11-1.14,1.3-2.15,2.46-1.7
		c1.26,0.49,2.22,1.73,2.8,2.88c0.54,1.07,1.03,2.18,1.55,3.26c2.39,4.91,5.11,10.1,9.38,13.59
		C232.76,138.55,239.39,141.58,245.81,144.52z M199.66,121.46c0,0-0.75,2.98-1.7,6.22c-0.47-0.9-1.29-2.53-1.37-2.79
		c-0.73-2.53-0.47-6.68-0.47-6.72l0.16-2.56l-1.19,2.28c-0.01,0.03-0.38,0.69-1.08,0.61c-1.06-0.13-2.74-3.16-3.74-4.97
		c-0.5-0.91-0.94-1.7-1.31-2.23c-1.08-1.54-1.05-5.39,0.07-8.94c0.18-0.56,0.42-0.88,0.72-0.93c0.78-0.14,2.13,1.09,2.86,2.01
		l1.1,1.39l-0.13-1.76c-0.01-0.16-1.12-15.8,4.4-22.42c4.1-4.92,12.92-5.97,15.39-6.17c2.47,0.2,11.29,1.26,15.39,6.17
		c5.52,6.62,4.41,22.27,4.4,22.42l-0.13,1.76l1.1-1.39c0.73-0.92,2.09-2.15,2.86-2.01c0.3,0.06,0.54,0.37,0.72,0.93
		c1.12,3.55,1.15,7.4,0.07,8.94c-0.37,0.53-0.81,1.32-1.31,2.23c-1,1.81-2.68,4.84-3.74,4.97c-0.7,0.08-1.06-0.58-1.08-0.61
		l-1.19-2.28l0.16,2.56c0,0.04,0.26,4.19-0.47,6.72c-0.08,0.26-0.92,1.91-1.38,2.81c-0.95-3.25-1.7-6.24-1.7-6.24
		c0.06,0.43,1.3,9.13,2.93,13.22c-4.09-3.97-6.55-9.55-9.01-14.64c-0.56-1.15-2.91-6-5.22-4.62c-2.4,1.42-1.99,5.39-1.92,7.77
		c0.15,5.26-0.75,11.29,0.58,16.42c1.9,7.32,6.55,12.67,12.54,16.13c-5.53,3.14-10.4,8.03-12,14.3
		c-2.64,10.34-0.58,20.69-0.62,31.17c-0.05,11.24,0.32,22.58,0.05,33.8c-0.04,1.67,0.66,3.87,2.05,3.6
		c0.12,1.78,0.31,3.55,0.53,5.32c-0.7-1.32-1.87-3.33-2.85-4.31c-0.4-0.4-1.12-0.38-1.54,0.04c-0.95,0.95-2.02,2.64-2.78,3.97
		c0.2-1.67,0.38-3.35,0.49-5.03c1.39,0.27,2.09-1.93,2.05-3.6c-0.27-11.22,0.1-22.56,0.05-33.8c-0.04-10.49,2.01-20.83-0.62-31.17
		c-1.6-6.28-6.47-11.17-12-14.3c5.99-3.46,10.64-8.81,12.54-16.13c1.33-5.13,0.43-11.16,0.58-16.42c0.07-2.38,0.48-6.34-1.92-7.77
		c-2.31-1.37-4.66,3.47-5.22,4.62c-2.47,5.1-4.93,10.69-9.04,14.66C198.35,130.64,199.6,121.89,199.66,121.46z M217.25,246.01
		c1.11,7.75,3.01,15.43,5.18,22.9c0.83,2.87,1.84,10.3,5.51,12.23c2.62,2.06,1.96,5.37,1.71,6.44
		c-0.55,2.29-11.84,16.63-15.71,20.41c-0.3,0.29-0.86,0.3-1.17,0.01c-4.17-3.86-15.38-17.9-15.93-20.2
		c-0.26-1.07-0.82-4.51,1.85-6.59c3.78-1.81,4.8-9.39,5.64-12.3c2.21-7.6,4.14-15.42,5.24-23.31c0.86-1.77,2.19-3.87,3.03-4.97
		c0.6-0.79,1.06-0.71,1.61,0.08C214.92,241.75,216.4,244.19,217.25,246.01z M170.84,176.93c0.02-0.01,0.03-0.02,0.05-0.03
		c3.44-3.61,7.45-6.45,11.99-8.49c1.1,0.13,2.2,0.31,3.29,0.58c8.4,2.13,3.15,14.63,1.74,20.18c-0.29,1.15-0.51,2.28-0.67,3.38
		c-0.05,0.02-0.09,0.05-0.13,0.1c-0.76,1.05-1.49,2.12-2.19,3.21c-6.01-2.03-11.4-5.25-15.45-10.18c0.2-0.41,0.38-0.84,0.52-1.31
		C170.81,181.77,171.06,179.27,170.84,176.93z M184.57,196.44c-1.8,2.87-3.38,5.87-4.73,9.01c-5.11,0.53-10.58,0.02-12.35-3.68
		c-1.03-5.18-1.9-9.67-2.25-11.53c1.59-0.99,2.96-2.25,3.91-3.91C173.21,191.19,178.6,194.4,184.57,196.44z M187.09,193.85
		c-0.34,3.45-0.03,6.72,0.83,9.92c-1.75,0.57-4.45,1.23-7.33,1.59C182.38,201.3,184.55,197.47,187.09,193.85z M190.81,180.31
		c0.87-3.94,1.7-8.44-1.96-10.99c-1.98-1.38-5.08-1.6-7.35-1.95c-1.09-0.17-2.14-0.22-3.24-0.28c-3.22-0.19-10.88-0.58-10.05-6.24
		c6.59,1.13,15.06-0.16,18.84-0.74c4.28-0.66,8.4-1.99,12.06-3.99c6.26,3.47,10.68,8.76,12.51,15.94c2.23,8.75,0.5,18.37,0.16,27.25
		c-0.3,8.02,0.31,16.1,0.19,24.14c-0.06,3.85-0.31,7.71-0.27,11.56c0.03,3.03-3.96,0.03-4.98-1.42c-1.41-1.99-2.89-3.91-4.27-5.93
		c-4.32-6.31-8.98-12.51-12.38-19.39c-0.72-1.46-1.25-2.9-1.63-4.34c0,0,0-0.01,0-0.01C186.37,196.04,189.01,188.42,190.81,180.31z
		 M162.81,155.18c1.35-1.22,3.38-3.07,7.75-5.6c2.54-1.47,6.34-3.21,10.37-5.06c6.36-2.91,12.93-5.92,14.84-8.1
		c4.31-3.49,7.05-8.71,9.45-13.64c0.53-1.08,1.01-2.18,1.55-3.26c0.58-1.15,1.54-2.39,2.8-2.88c1.16-0.45,2.35,0.56,2.46,1.7
		c0.16,0.99,0.24,1.98,0.24,2.98c0.1,3.34-0.07,6.73-0.14,10.07c-0.12,5.88-0.52,10.24-4.07,15.16c-3.62,5.01-6.14,8-12.03,10.39
		c-5.51,2.23-29.49,7.58-34.92-0.36C161.65,156.24,162.17,155.77,162.81,155.18z M154.59,160.15c1.6-1.86,3.16-2.36,4.67-2.85
		c0.43-0.14,0.85-0.27,1.25-0.43c1.41,2.07,3.99,3.25,7.04,3.86c-0.48,3.42,2.08,5.87,5.79,6.67c2.73,0.59,5.51,0.64,8.29,0.89
		c-4.08,1.96-7.72,4.59-10.89,7.84c-1.17-8.15-8.17-14.08-16.72-15.44C154.23,160.52,154.42,160.34,154.59,160.15z M138.42,194.47
		c-0.89-5.68,3.04-19.81,5.4-25.79c1.43-3.63,4.4-4.99,7.01-6.2c0.86-0.4,1.69-0.78,2.41-1.23c4.66,0.67,8.51,2.94,12.3,6.57
		c6.63,6.35,5.57,18.78-2.23,22.81c-4.88,2.52-10.21,3.53-14.91,6.52c-2.89,1.84-5.38,4.28-7.72,6.83
		C140.2,202.49,139.1,198.83,138.42,194.47z M128.1,255.57c0-2.34,0.53-4.78,1.3-7.09c0.06-0.19,0.13-0.38,0.19-0.56
		c0.03-0.09,0.07-0.19,0.1-0.28c0.07-0.19,0.14-0.38,0.21-0.57c2.1-5.51,5.29-9.95,5.34-10.01l0.03-0.04
		c1.11,3.73,2.51,7.75,4.01,11.33c-1.15,6.52-7.06,10.36-11.17,15.34V255.57z M126.98,299.39c-0.27-1.75-0.52-3.47-0.73-5.17
		c-0.5-4.13-0.98-8.04-1.23-12.26c-0.02-0.27-0.03-0.54-0.04-0.81c-0.01-0.15-0.01-0.29-0.02-0.44c-0.01-0.2-0.01-0.4-0.02-0.59
		c0-0.13-0.01-0.26-0.01-0.39c0-0.21,0-0.41,0-0.61c0-0.12,0-0.23,0-0.35c0-0.23,0.01-0.45,0.01-0.67c0-0.08,0-0.17,0-0.25
		c0.23-8.37,2.76-12.64,3.03-13.08c3.9-5.22,10.07-9.02,11.71-15.44c0.32,0.74,0.64,1.46,0.96,2.14c0.39,0.84,0.87,1.33,1.41,1.59
		c-1.81,9.31-6.4,17.18-10.42,25.72C128.59,285.3,127.28,292.31,126.98,299.39z M144.11,253.18c0.04,5.29,1.95,10.14,5.5,14.05
		c-1.29,2.13-2.45,4.36-3.5,6.67c-3.19-5.01-4.69-10.63-4.37-16.61c0.37-1.31,0.7-2.64,0.97-4.02
		C143.15,253.34,143.62,253.29,144.11,253.18z M142.96,251.85c0.85-9.84,3.9-20.01,9.3-28.38c0.58-0.95,1.32-1.75,2.22-2.4
		c3.72-2.74,1.52,5.82,1.38,6.25c-0.65,2.06-1.36,4.09-1.98,6.16c-1.92,6.33-4.21,12.49-7.6,18.15c-0.13,0.04-0.26,0.07-0.39,0.11
		C144.67,252.07,143.73,252.08,142.96,251.85z M145.78,274.61c-3.43,7.81-5.43,16.45-5.81,25.02c-1.21,4.44-3.15,9.81-3.98,14.2
		c-0.39,2.07-0.64,4.18-1.06,6.25c-0.03,0.13-0.06,0.25-0.09,0.38c-0.01,0.04-0.02,0.07-0.03,0.11c-0.03,0.09-0.06,0.18-0.09,0.27
		c-1.07,2.9-4.5,4.33-4.94-0.33c-1.07-11.38-0.28-24.66,0.52-35.96c0.87-2.77,1.95-5.52,3.28-8.24c2.79-5.69,5.58-11.03,7.5-16.83
		C141.18,264.9,142.77,270.03,145.78,274.61z M137.15,363.75c0,2.42-1.19,3.43-1.87,3.8c-0.58-1.53-2.26-6.09-3.57-9.81l5.44,5.57
		C137.16,363.47,137.15,363.66,137.15,363.75z M139.59,364.24l-8.69-8.89c-0.39-1.15-0.69-2.07-0.81-2.57
		c-0.28-1.09-0.51-2.29-0.72-3.6c1.07,1.97,2.62,4.25,4.23,5.94c3.16,3.32,6.51,6.16,7.05,6.62
		C140.36,362.79,139.9,363.69,139.59,364.24z M143.8,323.93c2.31,3.67,2.94,7.21,3.24,12.53l0.08,1.43
		c0.02,2.55-0.08,5.33-0.29,7.41c-0.17,1.7-1.55,2.7-2.86,0.62c-0.89-1.4-1.15-3.34-1.4-5.21c-0.32-2.38-0.62-4.63-2.21-5.65
		c-0.24-0.15-0.5-0.22-0.77-0.21c0.97-1.3,1.89-2.38,2.28-2.92c-1.85,0.66-5.91,3.96-6.08,7.51c-0.23,1.21-0.22,2.62,0.12,4.19
		c-0.01,0.06,0,0.13,0.02,0.21c0.7,2.6,0.87,5.1,0.88,5.13c0.22,0.84,3.8,4.02,4.65,5.33c1.67,2.55,0.24,5.24-0.46,6.28
		c-1.07-0.91-3.91-3.4-6.61-6.23c-2.72-2.85-5.13-7.41-5.48-8.93c-0.63-6.55-0.65-15.23-0.27-26.12c0.21-5.95-0.36-11.08-1.04-15.82
		c-0.03-5.19,0.48-10.21,1.65-15.11c-0.46,7.41-0.67,14.81-0.47,22.23c0.04,1.51-0.47,13.47,1.76,14.19c2.3,0.74,4.26-1.57,4.84-3.3
		c0.96-2.87,1.04-6.23,1.6-9.19c0.57-3.03,1.87-6.73,2.92-10.08c-0.04,6.64,0.9,13.18,2.92,19.22
		C143.03,322.38,143.35,323.21,143.8,323.93z M154.9,273.47c-0.19,4.56-3.24,12.64-6.2,20.46c-2.64,6.98-5.05,13.58-5.64,17.68
		c-0.32,2.21-0.54,4.26-0.56,6.11c-4.59-18.52-0.2-40.71,11.51-55.68C154.36,263.22,155.18,266.77,154.9,273.47z M156.72,255.3
		c-0.51,3.23-2.74,5.67-2.76,5.69c0,0-2.83,3.78-3.99,5.65c-3.41-3.82-5.2-8.51-5.2-13.65c1.07-0.34,2.21-0.9,3.32-1.21
		c4.51-1.29,7.2-3.72,9.15-6.9c-0.1,0.51-0.15,0.84-0.17,0.93C157.07,245.87,157.24,251.95,156.72,255.3z M161.92,230.19
		c-2.06,3.4-3.47,9.04-4.24,12.57c-1.79,3.6-4.26,6.59-8.85,8.13c-0.54,0.18-1.09,0.34-1.65,0.49c3.97-6.91,6.09-14.38,8.64-21.98
		c0.33-0.99,3.63-9.7-0.39-9.26c-3.88,0.42-6.06,7-7.37,9.92c-3.09,6.87-5.04,14.02-5.72,21.52c-1.09-0.62-1.79-1.87-2.53-3.52
		c-1.63-3.65-3.22-8.64-4.38-12.82c0.23-3.75,0.9-13.47,1.89-18.31c1.24-6.03,3.57-11.8,3.59-11.85l0.2-0.29
		c5.39-5.44,10.89-9.31,18.67-12.07c1.52-0.54,3.05-1.14,4.46-1.9c0.75,3.91,3.01,15.61,4.93,24.5
		C168.26,217.96,164.69,225.61,161.92,230.19z M177.09,237.12c-0.53-1.53-1.21-3.31-1.91-5.14c-0.9-2.37-1.83-4.81-2.57-7
		c-0.96-2.87-3.05-12.89-4.8-21.58c4.08,4.71,15.43,2.59,20.28,1.01c0.87,2.98,2.21,5.92,3.95,8.9
		c4.83,8.27,10.59,16.56,16.59,24.03c0.37,0.46,0.71,0.78,1.02,0.99c-0.56,8.32-2.28,16.65-4.34,24.71
		c-0.87,3.42-1.95,6.8-2.88,10.21c-0.65,2.38-1.37,5.24-3.45,6.84c-3.06,2.34-4.48-2.11-4.89-4.46c-1.19-6.78-4.94-13.84-7.92-20.01
		C183.21,249.48,180.25,243.2,177.09,237.12z M178.14,241.07c1.02,2.31,2.02,4.62,3.22,6.99c2.71,5.36,5.6,10.49,7.93,16.05
		c2.1,5.04,3.61,9.77,4.6,15.12c0.11,0.57,0.25,0.99,0.46,1.33c-4.97-1.26-8.83-5.39-12.82-8.55c-1.62-1.28-2.64-3.01-3.25-4.92
		c0.02-0.09,0.03-0.18,0.03-0.25c0-0.16,0-0.67,0.01-1.43C178.38,260.2,178.52,245.05,178.14,241.07z M172.66,282.61
		c-0.54-4.33,2.49-9.69,4.3-12.89c0.5-0.88,0.84-1.5,1.06-1.96c0.51,1.31,1.2,2.58,2.13,3.77c2.19,2.82,6.03,5.31,8.93,7.35
		c1.06,0.74,2.1,1.31,3.17,1.75c-5.45,4.14-13.13,5.42-17.81,10.22l0.04-0.12l-0.11-0.2C174.36,290.5,173.42,288.69,172.66,282.61z
		 M173.87,292.75c7.71-5.65,15.88-8.68,23.14,0.03c3.19,3.82,6.29,7.72,8.98,11.86c-2.89-2.58-6.98-3.36-12.85-0.89
		c-3.66,1.54-7.12,3.75-10.61,5.64c-0.9,0.49-5.86,2.25-5.9,4.17c-2.48,1.54-4.66,3.45-6.54,5.69c0.04-0.71,0.05-1.37,0.01-1.98
		C169.54,308.65,172.59,297.13,173.87,292.75z M160.98,367.5c0.96-13.07,3.83-24.43,6.12-33.56c1.37-5.43,2.52-10,2.9-13.54
		c1.89-2.42,4.14-4.48,6.72-6.12c0.64,3.65,2.88,6.59,3.26,10.51c0.55,5.64-1.68,11.37-3.47,16.61c-0.52,1.53-2.66,6.68-2.84,10.48
		l-0.03,0.03c-7.03,16.29-9.17,33.48-11.6,50.81C160.96,390.59,160.25,377.41,160.98,367.5z M162.29,405.52
		c2.53-17.75,4.47-35.41,11.43-52.11c0.17,1.25,0.68,2.2,1.73,2.6c2.1,0.8,4.09,0.45,6.19-0.22c1.82-0.58,3.63-1.19,5.44-1.82
		c1.11,5.09,0.39,10.99,0.03,15.87c-0.67,8.94-2.1,17.84-3.86,26.63c-2.96,14.8-9.01,28.76-15.09,42.61
		c-0.7,1.5-1.38,3.05-2.03,4.63c-0.23,0.52-0.45,1.04-0.68,1.55c-0.03-0.19-0.05-0.37-0.06-0.54c-0.2-2.83,0-4.34,0.18-5.67
		c0.14-1.03,0.27-2,0.19-3.37c-0.03-0.56-0.25-2.28-0.59-4.88C164.48,425.41,163.28,416,162.29,405.52z M179.56,411.91
		c-0.08,10.27,5.48,20.69,8.79,29.12c-3.34,4.78-5.93,9.86-7.9,15.19c-0.18-8.6-3.31-16.69-9.03-23.26
		C174.36,426.02,177.17,419.04,179.56,411.91z M162.76,455.92c0.02-0.06,0.05-0.11,0.07-0.17c1.37-4.12,3.96-11.27,5.73-16.12
		c0.86-2,1.72-3.99,2.57-5.99c5.9,6.89,8.91,15.42,8.65,24.45c-2.47,7.29-3.81,15.04-4.29,23.1c-0.34,5.69-0.46,11.41-0.48,17.14
		c-2.94,3.81-9.49,2.59-10.33-2.92c0-0.03-0.02-0.05-0.03-0.07C162.59,482.21,161.07,469.07,162.76,455.92z M163.86,537.19
		c1.69-6.42,0.92-13.32,0.18-20l-0.1-0.87c-0.58-3.69-1.28-7.43-1.95-11.06c-3.05-16.39-5.93-31.92-0.14-47.11
		c-1.24,12.44,0.25,24.87,2.22,37.28c-0.01,0.04-0.01,0.08-0.01,0.12c0.03,0.22,0.08,0.43,0.13,0.64c1.76,11,3.86,21.99,4.72,32.95
		c-1.22,4.26-3.27,8.11-6.12,11.45C163.14,539.67,163.51,538.54,163.86,537.19z M182.42,542.55c-0.02,0.94-0.51,1.91-1.03,2.95
		c-0.26,0.52-0.52,1.05-0.73,1.59c-1.91-8.19-1.72-16.59,0.57-24.64C180.34,529,180.52,535.69,182.42,542.55z M181.93,518.25
		c-3.74,9.9-4.4,20.5-1.68,30.7c0,0.02,0,0.03,0,0.05l0.03,0.17c0.11,0.34,0.23,0.7,0.34,1.06c0.11,0.38,0.22,0.76,0.35,1.14
		c0.58,1.95,1.14,4.06,1.66,5.99c0.23,0.86,0.45,1.68,0.65,2.42c0.04,0.15,3.89,14.67-1.14,17.81c-5.1,3.18-13.19,2.41-15.41,1.58
		c-0.95-0.36-2.72-1.57-4.43-2.75c-2.13-1.47-4.33-2.98-5.65-3.37c-5.4-1.59-11.22-3.77-12.05-5.07c-1.08-1.67-0.88-2.95-0.87-3
		l0.09-0.52l-0.52-0.11c-0.03-0.01-2.79-0.6-2.79-2.01c0-1.73,0.43-2.19,0.63-2.41c0.3-0.32,1.72-1.04,3.78-0.79l-2.52,1.56
		c0,0,1.36,0.66,3.99-1.06c3.2-2.09,6.21-3.16,8.2-4.28c2.95-1.68,4.51-4.24,5.17-5.58c0.46,1.22,1.06,2.32,1.49,3.07
		c0.15,0.27,0.31,0.54,0.45,0.8c0,0-2.33-6.43-1.06-8.72c0.07-0.13,0.16-0.27,0.26-0.44c0.29-0.47,0.68-1.12,1.13-2.06
		c3.18-3.31,5.54-7.19,7.01-11.5c0.66,10.05,0.22,20.08-2.55,30.08c-0.11,0.41,1.87-4.86,2.29-7.37c3.08-18.34-0.6-36.74-3.62-55.17
		c2.24,3.28,7.08,3.6,9.86,0.79c0,5.56,0.1,11.11,0.19,16.64c0.04,2.25,0.15,4.43,0.33,6.58c0,0,0.34-5.69,0.29-8.66
		c-0.05-2.84-0.08-5.68-0.09-8.52c2.06,3.03,6.49,3.88,9.43,1.39C183.84,510.49,182.71,514.35,181.93,518.25z M193.65,461.82
		c1.26,4.24,2.45,8.24,2.89,12.22c0,2.81-0.97,5.71-1.9,8.52c-0.48,1.43-0.97,2.92-1.31,4.3l-0.92,2.09
		c-2.33,5.32-4.69,10.69-6.67,16.14c-2.78,3.76-8.31,2.84-9.99-1.06c-0.01-7.05,0.08-14.1,0.32-21.14
		c0.29-8.51,1.62-16.74,4.24-24.48c0.05-0.1,0.09-0.19,0.13-0.29c0-0.03,0-0.06,0-0.08c1.98-5.73,4.67-11.19,8.18-16.28
		c0.51,1.32,0.95,2.59,1.3,3.8C190.2,451.38,192.07,456.52,193.65,461.82z M191.63,450.38c-0.98-3.73-1.75-6.72-1.75-6.72
		c0,0.03,0,0.07,0,0.1c-0.02-0.12-0.05-0.22-0.07-0.3c-3.86-11.84-10.88-21.84-9.62-33.47c1.79-5.54,3.3-11.18,4.39-16.97
		c1.6-8.46,2.78-17.02,3.35-25.61c0.28-4.26,0.69-9.23-0.25-13.65c3.09-1.07,6.18-2.17,9.3-3.15c0.97-0.31,1.94-0.64,2.88-1
		c-3.94,11.36-3.55,22.86-1.78,34.38c-7.05,18.56,2.15,39.5-2.14,58.67C194.65,445.3,193.18,447.96,191.63,450.38z M202.15,412.1
		c-0.67,7.93-1.3,15.43-1.99,19.17c-0.44,2.38-1.59,5.65-3.16,9.12c2.95-18.13-4.8-37.65,1.27-55.1c1.17,7.22,2.85,14.44,4.31,21.63
		C202.44,408.68,202.3,410.41,202.15,412.1z M211.86,352.73c-0.33,2.59-1.35,6.96-2.54,12.02c-1.75,7.46-3.93,16.75-4.99,25
		c-0.58,4.5-1.08,9.75-1.54,14.96c-3.85-18.46-8.66-37.12-2.13-55.39c4.09-1.61,7.82-3.81,10.33-7.66c0.18-0.28,0.34-0.57,0.5-0.86
		C211.81,342.77,212.48,347.81,211.86,352.73z M211.49,338.8c-1.46,6.54-9.09,9.39-14.68,11.19c-5.45,1.72-10.8,3.74-16.24,5.46
		c-10.52,3.32-3.65-13.17-2.17-17.6c1.53-4.59,2.95-9.96,2.06-14.84c-0.43-2.33-1.1-4.33-2.2-6.41c-2.43-4.6,5.63-7.2,8.2-8.6
		c6.13-3.32,13.87-8.43,20.05-2.55c1.34,2.13,2.57,4.32,3.65,6.6c0.7,2.4,1.07,4.93,1.43,7.15
		C212.63,325.65,212.92,332.4,211.49,338.8z M213.38,329.97c-0.07-3.17-0.46-6.28-0.83-8.75c-0.78-5.2-2.05-10.56-4.55-14.25
		c-3.71-7.17-7.81-11.78-12.78-17.22c-5.93-6.49-14.08-2.83-20.21,1.39c4.72-4.77,12.62-6.04,17.97-10.24
		c0.95,0.32,1.95,0.52,3.04,0.63c0.13,0.02,0.25,0.05,0.39,0.06c0.3,0.04,0.59,0.03,0.87,0c-1.49,1.86-1.64,4.35-1.16,6.37
		c0.64,2.68,6.36,10.26,16.64,21.17c0.28,0.29,0.76,0.34,1.05,0.06c10.66-10.73,15.89-18.75,16.54-21.44
		c0.47-1.98,0.42-4.35-0.95-6.15c0.3,0.03,0.61,0.03,0.94,0c0.14-0.02,0.27-0.04,0.39-0.06c1.08-0.1,2.08-0.31,3.04-0.63
		c5.36,4.21,13.28,5.47,18,10.26c-6.14-4.23-14.3-7.91-20.24-1.41c-4.97,5.44-9.06,10.05-12.77,17.22
		c-2.5,3.69-3.78,9.05-4.55,14.25C213.83,323.69,213.44,326.8,213.38,329.97z M248.43,265.4c0.01,0.76,0.01,1.27,0.01,1.43
		c0,0.08,0.01,0.16,0.03,0.25c-0.61,1.92-1.63,3.64-3.25,4.92c-3.99,3.16-7.85,7.29-12.82,8.55c0.21-0.33,0.35-0.76,0.46-1.33
		c0.99-5.35,2.5-10.08,4.6-15.12c2.32-5.56,5.21-10.69,7.93-16.05c1.18-2.34,2.19-4.67,3.22-7.01
		C248.23,244.99,248.38,260.19,248.43,265.4z M215.16,319.21c0.36-2.22,0.73-4.75,1.43-7.15c1.08-2.28,2.31-4.47,3.65-6.6
		c6.18-5.89,13.92-0.78,20.05,2.55c2.58,1.4,10.63,4,8.2,8.6c-1.1,2.08-1.77,4.08-2.2,6.41c-0.9,4.88,0.52,10.25,2.06,14.84
		c1.48,4.44,8.35,20.93-2.17,17.6c-5.44-1.72-10.79-3.74-16.24-5.46c-5.59-1.8-13.22-4.64-14.68-11.19
		C213.83,332.4,214.12,325.65,215.16,319.21z M222.42,389.75c-1.06-8.25-3.24-17.54-4.99-25c-1.19-5.06-2.21-9.43-2.54-12.02
		c-0.63-4.92,0.05-9.96,0.37-11.94c0.16,0.3,0.32,0.59,0.5,0.86c2.51,3.85,6.24,6.05,10.33,7.66c6.53,18.27,1.72,36.93-2.13,55.39
		C223.51,399.51,223,394.25,222.42,389.75z M226.58,431.27c-0.69-3.74-1.32-11.24-1.98-19.17c-0.14-1.69-0.29-3.42-0.44-5.18
		c1.46-7.19,3.13-14.41,4.31-21.64c6.07,17.45-1.67,36.97,1.27,55.1C228.18,436.92,227.02,433.65,226.58,431.27z M230.81,442.66
		c-4.29-19.17,4.91-40.11-2.14-58.66c1.77-11.51,2.15-23.01-1.78-34.38c0.95,0.35,1.91,0.68,2.89,1c3.12,0.99,6.2,2.08,9.29,3.15
		c-0.94,4.42-0.53,9.39-0.25,13.65c0.57,8.59,1.75,17.15,3.35,25.61c1.09,5.78,2.61,11.42,4.39,16.96
		c1.26,11.63-5.83,21.72-9.69,33.57c-0.03,0.08-0.81,3.12-1.78,6.81C233.56,447.94,232.09,445.29,230.81,442.66z M247.2,411.92
		c2.43,7.25,5.29,14.35,8.29,21.41c-5.43,5.79-9.01,15.41-8.92,23.61c-2-5.59-4.67-10.92-8.16-15.91
		C241.72,432.61,247.28,422.19,247.2,411.92z M241,505.07c-1.98-5.44-4.33-10.81-6.66-16.12l-0.92-2.09
		c-0.34-1.38-0.83-2.87-1.31-4.3c-0.94-2.81-1.9-5.71-1.9-8.52c0.45-3.98,1.63-7.98,2.89-12.22c1.6-5.39,3.75-10.73,3.98-16.66
		c0-0.78,0.58-2.17,1.05-3.4c8.33,12.07,12.05,26.17,12.56,41.14c0.24,7.04,0.34,14.09,0.32,21.14
		C249.33,507.94,243.77,508.86,241,505.07z M245.35,545.49c-0.52-1.03-1-2.01-1.03-2.95c1.89-6.86,2.08-13.55,1.2-20.1
		c2.28,8.05,2.47,16.45,0.56,24.64C245.88,546.55,245.62,546.02,245.35,545.49z M265.85,544.47c0.11,0.17,0.19,0.32,0.26,0.44
		c1.27,2.29-1.06,8.72-1.06,8.72c0.14-0.26,0.29-0.53,0.45-0.8c0.43-0.75,1.04-1.85,1.49-3.07c0.66,1.34,2.21,3.91,5.17,5.58
		c1.98,1.12,5,2.2,8.2,4.28c2.64,1.72,3.99,1.06,3.99,1.06l-2.52-1.56c2.06-0.24,3.48,0.48,3.78,0.79c0.21,0.22,0.63,0.68,0.63,2.41
		c0,1.41-2.76,2.01-2.79,2.01l-0.52,0.11l0.09,0.52c0.01,0.05,0.2,1.33-0.87,3c-0.83,1.3-6.65,3.48-12.05,5.07
		c-1.32,0.39-3.52,1.9-5.65,3.37c-1.71,1.18-3.49,2.4-4.43,2.75c-2.22,0.83-10.31,1.6-15.41-1.58c-5.03-3.15-1.18-17.67-1.14-17.81
		c0.2-0.74,0.42-1.56,0.65-2.42c0.51-1.93,1.08-4.05,1.66-5.99c0.12-0.38,0.23-0.76,0.35-1.14c0.11-0.36,0.23-0.72,0.34-1.06
		l0.03-0.17c0-0.02,0-0.03,0-0.05c2.72-10.2,2.06-20.8-1.68-30.7c-0.79-3.91-1.92-7.77-3.25-11.59c2.94,2.51,7.38,1.66,9.45-1.37
		c-0.01,2.84-0.04,5.68-0.09,8.52c-0.05,2.97,0.29,8.66,0.29,8.66c0.18-2.15,0.29-4.33,0.33-6.58c0.1-5.53,0.19-11.09,0.19-16.64
		c2.77,2.8,7.61,2.48,9.85-0.79c-3.02,18.44-6.7,36.83-3.62,55.17c0.42,2.52,2.41,7.78,2.3,7.37c-2.77-10.01-3.21-20.04-2.55-30.08
		c1.48,4.31,3.83,8.18,7.01,11.49C265.17,543.35,265.57,544,265.85,544.47z M264.75,505.27c-0.67,3.62-1.37,7.37-1.95,11.06
		l-0.1,0.87c-0.75,6.67-1.52,13.58,0.18,20c0.36,1.36,0.72,2.48,1.08,3.42c-2.85-3.34-4.9-7.19-6.12-11.45
		c0.86-10.93,2.95-21.88,4.7-32.84c0.06-0.24,0.11-0.48,0.15-0.74c0.01-0.06,0-0.11-0.01-0.15c1.97-12.4,3.45-24.82,2.21-37.25
		C270.68,473.35,267.8,488.88,264.75,505.27z M263.91,455.75c0.03,0.06,0.05,0.11,0.07,0.17c1.7,13.16,0.18,26.3-1.89,39.42
		c-0.01,0.02-0.02,0.03-0.02,0.06c-0.84,5.52-7.39,6.74-10.33,2.92c-0.01-5.72-0.13-11.44-0.48-17.14
		c-0.47-7.78-1.74-15.26-4.04-22.33l0.01,0c-0.73-8.35,2.84-18.76,8.51-24.94c0.79,1.86,1.59,3.72,2.39,5.58
		C259.9,444.34,262.52,451.59,263.91,455.75z M261.58,430.81c-0.33,2.6-0.55,4.32-0.59,4.88c-0.08,1.38,0.05,2.35,0.19,3.37
		c0.18,1.33,0.38,2.84,0.18,5.67c-0.01,0.17-0.04,0.35-0.06,0.54c-0.3-0.68-0.59-1.36-0.89-2.03c-0.54-1.29-1.1-2.57-1.67-3.81
		c-6.13-13.96-12.25-28.03-15.24-42.95c-1.76-8.79-3.19-17.69-3.86-26.63c-0.36-4.87-1.08-10.78,0.03-15.87
		c1.81,0.63,3.62,1.24,5.44,1.82c2.11,0.67,4.09,1.01,6.19,0.22c1.05-0.4,1.57-1.36,1.73-2.6c6.96,16.71,8.9,34.37,11.43,52.12
		C263.47,416,262.27,425.41,261.58,430.81z M259.65,333.94c2.3,9.13,5.16,20.49,6.13,33.56c0.73,9.91,0.02,23.1-1.06,35.23
		c-2.43-17.33-4.57-34.52-11.6-50.81l-0.03-0.03c-0.18-3.8-2.32-8.95-2.84-10.48c-1.79-5.24-4.02-10.98-3.46-16.61
		c0.38-3.92,2.61-6.86,3.26-10.51c2.57,1.64,4.82,3.7,6.72,6.12C257.13,323.93,258.28,328.5,259.65,333.94z M256.65,317.27
		c-0.04,0.61-0.03,1.27,0.01,1.98c-1.88-2.24-4.06-4.15-6.54-5.69c-0.04-1.92-4.99-3.68-5.9-4.17c-3.49-1.89-6.95-4.1-10.61-5.64
		c-5.87-2.47-9.96-1.69-12.85,0.89c2.69-4.14,5.8-8.04,8.98-11.86c7.26-8.71,15.43-5.68,23.14-0.03
		C254.16,297.13,257.21,308.65,256.65,317.27z M249.79,269.72c1.81,3.2,4.84,8.56,4.3,12.89c-0.75,6.08-1.7,7.89-1.71,7.91
		l-0.11,0.2l0.04,0.12c-4.68-4.8-12.36-6.08-17.81-10.22c1.08-0.43,2.11-1,3.17-1.75c2.91-2.04,6.74-4.53,8.93-7.35
		c0.93-1.2,1.62-2.46,2.13-3.78C248.95,268.22,249.29,268.84,249.79,269.72z M254.14,224.98c-0.73,2.19-1.66,4.64-2.57,7
		c-0.7,1.83-1.38,3.61-1.91,5.14c-3.16,6.08-6.13,12.36-9.09,18.49c-2.98,6.17-6.73,13.23-7.92,20.01c-0.41,2.35-1.83,6.8-4.89,4.46
		c-2.08-1.6-2.8-4.46-3.45-6.84c-0.94-3.41-2.01-6.78-2.88-10.21c-2.06-8.06-3.78-16.39-4.34-24.71c0.32-0.21,0.66-0.53,1.03-0.99
		c6-7.48,11.76-15.76,16.59-24.03c1.74-2.98,3.08-5.91,3.95-8.9c4.88,1.58,16.24,3.7,20.29-1.06
		C257.2,212.05,255.1,222.1,254.14,224.98z M264.69,230.11c-2.74-4.35-6.21-12.03-7.11-14.75c1.91-8.89,4.18-20.61,4.94-24.54
		c1.4,0.75,2.93,1.36,4.44,1.89c7.78,2.76,13.42,6.66,18.81,12.1l-0.02,0.06l0.08,0.19c0.02,0.06,2.35,5.82,3.59,11.85
		c1,4.84,1.66,14.56,1.89,18.31c-1.16,4.18-2.75,9.16-4.38,12.82c-0.74,1.65-1.44,2.91-2.53,3.52c-0.68-7.49-2.63-14.65-5.72-21.52
		c-1.31-2.92-3.49-9.5-7.37-9.92c-4.02-0.44-0.72,8.27-0.39,9.26c2.55,7.6,4.67,15.07,8.64,21.98c-0.55-0.15-1.11-0.31-1.65-0.49
		c-4.59-1.54-7.03-4.43-8.83-8.04C268.32,239.32,266.81,233.48,264.69,230.11z M293.16,276.3c1.33,2.72,2.42,5.46,3.28,8.24
		c0.8,11.29,1.59,24.58,0.52,35.96c-0.44,4.66-3.87,3.23-4.94,0.33c-0.03-0.09-0.06-0.18-0.09-0.27c-0.01-0.04-0.02-0.07-0.03-0.11
		c-0.04-0.12-0.07-0.25-0.09-0.38c-0.42-2.07-0.67-4.17-1.06-6.25c-0.83-4.39-2.76-9.76-3.98-14.2c-0.38-8.57-2.38-17.21-5.82-25.02
		c3.81-5.61,4.68-11.53,4.83-14.81C287.69,265.48,290.42,270.73,293.16,276.3z M285.02,257.34c0.03,0.34,0.67,8.64-4.45,16.47
		c-1.03-2.27-2.17-4.48-3.44-6.58c3.55-3.91,5.46-8.76,5.5-14.05c0.49,0.11,0.96,0.16,1.4,0.09
		C284.29,254.66,284.64,256.01,285.02,257.34z M280.84,251.73c-0.13-0.04-0.26-0.07-0.39-0.11c-3.39-5.67-5.67-11.83-7.6-18.15
		c-0.63-2.07-1.33-4.1-1.98-6.16c-0.14-0.43-2.33-8.99,1.38-6.25c0.9,0.65,1.64,1.45,2.22,2.4c5.39,8.37,8.44,18.54,9.3,28.38
		C283.01,252.08,282.07,252.07,280.84,251.73z M270.02,255.3c-0.53-3.35-0.36-9.43-0.36-9.5c-0.01-0.09-0.07-0.41-0.17-0.93
		c1.96,3.18,4.64,5.61,9.15,6.9c1.12,0.32,2.25,0.87,3.32,1.21c0,5.14-1.79,9.83-5.2,13.65c-1.16-1.87-2.87-4.33-3.99-5.65
		C272.76,260.97,270.53,258.53,270.02,255.3z M278.03,293.92c-2.95-7.81-6.01-15.89-6.2-20.46c-0.28-6.7,0.54-10.25,0.89-11.43
		c11.71,14.97,16.1,37.16,11.51,55.68c-0.02-1.85-0.25-3.9-0.57-6.11C283.08,307.5,280.67,300.9,278.03,293.92z M291.44,367.56
		c-0.67-0.38-1.87-1.38-1.87-3.8c0-0.1-0.01-0.29-0.01-0.44l5.44-5.57C293.7,361.47,292.02,366.03,291.44,367.56z M296.65,352.78
		c-0.13,0.5-0.42,1.42-0.81,2.57l-8.69,8.89c-0.32-0.55-0.78-1.45-1.06-2.51c0.55-0.46,3.9-3.3,7.05-6.62
		c1.61-1.69,3.16-3.97,4.23-5.94C297.17,350.49,296.93,351.69,296.65,352.78z M298.1,319.32c0.38,10.89,0.36,19.57-0.27,26.12
		c-0.35,1.53-2.76,6.08-5.48,8.93c-2.7,2.83-5.54,5.32-6.61,6.23c-0.7-1.04-2.14-3.73-0.46-6.28c0.86-1.31,4.44-4.49,4.65-5.33
		c0.01-0.03,0.17-2.53,0.88-5.13c0.02-0.08,0.02-0.14,0.02-0.21c0.34-1.57,0.35-2.98,0.12-4.19c-0.17-3.55-4.24-6.85-6.08-7.51
		c0.39,0.53,1.31,1.62,2.28,2.92c-0.27-0.01-0.53,0.06-0.77,0.21c-1.59,1.02-1.89,3.27-2.21,5.65c-0.25,1.87-0.51,3.81-1.4,5.21
		c-1.32,2.08-2.69,1.09-2.86-0.62c-0.21-2.09-0.31-4.86-0.29-7.41l0.08-1.43c0.29-5.32,0.92-8.86,3.24-12.53
		c0.45-0.72,0.77-1.55,0.97-2.48c2.02-6.04,2.96-12.58,2.92-19.22c1.05,3.35,2.35,7.05,2.93,10.08c0.56,2.97,0.64,6.32,1.6,9.19
		c0.58,1.73,2.54,4.03,4.84,3.3c2.23-0.71,1.72-12.68,1.76-14.19c0.2-7.42,0-14.83-0.47-22.23c1.16,4.9,1.67,9.92,1.65,15.11
		C298.46,308.24,297.89,313.37,298.1,319.32z M301.8,279.13c0,0.2,0,0.4,0,0.61c0,0.13-0.01,0.26-0.01,0.39
		c0,0.2-0.01,0.39-0.02,0.59c-0.01,0.14-0.01,0.29-0.02,0.44c-0.01,0.27-0.02,0.54-0.04,0.81c-0.26,4.22-0.73,8.12-1.23,12.26
		c-0.21,1.7-0.46,3.42-0.73,5.17c-0.3-7.09-1.61-14.1-4.66-20.6c-4.02-8.55-8.61-16.42-10.42-25.72c0.54-0.26,1.01-0.75,1.41-1.59
		c0.32-0.69,0.64-1.4,0.96-2.14c1.64,6.42,7.81,10.22,11.71,15.44c0.28,0.44,2.81,4.71,3.03,13.08c0,0.08,0,0.17,0,0.25
		c0.01,0.22,0.01,0.44,0.01,0.67C301.8,278.89,301.8,279.01,301.8,279.13z"/>
</g>
</svg>
