<?xml version="1.0" encoding="utf-8"?>
<!-- Generator: Adobe Illustrator 26.0.1, SVG Export Plug-In . SVG Version: 6.00 Build 0)  -->
<svg version="1.1" id="Layer_1" xmlns="http://www.w3.org/2000/svg" xmlns:xlink="http://www.w3.org/1999/xlink" x="0px" y="0px"
	 viewBox="0 0 432 648" style="enable-background:new 0 0 432 648;" xml:space="preserve">
<style type="text/css">
	.st0{display:none;opacity:0.5;fill:none;stroke:#231F20;stroke-width:0.05;stroke-miterlimit:10;}
	.st1{fill:#FFFFFF;}
	.st2{fill:#E92A2A;}
	.st3{fill:#D52626;}
</style>
<path class="st0" d="M418.44,444.92c-2.94,1.51-8.31,5.17-9.04,17.27"/>
<g>
	<g id="White_00000008146272988381087930000002203879022052071609_">
		<path class="st1" d="M298.18,262.18v-8.67c0-8.46-6.33-17.67-7.22-18.93c-0.09-1.62-0.79-13.93-1.98-19.75
			c-1.13-5.48-3.14-10.74-3.56-11.8c0.32-0.93,1.69-5.1,2.48-10.18c0.91-5.84-3.06-20.18-5.44-26.23c-1.58-4.02-4.88-5.54-7.53-6.76
			c-1.43-0.66-2.67-1.23-3.37-2.05c-1.79-2.09-3.57-2.66-5.14-3.16c-0.41-0.13-0.81-0.26-1.2-0.41c-0.6-0.24-1.14-0.73-1.95-1.46
			c-1.37-1.25-3.45-3.14-7.9-5.71c-2.57-1.49-6.38-3.24-10.41-5.08c-6.04-2.77-12.89-5.9-14.49-7.88c-0.65-0.8-1.59-3.51-2.45-6.33
			c0.49-0.96,1.83-3.63,1.95-4.04c0.52-1.8,0.58-4.26,0.56-5.76c0.3,0.14,0.67,0.22,1.1,0.16c1.48-0.18,2.87-2.49,4.54-5.5
			c0.47-0.84,0.91-1.64,1.25-2.12c1.44-2.06,1.13-6.51,0.07-9.84c-0.31-0.97-0.83-1.54-1.55-1.67c-0.99-0.18-2.08,0.57-2.85,1.29
			c0.15-4.16,0.09-15.85-4.71-21.61c-4.13-4.96-12.4-6.19-15.53-6.49h-1.23c-3.13,0.29-11.4,1.53-15.53,6.49
			c-4.8,5.76-4.85,17.45-4.71,21.61c-0.78-0.71-1.86-1.46-2.85-1.29c-0.72,0.13-1.25,0.69-1.55,1.67c-1.05,3.34-1.37,7.79,0.07,9.84
			c0.34,0.48,0.78,1.28,1.25,2.12c1.66,3,3.05,5.31,4.54,5.5c0.44,0.05,0.8-0.02,1.1-0.16c-0.02,1.49,0.04,3.95,0.56,5.76
			c0.12,0.41,1.44,3.03,1.94,4.01c-0.86,2.83-1.8,5.55-2.46,6.36c-1.6,1.98-8.45,5.11-14.49,7.88c-4.03,1.85-7.84,3.59-10.41,5.08
			c-4.44,2.58-6.52,4.46-7.9,5.71c-0.81,0.74-1.34,1.22-1.95,1.46c-0.38,0.15-0.78,0.28-1.2,0.41c-1.57,0.5-3.35,1.07-5.14,3.16
			c-0.7,0.82-1.94,1.39-3.37,2.05c-2.65,1.22-5.95,2.74-7.53,6.76c-2.38,6.05-6.35,20.39-5.44,26.23c0.79,5.08,2.16,9.24,2.48,10.18
			c-0.41,1.05-2.43,6.31-3.56,11.8c-1.2,5.81-1.9,18.13-1.98,19.75c-0.89,1.26-7.22,10.47-7.22,18.93v8.67
			c-0.6,0.97-3.73,6.63-3.06,17.67c0.26,4.23,0.73,8.13,1.23,12.26c0.89,7.36,2.71,14.96,2.36,24.81
			c-0.53,15.01-0.4,27.86,1.46,33.57c0.8,2.46,5.16,14.81,5.35,15.33c0,0,0.17,0.57,0.72,0.39c0.03-0.01,2.78-0.79,3.07-4.4
			l1.14,1.17c0.2,0.21,0.54,0.18,0.71-0.05l0.05-0.07c0.09-0.12,1.37-1.95,1.76-4.22c0.81-1.24,2.45-4.41,0.47-7.44
			c-0.82-1.25-3.78-4.29-4.47-4.99c-0.05-0.63-0.25-2.58-0.78-4.7c-0.46-2.58-0.19-4.5,0.39-5.82c0.16-0.32,0.34-0.63,0.53-0.95
			c0.45-0.63,0.97-1.03,1.48-1.22c0.13-0.05,0.2-0.03,0.28,0.02c1.16,0.75,1.43,2.74,1.71,4.86c0.27,1.98,0.62,3.98,1.55,5.62
			c1.15,2.02,4.42,2.78,4.85-1.07c0.3-2.74,0.3-6.11,0.29-7.54l-0.08-1.45c-0.3-5.5-0.51-8.3-3.46-13.1
			c-1.29-2.1-1.31-3.27-0.5-11.45c0.4-3.98,2.95-10.47,5.55-17.35c2.97-7.86,6.04-15.98,6.24-20.7c0.3-7.31-0.66-10.93-1.01-11.98
			c0.62-0.74,2.33-3.02,2.8-5.98c0.54-3.43,0.37-9.4,0.36-9.55c0.02-0.1,1.82-10.4,4.79-15.12c2.19-3.48,5.15-9.68,6.6-13.35
			c0.81,3.66,1.52,6.62,1.98,8.01c0.73,2.2,1.67,4.65,2.57,7.01c1.29,3.38,2.51,6.57,2.82,8.23c0.31,1.63,0.39,9.92,0.24,24.63
			c-0.01,0.77-0.01,1.27-0.01,1.43c-0.03,0.28-0.65,1.38-1.2,2.35c-1.87,3.3-4.99,8.83-4.41,13.5c0.64,5.21,1.44,7.38,1.72,8.04
			c-0.59,1.88-4.95,16.12-4.28,26.4c0.23,3.58-1.18,9.18-2.96,16.26c-2.3,9.13-5.16,20.48-6.13,33.59
			c-1.43,19.39,2.65,51.24,4.18,63.24c0.33,2.57,0.55,4.26,0.58,4.78c0.07,1.27-0.04,2.14-0.18,3.15c-0.18,1.38-0.39,2.94-0.18,5.87
			c0.05,0.67,0.2,1.45,0.45,2.34c-1.08,2.8-2.07,5.58-2.93,8.17c-7.17,16.14-3.98,33.3-0.9,49.88c0.67,3.6,1.36,7.32,1.94,10.95
			l0.09,0.84c0.73,6.55,1.49,13.32-0.15,19.51c-0.83,3.13-1.7,4.97-2.34,6.11c0,0-0.01,0.01-0.01,0.01
			c-0.06,0.05-0.08,0.11-0.09,0.17c-0.15,0.26-0.29,0.48-0.4,0.68c-0.11,0.19-0.21,0.35-0.29,0.48c-0.65,1.18-0.66,2.53-0.38,3.84
			c-0.19,0.51-1.61,4.08-5.23,6.13c-3.4,1.93-6.43,3.2-7.52,3.75c-2.54-0.41-5.52,0.37-6.13,1.01c-0.46,0.49-0.92,1.24-0.92,3.14
			c0,1.83,2.2,2.67,3.19,2.95c0,0.65,0.16,1.86,1.06,3.26c1.28,1.99,9.24,4.51,12.6,5.5c1.15,0.34,3.36,1.86,5.32,3.21
			c1.84,1.27,3.58,2.46,4.64,2.86c1.09,0.41,3.39,0.8,6.08,0.8c3.3,0,7.2-0.59,10.21-2.47c5.68-3.55,1.77-18.3,1.6-18.93
			c-0.2-0.74-0.42-1.55-0.64-2.4c-0.71-2.66-1.51-5.68-2.33-8.13c0.03-0.93,0.51-1.9,1.02-2.92c0.56-1.12,1.14-2.28,1.14-3.49
			l-0.02-0.14c-5.14-18.5,2.49-35.89,9.87-52.7l0.94-2.17c0.36-1.42,0.84-2.88,1.31-4.28c0.96-2.88,1.95-5.85,1.95-8.88
			c-0.46-4.12-1.65-8.15-2.92-12.41c-0.75-2.53-1.76-6.26-2.66-9.65c4.39-6.69,8.25-15.19,9.18-20.26
			c0.69-3.77,1.29-10.92,1.99-19.19c0.61-7.31,1.31-15.59,2.16-22.2c1.05-8.16,3.21-17.37,4.94-24.78
			c1.19-5.06,2.21-9.44,2.55-12.07c0.74-5.83-0.34-12.68-0.59-14.11c0.68-2.09,0.97-4.47,1.03-6.89c0.05,2.42,0.35,4.8,1.03,6.89
			c-0.25,1.42-1.33,8.27-0.58,14.11c0.34,2.64,1.36,7.01,2.55,12.07c1.74,7.4,3.9,16.62,4.94,24.78c0.85,6.61,1.55,14.89,2.16,22.2
			c0.69,8.27,1.3,15.41,1.99,19.19c0.93,5.05,4.78,13.54,9.16,20.22c-0.94,3.54-1.97,7.39-2.65,9.68
			c-1.27,4.26-2.46,8.29-2.92,12.41c0,3.03,0.99,6,1.95,8.88c0.47,1.41,0.95,2.86,1.31,4.28l0.94,2.17
			c7.38,16.81,15.01,34.2,9.87,52.7l-0.02,0.14c0,1.21,0.58,2.37,1.14,3.49c0.51,1.02,1,1.99,1.02,2.92
			c-0.81,2.45-1.62,5.47-2.33,8.13c-0.23,0.86-0.44,1.67-0.64,2.4c-0.17,0.63-4.08,15.38,1.6,18.93c3.01,1.88,6.91,2.47,10.21,2.47
			c2.69,0,4.99-0.39,6.08-0.8c1.07-0.4,2.8-1.6,4.64-2.86c1.96-1.34,4.17-2.87,5.32-3.21c3.36-0.99,11.32-3.5,12.6-5.5
			c0.9-1.39,1.05-2.6,1.06-3.26c0.98-0.28,3.19-1.12,3.19-2.95c0-1.9-0.47-2.65-0.92-3.14c-0.6-0.64-3.58-1.43-6.13-1.01
			c-1.09-0.54-4.12-1.82-7.52-3.75c-3.62-2.05-5.03-5.62-5.23-6.13c0.28-1.3,0.27-2.65-0.38-3.84c-0.07-0.14-0.17-0.3-0.29-0.48
			c-0.12-0.19-0.25-0.41-0.4-0.68c-0.01-0.06-0.03-0.12-0.09-0.17c0,0-0.01-0.01-0.01-0.01c-0.64-1.14-1.51-2.97-2.34-6.11
			c-1.63-6.19-0.88-12.96-0.15-19.51l0.09-0.84c0.57-3.63,1.27-7.35,1.94-10.95c3.09-16.59,6.28-33.74-0.9-49.88
			c-0.86-2.58-1.84-5.35-2.92-8.15c0.25-0.89,0.41-1.68,0.45-2.35c0.21-2.93,0-4.49-0.18-5.87c-0.13-1.01-0.25-1.89-0.18-3.15
			c0.03-0.52,0.25-2.21,0.58-4.78c1.54-11.99,5.61-43.84,4.18-63.24c-0.97-13.11-3.83-24.47-6.13-33.59
			c-1.78-7.08-3.19-12.67-2.96-16.26c0.67-10.27-3.69-24.52-4.28-26.4c0.29-0.65,1.08-2.83,1.72-8.04c0.58-4.67-2.55-10.2-4.41-13.5
			c-0.55-0.97-1.17-2.08-1.2-2.35c0-0.15,0-0.66-0.01-1.43c-0.14-14.71-0.06-23,0.24-24.63c0.31-1.67,1.53-4.86,2.82-8.23
			c0.9-2.37,1.84-4.81,2.57-7.01c0.46-1.38,1.17-4.34,1.97-7.98c1.45,3.68,4.4,9.85,6.59,13.32c2.97,4.72,4.77,15.02,4.79,15.12
			c-0.01,0.15-0.18,6.11,0.36,9.55c0.47,2.95,2.18,5.24,2.8,5.98c-0.35,1.05-1.31,4.68-1.01,11.98c0.2,4.72,3.27,12.84,6.24,20.7
			c2.6,6.88,5.15,13.37,5.55,17.35c0.81,8.18,0.79,9.35-0.5,11.45c-2.95,4.8-3.16,7.6-3.46,13.1l-0.08,1.45
			c-0.01,1.43-0.02,4.8,0.29,7.54c0.43,3.85,3.7,3.09,4.85,1.07c0.93-1.64,1.28-3.64,1.55-5.62c0.28-2.11,0.55-4.11,1.71-4.86
			c0.08-0.05,0.15-0.07,0.28-0.02c0.5,0.19,1.03,0.59,1.48,1.22c0.19,0.32,0.37,0.63,0.53,0.95c0.58,1.32,0.85,3.24,0.39,5.82
			c-0.53,2.12-0.73,4.07-0.78,4.7c-0.69,0.7-3.65,3.74-4.47,4.99c-1.98,3.02-0.34,6.2,0.47,7.44c0.39,2.27,1.67,4.1,1.76,4.22
			l0.05,0.07c0.17,0.23,0.51,0.26,0.71,0.05l1.14-1.17c0.29,3.61,3.05,4.39,3.07,4.4c0.55,0.17,0.72-0.39,0.72-0.39
			c0.2-0.52,4.55-12.87,5.35-15.33c1.86-5.71,1.99-18.56,1.46-33.57c-0.35-9.85,1.47-17.45,2.36-24.81
			c0.5-4.13,0.98-8.03,1.23-12.26C301.91,268.81,298.78,263.15,298.18,262.18z"/>
	</g>
	<g id="Rhomboid_major_00000109004042234825981250000011030040095454564026_">
		<g>
			<path class="st2" d="M237.58,201.96c1.75,0.57,4.43,1.22,7.29,1.58c-1.77-4.03-3.92-7.83-6.46-11.42
				C238.74,195.54,238.43,198.79,237.58,201.96"/>
			<path class="st3" d="M243.29,203.31c-0.25-0.04-0.51-0.09-0.75-0.13c-0.92-2.65-2.26-5.08-4-7.26c0.01-0.34,0.02-0.68,0.02-1.03
				C240.67,197.37,242.26,200.2,243.29,203.31"/>
			<path class="st3" d="M241.47,202.97c-0.29-0.06-0.58-0.12-0.86-0.19c-0.67-1.32-1.46-2.64-2.36-3.93
				c0.05-0.34,0.1-0.68,0.13-1.02C239.57,199.45,240.61,201.18,241.47,202.97"/>
		</g>
		<g>
			<path class="st2" d="M186.87,201.96c-1.75,0.57-4.43,1.22-7.29,1.58c1.77-4.03,3.92-7.83,6.46-11.42
				C185.72,195.54,186.02,198.79,186.87,201.96"/>
			<path class="st3" d="M181.17,203.31c0.25-0.04,0.51-0.09,0.75-0.13c0.92-2.65,2.26-5.08,4-7.26c-0.01-0.34-0.02-0.68-0.02-1.03
				C183.79,197.37,182.2,200.2,181.17,203.31"/>
			<path class="st3" d="M182.98,202.97c0.29-0.06,0.58-0.12,0.86-0.19c0.67-1.32,1.46-2.64,2.36-3.93c-0.05-0.34-0.1-0.68-0.13-1.02
				C184.89,199.45,183.85,201.18,182.98,202.97"/>
		</g>
	</g>
	<path id="Outline_black_00000012467778204523605170000009782990369117439880_" d="M298.18,262.18v-8.67
		c0-8.46-6.33-17.67-7.22-18.93c-0.09-1.62-0.79-13.93-1.98-19.75c-1.13-5.48-3.14-10.74-3.56-11.8c0.32-0.93,1.69-5.1,2.48-10.18
		c0.91-5.84-3.06-20.18-5.44-26.23c-1.58-4.01-4.88-5.54-7.53-6.76c-1.43-0.66-2.67-1.23-3.37-2.05c-1.79-2.09-3.57-2.66-5.14-3.16
		c-0.41-0.13-0.81-0.26-1.2-0.41c-0.6-0.24-1.14-0.73-1.95-1.46c-1.37-1.25-3.45-3.14-7.9-5.71c-2.57-1.49-6.38-3.24-10.41-5.08
		c-6.04-2.77-12.89-5.9-14.49-7.88c-0.65-0.8-1.59-3.51-2.45-6.33c0.49-0.96,1.83-3.63,1.95-4.04c0.52-1.8,0.58-4.26,0.56-5.76
		c0.3,0.14,0.67,0.22,1.1,0.16c1.48-0.18,2.88-2.49,4.54-5.5c0.47-0.84,0.91-1.64,1.25-2.12c1.44-2.06,1.13-6.51,0.07-9.84
		c-0.31-0.97-0.83-1.54-1.55-1.67c-0.99-0.18-2.08,0.57-2.85,1.29c0.15-4.16,0.09-15.85-4.7-21.61c-4.13-4.96-12.4-6.19-15.53-6.49
		h-1.23c-3.13,0.3-11.4,1.53-15.53,6.49c-4.8,5.76-4.85,17.45-4.71,21.61c-0.78-0.71-1.86-1.46-2.85-1.29
		c-0.72,0.13-1.25,0.69-1.55,1.67c-1.05,3.34-1.37,7.79,0.07,9.84c0.34,0.48,0.78,1.28,1.25,2.12c1.66,3,3.05,5.31,4.54,5.5
		c0.44,0.05,0.8-0.02,1.1-0.16c-0.02,1.49,0.04,3.95,0.56,5.76c0.12,0.41,1.44,3.03,1.94,4.01c-0.86,2.83-1.8,5.55-2.46,6.36
		c-1.6,1.98-8.45,5.11-14.49,7.88c-4.03,1.85-7.84,3.59-10.41,5.08c-4.44,2.58-6.52,4.46-7.9,5.71c-0.81,0.74-1.34,1.22-1.95,1.46
		c-0.38,0.15-0.78,0.28-1.2,0.41c-1.57,0.5-3.35,1.07-5.14,3.16c-0.7,0.82-1.94,1.39-3.37,2.05c-2.65,1.22-5.95,2.74-7.53,6.76
		c-2.38,6.05-6.35,20.39-5.44,26.23c0.79,5.08,2.16,9.24,2.48,10.18c-0.41,1.05-2.43,6.31-3.56,11.8c-1.2,5.81-1.9,18.13-1.98,19.75
		c-0.89,1.26-7.22,10.47-7.22,18.93v8.67c-0.6,0.97-3.73,6.63-3.06,17.67c0.26,4.23,0.73,8.13,1.23,12.26
		c0.89,7.36,2.71,14.96,2.36,24.81c-0.53,15.01-0.4,27.86,1.46,33.57c0.8,2.46,5.16,14.81,5.35,15.33c0,0,0.17,0.57,0.72,0.39
		c0.03-0.01,2.78-0.79,3.07-4.4l1.14,1.17c0.2,0.21,0.54,0.18,0.71-0.05l0.05-0.07c0.09-0.12,1.37-1.95,1.76-4.22
		c0.81-1.24,2.45-4.41,0.47-7.44c-0.82-1.25-3.78-4.29-4.47-4.99c-0.05-0.63-0.25-2.58-0.78-4.7c-0.46-2.58-0.19-4.5,0.39-5.82
		c0.16-0.32,0.34-0.63,0.53-0.95c0.45-0.63,0.97-1.03,1.48-1.22c0.13-0.05,0.2-0.03,0.28,0.02c1.16,0.75,1.43,2.74,1.71,4.86
		c0.27,1.98,0.62,3.98,1.55,5.62c1.15,2.02,4.42,2.78,4.85-1.07c0.3-2.74,0.3-6.11,0.29-7.54l-0.08-1.45
		c-0.3-5.5-0.51-8.3-3.46-13.1c-1.29-2.1-1.31-3.27-0.5-11.45c0.4-3.98,2.95-10.47,5.55-17.35c2.97-7.86,6.04-15.98,6.24-20.7
		c0.3-7.31-0.66-10.93-1.01-11.98c0.62-0.74,2.33-3.02,2.8-5.98c0.54-3.43,0.37-9.4,0.36-9.55c0.02-0.1,1.82-10.4,4.79-15.12
		c2.19-3.48,5.15-9.68,6.6-13.35c0.81,3.66,1.52,6.62,1.98,8.01c0.73,2.2,1.67,4.65,2.57,7.01c1.29,3.38,2.51,6.57,2.82,8.23
		c0.31,1.63,0.39,9.92,0.24,24.63c-0.01,0.77-0.01,1.27-0.01,1.43c-0.03,0.28-0.65,1.38-1.2,2.35c-1.87,3.3-4.99,8.83-4.41,13.5
		c0.64,5.21,1.44,7.38,1.72,8.04c-0.59,1.88-4.95,16.12-4.28,26.4c0.23,3.58-1.18,9.18-2.96,16.26c-2.3,9.13-5.16,20.48-6.13,33.59
		c-1.43,19.39,2.65,51.24,4.18,63.24c0.33,2.57,0.55,4.26,0.58,4.78c0.07,1.27-0.04,2.14-0.18,3.15c-0.18,1.38-0.39,2.94-0.18,5.87
		c0.05,0.67,0.2,1.45,0.45,2.34c-1.08,2.8-2.07,5.58-2.93,8.17c-7.17,16.14-3.98,33.3-0.9,49.88c0.67,3.6,1.36,7.32,1.94,10.95
		l0.09,0.84c0.73,6.55,1.49,13.32-0.15,19.51c-0.83,3.13-1.7,4.97-2.34,6.11c0,0-0.01,0.01-0.01,0.01
		c-0.06,0.05-0.08,0.11-0.09,0.17c-0.15,0.26-0.29,0.48-0.4,0.68c-0.11,0.19-0.21,0.35-0.29,0.48c-0.65,1.18-0.66,2.53-0.38,3.84
		c-0.19,0.51-1.61,4.08-5.23,6.13c-3.4,1.93-6.43,3.2-7.52,3.75c-2.54-0.41-5.52,0.37-6.13,1.01c-0.46,0.49-0.92,1.24-0.92,3.14
		c0,1.83,2.2,2.67,3.19,2.95c0,0.65,0.16,1.86,1.06,3.26c1.28,1.99,9.24,4.51,12.6,5.5c1.15,0.34,3.36,1.86,5.32,3.21
		c1.84,1.27,3.58,2.46,4.64,2.86c1.09,0.41,3.39,0.8,6.08,0.8c3.3,0,7.2-0.59,10.21-2.47c5.68-3.55,1.77-18.3,1.6-18.93
		c-0.2-0.74-0.42-1.55-0.64-2.4c-0.71-2.66-1.51-5.68-2.33-8.13c0.03-0.93,0.51-1.9,1.02-2.92c0.56-1.12,1.14-2.28,1.14-3.49
		l-0.02-0.14c-5.14-18.5,2.49-35.89,9.87-52.7l0.94-2.17c0.36-1.42,0.84-2.88,1.31-4.28c0.96-2.88,1.95-5.85,1.95-8.88
		c-0.46-4.12-1.65-8.15-2.92-12.41c-0.75-2.53-1.76-6.26-2.66-9.65c4.39-6.69,8.25-15.19,9.18-20.26
		c0.69-3.77,1.29-10.92,1.99-19.19c0.61-7.31,1.31-15.59,2.16-22.2c1.05-8.16,3.21-17.37,4.94-24.78c1.19-5.06,2.21-9.44,2.55-12.07
		c0.74-5.83-0.34-12.68-0.59-14.11c0.68-2.09,0.97-4.47,1.03-6.89c0.06,2.42,0.35,4.8,1.03,6.89c-0.25,1.42-1.33,8.27-0.58,14.11
		c0.34,2.64,1.36,7.01,2.55,12.07c1.74,7.4,3.9,16.62,4.94,24.78c0.85,6.61,1.55,14.89,2.16,22.2c0.69,8.27,1.3,15.41,1.99,19.19
		c0.93,5.05,4.78,13.54,9.16,20.22c-0.94,3.54-1.97,7.39-2.65,9.68c-1.27,4.26-2.46,8.29-2.92,12.41c0,3.03,0.99,6,1.95,8.88
		c0.47,1.41,0.95,2.86,1.31,4.28l0.94,2.17c7.38,16.81,15.01,34.2,9.87,52.7l-0.02,0.14c0,1.21,0.58,2.37,1.14,3.49
		c0.51,1.02,0.99,1.99,1.02,2.92c-0.81,2.45-1.62,5.47-2.33,8.13c-0.23,0.86-0.44,1.67-0.64,2.4c-0.17,0.63-4.08,15.38,1.6,18.93
		c3.01,1.88,6.91,2.47,10.21,2.47c2.7,0,4.99-0.39,6.08-0.8c1.07-0.4,2.8-1.6,4.64-2.86c1.96-1.34,4.17-2.87,5.32-3.21
		c3.36-0.99,11.32-3.5,12.6-5.5c0.9-1.39,1.05-2.6,1.06-3.26c0.98-0.28,3.19-1.12,3.19-2.95c0-1.9-0.47-2.65-0.92-3.14
		c-0.6-0.64-3.58-1.43-6.13-1.01c-1.09-0.54-4.12-1.82-7.52-3.75c-3.62-2.05-5.03-5.62-5.23-6.13c0.28-1.3,0.27-2.65-0.38-3.84
		c-0.07-0.14-0.17-0.3-0.29-0.48c-0.12-0.19-0.25-0.41-0.4-0.68c-0.01-0.06-0.03-0.12-0.09-0.17c0,0-0.01-0.01-0.01-0.01
		c-0.64-1.14-1.51-2.97-2.34-6.11c-1.63-6.19-0.88-12.96-0.15-19.51l0.09-0.84c0.57-3.63,1.27-7.35,1.94-10.95
		c3.09-16.59,6.28-33.74-0.9-49.88c-0.86-2.58-1.84-5.35-2.92-8.15c0.25-0.89,0.41-1.68,0.45-2.35c0.21-2.93,0-4.49-0.18-5.87
		c-0.13-1.01-0.25-1.89-0.18-3.15c0.03-0.52,0.25-2.21,0.58-4.78c1.54-11.99,5.61-43.84,4.18-63.24
		c-0.97-13.11-3.83-24.47-6.13-33.59c-1.78-7.08-3.19-12.67-2.96-16.26c0.67-10.27-3.69-24.52-4.28-26.4
		c0.29-0.65,1.08-2.83,1.72-8.04c0.58-4.67-2.55-10.2-4.41-13.5c-0.55-0.97-1.17-2.08-1.2-2.35c0-0.15,0-0.66-0.01-1.43
		c-0.14-14.71-0.06-23,0.24-24.63c0.31-1.67,1.53-4.86,2.82-8.23c0.9-2.37,1.84-4.81,2.57-7.01c0.46-1.38,1.17-4.34,1.97-7.98
		c1.45,3.68,4.4,9.85,6.59,13.32c2.97,4.72,4.77,15.02,4.79,15.12c-0.01,0.15-0.18,6.11,0.36,9.55c0.47,2.95,2.18,5.24,2.8,5.98
		c-0.35,1.05-1.31,4.68-1,11.98c0.2,4.72,3.27,12.84,6.24,20.7c2.6,6.88,5.15,13.37,5.55,17.35c0.81,8.18,0.79,9.35-0.5,11.45
		c-2.95,4.8-3.16,7.6-3.46,13.1l-0.08,1.45c-0.01,1.43-0.02,4.8,0.29,7.54c0.43,3.85,3.7,3.09,4.85,1.07
		c0.93-1.64,1.28-3.64,1.55-5.62c0.28-2.11,0.55-4.11,1.71-4.86c0.08-0.05,0.15-0.07,0.28-0.02c0.5,0.19,1.03,0.59,1.48,1.22
		c0.19,0.32,0.37,0.63,0.53,0.95c0.58,1.32,0.85,3.24,0.39,5.82c-0.53,2.12-0.73,4.07-0.78,4.7c-0.69,0.7-3.65,3.74-4.47,4.99
		c-1.98,3.02-0.34,6.2,0.47,7.44c0.39,2.27,1.67,4.1,1.76,4.22l0.05,0.07c0.17,0.23,0.51,0.26,0.71,0.05l1.14-1.17
		c0.29,3.61,3.05,4.39,3.07,4.4c0.55,0.17,0.72-0.39,0.72-0.39c0.2-0.52,4.55-12.87,5.35-15.33c1.86-5.71,1.99-18.56,1.46-33.57
		c-0.35-9.85,1.47-17.45,2.36-24.81c0.5-4.13,0.98-8.03,1.23-12.26C301.91,268.81,298.78,263.15,298.18,262.18z M289.99,235.08
		c0.05,0.07,3.22,4.48,5.31,9.97c0.07,0.19,0.14,0.37,0.21,0.56c0.03,0.09,0.07,0.19,0.1,0.28c0.07,0.19,0.13,0.37,0.19,0.56
		c0.76,2.3,1.29,4.72,1.29,7.06v8.09c-4.1-4.96-9.98-8.79-11.12-15.27c1.49-3.57,2.88-7.57,3.99-11.28L289.99,235.08z
		 M272.07,159.62c0.71,0.45,1.54,0.83,2.4,1.23c2.61,1.2,5.56,2.56,6.98,6.17c2.35,5.96,6.26,20.02,5.37,25.67
		c-0.68,4.34-1.78,7.99-2.26,9.46c-2.33-2.54-4.81-4.96-7.68-6.8c-4.67-2.98-9.99-3.98-14.84-6.49c-7.77-4.01-8.82-16.39-2.22-22.7
		C263.6,162.54,267.44,160.29,272.07,159.62z M213.82,197.51c-0.34-8.84-2.06-18.42,0.16-27.13c1.82-7.15,6.22-12.42,12.45-15.87
		c3.64,1.99,7.75,3.31,12.01,3.97c3.76,0.58,12.19,1.86,18.75,0.74c0.83,5.64-6.8,6.02-10,6.21c-1.09,0.07-2.14,0.11-3.22,0.28
		c-2.27,0.36-5.35,0.57-7.32,1.94c-3.65,2.54-2.82,7.02-1.95,10.94c2.12,9.54,5.35,18.38,0.68,27.82
		c-3.38,6.84-7.98,13.03-12.27,19.32c-1.37,2.01-2.85,3.92-4.25,5.9c-1.02,1.44-4.99,4.43-4.96,1.41c0.04-3.83-0.22-7.68-0.27-11.51
		C213.51,213.54,214.12,205.5,213.82,197.51z M255.39,182.66c0.15,0.47,0.33,0.9,0.53,1.32c-4.03,4.89-9.39,8.1-15.37,10.12
		c-0.69-1.09-1.42-2.15-2.18-3.2c-0.04-0.05-0.08-0.08-0.13-0.1c-0.16-1.1-0.38-2.22-0.67-3.37c-1.4-5.53-6.63-17.97,1.73-20.09
		c1.09-0.28,2.18-0.45,3.27-0.58c4.52,2.02,8.51,4.86,11.94,8.45c0.01,0.01,0.02,0.01,0.03,0.02
		C254.33,177.55,254.58,180.04,255.39,182.66z M238.4,192.07c2.53,3.6,4.68,7.41,6.47,11.45c-2.87-0.35-5.55-1-7.3-1.57
		C238.42,198.77,238.73,195.51,238.4,192.07z M240.9,194.65c5.94-2.03,11.3-5.22,15.34-10.06c0.95,1.66,2.32,2.9,3.9,3.89
		c-0.35,1.82-1.17,6.1-2.17,11.09c-1.57,3.99-7.15,4.56-12.37,4.03C244.26,200.49,242.69,197.51,240.9,194.65z M264.85,155.26
		c0.39,0.16,0.8,0.29,1.23,0.42c1.51,0.48,3.06,0.98,4.65,2.84c0.17,0.19,0.36,0.37,0.56,0.54c-8.51,1.35-15.46,7.25-16.64,15.35
		c-3.15-3.23-6.77-5.84-10.82-7.79c2.77-0.25,5.54-0.29,8.25-0.88c3.69-0.8,6.23-3.24,5.76-6.64
		C260.88,158.49,263.45,157.32,264.85,155.26z M244.51,142.97c4.01,1.84,7.8,3.57,10.32,5.04c4.34,2.52,6.37,4.36,7.71,5.58
		c0.65,0.59,1.16,1.06,1.71,1.39c-5.42,7.9-29.27,2.57-34.76,0.35c-5.86-2.37-8.37-5.36-11.97-10.34
		c-3.54-4.89-3.93-9.24-4.05-15.09c-0.07-3.33-0.24-6.7-0.14-10.02c0-0.99,0.08-1.98,0.24-2.96c0.11-1.13,1.29-2.14,2.45-1.69
		c1.26,0.48,2.21,1.72,2.78,2.87c0.54,1.07,1.02,2.17,1.55,3.24c2.37,4.89,5.09,10.05,9.34,13.52
		C231.53,137.02,238.12,140.04,244.51,142.97z M198.57,120.01c0,0-0.75,2.96-1.69,6.19c-0.46-0.9-1.28-2.51-1.36-2.77
		c-0.73-2.52-0.47-6.65-0.47-6.69l0.16-2.55l-1.18,2.27c-0.01,0.03-0.38,0.69-1.07,0.61c-1.06-0.13-2.73-3.14-3.72-4.95
		c-0.5-0.91-0.93-1.69-1.31-2.22c-1.08-1.54-1.04-5.36,0.07-8.9c0.18-0.56,0.42-0.87,0.72-0.93c0.77-0.14,2.12,1.09,2.85,2
		l1.09,1.38l-0.13-1.76c-0.01-0.16-1.11-15.73,4.38-22.32c4.08-4.89,12.86-5.94,15.32-6.14c2.46,0.2,11.24,1.25,15.32,6.14
		c5.49,6.59,4.39,22.16,4.38,22.32l-0.13,1.76l1.09-1.38c0.73-0.92,2.08-2.14,2.85-2c0.3,0.06,0.54,0.37,0.72,0.93
		c1.12,3.54,1.15,7.36,0.07,8.9c-0.37,0.53-0.8,1.31-1.31,2.22c-1,1.8-2.67,4.82-3.72,4.95c-0.69,0.08-1.06-0.58-1.07-0.61
		l-1.18-2.27l0.16,2.55c0,0.04,0.26,4.17-0.47,6.69c-0.08,0.26-0.91,1.9-1.37,2.8c-0.94-3.24-1.7-6.22-1.7-6.22
		c0.06,0.43,1.29,9.09,2.91,13.15c-4.07-3.95-6.52-9.51-8.97-14.57c-0.56-1.15-2.89-5.97-5.2-4.6c-2.39,1.42-1.98,5.36-1.91,7.73
		c0.15,5.23-0.75,11.24,0.58,16.35c1.89,7.29,6.52,12.61,12.48,16.06c-5.51,3.12-10.35,7.99-11.94,14.24
		c-2.62,10.29-0.58,20.59-0.62,31.03c-0.05,11.19,0.32,22.47,0.05,33.64c-0.04,1.66,0.65,3.85,2.04,3.58
		c0.12,1.77,0.31,3.53,0.53,5.3c-0.7-1.31-1.86-3.31-2.84-4.29c-0.4-0.4-1.12-0.38-1.54,0.04c-0.94,0.94-2.02,2.62-2.77,3.95
		c0.2-1.67,0.38-3.33,0.49-5c1.39,0.27,2.08-1.92,2.04-3.58c-0.27-11.17,0.1-22.46,0.05-33.64c-0.04-10.44,2-20.74-0.62-31.03
		c-1.59-6.25-6.44-11.11-11.94-14.24c5.96-3.45,10.59-8.77,12.48-16.06c1.32-5.11,0.43-11.11,0.58-16.35
		c0.07-2.37,0.48-6.32-1.91-7.73c-2.3-1.37-4.64,3.45-5.2,4.6c-2.45,5.07-4.91,10.64-9,14.6
		C197.27,129.15,198.51,120.44,198.57,120.01z M226.72,278.95c2.61,2.05,1.95,5.35,1.7,6.41c-0.55,2.28-11.78,16.56-15.64,20.31
		c-0.3,0.29-0.86,0.3-1.17,0.01c-4.15-3.84-15.31-17.82-15.86-20.11c-0.26-1.06-0.81-4.49,1.84-6.56c3.76-1.8,4.78-9.35,5.62-12.24
		c2.2-7.57,4.12-15.34,5.21-23.2c0.86-1.76,2.18-3.85,3.01-4.94c0.6-0.79,1.05-0.7,1.6,0.08c0.72,1.03,2.19,3.46,3.04,5.28
		c1.1,7.72,3,15.36,5.16,22.79C222.07,269.63,223.07,277.04,226.72,278.95z M169.89,175.23c0.02-0.01,0.03-0.02,0.05-0.03
		c3.42-3.59,7.41-6.43,11.94-8.45c1.1,0.13,2.19,0.31,3.27,0.58c8.36,2.12,3.13,14.56,1.74,20.09c-0.29,1.15-0.51,2.27-0.67,3.37
		c-0.05,0.02-0.09,0.05-0.13,0.1c-0.76,1.05-1.48,2.11-2.18,3.2c-5.99-2.02-11.35-5.23-15.38-10.13c0.2-0.41,0.37-0.84,0.52-1.3
		C169.86,180.05,170.11,177.55,169.89,175.23z M183.56,194.65c-1.79,2.86-3.36,5.84-4.71,8.97c-5.09,0.53-10.54,0.02-12.29-3.66
		c-1.03-5.16-1.89-9.62-2.24-11.48c1.58-0.99,2.95-2.24,3.89-3.9C172.25,189.43,177.61,192.62,183.56,194.65z M186.06,192.07
		c-0.34,3.44-0.03,6.69,0.83,9.87c-1.74,0.57-4.43,1.23-7.3,1.59C181.38,199.49,183.54,195.67,186.06,192.07z M189.76,178.6
		c0.87-3.92,1.7-8.4-1.95-10.94c-1.97-1.37-5.05-1.59-7.32-1.94c-1.08-0.17-2.13-0.22-3.22-0.28c-3.21-0.19-10.83-0.57-10-6.21
		c6.56,1.12,14.99-0.16,18.75-0.74c4.26-0.66,8.36-1.98,12.01-3.97c6.23,3.46,10.63,8.72,12.46,15.87
		c2.22,8.71,0.49,18.29,0.16,27.13c-0.3,7.99,0.3,16.03,0.19,24.03c-0.06,3.83-0.31,7.68-0.27,11.51c0.03,3.01-3.94,0.03-4.96-1.41
		c-1.4-1.98-2.88-3.89-4.25-5.9c-4.3-6.28-8.94-12.46-12.32-19.3c-0.72-1.45-1.25-2.89-1.62-4.32c0,0,0-0.01,0-0.01
		C185.35,194.25,187.97,186.67,189.76,178.6z M161.9,153.58c1.34-1.22,3.37-3.06,7.71-5.58c2.53-1.47,6.31-3.2,10.32-5.04
		c6.33-2.9,12.87-5.9,14.77-8.06c4.29-3.47,7.02-8.67,9.41-13.58c0.52-1.08,1.01-2.17,1.55-3.24c0.58-1.15,1.53-2.38,2.78-2.87
		c1.16-0.45,2.34,0.56,2.45,1.69c0.16,0.98,0.24,1.97,0.24,2.96c0.1,3.33-0.07,6.7-0.14,10.02c-0.12,5.85-0.51,10.19-4.05,15.09
		c-3.6,4.98-6.11,7.97-11.97,10.34c-5.49,2.22-29.36,7.55-34.76-0.36C160.74,154.63,161.25,154.17,161.9,153.58z M153.71,158.52
		c1.59-1.85,3.15-2.35,4.65-2.84c0.43-0.14,0.84-0.27,1.24-0.43c1.41,2.06,3.97,3.23,7.01,3.84c-0.47,3.41,2.07,5.84,5.76,6.64
		c2.71,0.59,5.49,0.64,8.25,0.88c-4.06,1.95-7.68,4.57-10.84,7.81c-1.17-8.11-8.13-14.01-16.64-15.37
		C153.35,158.89,153.54,158.71,153.71,158.52z M137.61,192.69c-0.88-5.65,3.03-19.72,5.37-25.67c1.42-3.61,4.38-4.97,6.98-6.17
		c0.86-0.4,1.69-0.78,2.4-1.23c4.63,0.67,8.47,2.92,12.25,6.54c6.6,6.32,5.54,18.69-2.22,22.7c-4.85,2.51-10.17,3.51-14.84,6.49
		c-2.87,1.83-5.35,4.26-7.68,6.8C139.39,200.67,138.29,197.02,137.61,192.69z M127.35,253.5c0-2.33,0.53-4.76,1.29-7.06
		c0.06-0.19,0.13-0.38,0.19-0.56c0.03-0.09,0.07-0.19,0.1-0.28c0.07-0.19,0.14-0.38,0.21-0.56c2.09-5.48,5.27-9.9,5.31-9.97
		l0.03-0.04c1.11,3.72,2.5,7.71,3.99,11.28c-1.14,6.49-7.03,10.32-11.12,15.27V253.5z M126.23,297.13
		c-0.27-1.74-0.52-3.45-0.73-5.15c-0.5-4.11-0.97-8-1.23-12.2c-0.02-0.27-0.03-0.54-0.04-0.81c-0.01-0.15-0.01-0.29-0.02-0.44
		c-0.01-0.2-0.01-0.4-0.02-0.59c0-0.13-0.01-0.26-0.01-0.39c0-0.2,0-0.41,0-0.61c0-0.12,0-0.23,0-0.35c0-0.22,0-0.45,0.01-0.66
		c0-0.08,0-0.17,0-0.25c0.22-8.33,2.74-12.58,3.02-13.02c3.88-5.2,10.03-8.98,11.66-15.37c0.32,0.73,0.64,1.45,0.96,2.13
		c0.39,0.83,0.87,1.32,1.4,1.58c-1.8,9.27-6.37,17.1-10.37,25.61C127.84,283.1,126.53,290.07,126.23,297.13z M143.28,251.12
		c0.04,5.27,1.94,10.1,5.47,13.99c-1.28,2.12-2.44,4.34-3.48,6.64c-3.17-4.98-4.67-10.58-4.35-16.54c0.37-1.3,0.7-2.63,0.96-4
		C142.33,251.28,142.79,251.24,143.28,251.12z M142.14,249.8c0.85-9.79,3.88-19.92,9.25-28.25c0.58-0.95,1.32-1.74,2.21-2.39
		c3.7-2.73,1.51,5.79,1.38,6.22c-0.65,2.05-1.35,4.07-1.98,6.13c-1.92,6.3-4.19,12.43-7.56,18.07c-0.13,0.03-0.26,0.07-0.39,0.1
		C143.84,250.02,142.9,250.04,142.14,249.8z M144.95,272.46c-3.42,7.78-5.41,16.37-5.79,24.91c-1.21,4.42-3.13,9.77-3.96,14.14
		c-0.39,2.06-0.64,4.16-1.06,6.22c-0.03,0.13-0.06,0.25-0.09,0.38c-0.01,0.04-0.02,0.07-0.03,0.11c-0.03,0.09-0.06,0.18-0.09,0.26
		c-1.06,2.89-4.48,4.31-4.92-0.33c-1.07-11.33-0.28-24.55,0.52-35.79c0.86-2.76,1.94-5.49,3.27-8.2c2.78-5.66,5.56-10.98,7.46-16.76
		C140.36,262.8,141.95,267.9,144.95,272.46z M136.36,361.2c0,2.41-1.19,3.41-1.86,3.79c-0.57-1.52-2.25-6.06-3.55-9.77l5.42,5.54
		C136.36,360.91,136.36,361.1,136.36,361.2z M138.78,361.68l-8.65-8.85c-0.39-1.15-0.68-2.07-0.81-2.56
		c-0.27-1.08-0.51-2.28-0.71-3.59c1.07,1.96,2.61,4.23,4.21,5.91c3.14,3.3,6.48,6.13,7.02,6.59
		C139.55,360.23,139.09,361.13,138.78,361.68z M142.97,321.55c2.3,3.65,2.93,7.18,3.22,12.48l0.08,1.42
		c0.02,2.54-0.08,5.3-0.29,7.38c-0.17,1.7-1.54,2.69-2.85,0.61c-0.88-1.39-1.14-3.32-1.39-5.19c-0.32-2.37-0.62-4.6-2.2-5.62
		c-0.24-0.15-0.5-0.22-0.76-0.21c0.96-1.29,1.88-2.37,2.27-2.9c-1.84,0.66-5.88,3.94-6.06,7.48c-0.23,1.2-0.22,2.61,0.12,4.17
		c-0.01,0.06,0,0.13,0.02,0.21c0.7,2.59,0.86,5.08,0.87,5.11c0.22,0.84,3.78,4.01,4.63,5.31c1.67,2.54,0.24,5.22-0.46,6.25
		c-1.06-0.91-3.89-3.38-6.58-6.2c-2.7-2.84-5.1-7.37-5.45-8.89c-0.62-6.52-0.65-15.16-0.27-26c0.21-5.92-0.36-11.02-1.03-15.75
		c-0.03-5.17,0.48-10.17,1.64-15.04c-0.46,7.37-0.66,14.74-0.46,22.13c0.04,1.5-0.47,13.41,1.76,14.12
		c2.29,0.73,4.24-1.56,4.82-3.28c0.96-2.86,1.04-6.2,1.59-9.15c0.57-3.02,1.86-6.7,2.91-10.03c-0.04,6.61,0.9,13.12,2.9,19.13
		C142.21,320.01,142.52,320.84,142.97,321.55z M154.02,271.32c-0.19,4.54-3.23,12.58-6.17,20.36c-2.62,6.94-5.02,13.51-5.61,17.6
		c-0.32,2.2-0.54,4.24-0.56,6.08c-4.57-18.44-0.2-40.53,11.46-55.43C153.48,261.12,154.3,264.65,154.02,271.32z M155.83,253.24
		c-0.51,3.21-2.72,5.64-2.75,5.66c0,0-2.82,3.76-3.97,5.62c-3.39-3.8-5.18-8.47-5.18-13.59c1.06-0.34,2.2-0.89,3.31-1.21
		c4.49-1.28,7.16-3.71,9.11-6.87c-0.1,0.51-0.15,0.84-0.17,0.92C156.18,243.85,156.35,249.9,155.83,253.24z M161,228.24
		c-2.05,3.39-3.46,9-4.22,12.52c-1.78,3.59-4.24,6.56-8.81,8.09c-0.54,0.18-1.09,0.34-1.64,0.49c3.95-6.88,6.06-14.31,8.6-21.88
		c0.33-0.99,3.62-9.65-0.39-9.22c-3.86,0.42-6.03,6.97-7.34,9.87c-3.07,6.83-5.01,13.96-5.69,21.42c-1.08-0.61-1.78-1.86-2.51-3.51
		c-1.62-3.64-3.21-8.6-4.36-12.76c0.23-3.73,0.89-13.4,1.88-18.22c1.24-6.01,3.55-11.74,3.58-11.8l0.2-0.29
		c5.37-5.42,10.84-9.27,18.58-12.02c1.51-0.54,3.03-1.14,4.44-1.89c0.75,3.89,3,15.54,4.9,24.39
		C167.32,216.07,163.77,223.68,161,228.24z M176.11,235.14c-0.53-1.52-1.2-3.29-1.9-5.12c-0.9-2.35-1.83-4.79-2.55-6.97
		c-0.95-2.86-3.04-12.83-4.78-21.49c4.06,4.69,15.36,2.57,20.18,1c0.86,2.97,2.2,5.89,3.94,8.86c4.81,8.24,10.54,16.48,16.51,23.92
		c0.37,0.46,0.71,0.77,1.02,0.98c-0.56,8.28-2.27,16.57-4.32,24.6c-0.87,3.41-1.94,6.77-2.87,10.16c-0.65,2.37-1.36,5.22-3.44,6.81
		c-3.05,2.33-4.46-2.1-4.87-4.44c-1.19-6.75-4.92-13.78-7.88-19.92C182.21,247.44,179.25,241.19,176.11,235.14z M177.16,239.08
		c1.02,2.3,2.01,4.6,3.2,6.95c2.7,5.33,5.58,10.44,7.89,15.97c2.09,5.02,3.6,9.73,4.58,15.05c0.1,0.56,0.25,0.99,0.46,1.32
		c-4.95-1.26-8.79-5.37-12.76-8.51c-1.61-1.27-2.62-2.99-3.24-4.9c0.02-0.09,0.03-0.18,0.03-0.25c0-0.16,0-0.67,0.01-1.43
		C177.39,258.12,177.54,243.03,177.16,239.08z M171.7,280.43c-0.53-4.31,2.48-9.65,4.28-12.83c0.49-0.87,0.84-1.49,1.05-1.95
		c0.5,1.31,1.19,2.57,2.12,3.76c2.18,2.81,6,5.28,8.89,7.31c1.05,0.74,2.09,1.31,3.16,1.74c-5.43,4.12-13.07,5.4-17.73,10.18
		l0.04-0.12l-0.11-0.2C173.4,288.28,172.46,286.48,171.7,280.43z M172.9,290.52c7.68-5.62,15.81-8.64,23.03,0.03
		c3.17,3.81,6.26,7.68,8.94,11.81c-2.88-2.56-6.94-3.34-12.79-0.88c-3.64,1.53-7.09,3.73-10.56,5.61c-0.9,0.49-5.83,2.24-5.87,4.15
		c-2.47,1.53-4.64,3.43-6.51,5.66c0.04-0.7,0.05-1.37,0.01-1.97C168.6,306.34,171.63,294.88,172.9,290.52z M160.07,364.92
		c0.96-13.01,3.81-24.32,6.1-33.41c1.36-5.41,2.51-9.96,2.88-13.48c1.89-2.41,4.13-4.46,6.69-6.09c0.64,3.63,2.86,6.56,3.24,10.46
		c0.55,5.61-1.67,11.32-3.45,16.53c-0.52,1.52-2.64,6.65-2.83,10.43l-0.03,0.03c-7,16.22-9.13,33.33-11.55,50.58
		C160.05,387.91,159.34,374.78,160.07,364.92z M161.38,402.77c2.52-17.67,4.45-35.24,11.37-51.88c0.17,1.24,0.68,2.19,1.73,2.59
		c2.09,0.79,4.07,0.45,6.17-0.21c1.81-0.57,3.62-1.19,5.42-1.81c1.1,5.06,0.39,10.94,0.03,15.8c-0.67,8.9-2.09,17.76-3.84,26.51
		c-2.95,14.73-8.97,28.63-15.02,42.41c-0.69,1.49-1.37,3.04-2.02,4.61c-0.23,0.52-0.45,1.03-0.68,1.55
		c-0.03-0.19-0.05-0.37-0.06-0.54c-0.2-2.82,0-4.32,0.18-5.65c0.14-1.02,0.27-1.99,0.18-3.36c-0.03-0.55-0.25-2.27-0.58-4.85
		C163.56,422.57,162.36,413.2,161.38,402.77z M178.56,409.13c-0.08,10.22,5.45,20.6,8.75,28.99c-3.33,4.75-5.9,9.81-7.86,15.12
		c-0.18-8.56-3.3-16.61-8.99-23.15C173.39,423.18,176.19,416.23,178.56,409.13z M161.85,452.94c0.02-0.06,0.05-0.11,0.07-0.17
		c1.37-4.1,3.94-11.22,5.71-16.04c0.86-1.99,1.71-3.98,2.56-5.97c5.87,6.86,8.87,15.34,8.61,24.33c-2.45,7.26-3.79,14.97-4.27,23
		c-0.34,5.67-0.46,11.36-0.47,17.06c-2.93,3.8-9.45,2.58-10.29-2.91c0-0.03-0.02-0.05-0.03-0.07
		C161.68,479.11,160.16,466.03,161.85,452.94z M162.94,533.83c1.69-6.39,0.92-13.26,0.18-19.91l-0.1-0.86
		c-0.58-3.67-1.27-7.4-1.94-11c-3.03-16.31-5.9-31.77-0.14-46.89c-1.24,12.39,0.25,24.76,2.21,37.11c-0.01,0.04-0.01,0.08-0.01,0.12
		c0.03,0.22,0.08,0.43,0.13,0.63c1.75,10.95,3.84,21.89,4.7,32.8c-1.22,4.24-3.25,8.07-6.09,11.4
		C162.22,536.3,162.59,535.18,162.94,533.83z M181.41,539.17c-0.02,0.93-0.51,1.9-1.02,2.93c-0.26,0.52-0.52,1.05-0.73,1.59
		c-1.9-8.15-1.71-16.51,0.56-24.52C179.34,525.69,179.53,532.34,181.41,539.17z M180.92,514.98c-3.72,9.85-4.37,20.41-1.67,30.55
		c0,0.02,0,0.03,0,0.05l0.03,0.17c0.11,0.34,0.23,0.7,0.34,1.06c0.11,0.38,0.22,0.76,0.34,1.13c0.58,1.94,1.14,4.04,1.65,5.97
		c0.23,0.86,0.45,1.67,0.65,2.41c0.04,0.14,3.88,14.6-1.13,17.73c-5.07,3.17-13.13,2.4-15.34,1.57c-0.94-0.35-2.71-1.57-4.41-2.74
		c-2.12-1.46-4.31-2.97-5.63-3.35c-5.37-1.58-11.17-3.75-12-5.05c-1.07-1.67-0.88-2.94-0.87-2.99l0.09-0.52l-0.52-0.11
		c-0.03-0.01-2.78-0.6-2.78-2c0-1.73,0.43-2.18,0.63-2.4c0.3-0.32,1.71-1.03,3.76-0.79l-2.51,1.56c0,0,1.35,0.66,3.98-1.06
		c3.18-2.08,6.18-3.15,8.16-4.27c2.94-1.67,4.48-4.23,5.14-5.56c0.45,1.22,1.06,2.31,1.49,3.06c0.15,0.27,0.31,0.54,0.45,0.8
		c0,0-2.32-6.4-1.06-8.68c0.07-0.13,0.16-0.27,0.26-0.44c0.29-0.47,0.68-1.11,1.13-2.05c3.17-3.3,5.51-7.15,6.98-11.44
		c0.66,10,0.22,19.98-2.54,29.95c-0.11,0.4,1.86-4.83,2.28-7.34c3.06-18.26-0.6-36.57-3.6-54.92c2.23,3.26,7.05,3.58,9.81,0.79
		c0,5.53,0.1,11.06,0.19,16.57c0.04,2.24,0.15,4.41,0.33,6.55c0,0,0.34-5.66,0.28-8.62c-0.05-2.83-0.08-5.65-0.09-8.48
		c2.05,3.02,6.47,3.87,9.39,1.38C182.83,507.26,181.71,511.1,180.92,514.98z M192.59,458.81c1.25,4.22,2.44,8.2,2.88,12.16
		c0,2.8-0.96,5.69-1.89,8.48c-0.48,1.43-0.97,2.9-1.3,4.28l-0.91,2.09c-2.32,5.29-4.67,10.64-6.64,16.06
		c-2.76,3.75-8.28,2.83-9.95-1.05c-0.01-7.02,0.08-14.03,0.32-21.04c0.29-8.47,1.61-16.67,4.22-24.37c0.05-0.1,0.09-0.19,0.13-0.29
		c0-0.03,0-0.05,0-0.08c1.97-5.7,4.65-11.13,8.15-16.2c0.5,1.32,0.94,2.58,1.29,3.79C189.16,448.42,191.02,453.53,192.59,458.81z
		 M190.59,447.43c-0.98-3.71-1.74-6.69-1.74-6.69c0,0.03,0,0.07,0,0.1c-0.02-0.12-0.05-0.22-0.07-0.3
		c-3.84-11.79-10.83-21.74-9.58-33.32c1.78-5.52,3.28-11.13,4.37-16.89c1.59-8.42,2.77-16.94,3.33-25.49
		c0.28-4.24,0.69-9.19-0.25-13.58c3.08-1.07,6.15-2.16,9.25-3.14c0.97-0.31,1.93-0.64,2.87-0.99c-3.92,11.31-3.54,22.76-1.77,34.22
		c-7.02,18.47,2.14,39.32-2.13,58.4C193.59,442.37,192.12,445.01,190.59,447.43z M201.06,409.32c-0.66,7.9-1.29,15.36-1.98,19.08
		c-0.44,2.37-1.59,5.62-3.14,9.08c2.93-18.04-4.78-37.48,1.27-54.85c1.17,7.19,2.84,14.38,4.29,21.53
		C201.35,405.91,201.2,407.64,201.06,409.32z M210.72,350.23c-0.33,2.58-1.35,6.93-2.53,11.96c-1.74,7.43-3.91,16.67-4.96,24.89
		c-0.57,4.48-1.08,9.71-1.54,14.89c-3.83-18.38-8.62-36.95-2.12-55.14c4.07-1.61,7.79-3.79,10.28-7.63
		c0.18-0.27,0.34-0.57,0.49-0.86C210.67,340.31,211.34,345.33,210.72,350.23z M210.35,336.36c-1.46,6.51-9.05,9.34-14.62,11.14
		c-5.42,1.71-10.75,3.73-16.17,5.44c-10.47,3.31-3.64-13.1-2.16-17.52c1.53-4.57,2.94-9.92,2.05-14.77
		c-0.43-2.32-1.09-4.31-2.19-6.38c-2.41-4.57,5.6-7.17,8.17-8.56c6.1-3.31,13.81-8.39,19.96-2.54c1.34,2.12,2.56,4.3,3.63,6.57
		c0.69,2.38,1.07,4.9,1.43,7.11C211.49,323.26,211.78,329.99,210.35,336.36z M212.23,327.57c-0.07-3.16-0.45-6.26-0.82-8.71
		c-0.78-5.18-2.04-10.51-4.53-14.18c-3.69-7.14-7.77-11.73-12.72-17.15c-5.9-6.46-14.01-2.82-20.12,1.38
		c4.7-4.75,12.56-6.01,17.89-10.2c0.95,0.32,1.94,0.52,3.02,0.62c0.13,0.02,0.25,0.05,0.39,0.06c0.3,0.04,0.59,0.03,0.86,0
		c-1.48,1.85-1.63,4.33-1.15,6.34c0.64,2.67,6.33,10.21,16.57,21.07c0.28,0.29,0.76,0.34,1.04,0.06
		c10.61-10.68,15.82-18.67,16.46-21.34c0.47-1.97,0.41-4.33-0.95-6.13c0.3,0.03,0.61,0.03,0.94,0c0.14-0.02,0.26-0.04,0.39-0.06
		c1.08-0.1,2.07-0.31,3.02-0.62c5.34,4.19,13.22,5.45,17.92,10.21c-6.11-4.21-14.23-7.87-20.15-1.4
		c-4.94,5.41-9.02,10.01-12.71,17.14c-2.49,3.67-3.76,9.01-4.53,14.19C212.68,321.31,212.3,324.41,212.23,327.57z M247.12,263.29
		c0.01,0.76,0.01,1.26,0.01,1.43c0,0.08,0.01,0.16,0.03,0.25c-0.61,1.91-1.63,3.62-3.24,4.9c-3.97,3.15-7.81,7.25-12.76,8.51
		c0.21-0.33,0.35-0.76,0.46-1.32c0.98-5.32,2.49-10.03,4.58-15.05c2.31-5.53,5.19-10.64,7.89-15.97c1.18-2.32,2.18-4.65,3.21-6.97
		C246.92,242.98,247.07,258.11,247.12,263.29z M214.01,316.85c0.36-2.21,0.73-4.73,1.43-7.12c1.07-2.27,2.3-4.45,3.63-6.57
		c6.15-5.86,13.86-0.77,19.96,2.54c2.57,1.39,10.58,3.99,8.17,8.56c-1.09,2.07-1.76,4.06-2.19,6.38c-0.89,4.85,0.52,10.2,2.05,14.77
		c1.48,4.42,8.31,20.83-2.16,17.52c-5.42-1.71-10.74-3.72-16.17-5.44c-5.57-1.8-13.16-4.62-14.62-11.14
		C212.68,329.99,212.97,323.26,214.01,316.85z M221.24,387.08c-1.06-8.22-3.22-17.46-4.96-24.89c-1.18-5.03-2.2-9.38-2.53-11.96
		c-0.62-4.9,0.05-9.92,0.37-11.89c0.16,0.3,0.32,0.59,0.49,0.86c2.49,3.84,6.21,6.02,10.28,7.63c6.5,18.19,1.71,36.76-2.12,55.14
		C222.32,396.78,221.81,391.55,221.24,387.08z M225.38,428.4c-0.68-3.72-1.31-11.18-1.98-19.08c-0.14-1.68-0.29-3.41-0.44-5.16
		c1.45-7.16,3.12-14.35,4.29-21.54c6.04,17.37-1.67,36.81,1.27,54.85C226.96,434.02,225.81,430.77,225.38,428.4z M229.58,439.74
		c-4.27-19.08,4.89-39.92-2.13-58.4c1.76-11.46,2.14-22.91-1.77-34.22c0.95,0.35,1.91,0.68,2.87,0.99c3.1,0.98,6.18,2.07,9.25,3.14
		c-0.94,4.4-0.53,9.35-0.25,13.58c0.57,8.55,1.74,17.07,3.33,25.49c1.09,5.76,2.6,11.37,4.37,16.88c1.25,11.58-5.8,21.62-9.64,33.41
		c-0.03,0.08-0.8,3.1-1.77,6.78C232.32,444.99,230.86,442.35,229.58,439.74z M245.9,409.14c2.41,7.22,5.27,14.28,8.25,21.32
		c-5.41,5.77-8.97,15.34-8.88,23.5c-1.99-5.57-4.64-10.87-8.12-15.83C240.45,429.73,245.98,419.36,245.9,409.14z M239.73,501.86
		c-1.97-5.42-4.31-10.76-6.63-16.04l-0.91-2.09c-0.34-1.38-0.83-2.85-1.3-4.28c-0.93-2.79-1.89-5.68-1.89-8.48
		c0.44-3.96,1.63-7.95,2.88-12.16c1.59-5.36,3.73-10.68,3.96-16.58c0-0.78,0.57-2.16,1.04-3.39c8.3,12.01,11.99,26.05,12.5,40.95
		c0.24,7.01,0.34,14.02,0.32,21.04C248.02,504.72,242.48,505.64,239.73,501.86z M244.06,542.1c-0.51-1.03-1-2-1.02-2.93
		c1.88-6.83,2.07-13.48,1.19-20c2.27,8.01,2.46,16.38,0.56,24.52C244.58,543.15,244.32,542.62,244.06,542.1z M264.47,541.08
		c0.11,0.17,0.19,0.32,0.26,0.44c1.26,2.28-1.06,8.68-1.06,8.68c0.14-0.26,0.29-0.53,0.45-0.8c0.43-0.75,1.03-1.84,1.49-3.06
		c0.66,1.33,2.2,3.89,5.14,5.56c1.97,1.12,4.98,2.19,8.16,4.27c2.63,1.72,3.98,1.06,3.98,1.06l-2.51-1.56
		c2.05-0.24,3.46,0.47,3.76,0.79c0.2,0.22,0.63,0.68,0.63,2.4c0,1.4-2.75,2-2.78,2l-0.52,0.11l0.09,0.52
		c0.01,0.05,0.2,1.32-0.87,2.99c-0.83,1.29-6.62,3.47-12,5.05c-1.31,0.39-3.51,1.89-5.63,3.35c-1.71,1.17-3.47,2.39-4.41,2.74
		c-2.21,0.83-10.26,1.6-15.34-1.57c-5.01-3.13-1.17-17.58-1.13-17.73c0.2-0.74,0.42-1.55,0.65-2.41c0.51-1.92,1.07-4.03,1.65-5.97
		c0.12-0.38,0.23-0.75,0.34-1.13c0.11-0.36,0.23-0.72,0.34-1.06l0.03-0.17c0-0.02,0-0.03,0-0.05c2.7-10.15,2.05-20.7-1.67-30.55
		c-0.79-3.89-1.91-7.73-3.24-11.54c2.92,2.5,7.35,1.65,9.4-1.37c-0.01,2.83-0.04,5.65-0.09,8.48c-0.05,2.96,0.28,8.62,0.28,8.62
		c0.18-2.14,0.29-4.31,0.33-6.55c0.1-5.51,0.19-11.04,0.19-16.57c2.76,2.79,7.57,2.47,9.81-0.78c-3,18.35-6.67,36.66-3.61,54.91
		c0.42,2.5,2.4,7.74,2.28,7.34c-2.76-9.96-3.2-19.94-2.54-29.94c1.47,4.29,3.82,8.14,6.98,11.44
		C263.79,539.97,264.18,540.61,264.47,541.08z M263.37,502.06c-0.67,3.6-1.36,7.33-1.94,11l-0.1,0.86
		c-0.74,6.64-1.51,13.52,0.18,19.91c0.36,1.35,0.72,2.47,1.08,3.4c-2.84-3.33-4.88-7.15-6.09-11.4c0.86-10.88,2.93-21.78,4.68-32.69
		c0.06-0.24,0.11-0.48,0.15-0.74c0.01-0.06,0-0.11-0.01-0.15c1.96-12.34,3.44-24.71,2.2-37.08
		C269.27,470.29,266.4,485.74,263.37,502.06z M262.53,452.76c0.03,0.06,0.05,0.11,0.07,0.17c1.69,13.1,0.18,26.18-1.88,39.24
		c-0.01,0.02-0.02,0.03-0.02,0.06c-0.84,5.49-7.36,6.71-10.28,2.91c-0.01-5.7-0.13-11.39-0.47-17.06
		c-0.47-7.75-1.73-15.19-4.03-22.23l0.01,0c-0.73-8.31,2.83-18.67,8.47-24.82c0.79,1.85,1.58,3.7,2.38,5.55
		C258.54,441.41,261.15,448.62,262.53,452.76z M260.21,427.94c-0.33,2.59-0.55,4.3-0.58,4.85c-0.08,1.37,0.05,2.33,0.18,3.36
		c0.18,1.32,0.38,2.83,0.18,5.65c-0.01,0.17-0.04,0.35-0.06,0.54c-0.29-0.67-0.59-1.35-0.88-2.03c-0.54-1.28-1.09-2.55-1.66-3.79
		c-6.1-13.9-12.2-27.91-15.17-42.75c-1.75-8.75-3.18-17.61-3.84-26.51c-0.36-4.85-1.07-10.73,0.03-15.8c1.8,0.62,3.6,1.24,5.42,1.81
		c2.1,0.66,4.07,1.01,6.16,0.21c1.05-0.4,1.56-1.35,1.73-2.59c6.92,16.63,8.86,34.21,11.37,51.88
		C262.1,413.2,260.9,422.57,260.21,427.94z M258.29,331.51c2.29,9.09,5.14,20.39,6.1,33.41c0.73,9.86,0.02,22.99-1.05,35.07
		c-2.42-17.25-4.55-34.37-11.55-50.58l-0.03-0.03c-0.18-3.78-2.31-8.91-2.83-10.43c-1.78-5.21-4-10.93-3.45-16.53
		c0.38-3.91,2.6-6.83,3.24-10.46c2.56,1.63,4.8,3.68,6.68,6.09C255.79,321.56,256.93,326.11,258.29,331.51z M255.3,314.92
		c-0.04,0.61-0.03,1.27,0.01,1.97c-1.87-2.23-4.05-4.13-6.51-5.66c-0.04-1.91-4.97-3.66-5.87-4.15c-3.47-1.88-6.92-4.08-10.56-5.61
		c-5.84-2.46-9.91-1.68-12.79,0.88c2.68-4.12,5.77-8,8.94-11.81c7.22-8.67,15.36-5.65,23.03-0.03
		C252.83,294.88,255.86,306.34,255.3,314.92z M248.47,267.59c1.8,3.19,4.82,8.52,4.28,12.83c-0.75,6.05-1.69,7.85-1.7,7.87
		l-0.11,0.2l0.04,0.12c-4.66-4.78-12.3-6.06-17.73-10.17c1.07-0.43,2.11-1,3.16-1.74c2.89-2.03,6.71-4.5,8.89-7.31
		c0.92-1.19,1.61-2.45,2.12-3.76C247.64,266.1,247.98,266.72,248.47,267.59z M252.81,223.06c-0.73,2.18-1.66,4.62-2.56,6.97
		c-0.7,1.82-1.37,3.59-1.9,5.12c-3.14,6.05-6.1,12.3-9.05,18.4c-2.97,6.14-6.7,13.17-7.88,19.92c-0.41,2.34-1.82,6.77-4.87,4.44
		c-2.07-1.59-2.79-4.44-3.44-6.81c-0.93-3.39-2-6.75-2.87-10.16c-2.05-8.02-3.76-16.31-4.32-24.59c0.31-0.21,0.65-0.52,1.02-0.98
		c5.97-7.44,11.7-15.69,16.51-23.92c1.73-2.97,3.07-5.89,3.93-8.86c4.85,1.58,16.17,3.68,20.19-1.05
		C255.86,210.19,253.76,220.19,252.81,223.06z M263.31,228.17c-2.73-4.33-6.18-11.98-7.08-14.68c1.91-8.85,4.16-20.52,4.91-24.42
		c1.4,0.75,2.91,1.35,4.42,1.88c7.74,2.75,13.36,6.63,18.72,12.05l-0.02,0.06l0.08,0.19c0.02,0.06,2.34,5.79,3.58,11.8
		c0.99,4.82,1.66,14.49,1.88,18.22c-1.15,4.16-2.74,9.12-4.36,12.76c-0.73,1.65-1.43,2.89-2.51,3.51
		c-0.68-7.46-2.62-14.59-5.69-21.42c-1.3-2.9-3.48-9.45-7.34-9.87c-4-0.44-0.72,8.23-0.39,9.22c2.54,7.57,4.65,15,8.6,21.88
		c-0.55-0.15-1.1-0.31-1.64-0.49c-4.57-1.53-7-4.41-8.79-8C266.92,237.33,265.42,231.52,263.31,228.17z M281.16,251.12
		c0.49,0.11,0.96,0.16,1.4,0.09c1.61,8.32,5.36,15.32,9.09,22.93c1.33,2.71,2.4,5.44,3.27,8.2c0.79,11.24,1.58,24.47,0.52,35.79
		c-0.44,4.64-3.85,3.22-4.92,0.33c-0.03-0.09-0.06-0.17-0.09-0.26c-0.01-0.04-0.02-0.07-0.03-0.11c-0.04-0.12-0.07-0.25-0.09-0.38
		c-0.42-2.06-0.67-4.16-1.06-6.22c-0.82-4.37-2.75-9.71-3.96-14.14c-0.5-11.33-3.85-22.77-9.59-32.25
		C279.22,261.22,281.12,256.39,281.16,251.12z M279.39,249.69c-0.13-0.04-0.26-0.07-0.39-0.1c-3.37-5.64-5.65-11.77-7.56-18.07
		c-0.63-2.06-1.33-4.08-1.98-6.13c-0.14-0.43-2.32-8.95,1.38-6.22c0.89,0.65,1.63,1.45,2.21,2.39c5.37,8.33,8.4,18.46,9.25,28.25
		C281.54,250.04,280.6,250.02,279.39,249.69z M268.61,253.24c-0.53-3.34-0.36-9.39-0.35-9.45c-0.01-0.09-0.07-0.41-0.16-0.92
		c1.95,3.16,4.62,5.58,9.11,6.87c1.11,0.32,2.24,0.87,3.31,1.21c0,5.12-1.79,9.79-5.18,13.59c-1.16-1.86-2.86-4.31-3.97-5.62
		C271.34,258.88,269.12,256.45,268.61,253.24z M276.59,291.69c-2.94-7.78-5.98-15.82-6.17-20.36c-0.28-6.67,0.54-10.2,0.89-11.38
		c11.66,14.9,16.02,36.99,11.46,55.43c-0.02-1.84-0.24-3.88-0.56-6.08C281.61,305.2,279.21,298.63,276.59,291.69z M289.94,364.98
		c-0.67-0.37-1.86-1.37-1.86-3.79c0-0.1-0.01-0.29-0.01-0.44l5.42-5.54C292.19,358.92,290.52,363.46,289.94,364.98z M295.12,350.27
		c-0.12,0.49-0.42,1.41-0.81,2.56l-8.65,8.85c-0.32-0.55-0.77-1.45-1.06-2.5c0.55-0.46,3.88-3.28,7.02-6.59
		c1.6-1.68,3.14-3.95,4.21-5.91C295.63,347.99,295.4,349.19,295.12,350.27z M296.56,316.96c0.38,10.84,0.36,19.48-0.27,26
		c-0.35,1.52-2.75,6.05-5.45,8.89c-2.68,2.82-5.51,5.29-6.58,6.2c-0.7-1.04-2.13-3.71-0.46-6.25c0.85-1.3,4.42-4.47,4.63-5.31
		c0.01-0.03,0.17-2.52,0.87-5.11c0.02-0.08,0.02-0.14,0.02-0.21c0.33-1.57,0.35-2.97,0.12-4.17c-0.17-3.53-4.22-6.82-6.06-7.48
		c0.39,0.53,1.3,1.61,2.27,2.9c-0.27-0.01-0.53,0.06-0.76,0.21c-1.58,1.02-1.88,3.25-2.2,5.62c-0.25,1.87-0.51,3.79-1.39,5.19
		c-1.31,2.07-2.68,1.08-2.85-0.61c-0.21-2.08-0.31-4.84-0.29-7.38l0.08-1.42c0.29-5.3,0.92-8.82,3.22-12.48
		c0.45-0.71,0.76-1.54,0.97-2.47c2.01-6.01,2.94-12.52,2.9-19.13c1.05,3.33,2.34,7.01,2.91,10.03c0.56,2.95,0.64,6.29,1.59,9.15
		c0.58,1.72,2.53,4.01,4.82,3.28c2.22-0.71,1.72-12.62,1.76-14.12c0.2-7.39,0-14.76-0.46-22.13c1.16,4.88,1.67,9.87,1.64,15.04
		C296.92,305.94,296.36,311.04,296.56,316.96z M300.25,276.96c0,0.2,0,0.4,0,0.61c0,0.13-0.01,0.26-0.01,0.39
		c0,0.2-0.01,0.39-0.02,0.59c0,0.14-0.01,0.29-0.02,0.44c-0.01,0.27-0.02,0.53-0.04,0.81c-0.26,4.2-0.73,8.09-1.23,12.2
		c-0.21,1.69-0.46,3.4-0.73,5.15c-0.29-7.06-1.6-14.03-4.64-20.5c-4-8.51-8.57-16.34-10.37-25.61c0.53-0.25,1.01-0.74,1.4-1.58
		c0.32-0.68,0.64-1.4,0.96-2.13c1.63,6.39,7.78,10.17,11.66,15.37c0.28,0.44,2.79,4.69,3.02,13.02c0,0.08,0,0.17,0,0.25
		c0,0.22,0.01,0.44,0.01,0.66C300.25,276.72,300.25,276.84,300.25,276.96z"/>
</g>
</svg>
