<?xml version="1.0" encoding="utf-8"?>
<!-- Generator: Adobe Illustrator 26.0.1, SVG Export Plug-In . SVG Version: 6.00 Build 0)  -->
<svg version="1.1" id="Layer_1" xmlns="http://www.w3.org/2000/svg" xmlns:xlink="http://www.w3.org/1999/xlink" x="0px" y="0px"
	 viewBox="0 0 432 648" style="enable-background:new 0 0 432 648;" xml:space="preserve">
<style type="text/css">
	.st0{display:none;opacity:0.5;fill:none;stroke:#231F20;stroke-width:0.05;stroke-miterlimit:10;}
	.st1{fill:#FFFFFF;}
	.st2{fill:#E92A2A;}
	.st3{fill:#D52626;}
	.st4{fill:#9A1A1C;}
	.st5{fill:#8D1819;}
</style>
<path class="st0" d="M418.44,444.92c-2.94,1.51-8.31,5.17-9.04,17.27"/>
<g>
	<g id="White_00000173876456443724948520000002261697913051126144_">
		<path class="st1" d="M300.79,262.86v-8.73c0-8.51-6.37-17.78-7.26-19.05c-0.09-1.63-0.79-14.02-2-19.87
			c-1.14-5.52-3.16-10.81-3.58-11.87c0.32-0.94,1.7-5.13,2.5-10.24c0.92-5.88-3.07-20.31-5.47-26.4c-1.59-4.04-4.91-5.57-7.58-6.8
			c-1.44-0.66-2.69-1.24-3.39-2.06c-1.8-2.1-3.59-2.68-5.17-3.18c-0.42-0.13-0.82-0.26-1.2-0.42c-0.61-0.24-1.14-0.73-1.96-1.47
			c-1.38-1.26-3.47-3.16-7.94-5.75c-2.59-1.5-6.42-3.26-10.48-5.12c-6.08-2.78-12.97-5.94-14.58-7.93c-0.66-0.81-1.6-3.53-2.47-6.37
			c0.49-0.97,1.85-3.65,1.97-4.06c0.52-1.81,0.58-4.29,0.56-5.79c0.3,0.14,0.67,0.22,1.11,0.17c1.49-0.18,2.89-2.51,4.57-5.53
			c0.47-0.85,0.91-1.65,1.25-2.13c1.45-2.07,1.13-6.55,0.07-9.91c-0.31-0.98-0.83-1.55-1.56-1.68c-1-0.18-2.09,0.58-2.87,1.29
			c0.15-4.18,0.09-15.95-4.73-21.74c-4.16-4.99-12.48-6.23-15.63-6.53h-1.24c-3.15,0.3-11.47,1.54-15.63,6.53
			c-4.83,5.8-4.88,17.56-4.73,21.74c-0.78-0.72-1.87-1.47-2.87-1.29c-0.73,0.13-1.25,0.7-1.56,1.68c-1.06,3.36-1.38,7.84,0.07,9.91
			c0.34,0.49,0.78,1.29,1.25,2.13c1.67,3.02,3.07,5.35,4.57,5.53c0.44,0.05,0.81-0.03,1.11-0.17c-0.02,1.5,0.04,3.98,0.56,5.79
			c0.12,0.41,1.45,3.05,1.95,4.04c-0.87,2.85-1.82,5.58-2.47,6.4c-1.61,1.99-8.5,5.15-14.58,7.93c-4.06,1.86-7.89,3.62-10.48,5.12
			c-4.47,2.59-6.56,4.49-7.94,5.75c-0.81,0.74-1.35,1.23-1.96,1.47c-0.39,0.16-0.79,0.28-1.2,0.42c-1.58,0.51-3.37,1.08-5.17,3.18
			c-0.7,0.82-1.95,1.39-3.39,2.06c-2.67,1.23-5.99,2.76-7.58,6.8c-2.4,6.09-6.39,20.52-5.47,26.4c0.8,5.11,2.18,9.3,2.5,10.24
			c-0.42,1.06-2.44,6.35-3.58,11.87c-1.21,5.85-1.91,18.24-2,19.87c-0.9,1.26-7.26,10.54-7.26,19.05v8.73
			c-0.6,0.98-3.76,6.67-3.08,17.78c0.26,4.26,0.73,8.19,1.24,12.34c0.9,7.4,2.73,15.06,2.38,24.97c-0.53,15.11-0.4,28.04,1.47,33.78
			c0.81,2.48,5.19,14.9,5.39,15.43c0,0,0.18,0.57,0.73,0.4c0.03-0.01,2.8-0.8,3.09-4.43l1.15,1.17c0.2,0.21,0.54,0.18,0.71-0.05
			l0.05-0.08c0.09-0.12,1.37-1.96,1.77-4.25c0.81-1.25,2.47-4.44,0.47-7.48c-0.83-1.26-3.8-4.31-4.5-5.02
			c-0.05-0.63-0.25-2.59-0.79-4.73c-0.46-2.6-0.19-4.53,0.39-5.86c0.16-0.32,0.34-0.64,0.53-0.95c0.45-0.63,0.98-1.03,1.49-1.22
			c0.13-0.05,0.2-0.03,0.28,0.02c1.17,0.75,1.44,2.76,1.73,4.89c0.27,1.99,0.62,4.01,1.56,5.65c1.15,2.03,4.45,2.8,4.88-1.08
			c0.31-2.75,0.3-6.14,0.29-7.58l-0.08-1.46c-0.31-5.53-0.51-8.35-3.48-13.18c-1.3-2.12-1.32-3.29-0.5-11.52
			c0.4-4.01,2.97-10.54,5.59-17.46c2.99-7.91,6.08-16.08,6.28-20.83c0.31-7.35-0.66-11-1.01-12.06c0.62-0.75,2.35-3.04,2.82-6.01
			c0.55-3.46,0.38-9.46,0.36-9.61c0.02-0.1,1.83-10.47,4.82-15.22c2.21-3.5,5.19-9.74,6.64-13.44c0.81,3.68,1.53,6.66,1.99,8.06
			c0.74,2.22,1.68,4.68,2.59,7.06c1.3,3.4,2.52,6.61,2.83,8.28c0.31,1.64,0.39,9.98,0.25,24.79c-0.01,0.77-0.01,1.28-0.01,1.44
			c-0.03,0.28-0.66,1.39-1.21,2.37c-1.88,3.32-5.02,8.89-4.44,13.58c0.65,5.24,1.44,7.43,1.73,8.09c-0.6,1.89-4.98,16.22-4.3,26.56
			c0.23,3.61-1.18,9.23-2.98,16.36c-2.31,9.18-5.19,20.61-6.16,33.8c-1.44,19.51,2.66,51.57,4.21,63.63
			c0.33,2.58,0.55,4.29,0.58,4.81c0.08,1.27-0.04,2.15-0.18,3.17c-0.19,1.38-0.4,2.95-0.18,5.9c0.05,0.67,0.2,1.46,0.45,2.35
			c-1.09,2.82-2.08,5.62-2.95,8.22c-7.22,16.25-4.01,33.5-0.9,50.19c0.67,3.62,1.37,7.36,1.95,11.02l0.09,0.84
			c0.74,6.59,1.5,13.4-0.15,19.63c-0.83,3.15-1.71,5-2.35,6.14c0,0-0.01,0.01-0.01,0.01c-0.06,0.05-0.08,0.11-0.09,0.17
			c-0.15,0.26-0.29,0.49-0.41,0.68c-0.12,0.19-0.21,0.35-0.29,0.49c-0.66,1.19-0.67,2.55-0.38,3.86c-0.19,0.51-1.62,4.11-5.26,6.17
			c-3.42,1.94-6.47,3.22-7.57,3.77c-2.56-0.42-5.56,0.37-6.16,1.02c-0.46,0.49-0.93,1.25-0.93,3.16c0,1.84,2.22,2.68,3.21,2.97
			c0,0.66,0.16,1.87,1.06,3.28c1.29,2.01,9.3,4.54,12.68,5.53c1.16,0.34,3.39,1.87,5.35,3.23c1.85,1.27,3.6,2.48,4.67,2.88
			c1.1,0.41,3.41,0.81,6.12,0.81c3.32,0,7.25-0.6,10.27-2.49c5.72-3.57,1.78-18.42,1.61-19.05c-0.2-0.74-0.42-1.56-0.65-2.42
			c-0.71-2.68-1.52-5.72-2.34-8.19c0.03-0.93,0.51-1.91,1.03-2.94c0.56-1.13,1.14-2.29,1.14-3.51l-0.02-0.14
			c-5.17-18.61,2.51-36.11,9.93-53.03l0.95-2.18c0.36-1.43,0.85-2.9,1.32-4.31c0.96-2.9,1.96-5.89,1.96-8.94
			c-0.46-4.15-1.66-8.2-2.94-12.49c-0.76-2.55-1.77-6.3-2.68-9.71c4.42-6.73,8.3-15.29,9.24-20.38c0.7-3.8,1.3-10.98,2-19.31
			c0.62-7.35,1.32-15.68,2.17-22.34c1.05-8.21,3.23-17.48,4.98-24.93c1.19-5.1,2.23-9.5,2.56-12.15c0.75-5.87-0.34-12.76-0.59-14.2
			c0.68-2.1,0.98-4.5,1.03-6.94c0.06,2.44,0.35,4.83,1.03,6.94c-0.25,1.43-1.33,8.33-0.59,14.2c0.34,2.65,1.37,7.05,2.56,12.15
			c1.75,7.45,3.92,16.72,4.98,24.93c0.86,6.65,1.56,14.99,2.17,22.34c0.7,8.32,1.3,15.51,2,19.31c0.93,5.09,4.81,13.63,9.22,20.35
			c-0.94,3.56-1.98,7.44-2.67,9.74c-1.27,4.29-2.48,8.35-2.94,12.49c0,3.05,0.99,6.04,1.96,8.94c0.47,1.42,0.96,2.88,1.32,4.31
			l0.95,2.18c7.43,16.92,15.11,34.42,9.93,53.03l-0.02,0.14c0,1.22,0.58,2.38,1.14,3.51c0.52,1.03,1,2,1.03,2.94
			c-0.82,2.47-1.63,5.5-2.34,8.19c-0.23,0.86-0.45,1.68-0.65,2.42c-0.17,0.63-4.1,15.47,1.61,19.05c3.03,1.89,6.95,2.49,10.27,2.49
			c2.71,0,5.02-0.4,6.12-0.81c1.07-0.4,2.82-1.61,4.67-2.88c1.97-1.35,4.2-2.89,5.35-3.23c3.38-1,11.39-3.53,12.68-5.53
			c0.9-1.4,1.06-2.62,1.06-3.28c0.99-0.28,3.21-1.12,3.21-2.97c0-1.91-0.47-2.67-0.93-3.16c-0.61-0.65-3.6-1.44-6.16-1.02
			c-1.09-0.55-4.15-1.83-7.57-3.77c-3.64-2.06-5.06-5.66-5.26-6.17c0.28-1.31,0.27-2.67-0.38-3.86c-0.08-0.14-0.17-0.3-0.29-0.49
			c-0.12-0.19-0.25-0.42-0.41-0.68c-0.01-0.06-0.03-0.12-0.09-0.17c0,0-0.01-0.01-0.01-0.01c-0.64-1.15-1.52-2.99-2.35-6.14
			c-1.64-6.23-0.88-13.04-0.15-19.63l0.09-0.84c0.58-3.66,1.27-7.4,1.95-11.02c3.11-16.69,6.32-33.95-0.9-50.19
			c-0.86-2.59-1.85-5.39-2.94-8.2c0.25-0.9,0.41-1.69,0.46-2.37c0.21-2.95,0-4.52-0.18-5.9c-0.14-1.02-0.25-1.9-0.18-3.17
			c0.03-0.52,0.25-2.23,0.58-4.81c1.55-12.07,5.65-44.12,4.21-63.63c-0.97-13.19-3.85-24.62-6.16-33.8
			c-1.79-7.12-3.21-12.75-2.98-16.36c0.67-10.34-3.71-24.67-4.3-26.56c0.29-0.66,1.08-2.85,1.73-8.09
			c0.58-4.7-2.56-10.26-4.44-13.58c-0.55-0.98-1.18-2.09-1.21-2.37c0-0.15,0-0.66-0.01-1.44c-0.14-14.8-0.06-23.14,0.25-24.79
			c0.31-1.68,1.54-4.89,2.84-8.28c0.91-2.38,1.85-4.84,2.59-7.06c0.46-1.39,1.18-4.36,1.99-8.03c1.46,3.71,4.43,9.91,6.63,13.41
			c2.99,4.75,4.8,15.11,4.82,15.22c-0.01,0.15-0.18,6.15,0.36,9.61c0.47,2.97,2.2,5.27,2.82,6.01c-0.35,1.06-1.32,4.71-1.01,12.06
			c0.2,4.74,3.29,12.92,6.28,20.83c2.62,6.92,5.19,13.45,5.59,17.46c0.82,8.23,0.8,9.4-0.5,11.52c-2.97,4.83-3.18,7.65-3.48,13.18
			l-0.08,1.46c-0.01,1.44-0.02,4.83,0.29,7.58c0.43,3.88,3.72,3.11,4.88,1.08c0.94-1.65,1.29-3.66,1.56-5.65
			c0.29-2.13,0.56-4.14,1.73-4.89c0.08-0.05,0.15-0.07,0.28-0.02c0.51,0.19,1.04,0.59,1.49,1.22c0.19,0.32,0.37,0.64,0.53,0.95
			c0.58,1.33,0.85,3.26,0.39,5.86c-0.54,2.14-0.73,4.1-0.79,4.73c-0.69,0.71-3.67,3.76-4.5,5.02c-2,3.04-0.34,6.24,0.47,7.48
			c0.39,2.29,1.68,4.12,1.77,4.25l0.05,0.08c0.17,0.24,0.51,0.26,0.71,0.05l1.15-1.17c0.29,3.63,3.07,4.42,3.09,4.43
			c0.55,0.17,0.73-0.4,0.73-0.4c0.2-0.53,4.58-12.95,5.39-15.43c1.87-5.74,2-18.68,1.47-33.78c-0.35-9.91,1.48-17.56,2.38-24.97
			c0.51-4.16,0.98-8.08,1.24-12.34C304.55,269.54,301.4,263.84,300.79,262.86z"/>
	</g>
	<g id="Biceps_Femoris_00000016066867415985138080000011296660365642950587_">
		<g>
			<path class="st2" d="M229.62,382.63c7.05,18.58-2.14,39.51,2.12,58.69c1.29,2.66,2.77,5.35,4.33,7.8
				c0.98-3.74,1.76-6.74,1.76-6.74l0.07-0.19c3.87-11.86,10.89-21.86,9.65-33.49v-0.01l-0.01-0.02c-1.79-5.55-3.3-11.21-4.4-17
				c-1.6-8.46-2.78-17.04-3.35-25.65c-0.27-4.26-0.7-9.25,0.25-13.67c-3.09-1.06-6.18-2.17-9.31-3.15
				c-0.97-0.31-1.94-0.64-2.89-0.98C231.79,359.59,231.4,371.1,229.62,382.63"/>
			<path class="st3" d="M234.16,445.93c-0.22-0.39-0.44-0.79-0.66-1.19c0,0,0-0.01,0-0.01c0.22,0.4,0.44,0.79,0.66,1.18
				C234.16,445.92,234.16,445.92,234.16,445.93 M234.75,437.71c-0.2-0.19-0.4-0.4-0.59-0.62c0.77-4.28,2.09-8.53,3.45-12.62
				c4.64-13.98,5.93-27.66,3.94-41.81l-0.01-0.1l0.04-0.03c0.46,3.06,0.98,6.11,1.55,9.15c0.02,0.12,0.04,0.23,0.07,0.35
				c0.38,7.4-0.13,14.41-1.56,21.24c-0.8,3.85-2.08,7.78-3.32,11.58C236.95,429.06,235.54,433.38,234.75,437.71"/>
			<path class="st3" d="M233.04,443.9c-0.1-0.2-0.21-0.4-0.31-0.6c-0.23-0.45-0.46-0.9-0.69-1.35c0,0,0,0,0,0
				c0.32,0.64,0.65,1.29,1,1.94C233.04,443.89,233.04,443.89,233.04,443.9 M232.12,433.5c-0.24-0.61-0.44-1.25-0.62-1.9
				c0.1-2.45,0.36-4.91,0.79-7.37c0.56-2.85,1.34-5.69,2.09-8.43c0.59-2.15,1.2-4.37,1.7-6.58c1.61-7.09,1.1-14.59,0.66-21.2
				c-0.56-8.28-1.17-16.68-1.77-24.85c0.23,0.06,0.46,0.15,0.68,0.25c0.64,8.73,1.29,17.69,1.89,26.53
				c0.46,6.84,0.31,12.43-0.46,17.59c-0.47,3.18-1.37,6.32-2.24,9.37c-0.69,2.43-1.41,4.95-1.9,7.46
				C232.42,427.42,232.14,430.46,232.12,433.5"/>
			<path class="st3" d="M235.52,448.23c-0.2-0.33-0.4-0.67-0.61-1c0-0.01,0-0.01,0-0.02c0.2,0.34,0.4,0.67,0.61,1
				C235.52,448.22,235.52,448.22,235.52,448.23 M236.97,438.99c-0.2-0.04-0.4-0.11-0.59-0.18c1.07-3.86,2.56-7.64,4.02-11.34
				c3.08-7.81,6.27-15.89,5.41-24.48c0.26,0.91,0.52,1.82,0.8,2.73c0.02,7.61-2.82,14.81-5.58,21.8
				C239.55,431.26,238.04,435.09,236.97,438.99"/>
			<path class="st4" d="M239.93,368.04c-1.06-1.98-2.53-3.83-4.27-4.63c-0.05-0.72-0.1-1.44-0.16-2.15
				c-0.26-3.59-0.53-7.17-0.79-10.76c1.04,0.35,2.07,0.71,3.11,1.07c0.74,0.26,1.48,0.52,2.22,0.77c-0.95,4.42-0.52,9.4-0.25,13.67
				C239.83,366.69,239.87,367.37,239.93,368.04 M230.85,364.28c-0.13-2.74-0.42-5.48-0.92-8.21c-0.48-2.62-1.15-5.24-2.05-7.85
				c0.94,0.34,1.9,0.67,2.86,0.97c1.1,0.35,2.2,0.71,3.3,1.08c0.27,3.68,0.54,7.36,0.81,11.04c0.04,0.61,0.09,1.23,0.14,1.85
				c-0.36-0.1-0.73-0.15-1.1-0.15c-0.61,0-1.25,0.14-1.91,0.46C231.54,363.67,231.17,363.95,230.85,364.28"/>
			<path class="st5" d="M235.65,363.42c-0.22-0.1-0.45-0.19-0.68-0.25c-0.05-0.62-0.09-1.23-0.14-1.85
				c-0.27-3.68-0.54-7.34-0.81-11.02c0.23,0.08,0.46,0.14,0.69,0.22c0.26,3.59,0.52,7.17,0.79,10.76
				C235.55,361.98,235.6,362.7,235.65,363.42"/>
			<path class="st4" d="M236.08,449.1c-0.19-0.29-0.38-0.59-0.56-0.89c0.07-3.12,0.63-6.19,1.46-9.22c0,0,0.01,0,0.02,0
				c0.21,0.05,0.42,0.07,0.64,0.07c0.52,0,1.04-0.13,1.52-0.39c-0.44,1.16-0.86,2.33-1.25,3.52l-0.07,0.19
				C237.83,442.39,237.06,445.37,236.08,449.1 M234.91,447.21c-0.25-0.43-0.51-0.86-0.75-1.3c-0.16-2.72,0.09-5.46,0.59-8.2
				c0.5,0.48,1.05,0.86,1.63,1.09C235.62,441.57,235.08,444.37,234.91,447.21 M233.5,444.73c-0.15-0.28-0.31-0.57-0.46-0.85
				c-0.64-3.43-0.95-6.9-0.92-10.39c0.35,0.91,0.77,1.77,1.27,2.54c0.24,0.37,0.5,0.72,0.77,1.05
				C233.71,439.63,233.45,442.19,233.5,444.73 M232.05,441.95c-0.04-0.09-0.09-0.18-0.13-0.26c-0.05-0.09-0.09-0.19-0.14-0.28v-0.01
				c-1.17-5.22-1.33-10.58-1.1-15.98c0.01,0.26,0,0.53,0.01,0.79c0.1,1.83,0.36,3.67,0.82,5.39
				C231.36,435.07,231.54,438.53,232.05,441.95"/>
			<path class="st5" d="M234.16,445.91c-0.22-0.39-0.44-0.79-0.66-1.18c-0.05-2.54,0.21-5.1,0.67-7.64
				c0.19,0.22,0.38,0.43,0.59,0.62C234.25,440.45,234,443.19,234.16,445.91"/>
			<path class="st5" d="M233.04,443.88c-0.34-0.64-0.68-1.29-1-1.94c-0.5-3.42-0.68-6.88-0.54-10.35c0.18,0.65,0.38,1.29,0.62,1.9
				C232.1,436.99,232.4,440.46,233.04,443.88"/>
			<path class="st5" d="M235.52,448.21c-0.2-0.33-0.41-0.66-0.61-1c0.16-2.84,0.71-5.65,1.47-8.41c0.19,0.08,0.39,0.14,0.59,0.18
				C236.15,442.02,235.59,445.09,235.52,448.21"/>
		</g>
		<g>
			<path class="st2" d="M199.02,382.63c-7.05,18.58,2.14,39.51-2.12,58.69c-1.29,2.66-2.77,5.35-4.33,7.8
				c-0.98-3.74-1.76-6.74-1.76-6.74l-0.07-0.19c-3.87-11.86-10.89-21.86-9.65-33.49v-0.01l0.01-0.02c1.79-5.55,3.3-11.21,4.4-17
				c1.6-8.46,2.78-17.04,3.35-25.65c0.27-4.26,0.7-9.25-0.25-13.67c3.09-1.06,6.18-2.17,9.31-3.15c0.97-0.31,1.94-0.64,2.89-0.98
				C196.85,359.59,197.24,371.1,199.02,382.63"/>
			<path class="st3" d="M194.48,445.93c0-0.01,0-0.01,0-0.01c0.22-0.39,0.44-0.79,0.66-1.18c0,0,0,0.01,0,0.01
				C194.92,445.14,194.7,445.54,194.48,445.93 M193.89,437.71c-0.79-4.33-2.2-8.65-3.57-12.88c-1.24-3.8-2.52-7.73-3.32-11.58
				c-1.42-6.83-1.94-13.84-1.56-21.24c0.02-0.12,0.05-0.23,0.07-0.35c0.57-3.04,1.09-6.08,1.55-9.15l0.04,0.03l-0.01,0.1
				c-1.99,14.16-0.71,27.84,3.94,41.81c1.36,4.1,2.69,8.34,3.45,12.62C194.29,437.31,194.09,437.52,193.89,437.71"/>
			<path class="st3" d="M195.6,443.9c0-0.01,0-0.01,0-0.02c0.34-0.64,0.68-1.29,1-1.94c0,0,0,0,0,0c-0.22,0.45-0.45,0.9-0.69,1.35
				C195.81,443.5,195.7,443.7,195.6,443.9 M196.52,433.5c-0.02-3.03-0.3-6.08-0.82-9.13c-0.49-2.51-1.21-5.03-1.9-7.46
				c-0.87-3.04-1.76-6.19-2.24-9.37c-0.77-5.16-0.92-10.75-0.46-17.59c0.59-8.84,1.25-17.81,1.89-26.53
				c0.22-0.1,0.45-0.19,0.68-0.25c-0.6,8.17-1.22,16.57-1.77,24.85c-0.44,6.61-0.95,14.11,0.66,21.2c0.5,2.21,1.11,4.43,1.7,6.58
				c0.75,2.74,1.53,5.58,2.09,8.43c0.42,2.46,0.69,4.92,0.79,7.37C196.96,432.25,196.76,432.88,196.52,433.5"/>
			<path class="st3" d="M193.12,448.23c0-0.01,0-0.01,0-0.02c0.2-0.33,0.41-0.66,0.61-1c0,0.01,0,0.01,0,0.02
				C193.53,447.57,193.33,447.9,193.12,448.23 M191.67,438.99c-1.07-3.9-2.57-7.72-4.06-11.48c-2.76-6.99-5.6-14.19-5.58-21.8
				c0.27-0.91,0.54-1.82,0.8-2.73c-0.86,8.59,2.33,16.67,5.41,24.48c1.46,3.71,2.95,7.49,4.02,11.34
				C192.06,438.88,191.87,438.94,191.67,438.99"/>
			<path class="st4" d="M188.71,368.04c0.05-0.67,0.1-1.35,0.14-2.02c0.27-4.26,0.7-9.24-0.25-13.67c0.74-0.26,1.48-0.51,2.22-0.77
				c1.03-0.36,2.07-0.72,3.11-1.07c-0.26,3.59-0.52,7.17-0.79,10.76c-0.05,0.71-0.1,1.43-0.16,2.15
				C191.24,364.21,189.77,366.07,188.71,368.04 M197.79,364.28c-0.32-0.33-0.69-0.61-1.1-0.81c-0.66-0.32-1.3-0.46-1.91-0.46
				c-0.38,0-0.75,0.05-1.1,0.15c0.05-0.62,0.09-1.23,0.14-1.85c0.27-3.68,0.54-7.36,0.81-11.04c1.09-0.37,2.19-0.73,3.3-1.08
				c0.96-0.3,1.92-0.63,2.86-0.97c-0.9,2.61-1.57,5.22-2.05,7.85C198.22,358.8,197.92,361.54,197.79,364.28"/>
			<path class="st5" d="M192.99,363.42c0.22-0.1,0.45-0.19,0.68-0.25c0.05-0.62,0.09-1.23,0.14-1.85c0.27-3.68,0.54-7.34,0.81-11.02
				c-0.23,0.08-0.46,0.14-0.69,0.22c-0.26,3.59-0.52,7.17-0.79,10.76C193.09,361.98,193.04,362.7,192.99,363.42"/>
			<path class="st4" d="M192.56,449.1c-0.98-3.73-1.75-6.72-1.75-6.72l-0.07-0.19c-0.39-1.19-0.81-2.37-1.25-3.52
				c0.48,0.26,1,0.39,1.52,0.39c0.21,0,0.43-0.02,0.64-0.07c0.01,0,0.01,0,0.02,0c0.83,3.03,1.39,6.1,1.46,9.22
				C192.94,448.51,192.75,448.81,192.56,449.1 M193.73,447.21c-0.16-2.84-0.71-5.65-1.47-8.41c0.58-0.23,1.13-0.61,1.63-1.09
				c0.5,2.74,0.75,5.48,0.59,8.2C194.23,446.35,193.98,446.78,193.73,447.21 M195.14,444.73c0.05-2.54-0.21-5.1-0.67-7.64
				c0.27-0.33,0.53-0.68,0.77-1.05c0.5-0.78,0.92-1.63,1.27-2.54c0.03,3.49-0.28,6.96-0.92,10.39
				C195.45,444.17,195.3,444.45,195.14,444.73 M196.59,441.95c0.5-3.42,0.68-6.88,0.54-10.35c0.46-1.72,0.72-3.56,0.82-5.39
				c0.01-0.26,0-0.53,0.01-0.79c0.23,5.4,0.07,10.76-1.1,15.98v0.01c-0.05,0.09-0.09,0.19-0.14,0.28
				C196.68,441.77,196.64,441.86,196.59,441.95"/>
			<path class="st5" d="M194.48,445.91c0.22-0.39,0.44-0.79,0.66-1.18c0.05-2.54-0.21-5.1-0.67-7.64c-0.19,0.22-0.38,0.43-0.59,0.62
				C194.39,440.45,194.64,443.19,194.48,445.91"/>
			<path class="st5" d="M195.6,443.88c0.34-0.64,0.68-1.29,1-1.94c0.5-3.42,0.68-6.88,0.54-10.35c-0.18,0.65-0.38,1.29-0.62,1.9
				C196.55,436.99,196.24,440.46,195.6,443.88"/>
			<path class="st5" d="M193.12,448.21c0.2-0.33,0.41-0.66,0.61-1c-0.16-2.84-0.71-5.65-1.47-8.41c-0.19,0.08-0.39,0.14-0.59,0.18
				C192.49,442.02,193.05,445.09,193.12,448.21"/>
		</g>
	</g>
	<path d="M300.79,262.86v-8.73c0-8.51-6.37-17.78-7.26-19.05c-0.09-1.63-0.79-14.02-2-19.87c-1.14-5.52-3.16-10.81-3.58-11.87
		c0.32-0.94,1.7-5.13,2.5-10.24c0.92-5.88-3.07-20.31-5.47-26.4c-1.59-4.04-4.91-5.57-7.58-6.8c-1.44-0.66-2.69-1.24-3.39-2.06
		c-1.8-2.1-3.59-2.68-5.17-3.18c-0.41-0.13-0.82-0.26-1.2-0.42c-0.61-0.24-1.14-0.73-1.96-1.47c-1.38-1.26-3.47-3.16-7.94-5.75
		c-2.59-1.5-6.42-3.26-10.48-5.12c-6.08-2.78-12.97-5.94-14.58-7.93c-0.66-0.81-1.6-3.53-2.47-6.37c0.49-0.97,1.85-3.65,1.97-4.06
		c0.52-1.81,0.58-4.29,0.56-5.79c0.3,0.14,0.67,0.22,1.11,0.17c1.49-0.18,2.89-2.51,4.57-5.53c0.47-0.85,0.91-1.65,1.25-2.13
		c1.45-2.07,1.13-6.55,0.07-9.91c-0.31-0.98-0.83-1.55-1.56-1.68c-1-0.18-2.09,0.58-2.87,1.29c0.15-4.18,0.09-15.95-4.73-21.74
		c-4.16-4.99-12.48-6.23-15.63-6.53h-1.24c-3.15,0.3-11.47,1.54-15.63,6.53c-4.83,5.8-4.88,17.56-4.73,21.74
		c-0.78-0.72-1.87-1.47-2.87-1.29c-0.73,0.13-1.25,0.7-1.56,1.68c-1.06,3.36-1.38,7.84,0.07,9.91c0.34,0.49,0.78,1.29,1.25,2.13
		c1.67,3.02,3.07,5.35,4.57,5.53c0.44,0.05,0.81-0.03,1.11-0.17c-0.02,1.5,0.04,3.98,0.56,5.79c0.12,0.41,1.45,3.05,1.95,4.04
		c-0.87,2.85-1.82,5.58-2.47,6.4c-1.61,1.99-8.5,5.15-14.58,7.93c-4.06,1.86-7.89,3.62-10.48,5.12c-4.47,2.59-6.56,4.49-7.94,5.75
		c-0.81,0.74-1.35,1.23-1.96,1.47c-0.39,0.16-0.79,0.28-1.2,0.42c-1.58,0.51-3.37,1.08-5.17,3.18c-0.7,0.82-1.95,1.39-3.39,2.06
		c-2.67,1.23-5.99,2.76-7.58,6.8c-2.4,6.09-6.39,20.52-5.47,26.4c0.8,5.11,2.18,9.3,2.5,10.24c-0.42,1.06-2.44,6.35-3.58,11.87
		c-1.21,5.85-1.91,18.24-2,19.87c-0.9,1.26-7.26,10.54-7.26,19.05v8.73c-0.6,0.98-3.76,6.67-3.08,17.78
		c0.26,4.26,0.73,8.19,1.24,12.34c0.9,7.4,2.73,15.06,2.38,24.97c-0.53,15.11-0.4,28.04,1.47,33.78c0.81,2.48,5.19,14.9,5.39,15.43
		c0,0,0.18,0.57,0.73,0.4c0.03-0.01,2.8-0.8,3.09-4.43l1.15,1.17c0.2,0.21,0.54,0.18,0.71-0.05l0.05-0.08
		c0.09-0.12,1.37-1.96,1.77-4.25c0.81-1.25,2.47-4.44,0.47-7.48c-0.83-1.26-3.8-4.31-4.5-5.02c-0.05-0.63-0.25-2.59-0.79-4.73
		c-0.46-2.6-0.19-4.53,0.39-5.86c0.16-0.32,0.34-0.64,0.53-0.95c0.45-0.63,0.98-1.03,1.49-1.22c0.13-0.05,0.2-0.03,0.28,0.02
		c1.17,0.75,1.44,2.76,1.73,4.89c0.27,1.99,0.62,4.01,1.56,5.65c1.15,2.03,4.45,2.8,4.88-1.08c0.31-2.75,0.3-6.14,0.29-7.58
		l-0.08-1.46c-0.31-5.53-0.51-8.35-3.48-13.18c-1.3-2.12-1.32-3.29-0.5-11.52c0.4-4.01,2.97-10.54,5.59-17.46
		c2.99-7.91,6.08-16.08,6.28-20.83c0.31-7.35-0.66-11-1.01-12.06c0.62-0.75,2.35-3.04,2.82-6.01c0.55-3.46,0.38-9.46,0.36-9.61
		c0.02-0.1,1.83-10.47,4.82-15.22c2.2-3.5,5.19-9.74,6.64-13.44c0.81,3.68,1.53,6.66,1.99,8.06c0.74,2.22,1.68,4.68,2.59,7.06
		c1.3,3.4,2.52,6.61,2.83,8.28c0.31,1.64,0.39,9.98,0.25,24.79c-0.01,0.77-0.01,1.28-0.01,1.44c-0.03,0.28-0.66,1.39-1.21,2.37
		c-1.88,3.32-5.02,8.89-4.44,13.58c0.65,5.24,1.44,7.43,1.73,8.09c-0.6,1.89-4.98,16.22-4.3,26.56c0.24,3.61-1.18,9.23-2.98,16.36
		c-2.31,9.18-5.19,20.61-6.16,33.8c-1.44,19.51,2.66,51.57,4.21,63.63c0.33,2.58,0.55,4.29,0.58,4.81c0.08,1.27-0.04,2.15-0.18,3.17
		c-0.19,1.38-0.4,2.95-0.18,5.9c0.05,0.67,0.2,1.46,0.45,2.35c-1.09,2.82-2.08,5.62-2.95,8.22c-7.22,16.25-4.01,33.5-0.9,50.19
		c0.67,3.62,1.37,7.36,1.95,11.02l0.09,0.84c0.74,6.59,1.5,13.4-0.15,19.63c-0.83,3.15-1.71,5-2.35,6.14c0,0-0.01,0.01-0.01,0.01
		c-0.06,0.05-0.08,0.11-0.09,0.17c-0.15,0.26-0.29,0.49-0.41,0.68c-0.12,0.19-0.21,0.35-0.29,0.49c-0.66,1.19-0.67,2.55-0.38,3.86
		c-0.19,0.51-1.62,4.11-5.26,6.17c-3.42,1.94-6.47,3.22-7.57,3.77c-2.56-0.42-5.56,0.37-6.16,1.02c-0.46,0.49-0.93,1.25-0.93,3.16
		c0,1.84,2.22,2.68,3.21,2.97c0,0.66,0.16,1.87,1.06,3.28c1.29,2.01,9.3,4.54,12.68,5.53c1.16,0.34,3.39,1.87,5.35,3.23
		c1.85,1.27,3.6,2.48,4.67,2.88c1.1,0.41,3.41,0.81,6.12,0.81c3.32,0,7.25-0.6,10.27-2.49c5.72-3.57,1.78-18.42,1.61-19.05
		c-0.2-0.74-0.42-1.56-0.65-2.42c-0.71-2.68-1.52-5.72-2.34-8.19c0.03-0.93,0.51-1.91,1.03-2.94c0.56-1.13,1.14-2.29,1.14-3.51
		l-0.02-0.14c-5.17-18.61,2.51-36.11,9.93-53.03l0.95-2.19c0.36-1.43,0.85-2.9,1.32-4.31c0.96-2.9,1.96-5.89,1.96-8.94
		c-0.46-4.15-1.66-8.2-2.94-12.49c-0.76-2.55-1.77-6.3-2.68-9.71c4.42-6.73,8.3-15.29,9.24-20.38c0.7-3.8,1.3-10.98,2-19.31
		c0.62-7.35,1.32-15.68,2.17-22.34c1.06-8.21,3.23-17.48,4.98-24.93c1.19-5.1,2.23-9.5,2.56-12.15c0.75-5.87-0.34-12.76-0.59-14.2
		c0.68-2.1,0.98-4.5,1.03-6.94c0.06,2.44,0.35,4.83,1.03,6.94c-0.25,1.43-1.33,8.33-0.59,14.2c0.34,2.65,1.37,7.05,2.56,12.15
		c1.75,7.45,3.92,16.72,4.98,24.93c0.86,6.65,1.56,14.99,2.17,22.34c0.7,8.32,1.3,15.51,2,19.31c0.93,5.09,4.81,13.63,9.22,20.35
		c-0.94,3.56-1.98,7.44-2.67,9.74c-1.28,4.29-2.48,8.34-2.94,12.49c0,3.05,0.99,6.04,1.96,8.94c0.47,1.42,0.96,2.88,1.32,4.31
		l0.95,2.19c7.43,16.92,15.11,34.42,9.93,53.03l-0.02,0.14c0,1.22,0.58,2.38,1.14,3.51c0.52,1.03,1,2,1.03,2.94
		c-0.82,2.47-1.63,5.5-2.34,8.19c-0.23,0.86-0.45,1.68-0.65,2.42c-0.17,0.63-4.1,15.47,1.61,19.05c3.03,1.89,6.95,2.49,10.27,2.49
		c2.71,0,5.02-0.4,6.12-0.81c1.07-0.4,2.82-1.61,4.67-2.88c1.97-1.35,4.2-2.89,5.35-3.23c3.38-1,11.39-3.53,12.68-5.53
		c0.9-1.4,1.06-2.62,1.06-3.28c0.99-0.28,3.21-1.12,3.21-2.97c0-1.91-0.47-2.67-0.93-3.16c-0.61-0.65-3.6-1.44-6.16-1.02
		c-1.09-0.55-4.15-1.83-7.57-3.77c-3.64-2.06-5.06-5.66-5.26-6.17c0.28-1.31,0.27-2.67-0.38-3.86c-0.08-0.14-0.17-0.3-0.29-0.49
		c-0.12-0.19-0.25-0.42-0.4-0.68c-0.01-0.06-0.03-0.12-0.09-0.17c0,0-0.01-0.01-0.01-0.01c-0.64-1.15-1.52-2.99-2.35-6.14
		c-1.64-6.23-0.88-13.04-0.15-19.63l0.09-0.84c0.58-3.66,1.27-7.4,1.95-11.02c3.11-16.69,6.32-33.95-0.9-50.19
		c-0.86-2.59-1.85-5.39-2.94-8.2c0.25-0.9,0.41-1.69,0.46-2.37c0.21-2.95,0-4.52-0.18-5.9c-0.14-1.02-0.25-1.9-0.18-3.17
		c0.03-0.52,0.25-2.23,0.58-4.81c1.55-12.07,5.65-44.12,4.21-63.63c-0.97-13.19-3.85-24.62-6.16-33.8
		c-1.79-7.12-3.21-12.75-2.98-16.36c0.67-10.34-3.71-24.67-4.3-26.56c0.29-0.66,1.08-2.85,1.73-8.09c0.58-4.7-2.56-10.26-4.44-13.58
		c-0.55-0.98-1.18-2.09-1.21-2.37c0-0.15,0-0.66-0.01-1.44c-0.14-14.8-0.06-23.14,0.25-24.79c0.31-1.68,1.54-4.89,2.84-8.28
		c0.91-2.38,1.85-4.84,2.59-7.06c0.46-1.39,1.18-4.36,1.99-8.03c1.46,3.71,4.43,9.91,6.63,13.41c2.99,4.75,4.8,15.11,4.82,15.22
		c-0.01,0.15-0.18,6.15,0.36,9.61c0.47,2.97,2.2,5.27,2.82,6.01c-0.35,1.06-1.32,4.71-1.01,12.06c0.2,4.74,3.29,12.92,6.28,20.83
		c2.62,6.92,5.19,13.45,5.59,17.46c0.82,8.23,0.8,9.4-0.5,11.52c-2.97,4.83-3.18,7.65-3.48,13.18l-0.08,1.46
		c-0.01,1.44-0.02,4.83,0.29,7.58c0.43,3.88,3.72,3.11,4.88,1.08c0.94-1.65,1.29-3.66,1.56-5.65c0.29-2.13,0.56-4.14,1.73-4.89
		c0.08-0.05,0.15-0.07,0.28-0.02c0.51,0.19,1.04,0.59,1.49,1.22c0.19,0.32,0.37,0.64,0.53,0.95c0.58,1.33,0.85,3.26,0.39,5.86
		c-0.54,2.14-0.73,4.1-0.79,4.73c-0.69,0.71-3.67,3.76-4.5,5.02c-2,3.04-0.35,6.24,0.47,7.48c0.39,2.29,1.68,4.12,1.77,4.25
		l0.05,0.08c0.17,0.24,0.51,0.26,0.71,0.05l1.15-1.17c0.29,3.63,3.06,4.42,3.09,4.43c0.55,0.17,0.73-0.4,0.73-0.4
		c0.2-0.53,4.58-12.95,5.39-15.43c1.87-5.74,2-18.68,1.47-33.78c-0.35-9.91,1.48-17.56,2.38-24.97c0.51-4.16,0.98-8.08,1.24-12.34
		C304.55,269.54,301.39,263.85,300.79,262.86z M292.55,235.6c0.05,0.07,3.24,4.51,5.35,10.03c0.07,0.19,0.14,0.38,0.21,0.57
		c0.03,0.09,0.07,0.19,0.1,0.28c0.07,0.19,0.13,0.38,0.19,0.56c0.77,2.31,1.3,4.75,1.3,7.1v8.14c-4.12-4.99-10.04-8.84-11.19-15.37
		c1.5-3.59,2.9-7.61,4.01-11.35L292.55,235.6z M274.52,159.66c0.72,0.45,1.55,0.84,2.42,1.23c2.62,1.21,5.59,2.58,7.02,6.21
		c2.36,5.99,6.3,20.14,5.41,25.83c-0.68,4.36-1.79,8.04-2.27,9.52c-2.34-2.56-4.84-4.99-7.73-6.84c-4.7-3-10.05-4.01-14.93-6.53
		c-7.81-4.04-8.87-16.49-2.24-22.85C266,162.6,269.86,160.33,274.52,159.66z M215.9,197.79c-0.34-8.89-2.07-18.53,0.16-27.3
		c1.83-7.19,6.26-12.49,12.53-15.97c3.67,2,7.8,3.33,12.08,3.99c3.78,0.59,12.27,1.87,18.87,0.74c0.84,5.68-6.84,6.06-10.06,6.25
		c-1.1,0.07-2.15,0.11-3.24,0.29c-2.28,0.36-5.39,0.58-7.37,1.96c-3.67,2.55-2.83,7.06-1.96,11c2.13,9.6,5.38,18.49,0.69,28
		c-3.4,6.88-8.03,13.12-12.35,19.44c-1.38,2.02-2.87,3.94-4.28,5.94c-1.02,1.45-5.02,4.45-4.99,1.42c0.04-3.86-0.22-7.72-0.27-11.58
		C215.59,213.92,216.2,205.83,215.9,197.79z M257.74,182.85c0.15,0.47,0.33,0.91,0.53,1.32c-4.05,4.92-9.45,8.15-15.46,10.18
		c-0.7-1.09-1.43-2.17-2.19-3.22c-0.04-0.05-0.08-0.08-0.13-0.1c-0.16-1.11-0.38-2.24-0.67-3.39c-1.41-5.56-6.67-18.08,1.74-20.21
		c1.09-0.28,2.19-0.46,3.29-0.59c4.55,2.04,8.57,4.89,12.01,8.5c0.01,0.01,0.02,0.01,0.03,0.02
		C256.67,177.7,256.92,180.21,257.74,182.85z M240.64,192.32c2.54,3.62,4.71,7.46,6.51,11.53c-2.88-0.35-5.58-1.01-7.34-1.58
		C240.66,199.06,240.97,195.78,240.64,192.32z M243.16,194.91c5.98-2.04,11.37-5.25,15.44-10.12c0.95,1.67,2.33,2.92,3.93,3.92
		c-0.35,1.83-1.18,6.14-2.18,11.16c-1.58,4.01-7.2,4.59-12.44,4.05C246.54,200.79,244.96,197.79,243.16,194.91z M267.26,155.28
		c0.4,0.16,0.81,0.29,1.24,0.43c1.51,0.49,3.08,0.99,4.68,2.85c0.17,0.19,0.36,0.37,0.57,0.54c-8.56,1.36-15.56,7.29-16.74,15.45
		c-3.17-3.25-6.81-5.88-10.89-7.84c2.78-0.25,5.57-0.29,8.3-0.89c3.71-0.81,6.27-3.26,5.8-6.68
		C263.26,158.52,265.84,157.34,267.26,155.28z M246.79,142.91c4.03,1.85,7.85,3.59,10.39,5.07c4.37,2.53,6.41,4.39,7.76,5.61
		c0.65,0.59,1.17,1.06,1.72,1.39c-5.45,7.94-29.45,2.59-34.98,0.35c-5.89-2.39-8.42-5.39-12.05-10.4c-3.56-4.92-3.96-9.3-4.08-15.18
		c-0.07-3.35-0.24-6.74-0.14-10.09c0-1,0.08-1.99,0.24-2.98c0.11-1.14,1.3-2.15,2.46-1.7c1.26,0.49,2.22,1.73,2.8,2.88
		c0.54,1.08,1.03,2.18,1.56,3.26c2.39,4.92,5.12,10.11,9.4,13.61C233.72,136.92,240.36,139.96,246.79,142.91z M200.56,119.81
		c0,0-0.75,2.98-1.7,6.23c-0.47-0.9-1.29-2.53-1.37-2.79c-0.73-2.53-0.48-6.69-0.47-6.74l0.16-2.57l-1.19,2.29
		c-0.01,0.03-0.39,0.69-1.08,0.61c-1.06-0.13-2.74-3.16-3.75-4.98c-0.51-0.91-0.94-1.7-1.31-2.23c-1.08-1.55-1.05-5.4,0.07-8.96
		c0.18-0.57,0.42-0.88,0.72-0.94c0.78-0.14,2.14,1.1,2.87,2.02l1.1,1.39l-0.13-1.77c-0.01-0.16-1.12-15.83,4.41-22.46
		c4.1-4.92,12.94-5.98,15.41-6.18c2.47,0.2,11.31,1.26,15.41,6.18c5.53,6.63,4.42,22.3,4.41,22.46l-0.13,1.77l1.1-1.39
		c0.73-0.92,2.09-2.16,2.87-2.02c0.3,0.06,0.54,0.37,0.72,0.94c1.12,3.56,1.16,7.41,0.07,8.96c-0.37,0.53-0.81,1.32-1.31,2.23
		c-1,1.81-2.69,4.85-3.75,4.98c-0.7,0.08-1.07-0.59-1.08-0.61l-1.19-2.29l0.16,2.57c0,0.04,0.26,4.2-0.47,6.74
		c-0.08,0.26-0.92,1.92-1.38,2.81c-0.95-3.26-1.71-6.25-1.71-6.25c0.06,0.43,1.3,9.15,2.93,13.24c-4.1-3.98-6.56-9.57-9.03-14.66
		c-0.56-1.16-2.91-6.01-5.23-4.63c-2.4,1.43-1.99,5.4-1.92,7.78c0.15,5.27-0.75,11.31,0.58,16.45c1.9,7.34,6.56,12.69,12.56,16.16
		c-5.54,3.14-10.42,8.04-12.02,14.33c-2.64,10.36-0.58,20.72-0.62,31.23c-0.05,11.26,0.32,22.62,0.05,33.85
		c-0.04,1.67,0.66,3.88,2.05,3.6c0.12,1.78,0.31,3.56,0.53,5.33c-0.7-1.32-1.87-3.33-2.85-4.31c-0.4-0.4-1.12-0.38-1.55,0.04
		c-0.95,0.95-2.03,2.64-2.78,3.98c0.2-1.68,0.38-3.35,0.5-5.04c1.39,0.28,2.09-1.93,2.05-3.6c-0.27-11.24,0.1-22.6,0.05-33.85
		c-0.04-10.5,2.02-20.87-0.62-31.23c-1.6-6.29-6.48-11.18-12.02-14.33c6-3.47,10.66-8.82,12.56-16.16
		c1.33-5.14,0.43-11.18,0.58-16.45c0.07-2.38,0.48-6.36-1.92-7.78c-2.32-1.38-4.67,3.47-5.23,4.63c-2.47,5.11-4.94,10.71-9.06,14.69
		C199.25,129,200.5,120.24,200.56,119.81z M218.18,244.56c1.11,7.77,3.02,15.45,5.19,22.93c0.83,2.87,1.84,10.32,5.52,12.25
		c2.62,2.06,1.97,5.38,1.71,6.45c-0.55,2.3-11.86,16.66-15.74,20.44c-0.3,0.3-0.87,0.3-1.18,0.01c-4.18-3.87-15.4-17.93-15.96-20.24
		c-0.26-1.07-0.82-4.52,1.85-6.6c3.79-1.81,4.81-9.41,5.65-12.32c2.21-7.61,4.15-15.44,5.25-23.35c0.86-1.77,2.19-3.87,3.03-4.97
		c0.6-0.79,1.06-0.71,1.61,0.08C215.85,240.29,217.33,242.74,218.18,244.56z M171.7,175.37c0.02-0.01,0.03-0.02,0.05-0.03
		c3.45-3.61,7.46-6.47,12.01-8.5c1.1,0.13,2.2,0.31,3.29,0.59c8.42,2.13,3.15,14.65,1.75,20.21c-0.29,1.15-0.51,2.28-0.67,3.39
		c-0.05,0.02-0.09,0.05-0.13,0.1c-0.76,1.05-1.49,2.13-2.19,3.22c-6.02-2.03-11.42-5.26-15.48-10.2c0.2-0.41,0.38-0.84,0.52-1.31
		C171.67,180.22,171.92,177.71,171.7,175.37z M185.45,194.91c-1.8,2.88-3.38,5.88-4.74,9.02c-5.12,0.53-10.6,0.02-12.37-3.69
		c-1.04-5.19-1.9-9.68-2.26-11.55c1.59-1,2.97-2.25,3.92-3.92C174.07,189.66,179.47,192.87,185.45,194.91z M187.97,192.32
		c-0.34,3.46-0.03,6.73,0.83,9.94c-1.75,0.57-4.45,1.23-7.34,1.6C183.26,199.78,185.43,195.94,187.97,192.32z M191.7,178.76
		c0.87-3.94,1.71-8.45-1.96-11c-1.98-1.38-5.08-1.6-7.37-1.96c-1.09-0.17-2.14-0.22-3.24-0.29c-3.23-0.19-10.9-0.58-10.06-6.25
		c6.6,1.13,15.09-0.16,18.87-0.74c4.29-0.66,8.42-1.99,12.08-3.99c6.27,3.48,10.7,8.78,12.53,15.97c2.23,8.76,0.5,18.4,0.16,27.3
		c-0.3,8.04,0.31,16.13,0.19,24.18c-0.06,3.86-0.31,7.73-0.27,11.58c0.03,3.03-3.97,0.03-4.99-1.42c-1.41-2-2.9-3.92-4.28-5.94
		c-4.32-6.32-9-12.53-12.4-19.42c-0.72-1.46-1.25-2.91-1.63-4.34c0,0,0-0.01,0-0.01C187.26,194.51,189.89,186.88,191.7,178.76z
		 M163.66,153.59c1.35-1.23,3.39-3.08,7.76-5.61c2.54-1.47,6.35-3.22,10.39-5.07c6.37-2.92,12.95-5.93,14.86-8.12
		c4.32-3.5,7.07-8.72,9.47-13.67c0.53-1.08,1.02-2.19,1.56-3.26c0.58-1.15,1.54-2.4,2.8-2.88c1.17-0.45,2.36,0.56,2.46,1.7
		c0.16,0.99,0.24,1.98,0.24,2.98c0.1,3.35-0.08,6.74-0.14,10.09c-0.12,5.89-0.52,10.26-4.08,15.18c-3.63,5.01-6.15,8.02-12.05,10.4
		c-5.52,2.24-29.54,7.6-34.98-0.36C162.49,154.64,163.01,154.17,163.66,153.59z M155.42,158.56c1.6-1.87,3.17-2.37,4.68-2.85
		c0.43-0.14,0.85-0.27,1.25-0.43c1.42,2.07,4,3.25,7.05,3.86c-0.48,3.43,2.08,5.88,5.8,6.68c2.73,0.59,5.52,0.64,8.31,0.89
		c-4.09,1.96-7.73,4.6-10.91,7.86c-1.18-8.16-8.18-14.1-16.75-15.46C155.05,158.93,155.25,158.75,155.42,158.56z M139.22,192.94
		c-0.89-5.69,3.05-19.84,5.41-25.83c1.43-3.63,4.4-5,7.02-6.21c0.86-0.4,1.7-0.79,2.42-1.23c4.66,0.67,8.52,2.94,12.32,6.58
		c6.64,6.36,5.58,18.81-2.24,22.85c-4.88,2.52-10.23,3.53-14.93,6.53c-2.89,1.84-5.39,4.28-7.73,6.84
		C141.01,200.97,139.9,197.3,139.22,192.94z M128.89,254.14c0-2.35,0.53-4.79,1.3-7.1c0.06-0.19,0.13-0.38,0.19-0.56
		c0.03-0.09,0.07-0.19,0.1-0.28c0.07-0.19,0.14-0.38,0.21-0.57c2.1-5.52,5.3-9.96,5.35-10.03l0.03-0.04
		c1.12,3.74,2.52,7.76,4.01,11.35c-1.15,6.53-7.07,10.38-11.19,15.37V254.14z M127.77,298.04c-0.27-1.76-0.52-3.47-0.73-5.18
		c-0.5-4.14-0.98-8.05-1.23-12.28c-0.02-0.27-0.03-0.54-0.04-0.81c-0.01-0.15-0.01-0.29-0.02-0.44c-0.01-0.2-0.01-0.4-0.02-0.6
		c0-0.13-0.01-0.26-0.01-0.39c0-0.21,0-0.41,0-0.61c0-0.12,0-0.23,0-0.35c0-0.23,0.01-0.45,0.01-0.67c0-0.08,0-0.17,0-0.25
		c0.23-8.38,2.76-12.66,3.04-13.1c3.91-5.23,10.09-9.03,11.73-15.47c0.32,0.74,0.64,1.46,0.96,2.15c0.4,0.84,0.87,1.33,1.41,1.59
		c-1.81,9.32-6.41,17.2-10.44,25.77C129.38,283.91,128.06,290.94,127.77,298.04z M144.92,251.74c0.04,5.3,1.95,10.16,5.51,14.08
		c-1.29,2.13-2.46,4.37-3.5,6.68c-3.19-5.01-4.7-10.64-4.37-16.64c0.37-1.31,0.7-2.65,0.97-4.02
		C143.96,251.9,144.43,251.85,144.92,251.74z M143.77,250.41c0.85-9.85,3.91-20.04,9.31-28.43c0.58-0.95,1.33-1.75,2.22-2.41
		c3.72-2.74,1.52,5.83,1.39,6.26c-0.65,2.06-1.36,4.1-1.99,6.17c-1.93,6.34-4.22,12.51-7.61,18.18c-0.13,0.04-0.26,0.07-0.39,0.11
		C145.48,250.63,144.54,250.65,143.77,250.41z M146.6,273.21c-3.44,7.83-5.44,16.47-5.82,25.06c-1.21,4.45-3.15,9.83-3.98,14.23
		c-0.39,2.08-0.64,4.19-1.07,6.26c-0.03,0.13-0.06,0.25-0.09,0.38c-0.01,0.04-0.02,0.07-0.03,0.11c-0.03,0.09-0.06,0.18-0.09,0.27
		c-1.07,2.9-4.51,4.34-4.95-0.33c-1.07-11.4-0.28-24.71,0.52-36.02c0.87-2.78,1.95-5.53,3.29-8.25c2.79-5.7,5.59-11.05,7.51-16.86
		C141.98,263.49,143.58,268.63,146.6,273.21z M137.96,362.5c0,2.43-1.19,3.43-1.87,3.81c-0.58-1.53-2.26-6.1-3.57-9.83l5.45,5.58
		C137.96,362.22,137.96,362.41,137.96,362.5z M140.39,362.99l-8.71-8.91c-0.39-1.15-0.69-2.08-0.81-2.57
		c-0.28-1.09-0.51-2.29-0.72-3.61c1.07,1.97,2.62,4.26,4.23,5.95c3.16,3.32,6.52,6.17,7.07,6.63
		C141.17,361.54,140.71,362.44,140.39,362.99z M144.61,322.61c2.32,3.68,2.95,7.23,3.24,12.56l0.08,1.43
		c0.02,2.55-0.08,5.33-0.29,7.42c-0.17,1.71-1.55,2.71-2.87,0.62c-0.89-1.4-1.15-3.34-1.4-5.22c-0.32-2.38-0.62-4.63-2.22-5.66
		c-0.24-0.15-0.5-0.22-0.77-0.21c0.97-1.3,1.89-2.39,2.28-2.92c-1.85,0.66-5.92,3.97-6.09,7.52c-0.23,1.21-0.22,2.62,0.12,4.2
		c-0.01,0.06,0,0.13,0.02,0.21c0.7,2.6,0.87,5.11,0.88,5.14c0.22,0.84,3.8,4.03,4.66,5.34c1.68,2.56,0.24,5.25-0.46,6.29
		c-1.07-0.92-3.92-3.4-6.62-6.24c-2.72-2.86-5.14-7.42-5.48-8.95c-0.63-6.56-0.65-15.26-0.27-26.16c0.21-5.96-0.36-11.09-1.04-15.85
		c-0.03-5.2,0.48-10.23,1.65-15.14c-0.46,7.42-0.67,14.84-0.47,22.27c0.04,1.51-0.47,13.49,1.77,14.21c2.3,0.74,4.27-1.57,4.85-3.3
		c0.96-2.88,1.04-6.24,1.6-9.21c0.57-3.03,1.88-6.74,2.93-10.09c-0.04,6.65,0.9,13.2,2.92,19.25
		C143.84,321.06,144.16,321.89,144.61,322.61z M155.73,272.07c-0.19,4.57-3.25,12.66-6.21,20.49c-2.64,6.99-5.05,13.6-5.65,17.71
		c-0.32,2.21-0.54,4.27-0.57,6.12c-4.6-18.55-0.2-40.78,11.53-55.77C155.19,261.8,156.01,265.36,155.73,272.07z M157.55,253.87
		c-0.51,3.23-2.74,5.68-2.76,5.7c0,0-2.83,3.79-4,5.66c-3.41-3.82-5.21-8.52-5.21-13.67c1.07-0.34,2.21-0.9,3.33-1.22
		c4.52-1.29,7.21-3.73,9.17-6.91c-0.1,0.51-0.15,0.84-0.17,0.93C157.91,244.42,158.08,250.51,157.55,253.87z M162.76,228.72
		c-2.06,3.41-3.48,9.05-4.25,12.59c-1.79,3.61-4.26,6.6-8.87,8.14c-0.54,0.18-1.1,0.34-1.65,0.5c3.98-6.92,6.1-14.4,8.65-22.02
		c0.33-0.99,3.64-9.71-0.39-9.28c-3.89,0.42-6.07,7.01-7.38,9.93c-3.09,6.88-5.04,14.05-5.72,21.56c-1.09-0.62-1.79-1.87-2.53-3.53
		c-1.63-3.66-3.23-8.65-4.39-12.84c0.23-3.75,0.9-13.49,1.9-18.34c1.24-6.04,3.57-11.82,3.6-11.87l0.2-0.29
		c5.4-5.45,10.9-9.33,18.7-12.09c1.52-0.54,3.05-1.14,4.46-1.91c0.75,3.91,3.02,15.64,4.93,24.54
		C169.11,216.47,165.54,224.13,162.76,228.72z M177.95,235.66c-0.53-1.53-1.21-3.31-1.91-5.15c-0.9-2.37-1.84-4.82-2.57-7.02
		c-0.96-2.88-3.06-12.91-4.81-21.62c4.09,4.72,15.45,2.59,20.31,1.01c0.87,2.99,2.21,5.93,3.96,8.92
		c4.84,8.29,10.61,16.58,16.62,24.07c0.37,0.46,0.71,0.78,1.03,0.99c-0.56,8.34-2.28,16.68-4.34,24.75
		c-0.88,3.43-1.95,6.81-2.89,10.22c-0.65,2.38-1.37,5.25-3.46,6.85c-3.07,2.35-4.48-2.11-4.9-4.47c-1.19-6.79-4.95-13.86-7.93-20.04
		C184.09,248.04,181.12,241.75,177.95,235.66z M179.01,239.62c1.02,2.31,2.02,4.63,3.22,7c2.72,5.37,5.61,10.5,7.94,16.07
		c2.11,5.05,3.62,9.79,4.61,15.15c0.11,0.57,0.25,1,0.46,1.33c-4.98-1.27-8.84-5.4-12.84-8.56c-1.62-1.28-2.64-3.01-3.26-4.93
		c0.02-0.09,0.03-0.18,0.03-0.25c0-0.16,0-0.67,0.01-1.43C179.25,258.78,179.39,243.6,179.01,239.62z M173.52,281.23
		c-0.54-4.34,2.5-9.71,4.31-12.91c0.5-0.88,0.84-1.5,1.06-1.96c0.51,1.31,1.2,2.58,2.13,3.78c2.19,2.82,6.04,5.31,8.95,7.36
		c1.06,0.74,2.1,1.32,3.18,1.75c-5.46,4.14-13.15,5.43-17.84,10.24l0.04-0.12l-0.11-0.21C175.23,289.13,174.28,287.32,173.52,281.23
		z M174.73,291.38c7.73-5.66,15.91-8.69,23.18,0.03c3.19,3.83,6.3,7.73,9,11.88c-2.9-2.58-6.99-3.36-12.87-0.89
		c-3.67,1.54-7.14,3.75-10.63,5.65c-0.91,0.49-5.87,2.26-5.91,4.18c-2.48,1.54-4.67,3.45-6.55,5.7c0.04-0.71,0.05-1.37,0.01-1.98
		C170.4,307.3,173.45,295.77,174.73,291.38z M161.82,366.25c0.97-13.1,3.83-24.47,6.13-33.62c1.37-5.44,2.52-10.02,2.9-13.56
		c1.9-2.43,4.15-4.49,6.73-6.13c0.64,3.66,2.88,6.6,3.26,10.53c0.55,5.64-1.68,11.39-3.47,16.64c-0.52,1.53-2.66,6.69-2.85,10.5
		l-0.03,0.03c-7.05,16.32-9.18,33.54-11.62,50.9C161.8,389.39,161.09,376.18,161.82,366.25z M163.13,404.34
		c2.54-17.78,4.48-35.47,11.45-52.2c0.17,1.25,0.68,2.21,1.74,2.61c2.11,0.8,4.09,0.45,6.2-0.22c1.83-0.58,3.64-1.2,5.45-1.82
		c1.11,5.1,0.39,11.01,0.03,15.89c-0.67,8.96-2.11,17.87-3.87,26.68c-2.96,14.82-9.02,28.81-15.11,42.68
		c-0.7,1.5-1.38,3.06-2.03,4.64c-0.23,0.52-0.45,1.04-0.68,1.56c-0.03-0.19-0.05-0.37-0.06-0.54c-0.2-2.84,0-4.35,0.18-5.68
		c0.14-1.03,0.27-2,0.19-3.38c-0.03-0.56-0.25-2.28-0.59-4.89C165.33,424.26,164.12,414.84,163.13,404.34z M180.43,410.74
		c-0.08,10.29,5.48,20.73,8.8,29.17c-3.35,4.78-5.94,9.87-7.91,15.21c-0.18-8.61-3.32-16.71-9.05-23.29
		C175.22,424.87,178.04,417.88,180.43,410.74z M163.61,454.82c0.02-0.06,0.05-0.11,0.07-0.17c1.38-4.13,3.97-11.29,5.74-16.15
		c0.86-2,1.72-4,2.57-6c5.91,6.9,8.92,15.44,8.67,24.49c-2.47,7.31-3.81,15.06-4.3,23.14c-0.34,5.7-0.46,11.43-0.48,17.16
		c-2.95,3.82-9.5,2.6-10.35-2.93c0-0.03-0.02-0.05-0.03-0.07C163.43,481.16,161.91,468,163.61,454.82z M164.71,536.22
		c1.7-6.43,0.92-13.34,0.18-20.03l-0.1-0.87c-0.58-3.7-1.28-7.45-1.96-11.07c-3.05-16.42-5.94-31.97-0.14-47.18
		c-1.24,12.47,0.25,24.92,2.22,37.35c-0.01,0.04-0.01,0.08-0.01,0.12c0.03,0.22,0.08,0.43,0.13,0.64c1.76,11.02,3.86,22.02,4.73,33
		c-1.22,4.27-3.27,8.12-6.13,11.47C163.98,538.71,164.35,537.58,164.71,536.22z M183.29,541.6c-0.02,0.94-0.51,1.92-1.03,2.95
		c-0.26,0.52-0.53,1.06-0.73,1.6c-1.91-8.2-1.72-16.61,0.57-24.68C181.21,528.03,181.4,534.73,183.29,541.6z M182.8,517.26
		c-3.74,9.92-4.4,20.53-1.68,30.75c0,0.02,0,0.03,0,0.05l0.03,0.17c0.11,0.34,0.23,0.7,0.34,1.07c0.11,0.38,0.22,0.76,0.35,1.14
		c0.58,1.95,1.14,4.07,1.66,6c0.23,0.86,0.45,1.68,0.65,2.42c0.04,0.15,3.9,14.69-1.14,17.84c-5.11,3.19-13.21,2.42-15.43,1.58
		c-0.95-0.36-2.72-1.58-4.44-2.76c-2.13-1.47-4.34-2.99-5.66-3.37c-5.41-1.59-11.24-3.78-12.07-5.08c-1.08-1.68-0.88-2.96-0.87-3.01
		l0.09-0.52l-0.52-0.11c-0.03-0.01-2.79-0.6-2.79-2.02c0-1.74,0.43-2.2,0.64-2.42c0.3-0.32,1.72-1.04,3.78-0.8l-2.52,1.57
		c0,0,1.36,0.67,4-1.06c3.2-2.09,6.22-3.17,8.21-4.29c2.96-1.68,4.51-4.25,5.18-5.59c0.46,1.22,1.07,2.32,1.5,3.08
		c0.16,0.27,0.31,0.54,0.45,0.8c0,0-2.33-6.44-1.06-8.74c0.07-0.13,0.16-0.27,0.26-0.44c0.29-0.47,0.68-1.12,1.13-2.07
		c3.19-3.32,5.55-7.2,7.03-11.51c0.67,10.06,0.22,20.11-2.55,30.13c-0.11,0.41,1.88-4.86,2.3-7.38c3.08-18.37-0.6-36.8-3.62-55.27
		c2.25,3.28,7.1,3.6,9.87,0.79c0,5.56,0.1,11.13,0.2,16.67c0.04,2.25,0.15,4.44,0.33,6.59c0,0,0.34-5.7,0.29-8.68
		c-0.05-2.84-0.08-5.69-0.09-8.53c2.06,3.03,6.51,3.89,9.45,1.39C184.72,509.48,183.59,513.35,182.8,517.26z M194.54,460.74
		c1.26,4.24,2.45,8.25,2.9,12.24c0,2.81-0.97,5.72-1.91,8.53c-0.48,1.44-0.97,2.92-1.31,4.31l-0.92,2.1
		c-2.34,5.32-4.7,10.7-6.68,16.16c-2.78,3.77-8.33,2.85-10.01-1.06c-0.01-7.06,0.08-14.12,0.32-21.17
		c0.29-8.52,1.62-16.77,4.25-24.52c0.05-0.1,0.09-0.2,0.13-0.29c0-0.03,0-0.06,0-0.08c1.98-5.74,4.67-11.2,8.2-16.3
		c0.51,1.32,0.95,2.6,1.3,3.81C191.09,450.27,192.96,455.42,194.54,460.74z M192.53,449.28c-0.98-3.73-1.75-6.74-1.75-6.74
		c0,0.03,0,0.07,0,0.1c-0.02-0.12-0.05-0.22-0.07-0.3c-3.87-11.86-10.9-21.88-9.64-33.53c1.79-5.55,3.3-11.2,4.4-16.99
		c1.6-8.47,2.78-17.05,3.35-25.65c0.28-4.27,0.69-9.24-0.25-13.67c3.1-1.07,6.19-2.17,9.31-3.16c0.97-0.31,1.94-0.64,2.89-1
		c-3.94,11.38-3.56,22.9-1.78,34.43c-7.06,18.59,2.16,39.57-2.14,58.77C195.55,444.19,194.07,446.84,192.53,449.28z M203.06,410.93
		c-0.67,7.95-1.3,15.46-1.99,19.2c-0.44,2.39-1.6,5.66-3.16,9.13c2.95-18.16-4.81-37.71,1.27-55.2c1.18,7.23,2.86,14.47,4.32,21.67
		C203.35,407.5,203.21,409.24,203.06,410.93z M212.78,351.47c-0.33,2.6-1.36,6.97-2.54,12.04c-1.75,7.47-3.93,16.78-5,25.04
		c-0.58,4.51-1.09,9.77-1.55,14.98c-3.85-18.49-8.67-37.18-2.13-55.48c4.1-1.62,7.84-3.81,10.35-7.67c0.18-0.28,0.34-0.57,0.5-0.87
		C212.73,341.48,213.41,346.54,212.78,351.47z M212.41,337.51c-1.47,6.56-9.11,9.4-14.71,11.21c-5.46,1.72-10.81,3.75-16.27,5.47
		c-10.54,3.33-3.66-13.19-2.17-17.63c1.53-4.6,2.96-9.98,2.06-14.86c-0.43-2.33-1.1-4.34-2.2-6.42c-2.43-4.6,5.63-7.21,8.22-8.61
		c6.14-3.33,13.9-8.45,20.08-2.55c1.34,2.13,2.58,4.33,3.66,6.61c0.7,2.4,1.07,4.94,1.43,7.16
		C213.56,324.33,213.85,331.1,212.41,337.51z M214.3,328.66c-0.07-3.18-0.46-6.3-0.83-8.77c-0.78-5.21-2.06-10.57-4.56-14.27
		c-3.71-7.18-7.82-11.8-12.8-17.25c-5.94-6.5-14.1-2.84-20.25,1.39c4.73-4.78,12.64-6.05,18-10.26c0.96,0.32,1.96,0.52,3.04,0.63
		c0.13,0.02,0.25,0.05,0.39,0.06c0.3,0.04,0.59,0.03,0.87,0c-1.49,1.86-1.64,4.36-1.16,6.38c0.64,2.69,6.37,10.27,16.67,21.2
		c0.28,0.29,0.77,0.34,1.05,0.06c10.68-10.74,15.92-18.78,16.57-21.48c0.48-1.98,0.42-4.35-0.96-6.16c0.3,0.03,0.61,0.03,0.95,0
		c0.14-0.02,0.27-0.04,0.39-0.06c1.08-0.1,2.09-0.31,3.04-0.63c5.37,4.22,13.3,5.48,18.03,10.28c-6.15-4.24-14.32-7.92-20.27-1.41
		c-4.98,5.45-9.08,10.07-12.79,17.25c-2.51,3.7-3.78,9.06-4.56,14.28C214.76,322.37,214.37,325.49,214.3,328.66z M249.41,263.98
		c0.01,0.77,0.01,1.27,0.01,1.43c0,0.08,0.01,0.16,0.03,0.25c-0.62,1.92-1.64,3.65-3.26,4.93c-4,3.17-7.86,7.3-12.84,8.56
		c0.21-0.33,0.35-0.76,0.46-1.33c0.99-5.36,2.5-10.1,4.61-15.15c2.33-5.57,5.22-10.71,7.94-16.07c1.18-2.34,2.2-4.68,3.23-7.02
		C249.21,243.55,249.36,258.77,249.41,263.98z M216.09,317.88c0.36-2.22,0.74-4.76,1.44-7.16c1.08-2.29,2.31-4.48,3.65-6.61
		c6.19-5.9,13.95-0.78,20.08,2.55c2.58,1.4,10.65,4.01,8.22,8.61c-1.1,2.08-1.77,4.09-2.2,6.42c-0.9,4.88,0.52,10.27,2.06,14.86
		c1.48,4.44,8.36,20.96-2.18,17.63c-5.45-1.72-10.81-3.75-16.27-5.47c-5.6-1.81-13.24-4.65-14.71-11.21
		C214.76,331.1,215.05,324.33,216.09,317.88z M223.37,388.55c-1.06-8.27-3.24-17.57-5-25.04c-1.19-5.07-2.21-9.44-2.54-12.04
		c-0.63-4.93,0.05-9.98,0.37-11.96c0.16,0.3,0.32,0.59,0.5,0.87c2.51,3.86,6.25,6.06,10.35,7.67c6.54,18.3,1.72,36.99-2.13,55.48
		C224.45,398.32,223.95,393.05,223.37,388.55z M227.53,430.13c-0.69-3.75-1.32-11.25-1.99-19.2c-0.14-1.69-0.29-3.43-0.44-5.19
		c1.46-7.2,3.14-14.44,4.32-21.67c6.08,17.48-1.68,37.04,1.27,55.19C229.13,435.79,227.97,432.52,227.53,430.13z M231.77,441.54
		c-4.3-19.2,4.92-40.17-2.14-58.76c1.77-11.53,2.16-23.05-1.79-34.43c0.95,0.35,1.92,0.68,2.89,1c3.12,0.99,6.21,2.08,9.31,3.16
		c-0.95,4.43-0.53,9.4-0.25,13.67c0.57,8.6,1.75,17.18,3.35,25.65c1.1,5.79,2.61,11.44,4.4,16.99c1.26,11.65-5.84,21.76-9.7,33.62
		c-0.03,0.08-0.81,3.12-1.78,6.82C234.52,446.83,233.05,444.17,231.77,441.54z M248.18,410.75c2.43,7.26,5.3,14.37,8.3,21.45
		c-5.44,5.8-9.03,15.43-8.94,23.65c-2-5.6-4.67-10.93-8.17-15.93C242.7,431.47,248.26,421.03,248.18,410.75z M241.97,504.05
		c-1.98-5.45-4.34-10.83-6.67-16.14l-0.92-2.1c-0.34-1.38-0.83-2.87-1.31-4.31c-0.94-2.81-1.91-5.72-1.91-8.53
		c0.45-3.99,1.64-8,2.9-12.24c1.6-5.4,3.75-10.75,3.99-16.68c0-0.79,0.58-2.17,1.05-3.41c8.35,12.09,12.07,26.22,12.58,41.2
		c0.24,7.05,0.34,14.11,0.32,21.17C250.32,506.93,244.75,507.85,241.97,504.05z M246.33,544.55c-0.52-1.03-1.01-2.01-1.03-2.95
		c1.9-6.87,2.08-13.57,1.2-20.13c2.28,8.06,2.48,16.48,0.57,24.68C246.86,545.6,246.6,545.07,246.33,544.55z M266.87,543.52
		c0.11,0.17,0.19,0.32,0.26,0.44c1.27,2.3-1.06,8.74-1.06,8.74c0.14-0.26,0.29-0.53,0.45-0.8c0.43-0.75,1.04-1.85,1.5-3.08
		c0.66,1.34,2.22,3.92,5.17,5.59c1.99,1.13,5.01,2.2,8.21,4.29c2.64,1.73,4,1.06,4,1.06l-2.52-1.57c2.06-0.24,3.49,0.48,3.78,0.8
		c0.21,0.22,0.64,0.68,0.64,2.42c0,1.41-2.77,2.01-2.79,2.02l-0.52,0.11l0.09,0.52c0.01,0.05,0.2,1.33-0.87,3.01
		c-0.84,1.3-6.67,3.49-12.07,5.08c-1.32,0.39-3.53,1.91-5.66,3.37c-1.72,1.18-3.49,2.4-4.44,2.76c-2.22,0.83-10.33,1.61-15.43-1.58
		c-5.04-3.15-1.18-17.69-1.14-17.84c0.2-0.74,0.42-1.56,0.65-2.42c0.52-1.94,1.08-4.05,1.66-6c0.12-0.38,0.23-0.76,0.35-1.14
		c0.11-0.36,0.23-0.72,0.34-1.07l0.03-0.17c0-0.02,0-0.03,0-0.05c2.72-10.21,2.06-20.83-1.68-30.75c-0.79-3.91-1.92-7.78-3.26-11.61
		c2.94,2.52,7.4,1.66,9.46-1.38c-0.01,2.85-0.04,5.69-0.09,8.53c-0.05,2.98,0.29,8.68,0.29,8.68c0.18-2.15,0.29-4.34,0.33-6.59
		c0.1-5.54,0.2-11.11,0.2-16.67c2.78,2.81,7.62,2.49,9.87-0.79c-3.02,18.47-6.71,36.89-3.63,55.26c0.42,2.52,2.41,7.79,2.3,7.38
		c-2.77-10.02-3.22-20.07-2.55-30.13c1.48,4.31,3.84,8.2,7.03,11.51C266.19,542.4,266.58,543.05,266.87,543.52z M265.77,504.25
		c-0.68,3.63-1.37,7.38-1.96,11.07l-0.1,0.87c-0.75,6.69-1.52,13.6,0.18,20.03c0.36,1.36,0.73,2.49,1.08,3.42
		c-2.86-3.35-4.91-7.2-6.13-11.47c0.86-10.95,2.95-21.91,4.71-32.9c0.06-0.24,0.12-0.48,0.15-0.74c0.01-0.06,0-0.11-0.01-0.15
		c1.97-12.42,3.46-24.86,2.22-37.32C271.71,472.28,268.82,487.83,265.77,504.25z M264.92,454.65c0.03,0.06,0.05,0.11,0.07,0.17
		c1.7,13.18,0.18,26.35-1.9,39.49c-0.01,0.02-0.02,0.03-0.02,0.06c-0.84,5.53-7.4,6.75-10.35,2.93c-0.01-5.73-0.13-11.46-0.48-17.16
		c-0.47-7.8-1.74-15.29-4.05-22.37l0.01,0c-0.73-8.36,2.85-18.79,8.53-24.98c0.79,1.86,1.59,3.73,2.39,5.59
		C260.9,443.22,263.53,450.48,264.92,454.65z M262.59,429.67c-0.33,2.61-0.55,4.33-0.59,4.89c-0.08,1.38,0.05,2.35,0.19,3.38
		c0.18,1.33,0.38,2.84,0.18,5.68c-0.01,0.17-0.04,0.35-0.06,0.54c-0.3-0.68-0.59-1.36-0.89-2.04c-0.54-1.29-1.1-2.57-1.67-3.81
		c-6.14-13.99-12.27-28.08-15.26-43.02c-1.76-8.8-3.2-17.72-3.87-26.68c-0.37-4.88-1.08-10.8,0.03-15.89
		c1.81,0.63,3.62,1.24,5.45,1.82c2.11,0.67,4.1,1.01,6.2,0.22c1.05-0.4,1.57-1.36,1.74-2.61c6.97,16.74,8.91,34.42,11.45,52.2
		C264.48,414.84,263.28,424.26,262.59,429.67z M260.65,332.64c2.3,9.14,5.17,20.52,6.14,33.62c0.73,9.93,0.02,23.14-1.06,35.29
		c-2.44-17.36-4.58-34.58-11.62-50.9l-0.03-0.03c-0.18-3.81-2.32-8.97-2.85-10.5c-1.79-5.25-4.02-10.99-3.47-16.64
		c0.38-3.93,2.62-6.87,3.26-10.53c2.58,1.64,4.83,3.7,6.73,6.13C258.13,322.62,259.28,327.2,260.65,332.64z M257.65,315.94
		c-0.04,0.61-0.03,1.28,0.01,1.98c-1.88-2.24-4.07-4.15-6.55-5.7c-0.04-1.92-5-3.69-5.91-4.18c-3.49-1.89-6.96-4.11-10.63-5.65
		c-5.88-2.47-9.97-1.69-12.87,0.89c2.7-4.15,5.81-8.05,9-11.88c7.27-8.73,15.45-5.69,23.18-0.03
		C255.16,295.77,258.21,307.31,257.65,315.94z M250.78,268.31c1.81,3.21,4.85,8.57,4.31,12.91c-0.75,6.09-1.7,7.9-1.71,7.92
		l-0.11,0.21l0.04,0.12c-4.69-4.81-12.38-6.09-17.84-10.24c1.08-0.43,2.12-1.01,3.18-1.75c2.91-2.04,6.76-4.53,8.95-7.36
		c0.93-1.2,1.62-2.47,2.13-3.78C249.93,266.81,250.28,267.43,250.78,268.31z M255.14,223.5c-0.73,2.2-1.67,4.65-2.57,7.02
		c-0.7,1.84-1.38,3.62-1.91,5.15c-3.16,6.09-6.14,12.38-9.11,18.52c-2.98,6.18-6.74,13.25-7.93,20.04c-0.41,2.36-1.83,6.81-4.9,4.47
		c-2.09-1.6-2.8-4.47-3.46-6.85c-0.94-3.41-2.01-6.79-2.89-10.22c-2.06-8.07-3.78-16.41-4.34-24.75c0.32-0.21,0.66-0.53,1.03-0.99
		c6.01-7.49,11.78-15.79,16.62-24.07c1.75-2.99,3.09-5.92,3.96-8.91c4.88,1.59,16.27,3.71,20.32-1.06
		C258.2,210.55,256.1,220.62,255.14,223.5z M265.7,228.64c-2.75-4.36-6.22-12.05-7.13-14.78c1.92-8.9,4.19-20.65,4.94-24.58
		c1.41,0.76,2.93,1.36,4.45,1.9c7.79,2.77,13.44,6.67,18.84,12.12l-0.02,0.06l0.08,0.19c0.02,0.06,2.36,5.83,3.6,11.87
		c1,4.85,1.67,14.58,1.9,18.34c-1.16,4.18-2.76,9.18-4.39,12.84c-0.74,1.66-1.44,2.91-2.53,3.53c-0.68-7.51-2.63-14.68-5.72-21.56
		c-1.31-2.92-3.5-9.51-7.38-9.93c-4.03-0.44-0.72,8.28-0.39,9.28c2.55,7.61,4.67,15.09,8.65,22.02c-0.55-0.15-1.11-0.31-1.65-0.5
		c-4.6-1.54-7.05-4.44-8.84-8.05C269.34,237.86,267.83,232.01,265.7,228.64z M294.22,274.91c1.34,2.72,2.42,5.47,3.29,8.25
		c0.8,11.31,1.59,24.62,0.52,36.02c-0.44,4.67-3.88,3.24-4.95,0.33c-0.03-0.09-0.06-0.18-0.09-0.27c-0.01-0.04-0.02-0.07-0.03-0.11
		c-0.04-0.12-0.07-0.25-0.09-0.38c-0.42-2.07-0.68-4.18-1.07-6.26c-0.83-4.4-2.77-9.78-3.98-14.23c-0.38-8.59-2.39-17.24-5.82-25.06
		c3.82-5.62,4.69-11.55,4.84-14.83C288.74,264.06,291.48,269.32,294.22,274.91z M286.07,255.91c0.03,0.34,0.67,8.66-4.46,16.5
		c-1.04-2.27-2.17-4.49-3.45-6.59c3.56-3.92,5.46-8.78,5.51-14.08c0.49,0.11,0.96,0.16,1.4,0.09
		C285.34,253.23,285.69,254.58,286.07,255.91z M281.88,250.3c-0.13-0.04-0.26-0.07-0.39-0.11c-3.39-5.68-5.68-11.85-7.61-18.18
		c-0.63-2.07-1.33-4.11-1.99-6.17c-0.14-0.43-2.34-9,1.39-6.26c0.9,0.65,1.64,1.46,2.22,2.41c5.4,8.38,8.46,18.57,9.31,28.43
		C284.05,250.65,283.11,250.63,281.88,250.3z M271.04,253.87c-0.53-3.36-0.36-9.45-0.36-9.51c-0.01-0.09-0.07-0.42-0.17-0.93
		c1.96,3.18,4.65,5.62,9.17,6.91c1.12,0.32,2.26,0.87,3.33,1.22c0,5.15-1.8,9.85-5.21,13.67c-1.16-1.87-2.88-4.34-4-5.66
		C273.78,259.55,271.55,257.1,271.04,253.87z M279.07,292.56c-2.96-7.83-6.02-15.92-6.21-20.49c-0.28-6.71,0.54-10.26,0.89-11.45
		c11.73,14.99,16.13,37.22,11.53,55.77c-0.02-1.85-0.25-3.91-0.57-6.12C284.12,306.16,281.71,299.54,279.07,292.56z M292.5,366.32
		c-0.68-0.38-1.87-1.38-1.87-3.81c0-0.1-0.01-0.29-0.01-0.44l5.45-5.58C294.76,360.22,293.08,364.78,292.5,366.32z M297.72,351.51
		c-0.13,0.5-0.42,1.42-0.81,2.57l-8.71,8.91c-0.32-0.55-0.78-1.46-1.06-2.51c0.55-0.46,3.9-3.31,7.07-6.63
		c1.61-1.69,3.16-3.97,4.23-5.95C298.23,349.22,297.99,350.42,297.72,351.51z M299.17,317.99c0.38,10.9,0.36,19.6-0.27,26.16
		c-0.35,1.53-2.76,6.09-5.48,8.95c-2.7,2.84-5.55,5.33-6.62,6.24c-0.7-1.04-2.14-3.73-0.46-6.29c0.86-1.31,4.44-4.5,4.66-5.34
		c0.01-0.03,0.18-2.54,0.88-5.14c0.02-0.08,0.02-0.14,0.02-0.21c0.34-1.57,0.35-2.99,0.12-4.2c-0.17-3.55-4.25-6.86-6.09-7.52
		c0.39,0.53,1.31,1.62,2.28,2.92c-0.27-0.01-0.53,0.06-0.77,0.21c-1.59,1.02-1.89,3.27-2.22,5.66c-0.25,1.88-0.51,3.82-1.4,5.22
		c-1.32,2.09-2.7,1.09-2.87-0.62c-0.21-2.09-0.31-4.87-0.29-7.42l0.08-1.43c0.29-5.33,0.92-8.88,3.24-12.56
		c0.45-0.72,0.77-1.55,0.98-2.48c2.02-6.05,2.96-12.6,2.92-19.25c1.05,3.35,2.36,7.06,2.93,10.09c0.56,2.97,0.64,6.33,1.6,9.21
		c0.58,1.73,2.54,4.04,4.85,3.3c2.24-0.72,1.73-12.7,1.77-14.21c0.2-7.44,0-14.85-0.47-22.27c1.16,4.91,1.68,9.93,1.65,15.14
		C299.52,306.9,298.96,312.04,299.17,317.99z M302.87,277.74c0,0.2,0,0.4,0,0.61c0,0.13-0.01,0.26-0.01,0.39
		c0,0.2-0.01,0.39-0.02,0.6c-0.01,0.14-0.01,0.29-0.02,0.44c-0.01,0.27-0.02,0.54-0.04,0.81c-0.26,4.23-0.73,8.14-1.23,12.28
		c-0.21,1.7-0.46,3.42-0.73,5.18c-0.3-7.1-1.61-14.12-4.67-20.63c-4.02-8.56-8.62-16.44-10.44-25.77c0.54-0.26,1.02-0.75,1.41-1.59
		c0.32-0.69,0.65-1.41,0.96-2.15c1.64,6.43,7.83,10.23,11.73,15.47c0.28,0.44,2.81,4.71,3.04,13.1c0,0.08,0,0.17,0,0.25
		c0.01,0.22,0.01,0.44,0.01,0.67C302.87,277.5,302.87,277.62,302.87,277.74z"/>
</g>
</svg>
