<?xml version="1.0" encoding="utf-8"?>
<!-- Generator: Adobe Illustrator 26.0.1, SVG Export Plug-In . SVG Version: 6.00 Build 0)  -->
<svg version="1.1" id="Layer_1" xmlns="http://www.w3.org/2000/svg" xmlns:xlink="http://www.w3.org/1999/xlink" x="0px" y="0px"
	 viewBox="0 0 432 648" style="enable-background:new 0 0 432 648;" xml:space="preserve">
<style type="text/css">
	.st0{display:none;opacity:0.5;fill:none;stroke:#231F20;stroke-width:0.05;stroke-miterlimit:10;}
	.st1{fill:#FFFFFF;}
	.st2{fill:#E92A2A;}
	.st3{fill:#D52626;}
	.st4{fill:#9A1A1C;}
	.st5{fill:#8D1819;}
</style>
<path class="st0" d="M418.44,444.92c-2.94,1.51-8.31,5.17-9.04,17.27"/>
<g>
	<g id="White_00000091017672993374162770000015677742053904584874_">
		<path class="st1" d="M298.13,262.91v-8.7c0-8.49-6.35-17.73-7.24-18.99c-0.09-1.62-0.79-13.98-1.99-19.81
			c-1.13-5.5-3.15-10.78-3.57-11.84c0.32-0.94,1.69-5.11,2.49-10.21c0.92-5.86-3.07-20.25-5.46-26.32c-1.59-4.03-4.9-5.55-7.56-6.78
			c-1.44-0.66-2.68-1.23-3.38-2.05c-1.79-2.09-3.58-2.67-5.16-3.17c-0.41-0.13-0.82-0.26-1.2-0.42c-0.6-0.24-1.14-0.73-1.95-1.47
			c-1.38-1.25-3.46-3.15-7.92-5.73c-2.58-1.5-6.4-3.25-10.45-5.1c-6.06-2.78-12.93-5.92-14.54-7.91c-0.65-0.81-1.6-3.52-2.46-6.35
			c0.49-0.97,1.84-3.64,1.96-4.05c0.52-1.81,0.58-4.28,0.56-5.77c0.3,0.14,0.67,0.22,1.11,0.16c1.49-0.18,2.88-2.5,4.55-5.51
			c0.47-0.84,0.91-1.64,1.25-2.13c1.44-2.06,1.13-6.53,0.07-9.88c-0.31-0.98-0.83-1.54-1.56-1.67c-0.99-0.18-2.08,0.57-2.86,1.29
			c0.15-4.17,0.09-15.9-4.72-21.68c-4.15-4.98-12.44-6.21-15.58-6.51l0-0.09c-0.06,0-0.27,0.01-0.62,0.04
			c-0.34-0.02-0.56-0.03-0.62-0.04l0,0.09c-3.14,0.3-11.44,1.53-15.58,6.51c-4.82,5.78-4.87,17.51-4.72,21.68
			c-0.78-0.72-1.87-1.47-2.86-1.29c-0.72,0.13-1.25,0.7-1.56,1.67c-1.06,3.35-1.37,7.81,0.07,9.88c0.34,0.48,0.78,1.28,1.25,2.13
			c1.67,3.01,3.06,5.33,4.55,5.51c0.44,0.05,0.81-0.03,1.11-0.16c-0.02,1.5,0.04,3.97,0.56,5.77c0.12,0.41,1.44,3.04,1.95,4.03
			c-0.87,2.84-1.81,5.57-2.47,6.38c-1.61,1.98-8.48,5.13-14.54,7.91c-4.05,1.85-7.87,3.61-10.45,5.1c-4.46,2.59-6.54,4.48-7.92,5.73
			c-0.81,0.74-1.35,1.23-1.95,1.47c-0.38,0.15-0.79,0.28-1.2,0.42c-1.58,0.5-3.36,1.08-5.16,3.17c-0.7,0.82-1.94,1.39-3.38,2.05
			c-2.66,1.23-5.97,2.75-7.56,6.78c-2.39,6.07-6.37,20.46-5.46,26.32c0.8,5.1,2.17,9.27,2.49,10.21c-0.42,1.06-2.44,6.33-3.57,11.84
			c-1.2,5.83-1.9,18.19-1.99,19.81c-0.89,1.26-7.24,10.51-7.24,18.99v8.7c-0.6,0.98-3.74,6.65-3.07,17.73
			c0.26,4.25,0.73,8.16,1.24,12.3c0.9,7.38,2.72,15.01,2.37,24.89c-0.53,15.06-0.4,27.95,1.47,33.68
			c0.81,2.47,5.17,14.86,5.37,15.38c0,0,0.17,0.57,0.72,0.4c0.03-0.01,2.79-0.79,3.08-4.41l1.14,1.17c0.2,0.21,0.54,0.18,0.71-0.05
			l0.05-0.07c0.09-0.12,1.37-1.95,1.76-4.23c0.81-1.24,2.46-4.43,0.47-7.46c-0.82-1.26-3.79-4.3-4.49-5.01
			c-0.05-0.63-0.25-2.58-0.78-4.71c-0.46-2.59-0.19-4.52,0.39-5.84c0.16-0.32,0.34-0.63,0.53-0.95c0.45-0.63,0.98-1.03,1.48-1.22
			c0.13-0.05,0.2-0.03,0.28,0.02c1.16,0.75,1.43,2.75,1.72,4.87c0.27,1.99,0.62,3.99,1.56,5.64c1.15,2.02,4.43,2.79,4.86-1.08
			c0.3-2.75,0.3-6.13,0.29-7.56l-0.08-1.45c-0.3-5.52-0.51-8.32-3.47-13.14c-1.3-2.11-1.32-3.28-0.5-11.49
			c0.4-3.99,2.96-10.5,5.57-17.41c2.98-7.88,6.06-16.04,6.26-20.77c0.3-7.33-0.66-10.97-1.01-12.02c0.62-0.74,2.34-3.03,2.81-6
			c0.54-3.45,0.38-9.43,0.36-9.58c0.02-0.1,1.82-10.44,4.81-15.17c2.2-3.49,5.17-9.71,6.62-13.4c0.81,3.67,1.52,6.64,1.99,8.04
			c0.74,2.21,1.67,4.66,2.58,7.04c1.29,3.39,2.51,6.59,2.83,8.26c0.31,1.64,0.39,9.95,0.24,24.71c-0.01,0.77-0.01,1.28-0.01,1.43
			c-0.03,0.28-0.65,1.39-1.21,2.36c-1.87,3.31-5.01,8.86-4.43,13.54c0.65,5.22,1.44,7.41,1.73,8.06
			c-0.59,1.88-4.96,16.18-4.29,26.49c0.23,3.6-1.18,9.21-2.97,16.31c-2.31,9.16-5.18,20.55-6.15,33.7
			c-1.44,19.46,2.66,51.41,4.2,63.44c0.33,2.58,0.55,4.28,0.58,4.79c0.08,1.27-0.04,2.15-0.18,3.16c-0.19,1.38-0.39,2.95-0.18,5.89
			c0.05,0.67,0.2,1.46,0.45,2.34c-1.08,2.81-2.07,5.6-2.94,8.19c-7.2,16.2-4,33.41-0.9,50.05c0.67,3.61,1.37,7.34,1.94,10.99
			l0.09,0.84c0.73,6.57,1.49,13.36-0.15,19.57c-0.83,3.14-1.7,4.98-2.34,6.13c0,0-0.01,0.01-0.01,0.01
			c-0.06,0.05-0.08,0.11-0.09,0.17c-0.15,0.26-0.29,0.49-0.4,0.68c-0.11,0.19-0.21,0.35-0.29,0.48c-0.65,1.18-0.66,2.54-0.38,3.85
			c-0.19,0.51-1.62,4.1-5.24,6.15c-3.41,1.93-6.45,3.21-7.54,3.76c-2.55-0.41-5.54,0.37-6.15,1.02c-0.46,0.49-0.93,1.25-0.93,3.15
			c0,1.84,2.21,2.68,3.2,2.96c0,0.65,0.16,1.87,1.06,3.27c1.29,2,9.27,4.52,12.64,5.52c1.15,0.34,3.38,1.87,5.34,3.22
			c1.85,1.27,3.59,2.47,4.66,2.87c1.09,0.41,3.4,0.8,6.1,0.8c3.31,0,7.23-0.59,10.24-2.48c5.7-3.56,1.78-18.36,1.61-18.99
			c-0.2-0.74-0.42-1.55-0.65-2.41c-0.71-2.67-1.52-5.7-2.33-8.16c0.03-0.93,0.51-1.9,1.03-2.93c0.56-1.12,1.14-2.28,1.14-3.5
			l-0.02-0.14c-5.15-18.56,2.5-36,9.91-52.87l0.95-2.18c0.36-1.43,0.84-2.89,1.31-4.3c0.96-2.89,1.96-5.87,1.95-8.91
			c-0.46-4.13-1.66-8.17-2.93-12.45c-0.75-2.54-1.77-6.28-2.67-9.69c4.41-6.71,8.28-15.24,9.21-20.32c0.7-3.79,1.3-10.95,2-19.25
			c0.62-7.33,1.32-15.64,2.17-22.27c1.05-8.19,3.22-17.43,4.96-24.86c1.19-5.08,2.22-9.47,2.56-12.11
			c0.74-5.85-0.34-12.73-0.59-14.15c0.68-2.1,0.97-4.49,1.03-6.92c0.06,2.43,0.35,4.82,1.03,6.92c-0.25,1.43-1.33,8.3-0.59,14.15
			c0.34,2.65,1.37,7.03,2.56,12.11c1.74,7.43,3.91,16.67,4.96,24.86c0.85,6.63,1.55,14.94,2.17,22.27c0.7,8.3,1.3,15.46,2,19.25
			c0.93,5.07,4.79,13.59,9.19,20.29c-0.94,3.55-1.98,7.41-2.66,9.72c-1.27,4.28-2.47,8.32-2.93,12.45c0,3.04,0.99,6.02,1.95,8.91
			c0.47,1.41,0.96,2.87,1.31,4.3l0.95,2.18c7.4,16.87,15.06,34.31,9.91,52.87l-0.02,0.14c0,1.21,0.58,2.38,1.14,3.5
			c0.51,1.03,1,2,1.03,2.93c-0.82,2.46-1.62,5.49-2.33,8.16c-0.23,0.86-0.45,1.67-0.65,2.41c-0.17,0.63-4.09,15.43,1.61,18.99
			c3.02,1.89,6.93,2.48,10.24,2.48c2.7,0,5.01-0.4,6.1-0.8c1.07-0.4,2.81-1.6,4.66-2.87c1.96-1.35,4.19-2.88,5.34-3.22
			c3.37-0.99,11.36-3.52,12.64-5.52c0.9-1.4,1.06-2.61,1.06-3.27c0.99-0.28,3.2-1.12,3.2-2.96c0-1.9-0.47-2.66-0.93-3.15
			c-0.61-0.65-3.59-1.43-6.15-1.02c-1.09-0.55-4.13-1.83-7.54-3.76c-3.63-2.05-5.05-5.64-5.24-6.15c0.28-1.31,0.27-2.66-0.38-3.85
			c-0.08-0.14-0.17-0.3-0.29-0.48c-0.12-0.19-0.25-0.41-0.4-0.68c-0.01-0.06-0.03-0.12-0.09-0.17c0,0-0.01-0.01-0.01-0.01
			c-0.64-1.15-1.51-2.98-2.34-6.13c-1.64-6.21-0.88-13.01-0.15-19.57l0.09-0.84c0.58-3.65,1.27-7.38,1.94-10.99
			c3.1-16.64,6.3-33.85-0.9-50.05c-0.86-2.59-1.85-5.37-2.93-8.17c0.25-0.89,0.41-1.69,0.46-2.36c0.21-2.94,0-4.51-0.18-5.89
			c-0.14-1.02-0.25-1.89-0.18-3.16c0.03-0.52,0.25-2.22,0.58-4.79c1.54-12.03,5.63-43.99,4.2-63.44
			c-0.97-13.15-3.84-24.55-6.15-33.7c-1.79-7.1-3.2-12.71-2.97-16.31c0.67-10.31-3.7-24.6-4.29-26.49c0.29-0.66,1.08-2.84,1.73-8.06
			c0.58-4.68-2.55-10.23-4.43-13.54c-0.55-0.98-1.18-2.08-1.2-2.36c0-0.15,0-0.66-0.01-1.43c-0.14-14.76-0.06-23.07,0.24-24.71
			c0.31-1.67,1.53-4.87,2.83-8.26c0.91-2.37,1.84-4.83,2.58-7.04c0.46-1.39,1.17-4.35,1.98-8.01c1.46,3.69,4.42,9.88,6.61,13.37
			c2.98,4.74,4.79,15.07,4.81,15.17c-0.01,0.15-0.18,6.13,0.36,9.58c0.47,2.96,2.19,5.25,2.81,6c-0.35,1.05-1.31,4.69-1.01,12.02
			c0.2,4.73,3.28,12.88,6.26,20.77c2.61,6.9,5.17,13.41,5.57,17.41c0.82,8.21,0.8,9.38-0.5,11.49c-2.96,4.82-3.17,7.63-3.47,13.14
			l-0.08,1.45c-0.01,1.43-0.02,4.81,0.29,7.56c0.43,3.87,3.71,3.1,4.86,1.08c0.93-1.64,1.29-3.65,1.56-5.64
			c0.29-2.12,0.56-4.12,1.72-4.87c0.08-0.05,0.15-0.07,0.28-0.02c0.5,0.19,1.03,0.59,1.48,1.22c0.19,0.32,0.37,0.64,0.53,0.95
			c0.58,1.33,0.85,3.25,0.39,5.84c-0.54,2.13-0.73,4.08-0.78,4.71c-0.69,0.7-3.66,3.75-4.49,5.01c-1.99,3.03-0.34,6.22,0.47,7.46
			c0.39,2.28,1.67,4.11,1.76,4.23l0.05,0.07c0.17,0.23,0.51,0.26,0.71,0.05l1.14-1.17c0.29,3.62,3.06,4.4,3.08,4.41
			c0.55,0.17,0.72-0.4,0.72-0.4c0.2-0.53,4.57-12.91,5.37-15.38c1.87-5.73,2-18.62,1.47-33.68c-0.35-9.88,1.47-17.51,2.37-24.89
			c0.5-4.14,0.98-8.06,1.24-12.3C301.88,269.57,298.74,263.89,298.13,262.91z"/>
	</g>
	<g id="Upper_obliques_00000121987677205635157240000003714100999877184677_">
		<g>
			<polygon class="st2" points="247.55,265.28 245.85,268.69 241.71,272.92 234.59,278.11 230.59,279.83 230.46,278.94 
				232.69,269.92 236.12,260.77 241.07,251.05 247.68,237.71 247.36,247.81 			"/>
			<path class="st3" d="M234.54,277.8C234.54,277.79,234.54,277.79,234.54,277.8c0.41-0.23,0.81-0.47,1.21-0.73
				c-0.14-0.24-0.25-0.48-0.35-0.74c0.36-0.62,0.72-1.23,1.08-1.85c4.49-7.62,9.1-15.46,10.34-24.28c0,1.19,0,2.41,0,3.61
				c-1.82,7.52-5.84,14.36-9.76,21.03c-0.44,0.74-0.87,1.49-1.31,2.23C235.34,277.33,234.94,277.57,234.54,277.8"/>
			<path class="st4" d="M230.89,279.28c0.02-0.03,0.04-0.07,0.06-0.11c0.17-0.31,0.3-0.71,0.39-1.22c0.99-5.34,2.49-10.07,4.6-15.1
				c2.31-5.56,5.2-10.68,7.91-16.02c0.03-0.05,0.05-0.11,0.08-0.16c0.03-0.06,0.06-0.11,0.08-0.17l0.06-0.06
				c-0.14,7.14-2.2,14.23-5.9,20.33c-1.14,1.89-2.47,3.73-2.98,5.87c-0.29,1.2-0.23,2.54,0.2,3.69c-0.29,0.49-0.57,0.98-0.85,1.47
				C233.38,278.44,232.17,278.95,230.89,279.28"/>
			<path class="st5" d="M234.54,277.79c0.28-0.49,0.57-0.98,0.85-1.47c0.1,0.26,0.21,0.51,0.35,0.74
				C235.35,277.32,234.95,277.56,234.54,277.79"/>
		</g>
		<g>
			<polygon class="st2" points="176.23,265.28 177.94,268.69 182.07,272.92 189.19,278.11 193.19,279.83 193.32,278.94 
				191.1,269.92 187.67,260.77 182.71,251.05 176.11,237.71 176.42,247.81 			"/>
			<path class="st3" d="M189.25,277.8C189.25,277.79,189.25,277.79,189.25,277.8c-0.41-0.23-0.81-0.47-1.21-0.73
				c0.14-0.24,0.25-0.48,0.35-0.74c-0.36-0.62-0.72-1.23-1.08-1.85c-4.49-7.62-9.1-15.46-10.34-24.28c0,1.19,0,2.41,0,3.61
				c1.82,7.52,5.84,14.36,9.76,21.03c0.44,0.74,0.87,1.49,1.31,2.23C188.44,277.33,188.84,277.57,189.25,277.8"/>
			<path class="st4" d="M192.9,279.28c-0.02-0.03-0.04-0.07-0.06-0.11c-0.17-0.31-0.3-0.71-0.39-1.22
				c-0.99-5.34-2.49-10.07-4.6-15.1c-2.31-5.56-5.2-10.68-7.91-16.02c-0.03-0.05-0.05-0.11-0.08-0.16
				c-0.03-0.06-0.06-0.11-0.08-0.17l-0.06-0.06c0.14,7.14,2.2,14.23,5.9,20.33c1.14,1.89,2.47,3.73,2.98,5.87
				c0.29,1.2,0.23,2.54-0.2,3.69c0.29,0.49,0.57,0.98,0.85,1.47C190.4,278.44,191.61,278.95,192.9,279.28"/>
			<path class="st5" d="M189.25,277.79c-0.28-0.49-0.57-0.98-0.85-1.47c-0.1,0.26-0.21,0.51-0.35,0.74
				C188.44,277.32,188.84,277.56,189.25,277.79"/>
		</g>
	</g>
	<path d="M298.13,262.91v-8.7c0-8.49-6.35-17.73-7.24-18.99c-0.09-1.62-0.79-13.98-1.99-19.81c-1.13-5.5-3.15-10.78-3.57-11.84
		c0.32-0.94,1.69-5.11,2.49-10.21c0.92-5.86-3.07-20.25-5.46-26.32c-1.59-4.03-4.9-5.55-7.56-6.78c-1.44-0.66-2.68-1.23-3.38-2.05
		c-1.79-2.09-3.58-2.67-5.16-3.17c-0.41-0.13-0.82-0.26-1.2-0.41c-0.6-0.24-1.14-0.73-1.95-1.47c-1.38-1.25-3.46-3.15-7.92-5.73
		c-2.58-1.49-6.4-3.25-10.45-5.1c-6.06-2.78-12.93-5.92-14.53-7.91c-0.65-0.81-1.6-3.52-2.46-6.35c0.49-0.97,1.84-3.64,1.96-4.05
		c0.52-1.81,0.58-4.28,0.56-5.77c0.3,0.14,0.67,0.22,1.11,0.16c1.49-0.18,2.88-2.5,4.55-5.51c0.47-0.84,0.91-1.64,1.25-2.13
		c1.44-2.06,1.13-6.53,0.07-9.88c-0.31-0.98-0.83-1.54-1.56-1.67c-0.99-0.18-2.08,0.57-2.86,1.29c0.15-4.17,0.09-15.9-4.72-21.68
		c-4.15-4.98-12.44-6.21-15.58-6.51h-1.24c-3.14,0.3-11.44,1.53-15.58,6.51c-4.82,5.78-4.87,17.51-4.72,21.68
		c-0.78-0.72-1.87-1.47-2.86-1.29c-0.72,0.13-1.25,0.7-1.56,1.67c-1.06,3.35-1.37,7.81,0.07,9.88c0.34,0.48,0.78,1.28,1.25,2.13
		c1.67,3.01,3.06,5.33,4.55,5.51c0.44,0.05,0.81-0.02,1.11-0.16c-0.02,1.5,0.04,3.97,0.56,5.77c0.12,0.41,1.44,3.04,1.95,4.03
		c-0.87,2.84-1.81,5.57-2.47,6.38c-1.61,1.98-8.47,5.13-14.54,7.91c-4.05,1.85-7.87,3.61-10.45,5.1c-4.46,2.59-6.54,4.48-7.92,5.73
		c-0.81,0.74-1.35,1.23-1.95,1.47c-0.38,0.15-0.79,0.28-1.2,0.41c-1.58,0.5-3.36,1.08-5.16,3.17c-0.7,0.82-1.94,1.39-3.38,2.05
		c-2.66,1.23-5.97,2.75-7.56,6.78c-2.39,6.07-6.37,20.46-5.46,26.32c0.8,5.1,2.17,9.27,2.49,10.21c-0.42,1.06-2.44,6.33-3.57,11.84
		c-1.2,5.83-1.9,18.19-1.99,19.81c-0.89,1.26-7.24,10.51-7.24,18.99v8.7c-0.6,0.98-3.74,6.65-3.07,17.73
		c0.26,4.25,0.73,8.16,1.24,12.3c0.9,7.38,2.72,15.01,2.37,24.89c-0.53,15.06-0.4,27.95,1.47,33.68c0.81,2.47,5.17,14.86,5.37,15.38
		c0,0,0.17,0.57,0.72,0.4c0.03-0.01,2.79-0.79,3.08-4.41l1.14,1.17c0.2,0.21,0.54,0.18,0.71-0.05l0.05-0.07
		c0.09-0.12,1.37-1.95,1.76-4.23c0.81-1.24,2.46-4.43,0.47-7.46c-0.82-1.26-3.79-4.3-4.49-5c-0.05-0.63-0.25-2.58-0.78-4.71
		c-0.46-2.59-0.19-4.52,0.39-5.84c0.16-0.32,0.34-0.63,0.53-0.95c0.45-0.63,0.98-1.03,1.48-1.22c0.13-0.05,0.2-0.03,0.28,0.02
		c1.16,0.75,1.43,2.75,1.72,4.87c0.27,1.99,0.62,3.99,1.56,5.64c1.15,2.02,4.43,2.79,4.86-1.08c0.3-2.75,0.3-6.13,0.29-7.56
		l-0.08-1.45c-0.3-5.52-0.51-8.32-3.47-13.14c-1.3-2.11-1.32-3.28-0.5-11.49c0.4-3.99,2.96-10.5,5.57-17.41
		c2.98-7.88,6.06-16.04,6.26-20.77c0.3-7.33-0.66-10.97-1.01-12.02c0.62-0.74,2.34-3.03,2.81-6c0.54-3.45,0.38-9.43,0.36-9.58
		c0.02-0.1,1.83-10.44,4.81-15.17c2.2-3.49,5.17-9.71,6.62-13.4c0.81,3.67,1.52,6.64,1.99,8.04c0.74,2.21,1.67,4.66,2.58,7.04
		c1.29,3.39,2.51,6.59,2.83,8.26c0.31,1.64,0.39,9.95,0.24,24.71c-0.01,0.77-0.01,1.28-0.01,1.43c-0.03,0.28-0.65,1.39-1.2,2.36
		c-1.87,3.31-5.01,8.86-4.43,13.54c0.65,5.22,1.44,7.41,1.73,8.06c-0.59,1.88-4.96,16.18-4.29,26.49c0.23,3.6-1.18,9.21-2.97,16.31
		c-2.31,9.16-5.18,20.55-6.15,33.7c-1.44,19.46,2.66,51.41,4.2,63.44c0.33,2.58,0.55,4.28,0.58,4.79c0.07,1.27-0.04,2.15-0.18,3.16
		c-0.19,1.38-0.39,2.95-0.18,5.89c0.05,0.67,0.2,1.46,0.45,2.34c-1.08,2.81-2.07,5.6-2.94,8.19c-7.2,16.2-4,33.41-0.9,50.05
		c0.67,3.61,1.37,7.34,1.94,10.99l0.09,0.84c0.73,6.57,1.49,13.36-0.15,19.57c-0.83,3.14-1.7,4.98-2.34,6.13
		c0,0-0.01,0.01-0.01,0.01c-0.06,0.05-0.08,0.11-0.09,0.17c-0.15,0.26-0.29,0.49-0.4,0.68c-0.11,0.19-0.21,0.35-0.29,0.48
		c-0.65,1.18-0.66,2.54-0.38,3.85c-0.19,0.51-1.62,4.1-5.24,6.15c-3.41,1.93-6.45,3.21-7.54,3.76c-2.55-0.41-5.54,0.37-6.15,1.02
		c-0.46,0.49-0.93,1.25-0.93,3.15c0,1.84,2.21,2.68,3.2,2.96c0,0.65,0.16,1.87,1.06,3.27c1.29,2,9.27,4.52,12.64,5.52
		c1.15,0.34,3.38,1.87,5.34,3.22c1.85,1.27,3.59,2.47,4.66,2.87c1.09,0.41,3.4,0.8,6.1,0.8c3.31,0,7.23-0.59,10.24-2.48
		c5.7-3.56,1.78-18.36,1.61-18.99c-0.2-0.74-0.42-1.55-0.65-2.41c-0.71-2.67-1.52-5.7-2.33-8.16c0.03-0.93,0.51-1.9,1.03-2.93
		c0.56-1.12,1.14-2.28,1.14-3.5l-0.02-0.14c-5.16-18.56,2.5-36,9.91-52.87l0.95-2.18c0.36-1.43,0.84-2.89,1.31-4.3
		c0.96-2.89,1.96-5.87,1.95-8.91c-0.46-4.13-1.66-8.17-2.93-12.45c-0.75-2.54-1.77-6.28-2.67-9.69c4.41-6.71,8.28-15.24,9.21-20.32
		c0.7-3.79,1.3-10.95,2-19.25c0.62-7.33,1.32-15.64,2.17-22.27c1.05-8.19,3.22-17.43,4.96-24.86c1.19-5.08,2.22-9.47,2.56-12.11
		c0.74-5.85-0.34-12.73-0.59-14.15c0.68-2.1,0.97-4.49,1.03-6.92c0.06,2.43,0.35,4.82,1.03,6.92c-0.25,1.43-1.33,8.3-0.59,14.15
		c0.34,2.65,1.37,7.03,2.56,12.11c1.74,7.43,3.91,16.67,4.96,24.86c0.85,6.63,1.55,14.94,2.17,22.27c0.7,8.3,1.3,15.46,2,19.25
		c0.93,5.07,4.79,13.59,9.19,20.29c-0.94,3.55-1.98,7.41-2.66,9.72c-1.27,4.28-2.47,8.32-2.93,12.45c0,3.04,0.99,6.02,1.95,8.91
		c0.47,1.41,0.96,2.87,1.31,4.3l0.95,2.18c7.4,16.87,15.06,34.31,9.91,52.87l-0.02,0.14c0,1.21,0.58,2.38,1.14,3.5
		c0.51,1.03,1,2,1.03,2.93c-0.82,2.46-1.62,5.49-2.33,8.16c-0.23,0.86-0.45,1.67-0.65,2.41c-0.17,0.63-4.09,15.43,1.61,18.99
		c3.02,1.89,6.93,2.48,10.24,2.48c2.7,0,5.01-0.4,6.1-0.8c1.07-0.4,2.81-1.6,4.66-2.87c1.96-1.35,4.19-2.88,5.34-3.22
		c3.37-0.99,11.36-3.52,12.64-5.52c0.9-1.4,1.05-2.61,1.06-3.27c0.99-0.28,3.2-1.12,3.2-2.96c0-1.9-0.47-2.66-0.93-3.15
		c-0.61-0.65-3.59-1.43-6.15-1.02c-1.09-0.55-4.14-1.83-7.54-3.76c-3.63-2.05-5.05-5.64-5.24-6.15c0.28-1.31,0.27-2.66-0.38-3.85
		c-0.07-0.14-0.17-0.3-0.29-0.48c-0.12-0.19-0.25-0.41-0.4-0.68c-0.01-0.06-0.03-0.12-0.09-0.17c0,0-0.01-0.01-0.01-0.01
		c-0.64-1.15-1.51-2.98-2.34-6.13c-1.64-6.21-0.88-13.01-0.15-19.57l0.09-0.84c0.58-3.65,1.27-7.38,1.94-10.99
		c3.1-16.64,6.3-33.85-0.9-50.05c-0.86-2.59-1.85-5.37-2.93-8.17c0.25-0.89,0.41-1.69,0.45-2.36c0.21-2.94,0-4.51-0.18-5.89
		c-0.14-1.02-0.25-1.89-0.18-3.16c0.03-0.52,0.25-2.22,0.58-4.79c1.54-12.03,5.63-43.99,4.2-63.44c-0.97-13.15-3.84-24.55-6.15-33.7
		c-1.79-7.1-3.2-12.71-2.97-16.31c0.67-10.31-3.7-24.6-4.29-26.49c0.29-0.66,1.08-2.84,1.73-8.06c0.58-4.68-2.55-10.23-4.43-13.54
		c-0.55-0.98-1.18-2.08-1.2-2.36c0-0.15,0-0.66-0.01-1.43c-0.14-14.76-0.06-23.07,0.24-24.71c0.31-1.67,1.53-4.87,2.83-8.26
		c0.91-2.37,1.84-4.83,2.58-7.04c0.46-1.39,1.17-4.35,1.98-8.01c1.46,3.69,4.42,9.88,6.61,13.37c2.98,4.74,4.79,15.07,4.81,15.17
		c-0.01,0.15-0.18,6.13,0.36,9.58c0.47,2.96,2.19,5.25,2.81,6c-0.35,1.05-1.31,4.69-1.01,12.02c0.2,4.73,3.28,12.88,6.26,20.77
		c2.61,6.9,5.17,13.41,5.57,17.41c0.82,8.21,0.8,9.38-0.5,11.49c-2.96,4.82-3.17,7.63-3.47,13.14l-0.08,1.45
		c-0.01,1.43-0.02,4.81,0.29,7.56c0.43,3.87,3.71,3.1,4.86,1.08c0.93-1.64,1.29-3.65,1.56-5.64c0.29-2.12,0.56-4.12,1.72-4.87
		c0.08-0.05,0.15-0.07,0.28-0.02c0.5,0.19,1.03,0.59,1.48,1.22c0.19,0.32,0.37,0.64,0.53,0.95c0.58,1.33,0.85,3.25,0.39,5.84
		c-0.54,2.13-0.73,4.08-0.78,4.71c-0.69,0.7-3.66,3.75-4.49,5c-1.99,3.03-0.34,6.22,0.47,7.46c0.39,2.28,1.67,4.11,1.76,4.23
		l0.05,0.07c0.17,0.23,0.51,0.26,0.71,0.05l1.14-1.17c0.29,3.62,3.06,4.4,3.08,4.41c0.55,0.17,0.72-0.4,0.72-0.4
		c0.2-0.53,4.57-12.91,5.37-15.38c1.87-5.73,2-18.62,1.47-33.68c-0.35-9.88,1.47-17.51,2.37-24.89c0.5-4.14,0.98-8.06,1.24-12.3
		C301.88,269.57,298.74,263.89,298.13,262.91z M289.92,235.73c0.05,0.07,3.24,4.5,5.33,10c0.07,0.19,0.14,0.38,0.21,0.57
		c0.03,0.09,0.07,0.19,0.1,0.28c0.07,0.19,0.13,0.37,0.19,0.56c0.77,2.3,1.29,4.74,1.29,7.08v8.12
		c-4.11-4.97-10.01-8.81-11.16-15.32c1.49-3.58,2.89-7.59,4-11.32L289.92,235.73z M271.94,160.02c0.72,0.45,1.55,0.83,2.41,1.23
		c2.61,1.2,5.58,2.57,7,6.19c2.35,5.97,6.28,20.08,5.39,25.76c-0.68,4.35-1.78,8.01-2.27,9.5c-2.34-2.55-4.83-4.98-7.71-6.82
		c-4.69-2.99-10.02-4-14.89-6.51c-7.79-4.03-8.85-16.44-2.23-22.78C263.45,162.95,267.29,160.69,271.94,160.02z M213.49,198.03
		c-0.34-8.87-2.07-18.48,0.16-27.21c1.83-7.17,6.25-12.46,12.5-15.92c3.66,2,7.77,3.32,12.05,3.98c3.77,0.58,12.23,1.87,18.81,0.74
		c0.83,5.66-6.82,6.04-10.03,6.23c-1.09,0.07-2.14,0.11-3.23,0.28c-2.28,0.36-5.37,0.58-7.34,1.95c-3.66,2.55-2.83,7.04-1.96,10.97
		c2.12,9.57,5.37,18.44,0.68,27.92c-3.39,6.86-8,13.08-12.31,19.38c-1.38,2.01-2.86,3.93-4.27,5.92c-1.02,1.44-5,4.44-4.97,1.42
		c0.04-3.85-0.22-7.7-0.27-11.55C213.19,214.11,213.8,206.05,213.49,198.03z M255.21,183.13c0.15,0.47,0.33,0.9,0.53,1.32
		c-4.04,4.91-9.42,8.13-15.42,10.15c-0.7-1.09-1.42-2.16-2.19-3.21c-0.04-0.05-0.08-0.08-0.13-0.1c-0.16-1.11-0.38-2.23-0.67-3.38
		c-1.41-5.55-6.65-18.03,1.74-20.16c1.09-0.28,2.19-0.45,3.28-0.58c4.54,2.03,8.54,4.87,11.98,8.48c0.01,0.01,0.02,0.01,0.03,0.02
		C254.14,178,254.39,180.51,255.21,183.13z M238.16,192.58c2.53,3.61,4.7,7.43,6.49,11.49c-2.87-0.35-5.56-1.01-7.32-1.58
		C238.18,199.29,238.49,196.03,238.16,192.58z M240.67,195.16c5.96-2.04,11.34-5.24,15.39-10.09c0.95,1.66,2.33,2.91,3.92,3.91
		c-0.35,1.82-1.18,6.12-2.18,11.13c-1.57,4-7.18,4.58-12.41,4.04C244.04,201.02,242.46,198.03,240.67,195.16z M264.7,155.64
		c0.4,0.16,0.81,0.29,1.23,0.43c1.51,0.48,3.07,0.98,4.67,2.84c0.17,0.19,0.36,0.37,0.56,0.54c-8.53,1.36-15.51,7.27-16.69,15.4
		c-3.16-3.24-6.79-5.86-10.86-7.81c2.78-0.25,5.56-0.29,8.28-0.89c3.7-0.81,6.25-3.25,5.78-6.66
		C260.72,158.88,263.29,157.71,264.7,155.64z M244.29,143.31c4.02,1.84,7.82,3.58,10.36,5.05c4.36,2.53,6.39,4.37,7.74,5.6
		c0.65,0.59,1.17,1.06,1.72,1.39c-5.44,7.92-29.37,2.58-34.87,0.35c-5.88-2.38-8.4-5.37-12.01-10.37
		c-3.55-4.91-3.95-9.27-4.07-15.14c-0.07-3.34-0.24-6.72-0.14-10.06c0-1,0.08-1.99,0.24-2.97c0.11-1.14,1.3-2.14,2.46-1.7
		c1.26,0.49,2.22,1.72,2.79,2.88c0.54,1.07,1.03,2.17,1.55,3.25c2.38,4.9,5.11,10.08,9.37,13.57
		C231.27,137.34,237.88,140.37,244.29,143.31z M198.2,120.28c0,0-0.75,2.97-1.7,6.21c-0.46-0.9-1.28-2.52-1.36-2.78
		c-0.73-2.53-0.47-6.67-0.47-6.72l0.16-2.56l-1.19,2.28c-0.01,0.03-0.38,0.69-1.08,0.61c-1.06-0.13-2.73-3.15-3.74-4.96
		c-0.5-0.91-0.94-1.69-1.31-2.22c-1.08-1.54-1.05-5.38,0.07-8.93c0.18-0.56,0.42-0.88,0.72-0.93c0.77-0.14,2.13,1.09,2.86,2.01
		l1.1,1.38l-0.13-1.76c-0.01-0.16-1.12-15.78,4.4-22.39c4.09-4.91,12.9-5.96,15.37-6.16c2.46,0.2,11.28,1.26,15.37,6.16
		c5.51,6.61,4.41,22.24,4.4,22.39l-0.13,1.76l1.1-1.38c0.73-0.92,2.09-2.15,2.86-2.01c0.3,0.06,0.54,0.37,0.72,0.93
		c1.12,3.55,1.15,7.39,0.07,8.93c-0.37,0.53-0.81,1.32-1.31,2.22c-1,1.81-2.68,4.83-3.74,4.96c-0.69,0.08-1.06-0.58-1.08-0.61
		l-1.19-2.28l0.16,2.56c0,0.04,0.26,4.19-0.47,6.72c-0.08,0.26-0.91,1.91-1.38,2.81c-0.95-3.25-1.7-6.24-1.7-6.24
		c0.06,0.43,1.3,9.12,2.92,13.2c-4.09-3.97-6.54-9.54-9-14.62c-0.56-1.15-2.9-5.99-5.22-4.62c-2.39,1.42-1.98,5.38-1.92,7.76
		c0.15,5.25-0.75,11.28,0.58,16.4c1.9,7.31,6.54,12.65,12.52,16.11c-5.52,3.13-10.38,8.01-11.98,14.29
		c-2.63,10.33-0.58,20.66-0.62,31.13c-0.05,11.22,0.32,22.55,0.05,33.75c-0.04,1.66,0.65,3.87,2.05,3.59
		c0.12,1.77,0.31,3.55,0.53,5.31c-0.7-1.32-1.87-3.32-2.84-4.3c-0.4-0.4-1.12-0.38-1.54,0.04c-0.94,0.95-2.02,2.63-2.77,3.96
		c0.2-1.67,0.38-3.34,0.49-5.02c1.39,0.27,2.08-1.93,2.04-3.59c-0.27-11.2,0.1-22.53,0.05-33.75c-0.04-10.47,2.01-20.81-0.62-31.13
		c-1.6-6.27-6.46-11.15-11.98-14.29c5.98-3.46,10.63-8.79,12.52-16.11c1.33-5.12,0.43-11.15,0.58-16.4
		c0.07-2.38,0.48-6.34-1.92-7.76c-2.31-1.37-4.66,3.46-5.21,4.62c-2.46,5.09-4.93,10.68-9.03,14.65
		C196.9,129.45,198.14,120.71,198.2,120.28z M215.77,244.67c1.1,7.74,3.01,15.41,5.18,22.87c0.83,2.86,1.84,10.29,5.5,12.21
		c2.61,2.06,1.96,5.37,1.7,6.43c-0.55,2.29-11.82,16.61-15.69,20.38c-0.3,0.29-0.86,0.3-1.17,0.01
		c-4.16-3.86-15.36-17.88-15.91-20.18c-0.26-1.07-0.81-4.51,1.85-6.58c3.78-1.81,4.79-9.38,5.64-12.28
		c2.21-7.59,4.13-15.4,5.23-23.28c0.86-1.76,2.18-3.86,3.02-4.96c0.6-0.79,1.06-0.71,1.6,0.08
		C213.44,240.41,214.92,242.85,215.77,244.67z M169.42,175.68c0.02-0.01,0.03-0.02,0.05-0.03c3.44-3.6,7.44-6.45,11.98-8.48
		c1.1,0.13,2.2,0.31,3.28,0.58c8.39,2.13,3.14,14.61,1.74,20.16c-0.29,1.15-0.51,2.27-0.67,3.38c-0.05,0.02-0.09,0.05-0.13,0.1
		c-0.76,1.05-1.49,2.12-2.19,3.21c-6.01-2.02-11.39-5.25-15.43-10.16c0.2-0.41,0.38-0.84,0.52-1.3
		C169.4,180.51,169.64,178.01,169.42,175.68z M183.14,195.16c-1.79,2.87-3.37,5.86-4.73,9c-5.1,0.53-10.57,0.02-12.33-3.68
		c-1.03-5.18-1.89-9.65-2.25-11.51c1.59-0.99,2.96-2.25,3.91-3.91C171.79,189.92,177.17,193.13,183.14,195.16z M185.65,192.58
		c-0.34,3.45-0.03,6.71,0.83,9.91c-1.75,0.57-4.44,1.23-7.32,1.59C180.95,200.02,183.11,196.19,185.65,192.58z M189.36,179.06
		c0.87-3.93,1.7-8.42-1.95-10.97c-1.98-1.38-5.07-1.59-7.34-1.95c-1.09-0.17-2.14-0.22-3.23-0.28c-3.22-0.19-10.87-0.57-10.03-6.23
		c6.58,1.13,15.04-0.16,18.81-0.74c4.27-0.66,8.39-1.98,12.05-3.98c6.25,3.47,10.67,8.75,12.5,15.92c2.23,8.74,0.5,18.35,0.16,27.21
		c-0.3,8.01,0.3,16.08,0.19,24.11c-0.06,3.85-0.31,7.7-0.27,11.55c0.03,3.02-3.95,0.03-4.97-1.42c-1.41-1.99-2.89-3.91-4.27-5.92
		c-4.31-6.3-8.97-12.5-12.36-19.36c-0.72-1.46-1.25-2.9-1.63-4.33c0,0,0-0.01,0-0.01C184.94,194.76,187.57,187.16,189.36,179.06z
		 M161.41,153.96c1.35-1.22,3.38-3.07,7.74-5.6c2.53-1.47,6.33-3.21,10.36-5.05c6.35-2.91,12.91-5.92,14.82-8.09
		c4.3-3.49,7.05-8.7,9.44-13.62c0.53-1.08,1.01-2.18,1.55-3.25c0.58-1.15,1.53-2.39,2.79-2.88c1.16-0.45,2.35,0.56,2.46,1.7
		c0.16,0.99,0.24,1.98,0.24,2.97c0.1,3.34-0.07,6.72-0.14,10.06c-0.12,5.87-0.51,10.23-4.06,15.14c-3.62,5-6.13,7.99-12.01,10.37
		c-5.51,2.23-29.45,7.57-34.88-0.36C160.25,155.01,160.76,154.55,161.41,153.96z M153.19,158.91c1.59-1.86,3.16-2.36,4.67-2.84
		c0.43-0.14,0.85-0.27,1.25-0.43c1.41,2.07,3.99,3.24,7.03,3.85c-0.47,3.42,2.08,5.86,5.78,6.66c2.72,0.59,5.5,0.64,8.28,0.89
		c-4.08,1.96-7.71,4.58-10.88,7.83c-1.17-8.14-8.16-14.06-16.7-15.42C152.83,159.29,153.02,159.11,153.19,158.91z M137.04,193.2
		c-0.89-5.67,3.04-19.78,5.39-25.76c1.43-3.62,4.39-4.99,7-6.19c0.86-0.4,1.69-0.78,2.41-1.23c4.65,0.67,8.5,2.93,12.29,6.56
		c6.62,6.34,5.56,18.75-2.23,22.78c-4.87,2.52-10.2,3.52-14.89,6.51c-2.88,1.84-5.37,4.27-7.71,6.82
		C138.82,201.21,137.72,197.55,137.04,193.2z M126.74,254.21c0-2.34,0.53-4.78,1.29-7.08c0.06-0.19,0.13-0.38,0.19-0.56
		c0.03-0.09,0.07-0.19,0.1-0.28c0.07-0.19,0.14-0.38,0.21-0.57c2.1-5.5,5.28-9.93,5.33-10l0.03-0.04c1.11,3.73,2.51,7.74,4,11.32
		c-1.15,6.51-7.05,10.35-11.16,15.32V254.21z M125.62,297.98c-0.27-1.75-0.52-3.46-0.73-5.16c-0.5-4.13-0.97-8.03-1.23-12.24
		c-0.02-0.27-0.03-0.54-0.04-0.81c-0.01-0.15-0.01-0.29-0.02-0.44c-0.01-0.2-0.01-0.4-0.02-0.59c0-0.13-0.01-0.26-0.01-0.39
		c0-0.2,0-0.41,0-0.61c0-0.12,0-0.23,0-0.35c0-0.23,0.01-0.45,0.01-0.67c0-0.08,0-0.17,0-0.25c0.23-8.36,2.75-12.62,3.03-13.06
		c3.9-5.22,10.06-9.01,11.7-15.42c0.32,0.74,0.64,1.45,0.96,2.14c0.39,0.84,0.87,1.33,1.41,1.58c-1.81,9.3-6.4,17.15-10.41,25.69
		C127.23,283.9,125.92,290.9,125.62,297.98z M142.73,251.82c0.04,5.28,1.94,10.13,5.49,14.04c-1.29,2.13-2.45,4.36-3.49,6.66
		c-3.18-5-4.69-10.61-4.36-16.59c0.37-1.31,0.7-2.64,0.97-4.01C141.77,251.98,142.24,251.94,142.73,251.82z M141.58,250.5
		c0.85-9.82,3.9-19.98,9.28-28.34c0.58-0.95,1.32-1.75,2.22-2.4c3.71-2.74,1.52,5.81,1.38,6.24c-0.65,2.05-1.35,4.09-1.98,6.15
		c-1.92,6.32-4.21,12.47-7.59,18.13c-0.13,0.04-0.26,0.07-0.39,0.11C143.28,250.72,142.35,250.73,141.58,250.5z M144.4,273.23
		c-3.43,7.8-5.42,16.43-5.81,24.99c-1.21,4.44-3.14,9.8-3.97,14.19c-0.39,2.07-0.64,4.17-1.06,6.24c-0.03,0.13-0.06,0.25-0.09,0.38
		c-0.01,0.04-0.02,0.07-0.03,0.11c-0.03,0.09-0.06,0.18-0.09,0.26c-1.07,2.9-4.5,4.32-4.93-0.33c-1.07-11.36-0.28-24.63,0.52-35.91
		c0.87-2.77,1.95-5.51,3.28-8.23c2.78-5.68,5.57-11.02,7.49-16.81C139.8,263.53,141.39,268.66,144.4,273.23z M135.78,362.26
		c0,2.42-1.19,3.42-1.86,3.8c-0.58-1.53-2.25-6.08-3.56-9.8l5.44,5.56C135.79,361.97,135.78,362.16,135.78,362.26z M138.21,362.74
		l-8.68-8.88c-0.39-1.15-0.68-2.07-0.81-2.57c-0.27-1.09-0.51-2.29-0.72-3.6c1.07,1.97,2.62,4.24,4.22,5.93
		c3.15,3.32,6.5,6.15,7.05,6.61C138.98,361.29,138.52,362.2,138.21,362.74z M142.42,322.48c2.31,3.67,2.94,7.21,3.23,12.52
		l0.08,1.43c0.02,2.55-0.08,5.32-0.29,7.4c-0.17,1.7-1.54,2.7-2.86,0.62c-0.89-1.4-1.15-3.33-1.4-5.2
		c-0.32-2.38-0.62-4.62-2.21-5.64c-0.24-0.15-0.5-0.22-0.77-0.21c0.97-1.3,1.89-2.38,2.27-2.91c-1.84,0.66-5.9,3.96-6.08,7.5
		c-0.23,1.21-0.22,2.62,0.12,4.19c-0.01,0.06,0,0.13,0.02,0.21c0.7,2.6,0.87,5.1,0.87,5.13c0.22,0.84,3.79,4.02,4.65,5.32
		c1.67,2.55,0.24,5.23-0.46,6.27c-1.07-0.91-3.9-3.39-6.6-6.22c-2.71-2.85-5.12-7.4-5.47-8.92c-0.63-6.54-0.65-15.21-0.27-26.08
		c0.21-5.94-0.36-11.06-1.04-15.8c-0.03-5.19,0.48-10.2,1.64-15.09c-0.46,7.4-0.67,14.79-0.46,22.2c0.04,1.5-0.47,13.45,1.76,14.17
		c2.3,0.73,4.25-1.56,4.83-3.29c0.96-2.87,1.04-6.22,1.6-9.18c0.57-3.03,1.87-6.72,2.92-10.06c-0.04,6.63,0.9,13.16,2.91,19.19
		C141.65,320.94,141.96,321.77,142.42,322.48z M153.5,272.09c-0.19,4.56-3.24,12.62-6.19,20.43c-2.63,6.97-5.04,13.56-5.63,17.66
		c-0.32,2.21-0.54,4.26-0.56,6.1c-4.58-18.5-0.2-40.66,11.49-55.61C152.96,261.86,153.78,265.4,153.5,272.09z M155.32,253.95
		c-0.51,3.22-2.73,5.66-2.76,5.68c0,0-2.82,3.77-3.99,5.64c-3.4-3.81-5.2-8.5-5.2-13.63c1.07-0.34,2.2-0.89,3.32-1.21
		c4.51-1.29,7.19-3.72,9.14-6.89c-0.1,0.51-0.15,0.84-0.17,0.93C155.67,244.53,155.84,250.6,155.32,253.95z M160.51,228.87
		c-2.06,3.4-3.47,9.03-4.23,12.56c-1.79,3.6-4.25,6.58-8.84,8.12c-0.54,0.18-1.09,0.34-1.65,0.49c3.96-6.9,6.08-14.36,8.62-21.95
		c0.33-0.99,3.63-9.68-0.39-9.25c-3.87,0.42-6.05,6.99-7.36,9.91c-3.08,6.86-5.03,14.01-5.71,21.49c-1.09-0.62-1.79-1.87-2.52-3.52
		c-1.63-3.65-3.22-8.63-4.37-12.8c0.23-3.74,0.89-13.45,1.89-18.28c1.24-6.03,3.56-11.78,3.59-11.84l0.2-0.29
		c5.38-5.43,10.87-9.3,18.64-12.06c1.52-0.54,3.04-1.14,4.45-1.9c0.75,3.9,3.01,15.59,4.92,24.47
		C166.85,216.66,163.28,224.29,160.51,228.87z M175.66,235.79c-0.53-1.53-1.21-3.3-1.91-5.13c-0.9-2.36-1.83-4.81-2.56-6.99
		c-0.96-2.87-3.05-12.88-4.79-21.56c4.08,4.7,15.41,2.58,20.25,1c0.87,2.98,2.21,5.91,3.95,8.89c4.83,8.26,10.58,16.54,16.57,24
		c0.37,0.46,0.71,0.78,1.02,0.98c-0.56,8.31-2.27,16.63-4.33,24.68c-0.87,3.42-1.95,6.79-2.88,10.19c-0.65,2.38-1.37,5.24-3.45,6.83
		c-3.06,2.34-4.47-2.1-4.88-4.45c-1.19-6.77-4.93-13.82-7.91-19.98C181.78,248.13,178.82,241.86,175.66,235.79z M176.72,239.74
		c1.02,2.3,2.02,4.61,3.22,6.98c2.71,5.35,5.6,10.47,7.92,16.03c2.1,5.03,3.61,9.76,4.6,15.1c0.11,0.57,0.25,0.99,0.46,1.33
		c-4.96-1.26-8.82-5.38-12.8-8.54c-1.62-1.28-2.63-3-3.25-4.92c0.02-0.09,0.03-0.18,0.03-0.25c0-0.16,0-0.67,0.01-1.43
		C176.95,258.84,177.1,243.71,176.72,239.74z M171.24,281.22c-0.54-4.33,2.49-9.68,4.3-12.88c0.5-0.88,0.84-1.49,1.06-1.96
		c0.51,1.31,1.2,2.57,2.12,3.77c2.19,2.82,6.02,5.3,8.92,7.34c1.06,0.74,2.09,1.31,3.17,1.74c-5.45,4.13-13.11,5.41-17.79,10.21
		l0.04-0.12l-0.11-0.2C172.94,289.1,172,287.3,171.24,281.22z M172.45,291.35c7.7-5.64,15.86-8.67,23.11,0.03
		c3.18,3.82,6.28,7.71,8.97,11.85c-2.89-2.57-6.97-3.35-12.83-0.89c-3.66,1.54-7.12,3.74-10.6,5.63c-0.9,0.49-5.85,2.25-5.89,4.17
		c-2.47,1.54-4.65,3.44-6.53,5.68c0.04-0.71,0.05-1.37,0.01-1.98C168.13,307.22,171.17,295.72,172.45,291.35z M159.57,366
		c0.96-13.06,3.82-24.4,6.12-33.52c1.37-5.42,2.52-9.99,2.89-13.52c1.89-2.42,4.14-4.47,6.71-6.11c0.64,3.64,2.87,6.58,3.26,10.5
		c0.55,5.63-1.68,11.36-3.46,16.59c-0.52,1.53-2.65,6.67-2.84,10.47l-0.03,0.03c-7.02,16.27-9.16,33.44-11.59,50.75
		C159.55,389.06,158.84,375.89,159.57,366z M160.88,403.97c2.53-17.73,4.46-35.36,11.41-52.05c0.17,1.24,0.68,2.2,1.73,2.6
		c2.1,0.8,4.08,0.45,6.19-0.21c1.82-0.58,3.63-1.19,5.43-1.82c1.1,5.08,0.39,10.98,0.03,15.85c-0.67,8.93-2.1,17.82-3.86,26.6
		c-2.96,14.78-9,28.72-15.07,42.55c-0.7,1.5-1.37,3.05-2.02,4.62c-0.23,0.52-0.45,1.03-0.68,1.55c-0.03-0.19-0.05-0.37-0.06-0.54
		c-0.2-2.83,0-4.34,0.18-5.66c0.14-1.03,0.27-2,0.19-3.37c-0.03-0.56-0.25-2.27-0.58-4.87
		C163.07,423.84,161.87,414.44,160.88,403.97z M178.13,410.35c-0.08,10.26,5.47,20.67,8.78,29.08c-3.34,4.77-5.92,9.85-7.89,15.17
		c-0.18-8.59-3.31-16.66-9.02-23.23C172.93,424.45,175.74,417.47,178.13,410.35z M161.36,454.3c0.02-0.06,0.05-0.11,0.07-0.17
		c1.37-4.11,3.96-11.26,5.73-16.1c0.86-1.99,1.72-3.99,2.56-5.99c5.89,6.88,8.9,15.4,8.64,24.41c-2.46,7.29-3.8,15.02-4.29,23.07
		c-0.34,5.68-0.46,11.4-0.47,17.11c-2.94,3.81-9.48,2.59-10.32-2.92c0-0.03-0.02-0.05-0.03-0.07
		C161.18,480.56,159.66,467.44,161.36,454.3z M162.45,535.47c1.69-6.41,0.92-13.3,0.18-19.97l-0.1-0.87
		c-0.58-3.68-1.28-7.42-1.95-11.04c-3.04-16.37-5.92-31.87-0.14-47.04c-1.24,12.43,0.25,24.84,2.22,37.23
		c-0.01,0.04-0.01,0.08-0.01,0.12c0.03,0.22,0.08,0.43,0.13,0.64c1.76,10.99,3.85,21.96,4.71,32.91c-1.22,4.26-3.26,8.1-6.11,11.43
		C161.73,537.94,162.1,536.82,162.45,535.47z M180.98,540.82c-0.02,0.94-0.51,1.91-1.03,2.94c-0.26,0.52-0.52,1.05-0.73,1.59
		c-1.91-8.17-1.71-16.56,0.56-24.61C178.91,527.29,179.09,533.97,180.98,540.82z M180.49,516.56c-3.73,9.89-4.39,20.47-1.68,30.66
		c0,0.02,0,0.03,0,0.05l0.03,0.17c0.11,0.34,0.23,0.7,0.34,1.06c0.11,0.38,0.22,0.76,0.35,1.14c0.58,1.94,1.14,4.06,1.66,5.99
		c0.23,0.86,0.45,1.68,0.65,2.42c0.04,0.15,3.89,14.65-1.14,17.79c-5.09,3.18-13.18,2.41-15.39,1.58c-0.94-0.35-2.71-1.57-4.43-2.75
		c-2.13-1.46-4.33-2.98-5.65-3.36c-5.39-1.59-11.2-3.77-12.04-5.06c-1.08-1.67-0.88-2.95-0.87-3l0.09-0.52l-0.52-0.11
		c-0.03-0.01-2.79-0.6-2.79-2.01c0-1.73,0.43-2.19,0.63-2.41c0.3-0.32,1.72-1.04,3.77-0.79l-2.51,1.56c0,0,1.35,0.66,3.99-1.06
		c3.19-2.09,6.21-3.16,8.19-4.28c2.95-1.67,4.5-4.24,5.16-5.58c0.46,1.22,1.06,2.31,1.49,3.07c0.15,0.27,0.31,0.54,0.45,0.8
		c0,0-2.33-6.42-1.06-8.71c0.07-0.13,0.16-0.27,0.26-0.44c0.29-0.47,0.68-1.12,1.13-2.06c3.18-3.31,5.53-7.18,7-11.48
		c0.66,10.03,0.22,20.05-2.54,30.04c-0.11,0.41,1.87-4.85,2.29-7.36c3.07-18.32-0.6-36.69-3.61-55.1c2.24,3.27,7.08,3.59,9.84,0.79
		c0,5.55,0.1,11.1,0.19,16.62c0.04,2.24,0.15,4.43,0.33,6.57c0,0,0.34-5.68,0.29-8.65c-0.05-2.83-0.08-5.67-0.09-8.51
		c2.06,3.03,6.49,3.88,9.42,1.39C182.41,508.8,181.28,512.66,180.49,516.56z M192.2,460.2c1.26,4.23,2.44,8.23,2.89,12.2
		c0,2.8-0.97,5.7-1.9,8.51c-0.48,1.43-0.97,2.91-1.31,4.29l-0.92,2.09c-2.33,5.31-4.68,10.67-6.66,16.12
		c-2.77,3.76-8.3,2.84-9.98-1.06c-0.01-7.04,0.08-14.08,0.32-21.11c0.29-8.5,1.62-16.72,4.24-24.45c0.05-0.1,0.09-0.19,0.13-0.29
		c0-0.03,0-0.06,0-0.08c1.97-5.72,4.66-11.17,8.17-16.25c0.5,1.32,0.95,2.59,1.29,3.8C188.75,449.77,190.63,454.9,192.2,460.2z
		 M190.19,448.77c-0.98-3.72-1.74-6.72-1.74-6.72c0,0.03,0,0.07,0,0.1c-0.02-0.12-0.05-0.22-0.07-0.3
		c-3.85-11.83-10.86-21.82-9.61-33.43c1.78-5.54,3.29-11.17,4.39-16.94c1.6-8.44,2.78-17,3.34-25.57c0.28-4.25,0.69-9.22-0.25-13.63
		c3.09-1.07,6.17-2.16,9.28-3.15c0.97-0.31,1.93-0.64,2.88-1c-3.93,11.35-3.55,22.83-1.78,34.33c-7.04,18.53,2.15,39.45-2.14,58.59
		C193.21,443.7,191.73,446.35,190.19,448.77z M200.7,410.54c-0.67,7.92-1.3,15.41-1.98,19.15c-0.44,2.38-1.59,5.64-3.15,9.11
		c2.94-18.1-4.79-37.6,1.27-55.03c1.17,7.21,2.85,14.42,4.3,21.6C200.98,407.12,200.84,408.86,200.7,410.54z M210.38,351.25
		c-0.33,2.59-1.35,6.95-2.54,12c-1.75,7.45-3.92,16.73-4.98,24.97c-0.58,4.49-1.08,9.74-1.54,14.94
		c-3.84-18.44-8.65-37.07-2.13-55.32c4.09-1.61,7.81-3.8,10.32-7.65c0.18-0.28,0.34-0.57,0.49-0.86
		C210.34,341.3,211.01,346.34,210.38,351.25z M210.02,337.34c-1.46,6.54-9.08,9.37-14.66,11.18c-5.44,1.72-10.78,3.74-16.22,5.46
		c-10.51,3.32-3.65-13.15-2.17-17.58c1.53-4.58,2.95-9.95,2.05-14.82c-0.43-2.32-1.1-4.32-2.19-6.4c-2.42-4.59,5.62-7.19,8.19-8.59
		c6.12-3.32,13.85-8.42,20.02-2.55c1.34,2.12,2.57,4.31,3.65,6.59c0.7,2.39,1.07,4.92,1.43,7.14
		C211.16,324.2,211.45,330.95,210.02,337.34z M211.9,328.52c-0.07-3.17-0.46-6.28-0.82-8.74c-0.78-5.19-2.05-10.54-4.54-14.23
		c-3.7-7.16-7.8-11.77-12.76-17.2c-5.92-6.48-14.06-2.83-20.19,1.39c4.71-4.76,12.6-6.03,17.95-10.23c0.95,0.32,1.95,0.52,3.03,0.63
		c0.13,0.02,0.25,0.05,0.39,0.06c0.3,0.04,0.59,0.03,0.87,0c-1.49,1.85-1.64,4.34-1.15,6.36c0.64,2.68,6.35,10.24,16.62,21.14
		c0.28,0.29,0.76,0.34,1.05,0.06c10.65-10.71,15.87-18.73,16.52-21.41c0.47-1.98,0.42-4.34-0.95-6.15c0.3,0.03,0.61,0.03,0.94,0
		c0.14-0.02,0.27-0.04,0.39-0.06c1.08-0.1,2.08-0.31,3.03-0.63c5.36,4.2,13.27,5.46,17.97,10.25c-6.13-4.23-14.28-7.9-20.21-1.4
		c-4.96,5.43-9.05,10.04-12.76,17.2c-2.5,3.68-3.77,9.04-4.55,14.23C212.36,322.24,211.97,325.35,211.9,328.52z M246.91,264.03
		c0.01,0.76,0.01,1.27,0.01,1.43c0,0.08,0.01,0.16,0.03,0.25c-0.61,1.91-1.63,3.64-3.25,4.91c-3.99,3.16-7.84,7.28-12.8,8.54
		c0.21-0.33,0.35-0.76,0.46-1.33c0.99-5.34,2.5-10.07,4.6-15.1c2.32-5.55,5.21-10.68,7.92-16.03c1.18-2.33,2.19-4.67,3.22-7
		C246.71,243.65,246.86,258.83,246.91,264.03z M213.69,317.77c0.36-2.22,0.73-4.75,1.43-7.14c1.07-2.28,2.3-4.47,3.64-6.59
		c6.17-5.88,13.91-0.78,20.02,2.54c2.58,1.4,10.62,4,8.19,8.59c-1.1,2.08-1.76,4.08-2.19,6.4c-0.89,4.87,0.52,10.24,2.05,14.82
		c1.48,4.43,8.34,20.9-2.17,17.58c-5.44-1.72-10.78-3.74-16.22-5.46c-5.59-1.8-13.2-4.64-14.66-11.18
		C212.36,330.95,212.65,324.2,213.69,317.77z M220.94,388.22c-1.06-8.24-3.23-17.52-4.98-24.97c-1.18-5.05-2.21-9.41-2.54-12
		c-0.63-4.92,0.05-9.95,0.37-11.93c0.16,0.3,0.32,0.59,0.5,0.86c2.5,3.85,6.23,6.04,10.32,7.65c6.52,18.25,1.72,36.88-2.13,55.32
		C222.02,397.97,221.52,392.72,220.94,388.22z M225.09,429.69c-0.69-3.73-1.32-11.22-1.98-19.15c-0.14-1.68-0.29-3.42-0.44-5.17
		c1.46-7.18,3.13-14.39,4.3-21.61c6.06,17.43-1.67,36.93,1.27,55.03C226.69,435.33,225.53,432.07,225.09,429.69z M229.31,441.07
		c-4.29-19.14,4.9-40.05-2.14-58.59c1.77-11.5,2.15-22.98-1.78-34.33c0.95,0.35,1.91,0.68,2.88,1c3.11,0.98,6.2,2.08,9.28,3.15
		c-0.94,4.41-0.53,9.38-0.25,13.63c0.57,8.58,1.75,17.13,3.34,25.57c1.09,5.78,2.6,11.4,4.39,16.94c1.25,11.62-5.82,21.7-9.67,33.52
		c-0.03,0.08-0.81,3.12-1.77,6.8C232.06,446.33,230.59,443.68,229.31,441.07z M245.68,410.36c2.42,7.24,5.29,14.33,8.28,21.39
		c-5.43,5.79-9,15.39-8.91,23.58c-1.99-5.58-4.66-10.9-8.15-15.88C240.21,431.02,245.76,420.61,245.68,410.36z M239.49,503.39
		c-1.98-5.44-4.33-10.79-6.65-16.09l-0.92-2.09c-0.34-1.38-0.83-2.86-1.31-4.29c-0.93-2.8-1.9-5.7-1.9-8.51
		c0.45-3.98,1.63-7.97,2.89-12.2c1.6-5.38,3.74-10.72,3.98-16.64c0-0.78,0.58-2.17,1.05-3.4c8.32,12.05,12.03,26.14,12.54,41.08
		c0.24,7.03,0.34,14.07,0.32,21.11C247.81,506.26,242.25,507.18,239.49,503.39z M243.84,543.76c-0.51-1.03-1-2.01-1.03-2.94
		c1.89-6.85,2.08-13.53,1.19-20.07c2.28,8.04,2.47,16.43,0.56,24.61C244.36,544.81,244.1,544.28,243.84,543.76z M264.31,542.74
		c0.11,0.17,0.19,0.32,0.26,0.44c1.27,2.29-1.06,8.71-1.06,8.71c0.14-0.26,0.29-0.53,0.45-0.8c0.43-0.75,1.04-1.85,1.49-3.07
		c0.66,1.34,2.21,3.9,5.16,5.58c1.98,1.12,4.99,2.19,8.19,4.28c2.63,1.72,3.99,1.06,3.99,1.06l-2.51-1.56
		c2.05-0.24,3.48,0.48,3.77,0.79c0.2,0.22,0.63,0.68,0.63,2.41c0,1.41-2.76,2.01-2.79,2.01l-0.52,0.11l0.09,0.52
		c0.01,0.05,0.2,1.33-0.87,3c-0.83,1.3-6.65,3.48-12.04,5.06c-1.32,0.39-3.52,1.9-5.65,3.36c-1.71,1.18-3.48,2.4-4.43,2.75
		c-2.21,0.83-10.3,1.6-15.39-1.58c-5.03-3.14-1.18-17.64-1.14-17.79c0.2-0.74,0.42-1.56,0.65-2.42c0.51-1.93,1.08-4.04,1.66-5.99
		c0.12-0.38,0.23-0.76,0.35-1.14c0.11-0.36,0.23-0.72,0.34-1.06l0.03-0.17c0-0.02,0-0.03,0-0.05c2.71-10.18,2.06-20.77-1.68-30.66
		c-0.79-3.9-1.92-7.76-3.25-11.58c2.93,2.51,7.37,1.66,9.44-1.37c-0.01,2.84-0.04,5.67-0.09,8.51c-0.05,2.97,0.29,8.65,0.29,8.65
		c0.18-2.14,0.29-4.33,0.33-6.57c0.1-5.52,0.19-11.07,0.19-16.62c2.77,2.8,7.6,2.48,9.84-0.79c-3.01,18.41-6.69,36.78-3.62,55.09
		c0.42,2.51,2.4,7.77,2.29,7.36c-2.76-9.99-3.21-20.01-2.54-30.04c1.48,4.3,3.83,8.17,7,11.48
		C263.63,541.62,264.03,542.27,264.31,542.74z M263.21,503.59c-0.67,3.62-1.37,7.36-1.95,11.04l-0.1,0.87
		c-0.74,6.67-1.51,13.56,0.18,19.97c0.36,1.36,0.72,2.48,1.08,3.41c-2.85-3.34-4.89-7.18-6.11-11.44c0.86-10.91,2.94-21.85,4.7-32.8
		c0.06-0.24,0.11-0.48,0.15-0.74c0.01-0.06,0-0.11-0.01-0.15c1.96-12.38,3.45-24.79,2.21-37.21
		C269.14,471.71,266.26,487.22,263.21,503.59z M262.37,454.13c0.03,0.06,0.05,0.11,0.07,0.17c1.69,13.14,0.18,26.27-1.89,39.37
		c-0.01,0.02-0.02,0.03-0.02,0.06c-0.84,5.51-7.38,6.73-10.32,2.92c-0.01-5.72-0.13-11.43-0.48-17.11
		c-0.47-7.77-1.74-15.24-4.04-22.3l0.01,0c-0.73-8.34,2.84-18.73,8.5-24.9c0.79,1.86,1.58,3.71,2.39,5.57
		C258.36,442.74,260.98,449.98,262.37,454.13z M260.04,429.22c-0.33,2.6-0.55,4.31-0.58,4.87c-0.08,1.37,0.05,2.34,0.19,3.37
		c0.18,1.33,0.38,2.83,0.18,5.66c-0.01,0.17-0.04,0.35-0.06,0.54c-0.29-0.68-0.59-1.35-0.89-2.03c-0.54-1.29-1.1-2.56-1.67-3.8
		c-6.12-13.94-12.24-28-15.22-42.9c-1.76-8.78-3.19-17.67-3.86-26.6c-0.36-4.87-1.08-10.77,0.03-15.85
		c1.81,0.62,3.61,1.24,5.43,1.82c2.1,0.66,4.09,1.01,6.18,0.21c1.05-0.4,1.57-1.35,1.73-2.6c6.95,16.69,8.88,34.32,11.41,52.05
		C261.93,414.44,260.73,423.84,260.04,429.22z M258.12,332.48c2.3,9.12,5.15,20.46,6.12,33.52c0.73,9.9,0.02,23.07-1.06,35.18
		c-2.43-17.31-4.56-34.48-11.59-50.75l-0.03-0.03c-0.18-3.8-2.32-8.94-2.84-10.47c-1.78-5.23-4.01-10.96-3.46-16.59
		c0.38-3.92,2.61-6.85,3.25-10.5c2.57,1.64,4.81,3.69,6.71,6.11C255.6,322.49,256.75,327.05,258.12,332.48z M255.12,315.84
		c-0.04,0.61-0.03,1.27,0.01,1.98c-1.88-2.24-4.06-4.14-6.53-5.68c-0.04-1.92-4.99-3.68-5.89-4.17c-3.48-1.89-6.94-4.09-10.6-5.63
		c-5.86-2.47-9.94-1.69-12.83,0.89c2.69-4.14,5.79-8.03,8.97-11.85c7.25-8.7,15.41-5.67,23.11-0.03
		C252.64,295.72,255.68,307.23,255.12,315.84z M248.27,268.35c1.81,3.2,4.83,8.55,4.3,12.88c-0.75,6.07-1.7,7.88-1.71,7.9l-0.11,0.2
		l0.04,0.12c-4.67-4.79-12.34-6.08-17.79-10.21c1.08-0.43,2.11-1,3.17-1.74c2.9-2.04,6.74-4.52,8.92-7.34
		c0.93-1.2,1.62-2.46,2.12-3.77C247.43,266.85,247.77,267.47,248.27,268.35z M252.62,223.66c-0.73,2.19-1.66,4.63-2.56,6.99
		c-0.7,1.83-1.37,3.6-1.91,5.13c-3.15,6.07-6.12,12.34-9.08,18.47c-2.98,6.16-6.72,13.21-7.91,19.98c-0.41,2.35-1.83,6.79-4.88,4.45
		c-2.08-1.59-2.8-4.45-3.45-6.83c-0.93-3.4-2.01-6.77-2.88-10.19c-2.06-8.05-3.77-16.36-4.33-24.68c0.31-0.21,0.66-0.53,1.02-0.99
		c5.99-7.47,11.74-15.74,16.57-24c1.74-2.98,3.08-5.91,3.95-8.88c4.87,1.58,16.22,3.7,20.26-1.06
		C255.67,210.76,253.57,220.79,252.62,223.66z M263.15,228.79c-2.74-4.35-6.2-12.02-7.11-14.73c1.91-8.88,4.18-20.59,4.93-24.51
		c1.4,0.75,2.92,1.35,4.43,1.89c7.77,2.76,13.4,6.65,18.79,12.09l-0.02,0.06l0.08,0.19c0.02,0.06,2.35,5.81,3.59,11.84
		c1,4.84,1.66,14.54,1.89,18.28c-1.16,4.17-2.75,9.15-4.37,12.8c-0.74,1.65-1.43,2.9-2.52,3.52c-0.68-7.48-2.63-14.63-5.71-21.49
		c-1.31-2.91-3.49-9.48-7.36-9.91c-4.02-0.44-0.72,8.26-0.39,9.25c2.54,7.59,4.66,15.05,8.62,21.95c-0.55-0.15-1.1-0.31-1.65-0.49
		c-4.59-1.53-7.03-4.43-8.81-8.02C266.77,237.99,265.27,232.15,263.15,228.79z M291.58,274.92c1.33,2.72,2.41,5.46,3.28,8.23
		c0.8,11.28,1.59,24.55,0.52,35.91c-0.44,4.66-3.87,3.23-4.93,0.33c-0.03-0.09-0.06-0.18-0.09-0.26c-0.01-0.04-0.02-0.07-0.03-0.11
		c-0.04-0.12-0.07-0.25-0.09-0.38c-0.42-2.07-0.67-4.17-1.06-6.24c-0.83-4.38-2.76-9.75-3.97-14.19
		c-0.38-8.56-2.38-17.19-5.81-24.99c3.81-5.6,4.67-11.51,4.83-14.79C286.12,264.11,288.85,269.35,291.58,274.92z M283.46,255.98
		c0.03,0.34,0.67,8.63-4.45,16.45c-1.03-2.27-2.17-4.47-3.44-6.57c3.55-3.91,5.45-8.75,5.49-14.04c0.49,0.11,0.96,0.16,1.4,0.09
		C282.73,253.31,283.08,254.65,283.46,255.98z M279.28,250.38c-0.13-0.04-0.26-0.07-0.39-0.11c-3.38-5.66-5.67-11.81-7.59-18.13
		c-0.63-2.06-1.33-4.1-1.98-6.15c-0.14-0.43-2.33-8.98,1.38-6.24c0.9,0.65,1.64,1.45,2.22,2.4c5.39,8.36,8.43,18.52,9.28,28.34
		C281.44,250.73,280.5,250.72,279.28,250.38z M268.47,253.95c-0.53-3.35-0.36-9.42-0.35-9.48c-0.01-0.09-0.07-0.41-0.17-0.93
		c1.95,3.17,4.63,5.6,9.14,6.89c1.11,0.32,2.25,0.87,3.32,1.21c0,5.13-1.79,9.82-5.2,13.63c-1.16-1.87-2.87-4.32-3.99-5.64
		C271.21,259.61,268.98,257.17,268.47,253.95z M276.48,292.52c-2.95-7.8-6-15.87-6.19-20.43c-0.28-6.69,0.54-10.23,0.89-11.42
		c11.7,14.95,16.08,37.11,11.49,55.61c-0.02-1.84-0.25-3.9-0.56-6.1C281.51,306.08,279.11,299.49,276.48,292.52z M289.87,366.06
		c-0.67-0.38-1.86-1.38-1.86-3.8c0-0.1-0.01-0.29-0.01-0.44l5.43-5.56C292.12,359.98,290.45,364.53,289.87,366.06z M295.07,351.3
		c-0.12,0.5-0.42,1.42-0.81,2.57l-8.68,8.88c-0.32-0.55-0.77-1.45-1.06-2.51c0.55-0.46,3.89-3.3,7.05-6.61
		c1.61-1.69,3.15-3.96,4.22-5.93C295.58,349.01,295.35,350.21,295.07,351.3z M296.52,317.88c0.38,10.87,0.36,19.55-0.27,26.08
		c-0.35,1.52-2.76,6.07-5.47,8.92c-2.69,2.83-5.53,5.31-6.6,6.22c-0.7-1.04-2.13-3.72-0.46-6.27c0.86-1.31,4.43-4.49,4.65-5.32
		c0.01-0.03,0.17-2.53,0.87-5.13c0.02-0.08,0.02-0.14,0.02-0.21c0.34-1.57,0.35-2.98,0.12-4.19c-0.17-3.54-4.23-6.84-6.08-7.5
		c0.39,0.53,1.31,1.61,2.27,2.91c-0.27-0.01-0.53,0.06-0.77,0.21c-1.59,1.02-1.89,3.26-2.21,5.64c-0.25,1.87-0.51,3.81-1.4,5.2
		c-1.32,2.08-2.69,1.09-2.86-0.62c-0.21-2.08-0.31-4.86-0.29-7.4l0.08-1.43c0.29-5.31,0.92-8.85,3.23-12.52
		c0.45-0.72,0.76-1.55,0.97-2.47c2.01-6.03,2.95-12.56,2.91-19.19c1.05,3.34,2.35,7.04,2.92,10.06c0.56,2.96,0.64,6.31,1.6,9.18
		c0.58,1.73,2.54,4.03,4.83,3.29c2.23-0.71,1.72-12.66,1.76-14.17c0.2-7.41,0-14.81-0.46-22.2c1.16,4.89,1.67,9.9,1.64,15.09
		C296.87,306.82,296.31,311.94,296.52,317.88z M300.21,277.74c0,0.2,0,0.4,0,0.61c0,0.13-0.01,0.26-0.01,0.39
		c0,0.2-0.01,0.39-0.02,0.59c-0.01,0.14-0.01,0.29-0.02,0.44c-0.01,0.27-0.02,0.53-0.04,0.81c-0.26,4.21-0.73,8.11-1.23,12.24
		c-0.21,1.7-0.46,3.41-0.73,5.16c-0.29-7.08-1.61-14.08-4.66-20.57c-4.01-8.54-8.6-16.39-10.41-25.69c0.54-0.26,1.01-0.75,1.41-1.58
		c0.32-0.69,0.64-1.4,0.96-2.14c1.64,6.41,7.8,10.2,11.7,15.42c0.28,0.44,2.8,4.7,3.03,13.06c0,0.08,0,0.17,0,0.25
		c0.01,0.22,0.01,0.44,0.01,0.67C300.21,277.51,300.21,277.62,300.21,277.74z"/>
</g>
</svg>
