<?xml version="1.0" encoding="utf-8"?>
<!-- Generator: Adobe Illustrator 26.0.1, SVG Export Plug-In . SVG Version: 6.00 Build 0)  -->
<svg version="1.1" id="Layer_1" xmlns="http://www.w3.org/2000/svg" xmlns:xlink="http://www.w3.org/1999/xlink" x="0px" y="0px"
	 viewBox="0 0 432 648" style="enable-background:new 0 0 432 648;" xml:space="preserve">
<style type="text/css">
	.st0{display:none;opacity:0.5;fill:none;stroke:#231F20;stroke-width:0.05;stroke-miterlimit:10;}
	.st1{fill:#FFFFFF;}
	.st2{fill:#E92A2A;}
	.st3{fill:#D52626;}
	.st4{fill:#9A1A1C;}
	.st5{fill:#8D1819;}
</style>
<path class="st0" d="M418.44,444.92c-2.94,1.51-8.31,5.17-9.04,17.27"/>
<g>
	<g id="White_00000133528489143381355520000010271913426059166336_">
		<path class="st1" d="M300.11,263.11v-8.7c0-8.48-6.35-17.73-7.24-18.99c-0.09-1.62-0.79-13.98-1.99-19.81
			c-1.13-5.5-3.15-10.78-3.57-11.83c0.32-0.94,1.69-5.11,2.49-10.21c0.92-5.86-3.06-20.25-5.46-26.31c-1.59-4.03-4.9-5.55-7.56-6.78
			c-1.44-0.66-2.68-1.23-3.38-2.05c-1.79-2.09-3.58-2.67-5.16-3.17c-0.41-0.13-0.82-0.26-1.2-0.41c-0.6-0.24-1.14-0.73-1.95-1.47
			c-1.38-1.25-3.46-3.15-7.92-5.73c-2.58-1.49-6.4-3.25-10.45-5.1c-6.06-2.77-12.93-5.92-14.53-7.9c-0.65-0.81-1.59-3.52-2.46-6.35
			c0.49-0.97,1.84-3.64,1.96-4.05c0.52-1.81,0.58-4.28,0.56-5.77c0.3,0.14,0.67,0.22,1.1,0.16c1.49-0.18,2.88-2.5,4.55-5.51
			c0.47-0.84,0.91-1.64,1.25-2.13c1.44-2.06,1.13-6.53,0.07-9.87c-0.31-0.98-0.83-1.54-1.56-1.67c-0.99-0.18-2.08,0.57-2.86,1.29
			c0.15-4.17,0.09-15.9-4.72-21.68c-4.15-4.97-12.44-6.21-15.58-6.51h-1.24c-3.14,0.3-11.44,1.53-15.58,6.51
			c-4.81,5.78-4.87,17.51-4.72,21.68c-0.78-0.72-1.87-1.47-2.86-1.29c-0.72,0.13-1.25,0.7-1.56,1.67c-1.06,3.35-1.37,7.81,0.07,9.87
			c0.34,0.48,0.78,1.28,1.25,2.13c1.67,3.01,3.06,5.33,4.55,5.51c0.44,0.05,0.8-0.03,1.1-0.16c-0.02,1.5,0.04,3.97,0.56,5.77
			c0.12,0.41,1.44,3.04,1.95,4.03c-0.86,2.84-1.81,5.57-2.46,6.38c-1.61,1.98-8.47,5.13-14.53,7.9c-4.05,1.85-7.87,3.6-10.45,5.1
			c-4.46,2.58-6.54,4.48-7.92,5.73c-0.81,0.74-1.35,1.23-1.95,1.47c-0.38,0.15-0.79,0.28-1.2,0.41c-1.58,0.5-3.36,1.08-5.16,3.17
			c-0.7,0.82-1.94,1.39-3.38,2.05c-2.66,1.23-5.97,2.75-7.56,6.78c-2.39,6.07-6.37,20.45-5.46,26.31c0.8,5.1,2.17,9.27,2.49,10.21
			c-0.42,1.06-2.44,6.33-3.57,11.83c-1.2,5.83-1.9,18.18-1.99,19.81c-0.89,1.26-7.24,10.5-7.24,18.99v8.7
			c-0.6,0.98-3.74,6.65-3.07,17.73c0.26,4.25,0.73,8.16,1.24,12.3c0.9,7.38,2.72,15.01,2.37,24.89c-0.53,15.06-0.4,27.95,1.47,33.68
			c0.81,2.47,5.17,14.85,5.37,15.38c0,0,0.17,0.57,0.72,0.4c0.03-0.01,2.79-0.79,3.08-4.41l1.14,1.17c0.2,0.21,0.54,0.18,0.71-0.05
			l0.05-0.07c0.09-0.12,1.37-1.95,1.76-4.23c0.81-1.24,2.46-4.43,0.47-7.46c-0.82-1.26-3.79-4.3-4.48-5
			c-0.05-0.63-0.25-2.58-0.78-4.71c-0.46-2.59-0.19-4.52,0.39-5.84c0.16-0.32,0.34-0.63,0.53-0.95c0.45-0.63,0.98-1.03,1.48-1.22
			c0.13-0.05,0.2-0.03,0.28,0.02c1.16,0.75,1.43,2.75,1.72,4.87c0.27,1.99,0.62,3.99,1.56,5.64c1.15,2.02,4.43,2.79,4.86-1.08
			c0.3-2.75,0.3-6.12,0.29-7.56l-0.08-1.45c-0.3-5.52-0.51-8.32-3.47-13.14c-1.3-2.11-1.32-3.28-0.5-11.49
			c0.4-3.99,2.96-10.5,5.57-17.4c2.98-7.88,6.06-16.03,6.26-20.76c0.3-7.33-0.66-10.97-1.01-12.02c0.62-0.74,2.34-3.03,2.81-6
			c0.54-3.45,0.38-9.43,0.36-9.57c0.02-0.1,1.82-10.43,4.81-15.17c2.2-3.49,5.17-9.71,6.62-13.4c0.81,3.67,1.52,6.64,1.99,8.04
			c0.74,2.21,1.67,4.66,2.58,7.04c1.29,3.39,2.51,6.59,2.83,8.26c0.31,1.64,0.39,9.95,0.24,24.71c-0.01,0.77-0.01,1.28-0.01,1.43
			c-0.03,0.28-0.65,1.39-1.21,2.36c-1.87,3.31-5.01,8.86-4.43,13.54c0.65,5.22,1.44,7.41,1.73,8.06
			c-0.59,1.88-4.96,16.17-4.29,26.48c0.23,3.6-1.18,9.2-2.97,16.31c-2.31,9.15-5.17,20.55-6.15,33.7
			c-1.44,19.45,2.66,51.4,4.19,63.43c0.33,2.57,0.55,4.28,0.58,4.79c0.08,1.27-0.04,2.15-0.18,3.16c-0.19,1.38-0.39,2.95-0.18,5.88
			c0.05,0.67,0.2,1.46,0.45,2.34c-1.08,2.81-2.07,5.6-2.94,8.19c-7.2,16.19-4,33.4-0.9,50.04c0.67,3.61,1.37,7.34,1.94,10.99
			l0.09,0.84c0.73,6.57,1.49,13.36-0.15,19.57c-0.83,3.14-1.7,4.98-2.34,6.13c0,0-0.01,0.01-0.01,0.01
			c-0.06,0.05-0.08,0.11-0.09,0.17c-0.15,0.26-0.29,0.49-0.4,0.68c-0.11,0.19-0.21,0.35-0.29,0.48c-0.65,1.18-0.66,2.54-0.38,3.85
			c-0.19,0.51-1.62,4.1-5.24,6.15c-3.41,1.93-6.45,3.21-7.54,3.76c-2.55-0.41-5.54,0.37-6.14,1.02c-0.46,0.49-0.93,1.25-0.93,3.15
			c0,1.84,2.21,2.68,3.2,2.96c0,0.65,0.16,1.87,1.06,3.27c1.29,2,9.27,4.52,12.64,5.51c1.15,0.34,3.37,1.87,5.34,3.22
			c1.85,1.27,3.59,2.47,4.66,2.87c1.09,0.41,3.4,0.8,6.1,0.8c3.31,0,7.22-0.59,10.24-2.48c5.7-3.56,1.78-18.36,1.61-18.99
			c-0.2-0.74-0.42-1.55-0.65-2.41c-0.71-2.67-1.52-5.7-2.33-8.16c0.03-0.93,0.51-1.9,1.03-2.93c0.56-1.12,1.14-2.28,1.14-3.5
			l-0.02-0.14c-5.15-18.56,2.5-36,9.9-52.86l0.95-2.18c0.36-1.43,0.84-2.89,1.31-4.3c0.96-2.89,1.96-5.87,1.95-8.91
			c-0.46-4.13-1.66-8.17-2.93-12.45c-0.75-2.54-1.77-6.28-2.67-9.68c4.41-6.71,8.28-15.24,9.21-20.32c0.7-3.79,1.3-10.95,2-19.25
			c0.62-7.33,1.32-15.63,2.17-22.27c1.05-8.19,3.22-17.43,4.96-24.85c1.19-5.08,2.22-9.47,2.56-12.11
			c0.74-5.85-0.34-12.72-0.59-14.15c0.68-2.1,0.97-4.49,1.03-6.91c0.06,2.43,0.35,4.82,1.03,6.91c-0.25,1.43-1.33,8.3-0.59,14.15
			c0.34,2.65,1.37,7.03,2.56,12.11c1.74,7.43,3.91,16.67,4.96,24.85c0.85,6.63,1.55,14.94,2.17,22.27c0.7,8.29,1.3,15.46,2,19.25
			c0.93,5.07,4.79,13.59,9.19,20.29c-0.94,3.55-1.98,7.41-2.66,9.71c-1.27,4.28-2.47,8.32-2.93,12.45c0,3.04,0.99,6.02,1.95,8.91
			c0.47,1.41,0.96,2.87,1.31,4.3l0.95,2.18c7.4,16.87,15.06,34.31,9.9,52.86l-0.02,0.14c0,1.21,0.58,2.37,1.14,3.5
			c0.51,1.03,1,2,1.03,2.93c-0.82,2.46-1.62,5.49-2.33,8.16c-0.23,0.86-0.45,1.67-0.65,2.41c-0.17,0.63-4.09,15.43,1.61,18.99
			c3.02,1.89,6.93,2.48,10.24,2.48c2.7,0,5.01-0.4,6.1-0.8c1.07-0.4,2.81-1.6,4.66-2.87c1.96-1.35,4.18-2.88,5.34-3.22
			c3.37-0.99,11.36-3.51,12.64-5.51c0.9-1.4,1.05-2.61,1.06-3.27c0.99-0.28,3.2-1.12,3.2-2.96c0-1.9-0.47-2.66-0.93-3.15
			c-0.61-0.65-3.59-1.43-6.14-1.02c-1.09-0.55-4.13-1.83-7.54-3.76c-3.63-2.05-5.05-5.64-5.24-6.15c0.28-1.31,0.27-2.66-0.38-3.85
			c-0.08-0.14-0.17-0.3-0.29-0.48c-0.12-0.19-0.25-0.41-0.4-0.68c-0.01-0.06-0.03-0.12-0.09-0.17c0,0-0.01-0.01-0.01-0.01
			c-0.64-1.14-1.51-2.98-2.34-6.13c-1.64-6.21-0.88-13-0.15-19.57l0.09-0.84c0.58-3.64,1.27-7.38,1.94-10.99
			c3.1-16.64,6.3-33.84-0.9-50.04c-0.86-2.58-1.85-5.37-2.93-8.17c0.25-0.89,0.41-1.69,0.45-2.36c0.21-2.94,0-4.5-0.18-5.88
			c-0.14-1.02-0.25-1.89-0.18-3.16c0.03-0.52,0.25-2.22,0.58-4.79c1.54-12.03,5.63-43.98,4.19-63.43
			c-0.97-13.15-3.84-24.54-6.14-33.7c-1.79-7.1-3.2-12.71-2.97-16.31c0.67-10.31-3.7-24.6-4.29-26.48c0.29-0.66,1.08-2.84,1.73-8.06
			c0.58-4.68-2.55-10.23-4.43-13.54c-0.55-0.98-1.18-2.08-1.2-2.36c0-0.15,0-0.66-0.01-1.43c-0.14-14.76-0.06-23.07,0.24-24.71
			c0.31-1.67,1.53-4.87,2.83-8.26c0.9-2.37,1.84-4.83,2.58-7.04c0.46-1.39,1.17-4.35,1.98-8c1.46,3.69,4.42,9.88,6.61,13.36
			c2.98,4.73,4.79,15.07,4.81,15.17c-0.01,0.15-0.18,6.13,0.36,9.57c0.47,2.96,2.19,5.25,2.81,6c-0.35,1.05-1.31,4.69-1.01,12.02
			c0.2,4.73,3.28,12.88,6.26,20.76c2.61,6.9,5.17,13.41,5.57,17.4c0.82,8.2,0.8,9.37-0.5,11.49c-2.96,4.82-3.17,7.62-3.47,13.14
			l-0.08,1.45c-0.01,1.43-0.02,4.81,0.29,7.56c0.43,3.87,3.71,3.1,4.86,1.08c0.93-1.64,1.29-3.65,1.56-5.64
			c0.29-2.12,0.56-4.12,1.72-4.87c0.08-0.05,0.15-0.07,0.28-0.02c0.5,0.19,1.03,0.59,1.48,1.22c0.19,0.32,0.37,0.64,0.53,0.95
			c0.58,1.33,0.85,3.25,0.39,5.84c-0.54,2.13-0.73,4.08-0.78,4.71c-0.69,0.7-3.66,3.75-4.48,5c-1.99,3.03-0.34,6.22,0.47,7.46
			c0.39,2.28,1.67,4.11,1.76,4.23l0.05,0.07c0.17,0.23,0.51,0.26,0.71,0.05l1.14-1.17c0.29,3.62,3.06,4.4,3.08,4.41
			c0.55,0.17,0.72-0.4,0.72-0.4c0.2-0.53,4.57-12.91,5.37-15.38c1.87-5.73,2-18.62,1.47-33.68c-0.35-9.88,1.47-17.51,2.37-24.89
			c0.5-4.14,0.98-8.06,1.24-12.3C303.86,269.76,300.71,264.09,300.11,263.11z"/>
	</g>
	<g id="Teres_Major_00000170266571291453591910000017816078710593279377_">
		<g>
			<path class="st2" d="M242.65,195.4c1.8,2.85,3.36,5.85,4.72,8.98l0.03,0.09c5.18,0.53,10.72-0.1,12.37-4l0.01-0.06
				c1-5.05,1.83-9.38,2.17-11.21c-1.58-1-2.96-2.24-3.9-3.9C253.99,190.16,248.62,193.36,242.65,195.4"/>
			<path class="st3" d="M250.46,198.07c-2.18,0-4.39-0.22-6.58-0.64c-0.07-0.11-0.13-0.23-0.2-0.34c0.31-0.06,0.62-0.12,0.92-0.2
				c1.96,0.35,3.93,0.52,5.87,0.52c2.27,0,4.55-0.24,6.8-0.71c0.02,0.23,0.03,0.45,0.01,0.68
				C255.03,197.84,252.75,198.07,250.46,198.07"/>
			<path class="st3" d="M249.85,194.33c0.42-0.29,0.84-0.57,1.28-0.82c1.14-0.14,2.27-0.31,3.4-0.54c0.34,0.11,0.66,0.29,0.95,0.5
				C253.63,193.89,251.76,194.17,249.85,194.33"/>
			<path class="st3" d="M251.78,201.55c-2.05,0-4.11-0.29-6.13-0.85c-0.14-0.27-0.27-0.54-0.41-0.8c2.14,0.66,4.33,0.99,6.52,0.99
				c1.44,0,2.89-0.14,4.32-0.43c-0.21,0.28-0.44,0.54-0.69,0.79C254.2,201.45,252.99,201.55,251.78,201.55"/>
			<path class="st4" d="M248.25,204.47c1.91-0.15,3.77-0.9,5.43-1.88c0.62-0.37,1.21-0.82,1.72-1.33c1.49-0.24,2.98-0.64,4.44-1.18
				c-0.02,0.11-0.04,0.23-0.07,0.34l-0.01,0.06c-0.92,2.17-2.61,3.06-5.52,3.73c-1.11,0.25-2.68,0.35-3.91,0.35L248.25,204.47
				 M256.09,200.46c0.67-0.9,1.12-1.93,1.21-3.05c0-0.01,0-0.03,0-0.04c1.08-0.22,2.16-0.5,3.24-0.83
				c-0.17,0.88-0.35,1.81-0.54,2.77C258.7,199.82,257.4,200.2,256.09,200.46 M244.61,196.89c-0.39-0.07-0.78-0.14-1.18-0.23
				c-0.25-0.42-0.51-0.84-0.77-1.26c0.83-0.28,1.64-0.59,2.45-0.92c0.31,0.01,0.61,0.01,0.92,0.01c1.29,0,2.56-0.05,3.82-0.16
				c-0.39,0.27-0.77,0.54-1.16,0.79C247.44,195.93,246.05,196.52,244.61,196.89 M257.28,196.69c-0.13-1.26-0.81-2.49-1.8-3.21
				c2.01-0.44,4-1.04,5.99-1.78c-0.22,1.15-0.49,2.55-0.79,4.1C259.55,196.16,258.42,196.45,257.28,196.69 M246.66,193.81
				c1.51-0.69,2.96-1.47,4.35-2.36c0.26-0.16,0.52-0.33,0.77-0.51l0.02,0c3.05-0.43,5.98-1.36,8.71-2.77
				c0.45,0.37,0.93,0.71,1.43,1.03c-0.08,0.44-0.19,1.02-0.33,1.73c-2.31,0.89-4.68,1.57-7.09,2.05c-0.29-0.1-0.59-0.15-0.9-0.17
				c-0.05,0-0.1,0-0.14,0c-0.84,0-1.61,0.29-2.36,0.71C249.65,193.69,248.16,193.79,246.66,193.81 M253.01,190.07
				c1.62-1.21,3.12-2.57,4.48-4.12c0.19-0.21,0.37-0.42,0.55-0.64c0.52,0.91,1.17,1.7,1.92,2.39
				C257.77,188.81,255.44,189.61,253.01,190.07"/>
			<path class="st5" d="M257.3,197.37c0.01-0.23,0.01-0.45-0.01-0.68c1.14-0.24,2.27-0.54,3.39-0.89c-0.05,0.24-0.1,0.49-0.14,0.74
				C259.46,196.87,258.38,197.15,257.3,197.37 M243.68,197.09c-0.08-0.14-0.17-0.29-0.25-0.43c0.39,0.08,0.78,0.16,1.18,0.23
				C244.3,196.96,243.99,197.03,243.68,197.09"/>
			<path class="st5" d="M246.03,194.49c-0.31,0-0.61,0-0.92-0.01c0.52-0.21,1.04-0.44,1.55-0.67c1.5-0.02,2.99-0.12,4.47-0.3
				c-0.44,0.24-0.86,0.53-1.28,0.82C248.59,194.44,247.32,194.49,246.03,194.49 M255.48,193.48c-0.29-0.21-0.61-0.38-0.95-0.5
				c2.41-0.48,4.77-1.16,7.09-2.05c-0.05,0.24-0.09,0.5-0.15,0.77C259.48,192.44,257.49,193.03,255.48,193.48"/>
			<path class="st5" d="M255.4,201.25c0.25-0.25,0.48-0.51,0.69-0.79c1.32-0.26,2.62-0.64,3.9-1.15c-0.05,0.25-0.1,0.5-0.15,0.76
				C258.38,200.62,256.89,201.01,255.4,201.25"/>
			<path class="st5" d="M251.78,190.95c0.42-0.28,0.83-0.57,1.23-0.88c2.43-0.46,4.76-1.26,6.95-2.37c0.18,0.16,0.36,0.32,0.54,0.47
				c-2.73,1.41-5.66,2.35-8.71,2.77L251.78,190.95"/>
		</g>
		<g>
			<path class="st2" d="M185.09,195.4c-1.8,2.85-3.36,5.85-4.72,8.98l-0.03,0.09c-5.18,0.53-10.72-0.1-12.37-4l-0.01-0.06
				c-1-5.05-1.83-9.38-2.17-11.21c1.58-1,2.96-2.24,3.9-3.9C173.75,190.16,179.12,193.36,185.09,195.4"/>
			<path class="st3" d="M177.28,198.07c2.18,0,4.39-0.22,6.58-0.64c0.07-0.11,0.13-0.23,0.2-0.34c-0.31-0.06-0.62-0.12-0.92-0.2
				c-1.96,0.35-3.93,0.52-5.87,0.52c-2.27,0-4.55-0.24-6.8-0.71c-0.02,0.23-0.03,0.45-0.01,0.68
				C172.71,197.84,174.99,198.07,177.28,198.07"/>
			<path class="st3" d="M177.89,194.33c-0.42-0.29-0.84-0.57-1.28-0.82c-1.14-0.14-2.27-0.31-3.4-0.54
				c-0.34,0.11-0.66,0.29-0.95,0.5C174.11,193.89,175.98,194.17,177.89,194.33"/>
			<path class="st3" d="M175.96,201.55c2.05,0,4.11-0.29,6.13-0.85c0.14-0.27,0.27-0.54,0.41-0.8c-2.14,0.66-4.33,0.99-6.52,0.99
				c-1.44,0-2.89-0.14-4.32-0.43c0.21,0.28,0.44,0.54,0.69,0.79C173.54,201.45,174.75,201.55,175.96,201.55"/>
			<path class="st4" d="M179.49,204.47l-2.07,0.08c-1.23,0-2.81-0.1-3.91-0.35c-2.91-0.67-4.6-1.56-5.52-3.73l-0.01-0.06
				c-0.02-0.11-0.04-0.23-0.07-0.34c1.46,0.54,2.94,0.94,4.44,1.18c0.51,0.52,1.1,0.97,1.72,1.33
				C175.72,203.57,177.58,204.31,179.49,204.47 M171.65,200.46c-1.32-0.26-2.62-0.64-3.9-1.15c-0.19-0.96-0.37-1.89-0.54-2.77
				c1.07,0.33,2.15,0.61,3.24,0.83c0,0.01,0,0.03,0,0.04C170.53,198.53,170.98,199.57,171.65,200.46 M183.13,196.89
				c-1.44-0.36-2.83-0.95-4.08-1.76c-0.39-0.25-0.77-0.52-1.16-0.79c1.26,0.11,2.53,0.16,3.82,0.16c0.31,0,0.61,0,0.92-0.01
				c0.8,0.33,1.62,0.63,2.45,0.92c-0.26,0.42-0.52,0.84-0.77,1.26C183.92,196.74,183.53,196.82,183.13,196.89 M170.46,196.69
				c-1.14-0.24-2.27-0.54-3.39-0.89c-0.3-1.56-0.57-2.95-0.79-4.1c1.98,0.74,3.97,1.34,5.99,1.78
				C171.27,194.2,170.58,195.43,170.46,196.69 M181.08,193.81c-1.5-0.02-2.99-0.12-4.47-0.3c-0.74-0.41-1.52-0.71-2.36-0.71
				c-0.05,0-0.1,0-0.14,0c-0.31,0.01-0.61,0.07-0.9,0.17c-2.41-0.48-4.77-1.16-7.09-2.05c-0.13-0.7-0.24-1.29-0.33-1.73
				c0.5-0.32,0.98-0.66,1.43-1.03c2.73,1.41,5.66,2.35,8.71,2.77l0.02,0c0.26,0.17,0.51,0.34,0.77,0.51
				C178.12,192.34,179.57,193.12,181.08,193.81 M174.73,190.07c-2.43-0.46-4.76-1.26-6.95-2.37c0.74-0.69,1.4-1.47,1.92-2.39
				c0.18,0.22,0.36,0.43,0.55,0.64C171.61,187.5,173.11,188.87,174.73,190.07"/>
			<path class="st5" d="M170.44,197.37c-1.08-0.22-2.16-0.5-3.24-0.83c-0.05-0.25-0.1-0.5-0.14-0.74c1.12,0.36,2.26,0.66,3.39,0.89
				C170.44,196.92,170.43,197.14,170.44,197.37 M184.06,197.09c-0.31-0.06-0.62-0.12-0.92-0.2c0.39-0.07,0.78-0.14,1.18-0.23
				C184.22,196.8,184.14,196.94,184.06,197.09"/>
			<path class="st5" d="M181.71,194.49c-1.29,0-2.56-0.05-3.82-0.16c-0.42-0.29-0.84-0.57-1.28-0.82c1.48,0.17,2.97,0.27,4.47,0.3
				c0.51,0.23,1.02,0.46,1.55,0.67C182.32,194.49,182.01,194.49,181.71,194.49 M172.26,193.48c-2.01-0.44-4-1.04-5.99-1.78
				c-0.05-0.27-0.1-0.53-0.15-0.77c2.31,0.89,4.68,1.57,7.09,2.05C172.87,193.1,172.55,193.27,172.26,193.48"/>
			<path class="st5" d="M172.34,201.25c-0.25-0.25-0.48-0.51-0.69-0.79c-1.32-0.26-2.62-0.64-3.9-1.15c0.05,0.25,0.1,0.5,0.15,0.76
				C169.36,200.62,170.85,201.01,172.34,201.25"/>
			<path class="st5" d="M175.96,190.95c-0.42-0.28-0.83-0.57-1.23-0.88c-2.43-0.46-4.76-1.26-6.95-2.37
				c-0.18,0.16-0.36,0.32-0.54,0.47c2.73,1.41,5.66,2.35,8.71,2.77L175.96,190.95"/>
		</g>
	</g>
	<path d="M300.12,263.11v-8.7c0-8.48-6.35-17.73-7.24-18.99c-0.09-1.62-0.79-13.98-1.99-19.81c-1.13-5.5-3.15-10.78-3.57-11.83
		c0.32-0.94,1.69-5.11,2.49-10.21c0.92-5.86-3.06-20.25-5.46-26.31c-1.59-4.03-4.9-5.55-7.56-6.78c-1.44-0.66-2.68-1.23-3.38-2.05
		c-1.79-2.09-3.58-2.67-5.16-3.17c-0.41-0.13-0.82-0.26-1.2-0.41c-0.6-0.24-1.14-0.73-1.95-1.47c-1.38-1.25-3.46-3.15-7.92-5.73
		c-2.58-1.49-6.4-3.25-10.45-5.1c-6.06-2.77-12.93-5.92-14.53-7.9c-0.65-0.81-1.59-3.52-2.46-6.35c0.49-0.97,1.84-3.64,1.96-4.05
		c0.52-1.81,0.58-4.28,0.56-5.77c0.3,0.14,0.67,0.22,1.1,0.16c1.49-0.18,2.88-2.5,4.55-5.51c0.47-0.84,0.91-1.64,1.25-2.13
		c1.44-2.06,1.13-6.53,0.07-9.87c-0.31-0.98-0.83-1.54-1.56-1.67c-0.99-0.18-2.08,0.57-2.86,1.29c0.15-4.17,0.09-15.9-4.72-21.68
		c-4.15-4.97-12.44-6.21-15.58-6.51h-1.24c-3.14,0.3-11.44,1.53-15.58,6.51c-4.81,5.78-4.87,17.51-4.72,21.68
		c-0.78-0.72-1.87-1.47-2.86-1.29c-0.72,0.13-1.25,0.7-1.56,1.67c-1.06,3.35-1.37,7.81,0.07,9.87c0.34,0.48,0.78,1.28,1.25,2.13
		c1.67,3.01,3.06,5.33,4.55,5.51c0.44,0.05,0.8-0.02,1.1-0.16c-0.02,1.5,0.04,3.97,0.56,5.77c0.12,0.41,1.44,3.04,1.95,4.03
		c-0.87,2.84-1.81,5.57-2.46,6.38c-1.61,1.98-8.47,5.13-14.53,7.9c-4.05,1.85-7.87,3.6-10.45,5.1c-4.46,2.59-6.54,4.48-7.92,5.73
		c-0.81,0.74-1.35,1.23-1.95,1.47c-0.38,0.15-0.79,0.28-1.2,0.41c-1.58,0.5-3.36,1.08-5.16,3.17c-0.7,0.82-1.94,1.39-3.38,2.05
		c-2.66,1.23-5.97,2.75-7.56,6.78c-2.39,6.07-6.37,20.45-5.46,26.31c0.8,5.1,2.17,9.27,2.49,10.21c-0.42,1.06-2.44,6.33-3.57,11.83
		c-1.2,5.83-1.9,18.18-1.99,19.81c-0.89,1.26-7.24,10.5-7.24,18.99v8.7c-0.6,0.98-3.74,6.65-3.07,17.73
		c0.26,4.25,0.73,8.16,1.24,12.3c0.9,7.38,2.72,15.01,2.37,24.89c-0.53,15.06-0.4,27.95,1.47,33.68c0.81,2.47,5.17,14.85,5.37,15.38
		c0,0,0.17,0.57,0.72,0.4c0.03-0.01,2.79-0.79,3.08-4.41l1.14,1.17c0.2,0.21,0.54,0.18,0.71-0.05l0.05-0.07
		c0.09-0.12,1.37-1.95,1.76-4.23c0.81-1.24,2.46-4.43,0.47-7.46c-0.82-1.26-3.79-4.3-4.48-5c-0.05-0.63-0.25-2.58-0.78-4.71
		c-0.46-2.59-0.19-4.52,0.39-5.84c0.16-0.32,0.34-0.63,0.53-0.95c0.45-0.63,0.98-1.03,1.48-1.22c0.13-0.05,0.2-0.03,0.28,0.02
		c1.16,0.75,1.43,2.75,1.72,4.87c0.27,1.99,0.62,3.99,1.56,5.64c1.15,2.02,4.43,2.79,4.86-1.08c0.3-2.75,0.3-6.12,0.29-7.56
		l-0.08-1.45c-0.3-5.52-0.51-8.32-3.47-13.14c-1.3-2.11-1.32-3.28-0.5-11.49c0.4-3.99,2.96-10.5,5.57-17.4
		c2.98-7.88,6.06-16.03,6.26-20.76c0.3-7.33-0.66-10.97-1.01-12.02c0.62-0.74,2.34-3.03,2.81-6c0.54-3.45,0.37-9.43,0.36-9.57
		c0.02-0.1,1.82-10.43,4.81-15.17c2.2-3.49,5.17-9.71,6.62-13.4c0.81,3.67,1.52,6.64,1.99,8.04c0.74,2.21,1.67,4.66,2.58,7.04
		c1.29,3.39,2.51,6.59,2.83,8.26c0.31,1.64,0.39,9.95,0.24,24.71c-0.01,0.77-0.01,1.28-0.01,1.43c-0.03,0.28-0.65,1.39-1.2,2.36
		c-1.87,3.31-5.01,8.86-4.43,13.54c0.65,5.22,1.44,7.41,1.73,8.06c-0.59,1.88-4.96,16.17-4.29,26.48c0.23,3.6-1.18,9.2-2.97,16.31
		c-2.31,9.15-5.17,20.55-6.15,33.7c-1.44,19.45,2.66,51.4,4.19,63.43c0.33,2.57,0.55,4.28,0.58,4.79c0.07,1.27-0.04,2.15-0.18,3.16
		c-0.19,1.38-0.39,2.95-0.18,5.89c0.05,0.67,0.2,1.46,0.45,2.34c-1.08,2.81-2.07,5.6-2.94,8.19c-7.2,16.19-4,33.4-0.9,50.04
		c0.67,3.61,1.36,7.34,1.94,10.99l0.09,0.84c0.73,6.57,1.49,13.36-0.15,19.57c-0.83,3.14-1.7,4.98-2.34,6.13
		c0,0-0.01,0.01-0.01,0.01c-0.06,0.05-0.08,0.11-0.09,0.17c-0.15,0.26-0.29,0.49-0.4,0.68c-0.11,0.19-0.21,0.35-0.29,0.48
		c-0.65,1.18-0.66,2.54-0.38,3.85c-0.19,0.51-1.62,4.1-5.24,6.15c-3.41,1.93-6.45,3.21-7.54,3.76c-2.55-0.41-5.54,0.37-6.14,1.02
		c-0.46,0.49-0.93,1.25-0.93,3.15c0,1.84,2.21,2.68,3.2,2.96c0,0.65,0.16,1.87,1.06,3.27c1.29,2,9.27,4.52,12.64,5.51
		c1.15,0.34,3.37,1.87,5.34,3.22c1.85,1.27,3.59,2.47,4.66,2.87c1.09,0.41,3.4,0.8,6.1,0.8c3.31,0,7.22-0.59,10.24-2.48
		c5.7-3.56,1.78-18.36,1.61-18.99c-0.2-0.74-0.42-1.55-0.65-2.41c-0.71-2.67-1.52-5.7-2.33-8.16c0.03-0.93,0.51-1.9,1.03-2.93
		c0.56-1.12,1.14-2.28,1.14-3.5l-0.02-0.14c-5.15-18.56,2.5-36,9.9-52.86l0.95-2.18c0.36-1.43,0.84-2.89,1.31-4.3
		c0.96-2.89,1.96-5.87,1.95-8.91c-0.46-4.13-1.66-8.17-2.93-12.45c-0.75-2.54-1.77-6.28-2.67-9.68c4.41-6.71,8.28-15.24,9.21-20.32
		c0.7-3.79,1.3-10.95,2-19.25c0.62-7.33,1.32-15.63,2.17-22.27c1.05-8.19,3.22-17.43,4.96-24.85c1.19-5.08,2.22-9.47,2.56-12.11
		c0.74-5.85-0.34-12.72-0.59-14.15c0.68-2.1,0.97-4.49,1.03-6.91c0.06,2.43,0.35,4.82,1.03,6.91c-0.25,1.43-1.33,8.3-0.59,14.15
		c0.34,2.65,1.37,7.03,2.56,12.11c1.74,7.43,3.91,16.67,4.96,24.85c0.85,6.63,1.55,14.94,2.17,22.27c0.7,8.3,1.3,15.46,2,19.25
		c0.93,5.07,4.79,13.59,9.19,20.29c-0.94,3.55-1.98,7.41-2.66,9.71c-1.27,4.28-2.47,8.32-2.93,12.45c0,3.04,0.99,6.02,1.95,8.91
		c0.47,1.41,0.96,2.87,1.31,4.3l0.95,2.18c7.4,16.87,15.06,34.31,9.9,52.86l-0.02,0.14c0,1.21,0.58,2.37,1.14,3.5
		c0.51,1.03,1,2,1.03,2.93c-0.82,2.46-1.62,5.49-2.33,8.16c-0.23,0.86-0.45,1.67-0.65,2.41c-0.17,0.63-4.09,15.43,1.61,18.99
		c3.02,1.89,6.93,2.48,10.24,2.48c2.7,0,5.01-0.4,6.1-0.8c1.07-0.4,2.81-1.6,4.66-2.87c1.96-1.35,4.18-2.88,5.34-3.22
		c3.37-0.99,11.36-3.51,12.64-5.51c0.9-1.4,1.05-2.61,1.06-3.27c0.99-0.28,3.2-1.12,3.2-2.96c0-1.9-0.47-2.66-0.93-3.15
		c-0.61-0.65-3.59-1.43-6.14-1.02c-1.09-0.55-4.13-1.83-7.54-3.76c-3.63-2.05-5.05-5.64-5.24-6.15c0.28-1.31,0.27-2.66-0.38-3.85
		c-0.07-0.14-0.17-0.3-0.29-0.48c-0.12-0.19-0.25-0.41-0.4-0.68c-0.01-0.06-0.03-0.12-0.09-0.17c0,0-0.01-0.01-0.01-0.01
		c-0.64-1.14-1.51-2.98-2.34-6.13c-1.64-6.21-0.88-13-0.15-19.57l0.09-0.84c0.58-3.64,1.27-7.38,1.94-10.99
		c3.1-16.64,6.3-33.84-0.9-50.04c-0.86-2.58-1.85-5.37-2.93-8.17c0.25-0.89,0.41-1.69,0.45-2.36c0.21-2.94,0-4.51-0.18-5.89
		c-0.14-1.02-0.25-1.89-0.18-3.16c0.03-0.52,0.25-2.22,0.58-4.79c1.54-12.03,5.63-43.98,4.19-63.43
		c-0.97-13.15-3.84-24.54-6.14-33.7c-1.79-7.1-3.2-12.71-2.97-16.31c0.67-10.31-3.7-24.6-4.29-26.48c0.29-0.66,1.08-2.84,1.73-8.06
		c0.58-4.68-2.55-10.23-4.43-13.54c-0.55-0.98-1.18-2.08-1.2-2.36c0-0.15,0-0.66-0.01-1.43c-0.14-14.76-0.06-23.07,0.24-24.71
		c0.31-1.67,1.53-4.87,2.83-8.26c0.91-2.37,1.84-4.83,2.58-7.04c0.46-1.39,1.17-4.35,1.98-8c1.46,3.69,4.42,9.88,6.61,13.36
		c2.98,4.73,4.79,15.07,4.81,15.17c-0.01,0.15-0.18,6.13,0.36,9.57c0.47,2.96,2.19,5.25,2.81,6c-0.35,1.05-1.31,4.69-1.01,12.02
		c0.2,4.73,3.28,12.88,6.26,20.76c2.61,6.9,5.17,13.41,5.57,17.4c0.82,8.2,0.8,9.38-0.5,11.49c-2.96,4.82-3.17,7.62-3.47,13.14
		l-0.08,1.45c-0.01,1.43-0.02,4.81,0.29,7.56c0.43,3.87,3.71,3.1,4.86,1.08c0.93-1.64,1.29-3.65,1.56-5.64
		c0.29-2.12,0.56-4.12,1.72-4.87c0.08-0.05,0.15-0.07,0.28-0.02c0.5,0.19,1.03,0.59,1.48,1.22c0.19,0.32,0.37,0.64,0.53,0.95
		c0.58,1.33,0.85,3.25,0.39,5.84c-0.54,2.13-0.73,4.08-0.78,4.71c-0.69,0.7-3.66,3.75-4.48,5c-1.99,3.03-0.34,6.22,0.47,7.46
		c0.39,2.28,1.67,4.11,1.76,4.23l0.05,0.07c0.17,0.23,0.51,0.26,0.71,0.05l1.14-1.17c0.29,3.62,3.06,4.4,3.08,4.41
		c0.55,0.17,0.72-0.4,0.72-0.4c0.2-0.53,4.56-12.91,5.37-15.38c1.87-5.73,2-18.62,1.47-33.68c-0.35-9.88,1.47-17.51,2.37-24.89
		c0.5-4.14,0.98-8.06,1.24-12.3C303.86,269.76,300.72,264.09,300.12,263.11z M291.9,235.93c0.05,0.07,3.23,4.5,5.33,10
		c0.07,0.19,0.14,0.38,0.21,0.57c0.03,0.09,0.07,0.19,0.1,0.28c0.07,0.19,0.13,0.37,0.19,0.56c0.77,2.3,1.29,4.74,1.29,7.08v8.12
		c-4.11-4.97-10.01-8.81-11.16-15.32c1.49-3.58,2.89-7.59,4-11.32L291.9,235.93z M273.93,160.23c0.72,0.45,1.55,0.83,2.41,1.23
		c2.61,1.2,5.58,2.57,7,6.19c2.35,5.97,6.28,20.08,5.39,25.75c-0.68,4.35-1.78,8.01-2.27,9.49c-2.34-2.55-4.82-4.98-7.71-6.82
		c-4.69-2.99-10.02-4-14.89-6.51c-7.79-4.03-8.85-16.44-2.23-22.77C265.44,163.17,269.28,160.9,273.93,160.23z M215.5,198.24
		c-0.34-8.86-2.07-18.48,0.16-27.21c1.83-7.17,6.24-12.45,12.49-15.92c3.65,2,7.77,3.32,12.04,3.98c3.77,0.58,12.23,1.87,18.81,0.74
		c0.83,5.66-6.82,6.04-10.03,6.23c-1.09,0.07-2.14,0.11-3.23,0.28c-2.28,0.36-5.37,0.58-7.34,1.95c-3.66,2.55-2.83,7.04-1.96,10.97
		c2.12,9.57,5.37,18.43,0.68,27.91c-3.39,6.86-8,13.07-12.31,19.38c-1.38,2.01-2.86,3.93-4.27,5.92c-1.02,1.44-5,4.44-4.97,1.42
		c0.04-3.84-0.22-7.7-0.27-11.55C215.19,214.32,215.8,206.25,215.5,198.24z M257.2,183.34c0.15,0.47,0.33,0.9,0.53,1.32
		c-4.04,4.91-9.42,8.13-15.42,10.15c-0.7-1.09-1.42-2.16-2.19-3.21c-0.04-0.05-0.08-0.08-0.13-0.1c-0.16-1.1-0.38-2.23-0.67-3.38
		c-1.4-5.55-6.65-18.03,1.74-20.15c1.09-0.28,2.19-0.45,3.28-0.58c4.54,2.03,8.54,4.87,11.97,8.48c0.01,0.01,0.02,0.01,0.03,0.02
		C256.14,178.22,256.38,180.72,257.2,183.34z M240.15,192.79c2.53,3.61,4.7,7.43,6.49,11.49c-2.87-0.35-5.56-1.01-7.32-1.58
		C240.18,199.5,240.49,196.24,240.15,192.79z M242.67,195.37c5.96-2.03,11.34-5.23,15.39-10.09c0.95,1.66,2.32,2.91,3.92,3.91
		c-0.35,1.82-1.18,6.12-2.18,11.13c-1.57,4-7.18,4.57-12.41,4.04C246.03,201.23,244.46,198.24,242.67,195.37z M266.69,155.86
		c0.4,0.16,0.81,0.29,1.23,0.43c1.51,0.48,3.07,0.98,4.67,2.84c0.17,0.19,0.36,0.37,0.56,0.54c-8.53,1.36-15.51,7.27-16.69,15.4
		c-3.16-3.24-6.79-5.86-10.86-7.81c2.78-0.25,5.56-0.29,8.28-0.89c3.7-0.81,6.25-3.25,5.78-6.66
		C262.71,159.1,265.28,157.92,266.69,155.86z M246.29,143.53c4.02,1.84,7.82,3.58,10.35,5.05c4.36,2.53,6.39,4.37,7.73,5.6
		c0.65,0.59,1.17,1.06,1.72,1.39c-5.44,7.92-29.36,2.58-34.87,0.35c-5.88-2.38-8.39-5.37-12.01-10.37
		c-3.55-4.91-3.95-9.27-4.07-15.13c-0.07-3.34-0.24-6.72-0.14-10.06c0-1,0.08-1.99,0.24-2.97c0.11-1.14,1.29-2.14,2.46-1.7
		c1.26,0.49,2.22,1.72,2.79,2.87c0.54,1.07,1.03,2.17,1.55,3.25c2.38,4.9,5.1,10.08,9.37,13.57
		C233.26,137.56,239.88,140.6,246.29,143.53z M200.21,120.51c0,0-0.75,2.97-1.69,6.21c-0.46-0.9-1.28-2.52-1.36-2.78
		c-0.73-2.53-0.47-6.67-0.47-6.71l0.16-2.56l-1.19,2.28c-0.01,0.03-0.38,0.69-1.08,0.61c-1.06-0.13-2.73-3.15-3.74-4.96
		c-0.5-0.91-0.94-1.69-1.31-2.22c-1.08-1.54-1.05-5.38,0.07-8.93c0.18-0.56,0.42-0.88,0.72-0.93c0.77-0.14,2.13,1.09,2.86,2.01
		l1.1,1.38l-0.13-1.76c-0.01-0.16-1.12-15.78,4.4-22.39c4.09-4.91,12.9-5.96,15.37-6.16c2.46,0.2,11.28,1.26,15.37,6.16
		c5.51,6.61,4.41,22.23,4.4,22.39l-0.13,1.76l1.1-1.38c0.73-0.92,2.08-2.15,2.86-2.01c0.3,0.06,0.54,0.37,0.72,0.93
		c1.12,3.55,1.15,7.39,0.07,8.93c-0.37,0.53-0.81,1.32-1.31,2.22c-1,1.81-2.68,4.83-3.74,4.96c-0.69,0.08-1.06-0.58-1.08-0.61
		l-1.19-2.28l0.16,2.56c0,0.04,0.26,4.19-0.47,6.71c-0.08,0.26-0.91,1.91-1.38,2.81c-0.95-3.25-1.7-6.23-1.7-6.23
		c0.06,0.43,1.3,9.12,2.92,13.2c-4.08-3.97-6.54-9.54-9-14.61c-0.56-1.15-2.9-5.99-5.21-4.62c-2.39,1.42-1.98,5.38-1.92,7.76
		c0.15,5.25-0.75,11.28,0.58,16.4c1.9,7.31,6.54,12.65,12.52,16.11c-5.52,3.13-10.38,8.01-11.98,14.28
		c-2.63,10.32-0.58,20.66-0.62,31.13c-0.05,11.22,0.32,22.54,0.05,33.75c-0.04,1.66,0.65,3.87,2.05,3.59
		c0.12,1.77,0.31,3.55,0.53,5.31c-0.7-1.32-1.87-3.32-2.84-4.3c-0.4-0.4-1.12-0.38-1.54,0.04c-0.94,0.95-2.02,2.63-2.77,3.96
		c0.2-1.67,0.38-3.34,0.49-5.02c1.39,0.27,2.08-1.93,2.04-3.59c-0.27-11.2,0.1-22.53,0.05-33.75c-0.04-10.47,2.01-20.8-0.62-31.13
		c-1.6-6.27-6.46-11.15-11.98-14.28c5.98-3.46,10.63-8.79,12.52-16.11c1.33-5.12,0.43-11.15,0.58-16.4
		c0.07-2.37,0.48-6.33-1.92-7.76c-2.31-1.37-4.66,3.46-5.21,4.62c-2.46,5.09-4.93,10.67-9.03,14.64
		C198.9,129.67,200.15,120.94,200.21,120.51z M217.77,244.87c1.1,7.74,3.01,15.4,5.18,22.86c0.83,2.86,1.84,10.29,5.5,12.21
		c2.61,2.06,1.96,5.37,1.7,6.43c-0.55,2.29-11.82,16.61-15.69,20.38c-0.3,0.29-0.86,0.3-1.17,0.01
		c-4.16-3.86-15.36-17.88-15.91-20.17c-0.26-1.07-0.81-4.51,1.85-6.58c3.78-1.81,4.79-9.38,5.63-12.28
		c2.2-7.59,4.13-15.39,5.23-23.27c0.86-1.76,2.18-3.86,3.02-4.96c0.6-0.79,1.06-0.71,1.6,0.08
		C215.45,240.61,216.92,243.05,217.77,244.87z M171.43,175.89c0.02-0.01,0.03-0.02,0.05-0.03c3.43-3.6,7.44-6.45,11.97-8.48
		c1.1,0.13,2.19,0.31,3.28,0.58c8.39,2.13,3.14,14.6,1.74,20.15c-0.29,1.15-0.51,2.27-0.67,3.38c-0.05,0.02-0.09,0.05-0.13,0.1
		c-0.76,1.05-1.49,2.12-2.19,3.21c-6.01-2.02-11.39-5.25-15.43-10.16c0.2-0.41,0.38-0.84,0.52-1.3
		C171.41,180.73,171.65,178.23,171.43,175.89z M185.14,195.37c-1.79,2.87-3.37,5.86-4.73,8.99c-5.1,0.53-10.57,0.02-12.33-3.68
		c-1.03-5.18-1.89-9.65-2.25-11.51c1.59-0.99,2.96-2.25,3.91-3.91C173.8,190.13,179.18,193.34,185.14,195.37z M187.66,192.79
		c-0.34,3.45-0.03,6.71,0.83,9.91c-1.75,0.57-4.44,1.23-7.32,1.59C182.96,200.22,185.12,196.4,187.66,192.79z M191.37,179.27
		c0.87-3.93,1.7-8.42-1.95-10.97c-1.98-1.38-5.07-1.59-7.34-1.95c-1.09-0.17-2.14-0.22-3.23-0.28c-3.22-0.19-10.87-0.57-10.03-6.23
		c6.58,1.13,15.04-0.16,18.81-0.74c4.27-0.66,8.39-1.98,12.04-3.98c6.25,3.47,10.67,8.75,12.49,15.92
		c2.23,8.73,0.5,18.34,0.16,27.21c-0.3,8.01,0.3,16.08,0.19,24.1c-0.06,3.85-0.31,7.7-0.27,11.55c0.03,3.02-3.95,0.03-4.97-1.42
		c-1.41-1.99-2.89-3.9-4.27-5.92c-4.31-6.3-8.97-12.5-12.36-19.36c-0.72-1.46-1.25-2.9-1.63-4.33c0,0,0-0.01,0-0.01
		C186.94,194.97,189.57,187.37,191.37,179.27z M163.42,154.18c1.35-1.22,3.38-3.07,7.73-5.6c2.53-1.47,6.33-3.21,10.35-5.05
		c6.35-2.91,12.91-5.92,14.81-8.09c4.3-3.49,7.04-8.69,9.44-13.62c0.53-1.08,1.01-2.18,1.55-3.25c0.58-1.15,1.53-2.39,2.79-2.87
		c1.16-0.45,2.35,0.56,2.46,1.7c0.16,0.99,0.24,1.98,0.24,2.97c0.1,3.34-0.07,6.72-0.14,10.06c-0.12,5.87-0.51,10.23-4.06,15.13
		c-3.61,5-6.13,7.99-12.01,10.37c-5.51,2.23-29.45,7.57-34.87-0.36C162.26,155.23,162.77,154.76,163.42,154.18z M155.2,159.13
		c1.59-1.86,3.16-2.36,4.67-2.84c0.43-0.14,0.85-0.27,1.25-0.43c1.41,2.07,3.99,3.24,7.03,3.85c-0.47,3.42,2.08,5.86,5.78,6.66
		c2.72,0.59,5.5,0.64,8.28,0.89c-4.08,1.96-7.71,4.58-10.87,7.83c-1.17-8.14-8.15-14.06-16.69-15.41
		C154.84,159.5,155.04,159.33,155.2,159.13z M139.06,193.41c-0.89-5.67,3.04-19.78,5.39-25.75c1.43-3.62,4.39-4.99,7-6.19
		c0.86-0.4,1.69-0.78,2.41-1.23c4.65,0.67,8.5,2.93,12.28,6.56c6.62,6.34,5.56,18.75-2.23,22.77c-4.87,2.52-10.2,3.52-14.89,6.51
		c-2.88,1.84-5.37,4.27-7.71,6.82C140.84,201.42,139.74,197.76,139.06,193.41z M128.76,254.41c0-2.34,0.53-4.77,1.29-7.08
		c0.06-0.19,0.13-0.38,0.19-0.56c0.03-0.09,0.07-0.19,0.1-0.28c0.07-0.19,0.14-0.38,0.21-0.57c2.1-5.5,5.28-9.93,5.33-10l0.03-0.04
		c1.11,3.73,2.51,7.74,4,11.32c-1.15,6.51-7.05,10.35-11.16,15.32V254.41z M127.64,298.17c-0.27-1.75-0.52-3.46-0.73-5.16
		c-0.5-4.13-0.97-8.02-1.23-12.24c-0.02-0.27-0.03-0.54-0.04-0.81c-0.01-0.15-0.01-0.29-0.02-0.44c-0.01-0.2-0.01-0.4-0.02-0.59
		c0-0.13-0.01-0.26-0.01-0.39c0-0.2,0-0.41,0-0.61c0-0.12,0-0.23,0-0.35c0-0.23,0.01-0.45,0.01-0.67c0-0.08,0-0.17,0-0.25
		c0.23-8.36,2.75-12.62,3.03-13.06c3.9-5.21,10.06-9.01,11.7-15.42c0.32,0.74,0.64,1.45,0.96,2.14c0.39,0.84,0.87,1.33,1.41,1.58
		c-1.81,9.29-6.39,17.15-10.4,25.69C129.25,284.09,127.94,291.09,127.64,298.17z M144.74,252.02c0.04,5.28,1.94,10.13,5.49,14.03
		c-1.29,2.13-2.45,4.36-3.49,6.66c-3.18-5-4.69-10.61-4.36-16.59c0.37-1.31,0.7-2.64,0.97-4.01
		C143.79,252.18,144.25,252.14,144.74,252.02z M143.6,250.7c0.85-9.82,3.9-19.98,9.28-28.34c0.58-0.95,1.32-1.75,2.22-2.4
		c3.71-2.73,1.52,5.81,1.38,6.24c-0.65,2.05-1.35,4.09-1.98,6.15c-1.92,6.32-4.21,12.47-7.59,18.13c-0.13,0.03-0.26,0.07-0.39,0.11
		C145.3,250.92,144.36,250.93,143.6,250.7z M146.41,273.43c-3.43,7.8-5.42,16.42-5.8,24.98c-1.21,4.44-3.14,9.8-3.97,14.18
		c-0.39,2.07-0.64,4.17-1.06,6.24c-0.03,0.13-0.06,0.25-0.09,0.38c-0.01,0.04-0.02,0.07-0.03,0.11c-0.03,0.09-0.06,0.18-0.09,0.26
		c-1.07,2.89-4.5,4.32-4.93-0.33c-1.07-11.36-0.28-24.63,0.52-35.91c0.87-2.77,1.95-5.51,3.28-8.23c2.78-5.68,5.57-11.01,7.49-16.81
		C141.81,263.73,143.4,268.85,146.41,273.43z M137.8,362.44c0,2.42-1.19,3.42-1.86,3.8c-0.58-1.53-2.25-6.08-3.56-9.8l5.43,5.56
		C137.8,362.15,137.8,362.34,137.8,362.44z M140.22,362.92l-8.68-8.88c-0.39-1.15-0.68-2.07-0.81-2.57
		c-0.27-1.09-0.51-2.29-0.72-3.6c1.07,1.97,2.62,4.24,4.22,5.93c3.15,3.31,6.5,6.15,7.04,6.61
		C141,361.47,140.54,362.37,140.22,362.92z M144.43,322.67c2.31,3.66,2.94,7.2,3.23,12.52l0.08,1.43c0.02,2.55-0.08,5.32-0.29,7.4
		c-0.17,1.7-1.54,2.7-2.86,0.62c-0.89-1.4-1.15-3.33-1.4-5.2c-0.32-2.37-0.62-4.62-2.21-5.64c-0.24-0.15-0.5-0.22-0.77-0.21
		c0.97-1.3,1.89-2.38,2.27-2.91c-1.84,0.66-5.9,3.96-6.08,7.5c-0.23,1.21-0.22,2.61,0.12,4.18c-0.01,0.06,0,0.13,0.02,0.21
		c0.7,2.59,0.87,5.09,0.87,5.13c0.22,0.84,3.79,4.02,4.65,5.32c1.67,2.55,0.24,5.23-0.46,6.27c-1.07-0.91-3.9-3.39-6.6-6.22
		c-2.71-2.85-5.12-7.39-5.47-8.92c-0.63-6.54-0.65-15.21-0.27-26.08c0.21-5.94-0.36-11.06-1.04-15.8
		c-0.03-5.19,0.48-10.2,1.64-15.09c-0.46,7.39-0.67,14.79-0.46,22.2c0.04,1.5-0.47,13.45,1.76,14.17c2.3,0.73,4.25-1.56,4.83-3.29
		c0.96-2.87,1.04-6.22,1.6-9.18c0.57-3.02,1.87-6.72,2.92-10.06c-0.04,6.63,0.9,13.16,2.91,19.19
		C143.67,321.12,143.98,321.95,144.43,322.67z M155.51,272.29c-0.19,4.55-3.24,12.62-6.19,20.43c-2.63,6.96-5.04,13.56-5.63,17.65
		c-0.32,2.2-0.54,4.26-0.56,6.1c-4.58-18.49-0.2-40.65,11.49-55.6C154.98,262.05,155.79,265.59,155.51,272.29z M157.33,254.15
		c-0.51,3.22-2.73,5.66-2.76,5.68c0,0-2.82,3.77-3.98,5.64c-3.4-3.81-5.2-8.5-5.2-13.63c1.07-0.34,2.2-0.89,3.32-1.21
		c4.5-1.29,7.19-3.72,9.14-6.89c-0.1,0.51-0.15,0.84-0.17,0.92C157.69,244.73,157.86,250.8,157.33,254.15z M162.52,229.07
		c-2.06,3.4-3.47,9.02-4.23,12.55c-1.79,3.6-4.25,6.58-8.84,8.11c-0.54,0.18-1.09,0.34-1.65,0.49c3.96-6.9,6.08-14.36,8.62-21.95
		c0.33-0.99,3.63-9.68-0.39-9.25c-3.87,0.42-6.05,6.99-7.36,9.9c-3.08,6.86-5.03,14-5.71,21.49c-1.09-0.62-1.78-1.87-2.52-3.52
		c-1.63-3.65-3.22-8.63-4.37-12.8c0.23-3.74,0.89-13.44,1.89-18.28c1.24-6.02,3.56-11.78,3.59-11.84l0.2-0.29
		c5.38-5.43,10.87-9.3,18.64-12.06c1.52-0.54,3.04-1.14,4.45-1.9c0.75,3.9,3.01,15.59,4.92,24.46
		C168.86,216.86,165.29,224.5,162.52,229.07z M177.67,235.99c-0.53-1.53-1.21-3.3-1.91-5.13c-0.9-2.36-1.83-4.8-2.56-6.99
		c-0.96-2.87-3.05-12.87-4.79-21.55c4.08,4.7,15.41,2.58,20.25,1c0.87,2.98,2.21,5.91,3.95,8.89c4.83,8.26,10.58,16.53,16.57,24
		c0.37,0.46,0.71,0.78,1.02,0.98c-0.56,8.31-2.27,16.63-4.33,24.67c-0.87,3.42-1.94,6.79-2.88,10.19c-0.65,2.38-1.37,5.24-3.45,6.83
		c-3.06,2.34-4.47-2.1-4.88-4.45c-1.19-6.77-4.93-13.82-7.91-19.98C183.79,248.33,180.82,242.06,177.67,235.99z M178.73,239.94
		c1.02,2.3,2.02,4.61,3.21,6.98c2.71,5.35,5.6,10.47,7.91,16.02c2.1,5.03,3.61,9.76,4.6,15.1c0.11,0.57,0.25,0.99,0.46,1.32
		c-4.96-1.26-8.81-5.38-12.8-8.54c-1.61-1.28-2.63-3-3.25-4.91c0.02-0.09,0.03-0.18,0.03-0.25c0-0.16,0-0.67,0.01-1.43
		C178.96,259.04,179.11,243.91,178.73,239.94z M173.25,281.42c-0.54-4.33,2.49-9.68,4.3-12.87c0.49-0.88,0.84-1.49,1.06-1.96
		c0.51,1.31,1.2,2.57,2.12,3.77c2.18,2.82,6.02,5.3,8.92,7.33c1.06,0.74,2.09,1.31,3.17,1.74c-5.44,4.13-13.11,5.41-17.78,10.21
		l0.04-0.12l-0.11-0.2C174.95,289.29,174.01,287.49,173.25,281.42z M174.46,291.54c7.7-5.64,15.86-8.67,23.11,0.03
		c3.18,3.82,6.28,7.71,8.97,11.84c-2.89-2.57-6.96-3.35-12.83-0.89c-3.66,1.54-7.11,3.74-10.6,5.63c-0.9,0.49-5.85,2.25-5.89,4.16
		c-2.47,1.54-4.65,3.44-6.53,5.68c0.04-0.71,0.05-1.37,0.01-1.98C170.14,307.41,173.18,295.91,174.46,291.54z M161.59,366.17
		c0.96-13.05,3.82-24.4,6.11-33.51c1.37-5.42,2.52-9.99,2.89-13.52c1.89-2.42,4.14-4.47,6.71-6.11c0.64,3.64,2.87,6.58,3.25,10.5
		c0.55,5.63-1.68,11.36-3.46,16.59c-0.52,1.53-2.65,6.67-2.84,10.47l-0.03,0.03c-7.02,16.27-9.16,33.43-11.59,50.74
		C161.57,389.23,160.86,376.07,161.59,366.17z M162.9,404.14c2.53-17.72,4.46-35.35,11.41-52.04c0.17,1.24,0.68,2.2,1.73,2.6
		c2.1,0.8,4.08,0.45,6.19-0.21c1.82-0.58,3.63-1.19,5.43-1.82c1.1,5.08,0.39,10.98,0.03,15.84c-0.67,8.93-2.1,17.82-3.86,26.59
		c-2.96,14.77-8.99,28.72-15.06,42.55c-0.7,1.5-1.37,3.05-2.02,4.62c-0.23,0.52-0.45,1.03-0.68,1.55c-0.03-0.19-0.05-0.37-0.06-0.54
		c-0.2-2.83,0-4.34,0.18-5.66c0.14-1.03,0.27-1.99,0.19-3.37c-0.03-0.56-0.25-2.27-0.58-4.87C165.08,424,163.88,414.61,162.9,404.14
		z M180.13,410.52c-0.08,10.26,5.47,20.66,8.78,29.08c-3.34,4.77-5.92,9.84-7.88,15.17c-0.18-8.59-3.31-16.66-9.02-23.22
		C174.94,424.61,177.75,417.64,180.13,410.52z M163.37,454.46c0.02-0.06,0.05-0.11,0.07-0.17c1.37-4.11,3.96-11.25,5.73-16.09
		c0.86-1.99,1.72-3.99,2.56-5.98c5.89,6.88,8.9,15.39,8.64,24.41c-2.46,7.28-3.8,15.01-4.29,23.07c-0.34,5.68-0.46,11.4-0.47,17.11
		c-2.94,3.81-9.47,2.59-10.32-2.92c0-0.03-0.02-0.05-0.03-0.07C163.19,480.72,161.67,467.6,163.37,454.46z M164.47,535.61
		c1.69-6.41,0.92-13.3,0.18-19.97l-0.1-0.87c-0.58-3.68-1.28-7.42-1.95-11.04c-3.04-16.36-5.92-31.87-0.14-47.03
		c-1.24,12.43,0.25,24.84,2.22,37.23c-0.01,0.04-0.01,0.08-0.01,0.12c0.03,0.22,0.08,0.43,0.13,0.64
		c1.76,10.99,3.85,21.95,4.71,32.9c-1.22,4.26-3.26,8.1-6.11,11.43C163.74,538.09,164.11,536.96,164.47,535.61z M182.99,540.96
		c-0.02,0.94-0.51,1.91-1.03,2.94c-0.26,0.52-0.52,1.05-0.73,1.59c-1.91-8.17-1.71-16.56,0.56-24.6
		C180.92,527.44,181.1,534.12,182.99,540.96z M182.5,516.7c-3.73,9.89-4.39,20.47-1.68,30.65c0,0.02,0,0.03,0,0.05l0.03,0.17
		c0.11,0.34,0.23,0.7,0.34,1.06c0.11,0.38,0.22,0.76,0.35,1.14c0.58,1.94,1.14,4.06,1.65,5.98c0.23,0.86,0.45,1.68,0.65,2.42
		c0.04,0.15,3.89,14.64-1.14,17.78c-5.09,3.18-13.17,2.41-15.38,1.58c-0.94-0.35-2.71-1.57-4.43-2.75
		c-2.13-1.46-4.33-2.98-5.65-3.36c-5.39-1.59-11.2-3.77-12.03-5.06c-1.08-1.67-0.88-2.95-0.87-3l0.09-0.52l-0.52-0.11
		c-0.03-0.01-2.78-0.6-2.78-2.01c0-1.73,0.43-2.19,0.63-2.41c0.3-0.32,1.72-1.04,3.77-0.79l-2.51,1.56c0,0,1.35,0.66,3.99-1.06
		c3.19-2.09,6.2-3.16,8.18-4.28c2.95-1.67,4.5-4.24,5.16-5.58c0.46,1.22,1.06,2.31,1.49,3.07c0.15,0.27,0.31,0.54,0.45,0.8
		c0,0-2.33-6.42-1.06-8.71c0.07-0.13,0.16-0.27,0.26-0.44c0.29-0.47,0.68-1.12,1.13-2.06c3.18-3.31,5.53-7.18,7-11.48
		c0.66,10.03,0.22,20.05-2.54,30.04c-0.11,0.41,1.87-4.85,2.29-7.36c3.07-18.31-0.6-36.68-3.61-55.09c2.24,3.27,7.07,3.59,9.84,0.79
		c0,5.55,0.1,11.1,0.19,16.62c0.04,2.24,0.15,4.43,0.33,6.57c0,0,0.34-5.68,0.29-8.65c-0.05-2.83-0.08-5.67-0.09-8.51
		c2.06,3.02,6.49,3.88,9.42,1.38C184.42,508.95,183.29,512.8,182.5,516.7z M194.2,460.36c1.26,4.23,2.44,8.23,2.89,12.2
		c0,2.8-0.97,5.7-1.9,8.51c-0.48,1.43-0.97,2.91-1.31,4.29l-0.92,2.09c-2.33,5.31-4.68,10.67-6.66,16.11
		c-2.77,3.76-8.3,2.84-9.98-1.06c-0.01-7.04,0.08-14.08,0.32-21.11c0.29-8.5,1.62-16.72,4.24-24.45c0.05-0.1,0.09-0.19,0.13-0.29
		c0-0.03,0-0.06,0-0.08c1.97-5.72,4.66-11.17,8.17-16.25c0.5,1.32,0.95,2.59,1.29,3.8C190.76,449.93,192.63,455.06,194.2,460.36z
		 M192.19,448.93c-0.98-3.72-1.74-6.71-1.74-6.71c0,0.03,0,0.07,0,0.1c-0.02-0.12-0.05-0.22-0.07-0.3
		c-3.85-11.82-10.86-21.81-9.61-33.42c1.78-5.54,3.29-11.16,4.39-16.94c1.6-8.44,2.78-16.99,3.34-25.57
		c0.28-4.25,0.69-9.21-0.25-13.63c3.09-1.07,6.17-2.16,9.28-3.15c0.97-0.31,1.93-0.64,2.88-1c-3.93,11.34-3.55,22.83-1.78,34.32
		c-7.04,18.53,2.15,39.44-2.14,58.58C195.21,443.86,193.74,446.51,192.19,448.93z M202.7,410.71c-0.67,7.92-1.3,15.41-1.98,19.14
		c-0.44,2.38-1.59,5.64-3.15,9.11c2.94-18.1-4.79-37.59,1.27-55.02c1.17,7.21,2.85,14.42,4.3,21.6
		C202.99,407.29,202.84,409.03,202.7,410.71z M212.39,351.43c-0.33,2.59-1.35,6.95-2.54,12c-1.75,7.45-3.92,16.72-4.98,24.96
		c-0.58,4.49-1.08,9.74-1.54,14.93c-3.84-18.43-8.65-37.06-2.13-55.31c4.09-1.61,7.81-3.8,10.31-7.65c0.18-0.28,0.34-0.57,0.49-0.86
		C212.34,341.48,213.01,346.52,212.39,351.43z M212.02,337.52c-1.46,6.54-9.08,9.37-14.66,11.17c-5.44,1.72-10.78,3.74-16.22,5.46
		c-10.5,3.32-3.65-13.15-2.17-17.58c1.53-4.58,2.95-9.95,2.05-14.82c-0.43-2.32-1.1-4.32-2.19-6.4c-2.42-4.59,5.62-7.19,8.19-8.59
		c6.12-3.32,13.85-8.42,20.02-2.55c1.34,2.12,2.57,4.31,3.65,6.59c0.7,2.39,1.07,4.92,1.43,7.13
		C213.16,324.39,213.45,331.13,212.02,337.52z M213.9,328.7c-0.07-3.17-0.46-6.28-0.82-8.74c-0.78-5.19-2.05-10.54-4.54-14.22
		c-3.7-7.16-7.8-11.77-12.76-17.2c-5.92-6.48-14.05-2.83-20.18,1.39c4.71-4.76,12.6-6.03,17.94-10.23c0.95,0.32,1.95,0.52,3.03,0.63
		c0.13,0.02,0.25,0.05,0.39,0.06c0.3,0.04,0.59,0.03,0.87,0c-1.49,1.85-1.64,4.34-1.15,6.36c0.64,2.68,6.35,10.24,16.62,21.14
		c0.28,0.29,0.76,0.34,1.05,0.06c10.65-10.71,15.87-18.73,16.51-21.41c0.47-1.98,0.42-4.34-0.95-6.14c0.3,0.03,0.61,0.03,0.94,0
		c0.14-0.02,0.27-0.04,0.39-0.06c1.08-0.1,2.08-0.31,3.03-0.62c5.35,4.2,13.26,5.46,17.97,10.25c-6.13-4.22-14.28-7.9-20.21-1.4
		c-4.96,5.43-9.05,10.04-12.75,17.19c-2.5,3.68-3.77,9.03-4.55,14.23C214.36,322.43,213.97,325.54,213.9,328.7z M248.9,264.23
		c0.01,0.76,0.01,1.27,0.01,1.43c0,0.08,0.01,0.16,0.03,0.25c-0.61,1.91-1.63,3.64-3.25,4.91c-3.99,3.16-7.84,7.27-12.8,8.54
		c0.21-0.33,0.35-0.76,0.46-1.32c0.99-5.34,2.5-10.07,4.6-15.1c2.32-5.55,5.2-10.67,7.92-16.02c1.18-2.33,2.19-4.67,3.22-7
		C248.7,243.85,248.85,259.03,248.9,264.23z M215.69,317.95c0.36-2.22,0.73-4.75,1.43-7.14c1.07-2.28,2.3-4.47,3.64-6.59
		c6.17-5.88,13.9-0.78,20.02,2.54c2.58,1.4,10.61,4,8.19,8.59c-1.1,2.08-1.76,4.07-2.19,6.4c-0.89,4.87,0.52,10.24,2.05,14.82
		c1.48,4.43,8.34,20.89-2.17,17.58c-5.43-1.72-10.78-3.74-16.22-5.46c-5.58-1.8-13.2-4.64-14.66-11.17
		C214.36,331.13,214.65,324.39,215.69,317.95z M222.94,388.4c-1.06-8.24-3.23-17.51-4.98-24.96c-1.18-5.05-2.21-9.41-2.53-12
		c-0.63-4.91,0.05-9.95,0.37-11.92c0.16,0.3,0.32,0.59,0.49,0.86c2.5,3.85,6.23,6.04,10.31,7.65c6.52,18.24,1.71,36.87-2.13,55.31
		C224.02,398.14,223.52,392.89,222.94,388.4z M227.09,429.85c-0.69-3.73-1.32-11.22-1.98-19.14c-0.14-1.68-0.29-3.42-0.44-5.17
		c1.46-7.18,3.13-14.39,4.3-21.6c6.06,17.43-1.67,36.92,1.27,55.02C228.68,435.49,227.53,432.23,227.09,429.85z M231.31,441.23
		c-4.29-19.14,4.9-40.05-2.14-58.58c1.77-11.49,2.15-22.98-1.78-34.32c0.95,0.35,1.91,0.68,2.88,1c3.11,0.98,6.19,2.07,9.28,3.15
		c-0.94,4.41-0.53,9.37-0.25,13.63c0.57,8.58,1.75,17.12,3.34,25.57c1.09,5.77,2.6,11.4,4.39,16.94
		c1.25,11.61-5.82,21.69-9.67,33.52c-0.03,0.08-0.81,3.11-1.77,6.8C234.06,446.49,232.59,443.85,231.31,441.23z M247.68,410.53
		c2.42,7.24,5.29,14.33,8.27,21.38c-5.43,5.79-9,15.39-8.91,23.58c-1.99-5.58-4.66-10.9-8.14-15.88
		C242.21,431.18,247.76,420.78,247.68,410.53z M241.49,503.54c-1.98-5.43-4.33-10.79-6.65-16.09l-0.92-2.09
		c-0.34-1.38-0.83-2.86-1.31-4.29c-0.93-2.8-1.9-5.7-1.9-8.51c0.45-3.98,1.63-7.97,2.89-12.2c1.6-5.38,3.74-10.72,3.98-16.63
		c0-0.78,0.58-2.17,1.05-3.4c8.32,12.05,12.03,26.13,12.54,41.07c0.24,7.03,0.34,14.07,0.32,21.11
		C249.8,506.41,244.25,507.32,241.49,503.54z M245.83,543.9c-0.51-1.03-1-2.01-1.03-2.94c1.89-6.85,2.07-13.53,1.19-20.07
		c2.28,8.04,2.47,16.43,0.56,24.6C246.36,544.96,246.1,544.42,245.83,543.9z M266.3,542.88c0.11,0.17,0.19,0.32,0.26,0.44
		c1.27,2.29-1.06,8.71-1.06,8.71c0.14-0.26,0.29-0.53,0.45-0.8c0.43-0.75,1.04-1.85,1.49-3.07c0.66,1.34,2.21,3.9,5.16,5.58
		c1.98,1.12,4.99,2.19,8.18,4.28c2.63,1.72,3.99,1.06,3.99,1.06l-2.51-1.56c2.05-0.24,3.48,0.48,3.77,0.79
		c0.2,0.22,0.63,0.68,0.63,2.41c0,1.41-2.76,2.01-2.79,2.01l-0.52,0.11l0.09,0.52c0.01,0.05,0.2,1.33-0.87,3
		c-0.83,1.3-6.64,3.48-12.03,5.06c-1.32,0.39-3.52,1.9-5.65,3.36c-1.71,1.18-3.48,2.4-4.43,2.75c-2.21,0.83-10.3,1.6-15.38-1.58
		c-5.02-3.14-1.18-17.64-1.14-17.78c0.2-0.74,0.42-1.56,0.65-2.42c0.51-1.93,1.08-4.04,1.66-5.98c0.12-0.38,0.23-0.76,0.35-1.14
		c0.11-0.36,0.23-0.72,0.34-1.06l0.03-0.17c0-0.02,0-0.03,0-0.05c2.71-10.18,2.06-20.76-1.67-30.65c-0.79-3.9-1.92-7.76-3.25-11.57
		c2.93,2.51,7.37,1.66,9.43-1.37c-0.01,2.84-0.04,5.67-0.09,8.51c-0.05,2.97,0.29,8.65,0.29,8.65c0.18-2.14,0.29-4.33,0.33-6.57
		c0.1-5.52,0.19-11.07,0.19-16.62c2.77,2.8,7.6,2.48,9.84-0.79c-3.01,18.41-6.69,36.77-3.62,55.08c0.42,2.51,2.4,7.77,2.29,7.36
		c-2.76-9.99-3.21-20.01-2.54-30.04c1.48,4.3,3.83,8.17,7,11.48C265.62,541.76,266.02,542.41,266.3,542.88z M265.2,503.74
		c-0.67,3.62-1.37,7.35-1.95,11.04l-0.1,0.87c-0.74,6.66-1.51,13.56,0.18,19.97c0.36,1.36,0.72,2.48,1.08,3.41
		c-2.85-3.34-4.89-7.18-6.11-11.43c0.86-10.91,2.94-21.85,4.7-32.8c0.06-0.24,0.11-0.48,0.15-0.74c0.01-0.06,0-0.11-0.01-0.15
		c1.96-12.38,3.45-24.78,2.21-37.2C271.13,471.87,268.25,487.37,265.2,503.74z M264.36,454.29c0.03,0.06,0.05,0.11,0.07,0.17
		c1.69,13.14,0.18,26.26-1.89,39.37c-0.01,0.02-0.02,0.03-0.02,0.06c-0.84,5.51-7.38,6.73-10.32,2.92
		c-0.01-5.71-0.13-11.43-0.48-17.11c-0.47-7.77-1.74-15.24-4.04-22.3l0.01,0c-0.73-8.34,2.84-18.73,8.5-24.9
		c0.79,1.86,1.58,3.71,2.38,5.57C260.35,442.9,262.98,450.14,264.36,454.29z M262.04,429.39c-0.33,2.6-0.55,4.31-0.58,4.87
		c-0.08,1.37,0.05,2.34,0.19,3.37c0.18,1.33,0.38,2.83,0.18,5.66c-0.01,0.17-0.04,0.35-0.06,0.54c-0.29-0.68-0.59-1.35-0.89-2.03
		c-0.54-1.29-1.1-2.56-1.67-3.8c-6.12-13.94-12.23-27.99-15.21-42.89c-1.76-8.77-3.19-17.66-3.85-26.59
		c-0.36-4.87-1.08-10.76,0.03-15.84c1.81,0.62,3.61,1.24,5.43,1.82c2.1,0.66,4.09,1.01,6.18,0.21c1.05-0.4,1.56-1.35,1.73-2.6
		c6.95,16.68,8.88,34.32,11.41,52.04C263.93,414.61,262.73,424,262.04,429.39z M260.11,332.66c2.3,9.11,5.15,20.46,6.12,33.51
		c0.73,9.89,0.02,23.06-1.06,35.18c-2.43-17.31-4.56-34.47-11.58-50.74l-0.03-0.03c-0.18-3.8-2.32-8.94-2.84-10.47
		c-1.78-5.23-4.01-10.96-3.46-16.59c0.38-3.92,2.61-6.85,3.25-10.5c2.57,1.64,4.81,3.69,6.71,6.11
		C257.6,322.68,258.74,327.24,260.11,332.66z M257.11,316.02c-0.04,0.61-0.03,1.27,0.01,1.98c-1.88-2.24-4.06-4.14-6.53-5.68
		c-0.04-1.92-4.99-3.67-5.89-4.16c-3.48-1.89-6.94-4.09-10.6-5.63c-5.86-2.47-9.94-1.69-12.83,0.89c2.69-4.14,5.79-8.03,8.97-11.84
		c7.25-8.7,15.4-5.67,23.1-0.03C254.63,295.91,257.67,307.41,257.11,316.02z M250.26,268.54c1.81,3.2,4.83,8.55,4.29,12.87
		c-0.75,6.07-1.7,7.88-1.71,7.89l-0.11,0.2l0.04,0.12c-4.67-4.79-12.34-6.08-17.78-10.21c1.08-0.43,2.11-1,3.17-1.74
		c2.9-2.04,6.73-4.52,8.92-7.33c0.93-1.2,1.62-2.46,2.12-3.77C249.42,267.05,249.77,267.67,250.26,268.54z M254.61,223.87
		c-0.73,2.19-1.66,4.63-2.56,6.99c-0.7,1.83-1.37,3.6-1.91,5.13c-3.15,6.07-6.12,12.34-9.08,18.46c-2.97,6.16-6.72,13.21-7.91,19.98
		c-0.41,2.35-1.83,6.79-4.88,4.45c-2.08-1.59-2.8-4.45-3.45-6.83c-0.93-3.4-2.01-6.77-2.88-10.19c-2.06-8.05-3.77-16.36-4.33-24.67
		c0.31-0.21,0.66-0.53,1.02-0.99c5.99-7.47,11.74-15.74,16.56-24c1.74-2.98,3.08-5.91,3.95-8.88c4.87,1.58,16.22,3.7,20.26-1.06
		C257.67,210.96,255.57,221,254.61,223.87z M265.14,228.99c-2.74-4.35-6.2-12.02-7.1-14.73c1.91-8.87,4.18-20.58,4.93-24.5
		c1.4,0.75,2.92,1.35,4.43,1.89c7.77,2.76,13.4,6.65,18.78,12.09l-0.02,0.06l0.08,0.19c0.02,0.06,2.35,5.81,3.59,11.84
		c1,4.84,1.66,14.54,1.89,18.28c-1.16,4.17-2.75,9.15-4.37,12.8c-0.74,1.65-1.43,2.9-2.52,3.52c-0.68-7.48-2.63-14.63-5.71-21.49
		c-1.31-2.91-3.49-9.48-7.36-9.9c-4.02-0.44-0.72,8.26-0.39,9.25c2.54,7.59,4.66,15.04,8.62,21.95c-0.55-0.15-1.1-0.31-1.65-0.49
		c-4.59-1.53-7.02-4.42-8.81-8.02C268.76,238.19,267.26,232.35,265.14,228.99z M293.56,275.12c1.33,2.72,2.41,5.45,3.28,8.23
		c0.8,11.28,1.59,24.54,0.52,35.91c-0.44,4.65-3.87,3.23-4.93,0.33c-0.03-0.09-0.06-0.18-0.09-0.26c-0.01-0.04-0.02-0.07-0.03-0.11
		c-0.04-0.12-0.07-0.25-0.09-0.38c-0.42-2.07-0.67-4.17-1.06-6.24c-0.83-4.38-2.76-9.75-3.97-14.18
		c-0.38-8.56-2.38-17.18-5.81-24.98c3.81-5.6,4.67-11.51,4.83-14.78C288.11,264.31,290.83,269.55,293.56,275.12z M285.44,256.18
		c0.03,0.34,0.67,8.63-4.45,16.45c-1.03-2.27-2.16-4.47-3.44-6.57c3.55-3.9,5.45-8.75,5.49-14.03c0.49,0.11,0.96,0.16,1.4,0.09
		C284.72,253.51,285.06,254.85,285.44,256.18z M281.27,250.58c-0.13-0.04-0.26-0.07-0.39-0.11c-3.38-5.66-5.67-11.81-7.59-18.13
		c-0.63-2.06-1.33-4.1-1.98-6.15c-0.14-0.43-2.33-8.98,1.38-6.24c0.9,0.65,1.64,1.45,2.22,2.4c5.38,8.36,8.43,18.51,9.28,28.34
		C283.43,250.93,282.49,250.92,281.27,250.58z M270.46,254.15c-0.53-3.35-0.36-9.42-0.35-9.48c-0.01-0.09-0.07-0.41-0.17-0.92
		c1.95,3.17,4.63,5.6,9.14,6.89c1.11,0.32,2.25,0.87,3.32,1.21c0,5.13-1.79,9.82-5.2,13.63c-1.16-1.87-2.87-4.32-3.98-5.64
		C273.2,259.8,270.97,257.37,270.46,254.15z M278.46,292.71c-2.95-7.8-6-15.87-6.19-20.43c-0.28-6.69,0.54-10.23,0.89-11.42
		c11.7,14.95,16.07,37.1,11.49,55.6c-0.02-1.84-0.25-3.9-0.56-6.1C283.5,306.27,281.1,299.68,278.46,292.71z M291.86,366.23
		c-0.67-0.38-1.86-1.38-1.86-3.8c0-0.1-0.01-0.29-0.01-0.44l5.43-5.56C294.11,360.16,292.43,364.71,291.86,366.23z M297.06,351.48
		c-0.12,0.5-0.42,1.42-0.81,2.57l-8.68,8.88c-0.32-0.55-0.77-1.45-1.06-2.51c0.55-0.46,3.89-3.3,7.04-6.61
		c1.61-1.69,3.15-3.96,4.22-5.93C297.57,349.19,297.33,350.39,297.06,351.48z M298.5,318.06c0.38,10.87,0.36,19.54-0.27,26.08
		c-0.35,1.52-2.76,6.07-5.47,8.92c-2.69,2.83-5.53,5.31-6.6,6.22c-0.7-1.04-2.13-3.72-0.46-6.27c0.86-1.31,4.43-4.49,4.65-5.32
		c0.01-0.03,0.17-2.53,0.87-5.13c0.02-0.08,0.02-0.14,0.02-0.21c0.34-1.57,0.35-2.98,0.12-4.18c-0.17-3.54-4.23-6.84-6.08-7.5
		c0.39,0.53,1.31,1.61,2.27,2.91c-0.27-0.01-0.53,0.06-0.77,0.21c-1.59,1.02-1.89,3.26-2.21,5.64c-0.25,1.87-0.51,3.8-1.4,5.2
		c-1.32,2.08-2.69,1.09-2.86-0.62c-0.21-2.08-0.31-4.86-0.29-7.4l0.08-1.43c0.29-5.31,0.92-8.85,3.23-12.52
		c0.45-0.71,0.76-1.55,0.97-2.47c2.01-6.03,2.95-12.56,2.91-19.19c1.05,3.34,2.35,7.04,2.92,10.06c0.56,2.96,0.64,6.31,1.6,9.18
		c0.58,1.73,2.54,4.03,4.83,3.29c2.23-0.71,1.72-12.66,1.76-14.17c0.2-7.41,0-14.81-0.46-22.2c1.16,4.89,1.67,9.9,1.64,15.09
		C298.86,307.01,298.29,312.13,298.5,318.06z M302.19,277.93c0,0.2,0,0.4,0,0.61c0,0.13-0.01,0.26-0.01,0.39
		c0,0.2-0.01,0.39-0.02,0.59c-0.01,0.14-0.01,0.29-0.02,0.44c-0.01,0.27-0.02,0.53-0.04,0.81c-0.26,4.21-0.73,8.11-1.23,12.24
		c-0.21,1.7-0.46,3.41-0.73,5.16c-0.29-7.08-1.61-14.08-4.66-20.57c-4.01-8.53-8.6-16.39-10.4-25.69c0.54-0.26,1.01-0.75,1.41-1.58
		c0.32-0.69,0.64-1.4,0.96-2.14c1.64,6.41,7.8,10.2,11.7,15.42c0.28,0.44,2.8,4.7,3.03,13.06c0,0.08,0,0.17,0,0.25
		c0.01,0.22,0.01,0.44,0.01,0.67C302.2,277.7,302.19,277.82,302.19,277.93z"/>
</g>
</svg>
