<?xml version="1.0" encoding="utf-8"?>
<!-- Generator: Adobe Illustrator 26.0.1, SVG Export Plug-In . SVG Version: 6.00 Build 0)  -->
<svg version="1.1" id="Layer_1" xmlns="http://www.w3.org/2000/svg" xmlns:xlink="http://www.w3.org/1999/xlink" x="0px" y="0px"
	 viewBox="0 0 432 648" style="enable-background:new 0 0 432 648;" xml:space="preserve">
<style type="text/css">
	.st0{display:none;opacity:0.5;fill:none;stroke:#231F20;stroke-width:0.05;stroke-miterlimit:10;}
	.st1{fill:#FFFFFF;}
	.st2{fill:#E92A2A;}
	.st3{fill:#D52626;}
	.st4{fill:#9A1A1C;}
	.st5{fill:#8D1819;}
</style>
<path class="st0" d="M418.44,444.92c-2.94,1.51-8.31,5.17-9.04,17.27"/>
<g>
	<g id="White_00000121246249688330868620000005306130708720888757_">
		<path class="st1" d="M298.33,263.45v-8.69c0-8.47-6.34-17.7-7.23-18.96c-0.09-1.62-0.79-13.96-1.99-19.78
			c-1.13-5.49-3.15-10.76-3.56-11.82c0.32-0.94,1.69-5.1,2.49-10.19c0.91-5.85-3.06-20.22-5.45-26.27
			c-1.58-4.02-4.89-5.54-7.55-6.77c-1.44-0.66-2.68-1.23-3.38-2.05c-1.79-2.09-3.58-2.66-5.15-3.17c-0.41-0.13-0.81-0.26-1.2-0.41
			c-0.6-0.24-1.14-0.73-1.95-1.46c-1.38-1.25-3.46-3.14-7.91-5.72c-2.57-1.49-6.39-3.24-10.43-5.09
			c-6.05-2.77-12.91-5.91-14.51-7.89c-0.65-0.81-1.59-3.51-2.45-6.34c0.49-0.97,1.84-3.63,1.96-4.04c0.52-1.8,0.58-4.27,0.56-5.76
			c0.3,0.14,0.67,0.22,1.1,0.16c1.49-0.18,2.88-2.5,4.55-5.5c0.47-0.84,0.91-1.64,1.25-2.12c1.44-2.06,1.13-6.52,0.07-9.86
			c-0.31-0.98-0.83-1.54-1.56-1.67c-0.99-0.18-2.08,0.57-2.86,1.29c0.15-4.16,0.09-15.87-4.71-21.64c-4.14-4.97-12.42-6.2-15.56-6.5
			h-1.24c-3.14,0.3-11.42,1.53-15.56,6.5c-4.81,5.77-4.86,17.48-4.71,21.64c-0.78-0.72-1.87-1.47-2.86-1.29
			c-0.72,0.13-1.25,0.7-1.56,1.67c-1.05,3.34-1.37,7.8,0.07,9.86c0.34,0.48,0.78,1.28,1.25,2.12c1.67,3.01,3.06,5.32,4.55,5.5
			c0.44,0.05,0.8-0.02,1.1-0.16c-0.02,1.49,0.04,3.96,0.56,5.76c0.12,0.41,1.44,3.03,1.94,4.02c-0.86,2.84-1.81,5.56-2.46,6.37
			c-1.6,1.98-8.46,5.12-14.51,7.89c-4.04,1.85-7.86,3.6-10.43,5.09c-4.45,2.58-6.53,4.47-7.91,5.72c-0.81,0.74-1.35,1.22-1.95,1.46
			c-0.38,0.15-0.78,0.28-1.2,0.41c-1.57,0.5-3.36,1.08-5.15,3.17c-0.7,0.82-1.94,1.39-3.38,2.05c-2.66,1.22-5.96,2.75-7.55,6.77
			c-2.39,6.06-6.36,20.42-5.45,26.27c0.8,5.09,2.17,9.26,2.49,10.19c-0.42,1.06-2.43,6.32-3.56,11.82
			c-1.2,5.82-1.9,18.16-1.99,19.78c-0.89,1.26-7.23,10.49-7.23,18.96v8.69c-0.6,0.98-3.74,6.64-3.07,17.7
			c0.26,4.24,0.73,8.15,1.23,12.28c0.9,7.37,2.71,14.99,2.37,24.85c-0.53,15.03-0.4,27.91,1.46,33.63
			c0.81,2.47,5.16,14.83,5.36,15.36c0,0,0.17,0.57,0.72,0.4c0.03-0.01,2.79-0.79,3.08-4.4l1.14,1.17c0.2,0.21,0.54,0.18,0.71-0.05
			l0.05-0.07c0.09-0.12,1.37-1.95,1.76-4.23c0.81-1.24,2.45-4.42,0.47-7.45c-0.82-1.25-3.79-4.29-4.48-5
			c-0.05-0.63-0.25-2.58-0.78-4.71c-0.46-2.58-0.19-4.51,0.39-5.83c0.16-0.32,0.34-0.63,0.53-0.95c0.45-0.63,0.98-1.03,1.48-1.22
			c0.13-0.05,0.2-0.03,0.28,0.02c1.16,0.75,1.43,2.75,1.72,4.86c0.27,1.98,0.62,3.99,1.55,5.63c1.15,2.02,4.43,2.79,4.85-1.07
			c0.3-2.74,0.3-6.12,0.29-7.55l-0.08-1.45c-0.3-5.51-0.51-8.31-3.47-13.12c-1.3-2.11-1.32-3.28-0.5-11.47
			c0.4-3.99,2.96-10.49,5.56-17.38c2.97-7.87,6.05-16.01,6.25-20.73c0.3-7.32-0.66-10.95-1.01-12c0.62-0.74,2.34-3.03,2.81-5.99
			c0.54-3.44,0.37-9.42,0.36-9.56c0.02-0.1,1.82-10.42,4.8-15.15c2.19-3.49,5.16-9.69,6.61-13.38c0.81,3.66,1.52,6.63,1.98,8.02
			c0.74,2.21,1.67,4.66,2.57,7.03c1.29,3.38,2.51,6.58,2.82,8.24c0.31,1.64,0.39,9.94,0.24,24.67c-0.01,0.77-0.01,1.28-0.01,1.43
			c-0.03,0.28-0.65,1.38-1.2,2.36c-1.87,3.31-5,8.85-4.42,13.52c0.65,5.21,1.44,7.39,1.72,8.05c-0.59,1.88-4.95,16.15-4.28,26.44
			c0.23,3.59-1.18,9.19-2.96,16.28c-2.3,9.14-5.17,20.52-6.14,33.64c-1.43,19.42,2.65,51.33,4.19,63.34
			c0.33,2.57,0.55,4.27,0.58,4.79c0.07,1.27-0.04,2.14-0.18,3.16c-0.18,1.38-0.39,2.94-0.18,5.88c0.05,0.67,0.2,1.45,0.45,2.34
			c-1.08,2.8-2.07,5.59-2.93,8.18c-7.19,16.17-3.99,33.35-0.9,49.96c0.67,3.6,1.36,7.33,1.94,10.97l0.09,0.84
			c0.73,6.56,1.49,13.34-0.15,19.54c-0.83,3.14-1.7,4.97-2.34,6.12c0,0-0.01,0.01-0.01,0.01c-0.06,0.05-0.08,0.11-0.09,0.17
			c-0.15,0.26-0.29,0.49-0.4,0.68c-0.11,0.19-0.21,0.35-0.29,0.48c-0.65,1.18-0.66,2.54-0.38,3.84c-0.19,0.51-1.61,4.09-5.23,6.14
			c-3.4,1.93-6.44,3.21-7.53,3.75c-2.55-0.41-5.53,0.37-6.14,1.02c-0.46,0.49-0.92,1.25-0.92,3.15c0,1.84,2.21,2.67,3.19,2.95
			c0,0.65,0.16,1.87,1.06,3.26c1.28,2,9.26,4.52,12.62,5.51c1.15,0.34,3.37,1.87,5.33,3.21c1.84,1.27,3.58,2.47,4.65,2.87
			c1.09,0.41,3.39,0.8,6.09,0.8c3.31,0,7.21-0.59,10.23-2.48c5.69-3.56,1.78-18.33,1.61-18.96c-0.2-0.74-0.42-1.55-0.65-2.41
			c-0.71-2.67-1.51-5.69-2.33-8.15c0.03-0.93,0.51-1.9,1.02-2.92c0.56-1.12,1.14-2.28,1.14-3.49l-0.02-0.14
			c-5.15-18.53,2.5-35.94,9.89-52.78l0.95-2.17c0.36-1.42,0.84-2.88,1.31-4.29c0.96-2.88,1.95-5.86,1.95-8.9
			c-0.46-4.13-1.66-8.16-2.93-12.43c-0.75-2.54-1.77-6.27-2.67-9.67c4.4-6.7,8.27-15.22,9.2-20.29c0.69-3.78,1.3-10.93,1.99-19.22
			c0.62-7.32,1.31-15.61,2.16-22.23c1.05-8.17,3.21-17.4,4.95-24.82c1.19-5.07,2.22-9.45,2.55-12.09c0.74-5.84-0.34-12.7-0.59-14.13
			c0.68-2.09,0.97-4.48,1.03-6.9c0.05,2.42,0.35,4.81,1.03,6.9c-0.25,1.43-1.33,8.29-0.58,14.13c0.34,2.64,1.36,7.02,2.55,12.09
			c1.74,7.42,3.9,16.64,4.95,24.82c0.85,6.62,1.55,14.92,2.16,22.23c0.7,8.28,1.3,15.44,1.99,19.22c0.93,5.06,4.78,13.56,9.18,20.26
			c-0.94,3.55-1.97,7.4-2.66,9.7c-1.27,4.27-2.47,8.31-2.93,12.43c0,3.04,0.99,6.01,1.95,8.9c0.47,1.41,0.96,2.87,1.31,4.29
			l0.95,2.17c7.39,16.84,15.03,34.26,9.89,52.78l-0.02,0.14c0,1.21,0.58,2.37,1.14,3.49c0.51,1.02,1,1.99,1.02,2.92
			c-0.81,2.46-1.62,5.48-2.33,8.15c-0.23,0.86-0.44,1.67-0.65,2.41c-0.17,0.63-4.08,15.4,1.61,18.96c3.01,1.88,6.92,2.48,10.23,2.48
			c2.7,0,5-0.4,6.09-0.8c1.07-0.4,2.81-1.6,4.65-2.87c1.96-1.35,4.18-2.87,5.33-3.21c3.37-0.99,11.34-3.51,12.62-5.51
			c0.9-1.4,1.05-2.61,1.06-3.26c0.98-0.28,3.19-1.12,3.19-2.95c0-1.9-0.47-2.66-0.92-3.15c-0.6-0.64-3.59-1.43-6.14-1.02
			c-1.09-0.54-4.13-1.82-7.53-3.75c-3.62-2.05-5.04-5.63-5.23-6.14c0.28-1.31,0.27-2.66-0.38-3.84c-0.07-0.14-0.17-0.3-0.29-0.48
			c-0.12-0.19-0.25-0.41-0.4-0.68c-0.01-0.06-0.03-0.12-0.09-0.17c0,0-0.01-0.01-0.01-0.01c-0.64-1.14-1.51-2.98-2.34-6.12
			c-1.64-6.2-0.88-12.98-0.15-19.54l0.09-0.84c0.58-3.64,1.27-7.37,1.94-10.97c3.09-16.61,6.29-33.79-0.9-49.96
			c-0.86-2.58-1.85-5.36-2.93-8.16c0.25-0.89,0.41-1.68,0.45-2.36c0.21-2.94,0-4.5-0.18-5.88c-0.14-1.01-0.25-1.89-0.18-3.16
			c0.03-0.52,0.25-2.22,0.58-4.79c1.54-12.01,5.62-43.91,4.19-63.34c-0.97-13.13-3.83-24.5-6.13-33.64
			c-1.79-7.09-3.2-12.69-2.96-16.28c0.67-10.29-3.69-24.56-4.28-26.44c0.29-0.65,1.08-2.84,1.72-8.05
			c0.58-4.67-2.55-10.21-4.42-13.52c-0.55-0.98-1.17-2.08-1.2-2.36c0-0.15,0-0.66-0.01-1.43c-0.14-14.74-0.06-23.04,0.24-24.67
			c0.31-1.67,1.53-4.86,2.82-8.24c0.9-2.37,1.84-4.82,2.57-7.03c0.46-1.39,1.17-4.34,1.98-7.99c1.45,3.69,4.41,9.87,6.6,13.34
			c2.98,4.73,4.78,15.04,4.8,15.15c-0.01,0.15-0.18,6.12,0.36,9.56c0.47,2.96,2.19,5.24,2.81,5.99c-0.35,1.05-1.31,4.68-1.01,12
			c0.2,4.72,3.27,12.86,6.25,20.73c2.6,6.89,5.16,13.39,5.56,17.38c0.81,8.19,0.8,9.36-0.5,11.47c-2.96,4.81-3.16,7.61-3.47,13.12
			l-0.08,1.45c-0.01,1.43-0.02,4.81,0.29,7.55c0.43,3.86,3.71,3.09,4.85,1.07c0.93-1.64,1.29-3.64,1.55-5.63
			c0.28-2.12,0.56-4.12,1.72-4.86c0.08-0.05,0.15-0.07,0.28-0.02c0.5,0.19,1.03,0.59,1.48,1.22c0.19,0.32,0.37,0.63,0.53,0.95
			c0.58,1.33,0.85,3.25,0.39,5.83c-0.54,2.13-0.73,4.08-0.78,4.71c-0.69,0.7-3.66,3.74-4.48,5c-1.99,3.03-0.34,6.21,0.47,7.45
			c0.39,2.28,1.67,4.11,1.76,4.23l0.05,0.07c0.17,0.23,0.51,0.26,0.71,0.05l1.14-1.17c0.29,3.61,3.05,4.4,3.08,4.4
			c0.55,0.17,0.72-0.4,0.72-0.4c0.2-0.52,4.56-12.89,5.36-15.36c1.87-5.72,2-18.59,1.46-33.63c-0.35-9.86,1.47-17.48,2.37-24.85
			c0.5-4.14,0.98-8.04,1.23-12.28C302.07,270.1,298.94,264.43,298.33,263.45z"/>
	</g>
	<g id="Triceps_00000121985601903128044990000008426953543532996757_">
		<g>
			<path class="st2" d="M256.3,214.57v0.01c0.89,2.68,4.36,10.39,7.11,14.75c2.1,3.34,3.6,9.15,4.37,12.67
				c1.78,3.61,4.22,6.51,8.81,8.05c0.53,0.18,1.09,0.34,1.65,0.49c-3.96-6.89-6.07-14.34-8.62-21.92c-0.33-0.99-3.62-9.66,0.39-9.23
				c3.87,0.42,6.05,6.98,7.36,9.89c3.07,6.86,5.02,14,5.69,21.47c1.09-0.61,1.78-1.86,2.52-3.52c1.62-3.64,3.22-8.62,4.37-12.77
				c-0.23-3.74-0.9-13.43-1.88-18.27c-1.24-6.02-3.56-11.76-3.59-11.82l-0.08-0.19l0.03-0.07c-5.38-5.43-11-9.32-18.77-12.07
				c-1.52-0.53-3.04-1.14-4.44-1.9C260.47,194.04,258.21,205.73,256.3,214.57"/>
			<path class="st3" d="M279.57,234.81c-0.14-0.39-0.28-0.78-0.42-1.16c2.71-12.01,1.64-24.24-3.07-35.54
				c0.26,0.02,0.51,0.05,0.76,0.09c4.78,11.66,5.72,24.27,2.73,36.6L279.57,234.81 M276.55,197.49c-0.34-0.23-0.68-0.46-1.03-0.68
				c0-0.01-0.01-0.01-0.01-0.02c0.35,0.22,0.69,0.45,1.03,0.68C276.55,197.48,276.55,197.48,276.55,197.49"/>
			<path class="st3" d="M282.55,246.59c4.07-9.48,5.97-19.43,5.66-29.62c-0.05-0.28-0.1-0.54-0.15-0.79
				c-0.22-1.06-0.47-2.12-0.74-3.13c0.97,11.12-0.7,21.98-4.97,32.33C282.42,245.78,282.49,246.18,282.55,246.59"/>
			<path class="st3" d="M276.14,246.52c-0.26-0.55-0.51-1.11-0.76-1.67c-3.6-3.62-6.98-7.48-10.06-11.5
				c0.24,0.63,0.46,1.28,0.68,1.93C269.1,239.2,272.51,242.97,276.14,246.52"/>
			<path class="st3" d="M272.38,236.96c-3.71-3.89-7.09-8.04-10.13-12.42c-0.1-0.52-0.19-1.04-0.26-1.56
				c2.96,4.41,6.27,8.58,9.89,12.49C272.04,235.97,272.21,236.47,272.38,236.96 M256.3,214.58v-0.01c0.06-0.27,0.11-0.53,0.17-0.8
				c0,0,0,0,0,0C256.42,214.04,256.36,214.31,256.3,214.58"/>
			<path class="st3" d="M280.98,239.3c4.19-11.71,4.96-24.27,2.24-36.38c-0.29-0.28-0.58-0.55-0.88-0.83
				c2.93,12.15,2.36,24.29-1.68,36.1C280.77,238.56,280.88,238.93,280.98,239.3"/>
			<path class="st3" d="M269.22,219.44c0.04-0.01,0.09-0.02,0.14-0.03c0.11-0.02,0.24-0.03,0.37-0.03c0.05,0,0.1,0,0.16,0.01
				c-0.07-5.97-0.95-11.84-2.64-17.55c-0.18,0.19-0.35,0.38-0.52,0.57C268.32,207.94,269.16,213.64,269.22,219.44"/>
			<path class="st3" d="M268.17,220.64c0.08-0.3,0.21-0.57,0.38-0.77c-1.98-3.91-3.67-7.95-5.06-12.09
				c-0.13,0.33-0.26,0.66-0.38,0.99C264.52,212.83,266.2,216.8,268.17,220.64"/>
			<path class="st3" d="M273.43,221.59c0.09-7.52-0.97-14.94-3.16-22.15c-0.2,0.11-0.39,0.23-0.58,0.35
				c2.06,6.85,3.1,13.9,3.08,21.06C273,221.08,273.22,221.33,273.43,221.59"/>
			<path class="st3" d="M276.4,227.01c-0.17-0.4-0.35-0.81-0.54-1.24c0.87-9.23-0.42-18.52-3.73-27.17
				c0.21-0.07,0.43-0.14,0.64-0.19c3.47,9.09,4.72,18.86,3.64,28.55L276.4,227.01 M271.02,194.28c-0.32-0.15-0.64-0.31-0.96-0.46
				c0,0,0,0,0,0C270.38,193.97,270.7,194.12,271.02,194.28C271.02,194.27,271.02,194.28,271.02,194.28"/>
			<path class="st3" d="M269.7,228.86c-0.03-0.08-0.05-0.16-0.08-0.24c-0.08-0.23-0.31-0.87-0.58-1.7c-2.88-3.9-5.3-8.08-7.24-12.51
				c-0.05,0.44-0.09,0.88-0.12,1.32C263.82,220.4,266.5,224.79,269.7,228.86"/>
			<path class="st4" d="M263.44,229.38c-0.01-0.02-0.02-0.03-0.03-0.05l0,0c-0.94-1.49-1.96-3.36-2.93-5.29
				c-1.64-3.26-3.15-6.68-3.9-8.67c1.73,3.16,3.62,6.22,5.67,9.18C262.56,226.17,262.97,227.78,263.44,229.38 M261.99,222.98
				c-1.99-2.97-3.84-6.04-5.51-9.21c0.41-1.93,0.84-3.97,1.26-6.03c0.12-0.6,0.24-1.2,0.37-1.79c0.95,3.38,2.14,6.64,3.58,9.78
				c-0.14,1.97-0.09,3.96,0.13,5.93C261.86,222.1,261.92,222.54,261.99,222.98 M261.81,214.41c-1.39-3.17-2.53-6.47-3.42-9.89
				c0.54-2.68,1.06-5.29,1.51-7.59c0.81,4.02,1.88,7.97,3.21,11.83C262.46,210.59,262.04,212.49,261.81,214.41 M263.49,207.78
				c-1.38-4.1-2.46-8.31-3.25-12.6c0.22-1.13,0.42-2.16,0.59-3.04c0.15-0.79,0.28-1.47,0.39-2c0.15,0.08,0.29,0.15,0.44,0.23
				c0.13,0.06,0.25,0.13,0.38,0.19c1.96,3.85,3.52,7.8,4.68,11.83c-0.84,0.97-1.56,2.03-2.16,3.13
				C264.17,206.26,263.81,207.01,263.49,207.78 M267.25,201.82c-1.08-3.67-2.5-7.29-4.24-10.82c0.87,0.38,1.76,0.71,2.65,1.03
				c0.49,0.17,0.97,0.35,1.44,0.53c0.99,2.38,1.86,4.79,2.59,7.23C268.8,200.37,267.98,201.06,267.25,201.82 M270.27,199.44
				c-0.67-2.2-1.44-4.38-2.32-6.54c0.33,0.13,0.66,0.27,0.98,0.41c0.38,0.17,0.76,0.34,1.14,0.51c0.76,1.57,1.45,3.16,2.07,4.78
				c-0.11,0.04-0.22,0.08-0.32,0.12C271.27,198.92,270.76,199.16,270.27,199.44 M277.86,198.41c-0.33-0.09-0.67-0.16-1.01-0.21
				c-0.1-0.24-0.19-0.47-0.29-0.7C277,197.79,277.43,198.09,277.86,198.41 M272.77,198.4c-0.53-1.39-1.11-2.77-1.75-4.13
				c1.58,0.78,3.08,1.62,4.51,2.54c0.19,0.43,0.38,0.86,0.56,1.29c-0.25-0.02-0.51-0.03-0.76-0.03
				C274.46,198.08,273.6,198.19,272.77,198.4"/>
			<path class="st5" d="M262.25,224.54c-0.1-0.52-0.19-1.04-0.26-1.56c-1.99-2.97-3.84-6.04-5.51-9.21
				c-0.06,0.27-0.12,0.54-0.17,0.81v0c0.07,0.23,0.17,0.49,0.28,0.78C258.31,218.52,260.2,221.58,262.25,224.54"/>
			<path class="st5" d="M266.73,202.4c0.17-0.2,0.34-0.39,0.52-0.57c-1.08-3.67-2.5-7.29-4.24-10.82c-0.32-0.14-0.64-0.29-0.96-0.44
				C264.01,194.42,265.57,198.37,266.73,202.4"/>
			<path class="st5" d="M263.12,208.77c0.12-0.33,0.25-0.66,0.38-0.99c-1.38-4.1-2.46-8.31-3.25-12.6
				c-0.11,0.56-0.22,1.14-0.34,1.75C260.71,200.95,261.79,204.91,263.12,208.77"/>
			<path class="st5" d="M269.69,199.79c0.19-0.12,0.38-0.24,0.58-0.35c-0.67-2.2-1.44-4.38-2.32-6.54
				c-0.28-0.11-0.56-0.23-0.85-0.34C268.09,194.95,268.96,197.35,269.69,199.79"/>
			<path class="st5" d="M272.13,198.6c0.21-0.07,0.43-0.14,0.64-0.19c-0.53-1.39-1.11-2.77-1.75-4.13
				c-0.32-0.15-0.64-0.31-0.96-0.46C270.82,195.39,271.51,196.98,272.13,198.6"/>
			<path class="st5" d="M261.68,215.73c0.03-0.44,0.07-0.88,0.12-1.32c-1.39-3.17-2.53-6.47-3.42-9.89
				c-0.1,0.47-0.19,0.95-0.29,1.43C259.05,209.33,260.24,212.59,261.68,215.73"/>
			<path class="st5" d="M276.86,198.19c-0.1-0.23-0.19-0.47-0.29-0.7c-0.34-0.23-0.68-0.46-1.03-0.68c0.19,0.43,0.38,0.86,0.56,1.29
				C276.35,198.12,276.61,198.15,276.86,198.19"/>
		</g>
		<g>
			<path class="st2" d="M168.18,214.57v0.01c-0.89,2.68-4.36,10.39-7.11,14.75c-2.1,3.34-3.6,9.15-4.37,12.67
				c-1.78,3.61-4.19,6.62-8.78,8.16c-0.53,0.18-1.22,0.38-1.78,0.53c3.96-6.89,6.17-14.49,8.72-22.08c0.33-0.99,3.64-9.54-0.37-9.1
				c-3.87,0.42-6.03,6.99-7.34,9.89c-3.07,6.86-5.08,14.01-5.75,21.48c-1.09-0.61-1.84-1.91-2.58-3.57
				c-1.62-3.64-3.4-8.63-4.54-12.79c0.23-3.74,1.15-13.5,2.14-18.34c1.24-6.02,3.56-11.76,3.59-11.82l0.08-0.19l-0.03-0.07
				c5.38-5.43,11-9.32,18.77-12.07c1.52-0.53,3.04-1.14,4.44-1.9C164.02,194.04,166.28,205.73,168.18,214.57"/>
			<path class="st3" d="M144.91,234.81l0-0.01c-2.99-12.34-2.05-24.94,2.73-36.6c0.25-0.04,0.51-0.07,0.76-0.09
				c-4.71,11.3-5.77,23.53-3.07,35.54C145.19,234.03,145.05,234.42,144.91,234.81 M147.93,197.49c0-0.01,0-0.01,0.01-0.02
				c0.34-0.23,0.68-0.45,1.03-0.68c0,0.01,0,0.01-0.01,0.02C148.61,197.03,148.27,197.26,147.93,197.49"/>
			<path class="st3" d="M141.94,246.59c-4.07-9.48-5.97-19.43-5.66-29.62c0.05-0.28,0.1-0.54,0.15-0.79
				c0.22-1.06,0.47-2.12,0.74-3.13c-0.97,11.12,0.7,21.98,4.97,32.33C142.07,245.78,142,246.18,141.94,246.59"/>
			<path class="st3" d="M148.35,246.52c0.26-0.55,0.51-1.11,0.76-1.67c3.6-3.62,6.98-7.48,10.06-11.5
				c-0.24,0.63-0.46,1.28-0.68,1.93C155.38,239.2,151.98,242.97,148.35,246.52"/>
			<path class="st3" d="M152.11,236.96c0.17-0.5,0.34-1,0.5-1.5c3.62-3.91,6.93-8.08,9.89-12.49c-0.08,0.52-0.17,1.04-0.26,1.56
				C159.2,228.92,155.81,233.08,152.11,236.96 M168.18,214.58c-0.06-0.27-0.12-0.54-0.17-0.81c0,0,0,0,0,0
				c0.06,0.27,0.12,0.54,0.17,0.8V214.58"/>
			<path class="st3" d="M143.51,239.3c-4.19-11.71-4.96-24.27-2.24-36.38c0.29-0.28,0.58-0.55,0.88-0.83
				c-2.93,12.15-2.36,24.29,1.68,36.1C143.71,238.56,143.61,238.93,143.51,239.3"/>
			<path class="st3" d="M155.27,219.44c-0.04-0.01-0.09-0.02-0.14-0.03c-0.11-0.02-0.24-0.03-0.37-0.03c-0.05,0-0.1,0-0.16,0.01
				c0.07-5.97,0.95-11.84,2.64-17.55c0.18,0.19,0.35,0.38,0.52,0.57C156.16,207.94,155.33,213.64,155.27,219.44"/>
			<path class="st3" d="M156.32,220.64c-0.08-0.3-0.21-0.57-0.38-0.77c1.98-3.91,3.67-7.95,5.06-12.09
				c0.13,0.33,0.26,0.66,0.38,0.99C159.97,212.83,158.29,216.8,156.32,220.64"/>
			<path class="st3" d="M151.06,221.59c-0.09-7.52,0.97-14.94,3.16-22.15c0.2,0.11,0.39,0.23,0.58,0.35
				c-2.06,6.85-3.1,13.9-3.08,21.06C151.49,221.08,151.27,221.33,151.06,221.59"/>
			<path class="st3" d="M148.09,227.01l-0.01-0.06c-1.09-9.69,0.17-19.46,3.64-28.55c0.22,0.06,0.43,0.12,0.64,0.19
				c-3.31,8.66-4.59,17.94-3.73,27.17C148.44,226.19,148.26,226.61,148.09,227.01 M153.46,194.28
				C153.47,194.28,153.47,194.27,153.46,194.28c0.32-0.16,0.64-0.31,0.96-0.46c0,0,0,0,0,0
				C154.1,193.97,153.78,194.12,153.46,194.28"/>
			<path class="st3" d="M154.79,228.86c0.03-0.08,0.05-0.16,0.08-0.24c0.08-0.23,0.31-0.87,0.58-1.7c2.88-3.9,5.3-8.08,7.24-12.51
				c0.05,0.44,0.09,0.88,0.12,1.32C160.67,220.4,157.99,224.79,154.79,228.86"/>
			<path class="st4" d="M161.04,229.38c0.48-1.6,0.88-3.21,1.19-4.84c2.05-2.96,3.94-6.02,5.67-9.18c-0.75,1.99-2.26,5.42-3.9,8.67
				c-0.98,1.93-1.99,3.8-2.93,5.29l0,0C161.06,229.35,161.05,229.36,161.04,229.38 M162.5,222.98c0.07-0.44,0.12-0.88,0.17-1.33
				c0.22-1.96,0.27-3.95,0.13-5.93c1.44-3.14,2.63-6.4,3.58-9.78c0.12,0.6,0.24,1.2,0.37,1.79c0.42,2.05,0.85,4.1,1.26,6.03
				C166.33,216.94,164.49,220.01,162.5,222.98 M162.68,214.41c-0.23-1.92-0.65-3.82-1.31-5.64c1.33-3.86,2.4-7.81,3.21-11.83
				c0.45,2.3,0.97,4.9,1.51,7.59C165.21,207.93,164.07,211.24,162.68,214.41 M160.99,207.78c-0.31-0.77-0.67-1.52-1.07-2.25
				c-0.61-1.1-1.32-2.17-2.16-3.13c1.16-4.03,2.72-7.98,4.68-11.83c0.13-0.06,0.26-0.13,0.38-0.19c0.15-0.07,0.3-0.15,0.44-0.23
				c0.1,0.53,0.23,1.21,0.39,2c0.17,0.88,0.37,1.9,0.59,3.04C163.46,199.46,162.37,203.67,160.99,207.78 M157.24,201.82
				c-0.73-0.77-1.55-1.46-2.44-2.03c0.73-2.44,1.6-4.85,2.59-7.23c0.47-0.18,0.95-0.36,1.44-0.53c0.89-0.31,1.78-0.65,2.65-1.03
				C159.74,194.54,158.32,198.15,157.24,201.82 M154.22,199.44c-0.49-0.28-1-0.52-1.53-0.73c-0.11-0.04-0.21-0.08-0.32-0.12
				c0.62-1.62,1.31-3.21,2.07-4.78c0.37-0.17,0.75-0.34,1.14-0.51c0.32-0.14,0.65-0.27,0.98-0.41
				C155.66,195.06,154.89,197.24,154.22,199.44 M146.63,198.41c0.43-0.31,0.86-0.62,1.3-0.92c-0.1,0.23-0.2,0.47-0.29,0.7
				C147.3,198.25,146.96,198.32,146.63,198.41 M151.72,198.4c-0.83-0.22-1.69-0.33-2.55-0.33c-0.25,0-0.51,0.01-0.76,0.03
				c0.18-0.43,0.37-0.86,0.56-1.29c1.43-0.91,2.92-1.76,4.51-2.54C152.83,195.63,152.25,197.01,151.72,198.4"/>
			<path class="st5" d="M162.24,224.54c0.1-0.52,0.19-1.04,0.26-1.56c1.99-2.97,3.84-6.04,5.51-9.21c0.06,0.27,0.12,0.54,0.17,0.81
				v0c-0.07,0.23-0.17,0.49-0.28,0.78C166.18,218.52,164.29,221.58,162.24,224.54"/>
			<path class="st5" d="M157.76,202.4c-0.17-0.2-0.34-0.39-0.52-0.57c1.08-3.67,2.5-7.29,4.24-10.82c0.32-0.14,0.64-0.29,0.96-0.44
				C160.48,194.42,158.92,198.37,157.76,202.4"/>
			<path class="st5" d="M161.37,208.77c-0.12-0.33-0.25-0.66-0.38-0.99c1.38-4.1,2.46-8.31,3.25-12.6c0.11,0.56,0.22,1.14,0.34,1.75
				C163.77,200.95,162.7,204.91,161.37,208.77"/>
			<path class="st5" d="M154.8,199.79c-0.19-0.12-0.38-0.24-0.58-0.35c0.67-2.2,1.44-4.38,2.32-6.54c0.28-0.11,0.56-0.23,0.85-0.34
				C156.4,194.95,155.53,197.35,154.8,199.79"/>
			<path class="st5" d="M152.36,198.6c-0.21-0.07-0.43-0.14-0.64-0.19c0.53-1.39,1.11-2.77,1.75-4.13c0.32-0.15,0.64-0.31,0.96-0.46
				C153.67,195.39,152.98,196.98,152.36,198.6"/>
			<path class="st5" d="M162.81,215.73c-0.03-0.44-0.07-0.88-0.12-1.32c1.39-3.17,2.53-6.47,3.41-9.89c0.1,0.47,0.19,0.95,0.29,1.43
				C165.44,209.33,164.24,212.59,162.81,215.73"/>
			<path class="st5" d="M147.63,198.19c0.1-0.23,0.19-0.47,0.29-0.7c0.34-0.23,0.68-0.46,1.03-0.68c-0.19,0.43-0.38,0.86-0.56,1.29
				C148.13,198.12,147.88,198.15,147.63,198.19"/>
		</g>
	</g>
	<path d="M298.33,263.45v-8.69c0-8.47-6.34-17.7-7.23-18.96c-0.09-1.62-0.79-13.96-1.99-19.78c-1.13-5.49-3.15-10.76-3.56-11.82
		c0.32-0.94,1.69-5.1,2.49-10.19c0.91-5.85-3.06-20.22-5.45-26.27c-1.58-4.02-4.89-5.54-7.55-6.77c-1.44-0.66-2.68-1.23-3.38-2.05
		c-1.79-2.09-3.58-2.66-5.15-3.17c-0.41-0.13-0.81-0.26-1.2-0.41c-0.6-0.24-1.14-0.73-1.95-1.46c-1.38-1.25-3.46-3.14-7.91-5.72
		c-2.57-1.49-6.39-3.24-10.43-5.09c-6.05-2.77-12.91-5.91-14.51-7.89c-0.65-0.81-1.59-3.51-2.45-6.34c0.49-0.97,1.84-3.63,1.96-4.04
		c0.52-1.8,0.58-4.27,0.56-5.76c0.3,0.14,0.67,0.22,1.1,0.16c1.49-0.18,2.88-2.5,4.55-5.5c0.47-0.84,0.91-1.64,1.25-2.12
		c1.44-2.06,1.13-6.52,0.07-9.86c-0.31-0.98-0.83-1.54-1.56-1.67c-0.99-0.18-2.08,0.57-2.86,1.29c0.15-4.16,0.09-15.87-4.71-21.64
		c-4.14-4.97-12.42-6.2-15.56-6.5h-1.24c-3.14,0.3-11.42,1.53-15.56,6.5c-4.81,5.77-4.86,17.48-4.71,21.64
		c-0.78-0.72-1.87-1.47-2.86-1.29c-0.72,0.13-1.25,0.7-1.55,1.67c-1.05,3.34-1.37,7.8,0.07,9.86c0.34,0.48,0.78,1.28,1.25,2.12
		c1.67,3.01,3.06,5.32,4.55,5.5c0.44,0.05,0.8-0.02,1.1-0.16c-0.02,1.49,0.04,3.96,0.56,5.76c0.12,0.41,1.44,3.03,1.94,4.02
		c-0.86,2.84-1.81,5.56-2.46,6.37c-1.6,1.98-8.46,5.12-14.51,7.89c-4.04,1.85-7.86,3.6-10.43,5.09c-4.45,2.58-6.53,4.47-7.91,5.72
		c-0.81,0.74-1.35,1.22-1.95,1.46c-0.38,0.15-0.78,0.28-1.2,0.41c-1.57,0.5-3.36,1.08-5.15,3.17c-0.7,0.82-1.94,1.39-3.38,2.05
		c-2.66,1.22-5.96,2.75-7.55,6.77c-2.39,6.06-6.36,20.42-5.45,26.27c0.8,5.09,2.17,9.26,2.49,10.19c-0.42,1.06-2.43,6.32-3.56,11.82
		c-1.2,5.82-1.9,18.16-1.99,19.78c-0.89,1.26-7.23,10.49-7.23,18.96v8.69c-0.6,0.98-3.74,6.64-3.07,17.7
		c0.26,4.24,0.73,8.15,1.23,12.28c0.9,7.37,2.71,14.99,2.37,24.85c-0.53,15.03-0.4,27.91,1.46,33.63
		c0.81,2.47,5.16,14.83,5.36,15.36c0,0,0.17,0.57,0.72,0.4c0.03-0.01,2.79-0.79,3.08-4.41l1.14,1.17c0.2,0.21,0.54,0.18,0.71-0.05
		l0.05-0.07c0.09-0.12,1.37-1.95,1.76-4.23c0.81-1.24,2.45-4.42,0.47-7.45c-0.82-1.25-3.79-4.29-4.48-5
		c-0.05-0.63-0.25-2.58-0.78-4.71c-0.46-2.58-0.19-4.51,0.39-5.83c0.16-0.32,0.34-0.63,0.53-0.95c0.45-0.63,0.98-1.03,1.48-1.22
		c0.13-0.05,0.2-0.03,0.28,0.02c1.16,0.75,1.43,2.75,1.72,4.86c0.27,1.98,0.62,3.99,1.55,5.63c1.15,2.02,4.43,2.79,4.85-1.07
		c0.3-2.74,0.3-6.12,0.29-7.55l-0.08-1.45c-0.3-5.51-0.51-8.31-3.47-13.12c-1.3-2.11-1.32-3.28-0.5-11.47
		c0.4-3.99,2.96-10.49,5.56-17.38c2.97-7.87,6.05-16.01,6.25-20.73c0.3-7.32-0.66-10.95-1.01-12c0.62-0.74,2.34-3.03,2.81-5.99
		c0.54-3.44,0.37-9.42,0.36-9.56c0.02-0.1,1.82-10.42,4.8-15.15c2.19-3.49,5.16-9.69,6.61-13.38c0.81,3.66,1.52,6.63,1.98,8.02
		c0.74,2.21,1.67,4.66,2.57,7.03c1.29,3.38,2.51,6.58,2.82,8.24c0.31,1.64,0.39,9.94,0.24,24.67c-0.01,0.77-0.01,1.28-0.01,1.43
		c-0.03,0.28-0.65,1.38-1.2,2.36c-1.87,3.31-5,8.85-4.42,13.52c0.65,5.21,1.44,7.4,1.72,8.05c-0.59,1.88-4.95,16.15-4.28,26.44
		c0.23,3.59-1.18,9.19-2.96,16.28c-2.3,9.14-5.17,20.52-6.14,33.64c-1.43,19.42,2.65,51.33,4.19,63.34
		c0.33,2.57,0.55,4.27,0.58,4.79c0.07,1.27-0.04,2.14-0.18,3.16c-0.19,1.38-0.39,2.94-0.18,5.88c0.05,0.67,0.2,1.45,0.45,2.34
		c-1.08,2.8-2.07,5.59-2.93,8.18c-7.19,16.17-3.99,33.35-0.9,49.96c0.67,3.6,1.36,7.33,1.94,10.97l0.09,0.84
		c0.73,6.56,1.49,13.34-0.15,19.54c-0.83,3.14-1.7,4.97-2.34,6.12c0,0-0.01,0.01-0.01,0.01c-0.06,0.05-0.08,0.11-0.09,0.17
		c-0.15,0.26-0.29,0.48-0.4,0.68c-0.11,0.19-0.21,0.35-0.29,0.48c-0.65,1.18-0.66,2.54-0.38,3.84c-0.19,0.51-1.61,4.09-5.23,6.14
		c-3.4,1.93-6.44,3.21-7.53,3.75c-2.55-0.41-5.53,0.37-6.14,1.02c-0.46,0.49-0.92,1.25-0.92,3.15c0,1.84,2.21,2.67,3.19,2.95
		c0,0.65,0.16,1.87,1.06,3.26c1.28,2,9.25,4.52,12.62,5.51c1.15,0.34,3.37,1.87,5.33,3.21c1.84,1.27,3.58,2.47,4.65,2.87
		c1.09,0.41,3.39,0.8,6.09,0.8c3.31,0,7.21-0.59,10.23-2.48c5.69-3.56,1.78-18.33,1.61-18.96c-0.2-0.74-0.42-1.55-0.65-2.41
		c-0.71-2.67-1.51-5.69-2.33-8.15c0.03-0.93,0.51-1.9,1.02-2.92c0.56-1.12,1.14-2.28,1.14-3.49l-0.02-0.14
		c-5.15-18.53,2.5-35.94,9.89-52.78l0.95-2.17c0.36-1.42,0.84-2.88,1.31-4.29c0.96-2.88,1.95-5.86,1.95-8.9
		c-0.46-4.13-1.66-8.16-2.93-12.43c-0.75-2.54-1.77-6.27-2.67-9.67c4.4-6.7,8.27-15.22,9.2-20.29c0.69-3.78,1.3-10.93,1.99-19.22
		c0.62-7.32,1.31-15.61,2.16-22.23c1.05-8.17,3.21-17.4,4.95-24.82c1.19-5.07,2.22-9.45,2.55-12.09c0.74-5.84-0.34-12.7-0.59-14.13
		c0.68-2.09,0.97-4.48,1.03-6.9c0.06,2.42,0.35,4.81,1.03,6.9c-0.25,1.43-1.33,8.29-0.58,14.13c0.34,2.64,1.36,7.02,2.55,12.09
		c1.74,7.42,3.9,16.64,4.95,24.82c0.85,6.62,1.55,14.92,2.16,22.23c0.7,8.28,1.3,15.44,1.99,19.22c0.93,5.06,4.78,13.56,9.18,20.26
		c-0.94,3.55-1.98,7.4-2.66,9.7c-1.27,4.27-2.47,8.31-2.93,12.43c0,3.04,0.99,6.01,1.95,8.9c0.47,1.41,0.96,2.87,1.31,4.29
		l0.95,2.17c7.39,16.84,15.03,34.26,9.89,52.78l-0.02,0.14c0,1.21,0.58,2.37,1.14,3.49c0.51,1.03,1,1.99,1.02,2.92
		c-0.82,2.46-1.62,5.48-2.33,8.15c-0.23,0.86-0.44,1.67-0.65,2.41c-0.17,0.63-4.08,15.4,1.61,18.96c3.01,1.88,6.92,2.48,10.23,2.48
		c2.7,0,5-0.39,6.09-0.8c1.07-0.4,2.81-1.6,4.65-2.87c1.96-1.35,4.18-2.87,5.33-3.21c3.37-0.99,11.34-3.51,12.62-5.51
		c0.9-1.4,1.05-2.61,1.06-3.26c0.98-0.28,3.19-1.12,3.19-2.95c0-1.9-0.47-2.66-0.92-3.15c-0.6-0.64-3.59-1.43-6.14-1.01
		c-1.09-0.54-4.13-1.82-7.53-3.75c-3.62-2.05-5.04-5.63-5.23-6.14c0.28-1.31,0.27-2.66-0.38-3.84c-0.07-0.14-0.17-0.3-0.29-0.48
		c-0.12-0.19-0.25-0.41-0.4-0.68c-0.01-0.06-0.03-0.12-0.09-0.17c0,0-0.01-0.01-0.01-0.01c-0.64-1.14-1.51-2.98-2.34-6.12
		c-1.64-6.2-0.88-12.98-0.15-19.54l0.09-0.84c0.58-3.64,1.27-7.37,1.94-10.97c3.09-16.61,6.29-33.79-0.9-49.96
		c-0.86-2.58-1.85-5.36-2.93-8.16c0.25-0.89,0.41-1.69,0.45-2.36c0.21-2.94,0-4.5-0.18-5.88c-0.14-1.01-0.25-1.89-0.18-3.16
		c0.03-0.52,0.25-2.22,0.58-4.79c1.54-12.01,5.62-43.91,4.19-63.34c-0.97-13.13-3.83-24.5-6.14-33.64
		c-1.79-7.09-3.2-12.69-2.96-16.28c0.67-10.29-3.69-24.56-4.28-26.44c0.29-0.65,1.08-2.84,1.72-8.05
		c0.58-4.67-2.55-10.21-4.42-13.52c-0.55-0.98-1.17-2.08-1.2-2.36c0-0.15,0-0.66-0.01-1.43c-0.14-14.74-0.06-23.04,0.24-24.67
		c0.31-1.67,1.53-4.86,2.82-8.24c0.9-2.37,1.84-4.82,2.57-7.03c0.46-1.39,1.17-4.34,1.98-7.99c1.45,3.69,4.41,9.87,6.6,13.34
		c2.98,4.73,4.78,15.04,4.8,15.15c-0.01,0.15-0.18,6.12,0.36,9.56c0.47,2.96,2.19,5.24,2.81,5.99c-0.35,1.05-1.31,4.68-1.01,12
		c0.2,4.72,3.27,12.86,6.25,20.73c2.6,6.89,5.16,13.39,5.56,17.38c0.82,8.19,0.8,9.36-0.5,11.47c-2.96,4.81-3.16,7.61-3.47,13.12
		l-0.08,1.45c-0.01,1.43-0.02,4.81,0.29,7.55c0.43,3.86,3.71,3.09,4.85,1.07c0.93-1.64,1.29-3.64,1.55-5.63
		c0.29-2.12,0.56-4.12,1.72-4.86c0.08-0.05,0.15-0.07,0.28-0.02c0.5,0.19,1.03,0.59,1.48,1.22c0.19,0.32,0.37,0.63,0.53,0.95
		c0.58,1.33,0.85,3.25,0.39,5.83c-0.53,2.13-0.73,4.08-0.78,4.71c-0.69,0.7-3.66,3.74-4.48,5c-1.99,3.03-0.34,6.21,0.47,7.45
		c0.39,2.28,1.67,4.11,1.76,4.23l0.05,0.07c0.17,0.23,0.51,0.26,0.71,0.05l1.14-1.17c0.29,3.61,3.05,4.4,3.08,4.41
		c0.55,0.17,0.72-0.4,0.72-0.4c0.2-0.52,4.56-12.89,5.36-15.36c1.87-5.72,2-18.59,1.46-33.63c-0.35-9.86,1.47-17.48,2.37-24.85
		c0.5-4.14,0.98-8.04,1.23-12.28C302.07,270.09,298.93,264.43,298.33,263.45z M290.13,236.31c0.05,0.07,3.23,4.49,5.32,9.98
		c0.07,0.19,0.14,0.37,0.21,0.56c0.03,0.09,0.07,0.19,0.1,0.28c0.07,0.19,0.13,0.37,0.19,0.56c0.77,2.3,1.29,4.73,1.29,7.07v8.1
		c-4.1-4.96-10-8.8-11.14-15.3c1.49-3.57,2.89-7.58,4-11.3L290.13,236.31z M272.19,160.73c0.71,0.45,1.54,0.83,2.4,1.23
		c2.61,1.2,5.57,2.56,6.99,6.18c2.35,5.96,6.27,20.05,5.38,25.71c-0.68,4.34-1.78,8-2.26,9.48c-2.33-2.54-4.82-4.97-7.69-6.81
		c-4.68-2.99-10-3.99-14.86-6.5c-7.78-4.02-8.83-16.41-2.22-22.74C263.7,163.66,267.55,161.4,272.19,160.73z M213.84,198.68
		c-0.34-8.85-2.06-18.45,0.16-27.17c1.83-7.16,6.23-12.44,12.47-15.9c3.65,1.99,7.76,3.31,12.03,3.97
		c3.76,0.58,12.21,1.86,18.78,0.74c0.83,5.65-6.81,6.03-10.02,6.22c-1.09,0.07-2.14,0.11-3.22,0.28c-2.27,0.36-5.36,0.57-7.33,1.95
		c-3.65,2.54-2.82,7.03-1.95,10.95c2.12,9.56,5.36,18.4,0.68,27.87c-3.38,6.85-7.99,13.05-12.29,19.35
		c-1.37,2.01-2.85,3.92-4.26,5.91c-1.02,1.44-4.99,4.43-4.96,1.41c0.04-3.84-0.22-7.69-0.27-11.53
		C213.53,214.73,214.14,206.68,213.84,198.68z M255.48,183.8c0.15,0.47,0.33,0.9,0.53,1.32c-4.03,4.9-9.4,8.11-15.39,10.13
		c-0.7-1.09-1.42-2.16-2.18-3.21c-0.04-0.05-0.08-0.08-0.13-0.1c-0.16-1.1-0.38-2.23-0.67-3.37c-1.4-5.54-6.64-18,1.74-20.12
		c1.09-0.28,2.18-0.45,3.28-0.58c4.53,2.03,8.53,4.87,11.96,8.46c0.01,0.01,0.02,0.01,0.03,0.02
		C254.42,178.68,254.66,181.18,255.48,183.8z M238.46,193.23c2.53,3.6,4.69,7.42,6.48,11.47c-2.87-0.35-5.55-1.01-7.31-1.58
		C238.48,199.94,238.8,196.68,238.46,193.23z M240.97,195.82c5.95-2.03,11.32-5.23,15.37-10.07c0.95,1.66,2.32,2.91,3.91,3.9
		c-0.35,1.82-1.18,6.11-2.17,11.11c-1.57,3.99-7.17,4.57-12.39,4.04C244.33,201.67,242.76,198.68,240.97,195.82z M264.96,156.36
		c0.39,0.16,0.81,0.29,1.23,0.42c1.51,0.48,3.07,0.98,4.66,2.84c0.17,0.19,0.36,0.37,0.56,0.54c-8.52,1.36-15.49,7.26-16.67,15.37
		c-3.16-3.23-6.78-5.85-10.84-7.8c2.77-0.25,5.55-0.29,8.27-0.88c3.7-0.8,6.24-3.24,5.77-6.65
		C260.98,159.59,263.55,158.42,264.96,156.36z M244.58,144.05c4.02,1.84,7.81,3.58,10.34,5.04c4.35,2.52,6.38,4.37,7.72,5.59
		c0.65,0.59,1.17,1.06,1.72,1.39c-5.43,7.91-29.32,2.58-34.81,0.35c-5.87-2.38-8.38-5.36-11.99-10.36
		c-3.54-4.9-3.94-9.25-4.06-15.11c-0.07-3.33-0.24-6.71-0.14-10.04c0-1,0.08-1.98,0.24-2.97c0.11-1.13,1.29-2.14,2.45-1.69
		c1.26,0.48,2.21,1.72,2.79,2.87c0.54,1.07,1.02,2.17,1.55,3.25c2.38,4.89,5.1,10.07,9.35,13.55
		C231.58,138.09,238.19,141.12,244.58,144.05z M198.57,121.06c0,0-0.75,2.97-1.69,6.2c-0.46-0.9-1.28-2.52-1.36-2.78
		c-0.73-2.52-0.47-6.66-0.47-6.7l0.16-2.56l-1.19,2.28c-0.01,0.03-0.38,0.69-1.08,0.61c-1.06-0.13-2.73-3.15-3.73-4.95
		c-0.5-0.91-0.94-1.69-1.31-2.22c-1.08-1.54-1.05-5.37,0.07-8.91c0.18-0.56,0.42-0.88,0.72-0.93c0.77-0.14,2.13,1.09,2.85,2.01
		l1.1,1.38l-0.13-1.76c-0.01-0.16-1.11-15.75,4.39-22.36c4.08-4.9,12.88-5.95,15.34-6.15c2.46,0.2,11.26,1.25,15.34,6.15
		c5.5,6.6,4.4,22.2,4.39,22.36l-0.13,1.76l1.1-1.38c0.73-0.92,2.08-2.15,2.85-2.01c0.3,0.06,0.54,0.37,0.72,0.93
		c1.12,3.54,1.15,7.37,0.07,8.91c-0.37,0.53-0.81,1.31-1.31,2.22c-1,1.8-2.67,4.82-3.73,4.95c-0.69,0.08-1.06-0.58-1.08-0.61
		l-1.19-2.28l0.16,2.56c0,0.04,0.26,4.18-0.47,6.7c-0.08,0.26-0.91,1.91-1.38,2.8c-0.95-3.24-1.7-6.23-1.7-6.23
		c0.06,0.43,1.3,9.11,2.92,13.18c-4.08-3.96-6.53-9.52-8.98-14.59c-0.56-1.15-2.9-5.98-5.21-4.61c-2.39,1.42-1.98,5.37-1.91,7.74
		c0.15,5.24-0.75,11.26,0.58,16.37c1.89,7.3,6.53,12.63,12.5,16.08c-5.51,3.13-10.37,8-11.96,14.26
		c-2.63,10.31-0.58,20.63-0.62,31.08c-0.05,11.2,0.32,22.51,0.05,33.7c-0.04,1.66,0.65,3.86,2.04,3.58
		c0.12,1.77,0.31,3.54,0.53,5.31c-0.7-1.32-1.86-3.32-2.84-4.29c-0.4-0.4-1.12-0.38-1.54,0.04c-0.94,0.95-2.02,2.63-2.77,3.96
		c0.2-1.67,0.38-3.34,0.49-5.01c1.39,0.27,2.08-1.92,2.04-3.58c-0.27-11.19,0.1-22.49,0.05-33.7c-0.04-10.45,2.01-20.77-0.62-31.08
		c-1.6-6.26-6.45-11.13-11.96-14.26c5.97-3.45,10.61-8.78,12.5-16.08c1.33-5.11,0.43-11.13,0.58-16.37
		c0.07-2.37,0.48-6.33-1.91-7.74c-2.31-1.37-4.65,3.46-5.21,4.61c-2.46,5.08-4.92,10.66-9.02,14.62
		C197.27,130.21,198.51,121.49,198.57,121.06z M216.11,245.23c1.1,7.73,3,15.38,5.17,22.83c0.83,2.86,1.83,10.27,5.49,12.19
		c2.61,2.05,1.96,5.36,1.7,6.42c-0.55,2.29-11.8,16.58-15.66,20.35c-0.3,0.29-0.86,0.3-1.17,0.01
		c-4.16-3.85-15.33-17.85-15.88-20.14c-0.26-1.07-0.81-4.5,1.84-6.57c3.77-1.81,4.79-9.37,5.63-12.26
		c2.2-7.58,4.13-15.37,5.22-23.24c0.86-1.76,2.18-3.85,3.02-4.95c0.6-0.79,1.06-0.7,1.6,0.08
		C213.79,240.98,215.26,243.42,216.11,245.23z M169.84,176.37c0.02-0.01,0.03-0.02,0.05-0.03c3.43-3.6,7.42-6.44,11.96-8.46
		c1.1,0.13,2.19,0.31,3.28,0.58c8.38,2.12,3.14,14.58,1.74,20.12c-0.29,1.15-0.51,2.27-0.67,3.37c-0.05,0.02-0.09,0.05-0.13,0.1
		c-0.76,1.05-1.49,2.12-2.18,3.21c-6-2.02-11.37-5.24-15.4-10.15c0.2-0.41,0.38-0.84,0.52-1.3
		C169.81,181.19,170.06,178.69,169.84,176.37z M183.53,195.82c-1.79,2.86-3.37,5.85-4.72,8.98c-5.09,0.53-10.55,0.02-12.31-3.67
		c-1.03-5.17-1.89-9.64-2.25-11.49c1.59-0.99,2.95-2.24,3.9-3.9C172.2,190.58,177.57,193.78,183.53,195.82z M186.04,193.23
		c-0.34,3.44-0.03,6.7,0.83,9.89c-1.75,0.57-4.43,1.23-7.31,1.59C181.35,200.66,183.51,196.84,186.04,193.23z M189.75,179.74
		c0.87-3.93,1.7-8.41-1.95-10.95c-1.97-1.37-5.06-1.59-7.33-1.95c-1.08-0.17-2.13-0.22-3.23-0.28c-3.21-0.19-10.85-0.57-10.02-6.22
		c6.57,1.12,15.02-0.16,18.78-0.74c4.27-0.66,8.38-1.98,12.03-3.97c6.24,3.46,10.65,8.74,12.48,15.9
		c2.22,8.72,0.49,18.32,0.16,27.17c-0.3,8,0.3,16.05,0.19,24.07c-0.06,3.84-0.31,7.69-0.27,11.53c0.03,3.02-3.95,0.03-4.96-1.41
		c-1.41-1.99-2.88-3.9-4.26-5.91c-4.3-6.29-8.95-12.48-12.34-19.33c-0.72-1.45-1.25-2.89-1.62-4.32c0,0,0-0.01,0-0.01
		C185.33,195.41,187.95,187.82,189.75,179.74z M161.84,154.68c1.34-1.22,3.37-3.06,7.72-5.59c2.53-1.47,6.32-3.2,10.34-5.04
		c6.34-2.91,12.89-5.91,14.79-8.08c4.3-3.48,7.03-8.68,9.42-13.6c0.52-1.08,1.01-2.18,1.55-3.25c0.58-1.15,1.53-2.39,2.79-2.87
		c1.16-0.45,2.35,0.56,2.45,1.69c0.16,0.98,0.24,1.97,0.24,2.97c0.1,3.33-0.07,6.71-0.14,10.04c-0.12,5.86-0.51,10.21-4.06,15.11
		c-3.61,4.99-6.12,7.98-11.99,10.36c-5.5,2.23-29.4,7.56-34.82-0.36C160.68,155.73,161.19,155.27,161.84,154.68z M153.63,159.63
		c1.59-1.86,3.15-2.36,4.66-2.84c0.43-0.14,0.85-0.27,1.25-0.43c1.41,2.06,3.98,3.24,7.02,3.85c-0.47,3.41,2.07,5.85,5.77,6.65
		c2.72,0.59,5.5,0.64,8.27,0.88c-4.07,1.95-7.7,4.58-10.86,7.82c-1.17-8.12-8.14-14.03-16.67-15.39
		C153.28,160,153.47,159.82,153.63,159.63z M137.51,193.85c-0.89-5.66,3.03-19.75,5.38-25.71c1.42-3.62,4.38-4.98,6.99-6.18
		c0.86-0.4,1.69-0.78,2.4-1.23c4.64,0.67,8.48,2.93,12.27,6.55c6.61,6.33,5.55,18.72-2.22,22.74c-4.86,2.51-10.18,3.52-14.86,6.5
		c-2.88,1.84-5.36,4.26-7.69,6.81C139.29,201.85,138.19,198.19,137.51,193.85z M127.23,254.76c0-2.34,0.53-4.77,1.29-7.07
		c0.06-0.19,0.13-0.38,0.19-0.56c0.03-0.09,0.07-0.19,0.1-0.28c0.07-0.19,0.14-0.38,0.21-0.56c2.09-5.49,5.27-9.92,5.32-9.98
		l0.03-0.04c1.11,3.72,2.51,7.73,4,11.3c-1.15,6.5-7.04,10.33-11.14,15.3V254.76z M126.12,298.46c-0.27-1.75-0.52-3.46-0.73-5.15
		c-0.5-4.12-0.97-8.01-1.23-12.22c-0.02-0.27-0.03-0.54-0.04-0.81c-0.01-0.15-0.01-0.29-0.02-0.44c-0.01-0.2-0.01-0.4-0.02-0.59
		c0-0.13-0.01-0.26-0.01-0.39c0-0.2,0-0.41,0-0.61c0-0.12,0-0.23,0-0.35c0-0.23,0.01-0.45,0.01-0.67c0-0.08,0-0.17,0-0.25
		c0.22-8.34,2.75-12.6,3.02-13.04c3.89-5.21,10.04-8.99,11.68-15.39c0.32,0.74,0.64,1.45,0.96,2.14c0.39,0.84,0.87,1.33,1.4,1.58
		c-1.81,9.28-6.39,17.12-10.39,25.65C127.72,284.4,126.41,291.39,126.12,298.46z M143.19,252.38c0.04,5.27,1.94,10.11,5.48,14.01
		c-1.29,2.12-2.45,4.35-3.49,6.65c-3.18-4.99-4.68-10.59-4.35-16.56c0.37-1.31,0.7-2.64,0.96-4
		C142.23,252.54,142.7,252.49,143.19,252.38z M142.05,251.05c0.85-9.81,3.89-19.95,9.27-28.29c0.58-0.95,1.32-1.75,2.21-2.4
		c3.7-2.73,1.52,5.8,1.38,6.23c-0.65,2.05-1.35,4.08-1.98,6.14c-1.92,6.31-4.2,12.45-7.58,18.1c-0.13,0.03-0.26,0.07-0.39,0.11
		C143.75,251.27,142.81,251.29,142.05,251.05z M144.86,273.75c-3.42,7.79-5.41,16.4-5.8,24.94c-1.21,4.43-3.14,9.78-3.96,14.16
		c-0.39,2.07-0.64,4.17-1.06,6.23c-0.03,0.13-0.06,0.25-0.09,0.38c-0.01,0.04-0.02,0.07-0.03,0.11c-0.03,0.09-0.06,0.18-0.09,0.26
		c-1.06,2.89-4.49,4.32-4.93-0.33c-1.07-11.34-0.28-24.59,0.52-35.85c0.86-2.77,1.94-5.5,3.27-8.21c2.78-5.67,5.56-11,7.47-16.78
		C140.27,264.07,141.85,269.19,144.86,273.75z M136.26,362.63c0,2.42-1.19,3.42-1.86,3.79c-0.58-1.52-2.25-6.07-3.56-9.78l5.43,5.55
		C136.26,362.34,136.26,362.53,136.26,362.63z M138.68,363.11l-8.67-8.87c-0.39-1.15-0.68-2.07-0.81-2.56
		c-0.27-1.08-0.51-2.28-0.71-3.59c1.07,1.97,2.61,4.24,4.21,5.92c3.15,3.31,6.49,6.14,7.03,6.6
		C139.45,361.66,139,362.57,138.68,363.11z M142.88,322.92c2.31,3.66,2.94,7.19,3.23,12.5l0.08,1.43c0.02,2.54-0.08,5.31-0.29,7.39
		c-0.17,1.7-1.54,2.69-2.85,0.62c-0.88-1.4-1.14-3.33-1.4-5.19c-0.32-2.37-0.62-4.61-2.21-5.63c-0.24-0.15-0.5-0.22-0.77-0.21
		c0.97-1.3,1.89-2.38,2.27-2.91c-1.84,0.66-5.89,3.95-6.07,7.49c-0.23,1.21-0.22,2.61,0.12,4.18c-0.01,0.06,0,0.13,0.02,0.21
		c0.7,2.59,0.86,5.09,0.87,5.12c0.22,0.84,3.78,4.01,4.64,5.32c1.67,2.55,0.24,5.23-0.46,6.26c-1.06-0.91-3.9-3.39-6.59-6.21
		c-2.71-2.85-5.11-7.38-5.46-8.9c-0.62-6.53-0.65-15.19-0.27-26.04c0.21-5.93-0.36-11.04-1.04-15.78
		c-0.03-5.18,0.48-10.18,1.64-15.07c-0.46,7.38-0.66,14.77-0.46,22.17c0.04,1.5-0.47,13.43,1.76,14.14
		c2.29,0.73,4.25-1.56,4.82-3.29c0.96-2.86,1.04-6.21,1.6-9.17c0.57-3.02,1.87-6.71,2.92-10.05c-0.04,6.62,0.9,13.14,2.91,19.16
		C142.12,321.38,142.43,322.21,142.88,322.92z M153.95,272.61c-0.19,4.55-3.23,12.6-6.18,20.39c-2.63,6.95-5.03,13.53-5.62,17.63
		c-0.32,2.2-0.54,4.25-0.56,6.09c-4.58-18.47-0.2-40.59,11.47-55.51C153.41,262.39,154.22,265.93,153.95,272.61z M155.76,254.5
		c-0.51,3.22-2.73,5.65-2.75,5.67c0,0-2.82,3.77-3.98,5.63c-3.4-3.8-5.19-8.48-5.19-13.61c1.07-0.34,2.2-0.89,3.31-1.21
		c4.5-1.29,7.17-3.71,9.12-6.88c-0.1,0.51-0.15,0.84-0.17,0.92C156.11,245.09,156.28,251.16,155.76,254.5z M160.94,229.46
		c-2.05,3.39-3.46,9.01-4.23,12.54c-1.79,3.59-4.24,6.57-8.82,8.1c-0.54,0.18-1.09,0.34-1.64,0.49c3.96-6.89,6.07-14.33,8.61-21.91
		c0.33-0.99,3.62-9.67-0.39-9.23c-3.87,0.42-6.04,6.98-7.35,9.89c-3.08,6.85-5.02,13.98-5.7,21.45c-1.09-0.62-1.78-1.86-2.52-3.51
		c-1.62-3.64-3.21-8.61-4.37-12.78c0.23-3.74,0.89-13.42,1.89-18.25c1.24-6.02,3.56-11.76,3.58-11.82l0.2-0.29
		c5.38-5.43,10.85-9.28,18.61-12.04c1.51-0.54,3.04-1.14,4.44-1.9c0.75,3.89,3,15.56,4.91,24.42
		C167.27,217.27,163.71,224.89,160.94,229.46z M176.07,236.37c-0.53-1.53-1.21-3.3-1.9-5.12c-0.9-2.36-1.83-4.8-2.56-6.98
		c-0.95-2.86-3.05-12.85-4.78-21.52c4.07,4.7,15.38,2.58,20.22,1c0.87,2.98,2.2,5.9,3.94,8.88c4.82,8.25,10.56,16.51,16.54,23.96
		c0.37,0.46,0.71,0.78,1.02,0.98c-0.56,8.3-2.27,16.6-4.32,24.63c-0.87,3.41-1.94,6.78-2.87,10.17c-0.65,2.37-1.37,5.23-3.44,6.82
		c-3.05,2.34-4.46-2.1-4.88-4.45c-1.19-6.76-4.92-13.8-7.89-19.95C182.18,248.69,179.22,242.43,176.07,236.37z M177.12,240.31
		c1.02,2.3,2.01,4.61,3.21,6.97c2.71,5.34,5.59,10.45,7.9,16c2.1,5.02,3.6,9.75,4.59,15.08c0.1,0.57,0.25,0.99,0.46,1.32
		c-4.96-1.26-8.8-5.37-12.78-8.52c-1.61-1.28-2.63-3-3.24-4.91c0.02-0.09,0.03-0.18,0.03-0.25c0-0.16,0-0.67,0.01-1.43
		C177.35,259.38,177.5,244.27,177.12,240.31z M171.66,281.73c-0.53-4.32,2.48-9.66,4.29-12.85c0.49-0.88,0.84-1.49,1.06-1.95
		c0.51,1.31,1.2,2.57,2.12,3.76c2.18,2.81,6.01,5.29,8.91,7.32c1.05,0.74,2.09,1.31,3.16,1.74c-5.44,4.12-13.09,5.41-17.76,10.19
		l0.04-0.12l-0.11-0.2C173.35,289.6,172.41,287.79,171.66,281.73z M172.86,291.84c7.69-5.63,15.84-8.65,23.07,0.03
		c3.18,3.81,6.27,7.7,8.96,11.83c-2.88-2.57-6.95-3.35-12.81-0.89c-3.65,1.54-7.1,3.74-10.58,5.62c-0.9,0.49-5.84,2.25-5.88,4.16
		c-2.47,1.54-4.65,3.44-6.52,5.67c0.04-0.71,0.05-1.37,0.01-1.97C168.55,307.68,171.58,296.2,172.86,291.84z M160.01,366.36
		c0.96-13.03,3.81-24.36,6.1-33.46c1.36-5.42,2.51-9.97,2.89-13.5c1.89-2.42,4.13-4.47,6.7-6.1c0.64,3.64,2.87,6.57,3.25,10.48
		c0.55,5.62-1.67,11.34-3.46,16.56c-0.52,1.52-2.65,6.66-2.83,10.45l-0.03,0.03c-7.01,16.24-9.14,33.38-11.57,50.66
		C159.99,389.39,159.28,376.24,160.01,366.36z M161.32,404.27c2.52-17.7,4.46-35.3,11.39-51.96c0.17,1.24,0.68,2.2,1.73,2.59
		c2.1,0.8,4.07,0.45,6.18-0.21c1.82-0.57,3.62-1.19,5.42-1.81c1.1,5.07,0.39,10.96,0.03,15.82c-0.67,8.92-2.1,17.79-3.85,26.55
		c-2.95,14.75-8.98,28.67-15.04,42.48c-0.7,1.5-1.37,3.04-2.02,4.61c-0.23,0.52-0.45,1.03-0.68,1.55c-0.03-0.19-0.05-0.37-0.06-0.54
		c-0.2-2.83,0-4.33,0.18-5.65c0.14-1.02,0.27-1.99,0.19-3.36c-0.03-0.55-0.25-2.27-0.58-4.86
		C163.5,424.1,162.3,414.72,161.32,404.27z M178.53,410.64c-0.08,10.24,5.46,20.63,8.76,29.04c-3.33,4.76-5.91,9.83-7.87,15.14
		c-0.18-8.57-3.3-16.64-9-23.19C173.35,424.71,176.15,417.75,178.53,410.64z M161.79,454.51c0.02-0.06,0.05-0.11,0.07-0.17
		c1.37-4.11,3.95-11.24,5.72-16.07c0.86-1.99,1.71-3.98,2.56-5.98c5.88,6.87,8.88,15.37,8.63,24.37c-2.46,7.27-3.8,14.99-4.28,23.03
		c-0.34,5.67-0.46,11.38-0.47,17.08c-2.93,3.8-9.46,2.59-10.3-2.91c0-0.03-0.02-0.05-0.03-0.07
		C161.62,480.73,160.1,467.63,161.79,454.51z M162.88,535.54c1.69-6.4,0.92-13.28,0.18-19.94l-0.1-0.86
		c-0.58-3.68-1.28-7.41-1.95-11.02c-3.04-16.34-5.91-31.82-0.14-46.96c-1.24,12.41,0.25,24.8,2.21,37.17
		c-0.01,0.04-0.01,0.08-0.01,0.12c0.03,0.22,0.08,0.43,0.13,0.64c1.76,10.97,3.85,21.92,4.7,32.85c-1.22,4.25-3.26,8.08-6.1,11.41
		C162.16,538.01,162.53,536.89,162.88,535.54z M181.38,540.89c-0.02,0.93-0.51,1.91-1.02,2.94c-0.26,0.52-0.52,1.05-0.73,1.59
		c-1.9-8.16-1.71-16.54,0.56-24.56C179.31,527.38,179.49,534.05,181.38,540.89z M180.89,516.66c-3.73,9.87-4.38,20.44-1.67,30.6
		c0,0.02,0,0.03,0,0.05l0.03,0.17c0.11,0.34,0.23,0.7,0.34,1.06c0.11,0.38,0.22,0.76,0.35,1.13c0.58,1.94,1.14,4.05,1.65,5.98
		c0.23,0.86,0.45,1.67,0.65,2.41c0.04,0.15,3.88,14.62-1.14,17.76c-5.08,3.17-13.15,2.41-15.36,1.58c-0.94-0.35-2.71-1.57-4.42-2.75
		c-2.12-1.46-4.32-2.97-5.64-3.36c-5.38-1.58-11.18-3.76-12.02-5.05c-1.07-1.67-0.88-2.95-0.87-2.99l0.09-0.52l-0.52-0.11
		c-0.03-0.01-2.78-0.6-2.78-2.01c0-1.73,0.43-2.18,0.63-2.41c0.3-0.32,1.72-1.04,3.77-0.79l-2.51,1.56c0,0,1.35,0.66,3.98-1.06
		c3.19-2.08,6.19-3.15,8.17-4.27c2.95-1.67,4.49-4.23,5.15-5.57c0.46,1.22,1.06,2.31,1.49,3.06c0.15,0.27,0.31,0.54,0.45,0.8
		c0,0-2.32-6.41-1.06-8.7c0.07-0.13,0.16-0.27,0.26-0.44c0.29-0.47,0.68-1.12,1.13-2.06c3.17-3.3,5.52-7.17,6.99-11.46
		c0.66,10.02,0.22,20.02-2.54,29.99c-0.11,0.41,1.87-4.84,2.29-7.35c3.07-18.29-0.6-36.63-3.61-55.01c2.24,3.27,7.06,3.59,9.83,0.79
		c0,5.54,0.1,11.08,0.19,16.59c0.04,2.24,0.15,4.42,0.33,6.56c0,0,0.34-5.67,0.29-8.64c-0.05-2.83-0.08-5.66-0.09-8.49
		c2.05,3.02,6.48,3.87,9.4,1.38C182.8,508.92,181.68,512.77,180.89,516.66z M192.58,460.4c1.25,4.22,2.44,8.21,2.88,12.18
		c0,2.8-0.96,5.69-1.9,8.49c-0.48,1.43-0.97,2.91-1.31,4.29l-0.92,2.09c-2.33,5.3-4.68,10.66-6.65,16.09
		c-2.77,3.75-8.29,2.83-9.96-1.05c-0.01-7.03,0.08-14.05,0.32-21.07c0.29-8.49,1.62-16.69,4.23-24.41c0.05-0.1,0.09-0.19,0.13-0.29
		c0-0.03,0-0.05,0-0.08c1.97-5.71,4.65-11.15,8.16-16.23c0.5,1.32,0.94,2.59,1.29,3.79C189.14,449.99,191.01,455.11,192.58,460.4z
		 M190.57,448.99c-0.98-3.71-1.74-6.7-1.74-6.7c0,0.03,0,0.07,0,0.1c-0.02-0.12-0.05-0.22-0.07-0.3
		c-3.85-11.81-10.85-21.78-9.59-33.37c1.78-5.53,3.29-11.15,4.38-16.91c1.6-8.43,2.77-16.97,3.34-25.53
		c0.28-4.25,0.69-9.2-0.25-13.61c3.08-1.07,6.16-2.16,9.27-3.14c0.97-0.31,1.93-0.64,2.88-0.99c-3.92,11.33-3.54,22.8-1.78,34.27
		c-7.03,18.5,2.15,39.38-2.13,58.49C193.58,443.93,192.11,446.57,190.57,448.99z M201.06,410.83c-0.67,7.91-1.29,15.38-1.98,19.11
		c-0.44,2.38-1.59,5.63-3.15,9.09c2.94-18.07-4.78-37.54,1.27-54.94c1.17,7.2,2.84,14.4,4.3,21.57
		C201.35,407.41,201.2,409.15,201.06,410.83z M210.73,351.64c-0.33,2.58-1.35,6.94-2.53,11.98c-1.74,7.44-3.91,16.7-4.97,24.93
		c-0.58,4.48-1.08,9.73-1.54,14.91c-3.84-18.41-8.63-37.01-2.12-55.22c4.08-1.61,7.8-3.79,10.3-7.64c0.18-0.27,0.34-0.57,0.49-0.86
		C210.68,341.7,211.36,346.73,210.73,351.64z M210.37,337.75c-1.46,6.53-9.06,9.36-14.64,11.16c-5.43,1.72-10.76,3.73-16.19,5.45
		c-10.49,3.31-3.64-13.13-2.16-17.55c1.53-4.57,2.94-9.93,2.05-14.79c-0.43-2.32-1.1-4.32-2.19-6.39c-2.42-4.58,5.61-7.18,8.18-8.57
		c6.11-3.31,13.83-8.41,19.99-2.54c1.34,2.12,2.57,4.3,3.64,6.58c0.7,2.39,1.07,4.91,1.43,7.12
		C211.51,324.63,211.79,331.37,210.37,337.75z M212.25,328.94c-0.07-3.16-0.45-6.27-0.82-8.73c-0.78-5.19-2.05-10.53-4.54-14.2
		c-3.7-7.15-7.78-11.75-12.74-17.17c-5.91-6.47-14.03-2.83-20.15,1.38c4.7-4.76,12.58-6.02,17.92-10.21
		c0.95,0.32,1.95,0.52,3.03,0.62c0.13,0.02,0.25,0.05,0.39,0.06c0.3,0.04,0.59,0.03,0.86,0c-1.48,1.85-1.64,4.34-1.15,6.35
		c0.64,2.67,6.34,10.22,16.59,21.11c0.28,0.29,0.76,0.34,1.05,0.06c10.63-10.69,15.84-18.7,16.49-21.38
		c0.47-1.97,0.42-4.33-0.95-6.14c0.3,0.03,0.61,0.03,0.94,0c0.14-0.02,0.26-0.04,0.39-0.06c1.08-0.1,2.08-0.31,3.03-0.62
		c5.35,4.2,13.24,5.46,17.94,10.23c-6.12-4.22-14.26-7.89-20.18-1.4c-4.95,5.42-9.04,10.02-12.73,17.17
		c-2.49,3.68-3.76,9.02-4.54,14.21C212.7,322.68,212.31,325.78,212.25,328.94z M247.2,264.56c0.01,0.76,0.01,1.27,0.01,1.43
		c0,0.08,0.01,0.16,0.03,0.25c-0.61,1.91-1.63,3.63-3.24,4.91c-3.98,3.15-7.83,7.26-12.78,8.52c0.21-0.33,0.35-0.76,0.46-1.32
		c0.99-5.33,2.49-10.05,4.59-15.08c2.31-5.54,5.2-10.66,7.9-16c1.18-2.33,2.19-4.66,3.21-6.99
		C247,244.22,247.14,259.37,247.2,264.56z M214.03,318.21c0.36-2.21,0.73-4.74,1.43-7.13c1.07-2.28,2.3-4.46,3.64-6.58
		c6.16-5.87,13.88-0.77,19.99,2.54c2.57,1.39,10.6,3.99,8.18,8.57c-1.09,2.07-1.76,4.07-2.19,6.39c-0.89,4.86,0.52,10.22,2.05,14.79
		c1.48,4.42,8.32,20.86-2.17,17.55c-5.43-1.71-10.76-3.73-16.19-5.45c-5.58-1.8-13.18-4.63-14.64-11.16
		C212.7,331.37,212.99,324.63,214.03,318.21z M221.27,388.55c-1.06-8.23-3.23-17.49-4.97-24.93c-1.18-5.04-2.2-9.4-2.53-11.98
		c-0.63-4.91,0.05-9.93,0.37-11.91c0.16,0.3,0.32,0.59,0.49,0.86c2.5,3.84,6.22,6.03,10.3,7.64c6.51,18.22,1.71,36.82-2.12,55.22
		C222.35,398.27,221.85,393.03,221.27,388.55z M225.42,429.94c-0.68-3.73-1.31-11.2-1.98-19.11c-0.14-1.68-0.29-3.41-0.44-5.16
		c1.45-7.17,3.13-14.37,4.3-21.57c6.05,17.4-1.67,36.86,1.27,54.94C227.01,435.57,225.85,432.32,225.42,429.94z M229.63,441.3
		c-4.28-19.11,4.89-39.99-2.13-58.49c1.77-11.48,2.15-22.95-1.78-34.27c0.95,0.35,1.91,0.68,2.88,0.99
		c3.11,0.98,6.19,2.07,9.27,3.14c-0.94,4.4-0.53,9.36-0.25,13.61c0.57,8.56,1.74,17.1,3.34,25.53c1.09,5.77,2.6,11.38,4.38,16.91
		c1.25,11.6-5.81,21.66-9.66,33.47c-0.03,0.08-0.8,3.11-1.77,6.79C232.37,446.56,230.91,443.91,229.63,441.3z M245.97,410.64
		c2.42,7.23,5.28,14.31,8.26,21.35c-5.42,5.78-8.98,15.36-8.89,23.54c-1.99-5.58-4.65-10.88-8.13-15.86
		C240.51,431.27,246.05,420.88,245.97,410.64z M239.79,503.52c-1.97-5.43-4.32-10.77-6.64-16.07l-0.92-2.09
		c-0.34-1.38-0.83-2.86-1.31-4.29c-0.93-2.8-1.9-5.69-1.9-8.49c0.44-3.97,1.63-7.96,2.88-12.18c1.6-5.37,3.74-10.7,3.97-16.61
		c0-0.78,0.58-2.16,1.05-3.39c8.31,12.03,12.01,26.09,12.52,41.01c0.24,7.02,0.34,14.05,0.32,21.07
		C248.09,506.38,242.55,507.3,239.79,503.52z M244.13,543.82c-0.51-1.03-1-2-1.02-2.94c1.89-6.84,2.07-13.51,1.19-20.04
		c2.27,8.03,2.47,16.4,0.56,24.56C244.65,544.87,244.39,544.34,244.13,543.82z M264.57,542.8c0.11,0.17,0.19,0.32,0.26,0.44
		c1.26,2.29-1.06,8.7-1.06,8.7c0.14-0.26,0.29-0.53,0.45-0.8c0.43-0.75,1.03-1.84,1.49-3.06c0.66,1.34,2.21,3.9,5.15,5.57
		c1.98,1.12,4.99,2.19,8.17,4.27c2.63,1.72,3.98,1.06,3.98,1.06l-2.51-1.56c2.05-0.24,3.47,0.48,3.77,0.79
		c0.2,0.22,0.63,0.68,0.63,2.41c0,1.41-2.75,2-2.78,2.01l-0.52,0.11l0.09,0.52c0.01,0.05,0.2,1.33-0.87,2.99
		c-0.83,1.29-6.63,3.47-12.02,5.05c-1.32,0.39-3.51,1.9-5.64,3.36c-1.71,1.18-3.48,2.39-4.42,2.75c-2.21,0.83-10.28,1.6-15.36-1.58
		c-5.02-3.14-1.17-17.61-1.13-17.76c0.2-0.74,0.42-1.55,0.65-2.41c0.51-1.93,1.08-4.03,1.65-5.98c0.12-0.38,0.23-0.76,0.34-1.13
		c0.11-0.36,0.23-0.72,0.34-1.06l0.03-0.17c0-0.02,0-0.03,0-0.05c2.71-10.17,2.05-20.73-1.67-30.6c-0.79-3.9-1.91-7.75-3.24-11.56
		c2.93,2.51,7.36,1.66,9.42-1.37c-0.01,2.83-0.04,5.66-0.09,8.49c-0.05,2.96,0.28,8.64,0.28,8.64c0.18-2.14,0.29-4.32,0.33-6.56
		c0.1-5.51,0.19-11.05,0.19-16.59c2.76,2.79,7.58,2.47,9.82-0.78c-3.01,18.38-6.68,36.72-3.61,55c0.42,2.51,2.4,7.75,2.29,7.35
		c-2.76-9.98-3.2-19.98-2.54-29.99c1.47,4.29,3.82,8.16,6.99,11.46C263.89,541.68,264.28,542.33,264.57,542.8z M263.47,503.71
		c-0.67,3.61-1.37,7.34-1.95,11.02l-0.1,0.86c-0.74,6.65-1.51,13.54,0.18,19.94c0.36,1.35,0.72,2.47,1.08,3.41
		c-2.84-3.33-4.89-7.17-6.1-11.42c0.86-10.9,2.94-21.81,4.69-32.75c0.06-0.24,0.11-0.48,0.15-0.74c0.01-0.06,0-0.11-0.01-0.15
		c1.96-12.36,3.44-24.74,2.21-37.14C269.38,471.89,266.51,487.37,263.47,503.71z M262.63,454.34c0.03,0.06,0.05,0.11,0.07,0.17
		c1.69,13.12,0.18,26.22-1.89,39.31c-0.01,0.02-0.02,0.03-0.02,0.06c-0.84,5.5-7.37,6.72-10.3,2.91
		c-0.01-5.71-0.13-11.41-0.47-17.08c-0.47-7.76-1.73-15.22-4.03-22.27l0.01,0c-0.73-8.32,2.83-18.7,8.49-24.86
		c0.79,1.86,1.58,3.71,2.38,5.56C258.63,442.97,261.25,450.2,262.63,454.34z M260.31,429.48c-0.33,2.59-0.55,4.31-0.58,4.86
		c-0.08,1.37,0.05,2.34,0.19,3.36c0.18,1.33,0.38,2.83,0.18,5.65c-0.01,0.17-0.04,0.35-0.06,0.54c-0.29-0.68-0.59-1.35-0.89-2.03
		c-0.54-1.29-1.09-2.56-1.66-3.79c-6.11-13.92-12.22-27.95-15.19-42.82c-1.75-8.76-3.18-17.64-3.85-26.55
		c-0.36-4.86-1.08-10.75,0.03-15.82c1.8,0.62,3.61,1.24,5.42,1.81c2.1,0.66,4.08,1.01,6.17,0.21c1.05-0.4,1.56-1.35,1.73-2.59
		c6.94,16.66,8.87,34.26,11.39,51.96C262.2,414.72,261,424.1,260.31,429.48z M258.38,332.9c2.29,9.1,5.14,20.43,6.11,33.46
		c0.73,9.88,0.02,23.03-1.06,35.12c-2.43-17.28-4.55-34.42-11.57-50.66l-0.03-0.03c-0.18-3.79-2.31-8.93-2.83-10.45
		c-1.78-5.22-4-10.94-3.45-16.56c0.38-3.91,2.61-6.84,3.25-10.48c2.56,1.64,4.81,3.68,6.7,6.1
		C255.87,322.93,257.02,327.48,258.38,332.9z M255.39,316.28c-0.04,0.61-0.03,1.27,0.01,1.98c-1.88-2.23-4.05-4.13-6.52-5.67
		c-0.04-1.91-4.98-3.67-5.88-4.16c-3.48-1.89-6.93-4.09-10.58-5.62c-5.85-2.46-9.93-1.68-12.81,0.89c2.69-4.13,5.78-8.01,8.96-11.83
		c7.24-8.69,15.38-5.66,23.07-0.03C252.92,296.2,255.95,307.69,255.39,316.28z M248.55,268.88c1.8,3.19,4.82,8.53,4.29,12.85
		c-0.75,6.06-1.69,7.87-1.7,7.88l-0.11,0.2l0.04,0.12c-4.67-4.78-12.32-6.07-17.76-10.19c1.07-0.43,2.11-1,3.16-1.74
		c2.9-2.03,6.72-4.51,8.91-7.32c0.93-1.19,1.62-2.45,2.12-3.76C247.71,267.38,248.06,268,248.55,268.88z M252.89,224.27
		c-0.73,2.19-1.66,4.62-2.56,6.98c-0.7,1.83-1.37,3.6-1.9,5.12c-3.15,6.06-6.11,12.32-9.06,18.43c-2.97,6.15-6.71,13.19-7.9,19.95
		c-0.41,2.35-1.82,6.78-4.87,4.45c-2.08-1.59-2.79-4.44-3.44-6.82c-0.93-3.4-2-6.76-2.87-10.17c-2.05-8.03-3.77-16.34-4.32-24.63
		c0.31-0.21,0.65-0.53,1.02-0.98c5.98-7.45,11.72-15.71,16.54-23.96c1.74-2.97,3.07-5.9,3.94-8.87c4.86,1.58,16.2,3.69,20.23-1.05
		C255.94,211.38,253.85,221.4,252.89,224.27z M263.41,229.38c-2.73-4.34-6.19-12-7.09-14.71c1.91-8.86,4.17-20.55,4.92-24.46
		c1.4,0.75,2.92,1.35,4.43,1.89c7.76,2.75,13.38,6.64,18.75,12.07l-0.02,0.06l0.08,0.19c0.02,0.06,2.34,5.8,3.58,11.82
		c0.99,4.83,1.66,14.52,1.89,18.25c-1.15,4.16-2.74,9.14-4.37,12.78c-0.74,1.65-1.43,2.9-2.52,3.51c-0.68-7.47-2.62-14.61-5.7-21.45
		c-1.31-2.91-3.48-9.47-7.35-9.89c-4.01-0.44-0.72,8.24-0.39,9.23c2.54,7.58,4.65,15.02,8.61,21.91c-0.55-0.15-1.1-0.31-1.64-0.49
		c-4.58-1.53-7.01-4.42-8.8-8.01C267.02,238.56,265.52,232.74,263.41,229.38z M291.79,275.44c1.33,2.71,2.41,5.45,3.27,8.21
		c0.8,11.26,1.59,24.51,0.52,35.85c-0.44,4.65-3.86,3.22-4.93,0.33c-0.03-0.09-0.06-0.17-0.09-0.26c-0.01-0.04-0.02-0.07-0.03-0.11
		c-0.04-0.12-0.07-0.25-0.09-0.38c-0.42-2.06-0.67-4.16-1.06-6.23c-0.83-4.38-2.76-9.73-3.96-14.16c-0.38-8.55-2.38-17.16-5.8-24.95
		c3.8-5.59,4.66-11.49,4.82-14.76C286.34,264.64,289.06,269.88,291.79,275.44z M283.68,256.53c0.03,0.34,0.67,8.62-4.44,16.43
		c-1.03-2.26-2.16-4.47-3.43-6.56c3.54-3.9,5.44-8.74,5.48-14.01c0.49,0.11,0.96,0.16,1.4,0.09
		C282.95,253.86,283.3,255.2,283.68,256.53z M279.51,250.94c-0.13-0.04-0.26-0.07-0.39-0.11c-3.38-5.65-5.66-11.79-7.58-18.1
		c-0.63-2.06-1.33-4.09-1.98-6.14c-0.14-0.43-2.33-8.96,1.38-6.23c0.89,0.65,1.63,1.45,2.21,2.4c5.38,8.34,8.42,18.49,9.27,28.29
		C281.67,251.29,280.73,251.27,279.51,250.94z M268.72,254.5c-0.53-3.34-0.36-9.41-0.35-9.47c-0.01-0.09-0.07-0.41-0.17-0.92
		c1.95,3.17,4.63,5.59,9.12,6.88c1.11,0.32,2.25,0.87,3.31,1.21c0,5.12-1.79,9.8-5.19,13.61c-1.16-1.87-2.87-4.32-3.98-5.63
		C271.45,260.15,269.23,257.72,268.72,254.5z M276.71,293.01c-2.94-7.79-5.99-15.85-6.18-20.39c-0.28-6.68,0.54-10.22,0.89-11.4
		c11.68,14.92,16.05,37.05,11.47,55.51c-0.02-1.84-0.25-3.89-0.56-6.09C281.74,306.54,279.34,299.96,276.71,293.01z M290.08,366.42
		c-0.67-0.37-1.86-1.38-1.86-3.79c0-0.1-0.01-0.29-0.01-0.44l5.43-5.55C292.33,360.35,290.66,364.9,290.08,366.42z M295.28,351.68
		c-0.12,0.49-0.42,1.41-0.81,2.56l-8.67,8.87c-0.32-0.55-0.77-1.45-1.06-2.5c0.55-0.46,3.88-3.29,7.03-6.6
		c1.6-1.68,3.15-3.96,4.21-5.92C295.79,349.4,295.55,350.6,295.28,351.68z M296.72,318.32c0.38,10.85,0.36,19.51-0.27,26.04
		c-0.35,1.52-2.75,6.06-5.46,8.9c-2.69,2.82-5.52,5.3-6.59,6.21c-0.7-1.04-2.13-3.72-0.46-6.26c0.85-1.3,4.42-4.48,4.64-5.32
		c0.01-0.03,0.17-2.53,0.87-5.12c0.02-0.08,0.02-0.14,0.02-0.21c0.34-1.57,0.35-2.97,0.12-4.18c-0.17-3.54-4.23-6.83-6.07-7.49
		c0.39,0.53,1.31,1.61,2.27,2.91c-0.27-0.01-0.53,0.06-0.77,0.21c-1.58,1.02-1.89,3.26-2.21,5.63c-0.25,1.87-0.51,3.8-1.4,5.19
		c-1.31,2.08-2.68,1.08-2.85-0.62c-0.21-2.08-0.31-4.85-0.29-7.39l0.08-1.43c0.29-5.3,0.92-8.84,3.23-12.5
		c0.45-0.71,0.76-1.54,0.97-2.47c2.01-6.02,2.95-12.54,2.91-19.16c1.05,3.34,2.35,7.03,2.92,10.05c0.56,2.96,0.64,6.3,1.6,9.17
		c0.58,1.73,2.53,4.02,4.82,3.29c2.23-0.71,1.72-12.64,1.76-14.14c0.2-7.4,0-14.78-0.46-22.17c1.16,4.89,1.67,9.89,1.64,15.07
		C297.07,307.28,296.51,312.39,296.72,318.32z M300.41,278.25c0,0.2,0,0.4,0,0.61c0,0.13-0.01,0.26-0.01,0.39
		c0,0.2-0.01,0.39-0.02,0.59c-0.01,0.14-0.01,0.29-0.02,0.44c-0.01,0.27-0.02,0.53-0.04,0.81c-0.26,4.21-0.73,8.1-1.23,12.22
		c-0.21,1.7-0.46,3.41-0.73,5.15c-0.29-7.07-1.6-14.06-4.65-20.54c-4-8.52-8.58-16.37-10.39-25.65c0.53-0.25,1.01-0.75,1.4-1.58
		c0.32-0.68,0.64-1.4,0.96-2.14c1.64,6.4,7.79,10.19,11.68,15.39c0.28,0.44,2.8,4.69,3.02,13.04c0,0.08,0,0.17,0,0.25
		c0.01,0.22,0.01,0.44,0.01,0.67C300.41,278.02,300.41,278.14,300.41,278.25z"/>
</g>
</svg>
