<svg id="Layer_1" data-name="Layer 1" xmlns="http://www.w3.org/2000/svg" viewBox="0 0 176.21 508.27"><defs><style>.cls-1{fill:#fff;}.cls-2{fill:#e92a2a;}.cls-3{fill:#d52626;}</style></defs><g id="Front"><path class="cls-1" d="M293.08,259.5v-8.57c0-6.19-3.44-12.8-5.57-16.31,2.11-7.08,2.14-24,1-31.88-.7-4.78-4-8.67-5.67-11.17,0-.19.07-.38.1-.58.9-5.78-3-20-5.38-25.93-1.56-4-4.82-5.47-7.44-6.67a10.13,10.13,0,0,1-3.34-2,9.7,9.7,0,0,0-5.08-3.12c-.41-.13-.8-.26-1.18-.41a7.2,7.2,0,0,1-1.92-1.45,41.14,41.14,0,0,0-7.8-5.64c-2.42-1.4-5.81-3-9.4-4.75-5.89-2.82-12.76-6.07-14.4-8.09-1.49-1.84-1.65-7.68-1.67-9.6a19.13,19.13,0,0,0,.77-6.3,2,2,0,0,0,1.08.16c1.47-.18,2.85-2.46,4.49-5.43.46-.83.9-1.62,1.23-2.1,1.42-2,1.11-6.43.07-9.73a2.11,2.11,0,0,0-1.53-1.65,3.75,3.75,0,0,0-2.82,1.28c.14-4.11.09-15.67-4.65-21.36-4.09-4.9-12.26-6.12-15.35-6.41h-1.22c-3.1.29-11.27,1.51-15.35,6.41-4.75,5.69-4.8,17.25-4.65,21.36a3.76,3.76,0,0,0-2.82-1.28A2.12,2.12,0,0,0,183,99.9c-1,3.3-1.35,7.7.07,9.73.34.48.77,1.27,1.23,2.1,1.65,3,3,5.25,4.49,5.43a2.08,2.08,0,0,0,1.09-.16c0,1.82.07,5.1,1,6.83h0c0,1.35-.32,7.16-1.9,9.11s-8.31,5.22-14.2,8c-3.59,1.73-7,3.35-9.39,4.75a40.77,40.77,0,0,0-7.81,5.65,7.18,7.18,0,0,1-1.92,1.44c-.38.15-.77.28-1.18.41a9.84,9.84,0,0,0-5.08,3.12,10,10,0,0,1-3.34,2c-2.62,1.2-5.88,2.71-7.44,6.67-2.36,6-6.28,20.16-5.38,25.93.07.42.14.82.21,1.22-1.66,2.48-4.65,6.09-5.33,10.75-1.15,7.81-1.28,24.11.79,31.24-2.1,3.39-5.82,10.28-5.82,16.73v8.57c-.6,1-3.69,6.56-3,17.47.25,4.18.72,8,1.22,12.12.88,7.27,3.85,15.51,3.5,25.24-.52,14.83-.31,29,.28,31.72.53,2.51,5.17,14.7,5.36,15.22l.17.45.47-.12a4.68,4.68,0,0,0,3-4.47l1.49,1.69.39-.54a11.26,11.26,0,0,0,1.76-4.27c.82-1.39,2.53-5,.54-8-2.26-3.45-6-10.58-6-10.65h0c0-.25,0-.45-.06-.59.55-4.24,0-5.79,1.57-6.38a.27.27,0,0,1,.28,0c1.15.74,1.41,2.71,1.7,4.8a13.67,13.67,0,0,0,1.53,5.55c1.17,1.85,3,4.23,5.07,2.49,1.38-1.15.17-9-.17-11.37a57.24,57.24,0,0,0-1.57-8.37c-.74-2.95-1.18-4.48-1.37-5.84a73.36,73.36,0,0,1,.62-9.22c.49-3.92,2.92-10.34,5.49-17.14,2.93-7.77,6-15.8,6.16-20.46.3-7.22-.65-10.81-1-11.84a13,13,0,0,0,2.76-5.91,65.26,65.26,0,0,0,.36-9.44c0-.1,1.8-10.28,4.73-14.94a103.84,103.84,0,0,0,6.92-14.11,59.15,59.15,0,0,0,1.65,8.52c.72,2.18,1.65,4.6,2.54,6.94a64,64,0,0,1,2.78,8.13c.44,2.33.13,19.48,0,25.12,0,1.2,0,2,0,2.2v0a.93.93,0,0,0-.22.5c-.23.41-.58,1-.91,1.49-1.78,2.8-4.75,7.48-4.18,12.09.64,5.15,1.42,7.3,1.7,7.94-.58,1.86-4.88,15.94-4.22,26.09.23,3.55-1.16,9.07-2.92,16.07-2.28,9-6.57,29.79-7.53,42.74-1.41,19.17,4.09,41.1,5.6,52.95.33,2.54.54,4.22.57,4.72a14.53,14.53,0,0,1-.17,3.12,24.74,24.74,0,0,0-.18,5.8,9.32,9.32,0,0,0,.13,1c-.74,1.66-7.26,16.65-7.44,26.43-.08,4.78,1.45,15.38,3.07,26.6,1.47,10.17,2.86,20.67,3.31,27.16v.17c0,.54.06,1.06.09,1.54a95.74,95.74,0,0,1-.49,11.08,14.92,14.92,0,0,0-1,5.44,5.22,5.22,0,0,1-.43.39c-1.92,1.64-2.7,3.85-3.45,6-.24.7-.48,1.37-.75,2-1,2.42-10.22,10-11.49,10.79-1,.62-3.49,4.29-3.49,4.29-.94,1-.65,2.66-.46,3.76,0,.19.07.37.09.53a4.34,4.34,0,0,0,.4,1.31,2.06,2.06,0,0,1,.22.74,9.6,9.6,0,0,1-.1,1.14,10,10,0,0,0-.11,1.06c0,.61,0,2.08.61,2.57a2.38,2.38,0,0,0,1.13.57c0,.15-.11.35-.19.59a2.36,2.36,0,0,0,2.63,3,1,1,0,0,0,0,.2,2.67,2.67,0,0,0,1.32,2.3,2.08,2.08,0,0,0,2.09.07,6.39,6.39,0,0,0,5.56,2.34,5.34,5.34,0,0,0,.8-.13,9.13,9.13,0,0,0,5.85-4.9,5.17,5.17,0,0,1,3-3.11c4.29-1.35,6.64-6.13,7.26-10.58a24.8,24.8,0,0,1,3.72-9.07,13.13,13.13,0,0,0,6.31-5.1,6.42,6.42,0,0,0,1.23-5.84c-.43-1.86-1.6-10.65-2-12a38.59,38.59,0,0,1-.8-3.9c-.87-4.64,4.88-28.55,6.57-33.21.65-1.78,1.58-3.73,2.65-6a98.3,98.3,0,0,0,5.91-14.6c2.74-9.12-1.59-29.28-2.12-31.66a77.75,77.75,0,0,0,4.24-8.65,36.56,36.56,0,0,0,2.37-7.34c.69-3.73,1.28-10.79,2-19,.61-7.22,1.29-15.4,2.13-21.93,1-8.07,3.18-17.17,4.89-24.49,1.17-5,2.19-9.33,2.52-11.93a43.64,43.64,0,0,0-.34-11.86,10.32,10.32,0,0,0,1.76,0,43.62,43.62,0,0,0-.34,11.86c.33,2.6,1.35,6.93,2.52,11.93,1.71,7.32,3.85,16.42,4.89,24.49.84,6.53,1.52,14.71,2.13,21.93.69,8.18,1.28,15.24,2,19a36.56,36.56,0,0,0,2.37,7.34,79.54,79.54,0,0,0,4.24,8.65c-.53,2.38-4.86,22.54-2.12,31.66a98.3,98.3,0,0,0,5.91,14.6c1.07,2.26,2,4.21,2.65,6,1.69,4.66,7.44,28.57,6.57,33.21a38.59,38.59,0,0,1-.8,3.9c-.4,1.36-1.57,10.15-2,12a6.42,6.42,0,0,0,1.23,5.84,13.13,13.13,0,0,0,6.31,5.1,24.8,24.8,0,0,1,3.72,9.07c.62,4.45,3,9.23,7.26,10.58a5.15,5.15,0,0,1,3,3.11,9.13,9.13,0,0,0,5.85,4.9,5.34,5.34,0,0,0,.8.13,6.39,6.39,0,0,0,5.56-2.34,2.08,2.08,0,0,0,2.09-.07,2.77,2.77,0,0,0,1.33-2.5,2.36,2.36,0,0,0,2.64-3l-.18-.56h0v0a2.38,2.38,0,0,0,1.13-.57c.59-.49.62-2,.61-2.57,0-.34-.06-.7-.1-1.06a8,8,0,0,1-.11-1.14,2.06,2.06,0,0,1,.22-.74,4.34,4.34,0,0,0,.4-1.31c0-.16.06-.34.09-.53.19-1.1.48-2.75-.46-3.76,0,0-2.5-3.67-3.49-4.29-1.27-.79-10.46-8.37-11.49-10.79-.27-.63-.51-1.3-.75-2-.75-2.14-1.53-4.35-3.45-6a5.22,5.22,0,0,1-.43-.39,14.92,14.92,0,0,0-1-5.44,95.74,95.74,0,0,1-.49-11.08c0-.48.06-1,.09-1.54l0-.17h0c.45-6.49,1.84-17,3.31-27.16,1.62-11.22,3.15-21.82,3.07-26.6-.17-9.71-6.62-24.56-7.43-26.39a8.89,8.89,0,0,0,.18-1.14,25.31,25.31,0,0,0-.18-5.8,14.43,14.43,0,0,1-.18-3.11c0-.51.25-2.19.57-4.73,1.52-11.85,7-33.78,5.6-52.94-1-13-5.25-33.73-7.52-42.75-1.76-7-3.15-12.52-2.92-16.06.66-10.16-3.64-24.24-4.23-26.09.28-.65,1.07-2.8,1.7-7.95.57-4.61-2.4-9.29-4.17-12.09a11.24,11.24,0,0,1-1.14-2c0-.19,0-1,0-2.2-.11-5.64-.41-22.79,0-25.12a64.42,64.42,0,0,1,2.79-8.13c.89-2.34,1.81-4.76,2.54-6.94a57.37,57.37,0,0,0,1.57-8.2h0a148.35,148.35,0,0,0,6.68,13.71c3.64,6.44,4.89,17,5.09,24.38.08,2.95,2.16,5.17,2.77,5.9-.34,1-1.29,4.63-1,11.85.19,4.66,3.23,12.69,6.16,20.45,2.57,6.8,5,13.23,5.49,17.15.35,2.83.7,4.67.72,6.06a34,34,0,0,1-.12,4,48.09,48.09,0,0,1-1.27,5.22,58.56,58.56,0,0,0-1.57,8.36c-.33,2.34-1.55,10.23-.16,11.38,2.09,1.74,3.89-.65,5.06-2.49a13.88,13.88,0,0,0,1.54-5.55c.28-2.09.54-4.06,1.69-4.8a.27.27,0,0,1,.28,0c1.58.59,1,2.13,1.57,6.37q0,.22-.06.6h0c0,.07-3.77,7.2-6,10.65-2,3-.28,6.62.54,8a11.27,11.27,0,0,0,1.76,4.26l.4.55,1.48-1.69a4.7,4.7,0,0,0,3,4.47l.47.12.17-.45c.2-.52,4.83-12.71,5.36-15.22.59-2.73.8-16.89.28-31.72-.34-9.73,2.62-18,3.5-25.24.5-4.08,1-7.94,1.22-12.12C296.76,266.06,293.67,260.46,293.08,259.5Z" transform="translate(-119.99 -71.76)"/></g><g id="Pectinius_Inner_groin_muscle_" data-name="Pectinius (Inner groin muscle)"><path class="cls-2" d="M200.48,375.28c-.09-1.6-.22-3.82-.37-5.41-.07-.83-.15-1.65-.24-2.48a177.78,177.78,0,0,1,5.19-33.06c.34.08.82.15,1.2.2.13.8.31,2.13.45,3.8.11,1.3.19,2.77.17,4.33a30.32,30.32,0,0,1-.22,3.66c-.08.63-.17,1.44-.32,2.26-.29,1.56-.7,3.41-1.17,5.5-.3,1.33-.67,2.78-1,4.25s-.63,2.81-1,4.3-.73,3.1-1.07,4.68c-.53,2.42-1.12,5.19-1.59,7.68Zm-1-11.35c-.06-.45-.13-.9-.19-1.35-.33-2.27-.72-4.56-1.19-6.82-.3-1.44-.63-2.88-1-4.3a51.67,51.67,0,0,1,6.06-17.78,9.14,9.14,0,0,0,1.3.48,179.47,179.47,0,0,0-5,29.77m-2.82-13.88c0,.55-.31-1.07-.48-1.59s-.43-1.3-.66-1.94-.42-1.09-.63-1.64a35.27,35.27,0,0,1,5.5-13.05,18.85,18.85,0,0,0,2.17,1.56,52.62,52.62,0,0,0-5.88,16.6Zm-2.2-6.22-.15-.36c-.64-1.58-1.27-3.24-1.94-4.81l-.72-1.69,5.63-9.33a17.09,17.09,0,0,0,2.64,3.73,34.6,34.6,0,0,0-5.44,12.43Zm-3.12-7.61c-.74-1.79-1.45-3.59-2.07-5.43l-.09-.28a86.9,86.9,0,0,1,5.83-7.95c.07.16.12.32.19.48.55,1.28,1.21,2.43,1.86,3.7l-4,6.68-1.68,2.8m-2.42-6.51c-.15-.46-.29-.92-.42-1.37-.34-1.14-.65-2.28-.93-3.43a81.16,81.16,0,0,1,5.59-6.21c.23.43.45.87.67,1.32.29.61.57,1.25.85,1.9a86.36,86.36,0,0,0-5.76,7.79m-1.54-5.59c-.24-1-.45-2-.66-2.94,1.51-1.72,3.17-3.45,4.94-5.15.38.68.76,1.38,1.16,2.07-1.93,1.94-3.75,3.95-5.44,6m-.83-3.74c-.52-2.57-1-5.14-1.43-7.71-.35-2-.7-4-1.08-6a65.72,65.72,0,0,0-.64-6.7q1,1.93,2.07,4.12c.32.63.64,1.28,1,1.95,1.2,2.4,2.5,5,4,7.66.3.57.61,1.14.93,1.72-1.71,1.63-3.31,3.29-4.78,4.95" transform="translate(-119.99 -71.76)"/><path class="cls-3" d="M194.86,344.91a35.43,35.43,0,0,1,5.5-13.08c-.16-.15-.32-.3-.47-.46a34.53,34.53,0,0,0-5.48,12.46c.14.35.14.76.28,1.11Z" transform="translate(-119.99 -71.76)"/><path class="cls-3" d="M196.59,350a52,52,0,0,1,5.92-16.57c.2.1.39.2.6.29A52.85,52.85,0,0,0,197,351.8S196.74,350.5,196.59,350Z" transform="translate(-119.99 -71.76)"/><path class="cls-3" d="M199.83,369.1A195.36,195.36,0,0,1,205,334.38l-.63-.17a178.64,178.64,0,0,0-5,29.78C199.56,365.14,199.83,369.1,199.83,369.1Z" transform="translate(-119.99 -71.76)"/><path class="cls-3" d="M186.56,321.24c-.06-.27,0-.57-.09-.84,1.47-1.65,3.09-3.32,4.8-4.95l.33.6c-1.78,1.7-3.42,3.44-4.94,5.16Z" transform="translate(-119.99 -71.76)"/><path class="cls-3" d="M187.37,324.91c-.06-.26,0-.5-.07-.77,1.7-2.06,3.54-4.08,5.48-6a.75.75,0,0,0,.07.12c.09.15.18.31.26.47a83.35,83.35,0,0,0-5.59,6.23Z" transform="translate(-119.99 -71.76)"/><path class="cls-3" d="M189,330.57c-.09-.27-.1-.59-.18-.85a86.49,86.49,0,0,1,5.8-7.8l.06.14c.07.18.15.36.23.54a84.94,84.94,0,0,0-5.82,7.95Z" transform="translate(-119.99 -71.76)"/><path class="cls-3" d="M191.45,337c-.1-.25,0-.54-.15-.79l1.7-2.8,3.92-6.47.06.1.3.58-5.72,9.5Z" transform="translate(-119.99 -71.76)"/><path class="cls-2" d="M215.14,375.48c-.47-2.47-.34-5.92-.87-8.33-.34-1.57-.69-3.1-1-4.6s-.68-2.93-1-4.3-.67-2.87-1-4.18c-.48-2.08-.89-3.95-1.18-5.5-.15-.81-.27-1.53-.35-2.15a35.92,35.92,0,0,1-.25-3.69c0-1.56.06-3,.16-4.32.15-1.66.35-3,.48-3.81a10.93,10.93,0,0,0,1.08-.2,180,180,0,0,1,5.21,33.19c-.09.82,0,1.33-.06,2.15-.15,1.59-.33,5.86-.42,7.45Zm1.66-11.26a182,182,0,0,0-5-30,10.55,10.55,0,0,0,1.3-.48,51.16,51.16,0,0,1,6.06,17.68c-.38,1.42-.71,2.85-1,4.28-.47,2.25-.83,4.52-1.16,6.79-.06.44-.14,1-.2,1.42Zm2.82-14.29a52,52,0,0,0-5.89-16.47,19.12,19.12,0,0,0,2.17-1.55,34.45,34.45,0,0,1,5.47,12.88c-.21.55-.42,1.1-.62,1.65s-.44,1.28-.65,1.92-.33,1.05-.48,1.57m2.17-6.18a34,34,0,0,0-5.42-12.3,17,17,0,0,0,2.64-3.71l5.63,9.28-.72,1.68c-.67,1.56-1.35,3.12-2,4.69l-.14.36m3.16-7.48-1.68-2.77-3.9-6.44c.64-1.27,1.21-2.59,1.75-3.87.07-.15.13-.31.2-.46a84.05,84.05,0,0,1,5.79,7.87l-.09.28c-.62,1.83-1.33,3.62-2.07,5.39m2.42-6.47a87.27,87.27,0,0,0-5.76-7.75c.28-.64.56-1.28.85-1.89.22-.45.44-.89.67-1.31a80.78,80.78,0,0,1,5.59,6.18c-.28,1.14-.59,2.27-.93,3.4-.13.46-.27.92-.42,1.37m1.54-5.56c-1.69-2.05-3.51-4.06-5.44-6,.4-.7.78-1.39,1.16-2.06,1.77,1.69,3.43,3.41,4.94,5.12-.21,1-.42,1.95-.66,2.92m.83-3.72c-1.47-1.65-3.07-3.3-4.78-4.92l.93-1.71c1.46-2.69,2.76-5.24,4-7.62l1-1.95q1.08-2.16,2.07-4.09a65.22,65.22,0,0,0-.64,6.66c-.38,2-.73,4-1.08,6-.45,2.56-.91,5.12-1.43,7.67" transform="translate(-119.99 -71.76)"/><path class="cls-3" d="M221.38,344.82l.42-1a34,34,0,0,0-5.42-12.3c-.15.16-.31.31-.47.46a34.52,34.52,0,0,1,5.47,12.88" transform="translate(-119.99 -71.76)"/><path class="cls-3" d="M228.75,325.06c.06-.26.13-.53.19-.79-1.69-2-3.52-4.06-5.45-6a.75.75,0,0,1-.07.12l-.26.47a82.92,82.92,0,0,1,5.59,6.18" transform="translate(-119.99 -71.76)"/><path class="cls-3" d="M227.12,330.63c.09-.27.18-.53.26-.8a87.27,87.27,0,0,0-5.76-7.75l-.06.14-.23.54a85.39,85.39,0,0,1,5.79,7.87" transform="translate(-119.99 -71.76)"/><path class="cls-3" d="M224.65,337.05c.11-.25.21-.5.31-.75l-1.68-2.77-3.9-6.44-.06.1-.3.58,5.63,9.28" transform="translate(-119.99 -71.76)"/><path class="cls-3" d="M219.19,351.46c.14-.5.29-1,.44-1.49a52.12,52.12,0,0,0-5.89-16.49c-.19.1-.4.21-.61.3a50.82,50.82,0,0,1,6.06,17.68" transform="translate(-119.99 -71.76)"/><path class="cls-3" d="M216.4,367.52a179.14,179.14,0,0,0-5.19-33.11l.63-.16a179.44,179.44,0,0,1,5,29.76c-.16,1.15-.31,2.44-.43,3.59Z" transform="translate(-119.99 -71.76)"/><path class="cls-3" d="M229.58,321.35c.06-.27.12-.54.17-.8-1.47-1.64-3.07-3.3-4.78-4.92q-.15.3-.33.6c1.77,1.69,3.43,3.41,4.94,5.12" transform="translate(-119.99 -71.76)"/></g></svg>