<?xml version="1.0" encoding="utf-8"?>
<!-- Generator: Adobe Illustrator 26.0.1, SVG Export Plug-In . SVG Version: 6.00 Build 0)  -->
<svg version="1.1" id="Layer_1" xmlns="http://www.w3.org/2000/svg" xmlns:xlink="http://www.w3.org/1999/xlink" x="0px" y="0px"
	 viewBox="0 0 432 648" style="enable-background:new 0 0 432 648;" xml:space="preserve">
<style type="text/css">
	.st0{fill:#FFFFFF;}
	.st1{fill:#E92A2A;}
	.st2{fill:#D52626;}
	.st3{fill:#9A1A1C;}
	.st4{fill:#8D1819;}
</style>
<g>
	<g id="Front_00000141446736511613601770000005976018402782592670_">
		<g>
			<g>
				<g>
					<g>
						<path class="st0" d="M280.55,259.59v-8.57c0-6.19-3.43-12.79-5.57-16.3c2.11-7.08,2.14-24.02,0.99-31.87
							c-0.7-4.78-4.03-8.67-5.67-11.17c0.03-0.19,0.06-0.38,0.1-0.58c0.9-5.77-3.02-19.94-5.37-25.92
							c-1.56-3.97-4.82-5.47-7.44-6.68c-1.42-0.65-2.64-1.22-3.33-2.02c-1.77-2.06-3.53-2.63-5.08-3.12
							c-0.41-0.13-0.8-0.26-1.18-0.41c-0.6-0.24-1.12-0.72-1.92-1.44c-1.36-1.23-3.41-3.1-7.8-5.64c-2.41-1.4-5.8-3.02-9.4-4.74
							c-5.88-2.82-12.75-6.07-14.39-8.09c-1.49-1.84-1.65-7.68-1.67-9.6c0.71-1.81,0.79-4.65,0.76-6.3c0.3,0.14,0.66,0.21,1.09,0.16
							c1.47-0.18,2.84-2.46,4.48-5.43c0.46-0.83,0.9-1.62,1.23-2.09c1.42-2.03,1.11-6.43,0.07-9.73c-0.3-0.96-0.82-1.52-1.53-1.65
							c-0.98-0.18-2.05,0.57-2.82,1.27c0.15-4.11,0.09-15.66-4.65-21.35c-4.08-4.9-12.25-6.12-15.35-6.41l-1.22,0
							c-3.1,0.29-11.26,1.51-15.35,6.41c-4.74,5.69-4.79,17.24-4.65,21.35c-0.77-0.71-1.84-1.45-2.82-1.27
							c-0.71,0.13-1.23,0.69-1.53,1.65c-1.04,3.3-1.35,7.69,0.07,9.73c0.33,0.48,0.77,1.26,1.23,2.09c1.64,2.97,3.02,5.25,4.48,5.43
							c0.43,0.05,0.79-0.02,1.09-0.16c-0.03,1.82,0.07,5.1,1,6.83c0,0,0,0.01,0.01,0.01c-0.04,1.35-0.33,7.16-1.91,9.11
							c-1.64,2.02-8.3,5.22-14.19,8.03c-3.59,1.72-6.99,3.35-9.4,4.74c-4.39,2.55-6.44,4.41-7.8,5.64c-0.8,0.73-1.33,1.21-1.92,1.44
							c-0.38,0.15-0.77,0.28-1.18,0.41c-1.55,0.5-3.31,1.06-5.08,3.12c-0.69,0.81-1.92,1.37-3.33,2.02
							c-2.62,1.21-5.88,2.71-7.44,6.68c-2.35,5.98-6.27,20.15-5.37,25.92c0.06,0.41,0.13,0.82,0.21,1.22
							c-1.66,2.48-4.65,6.09-5.33,10.74c-1.15,7.81-1.27,24.11,0.8,31.24c-2.1,3.38-5.83,10.28-5.83,16.72v8.57
							c-0.59,0.96-3.69,6.55-3.03,17.46c0.25,4.18,0.72,8.04,1.22,12.12c0.88,7.27,3.85,15.5,3.5,25.23
							c-0.52,14.83-0.31,28.98,0.27,31.72c0.54,2.5,5.17,14.7,5.36,15.21l0.17,0.45l0.47-0.12c0.03-0.01,2.8-0.8,3.04-4.46
							l1.48,1.69l0.39-0.55c0.09-0.12,1.39-1.97,1.76-4.26c0.82-1.39,2.54-4.97,0.55-8c-2.26-3.45-6-10.58-6.03-10.66l0,0
							c-0.01-0.24-0.03-0.45-0.06-0.59c0.56-4.24,0-5.78,1.58-6.38c0.13-0.05,0.2-0.03,0.28,0.02c1.15,0.74,1.41,2.71,1.69,4.8
							c0.26,1.96,0.54,3.98,1.53,5.55c1.17,1.84,2.97,4.23,5.06,2.49c1.38-1.15,0.17-9.04-0.16-11.37
							c-0.42-2.92-0.42-3.74-1.57-8.36c-0.74-2.95-1.18-4.47-1.37-5.83c-0.1-1.13,0.19-5.8,0.62-9.22
							c0.49-3.92,2.92-10.34,5.48-17.14c2.93-7.77,5.97-15.79,6.16-20.45c0.3-7.22-0.65-10.8-0.99-11.84
							c0.61-0.73,2.31-2.99,2.77-5.91c0.54-3.39,0.37-9.29,0.36-9.43c0.02-0.1,1.8-10.28,4.73-14.94
							c2.23-3.54,5.52-10.48,6.91-14.11c0.51,3.59,1.08,6.8,1.65,8.52c0.73,2.18,1.65,4.6,2.54,6.93c1.27,3.34,2.47,6.48,2.78,8.13
							c0.44,2.33,0.13,19.48,0.03,25.11c-0.02,1.21-0.04,2-0.04,2.2c0,0.01,0,0.01-0.01,0.02c-0.11,0.11-0.19,0.3-0.22,0.5
							c-0.23,0.41-0.58,0.97-0.91,1.49c-1.77,2.8-4.74,7.47-4.17,12.09c0.64,5.14,1.42,7.29,1.7,7.94
							c-0.58,1.86-4.89,15.93-4.23,26.08c0.23,3.54-1.16,9.07-2.92,16.06c-2.27,9.02-6.57,29.78-7.52,42.73
							c-1.41,19.16,4.08,41.09,5.6,52.93c0.33,2.54,0.54,4.21,0.57,4.72c0.07,1.25-0.04,2.12-0.18,3.12
							c-0.18,1.36-0.39,2.9-0.18,5.8c0.02,0.29,0.07,0.61,0.14,0.95c-0.74,1.66-7.27,16.65-7.44,26.42
							c-0.08,4.78,1.45,15.38,3.06,26.6c1.47,10.16,2.86,20.66,3.31,27.15l0.01,0.17c0.04,0.54,0.07,1.06,0.09,1.54
							c0.07,3.48-0.26,10.4-0.49,11.07c-0.52,1.59-1.01,3.1-0.97,5.44c-0.14,0.14-0.28,0.27-0.42,0.39
							c-1.92,1.64-2.7,3.85-3.45,5.99c-0.25,0.7-0.48,1.36-0.75,1.99c-1.04,2.42-10.22,10-11.49,10.79
							c-0.99,0.62-3.49,4.29-3.49,4.29c-0.94,1.01-0.65,2.66-0.46,3.75c0.03,0.19,0.07,0.37,0.09,0.53c0.08,0.58,0.26,0.99,0.4,1.31
							c0.13,0.28,0.22,0.49,0.22,0.74c0.01,0.34-0.05,0.75-0.1,1.14c-0.05,0.35-0.1,0.72-0.11,1.06c-0.01,0.61,0.02,2.08,0.61,2.57
							c0.34,0.28,0.66,0.48,1.13,0.56c-0.05,0.15-0.12,0.35-0.2,0.59c-0.37,1.08,0.45,2.19,1.05,2.64c0.43,0.32,1.11,0.35,1.58,0.32
							c0,0.09,0.02,0.15,0.03,0.2c0.07,0.77,0.33,1.83,1.31,2.29c1,0.47,1.51,0.36,2.09,0.08c1.14,1.58,3.47,2.54,5.56,2.34
							c0.27-0.03,0.54-0.07,0.8-0.14c2.15-0.55,4.85-2.41,5.85-4.89c0.8-1.99,1.97-2.65,3.01-3.1c4.3-1.35,6.64-6.14,7.26-10.58
							c0.55-3.92,3.07-8.19,3.72-9.07c3-1.26,4.77-2.85,6.31-5.1c1.61-2.37,1.68-3.88,1.23-5.84c-0.43-1.87-1.59-10.65-2-12.01
							c-0.35-1.2-0.52-2.41-0.8-3.9c-0.87-4.63,4.88-28.54,6.57-33.2c0.65-1.78,1.58-3.73,2.65-5.99c1.82-3.82,4.09-8.58,5.91-14.6
							c2.74-9.11-1.59-29.27-2.12-31.65c1.59-2.79,3.01-5.69,4.24-8.64c0.98-2.36,1.91-4.82,2.37-7.34
							c0.69-3.73,1.28-10.79,1.97-18.96c0.61-7.22,1.3-15.4,2.14-21.93c1.04-8.06,3.17-17.16,4.88-24.48
							c1.17-5.01,2.19-9.33,2.52-11.93c0.62-4.87,0.01-9.73-0.34-11.85c0.38,0.04,1.49,0.05,1.76,0c-0.35,2.12-0.96,6.98-0.34,11.85
							c0.33,2.61,1.34,6.93,2.52,11.93c1.71,7.31,3.85,16.42,4.88,24.48c0.84,6.53,1.53,14.71,2.14,21.93
							c0.69,8.17,1.28,15.23,1.97,18.96c0.46,2.53,1.39,4.98,2.37,7.34c1.23,2.95,2.64,5.85,4.24,8.64
							c-0.53,2.38-4.86,22.54-2.12,31.65c1.81,6.02,4.08,10.78,5.91,14.6c1.08,2.26,2.01,4.21,2.65,5.99
							c1.69,4.66,7.44,28.56,6.57,33.2c-0.28,1.49-0.44,2.71-0.8,3.9c-0.41,1.36-1.57,10.15-2,12.01c-0.45,1.96-0.39,3.47,1.23,5.84
							c1.54,2.25,3.31,3.84,6.31,5.1c0.65,0.88,3.17,5.15,3.72,9.07c0.62,4.44,2.97,9.23,7.26,10.58c1.04,0.45,2.21,1.11,3.01,3.1
							c1,2.49,3.7,4.34,5.85,4.89c0.26,0.07,0.53,0.11,0.8,0.14c2.09,0.2,4.41-0.76,5.56-2.34c0.58,0.28,1.09,0.39,2.09-0.08
							c1.07-0.51,1.28-1.72,1.33-2.49c0.47,0.03,1.16,0,1.59-0.32c0.6-0.44,1.41-1.55,1.05-2.64c-0.08-0.22-0.14-0.41-0.19-0.56l0,0
							c0-0.01-0.01-0.02-0.01-0.04c0.47-0.09,0.79-0.28,1.13-0.56c0.59-0.49,0.63-1.96,0.61-2.57c-0.01-0.34-0.06-0.7-0.11-1.06
							c-0.05-0.39-0.11-0.8-0.1-1.14c0-0.25,0.1-0.46,0.22-0.74c0.14-0.32,0.32-0.72,0.4-1.31c0.02-0.16,0.05-0.34,0.09-0.53
							c0.19-1.09,0.48-2.75-0.46-3.75c0,0-2.5-3.67-3.49-4.29c-1.27-0.79-10.45-8.37-11.49-10.79c-0.27-0.63-0.5-1.29-0.75-1.99
							c-0.75-2.14-1.53-4.35-3.45-5.99c-0.14-0.12-0.28-0.25-0.42-0.39c0.04-2.34-0.45-3.85-0.97-5.44
							c-0.22-0.68-0.56-7.6-0.49-11.07c0.02-0.48,0.05-1,0.09-1.54c0.01-0.06,0.02-0.12,0.03-0.17l-0.02,0
							c0.44-6.49,1.84-16.99,3.31-27.15c1.62-11.22,3.15-21.82,3.06-26.6c-0.17-9.71-6.61-24.55-7.42-26.38
							c0.09-0.41,0.15-0.79,0.17-1.14c0.21-2.9,0-4.44-0.18-5.8c-0.13-1-0.25-1.86-0.18-3.11c0.03-0.51,0.24-2.19,0.57-4.72
							c1.52-11.85,7.01-33.77,5.6-52.93c-0.96-12.95-5.25-33.72-7.52-42.73c-1.76-6.99-3.15-12.52-2.92-16.06
							c0.66-10.15-3.64-24.23-4.23-26.08c0.28-0.65,1.06-2.8,1.7-7.94c0.57-4.61-2.4-9.29-4.17-12.09
							c-0.52-0.82-1.11-1.75-1.14-2.01c0-0.2-0.01-1-0.04-2.2c-0.1-5.64-0.41-22.78,0.03-25.11c0.31-1.65,1.51-4.79,2.78-8.13
							c0.89-2.34,1.82-4.76,2.54-6.93c0.55-1.66,1.08-4.75,1.58-8.2c0-0.01,0-0.01,0-0.02c1.43,3.55,4.62,10.05,6.69,13.71
							c3.64,6.45,4.89,16.96,5.09,24.37c0.08,2.95,2.16,5.17,2.77,5.91c-0.34,1.04-1.29,4.62-0.99,11.84
							c0.19,4.66,3.23,12.69,6.16,20.45c2.57,6.8,5,13.22,5.48,17.14c0.35,2.83,0.7,4.66,0.72,6.06c0.02,1.34,0.01,2.68-0.12,4.02
							c-0.12,1.24-0.64,2.71-1.27,5.22c-1.15,4.63-1.15,5.45-1.57,8.36c-0.33,2.34-1.54,10.22-0.16,11.37
							c2.1,1.74,3.9-0.64,5.06-2.49c1-1.57,1.27-3.6,1.53-5.55c0.28-2.09,0.55-4.06,1.69-4.8c0.08-0.05,0.15-0.07,0.28-0.02
							c1.58,0.59,1.02,2.14,1.58,6.38c-0.03,0.15-0.05,0.35-0.06,0.59l0,0c-0.04,0.07-3.77,7.2-6.03,10.65
							c-1.99,3.03-0.28,6.61,0.55,8c0.37,2.29,1.67,4.14,1.76,4.26l0.39,0.55l1.48-1.69c0.24,3.66,3.01,4.45,3.04,4.46l0.47,0.12
							l0.17-0.45c0.2-0.52,4.83-12.71,5.36-15.21c0.59-2.73,0.8-16.88,0.27-31.72c-0.34-9.73,2.62-17.96,3.5-25.23
							c0.5-4.08,0.96-7.94,1.22-12.12C284.24,266.14,281.14,260.55,280.55,259.59z"/>
					</g>
				</g>
			</g>
		</g>
	</g>
</g>
<g id="Biceps_brachii_00000051383901171310121250000017567623599430537353_">
	<g>
		<path class="st1" d="M240.67,196.51c-0.56,12.88,8.91,35.97,9.66,38.89c0,0,2.42,5.93,4.02,8.64c2.36,4.02,5.39,7.61,8.93,10.8
			c5.99-15.72,8.44-35.76,1.26-51.07c-8.03-2.42-14.61-7.85-18.47-15.36C244.47,191.02,242.58,194.11,240.67,196.51"/>
		<path class="st2" d="M262.21,241.72c-0.22-0.03-0.44-0.07-0.66-0.12c-1.17-13.32-7.41-43.06-7.41-43.09
			c0.3,0.23,0.51,0.42,0.81,0.65C257.9,212.58,260.95,227.43,262.21,241.72 M259.21,240.72c-0.24-0.13-0.48-0.26-0.72-0.4
			c-1.06-4.41-2.1-8.85-3.09-13.26c-2.41-10.74-2.75-21.81-2.72-29.82c0.22,0.2,0.44,0.39,0.66,0.58c0.01,11.06,0.9,20.71,2.7,29.09
			C257.02,231.51,258.1,236.14,259.21,240.72 M253.99,236.25c-0.35-0.43-0.69-0.88-1.02-1.34c-0.54-1.66-1.03-3.33-1.47-4.99
			c-2.78-10.39-4.01-21.44-4.98-32.18c0.18-0.24,0.42-0.52,0.66-0.76c1.01,10.29,2.28,20.86,4.52,31.01
			C252.3,230.71,253.06,233.45,253.99,236.25 M247.64,225.48c-0.79-1.62-1.48-3.27-2.06-4.94c-0.8-3.37-1.48-6.87-1.99-10.28
			c-0.03-0.99,0.04-1.89,0.1-2.9c0.03-0.41,0.01-0.88,0.05-1.29C244.65,212.9,245.88,219.29,247.64,225.48 M241.88,195.06
			C241.88,195.06,241.88,195.06,241.88,195.06c0.2-0.27,0.4-0.53,0.6-0.8c0,0,0,0,0,0C242.28,194.53,242.08,194.79,241.88,195.06"/>
		<path class="st2" d="M265.02,241.35c0.23-0.1,0.45-0.22,0.67-0.35c0.15-12.25-2.06-25.71-6.2-39.04
			c-0.27-0.13-0.54-0.27-0.81-0.42C262.96,215.16,265.21,228.88,265.02,241.35"/>
		<path class="st3" d="M263.06,254.59c-0.04-0.04-0.09-0.08-0.13-0.12c-0.06-4.37-0.39-8.46-0.77-12.82
			c0.26,0.03,0.52,0.05,0.76,0.05c0.75,0,1.47-0.18,2.09-0.44c-0.05,3.32-0.23,6.57-0.6,9.79c-0.43,1.28-0.57,2.05-1.04,3.3
			L263.06,254.59z M261.66,253.52c-0.23-0.3-0.45-0.6-0.68-0.91c-2.97-5.74-5.3-11.17-7.05-16.42c1.33,1.63,2.86,3.09,4.54,4.11
			c0.91,3.78,1.78,7.5,2.68,11.21L261.66,253.52 M262.14,252.83c-0.17-0.68-0.33-1.35-0.5-2.02c-0.83-3.34-1.66-6.73-2.49-10.15
			c0.42,0.22,0.86,0.41,1.31,0.57c0.36,0.13,0.75,0.25,1.08,0.33C261.87,245.33,262.04,249.06,262.14,252.83 M256.9,247.86
			c-4.25-4.57-8.45-18.32-9.55-20.54c-0.13-0.26-3.4-10.38-3.4-10.38c-0.02-0.07-2.99-13.54-3.29-20.43
			c0.13-0.16,0.26-0.33,0.39-0.49c0.26-0.33,0.51-0.66,0.77-1c0,0,0.01-0.01,0.01-0.01c0.46,5.02,0.98,10.15,1.75,15.29
			c0.11,3.5,0.8,6.9,1.94,10.19c0.8,3.38,2.05,7.16,3.25,10.43c2.76,7.58,5.97,13.34,10.59,19.89 M258.74,249.44
			c-4.47-6.63-7.91-13.62-10.21-20.87c-0.33-1.05-0.65-2.1-0.95-3.16c0.05,0.1,0.09,0.19,0.14,0.29c1.38,2.79,3.12,6.24,5.26,9.2
			C254.53,239.72,256.4,244.5,258.74,249.44 M265.3,247.98c0.19-2.32,0.3-4.67,0.33-7.04c0.65-0.4,1.26-0.96,1.78-1.59
			C266.86,242.27,266.12,245.18,265.3,247.98 M243.74,206.08c-0.5-3.78-0.93-7.73-1.32-11.88c0.87-1.18,1.71-2.38,2.51-3.61
			c0.29-0.44,0.57-0.88,0.84-1.32c0.16,1.69,0.31,3.39,0.46,5.1c0.1,1.13,0.2,2.26,0.3,3.4c-0.55,0.75-0.8,1.46-1.02,1.94
			C244.56,201.74,244,203.87,243.74,206.08 M247.17,197.04c-0.23-2.36-0.48-5.54-0.7-7.88c0.5,0.9,1.22,2.05,1.8,2.88
			c0.66,0.95,1.64,2.24,2.39,3.1C249.22,195.59,247.84,196.39,247.17,197.04"/>
		<path class="st4" d="M262.68,254.37c-1.15-1.04-1.88-1.85-2.87-3.06c-5.15-6.32-8.56-13.39-11.28-20.88
			c-1.28-3.5-2.3-7.09-3.13-10.72c0.58,1.82,1.4,3.92,2.24,5.67c0.33,1.16,0.57,2,0.94,3.16c2.3,7.25,5.6,14.02,10.07,20.65
			c-2.37-4.98-4.14-9.49-5.7-14.35c0.33,0.47,0.68,0.93,1.04,1.38c1.75,5.27,4.06,10.59,7.04,16.36c0.22,0.3,0.35,0.43,0.57,0.72
			c0,0-2.21-9.23-3.12-13.01c0.24,0.15,0.47,0.25,0.71,0.38c0.82,3.4,1.66,6.75,2.48,10.08c0.17,0.68,0.27,1.18,0.44,1.86
			c-0.1-3.75-0.24-7.3-0.57-11.06c0.23,0.05,0.42,0.08,0.66,0.1c0.38,4.32,0.66,8.61,0.72,12.95L262.68,254.37z M243.58,210.26
			c-0.84-5.36-1.29-9.86-1.77-15.1c0.2-0.26,0.47-0.55,0.67-0.82c0.4,4.25,0.73,7.88,1.26,11.74L243.58,210.26z M246.51,197.66
			c-0.07-0.65-0.6-6.73-0.75-8.36c0.08-0.14,0.3-0.54,0.38-0.67c0.14,0.28,0.15,0.34,0.3,0.61c0.23,2.43,0.49,5.22,0.73,7.66
			C247.17,196.9,246.63,197.48,246.51,197.66z"/>
		<path class="st4" d="M264.38,251.29c0.39-3.27,0.57-6.66,0.63-10.03c0.23-0.09,0.45-0.22,0.67-0.35
			c-0.03,2.42-0.11,4.88-0.31,7.24C265.06,249.21,264.73,250.26,264.38,251.29"/>
	</g>
	<g>
		<path class="st1" d="M150.5,196.66c0.56,12.88-8.91,35.97-9.66,38.89c0,0-2.42,5.93-4.02,8.64c-2.36,4.02-5.34,7.75-8.87,10.94
			c-5.99-15.72-8.5-35.9-1.32-51.22c8.03-2.42,14.61-7.85,18.47-15.36C146.7,191.16,148.6,194.25,150.5,196.66"/>
		<path class="st2" d="M128.96,241.86c1.26-14.29,4.31-29.13,7.26-42.56c0.31-0.22,0.52-0.41,0.81-0.65
			c0,0.02-6.24,29.76-7.41,43.09C129.4,241.8,129.18,241.84,128.96,241.86 M131.96,240.87c1.11-4.59,2.18-9.21,3.17-13.81
			c1.8-8.38,2.69-18.03,2.7-29.09c0.22-0.19,0.44-0.39,0.66-0.58c0.03,8.01-0.31,19.08-2.72,29.82c-0.99,4.41-2.03,8.85-3.09,13.26
			C132.45,240.61,132.21,240.74,131.96,240.87 M137.18,236.4c0.93-2.8,1.69-5.55,2.29-8.26c2.24-10.15,3.52-20.71,4.52-31.01
			c0.25,0.24,0.49,0.52,0.66,0.76c-0.97,10.73-2.2,21.79-4.98,32.18c-0.45,1.67-0.94,3.33-1.47,4.99
			C137.88,235.52,137.54,235.97,137.18,236.4 M143.53,225.62c1.75-6.19,2.99-12.58,3.9-19.4c0.05,0.4,0.03,0.88,0.05,1.29
			c0.07,1,0.13,1.91,0.1,2.9c-0.52,3.41-1.2,6.91-1.99,10.28C145.01,222.36,144.32,224,143.53,225.62 M149.29,195.2
			c-0.2-0.27-0.4-0.53-0.6-0.8c0,0,0,0,0,0C148.89,194.67,149.09,194.94,149.29,195.2C149.29,195.2,149.29,195.2,149.29,195.2"/>
		<path class="st2" d="M126.16,241.5c-0.23-0.1-0.45-0.22-0.67-0.35c-0.15-12.25,2.06-25.71,6.2-39.04
			c0.27-0.13,0.54-0.27,0.81-0.42C128.21,215.31,125.96,229.03,126.16,241.5"/>
		<path class="st3" d="M126.83,251.94c-0.37-3.22-0.62-7.22-0.67-10.53c0.62,0.27,1.35,0.45,2.09,0.44c0.25,0,0.5-0.02,0.76-0.05
			c-0.38,4.36-0.72,8.61-0.78,12.99c-0.04,0.04-0.26,0.31-0.3,0.35C127.94,255.13,127.26,253.22,126.83,251.94z M129.51,253.66
			l0.5-2.01c0.9-3.7,1.78-7.42,2.68-11.21c1.68-1.01,3.22-2.48,4.54-4.11c-1.74,5.24-4.08,10.68-7.05,16.42
			C129.96,253.06,129.74,253.36,129.51,253.66 M129.03,252.98c0.1-3.77,0.27-7.5,0.6-11.27c0.33-0.08,0.72-0.2,1.08-0.33
			c0.45-0.16,0.88-0.35,1.31-0.57c-0.82,3.41-1.66,6.81-2.49,10.15C129.36,251.63,129.2,252.3,129.03,252.98 M131.81,250.94
			c4.63-6.55,7.83-12.31,10.59-19.89c1.19-3.27,2.45-7.05,3.25-10.43c1.14-3.29,1.83-6.69,1.94-10.19
			c0.78-5.13,1.3-10.27,1.75-15.29c0,0,0.01,0.01,0.01,0.01c0.25,0.33,0.51,0.67,0.77,1c0.13,0.17,0.26,0.33,0.39,0.49
			c-0.3,6.89-3.27,20.36-3.29,20.43c0,0-3.27,10.13-3.4,10.38c-1.11,2.22-5.3,15.97-9.55,20.54 M132.42,249.57
			c2.35-4.94,4.22-9.71,5.77-14.53c2.13-2.96,3.88-6.41,5.26-9.2c0.05-0.1,0.09-0.19,0.14-0.29c-0.3,1.06-0.61,2.11-0.95,3.16
			c-2.3,7.25-5.74,14.24-10.21,20.87 M125.59,248.47c-0.82-2.8-1.52-6.28-2.06-9.2c0.52,0.63,1.37,1.42,2.01,1.81
			c0.03,2.37,0.09,5.27,0.29,7.59L125.59,248.47z M147.43,206.23c-0.26-2.21-0.82-4.34-1.78-6.37c-0.22-0.48-0.48-1.19-1.02-1.94
			c0.1-1.14,0.2-2.27,0.3-3.4c0.15-1.71,0.3-3.41,0.46-5.1c0.28,0.44,0.56,0.88,0.84,1.32c0.8,1.23,1.64,2.43,2.51,3.61
			C148.35,198.5,147.93,202.44,147.43,206.23 M144,197.19c-0.67-0.66-2.05-1.45-3.49-1.9c0.76-0.86,1.73-2.14,2.39-3.1
			c0.58-0.83,1.29-1.98,1.8-2.88C144.48,191.65,144.23,194.83,144,197.19"/>
		<path class="st4" d="M128.25,254.75c0.06-4.33,0.34-8.62,0.72-12.95c0.24-0.02,0.44-0.05,0.66-0.1c-0.33,3.76-0.48,7.3-0.57,11.06
			c0.17-0.68,0.27-1.18,0.44-1.86c0.82-3.33,1.66-6.69,2.48-10.08c0.25-0.13,0.48-0.23,0.71-0.38c-0.9,3.78-3.12,13.01-3.12,13.01
			c0.22-0.29,0.35-0.43,0.57-0.72c2.98-5.77,5.29-11.06,7.03-16.33c0.36-0.44,0.71-0.94,1.05-1.41c-1.56,4.86-3.33,9.37-5.7,14.35
			c4.47-6.63,7.77-13.4,10.07-20.65c0.37-1.16,0.61-2,0.94-3.16c0.83-1.75,1.65-3.86,2.24-5.67c-0.83,3.63-1.85,7.22-3.13,10.72
			c-2.73,7.49-6.13,14.56-11.28,20.88c-0.98,1.21-1.72,2.02-2.87,3.06L128.25,254.75z M147.43,206.23
			c0.52-3.86,0.86-7.49,1.26-11.74c0.2,0.27,0.47,0.55,0.67,0.82c-0.48,5.24-0.93,9.74-1.77,15.1L147.43,206.23z M144,197.04
			c0.24-2.45,0.5-5.24,0.73-7.66c0.15-0.27,0.16-0.33,0.3-0.61c0.08,0.14,0.3,0.54,0.38,0.67c-0.15,1.63-0.68,7.71-0.75,8.36
			C144.54,197.63,144,197.04,144,197.04z"/>
		<path class="st4" d="M126.84,251.93c-0.39-3.27-0.63-7.15-0.68-10.52c-0.23-0.09-0.45-0.22-0.67-0.35
			c0.03,2.42,0.13,5.24,0.33,7.61c0.31,1.06,0.34,1.47,0.69,2.51L126.84,251.93z"/>
	</g>
</g>
</svg>
