<?xml version="1.0" encoding="utf-8"?>
<!-- Generator: Adobe Illustrator 26.0.1, SVG Export Plug-In . SVG Version: 6.00 Build 0)  -->
<svg version="1.1" id="Layer_1" xmlns="http://www.w3.org/2000/svg" xmlns:xlink="http://www.w3.org/1999/xlink" x="0px" y="0px"
	 viewBox="0 0 432 648" style="enable-background:new 0 0 432 648;" xml:space="preserve">
<style type="text/css">
	.st0{fill:#FFFFFF;}
	.st1{fill:#E92A2A;}
</style>
<g id="Front_00000093868951240727241050000014211187633667127191_">
	<g>
		<g>
			<g>
				<g>
					<path class="st0" d="M280.56,259.78v-8.54c0-6.17-3.42-12.76-5.55-16.26c2.11-7.05,2.13-23.95,0.99-31.78
						c-0.7-4.76-4.01-8.65-5.65-11.13c0.03-0.19,0.06-0.38,0.1-0.58c0.9-5.76-3.01-19.89-5.36-25.84c-1.56-3.96-4.81-5.45-7.42-6.66
						c-1.41-0.65-2.63-1.21-3.32-2.02c-1.76-2.06-3.52-2.62-5.06-3.11c-0.41-0.13-0.8-0.26-1.18-0.41
						c-0.59-0.24-1.12-0.72-1.92-1.44c-1.35-1.23-3.4-3.09-7.78-5.63c-2.4-1.39-5.79-3.01-9.37-4.73
						c-5.87-2.81-12.72-6.05-14.35-8.07c-1.49-1.84-1.65-7.65-1.66-9.57c0.71-1.8,0.78-4.64,0.76-6.29
						c0.29,0.14,0.66,0.21,1.09,0.16c1.46-0.18,2.83-2.46,4.47-5.41c0.46-0.83,0.89-1.61,1.23-2.09c1.42-2.03,1.11-6.41,0.07-9.7
						c-0.3-0.96-0.82-1.51-1.53-1.64c-0.98-0.18-2.05,0.56-2.81,1.27c0.15-4.1,0.09-15.61-4.64-21.29
						c-4.07-4.88-12.21-6.1-15.3-6.39l-1.22,0c-3.09,0.29-11.23,1.51-15.3,6.39c-4.73,5.67-4.78,17.19-4.64,21.29
						c-0.76-0.7-1.83-1.44-2.81-1.27c-0.71,0.13-1.23,0.68-1.53,1.64c-1.04,3.29-1.35,7.67,0.07,9.7c0.33,0.48,0.77,1.26,1.23,2.09
						c1.64,2.96,3.01,5.24,4.47,5.41c0.43,0.05,0.79-0.02,1.09-0.16c-0.03,1.82,0.07,5.09,1,6.81c0,0,0,0.01,0.01,0.01
						c-0.04,1.35-0.33,7.14-1.9,9.08c-1.63,2.02-8.28,5.2-14.15,8.01c-3.58,1.72-6.97,3.34-9.37,4.73c-4.38,2.54-6.42,4.4-7.78,5.63
						c-0.8,0.72-1.32,1.2-1.92,1.44c-0.38,0.15-0.77,0.28-1.18,0.41c-1.55,0.5-3.3,1.06-5.06,3.11c-0.69,0.8-1.91,1.37-3.32,2.02
						c-2.61,1.2-5.86,2.7-7.42,6.66c-2.35,5.96-6.26,20.09-5.36,25.84c0.06,0.41,0.13,0.82,0.21,1.22
						c-1.66,2.47-4.64,6.07-5.32,10.71c-1.14,7.79-1.27,24.04,0.8,31.15c-2.1,3.37-5.81,10.25-5.81,16.68v8.54
						c-0.59,0.96-3.68,6.53-3.02,17.41c0.25,4.17,0.72,8.01,1.21,12.08c0.88,7.25,3.84,15.46,3.49,25.16
						c-0.52,14.79-0.31,28.9,0.27,31.62c0.53,2.5,5.15,14.65,5.35,15.17l0.17,0.45l0.46-0.12c0.03-0.01,2.8-0.8,3.04-4.45l1.48,1.68
						l0.39-0.54c0.09-0.12,1.39-1.97,1.75-4.25c0.82-1.39,2.53-4.96,0.55-7.98c-2.26-3.44-5.98-10.55-6.02-10.62l0,0
						c-0.01-0.24-0.03-0.44-0.06-0.59c0.55-4.23,0-5.76,1.57-6.36c0.13-0.05,0.2-0.03,0.28,0.02c1.14,0.74,1.41,2.7,1.69,4.78
						c0.26,1.95,0.54,3.97,1.53,5.54c1.16,1.84,2.96,4.22,5.05,2.48c1.38-1.15,0.17-9.01-0.16-11.34c-0.42-2.91-0.42-3.73-1.57-8.34
						c-0.73-2.94-1.17-4.46-1.37-5.82c-0.1-1.12,0.19-5.78,0.62-9.19c0.49-3.91,2.91-10.31,5.47-17.09
						c2.93-7.74,5.95-15.75,6.14-20.39c0.3-7.2-0.65-10.77-0.99-11.81c0.61-0.73,2.3-2.98,2.76-5.89c0.53-3.38,0.37-9.26,0.35-9.4
						c0.02-0.1,1.79-10.25,4.72-14.9c2.22-3.53,5.5-10.45,6.89-14.07c0.51,3.58,1.07,6.78,1.64,8.49c0.72,2.17,1.64,4.58,2.53,6.91
						c1.27,3.33,2.47,6.47,2.77,8.11c0.43,2.32,0.13,19.42,0.03,25.04c-0.02,1.2-0.04,2-0.04,2.19c0,0.01,0,0.01-0.01,0.02
						c-0.11,0.11-0.18,0.3-0.22,0.5c-0.22,0.41-0.58,0.97-0.91,1.49c-1.77,2.79-4.73,7.45-4.16,12.05c0.64,5.13,1.41,7.27,1.7,7.92
						c-0.58,1.85-4.87,15.88-4.21,26.01c0.23,3.53-1.16,9.04-2.91,16.02c-2.26,8.99-6.55,29.7-7.5,42.61
						c-1.41,19.1,4.07,40.97,5.58,52.78c0.32,2.53,0.54,4.2,0.57,4.71c0.07,1.25-0.04,2.11-0.17,3.11
						c-0.18,1.36-0.39,2.89-0.18,5.78c0.02,0.29,0.07,0.61,0.13,0.95c-0.74,1.66-7.24,16.6-7.42,26.35
						c-0.08,4.76,1.44,15.33,3.06,26.52c1.46,10.13,2.85,20.6,3.3,27.07l0.01,0.17c0.04,0.54,0.07,1.06,0.09,1.54
						c0.07,3.47-0.26,10.37-0.48,11.04c-0.52,1.58-1,3.09-0.97,5.42c-0.14,0.14-0.28,0.27-0.42,0.39c-1.92,1.64-2.69,3.84-3.44,5.97
						c-0.25,0.7-0.48,1.36-0.75,1.99c-1.03,2.42-10.19,9.97-11.45,10.76c-0.99,0.62-3.48,4.28-3.48,4.28
						c-0.93,1-0.65,2.65-0.46,3.74c0.03,0.19,0.07,0.37,0.09,0.53c0.08,0.58,0.26,0.98,0.4,1.3c0.12,0.28,0.22,0.49,0.22,0.74
						c0.01,0.34-0.05,0.75-0.1,1.14c-0.05,0.35-0.1,0.72-0.11,1.05c-0.01,0.61,0.02,2.08,0.61,2.56c0.34,0.28,0.66,0.48,1.13,0.56
						c-0.05,0.15-0.12,0.35-0.2,0.59c-0.37,1.08,0.45,2.19,1.04,2.63c0.43,0.32,1.11,0.35,1.58,0.32c0,0.09,0.02,0.15,0.03,0.2
						c0.07,0.76,0.33,1.82,1.31,2.29c1,0.47,1.5,0.36,2.08,0.08c1.14,1.57,3.46,2.53,5.54,2.33c0.27-0.03,0.54-0.07,0.79-0.14
						c2.15-0.55,4.84-2.4,5.84-4.88c0.8-1.99,1.97-2.64,3.01-3.1c4.28-1.35,6.62-6.12,7.24-10.55c0.55-3.91,3.06-8.17,3.71-9.04
						c2.99-1.25,4.76-2.84,6.29-5.09c1.61-2.36,1.67-3.87,1.22-5.82c-0.43-1.86-1.59-10.62-1.99-11.98
						c-0.35-1.19-0.51-2.41-0.79-3.89c-0.87-4.62,4.86-28.46,6.55-33.1c0.64-1.78,1.57-3.72,2.64-5.97
						c1.82-3.81,4.08-8.55,5.89-14.56c2.74-9.09-1.58-29.19-2.11-31.56c1.59-2.79,3-5.67,4.23-8.62c0.98-2.36,1.9-4.8,2.36-7.32
						c0.68-3.72,1.28-10.75,1.96-18.9c0.61-7.2,1.29-15.35,2.13-21.87c1.03-8.04,3.16-17.11,4.87-24.41
						c1.17-4.99,2.18-9.3,2.51-11.9c0.62-4.86,0.01-9.7-0.34-11.81c0.37,0.04,1.48,0.05,1.75,0c-0.34,2.11-0.96,6.96-0.34,11.82
						c0.33,2.6,1.34,6.91,2.51,11.9c1.71,7.29,3.84,16.37,4.87,24.41c0.84,6.51,1.52,14.67,2.13,21.87
						c0.68,8.15,1.28,15.18,1.96,18.9c0.46,2.52,1.38,4.96,2.36,7.32c1.22,2.94,2.64,5.83,4.23,8.62
						c-0.53,2.38-4.85,22.48-2.11,31.56c1.81,6,4.07,10.75,5.89,14.56c1.07,2.25,2,4.19,2.64,5.97c1.68,4.64,7.42,28.48,6.55,33.1
						c-0.28,1.48-0.44,2.7-0.79,3.89c-0.4,1.36-1.57,10.12-1.99,11.98c-0.45,1.95-0.39,3.46,1.22,5.82c1.53,2.25,3.3,3.83,6.29,5.09
						c0.65,0.87,3.16,5.13,3.71,9.04c0.62,4.43,2.96,9.2,7.24,10.55c1.04,0.45,2.21,1.11,3.01,3.1c1,2.48,3.69,4.33,5.84,4.88
						c0.26,0.07,0.52,0.11,0.79,0.14c2.08,0.2,4.4-0.76,5.54-2.33c0.58,0.28,1.09,0.39,2.08-0.08c1.07-0.51,1.28-1.72,1.33-2.49
						c0.47,0.03,1.16,0,1.59-0.32c0.6-0.44,1.41-1.55,1.04-2.63c-0.08-0.22-0.14-0.41-0.19-0.56l0,0c0-0.01-0.01-0.02-0.01-0.04
						c0.47-0.09,0.79-0.28,1.13-0.56c0.59-0.49,0.62-1.96,0.61-2.56c-0.01-0.33-0.06-0.7-0.11-1.05c-0.05-0.39-0.11-0.8-0.1-1.14
						c0-0.25,0.09-0.46,0.22-0.74c0.14-0.32,0.32-0.72,0.4-1.3c0.02-0.16,0.05-0.34,0.09-0.53c0.19-1.09,0.48-2.74-0.46-3.74
						c0,0-2.5-3.66-3.48-4.28c-1.26-0.79-10.42-8.34-11.45-10.76c-0.27-0.63-0.5-1.29-0.75-1.99c-0.75-2.13-1.53-4.34-3.44-5.97
						c-0.14-0.12-0.28-0.25-0.42-0.39c0.04-2.33-0.45-3.84-0.97-5.42c-0.22-0.68-0.56-7.58-0.48-11.04c0.02-0.48,0.05-1,0.09-1.54
						c0.01-0.06,0.02-0.12,0.03-0.17l-0.02,0c0.44-6.47,1.83-16.94,3.3-27.07c1.61-11.19,3.14-21.76,3.06-26.52
						c-0.17-9.68-6.59-24.48-7.4-26.31c0.09-0.41,0.15-0.79,0.17-1.14c0.21-2.89,0-4.42-0.18-5.78c-0.13-1-0.25-1.86-0.17-3.11
						c0.03-0.51,0.24-2.18,0.57-4.71c1.51-11.81,6.99-33.68,5.58-52.78c-0.95-12.91-5.23-33.62-7.5-42.61
						c-1.76-6.97-3.14-12.48-2.91-16.02c0.66-10.12-3.63-24.16-4.21-26.01c0.28-0.64,1.06-2.79,1.7-7.92
						c0.57-4.6-2.39-9.26-4.16-12.05c-0.52-0.82-1.11-1.75-1.14-2c0-0.2-0.01-0.99-0.04-2.19c-0.1-5.62-0.41-22.72,0.03-25.04
						c0.31-1.64,1.51-4.78,2.77-8.11c0.89-2.33,1.81-4.74,2.53-6.91c0.55-1.66,1.08-4.74,1.57-8.17c0-0.01,0-0.01,0-0.02
						c1.42,3.54,4.61,10.02,6.67,13.67c3.63,6.43,4.87,16.91,5.07,24.3c0.08,2.94,2.15,5.16,2.76,5.89
						c-0.34,1.03-1.29,4.61-0.99,11.81c0.19,4.65,3.22,12.65,6.14,20.39c2.56,6.78,4.98,13.18,5.47,17.09
						c0.35,2.82,0.7,4.65,0.72,6.04c0.02,1.33,0.01,2.68-0.12,4.01c-0.12,1.24-0.64,2.7-1.26,5.21c-1.15,4.61-1.15,5.43-1.57,8.34
						c-0.33,2.33-1.54,10.19-0.16,11.34c2.09,1.74,3.89-0.64,5.05-2.48c0.99-1.57,1.27-3.58,1.53-5.54
						c0.28-2.08,0.55-4.05,1.69-4.78c0.08-0.05,0.15-0.07,0.28-0.02c1.58,0.59,1.02,2.13,1.57,6.36c-0.03,0.15-0.05,0.35-0.06,0.59
						l0,0c-0.04,0.07-3.76,7.18-6.02,10.62c-1.98,3.02-0.28,6.59,0.55,7.98c0.37,2.29,1.67,4.13,1.75,4.25l0.39,0.54l1.48-1.68
						c0.24,3.65,3.01,4.44,3.04,4.45l0.46,0.12l0.17-0.45c0.2-0.52,4.81-12.67,5.35-15.17c0.58-2.73,0.8-16.84,0.27-31.62
						c-0.34-9.7,2.61-17.91,3.49-25.16c0.49-4.07,0.96-7.91,1.21-12.08C284.24,266.32,281.15,260.74,280.56,259.78z"/>
				</g>
			</g>
		</g>
	</g>
</g>
<g id="Biceps_Brachialis_00000126303409526406856280000011386213884541000632_">
	<path class="st1" d="M128.02,255.29l-0.23,0.38c-4.13-7.15-9.27-13.89-8.57-22.46c0-0.1,0.01-0.2,0.02-0.3
		c0.01-0.1,0.02-0.2,0.03-0.31l-0.01-0.08v-0.01c0.15-2.59,0.83-13.66,1.91-18.9c1.03-4.99,2.79-9.88,3.34-11.3
		c0.57,0.77,1.18,1.59,1.75,2.35l0.05,0.11c-7.09,15.47-4.53,34.27,1.53,50.03L128.02,255.29z"/>
	<path class="st1" d="M263.59,255.14c6.06-15.75,8.81-35.5,1.72-50.97l0.06-0.07c0.57-0.76,1.15-1.53,1.72-2.3
		c0.55,1.42,2.44,6.82,3.47,11.81c1.08,5.24,1.76,16.31,1.91,18.9v0.01l-0.01,0.08c0.01,0.11,0.02,0.21,0.03,0.31
		c0.01,0.1,0.02,0.2,0.02,0.3c0.69,8.57-4.44,15.32-8.57,22.46l-0.38-0.3L263.59,255.14z"/>
</g>
</svg>
