<?xml version="1.0" encoding="utf-8"?>
<!-- Generator: Adobe Illustrator 26.0.1, SVG Export Plug-In . SVG Version: 6.00 Build 0)  -->
<svg version="1.1" id="Layer_1" xmlns="http://www.w3.org/2000/svg" xmlns:xlink="http://www.w3.org/1999/xlink" x="0px" y="0px"
	 viewBox="0 0 432 648" style="enable-background:new 0 0 432 648;" xml:space="preserve">
<style type="text/css">
	.st0{fill:#E92A2A;}
	.st1{fill:#D52626;}
	.st2{fill:#9A1A1C;}
	.st3{fill:#8D1819;}
</style>
<g id="Brachioradialis__x28_fore_arm_upper_x29__00000068650363730187269280000003334227240512152193_">
	<g>
		<path class="st0" d="M263.08,295.17l0.01,0.02c1.37,3.88,2.43,7.32,2.74,9.83c0.06,0.43,0.1,0.83,0.15,1.22
			c0.72-6.23,2.36-12.23,4.52-18.24c3.54-9.85,9.1-19.09,10.31-29.61l-0.02-8.68c0-6.92-4.9-14.5-6.63-17.12
			c0.25,9.59-6.55,17.15-10.78,25.47C257.51,269.64,260.04,283.02,263.08,295.17"/>
		<path class="st1" d="M262.11,291.67c-0.17-0.73-0.33-1.47-0.49-2.21c0-0.01,0-0.02,0-0.02c0.16,0.74,0.32,1.48,0.49,2.22
			C262.11,291.66,262.11,291.66,262.11,291.67 M263.37,280.47c-0.17-0.28-0.34-0.57-0.48-0.86c0.66-3.6,1.53-7.16,2.61-10.66
			c1.01-3.28,2.28-6.55,3.51-9.71c3.2-8.25,6.51-16.77,5.31-25.95c0.23,0.35,0.49,0.78,0.78,1.26c0.79,9.25-2.67,18.04-6.02,26.55
			c-0.34,0.87-0.69,1.74-1.03,2.61C265.94,269.13,264.38,274.74,263.37,280.47"/>
		<path class="st1" d="M264.56,300.11c-0.25-0.82-0.53-1.68-0.83-2.58c0,0,0-0.01,0-0.01c0.3,0.89,0.58,1.75,0.83,2.57
			C264.56,300.1,264.56,300.1,264.56,300.11 M268.72,284.12c-0.21-0.03-0.42-0.06-0.63-0.11c0.76-2.08,1.6-4.16,2.54-6.26
			c0.44-0.98,0.88-1.96,1.33-2.94c2.29-5.05,4.67-10.27,6.07-15.79c1.43-5.61,1.51-11.87,0.27-18.25c0.38,0.92,0.74,1.88,1.06,2.85
			c0.99,8.21-0.22,16.38-3.61,24.37c-0.91,2.14-1.88,4.3-2.83,6.38C271.47,277.55,270.01,280.8,268.72,284.12 M265.91,283.11
			c-0.18-0.11-0.35-0.24-0.52-0.37c0.41-2.15,0.89-4.29,1.45-6.41c1.09-4.17,2.75-8.31,4.36-12.33c3.5-8.75,7.13-17.8,5.01-27.53
			c0.33,0.61,0.67,1.26,1.01,1.96c1.25,9.07-2.15,17.54-5.44,25.76c-0.66,1.64-1.34,3.35-1.97,5.02
			C268.12,273.67,266.82,278.31,265.91,283.11"/>
		<path class="st2" d="M265.53,306.01c-0.18-1.49-0.34-3.85-0.97-5.91c0.55-4.09,1.41-7.96,2.57-11.54c0.48-1.5,1.02-2.98,1.59-4.44
			c0.28,0.03,0.55,0.05,0.83,0.05c0.86,0,1.83-0.17,2.63-0.46c-0.63,1.51-1.23,3.03-1.79,4.58c-2.14,5.96-3.47,12.59-4.21,18.77
			L265.53,306.01z M264.35,297.88c0.14-5.06,0.66-9.99,1.57-14.78c0.56,0.36,1.18,0.64,1.85,0.82c0.11,0.03,0.21,0.06,0.32,0.08
			C266.4,288.63,265.17,293.22,264.35,297.88 M263.73,297.52c-0.18-0.55-0.38-1.1-0.58-1.67c-0.03-0.09-0.06-0.17-0.09-0.26l0,0
			c0-0.01,0-0.01-0.01-0.02l-0.01-0.03c-0.01-0.02-0.01-0.05-0.02-0.07c-0.31-1.26-0.62-2.53-0.92-3.81
			c0.19-3.77,0.61-7.5,1.26-11.18c0.54,0.87,1.22,1.65,2.02,2.27C264.46,287.62,263.91,292.56,263.73,297.52 M261.62,289.44
			c-2.2-10.39-3.14-21.27,1.76-30.91c0.44-0.87,0.91-1.73,1.4-2.58c-1.83,6.75-4.52,14.18-2.84,21.08c0.21,0.88,0.53,1.76,0.94,2.58
			C262.29,282.86,261.87,286.14,261.62,289.44"/>
		<path class="st3" d="M262.11,291.65c-0.17-0.73-0.33-1.47-0.49-2.22c0.25-3.3,0.67-6.58,1.26-9.83c0.15,0.3,0.31,0.58,0.48,0.86
			C262.72,284.15,262.3,287.88,262.11,291.65"/>
		<path class="st3" d="M264.56,300.1c-0.25-0.82-0.53-1.68-0.83-2.57c0.17-4.96,0.73-9.91,1.66-14.78c0.17,0.13,0.34,0.25,0.52,0.37
			c-0.91,4.78-1.43,9.72-1.57,14.78c0.82-4.66,2.05-9.25,3.74-13.87c0.21,0.05,0.42,0.08,0.63,0.11c-0.57,1.47-1.11,2.95-1.59,4.44
			C265.98,292.13,265.12,296.01,264.56,300.1"/>
	</g>
	<g id="fore_arm_upper_00000181053421872433631430000004016595851547598997_">
		<path class="st0" d="M127.16,307.13c-0.72-6.23-2.12-12.76-4.28-18.77c-3.54-9.85-9.04-18.8-10.25-29.32v-8.71
			c0-6.92,4.82-15.39,6.54-18.01c-0.25,9.59,6.86,17.29,11.08,25.6c5.88,11.58,3.15,25.79,0.1,37.93L127.16,307.13z"/>
		<path class="st1" d="M131.04,291.73c0,0,0-0.01,0-0.02c0.17-0.73,0.33-1.47,0.49-2.22c0,0.01,0,0.02,0,0.02
			C131.38,290.26,131.21,291,131.04,291.73 M129.79,280.54c-1.01-5.74-2.57-11.34-4.68-16.76c-0.34-0.87-0.68-1.74-1.03-2.61
			c-3.35-8.52-6.81-17.31-6.02-26.55c0.29-0.48,0.56-0.9,0.78-1.26c-1.2,9.17,2.11,17.7,5.31,25.95c1.23,3.16,2.5,6.43,3.51,9.71
			c1.08,3.5,1.95,7.06,2.61,10.66C130.12,279.97,129.96,280.26,129.79,280.54"/>
		<path class="st1" d="M128.59,300.17c0,0,0-0.01,0-0.01c0.25-0.82,0.53-1.68,0.83-2.57c0,0,0,0.01,0,0.01
			C129.12,298.49,128.84,299.35,128.59,300.17 M124.44,284.18c-1.29-3.32-2.76-6.57-4.19-9.74c-0.94-2.08-1.92-4.23-2.83-6.38
			c-3.39-7.98-4.6-16.16-3.61-24.37c0.31-0.98,0.67-1.94,1.06-2.85c-1.24,6.38-1.16,12.64,0.27,18.25
			c1.4,5.52,3.78,10.74,6.07,15.79c0.44,0.98,0.89,1.95,1.33,2.94c0.94,2.1,1.78,4.18,2.54,6.26
			C124.86,284.12,124.65,284.15,124.44,284.18 M127.24,283.17c-0.91-4.8-2.2-9.44-3.89-13.89c-0.63-1.67-1.31-3.37-1.97-5.02
			c-3.29-8.22-6.69-16.69-5.44-25.76c0.34-0.69,0.68-1.35,1.01-1.96c-2.12,9.72,1.5,18.77,5.01,27.53
			c1.61,4.01,3.27,8.16,4.36,12.33c0.56,2.12,1.04,4.26,1.45,6.41C127.59,282.93,127.42,283.05,127.24,283.17"/>
		<path class="st2" d="M127.18,307.29c-0.73-6.18-2.16-12.98-4.3-18.94c-0.55-1.54-1.16-3.07-1.79-4.58
			c0.8,0.29,1.64,0.45,2.49,0.45c0.27,0,0.55-0.02,0.83-0.05c0.57,1.47,1.11,2.95,1.59,4.44c1.15,3.57,2.01,7.44,2.57,11.54
			c-0.63,2.06-0.79,4.32-0.97,5.82C127.55,306.32,127.18,307.29,127.18,307.29z M128.79,297.94c-0.82-4.66-2.05-9.25-3.74-13.87
			c0.11-0.02,0.21-0.05,0.32-0.08c0.67-0.19,1.29-0.47,1.85-0.82C128.13,287.95,128.65,292.89,128.79,297.94 M129.4,297.59
			c-0.17-4.96-0.73-9.91-1.66-14.78c0.81-0.62,1.48-1.4,2.02-2.27c0.65,3.68,1.07,7.41,1.26,11.18c-0.29,1.28-0.6,2.55-0.92,3.81
			c-0.01,0.02-0.01,0.05-0.02,0.07l-0.01,0.03c0,0.01,0,0.01-0.01,0.02l0,0c-0.03,0.09-0.06,0.18-0.09,0.26
			C129.78,296.48,129.58,297.04,129.4,297.59 M131.51,289.5c-0.25-3.3-0.67-6.58-1.26-9.83c0.41-0.82,0.73-1.7,0.94-2.58
			c1.68-6.9-0.89-15.55-2.72-22.3c0.49,0.85,0.96,1.71,1.4,2.58C134.77,267,133.71,279.11,131.51,289.5"/>
		<path class="st3" d="M131.04,291.72c0.17-0.73,0.33-1.47,0.49-2.22c-0.25-3.3-0.67-6.58-1.26-9.83c-0.15,0.3-0.31,0.58-0.48,0.86
			C130.43,284.21,130.85,287.94,131.04,291.72"/>
		<path class="st3" d="M128.59,300.16c0.25-0.82,0.53-1.68,0.83-2.57c-0.17-4.96-0.73-9.91-1.66-14.78
			c-0.17,0.13-0.34,0.25-0.52,0.37c0.91,4.78,1.43,9.72,1.57,14.78c-0.82-4.66-2.05-9.25-3.74-13.87c-0.21,0.05-0.42,0.08-0.63,0.11
			c0.57,1.47,1.11,2.95,1.59,4.44C127.18,292.2,128.04,296.07,128.59,300.16"/>
	</g>
</g>
</svg>
