<?xml version="1.0" encoding="utf-8"?>
<!-- Generator: Adobe Illustrator 26.0.1, SVG Export Plug-In . SVG Version: 6.00 Build 0)  -->
<svg version="1.1" id="Layer_1" xmlns="http://www.w3.org/2000/svg" xmlns:xlink="http://www.w3.org/1999/xlink" x="0px" y="0px"
	 viewBox="0 0 432 648" style="enable-background:new 0 0 432 648;" xml:space="preserve">
<style type="text/css">
	.st0{fill:#FFFFFF;}
	.st1{fill:#E92A2A;}
	.st2{fill:#D52626;}
	.st3{fill:#9A1A1C;}
	.st4{fill:#8D1819;}
</style>
<g id="Front_00000036933399048923778770000000059622399507017387_">
	<g>
		<g>
			<g>
				<g>
					<path class="st0" d="M280.56,259.31v-8.56c0-6.18-3.43-12.78-5.56-16.28c2.11-7.07,2.14-23.98,0.99-31.83
						c-0.7-4.77-4.02-8.66-5.66-11.15c0.03-0.19,0.06-0.38,0.1-0.58c0.9-5.77-3.01-19.91-5.36-25.88c-1.56-3.96-4.82-5.46-7.43-6.67
						c-1.41-0.65-2.64-1.21-3.33-2.02c-1.76-2.06-3.52-2.62-5.07-3.12c-0.41-0.13-0.8-0.26-1.18-0.41c-0.6-0.24-1.12-0.72-1.92-1.44
						c-1.36-1.23-3.41-3.09-7.79-5.64c-2.41-1.4-5.8-3.02-9.38-4.74c-5.88-2.81-12.74-6.06-14.37-8.08
						c-1.49-1.84-1.65-7.66-1.67-9.58c0.71-1.8,0.79-4.65,0.76-6.3c0.3,0.14,0.66,0.21,1.09,0.16c1.46-0.18,2.84-2.46,4.48-5.42
						c0.46-0.83,0.9-1.62,1.23-2.09c1.42-2.03,1.11-6.42,0.07-9.71c-0.3-0.96-0.82-1.51-1.53-1.65c-0.98-0.18-2.05,0.56-2.82,1.27
						c0.15-4.1,0.09-15.64-4.64-21.32c-4.08-4.89-12.23-6.11-15.32-6.4l-1.22,0c-3.09,0.29-11.25,1.51-15.32,6.4
						c-4.74,5.68-4.79,17.22-4.64,21.32c-0.76-0.7-1.84-1.44-2.81-1.27c-0.71,0.13-1.23,0.69-1.53,1.65
						c-1.04,3.29-1.35,7.68,0.07,9.71c0.33,0.48,0.77,1.26,1.23,2.09c1.64,2.96,3.01,5.24,4.48,5.42c0.43,0.05,0.79-0.02,1.09-0.16
						c-0.03,1.82,0.07,5.09,1,6.82c0,0,0,0.01,0.01,0.01c-0.04,1.35-0.33,7.15-1.9,9.1c-1.63,2.02-8.29,5.21-14.17,8.02
						c-3.59,1.72-6.98,3.34-9.38,4.74c-4.38,2.54-6.43,4.4-7.79,5.64c-0.8,0.73-1.33,1.21-1.92,1.44c-0.38,0.15-0.77,0.28-1.18,0.41
						c-1.55,0.5-3.31,1.06-5.07,3.12c-0.69,0.81-1.91,1.37-3.33,2.02c-2.62,1.21-5.87,2.71-7.43,6.67
						c-2.35,5.97-6.27,20.12-5.36,25.88c0.06,0.41,0.13,0.82,0.21,1.22c-1.66,2.48-4.64,6.08-5.33,10.73
						c-1.14,7.8-1.27,24.07,0.8,31.19c-2.1,3.38-5.82,10.26-5.82,16.7v8.56c-0.59,0.96-3.68,6.54-3.02,17.44
						c0.25,4.18,0.72,8.03,1.22,12.1c0.88,7.26,3.84,15.48,3.5,25.2c-0.52,14.81-0.31,28.94,0.27,31.67
						c0.54,2.5,5.16,14.67,5.36,15.19l0.17,0.45l0.47-0.12c0.03-0.01,2.8-0.8,3.04-4.46l1.48,1.69l0.39-0.54
						c0.09-0.12,1.39-1.97,1.76-4.26c0.82-1.39,2.53-4.96,0.55-7.99c-2.26-3.45-5.99-10.57-6.03-10.64l0,0
						c-0.01-0.24-0.03-0.44-0.06-0.59c0.55-4.23,0-5.77,1.58-6.37c0.13-0.05,0.2-0.03,0.28,0.02c1.15,0.74,1.41,2.71,1.69,4.79
						c0.26,1.95,0.54,3.97,1.53,5.54c1.17,1.84,2.96,4.22,5.06,2.48c1.38-1.15,0.17-9.02-0.16-11.35c-0.42-2.91-0.42-3.73-1.57-8.35
						c-0.73-2.94-1.17-4.47-1.37-5.83c-0.1-1.12,0.19-5.79,0.62-9.21c0.49-3.92,2.91-10.33,5.48-17.12
						c2.93-7.75,5.96-15.77,6.15-20.42c0.3-7.21-0.65-10.79-0.99-11.82c0.61-0.73,2.3-2.98,2.76-5.9c0.54-3.39,0.37-9.27,0.35-9.42
						c0.02-0.1,1.8-10.26,4.73-14.92c2.23-3.54,5.51-10.46,6.9-14.09c0.51,3.58,1.07,6.79,1.65,8.51c0.72,2.17,1.65,4.59,2.54,6.92
						c1.27,3.33,2.47,6.47,2.78,8.12c0.44,2.33,0.13,19.45,0.03,25.08c-0.02,1.2-0.04,2-0.04,2.2c0,0.01,0,0.01-0.01,0.02
						c-0.11,0.11-0.19,0.3-0.22,0.5c-0.22,0.41-0.58,0.97-0.91,1.49c-1.77,2.79-4.74,7.46-4.16,12.07c0.64,5.14,1.42,7.28,1.7,7.93
						c-0.58,1.85-4.88,15.91-4.22,26.05c0.23,3.54-1.16,9.05-2.92,16.04c-2.27,9-6.56,29.74-7.51,42.67
						c-1.41,19.13,4.08,41.03,5.59,52.86c0.32,2.53,0.54,4.21,0.57,4.71c0.07,1.25-0.04,2.11-0.18,3.11
						c-0.18,1.36-0.39,2.9-0.18,5.79c0.02,0.29,0.07,0.61,0.14,0.95c-0.74,1.66-7.26,16.62-7.43,26.38
						c-0.08,4.77,1.44,15.35,3.06,26.56c1.46,10.15,2.86,20.63,3.3,27.11l0.01,0.17c0.04,0.54,0.07,1.06,0.09,1.54
						c0.07,3.47-0.26,10.38-0.49,11.06c-0.52,1.59-1,3.09-0.97,5.43c-0.14,0.14-0.28,0.27-0.42,0.39c-1.92,1.64-2.69,3.85-3.45,5.98
						c-0.25,0.7-0.48,1.36-0.75,1.99c-1.03,2.42-10.21,9.98-11.47,10.78c-0.99,0.62-3.49,4.28-3.49,4.28
						c-0.94,1-0.65,2.66-0.46,3.75c0.03,0.19,0.07,0.37,0.09,0.53c0.08,0.58,0.26,0.98,0.4,1.31c0.13,0.28,0.22,0.49,0.22,0.74
						c0.01,0.34-0.05,0.75-0.1,1.14c-0.05,0.35-0.1,0.72-0.11,1.06c-0.01,0.61,0.02,2.08,0.61,2.57c0.34,0.28,0.66,0.48,1.13,0.56
						c-0.05,0.15-0.12,0.35-0.2,0.59c-0.37,1.08,0.45,2.19,1.05,2.63c0.43,0.32,1.11,0.35,1.58,0.32c0,0.09,0.02,0.15,0.03,0.2
						c0.07,0.77,0.33,1.83,1.31,2.29c1,0.47,1.5,0.36,2.09,0.08c1.14,1.58,3.46,2.54,5.55,2.34c0.27-0.03,0.54-0.07,0.8-0.14
						c2.15-0.55,4.85-2.4,5.84-4.89c0.8-1.99,1.97-2.65,3.01-3.1c4.29-1.35,6.63-6.13,7.25-10.56c0.55-3.91,3.06-8.18,3.71-9.05
						c2.99-1.26,4.77-2.84,6.3-5.09c1.61-2.36,1.67-3.87,1.22-5.83c-0.43-1.86-1.59-10.63-2-11.99c-0.35-1.19-0.52-2.41-0.8-3.9
						c-0.87-4.63,4.87-28.5,6.56-33.15c0.65-1.78,1.57-3.73,2.65-5.98c1.82-3.82,4.09-8.57,5.9-14.58
						c2.74-9.1-1.59-29.23-2.11-31.61c1.59-2.79,3.01-5.68,4.23-8.63c0.98-2.36,1.9-4.81,2.37-7.33c0.68-3.72,1.28-10.77,1.96-18.93
						c0.61-7.21,1.29-15.38,2.13-21.9c1.03-8.05,3.17-17.14,4.88-24.44c1.17-5,2.18-9.31,2.51-11.92c0.62-4.86,0.01-9.71-0.34-11.83
						c0.37,0.04,1.49,0.05,1.76,0c-0.34,2.12-0.96,6.97-0.34,11.83c0.33,2.6,1.34,6.92,2.51,11.92c1.71,7.3,3.84,16.39,4.88,24.44
						c0.84,6.52,1.53,14.69,2.13,21.9c0.69,8.16,1.28,15.21,1.96,18.93c0.46,2.52,1.39,4.97,2.37,7.33
						c1.23,2.95,2.64,5.84,4.23,8.63c-0.53,2.38-4.85,22.51-2.11,31.61c1.81,6.01,4.08,10.76,5.9,14.58c1.07,2.25,2,4.2,2.65,5.98
						c1.69,4.65,7.43,28.52,6.56,33.15c-0.28,1.49-0.44,2.7-0.8,3.9c-0.4,1.36-1.57,10.13-2,11.99c-0.45,1.96-0.39,3.46,1.22,5.83
						c1.53,2.25,3.31,3.84,6.3,5.09c0.65,0.87,3.16,5.14,3.71,9.05c0.62,4.44,2.96,9.21,7.25,10.56c1.04,0.45,2.21,1.11,3.01,3.1
						c1,2.48,3.7,4.34,5.84,4.89c0.26,0.07,0.53,0.11,0.8,0.14c2.09,0.2,4.41-0.76,5.55-2.34c0.58,0.28,1.09,0.39,2.09-0.08
						c1.07-0.51,1.28-1.72,1.33-2.49c0.47,0.03,1.16,0,1.59-0.32c0.6-0.44,1.41-1.55,1.05-2.63c-0.08-0.22-0.14-0.41-0.19-0.56l0,0
						c0-0.01-0.01-0.02-0.01-0.04c0.47-0.09,0.79-0.28,1.13-0.56c0.59-0.49,0.63-1.96,0.61-2.57c-0.01-0.34-0.06-0.7-0.11-1.06
						c-0.05-0.39-0.11-0.8-0.1-1.14c0-0.25,0.1-0.46,0.22-0.74c0.14-0.32,0.32-0.72,0.4-1.31c0.02-0.16,0.05-0.34,0.09-0.53
						c0.19-1.09,0.48-2.74-0.46-3.75c0,0-2.5-3.67-3.49-4.28c-1.26-0.79-10.43-8.36-11.47-10.78c-0.27-0.63-0.5-1.29-0.75-1.99
						c-0.75-2.14-1.53-4.34-3.45-5.98c-0.14-0.12-0.28-0.25-0.42-0.39c0.04-2.34-0.45-3.84-0.97-5.43
						c-0.22-0.68-0.56-7.59-0.49-11.06c0.02-0.48,0.05-1,0.09-1.54c0.01-0.06,0.02-0.12,0.03-0.17l-0.02,0
						c0.44-6.48,1.84-16.96,3.3-27.11c1.62-11.21,3.14-21.79,3.06-26.56c-0.17-9.7-6.6-24.52-7.41-26.34
						c0.09-0.41,0.15-0.79,0.17-1.14c0.21-2.89,0-4.43-0.18-5.79c-0.13-1-0.25-1.86-0.18-3.11c0.03-0.51,0.24-2.18,0.57-4.71
						c1.51-11.83,7-33.72,5.59-52.86c-0.95-12.93-5.24-33.67-7.51-42.67c-1.76-6.98-3.15-12.5-2.92-16.04
						c0.66-10.14-3.63-24.19-4.22-26.05c0.28-0.65,1.06-2.79,1.7-7.93c0.57-4.61-2.39-9.28-4.16-12.07
						c-0.52-0.82-1.11-1.75-1.14-2.01c0-0.2-0.01-0.99-0.04-2.2c-0.1-5.63-0.41-22.75,0.03-25.08c0.31-1.64,1.51-4.79,2.78-8.12
						c0.89-2.33,1.81-4.75,2.54-6.92c0.55-1.66,1.08-4.74,1.57-8.19c0-0.01,0-0.01,0-0.02c1.42,3.54,4.62,10.04,6.68,13.69
						c3.63,6.44,4.88,16.93,5.08,24.34c0.08,2.95,2.15,5.17,2.76,5.9c-0.34,1.04-1.29,4.61-0.99,11.82
						c0.19,4.65,3.22,12.67,6.15,20.42c2.57,6.79,4.99,13.2,5.48,17.12c0.35,2.83,0.7,4.66,0.72,6.05c0.02,1.34,0.01,2.68-0.12,4.02
						c-0.12,1.24-0.64,2.7-1.27,5.21c-1.15,4.62-1.15,5.44-1.57,8.35c-0.33,2.33-1.54,10.21-0.16,11.35
						c2.09,1.74,3.89-0.64,5.06-2.48c0.99-1.57,1.27-3.59,1.53-5.54c0.28-2.09,0.55-4.05,1.69-4.79c0.08-0.05,0.15-0.07,0.28-0.02
						c1.58,0.59,1.02,2.13,1.58,6.37c-0.03,0.15-0.05,0.35-0.06,0.59l0,0c-0.04,0.07-3.77,7.19-6.03,10.64
						c-1.99,3.03-0.28,6.6,0.55,7.99c0.37,2.29,1.67,4.14,1.76,4.26l0.39,0.54l1.48-1.69c0.24,3.66,3.01,4.45,3.04,4.46l0.47,0.12
						l0.17-0.45c0.2-0.52,4.82-12.69,5.36-15.19c0.59-2.73,0.8-16.86,0.27-31.67c-0.34-9.71,2.62-17.94,3.5-25.2
						c0.5-4.07,0.96-7.92,1.22-12.1C284.24,265.86,281.15,260.28,280.56,259.31z"/>
				</g>
			</g>
		</g>
	</g>
</g>
<g id="Deltoids_front_00000034808384162364617700000016273709621647759036_">
	<g>
		<path class="st1" d="M156.5,167.58c-0.64,2.17-1.93,4.22-3.47,6.05c-1.08,1-2.09,2.07-3,3.2l-0.31,0.41
			c-2.29,2.95-3.91,6.36-4.58,10.21l-0.01,0.02c-1.88,3.98-4.44,7.36-7.7,10.28c-1.92,1.72-4.16,3.04-6.45,4.19
			c-3.28,1.64-4.56,1.49-6.55-1c-0.23-0.68-1.63-4.82-2.43-9.93c-0.87-5.58,2.91-19.93,5.22-25.8c1.41-3.57,4.32-4.91,6.89-6.09
			c0.88-0.4,1.73-0.79,2.45-1.25c1.98,3.92,8.5,2.96,11.99,2.74C153.29,160.31,158.28,161.52,156.5,167.58"/>
		<path class="st2" d="M138.75,189.16c3.5-9.99,9.58-19.24,17.44-26.3c0.12,0.18,0.23,0.38,0.33,0.59
			c-7.42,6.71-13.24,15.4-16.75,24.82C139.43,188.57,139.09,188.87,138.75,189.16"/>
		<path class="st2" d="M131.19,201.82L131.19,201.82c0.22-0.11,0.44-0.23,0.66-0.34c0,0,0,0,0,0
			C131.63,201.6,131.41,201.71,131.19,201.82 M132.25,201.27L132.25,201.27c0.12-0.07,0.23-0.13,0.34-0.19l0,0
			C132.48,201.14,132.37,201.21,132.25,201.27 M131.47,194.74c0.86-11.04,4.13-26.98,15.4-33.99c0.55-0.06,1.07-0.11,1.54-0.14
			c-11.86,6.37-15.33,22.51-16.25,33.76C131.93,194.5,131.7,194.63,131.47,194.74"/>
		<path class="st2" d="M133.33,200.66C133.33,200.66,133.33,200.66,133.33,200.66c0.23-0.14,0.46-0.27,0.68-0.41c0,0,0,0,0,0
			C133.79,200.39,133.56,200.53,133.33,200.66 M134.26,192.92c2.19-12.09,8.09-25.08,19.36-31.83c0.27,0.09,0.53,0.19,0.77,0.31
			c-11.14,6.43-17.05,19.03-19.35,30.9C134.78,192.5,134.52,192.71,134.26,192.92"/>
		<path class="st2" d="M129.52,202.59C129.52,202.59,129.52,202.59,129.52,202.59c0.25-0.1,0.51-0.21,0.78-0.33c0,0,0,0,0,0
			C130.03,202.38,129.77,202.49,129.52,202.59 M130.22,195.26c-0.1-2.04-0.36-4.09-0.63-6.11c-0.48-3.74-0.98-7.61-0.44-11.36
			c1.03-7.11,3.48-13.44,7.47-19.35c0.01-0.02,0.02-0.03,0.04-0.04c0.11,0.22,0.24,0.42,0.38,0.61c-5.11,7.64-7.73,15.95-7.56,24.03
			c0.05,2.29,0.38,4.61,0.69,6.86c0.24,1.7,0.48,3.43,0.61,5.16C130.6,195.13,130.41,195.2,130.22,195.26"/>
		<path class="st2" d="M127.74,203.01C127.74,203.01,127.74,203.01,127.74,203.01c0.37-0.02,0.77-0.09,1.21-0.23c0,0,0,0,0,0
			C128.51,202.93,128.11,203,127.74,203.01 M127.99,195.65c-0.19,0-0.38-0.01-0.57-0.03c-0.21-1.36-0.45-2.71-0.68-4.06
			c-1.23-7.07-2.48-14.3-1.11-21.06c0.59-1.88,1.17-3.54,1.67-4.83c0.61-1.56,1.52-2.69,2.56-3.57c-6.08,8.85-4.26,19.27-2.49,29.35
			c0.24,1.38,0.49,2.78,0.71,4.19C128.05,195.65,128.02,195.65,127.99,195.65 M124.53,194.64c-0.33-0.2-0.64-0.43-0.93-0.68
			c-0.81-2.72-1.3-5.54-1.47-8.46c0.14-1.08,0.32-2.22,0.54-3.4l0.07,0.2C122.65,186.61,123.25,190.73,124.53,194.64"/>
		<path class="st3" d="M127.63,203.01c-0.4,0-0.78-0.08-1.14-0.24c-0.69-0.31-1.33-0.91-2.07-1.83c-0.06-0.17-0.19-0.55-0.36-1.1
			c-0.47-1.5-1.26-4.28-1.86-7.59c0.36,0.63,0.83,1.21,1.4,1.7c0.94,3.16,2.32,6.19,4.13,9.05
			C127.7,203.01,127.67,203.01,127.63,203.01 M128.95,202.79c-0.15-2.34-0.48-4.74-0.87-7.14c0.14,0,0.27-0.01,0.41-0.02
			c0.6-0.05,1.17-0.18,1.73-0.36c0.12,2.48-0.01,4.95-0.7,7.32C129.32,202.66,129.13,202.73,128.95,202.79 M128.26,202.56
			c-1.58-2.52-2.82-5.17-3.73-7.92c0.87,0.53,1.86,0.89,2.88,0.98C127.79,197.95,128.1,200.29,128.26,202.56 M130.3,202.26
			c0.61-2.38,0.66-4.8,0.49-7.2c0.23-0.1,0.46-0.2,0.68-0.31c-0.21,2.73-0.28,5.16-0.28,7.08c0,0,0,0-0.01,0
			c-0.07,0.04-0.14,0.07-0.21,0.11c-0.05,0.02-0.09,0.05-0.14,0.07C130.65,202.09,130.47,202.18,130.3,202.26 M131.85,201.48
			c0.01-1.94,0.09-4.39,0.31-7.11c0.73-0.43,1.43-0.93,2.1-1.45c-0.48,2.65-0.78,5.26-0.93,7.74c-0.24,0.14-0.49,0.28-0.74,0.42
			l0.03-0.09l-0.37,0.28C132.12,201.34,131.99,201.41,131.85,201.48 M134.01,200.25c0.17-2.56,0.5-5.24,1.03-7.96
			c0.07-0.05,0.13-0.11,0.2-0.16c1.18-0.98,2.35-1.96,3.51-2.97c-1.1,3.13-1.94,6.33-2.51,9.56c-0.18,0.14-0.36,0.27-0.54,0.4
			C135.15,199.53,134.59,199.9,134.01,200.25 M137.02,198.1c0.63-3.33,1.55-6.62,2.75-9.82c2.48-2.18,4.9-4.41,7.26-6.7
			c-0.49,1.01-0.9,2.06-1.24,3.15c-0.25,0.8-0.44,1.63-0.6,2.47c-0.03,0.14-0.03,0.18-0.04,0.26l-0.14,0.3
			c-0.72,1.48-1.53,2.87-2.44,4.19c0,0.01-0.01,0.01-0.01,0.02c0,0-0.01,0.01-0.01,0.01c-0.78,1.14-1.64,2.22-2.57,3.24
			c-0.8,0.88-1.65,1.73-2.55,2.53C137.29,197.86,137.16,197.98,137.02,198.1"/>
		<path class="st4" d="M136.24,198.73c0.57-3.23,1.41-6.43,2.51-9.56c0.34-0.3,0.68-0.59,1.02-0.89c-1.19,3.21-2.12,6.5-2.75,9.82
			C136.76,198.31,136.51,198.52,136.24,198.73"/>
		<path class="st4" d="M131.19,201.82c0-1.92,0.07-4.35,0.28-7.08c0.23-0.12,0.46-0.24,0.69-0.37c-0.22,2.73-0.3,5.17-0.31,7.11
			C131.63,201.6,131.41,201.71,131.19,201.82 M132.26,201.26l0.37-0.28l-0.03,0.09C132.48,201.14,132.37,201.2,132.26,201.26"/>
		<path class="st4" d="M133.33,200.66c0.14-2.49,0.45-5.09,0.93-7.74c0.26-0.21,0.52-0.42,0.78-0.63c-0.53,2.72-0.86,5.4-1.03,7.96
			C133.79,200.39,133.56,200.53,133.33,200.66"/>
		<path class="st4" d="M129.52,202.59c0.69-2.38,0.81-4.84,0.7-7.32c0.19-0.06,0.38-0.13,0.57-0.21c0.17,2.4,0.12,4.82-0.49,7.2
			C130.03,202.38,129.77,202.49,129.52,202.59"/>
		<path class="st4" d="M127.74,203.01c-1.81-2.87-3.19-5.89-4.13-9.05c0.29,0.25,0.6,0.48,0.93,0.68c0.9,2.75,2.15,5.4,3.73,7.92
			c-0.16-2.27-0.48-4.61-0.84-6.94c0.19,0.02,0.38,0.03,0.57,0.03c0.03,0,0.06,0,0.09,0c0.39,2.4,0.71,4.8,0.87,7.14
			C128.51,202.92,128.11,203,127.74,203.01"/>
	</g>
	<g>
		<path class="st1" d="M234.41,166.7c-1.22-6.2,3.74-6.76,8.49-6.47c3.49,0.22,9.78,1.44,11.76-2.49c0.72,0.46,1.7,1.01,2.59,1.41
			c2.57,1.19,5.57,2.94,6.98,6.51c2.31,5.87,6.14,19.86,5.27,25.44c-0.79,5.11-2.21,9.22-2.45,9.9c-1.99,2.48-3.49,2.58-6.77,0.93
			c-2.29-1.15-4.53-2.47-6.45-4.19c-3.26-2.92-5.83-6.29-7.7-10.28l-0.01-0.02c-0.67-3.85-2.29-7.26-4.58-10.21
			c0,0-2.1-2.9-3.18-3.9C236.82,171.51,235.07,170.06,234.41,166.7z"/>
		<path class="st2" d="M259.71,194.76c-0.23-0.12-0.46-0.25-0.69-0.38c-0.93-11.26-4.91-27.73-16.78-34.09
			c0.47,0.03,1.03,0.07,1.58,0.13C255.11,167.42,258.85,183.71,259.71,194.76"/>
		<path class="st2" d="M256.92,192.91c-0.26-0.21-0.53-0.42-0.78-0.63c-2.29-11.85-8.52-24.62-19.64-31.06
			c0.24-0.12,0.5-0.22,0.76-0.31C248.51,167.66,254.72,180.83,256.92,192.91"/>
		<path class="st2" d="M263.29,195.71c-0.07,0-0.13,0-0.2,0c0.23-1.42,0.48-2.85,0.72-4.25c1.78-10.12,3.61-20.58-2.56-29.46
			c1.09,0.9,2.04,2.06,2.68,3.68c0.46,1.16,0.97,2.64,1.5,4.3c1.55,6.91,0.26,14.33-0.99,21.58c-0.24,1.37-0.48,2.75-0.69,4.13
			C263.6,195.71,263.44,195.71,263.29,195.71 M266.59,194.79c1.32-3.95,1.93-8.13,1.83-12.49l0.09-0.23l0.03-0.01
			c0.21,1.09,0.38,2.15,0.52,3.15c-0.15,3.09-0.67,6.07-1.55,8.95C267.22,194.39,266.92,194.6,266.59,194.79"/>
		<path class="st2" d="M260.96,195.3c-0.19-0.07-0.38-0.14-0.57-0.22c0.12-1.74,0.37-3.47,0.61-5.18c0.32-2.25,0.64-4.58,0.69-6.86
			c0.17-8.06-2.55-16.52-7.64-24.15c0.14-0.18,0.28-0.38,0.39-0.6c3.99,5.9,6.55,12.41,7.58,19.52c0.54,3.75,0.04,7.61-0.44,11.36
			C261.32,191.18,261.05,193.24,260.96,195.3"/>
		<path class="st2" d="M252.42,189.14c-0.34-0.3-0.68-0.59-1.02-0.89c-3.5-9.38-9.44-18.19-16.83-24.88c0.09-0.21,0.2-0.41,0.32-0.6
			C242.72,169.82,248.93,179.18,252.42,189.14"/>
		<path class="st3" d="M263.59,203.01c-0.04,0-0.08,0-0.12,0c-0.01,0-0.02,0-0.04,0c1.77-2.81,3.13-5.77,4.07-8.86
			c0.59-0.49,1.31-1.07,1.69-1.71c-0.82,4.48-1.99,7.95-2.19,8.51C265.88,202.36,264.76,203.01,263.59,203.01 M262.23,202.77
			c-0.19-0.06-0.38-0.13-0.58-0.21c-0.68-2.36-0.81-4.8-0.69-7.26c0.59,0.2,1.19,0.34,1.83,0.39c0.1,0.01,0.2,0.01,0.3,0.02
			C262.71,198.08,262.38,200.46,262.23,202.77 M262.92,202.56c0.16-2.25,0.47-4.56,0.83-6.86c1.01-0.08,1.98-0.4,2.84-0.9
			C265.69,197.49,264.46,200.08,262.92,202.56 M260.87,202.22c-0.19-0.09-0.38-0.18-0.59-0.29c-0.1-0.05-0.2-0.1-0.29-0.15
			c0-1.91-0.07-4.32-0.28-7.03c0.22,0.12,0.45,0.22,0.68,0.32C260.22,197.46,260.27,199.86,260.87,202.22 M259.33,201.44
			c-0.2-0.1-0.39-0.21-0.59-0.32l-0.19-0.14l0.01,0.05c-0.24-0.14-0.48-0.27-0.72-0.41c-0.14-2.48-0.45-5.07-0.93-7.71
			c0.67,0.53,1.37,1.04,2.1,1.47C259.24,197.09,259.32,199.51,259.33,201.44 M257.16,200.21c-0.77-0.48-1.52-0.99-2.24-1.55
			c-0.57-3.22-1.41-6.4-2.5-9.52c1.19,1.03,2.4,2.05,3.62,3.06c0.03,0.03,0.06,0.05,0.1,0.08
			C256.66,194.98,257,197.66,257.16,200.21 M254.14,198.02c-0.11-0.09-0.21-0.18-0.31-0.28c-3.24-2.9-5.79-6.25-7.66-10.19
			l-0.01-0.13c-0.01-0.02-0.03-0.04-0.04-0.07c-0.12-0.65-0.27-1.29-0.44-1.91c-0.36-1.32-0.83-2.58-1.4-3.78
			c2.32,2.25,4.69,4.44,7.13,6.58C252.59,191.44,253.51,194.71,254.14,198.02"/>
		<path class="st4" d="M259.99,201.79c-0.22-0.11-0.44-0.23-0.66-0.34c-0.01-1.94-0.09-4.36-0.31-7.07
			c0.23,0.13,0.46,0.26,0.69,0.38C259.92,197.46,259.98,199.87,259.99,201.79"/>
		<path class="st4" d="M257.84,200.62c-0.23-0.13-0.46-0.27-0.68-0.41c-0.17-2.55-0.5-5.22-1.03-7.93c0.26,0.21,0.52,0.42,0.78,0.63
			C257.4,195.54,257.7,198.14,257.84,200.62"/>
		<path class="st4" d="M263.44,203.01c-0.37-0.02-0.77-0.1-1.21-0.24c0.15-2.31,0.48-4.69,0.86-7.06c0.07,0,0.13,0,0.2,0
			c0.16,0,0.31-0.01,0.46-0.02c-0.36,2.31-0.67,4.62-0.83,6.86c1.55-2.48,2.78-5.07,3.68-7.77c0.32-0.19,0.63-0.4,0.92-0.64
			C266.57,197.24,265.21,200.2,263.44,203.01"/>
		<path class="st4" d="M261.65,202.56c-0.25-0.1-0.51-0.21-0.78-0.34c-0.59-2.36-0.65-4.76-0.48-7.14c0.19,0.08,0.38,0.15,0.57,0.22
			C260.84,197.76,260.97,200.2,261.65,202.56"/>
		<path class="st4" d="M254.92,198.66c-0.26-0.21-0.53-0.42-0.78-0.64c-0.63-3.31-1.55-6.58-2.74-9.77c0.34,0.3,0.68,0.59,1.02,0.89
			C253.51,192.25,254.36,195.44,254.92,198.66"/>
	</g>
</g>
</svg>
