<?xml version="1.0" encoding="utf-8"?>
<!-- Generator: Adobe Illustrator 26.0.1, SVG Export Plug-In . SVG Version: 6.00 Build 0)  -->
<svg version="1.1" id="Layer_1" xmlns="http://www.w3.org/2000/svg" xmlns:xlink="http://www.w3.org/1999/xlink" x="0px" y="0px"
	 viewBox="0 0 432 648" style="enable-background:new 0 0 432 648;" xml:space="preserve">
<style type="text/css">
	.st0{fill:#FFFFFF;}
	.st1{fill:#E92A2A;}
	.st2{fill:#D52626;}
	.st3{fill:#9A1A1C;}
	.st4{fill:#8D1819;}
</style>
<g id="Front_00000151507887526342002210000009010880971492698047_">
	<g>
		<g>
			<g>
				<g>
					<path class="st0" d="M285.53,259.2v-8.56c0-6.18-3.43-12.78-5.56-16.28c2.11-7.07,2.14-23.98,0.99-31.83
						c-0.7-4.77-4.02-8.66-5.66-11.15c0.03-0.19,0.06-0.38,0.1-0.58c0.9-5.77-3.01-19.92-5.37-25.89c-1.56-3.96-4.82-5.46-7.43-6.67
						c-1.41-0.65-2.64-1.21-3.33-2.02c-1.77-2.06-3.52-2.62-5.07-3.12c-0.41-0.13-0.8-0.26-1.18-0.41c-0.6-0.24-1.12-0.72-1.92-1.44
						c-1.36-1.23-3.41-3.09-7.79-5.64c-2.41-1.4-5.8-3.02-9.38-4.74c-5.88-2.81-12.74-6.06-14.37-8.08
						c-1.49-1.84-1.65-7.67-1.67-9.58c0.71-1.8,0.79-4.65,0.76-6.3c0.3,0.14,0.66,0.21,1.09,0.16c1.46-0.18,2.84-2.46,4.48-5.42
						c0.46-0.83,0.9-1.62,1.23-2.09c1.42-2.03,1.11-6.42,0.07-9.71c-0.3-0.96-0.82-1.52-1.53-1.65c-0.98-0.18-2.05,0.56-2.82,1.27
						c0.15-4.1,0.09-15.64-4.64-21.32c-4.08-4.89-12.23-6.11-15.33-6.4l-1.22,0c-3.09,0.29-11.25,1.51-15.33,6.4
						c-4.74,5.68-4.79,17.22-4.64,21.32c-0.76-0.7-1.84-1.44-2.81-1.27c-0.71,0.13-1.23,0.69-1.53,1.65
						c-1.04,3.29-1.35,7.68,0.07,9.71c0.33,0.48,0.77,1.26,1.23,2.09c1.64,2.96,3.01,5.24,4.48,5.42c0.43,0.05,0.79-0.02,1.09-0.16
						c-0.03,1.82,0.07,5.09,1,6.82c0,0,0,0.01,0.01,0.01c-0.04,1.35-0.33,7.15-1.9,9.1c-1.63,2.02-8.29,5.21-14.17,8.02
						c-3.59,1.72-6.98,3.34-9.38,4.74c-4.38,2.54-6.43,4.4-7.79,5.64c-0.8,0.73-1.33,1.21-1.92,1.44c-0.38,0.15-0.77,0.28-1.18,0.41
						c-1.55,0.5-3.31,1.06-5.07,3.12c-0.69,0.81-1.91,1.37-3.33,2.02c-2.62,1.21-5.87,2.71-7.43,6.67
						c-2.35,5.97-6.27,20.12-5.37,25.89c0.06,0.41,0.13,0.82,0.21,1.22c-1.66,2.48-4.64,6.08-5.33,10.73
						c-1.14,7.8-1.27,24.07,0.8,31.2c-2.1,3.38-5.82,10.26-5.82,16.7v8.56c-0.59,0.96-3.68,6.54-3.02,17.44
						c0.25,4.18,0.72,8.03,1.22,12.1c0.88,7.26,3.84,15.48,3.5,25.2c-0.52,14.81-0.31,28.94,0.27,31.67
						c0.54,2.5,5.16,14.68,5.36,15.19l0.17,0.45l0.47-0.12c0.03-0.01,2.8-0.8,3.04-4.46l1.48,1.69l0.39-0.54
						c0.09-0.12,1.39-1.97,1.76-4.26c0.82-1.39,2.53-4.96,0.55-7.99c-2.26-3.45-5.99-10.57-6.03-10.64l0,0
						c-0.01-0.24-0.03-0.44-0.06-0.59c0.55-4.23,0-5.77,1.58-6.37c0.13-0.05,0.2-0.03,0.28,0.02c1.15,0.74,1.41,2.71,1.69,4.79
						c0.26,1.95,0.54,3.97,1.53,5.54c1.17,1.84,2.96,4.23,5.06,2.48c1.38-1.15,0.17-9.02-0.16-11.36c-0.42-2.91-0.42-3.73-1.57-8.35
						c-0.73-2.94-1.17-4.47-1.37-5.83c-0.1-1.12,0.19-5.79,0.62-9.21c0.49-3.92,2.91-10.33,5.48-17.12
						c2.93-7.75,5.96-15.77,6.15-20.42c0.3-7.21-0.65-10.79-0.99-11.82c0.61-0.73,2.3-2.98,2.76-5.9c0.54-3.39,0.37-9.28,0.35-9.42
						c0.02-0.1,1.8-10.27,4.73-14.92c2.23-3.54,5.51-10.47,6.9-14.09c0.51,3.58,1.07,6.79,1.65,8.51c0.72,2.17,1.65,4.59,2.54,6.92
						c1.27,3.33,2.47,6.48,2.78,8.12c0.44,2.33,0.13,19.45,0.03,25.08c-0.02,1.2-0.04,2-0.04,2.2c0,0.01,0,0.01-0.01,0.02
						c-0.11,0.11-0.19,0.3-0.22,0.5c-0.22,0.41-0.58,0.97-0.91,1.49c-1.77,2.79-4.74,7.46-4.17,12.07c0.64,5.14,1.42,7.29,1.7,7.93
						c-0.58,1.85-4.88,15.91-4.22,26.05c0.23,3.54-1.16,9.06-2.92,16.04c-2.27,9-6.56,29.74-7.51,42.68
						c-1.41,19.13,4.08,41.03,5.59,52.86c0.32,2.53,0.54,4.21,0.57,4.72c0.07,1.25-0.04,2.11-0.18,3.11
						c-0.18,1.36-0.39,2.9-0.18,5.79c0.02,0.29,0.07,0.61,0.14,0.95c-0.74,1.66-7.26,16.62-7.43,26.39
						c-0.08,4.77,1.44,15.36,3.06,26.56c1.46,10.15,2.86,20.63,3.3,27.11l0.01,0.17c0.04,0.54,0.07,1.06,0.09,1.54
						c0.07,3.47-0.26,10.38-0.49,11.06c-0.52,1.59-1.01,3.09-0.97,5.43c-0.14,0.14-0.28,0.27-0.42,0.39
						c-1.92,1.64-2.7,3.85-3.45,5.98c-0.25,0.7-0.48,1.36-0.75,1.99c-1.03,2.42-10.21,9.99-11.47,10.78
						c-0.99,0.62-3.49,4.29-3.49,4.29c-0.94,1-0.65,2.66-0.46,3.75c0.03,0.19,0.07,0.37,0.09,0.53c0.08,0.58,0.26,0.98,0.4,1.31
						c0.13,0.28,0.22,0.49,0.22,0.74c0.01,0.34-0.05,0.75-0.1,1.14c-0.05,0.35-0.1,0.72-0.11,1.06c-0.01,0.61,0.02,2.08,0.61,2.57
						c0.34,0.28,0.66,0.48,1.13,0.56c-0.05,0.15-0.12,0.35-0.2,0.59c-0.37,1.08,0.45,2.19,1.05,2.63c0.43,0.32,1.11,0.35,1.58,0.32
						c0,0.09,0.02,0.15,0.03,0.2c0.07,0.77,0.33,1.83,1.31,2.29c1,0.47,1.5,0.36,2.09,0.08c1.14,1.58,3.46,2.54,5.55,2.34
						c0.27-0.03,0.54-0.07,0.8-0.14c2.15-0.55,4.85-2.4,5.85-4.89c0.8-1.99,1.97-2.65,3.01-3.1c4.29-1.35,6.63-6.13,7.25-10.56
						c0.55-3.91,3.06-8.18,3.71-9.06c2.99-1.26,4.77-2.84,6.3-5.09c1.61-2.36,1.67-3.87,1.22-5.83c-0.43-1.86-1.59-10.63-2-12
						c-0.35-1.19-0.52-2.41-0.8-3.9c-0.87-4.63,4.87-28.5,6.56-33.15c0.65-1.78,1.57-3.73,2.65-5.98c1.82-3.82,4.09-8.57,5.9-14.58
						c2.74-9.1-1.59-29.23-2.11-31.61c1.59-2.79,3.01-5.68,4.23-8.63c0.98-2.36,1.9-4.81,2.37-7.33c0.68-3.72,1.28-10.77,1.96-18.93
						c0.61-7.21,1.29-15.38,2.13-21.9c1.03-8.05,3.17-17.14,4.88-24.44c1.17-5,2.18-9.32,2.51-11.92c0.62-4.87,0.01-9.71-0.34-11.83
						c0.37,0.04,1.49,0.05,1.76,0c-0.34,2.12-0.96,6.97-0.34,11.84c0.33,2.6,1.34,6.92,2.51,11.92c1.71,7.3,3.84,16.39,4.88,24.44
						c0.84,6.52,1.53,14.69,2.13,21.9c0.69,8.16,1.28,15.21,1.96,18.93c0.46,2.52,1.39,4.97,2.37,7.33
						c1.23,2.95,2.64,5.84,4.23,8.63c-0.53,2.38-4.85,22.51-2.11,31.61c1.81,6.01,4.08,10.76,5.9,14.58c1.07,2.25,2,4.2,2.65,5.98
						c1.69,4.65,7.43,28.52,6.56,33.15c-0.28,1.49-0.44,2.7-0.8,3.9c-0.4,1.36-1.57,10.13-2,12c-0.45,1.96-0.39,3.46,1.22,5.83
						c1.53,2.25,3.31,3.84,6.3,5.09c0.65,0.87,3.16,5.14,3.71,9.06c0.62,4.44,2.96,9.21,7.25,10.56c1.04,0.45,2.21,1.11,3.01,3.1
						c1,2.48,3.7,4.34,5.85,4.89c0.26,0.07,0.53,0.11,0.8,0.14c2.09,0.2,4.41-0.76,5.55-2.34c0.58,0.28,1.09,0.39,2.09-0.08
						c1.07-0.51,1.28-1.72,1.33-2.49c0.47,0.03,1.16,0,1.59-0.32c0.6-0.44,1.41-1.55,1.05-2.63c-0.08-0.22-0.14-0.41-0.19-0.56l0,0
						c0-0.01-0.01-0.02-0.01-0.04c0.47-0.09,0.79-0.28,1.13-0.56c0.59-0.49,0.63-1.96,0.61-2.57c-0.01-0.34-0.06-0.7-0.11-1.06
						c-0.05-0.39-0.11-0.8-0.1-1.14c0-0.25,0.1-0.46,0.22-0.74c0.14-0.32,0.32-0.72,0.4-1.31c0.02-0.16,0.05-0.34,0.09-0.53
						c0.19-1.09,0.48-2.74-0.46-3.75c0,0-2.5-3.67-3.49-4.29c-1.26-0.79-10.44-8.36-11.47-10.78c-0.27-0.63-0.5-1.29-0.75-1.99
						c-0.75-2.14-1.53-4.34-3.45-5.98c-0.14-0.12-0.28-0.25-0.42-0.39c0.04-2.34-0.45-3.84-0.97-5.43
						c-0.22-0.68-0.56-7.59-0.49-11.06c0.02-0.48,0.05-1,0.09-1.54c0.01-0.06,0.02-0.12,0.03-0.17l-0.02,0
						c0.44-6.48,1.84-16.96,3.3-27.11c1.62-11.21,3.14-21.79,3.06-26.56c-0.17-9.7-6.6-24.52-7.41-26.35
						c0.09-0.41,0.15-0.79,0.17-1.14c0.21-2.89,0-4.43-0.18-5.79c-0.13-1-0.25-1.86-0.18-3.11c0.03-0.51,0.24-2.18,0.57-4.72
						c1.51-11.83,7.01-33.73,5.59-52.86c-0.95-12.93-5.24-33.67-7.51-42.68c-1.76-6.99-3.15-12.5-2.92-16.04
						c0.66-10.14-3.64-24.2-4.22-26.05c0.28-0.65,1.06-2.79,1.7-7.93c0.57-4.61-2.39-9.28-4.17-12.07
						c-0.52-0.82-1.11-1.75-1.14-2.01c0-0.2-0.01-0.99-0.04-2.2c-0.1-5.63-0.41-22.75,0.03-25.08c0.31-1.64,1.51-4.79,2.78-8.12
						c0.89-2.33,1.81-4.75,2.54-6.92c0.55-1.66,1.08-4.75,1.57-8.19c0-0.01,0-0.01,0-0.02c1.42,3.54,4.62,10.04,6.68,13.69
						c3.63,6.44,4.88,16.93,5.08,24.34c0.08,2.95,2.15,5.17,2.76,5.9c-0.34,1.04-1.29,4.61-0.99,11.82
						c0.19,4.65,3.22,12.67,6.15,20.42c2.57,6.79,4.99,13.2,5.48,17.12c0.35,2.83,0.7,4.66,0.72,6.05c0.02,1.34,0.01,2.68-0.12,4.02
						c-0.12,1.24-0.64,2.7-1.27,5.21c-1.15,4.62-1.15,5.44-1.57,8.35c-0.33,2.33-1.54,10.21-0.16,11.36
						c2.09,1.74,3.89-0.64,5.06-2.48c0.99-1.57,1.27-3.59,1.53-5.54c0.28-2.09,0.55-4.05,1.69-4.79c0.08-0.05,0.15-0.07,0.28-0.02
						c1.58,0.59,1.02,2.13,1.58,6.37c-0.03,0.15-0.05,0.35-0.06,0.59l0,0c-0.04,0.07-3.77,7.19-6.03,10.64
						c-1.99,3.03-0.28,6.6,0.55,7.99c0.37,2.29,1.67,4.14,1.76,4.26l0.39,0.54l1.48-1.69c0.24,3.66,3.01,4.45,3.04,4.46l0.47,0.12
						l0.17-0.45c0.2-0.52,4.82-12.69,5.36-15.19c0.59-2.73,0.8-16.86,0.27-31.67c-0.34-9.72,2.62-17.94,3.5-25.2
						c0.5-4.07,0.96-7.92,1.22-12.1C289.21,265.75,286.12,260.16,285.53,259.2z"/>
				</g>
			</g>
		</g>
	</g>
</g>
<g id="Extensor__x28_fore_arm_lower_x29__00000059990010255944087630000014462349753901457052_">
	<g>
		<path class="st1" d="M269.89,316.72c8-10.1,14.82-21.08,16.97-33.88l0.01-0.1c0.21-1.93,0.64-3.95,0.77-5.98
			c0.55-9.02-1.85-14.76-2.78-16.6c-1.05,7.66-4.25,15.14-7.37,22.2c-4.1,9.29-6.68,18.77-7.39,28.76c0.06,1.6,0,2.94-0.19,4.17
			v0.01v0.02C269.9,315.79,269.89,316.25,269.89,316.72"/>
		<path class="st2" d="M270.12,312.48c0-0.43,0-0.89-0.02-1.36c0.08-1.06,0.17-2.11,0.29-3.16c0.02-0.05,0.03-0.1,0.05-0.15
			c-0.12,1.05-0.22,2.11-0.3,3.17c-0.01,0.04-0.02,0.07-0.03,0.11c0.01-0.02,0.02-0.03,0.03-0.05c0,0.03-0.01,0.07-0.01,0.1v0.02
			c0.01,0.44,0.02,0.87,0.02,1.28C270.14,312.45,270.13,312.47,270.12,312.48 M273.91,305.31c-0.17-0.13-0.34-0.27-0.49-0.43
			c0.47-0.85,0.93-1.7,1.4-2.53c5.55-10.04,11.29-20.41,12.47-32.09c0.1,1.08,0.16,2.26,0.16,3.52
			c-1.84,10.37-7.02,19.73-12.03,28.82C274.92,303.49,274.42,304.4,273.91,305.31 M272.62,303.74c-0.13-0.27-0.25-0.56-0.35-0.87
			c1.34-3.34,2.85-6.62,4.32-9.84c4.48-9.76,9.1-19.83,8.89-30.92c0.21,0.54,0.43,1.18,0.65,1.92c-0.31,10.41-4.68,19.93-8.91,29.17
			C275.64,296.64,274.03,300.16,272.62,303.74"/>
		<path class="st3" d="M269.92,316.66c0-0.42,0.01-0.85,0.02-1.27c0.13-0.9,0.2-1.88,0.21-2.96c1.2-2.39,2.48-4.78,3.77-7.12
			c0.65,0.48,1.42,0.73,2.28,0.73c0.46,0,0.95-0.08,1.45-0.23C275.31,309.56,272.68,313.16,269.92,316.66 M270.14,311.03
			c0-0.02,0-0.04,0-0.06c0.69-2.45,1.54-4.86,2.48-7.24c0.22,0.44,0.49,0.82,0.8,1.14C272.31,306.91,271.2,308.97,270.14,311.03
			 M270.44,307.81c0.35-2.98,0.86-5.91,1.53-8.81c-0.06,0.99-0.05,1.97,0.1,2.92c0.05,0.33,0.12,0.65,0.21,0.95
			C271.62,304.5,271,306.14,270.44,307.81"/>
		<path class="st4" d="M270.15,312.43c0-0.41,0-0.83-0.02-1.28v-0.02c0-0.03,0.01-0.07,0.01-0.1c1.06-2.07,2.17-4.13,3.28-6.16
			c0.16,0.16,0.32,0.3,0.49,0.43C272.63,307.66,271.35,310.04,270.15,312.43 M270.14,310.98c0.08-1.06,0.18-2.12,0.3-3.17
			c0.56-1.66,1.18-3.31,1.83-4.94c0.1,0.31,0.21,0.6,0.35,0.87C271.68,306.12,270.84,308.53,270.14,310.98"/>
	</g>
	<g>
		<path class="st1" d="M131.28,316.72c-8-10.1-14.82-21.08-16.97-33.88l-0.01-0.1c-0.21-1.93-0.38-3.88-0.5-5.9
			c-0.55-9.02,1.56-14.71,2.49-16.56c1.05,7.66,4.28,15.03,7.4,22.08c4.1,9.29,6.68,18.77,7.39,28.76c-0.06,1.6,0,2.94,0.19,4.17
			v0.01v0.02C131.27,315.79,131.28,316.25,131.28,316.72"/>
		<path class="st2" d="M127.23,305.23c-0.5-0.91-1-1.82-1.5-2.72c-5.02-9.09-10.19-18.45-12.03-28.82c0.01-1.26,0.06-2.43,0.16-3.52
			c1.18,11.68,6.92,22.05,12.47,32.09c0.46,0.84,0.93,1.68,1.4,2.53C127.57,304.95,127.4,305.1,127.23,305.23 M128.52,303.65
			c-1.41-3.58-3.02-7.1-4.6-10.55c-4.24-9.23-8.61-18.76-8.91-29.17c0.22-0.74,0.44-1.38,0.65-1.92
			c-0.21,11.08,4.41,21.16,8.89,30.92c1.48,3.22,2.98,6.5,4.32,9.84C128.77,303.09,128.66,303.38,128.52,303.65"/>
		<path class="st3" d="M131.25,316.66c-2.76-3.5-5.39-7.1-7.73-10.85c0.5,0.16,0.99,0.23,1.45,0.23c0.85,0,1.63-0.26,2.28-0.73
			c1.29,2.34,2.57,4.73,3.77,7.12c0.01,1.08,0.08,2.06,0.21,2.96C131.24,315.81,131.25,316.24,131.25,316.66 M131.03,311.03
			c-1.06-2.07-2.17-4.13-3.28-6.16c0.31-0.32,0.58-0.7,0.8-1.14c0.94,2.38,1.78,4.79,2.48,7.24
			C131.03,311,131.03,311.02,131.03,311.03 M130.72,307.81c-0.56-1.66-1.18-3.31-1.83-4.94c0.09-0.3,0.16-0.61,0.21-0.95
			c0.14-0.95,0.15-1.93,0.1-2.92C129.86,301.9,130.38,304.83,130.72,307.81"/>
		<path class="st4" d="M131.02,312.43c-1.2-2.39-2.48-4.78-3.77-7.12c0.17-0.13,0.34-0.27,0.49-0.43c1.11,2.03,2.22,4.09,3.28,6.16
			c0,0.03,0.01,0.07,0.01,0.1v0.02C131.02,311.6,131.02,312.02,131.02,312.43 M131.03,310.98c-0.69-2.45-1.54-4.86-2.48-7.24
			c0.13-0.27,0.25-0.56,0.35-0.87c0.66,1.63,1.27,3.28,1.83,4.94C130.85,308.86,130.95,309.91,131.03,310.98"/>
	</g>
</g>
</svg>
