<svg id="Layer_1" data-name="Layer 1" xmlns="http://www.w3.org/2000/svg" viewBox="0 0 176.21 508.27"><defs><style>.cls-1{fill:#fff;}.cls-2{fill:#e92a2a;}.cls-3{fill:#d52626;}.cls-4{fill:#9a1a1c;}.cls-5{fill:#8d1819;}</style></defs><g id="Front"><path class="cls-1" d="M293.08,259.5v-8.57c0-6.19-3.43-12.79-5.57-16.31,2.12-7.07,2.14-24,1-31.88-.7-4.78-4-8.67-5.67-11.17l.09-.58c.91-5.77-3-20-5.37-25.92-1.56-4-4.82-5.47-7.45-6.68a10.07,10.07,0,0,1-3.33-2,9.8,9.8,0,0,0-5.08-3.13c-.41-.13-.8-.26-1.18-.41a7.18,7.18,0,0,1-1.92-1.44,40.77,40.77,0,0,0-7.81-5.65c-2.41-1.4-5.8-3-9.4-4.74-5.88-2.82-12.75-6.07-14.39-8.09-1.49-1.85-1.65-7.68-1.67-9.6a18.94,18.94,0,0,0,.76-6.31,1.9,1.9,0,0,0,1.09.16c1.47-.18,2.84-2.46,4.49-5.43.46-.83.89-1.62,1.23-2.09,1.42-2,1.11-6.44.07-9.73a2.08,2.08,0,0,0-1.53-1.65,3.7,3.7,0,0,0-2.82,1.27c.14-4.11.09-15.66-4.65-21.36-4.09-4.9-12.26-6.12-15.35-6.41h-1.22c-3.1.29-11.27,1.51-15.35,6.41-4.75,5.7-4.8,17.25-4.66,21.36a3.69,3.69,0,0,0-2.81-1.27A2.07,2.07,0,0,0,183,99.91c-1,3.29-1.35,7.69.07,9.73.34.47.77,1.26,1.23,2.09,1.65,3,3,5.25,4.49,5.43a1.9,1.9,0,0,0,1.09-.16c0,1.82.07,5.1,1,6.83h0c0,1.36-.32,7.16-1.9,9.11s-8.31,5.22-14.2,8c-3.59,1.72-7,3.34-9.4,4.74a40.59,40.59,0,0,0-7.8,5.65,6.91,6.91,0,0,1-1.92,1.44c-.38.16-.77.28-1.18.41a9.72,9.72,0,0,0-5.08,3.13,10.13,10.13,0,0,1-3.34,2c-2.62,1.21-5.88,2.71-7.44,6.68-2.36,6-6.28,20.15-5.38,25.92.07.42.14.82.21,1.22-1.66,2.48-4.65,6.09-5.34,10.75-1.14,7.81-1.27,24.11.8,31.25-2.1,3.38-5.83,10.27-5.83,16.72v8.58c-.59,1-3.68,6.55-3,17.46.25,4.18.72,8,1.22,12.12.88,7.27,3.84,15.51,3.5,25.24-.52,14.84-.31,29,.28,31.73.53,2.5,5.16,14.7,5.36,15.21l.17.45.47-.12a4.68,4.68,0,0,0,3-4.46l1.48,1.68.4-.54a11.26,11.26,0,0,0,1.76-4.27c.82-1.39,2.53-5,.54-8-2.26-3.46-6-10.59-6-10.66h0c0-.24,0-.45-.06-.59.55-4.24,0-5.79,1.57-6.38a.27.27,0,0,1,.28,0c1.15.74,1.41,2.71,1.69,4.8a13.83,13.83,0,0,0,1.54,5.55c1.17,1.85,3,4.24,5.06,2.49,1.39-1.15.18-9-.16-11.37a58.64,58.64,0,0,0-1.57-8.37c-.74-2.94-1.18-4.47-1.37-5.83a73.15,73.15,0,0,1,.62-9.22c.49-3.93,2.91-10.35,5.48-17.15,2.94-7.77,6-15.8,6.17-20.46.3-7.22-.65-10.81-1-11.84a12.8,12.8,0,0,0,2.77-5.91,65.13,65.13,0,0,0,.36-9.43c0-.1,1.8-10.28,4.73-15a105,105,0,0,0,6.92-14.11,57.79,57.79,0,0,0,1.65,8.52c.72,2.18,1.65,4.6,2.54,6.94a65.67,65.67,0,0,1,2.78,8.13c.44,2.33.13,19.48,0,25.12,0,1.21,0,2,0,2.2v0a.93.93,0,0,0-.22.5c-.23.41-.59,1-.92,1.49-1.77,2.8-4.74,7.48-4.17,12.09.64,5.15,1.42,7.3,1.7,7.95-.58,1.85-4.88,15.93-4.22,26.09.23,3.54-1.16,9.06-2.93,16.06-2.27,9-6.56,29.79-7.52,42.75-1.41,19.16,4.09,41.09,5.6,52.94.33,2.54.54,4.22.57,4.73a14.47,14.47,0,0,1-.17,3.11,24.74,24.74,0,0,0-.18,5.8,9.32,9.32,0,0,0,.13,1c-.74,1.67-7.27,16.65-7.44,26.43-.08,4.78,1.45,15.38,3.07,26.61,1.46,10.16,2.86,20.66,3.3,27.15l0,.17c0,.54.06,1.06.08,1.54a96.32,96.32,0,0,1-.48,11.08,14.92,14.92,0,0,0-1,5.44c-.14.14-.29.27-.43.39-1.92,1.64-2.7,3.85-3.45,6-.25.7-.48,1.37-.75,2-1,2.42-10.22,10-11.49,10.79-1,.62-3.49,4.29-3.49,4.29-.94,1-.65,2.66-.46,3.76,0,.19.07.37.09.53a4.34,4.34,0,0,0,.4,1.31,2.06,2.06,0,0,1,.22.74,8,8,0,0,1-.11,1.14c0,.36-.09.73-.1,1.06,0,.61,0,2.08.61,2.57a2.3,2.3,0,0,0,1.13.57l-.19.59a2.36,2.36,0,0,0,2.63,3,1,1,0,0,0,0,.2,2.65,2.65,0,0,0,1.32,2.3,2.08,2.08,0,0,0,2.09.07,6.39,6.39,0,0,0,5.56,2.34,5.21,5.21,0,0,0,.79-.13,9.12,9.12,0,0,0,5.86-4.9,5.16,5.16,0,0,1,3-3.11c4.3-1.35,6.64-6.13,7.27-10.58a24.63,24.63,0,0,1,3.72-9.07,13.18,13.18,0,0,0,6.31-5.1,6.45,6.45,0,0,0,1.23-5.84c-.43-1.86-1.6-10.65-2-12a38.59,38.59,0,0,1-.8-3.9c-.87-4.64,4.88-28.55,6.57-33.21.64-1.78,1.57-3.73,2.65-6a99.39,99.39,0,0,0,5.91-14.6c2.74-9.12-1.59-29.28-2.12-31.66a79.54,79.54,0,0,0,4.24-8.65,36.56,36.56,0,0,0,2.37-7.34c.69-3.73,1.28-10.79,2-19,.6-7.22,1.29-15.41,2.13-21.94,1-8.07,3.17-17.17,4.89-24.49,1.17-5,2.19-9.33,2.52-11.93a44,44,0,0,0-.34-11.85,11.4,11.4,0,0,0,1.76,0,43.62,43.62,0,0,0-.34,11.86c.33,2.6,1.34,6.93,2.52,11.93,1.71,7.32,3.85,16.42,4.88,24.49.84,6.53,1.53,14.72,2.14,21.94.69,8.17,1.28,15.23,2,19a35.93,35.93,0,0,0,2.37,7.34,77.75,77.75,0,0,0,4.24,8.65c-.53,2.38-4.86,22.54-2.12,31.66a97.22,97.22,0,0,0,5.91,14.6c1.07,2.26,2,4.21,2.65,6,1.69,4.66,7.44,28.57,6.57,33.21a38.59,38.59,0,0,1-.8,3.9c-.41,1.36-1.57,10.15-2,12a6.42,6.42,0,0,0,1.23,5.84,13.13,13.13,0,0,0,6.31,5.1,24.8,24.8,0,0,1,3.72,9.07c.62,4.45,3,9.23,7.26,10.58a5.17,5.17,0,0,1,3,3.11,9.13,9.13,0,0,0,5.85,4.9,5.34,5.34,0,0,0,.8.13,6.39,6.39,0,0,0,5.56-2.34,2.08,2.08,0,0,0,2.09-.07,2.8,2.8,0,0,0,1.33-2.5,2.37,2.37,0,0,0,2.64-3c-.08-.22-.14-.41-.18-.56h0l0,0a2.3,2.3,0,0,0,1.13-.57c.6-.49.63-2,.62-2.57a10.32,10.32,0,0,0-.11-1.06,7.88,7.88,0,0,1-.1-1.14,1.88,1.88,0,0,1,.22-.74,4.64,4.64,0,0,0,.4-1.31c0-.16.05-.34.09-.53.19-1.1.47-2.75-.46-3.76,0,0-2.51-3.67-3.5-4.29-1.26-.79-10.45-8.37-11.48-10.79-.27-.63-.51-1.3-.75-2-.76-2.14-1.53-4.35-3.46-6l-.42-.39a14.92,14.92,0,0,0-1-5.44,95.74,95.74,0,0,1-.49-11.08c0-.48.05-1,.09-1.54l0-.17h0c.45-6.49,1.84-17,3.31-27.15,1.62-11.23,3.15-21.83,3.06-26.61-.17-9.71-6.61-24.56-7.42-26.39a8.89,8.89,0,0,0,.18-1.14,25.34,25.34,0,0,0-.18-5.8,14.43,14.43,0,0,1-.18-3.11c0-.51.24-2.19.57-4.72,1.52-11.86,7-33.79,5.6-52.95-.95-13-5.25-33.73-7.52-42.75-1.76-7-3.16-12.52-2.92-16.06.66-10.16-3.65-24.24-4.23-26.09.28-.65,1.06-2.8,1.7-7.94.57-4.62-2.4-9.3-4.17-12.09a12,12,0,0,1-1.14-2c0-.2,0-1,0-2.21-.1-5.63-.41-22.79,0-25.12a66.82,66.82,0,0,1,2.78-8.13c.9-2.34,1.82-4.76,2.54-6.93a56.29,56.29,0,0,0,1.58-8.2v0a149.82,149.82,0,0,0,6.69,13.71c3.64,6.45,4.89,17,5.09,24.38.08,2.95,2.16,5.17,2.77,5.91-.34,1-1.3,4.62-1,11.84.19,4.66,3.22,12.69,6.16,20.46,2.57,6.8,5,13.22,5.49,17.14.35,2.84.7,4.67.72,6.06a36.17,36.17,0,0,1-.12,4,47.53,47.53,0,0,1-1.27,5.22,57.24,57.24,0,0,0-1.57,8.37c-.34,2.33-1.55,10.22-.17,11.37,2.1,1.74,3.9-.64,5.07-2.49a13.67,13.67,0,0,0,1.53-5.55c.28-2.09.55-4.06,1.7-4.8a.25.25,0,0,1,.27,0c1.59.59,1,2.14,1.58,6.38,0,.14,0,.34-.06.59h0c0,.07-3.77,7.2-6,10.65-2,3-.27,6.62.55,8a11.26,11.26,0,0,0,1.76,4.27l.39.54,1.48-1.69a4.69,4.69,0,0,0,3.05,4.47l.46.12.18-.45c.19-.52,4.83-12.71,5.36-15.22.59-2.73.8-16.88.28-31.72-.35-9.73,2.62-18,3.5-25.24.5-4.08,1-7.94,1.22-12.12C296.77,266.06,293.68,260.47,293.08,259.5Z" transform="translate(-120 -71.76)"/></g><g id="Obliques_external" data-name="Obliques external"><path class="cls-2" d="M185.65,282.31c-.51,2.54-2.72,5.25-4.28,7.16-2.18,2.66-4.21,1.44-6.49-.38-2-1.56-3.91-3.17-5.85-4.77h0a42.37,42.37,0,0,1-1.3-6.79c-.52-4.29,2.33-8.83,4.05-11.53.31-.49.56-.89.75-1.23,6.82,3.07,15,8.45,13.12,17.55" transform="translate(-120 -71.76)"/><path class="cls-3" d="M174.53,286.78c.22-.09.45-.19.67-.3a23.54,23.54,0,0,1-7.13-12.4,12.23,12.23,0,0,0-.27,1.68,24,24,0,0,0,6.73,11" transform="translate(-120 -71.76)"/><path class="cls-3" d="M178.63,283.63c.14-.18.28-.36.4-.54a29.71,29.71,0,0,1-9.51-12.93c-.13.28-.26.55-.39.84a30.49,30.49,0,0,0,9.5,12.63" transform="translate(-120 -71.76)"/><path class="cls-3" d="M180.94,279.06a24.33,24.33,0,0,1-9.67-12l.45-.72s0,0,0,.05a23.57,23.57,0,0,0,9.39,12c-.06.23-.12.45-.19.68" transform="translate(-120 -71.76)"/><path class="cls-3" d="M181.63,273.9a44.54,44.54,0,0,1-9.24-8.65l.24-.39.51.23a44.38,44.38,0,0,0,8.48,8c0,.27,0,.54,0,.82" transform="translate(-120 -71.76)"/><path class="cls-4" d="M178.84,291.16h-.12a7.16,7.16,0,0,1-3.68-1.91l-2.3-1.86a9.35,9.35,0,0,0,1.85-.55,25.24,25.24,0,0,0,5.61,4,2.71,2.71,0,0,1-1.36.37m2-.81a24.91,24.91,0,0,1-5.55-3.81,10.08,10.08,0,0,0,1.83-1.19,11.49,11.49,0,0,0,1.61-1.66,30.16,30.16,0,0,0,5,3.16c-.71,1-1.49,2-2.14,2.77a6.18,6.18,0,0,1-.7.73M184,286.3a31.15,31.15,0,0,1-4.94-3.15,13.46,13.46,0,0,0,1.91-4,25.15,25.15,0,0,0,4.93,2.44c0,.32-.1.65-.16,1,0,0,0,.06,0,.08A11.83,11.83,0,0,1,184,286.3m2-5.42a24.66,24.66,0,0,1-4.81-2.43q.12-.51.21-1a18.41,18.41,0,0,0,.29-3.47,24.09,24.09,0,0,0,3.47,1.87l.11,0a11.34,11.34,0,0,1,.73,5M184.89,275a24,24,0,0,1-3.21-1.83,26.07,26.07,0,0,0-.23-2.65,15.3,15.3,0,0,1,3.44,4.48" transform="translate(-120 -71.76)"/><path class="cls-5" d="M180.19,290.79a3.94,3.94,0,0,0,.62-.44,24.91,24.91,0,0,1-5.55-3.81c-.22.11-.45.21-.68.3a25.47,25.47,0,0,0,5.61,4" transform="translate(-120 -71.76)"/><path class="cls-5" d="M183.65,286.85l.37-.55a30.61,30.61,0,0,1-4.93-3.15c-.13.19-.26.36-.4.54a30.25,30.25,0,0,0,5,3.16" transform="translate(-120 -71.76)"/><path class="cls-5" d="M185.93,281.56c0-.23,0-.45.07-.68a24,24,0,0,1-4.82-2.44c-.05.23-.11.45-.18.68a25.15,25.15,0,0,0,4.93,2.44" transform="translate(-120 -71.76)"/><path class="cls-5" d="M185.27,275.85c-.12-.3-.25-.59-.39-.88a24.54,24.54,0,0,1-3.2-1.83c0,.27,0,.54,0,.82a24,24,0,0,0,3.47,1.87l.11,0" transform="translate(-120 -71.76)"/><path class="cls-2" d="M230.36,282.4c.5,2.54,2.71,5.25,4.27,7.16,2.18,2.66,4.21,1.44,6.49-.38,2-1.56,3.91-3.17,5.86-4.77l.24-.13a40.49,40.49,0,0,0,1.3-6.71c.52-4.29-2.43-8.85-4.15-11.55-.31-.49-.54-.91-.74-1.25-6.81,3.07-15.14,8.53-13.27,17.63" transform="translate(-120 -71.76)"/><path class="cls-3" d="M241.48,286.87c-.23-.09-.46-.19-.68-.3a23.47,23.47,0,0,0,7.13-12.4,12.23,12.23,0,0,1,.27,1.68,24,24,0,0,1-6.72,11" transform="translate(-120 -71.76)"/><path class="cls-3" d="M237.37,283.72l-.4-.54a29.71,29.71,0,0,0,9.51-12.93c.14.28.26.55.39.83a30.46,30.46,0,0,1-9.5,12.64" transform="translate(-120 -71.76)"/><path class="cls-3" d="M235.06,279.15c-.07-.23-.13-.45-.18-.68a23.55,23.55,0,0,0,9.38-12l0-.05q.22.34.45.72a24.33,24.33,0,0,1-9.67,12" transform="translate(-120 -71.76)"/><path class="cls-3" d="M230.76,275.88h0c.11-.29.23-.57.36-.85l.06,0c-.13.28-.26.58-.38.88h0m3.61-1.89c0-.28,0-.55,0-.82a44.38,44.38,0,0,0,8.48-8l.51-.23.24.39a44.54,44.54,0,0,1-9.24,8.65" transform="translate(-120 -71.76)"/><path class="cls-4" d="M237.16,291.25a2.65,2.65,0,0,1-1.35-.37,25.4,25.4,0,0,0,5.6-3.95,9.35,9.35,0,0,0,1.85.55l-2.3,1.86a7.16,7.16,0,0,1-3.68,1.91h-.12m-2-.81a6.18,6.18,0,0,1-.7-.73c-.65-.8-1.43-1.75-2.14-2.77a30.68,30.68,0,0,0,5-3.16,10.92,10.92,0,0,0,1.6,1.66,10.08,10.08,0,0,0,1.83,1.19,24.91,24.91,0,0,1-5.55,3.81M232,286.39a11.83,11.83,0,0,1-1.72-3.69s0-.05,0-.08c-.06-.32-.12-.65-.16-1a25.15,25.15,0,0,0,4.93-2.44,13.7,13.7,0,0,0,1.91,4,31.15,31.15,0,0,1-4.94,3.15M230,281a11.34,11.34,0,0,1,.73-5l.11,0a24.55,24.55,0,0,0,3.47-1.87,19.28,19.28,0,0,0,.29,3.47c.06.34.13.68.22,1A24.74,24.74,0,0,1,230,281m1.11-5.91a15.3,15.3,0,0,1,3.44-4.48,26.07,26.07,0,0,0-.23,2.65,24,24,0,0,1-3.21,1.83" transform="translate(-120 -71.76)"/><path class="cls-5" d="M235.81,290.88a3.88,3.88,0,0,1-.61-.44,25.37,25.37,0,0,0,5.55-3.81c.22.11.44.21.67.3a25.47,25.47,0,0,1-5.61,3.95" transform="translate(-120 -71.76)"/><path class="cls-5" d="M232.36,286.94l-.38-.55a30.61,30.61,0,0,0,4.93-3.15c.13.19.26.36.4.54a30.59,30.59,0,0,1-4.95,3.16" transform="translate(-120 -71.76)"/><path class="cls-5" d="M230.08,281.65c0-.23-.06-.45-.08-.68a24,24,0,0,0,4.82-2.44c.05.23.11.45.18.68a25.06,25.06,0,0,1-4.92,2.44" transform="translate(-120 -71.76)"/><path class="cls-5" d="M230.73,275.94c.12-.3.25-.59.39-.88a24.54,24.54,0,0,0,3.2-1.83c0,.27,0,.54,0,.82a24.43,24.43,0,0,1-3.46,1.87l-.12,0" transform="translate(-120 -71.76)"/></g></svg>