<?xml version="1.0" encoding="utf-8"?>
<!-- Generator: Adobe Illustrator 26.0.1, SVG Export Plug-In . SVG Version: 6.00 Build 0)  -->
<svg version="1.1" id="Layer_1" xmlns="http://www.w3.org/2000/svg" xmlns:xlink="http://www.w3.org/1999/xlink" x="0px" y="0px"
	 viewBox="0 0 432 648" style="enable-background:new 0 0 432 648;" xml:space="preserve">
<style type="text/css">
	.st0{fill:#FFFFFF;}
	.st1{fill:#E92A2A;}
	.st2{fill:#D52626;}
</style>
<g id="Front_00000118387366050541833080000017268204027550969755_">
	<g>
		<g>
			<g>
				<g>
					<path class="st0" d="M277.86,259.15v-8.56c0-6.19-3.43-12.78-5.56-16.29c2.11-7.07,2.14-23.99,0.99-31.84
						c-0.7-4.77-4.02-8.66-5.66-11.15c0.03-0.19,0.06-0.38,0.1-0.58c0.9-5.77-3.01-19.92-5.37-25.89c-1.56-3.96-4.82-5.46-7.44-6.67
						c-1.42-0.65-2.64-1.21-3.33-2.02c-1.77-2.06-3.52-2.62-5.07-3.12c-0.41-0.13-0.8-0.26-1.18-0.41c-0.6-0.24-1.12-0.72-1.92-1.44
						c-1.36-1.23-3.41-3.09-7.79-5.64c-2.41-1.4-5.8-3.02-9.39-4.74c-5.88-2.81-12.74-6.06-14.37-8.08
						c-1.49-1.84-1.65-7.67-1.67-9.58c0.71-1.8,0.79-4.65,0.76-6.3c0.3,0.14,0.66,0.21,1.09,0.16c1.47-0.18,2.84-2.46,4.48-5.42
						c0.46-0.83,0.9-1.62,1.23-2.09c1.42-2.03,1.11-6.42,0.07-9.72c-0.3-0.96-0.82-1.52-1.53-1.65c-0.98-0.18-2.05,0.56-2.82,1.27
						c0.15-4.1,0.09-15.64-4.64-21.33c-4.08-4.89-12.24-6.11-15.33-6.4l-1.22,0c-3.09,0.29-11.25,1.51-15.33,6.4
						c-4.74,5.68-4.79,17.22-4.64,21.33c-0.76-0.7-1.84-1.44-2.81-1.27c-0.71,0.13-1.23,0.69-1.53,1.65
						c-1.04,3.29-1.35,7.69,0.07,9.72c0.33,0.48,0.77,1.26,1.23,2.09c1.64,2.96,3.01,5.25,4.48,5.42c0.43,0.05,0.79-0.02,1.09-0.16
						c-0.03,1.82,0.07,5.1,1,6.82c0,0,0,0.01,0.01,0.01c-0.04,1.35-0.33,7.15-1.9,9.1c-1.64,2.02-8.3,5.21-14.17,8.02
						c-3.59,1.72-6.98,3.34-9.39,4.74c-4.38,2.54-6.43,4.41-7.79,5.64c-0.8,0.73-1.33,1.21-1.92,1.44
						c-0.38,0.15-0.77,0.28-1.18,0.41c-1.55,0.5-3.31,1.06-5.07,3.12c-0.69,0.81-1.91,1.37-3.33,2.02
						c-2.62,1.21-5.87,2.71-7.44,6.67c-2.35,5.97-6.27,20.12-5.37,25.89c0.06,0.41,0.13,0.82,0.21,1.22
						c-1.66,2.48-4.65,6.08-5.33,10.73c-1.14,7.8-1.27,24.08,0.8,31.2c-2.1,3.38-5.82,10.26-5.82,16.71v8.56
						c-0.59,0.96-3.68,6.54-3.02,17.44c0.25,4.18,0.72,8.03,1.22,12.1c0.88,7.26,3.84,15.49,3.5,25.2
						c-0.52,14.81-0.31,28.95,0.27,31.68c0.54,2.5,5.16,14.68,5.36,15.2l0.17,0.45l0.47-0.12c0.03-0.01,2.8-0.8,3.04-4.46l1.48,1.69
						l0.39-0.54c0.09-0.12,1.39-1.97,1.76-4.26c0.82-1.39,2.53-4.97,0.55-8c-2.26-3.45-5.99-10.57-6.03-10.64l0,0
						c-0.01-0.24-0.03-0.44-0.06-0.59c0.55-4.23,0-5.78,1.58-6.37c0.13-0.05,0.2-0.03,0.28,0.02c1.15,0.74,1.41,2.71,1.69,4.79
						c0.26,1.95,0.54,3.97,1.53,5.54c1.17,1.84,2.96,4.23,5.06,2.48c1.38-1.15,0.17-9.02-0.16-11.36c-0.42-2.91-0.42-3.73-1.57-8.35
						c-0.73-2.94-1.18-4.47-1.37-5.83c-0.1-1.12,0.19-5.8,0.62-9.21c0.49-3.92,2.91-10.33,5.48-17.12
						c2.93-7.76,5.96-15.77,6.16-20.43c0.3-7.21-0.65-10.79-0.99-11.83c0.61-0.73,2.3-2.98,2.76-5.9c0.54-3.39,0.37-9.28,0.35-9.42
						c0.02-0.1,1.8-10.27,4.73-14.92c2.23-3.54,5.51-10.47,6.9-14.09c0.51,3.59,1.08,6.79,1.65,8.51c0.72,2.18,1.65,4.59,2.54,6.93
						c1.27,3.33,2.47,6.48,2.78,8.12c0.44,2.33,0.13,19.46,0.03,25.09c-0.02,1.2-0.04,2-0.04,2.2c0,0.01,0,0.01-0.01,0.02
						c-0.11,0.11-0.19,0.3-0.22,0.5c-0.22,0.41-0.58,0.97-0.91,1.49c-1.77,2.79-4.74,7.47-4.17,12.07c0.64,5.14,1.42,7.29,1.7,7.93
						c-0.58,1.85-4.88,15.91-4.22,26.05c0.23,3.54-1.16,9.06-2.92,16.04c-2.27,9.01-6.56,29.75-7.51,42.68
						c-1.41,19.14,4.08,41.04,5.59,52.87c0.32,2.53,0.54,4.21,0.57,4.72c0.07,1.25-0.04,2.11-0.18,3.11
						c-0.18,1.36-0.39,2.9-0.18,5.79c0.02,0.29,0.07,0.61,0.14,0.95c-0.74,1.66-7.26,16.63-7.43,26.39
						c-0.08,4.77,1.44,15.36,3.06,26.57c1.46,10.15,2.86,20.64,3.3,27.11l0.01,0.17c0.04,0.54,0.07,1.06,0.09,1.54
						c0.07,3.47-0.26,10.38-0.49,11.06c-0.52,1.59-1.01,3.09-0.97,5.43c-0.14,0.14-0.28,0.27-0.42,0.39
						c-1.92,1.64-2.7,3.85-3.45,5.98c-0.25,0.7-0.48,1.36-0.75,1.99c-1.03,2.42-10.21,9.99-11.47,10.78
						c-0.99,0.62-3.49,4.29-3.49,4.29c-0.94,1-0.65,2.66-0.46,3.75c0.03,0.19,0.07,0.37,0.09,0.53c0.08,0.58,0.26,0.98,0.4,1.31
						c0.13,0.28,0.22,0.49,0.22,0.74c0.01,0.34-0.05,0.75-0.1,1.14c-0.05,0.35-0.1,0.72-0.11,1.06c-0.01,0.61,0.02,2.08,0.61,2.57
						c0.34,0.28,0.66,0.48,1.13,0.56c-0.05,0.15-0.12,0.35-0.2,0.59c-0.37,1.08,0.45,2.19,1.05,2.63c0.43,0.32,1.11,0.35,1.58,0.32
						c0,0.09,0.02,0.15,0.03,0.2c0.07,0.77,0.33,1.83,1.31,2.29c1,0.47,1.5,0.36,2.09,0.08c1.14,1.58,3.46,2.54,5.55,2.34
						c0.27-0.03,0.54-0.07,0.8-0.14c2.15-0.55,4.85-2.41,5.85-4.89c0.8-1.99,1.97-2.65,3.01-3.1c4.29-1.35,6.63-6.13,7.25-10.57
						c0.55-3.92,3.06-8.18,3.72-9.06c2.99-1.26,4.77-2.84,6.3-5.1c1.61-2.36,1.67-3.87,1.22-5.83c-0.43-1.86-1.59-10.64-2-12
						c-0.35-1.19-0.52-2.41-0.8-3.9c-0.87-4.63,4.87-28.51,6.56-33.16c0.65-1.78,1.57-3.73,2.65-5.98c1.82-3.82,4.09-8.57,5.9-14.58
						c2.74-9.1-1.59-29.24-2.11-31.62c1.59-2.79,3.01-5.68,4.23-8.63c0.98-2.36,1.9-4.81,2.37-7.33c0.68-3.72,1.28-10.77,1.96-18.93
						c0.61-7.21,1.29-15.38,2.13-21.91c1.03-8.05,3.17-17.14,4.88-24.45c1.17-5,2.18-9.32,2.52-11.92
						c0.62-4.87,0.01-9.72-0.34-11.84c0.37,0.04,1.49,0.05,1.76,0c-0.34,2.12-0.96,6.97-0.34,11.84c0.33,2.6,1.34,6.92,2.52,11.92
						c1.71,7.31,3.84,16.4,4.88,24.45c0.84,6.53,1.53,14.7,2.13,21.91c0.69,8.16,1.28,15.21,1.96,18.93
						c0.46,2.52,1.39,4.97,2.37,7.33c1.23,2.95,2.64,5.84,4.23,8.63c-0.53,2.38-4.85,22.52-2.11,31.62
						c1.81,6.01,4.08,10.77,5.9,14.58c1.07,2.25,2,4.2,2.65,5.98c1.69,4.65,7.43,28.53,6.56,33.16c-0.28,1.49-0.44,2.7-0.8,3.9
						c-0.4,1.36-1.57,10.13-2,12c-0.45,1.96-0.39,3.47,1.22,5.83c1.53,2.25,3.31,3.84,6.3,5.1c0.65,0.88,3.17,5.14,3.72,9.06
						c0.62,4.44,2.96,9.22,7.25,10.57c1.04,0.45,2.21,1.11,3.01,3.1c1,2.48,3.7,4.34,5.85,4.89c0.26,0.07,0.53,0.11,0.8,0.14
						c2.09,0.2,4.41-0.76,5.55-2.34c0.58,0.28,1.09,0.39,2.09-0.08c1.07-0.51,1.28-1.72,1.33-2.49c0.47,0.03,1.16,0,1.59-0.32
						c0.6-0.44,1.41-1.55,1.05-2.63c-0.08-0.22-0.14-0.41-0.19-0.56l0,0c0-0.01-0.01-0.02-0.01-0.04c0.47-0.09,0.79-0.28,1.13-0.56
						c0.59-0.49,0.63-1.96,0.61-2.57c-0.01-0.34-0.06-0.7-0.11-1.06c-0.05-0.39-0.11-0.8-0.1-1.14c0-0.25,0.1-0.46,0.22-0.74
						c0.14-0.32,0.32-0.72,0.4-1.31c0.02-0.16,0.05-0.34,0.09-0.53c0.19-1.09,0.48-2.74-0.46-3.75c0,0-2.5-3.67-3.49-4.29
						c-1.26-0.79-10.44-8.36-11.47-10.78c-0.27-0.63-0.5-1.29-0.75-1.99c-0.75-2.14-1.53-4.34-3.45-5.98
						c-0.14-0.12-0.28-0.25-0.42-0.39c0.04-2.34-0.45-3.84-0.97-5.43c-0.22-0.68-0.56-7.59-0.49-11.06c0.02-0.48,0.05-1,0.09-1.54
						c0.01-0.06,0.02-0.12,0.03-0.17l-0.02,0c0.44-6.48,1.84-16.97,3.3-27.11c1.62-11.21,3.15-21.8,3.06-26.57
						c-0.17-9.7-6.6-24.53-7.41-26.35c0.09-0.41,0.15-0.79,0.17-1.14c0.21-2.89,0-4.43-0.18-5.79c-0.13-1-0.25-1.86-0.18-3.11
						c0.03-0.51,0.24-2.18,0.57-4.72c1.51-11.83,7.01-33.73,5.59-52.87c-0.95-12.94-5.24-33.68-7.51-42.68
						c-1.76-6.99-3.15-12.51-2.92-16.04c0.66-10.14-3.64-24.2-4.22-26.05c0.28-0.65,1.06-2.79,1.7-7.93
						c0.57-4.61-2.39-9.28-4.17-12.07c-0.52-0.82-1.11-1.75-1.14-2.01c0-0.2-0.01-0.99-0.04-2.2c-0.1-5.63-0.41-22.76,0.03-25.09
						c0.31-1.64,1.51-4.79,2.78-8.12c0.89-2.34,1.81-4.75,2.54-6.93c0.55-1.66,1.08-4.75,1.57-8.19c0-0.01,0-0.01,0-0.02
						c1.42,3.54,4.62,10.04,6.68,13.69c3.63,6.44,4.88,16.94,5.08,24.34c0.08,2.95,2.15,5.17,2.76,5.9
						c-0.34,1.04-1.29,4.62-0.99,11.83c0.19,4.65,3.22,12.67,6.16,20.43c2.57,6.79,4.99,13.2,5.48,17.12
						c0.35,2.83,0.7,4.66,0.72,6.05c0.02,1.34,0.01,2.68-0.12,4.02c-0.12,1.24-0.64,2.7-1.27,5.21c-1.15,4.62-1.15,5.44-1.57,8.35
						c-0.33,2.33-1.54,10.21-0.16,11.36c2.09,1.74,3.89-0.64,5.06-2.48c1-1.57,1.27-3.59,1.53-5.54c0.28-2.09,0.55-4.06,1.69-4.79
						c0.08-0.05,0.15-0.07,0.28-0.02c1.58,0.59,1.02,2.13,1.58,6.37c-0.03,0.15-0.05,0.35-0.06,0.59l0,0
						c-0.04,0.07-3.77,7.19-6.03,10.64c-1.99,3.03-0.28,6.6,0.55,8c0.37,2.29,1.67,4.14,1.76,4.26l0.39,0.54l1.48-1.69
						c0.24,3.66,3.01,4.45,3.04,4.46l0.47,0.12l0.17-0.45c0.2-0.52,4.82-12.69,5.36-15.2c0.59-2.73,0.8-16.87,0.27-31.68
						c-0.34-9.72,2.62-17.94,3.5-25.2c0.5-4.08,0.96-7.93,1.22-12.1C281.54,265.69,278.45,260.11,277.86,259.15z"/>
				</g>
			</g>
		</g>
	</g>
</g>
<g id="Flexor_digitorium__x28_Under_arm_x29__00000119835047464519370950000017135948005878373051_">
	<path class="st1" d="M135.76,267.69c0.29-6.81-0.86-9.92-1.19-10.96c-2.24,1.67-4.25,3.58-6.03,5.71c0.32,0.93,0.4,2.6,0.6,3.56
		c1.82,8.61,0.88,17.07-0.91,25.47c0.32-0.85,0.64-1.71,0.97-2.57c2.9-7.68,6.29-15.94,6.48-20.42L135.76,267.69z"/>
	<path class="st1" d="M249.87,267.46c-0.29-6.81,1.12-9.91,1.44-10.95c2.24,1.67,4.43,3.72,6.21,5.85
		c-0.32,0.93-0.69,2.16-0.89,3.12c-1.82,8.61-0.69,17.73,1.1,26.13c-0.32-0.85-1.02-1.93-1.36-2.79c-2.9-7.68-6.3-15.98-6.49-20.46
		L249.87,267.46z"/>
	<path class="st2" d="M130.24,276.95c0.01-0.39,0.02-0.77,0.02-1.16c3.05-4.48,4.75-8.56,5.16-12.47c0.05,0.95,0.07,2.01,0.05,3.18
		C134.59,269.8,132.86,273.24,130.24,276.95 M129.86,269.07c-0.04-0.31-0.08-0.62-0.13-0.94c2.57-3.63,4.2-6.82,5.07-9.94
		c0.08,0.37,0.17,0.81,0.25,1.32C134.05,262.51,132.36,265.61,129.86,269.07"/>
	<path class="st2" d="M255.51,277.04c-2.57-3.64-4.3-7.02-5.22-10.25c-0.02-1.1-0.01-2.1,0.03-3.01c0.5,3.79,2.2,7.75,5.16,12.1
		C255.49,276.26,255.5,276.65,255.51,277.04 M255.88,269.14c-2.48-3.43-4.16-6.5-5.18-9.46c0.08-0.51,0.16-0.95,0.24-1.32
		c0.89,3.08,2.52,6.25,5.07,9.85C255.96,268.51,255.92,268.83,255.88,269.14"/>
</g>
</svg>
