<?xml version="1.0" encoding="utf-8"?>
<!-- Generator: Adobe Illustrator 26.0.1, SVG Export Plug-In . SVG Version: 6.00 Build 0)  -->
<svg version="1.1" id="Layer_1" xmlns="http://www.w3.org/2000/svg" xmlns:xlink="http://www.w3.org/1999/xlink" x="0px" y="0px"
	 viewBox="0 0 432 648" style="enable-background:new 0 0 432 648;" xml:space="preserve">
<style type="text/css">
	.st0{fill:#FFFFFF;}
	.st1{fill:#E92A2A;}
	.st2{fill:#D52626;}
	.st3{fill:#8D1819;}
	.st4{fill:#9A1A1C;}
</style>
<g id="Front_00000021095593064744504020000009212515781599157179_">
	<g>
		<g>
			<g>
				<g>
					<path class="st0" d="M288.37,259.15v-8.56c0-6.19-3.43-12.78-5.56-16.29c2.11-7.07,2.14-23.99,0.99-31.84
						c-0.7-4.77-4.02-8.66-5.66-11.15c0.03-0.19,0.06-0.38,0.1-0.58c0.9-5.77-3.01-19.92-5.37-25.89c-1.56-3.96-4.82-5.46-7.44-6.67
						c-1.42-0.65-2.64-1.21-3.33-2.02c-1.77-2.06-3.52-2.62-5.07-3.12c-0.41-0.13-0.8-0.26-1.18-0.41c-0.6-0.24-1.12-0.72-1.92-1.44
						c-1.36-1.23-3.41-3.09-7.79-5.64c-2.41-1.4-5.8-3.02-9.39-4.74c-5.88-2.81-12.74-6.06-14.37-8.08
						c-1.49-1.84-1.65-7.67-1.67-9.58c0.71-1.8,0.79-4.65,0.76-6.3c0.3,0.14,0.66,0.21,1.09,0.16c1.47-0.18,2.84-2.46,4.48-5.42
						c0.46-0.83,0.9-1.62,1.23-2.09c1.42-2.03,1.11-6.42,0.07-9.72c-0.3-0.96-0.82-1.52-1.53-1.65c-0.98-0.18-2.05,0.56-2.82,1.27
						c0.15-4.1,0.09-15.64-4.64-21.33c-4.08-4.89-12.24-6.11-15.33-6.4l-1.22,0c-3.09,0.29-11.25,1.51-15.33,6.4
						c-4.74,5.68-4.79,17.22-4.64,21.33c-0.76-0.7-1.84-1.44-2.81-1.27c-0.71,0.13-1.23,0.69-1.53,1.65
						c-1.04,3.29-1.35,7.69,0.07,9.72c0.33,0.48,0.77,1.26,1.23,2.09c1.64,2.96,3.01,5.25,4.48,5.42c0.43,0.05,0.79-0.02,1.09-0.16
						c-0.03,1.82,0.07,5.1,1,6.82c0,0,0,0.01,0.01,0.01c-0.04,1.35-0.33,7.15-1.9,9.1c-1.64,2.02-8.3,5.21-14.17,8.02
						c-3.59,1.72-6.98,3.34-9.39,4.74c-4.38,2.54-6.43,4.41-7.79,5.64c-0.8,0.73-1.33,1.21-1.92,1.44
						c-0.38,0.15-0.77,0.28-1.18,0.41c-1.55,0.5-3.31,1.06-5.07,3.12c-0.69,0.81-1.91,1.37-3.33,2.02
						c-2.62,1.21-5.87,2.71-7.44,6.67c-2.35,5.97-6.27,20.12-5.37,25.89c0.06,0.41,0.13,0.82,0.21,1.22
						c-1.66,2.48-4.65,6.08-5.33,10.73c-1.14,7.8-1.27,24.08,0.8,31.2c-2.1,3.38-5.82,10.26-5.82,16.71v8.56
						c-0.59,0.96-3.68,6.54-3.02,17.44c0.25,4.18,0.72,8.03,1.22,12.1c0.88,7.26,3.84,15.49,3.5,25.2
						c-0.52,14.81-0.31,28.95,0.27,31.68c0.54,2.5,5.16,14.68,5.36,15.2l0.17,0.45l0.47-0.12c0.03-0.01,2.8-0.8,3.04-4.46l1.48,1.69
						l0.39-0.54c0.09-0.12,1.39-1.97,1.76-4.26c0.82-1.39,2.53-4.97,0.55-8c-2.26-3.45-5.99-10.57-6.03-10.64l0,0
						c-0.01-0.24-0.03-0.44-0.06-0.59c0.55-4.23,0-5.78,1.58-6.37c0.13-0.05,0.2-0.03,0.28,0.02c1.15,0.74,1.41,2.71,1.69,4.79
						c0.26,1.95,0.54,3.97,1.53,5.54c1.17,1.84,2.96,4.23,5.06,2.48c1.38-1.15,0.17-9.02-0.16-11.36c-0.42-2.91-0.42-3.73-1.57-8.35
						c-0.73-2.94-1.18-4.47-1.37-5.83c-0.1-1.12,0.19-5.8,0.62-9.21c0.49-3.92,2.91-10.33,5.48-17.12
						c2.93-7.76,5.96-15.77,6.16-20.43c0.3-7.21-0.65-10.79-0.99-11.83c0.61-0.73,2.3-2.98,2.76-5.9c0.54-3.39,0.37-9.28,0.35-9.42
						c0.02-0.1,1.8-10.27,4.73-14.92c2.23-3.54,5.51-10.47,6.9-14.09c0.51,3.59,1.08,6.79,1.65,8.51c0.72,2.18,1.65,4.59,2.54,6.93
						c1.27,3.33,2.47,6.48,2.78,8.12c0.44,2.33,0.13,19.46,0.03,25.09c-0.02,1.2-0.04,2-0.04,2.2c0,0.01,0,0.01-0.01,0.02
						c-0.11,0.11-0.19,0.3-0.22,0.5c-0.22,0.41-0.58,0.97-0.91,1.49c-1.77,2.79-4.74,7.47-4.17,12.07c0.64,5.14,1.42,7.29,1.7,7.93
						c-0.58,1.85-4.88,15.91-4.22,26.05c0.23,3.54-1.16,9.06-2.92,16.04c-2.27,9.01-6.56,29.75-7.51,42.68
						c-1.41,19.14,4.08,41.04,5.59,52.87c0.32,2.53,0.54,4.21,0.57,4.72c0.07,1.25-0.04,2.11-0.18,3.11
						c-0.18,1.36-0.39,2.9-0.18,5.79c0.02,0.29,0.07,0.61,0.14,0.95c-0.74,1.66-7.26,16.63-7.43,26.39
						c-0.08,4.77,1.44,15.36,3.06,26.57c1.46,10.15,2.86,20.64,3.3,27.11l0.01,0.17c0.04,0.54,0.07,1.06,0.09,1.54
						c0.07,3.47-0.26,10.38-0.49,11.06c-0.52,1.59-1.01,3.09-0.97,5.43c-0.14,0.14-0.28,0.27-0.42,0.39
						c-1.92,1.64-2.7,3.85-3.45,5.98c-0.25,0.7-0.48,1.36-0.75,1.99c-1.03,2.42-10.21,9.99-11.47,10.78
						c-0.99,0.62-3.49,4.29-3.49,4.29c-0.94,1-0.65,2.66-0.46,3.75c0.03,0.19,0.07,0.37,0.09,0.53c0.08,0.58,0.26,0.98,0.4,1.31
						c0.13,0.28,0.22,0.49,0.22,0.74c0.01,0.34-0.05,0.75-0.1,1.14c-0.05,0.35-0.1,0.72-0.11,1.06c-0.01,0.61,0.02,2.08,0.61,2.57
						c0.34,0.28,0.66,0.48,1.13,0.56c-0.05,0.15-0.12,0.35-0.2,0.59c-0.37,1.08,0.45,2.19,1.05,2.63c0.43,0.32,1.11,0.35,1.58,0.32
						c0,0.09,0.02,0.15,0.03,0.2c0.07,0.77,0.33,1.83,1.31,2.29c1,0.47,1.5,0.36,2.09,0.08c1.14,1.58,3.46,2.54,5.55,2.34
						c0.27-0.03,0.54-0.07,0.8-0.14c2.15-0.55,4.85-2.41,5.85-4.89c0.8-1.99,1.97-2.65,3.01-3.1c4.29-1.35,6.63-6.13,7.25-10.57
						c0.55-3.92,3.06-8.18,3.72-9.06c2.99-1.26,4.77-2.84,6.3-5.1c1.61-2.36,1.67-3.87,1.22-5.83c-0.43-1.86-1.59-10.64-2-12
						c-0.35-1.19-0.52-2.41-0.8-3.9c-0.87-4.63,4.87-28.51,6.56-33.16c0.65-1.78,1.57-3.73,2.65-5.98c1.82-3.82,4.09-8.57,5.9-14.58
						c2.74-9.1-1.59-29.24-2.11-31.62c1.59-2.79,3.01-5.68,4.23-8.63c0.98-2.36,1.9-4.81,2.37-7.33c0.68-3.72,1.28-10.77,1.96-18.93
						c0.61-7.21,1.29-15.38,2.13-21.91c1.03-8.05,3.17-17.14,4.88-24.45c1.17-5,2.18-9.32,2.52-11.92
						c0.62-4.87,0.01-9.72-0.34-11.84c0.37,0.04,1.49,0.05,1.76,0c-0.34,2.12-0.96,6.97-0.34,11.84c0.33,2.6,1.34,6.92,2.52,11.92
						c1.71,7.31,3.84,16.4,4.88,24.45c0.84,6.53,1.53,14.7,2.13,21.91c0.69,8.16,1.28,15.21,1.96,18.93
						c0.46,2.52,1.39,4.97,2.37,7.33c1.23,2.95,2.64,5.84,4.23,8.63c-0.53,2.38-4.86,22.52-2.11,31.62
						c1.81,6.01,4.08,10.77,5.9,14.58c1.07,2.25,2,4.2,2.65,5.98c1.69,4.65,7.43,28.53,6.56,33.16c-0.28,1.49-0.44,2.7-0.8,3.9
						c-0.4,1.36-1.57,10.13-2,12c-0.45,1.96-0.39,3.47,1.22,5.83c1.53,2.25,3.31,3.84,6.3,5.1c0.65,0.88,3.17,5.14,3.72,9.06
						c0.62,4.44,2.96,9.22,7.25,10.57c1.04,0.45,2.21,1.11,3.01,3.1c1,2.48,3.7,4.34,5.85,4.89c0.26,0.07,0.53,0.11,0.8,0.14
						c2.09,0.2,4.41-0.76,5.55-2.34c0.58,0.28,1.09,0.39,2.09-0.08c1.07-0.51,1.28-1.72,1.33-2.49c0.47,0.03,1.16,0,1.59-0.32
						c0.6-0.44,1.41-1.55,1.05-2.63c-0.08-0.22-0.14-0.41-0.19-0.56l0,0c0-0.01-0.01-0.02-0.01-0.04c0.47-0.09,0.79-0.28,1.13-0.56
						c0.59-0.49,0.63-1.96,0.61-2.57c-0.01-0.34-0.06-0.7-0.11-1.06c-0.05-0.39-0.11-0.8-0.1-1.14c0-0.25,0.1-0.46,0.22-0.74
						c0.14-0.32,0.32-0.72,0.4-1.31c0.02-0.16,0.05-0.34,0.09-0.53c0.19-1.09,0.48-2.74-0.46-3.75c0,0-2.5-3.67-3.49-4.29
						c-1.26-0.79-10.44-8.36-11.47-10.78c-0.27-0.63-0.5-1.29-0.75-1.99c-0.75-2.14-1.53-4.34-3.45-5.98
						c-0.14-0.12-0.28-0.25-0.42-0.39c0.04-2.34-0.45-3.84-0.97-5.43c-0.22-0.68-0.56-7.59-0.49-11.06c0.02-0.48,0.05-1,0.09-1.54
						c0.01-0.06,0.02-0.12,0.03-0.17l-0.02,0c0.44-6.48,1.84-16.97,3.3-27.11c1.62-11.21,3.15-21.8,3.06-26.57
						c-0.17-9.7-6.6-24.53-7.41-26.35c0.09-0.41,0.15-0.79,0.17-1.14c0.21-2.89,0-4.43-0.18-5.79c-0.13-1-0.25-1.86-0.18-3.11
						c0.03-0.51,0.24-2.18,0.57-4.72c1.51-11.83,7.01-33.73,5.59-52.87c-0.95-12.94-5.24-33.68-7.51-42.68
						c-1.76-6.99-3.15-12.51-2.92-16.04c0.66-10.14-3.64-24.2-4.22-26.05c0.28-0.65,1.06-2.79,1.7-7.93
						c0.57-4.61-2.39-9.28-4.17-12.07c-0.52-0.82-1.11-1.75-1.14-2.01c0-0.2-0.01-0.99-0.04-2.2c-0.1-5.63-0.41-22.76,0.03-25.09
						c0.31-1.64,1.51-4.79,2.78-8.12c0.89-2.34,1.81-4.75,2.54-6.93c0.55-1.66,1.08-4.75,1.57-8.19c0-0.01,0-0.01,0-0.02
						c1.42,3.54,4.62,10.04,6.68,13.69c3.63,6.44,4.88,16.94,5.08,24.34c0.08,2.95,2.15,5.17,2.76,5.9
						c-0.34,1.04-1.29,4.62-0.99,11.83c0.19,4.65,3.22,12.67,6.16,20.43c2.57,6.79,4.99,13.2,5.48,17.12
						c0.35,2.83,0.7,4.66,0.72,6.05c0.02,1.34,0.01,2.68-0.12,4.02c-0.12,1.24-0.64,2.7-1.27,5.21c-1.15,4.62-1.15,5.44-1.57,8.35
						c-0.33,2.33-1.54,10.21-0.16,11.36c2.09,1.74,3.89-0.64,5.06-2.48c1-1.57,1.27-3.59,1.53-5.54c0.28-2.09,0.55-4.06,1.69-4.79
						c0.08-0.05,0.15-0.07,0.28-0.02c1.58,0.59,1.02,2.13,1.58,6.37c-0.03,0.15-0.05,0.35-0.06,0.59l0,0
						c-0.04,0.07-3.77,7.19-6.03,10.64c-1.99,3.03-0.28,6.6,0.55,8c0.37,2.29,1.67,4.14,1.76,4.26l0.39,0.54l1.48-1.69
						c0.24,3.66,3.01,4.45,3.04,4.46l0.47,0.12l0.17-0.45c0.2-0.52,4.82-12.69,5.36-15.2c0.59-2.73,0.8-16.87,0.27-31.68
						c-0.34-9.72,2.62-17.94,3.5-25.2c0.5-4.08,0.96-7.93,1.22-12.1C292.06,265.69,288.97,260.11,288.37,259.15z"/>
				</g>
			</g>
		</g>
	</g>
</g>
<g id="Calves__x28_medial_head_x29__00000034781911845618677590000003785307276564652990_">
	<g id="Calves__x28_medial_head_x29__00000124146322530666171460000012292990105529763725_">
		<g>
			<g>
				<g>
					<path id="Calves__x28_medial_head_x29__00000089532211022302484730000012370902120996537250_" class="st1" d="M186.02,470.66
						c-1.79,5.94-4.04,10.65-5.85,14.44c-1.08,2.28-2.02,4.25-2.68,6.07c-0.25,0.69-0.58,1.78-0.97,3.15
						c-5.87-2.82-8.09-8.44-8.75-14.44v-0.04c0.1-1.16,0.17-2.34,0.25-3.58c0.26-4.48,0.38-9.06,1.78-13.36
						c1.05-3.25,2.7-6.3,4.63-9.11c1.95-2.83,4.37-5.27,6.39-8.04c1.17-1.61,2.28-3.29,3.31-5.01
						C185.13,445.67,188.38,462.79,186.02,470.66"/>
					<path class="st2" d="M167.58,477.29c-0.06,0.7-0.16,1.4-0.32,2.1c-0.05,0.21-0.12,0.4-0.2,0.58c0.74,6.47,3.5,12.52,9.88,15.26
						c0.06-0.2,0.13-0.4,0.2-0.6C169.92,491.54,167.88,484.43,167.58,477.29L167.58,477.29z"/>
				</g>
				<path class="st2" d="M181.72,481.81c2.51-9.55,3.85-19.76-0.72-28c0.2-0.1,0.41-0.2,0.61-0.29c4.17,7.48,3.53,16.36,1.63,24.84
					c-0.1,0.24-0.2,0.49-0.31,0.72C182.52,480.04,182.12,480.95,181.72,481.81"/>
				<path class="st2" d="M177.8,490.34c2.76-13.98,1.64-24.27-3.45-31.27c0.14-0.17,0.28-0.34,0.42-0.51
					c4.92,6.7,6.29,16.31,4.16,29.17C178.51,488.64,178.13,489.51,177.8,490.34"/>
				<path class="st2" d="M176.61,493.99c-2.81-4.82-3.55-10.68-4.27-16.35c-0.49-3.83-0.98-7.77-2.12-11.42
					c0.12-0.31,0.25-0.62,0.38-0.92c1.3,3.88,1.83,8.08,2.34,12.17c0.68,5.42,1.38,11.01,3.91,15.66c-0.04,0.14-0.09,0.29-0.13,0.45
					C176.69,493.7,176.65,493.84,176.61,493.99"/>
			</g>
			<path class="st3" d="M174.35,459.06c-0.57-0.78-1.18-1.52-1.85-2.22c0.11-0.19,0.22-0.39,0.34-0.58c0.7,0.72,1.34,1.49,1.93,2.29
				C174.63,458.72,174.49,458.89,174.35,459.06"/>
			<path class="st3" d="M181,453.81c-0.84-1.52-1.89-2.98-3.17-4.35c0.14-0.17,0.28-0.34,0.42-0.5c1.36,1.45,2.47,2.98,3.35,4.57
				C181.41,453.61,181.2,453.71,181,453.81"/>
			<path class="st3" d="M170.22,466.21c-0.23-0.74-0.49-1.47-0.77-2.18c0.09-0.33,0.19-0.66,0.29-0.99
				c0.32,0.74,0.61,1.49,0.86,2.25C170.48,465.6,170.35,465.9,170.22,466.21"/>
		</g>
		<path class="st4" d="M168.15,473.83c0.19-3.3,0.44-6.61,1.31-9.8c0.29,0.71,0.54,1.44,0.77,2.18
			C169.25,468.66,168.56,471.25,168.15,473.83 M170.61,465.29c-0.26-0.76-0.54-1.51-0.86-2.25c0.01-0.05,0.03-0.09,0.04-0.14
			c0.61-1.9,1.43-3.72,2.38-5.47c0.11-0.2,0.22-0.39,0.33-0.59c0.67,0.7,1.28,1.44,1.85,2.22
			C172.84,460.92,171.59,463.04,170.61,465.29 M174.77,458.56c-0.59-0.81-1.24-1.57-1.93-2.29c0.5-0.84,1.03-1.67,1.58-2.47
			c0.06-0.09,0.13-0.19,0.19-0.28c1-1.41,2.11-2.73,3.22-4.05c1.28,1.37,2.33,2.83,3.17,4.35c-2.47,1.23-4.79,3.15-5.93,4.4
			C174.97,458.33,174.87,458.44,174.77,458.56 M181.61,453.52c-0.89-1.59-2-3.12-3.35-4.57c0.17-0.21,0.35-0.41,0.52-0.62
			c0.7-0.84,1.39-1.69,2.03-2.58c1.17-1.61,2.28-3.28,3.31-5c0.02,0.08,0.04,0.17,0.05,0.26c0.47,2.29,1.32,6.75,1.94,11.7
			c-0.29-0.06-0.59-0.08-0.9-0.08C184.08,452.62,182.84,452.97,181.61,453.52"/>
	</g>
	<g id="Calves__x28_medial_head_x29__00000053546389961501603580000006723721566405145015_">
		<g>
			<g>
				<g>
					<path id="Calves__x28_medial_head_x29__00000082367448828714712980000015981878437294613130_" class="st1" d="M221.06,470.5
						c1.8,5.94,4.06,10.65,5.88,14.44c1.09,2.28,2.03,4.25,2.7,6.07c0.25,0.69,0.58,1.78,0.98,3.15c5.9-2.82,8.13-8.44,8.79-14.44
						v-0.04c-0.1-1.16-0.17-2.34-0.25-3.58c-0.26-4.48-0.38-9.06-1.79-13.36c-1.06-3.25-2.71-6.3-4.65-9.11
						c-1.96-2.83-4.39-5.27-6.42-8.04c-1.18-1.61-2.29-3.29-3.33-5.01C221.95,445.5,218.69,462.62,221.06,470.5"/>
					<path class="st2" d="M239.59,477.12c0.06,0.7,0.16,1.4,0.32,2.1c0.05,0.21,0.12,0.4,0.2,0.58c-0.74,6.47-3.52,12.52-9.93,15.26
						c-0.06-0.2-0.13-0.4-0.21-0.6C237.24,491.37,239.29,484.26,239.59,477.12L239.59,477.12z"/>
				</g>
				<path class="st2" d="M225.38,481.65c-2.52-9.55-3.87-19.76,0.72-28c-0.2-0.1-0.41-0.2-0.61-0.29
					c-4.19,7.48-3.55,16.36-1.64,24.84c0.1,0.24,0.21,0.49,0.31,0.72C224.57,479.87,224.98,480.78,225.38,481.65"/>
				<path class="st2" d="M229.32,490.17c-2.78-13.98-1.64-24.27,3.47-31.27c-0.14-0.17-0.28-0.34-0.43-0.51
					c-4.95,6.7-6.32,16.31-4.18,29.17C228.61,488.48,228.99,489.34,229.32,490.17"/>
				<path class="st2" d="M230.52,493.82c2.83-4.82,3.57-10.68,4.29-16.35c0.49-3.83,0.99-7.77,2.13-11.42
					c-0.12-0.31-0.25-0.62-0.39-0.92c-1.31,3.88-1.84,8.08-2.35,12.17c-0.68,5.42-1.39,11.01-3.93,15.66
					c0.04,0.14,0.09,0.29,0.13,0.45C230.43,493.54,230.48,493.68,230.52,493.82"/>
			</g>
			<path class="st3" d="M232.79,458.9c0.57-0.78,1.19-1.52,1.86-2.22c-0.11-0.19-0.22-0.39-0.34-0.58c-0.7,0.72-1.35,1.49-1.94,2.29
				C232.51,458.56,232.65,458.73,232.79,458.9"/>
			<path class="st3" d="M226.11,453.64c0.85-1.52,1.9-2.98,3.18-4.35c-0.14-0.17-0.29-0.34-0.43-0.5c-1.37,1.45-2.48,2.98-3.37,4.57
				C225.7,453.45,225.9,453.54,226.11,453.64"/>
			<path class="st3" d="M236.93,466.05c0.23-0.74,0.49-1.47,0.78-2.18c-0.09-0.33-0.19-0.66-0.29-0.99
				c-0.32,0.74-0.61,1.49-0.87,2.25C236.68,465.43,236.81,465.74,236.93,466.05"/>
		</g>
		<path class="st4" d="M239.02,473.66c-0.41-2.58-1.1-5.17-2.09-7.62c0.23-0.74,0.49-1.47,0.78-2.18
			C238.58,467.05,238.83,470.36,239.02,473.66 M236.55,465.13c-0.99-2.26-2.24-4.37-3.76-6.23c0.57-0.78,1.19-1.52,1.86-2.22
			c0.11,0.2,0.22,0.39,0.33,0.59c0.96,1.75,1.78,3.57,2.39,5.47c0.02,0.05,0.03,0.09,0.04,0.14
			C237.09,463.61,236.8,464.36,236.55,465.13 M232.36,458.39c-0.1-0.12-0.2-0.23-0.3-0.34c-1.14-1.26-3.47-3.17-5.95-4.4
			c0.85-1.52,1.9-2.98,3.18-4.35c1.12,1.32,2.23,2.64,3.23,4.05c0.07,0.09,0.13,0.18,0.19,0.28c0.56,0.81,1.09,1.63,1.59,2.47
			C233.61,456.82,232.96,457.58,232.36,458.39 M225.49,453.36c-1.23-0.55-2.48-0.9-3.62-0.9c-0.31,0-0.61,0.03-0.9,0.08
			c0.62-4.94,1.48-9.4,1.95-11.7c0.02-0.09,0.04-0.18,0.05-0.26c1.04,1.72,2.14,3.39,3.32,5c0.65,0.89,1.34,1.74,2.04,2.58
			c0.17,0.21,0.35,0.41,0.52,0.62C227.5,450.23,226.39,451.76,225.49,453.36"/>
	</g>
</g>
</svg>
