<?xml version="1.0" encoding="utf-8"?>
<!-- Generator: Adobe Illustrator 26.0.1, SVG Export Plug-In . SVG Version: 6.00 Build 0)  -->
<svg version="1.1" id="Layer_1" xmlns="http://www.w3.org/2000/svg" xmlns:xlink="http://www.w3.org/1999/xlink" x="0px" y="0px"
	 viewBox="0 0 432 648" style="enable-background:new 0 0 432 648;" xml:space="preserve">
<style type="text/css">
	.st0{fill:#FFFFFF;}
	.st1{fill:#E92A2A;}
	.st2{fill:#D52626;}
	.st3{fill:#9A1A1C;}
	.st4{fill:#8D1819;}
</style>
<g id="Front_00000016054267031143977780000009735584957702449037_">
	<g>
		<g>
			<g>
				<g>
					<path class="st0" d="M280.56,259.32v-8.56c0-6.18-3.43-12.78-5.56-16.28c2.11-7.07,2.14-23.98,0.99-31.83
						c-0.7-4.77-4.02-8.66-5.66-11.15c0.03-0.19,0.06-0.38,0.1-0.58c0.9-5.77-3.01-19.91-5.36-25.88c-1.56-3.96-4.82-5.46-7.43-6.67
						c-1.41-0.65-2.64-1.21-3.33-2.02c-1.76-2.06-3.52-2.62-5.07-3.12c-0.41-0.13-0.8-0.26-1.18-0.41c-0.6-0.24-1.12-0.72-1.92-1.44
						c-1.36-1.23-3.41-3.09-7.79-5.64c-2.41-1.4-5.8-3.02-9.38-4.74c-5.88-2.81-12.74-6.06-14.37-8.08
						c-1.49-1.84-1.65-7.66-1.67-9.58c0.71-1.8,0.79-4.65,0.76-6.3c0.3,0.14,0.66,0.21,1.09,0.16c1.46-0.18,2.84-2.46,4.48-5.42
						c0.46-0.83,0.9-1.62,1.23-2.09c1.42-2.03,1.11-6.42,0.07-9.71c-0.3-0.96-0.82-1.51-1.53-1.65c-0.98-0.18-2.05,0.56-2.82,1.27
						c0.15-4.1,0.09-15.64-4.64-21.32c-4.08-4.89-12.23-6.11-15.32-6.4l-1.22,0c-3.09,0.29-11.25,1.51-15.32,6.4
						c-4.73,5.68-4.79,17.22-4.64,21.32c-0.76-0.7-1.84-1.44-2.81-1.27c-0.71,0.13-1.23,0.69-1.53,1.65
						c-1.04,3.29-1.35,7.68,0.07,9.71c0.33,0.48,0.77,1.26,1.23,2.09c1.64,2.96,3.01,5.24,4.48,5.42c0.43,0.05,0.79-0.02,1.09-0.16
						c-0.03,1.82,0.07,5.09,1,6.82c0,0,0,0.01,0.01,0.01c-0.04,1.35-0.33,7.15-1.9,9.1c-1.63,2.02-8.29,5.21-14.17,8.02
						c-3.59,1.72-6.98,3.34-9.38,4.74c-4.38,2.54-6.43,4.4-7.79,5.64c-0.8,0.73-1.33,1.21-1.92,1.44c-0.38,0.15-0.77,0.28-1.18,0.41
						c-1.55,0.5-3.31,1.06-5.07,3.12c-0.69,0.8-1.91,1.37-3.33,2.02c-2.62,1.21-5.87,2.71-7.43,6.67
						c-2.35,5.97-6.27,20.12-5.36,25.88c0.06,0.41,0.13,0.82,0.21,1.22c-1.66,2.48-4.64,6.08-5.33,10.73
						c-1.14,7.8-1.27,24.07,0.8,31.19c-2.1,3.38-5.82,10.26-5.82,16.7v8.56c-0.59,0.96-3.68,6.54-3.02,17.44
						c0.25,4.18,0.72,8.03,1.22,12.1c0.88,7.26,3.84,15.48,3.5,25.2c-0.52,14.81-0.31,28.94,0.27,31.67
						c0.54,2.5,5.16,14.67,5.36,15.19l0.17,0.45l0.47-0.12c0.03-0.01,2.8-0.8,3.04-4.46l1.48,1.69l0.39-0.54
						c0.09-0.12,1.39-1.97,1.76-4.26c0.82-1.39,2.53-4.96,0.55-7.99c-2.26-3.45-5.99-10.57-6.03-10.64l0,0
						c-0.01-0.24-0.03-0.44-0.06-0.59c0.55-4.23,0-5.77,1.58-6.37c0.13-0.05,0.2-0.03,0.28,0.02c1.15,0.74,1.41,2.71,1.69,4.79
						c0.26,1.95,0.54,3.97,1.53,5.54c1.17,1.84,2.96,4.22,5.06,2.48c1.38-1.15,0.17-9.02-0.16-11.35c-0.42-2.91-0.42-3.73-1.57-8.35
						c-0.73-2.94-1.17-4.47-1.37-5.83c-0.1-1.12,0.19-5.79,0.62-9.21c0.49-3.92,2.91-10.33,5.48-17.12
						c2.93-7.75,5.96-15.77,6.15-20.42c0.3-7.21-0.65-10.79-0.99-11.82c0.61-0.73,2.3-2.98,2.76-5.9c0.54-3.39,0.37-9.27,0.35-9.42
						c0.02-0.1,1.8-10.26,4.73-14.92c2.23-3.54,5.51-10.46,6.9-14.09c0.51,3.58,1.07,6.79,1.65,8.51c0.72,2.17,1.65,4.59,2.54,6.92
						c1.27,3.33,2.47,6.47,2.78,8.12c0.44,2.33,0.13,19.45,0.03,25.08c-0.02,1.2-0.04,2-0.04,2.2c0,0.01,0,0.01-0.01,0.02
						c-0.11,0.11-0.19,0.3-0.22,0.5c-0.22,0.41-0.58,0.97-0.91,1.49c-1.77,2.79-4.74,7.46-4.16,12.07c0.64,5.14,1.42,7.28,1.7,7.93
						c-0.58,1.85-4.88,15.91-4.22,26.04c0.23,3.54-1.16,9.05-2.92,16.04c-2.27,9-6.56,29.74-7.51,42.67
						c-1.41,19.13,4.08,41.03,5.59,52.86c0.32,2.53,0.54,4.21,0.57,4.71c0.07,1.25-0.04,2.11-0.18,3.11
						c-0.18,1.36-0.39,2.9-0.18,5.79c0.02,0.29,0.07,0.61,0.14,0.95c-0.74,1.66-7.26,16.62-7.43,26.38
						c-0.08,4.77,1.44,15.35,3.06,26.56c1.46,10.15,2.86,20.63,3.3,27.11l0.01,0.17c0.04,0.54,0.07,1.06,0.09,1.54
						c0.07,3.47-0.26,10.38-0.49,11.06c-0.52,1.59-1,3.09-0.97,5.43c-0.14,0.14-0.28,0.27-0.42,0.39c-1.92,1.64-2.69,3.85-3.45,5.98
						c-0.25,0.7-0.48,1.36-0.75,1.99c-1.03,2.42-10.21,9.98-11.47,10.78c-0.99,0.62-3.49,4.28-3.49,4.28
						c-0.94,1-0.65,2.66-0.46,3.75c0.03,0.19,0.07,0.37,0.09,0.53c0.08,0.58,0.26,0.98,0.4,1.31c0.13,0.28,0.22,0.49,0.22,0.74
						c0.01,0.34-0.05,0.75-0.1,1.14c-0.05,0.35-0.1,0.72-0.11,1.06c-0.01,0.61,0.02,2.08,0.61,2.57c0.34,0.28,0.66,0.48,1.13,0.56
						c-0.05,0.15-0.12,0.35-0.2,0.59c-0.37,1.08,0.45,2.19,1.05,2.63c0.43,0.32,1.11,0.35,1.58,0.32c0,0.09,0.02,0.15,0.03,0.2
						c0.07,0.77,0.33,1.83,1.31,2.29c1,0.47,1.5,0.36,2.09,0.08c1.14,1.58,3.46,2.54,5.55,2.34c0.27-0.03,0.54-0.07,0.8-0.14
						c2.15-0.55,4.85-2.4,5.84-4.89c0.8-1.99,1.97-2.65,3.01-3.1c4.29-1.35,6.63-6.13,7.25-10.56c0.55-3.91,3.06-8.18,3.71-9.05
						c2.99-1.26,4.77-2.84,6.3-5.09c1.61-2.36,1.67-3.87,1.22-5.83c-0.43-1.86-1.59-10.63-2-11.99c-0.35-1.19-0.52-2.41-0.8-3.9
						c-0.87-4.63,4.87-28.5,6.56-33.15c0.65-1.78,1.57-3.73,2.65-5.98c1.82-3.82,4.09-8.57,5.9-14.58
						c2.74-9.1-1.59-29.23-2.11-31.61c1.59-2.79,3.01-5.68,4.23-8.63c0.98-2.36,1.9-4.81,2.37-7.33c0.68-3.72,1.28-10.77,1.96-18.93
						c0.61-7.21,1.29-15.38,2.13-21.9c1.03-8.05,3.17-17.14,4.88-24.44c1.17-5,2.18-9.31,2.51-11.92c0.62-4.86,0.01-9.71-0.34-11.83
						c0.37,0.04,1.49,0.05,1.76,0c-0.34,2.12-0.96,6.97-0.34,11.83c0.33,2.6,1.34,6.92,2.51,11.92c1.71,7.3,3.84,16.39,4.88,24.44
						c0.84,6.52,1.53,14.69,2.13,21.9c0.69,8.16,1.28,15.21,1.96,18.93c0.46,2.52,1.39,4.97,2.37,7.33
						c1.23,2.95,2.64,5.84,4.23,8.63c-0.53,2.38-4.85,22.51-2.11,31.61c1.81,6.01,4.08,10.76,5.9,14.58c1.07,2.25,2,4.2,2.65,5.98
						c1.69,4.65,7.43,28.52,6.56,33.15c-0.28,1.49-0.44,2.7-0.8,3.9c-0.4,1.36-1.57,10.13-2,11.99c-0.45,1.96-0.39,3.46,1.22,5.83
						c1.53,2.25,3.31,3.84,6.3,5.09c0.65,0.87,3.16,5.14,3.71,9.05c0.62,4.44,2.96,9.21,7.25,10.56c1.04,0.45,2.21,1.11,3.01,3.1
						c1,2.48,3.7,4.34,5.84,4.89c0.26,0.07,0.53,0.11,0.8,0.14c2.09,0.2,4.41-0.76,5.55-2.34c0.58,0.28,1.09,0.39,2.09-0.08
						c1.07-0.51,1.28-1.72,1.33-2.49c0.47,0.03,1.16,0,1.59-0.32c0.6-0.44,1.41-1.55,1.05-2.63c-0.08-0.22-0.14-0.41-0.19-0.56l0,0
						c0-0.01-0.01-0.02-0.01-0.04c0.47-0.09,0.79-0.28,1.13-0.56c0.59-0.49,0.63-1.96,0.61-2.57c-0.01-0.34-0.06-0.7-0.11-1.06
						c-0.05-0.39-0.11-0.8-0.1-1.14c0-0.25,0.1-0.46,0.22-0.74c0.14-0.32,0.32-0.72,0.4-1.31c0.02-0.16,0.05-0.34,0.09-0.53
						c0.19-1.09,0.48-2.74-0.46-3.75c0,0-2.5-3.67-3.49-4.28c-1.26-0.79-10.43-8.36-11.47-10.78c-0.27-0.63-0.5-1.29-0.75-1.99
						c-0.75-2.14-1.53-4.34-3.45-5.98c-0.14-0.12-0.28-0.25-0.42-0.39c0.04-2.34-0.45-3.84-0.97-5.43
						c-0.22-0.68-0.56-7.59-0.49-11.06c0.02-0.48,0.05-1,0.09-1.54c0.01-0.06,0.02-0.12,0.03-0.17l-0.02,0
						c0.44-6.48,1.84-16.96,3.3-27.11c1.62-11.21,3.14-21.79,3.06-26.56c-0.17-9.7-6.6-24.52-7.41-26.34
						c0.09-0.41,0.15-0.79,0.17-1.14c0.21-2.89,0-4.43-0.18-5.79c-0.13-1-0.25-1.86-0.18-3.11c0.03-0.51,0.24-2.18,0.57-4.71
						c1.51-11.83,7-33.72,5.59-52.86c-0.95-12.93-5.24-33.67-7.51-42.67c-1.76-6.98-3.15-12.5-2.92-16.04
						c0.66-10.14-3.63-24.19-4.22-26.04c0.28-0.65,1.06-2.79,1.7-7.93c0.57-4.61-2.39-9.28-4.16-12.07
						c-0.52-0.82-1.11-1.75-1.14-2.01c0-0.2-0.01-0.99-0.04-2.2c-0.1-5.63-0.41-22.75,0.03-25.08c0.31-1.64,1.51-4.79,2.78-8.12
						c0.89-2.33,1.81-4.75,2.54-6.92c0.55-1.66,1.08-4.74,1.57-8.18c0-0.01,0-0.01,0-0.02c1.42,3.54,4.62,10.04,6.68,13.69
						c3.63,6.44,4.88,16.93,5.08,24.34c0.08,2.95,2.15,5.17,2.76,5.9c-0.34,1.04-1.29,4.61-0.99,11.82
						c0.19,4.65,3.22,12.67,6.15,20.42c2.57,6.79,4.99,13.2,5.48,17.12c0.35,2.83,0.7,4.66,0.72,6.05c0.02,1.34,0.01,2.68-0.12,4.02
						c-0.12,1.24-0.64,2.7-1.27,5.21c-1.15,4.62-1.15,5.44-1.57,8.35c-0.33,2.33-1.54,10.21-0.16,11.35
						c2.09,1.74,3.89-0.64,5.06-2.48c0.99-1.57,1.27-3.59,1.53-5.54c0.28-2.09,0.55-4.05,1.69-4.79c0.08-0.05,0.15-0.07,0.28-0.02
						c1.58,0.59,1.02,2.13,1.58,6.37c-0.03,0.15-0.05,0.35-0.06,0.59l0,0c-0.04,0.07-3.77,7.19-6.03,10.64
						c-1.99,3.03-0.28,6.6,0.55,7.99c0.37,2.29,1.67,4.14,1.76,4.26l0.39,0.54l1.48-1.69c0.24,3.66,3.01,4.45,3.04,4.46l0.47,0.12
						l0.17-0.45c0.2-0.52,4.82-12.69,5.36-15.19c0.59-2.73,0.8-16.86,0.27-31.67c-0.34-9.71,2.62-17.94,3.5-25.2
						c0.5-4.07,0.96-7.92,1.22-12.1C284.24,265.86,281.15,260.28,280.56,259.32z"/>
				</g>
			</g>
		</g>
	</g>
</g>
<g id="Sternocleids_00000023974072084213464410000011312879415426696110_">
	<g>
		<path class="st1" d="M202.98,158.66c1.21-3.1,2.74-6.85,3.91-9.77c2.28,5.86,8.11,10.25,14.33,11.03
			c-6.09,1.76-13.07,3.07-18.14-0.84L202.98,158.66z"/>
		<path class="st2" d="M211.29,160.15c-2.44-1.61-4.52-3.72-6.12-6.24c0.1-0.25,0.2-0.5,0.3-0.75c1.69,2.79,3.96,5.09,6.67,6.77
			C211.86,160.01,211.57,160.09,211.29,160.15"/>
		<path class="st3" d="M213.64,161.49l-2.44,0.32c-2.89,0-5.29-0.84-7.47-2.37c1.17,0.57,3.04,0.97,4.97,0.97
			c0.87,0,1.75-0.08,2.58-0.26C212.02,160.63,212.85,161.1,213.64,161.49 M214.59,161.25c-0.94-0.4-1.61-0.79-2.46-1.32
			c1-0.32,2.12-1.04,2.81-1.74c1.7,0.87,4.14,1.44,6.14,1.7c-1.79,0.51-4.3,1.27-6.13,1.51L214.59,161.25z"/>
		<path class="st4" d="M213.67,161.51c-0.79-0.39-1.65-0.88-2.38-1.36c0.29-0.06,0.57-0.14,0.85-0.22c0.85,0.53,1.84,1.05,2.78,1.45
			c-0.41,0.05-0.68,0.09-1.1,0.13L213.67,161.51z"/>
		<path class="st1" d="M188.24,158.71c-1.21-3.1-2.69-6.84-3.85-9.75c-2.28,5.86-7.46,10.38-13.68,11.15
			c6.09,1.76,13.22,2.55,17.58-0.98L188.24,158.71z"/>
		<path class="st2" d="M179.85,160.15c2.44-1.61,4.64-3.96,6.24-6.47c-0.1-0.25-0.2-0.5-0.3-0.75c-1.69,2.79-4.08,5.32-6.79,7
			C179.28,160.01,179.57,160.09,179.85,160.15"/>
		<path class="st3" d="M177.4,161.54c0.79-0.39,1.72-0.91,2.45-1.4c0.84,0.18,1.72,0.26,2.58,0.26c1.93,0,4.93-1.04,5.86-1.57
			c-2.81,2.36-5.63,2.95-8.53,2.95C179.77,161.79,178.1,161.6,177.4,161.54z M176.32,161.32c-0.61,0.39-4.14-0.65-5.95-1.18
			c-1.93-0.56,4.34-0.85,6.03-1.72c0.69,0.7,1.6,1.18,2.6,1.5C178.16,160.45,177.26,160.92,176.32,161.32"/>
		<path class="st4" d="M177.52,161.48c0.79-0.39,1.6-0.86,2.34-1.34c-0.29-0.06-0.57-0.13-0.85-0.22c-0.85,0.53-1.8,1.02-2.73,1.42
			C176.69,161.4,177.1,161.44,177.52,161.48"/>
	</g>
	<g id="Sternocleid_00000044899938488804376990000006978057755969951630_">
		<g>
			<path class="st1" d="M207.2,148.58v0.01c2.22,6.53,7.95,10.72,14.91,10.93c2.18-0.7,4.79-1.77,6.53-2.52
				c-1.17-0.22-2.47-0.66-3.62-1.25c-6.95-3.59-8.45-13.92-14.12-18.99c-0.48,2.4-1.07,5.31-1.79,7.04
				C208.67,144.89,207.99,146.58,207.2,148.58"/>
			<path class="st2" d="M228.13,157.36c-1.13-0.22-2.35-0.61-3.45-1.18c0.06,0.02,0.13,0.03,0.2,0.05c0.57,0.28,1.14,0.51,1.72,0.69
				c0.5,0.16,1.1,0.31,1.6,0.41c-0.02,0.01-0.03,0.02-0.05,0.03L228.13,157.36z M222.3,156.23c-6.3-1.89-11.19-4.83-14.66-8.73
				c0.09-0.23,0.18-0.46,0.27-0.68c3.49,4.03,8.5,7.03,15.05,8.92c-0.19,0.19-0.32,0.3-0.57,0.44L222.3,156.23z"/>
			<path class="st2" d="M221.15,152.93c-4.84-0.9-9.55-3.48-12.79-7.23c0.1-0.24,0.19-0.46,0.27-0.68c3.01,3.58,7.4,6.11,11.9,7.12
				c0.2,0.27,0.38,0.47,0.59,0.73L221.15,152.93z"/>
			<path class="st2" d="M217.56,147.34c-2.77-0.94-5.77-2.4-8.27-4.06c0.08-0.2,0.15-0.42,0.23-0.64c2.31,1.55,5.09,2.93,7.62,3.85
				C217.27,146.77,217.56,147.34,217.56,147.34z"/>
			<path class="st3" d="M221.98,159.75c-5.35-0.16-9.75-2.81-12.61-6.93c2.03,1.87,4.81,3.56,7.62,4.05
				c0.43,0.07,0.99,0.12,1.62,0.12c1.23,0,2.68-0.19,3.7-0.77c1.69,0.51,3.48,0.94,5.39,1.31c-1.64,0.7-3.26,1.52-5.25,2.16
				L221.98,159.75z M226.23,156.48c-0.6-0.15-2.69-0.57-3.27-0.74c0.13-0.13,0.41-0.51,0.5-0.67
				C223.91,155.4,226.23,156.48,226.23,156.48z"/>
			<path class="st4" d="M227.88,157.54c0.13-0.06,1.27-0.74,1.4-0.8c-1.13-0.22-1.3,0.3-1.72,0.08c-0.55-0.29-4.03-0.93-4.61-1.09
				c-0.19,0.19-0.41,0.35-0.65,0.49c1.69,0.51,3.62,0.98,5.53,1.35L227.88,157.54z"/>
		</g>
		<g>
			<path class="st1" d="M184.14,148.22c-0.79-2-1.41-3.56-1.86-4.64c-0.72-1.73-1.31-4.23-1.8-6.64
				c-5.67,5.08-7.25,15.58-14.2,19.17c-1.15,0.59-2.3,0.98-3.48,1.21c1.74,0.75,4.07,1.89,6.25,2.59
				c6.97-0.21,12.94-4.87,15.17-11.4L184.14,148.22z"/>
			<path class="st2" d="M170.42,152.83c4.84-0.9,9.29-3.51,12.53-7.26c-0.1-0.24-0.19-0.46-0.27-0.68
				c-3.01,3.58-7.14,6.15-11.64,7.15C170.84,152.31,170.63,152.58,170.42,152.83"/>
			<path class="st2" d="M173.85,147.26c2.77-0.94,5.65-2.44,8.15-4.11c-0.08-0.2-0.15-0.42-0.23-0.64c-2.31,1.55-4.97,2.97-7.5,3.9
				C174.13,146.69,173.99,146.98,173.85,147.26"/>
			<path class="st3" d="M168.41,159.68c-1.98-0.65-3.33-1.46-4.97-2.16c1.91-0.37,3.7-0.81,5.39-1.31c1.01,0.58,2.46,0.77,3.7,0.77
				c0.62,0,1.19-0.05,1.62-0.12c2.81-0.49,5.89-2.48,7.93-4.31c-1.96,3.63-7.48,7.13-12.83,7.29L168.41,159.68z M166.4,156.2
				c0,0,0.01,0,0.01-0.01c0.51-0.26,0.98-0.57,1.43-0.9c0.09,0.16,0.2,0.3,0.33,0.43C167.6,155.89,167,156.05,166.4,156.2"/>
			<path class="st4" d="M163.42,157.53c-0.13-0.06-0.25-0.14-0.38-0.19c1.13-0.22,2.27-0.58,3.37-1.14c0.6-0.15,1.18-0.31,1.76-0.48
				c0.19,0.19,0.41,0.35,0.66,0.49c-1.69,0.51-3.41,0.93-5.32,1.3L163.42,157.53z"/>
		</g>
	</g>
</g>
</svg>
