<?xml version="1.0" encoding="utf-8"?>
<!-- Generator: Adobe Illustrator 26.0.1, SVG Export Plug-In . SVG Version: 6.00 Build 0)  -->
<svg version="1.1" id="Layer_1" xmlns="http://www.w3.org/2000/svg" xmlns:xlink="http://www.w3.org/1999/xlink" x="0px" y="0px"
	 viewBox="0 0 432 648" style="enable-background:new 0 0 432 648;" xml:space="preserve">
<style type="text/css">
	.st0{fill:#FFFFFF;}
	.st1{fill:#E92A2A;}
	.st2{fill:#D52626;}
	.st3{fill:#9A1A1C;}
	.st4{fill:#8D1819;}
</style>
<g id="Front_00000016035677790316943190000013756909983270578833_">
	<g>
		<g>
			<g>
				<g>
					<path class="st0" d="M280.56,259.31v-8.56c0-6.18-3.43-12.78-5.56-16.28c2.11-7.07,2.14-23.98,0.99-31.83
						c-0.7-4.77-4.02-8.66-5.66-11.15c0.03-0.19,0.06-0.38,0.1-0.58c0.9-5.77-3.01-19.91-5.36-25.88c-1.56-3.96-4.82-5.46-7.43-6.67
						c-1.41-0.65-2.64-1.21-3.33-2.02c-1.76-2.06-3.52-2.62-5.07-3.12c-0.41-0.13-0.8-0.26-1.18-0.41c-0.6-0.24-1.12-0.72-1.92-1.44
						c-1.36-1.23-3.41-3.09-7.79-5.64c-2.41-1.4-5.8-3.02-9.38-4.74c-5.88-2.81-12.74-6.06-14.37-8.08
						c-1.49-1.84-1.65-7.66-1.67-9.58c0.71-1.8,0.79-4.65,0.76-6.3c0.3,0.14,0.66,0.21,1.09,0.16c1.46-0.18,2.84-2.46,4.48-5.42
						c0.46-0.83,0.9-1.62,1.23-2.09c1.42-2.03,1.11-6.42,0.07-9.71c-0.3-0.96-0.82-1.51-1.53-1.65c-0.98-0.18-2.05,0.56-2.82,1.27
						c0.15-4.1,0.09-15.64-4.64-21.32c-4.08-4.89-12.23-6.11-15.32-6.4l-1.22,0c-3.09,0.29-11.25,1.51-15.32,6.4
						c-4.74,5.68-4.79,17.22-4.64,21.32c-0.76-0.7-1.84-1.44-2.81-1.27c-0.71,0.13-1.23,0.69-1.53,1.65
						c-1.04,3.29-1.35,7.68,0.07,9.71c0.33,0.48,0.77,1.26,1.23,2.09c1.64,2.96,3.01,5.24,4.48,5.42c0.43,0.05,0.79-0.02,1.09-0.16
						c-0.03,1.82,0.07,5.09,1,6.82c0,0,0,0.01,0.01,0.01c-0.04,1.35-0.33,7.15-1.9,9.1c-1.63,2.02-8.29,5.21-14.17,8.02
						c-3.59,1.72-6.98,3.34-9.38,4.74c-4.38,2.54-6.43,4.4-7.79,5.64c-0.8,0.73-1.33,1.21-1.92,1.44c-0.38,0.15-0.77,0.28-1.18,0.41
						c-1.55,0.5-3.31,1.06-5.07,3.12c-0.69,0.8-1.91,1.37-3.33,2.02c-2.62,1.21-5.87,2.71-7.43,6.67
						c-2.35,5.97-6.27,20.12-5.36,25.88c0.06,0.41,0.13,0.82,0.21,1.22c-1.66,2.48-4.64,6.08-5.33,10.73
						c-1.14,7.8-1.27,24.07,0.8,31.19c-2.1,3.38-5.82,10.26-5.82,16.7v8.56c-0.59,0.96-3.68,6.54-3.02,17.44
						c0.25,4.18,0.72,8.03,1.22,12.1c0.88,7.26,3.84,15.48,3.5,25.2c-0.52,14.81-0.31,28.94,0.27,31.67
						c0.54,2.5,5.16,14.67,5.36,15.19l0.17,0.45l0.47-0.12c0.03-0.01,2.8-0.8,3.04-4.46l1.48,1.69l0.39-0.54
						c0.09-0.12,1.39-1.97,1.76-4.26c0.82-1.39,2.53-4.96,0.55-7.99c-2.26-3.45-5.99-10.57-6.03-10.64l0,0
						c-0.01-0.24-0.03-0.44-0.06-0.59c0.55-4.23,0-5.77,1.58-6.37c0.13-0.05,0.2-0.03,0.28,0.02c1.15,0.74,1.41,2.71,1.69,4.79
						c0.26,1.95,0.54,3.97,1.53,5.54c1.17,1.84,2.96,4.22,5.06,2.48c1.38-1.15,0.17-9.02-0.16-11.35c-0.42-2.91-0.42-3.73-1.57-8.35
						c-0.73-2.94-1.17-4.47-1.37-5.83c-0.1-1.12,0.19-5.79,0.62-9.21c0.49-3.92,2.91-10.33,5.48-17.12
						c2.93-7.75,5.96-15.77,6.15-20.42c0.3-7.21-0.65-10.79-0.99-11.82c0.61-0.73,2.3-2.98,2.76-5.9c0.54-3.39,0.37-9.27,0.35-9.42
						c0.02-0.1,1.8-10.26,4.73-14.92c2.23-3.54,5.51-10.46,6.9-14.09c0.51,3.58,1.07,6.79,1.65,8.51c0.72,2.17,1.65,4.59,2.54,6.92
						c1.27,3.33,2.47,6.47,2.78,8.12c0.44,2.33,0.13,19.45,0.03,25.08c-0.02,1.2-0.04,2-0.04,2.2c0,0.01,0,0.01-0.01,0.02
						c-0.11,0.11-0.19,0.3-0.22,0.5c-0.22,0.41-0.58,0.97-0.91,1.49c-1.77,2.79-4.74,7.46-4.16,12.07c0.64,5.14,1.42,7.28,1.7,7.93
						c-0.58,1.85-4.88,15.91-4.22,26.05c0.23,3.54-1.16,9.05-2.92,16.04c-2.27,9-6.56,29.74-7.51,42.67
						c-1.41,19.13,4.08,41.03,5.59,52.86c0.32,2.53,0.54,4.21,0.57,4.71c0.07,1.25-0.04,2.11-0.18,3.11
						c-0.18,1.36-0.39,2.9-0.18,5.79c0.02,0.29,0.07,0.61,0.14,0.95c-0.74,1.66-7.26,16.62-7.43,26.38
						c-0.08,4.77,1.44,15.35,3.06,26.56c1.46,10.15,2.86,20.63,3.3,27.11l0.01,0.17c0.04,0.54,0.07,1.06,0.09,1.54
						c0.07,3.47-0.26,10.38-0.49,11.06c-0.52,1.59-1,3.09-0.97,5.43c-0.14,0.14-0.28,0.27-0.42,0.39c-1.92,1.64-2.69,3.85-3.45,5.98
						c-0.25,0.7-0.48,1.36-0.75,1.99c-1.03,2.42-10.21,9.98-11.47,10.78c-0.99,0.62-3.49,4.28-3.49,4.28
						c-0.94,1-0.65,2.66-0.46,3.75c0.03,0.19,0.07,0.37,0.09,0.53c0.08,0.58,0.26,0.98,0.4,1.31c0.13,0.28,0.22,0.49,0.22,0.74
						c0.01,0.34-0.05,0.75-0.1,1.14c-0.05,0.35-0.1,0.72-0.11,1.06c-0.01,0.61,0.02,2.08,0.61,2.57c0.34,0.28,0.66,0.48,1.13,0.56
						c-0.05,0.15-0.12,0.35-0.2,0.59c-0.37,1.08,0.45,2.19,1.05,2.63c0.43,0.32,1.11,0.35,1.58,0.32c0,0.09,0.02,0.15,0.03,0.2
						c0.07,0.77,0.33,1.83,1.31,2.29c1,0.47,1.5,0.36,2.09,0.08c1.14,1.58,3.46,2.54,5.55,2.34c0.27-0.03,0.54-0.07,0.8-0.14
						c2.15-0.55,4.85-2.4,5.84-4.89c0.8-1.99,1.97-2.65,3.01-3.1c4.29-1.35,6.63-6.13,7.25-10.56c0.55-3.91,3.06-8.18,3.71-9.05
						c2.99-1.26,4.77-2.84,6.3-5.09c1.61-2.36,1.67-3.87,1.22-5.83c-0.43-1.86-1.59-10.63-2-11.99c-0.35-1.19-0.52-2.41-0.8-3.9
						c-0.87-4.63,4.87-28.5,6.56-33.15c0.65-1.78,1.57-3.73,2.65-5.98c1.82-3.82,4.09-8.57,5.9-14.58
						c2.74-9.1-1.59-29.23-2.11-31.61c1.59-2.79,3.01-5.68,4.23-8.63c0.98-2.36,1.9-4.81,2.37-7.33c0.68-3.72,1.28-10.77,1.96-18.93
						c0.61-7.21,1.29-15.38,2.13-21.9c1.03-8.05,3.17-17.14,4.88-24.44c1.17-5,2.18-9.31,2.51-11.92c0.62-4.86,0.01-9.71-0.34-11.83
						c0.37,0.04,1.49,0.05,1.76,0c-0.34,2.12-0.96,6.97-0.34,11.83c0.33,2.6,1.34,6.92,2.51,11.92c1.71,7.3,3.84,16.39,4.88,24.44
						c0.84,6.52,1.53,14.69,2.13,21.9c0.69,8.16,1.28,15.21,1.96,18.93c0.46,2.52,1.39,4.97,2.37,7.33
						c1.23,2.95,2.64,5.84,4.23,8.63c-0.53,2.38-4.85,22.51-2.11,31.61c1.81,6.01,4.08,10.76,5.9,14.58c1.07,2.25,2,4.2,2.65,5.98
						c1.69,4.65,7.43,28.52,6.56,33.15c-0.28,1.49-0.44,2.7-0.8,3.9c-0.4,1.36-1.57,10.13-2,11.99c-0.45,1.96-0.39,3.46,1.22,5.83
						c1.53,2.25,3.31,3.84,6.3,5.09c0.65,0.87,3.16,5.14,3.71,9.05c0.62,4.44,2.96,9.21,7.25,10.56c1.04,0.45,2.21,1.11,3.01,3.1
						c1,2.48,3.7,4.34,5.84,4.89c0.26,0.07,0.53,0.11,0.8,0.14c2.09,0.2,4.41-0.76,5.55-2.34c0.58,0.28,1.09,0.39,2.09-0.08
						c1.07-0.51,1.28-1.72,1.33-2.49c0.47,0.03,1.16,0,1.59-0.32c0.6-0.44,1.41-1.55,1.05-2.63c-0.08-0.22-0.14-0.41-0.19-0.56l0,0
						c0-0.01-0.01-0.02-0.01-0.04c0.47-0.09,0.79-0.28,1.13-0.56c0.59-0.49,0.63-1.96,0.61-2.57c-0.01-0.34-0.06-0.7-0.11-1.06
						c-0.05-0.39-0.11-0.8-0.1-1.14c0-0.25,0.1-0.46,0.22-0.74c0.14-0.32,0.32-0.72,0.4-1.31c0.02-0.16,0.05-0.34,0.09-0.53
						c0.19-1.09,0.48-2.74-0.46-3.75c0,0-2.5-3.67-3.49-4.28c-1.26-0.79-10.43-8.36-11.47-10.78c-0.27-0.63-0.5-1.29-0.75-1.99
						c-0.75-2.14-1.53-4.34-3.45-5.98c-0.14-0.12-0.28-0.25-0.42-0.39c0.04-2.34-0.45-3.84-0.97-5.43
						c-0.22-0.68-0.56-7.59-0.49-11.06c0.02-0.48,0.05-1,0.09-1.54c0.01-0.06,0.02-0.12,0.03-0.17l-0.02,0
						c0.44-6.48,1.84-16.96,3.3-27.11c1.62-11.21,3.14-21.79,3.06-26.56c-0.17-9.7-6.6-24.52-7.41-26.34
						c0.09-0.41,0.15-0.79,0.17-1.14c0.21-2.89,0-4.43-0.18-5.79c-0.13-1-0.25-1.86-0.18-3.11c0.03-0.51,0.24-2.18,0.57-4.71
						c1.51-11.83,7-33.72,5.59-52.86c-0.95-12.93-5.24-33.67-7.51-42.67c-1.76-6.98-3.15-12.5-2.92-16.04
						c0.66-10.14-3.63-24.19-4.22-26.05c0.28-0.65,1.06-2.79,1.7-7.93c0.57-4.61-2.39-9.28-4.16-12.07
						c-0.52-0.82-1.11-1.75-1.14-2.01c0-0.2-0.01-0.99-0.04-2.2c-0.1-5.63-0.41-22.75,0.03-25.08c0.31-1.64,1.51-4.79,2.78-8.12
						c0.89-2.33,1.81-4.75,2.54-6.92c0.55-1.66,1.08-4.74,1.57-8.19c0-0.01,0-0.01,0-0.02c1.42,3.54,4.62,10.04,6.68,13.69
						c3.63,6.44,4.88,16.93,5.08,24.34c0.08,2.95,2.15,5.17,2.76,5.9c-0.34,1.04-1.29,4.61-0.99,11.82
						c0.19,4.65,3.22,12.67,6.15,20.42c2.57,6.79,4.99,13.2,5.48,17.12c0.35,2.83,0.7,4.66,0.72,6.05c0.02,1.34,0.01,2.68-0.12,4.02
						c-0.12,1.24-0.64,2.7-1.27,5.21c-1.15,4.62-1.15,5.44-1.57,8.35c-0.33,2.33-1.54,10.21-0.16,11.35
						c2.09,1.74,3.89-0.64,5.06-2.48c0.99-1.57,1.27-3.59,1.53-5.54c0.28-2.09,0.55-4.05,1.69-4.79c0.08-0.05,0.15-0.07,0.28-0.02
						c1.58,0.59,1.02,2.13,1.58,6.37c-0.03,0.15-0.05,0.35-0.06,0.59l0,0c-0.04,0.07-3.77,7.19-6.03,10.64
						c-1.99,3.03-0.28,6.6,0.55,7.99c0.37,2.29,1.67,4.14,1.76,4.26l0.39,0.54l1.48-1.69c0.24,3.66,3.01,4.45,3.04,4.46l0.47,0.12
						l0.17-0.45c0.2-0.52,4.82-12.69,5.36-15.19c0.59-2.73,0.8-16.86,0.27-31.67c-0.34-9.71,2.62-17.94,3.5-25.2
						c0.5-4.07,0.96-7.92,1.22-12.1C284.24,265.86,281.15,260.27,280.56,259.31z"/>
				</g>
			</g>
		</g>
	</g>
</g>
<g id="Pecs_00000159460920585766363290000011374295282427594661_">
	<g>
		<g>
			<path class="st1" d="M197.51,185.89c0.57,5.65,1.3,12.33,5.48,16.52c5.4,5.4,17.35,8.66,24.45,5.61
				c7.75-3.33,14.08-12.68,18.35-19.67c-0.63-4.33-1.71-7.86-4.19-10.91c-0.77-0.75-4.12-5.12-4.12-5.12
				c-5.74-5.23-6.64-9.52-18.37-9.62c-12.65-0.1-17.17,1.83-21.51,8.54C195.4,174.66,197.14,182.15,197.51,185.89"/>
			<path class="st2" d="M206.86,199.93c-0.29-0.2-0.56-0.41-0.83-0.64c11.61-0.18,22.96-2.91,33.24-7.96
				c-0.27,0.39-0.56,0.77-0.85,1.14C228.59,197.1,217.85,199.65,206.86,199.93 M209.14,193.94c-2.28,0-4.56-0.07-6.82-0.22
				c-0.08-0.22-0.16-0.45-0.23-0.67c2.33,0.16,4.68,0.24,7.03,0.24c10.22,0,20.88-1.53,31.73-4.52c-0.15,0.28-0.3,0.55-0.46,0.82
				C229.7,192.47,219.21,193.94,209.14,193.94 M241.35,187.79c-7.92-1.3-15.93-1.96-23.88-1.96c-5.56,0-11.18,0.32-16.76,0.96
				c-0.03-0.22-0.06-0.43-0.1-0.65c5.61-0.64,11.26-0.96,16.85-0.96c8.05,0,16.16,0.67,24.17,2
				C241.54,187.38,241.45,187.58,241.35,187.79 M241.78,186.85c-11.43-4.61-23.07-6.95-34.66-6.95c-2.35,0-4.7,0.1-7.05,0.29
				c-0.01-0.22-0.02-0.44-0.02-0.66c2.36-0.19,4.73-0.29,7.09-0.29c11.65,0,23.37,2.36,34.89,7
				C241.95,186.45,241.86,186.65,241.78,186.85 M242.32,185.48c-10.35-8.57-23.48-13.25-37.46-13.25c-1.53,0-3.07,0.06-4.61,0.17
				c0.02-0.22,0.04-0.44,0.06-0.66c1.53-0.11,3.06-0.17,4.57-0.17c14.04,0,27.23,4.67,37.67,13.24
				C242.47,185.04,242.4,185.26,242.32,185.48 M242.73,184.25c-9.06-10.86-23.63-17.92-37.69-17.92c-0.72,0-2.71,0.04-3.43,0.07
				c0.45-0.26,0.92-0.5,1.39-0.7c0.26,0,1.8-0.02,2.06-0.02c14.09,0,28.69,6.99,37.9,17.79
				C242.88,183.72,242.8,183.99,242.73,184.25"/>
			<path class="st3" d="M220.99,209.2c-3.74,0-7.81-0.93-11.35-2.47c13.57-0.26,24.18-7.99,35.53-17.38
				c-0.84,1.37-1.75,2.8-2.73,4.24c0,0-2.3,3.26-3.32,4.56c-3.33,4.19-7.23,7.98-11.67,9.88
				C225.56,208.83,223.34,209.2,220.99,209.2 M208.33,206.12c-2.09-1.04-3.94-2.3-5.35-3.71c-0.77-0.77-1.43-1.63-1.98-2.55
				c1.27,0.06,2.56,0.09,3.83,0.09c0.68,0,1.35-0.01,2.02-0.03c2.81,1.98,6.45,2.79,10.02,2.79c0.82,0,1.64-0.04,2.44-0.12
				c5.76-0.58,11.38-2.85,15.76-6.64c1.22-1.05,2.33-2.22,3.33-3.48c1.75-0.82,3.47-1.71,5.15-2.66
				c-11.01,9.03-21.42,16.27-34.65,16.27h0c-0.14,0-0.28,0-0.42,0C208.44,206.08,208.38,206.1,208.33,206.12 M204.82,199.3
				c-1.4,0-2.81-0.04-4.2-0.11c-0.96-1.78-1.59-3.75-2.04-5.79c1.24,0.13,2.49,0.23,3.74,0.32c0.51,1.41,1.18,2.75,2.11,3.93
				c0.48,0.61,1.02,1.16,1.6,1.65C205.63,199.29,205.23,199.3,204.82,199.3 M202.09,193.04c-1.23-0.08-2.45-0.19-3.65-0.32
				c-0.37-1.86-0.6-3.75-0.8-5.56c1.02-0.14,2.05-0.27,3.07-0.38c0.14,0.94,0.31,1.87,0.5,2.81
				C201.45,190.74,201.72,191.91,202.09,193.04 M239.27,191.33c0.4-0.57,0.78-1.15,1.13-1.75c1.41-0.38,2.82-0.79,4.24-1.22
				l0.08,0.01C242.94,189.44,241.12,190.42,239.27,191.33 M240.85,188.76c0.17-0.32,0.34-0.65,0.5-0.98c0.61,0.1,1.22,0.2,1.84,0.31
				C242.41,188.33,241.63,188.55,240.85,188.76 M243.2,187.43c-0.52-0.09-1.04-0.18-1.56-0.27c0.05-0.11,0.09-0.21,0.14-0.32
				C242.25,187.04,242.73,187.24,243.2,187.43 M244.29,187.19c-0.76-0.32-1.51-0.64-2.27-0.94c0.1-0.25,0.2-0.51,0.29-0.77
				C242.99,186.04,243.65,186.61,244.29,187.19 M197.57,186.51c-0.01-0.11-0.02-0.22-0.03-0.32c-0.01-0.1-0.02-0.2-0.03-0.3
				c0-0.04-0.01-0.08-0.01-0.12c-0.14-1.39-0.43-3.26-0.63-5.24c1.06-0.13,2.13-0.24,3.21-0.33c0.08,1.99,0.26,3.97,0.54,5.94
				C199.6,186.25,198.58,186.38,197.57,186.51 M244.45,186.44c-0.62-0.56-1.26-1.1-1.9-1.63c0.06-0.19,0.12-0.38,0.18-0.57
				C243.32,184.96,243.9,185.7,244.45,186.44 M244.89,185.9c-0.67-0.92-1.2-1.57-1.94-2.43c0.16-0.6,0.38-1.66,0.49-2.27
				c0.68,1.34,1.4,2.91,1.81,4.44c0.02,0.07,0.25,1.03,0.27,1.09 M196.8,179.88c-0.09-1.05-0.13-2.11-0.15-3.14
				c-0.01-0.58-0.14-1.56-0.08-2.09c0.08-0.69,0.21-1.32,0.4-1.92c1.02-0.12,2.25-0.25,3.27-0.32c-0.21,2.37-0.27,4.76-0.2,7.14
				C198.96,179.63,197.88,179.74,196.8,179.88 M197.29,171.5c0.11-0.25,0.14-0.27,0.28-0.49c0.89-1.38,2.1-2.75,3.19-3.69
				c-0.21,1.29-0.32,3.12-0.44,4.42c-0.96,0.07-2.35,0.21-3.3,0.32L197.29,171.5z"/>
			<path class="st4" d="M209.63,206.73c-0.14-0.06-0.29-0.13-0.43-0.19c-0.29-0.13-0.58-0.27-0.87-0.41
				c0.05-0.03,0.1-0.04,0.16-0.04c0.14,0,0.28,0,0.42,0h0c13.23,0,23.63-7.24,34.65-16.27c-1.69,0.95-3.4,1.84-5.15,2.66
				c0.3-0.37,0.58-0.76,0.85-1.14c1.85-0.91,3.67-1.9,5.45-2.95l-0.08-0.01c-1.42,0.43-2.83,0.84-4.24,1.22
				c0.16-0.27,0.31-0.54,0.46-0.82c0.78-0.21,1.55-0.44,2.33-0.66c-0.61-0.11-1.22-0.21-1.84-0.31c0.1-0.2,0.19-0.41,0.29-0.62
				c0.52,0.09,1.04,0.18,1.56,0.27c-0.47-0.2-0.95-0.39-1.42-0.58c0.09-0.2,0.17-0.4,0.25-0.6c0.76,0.31,1.51,0.62,2.27,0.94
				c-0.65-0.59-1.3-1.16-1.97-1.71c0.08-0.22,0.16-0.44,0.23-0.67c0.64,0.53,1.28,1.07,1.9,1.63c-0.55-0.75-1.12-1.48-1.72-2.2
				c0.08-0.26,0.15-0.52,0.22-0.78c0.74,0.87,2.04,2.53,2.7,3.45c0.1,0.38,0.11,1.34-0.08,1.77c-0.13,0.29-0.27,0.44-0.41,0.66
				C233.81,198.74,223.21,206.46,209.63,206.73 M204.83,199.95c-1.27,0-2.56-0.03-3.83-0.09c-0.13-0.22-0.26-0.45-0.39-0.68
				c1.39,0.07,2.81,0.11,4.2,0.11c0.4,0,0.8,0,1.21-0.01c0.27,0.22,0.54,0.44,0.83,0.64C206.18,199.95,205.51,199.95,204.83,199.95
				 M202.32,193.71c-1.26-0.08-2.5-0.19-3.74-0.32c-0.05-0.22-0.1-0.45-0.14-0.67c1.21,0.13,2.43,0.23,3.65,0.32
				C202.16,193.27,202.24,193.49,202.32,193.71 M197.64,187.16c-0.02-0.22-0.05-0.43-0.07-0.65c1.01-0.14,2.03-0.26,3.04-0.38
				c0.03,0.21,0.06,0.43,0.1,0.65C199.69,186.9,198.66,187.02,197.64,187.16 M196.86,180.52c-0.02-0.22-0.04-0.43-0.06-0.65
				c1.08-0.13,2.16-0.24,3.25-0.33c0.01,0.22,0.01,0.44,0.02,0.66C199,180.29,197.93,180.4,196.86,180.52 M197.02,172.72
				c0.08-0.24,0.17-0.49,0.26-0.7c0.95-0.11,2.07-0.2,3.02-0.27c-0.02,0.22-0.04,0.44-0.06,0.66c-1.02,0.07-2.04,0.18-3.06,0.3"/>
		</g>
	</g>
	<g>
		<g>
			<path class="st1" d="M193.69,185.39c-0.57,5.65-1.3,12.33-5.48,16.52c-5.4,5.4-17.35,8.66-24.45,5.61
				c-7.75-3.33-14.08-12.68-18.35-19.67c0.63-4.33,1.71-7.86,4.19-10.91c0.77-0.75,4.12-5.12,4.12-5.12
				c5.74-5.23,6.64-9.52,18.37-9.62c12.65-0.1,17.17,1.83,21.51,8.54C195.8,174.16,194.06,181.66,193.69,185.39"/>
			<path class="st2" d="M184.35,199.43c-10.99-0.28-21.73-2.83-31.56-7.45c-0.3-0.37-0.58-0.76-0.85-1.14
				c10.28,5.05,21.63,7.78,33.24,7.96C184.91,199.01,184.63,199.23,184.35,199.43 M182.06,193.44c-10.06,0-20.56-1.47-31.25-4.36
				c-0.16-0.27-0.31-0.54-0.46-0.82c10.86,2.99,21.52,4.52,31.73,4.52c2.35,0,4.7-0.08,7.03-0.24c-0.07,0.23-0.15,0.45-0.23,0.67
				C186.62,193.36,184.34,193.44,182.06,193.44 M149.85,187.29c-0.1-0.2-0.19-0.41-0.29-0.62c8.01-1.32,16.11-2,24.17-2
				c5.59,0,11.25,0.32,16.85,0.96c-0.03,0.21-0.06,0.43-0.1,0.65c-5.58-0.64-11.2-0.96-16.76-0.96
				C165.78,185.32,157.77,185.99,149.85,187.29 M149.43,186.35c-0.09-0.2-0.17-0.4-0.25-0.6c11.52-4.64,23.24-7,34.89-7
				c2.36,0,4.74,0.1,7.09,0.29c-0.01,0.22-0.01,0.44-0.02,0.66c-2.34-0.19-4.7-0.29-7.05-0.29
				C172.5,179.4,160.86,181.74,149.43,186.35 M148.88,184.98c-0.08-0.22-0.16-0.44-0.23-0.67c10.43-8.56,23.63-13.24,37.67-13.24
				c1.52,0,3.05,0.06,4.57,0.17c0.02,0.22,0.04,0.44,0.06,0.66c-1.54-0.11-3.08-0.17-4.61-0.17
				C172.36,171.73,159.23,176.41,148.88,184.98 M148.48,183.75c-0.08-0.26-0.15-0.52-0.22-0.78c9.21-10.8,23.81-17.79,37.9-17.79
				c0.26,0,1.8,0.02,2.06,0.02c0.48,0.21,0.94,0.44,1.39,0.7c-0.72-0.04-2.72-0.07-3.43-0.07
				C172.1,165.82,157.54,172.88,148.48,183.75"/>
			<path class="st3" d="M170.22,208.7c-2.35,0-4.57-0.37-6.45-1.17c-4.44-1.91-8.34-5.69-11.67-9.88c-1.03-1.29-3.32-4.56-3.32-4.56
				c-0.98-1.44-1.89-2.87-2.73-4.24c11.36,9.4,21.96,17.12,35.53,17.38C178.03,207.77,173.96,208.7,170.22,208.7 M182.87,205.62
				c-0.05-0.03-0.1-0.04-0.16-0.04c-0.14,0-0.28,0-0.42,0h0c-13.23,0-23.63-7.24-34.65-16.27c1.69,0.95,3.4,1.84,5.15,2.66
				c1,1.26,2.11,2.43,3.33,3.48c4.38,3.78,10,6.05,15.76,6.64c0.8,0.08,1.62,0.12,2.44,0.12c3.58,0,7.21-0.81,10.02-2.79
				c0.67,0.02,1.35,0.03,2.02,0.03c1.27,0,2.56-0.03,3.83-0.09c-0.56,0.92-1.21,1.78-1.98,2.55
				C186.81,203.32,184.96,204.58,182.87,205.62 M186.38,198.8c-0.4,0-0.8,0-1.21-0.01c0.58-0.49,1.12-1.04,1.6-1.65
				c0.93-1.18,1.6-2.52,2.11-3.93c1.26-0.08,2.5-0.19,3.74-0.32c-0.45,2.03-1.08,4.01-2.04,5.79
				C189.19,198.76,187.78,198.8,186.38,198.8 M189.11,192.54c0.37-1.13,0.64-2.3,0.88-3.46c0.19-0.93,0.36-1.87,0.5-2.81
				c1.03,0.12,2.05,0.24,3.07,0.38c-0.19,1.81-0.42,3.71-0.8,5.56C191.56,192.35,190.34,192.46,189.11,192.54 M151.94,190.83
				c-1.85-0.91-3.67-1.9-5.45-2.95l0.08-0.01c1.42,0.43,2.83,0.84,4.24,1.22C151.16,189.68,151.54,190.26,151.94,190.83
				 M150.35,188.26c-0.78-0.21-1.55-0.44-2.33-0.66c0.61-0.11,1.22-0.21,1.84-0.31C150.01,187.61,150.18,187.94,150.35,188.26
				 M148,186.93c0.47-0.2,0.95-0.39,1.42-0.58c0.05,0.11,0.09,0.21,0.14,0.32C149.05,186.75,148.52,186.84,148,186.93
				 M146.91,186.69c0.65-0.59,1.3-1.16,1.97-1.71c0.09,0.26,0.19,0.51,0.29,0.77C148.42,186.05,147.66,186.37,146.91,186.69
				 M193.63,186.01c-1.01-0.14-2.03-0.26-3.04-0.38c0.28-1.97,0.46-3.95,0.54-5.94c1.07,0.09,2.14,0.2,3.21,0.33
				c-0.2,1.98-0.49,3.85-0.63,5.24c0,0.04-0.01,0.08-0.01,0.12c-0.01,0.1-0.02,0.2-0.03,0.3
				C193.65,185.8,193.64,185.9,193.63,186.01 M146.76,185.95c0.55-0.75,1.12-1.48,1.72-2.2c0.06,0.19,0.12,0.38,0.18,0.57
				C148.01,184.84,147.38,185.39,146.76,185.95 M145.69,186.22c0.02-0.07,0.25-1.03,0.27-1.09c0.42-1.53,1.13-3.09,1.81-4.44
				c0.11,0.61,0.33,1.67,0.49,2.27c-0.74,0.87-1.27,1.52-1.94,2.43 M194.4,179.38c-1.08-0.13-2.16-0.24-3.25-0.33
				c0.07-2.38,0.01-4.77-0.2-7.14c1.02,0.07,2.25,0.2,3.27,0.32c0.19,0.59,0.32,1.23,0.4,1.92c0.06,0.53-0.07,1.51-0.08,2.09
				C194.54,177.26,194.49,178.33,194.4,179.38 M194.19,171.56c-0.95-0.11-2.34-0.25-3.3-0.32c-0.13-1.3-0.23-3.13-0.44-4.42
				c1.09,0.94,2.29,2.3,3.19,3.69c0.14,0.22,0.17,0.24,0.28,0.49L194.19,171.56z"/>
			<path class="st4" d="M181.57,206.23c-13.57-0.26-24.18-7.99-35.53-17.38c-0.14-0.22-0.28-0.37-0.41-0.66
				c-0.19-0.44-0.18-1.39-0.08-1.77c0.67-0.92,1.96-2.58,2.7-3.45c0.07,0.26,0.14,0.52,0.22,0.78c-0.6,0.72-1.17,1.45-1.72,2.2
				c0.62-0.56,1.26-1.1,1.9-1.63c0.07,0.22,0.15,0.45,0.23,0.67c-0.67,0.55-1.33,1.13-1.97,1.71c0.76-0.32,1.51-0.64,2.27-0.94
				c0.08,0.2,0.16,0.4,0.25,0.6c-0.47,0.19-0.95,0.39-1.42,0.58c0.52-0.09,1.04-0.18,1.56-0.27c0.09,0.21,0.19,0.41,0.29,0.62
				c-0.61,0.1-1.22,0.2-1.84,0.31c0.78,0.23,1.56,0.45,2.33,0.66c0.15,0.28,0.3,0.55,0.46,0.82c-1.41-0.38-2.82-0.79-4.24-1.22
				l-0.08,0.01c1.78,1.06,3.6,2.04,5.45,2.95c0.27,0.39,0.56,0.77,0.85,1.14c-1.75-0.82-3.47-1.71-5.15-2.66
				c11.01,9.03,21.42,16.27,34.65,16.27h0c0.14,0,0.28,0,0.42,0c0.06,0,0.12,0.01,0.16,0.04c-0.29,0.14-0.57,0.28-0.87,0.41
				C181.86,206.1,181.71,206.17,181.57,206.23 M186.37,199.45c-0.68,0-1.35-0.01-2.02-0.03c0.29-0.2,0.56-0.41,0.83-0.64
				c0.4,0.01,0.8,0.01,1.21,0.01c1.4,0,2.81-0.04,4.2-0.11c-0.12,0.23-0.25,0.45-0.39,0.68
				C188.93,199.42,187.64,199.45,186.37,199.45 M188.88,193.21c0.08-0.22,0.16-0.45,0.23-0.67c1.23-0.08,2.45-0.19,3.65-0.32
				c-0.05,0.22-0.09,0.45-0.14,0.67C191.39,193.03,190.14,193.13,188.88,193.21 M193.56,186.66c-1.02-0.14-2.05-0.27-3.07-0.38
				c0.03-0.22,0.06-0.43,0.1-0.65c1.02,0.12,2.03,0.24,3.04,0.38C193.61,186.23,193.59,186.44,193.56,186.66 M194.34,180.02
				c-1.06-0.13-2.13-0.24-3.21-0.33c0.01-0.22,0.02-0.44,0.02-0.66c1.09,0.09,2.17,0.2,3.25,0.33
				C194.38,179.59,194.36,179.81,194.34,180.02 M194.02,172.2c-1.02-0.12-2.04-0.22-3.06-0.3c-0.02-0.22-0.04-0.44-0.06-0.66
				c0.96,0.07,2.07,0.16,3.02,0.27c0.1,0.22,0.19,0.47,0.26,0.7"/>
		</g>
	</g>
</g>
</svg>
