<?xml version="1.0" encoding="utf-8"?>
<!-- Generator: Adobe Illustrator 26.0.1, SVG Export Plug-In . SVG Version: 6.00 Build 0)  -->
<svg version="1.1" id="Layer_1" xmlns="http://www.w3.org/2000/svg" xmlns:xlink="http://www.w3.org/1999/xlink" x="0px" y="0px"
	 viewBox="0 0 432 648" style="enable-background:new 0 0 432 648;" xml:space="preserve">
<style type="text/css">
	.st0{display:none;opacity:0.5;fill:none;stroke:#231F20;stroke-width:0.05;stroke-miterlimit:10;}
	.st1{fill:#E92A2A;}
</style>
<path class="st0" d="M418.44,444.92c-2.94,1.51-8.31,5.17-9.04,17.27"/>
<g>
	<path class="st1" d="M163.93,441.98c-0.21-1.43-0.74-2.07-1.18-2.85c-1.72,4.12-6.96,17.17-7.1,25.39
		c-0.08,4.69,1.44,15.24,3.05,26.42c1.84,12.72,3.94,25.89,3.56,31.28c-0.04,0.66,0.09,1.49,0.02,2.06c1.88-2.9,2.78-4.1,2.92-5.09
		C158,487.26,156.83,457.57,163.93,441.98z"/>
	<path class="st1" d="M257.51,442.27c0.21-1.43,0.74-2.07,1.18-2.85c1.72,4.12,6.96,17.17,7.1,25.39
		c0.08,4.69-1.44,15.24-3.05,26.42c-1.84,12.72-3.94,25.89-3.56,31.28c0.04,0.66-0.09,1.49-0.02,2.06c-1.88-2.9-2.78-4.1-2.92-5.09
		C263.45,487.56,264.62,457.86,257.51,442.27z"/>
</g>
</svg>
