<?xml version="1.0" encoding="utf-8"?>
<!-- Generator: Adobe Illustrator 26.0.1, SVG Export Plug-In . SVG Version: 6.00 Build 0)  -->
<svg version="1.1" id="Layer_1" xmlns="http://www.w3.org/2000/svg" xmlns:xlink="http://www.w3.org/1999/xlink" x="0px" y="0px"
	 viewBox="0 0 432 648" style="enable-background:new 0 0 432 648;" xml:space="preserve">
<style type="text/css">
	.st0{fill:#E9E7E9;}
	.st1{fill:#A89FA8;}
	.st2{fill:#E92A2A;}
	.st3{fill:#D52626;}
	.st4{fill:#9A1A1C;}
	.st5{fill:#8D1819;}
</style>
<g id="Lower_abs_upper_00000067196231652111375480000006205210984397022120_">
	<path class="st0" d="M181.34,257.98L181.34,257.98c0.11-0.03,0.22-0.07,0.33-0.1C181.56,257.91,181.45,257.95,181.34,257.98
		 M181.1,243.23L181.1,243.23c0.23-0.05,0.46-0.1,0.69-0.15l0,0C181.55,243.13,181.32,243.18,181.1,243.23"/>
	<path class="st0" d="M185.72,256.61L185.72,256.61c0.23-0.07,0.46-0.14,0.68-0.21c0,0,0,0,0,0
		C186.18,256.47,185.95,256.54,185.72,256.61 M186.46,242.58c-0.11-0.01-0.22-0.02-0.33-0.02c-0.06,0-0.13,0-0.2,0.01
		c-0.05,0-0.11,0.01-0.16,0.01c0,0,0,0,0,0c0.06,0,0.11-0.01,0.17-0.01c0.07,0,0.13-0.01,0.19-0.01
		C186.25,242.56,186.36,242.57,186.46,242.58C186.46,242.58,186.46,242.58,186.46,242.58"/>
	<path class="st1" d="M174.12,260c-0.36,0-0.69-0.04-0.99-0.12c0,0,0,0,0,0C173.42,259.95,173.75,259.99,174.12,260
		c0.2,0,0.41-0.02,0.63-0.04c0,0,0,0,0,0C174.53,259.98,174.32,260,174.12,260 M175.43,259.84
		C175.43,259.84,175.43,259.83,175.43,259.84c0.23-0.06,0.47-0.12,0.72-0.2c0.59-0.19,1.18-0.38,1.77-0.57l0,0
		c-0.42,0.14-0.84,0.27-1.26,0.41c-0.17,0.05-0.34,0.11-0.51,0.16C175.9,259.72,175.66,259.78,175.43,259.84 M172.4,259.59
		c-0.23-0.13-0.44-0.29-0.63-0.47c-0.18-0.18-0.34-0.38-0.48-0.59C171.58,258.96,171.94,259.32,172.4,259.59
		C172.4,259.58,172.4,259.58,172.4,259.59 M188.35,255.7C188.35,255.7,188.35,255.69,188.35,255.7
		C188.35,255.69,188.35,255.7,188.35,255.7 M188.35,255.69c1.29-0.78,2.01-2.36,2.26-4.17
		C190.37,253.33,189.64,254.91,188.35,255.69"/>
	<path class="st2" d="M187.66,256.01c-3.85,1.17-7.68,2.39-11.52,3.62c-4.77,1.53-5.77-2.17-5.8-5.03c-0.04-2.74,1.45-5.26,3.21-7.3
		c2.96-3.41,8.01-4.48,12.38-4.74C191.11,242.26,192.67,254.33,187.66,256.01"/>
	<path class="st3" d="M178.07,259.02c0.17-0.06,0.35-0.11,0.53-0.17c0,0,0,0,0,0C178.42,258.91,178.24,258.96,178.07,259.02
		 M177.84,257.18c-0.16-4.11-0.25-8.4-0.25-12.79c0.22-0.1,0.45-0.2,0.68-0.29c0,4.44,0.08,8.77,0.24,12.92
		C178.29,257.08,178.06,257.13,177.84,257.18"/>
	<path class="st3" d="M181.34,257.98C181.34,257.98,181.34,257.98,181.34,257.98c0.23-0.07,0.45-0.15,0.68-0.22c0,0,0,0,0,0
		c-0.12,0.04-0.23,0.07-0.35,0.11C181.56,257.91,181.45,257.95,181.34,257.98 M181.28,256.28c-0.14-4.15-0.2-8.45-0.18-13.05
		c0.23-0.05,0.46-0.1,0.69-0.15c-0.02,4.59,0.04,8.86,0.17,12.98C181.73,256.14,181.51,256.21,181.28,256.28"/>
	<path class="st3" d="M185.72,256.61L185.72,256.61c0.23-0.07,0.46-0.14,0.68-0.21c0,0,0,0,0,0
		C186.18,256.47,185.95,256.54,185.72,256.61 M185.7,254.51c-0.03-3.75,0-7.67,0.07-11.93c0.05,0,0.11-0.01,0.16-0.01
		c0.07,0,0.13-0.01,0.2-0.01c0.11,0,0.22,0.01,0.33,0.02c-0.07,4.11-0.1,7.91-0.08,11.54C186.16,254.25,185.93,254.39,185.7,254.51"
		/>
	<path class="st3" d="M174.82,257.59c-0.08,0-0.15,0-0.23,0c-0.22-3.59-0.38-7.24-0.48-10.87c0.22-0.22,0.45-0.42,0.69-0.62
		c0.1,4.03,0.25,7.82,0.48,11.48C175.13,257.59,174.97,257.59,174.82,257.59"/>
	<path class="st3" d="M172.91,257.33c-0.07-0.02-0.14-0.04-0.2-0.07c-0.18-0.06-0.35-0.14-0.52-0.22c-0.17-2.22-0.33-4.59-0.48-7.17
		c0.2-0.34,0.41-0.68,0.64-1.01C172.51,251.91,172.7,254.71,172.91,257.33"/>
	<path class="st4" d="M174.12,259.99c-0.36,0-0.69-0.04-0.99-0.12c-0.08-0.83-0.15-1.68-0.22-2.55c0.55,0.17,1.11,0.25,1.68,0.26
		c0.05,0.79,0.1,1.58,0.15,2.37C174.53,259.98,174.32,259.99,174.12,259.99 M175.43,259.83c-0.05-0.75-0.1-1.5-0.15-2.26
		c0.85-0.04,1.71-0.2,2.55-0.4c0.02,0.63,0.05,1.26,0.08,1.89c-0.59,0.19-1.18,0.38-1.77,0.57
		C175.9,259.71,175.66,259.78,175.43,259.83 M172.4,259.58c-0.46-0.26-0.83-0.62-1.11-1.06c-0.62-0.95-0.87-2.22-0.93-3.41
		c0.36,0.79,1.02,1.5,1.83,1.93C172.26,257.91,172.33,258.75,172.4,259.58 M178.59,258.85c-0.03-0.61-0.05-1.22-0.08-1.83
		c0.01,0,0.03-0.01,0.04-0.01c0.91-0.22,1.82-0.46,2.72-0.73c0.02,0.57,0.04,1.14,0.06,1.7
		C180.42,258.27,179.51,258.56,178.59,258.85 M182.02,257.76c-0.02-0.56-0.04-1.13-0.06-1.7c1.3-0.42,2.57-0.92,3.74-1.56
		c0,0.71,0.01,1.4,0.02,2.1C184.48,256.99,183.25,257.38,182.02,257.76 M186.4,256.4c-0.01-0.75-0.02-1.51-0.02-2.28
		c0.5-0.3,0.97-0.63,1.43-1c1.24-0.99,2.25-2.29,2.88-3.71c0.04,0.72,0.02,1.43-0.08,2.12c-0.25,1.8-0.98,3.39-2.26,4.17
		c0,0,0,0,0,0c0,0,0,0,0,0c-0.21,0.13-0.44,0.23-0.69,0.32C187.24,256.14,186.82,256.27,186.4,256.4"/>
	<path class="st5" d="M177.92,259.07c-0.03-0.62-0.06-1.25-0.08-1.89c0.23-0.05,0.45-0.11,0.68-0.16c0.02,0.61,0.05,1.22,0.08,1.83
		c-0.17,0.06-0.35,0.11-0.53,0.17C178.02,259.04,177.97,259.05,177.92,259.07"/>
	<path class="st5" d="M181.34,257.98c-0.02-0.56-0.04-1.13-0.06-1.7c0.23-0.07,0.45-0.14,0.68-0.21c0.02,0.57,0.04,1.13,0.06,1.7
		C181.79,257.84,181.57,257.91,181.34,257.98"/>
	<path class="st5" d="M185.72,256.61c-0.01-0.69-0.02-1.39-0.02-2.1c0.23-0.13,0.46-0.26,0.68-0.39c0,0.77,0.01,1.53,0.02,2.28
		C186.18,256.47,185.95,256.54,185.72,256.61"/>
	<path class="st5" d="M174.75,259.95c-0.05-0.79-0.11-1.57-0.15-2.37c0.08,0,0.15,0,0.23,0c0.15,0,0.31,0,0.47-0.01
		c0.05,0.76,0.09,1.51,0.15,2.26C175.19,259.89,174.96,259.93,174.75,259.95"/>
	<path class="st5" d="M173.12,259.87c-0.26-0.07-0.5-0.17-0.72-0.29c-0.07-0.83-0.14-1.68-0.21-2.55c0.17,0.09,0.34,0.16,0.52,0.22
		c0.07,0.02,0.14,0.05,0.2,0.07C172.98,258.19,173.05,259.04,173.12,259.87"/>
	<path class="st0" d="M202.29,258.04c-0.11-0.03-0.22-0.07-0.33-0.1C202.07,257.97,202.18,258.01,202.29,258.04L202.29,258.04
		 M202.53,243.3c-0.23-0.05-0.46-0.1-0.69-0.15l0,0C202.08,243.19,202.31,243.24,202.53,243.3L202.53,243.3"/>
	<path class="st0" d="M197.91,256.67c-0.23-0.07-0.46-0.14-0.68-0.21c0,0,0,0,0,0C197.45,256.53,197.68,256.6,197.91,256.67
		L197.91,256.67 M197.17,242.65C197.17,242.64,197.17,242.64,197.17,242.65c0.11-0.02,0.21-0.02,0.32-0.02c0.06,0,0.13,0,0.19,0.01
		c0.06,0,0.11,0.01,0.17,0.01c0,0,0,0,0,0c-0.05,0-0.11-0.01-0.16-0.01c-0.07,0-0.13-0.01-0.2-0.01
		C197.39,242.63,197.28,242.63,197.17,242.65"/>
	<path class="st1" d="M209.51,260.06c-0.2,0-0.41-0.01-0.63-0.04c0,0,0,0,0,0C209.1,260.04,209.31,260.06,209.51,260.06
		c0.36,0,0.69-0.05,0.99-0.13c0,0,0,0,0,0C210.21,260.02,209.88,260.06,209.51,260.06 M208.2,259.9c-0.23-0.05-0.47-0.12-0.72-0.2
		c-0.17-0.05-0.34-0.11-0.51-0.16c-0.42-0.14-0.84-0.27-1.26-0.41l0,0c0.59,0.19,1.18,0.38,1.77,0.57
		C207.73,259.78,207.97,259.84,208.2,259.9C208.2,259.9,208.2,259.9,208.2,259.9 M211.23,259.65
		C211.23,259.65,211.23,259.65,211.23,259.65c0.46-0.26,0.83-0.63,1.11-1.06c-0.14,0.22-0.3,0.41-0.48,0.59
		C211.67,259.36,211.46,259.52,211.23,259.65 M195.28,255.76C195.28,255.76,195.28,255.76,195.28,255.76
		C195.28,255.76,195.28,255.76,195.28,255.76 M195.28,255.76c-1.29-0.78-2.01-2.36-2.26-4.17
		C193.26,253.39,193.99,254.97,195.28,255.76"/>
	<path class="st2" d="M195.97,256.08c3.85,1.17,7.68,2.39,11.52,3.62c4.77,1.53,5.77-2.17,5.8-5.03c0.04-2.74-1.45-5.26-3.21-7.3
		c-2.96-3.41-8.01-4.48-12.38-4.74C192.52,242.32,190.96,254.39,195.97,256.08"/>
	<path class="st3" d="M205.56,259.08c-0.18-0.06-0.35-0.11-0.53-0.17c0,0,0,0,0,0C205.21,258.97,205.39,259.03,205.56,259.08
		 M205.79,257.25c-0.23-0.05-0.45-0.11-0.68-0.16c0.16-4.15,0.24-8.48,0.24-12.92c0.23,0.09,0.46,0.19,0.68,0.29
		C206.04,248.85,205.96,253.14,205.79,257.25"/>
	<path class="st3" d="M202.29,258.04c-0.11-0.03-0.22-0.07-0.33-0.1c-0.12-0.04-0.23-0.07-0.35-0.11c0,0,0,0,0,0
		C201.84,257.9,202.06,257.97,202.29,258.04C202.29,258.04,202.29,258.04,202.29,258.04 M202.35,256.34
		c-0.23-0.07-0.45-0.14-0.68-0.21c0.13-4.12,0.19-8.39,0.17-12.98c0.23,0.05,0.46,0.09,0.69,0.15
		C202.55,247.9,202.49,252.19,202.35,256.34"/>
	<path class="st3" d="M197.91,256.67c-0.23-0.07-0.46-0.14-0.68-0.21c0,0,0,0,0,0C197.45,256.53,197.68,256.6,197.91,256.67
		L197.91,256.67 M197.93,254.57c-0.23-0.13-0.46-0.26-0.68-0.39c0.02-3.63,0-7.43-0.08-11.54c0.11-0.01,0.22-0.02,0.33-0.02
		c0.06,0,0.13,0,0.2,0.01c0.05,0,0.11,0.01,0.16,0.01C197.93,246.9,197.96,250.83,197.93,254.57"/>
	<path class="st3" d="M208.81,257.65c0.08,0,0.15,0,0.23,0c0.22-3.59,0.38-7.24,0.48-10.87c-0.22-0.22-0.45-0.42-0.69-0.62
		c-0.1,4.03-0.25,7.82-0.48,11.48C208.5,257.65,208.66,257.65,208.81,257.65"/>
	<path class="st3" d="M210.72,257.39c0.07-0.02,0.14-0.04,0.2-0.07c0.18-0.06,0.35-0.14,0.52-0.22c0.17-2.22,0.33-4.59,0.48-7.17
		c-0.2-0.34-0.41-0.68-0.64-1.01C211.12,251.97,210.93,254.77,210.72,257.39"/>
	<path class="st4" d="M209.51,260.06c-0.2,0-0.41-0.01-0.63-0.04c0.05-0.79,0.11-1.57,0.15-2.37c0.57-0.02,1.14-0.09,1.68-0.26
		c-0.07,0.87-0.14,1.72-0.22,2.55C210.21,260.01,209.88,260.06,209.51,260.06 M208.2,259.9c-0.23-0.05-0.47-0.12-0.72-0.2
		c-0.59-0.19-1.18-0.38-1.77-0.57c0.03-0.62,0.06-1.25,0.08-1.89c0.84,0.19,1.7,0.35,2.55,0.4
		C208.3,258.4,208.25,259.15,208.2,259.9 M211.23,259.64c0.07-0.83,0.14-1.68,0.21-2.55c0.81-0.42,1.47-1.13,1.83-1.93
		c-0.07,1.19-0.31,2.47-0.93,3.41C212.05,259.02,211.69,259.38,211.23,259.64 M205.04,258.91c-0.92-0.29-1.83-0.58-2.75-0.87
		c0.02-0.56,0.04-1.13,0.06-1.7c0.9,0.27,1.81,0.51,2.72,0.73c0.02,0,0.03,0.01,0.04,0.01C205.09,257.7,205.07,258.31,205.04,258.91
		 M201.61,257.83c-1.23-0.39-2.47-0.77-3.7-1.16c0.01-0.69,0.02-1.39,0.02-2.1c1.18,0.64,2.44,1.14,3.74,1.56
		C201.66,256.7,201.64,257.26,201.61,257.83 M197.23,256.46c-0.42-0.13-0.84-0.26-1.26-0.38c-0.24-0.08-0.47-0.19-0.69-0.32
		c0,0,0,0,0,0c0,0,0,0,0,0c-1.29-0.78-2.01-2.36-2.26-4.17c-0.09-0.68-0.12-1.4-0.08-2.12c0.63,1.42,1.65,2.72,2.88,3.71
		c0.45,0.36,0.93,0.7,1.43,1C197.24,254.95,197.23,255.71,197.23,256.46"/>
	<path class="st5" d="M205.71,259.13c0.03-0.62,0.06-1.25,0.08-1.89c-0.23-0.05-0.45-0.11-0.68-0.16c-0.02,0.61-0.05,1.22-0.08,1.83
		c0.17,0.06,0.35,0.11,0.53,0.17C205.61,259.1,205.66,259.12,205.71,259.13"/>
	<path class="st5" d="M202.29,258.04c0.02-0.56,0.04-1.13,0.06-1.7c-0.23-0.07-0.45-0.14-0.68-0.21c-0.02,0.57-0.04,1.13-0.06,1.7
		C201.84,257.9,202.06,257.97,202.29,258.04"/>
	<path class="st5" d="M197.91,256.67c0.01-0.69,0.02-1.39,0.02-2.1c-0.23-0.13-0.46-0.26-0.68-0.39c0,0.77-0.01,1.53-0.02,2.28
		C197.45,256.53,197.68,256.6,197.91,256.67"/>
	<path class="st5" d="M208.88,260.02c0.05-0.79,0.11-1.57,0.15-2.37c-0.08,0-0.15,0-0.23,0c-0.15,0-0.31,0-0.47-0.01
		c-0.05,0.76-0.09,1.51-0.15,2.26C208.44,259.95,208.67,259.99,208.88,260.02"/>
	<path class="st5" d="M210.51,259.93c0.26-0.07,0.5-0.17,0.72-0.29c0.07-0.83,0.14-1.68,0.21-2.55c-0.17,0.09-0.34,0.16-0.52,0.22
		c-0.07,0.02-0.14,0.05-0.2,0.07C210.65,258.26,210.58,259.1,210.51,259.93"/>
</g>
<g id="Lower_abs_00000095333913873019801490000001813285776258291086_">
	<path class="st2" d="M189.12,289.48c-0.11,4.09-0.23,8.19-0.36,12.28c-0.2,6.6-7.83-0.15-9.5-2.06
		c-4.73-6.97-5.99-16.14-7.56-24.25c-1.3-6.69,0.88-12.1,7.72-14.17c4.81-1.45,9.96-1.59,10.35,4.67
		C190.22,273.7,189.35,281.73,189.12,289.48"/>
	<path class="st2" d="M194.54,289.48c0.11,4.09,0.23,8.19,0.36,12.28c0.2,6.6,7.83-0.15,9.5-2.06c4.73-6.97,5.99-16.14,7.56-24.25
		c1.3-6.69-0.88-12.1-7.72-14.17c-4.81-1.45-9.96-1.59-10.35,4.67C193.43,273.7,194.31,281.73,194.54,289.48"/>
	<path class="st3" d="M183.18,303.1c-0.25-0.17-0.5-0.35-0.75-0.53c0,0,0,0,0,0c0,0,0,0,0,0c-0.01-0.01-0.02-0.01-0.03-0.02
		c0,0,0,0,0,0C182.66,302.73,182.92,302.92,183.18,303.1C183.18,303.09,183.18,303.09,183.18,303.1 M182.23,298.04
		c-0.25-0.12-0.49-0.25-0.73-0.4c-2.01-11.4-3.36-23.36-4.01-35.64c0.11-0.05,0.22-0.1,0.34-0.15c0.1-0.04,0.2-0.08,0.3-0.13
		C178.78,274.25,180.16,286.44,182.23,298.04"/>
	<path class="st3" d="M186.18,304.53c-0.22-0.04-0.46-0.11-0.69-0.2l0,0C185.72,304.42,185.96,304.48,186.18,304.53L186.18,304.53
		 M184.61,298.63c-0.03,0-0.06,0-0.09,0c-1.94-12.21-3.22-24.87-3.8-37.7c0.13-0.03,0.26-0.06,0.4-0.09
		c0.08-0.02,0.17-0.04,0.25-0.05c0.57,12.88,1.85,25.57,3.8,37.81C184.99,298.62,184.8,298.63,184.61,298.63"/>
	<path class="st3" d="M186.89,297.91c-1.12-12.63-1.81-25.19-2.04-37.43c0.22,0.02,0.44,0.04,0.66,0.08
		c0.23,12.04,0.9,24.37,1.99,36.78C187.32,297.55,187.11,297.74,186.89,297.91"/>
	<path class="st3" d="M180.28,300.74c-0.07-0.06-0.14-0.13-0.2-0.19C180.14,300.61,180.21,300.68,180.28,300.74L180.28,300.74
		 M179.4,296.09c-0.27-0.24-0.54-0.49-0.8-0.74c-1.84-10.33-3.18-20.88-4-31.45c0.2-0.18,0.4-0.35,0.62-0.52
		C176.06,274.37,177.47,285.35,179.4,296.09"/>
	<path class="st3" d="M177.44,296.6c-0.04-0.08-0.08-0.17-0.13-0.25l0,0C177.36,296.43,177.4,296.52,177.44,296.6 M177.57,294.24
		c-0.3-0.35-0.6-0.71-0.88-1.08c-1.68-8.77-3.01-17.8-3.97-26.92c0.17-0.3,0.35-0.58,0.55-0.86
		C174.27,275.06,175.71,284.74,177.57,294.24"/>
	<path class="st3" d="M201.33,298.17c2.09-11.64,3.47-23.88,4.12-36.45c0.22,0.09,0.43,0.18,0.64,0.27
		c-0.65,12.34-2.01,24.35-4.03,35.8C201.82,297.93,201.58,298.05,201.33,298.17"/>
	<path class="st3" d="M199.04,298.7c-0.22,0-0.43-0.02-0.65-0.05c1.96-12.27,3.24-24.98,3.81-37.88c0.21,0.04,0.43,0.09,0.64,0.14
		C202.27,273.78,201,286.46,199.04,298.7"/>
	<path class="st3" d="M196.69,297.9c-0.22-0.18-0.42-0.39-0.6-0.62c1.09-12.39,1.75-24.7,1.99-36.72c0.21-0.04,0.43-0.07,0.66-0.08
		C198.5,272.73,197.81,285.28,196.69,297.9"/>
	<path class="st3" d="M204.14,296.27c1.96-10.8,3.37-21.86,4.22-32.93c0.22,0.17,0.42,0.34,0.62,0.51
		c-0.83,10.65-2.18,21.29-4.04,31.69C204.68,295.79,204.42,296.03,204.14,296.27"/>
	<path class="st3" d="M205.97,294.47c1.88-9.59,3.34-19.38,4.35-29.15c0.2,0.27,0.38,0.55,0.55,0.84
		c-0.97,9.24-2.32,18.39-4.02,27.26C206.56,293.78,206.27,294.13,205.97,294.47"/>
	<path class="st4" d="M186.78,304.59c-0.15,0-0.3-0.01-0.46-0.04c-0.05-0.01-0.09-0.02-0.14-0.03c-0.35-1.97-0.69-3.94-1.01-5.93
		c0.55-0.07,1.08-0.25,1.54-0.56c0.06-0.04,0.12-0.08,0.17-0.12c0.19,2.18,0.4,4.36,0.62,6.54
		C187.29,304.55,187.04,304.59,186.78,304.59 M185.49,304.33c-0.74-0.27-1.53-0.71-2.3-1.24c-0.33-1.67-0.65-3.35-0.95-5.05
		c0.37,0.18,0.75,0.32,1.15,0.42c0.37,0.1,0.76,0.15,1.14,0.16C184.83,300.54,185.15,302.44,185.49,304.33 M188.12,304
		c-0.22-2.22-0.43-4.45-0.63-6.67c0.51-0.61,0.87-1.36,1.18-2.1c0.11-0.26,0.19-0.52,0.29-0.78c-0.07,2.43-0.14,4.87-0.22,7.3
		c-0.03,0.91-0.19,1.56-0.47,2.01C188.24,303.85,188.18,303.93,188.12,304 M182.41,302.54c-0.8-0.6-1.54-1.24-2.13-1.8
		c-0.3-1.55-0.59-3.1-0.88-4.65c0.3,0.27,0.62,0.52,0.94,0.77c0.37,0.28,0.75,0.55,1.16,0.8
		C181.79,299.29,182.09,300.92,182.41,302.54 M179.45,299.91c-0.07-0.07-0.13-0.14-0.19-0.21c-0.3-0.45-0.59-0.9-0.87-1.37
		c-0.28-1.36-0.56-2.72-0.83-4.09c0.33,0.38,0.68,0.75,1.04,1.1C178.87,296.87,179.15,298.39,179.45,299.91 M177.32,296.35
		c-0.91-1.84-1.65-3.78-2.28-5.77c0.49,0.9,1.04,1.77,1.65,2.58C176.89,294.23,177.1,295.29,177.32,296.35"/>
	<path class="st5" d="M183.18,303.09c-0.26-0.18-0.52-0.36-0.77-0.55c-0.32-1.62-0.62-3.25-0.91-4.89c0.24,0.14,0.48,0.28,0.73,0.4
		C182.53,299.74,182.85,301.42,183.18,303.09"/>
	<path class="st5" d="M186.18,304.53c-0.22-0.04-0.46-0.11-0.69-0.2c-0.34-1.89-0.66-3.79-0.96-5.7c0.03,0,0.06,0,0.09,0
		c0.19,0,0.38-0.01,0.56-0.04C185.49,300.58,185.83,302.56,186.18,304.53"/>
	<path class="st5" d="M187.51,304.46c-0.22-2.18-0.43-4.36-0.62-6.54c0.22-0.17,0.42-0.36,0.61-0.58c0.19,2.22,0.4,4.44,0.63,6.67
		C187.95,304.21,187.74,304.36,187.51,304.46"/>
	<path class="st5" d="M180.28,300.74c-0.07-0.06-0.14-0.13-0.2-0.19c-0.24-0.24-0.46-0.46-0.63-0.64c-0.29-1.51-0.57-3.04-0.85-4.56
		c0.26,0.26,0.53,0.5,0.8,0.74C179.68,297.64,179.98,299.19,180.28,300.74"/>
	<path class="st5" d="M178.39,298.33c-0.34-0.57-0.65-1.14-0.95-1.73c-0.04-0.08-0.08-0.17-0.13-0.25
		c-0.21-1.06-0.42-2.12-0.63-3.19c0.28,0.37,0.57,0.73,0.88,1.08C177.83,295.61,178.11,296.97,178.39,298.33"/>
	<path class="st4" d="M196.88,304.59c-0.29,0-0.56-0.05-0.81-0.17c0.22-2.17,0.42-4.35,0.62-6.52c0.09,0.07,0.18,0.14,0.27,0.2
		c0.43,0.29,0.93,0.46,1.44,0.54c-0.32,1.98-0.65,3.94-1,5.89c-0.15,0.03-0.29,0.04-0.42,0.05
		C196.94,304.59,196.91,304.59,196.88,304.59 M198.09,304.35c0.33-1.87,0.65-3.76,0.96-5.65c0.01,0,0.02,0,0.02,0
		c0.41,0,0.83-0.06,1.23-0.16c0.36-0.09,0.7-0.22,1.03-0.37c-0.3,1.67-0.61,3.33-0.94,4.97
		C199.62,303.65,198.82,304.09,198.09,304.35 M195.47,303.91c-0.16-0.21-0.28-0.48-0.38-0.8c-0.1-0.36-0.15-0.78-0.17-1.28
		c-0.07-2.44-0.14-4.88-0.22-7.31c0.1,0.26,0.19,0.53,0.29,0.79c0.29,0.69,0.63,1.4,1.09,1.98
		C195.89,299.5,195.69,301.7,195.47,303.91 M201.16,302.59c0.31-1.59,0.61-3.19,0.9-4.8c0.44-0.26,0.87-0.56,1.28-0.87
		c0.28-0.21,0.55-0.43,0.81-0.66c-0.28,1.52-0.56,3.03-0.86,4.54C202.69,301.36,201.95,302,201.16,302.59 M204.12,299.98
		c0.29-1.48,0.56-2.96,0.83-4.44c0.36-0.34,0.7-0.7,1.03-1.07c-0.26,1.34-0.53,2.68-0.81,4.01c-0.25,0.41-0.51,0.82-0.78,1.22
		C204.3,299.79,204.21,299.88,204.12,299.98 M206.22,296.54c0.21-1.04,0.42-2.08,0.62-3.12c0.62-0.8,1.17-1.64,1.66-2.52
		C207.87,292.85,207.13,294.74,206.22,296.54"/>
	<path class="st5" d="M200.39,303.14c0.33-1.64,0.64-3.3,0.94-4.97c0.25-0.11,0.49-0.24,0.73-0.38c-0.29,1.61-0.58,3.21-0.9,4.8
		C200.91,302.78,200.65,302.96,200.39,303.14"/>
	<path class="st5" d="M197.4,304.54c0.35-1.95,0.68-3.92,1-5.89c0.21,0.03,0.43,0.05,0.65,0.05c-0.3,1.9-0.62,3.78-0.96,5.65
		C197.85,304.43,197.62,304.5,197.4,304.54"/>
	<path class="st5" d="M196.07,304.42c-0.23-0.11-0.44-0.28-0.61-0.51c0.22-2.21,0.43-4.42,0.62-6.63c0.18,0.23,0.38,0.44,0.6,0.62
		C196.5,300.08,196.29,302.25,196.07,304.42"/>
	<path class="st5" d="M203.29,300.81c0.3-1.51,0.58-3.02,0.86-4.54c0.27-0.23,0.54-0.48,0.8-0.73c-0.27,1.49-0.54,2.97-0.83,4.44
		C203.89,300.22,203.61,300.5,203.29,300.81"/>
	<path class="st5" d="M205.16,298.48c0.28-1.33,0.55-2.67,0.81-4.01c0.3-0.34,0.59-0.69,0.87-1.05c-0.2,1.05-0.41,2.09-0.62,3.12
		C205.89,297.2,205.54,297.85,205.16,298.48"/>
</g>
</svg>
