<?xml version="1.0" encoding="utf-8"?>
<!-- Generator: Adobe Illustrator 26.0.1, SVG Export Plug-In . SVG Version: 6.00 Build 0)  -->
<svg version="1.1" id="Layer_1" xmlns="http://www.w3.org/2000/svg" xmlns:xlink="http://www.w3.org/1999/xlink" x="0px" y="0px"
	 viewBox="0 0 432 648" style="enable-background:new 0 0 432 648;" xml:space="preserve">
<style type="text/css">
	.st0{fill:#E92A2A;}
	.st1{fill:#D52626;}
	.st2{fill:#9A1A1C;}
	.st3{fill:#8D1819;}
</style>
<g id="Upper_abs_00000019673035505528962960000002050134511127847299_">
	<g>
		<path class="st0" d="M185.33,239.31c-3.32,0.52-6.35,1.67-9.51,2.76c-8.47,2.91-5.47-8-3.14-11.73c2.68-4.32,8.13-6.81,13.04-7.72
			c5.86-1.08,4.54,5.86,4.45,8.48C190.05,234.64,190.36,238.67,185.33,239.31"/>
		<path class="st1" d="M177.21,241.59L177.21,241.59c0.23-0.08,0.46-0.16,0.69-0.24c0,0,0,0,0,0
			C177.67,241.43,177.44,241.51,177.21,241.59 M177.4,239.56c0.47-4.78,1.06-9.73,1.76-14.78c0.07-0.03,0.14-0.07,0.21-0.1
			c0.17-0.08,0.34-0.16,0.51-0.24c-0.72,5.1-1.32,10.11-1.8,14.95C177.86,239.45,177.63,239.51,177.4,239.56"/>
		<path class="st1" d="M180.72,240.42C180.72,240.42,180.72,240.42,180.72,240.42c0.23-0.07,0.46-0.14,0.68-0.21c0,0,0,0,0,0
			C181.18,240.28,180.95,240.35,180.72,240.42 M180.92,238.47c0.5-4.89,1.12-9.97,1.85-15.12c0.23-0.07,0.47-0.14,0.7-0.21
			c-0.73,5.13-1.36,10.17-1.85,15.02C181.38,238.27,181.15,238.37,180.92,238.47"/>
		<path class="st1" d="M185.97,234.42c0.47-3.8,1-7.71,1.62-11.85c0.23,0.04,0.45,0.1,0.65,0.18c-0.52,3.53-0.99,6.87-1.4,10.1
			C186.59,233.39,186.3,233.92,185.97,234.42"/>
		<path class="st1" d="M173.7,242.55L173.7,242.55c0.21-0.02,0.44-0.04,0.68-0.09l0,0C174.14,242.5,173.91,242.53,173.7,242.55
			 M173.87,240.24c0.33-4.23,0.75-8.51,1.26-12.77c0.24-0.22,0.49-0.43,0.75-0.63c-0.54,4.43-0.98,8.89-1.33,13.28
			c-0.14,0.03-0.28,0.05-0.42,0.07C174.04,240.21,173.95,240.23,173.87,240.24"/>
		<path class="st1" d="M171.83,242.24c-0.21-0.1-0.39-0.23-0.55-0.38c-0.03-0.03-0.06-0.06-0.09-0.09c0,0,0,0,0,0
			C171.37,241.96,171.58,242.11,171.83,242.24C171.83,242.24,171.83,242.24,171.83,242.24 M171.25,240.56
			c0.16-2.8,0.36-5.69,0.61-8.63c0.26-0.58,0.54-1.11,0.8-1.54c-0.31,3.46-0.55,6.85-0.74,10.12
			C171.7,240.53,171.47,240.55,171.25,240.56"/>
		<path class="st2" d="M172.96,242.54c-0.44-0.04-0.81-0.14-1.13-0.31c0.03-0.57,0.06-1.15,0.09-1.73c0.65-0.06,1.3-0.16,1.95-0.27
			c-0.06,0.77-0.12,1.54-0.17,2.31C173.43,242.56,173.19,242.56,172.96,242.54 M174.37,242.46c0.05-0.78,0.11-1.56,0.17-2.34
			c0.95-0.17,1.91-0.34,2.86-0.56c-0.07,0.68-0.13,1.36-0.19,2.03c-0.34,0.12-0.67,0.23-1.01,0.35c-0.13,0.04-0.25,0.09-0.38,0.13
			c-0.36,0.13-0.7,0.23-1.03,0.3C174.65,242.41,174.51,242.44,174.37,242.46 M171.18,241.77c-0.32-0.32-0.55-0.73-0.71-1.21
			c0.26,0.01,0.52,0.01,0.77,0C171.23,240.96,171.21,241.37,171.18,241.77 M177.9,241.35c0.06-0.65,0.12-1.3,0.19-1.95
			c0.97-0.25,1.93-0.54,2.83-0.92c-0.07,0.65-0.13,1.3-0.19,1.94C179.78,240.7,178.84,241.02,177.9,241.35 M181.41,240.21
			c0.07-0.68,0.13-1.36,0.21-2.05c0.99-0.47,1.9-1.06,2.72-1.8c0.63-0.58,1.18-1.23,1.64-1.94c-0.2,1.65-0.39,3.27-0.57,4.89
			c-0.02,0-0.05,0.01-0.07,0.01c-0.34,0.05-0.67,0.11-1,0.18C183.34,239.69,182.37,239.93,181.41,240.21 M186.08,239.19
			c0.23-2.07,0.48-4.18,0.76-6.34c0.49-1.07,0.84-2.21,1.07-3.35c0.44-2.2,0.47-4.45,0.44-6.7c1.79,0.79,2.06,3.13,2.01,5.26
			c-0.01,0.49-0.04,0.97-0.08,1.42c-0.05,0.62-0.1,1.18-0.11,1.62c-0.1,2.97,0.1,6.28-2.78,7.66
			C187.01,238.93,186.58,239.08,186.08,239.19"/>
		<path class="st3" d="M177.21,241.59c0.06-0.67,0.13-1.35,0.19-2.03c0.23-0.05,0.45-0.11,0.68-0.16c-0.06,0.66-0.13,1.31-0.19,1.95
			C177.67,241.43,177.44,241.51,177.21,241.59"/>
		<path class="st3" d="M180.72,240.41c0.06-0.64,0.13-1.29,0.19-1.94c0.24-0.1,0.47-0.2,0.7-0.31c-0.07,0.69-0.14,1.37-0.21,2.05
			C181.18,240.28,180.95,240.34,180.72,240.41"/>
		<path class="st3" d="M185.4,239.31c0.18-1.61,0.37-3.24,0.57-4.89c0.33-0.5,0.62-1.03,0.87-1.57c-0.27,2.16-0.53,4.27-0.76,6.34
			C185.87,239.23,185.64,239.27,185.4,239.31"/>
		<path class="st3" d="M173.7,242.55c0.05-0.77,0.11-1.53,0.17-2.31c0.09-0.01,0.17-0.03,0.26-0.04c0.14-0.02,0.28-0.05,0.42-0.07
			c-0.06,0.78-0.12,1.56-0.17,2.34C174.14,242.5,173.91,242.53,173.7,242.55"/>
		<path class="st3" d="M171.83,242.24c-0.25-0.12-0.46-0.28-0.64-0.47c0.02-0.4,0.04-0.81,0.06-1.21c0.22-0.01,0.45-0.02,0.67-0.04
			C171.89,241.09,171.86,241.67,171.83,242.24"/>
	</g>
	<g>
		<path class="st0" d="M197.72,239.32c3.37,0.53,6.43,1.68,9.63,2.78c8.59,2.93,5.52-7.99,3.15-11.72
			c-2.73-4.33-8.25-6.83-13.23-7.75c-5.94-1.09-4.58,5.85-4.48,8.46C192.93,234.63,192.62,238.67,197.72,239.32"/>
		<path class="st1" d="M205.95,241.61c-0.23-0.08-0.46-0.16-0.7-0.24c0,0,0,0,0,0C205.49,241.45,205.72,241.53,205.95,241.61
			L205.95,241.61 M205.75,239.58c-0.23-0.05-0.46-0.11-0.69-0.17c-0.49-4.84-1.12-9.86-1.86-14.95c0.17,0.08,0.35,0.16,0.52,0.24
			c0.07,0.03,0.14,0.07,0.21,0.1C204.65,229.84,205.27,234.8,205.75,239.58"/>
		<path class="st1" d="M202.39,240.43c-0.23-0.07-0.46-0.14-0.69-0.21c0,0,0,0,0,0C201.93,240.29,202.16,240.36,202.39,240.43
			C202.39,240.43,202.39,240.43,202.39,240.43 M202.19,238.49c-0.24-0.1-0.48-0.2-0.71-0.31c-0.52-4.85-1.16-9.89-1.91-15.02
			c0.24,0.07,0.47,0.13,0.71,0.21C201.03,228.52,201.67,233.59,202.19,238.49"/>
		<path class="st1" d="M197.06,234.42c-0.48-3.8-1.03-7.71-1.66-11.86c-0.24,0.04-0.46,0.1-0.66,0.18c0.54,3.53,1.02,6.88,1.44,10.1
			C196.43,233.39,196.72,233.92,197.06,234.42"/>
		<path class="st1" d="M209.51,242.58c-0.22-0.02-0.44-0.05-0.68-0.09l0,0C209.07,242.53,209.29,242.56,209.51,242.58L209.51,242.58
			 M209.33,240.27c-0.09-0.01-0.17-0.03-0.26-0.04c-0.14-0.02-0.28-0.05-0.43-0.08c-0.36-4.39-0.82-8.84-1.38-13.28
			c0.26,0.2,0.51,0.41,0.76,0.63C208.55,231.76,208.99,236.04,209.33,240.27"/>
		<path class="st1" d="M211.4,242.27C211.4,242.27,211.4,242.27,211.4,242.27c0.25-0.13,0.47-0.28,0.65-0.47c0,0,0,0,0,0
			c-0.03,0.03-0.06,0.06-0.09,0.09C211.8,242.04,211.61,242.17,211.4,242.27 M211.99,240.59c-0.23-0.01-0.45-0.03-0.68-0.05
			c-0.19-3.27-0.45-6.67-0.77-10.12c0.27,0.43,0.55,0.96,0.82,1.54C211.61,234.91,211.82,237.8,211.99,240.59"/>
		<path class="st2" d="M210.26,242.57c-0.23,0.02-0.48,0.02-0.75,0c-0.06-0.77-0.12-1.53-0.18-2.31c0.65,0.11,1.31,0.22,1.97,0.28
			c0.03,0.58,0.07,1.15,0.1,1.73C211.08,242.43,210.7,242.54,210.26,242.57 M208.83,242.49c-0.14-0.02-0.28-0.06-0.43-0.09
			c-0.33-0.08-0.67-0.18-1.04-0.3c-0.13-0.04-0.26-0.09-0.38-0.13c-0.34-0.12-0.68-0.24-1.02-0.35c-0.06-0.67-0.13-1.35-0.2-2.03
			c0.96,0.22,1.93,0.4,2.89,0.57C208.71,240.93,208.77,241.71,208.83,242.49 M212.05,241.8c-0.02-0.4-0.04-0.81-0.07-1.21
			c0.26,0.01,0.52,0.01,0.78,0C212.61,241.07,212.38,241.48,212.05,241.8 M205.25,241.37c-0.95-0.33-1.91-0.65-2.87-0.94
			c-0.06-0.64-0.13-1.29-0.2-1.94c0.92,0.38,1.88,0.68,2.87,0.93C205.13,240.07,205.19,240.72,205.25,241.37 M201.69,240.22
			c-0.97-0.28-1.96-0.53-2.96-0.72c-0.33-0.07-0.67-0.12-1.01-0.18c-0.02,0-0.05-0.01-0.07-0.01c-0.18-1.61-0.38-3.24-0.59-4.89
			c0.47,0.71,1.03,1.37,1.67,1.95c0.82,0.74,1.76,1.33,2.76,1.8C201.55,238.86,201.63,239.54,201.69,240.22 M196.96,239.19
			c-0.5-0.11-0.94-0.26-1.32-0.44c-2.92-1.38-2.72-4.69-2.83-7.66c-0.02-0.44-0.07-1-0.12-1.62c-0.03-0.45-0.07-0.93-0.08-1.42
			c-0.06-2.13,0.21-4.47,2.02-5.25c-0.02,2.25,0.01,4.5,0.46,6.7c0.23,1.15,0.59,2.29,1.09,3.35
			C196.46,235.01,196.72,237.12,196.96,239.19"/>
		<path class="st3" d="M205.95,241.61c-0.06-0.67-0.13-1.35-0.2-2.03c-0.23-0.05-0.46-0.11-0.69-0.17c0.07,0.66,0.13,1.31,0.19,1.95
			C205.49,241.45,205.72,241.53,205.95,241.61"/>
		<path class="st3" d="M202.39,240.43c-0.06-0.64-0.13-1.29-0.2-1.94c-0.24-0.1-0.48-0.2-0.71-0.31c0.07,0.69,0.15,1.37,0.21,2.05
			C201.93,240.29,202.16,240.36,202.39,240.43"/>
		<path class="st3" d="M197.65,239.31c-0.18-1.61-0.38-3.24-0.59-4.89c-0.33-0.5-0.63-1.03-0.88-1.58c0.28,2.16,0.54,4.27,0.78,6.34
			C197.17,239.24,197.4,239.28,197.65,239.31"/>
		<path class="st3" d="M209.51,242.57c-0.06-0.77-0.12-1.53-0.18-2.31c-0.09-0.01-0.17-0.03-0.26-0.04
			c-0.14-0.02-0.28-0.05-0.43-0.08c0.06,0.78,0.13,1.56,0.18,2.34C209.07,242.53,209.29,242.56,209.51,242.57"/>
		<path class="st3" d="M211.4,242.27c0.25-0.12,0.47-0.28,0.65-0.47c-0.02-0.4-0.04-0.81-0.07-1.21c-0.23-0.01-0.45-0.03-0.68-0.05
			C211.34,241.13,211.37,241.7,211.4,242.27"/>
	</g>
	<g>
		<path class="st0" d="M189.67,213.02c-0.62,3.3-3.3,5.06-5.98,6.66c-2.81,1.66-12.75,8.17-13.49,1.49
			c-0.64-5.78,1.06-9.85,6.39-12.47c3.24-1.59,8.43-4.64,12-4.03C191.07,206.12,190.07,210.87,189.67,213.02"/>
		<path class="st1" d="M178.22,219.06c0.25-3.83,0.57-7.73,0.93-11.65c0.24-0.12,0.48-0.24,0.73-0.36
			c-0.37,3.95-0.69,7.88-0.94,11.73C178.7,218.87,178.46,218.97,178.22,219.06"/>
		<path class="st1" d="M181.86,217.24c0.26-3.81,0.58-7.66,0.94-11.51c0.24-0.1,0.48-0.19,0.72-0.27
			c-0.36,3.76-0.67,7.54-0.94,11.28C182.35,216.91,182.11,217.07,181.86,217.24"/>
		<path class="st1" d="M187.23,211.3c0.18-2.13,0.38-4.36,0.61-6.7c0.24,0.01,0.47,0.03,0.69,0.06c0,0,0,0,0,0l-0.06-0.01
			c0.01,0.11,0.02,0.23,0.03,0.34c-0.12,1.27-0.24,2.51-0.35,3.72C187.93,209.6,187.62,210.47,187.23,211.3"/>
		<path class="st1" d="M174.07,224.07C174.07,224.06,174.07,224.06,174.07,224.07c0.23-0.03,0.46-0.07,0.7-0.12l0,0
			C174.53,224,174.3,224.04,174.07,224.07 M174.27,220.11c0.2-3.48,0.46-7.02,0.77-10.55c0.24-0.15,0.48-0.3,0.74-0.44
			c-0.32,3.64-0.59,7.27-0.8,10.86c-0.13,0.03-0.26,0.05-0.39,0.08C174.48,220.08,174.38,220.1,174.27,220.11"/>
		<path class="st1" d="M171.69,223.77c-0.23-0.12-0.43-0.27-0.62-0.46c-0.02-0.02-0.05-0.05-0.07-0.07c0,0,0,0,0-0.01
			C171.2,223.45,171.43,223.63,171.69,223.77C171.69,223.77,171.69,223.77,171.69,223.77 M171.79,220.26
			c-0.23-0.02-0.47-0.05-0.7-0.09c0.08-2.31,0.19-4.62,0.32-6.93c0.01-0.02,0.02-0.03,0.03-0.05c0.22-0.38,0.46-0.75,0.74-1.1
			C172.02,214.83,171.89,217.56,171.79,220.26"/>
		<path class="st2" d="M173.3,224.12c-0.6,0-1.15-0.11-1.61-0.35c0.03-1.16,0.07-2.33,0.11-3.5c0.2,0.01,0.4,0.02,0.6,0.02
			c0.63,0,1.26-0.07,1.88-0.17c-0.08,1.32-0.14,2.64-0.2,3.95C173.8,224.1,173.55,224.12,173.3,224.12 M174.77,223.94
			c0.06-1.31,0.13-2.63,0.2-3.96c1.1-0.22,2.19-0.53,3.24-0.93c-0.08,1.27-0.16,2.52-0.23,3.77c-0.75,0.34-1.51,0.64-2.25,0.87
			C175.41,223.79,175.09,223.88,174.77,223.94 M171,223.23c-0.41-0.47-0.7-1.14-0.8-2.07c-0.05-0.43-0.08-0.85-0.1-1.26
			c0.32,0.12,0.65,0.21,1,0.28C171.06,221.2,171.03,222.22,171,223.23 M178.7,222.49c0.07-1.23,0.15-2.47,0.23-3.72
			c1.02-0.43,2-0.94,2.92-1.54c-0.09,1.23-0.16,2.46-0.24,3.68c-0.78,0.45-1.67,0.95-2.59,1.41
			C178.92,222.39,178.81,222.44,178.7,222.49 M182.34,220.49c0.08-1.25,0.16-2.5,0.25-3.76c1.15-0.83,2.19-1.8,3.07-2.92
			c0.61-0.78,1.14-1.63,1.57-2.52c-0.19,2.2-0.35,4.3-0.49,6.34c-0.68,0.56-1.43,1.06-2.2,1.54c-0.28,0.17-0.57,0.35-0.85,0.51
			c-0.18,0.11-0.39,0.23-0.62,0.37C182.85,220.19,182.6,220.33,182.34,220.49 M187.48,216.97c0.19-2.61,0.41-5.34,0.67-8.25
			c0.3-1.22,0.42-2.48,0.35-3.72c0.01-0.11,0.02-0.22,0.03-0.34l0.06,0.01c0,0,0.01,0,0.02,0c0,0,0.01,0.01,0.01,0.01
			c2.45,1.46,1.45,6.2,1.05,8.34C189.36,214.66,188.55,215.92,187.48,216.97"/>
		<path class="st3" d="M177.98,222.83c0.07-1.25,0.15-2.5,0.23-3.77c0.24-0.09,0.48-0.19,0.72-0.28c-0.08,1.25-0.16,2.49-0.23,3.72
			C178.46,222.61,178.22,222.72,177.98,222.83"/>
		<path class="st3" d="M181.62,220.92c0.07-1.22,0.15-2.45,0.24-3.68c0.25-0.16,0.49-0.33,0.73-0.5c-0.09,1.26-0.17,2.51-0.25,3.76
			C182.12,220.63,181.87,220.77,181.62,220.92"/>
		<path class="st3" d="M186.74,217.63c0.14-2.03,0.3-4.14,0.49-6.34c0.39-0.83,0.71-1.69,0.92-2.58c-0.26,2.91-0.48,5.64-0.67,8.25
			C187.24,217.2,187,217.42,186.74,217.63 M188.5,205c-0.01-0.11-0.02-0.23-0.03-0.34l0.06,0.01
			C188.52,204.77,188.51,204.89,188.5,205"/>
		<path class="st3" d="M174.07,224.06c0.06-1.31,0.13-2.63,0.2-3.95c0.1-0.02,0.21-0.04,0.31-0.05c0.13-0.02,0.26-0.05,0.39-0.08
			c-0.08,1.33-0.15,2.65-0.2,3.96C174.54,223.99,174.3,224.03,174.07,224.06"/>
		<path class="st3" d="M171.69,223.77c-0.26-0.13-0.49-0.31-0.68-0.53c0.03-1.02,0.06-2.03,0.1-3.05c0.23,0.04,0.46,0.07,0.7,0.09
			C171.75,221.44,171.71,222.61,171.69,223.77"/>
	</g>
	<g>
		<path class="st0" d="M192.99,213.05c0.62,3.3,3.3,5.06,5.98,6.66c2.81,1.66,12.75,8.17,13.49,1.49c0.64-5.78-1.06-9.85-6.39-12.47
			c-3.24-1.59-8.43-4.64-12-4.03C191.59,206.14,192.59,210.9,192.99,213.05"/>
		<path class="st1" d="M204.44,219.08c-0.25-3.83-0.57-7.73-0.93-11.65c-0.24-0.12-0.48-0.24-0.73-0.36
			c0.37,3.95,0.69,7.88,0.94,11.73C203.97,218.9,204.2,218.99,204.44,219.08"/>
		<path class="st1" d="M200.81,217.26c-0.26-3.81-0.58-7.66-0.94-11.51c-0.24-0.1-0.48-0.19-0.72-0.27
			c0.36,3.76,0.67,7.54,0.94,11.28C200.31,216.93,200.56,217.1,200.81,217.26"/>
		<path class="st1" d="M195.44,211.32c-0.18-2.13-0.38-4.36-0.61-6.7c-0.24,0.01-0.47,0.03-0.69,0.06c0,0,0,0,0,0l0.06-0.01
			c-0.01,0.11-0.02,0.23-0.03,0.34c0.12,1.27,0.24,2.51,0.35,3.72C194.73,209.63,195.04,210.5,195.44,211.32"/>
		<path class="st1" d="M208.59,224.09c-0.23-0.03-0.46-0.07-0.7-0.12l0,0C208.13,224.02,208.36,224.06,208.59,224.09
			C208.59,224.09,208.59,224.09,208.59,224.09 M208.39,220.14c-0.1-0.02-0.21-0.04-0.31-0.05c-0.13-0.02-0.26-0.05-0.39-0.08
			c-0.21-3.58-0.47-7.22-0.8-10.86c0.25,0.14,0.5,0.29,0.74,0.44C207.93,213.13,208.19,216.66,208.39,220.14"/>
		<path class="st1" d="M210.98,223.8C210.98,223.79,210.98,223.79,210.98,223.8c0.26-0.14,0.49-0.32,0.68-0.54c0,0,0,0,0,0.01
			c-0.02,0.02-0.05,0.05-0.07,0.07C211.41,223.53,211.21,223.68,210.98,223.8 M210.87,220.29c-0.1-2.7-0.23-5.43-0.39-8.16
			c0.28,0.35,0.52,0.72,0.74,1.1c0.01,0.02,0.02,0.03,0.03,0.05c0.13,2.31,0.24,4.62,0.32,6.93
			C211.34,220.24,211.1,220.27,210.87,220.29"/>
		<path class="st2" d="M209.37,224.14c-0.25,0-0.51-0.02-0.77-0.05c-0.06-1.31-0.13-2.63-0.2-3.95c0.62,0.1,1.26,0.17,1.88,0.17
			c0.2,0,0.4-0.01,0.6-0.02c0.04,1.17,0.08,2.34,0.11,3.5C210.52,224.04,209.97,224.14,209.37,224.14 M207.89,223.97
			c-0.31-0.07-0.63-0.15-0.96-0.25c-0.74-0.23-1.5-0.53-2.25-0.87c-0.07-1.25-0.15-2.5-0.23-3.77c1.05,0.4,2.14,0.7,3.24,0.93
			C207.76,221.34,207.83,222.66,207.89,223.97 M211.66,223.26c-0.03-1.02-0.06-2.03-0.1-3.05c0.34-0.06,0.68-0.15,1-0.28
			c-0.02,0.41-0.05,0.83-0.1,1.26C212.36,222.12,212.08,222.79,211.66,223.26 M203.96,222.52c-0.11-0.05-0.22-0.11-0.33-0.16
			c-0.93-0.46-1.82-0.96-2.59-1.41c-0.07-1.22-0.15-2.45-0.24-3.68c0.92,0.6,1.9,1.11,2.92,1.54
			C203.81,220.05,203.89,221.29,203.96,222.52 M200.32,220.52c-0.26-0.16-0.5-0.3-0.73-0.44c-0.23-0.14-0.44-0.27-0.62-0.37
			c-0.28-0.17-0.57-0.34-0.85-0.51c-0.77-0.47-1.52-0.97-2.2-1.54c-0.14-2.03-0.3-4.14-0.49-6.34c0.43,0.9,0.96,1.75,1.57,2.52
			c0.88,1.11,1.92,2.09,3.07,2.92C200.16,218.02,200.24,219.27,200.32,220.52 M195.18,216.99c-1.07-1.05-1.88-2.3-2.19-3.94
			c-0.4-2.15-1.4-6.88,1.05-8.34c0,0,0.01,0,0.01-0.01c0,0,0.01,0,0.02,0l0.06-0.01c0.01,0.11,0.02,0.22,0.03,0.34
			c-0.08,1.24,0.05,2.5,0.35,3.72C194.77,211.65,195,214.38,195.18,216.99"/>
		<path class="st3" d="M204.68,222.85c-0.07-1.25-0.15-2.5-0.23-3.77c-0.24-0.09-0.48-0.19-0.72-0.28c0.08,1.25,0.16,2.49,0.23,3.72
			C204.2,222.63,204.44,222.74,204.68,222.85"/>
		<path class="st3" d="M201.04,220.94c-0.07-1.22-0.15-2.45-0.24-3.68c-0.25-0.16-0.49-0.33-0.73-0.5c0.09,1.26,0.17,2.51,0.25,3.76
			C200.55,220.65,200.79,220.8,201.04,220.94"/>
		<path class="st3" d="M195.93,217.66c-0.26-0.21-0.51-0.43-0.75-0.67c-0.19-2.61-0.41-5.34-0.67-8.25
			c0.22,0.89,0.53,1.75,0.92,2.58C195.62,213.52,195.78,215.62,195.93,217.66 M194.17,205.02c-0.01-0.11-0.02-0.22-0.03-0.34
			l0.06-0.01C194.18,204.8,194.17,204.91,194.17,205.02"/>
		<path class="st3" d="M208.59,224.09c-0.06-1.31-0.13-2.63-0.2-3.95c-0.1-0.02-0.21-0.04-0.31-0.05c-0.13-0.02-0.26-0.05-0.39-0.08
			c0.08,1.33,0.15,2.65,0.2,3.96C208.13,224.02,208.36,224.06,208.59,224.09"/>
		<path class="st3" d="M210.98,223.79c0.26-0.13,0.49-0.31,0.68-0.53c-0.03-1.02-0.06-2.03-0.1-3.05c-0.23,0.04-0.46,0.07-0.7,0.09
			C210.91,221.46,210.95,222.63,210.98,223.79"/>
	</g>
</g>
</svg>
