<?xml version="1.0" encoding="utf-8"?>
<!-- Generator: Adobe Illustrator 26.0.1, SVG Export Plug-In . SVG Version: 6.00 Build 0)  -->
<svg version="1.1" id="Layer_1" xmlns="http://www.w3.org/2000/svg" xmlns:xlink="http://www.w3.org/1999/xlink" x="0px" y="0px"
	 viewBox="0 0 432 648" style="enable-background:new 0 0 432 648;" xml:space="preserve">
<style type="text/css">
	.st0{fill:#E92A2A;}
	.st1{fill:#D52626;}
	.st2{fill:#9A1A1C;}
	.st3{fill:#8D1819;}
</style>
<g id="Mid_quad_00000049941163474254219590000003569688916903111321_">
	<g>
		<path class="st0" d="M255.5,333.43c-0.35-1.48-0.22-1.94-0.57-3.32l-0.34-1.06c-7.88-3.65-8.73-13.87-10.02-21.57
			c-1.06-6.34-1.29-13.93,3.39-18.64c-0.56-1.97-1.27-3.81-1.27-3.81l-0.26,0.17c-2.86,2.34-5.72,4.74-8.82,6.75
			c-0.14,0.09-0.27,0.16-0.42,0.19c-1.65,2.32-3.2,5.14-4.92,8.46l0.01,6.62c0.14-0.69,0.98-4,1.13-4.69
			c0.66-2.93,3.05-6.06,4.72-8.52c0.49-0.73,1.6-1.49,2.41-0.92c4.15,2.9,1.71,12.8,1.25,16.61c-1.29,10.84-4.97,21.33-9.04,31.43
			c-2.12,5.28-4.69,10.26-6.98,15.45c3.83,13.69,15.31,27.25,16.1,41.75v0.01c1,0.66,2.27,0.68,3.28,0.16
			c0.1-2.42,0.75-4.66,1.18-6.76c2.17-10.56,7.1-20.25,8.9-31C256.71,351.77,256.81,342.44,255.5,333.43z"/>
		<path class="st0" d="M161.12,333.69c0.35-1.48,0.72-2.91,1.07-4.29l0.06-0.35c7.88-3.65,8.28-13.75,9.57-21.45
			c1.06-6.34,1.29-13.93-3.39-18.64c0.56-1.97,1.41-4.04,1.41-4.04l0.26,0.17c2.86,2.34,5.72,4.74,8.82,6.75
			c0.14,0.09,0.13,0.39,0.28,0.42c1.65,2.32,3.2,5.14,4.92,8.46l0.03,6.89c-0.14-0.69-1.02-4.28-1.17-4.96
			c-0.66-2.93-3.05-6.06-4.72-8.52c-0.49-0.73-1.6-1.49-2.41-0.92c-4.15,2.9-1.71,12.8-1.25,16.61c1.29,10.84,4.97,21.33,9.04,31.43
			c2.12,5.28,4.69,10.26,6.98,15.45c-3.83,13.69-15.31,27.25-16.1,41.75v0.01c-1,0.66-2.27,0.68-3.28,0.16
			c-0.1-2.42-0.46-4.79-0.89-6.9c-2.17-10.56-7.4-20.12-9.2-30.87C159.68,351.9,159.81,342.71,161.12,333.69z"/>
		<path class="st1" d="M243.88,382.11c0.37-2.19,0.69-4.37,0.96-6.53c0.09,2.13,0.24,4.29,0.43,6.47c0.22-0.03,0.44-0.07,0.66-0.11
			c-0.36-4.04-0.53-8-0.54-11.86c0.21-2.74,0.31-5.44,0.33-8.11c0.89,6.14,2.32,11.45,4.39,16.25c0.11-0.31,0.22-0.62,0.33-0.93
			c-2.86-6.91-4.45-14.93-4.97-25.06c1.38,6.55,3.82,12.7,7.29,18.35c0.09-0.28,0.18-0.56,0.27-0.84
			c-3.49-5.82-5.87-12.17-7.14-18.93c1.6,3.41,4.58,8.47,9.11,11.32c0.04-0.23,0.09-0.47,0.13-0.7c-4.52-2.97-7.88-8.62-9.7-13.38
			c-0.13-0.9-0.25-1.81-0.33-2.73c0.14-1.33,0.34-2.64,0.63-3.93c1.71,5.64,5.21,10.34,10.24,13.61c0.02-0.25,0.04-0.5,0.06-0.75
			c-5.06-3.39-8.49-8.26-9.98-14.12c0.45-1.71,1.03-3.37,1.74-4.99c0.6,5.35,3.65,10.03,8.51,12.91c0-0.26,0-0.52,0-0.77
			c-4.78-2.98-7.73-7.94-7.95-13.36c0.99-2.04,2.17-4,3.58-5.88c-0.18-0.14-0.35-0.27-0.51-0.42c-2.59,3.45-4.48,7.21-5.67,11.23
			l0-0.02l-0.05,0.23c-0.13,0.45-0.27,0.91-0.38,1.37c0.16-5.65,0.71-11.58,2.55-17.6c-0.14-0.28-0.27-0.57-0.39-0.86
			c-0.03,0.04-0.06,0.08-0.08,0.13c-1.05,3.29-1.7,6.56-2.11,9.77c-0.41-6.36-1.71-12.62-3.94-18.7c-0.07,0.45-0.15,0.9-0.23,1.36
			c2.86,8.26,4.05,16.84,3.54,25.53l0.01,0.02c-0.03,1-0.05,1.99-0.06,2.97c-1.01-6.48-2.9-12.87-5.66-18.98
			c-0.1,0.34-0.19,0.69-0.29,1.03c0.03,0.06,0.05,0.12,0.08,0.18c0.13,13.09-4.38,24.32-12.44,30.98c-0.36,0.25-0.32,0.14-0.41,0.35
			c0.03,0.12,0.2,0.52,0.24,0.64c8.25-6.47,13.03-17.5,13.27-30.45c1.01,2.48,1.89,4.99,2.62,7.54
			c0.03,10.76-5.51,20.38-14.91,25.89c0.08,0.21,0.15,0.42,0.23,0.63c8.98-5.22,14.58-14.18,15.27-24.31
			c0.53,2.08,0.98,4.18,1.32,6.29c-2.23,8.97-7.29,16.3-15.05,21.78c0.09,0.2,0.18,0.41,0.27,0.62c7.51-5.27,12.54-12.23,15-20.72
			c0.13,0.95,0.25,1.89,0.34,2.84c-1.98,8.85-6.35,16.5-13.04,22.73c0.1,0.21,0.21,0.41,0.31,0.62c6.38-5.89,10.69-13.05,12.9-21.29
			l0.02,0.28c-1.43,9.37-4.84,18.1-10.17,25.95c0.14,0.19,0.28,0.38,0.42,0.56c4.88-7.11,8.19-14.94,9.88-23.33
			c0.2,9.48-1.44,18.99-4.94,27.99c0.2,0.12,0.4,0.22,0.59,0.32c2.43-6.23,3.97-12.71,4.65-19.25c-0.04,6.53-0.65,13.25-1.83,20.11
			C243.45,382.08,243.67,382.1,243.88,382.11"/>
		<path class="st2" d="M243.62,399.03c-0.62,0-1.24-0.17-1.77-0.54l0,0c-0.08-1.48-0.27-2.96-0.55-4.42
			c1.06-4.03,1.91-8.02,2.59-11.97c0.11,0,0.22,0.01,0.33,0.01c0.36,0,0.71-0.02,1.06-0.07c0.25,2.81,0.65,6.03,1.06,8.9
			c-0.08,0.34-1.15,6.11-1.22,7.72C244.65,398.91,244.14,399.03,243.62,399.03 M240.98,392.61c-0.57-2.45-1.38-4.88-2.34-7.28
			c0.63-1.36,1.22-2.74,1.76-4.13c0.93,0.47,1.88,0.75,2.82,0.86C242.63,385.54,241.88,389.06,240.98,392.61 M246.74,389.07
			c-0.31-2.32-0.61-4.86-0.81-7.13c1.2-0.25,2.34-0.77,3.39-1.49c-0.97,2.76-1.78,5.68-2.51,8.52L246.74,389.07 M238.3,384.47
			c-1.1-2.66-2.36-5.3-3.67-7.92c0.08-0.11,0.16-0.22,0.23-0.33c1.08,1.39,2.3,2.67,3.67,3.78c0.42,0.34,0.84,0.63,1.27,0.88
			C239.34,382.08,238.84,383.28,238.3,384.47 M234.3,375.88c-0.27-0.53-0.53-1.06-0.8-1.59c0.3,0.47,0.62,0.92,0.94,1.37
			C234.39,375.73,234.34,375.8,234.3,375.88"/>
		<path class="st3" d="M241.29,394.08c-0.09-0.49-0.2-0.98-0.31-1.46c0.9-3.55,1.64-7.07,2.24-10.56c0.22,0.03,0.44,0.04,0.66,0.05
			C243.21,386.05,242.35,390.04,241.29,394.08 M246.32,390.86c-0.42-2.86-0.8-6.01-1.05-8.81c0.22-0.03,0.44-0.07,0.66-0.11
			c0.2,2.27,0.5,4.86,0.82,7.18c-0.15,0.58-0.24,0.95-0.37,1.53L246.32,390.86z M238.65,385.33c-0.11-0.28-0.23-0.57-0.35-0.86
			c0.54-1.19,1.04-2.39,1.51-3.6c0.2,0.12,0.4,0.22,0.59,0.32C239.86,382.59,239.28,383.96,238.65,385.33 M234.63,376.55
			c-0.11-0.23-0.23-0.45-0.34-0.68c0.05-0.07,0.1-0.14,0.15-0.22c0.14,0.19,0.28,0.38,0.42,0.56
			C234.79,376.33,234.71,376.44,234.63,376.55"/>
	</g>
	<g>
		<path class="st1" d="M172.32,382.57c-0.37-2.22-0.68-4.42-0.94-6.61c-0.09,2.16-0.23,4.34-0.43,6.55
			c-0.22-0.03-0.43-0.07-0.65-0.11c0.35-4.09,0.52-8.1,0.53-12.01c-0.21-2.77-0.3-5.5-0.32-8.21c-0.88,6.21-2.28,11.6-4.3,16.45
			c-0.11-0.31-0.22-0.63-0.33-0.94c2.81-7,4.36-15.12,4.88-25.37c-1.35,6.63-3.75,12.86-7.15,18.58c-0.09-0.28-0.18-0.57-0.26-0.85
			c3.43-5.9,5.76-12.33,7.01-19.16c-1.57,3.46-4.49,8.58-8.94,11.47c-0.04-0.24-0.09-0.47-0.13-0.71c4.43-3.01,7.73-8.73,9.52-13.54
			c0.12-0.92,0.24-1.84,0.33-2.77c-0.14-1.35-0.34-2.68-0.62-3.98c-1.67,5.71-5.12,10.47-10.05,13.78
			c-0.02-0.25-0.04-0.51-0.06-0.76c4.97-3.44,8.33-8.37,9.79-14.3c-0.44-1.73-1.01-3.42-1.7-5.05c-0.59,5.42-3.58,10.16-8.35,13.08
			c0-0.26,0-0.52,0-0.78c4.69-3.02,7.59-8.04,7.8-13.53c-0.97-2.06-2.13-4.05-3.51-5.95c0.17-0.14,0.34-0.28,0.5-0.42
			c2.54,3.49,4.39,7.3,5.57,11.37l0-0.02l0.05,0.23c0.13,0.46,0.26,0.92,0.38,1.39c-0.15-5.72-0.69-11.73-2.5-17.82
			c0.13-0.29,0.26-0.58,0.39-0.87c0.03,0.04,0.06,0.08,0.07,0.13c1.03,3.34,1.66,6.64,2.07,9.9c0.4-6.44,1.77-13.08,3.96-19.23
			c0.07,0.46,0.15,0.92,0.22,1.37c-2.81,8.36-4.07,17.35-3.56,26.14l-0.01,0.02c0.03,1.01,0.05,2.01,0.06,3.01
			c1-6.56,2.97-13.37,5.68-19.56c0.09,0.35,0.19,0.7,0.29,1.05c-0.02,0.06-0.17,0.47-0.2,0.53c-0.12,13.26,4.79,24.97,12.7,31.71
			c0.09,0.21-0.19,0.14-0.1,0.35c-0.03,0.12-0.07,0.24-0.1,0.36c-8.09-6.55-12.89-17.78-13.13-30.89c-0.99,2.51-1.85,5.05-2.57,7.63
			c-0.03,10.89,5.4,20.64,14.63,26.22c-0.07,0.21-0.15,0.43-0.23,0.64c-8.81-5.28-14.3-14.36-14.98-24.61
			c-0.52,2.11-0.96,4.23-1.3,6.37c2.19,9.09,7.15,16.5,14.77,22.05c-0.09,0.21-0.18,0.42-0.27,0.62
			c-7.37-5.33-12.31-12.39-14.72-20.98c-0.13,0.96-0.25,1.92-0.34,2.88c1.94,8.96,6.24,16.7,12.8,23.01c-0.1,0.21-0.2,0.42-0.3,0.63
			c-6.26-5.97-10.49-13.21-12.65-21.55l-0.02,0.29c1.41,9.49,4.75,18.33,9.98,26.28c-0.14,0.19-0.27,0.38-0.41,0.57
			c-4.78-7.2-8.03-15.13-9.69-23.62c-0.19,9.6,1.41,19.22,4.84,28.34c-0.19,0.12-0.39,0.23-0.58,0.33
			c-2.38-6.31-3.9-12.87-4.56-19.49c0.04,6.61,0.63,13.41,1.79,20.36C172.75,382.54,172.54,382.56,172.32,382.57"/>
		<path class="st2" d="M172.55,399.32c-0.51,0-1.02-0.12-1.47-0.36c-0.07-1.61-0.25-3.19-0.49-4.69c-0.12-0.76-0.25-1.49-0.4-2.2
			c-0.01-0.06-0.03-0.13-0.04-0.19c-0.07-0.34-0.14-0.68-0.22-1.02c0.41-2.86,0.74-5.7,0.99-8.5c0.34,0.05,0.69,0.07,1.04,0.07
			c0.11,0,0.21,0,0.32-0.01c0.66,3.94,1.67,8.59,2.71,12.62c-0.28,1.46-0.22,2.2-0.3,3.69l-0.41,0.06
			C173.77,399.14,173.16,399.32,172.55,399.32 M175.26,393.38c-0.88-3.55-1.74-7.54-2.33-11.02c0.92-0.11,1.85-0.39,2.77-0.86
			c0.53,1.39,1.11,2.76,1.72,4.13c-0.94,2.4-1.2,4.56-1.76,7.01L175.26,393.38 M169.53,389.12c-0.72-2.83-1.62-5.61-2.57-8.37
			c1.02,0.73,2.15,1.24,3.32,1.49C170.09,384.51,169.84,386.8,169.53,389.12 M177.77,384.77c-0.53-1.19-1.02-2.39-1.48-3.59
			c0.42-0.25,0.84-0.54,1.25-0.88c1.35-1.1,2.54-2.38,3.6-3.77c0.07,0.11,0.15,0.22,0.23,0.33
			C180.09,379.48,178.85,382.12,177.77,384.77 M181.7,376.19c-0.05-0.07-0.1-0.14-0.14-0.22c0.32-0.45,0.63-0.9,0.93-1.37
			C182.22,375.13,181.96,375.66,181.7,376.19"/>
		<path class="st3" d="M175,395.05c-1.04-4.03-2.04-8.69-2.71-12.63c0.22-0.01,0.43-0.03,0.65-0.05c0.59,3.48,1.49,7.68,2.37,11.23
			C175.19,394.07,175,395.05,175,395.05z M169.94,390.85c-0.13-0.58-0.27-1.16-0.41-1.73c0.31-2.31,0.56-4.61,0.76-6.88
			c0.21,0.05,0.43,0.08,0.65,0.11C170.68,385.15,170.35,387.99,169.94,390.85 M177.43,385.63c-0.62-1.36-1.19-2.74-1.72-4.13
			c0.19-0.1,0.39-0.21,0.58-0.32c0.46,1.21,0.95,2.41,1.48,3.59C177.66,385.06,177.54,385.34,177.43,385.63 M181.37,376.86
			c-0.08-0.11-0.15-0.22-0.23-0.33c0.14-0.18,0.28-0.37,0.41-0.56c0.05,0.07,0.1,0.14,0.14,0.22
			C181.59,376.41,181.48,376.64,181.37,376.86"/>
	</g>
</g>
</svg>
