<?xml version="1.0" encoding="utf-8"?>
<!-- Generator: Adobe Illustrator 26.0.1, SVG Export Plug-In . SVG Version: 6.00 Build 0)  -->
<svg version="1.1" id="Layer_1" xmlns="http://www.w3.org/2000/svg" xmlns:xlink="http://www.w3.org/1999/xlink" x="0px" y="0px"
	 viewBox="0 0 432 648" style="enable-background:new 0 0 432 648;" xml:space="preserve">
<style type="text/css">
	.st0{fill:#E92A2A;}
</style>
<g id="Sartorius__x28_inner_leg_x29__00000102536573613490932600000017041354994911230648_">
	<path class="st0" d="M200.13,376.67c-0.34,1.94-0.66,3.93-0.91,5.79c-0.35,2.79-0.76,6.25-1.06,9.43
		c-0.88-11.95-2.77-24.1-7.65-35.33c-8.07-18.6-15.91-36.72-16.31-57.36c-0.02-1.32,0.07-2.55,0.32-3.85
		c1.13-5.64,4.79,1.32,5.57,2.61c1.4,2.32,2.62,3.91,2.95,6.74c0.16,1.33,0.32,3,0.61,4.33c1.95,9.16,3.73,17.98,7.02,26.8
		c1.51,4.05,3.46,7.89,4.93,11.96c1.66,4.57,2.37,9.66,3.14,14.43c0.77,4.79,1.23,9.32,1.39,14.16L200.13,376.67z"/>
	<path class="st0" d="M216.22,376.43c0.34,1.94,0.63,3.85,0.87,5.71c0.35,2.79,0.76,5.93,1.06,9.11
		c0.88-11.95,2.63-23.76,7.52-34.98c8.07-18.6,16.32-36.72,16.71-57.36c0.02-1.32-0.08-3-0.43-4.27c-1.72-6.24-6.19,3.12-6.3,3.35
		c-1.27,2.4-2.1,4.06-2.42,6.89c-0.16,1.33-0.28,2.58-0.57,3.9c-1.95,9.16-3.65,17.66-6.94,26.48c-1.51,4.05-3.53,7.88-5,11.95
		c-1.66,4.57-2.36,9.99-3.14,14.76C216.81,366.77,216.38,371.59,216.22,376.43"/>
</g>
</svg>
