<?xml version="1.0" encoding="utf-8"?>
<!-- Generator: Adobe Illustrator 26.0.1, SVG Export Plug-In . SVG Version: 6.00 Build 0)  -->
<svg version="1.1" id="Layer_1" xmlns="http://www.w3.org/2000/svg" xmlns:xlink="http://www.w3.org/1999/xlink" x="0px" y="0px"
	 viewBox="0 0 432 648" style="enable-background:new 0 0 432 648;" xml:space="preserve">
<style type="text/css">
	.st0{fill:#E92A2A;}
</style>
<g id="Serratus_Anterior_00000062192938803730653590000015057121707790670772_">
	<path class="st0" d="M184.03,219.52c0.01,1.37-0.54,2.62-1.01,3.86c-0.18,0.46-0.17,1.01-0.74,0.93c-0.48-0.07-0.97-0.58-1.3-0.9
		c-0.48-0.48-0.98-0.94-1.49-1.4c-0.78-0.72-1.66-1.38-2.36-2.17c-1.92-2.14-3.65-4.59-5.06-7.07c2-0.23,3.98-0.71,5.86-1.38
		l0.08,0.1C181.18,213.13,183.98,215.94,184.03,219.52L184.03,219.52z"/>
	<path class="st0" d="M177.12,220.75c-3.3-0.47-6.3-1.87-8.83-4.11l-0.02-0.01c0.06-1.2,0.18-2.5,0.42-3.68
		c0.93,0,1.85-0.03,2.75-0.12c1.2,2.1,2.59,4.22,4.13,6.11C176.07,219.55,176.58,220.16,177.12,220.75L177.12,220.75z"/>
	<path class="st0" d="M182.72,234.76c-0.66,4.29-3.58-1.07-4.71-2.76c-2.18-3.27-3.59-7.32-4.06-11.35
		c1.23,0.43,2.53,0.71,3.86,0.85c0.29,0.3,0.59,0.6,0.88,0.9c0.56,0.55,1.13,1.1,1.71,1.61c0.5,0.46,1.02,1.34,1.75,1.48l0.01,0.01
		C184.31,227.9,183.13,232.01,182.72,234.76L182.72,234.76z"/>
	<path class="st0" d="M175.23,227.91c-2.42-0.75-4.57-2.13-6.27-4.02c-0.53-2.14-0.76-4.31-0.72-6.47c1.53,1.3,3.21,2.29,5.02,2.99
		C173.55,222.97,174.22,225.51,175.23,227.91L175.23,227.91z"/>
	<path class="st0" d="M182.06,245.99c-1.14,0.62-2.1-0.54-2.88-1.22c-0.65-0.58-1.16-1.25-1.68-1.96
		c-2.76-3.83-3.27-9.97-3.14-14.54c0.38,0.15,0.77,0.27,1.18,0.37c1.57,3.5,3.82,6.68,6.58,9.13c0.18,1.65,0.39,3.28,0.56,4.94
		C182.76,243.64,183.1,245.43,182.06,245.99L182.06,245.99z"/>
	<path class="st0" d="M172.68,234.2v-0.01c-0.41-1.3-1-2.88-1.65-4.57c0,0-0.47-1.23-0.63-1.66c-0.35-0.92-0.71-1.84-1.04-2.75
		c1.29,1.2,2.75,2.15,4.36,2.82l-0.01,0.07c-0.07,2.44,0.04,5.13,0.51,7.72C173.69,235.31,173.17,234.77,172.68,234.2L172.68,234.2z
		"/>
	<path class="st0" d="M182.92,256.11c-1.76,0.79-2.83-0.71-3.75-1.92c-2.92-3.84-4.89-8.31-5.71-13.03v-0.02
		c-0.02-2.41-0.09-4.17-0.21-4.86c-0.03-0.2-0.09-0.43-0.16-0.66c0.44,0.45,0.9,0.88,1.38,1.29c0.84,3.68,2.5,7.11,5.52,9.27
		c1.02,0.73,1.76,0.94,2.28,0.79c0.15,0.41,0.29,0.88,0.32,0.97c0.2,0.63,0.37,1.28,0.49,1.92c0.25,1.3,0.37,2.61,0.56,3.92
		C183.78,254.64,183.85,255.69,182.92,256.11L182.92,256.11z"/>
	<path class="st0" d="M183.25,264.24c0.11,0.87-0.43,2.24-1.49,2.09c-0.53-0.07-1.15-0.35-1.61-0.64c-2.79-1.71-5.07-4.18-6.81-6.95
		v-0.01c0.08-4.91,0.16-10.28,0.15-14.57c0.62,2.15,1.46,4.23,2.51,6.27c1.12,2.16,3.47,6.65,6.14,7.39
		c0.4,0.11,0.75,0.11,1.02,0.02c0.1,1.22,0.17,2.45,0.18,3.68C183.34,262.42,183.29,263.33,183.25,264.24L183.25,264.24z"/>
	<path class="st0" d="M231.77,219.54c-0.05,1.37,0.54,2.62,1.01,3.86c0.18,0.46,0.3,1.07,0.87,1c0.48-0.07,1.03-0.66,1.35-0.98
		c0.48-0.48,0.99-0.94,1.49-1.4c0.78-0.72,1.66-1.38,2.36-2.17c1.93-2.14,3.84-5,5.25-7.49c-2-0.24-4.15-0.52-6.03-1.19l-0.18,0.05
		C234.73,212.86,231.92,215.58,231.77,219.54z"/>
	<path class="st0" d="M238.31,220.97c3.3-0.47,6.87-2.08,9.4-4.32l0.02-0.01c-0.06-1.2-0.03-2.84-0.26-4.03
		c-0.93,0-2.04-0.15-2.95-0.24C243.32,214.47,238.31,220.97,238.31,220.97z"/>
	<path class="st0" d="M233.19,235.04c0.66,4.29,3.66-1.33,4.79-3.03c2.18-3.27,3.6-7.32,4.07-11.36c-1.23,0.43-2.73,0.5-4.07,0.65
		c-0.29,0.3-0.59,0.6-0.88,0.9c-0.56,0.55-1.13,1.1-1.71,1.61c-0.5,0.46-0.82,1.13-1.54,1.26l-0.25,0.27
		c-2.15,2.41-0.87,6.69-0.46,9.44L233.19,235.04z"/>
	<path class="st0" d="M240.88,227.93c2.42-0.75,4.82-2.3,6.52-4.19c0.53-2.14,0.5-4.37,0.46-6.53c-1.53,1.3-3.45,2.39-5.26,3.08
		c-0.28,2.55-1.11,5.23-2.12,7.64H240.88z"/>
	<path class="st0" d="M233.88,246.14c1.14,0.62,2.15-0.66,2.93-1.34c0.65-0.58,1.16-1.25,1.68-1.96c2.77-3.83,3.27-10.38,3.15-14.95
		c-0.38,0.15-0.77,0.27-1.18,0.37c-1.57,3.51-4.02,6.69-6.79,9.14c-0.18,1.65-0.39,3.69-0.56,5.34c-0.09,0.93-0.4,2.72,0.65,3.28
		L233.88,246.14z"/>
	<path class="st0" d="M243.27,234.22l0.58-0.71c0.41-1.3,1.61-4.48,1.61-4.48s1.45-3.89,1.79-4.8c-1.29,1.2-2.87,2.38-4.48,3.05
		l-0.7,0.44c0.07,2.44,0,5.52-0.47,8.12c0.55-0.52,0.93-0.82,1.42-1.39L243.27,234.22z"/>
	<path class="st0" d="M232.86,256.35c1.76,0.8,3.04-0.91,3.95-2.13c2.92-3.84,4.88-7.88,5.7-12.59l0.5-2.19
		c0.02-2.41-0.03-2.91,0.09-3.59c0.03-0.2,0.22-0.87,0.29-1.11c-0.44,0.45-1.6,1.38-2.08,1.79c-0.84,3.68-2.35,7-5.37,9.16
		c-1.02,0.73-1.83,0.98-2.36,0.83c-0.15,0.41-0.37,1.36-0.4,1.45c-0.2,0.63-0.37,1.28-0.49,1.93c-0.25,1.3-0.37,2.61-0.56,3.92
		c-0.13,0.85,0,2.11,0.93,2.53H232.86z"/>
	<path class="st0" d="M232.74,264.24c-0.11,0.87,0.43,2.24,1.49,2.09c0.53-0.07,1.15-0.35,1.61-0.64c2.79-1.71,5.01-3.89,7.16-7.39
		c0,0-0.22-11.7-0.21-15.99c-0.62,2.15-1.74,5.67-2.79,7.71c-1.12,2.16-3.47,6.65-6.14,7.39c-0.4,0.11-0.75,0.11-1.02,0.02
		c-0.1,1.22-0.17,2.86-0.18,4.09C232.65,262.42,232.7,263.33,232.74,264.24L232.74,264.24z"/>
</g>
</svg>
