<?xml version="1.0" encoding="utf-8"?>
<!-- Generator: Adobe Illustrator 26.0.1, SVG Export Plug-In . SVG Version: 6.00 Build 0)  -->
<svg version="1.1" id="Layer_1" xmlns="http://www.w3.org/2000/svg" xmlns:xlink="http://www.w3.org/1999/xlink" x="0px" y="0px"
	 viewBox="0 0 432 648" style="enable-background:new 0 0 432 648;" xml:space="preserve">
<style type="text/css">
	.st0{display:none;opacity:0.5;fill:none;stroke:#231F20;stroke-width:0.05;stroke-miterlimit:10;}
	.st1{fill:#FFFFFF;}
	.st2{fill:#E92A2A;}
	.st3{fill:#D52626;}
</style>
<path class="st0" d="M418.44,444.92c-2.94,1.51-8.31,5.17-9.04,17.27"/>
<g id="Front_00000100374544795799336940000013424984263302938500_">
	<g>
		<g>
			<g>
				<g>
					<path class="st1" d="M298.08,259.36v-8.6c0-6.22-3.44-12.84-5.59-16.37c2.12-7.1,2.15-24.11,0.99-31.99
						c-0.7-4.8-4.04-8.7-5.69-11.21c0.03-0.19,0.07-0.39,0.1-0.58c0.91-5.8-3.03-20.02-5.39-26.02c-1.57-3.98-4.84-5.49-7.47-6.7
						c-1.42-0.66-2.65-1.22-3.34-2.03c-1.77-2.07-3.54-2.64-5.1-3.14c-0.41-0.13-0.81-0.26-1.19-0.41c-0.6-0.24-1.13-0.72-1.93-1.45
						c-1.36-1.24-3.42-3.11-7.83-5.67c-2.42-1.4-5.83-3.03-9.43-4.76c-5.91-2.83-12.8-6.09-14.45-8.12c-1.5-1.85-1.66-7.7-1.67-9.63
						c0.71-1.81,0.79-4.67,0.77-6.33c0.3,0.14,0.66,0.22,1.09,0.16c1.47-0.18,2.85-2.47,4.5-5.45c0.46-0.84,0.9-1.62,1.24-2.1
						c1.43-2.04,1.12-6.46,0.07-9.76c-0.3-0.97-0.82-1.52-1.54-1.65c-0.98-0.18-2.06,0.57-2.83,1.28
						c0.15-4.12,0.09-15.72-4.67-21.43c-4.1-4.92-12.3-6.14-15.4-6.43l-1.22,0c-3.11,0.29-11.31,1.52-15.4,6.43
						c-4.76,5.71-4.81,17.31-4.67,21.43c-0.77-0.71-1.85-1.45-2.83-1.28c-0.72,0.13-1.24,0.69-1.54,1.65
						c-1.05,3.31-1.36,7.72,0.07,9.76c0.33,0.48,0.77,1.27,1.24,2.1c1.65,2.98,3.03,5.27,4.5,5.45c0.43,0.05,0.8-0.02,1.09-0.16
						c-0.03,1.83,0.07,5.12,1,6.85c0,0,0,0.01,0.01,0.01c-0.04,1.36-0.33,7.18-1.91,9.14c-1.64,2.03-8.34,5.23-14.24,8.06
						c-3.61,1.73-7.01,3.36-9.43,4.76c-4.41,2.56-6.47,4.43-7.83,5.67c-0.8,0.73-1.33,1.21-1.93,1.45
						c-0.38,0.15-0.78,0.28-1.19,0.41c-1.56,0.5-3.32,1.07-5.1,3.14c-0.69,0.81-1.92,1.37-3.34,2.03c-2.63,1.21-5.9,2.72-7.47,6.7
						c-2.36,6-6.3,20.22-5.39,26.02c0.06,0.42,0.13,0.82,0.21,1.22c-1.67,2.49-4.67,6.11-5.35,10.78c-1.15,7.84-1.28,24.2,0.8,31.36
						c-2.11,3.39-5.85,10.31-5.85,16.79v8.6c-0.6,0.97-3.7,6.58-3.04,17.53c0.25,4.2,0.72,8.07,1.22,12.16
						c0.89,7.3,3.86,15.56,3.52,25.33c-0.53,14.89-0.31,29.09,0.28,31.83c0.54,2.51,5.19,14.75,5.38,15.27l0.17,0.45l0.47-0.12
						c0.03-0.01,2.81-0.8,3.06-4.48l1.49,1.69l0.39-0.55c0.09-0.12,1.4-1.98,1.77-4.28c0.83-1.4,2.55-4.99,0.55-8.03
						c-2.27-3.46-6.02-10.62-6.06-10.69l0,0c-0.01-0.24-0.03-0.45-0.06-0.59c0.56-4.25,0-5.8,1.58-6.4c0.13-0.05,0.2-0.03,0.28,0.02
						c1.15,0.74,1.42,2.72,1.7,4.82c0.27,1.96,0.54,3.99,1.54,5.57c1.17,1.85,2.98,4.25,5.08,2.5c1.39-1.15,0.17-9.07-0.16-11.41
						c-0.42-2.93-0.42-3.75-1.58-8.4c-0.74-2.96-1.18-4.49-1.37-5.86c-0.1-1.13,0.19-5.82,0.62-9.25c0.49-3.94,2.93-10.38,5.5-17.21
						c2.95-7.79,5.99-15.85,6.19-20.53c0.3-7.25-0.65-10.84-1-11.88c0.61-0.74,2.32-3,2.78-5.93c0.54-3.41,0.37-9.32,0.36-9.47
						c0.02-0.1,1.8-10.32,4.75-15c2.24-3.55,5.54-10.52,6.94-14.16c0.51,3.6,1.08,6.82,1.66,8.55c0.73,2.19,1.65,4.61,2.55,6.96
						c1.28,3.35,2.48,6.51,2.79,8.16c0.44,2.34,0.13,19.55,0.03,25.21c-0.02,1.21-0.04,2.01-0.04,2.21c0,0.01,0,0.01-0.01,0.02
						c-0.11,0.11-0.19,0.3-0.22,0.5c-0.23,0.41-0.58,0.97-0.91,1.5c-1.78,2.81-4.76,7.5-4.19,12.13c0.64,5.16,1.42,7.32,1.71,7.97
						c-0.59,1.86-4.91,15.99-4.24,26.18c0.23,3.55-1.17,9.1-2.93,16.12c-2.28,9.05-6.59,29.89-7.55,42.89
						c-1.42,19.23,4.1,41.24,5.62,53.13c0.33,2.55,0.54,4.23,0.57,4.74c0.07,1.26-0.04,2.12-0.18,3.13
						c-0.18,1.36-0.39,2.91-0.18,5.82c0.02,0.29,0.07,0.61,0.14,0.96c-0.74,1.67-7.29,16.71-7.46,26.52
						c-0.08,4.79,1.45,15.43,3.08,26.7c1.47,10.2,2.87,20.74,3.32,27.25l0.01,0.17c0.04,0.55,0.07,1.06,0.09,1.55
						c0.07,3.49-0.27,10.44-0.49,11.12c-0.52,1.59-1.01,3.11-0.97,5.46c-0.14,0.14-0.28,0.27-0.43,0.39
						c-1.93,1.65-2.71,3.87-3.46,6.01c-0.25,0.7-0.48,1.37-0.75,2c-1.04,2.43-10.26,10.04-11.53,10.83
						c-0.99,0.62-3.51,4.31-3.51,4.31c-0.94,1.01-0.65,2.67-0.46,3.77c0.03,0.2,0.07,0.38,0.09,0.54c0.08,0.59,0.26,0.99,0.4,1.31
						c0.13,0.28,0.22,0.49,0.22,0.74c0.01,0.35-0.05,0.75-0.1,1.15c-0.05,0.36-0.1,0.72-0.11,1.06c-0.01,0.61,0.02,2.09,0.62,2.58
						c0.34,0.28,0.66,0.48,1.14,0.57c-0.05,0.15-0.12,0.35-0.2,0.6c-0.37,1.09,0.45,2.2,1.05,2.65c0.43,0.32,1.12,0.35,1.59,0.32
						c0,0.09,0.02,0.15,0.03,0.2c0.07,0.77,0.33,1.83,1.32,2.3c1,0.47,1.51,0.36,2.1,0.08c1.15,1.58,3.48,2.55,5.58,2.35
						c0.27-0.03,0.54-0.07,0.8-0.14c2.16-0.55,4.87-2.42,5.88-4.91c0.81-2,1.98-2.66,3.03-3.12c4.31-1.36,6.66-6.16,7.29-10.62
						c0.55-3.93,3.08-8.22,3.73-9.1c3.01-1.26,4.79-2.86,6.33-5.12c1.62-2.38,1.68-3.89,1.23-5.86c-0.43-1.87-1.6-10.69-2.01-12.06
						c-0.36-1.2-0.52-2.42-0.8-3.92c-0.87-4.65,4.9-28.65,6.59-33.32c0.65-1.79,1.58-3.74,2.66-6.01c1.83-3.84,4.11-8.61,5.93-14.66
						c2.75-9.15-1.59-29.38-2.12-31.77c1.6-2.8,3.02-5.71,4.25-8.67c0.99-2.37,1.91-4.83,2.38-7.37c0.69-3.74,1.28-10.83,1.97-19.03
						c0.61-7.25,1.3-15.46,2.14-22.01c1.04-8.09,3.18-17.23,4.9-24.57c1.18-5.02,2.19-9.36,2.53-11.98
						c0.62-4.89,0.01-9.76-0.34-11.89c0.38,0.04,1.49,0.05,1.76,0c-0.35,2.13-0.96,7-0.34,11.9c0.33,2.62,1.35,6.95,2.53,11.98
						c1.72,7.34,3.86,16.48,4.9,24.57c0.84,6.56,1.53,14.77,2.14,22.01c0.69,8.2,1.29,15.28,1.97,19.03c0.47,2.54,1.39,5,2.38,7.37
						c1.23,2.96,2.65,5.87,4.25,8.67c-0.53,2.39-4.88,22.63-2.12,31.77c1.82,6.04,4.1,10.82,5.93,14.66
						c1.08,2.27,2.01,4.22,2.66,6.01c1.69,4.67,7.47,28.67,6.59,33.32c-0.28,1.49-0.44,2.72-0.8,3.92
						c-0.41,1.37-1.58,10.18-2.01,12.06c-0.45,1.97-0.39,3.48,1.23,5.86c1.54,2.26,3.33,3.86,6.33,5.12
						c0.66,0.88,3.18,5.17,3.73,9.1c0.63,4.46,2.98,9.26,7.29,10.62c1.04,0.46,2.22,1.11,3.03,3.12c1,2.5,3.72,4.36,5.88,4.91
						c0.26,0.07,0.53,0.11,0.8,0.14c2.1,0.2,4.43-0.77,5.58-2.35c0.59,0.28,1.1,0.4,2.1-0.08c1.08-0.51,1.29-1.73,1.34-2.5
						c0.47,0.03,1.17,0,1.6-0.32c0.6-0.45,1.42-1.56,1.05-2.65c-0.08-0.23-0.14-0.41-0.19-0.56l0,0c0-0.01-0.01-0.02-0.01-0.04
						c0.47-0.09,0.79-0.28,1.13-0.57c0.59-0.49,0.63-1.97,0.62-2.58c-0.01-0.34-0.06-0.71-0.11-1.06c-0.05-0.39-0.11-0.8-0.1-1.15
						c0-0.26,0.1-0.46,0.22-0.74c0.14-0.32,0.32-0.73,0.4-1.31c0.02-0.16,0.05-0.34,0.09-0.54c0.19-1.1,0.48-2.76-0.46-3.77
						c0,0-2.51-3.69-3.51-4.31c-1.27-0.8-10.49-8.4-11.53-10.83c-0.27-0.63-0.5-1.3-0.75-2c-0.76-2.15-1.54-4.37-3.46-6.01
						c-0.14-0.12-0.28-0.25-0.43-0.39c0.04-2.35-0.45-3.86-0.97-5.46c-0.22-0.68-0.56-7.63-0.49-11.12c0.02-0.48,0.05-1,0.09-1.55
						c0.01-0.06,0.02-0.12,0.03-0.17l-0.02,0c0.45-6.51,1.85-17.05,3.32-27.25c1.63-11.26,3.16-21.9,3.08-26.7
						c-0.17-9.75-6.63-24.65-7.45-26.48c0.09-0.41,0.15-0.8,0.17-1.14c0.21-2.91,0-4.45-0.18-5.82c-0.13-1-0.25-1.87-0.18-3.13
						c0.03-0.51,0.25-2.19,0.57-4.74c1.52-11.89,7.04-33.9,5.62-53.13c-0.96-13-5.27-33.84-7.55-42.89
						c-1.77-7.02-3.17-12.57-2.93-16.12c0.66-10.19-3.65-24.32-4.24-26.18c0.28-0.65,1.07-2.81,1.71-7.97
						c0.57-4.63-2.41-9.33-4.19-12.13c-0.52-0.82-1.12-1.76-1.14-2.02c0-0.2-0.01-1-0.04-2.21c-0.1-5.66-0.41-22.87,0.03-25.21
						c0.31-1.65,1.52-4.81,2.79-8.16c0.9-2.35,1.82-4.77,2.55-6.96c0.56-1.67,1.08-4.77,1.58-8.23c0-0.01,0-0.01,0-0.02
						c1.43,3.56,4.64,10.09,6.71,13.76c3.65,6.47,4.91,17.02,5.11,24.46c0.08,2.96,2.17,5.19,2.78,5.93c-0.34,1.04-1.3,4.64-1,11.88
						c0.19,4.68,3.24,12.73,6.19,20.53c2.58,6.82,5.01,13.27,5.5,17.21c0.35,2.84,0.7,4.68,0.73,6.08c0.02,1.34,0.01,2.69-0.12,4.04
						c-0.12,1.25-0.64,2.72-1.27,5.24c-1.16,4.64-1.16,5.47-1.58,8.4c-0.34,2.34-1.55,10.26-0.16,11.41
						c2.11,1.75,3.91-0.65,5.08-2.5c1-1.58,1.27-3.61,1.54-5.57c0.28-2.1,0.55-4.08,1.7-4.82c0.08-0.05,0.15-0.07,0.28-0.02
						c1.59,0.6,1.03,2.14,1.58,6.4c-0.03,0.15-0.05,0.35-0.06,0.59l0,0c-0.04,0.07-3.79,7.23-6.06,10.69
						c-2,3.04-0.28,6.64,0.55,8.03c0.37,2.3,1.68,4.16,1.77,4.28l0.39,0.55l1.49-1.69c0.24,3.68,3.03,4.47,3.06,4.48l0.47,0.12
						l0.17-0.45c0.2-0.52,4.85-12.76,5.38-15.27c0.59-2.74,0.8-16.95,0.28-31.83c-0.34-9.77,2.63-18.03,3.52-25.33
						c0.5-4.1,0.97-7.96,1.22-12.16C301.78,265.94,298.68,260.32,298.08,259.36z"/>
				</g>
			</g>
		</g>
	</g>
</g>
<g id="Soleus_00000125583242798939235050000004133527487172104895_">
	<path class="st2" d="M242.51,508.39c1.75,7.88,3.23,15.2,2.72,17.89c-0.07,0.39,0.06,1.95-0.23,2.19
		c4.81-4.02,4.83-12.04,4.85-18.03c0.01-0.88,0.01-1.73,0.02-2.55c0.1-5.39,0.27-17.71-0.48-22.91c-3.77,9.01-4.82,8.76-9.21,12.22
		l2.26,9.96L242.51,508.39z"/>
	<path class="st2" d="M183.22,508.46c-1.75,7.88-3.23,15.2-2.72,17.89c0.07,0.39-0.06,1.95,0.23,2.19
		c-4.81-4.02-4.83-12.04-4.85-18.03c-0.01-0.88-0.01-1.73-0.02-2.55c-0.1-5.39-0.27-17.71,0.48-22.91
		c3.77,9.01,4.82,8.76,9.21,12.22l-2.26,9.96L183.22,508.46z"/>
	<path class="st3" d="M183.4,507.13c-6.73-5-6.97-15.12-6.69-23.19c0.01-0.41-0.63-0.41-0.64,0c-0.29,8.39,0.11,18.79,7.18,23.86
		C183.29,507.58,183.35,507.35,183.4,507.13L183.4,507.13z"/>
	<path class="st3" d="M242.45,507.13c6.73-5,6.97-15.12,6.69-23.19c-0.01-0.41,0.63-0.41,0.64,0c0.29,8.39-0.11,18.79-7.18,23.86
		C242.57,507.58,242.5,507.35,242.45,507.13L242.45,507.13z"/>
</g>
</svg>
