<?xml version="1.0" encoding="utf-8"?>
<!-- Generator: Adobe Illustrator 26.0.1, SVG Export Plug-In . SVG Version: 6.00 Build 0)  -->
<svg version="1.1" id="Layer_1" xmlns="http://www.w3.org/2000/svg" xmlns:xlink="http://www.w3.org/1999/xlink" x="0px" y="0px"
	 viewBox="0 0 432 648" style="enable-background:new 0 0 432 648;" xml:space="preserve">
<style type="text/css">
	.st0{fill:#E92A2A;}
</style>
<g id="Scm_00000162322887259074223320000005134647122668849332_">
	<path class="st0" d="M199.33,167.24c1.48-3.85,7.36-19.45,9.21-23.92c2.1-5.08,3.43-16.23,3.43-16.32v-0.16
		c-0.09-0.86,0.02-2.26-0.03-2.9c-0.8,0.87-2.5,2.08-3.81,3.21l-0.21,0.53c-2.11,7.3-4.13,12.4-5.81,16.48
		c-1.14,2.78-2.14,5.19-2.85,7.6c-1.41,4.81-0.72,10.6-0.33,13.16L199.33,167.24z"/>
	<path class="st0" d="M191.64,166.11c0.39-2.56,1.13-9.4-0.29-14.21c-0.71-2.41-1.72-5-2.86-7.78c-1.68-4.08-3.69-8.84-5.79-16.14
		l-0.15-0.35c-1.31-1.12-2.53-2.21-3.33-3.09c-0.04,0.64-0.18,1.61-0.27,2.47v0.16c0,0.09,1.14,10.88,3.24,15.96
		c1.85,4.46,7.68,19.75,9.16,23.59L191.64,166.11z"/>
</g>
</svg>
