<?xml version="1.0" encoding="utf-8"?>
<!-- Generator: Adobe Illustrator 26.0.1, SVG Export Plug-In . SVG Version: 6.00 Build 0)  -->
<svg version="1.1" id="Layer_1" xmlns="http://www.w3.org/2000/svg" xmlns:xlink="http://www.w3.org/1999/xlink" x="0px" y="0px"
	 viewBox="0 0 432 648" style="enable-background:new 0 0 432 648;" xml:space="preserve">
<style type="text/css">
	.st0{fill:#E92A2A;}
	.st1{fill:#D52626;}
</style>
<path class="st0" d="M171.87,308.16c-0.98,7.16-2.28,16.96-9.05,20.74c0.05-0.25,0.12-0.48,0.17-0.73
	c1.71-7.08,3.07-12.68,2.81-16.39c-0.54-7.27,1.59-17.37,2.95-22.62c4.23,4.53,4.09,11.73,3.27,17.74L171.87,308.16z"/>
<path class="st1" d="M169.69,318.6c-0.02-0.03-0.04-0.07-0.04-0.1c-2.15-8.9-1.92-18.22,0.52-27.07c0.16,0.27,0.33,0.53,0.47,0.81
	c-2.18,8.28-2.44,16.73-0.6,25.04C169.92,317.72,169.81,318.16,169.69,318.6"/>
<path class="st1" d="M167.1,324.72c-0.8-2.39-1.37-4.85-1.72-7.34c0.05-0.3,0.1-0.59,0.14-0.88c0.07-0.47,0.13-0.92,0.18-1.36
	c0.17,1.75,0.41,3.75,0.91,5.66c0.1,0.37,0.23,0.79,0.37,1.23c0.2,0.61,0.42,1.29,0.57,1.96
	C167.39,324.24,167.25,324.48,167.1,324.72"/>
<path class="st0" d="M244.88,307.1c-0.74-6.92-1.17-14.09,2.98-18.7c1.45,5.22,3.72,15.35,3.3,22.63
	c-0.2,3.71,3.23,12.33,3.41,17.48C249.74,327.31,246.21,319.46,244.88,307.1z"/>
<path class="st1" d="M249.89,323.99c0.76-2.4,1.41-5.36,1.71-7.86c-0.05-0.3-0.06-0.66-0.1-0.95c-0.08-0.47-0.19-0.84-0.25-1.28
	c-0.14,1.75-0.46,4.24-0.93,6.16c-0.09,0.38-0.22,0.79-0.35,1.24c-0.19,0.61-0.39,1.29-0.53,1.97
	C249.58,323.51,249.73,323.75,249.89,323.99"/>
<path class="st1" d="M246.97,317.87c0.02-0.03,0.03-0.07,0.04-0.11c1.99-8.94,1.69-17.93-0.91-26.73c-0.16,0.27-0.3,0.55-0.44,0.84
	c2.33,8.24,2.63,16.34,0.94,24.68C246.71,317,246.84,317.44,246.97,317.87"/>
</svg>
