<?xml version="1.0" encoding="utf-8"?>
<!-- Generator: Adobe Illustrator 26.0.1, SVG Export Plug-In . SVG Version: 6.00 Build 0)  -->
<svg version="1.1" id="Layer_1" xmlns="http://www.w3.org/2000/svg" xmlns:xlink="http://www.w3.org/1999/xlink" x="0px" y="0px"
	 viewBox="0 0 432 648" style="enable-background:new 0 0 432 648;" xml:space="preserve">
<style type="text/css">
	.st0{fill:#E92A2A;}
	.st1{fill:#D52626;}
</style>
<g id="Front_traps">
	<path class="st0" d="M211,136.52v0.01c4.38,3.9,6.48,10.03,9.59,14.89c6.29,9.85,17.99,3.5,26.93,2.08
		c-0.46-0.31-1.49-1.03-2.05-1.53c-1.32-1.21-3.32-3.02-7.61-5.5c-2.37-1.38-6.1-3.22-9.67-4.94c-6.27-3-12.33-5.97-14.12-8.17
		c-0.72-0.88-1.15-2.87-1.47-4.51c-0.02-0.1-0.38-0.12-0.4-0.22C211.97,130.3,211.5,133.88,211,136.52"/>
	<path class="st1" d="M234.53,156.52c-10.13-4.36-18.03-13.68-21.4-24.19c0.14,0.27,0.81,1.32,1.1,1.58
		c3.67,9.89,11.49,18.37,21.36,22.32c-0.39,0.08-0.31,0.27-0.7,0.34L234.53,156.52z"/>
	<path class="st1" d="M238.77,155.83c0.51-0.13,0.36-0.36,0.87-0.49c-8.71-1.25-14.31-9.53-18.41-17.01
		c-0.35-0.18-0.7-0.36-1.04-0.54c4.23,7.84,9.56,16.02,17.91,17.94L238.77,155.83z"/>
	<path class="st1" d="M242.82,154.58c0.34-0.08,0.63-0.2,0.96-0.28c-4.94-2.29-9.53-6.48-12.5-11.04c-0.37-0.18-0.72-0.36-1.09-0.54
		c2.93,4.86,7.31,9.24,12.36,11.74L242.82,154.58z"/>
	<path class="st0" d="M180.24,136c-0.5-2.64-0.98-5.32-1.2-6.99c-0.31,1.67-1.32,3.96-2.08,4.9c-1.79,2.2-8,4.83-14.27,7.83
		c-3.57,1.71-6.93,3.33-9.3,4.71c-4.29,2.48-7.32,4.61-8.64,5.82c-0.56,0.5-1.11,1.01-1.57,1.32c8.94,1.42,20.99,7.91,27.28-1.94
		c3.11-4.85,5.5-11.22,9.88-15.12L180.24,136z"/>
	<path class="st1" d="M156.72,156.44c10.13-4.36,17.76-12.75,21.13-23.27c-0.14,0.27-0.3,0.51-0.46,0.71
		c-0.19,0.24-0.44,0.48-0.73,0.74c-3.67,9.89-11.23,17.66-21.11,21.6C155.93,156.3,156.33,156.38,156.72,156.44"/>
	<path class="st1" d="M153.21,155.7c8.35-1.92,13.24-9.52,17.47-17.36c-0.34,0.18-0.69,0.36-1.04,0.54
		c-4.1,7.49-9.25,15.19-17.96,16.44C152.19,155.45,152.7,155.58,153.21,155.7"/>
	<path class="st1" d="M148.47,154.49c5.05-2.5,9.23-6.36,12.15-11.22c-0.37,0.18-0.74,0.36-1.11,0.54
		c-2.97,4.56-7.11,8.15-12.05,10.44C147.8,154.32,148.13,154.4,148.47,154.49"/>
</g>
</svg>
