<?xml version="1.0" encoding="utf-8"?>
<!-- Generator: Adobe Illustrator 26.0.1, SVG Export Plug-In . SVG Version: 6.00 Build 0)  -->
<svg version="1.1" id="Layer_1" xmlns="http://www.w3.org/2000/svg" xmlns:xlink="http://www.w3.org/1999/xlink" x="0px" y="0px"
	 viewBox="0 0 432 648" style="enable-background:new 0 0 432 648;" xml:space="preserve">
<style type="text/css">
	.st0{fill:#E92A2A;}
</style>
<g id="triceps_lateral_head_00000090983769020583750540000007371036915586868867_">
	<path class="st0" d="M116.8,234.37c-2.42-10.19-1.55-17.12-1.38-25.06c0.22-10.43,0.09-9.15,5.81-17.63
		c0.3,2.56,2.26,9.36,2.26,9.36s-4.26,9.86-5.43,31.24C117.89,232.53,116.8,234.37,116.8,234.37z"/>
	<path class="st0" d="M274.48,234.49c2.42-10.19,1.55-17.12,1.38-25.06c-0.22-10.43-0.09-9.15-5.81-17.63
		c-0.3,2.56-2.32,9.03-2.32,9.03s4.33,10.19,5.5,31.57C273.4,232.65,274.48,234.49,274.48,234.49z"/>
</g>
</svg>
