<?xml version="1.0" encoding="utf-8"?>
<!-- Generator: Adobe Illustrator 26.0.1, SVG Export Plug-In . SVG Version: 6.00 Build 0)  -->
<svg version="1.1" id="Layer_1" xmlns="http://www.w3.org/2000/svg" xmlns:xlink="http://www.w3.org/1999/xlink" x="0px" y="0px"
	 viewBox="0 0 432 648" style="enable-background:new 0 0 432 648;" xml:space="preserve">
<style type="text/css">
	.st0{fill:#E92A2A;}
</style>
<g id="Triceps_long_head_00000155138620430681102690000016234797157449072260_">
	<path class="st0" d="M240.62,197.37c0,0,4.96,41.72,23.28,58.32c0.18,0.47-3.51,7.59-3.51,7.59s-4.45-4.94-6.24-6.22
		c-3.04-2.17-4.2-2.06-3.87-14.45c-0.33-2.5-1.58-10.73-3.49-13.81s-8.57-17.22-8.57-17.22l1.33-12.97L240.62,197.37z"/>
	<path class="st0" d="M151.1,197.53c0,0-4.97,42.02-23.28,58.62c-0.18,0.47,3.33,7.19,3.33,7.19l6.21-5.84c0,0,4.22-2.44,3.89-14.83
		c0.33-2.5,1.58-10.73,3.49-13.81s8.57-17.22,8.57-17.22l-1.33-12.97L151.1,197.53z"/>
</g>
</svg>
