<?xml version="1.0" encoding="utf-8"?>
<!-- Generator: Adobe Illustrator 26.0.1, SVG Export Plug-In . SVG Version: 6.00 Build 0)  -->
<svg version="1.1" id="Layer_1" xmlns="http://www.w3.org/2000/svg" xmlns:xlink="http://www.w3.org/1999/xlink" x="0px" y="0px"
	 viewBox="0 0 432 648" style="enable-background:new 0 0 432 648;" xml:space="preserve">
<style type="text/css">
	.st0{fill:#E92A2A;}
	.st1{fill:#D52626;}
	.st2{fill:#9A1A1C;}
	.st3{fill:#8D1819;}
</style>
<g id="Inner_quads_00000060714215796229339310000011678859081004113842_">
	<g>
		<path class="st0" d="M199.52,394.32c-0.39-7.47-1.21-13.48-2.61-20.86c-1.03-5.42-3.02-11.32-5.18-16.36
			c-3.46,11.99-11.6,23.11-14.38,35.31c-1.51,6.65-1.64,14.04,1.85,20.2c3.23,5.69,11.63,12.83,18.12,7.73
			c0.49-3.98,2.05-21.59,2.33-24.61L199.52,394.32z"/>
		<path class="st1" d="M184.21,415.35c-1.15,0-2.32-0.16-3.52-0.49c-0.22-0.29-0.43-0.58-0.63-0.88c1.42,0.47,2.81,0.71,4.17,0.71
			c4.24,0,8.15-2.31,11.63-6.87c-0.03,0.38-0.06,0.76-0.1,1.14C192.28,413.2,188.41,415.35,184.21,415.35"/>
		<path class="st1" d="M187.69,419.03L187.69,419.03c-1.16,0-2.33-0.16-3.5-0.48c-0.41-0.34-0.81-0.71-1.19-1.08
			c1.58,0.62,3.17,0.93,4.74,0.93c1.87,0,3.72-0.43,5.55-1.29c-0.25,0.36-0.52,0.7-0.83,1.02
			C190.88,418.73,189.29,419.03,187.69,419.03 M197.5,415.02c0.02-0.25,0.05-0.5,0.07-0.75c0,0,0,0,0,0
			C197.54,414.52,197.52,414.77,197.5,415.02"/>
		<path class="st1" d="M176.61,398.3c0.03-0.3,0.06-0.59,0.09-0.89c11.28-8.78,13.77-23.51,15.45-38.76
			c0.17,0.42,0.35,0.83,0.52,1.25C190.96,375.01,188.3,389.55,176.61,398.3"/>
		<path class="st1" d="M176.5,402.47c-0.01-0.23-0.02-0.45-0.02-0.68c7.2-1.65,12.78-10.62,16.38-17.27
			c1.62-2.99,3.12-6.36,4.28-9.5l0.1,0.24c0.08,0.45,0.06,0.63,0.13,1.08c-1.99,5.18-4.61,10.18-7.6,14.33l-0.47,0.65
			C185.96,395.98,182.18,401.25,176.5,402.47"/>
		<path class="st1" d="M176.94,406.37c-0.04-0.22-0.08-0.43-0.12-0.65c12.55-0.6,19.39-17.33,21.31-22.86
			c0.06,0.5,0.11,0.99,0.17,1.49C196.01,390.46,189.1,405.72,176.94,406.37"/>
		<path class="st1" d="M178.1,410.31c-0.09-0.22-0.17-0.43-0.25-0.65c10.7-0.12,16.21-8.58,19.46-16.52
			c-0.12,0.8-0.23,1.59-0.34,2.39C193.6,402.83,188.1,410.08,178.1,410.31 M198.87,390.85c-0.04-0.53-0.08-1.06-0.12-1.59
			c0-0.01,0-0.01,0.01-0.01c0.04,0.53,0.08,1.07,0.12,1.6C198.87,390.84,198.87,390.84,198.87,390.85"/>
		<path class="st2" d="M192,421.91c-0.96,0-1.91-0.17-2.85-0.48c-0.77-0.25-1.52-0.59-2.25-1c1.86-0.03,3.67-0.54,5.09-1.84
			c0.16-0.15,0.32-0.31,0.47-0.47c1.7-0.65,3.49-1.72,5.14-3.06c-0.18,1.83-0.31,3.59-0.49,5.05
			C195.52,421.37,193.68,421.91,192,421.91 M193.29,417.11c1.59-2.28,2.18-5.23,2.47-8.14c0.89-1.09,1.91-2.59,2.75-3.95
			c-0.11,1.28-0.22,2.86-0.32,4.09c-0.16,1.82-0.3,3.37-0.45,5.01C196.32,415.33,194.73,416.43,193.29,417.11 M195.85,407.82
			c0.11-1.39,0.16-2.75,0.24-4c0.18-2.78,0.49-5.54,0.86-8.29c0.73-1.58,1.44-3.38,1.99-4.9c0.06,0.83,0.23,1.77,0.28,2.6
			c0.05,0.8,0.07,1.71,0.11,2.51c-0.14,1.54-0.27,3.18-0.39,4.7c-0.1,1.18-0.23,1.99-0.33,3.14
			C197.77,405.06,196.76,406.64,195.85,407.82 M197.3,393.14c0.36-2.4,0.83-5.13,1.23-7.53c0.11,1.1,0.22,2.3,0.31,3.4
			C198.41,390.27,197.84,391.82,197.3,393.14"/>
		<path class="st3" d="M195.76,408.96c0.04-0.38,0.07-0.76,0.1-1.14c0.9-1.18,1.9-2.72,2.74-4.2c-0.03,0.3-0.03,1.15-0.04,1.34
			C197.71,406.31,196.65,407.87,195.76,408.96"/>
		<path class="st3" d="M192.46,418.13c0.3-0.32,0.58-0.66,0.83-1.02c1.45-0.68,3-1.76,4.41-2.97c-0.02,0.25-0.05,0.88-0.06,0.92
			C195.99,416.4,194.16,417.48,192.46,418.13"/>
		<path class="st3" d="M196.96,395.53c0.11-0.8,0.22-1.6,0.34-2.39c0.54-1.32,1.1-2.87,1.53-4.13c0.04,0.53,0.11,1,0.15,1.53
			C198.43,392.06,197.69,393.95,196.96,395.53"/>
	</g>
	<g id="Inner_quads_00000098215498317472514820000007772200802408435379_">
		<path class="st0" d="M219.66,395.89c0.14,3.03,0.73,5.95,0.98,8.83c0.49,5.85,0.96,11.45,1.45,15.42
			c6.48,5.1,14.52-1.84,17.75-7.53c3.49-6.16,3.44-13.57,1.93-20.22c-2.78-12.21-12.11-27.89-14.44-35.32
			C223.55,362.81,219.09,383.4,219.66,395.89z"/>
		<path class="st1" d="M234.84,415.35c1.15,0,2.32-0.16,3.52-0.49c0.22-0.29,0.43-0.58,0.63-0.88c-1.42,0.47-2.81,0.71-4.17,0.71
			c-4.24,0-8.15-2.31-11.63-6.87c0.03,0.38,0.06,0.76,0.1,1.14C226.77,413.2,230.64,415.35,234.84,415.35"/>
		<path class="st1" d="M231.36,419.03c-1.6,0-3.2-0.3-4.77-0.9c-0.3-0.32-0.58-0.66-0.83-1.02c1.83,0.86,3.68,1.29,5.55,1.29
			c1.58,0,3.16-0.31,4.74-0.93c-0.38,0.37-0.78,0.74-1.19,1.08C233.69,418.87,232.52,419.03,231.36,419.03L231.36,419.03
			 M221.55,415.02c-0.02-0.25-0.05-0.5-0.07-0.75c0,0,0,0,0,0C221.5,414.52,221.53,414.77,221.55,415.02"/>
		<path class="st1" d="M242.59,398.41c-0.03-0.3-0.06-0.59-0.09-0.89c-11.28-8.78-14.03-23.59-15.71-38.84
			c-0.17,0.42-0.35,0.83-0.52,1.25c1.71,15.1,4.47,29.61,16.16,38.37"/>
		<path class="st1" d="M242.28,402.51c-5.68-1.22-9.19-6.52-12.54-11.18l-0.47-0.65c-2.99-4.15-5.52-8.88-7.51-14.06
			c0.07-0.45,0.15-0.9,0.23-1.35l0,0.01c1.16,3.14,2.57,6.25,4.19,9.24c3.6,6.65,9.4,15.67,16.59,17.32c0,0.23-0.08,0.51-0.09,0.73
			L242.28,402.51z"/>
		<path class="st1" d="M242.25,405.71c-12.55-0.6-19.42-17.32-21.34-22.86c-0.06,0.5-0.11,0.99-0.17,1.49
			c2.28,6.11,9.22,21.38,21.39,22.03C242.13,406.37,242.22,405.93,242.25,405.71z"/>
		<path class="st1" d="M240.95,410.31c-10-0.23-15.51-7.48-18.86-14.78c-0.11-0.8-0.22-1.6-0.34-2.39
			c3.24,7.95,8.76,16.4,19.46,16.52C241.12,409.88,241.04,410.1,240.95,410.31 M220.18,390.85c0,0,0-0.01,0-0.01
			c0.04-0.53,0.08-1.07,0.12-1.6c0,0,0,0.01,0.01,0.01C220.26,389.78,220.22,390.31,220.18,390.85"/>
		<path class="st2" d="M227.04,421.91c-1.68,0-3.36-0.53-4.95-1.77c-0.18-1.47-0.36-3.15-0.53-4.99c1.65,1.33,3.32,2.33,5.02,2.98
			c0.15,0.16,0.31,0.32,0.47,0.47c1.42,1.3,3.23,1.81,5.09,1.84c-0.73,0.41-1.49,0.75-2.25,1
			C228.96,421.74,228,421.91,227.04,421.91 M225.76,417.11c-1.45-0.68-2.88-1.63-4.28-2.83c-0.15-1.65-0.31-3.4-0.47-5.22
			c-0.11-1.23-0.21-2.5-0.32-3.77c0.84,1.37,1.71,2.59,2.6,3.68C223.58,411.88,224.17,414.83,225.76,417.11 M223.19,407.82
			c-0.9-1.18-1.78-2.52-2.62-4c-0.1-1.15-0.2-2.32-0.3-3.5c-0.13-1.52-0.26-3.06-0.4-4.6c0.04-0.8,0.09-1.59,0.14-2.39
			c0.05-0.83,0.11-1.66,0.17-2.49c0.55,1.52,1.18,3.1,1.91,4.69c0.37,2.75,0.68,5.51,0.86,8.29
			C223.03,405.07,223.09,406.43,223.19,407.82 M221.75,393.14c-0.54-1.32-1.02-2.63-1.44-3.89c0.09-1.1,0.18-2.2,0.29-3.3
			C220.99,388.35,221.39,390.74,221.75,393.14"/>
		<path class="st3" d="M223.29,408.96c-0.04-0.38-0.07-0.76-0.1-1.14c-0.9-1.18-1.78-2.52-2.62-4c0.03,0.3,0.05,0.6,0.08,0.9
			c0.02,0.19,0.03,0.38,0.05,0.56C221.53,406.65,222.4,407.87,223.29,408.96"/>
		<path class="st3" d="M226.59,418.13c-0.3-0.32-0.58-0.66-0.83-1.02c-1.45-0.68-2.88-1.63-4.28-2.83c0.02,0.25,0.05,0.5,0.07,0.75
			c0,0.05,0.01,0.09,0.01,0.14C223.21,416.49,224.89,417.48,226.59,418.13"/>
		<path class="st3" d="M222.09,395.53c-0.11-0.8-0.22-1.6-0.34-2.39c-0.54-1.32-1.02-2.63-1.44-3.89c-0.04,0.53-0.08,1.06-0.12,1.59
			C220.73,392.36,221.36,393.95,222.09,395.53"/>
	</g>
</g>
</svg>
