<?xml version="1.0" encoding="utf-8"?>
<!-- Generator: Adobe Illustrator 26.0.1, SVG Export Plug-In . SVG Version: 6.00 Build 0)  -->
<svg version="1.1" id="Layer_1" xmlns="http://www.w3.org/2000/svg" xmlns:xlink="http://www.w3.org/1999/xlink" x="0px" y="0px"
	 viewBox="0 0 432 648" style="enable-background:new 0 0 432 648;" xml:space="preserve">
<style type="text/css">
	.st0{fill:#E92A2A;}
	.st1{fill:#D52626;}
	.st2{fill:#9A1A1C;}
	.st3{fill:#8D1819;}
</style>
<g id="Outer_quads_00000083079102077676815570000007294395297912935592_">
	<g>
		<path class="st0" d="M170.5,395.8c-2.09-10.01-6.64-20.12-8.51-29.03c-2.17-10.24-2.91-18.66-2.01-28.97
			c-1.63,7.36-3.27,16.22-4.66,25.13c-1.94,12.39-2.01,24.94,4.41,59.27c0.72,3.85,8.17-1,9.86-4.95c1.11-2.65,1.96-6.78,2.09-9.68
			C171.67,407.57,171.45,400.32,170.5,395.8z"/>
		<path class="st1" d="M170.73,396.49c-8.15-9.19-13.46-20.75-15.32-33.17c0.02-1.8,0.07-3.54,0.14-5.23
			c0.98,13.83,6.24,26.86,15.03,37.11C170.64,395.63,170.69,396.06,170.73,396.49"/>
		<path class="st1" d="M169.34,408.29c-5.67-5.28-12.23-14.83-14.58-22.48c-0.08-1.2-0.16-2.4-0.23-3.59
			c2.01,8.84,8.73,19.24,15.12,25.21L169.34,408.29z"/>
		<path class="st1" d="M170.6,402.52c-7.98-6.91-14.12-17.88-15.91-28.53c-0.1-2.87-0.02-3.93,0.04-8.06
			c0.03,13.44,6.43,27.28,16.02,35.73C170.71,401.95,170.66,402.23,170.6,402.52"/>
		<path class="st1" d="M165.72,413.47c-3.02-2.29-7.29-9.28-9.06-14.08c-0.09-1.05-0.5-2.78-0.59-3.85
			c1.81,6.32,6.69,14.74,10.33,17.35L165.72,413.47z"/>
		<path class="st1" d="M161.47,414.57c-0.35-0.06-0.73-0.11-1.07-0.22c-0.34-0.53-1.73-2.73-2.21-4.27l0,0
			c-0.07-0.65-0.68-1.58-0.04-1.78C159.82,412.47,161.47,414.57,161.47,414.57z"/>
		<path class="st2" d="M162.69,423.35c-0.41,0.04-0.82,0.02-1.24-0.06c-0.08-0.02-0.84-0.13-0.92-0.16
			c-0.54-2.86-1.11-5.95-1.71-9.22c0.29,0.14,1.26,0.35,1.57,0.44c1.91,3.02,4,5.43,6.06,6.94
			C165.32,422.46,164.02,423.22,162.69,423.35 M167.04,420.64c-1.86-1.29-3.78-3.41-5.56-6.07c0.31,0.04,0.61,0.06,0.91,0.07
			c0.19,0,0.38,0,0.56-0.02c1.01-0.1,1.93-0.52,2.76-1.15c1.26,0.99,2.59,1.74,3.98,2.25c-0.14,0.42-0.29,0.83-0.46,1.23
			C168.65,418.33,167.9,419.61,167.04,420.64 M169.96,414.8c-1.25-0.44-2.44-1.08-3.58-1.93c1.07-1.05,1.96-2.47,2.67-4.02
			c0.09-0.2,0.18-0.4,0.26-0.6c0.52,0.5,1.05,1,1.58,1.47c-0.17,1.36-0.41,2.7-0.68,4.04C170.14,414.11,170.05,414.46,169.96,414.8
			 M171.01,408.68c-0.47-0.42-0.92-0.85-1.38-1.29c0.64-1.84,0.99-3.85,1.12-5.94c0.12,0.11,0.23,0.21,0.35,0.31
			c0.01,0.17,0.03,0.34,0.04,0.52c0.04,0.63,0.07,1.26,0.08,1.88c0.01,0.79,0,1.56-0.04,2.34
			C171.14,407.23,171.08,407.96,171.01,408.68"/>
		<path class="st3" d="M170.73,408.41c-0.38-0.31-0.73-0.7-1.1-1.02c-0.08,0.23-0.2,0.56-0.32,0.86c0.37,0.36,0.95,0.96,1.39,1.3
			L170.73,408.41z"/>
		<path class="st3" d="M169.91,414.77c-1.08-0.37-2.58-1.27-3.53-1.9c-0.26,0.24-0.39,0.38-0.67,0.59c1.07,0.91,2.74,1.82,3.95,2.25
			L169.91,414.77z"/>
		<path class="st3" d="M166.91,420.53c-1.56-0.97-4.08-4.11-5.44-5.97c-0.32-0.05-0.76-0.12-1.07-0.21
			c1.35,2.24,4.12,5.65,5.84,6.78L166.91,420.53z"/>
	</g>
	<g>
		<path class="st0" d="M245.53,395.97c2.09-10.01,6.64-20.12,8.51-29.03c2.17-10.24,3.16-18.56,2.25-28.87
			c1.63,7.36,3.21,15.57,4.61,24.49c1.94,12.39,1.83,25.48-4.59,59.81c-0.72,3.85-8.17-1-9.86-4.95c-1.11-2.65-1.96-6.78-2.09-9.68
			C244.36,407.73,244.58,400.49,245.53,395.97z"/>
		<path class="st1" d="M245.3,396.65c8.15-9.19,13.46-20.75,15.32-33.17c-0.02-1.8-0.07-3.54-0.14-5.23
			c-0.98,13.83-6.24,26.86-15.03,37.11C245.39,395.79,245.34,396.22,245.3,396.65"/>
		<path class="st1" d="M246.38,407.59c6.39-5.97,13.11-16.36,15.12-25.21c-0.07,1.2-0.15,2.4-0.23,3.59
			c-2.35,7.65-8.92,17.2-14.58,22.48L246.38,407.59z"/>
		<path class="st1" d="M245.43,402.68c-0.06-0.28-0.11-0.57-0.16-0.85c9.59-8.45,15.98-22.3,16.02-35.73
			c0.06,4.13,0.15,5.19,0.04,8.06C259.55,384.81,253.41,395.77,245.43,402.68"/>
		<path class="st1" d="M249.63,413.06c3.65-2.61,8.53-11.03,10.33-17.35c-0.09,1.07-0.5,2.8-0.59,3.85
			c-1.77,4.8-6.03,11.79-9.06,14.08L249.63,413.06z"/>
		<path class="st2" d="M253.34,423.51c-1.33-0.13-2.62-0.89-3.76-2.06c2.06-1.51,4.15-3.92,6.06-6.94c0.31-0.09,1.28-0.3,1.57-0.44
			c-0.59,3.27-1.17,6.36-1.71,9.22c-0.08,0.02-0.84,0.14-0.92,0.16C254.16,423.53,253.75,423.55,253.34,423.51 M248.99,420.81
			c-0.86-1.04-1.61-2.31-2.2-3.7c-0.17-0.4-0.32-0.81-0.46-1.23c1.39-0.51,2.72-1.26,3.98-2.25c0.83,0.64,1.74,1.05,2.76,1.15
			c0.18,0.02,0.37,0.02,0.56,0.02c0.3,0,0.61-0.03,0.91-0.07C252.78,417.4,250.86,419.51,248.99,420.81 M246.07,414.97
			c-0.09-0.34-0.18-0.69-0.25-1.04c-0.27-1.34-0.51-2.69-0.68-4.04c0.53-0.47,1.06-0.96,1.58-1.47c0.08,0.2,0.17,0.4,0.26,0.6
			c0.71,1.55,1.6,2.97,2.67,4.02C248.51,413.89,247.32,414.53,246.07,414.97 M245.02,408.85c-0.07-0.72-0.13-1.45-0.17-2.18
			c-0.04-0.77-0.05-1.55-0.04-2.34c0.01-0.62,0.03-1.24,0.08-1.88c0.01-0.17,0.02-0.34,0.04-0.52c0.12-0.1,0.23-0.21,0.35-0.31
			c0.13,2.09,0.48,4.1,1.12,5.94C245.95,408,245.49,408.43,245.02,408.85"/>
		<path class="st3" d="M249.12,420.7c1.56-0.97,4.08-4.11,5.44-5.97c0.32-0.05,0.76-0.12,1.07-0.21c-1.35,2.24-4.12,5.65-5.84,6.78
			L249.12,420.7z"/>
		<path class="st1" d="M257.83,408.39c0.64,0.19,0.02,1.13-0.04,1.78l0,0c-0.49,1.54-1.87,3.73-2.21,4.27
			c-0.34,0.11-0.72,0.15-1.07,0.22C254.5,414.65,256.14,412.55,257.83,408.39z"/>
		<path class="st3" d="M245.3,408.58c0.38-0.32,0.73-0.7,1.1-1.02c0.08,0.23,0.2,0.56,0.32,0.86c-0.37,0.36-0.95,0.96-1.39,1.3
			L245.3,408.58z"/>
		<path class="st3" d="M246.14,414.95c1.08-0.37,2.58-1.27,3.53-1.9c0.26,0.24,0.39,0.38,0.67,0.59c-1.07,0.91-2.74,1.82-3.95,2.25
			L246.14,414.95z"/>
	</g>
</g>
</svg>
