<?xml version="1.0" encoding="utf-8"?>
<!-- Generator: Adobe Illustrator 26.0.1, SVG Export Plug-In . SVG Version: 6.00 Build 0)  -->
<svg version="1.1" id="Layer_1" xmlns="http://www.w3.org/2000/svg" xmlns:xlink="http://www.w3.org/1999/xlink" x="0px" y="0px"
	 viewBox="0 0 432 648" style="enable-background:new 0 0 432 648;" xml:space="preserve">
<style type="text/css">
	.st0{fill:#FFFFFF;}
	.st1{fill:#E92A2A;}
	.st2{fill:#D52626;}
	.st3{fill:#9A1A1C;}
	.st4{fill:#8D1819;}
	.st5{fill:#A89FA8;}
	.st6{fill:#998F99;}
	.st7{fill:#E9E7E9;}
</style>
<g>
	<g>
		<g id="Front_00000141446736511613601770000005976018402782592670_">
			<g>
				<g>
					<g>
						<g>
							<path class="st0" d="M280.55,259.59v-8.57c0-6.19-3.43-12.79-5.57-16.3c2.11-7.08,2.14-24.02,0.99-31.87
								c-0.7-4.78-4.03-8.67-5.67-11.17c0.03-0.19,0.06-0.38,0.1-0.58c0.9-5.77-3.02-19.94-5.37-25.92
								c-1.56-3.97-4.82-5.47-7.44-6.68c-1.42-0.65-2.64-1.22-3.33-2.02c-1.77-2.06-3.53-2.63-5.08-3.12
								c-0.41-0.13-0.8-0.26-1.18-0.41c-0.6-0.24-1.12-0.72-1.92-1.44c-1.36-1.23-3.41-3.1-7.8-5.64c-2.41-1.4-5.8-3.02-9.4-4.74
								c-5.88-2.82-12.75-6.07-14.39-8.09c-1.49-1.84-1.65-7.68-1.67-9.6c0.71-1.81,0.79-4.65,0.76-6.3
								c0.3,0.14,0.66,0.21,1.09,0.16c1.47-0.18,2.84-2.46,4.48-5.43c0.46-0.83,0.9-1.62,1.23-2.09c1.42-2.03,1.11-6.43,0.07-9.73
								c-0.3-0.96-0.82-1.52-1.53-1.65c-0.98-0.18-2.05,0.57-2.82,1.27c0.15-4.11,0.09-15.66-4.65-21.35
								c-4.08-4.9-12.25-6.12-15.35-6.41l-1.22,0c-3.1,0.29-11.26,1.51-15.35,6.41c-4.74,5.69-4.79,17.24-4.65,21.35
								c-0.77-0.71-1.84-1.45-2.82-1.27c-0.71,0.13-1.23,0.69-1.53,1.65c-1.04,3.3-1.35,7.69,0.07,9.73
								c0.33,0.48,0.77,1.26,1.23,2.09c1.64,2.97,3.02,5.25,4.48,5.43c0.43,0.05,0.79-0.02,1.09-0.16c-0.03,1.82,0.07,5.1,1,6.83
								c0,0,0,0.01,0.01,0.01c-0.04,1.35-0.33,7.16-1.91,9.11c-1.64,2.02-8.3,5.22-14.19,8.03c-3.59,1.72-6.99,3.35-9.4,4.74
								c-4.39,2.55-6.44,4.41-7.8,5.64c-0.8,0.73-1.33,1.21-1.92,1.44c-0.38,0.15-0.77,0.28-1.18,0.41
								c-1.55,0.5-3.31,1.06-5.08,3.12c-0.69,0.81-1.92,1.37-3.33,2.02c-2.62,1.21-5.88,2.71-7.44,6.68
								c-2.35,5.98-6.27,20.15-5.37,25.92c0.06,0.41,0.13,0.82,0.21,1.22c-1.66,2.48-4.65,6.09-5.33,10.74
								c-1.15,7.81-1.27,24.11,0.8,31.24c-2.1,3.38-5.83,10.28-5.83,16.72v8.57c-0.59,0.96-3.69,6.55-3.03,17.46
								c0.25,4.18,0.72,8.04,1.22,12.12c0.88,7.27,3.85,15.5,3.5,25.23c-0.52,14.83-0.31,28.98,0.27,31.72
								c0.54,2.5,5.17,14.7,5.36,15.21l0.17,0.45l0.47-0.12c0.03-0.01,2.8-0.8,3.04-4.46l1.48,1.69l0.39-0.55
								c0.09-0.12,1.39-1.97,1.76-4.26c0.82-1.39,2.54-4.97,0.55-8c-2.26-3.45-6-10.58-6.03-10.66l0,0
								c-0.01-0.24-0.03-0.45-0.06-0.59c0.56-4.24,0-5.78,1.58-6.38c0.13-0.05,0.2-0.03,0.28,0.02c1.15,0.74,1.41,2.71,1.69,4.8
								c0.26,1.96,0.54,3.98,1.53,5.55c1.17,1.84,2.97,4.23,5.06,2.49c1.38-1.15,0.17-9.04-0.16-11.37
								c-0.42-2.92-0.42-3.74-1.57-8.36c-0.74-2.95-1.18-4.47-1.37-5.83c-0.1-1.13,0.19-5.8,0.62-9.22
								c0.49-3.92,2.92-10.34,5.48-17.14c2.93-7.77,5.97-15.79,6.16-20.45c0.3-7.22-0.65-10.8-0.99-11.84
								c0.61-0.73,2.31-2.99,2.77-5.91c0.54-3.39,0.37-9.29,0.36-9.43c0.02-0.1,1.8-10.28,4.73-14.94
								c2.23-3.54,5.52-10.48,6.91-14.11c0.51,3.59,1.08,6.8,1.65,8.52c0.73,2.18,1.65,4.6,2.54,6.93c1.27,3.34,2.47,6.48,2.78,8.13
								c0.44,2.33,0.13,19.48,0.03,25.11c-0.02,1.21-0.04,2-0.04,2.2c0,0.01,0,0.01-0.01,0.02c-0.11,0.11-0.19,0.3-0.22,0.5
								c-0.23,0.41-0.58,0.97-0.91,1.49c-1.77,2.8-4.74,7.47-4.17,12.09c0.64,5.14,1.42,7.29,1.7,7.94
								c-0.58,1.86-4.89,15.93-4.23,26.08c0.23,3.54-1.16,9.07-2.92,16.06c-2.27,9.02-6.57,29.78-7.52,42.73
								c-1.41,19.16,4.08,41.09,5.6,52.93c0.33,2.54,0.54,4.21,0.57,4.72c0.07,1.25-0.04,2.12-0.18,3.12
								c-0.18,1.36-0.39,2.9-0.18,5.8c0.02,0.29,0.07,0.61,0.14,0.95c-0.74,1.66-7.27,16.65-7.44,26.42
								c-0.08,4.78,1.45,15.38,3.06,26.6c1.47,10.16,2.86,20.66,3.31,27.15l0.01,0.17c0.04,0.54,0.07,1.06,0.09,1.54
								c0.07,3.48-0.26,10.4-0.49,11.07c-0.52,1.59-1.01,3.1-0.97,5.44c-0.14,0.14-0.28,0.27-0.42,0.39
								c-1.92,1.64-2.7,3.85-3.45,5.99c-0.25,0.7-0.48,1.36-0.75,1.99c-1.04,2.42-10.22,10-11.49,10.79
								c-0.99,0.62-3.49,4.29-3.49,4.29c-0.94,1.01-0.65,2.66-0.46,3.75c0.03,0.19,0.07,0.37,0.09,0.53
								c0.08,0.58,0.26,0.99,0.4,1.31c0.13,0.28,0.22,0.49,0.22,0.74c0.01,0.34-0.05,0.75-0.1,1.14c-0.05,0.35-0.1,0.72-0.11,1.06
								c-0.01,0.61,0.02,2.08,0.61,2.57c0.34,0.28,0.66,0.48,1.13,0.56c-0.05,0.15-0.12,0.35-0.2,0.59
								c-0.37,1.08,0.45,2.19,1.05,2.64c0.43,0.32,1.11,0.35,1.58,0.32c0,0.09,0.02,0.15,0.03,0.2c0.07,0.77,0.33,1.83,1.31,2.29
								c1,0.47,1.51,0.36,2.09,0.08c1.14,1.58,3.47,2.54,5.56,2.34c0.27-0.03,0.54-0.07,0.8-0.14c2.15-0.55,4.85-2.41,5.85-4.89
								c0.8-1.99,1.97-2.65,3.01-3.1c4.3-1.35,6.64-6.14,7.26-10.58c0.55-3.92,3.07-8.19,3.72-9.07c3-1.26,4.77-2.85,6.31-5.1
								c1.61-2.37,1.68-3.88,1.23-5.84c-0.43-1.87-1.59-10.65-2-12.01c-0.35-1.2-0.52-2.41-0.8-3.9c-0.87-4.63,4.88-28.54,6.57-33.2
								c0.65-1.78,1.58-3.73,2.65-5.99c1.82-3.82,4.09-8.58,5.91-14.6c2.74-9.11-1.59-29.27-2.12-31.65
								c1.59-2.79,3.01-5.69,4.24-8.64c0.98-2.36,1.91-4.82,2.37-7.34c0.69-3.73,1.28-10.79,1.97-18.96
								c0.61-7.22,1.3-15.4,2.14-21.93c1.04-8.06,3.17-17.16,4.88-24.48c1.17-5.01,2.19-9.33,2.52-11.93
								c0.62-4.87,0.01-9.73-0.34-11.85c0.38,0.04,1.49,0.05,1.76,0c-0.35,2.12-0.96,6.98-0.34,11.85
								c0.33,2.61,1.34,6.93,2.52,11.93c1.71,7.31,3.85,16.42,4.88,24.48c0.84,6.53,1.53,14.71,2.14,21.93
								c0.69,8.17,1.28,15.23,1.97,18.96c0.46,2.53,1.39,4.98,2.37,7.34c1.23,2.95,2.64,5.85,4.24,8.64
								c-0.53,2.38-4.86,22.54-2.12,31.65c1.81,6.02,4.08,10.78,5.91,14.6c1.08,2.26,2.01,4.21,2.65,5.99
								c1.69,4.66,7.44,28.56,6.57,33.2c-0.28,1.49-0.44,2.71-0.8,3.9c-0.41,1.36-1.57,10.15-2,12.01
								c-0.45,1.96-0.39,3.47,1.23,5.84c1.54,2.25,3.31,3.84,6.31,5.1c0.65,0.88,3.17,5.15,3.72,9.07
								c0.62,4.44,2.97,9.23,7.26,10.58c1.04,0.45,2.21,1.11,3.01,3.1c1,2.49,3.7,4.34,5.85,4.89c0.26,0.07,0.53,0.11,0.8,0.14
								c2.09,0.2,4.41-0.76,5.56-2.34c0.58,0.28,1.09,0.39,2.09-0.08c1.07-0.51,1.28-1.72,1.33-2.49c0.47,0.03,1.16,0,1.59-0.32
								c0.6-0.44,1.41-1.55,1.05-2.64c-0.08-0.22-0.14-0.41-0.19-0.56l0,0c0-0.01-0.01-0.02-0.01-0.04
								c0.47-0.09,0.79-0.28,1.13-0.56c0.59-0.49,0.63-1.96,0.61-2.57c-0.01-0.34-0.06-0.7-0.11-1.06c-0.05-0.39-0.11-0.8-0.1-1.14
								c0-0.25,0.1-0.46,0.22-0.74c0.14-0.32,0.32-0.72,0.4-1.31c0.02-0.16,0.05-0.34,0.09-0.53c0.19-1.09,0.48-2.75-0.46-3.75
								c0,0-2.5-3.67-3.49-4.29c-1.27-0.79-10.45-8.37-11.49-10.79c-0.27-0.63-0.5-1.29-0.75-1.99c-0.75-2.14-1.53-4.35-3.45-5.99
								c-0.14-0.12-0.28-0.25-0.42-0.39c0.04-2.34-0.45-3.85-0.97-5.44c-0.22-0.68-0.56-7.6-0.49-11.07c0.02-0.48,0.05-1,0.09-1.54
								c0.01-0.06,0.02-0.12,0.03-0.17l-0.02,0c0.44-6.49,1.84-16.99,3.31-27.15c1.62-11.22,3.15-21.82,3.06-26.6
								c-0.17-9.71-6.61-24.55-7.42-26.38c0.09-0.41,0.15-0.79,0.17-1.14c0.21-2.9,0-4.44-0.18-5.8c-0.13-1-0.25-1.86-0.18-3.11
								c0.03-0.51,0.24-2.19,0.57-4.72c1.52-11.85,7.01-33.77,5.6-52.93c-0.96-12.95-5.25-33.72-7.52-42.73
								c-1.76-6.99-3.15-12.52-2.92-16.06c0.66-10.15-3.64-24.23-4.23-26.08c0.28-0.65,1.06-2.8,1.7-7.94
								c0.57-4.61-2.4-9.29-4.17-12.09c-0.52-0.82-1.11-1.75-1.14-2.01c0-0.2-0.01-1-0.04-2.2c-0.1-5.64-0.41-22.78,0.03-25.11
								c0.31-1.65,1.51-4.79,2.78-8.13c0.89-2.34,1.82-4.76,2.54-6.93c0.55-1.66,1.08-4.75,1.58-8.2c0-0.01,0-0.01,0-0.02
								c1.43,3.55,4.62,10.05,6.69,13.71c3.64,6.45,4.89,16.96,5.09,24.37c0.08,2.95,2.16,5.17,2.77,5.91
								c-0.34,1.04-1.29,4.62-0.99,11.84c0.19,4.66,3.23,12.69,6.16,20.45c2.57,6.8,5,13.22,5.48,17.14
								c0.35,2.83,0.7,4.66,0.72,6.06c0.02,1.34,0.01,2.68-0.12,4.02c-0.12,1.24-0.64,2.71-1.27,5.22
								c-1.15,4.63-1.15,5.45-1.57,8.36c-0.33,2.34-1.54,10.22-0.16,11.37c2.1,1.74,3.9-0.64,5.06-2.49c1-1.57,1.27-3.6,1.53-5.55
								c0.28-2.09,0.55-4.06,1.69-4.8c0.08-0.05,0.15-0.07,0.28-0.02c1.58,0.59,1.02,2.14,1.58,6.38c-0.03,0.15-0.05,0.35-0.06,0.59
								l0,0c-0.04,0.07-3.77,7.2-6.03,10.65c-1.99,3.03-0.28,6.61,0.55,8c0.37,2.29,1.67,4.14,1.76,4.26l0.39,0.55l1.48-1.69
								c0.24,3.66,3.01,4.45,3.04,4.46l0.47,0.12l0.17-0.45c0.2-0.52,4.83-12.71,5.36-15.21c0.59-2.73,0.8-16.88,0.27-31.72
								c-0.34-9.73,2.62-17.96,3.5-25.23c0.5-4.08,0.96-7.94,1.22-12.12C284.24,266.14,281.14,260.55,280.55,259.59z"/>
						</g>
					</g>
				</g>
			</g>
		</g>
	</g>
	<g>
		<g id="Biceps_brachii_00000051383901171310121250000017567623599430537353_">
			<g>
				<path class="st1" d="M240.67,196.51c-0.56,12.88,8.91,35.97,9.66,38.89c0,0,2.42,5.93,4.02,8.64c2.36,4.02,5.39,7.61,8.93,10.8
					c5.99-15.72,8.44-35.76,1.26-51.07c-8.03-2.42-14.61-7.85-18.47-15.36C244.47,191.02,242.58,194.11,240.67,196.51"/>
				<path class="st2" d="M262.21,241.72c-0.22-0.03-0.44-0.07-0.66-0.12c-1.17-13.32-7.41-43.06-7.41-43.09
					c0.3,0.23,0.51,0.42,0.81,0.65C257.9,212.58,260.95,227.43,262.21,241.72 M259.21,240.72c-0.24-0.13-0.48-0.26-0.72-0.4
					c-1.06-4.41-2.1-8.85-3.09-13.26c-2.41-10.74-2.75-21.81-2.72-29.82c0.22,0.2,0.44,0.39,0.66,0.58
					c0.01,11.06,0.9,20.71,2.7,29.09C257.02,231.51,258.1,236.14,259.21,240.72 M253.99,236.25c-0.35-0.43-0.69-0.88-1.02-1.34
					c-0.54-1.66-1.03-3.33-1.47-4.99c-2.78-10.39-4.01-21.44-4.98-32.18c0.18-0.24,0.42-0.52,0.66-0.76
					c1.01,10.29,2.28,20.86,4.52,31.01C252.3,230.71,253.06,233.45,253.99,236.25 M247.64,225.48c-0.79-1.62-1.48-3.27-2.06-4.94
					c-0.8-3.37-1.48-6.87-1.99-10.28c-0.03-0.99,0.04-1.89,0.1-2.9c0.03-0.41,0.01-0.88,0.05-1.29
					C244.65,212.9,245.88,219.29,247.64,225.48 M241.88,195.06C241.88,195.06,241.88,195.06,241.88,195.06
					c0.2-0.27,0.4-0.53,0.6-0.8c0,0,0,0,0,0C242.28,194.53,242.08,194.79,241.88,195.06"/>
				<path class="st2" d="M265.02,241.35c0.23-0.1,0.45-0.22,0.67-0.35c0.15-12.25-2.06-25.71-6.2-39.04
					c-0.27-0.13-0.54-0.27-0.81-0.42C262.96,215.16,265.21,228.88,265.02,241.35"/>
				<path class="st3" d="M263.06,254.59c-0.04-0.04-0.09-0.08-0.13-0.12c-0.06-4.37-0.39-8.46-0.77-12.82
					c0.26,0.03,0.52,0.05,0.76,0.05c0.75,0,1.47-0.18,2.09-0.44c-0.05,3.32-0.23,6.57-0.6,9.79c-0.43,1.28-0.57,2.05-1.04,3.3
					L263.06,254.59z M261.66,253.52c-0.23-0.3-0.45-0.6-0.68-0.91c-2.97-5.74-5.3-11.17-7.05-16.42c1.33,1.63,2.86,3.09,4.54,4.11
					c0.91,3.78,1.78,7.5,2.68,11.21L261.66,253.52 M262.14,252.83c-0.17-0.68-0.33-1.35-0.5-2.02c-0.83-3.34-1.66-6.73-2.49-10.15
					c0.42,0.22,0.86,0.41,1.31,0.57c0.36,0.13,0.75,0.25,1.08,0.33C261.87,245.33,262.04,249.06,262.14,252.83 M256.9,247.86
					c-4.25-4.57-8.45-18.32-9.55-20.54c-0.13-0.26-3.4-10.38-3.4-10.38c-0.02-0.07-2.99-13.54-3.29-20.43
					c0.13-0.16,0.26-0.33,0.39-0.49c0.26-0.33,0.51-0.66,0.77-1c0,0,0.01-0.01,0.01-0.01c0.46,5.02,0.98,10.15,1.75,15.29
					c0.11,3.5,0.8,6.9,1.94,10.19c0.8,3.38,2.05,7.16,3.25,10.43c2.76,7.58,5.97,13.34,10.59,19.89 M258.74,249.44
					c-4.47-6.63-7.91-13.62-10.21-20.87c-0.33-1.05-0.65-2.1-0.95-3.16c0.05,0.1,0.09,0.19,0.14,0.29c1.38,2.79,3.12,6.24,5.26,9.2
					C254.53,239.72,256.4,244.5,258.74,249.44 M265.3,247.98c0.19-2.32,0.3-4.67,0.33-7.04c0.65-0.4,1.26-0.96,1.78-1.59
					C266.86,242.27,266.12,245.18,265.3,247.98 M243.74,206.08c-0.5-3.78-0.93-7.73-1.32-11.88c0.87-1.18,1.71-2.38,2.51-3.61
					c0.29-0.44,0.57-0.88,0.84-1.32c0.16,1.69,0.31,3.39,0.46,5.1c0.1,1.13,0.2,2.26,0.3,3.4c-0.55,0.75-0.8,1.46-1.02,1.94
					C244.56,201.74,244,203.87,243.74,206.08 M247.17,197.04c-0.23-2.36-0.48-5.54-0.7-7.88c0.5,0.9,1.22,2.05,1.8,2.88
					c0.66,0.95,1.64,2.24,2.39,3.1C249.22,195.59,247.84,196.39,247.17,197.04"/>
				<path class="st4" d="M262.68,254.37c-1.15-1.04-1.88-1.85-2.87-3.06c-5.15-6.32-8.56-13.39-11.28-20.88
					c-1.28-3.5-2.3-7.09-3.13-10.72c0.58,1.82,1.4,3.92,2.24,5.67c0.33,1.16,0.57,2,0.94,3.16c2.3,7.25,5.6,14.02,10.07,20.65
					c-2.37-4.98-4.14-9.49-5.7-14.35c0.33,0.47,0.68,0.93,1.04,1.38c1.75,5.27,4.06,10.59,7.04,16.36c0.22,0.3,0.35,0.43,0.57,0.72
					c0,0-2.21-9.23-3.12-13.01c0.24,0.15,0.47,0.25,0.71,0.38c0.82,3.4,1.66,6.75,2.48,10.08c0.17,0.68,0.27,1.18,0.44,1.86
					c-0.1-3.75-0.24-7.3-0.57-11.06c0.23,0.05,0.42,0.08,0.66,0.1c0.38,4.32,0.66,8.61,0.72,12.95L262.68,254.37z M243.58,210.26
					c-0.84-5.36-1.29-9.86-1.77-15.1c0.2-0.26,0.47-0.55,0.67-0.82c0.4,4.25,0.73,7.88,1.26,11.74L243.58,210.26z M246.51,197.66
					c-0.07-0.65-0.6-6.73-0.75-8.36c0.08-0.14,0.3-0.54,0.38-0.67c0.14,0.28,0.15,0.34,0.3,0.61c0.23,2.43,0.49,5.22,0.73,7.66
					C247.17,196.9,246.63,197.48,246.51,197.66z"/>
				<path class="st4" d="M264.38,251.29c0.39-3.27,0.57-6.66,0.63-10.03c0.23-0.09,0.45-0.22,0.67-0.35
					c-0.03,2.42-0.11,4.88-0.31,7.24C265.06,249.21,264.73,250.26,264.38,251.29"/>
			</g>
			<g>
				<path class="st1" d="M150.5,196.66c0.56,12.88-8.91,35.97-9.66,38.89c0,0-2.42,5.93-4.02,8.64c-2.36,4.02-5.34,7.75-8.87,10.94
					c-5.99-15.72-8.5-35.9-1.32-51.22c8.03-2.42,14.61-7.85,18.47-15.36C146.7,191.16,148.6,194.25,150.5,196.66"/>
				<path class="st2" d="M128.96,241.86c1.26-14.29,4.31-29.13,7.26-42.56c0.31-0.22,0.52-0.41,0.81-0.65
					c0,0.02-6.24,29.76-7.41,43.09C129.4,241.8,129.18,241.84,128.96,241.86 M131.96,240.87c1.11-4.59,2.18-9.21,3.17-13.81
					c1.8-8.38,2.69-18.03,2.7-29.09c0.22-0.19,0.44-0.39,0.66-0.58c0.03,8.01-0.31,19.08-2.72,29.82
					c-0.99,4.41-2.03,8.85-3.09,13.26C132.45,240.61,132.21,240.74,131.96,240.87 M137.18,236.4c0.93-2.8,1.69-5.55,2.29-8.26
					c2.24-10.15,3.52-20.71,4.52-31.01c0.25,0.24,0.49,0.52,0.66,0.76c-0.97,10.73-2.2,21.79-4.98,32.18
					c-0.45,1.67-0.94,3.33-1.47,4.99C137.88,235.52,137.54,235.97,137.18,236.4 M143.53,225.62c1.75-6.19,2.99-12.58,3.9-19.4
					c0.05,0.4,0.03,0.88,0.05,1.29c0.07,1,0.13,1.91,0.1,2.9c-0.52,3.41-1.2,6.91-1.99,10.28
					C145.01,222.36,144.32,224,143.53,225.62 M149.29,195.2c-0.2-0.27-0.4-0.53-0.6-0.8c0,0,0,0,0,0
					C148.89,194.67,149.09,194.94,149.29,195.2C149.29,195.2,149.29,195.2,149.29,195.2"/>
				<path class="st2" d="M126.16,241.5c-0.23-0.1-0.45-0.22-0.67-0.35c-0.15-12.25,2.06-25.71,6.2-39.04
					c0.27-0.13,0.54-0.27,0.81-0.42C128.21,215.31,125.96,229.03,126.16,241.5"/>
				<path class="st3" d="M126.83,251.94c-0.37-3.22-0.62-7.22-0.67-10.53c0.62,0.27,1.35,0.45,2.09,0.44c0.25,0,0.5-0.02,0.76-0.05
					c-0.38,4.36-0.72,8.61-0.78,12.99c-0.04,0.04-0.26,0.31-0.3,0.35C127.94,255.13,127.26,253.22,126.83,251.94z M129.51,253.66
					l0.5-2.01c0.9-3.7,1.78-7.42,2.68-11.21c1.68-1.01,3.22-2.48,4.54-4.11c-1.74,5.24-4.08,10.68-7.05,16.42
					C129.96,253.06,129.74,253.36,129.51,253.66 M129.03,252.98c0.1-3.77,0.27-7.5,0.6-11.27c0.33-0.08,0.72-0.2,1.08-0.33
					c0.45-0.16,0.88-0.35,1.31-0.57c-0.82,3.41-1.66,6.81-2.49,10.15C129.36,251.63,129.2,252.3,129.03,252.98 M131.81,250.94
					c4.63-6.55,7.83-12.31,10.59-19.89c1.19-3.27,2.45-7.05,3.25-10.43c1.14-3.29,1.83-6.69,1.94-10.19
					c0.78-5.13,1.3-10.27,1.75-15.29c0,0,0.01,0.01,0.01,0.01c0.25,0.33,0.51,0.67,0.77,1c0.13,0.17,0.26,0.33,0.39,0.49
					c-0.3,6.89-3.27,20.36-3.29,20.43c0,0-3.27,10.13-3.4,10.38c-1.11,2.22-5.3,15.97-9.55,20.54 M132.42,249.57
					c2.35-4.94,4.22-9.71,5.77-14.53c2.13-2.96,3.88-6.41,5.26-9.2c0.05-0.1,0.09-0.19,0.14-0.29c-0.3,1.06-0.61,2.11-0.95,3.16
					c-2.3,7.25-5.74,14.24-10.21,20.87 M125.59,248.47c-0.82-2.8-1.52-6.28-2.06-9.2c0.52,0.63,1.37,1.42,2.01,1.81
					c0.03,2.37,0.09,5.27,0.29,7.59L125.59,248.47z M147.43,206.23c-0.26-2.21-0.82-4.34-1.78-6.37c-0.22-0.48-0.48-1.19-1.02-1.94
					c0.1-1.14,0.2-2.27,0.3-3.4c0.15-1.71,0.3-3.41,0.46-5.1c0.28,0.44,0.56,0.88,0.84,1.32c0.8,1.23,1.64,2.43,2.51,3.61
					C148.35,198.5,147.93,202.44,147.43,206.23 M144,197.19c-0.67-0.66-2.05-1.45-3.49-1.9c0.76-0.86,1.73-2.14,2.39-3.1
					c0.58-0.83,1.29-1.98,1.8-2.88C144.48,191.65,144.23,194.83,144,197.19"/>
				<path class="st4" d="M128.25,254.75c0.06-4.33,0.34-8.62,0.72-12.95c0.24-0.02,0.44-0.05,0.66-0.1
					c-0.33,3.76-0.48,7.3-0.57,11.06c0.17-0.68,0.27-1.18,0.44-1.86c0.82-3.33,1.66-6.69,2.48-10.08c0.25-0.13,0.48-0.23,0.71-0.38
					c-0.9,3.78-3.12,13.01-3.12,13.01c0.22-0.29,0.35-0.43,0.57-0.72c2.98-5.77,5.29-11.06,7.03-16.33
					c0.36-0.44,0.71-0.94,1.05-1.41c-1.56,4.86-3.33,9.37-5.7,14.35c4.47-6.63,7.77-13.4,10.07-20.65c0.37-1.16,0.61-2,0.94-3.16
					c0.83-1.75,1.65-3.86,2.24-5.67c-0.83,3.63-1.85,7.22-3.13,10.72c-2.73,7.49-6.13,14.56-11.28,20.88
					c-0.98,1.21-1.72,2.02-2.87,3.06L128.25,254.75z M147.43,206.23c0.52-3.86,0.86-7.49,1.26-11.74c0.2,0.27,0.47,0.55,0.67,0.82
					c-0.48,5.24-0.93,9.74-1.77,15.1L147.43,206.23z M144,197.04c0.24-2.45,0.5-5.24,0.73-7.66c0.15-0.27,0.16-0.33,0.3-0.61
					c0.08,0.14,0.3,0.54,0.38,0.67c-0.15,1.63-0.68,7.71-0.75,8.36C144.54,197.63,144,197.04,144,197.04z"/>
				<path class="st4" d="M126.84,251.93c-0.39-3.27-0.63-7.15-0.68-10.52c-0.23-0.09-0.45-0.22-0.67-0.35
					c0.03,2.42,0.13,5.24,0.33,7.61c0.31,1.06,0.34,1.47,0.69,2.51L126.84,251.93z"/>
			</g>
		</g>
		<g id="Front_00000134969439039033283190000003630375640604050325_">
			<path class="st5" d="M195.48,140.21c-0.88-0.07-1.76-0.26-2.58-0.56c-0.17-1.54-0.35-3.1-0.54-4.71c0.43,0.1,0.9,0.18,1.35,0.24
				c0.36,0.05,0.72,0.08,1.06,0.11h1.43c0.33-0.03,0.68-0.06,1.04-0.11c0.45-0.06,0.89-0.13,1.32-0.23
				c-0.19,1.61-0.37,3.18-0.54,4.72C197.2,139.96,196.34,140.14,195.48,140.21 M198.7,139.39c0.17-1.54,0.35-3.08,0.53-4.62
				c0.08-0.02,0.15-0.05,0.22-0.08c0.51-0.18,1.46-0.77,2.63-1.58c-0.13,1.6-0.38,3.18-0.7,4.74
				C200.54,138.45,199.64,138.98,198.7,139.39 M192.2,139.37c-0.94-0.42-1.84-0.96-2.69-1.56c-0.32-1.56-0.57-3.13-0.69-4.73
				c1.2,0.83,2.17,1.43,2.68,1.62c0.06,0.02,0.11,0.04,0.17,0.06C191.85,136.29,192.03,137.83,192.2,139.37 M202.19,137.26
				c0.28-1.53,0.49-3.07,0.59-4.63c1.49-1.07,3.24-2.42,4.85-3.77c-0.5,1.69-0.99,3.25-1.48,4.71c-0.49,0.55-1.01,1.08-1.54,1.59
				C203.85,135.88,203.04,136.6,202.19,137.26 M188.71,137.21c-0.83-0.65-1.61-1.35-2.35-2.05c-0.53-0.51-1.05-1.04-1.54-1.59
				c-0.49-1.46-0.98-3.02-1.48-4.71c1.59,1.33,3.31,2.66,4.79,3.73C188.22,134.15,188.43,135.69,188.71,137.21"/>
			<path class="st6" d="M189.51,137.81c-0.27-0.19-0.54-0.39-0.8-0.6c-0.28-1.52-0.49-3.06-0.58-4.62c0.24,0.17,0.47,0.33,0.69,0.49
				C188.94,134.68,189.19,136.25,189.51,137.81"/>
			<path class="st6" d="M192.9,139.65c-0.12-0.04-0.23-0.09-0.35-0.13c-0.12-0.05-0.23-0.1-0.34-0.15
				c-0.17-1.54-0.35-3.08-0.53-4.62c0.21,0.07,0.44,0.13,0.68,0.19C192.54,136.55,192.72,138.12,192.9,139.65"/>
			<path class="st6" d="M201.39,137.85c0.32-1.56,0.57-3.14,0.7-4.74c0.22-0.15,0.45-0.32,0.69-0.49c-0.09,1.56-0.3,3.1-0.59,4.63
				C201.93,137.46,201.66,137.66,201.39,137.85"/>
			<path class="st6" d="M198.01,139.67c0.17-1.54,0.35-3.11,0.54-4.72c0.24-0.05,0.46-0.11,0.68-0.18
				c-0.18,1.54-0.36,3.08-0.53,4.62c-0.1,0.04-0.19,0.08-0.29,0.12C198.28,139.57,198.14,139.62,198.01,139.67"/>
			<path class="st7" d="M193.75,170.54c-0.11-0.21-0.23-0.41-0.35-0.61c-0.06-0.09-0.12-0.18-0.18-0.27
				c0.5-7.85-0.1-15.12-1.81-21.63c-0.25-0.96-0.51-1.91-0.77-2.87c-0.71-2.59-1.44-5.24-1.93-7.95c0.26,0.21,0.53,0.41,0.8,0.6
				c0.43,2.12,1,4.2,1.55,6.24c0.69,2.54,1.4,5.17,1.86,7.83c1.06,6.19,1.35,12.23,0.91,18.46
				C193.82,170.42,193.8,170.49,193.75,170.54"/>
			<path class="st7" d="M194.89,174.82c-0.08-0.8-0.2-1.58-0.4-2.32c0.51-5.35-0.03-10.79-0.55-16.09
				c-0.09-0.87-0.17-1.74-0.25-2.61c-0.44-4.73-0.94-9.57-1.48-14.43c0.11,0.05,0.23,0.1,0.34,0.15c0.12,0.05,0.23,0.09,0.35,0.13
				c0.65,5.81,1.19,11.13,1.63,16.16c0.06,0.69,0.12,1.39,0.19,2.08C195.22,163.45,195.74,169.18,194.89,174.82"/>
			<path class="st7" d="M197.8,169.8c-0.51-7.88-0.01-15.24,1.7-21.77c0.25-0.96,0.51-1.91,0.77-2.87c0.71-2.58,1.43-5.21,1.92-7.9
				c-0.26,0.2-0.53,0.4-0.8,0.59c-0.43,2.1-0.99,4.17-1.54,6.19c-0.69,2.54-1.4,5.17-1.86,7.83c-1.06,6.19-1.22,12.81-0.77,19.04
				L197.8,169.8z"/>
			<path class="st7" d="M196.18,174.47c-0.9-5.72-0.5-10.95,0.02-16.58c0.06-0.69,0.13-1.38,0.19-2.07
				c0.44-5.03,0.98-10.35,1.63-16.14c0.14-0.05,0.27-0.1,0.4-0.15c0.1-0.04,0.19-0.08,0.29-0.12c-0.54,4.86-1.04,9.69-1.48,14.41
				c-0.08,0.87-0.17,1.73-0.25,2.6c-0.53,5.34-0.98,11.12-0.45,16.52c-0.19,0.76-0.02,0.6-0.09,1.43L196.18,174.47z"/>
			<g>
				<path class="st5" d="M226.76,446.96c0.45,0,0.9-0.03,1.34-0.11c2.29-0.38,3.98-1.69,5.45-3.27c-0.01,0-0.02,0-0.02,0l-0.21,0.01
					c-3.06,0-13.44-8.46-15.76-11.05c0,0,13.52,9.98,15.72,9.98c0.03,0,0.06,0,0.09-0.01c1.84-0.28,7.09-8.9,7.2-9.09h0
					c0,0-0.08,0.14-0.23,0.38c-1.74,1.9-4.24,3.2-6.82,3.2c-0.14,0-0.27,0-0.41-0.01c-2.84-0.15-5.6-2.09-6.3-4.81
					c-0.52-2.03,0.11-4.21,1.23-5.99c1.12-1.78,2.71-3.22,4.27-4.64c-3.25,1.09-4.78,1.77-6.51,2.97c-1.26,0.87-5.25,2.74-8.18,2.74
					c-1.1,0-2.05-0.26-2.65-0.94c-0.6-0.69-1.2-1.37-1.68-2.14c-0.26-0.43-0.53-0.86-0.79-1.29c-0.4-0.02-0.81-0.07-1.2-0.15
					c-1.03-0.19-2.04-0.57-2.99-1.17c0.13,0.95,0.25,1.8,0.38,2.5c0.82,4.47,2.88,8.82,4.95,12.83c0.34,0.65,0.67,1.33,1.02,2.01
					c0.93,1.81,1.92,3.67,3.2,5.15l0.1,0.11c0.8,0.35,1.59,0.68,2.31,1C222.33,446.12,224.53,446.96,226.76,446.96"/>
				<path class="st5" d="M164.43,446.96c-0.45,0-0.9-0.03-1.34-0.11c-2.29-0.38-3.98-1.69-5.45-3.27c0.01,0,0.02,0,0.02,0l0.21,0.01
					c3.06,0,13.44-8.46,15.76-11.05c0,0-13.52,9.98-15.72,9.98c-0.03,0-0.06,0-0.09-0.01c-1.84-0.28-7.09-8.9-7.2-9.09h0
					c0,0,0.08,0.14,0.23,0.38c1.74,1.9,4.24,3.2,6.82,3.2c0.14,0,0.27,0,0.41-0.01c2.84-0.15,5.6-2.09,6.3-4.81
					c0.52-2.03-0.11-4.21-1.23-5.99c-1.12-1.78-2.71-3.22-4.27-4.64c3.25,1.09,4.78,1.77,6.51,2.97c1.26,0.87,5.25,2.74,8.18,2.74
					c1.1,0,2.05-0.26,2.65-0.94c0.6-0.69,1.2-1.37,1.68-2.14c0.26-0.43,0.53-0.86,0.79-1.29c0.4-0.02,0.81-0.07,1.2-0.15
					c1.03-0.19,2.04-0.57,2.99-1.17c-0.13,0.95-0.25,1.8-0.38,2.5c-0.82,4.47-2.88,8.82-4.95,12.83c-0.34,0.65-0.67,1.33-1.02,2.01
					c-0.93,1.81-1.92,3.67-3.2,5.15l-0.1,0.11c-0.8,0.35-1.59,0.68-2.31,1C168.86,446.12,166.65,446.96,164.43,446.96"/>
				<g>
					<g>
						<path d="M189.22,240.04c-3.31,0.51-6.34,1.66-9.48,2.74c-8.45,2.91-5.45-7.97-3.13-11.71c2.68-4.31,8.11-6.79,13.01-7.69
							c5.86-1.08,4.52,5.84,4.43,8.45C193.93,235.36,194.23,239.39,189.22,240.04 M194.69,231.89c0.07-1.93,0.19-3.84,0.04-5.77
							c-0.52-6.74-10.96-1.76-13.73-0.09c-5.35,3.23-8.21,9.51-7.47,15.56c0.15,1.23,1.13,2.86,2.64,2.69
							c4.54-0.51,8.63-2.92,13.16-3.62c2.37-0.31,3.82-0.73,4.9-2.84C195.04,236.27,194.63,233.56,194.69,231.89"/>
						<path d="M201.58,240.04c-5.08-0.66-4.78-4.69-4.91-8.21c-0.1-2.61-1.46-9.54,4.47-8.44c4.97,0.92,10.47,3.4,13.2,7.72
							c2.36,3.74,5.42,14.63-3.15,11.7C208,241.72,204.93,240.56,201.58,240.04 M196.01,231.88c0.06,1.67-0.34,4.38,0.47,5.93
							c1.1,2.11,2.57,2.54,4.97,2.85c4.59,0.71,8.75,3.13,13.34,3.65c1.53,0.17,2.52-1.45,2.67-2.68c0.74-6.05-2.17-12.33-7.6-15.58
							c-2.81-1.68-13.4-6.68-13.91,0.06C195.81,228.04,195.94,229.95,196.01,231.88"/>
						<path d="M187.58,220.45c-2.79,1.66-12.72,8.14-13.46,1.48c-0.64-5.76,1.06-9.83,6.38-12.44c3.24-1.59,8.41-4.62,11.98-4.02
							c2.46,1.44,1.47,6.18,1.06,8.34C192.93,217.11,190.25,218.85,187.58,220.45 M192.89,204.89c-0.76-0.32-1.74-0.2-2.52-0.08
							c-1.32,0.2-2.58,0.71-3.79,1.26c-0.32,0.14-0.64,0.29-0.96,0.44c-2.77,1.29-6.18,2.21-8.58,4.18
							c-2.46,2.02-3.42,4.24-3.73,7.37c-0.16,1.59-0.5,6.78,1,8.05c1.78,1.51,3.91-0.22,5.69-1.06c3.67-1.74,8.56-3.46,11.49-6.37
							c2.3-2.29,3.63-6.21,3.53-9.41c-0.05-1.45-0.54-3.39-1.84-4.22L192.89,204.89"/>
						<path d="M202.83,220.47c-2.68-1.59-5.35-3.34-5.97-6.64c-0.4-2.15-1.39-6.9,1.06-8.34c3.58-0.6,8.74,2.43,11.98,4.02
							c5.32,2.6,7.02,6.68,6.38,12.44C215.55,228.61,205.62,222.13,202.83,220.47 M197.52,204.92l-0.3,0.16
							c-1.3,0.83-1.8,2.77-1.84,4.22c-0.1,3.2,1.23,7.13,3.53,9.41c2.93,2.91,7.81,4.63,11.49,6.37c1.78,0.85,3.91,2.57,5.69,1.06
							c1.51-1.27,1.16-6.46,1-8.05c-0.31-3.13-1.27-5.35-3.73-7.37c-2.4-1.97-5.8-2.89-8.58-4.18c-0.32-0.15-0.64-0.3-0.96-0.44
							c-1.21-0.55-2.47-1.06-3.79-1.26C199.26,204.72,198.28,204.6,197.52,204.92"/>
						<g>
							<path d="M157.78,443.6l-0.21-0.01c-0.01,0-0.02,0-0.02,0c0,0-0.01-0.01-0.01-0.01c-2.66-0.47-7.54-8.94-7.54-10.13h0.53
								c0.11,0.18,5.37,8.8,7.2,9.09c0.03,0,0.05,0.01,0.09,0.01c2.2,0,15.72-9.98,15.72-9.98
								C171.22,435.14,160.84,443.6,157.78,443.6"/>
							<path d="M233.24,443.6l0.21-0.01c0.01,0,0.02,0,0.02,0c0,0,0.01-0.01,0.01-0.01c2.66-0.47,7.54-8.94,7.54-10.13h-0.53
								c-0.11,0.18-5.37,8.8-7.2,9.09c-0.03,0-0.05,0.01-0.09,0.01c-2.2,0-15.72-9.98-15.72-9.98
								C219.8,435.14,230.18,443.6,233.24,443.6"/>
							<path d="M280.56,259.59v-8.57c0-6.19-3.43-12.79-5.57-16.3c2.11-7.08,2.14-24.02,0.99-31.87c-0.7-4.78-4.03-8.67-5.67-11.17
								c0.03-0.19,0.06-0.38,0.1-0.58c0.9-5.77-3.02-19.94-5.37-25.92c-1.56-3.97-4.82-5.47-7.44-6.68
								c-1.42-0.65-2.64-1.22-3.33-2.02c-1.77-2.06-3.53-2.63-5.08-3.12c-0.41-0.13-0.8-0.26-1.18-0.41
								c-0.6-0.24-1.12-0.72-1.92-1.44c-1.36-1.23-3.41-3.1-7.8-5.64c-2.41-1.4-5.8-3.02-9.4-4.74c-5.88-2.82-12.75-6.07-14.39-8.09
								c-1.49-1.84-1.65-7.68-1.67-9.6c0.71-1.81,0.79-4.65,0.76-6.3c0.3,0.14,0.66,0.21,1.09,0.16c1.47-0.18,2.84-2.46,4.48-5.43
								c0.46-0.83,0.9-1.62,1.23-2.09c1.42-2.03,1.11-6.43,0.07-9.73c-0.3-0.96-0.82-1.52-1.53-1.65c-0.98-0.18-2.05,0.57-2.82,1.27
								c0.15-4.11,0.09-15.66-4.65-21.35c-4.08-4.9-12.25-6.12-15.35-6.41l-1.22,0c-3.1,0.29-11.26,1.51-15.35,6.41
								c-4.74,5.69-4.79,17.24-4.65,21.35c-0.77-0.71-1.84-1.45-2.82-1.27c-0.71,0.13-1.23,0.69-1.53,1.65
								c-1.04,3.3-1.35,7.69,0.07,9.73c0.33,0.48,0.77,1.26,1.23,2.09c1.64,2.97,3.02,5.25,4.48,5.43c0.43,0.05,0.79-0.02,1.09-0.16
								c-0.03,1.82,0.07,5.1,1,6.83c0,0,0,0.01,0.01,0.01c-0.04,1.35-0.33,7.16-1.91,9.11c-1.64,2.02-8.3,5.22-14.19,8.03
								c-3.59,1.72-6.99,3.35-9.4,4.74c-4.39,2.55-6.44,4.41-7.8,5.64c-0.8,0.73-1.33,1.21-1.92,1.44
								c-0.38,0.15-0.77,0.28-1.18,0.41c-1.55,0.5-3.31,1.06-5.08,3.12c-0.69,0.81-1.92,1.37-3.33,2.02
								c-2.62,1.21-5.88,2.71-7.44,6.68c-2.35,5.98-6.27,20.15-5.37,25.92c0.06,0.41,0.13,0.82,0.21,1.22
								c-1.66,2.48-4.65,6.09-5.33,10.74c-1.15,7.81-1.27,24.11,0.8,31.24c-2.1,3.38-5.83,10.28-5.83,16.72v8.57
								c-0.59,0.96-3.69,6.55-3.03,17.46c0.25,4.18,0.72,8.04,1.22,12.12c0.88,7.27,3.85,15.5,3.5,25.23
								c-0.52,14.83-0.31,28.98,0.27,31.72c0.54,2.5,5.17,14.7,5.36,15.21l0.17,0.45l0.47-0.12c0.03-0.01,2.8-0.8,3.04-4.46
								l1.48,1.69l0.39-0.55c0.09-0.12,1.39-1.97,1.76-4.26c0.82-1.39,2.54-4.97,0.55-8c-2.26-3.45-6-10.58-6.03-10.66l0,0
								c-0.01-0.24-0.03-0.45-0.06-0.59c0.56-4.24,0-5.78,1.58-6.38c0.13-0.05,0.2-0.03,0.28,0.02c1.15,0.74,1.41,2.71,1.69,4.8
								c0.26,1.96,0.54,3.98,1.53,5.55c1.17,1.84,2.97,4.23,5.06,2.49c1.38-1.15,0.17-9.03-0.16-11.37
								c-0.42-2.92-0.42-3.74-1.57-8.36c-0.74-2.95-1.18-4.47-1.37-5.83c-0.1-1.13,0.19-5.8,0.62-9.22
								c0.49-3.92,2.92-10.34,5.48-17.14c2.93-7.77,5.97-15.79,6.16-20.45c0.3-7.22-0.65-10.8-0.99-11.84
								c0.61-0.73,2.31-2.99,2.77-5.91c0.54-3.39,0.37-9.29,0.35-9.43c0.02-0.1,1.8-10.28,4.73-14.94
								c2.23-3.54,5.52-10.48,6.91-14.11c0.51,3.59,1.08,6.8,1.65,8.52c0.73,2.18,1.65,4.6,2.54,6.93c1.27,3.34,2.47,6.48,2.78,8.13
								c0.44,2.33,0.13,19.48,0.03,25.11c-0.02,1.21-0.04,2-0.04,2.2c0,0.01,0,0.01-0.01,0.02c-0.11,0.11-0.19,0.3-0.22,0.5
								c-0.23,0.41-0.58,0.97-0.91,1.49c-1.77,2.8-4.74,7.47-4.17,12.09c0.64,5.14,1.42,7.29,1.7,7.94
								c-0.58,1.86-4.89,15.93-4.23,26.08c0.23,3.54-1.16,9.07-2.92,16.06c-2.27,9.02-6.57,29.78-7.52,42.73
								c-1.41,19.16,4.08,41.09,5.6,52.93c0.32,2.54,0.54,4.21,0.57,4.72c0.07,1.25-0.04,2.12-0.18,3.11
								c-0.18,1.36-0.39,2.9-0.18,5.8c0.02,0.29,0.07,0.61,0.14,0.95c-0.74,1.66-7.27,16.65-7.44,26.42
								c-0.08,4.78,1.45,15.38,3.06,26.6c1.47,10.16,2.86,20.66,3.31,27.15l0.01,0.17c0.04,0.54,0.07,1.06,0.09,1.54
								c0.07,3.48-0.26,10.4-0.49,11.07c-0.52,1.59-1.01,3.1-0.97,5.44c-0.14,0.14-0.28,0.27-0.42,0.39
								c-1.92,1.64-2.7,3.85-3.45,5.99c-0.25,0.7-0.48,1.36-0.75,1.99c-1.04,2.42-10.22,10-11.49,10.79
								c-0.99,0.62-3.49,4.29-3.49,4.29c-0.94,1.01-0.65,2.66-0.46,3.75c0.03,0.19,0.07,0.37,0.09,0.53
								c0.08,0.58,0.26,0.99,0.4,1.31c0.13,0.28,0.22,0.49,0.22,0.74c0.01,0.34-0.05,0.75-0.1,1.14c-0.05,0.35-0.1,0.72-0.11,1.06
								c-0.01,0.61,0.02,2.08,0.61,2.57c0.34,0.28,0.66,0.48,1.13,0.56c-0.05,0.15-0.12,0.35-0.2,0.59
								c-0.37,1.08,0.45,2.19,1.05,2.64c0.43,0.32,1.11,0.35,1.58,0.32c0,0.09,0.02,0.15,0.03,0.2c0.07,0.77,0.33,1.83,1.31,2.29
								c1,0.47,1.51,0.36,2.09,0.08c1.14,1.58,3.47,2.54,5.56,2.34c0.27-0.03,0.54-0.07,0.8-0.14c2.15-0.55,4.85-2.41,5.85-4.89
								c0.8-1.99,1.97-2.65,3.01-3.11c4.3-1.35,6.64-6.14,7.26-10.58c0.55-3.92,3.07-8.19,3.72-9.07c3-1.26,4.77-2.85,6.31-5.1
								c1.61-2.37,1.68-3.88,1.23-5.84c-0.43-1.87-1.59-10.65-2-12.01c-0.35-1.2-0.52-2.41-0.8-3.9c-0.87-4.63,4.88-28.54,6.57-33.2
								c0.65-1.78,1.58-3.73,2.65-5.99c1.82-3.82,4.09-8.58,5.91-14.6c2.74-9.11-1.59-29.27-2.12-31.65
								c1.59-2.79,3.01-5.69,4.24-8.64c0.98-2.36,1.91-4.82,2.37-7.34c0.69-3.73,1.28-10.79,1.97-18.96
								c0.61-7.22,1.3-15.4,2.14-21.93c1.04-8.06,3.17-17.16,4.88-24.48c1.17-5.01,2.19-9.33,2.52-11.93
								c0.62-4.87,0.01-9.73-0.34-11.85c0.38,0.04,1.49,0.05,1.76,0c-0.35,2.12-0.96,6.98-0.34,11.85
								c0.33,2.61,1.34,6.93,2.52,11.93c1.71,7.31,3.85,16.42,4.88,24.48c0.84,6.53,1.53,14.71,2.14,21.93
								c0.69,8.17,1.28,15.23,1.97,18.96c0.46,2.53,1.39,4.98,2.37,7.34c1.23,2.95,2.64,5.85,4.24,8.64
								c-0.53,2.38-4.86,22.54-2.12,31.65c1.81,6.02,4.08,10.78,5.91,14.6c1.08,2.26,2.01,4.21,2.65,5.99
								c1.69,4.66,7.44,28.56,6.57,33.2c-0.28,1.49-0.44,2.71-0.8,3.9c-0.4,1.36-1.57,10.15-2,12.01c-0.45,1.96-0.39,3.47,1.23,5.84
								c1.54,2.25,3.31,3.84,6.31,5.1c0.65,0.88,3.17,5.15,3.72,9.07c0.62,4.44,2.97,9.23,7.26,10.58c1.04,0.45,2.21,1.11,3.01,3.11
								c1,2.49,3.7,4.34,5.85,4.89c0.26,0.07,0.53,0.11,0.8,0.14c2.09,0.2,4.41-0.76,5.56-2.34c0.58,0.28,1.09,0.39,2.09-0.08
								c1.07-0.51,1.28-1.72,1.33-2.49c0.47,0.03,1.16,0,1.59-0.32c0.6-0.44,1.41-1.55,1.05-2.64c-0.08-0.22-0.14-0.41-0.19-0.56
								l0,0c0-0.01-0.01-0.02-0.01-0.04c0.47-0.09,0.79-0.28,1.13-0.56c0.59-0.49,0.63-1.96,0.61-2.57
								c-0.01-0.34-0.06-0.7-0.11-1.06c-0.05-0.39-0.11-0.8-0.1-1.14c0-0.25,0.1-0.46,0.22-0.74c0.14-0.32,0.32-0.72,0.4-1.31
								c0.02-0.16,0.05-0.34,0.09-0.53c0.19-1.09,0.48-2.75-0.46-3.75c0,0-2.5-3.67-3.49-4.29c-1.27-0.79-10.45-8.37-11.49-10.79
								c-0.27-0.63-0.5-1.29-0.75-1.99c-0.75-2.14-1.53-4.35-3.45-5.99c-0.14-0.12-0.28-0.25-0.42-0.39
								c0.04-2.34-0.45-3.85-0.97-5.44c-0.22-0.68-0.56-7.6-0.49-11.07c0.02-0.48,0.05-1,0.09-1.54c0.01-0.06,0.02-0.12,0.03-0.17
								l-0.02,0c0.44-6.49,1.84-16.99,3.31-27.15c1.62-11.22,3.15-21.82,3.06-26.6c-0.17-9.71-6.61-24.55-7.42-26.38
								c0.09-0.41,0.15-0.79,0.17-1.14c0.21-2.9,0-4.44-0.18-5.8c-0.13-1-0.25-1.86-0.18-3.11c0.03-0.51,0.24-2.19,0.57-4.72
								c1.52-11.85,7.01-33.77,5.6-52.93c-0.96-12.95-5.25-33.72-7.52-42.73c-1.76-6.99-3.15-12.52-2.92-16.06
								c0.66-10.15-3.64-24.23-4.22-26.08c0.28-0.65,1.06-2.8,1.7-7.94c0.57-4.61-2.4-9.29-4.17-12.09
								c-0.52-0.82-1.11-1.75-1.14-2.01c0-0.2-0.01-1-0.04-2.2c-0.1-5.64-0.41-22.78,0.03-25.11c0.31-1.65,1.51-4.79,2.78-8.13
								c0.89-2.34,1.82-4.76,2.54-6.93c0.55-1.66,1.08-4.75,1.58-8.2c0-0.01,0-0.01,0-0.02c1.43,3.55,4.62,10.05,6.69,13.71
								c3.64,6.45,4.89,16.96,5.09,24.37c0.08,2.95,2.16,5.17,2.77,5.91c-0.34,1.04-1.29,4.62-0.99,11.84
								c0.19,4.66,3.23,12.69,6.16,20.45c2.57,6.8,5,13.22,5.48,17.14c0.35,2.83,0.7,4.66,0.72,6.06c0.02,1.34,0.01,2.68-0.12,4.02
								c-0.12,1.24-0.64,2.71-1.27,5.22c-1.15,4.63-1.15,5.45-1.57,8.36c-0.33,2.34-1.54,10.22-0.16,11.37
								c2.1,1.74,3.9-0.64,5.06-2.49c1-1.57,1.27-3.6,1.53-5.55c0.28-2.09,0.55-4.06,1.69-4.8c0.08-0.05,0.15-0.07,0.28-0.02
								c1.58,0.59,1.02,2.14,1.58,6.38c-0.03,0.15-0.05,0.35-0.06,0.59l0,0c-0.04,0.07-3.77,7.2-6.03,10.65
								c-1.99,3.03-0.28,6.61,0.55,8c0.37,2.29,1.67,4.14,1.76,4.26l0.39,0.55l1.48-1.69c0.24,3.66,3.01,4.45,3.04,4.46l0.47,0.12
								l0.17-0.45c0.2-0.52,4.83-12.71,5.36-15.21c0.59-2.73,0.8-16.88,0.27-31.72c-0.34-9.73,2.62-17.96,3.51-25.23
								c0.5-4.08,0.96-7.94,1.22-12.12C284.24,266.14,281.15,260.55,280.56,259.59z M275.12,202.38c1.32,7.7,1.08,24.26-0.83,31.22
								c-0.41-0.63-0.71-1.07-0.86-1.28c-0.09-1.6-0.78-13.77-1.96-19.51c-1.12-5.42-3.1-10.61-3.51-11.66
								c0.28-0.81,1.35-4.09,2.14-8.28C270.89,193.81,274.57,199.17,275.12,202.38z M220.13,261.36c0.01-1.23,0.08-2.45,0.19-3.67
								c0.28,0.08,0.61,0.08,1.02-0.03c2.66-0.73,5.02-5.23,6.13-7.39c1.28-2.47,2.24-5.01,2.85-7.64
								c-0.02,4.36,0.05,10.11,0.14,15.37c-1.77,3.01-4.15,5.71-7.15,7.54c-0.45,0.29-1.08,0.57-1.61,0.64
								c-1.06,0.14-1.6-1.23-1.49-2.1C220.17,263.17,220.13,262.26,220.13,261.36z M230.41,237.32c-0.26,6.07-2.43,11.91-6.11,16.74
								c-0.92,1.21-2,2.72-3.75,1.92c-0.93-0.42-0.86-1.48-0.73-2.33c0.19-1.31,0.32-2.62,0.57-3.92c0.12-0.65,0.29-1.3,0.5-1.92
								c0.03-0.09,0.17-0.55,0.32-0.97c0.53,0.15,1.26-0.06,2.28-0.79c3.02-2.17,4.68-5.58,5.52-9.27c0.62-0.54,1.21-1.11,1.77-1.72
								c-0.08,0.31-0.15,0.6-0.2,0.86C230.52,236.19,230.41,237.27,230.41,237.32z M225.96,242.68c-0.51,0.71-1.02,1.38-1.68,1.96
								c-0.77,0.68-1.73,1.84-2.88,1.22c-1.04-0.56-0.7-2.34-0.61-3.28c0.16-1.65,0.38-3.29,0.56-4.94
								c2.76-2.46,5.01-5.63,6.57-9.12c0.4-0.11,0.8-0.24,1.18-0.38C229.23,232.7,228.73,238.85,225.96,242.68z M225.46,231.86
								c-1.13,1.7-4.06,7.06-4.72,2.76c-0.42-2.74-1.59-6.87,0.56-9.27c0.72-0.14,1.25-1.02,1.75-1.48
								c0.58-0.52,1.15-1.06,1.71-1.62c0.2-0.2,0.39-0.41,0.59-0.62c1.44-0.13,2.83-0.42,4.15-0.87
								C229.02,224.76,227.63,228.62,225.46,231.86z M220.44,223.24c-0.47-1.25-1.02-2.5-1-3.86c0.03-3.64,2.92-6.48,6.14-8.09
								c1.86,0.65,3.78,1.1,5.76,1.33c-1.42,2.51-3.06,4.91-5,7.07c-0.71,0.79-1.58,1.46-2.37,2.18c-0.5,0.46-1.01,0.91-1.49,1.39
								c-0.32,0.32-0.82,0.84-1.29,0.9C220.61,224.24,220.62,223.7,220.44,223.24z M226.06,220.9c0.63-0.68,1.25-1.38,1.84-2.11
								c1.55-1.91,2.93-3.95,4.15-6.09c0.9,0.08,1.85,0.14,2.77,0.14c0.23,1.16,0.34,2.52,0.37,3.9l-0.02,0.01
								C232.58,219.05,229.48,220.45,226.06,220.9z M223.25,209.62c0.23-0.01,0.46-0.01,0.69-0.02c2.89-0.14,5.84-1.69,8.49-3.69
								c1.03,2.03,1.76,4.12,2.25,6.28l0,0C230.64,212.19,226.8,211.31,223.25,209.62z M227.36,207.95
								c-6.77,2.91-19.08-0.21-24.49-5.62c-4.19-4.19-4.92-10.9-5.48-16.54c-0.38-3.74-1.89-11.18,0.31-14.6
								c4.34-6.72,9.72-7.6,17.45-8.04c15.51-0.88,16.59,3.97,21.85,9.02c1.78,1.71,2.89,3.52,4.13,5.3
								c3.83,5.47,4.84,10.59,4.39,11.12C241.24,195.58,235.12,204.62,227.36,207.95z M207.17,148.54c0.79-2,1.47-3.7,1.92-4.78
								c0.72-1.74,1.33-4.14,1.82-6.55c5.67,5.09,6.74,15.21,13.71,18.81c1.15,0.59,2.31,0.98,3.49,1.2
								c-1.75,0.76-3.8,1.58-5.99,2.29C215.13,159.29,209.41,155.08,207.17,148.54z M220.4,160.02c-6.11,1.76-12.93,2.44-17.3-1.1
								c1.21-3.11,2.55-6.54,3.71-9.47C209.11,155.33,214.17,159.25,220.4,160.02z M208.6,143.55c-1.84,4.46-7.6,19.29-9.09,23.13
								c-0.39-2.55-1.26-9.6,0.15-14.41c0.71-2.41,1.7-4.81,2.84-7.59c1.68-4.08,3.75-9.13,5.86-16.43
								c1.37-1.18,2.59-2.31,3.39-3.21c0.03,0.59,0.09,1.34,0.18,2.16C211.58,130.44,210.21,139.65,208.6,143.55z M246.13,188.82
								l0.02-0.03c3.86,7.42,10.28,12.76,18.22,15.21c7.18,15.25,4.69,34.67-1.23,50.38c-3.04-3.05-6.04-6.75-8.26-10.36
								c-2.84-4.64-4.57-9.91-6.42-15.01c-3.75-10.39-6.85-21.09-7.45-32.09C242.86,194.32,244.45,191.57,246.13,188.82z
								 M263.91,254.33c6.2-14.45,8.59-34.99,1.44-50.41c0.56-0.74,1.11-1.49,1.67-2.23c0.5,1.29,2.35,6.21,3.4,11.33
								c1.06,5.15,1.72,15.88,1.89,18.75c0,0.46,0.03,0.8,0.06,1.05c0.56,8.26-4.07,14.58-8.18,21.62c-0.12,0.21-0.24,0.4-0.36,0.6
								c-0.05-0.04-0.09-0.09-0.14-0.14C263.77,254.75,263.84,254.5,263.91,254.33z M254.6,158.15c0.74,0.48,1.62,0.89,2.53,1.31
								c2.57,1.19,5.49,2.53,6.9,6.1c2.32,5.88,6.18,19.78,5.31,25.36c-0.74,4.74-1.99,8.64-2.36,9.74
								c-2.06,2.62-3.34,2.81-6.68,1.13c-2.29-1.15-4.53-2.47-6.46-4.19c-3.28-2.93-5.84-6.31-7.73-10.31
								c-0.01-0.02-0.02-0.03-0.04-0.05c-0.67-5.47-5.35-12.92-10.81-18.15c-0.24-0.53-0.45-1.07-0.61-1.62
								c-1.77-6.07,3.22-7.28,7.97-6.98C246.16,160.7,252.66,162.16,254.6,158.15z M248.85,154.36c1.49,0.48,3.02,0.97,4.59,2.8
								c0.19,0.22,0.4,0.41,0.63,0.6c-2.65,6.25-15.34-1.15-19.69,4.39c-1.28,1.63-1.23,3.63-0.51,5.67
								c-3.39-2.94-7.11-5.34-10.16-5.43c-15.46-0.46-20.6,1.5-23.83,4.8c0.47-1.21,1.62-4.17,2.97-7.64
								c6.96,5.38,19.45,0.97,26.44-2.17c6.14,0.64,12.58-2.61,18.64-3.33C248.23,154.16,248.53,154.26,248.85,154.36z
								 M213.85,133.74c1.79,2.21,8.28,5.32,14.56,8.33c3.57,1.71,6.95,3.33,9.32,4.7c4.29,2.49,6.29,4.31,7.62,5.51
								c0.56,0.51,1.02,0.91,1.48,1.22c-8.98,1.37-19.83,7.55-26.17-2.35c-3.11-4.86-5.21-10.81-9.61-14.73
								c0.55-2.89,0.94-5.7,1.14-7.34C212.52,130.9,213.03,132.72,213.85,133.74z M177.51,115.62c-0.01,0.03-0.38,0.69-1.06,0.6
								c-1.04-0.13-2.69-3.11-3.68-4.89c-0.49-0.89-0.92-1.67-1.29-2.19c-1.06-1.52-1.03-5.3,0.07-8.79
								c0.18-0.56,0.41-0.86,0.71-0.92c0.76-0.14,2.1,1.08,2.81,1.98l1.08,1.36l-0.13-1.74c-0.01-0.15-1.1-15.54,4.33-22.05
								c4.03-4.83,12.71-5.87,15.14-6.07c2.43,0.2,11.11,1.24,15.14,6.07c5.43,6.51,4.34,21.9,4.33,22.05l-0.13,1.74l1.08-1.36
								c0.72-0.9,2.06-2.12,2.81-1.98c0.29,0.05,0.53,0.36,0.71,0.92c1.1,3.49,1.13,7.27,0.07,8.79c-0.37,0.52-0.79,1.3-1.29,2.19
								c-0.99,1.78-2.64,4.76-3.68,4.89c-0.68,0.09-1.05-0.57-1.06-0.6l-1.17-2.24l0.16,2.52c0,0.05,0.33,5.39-0.83,7.55
								c-1.18,2.19-10.7,9.59-12.53,10.26c-1.03,0.37-2.5,0.51-3.61,0.56c-1.11-0.05-2.58-0.19-3.61-0.56
								c-1.83-0.67-11.35-8.07-12.53-10.26c-1.16-2.15-0.83-7.49-0.83-7.55l0.16-2.52L177.51,115.62z M169.27,266.42
								c-0.53-0.07-1.16-0.35-1.61-0.64c-2.77-1.69-5.02-4.13-6.74-6.86c0.08-4.8,0.15-10.11,0.16-14.42
								c0.6,2.06,1.42,4.06,2.43,6.02c1.11,2.16,3.47,6.66,6.13,7.39c0.4,0.11,0.74,0.11,1.02,0.03c0.11,1.22,0.18,2.44,0.19,3.67
								c0.01,0.9-0.04,1.81-0.08,2.71C170.87,265.19,170.34,266.56,169.27,266.42z M170.43,256.24c-1.76,0.79-2.83-0.71-3.75-1.92
								c-2.81-3.69-4.74-7.97-5.61-12.48c-0.02-2.87-0.09-5-0.24-5.76c-0.01-0.04-0.02-0.09-0.03-0.14c0.38,0.38,0.77,0.75,1.18,1.1
								c0.84,3.68,2.5,7.1,5.52,9.27c1.01,0.73,1.75,0.94,2.28,0.79c0.15,0.42,0.29,0.88,0.32,0.97c0.21,0.63,0.37,1.27,0.5,1.92
								c0.25,1.3,0.37,2.61,0.57,3.92C171.29,254.76,171.37,255.82,170.43,256.24z M169.57,246.1c-1.15,0.62-2.11-0.54-2.88-1.22
								c-0.66-0.58-1.17-1.25-1.68-1.96c-2.77-3.83-3.27-9.97-3.16-14.55c0.39,0.14,0.78,0.27,1.19,0.38
								c1.56,3.49,3.81,6.66,6.57,9.12c0.18,1.65,0.4,3.29,0.56,4.94C170.28,243.76,170.62,245.54,169.57,246.1z M170.23,234.87
								c-0.66,4.29-3.58-1.07-4.72-2.76c-2.18-3.26-3.58-7.31-4.06-11.35c1.24,0.42,2.54,0.7,3.89,0.85c0.29,0.3,0.56,0.61,0.86,0.9
								c0.56,0.55,1.12,1.09,1.71,1.62c0.51,0.46,1.03,1.34,1.75,1.48C171.82,228,170.65,232.13,170.23,234.87z M156.22,213.09
								C156.22,213.09,156.22,213.09,156.22,213.09c0.91,0,1.82-0.05,2.71-0.13c1.22,2.14,2.59,4.18,4.15,6.09
								c0.5,0.62,1.02,1.22,1.56,1.81c-3.31-0.48-6.31-1.86-8.83-4.11l-0.01-0.01C155.84,215.41,156.01,214.19,156.22,213.09z
								 M169.79,224.42c-0.48-0.06-0.97-0.58-1.29-0.9c-0.48-0.48-0.98-0.94-1.49-1.39c-0.79-0.71-1.66-1.38-2.37-2.18
								c-1.94-2.16-3.58-4.55-5-7.06c1.99-0.23,3.92-0.67,5.79-1.33c3.2,1.61,6.08,4.45,6.11,8.07c0.01,1.36-0.53,2.61-1,3.86
								C170.36,223.95,170.37,224.49,169.79,224.42z M156.36,212.44c0.51-2.28,1.33-4.52,2.48-6.67c2.6,1.9,5.48,3.35,8.25,3.49
								c0.62,0.03,1.22,0.05,1.81,0.06C165.05,211.38,160.82,212.43,156.36,212.44z M163.67,207.61
								c-7.76-3.33-14.63-13.12-18.16-19.36c0.27-3.14,1.94-6.89,4.44-10.54c2.88-4.2,6.29-8.2,8.51-9.99
								c6.05-4.88,11.39-4.67,16.52-4.5c7.74,0.25,14.6,1.58,18.35,7.64c2.14,3.45,0.69,10.86,0.31,14.6
								c-0.57,5.65-1.3,12.35-5.48,16.54C182.76,207.41,170.78,210.67,163.67,207.61z M126.53,204.36
								c8.12-2.46,14.67-7.97,18.54-15.59c1.72,2.83,3.27,5.6,5.15,8.23c-0.59,11.03-3.7,21.77-7.46,32.19
								c-1.84,5.1-3.58,10.38-6.42,15.01c-2.41,3.94-5.03,7.47-8.37,10.68C122.05,239.22,119.44,219.62,126.53,204.36z M127,254.14
								c-4.05-6.87-8.8-13.43-8.2-21.68c0.18-3.02,0.92-14.35,1.97-19.45c0.98-4.75,2.64-9.32,3.27-10.99
								c0.58,0.77,1.16,1.55,1.74,2.32c0.01,0.02,0.03,0.03,0.04,0.04C118.91,219.52,121.25,238.56,127,254.14z M191.51,166.63
								c-1.49-3.84-7.24-18.68-9.09-23.13c-2.06-4.98-3.19-15.48-3.24-15.91c0.1-0.89,0.17-1.71,0.2-2.37
								c0.81,0.88,1.98,1.97,3.29,3.09c2.1,7.24,4.16,12.27,5.83,16.32c1.14,2.78,2.13,5.19,2.84,7.59
								C192.77,157.03,191.89,164.09,191.51,166.63z M184.28,149.58c1.17,2.95,2.51,6.4,3.72,9.5c-2.92,2.92-11.11,2.85-17.53,1.17
								C176.81,159.52,181.97,155.56,184.28,149.58z M168.82,159.7l-0.05,0.02c-2.15-0.7-4.16-1.5-5.89-2.25
								c1.18-0.23,2.34-0.61,3.49-1.2c7-3.62,8.04-13.82,13.79-18.88c0.48,2.34,1.07,4.64,1.77,6.33c0.46,1.11,1.17,2.88,1.99,4.96
								C181.67,155.29,175.88,159.54,168.82,159.7z M145.84,152.28c1.32-1.2,3.33-3.02,7.62-5.51c2.37-1.38,5.75-2.99,9.32-4.71
								c6.28-3.01,12.77-6.12,14.56-8.33c0.75-0.93,1.24-2.52,1.55-4.16c0.22,1.72,0.6,4.35,1.12,7.02
								c-4.45,3.92-6.56,9.92-9.69,14.81c-6.38,9.97-17.33,3.64-26.35,2.33C144.58,153.41,145.13,152.92,145.84,152.28z
								 M137.75,157.16c1.57-1.83,3.11-2.32,4.59-2.8c0.05-0.01,0.09-0.03,0.13-0.04l0.45-0.02c6.09,0.69,12.58,3.99,18.76,3.35
								c7.03,3.15,19.86,6.99,26.56,2.08c1.18,3.03,2.19,5.65,2.72,7.01c-3.32-3.18-8.79-4.65-23.79-4.26
								c-3.04,0.08-6.59,2.19-9.96,5.25c0.6-1.91,0.57-3.77-0.63-5.3c-4.36-5.56-17.14,1.92-19.72-4.47
								C137.2,157.7,137.5,157.45,137.75,157.16z M127.15,165.55c1.4-3.57,4.32-4.91,6.9-6.1c0.81-0.37,1.6-0.74,2.28-1.16
								c1.88,4.13,8.46,2.65,12.02,2.43c4.76-0.3,9.75,0.92,7.97,6.98c-0.13,0.44-0.28,0.87-0.46,1.29
								c-5.68,5.68-10.53,13.73-10.95,18.68c-1.88,3.97-4.43,7.33-7.69,10.24c-1.93,1.73-4.17,3.04-6.46,4.19
								c-3.2,1.61-4.38,1.45-6.3-0.87l-0.15-0.29c-0.02-0.04-1.6-4.47-2.47-10.05C120.97,185.33,124.83,171.44,127.15,165.55z
								 M116.51,202.58c0.49-2.88,3.52-7.5,4.71-9.09c0.77,3.88,1.76,6.87,2.02,7.64c-0.41,1.04-2.4,6.24-3.51,11.66
								c-1.18,5.74-1.87,17.91-1.96,19.51c-0.11,0.16-0.32,0.45-0.58,0.85C115.42,225.87,115.23,210.05,116.51,202.58z
								 M108.67,276.97c-0.53-8.74,1.45-14.01,2.42-16.02c1.13,7.5,4.35,15.02,7.41,21.95c4.06,9.2,6.58,19.54,7.33,29.41
								c-0.08,2.04,0,3.5,0.2,4.78c-7.69-9.73-14.27-20.29-16.67-32.49C109.08,282.1,108.83,279.6,108.67,276.97z M123.01,357.12
								l-1.4-1.59c-0.32-3.78-1.98-9.71-2.25-10.64c0.03-0.22,0.08-0.79,0.14-1.55c1.09,2.03,2.7,4.91,4.05,6.97
								C125.17,352.77,123.74,355.86,123.01,357.12z M119.8,337.69c1.27,2.37,3.55,6.54,5.14,8.95c1.06,1.62,0.81,3.49,0.3,4.96
								c-0.14-0.63-0.39-1.27-0.79-1.88c-1.73-2.63-3.87-6.63-4.81-8.4C119.71,340.13,119.77,338.83,119.8,337.69z M127.05,321.68
								c0.98,4.15,1.59,6.28,1.59,8.28c0,5.14,1.61,10.78-0.23,10.79c-0.45,0-1.4-0.46-2.7-2.51c-0.87-1.38-1.13-3.28-1.38-5.12
								c-0.32-2.34-0.61-4.55-2.18-5.55c-0.38-0.24-0.8-0.28-1.23-0.12c-2.57,0.97-1.73,5.35-2.27,7.21l-0.04,0.13l0.03,0.14
								c0.68,2.91-0.35,9.86-0.36,9.93l-0.02,0.12l0.03,0.11c0.02,0.08,2.29,7.98,2.29,11.6c0,2.38-1.17,3.37-1.83,3.74
								c-0.91-2.4-4.66-12.4-5.12-14.54c-0.47-2.21-0.79-16.09-0.25-31.46c0.34-9.5-2.43-17.57-3.42-24.7
								c3.14,10.54,9.28,19.86,16.22,28.55l0.04,0.06C126.46,319.45,126.74,320.36,127.05,321.68z M129.56,294.14
								c-0.34,1.45-0.2,0.85-0.59,2.44c-1.36,3.85-2.33,7.31-2.64,9.79c-0.05,0.44-0.1,0.86-0.15,1.26
								c-0.81-5.91-2.34-12.77-4.3-18.23c-3.49-9.71-8.89-19.14-10.2-29.48c0,0,0.01-0.01,0.01-0.01l0.01-0.01v-8.89
								c0-6.91,4.65-14.63,6.38-17.26c0,0,0-0.01,0-0.01c-0.07,9.41,6.6,16.89,10.77,25.1c5.08,10.01,3.24,23.82,0.86,34.56
								C129.61,293.84,129.62,293.82,129.56,294.14z M137.97,268.86c-0.19,4.49-3.19,12.43-6.09,20.12
								c-0.14,0.38-0.48,1.04-0.84,1.74c1.76-8.33,2.67-16.73,0.86-25.27c-0.18-0.84-0.41-1.67-0.68-2.48
								c1.73-2.05,3.67-3.89,5.83-5.51C137.36,258.45,138.26,261.94,137.97,268.86z M144.99,226.22c-3.05,4.84-4.81,14.9-4.89,15.44
								c0,0.06,0.17,6.04-0.35,9.34c-0.5,3.17-2.69,5.57-2.71,5.6l-0.22,0.24c0,0,0,0,0,0c-2.15,1.6-4.1,3.42-5.85,5.44
								c-0.05-0.13-0.09-0.24-0.12-0.35c-0.79-2.15-1.83-4.21-2.97-6.24c3.2-3.02,6.14-6.39,9.01-11.17
								c2.82-4.67,3.84-8.29,5.76-13.3c4.14-10.79,7.46-21.94,8.15-33.43c0.11,0.15,0.22,0.3,0.34,0.45
								c0.28,2.88,0.74,7.43,1.31,11.83c0.01,0.05,0.01,0.1,0.02,0.15C151.35,213.46,147.6,222.08,144.99,226.22z M152.37,199.73
								c1.54,1.78,3.62,3.88,5.95,5.65c-2.46,4.58-3.51,9.54-3.14,14.46C154.05,215.43,152.96,205.56,152.37,199.73z M156.66,224.2
								c-0.65-2.52-0.89-4.71-0.88-6.66c1.53,1.28,3.2,2.26,5,2.95c0.29,2.56,0.96,5.1,1.96,7.52
								C160.41,227.29,158.34,225.98,156.66,224.2z M158.55,229.65c-0.03-0.08-0.08-0.21-0.15-0.36c-0.57-1.36-1.02-2.64-1.39-3.85
								c1.25,1.14,2.68,2.05,4.24,2.7c-0.01,0.02-0.02,0.05-0.02,0.07c-0.07,2.44,0.05,5.13,0.53,7.73
								c-0.47-0.44-0.92-0.91-1.35-1.39C159.97,233.24,159.27,231.58,158.55,229.65z M155.53,277.55
								c-0.52-4.23,2.32-8.71,4.01-11.38c0.31-0.48,0.55-0.87,0.75-1.2c6.75,3.03,14.86,8.34,13.04,17.32
								c-0.51,2.5-2.7,5.18-4.25,7.06c-2.16,2.63-4.18,1.42-6.44-0.37c-1.96-1.55-3.89-3.14-5.82-4.73
								C156.47,283.15,155.96,281.09,155.53,277.55z M150.06,328.03c1.78-7.09,3.19-12.68,2.95-16.39
								c-0.48-7.29,1.67-16.69,3.09-21.92c4.19,4.58,3.68,11.88,2.8,17.89c-1.04,7.17-2.2,17.42-9.02,21.14
								C149.94,328.5,150,328.26,150.06,328.03z M142.56,370.58c0.62-8.34,2.63-19.98,4.59-29.58c-0.64,7.48-0.44,14.04,1.26,22.92
								c1.7,8.86,7.09,21.02,9.13,32.19c0.77,4.2,1.47,14.94-0.59,20.88c-1.36,3.94-5.38,7.15-8.8,6.23
								C146.62,411.37,141.16,389.59,142.56,370.58z M144.13,490.89c-1.61-11.18-3.14-21.74-3.05-26.43
								c0.14-8.22,5.08-20.65,6.81-24.76c0.97,3.08,2.97,7.13,4.7,10.34c-0.07,12.91-0.15,25.82-0.22,38.73
								c-0.06,11.34,1.75,25.15-4.9,35.04c0.08-1.75,0.11-3.44,0.05-4.59C147.3,512.82,145.69,501.7,144.13,490.89z M162.96,525.57
								c0.07,0.38,0.15,0.75,0.22,1.11c-3.86-4.37-3.91-11.01-3.94-16.96c0-0.87-0.01-1.72-0.02-2.54
								c-0.14-7.72-0.21-14.79,0.25-21.85c0.8,3.53,2.95,8.73,8.68,11.28C165.8,505.37,162.22,521.64,162.96,525.57z M178.11,471.28
								c-1.79,5.94-4.04,10.66-5.85,14.45c-1.09,2.28-2.03,4.25-2.69,6.08c-0.28,0.78-0.67,2.07-1.12,3.7
								c-5.79-2.67-8.03-8.57-8.85-11.89c0.05-0.62,0.09-1.23,0.15-1.85c0.15-1.57,0.24-3.19,0.34-4.89
								c0.26-4.48,0.39-9.07,1.78-13.38c1.05-3.26,2.71-6.31,4.64-9.12c1.95-2.84,4.37-5.27,6.4-8.05c1.18-1.62,2.28-3.3,3.31-5.02
								C177.23,446.23,180.49,463.39,178.11,471.28z M182.58,423.76c-0.82,4.47-2.88,8.82-4.95,12.83
								c-1.22,2.36-2.43,5.09-4.16,7.12c-4.75,5.58-9.89,10.97-12.2,18.09c-1.59,4.89-1.96,9.92-2.25,15.03
								c-0.1,1.7-0.19,3.3-0.34,4.86c-0.77,8.32-0.69,16.48-0.52,25.53c0.02,0.82,0.02,1.66,0.02,2.53
								c0.03,6.73,0.06,14.32,5.45,18.92c0.15,0.6,0.29,1.17,0.44,1.7c0.59,3,1.53,9.65,1.87,11.15c0.41,1.79,0.35,3.02-1.09,5.14
								c-1.23,1.81-3.07,3.24-4.65,4.14c1.21-1.95,3.3-5.33,3.3-5.33c-1.58,1.67-4.8,6.07-4.86,6.17h0
								c-0.6,0.75-3.37,5.36-3.96,9.57c-0.58,4.1-2.74,8.64-6.67,9.86l-0.05,0.02c-0.87,0.38-2.5,1.08-3.51,3.6
								c-0.89,2.21-3.31,3.87-5.25,4.36c-2.02,0.52-4.63-0.48-5.59-2.14l-0.03-0.05c-0.15-0.8-0.02-1.09,0.3-1.39
								c0.09-0.08,0.24-0.22,0.44-0.39c1.3-1.15,2.72-2.45,3.1-3.2c0.35-0.69,3.09-5.16,5.23-6.9c0,0-3.43,1.79-6.02,6.5
								c-0.36,0.65-2.13,2.26-2.9,2.94c-0.21,0.18-0.37,0.33-0.46,0.41c-0.56,0.53-0.73,1.13-0.58,2.08
								c-0.39,0.19-0.63,0.25-1.33-0.08c-0.6-0.28-0.77-1.06-0.82-1.64l0,0c0-0.03,0.28-3.61,6.66-11.73c0,0-2.09,1.66-3.9,4.36
								c-2.35,3.51-3.22,5.39-3.52,6.41c-0.43,0.04-0.99,0.02-1.2-0.14c-0.43-0.32-0.93-1.07-0.73-1.64
								c0.07-0.22,0.13-0.4,0.18-0.54l0,0c0.75-2.6,3.46-8.55,5.76-11.17c0,0-1.34,0.92-3,3.52c-1.66,2.6-2.59,4.28-3.32,6.45
								c-0.35-0.04-0.56-0.16-0.84-0.39c-0.13-0.12-0.31-0.85-0.29-1.87c0.01-0.29,0.05-0.61,0.1-0.96
								c0.06-0.43,0.12-0.87,0.11-1.28c0-0.11-0.01-0.22-0.03-0.32c0.36-1.49,1.42-4.16,4.21-7.46c0,0-1.33,1.12-2.45,2.64
								c-1,1.37-1.76,2.43-2.24,3.51c-0.05-0.16-0.09-0.32-0.12-0.52c-0.02-0.17-0.06-0.36-0.09-0.57c-0.17-0.98-0.4-2.31,0.23-2.99
								c0,0,2.39-3.57,3.32-4.15c1.36-0.85,10.68-8.5,11.83-11.19c0.28-0.66,0.53-1.36,0.77-2.05c0.71-2.03,1.45-4.12,3.19-5.61
								c2.49-2.12,4.27-7.45,4.27-7.45c-0.01,0.02-1.65,3.14-3.51,5.38c0.09-1.64,0.47-2.83,0.91-4.16
								c0.14-0.44,0.41-3.28,0.57-6.25c6.45-9.06,5.51-21.44,5.57-32.01c0.08-13.93,0.16-27.85,0.24-41.78
								c1.29,2.35,2.3,4.04,2.39,4.18c0,0-6.89-13.61-7.23-18.41c-0.2-2.79,0-4.27,0.17-5.58c0.13-1.01,0.26-1.97,0.18-3.32
								c-0.03-0.49-0.21-1.92-0.48-4.08c2.54,0.55,5.34-0.92,7.53-3.6c4.06-4.96,3.85-13.92,3.06-20.8
								c0.95,0.32,2.01,0.28,2.93-0.18c-0.05,1.75,0.05,3.52,0.34,5.31c0.9,5.56,3.3,11.65,8.14,14.98
								c3.87,2.66,8.75,4.08,12.72,1.47C182.84,422.18,182.71,423.04,182.58,423.76z M184.53,404.9
								c-0.49,5.86-0.96,11.47-1.46,15.47c-6.5,5.08-14.54-1.87-17.77-7.56c-3.5-6.17-3.16-13.58-1.65-20.24
								c2.78-12.22,10.67-22.55,14.14-34.57c2.15,5.04,4.04,10.18,5.06,15.62c1.39,7.36,2.04,14.81,2.45,22.27
								C185.03,398.93,184.77,402,184.53,404.9z M186.67,382.92c-0.36,2.79-0.69,5.88-1,9.06c-0.88-11.94-2.7-23.71-7.57-34.93
								c-8.08-18.6-15.92-36.71-16.31-57.35c-0.02-1.32,0.07-2.55,0.33-3.86c1.12-5.64,5.34,2.65,5.46,2.88
								c1.26,2.4,2.63,4.12,2.95,6.94c0.15,1.33,0.28,2.58,0.56,3.9c1.96,9.17,3.66,18.06,6.95,26.89
								c1.51,4.05,3.52,7.88,4.99,11.94c1.65,4.57,2.36,9.59,3.13,14.36c0.77,4.79,1.21,9.61,1.36,14.45
								C187.21,379.14,186.91,381.06,186.67,382.92z M194.07,346.51c-0.32,2.55-1.33,6.85-2.5,11.82
								c-1.15,4.92-2.49,10.64-3.57,16.32c-0.22-4.02-0.62-8.05-1.21-12.07c-0.79-5.43-1.88-10.9-3.75-16.06
								c-1.9-5.25-4.47-10.23-6.26-15.55c-3.12-9.24-3.99-18.74-6.09-28.16c-0.65-2.93-3.24-6.18-4.87-8.65
								c-0.48-0.72-1.93-1.34-2.73-0.77c-4.07,2.9-1.68,12.79-1.23,16.62c1.27,10.83,4.69,21.33,8.69,31.43
								c2.09,5.27,4.59,10.4,6.84,15.6c-3.77,13.68-14.8,27.09-15.59,41.59c-0.92,0.63-2.07,0.7-3.04,0.28
								c-0.11-0.9-0.23-1.76-0.34-2.56c-1.67-11.51-7.41-25.01-9.34-34.03c-1.83-8.51-1.8-17.54-0.87-26.35
								c0.52-2.4,1.02-4.58,1.46-6.4c7.74-3.66,8.57-14.09,9.84-21.8c1.04-6.34,1.37-14.09-3.22-18.79c0.55-1.97,0.94-3.2,0.96-3.24
								l0.07-0.22l-0.01-0.01c2.81,2.35,5.63,4.75,8.67,6.76c0.14,0.09,0.28,0.15,0.42,0.19c2.16,3.11,4.17,7.09,6.62,11.97
								c2.08,4.16,4.45,8.88,7.42,14.04c0.84,1.46,1.54,3.09,2.27,4.82c2.11,4.95,4.47,10.49,10.98,11.39
								C194.01,336.58,194.7,341.6,194.07,346.51z M195.9,333.75c-0.04,0-0.33,0-0.33,0c-7.25-0.01-9.5-5.28-11.88-10.87
								c-0.72-1.68-1.45-3.42-2.33-4.93c-2.96-5.13-5.32-9.84-7.39-13.99c-2.35-4.69-4.29-8.56-6.38-11.66
								c2.32-1.12,4.97-6.31,5.67-7.53c2.63-4.56,0.64-10.04-2.38-13.95c-2.26-2.93-6.64-5.38-10.08-6.94
								c0.03-0.1,0.04-0.2,0.04-0.28c0-0.2,0.01-1,0.04-2.19c0.01-0.45,0.02-0.91,0.02-1.37c0.99,1.45,2.12,2.79,3.43,4.02
								c1.23,1.15,3.77,3.57,5.51,3.6c1.39,0.02,1.38-1.32,1.48-2.42c0.24-2.55,0.18-5.12-0.06-7.66c0.54-0.59,0.67-1.67,0.66-2.56
								c-0.02-3.14-0.56-5.68-1.63-8.22c1.3-1.37,0.42-6.35,0.01-8.9c0-0.01,0.01-0.01,0.01-0.01c0.71-3.55,2.48-9.17,0.06-12.39
								c0.43-0.3,0.56-1,0.77-1.48c0.67-1.59,1.31-3.73,1.04-5.47c-0.49-3.17-3.08-5.71-5.94-7.26c1.38-0.53,2.72-1.17,4.02-1.94
								c8.24-0.15,14.16-2.66,19.24-7.74c3.86-3.86,4.21-11.04,4.8-16.12c0.51-4.45,1.81-11.49-0.8-15.54
								c-0.52-0.8-1.04-1.54-1.61-2.22c0.07-0.4,1.77-9.57-0.01-15.62c-0.72-2.43-1.71-4.85-2.86-7.65c-1.6-3.9-3.58-8.69-5.59-15.5
								c3.19,2.66,6.9,5.34,8.1,5.77c0.95,0.35,2.2,0.51,3.27,0.59h1.42c1.07-0.08,2.31-0.24,3.26-0.59
								c1.21-0.44,4.96-3.15,8.17-5.83c-2.02,6.86-4.01,11.69-5.62,15.61c-1.15,2.8-2.14,5.21-2.86,7.65
								c-1.78,6.05-0.08,15.23-0.01,15.62c0,0-1.06,1.68-1.6,2.51c-2.62,4.05-1.31,11.09-0.8,15.54c0.58,5.08,0.93,12.26,4.8,16.12
								c5.3,5.3,11.51,7.81,20.33,7.75c0.95,0.5,1.92,0.95,2.91,1.33c-2.87,1.55-5.48,4.1-5.97,7.28c-0.27,1.74,0.37,3.88,1.04,5.47
								c0.2,0.48,0.34,1.18,0.77,1.48c-2.43,3.22-0.66,8.85,0.06,12.39c0,0.01,0.01,0.01,0.01,0.02c-0.41,2.56-1.29,7.53,0.01,8.9
								c-1.07,2.54-1.61,5.08-1.63,8.22c-0.01,0.89,0.12,1.97,0.66,2.56c-0.24,2.55-0.3,5.11-0.06,7.66c0.1,1.1,0.1,2.44,1.49,2.42
								c1.74-0.03,4.28-2.45,5.51-3.6c1.49-1.4,2.75-2.95,3.84-4.65c0.01,0.72,0.02,1.42,0.04,2.11c0.02,1.2,0.04,1.99,0.04,2.19
								c0,0.09,0.02,0.19,0.05,0.3c-3.47,1.54-7.93,3.92-10.25,6.93c-3.02,3.92-5.32,9.39-2.69,13.95c0.72,1.25,3.65,6.78,6.07,7.73
								c-2.07,3.09-4.01,6.94-6.34,11.6c-2.08,4.15-4.43,8.86-7.39,13.99c-0.88,1.52-1.62,3.25-2.33,4.93
								C205.3,328.44,203.07,333.69,195.9,333.75z M205.66,391.86c-0.3-3.14-0.63-6.18-0.98-8.94c-0.24-1.88-0.54-3.81-0.88-5.77
								c0.15-4.91,0.58-9.82,1.37-14.69c0.77-4.77,1.48-9.79,3.13-14.36c1.47-4.06,3.48-7.9,4.99-11.94
								c3.3-8.83,4.99-17.73,6.95-26.89c0.28-1.32,0.41-2.56,0.56-3.9c0.32-2.83,1.69-4.54,2.95-6.94c0.12-0.23,4.34-8.52,5.46-2.88
								c0.26,1.31,0.36,2.54,0.33,3.86c-0.39,20.64-8.23,38.75-16.31,57.35C208.35,368.04,206.54,379.86,205.66,391.86z
								 M206.82,404.9c-0.25-2.94-0.51-6.04-0.79-9.13c0.41-7.52,1.06-15.03,2.46-22.45c1.02-5.4,2.89-10.5,5.02-15.51
								c3.48,12,11.41,22.55,14.19,34.76c1.52,6.66,1.85,14.07-1.65,20.24c-3.23,5.69-11.28,12.64-17.77,7.56
								C207.78,416.38,207.31,410.76,206.82,404.9z M221.77,491.81c-0.66-1.83-1.6-3.8-2.69-6.08c-1.81-3.79-4.06-8.51-5.85-14.45
								c-2.38-7.89,0.88-25.05,1.9-29.97c1.03,1.72,2.14,3.41,3.31,5.02c2.02,2.77,4.45,5.21,6.4,8.05
								c1.93,2.82,3.59,5.86,4.64,9.12c1.39,4.31,1.52,8.89,1.78,13.38c0.1,1.71,0.19,3.32,0.34,4.89c0.05,0.55,0.09,1.09,0.13,1.64
								c-0.54,2.26-1.76,5.87-4.41,8.78c-1.18,1.29-2.63,2.44-4.44,3.28C222.44,493.86,222.05,492.59,221.77,491.81z M223.18,496.57
								c2.1-0.94,3.71-2.24,4.96-3.69c2.2-2.56,3.24-5.56,3.72-7.8c0.48,7.14,0.4,14.29,0.26,22.1c-0.02,0.83-0.02,1.68-0.02,2.54
								c-0.02,5.95-0.07,12.59-3.94,16.96c0.08-0.36,0.15-0.73,0.22-1.11C229.12,521.63,225.53,505.32,223.18,496.57z
								 M245.41,535.42c-1.86-2.25-3.5-5.37-3.51-5.38c0,0,1.78,5.32,4.27,7.45c1.74,1.48,2.48,3.58,3.19,5.61
								c0.24,0.68,0.49,1.39,0.77,2.05c1.15,2.69,10.47,10.34,11.83,11.19c0.92,0.58,3.32,4.15,3.32,4.15
								c0.64,0.68,0.4,2.02,0.23,2.99c-0.04,0.21-0.07,0.4-0.09,0.57c-0.03,0.19-0.07,0.36-0.11,0.51
								c-0.48-1.09-1.25-2.16-2.26-3.55c-1.12-1.52-2.45-2.64-2.45-2.64c2.83,3.34,3.87,6.04,4.23,7.52
								c-0.02,0.1-0.03,0.21-0.03,0.32c-0.01,0.41,0.05,0.85,0.11,1.28c0.05,0.35,0.09,0.67,0.1,0.96c0.02,1.02-0.16,1.75-0.29,1.87
								c-0.27,0.22-0.48,0.34-0.83,0.39c-0.73-2.2-1.66-3.89-3.34-6.51c-1.66-2.59-3-3.52-3-3.52c2.25,2.56,4.88,8.31,5.7,10.99
								c0.05,0.18,0.13,0.42,0.26,0.78c0.19,0.57-0.3,1.32-0.73,1.64c-0.18,0.13-0.62,0.17-1.01,0.15c-0.13-0.84-0.8-2.71-3.64-6.94
								c-1.81-2.7-3.9-4.36-3.9-4.36c5.38,6.84,6.43,10.46,6.62,11.45l-0.01,0.3c-0.01,0.48-0.03,1.75-0.84,2.14
								c-0.7,0.33-0.94,0.27-1.33,0.08c0.15-0.95-0.02-1.55-0.58-2.08c-0.09-0.09-0.25-0.23-0.46-0.41
								c-0.77-0.68-2.54-2.29-2.9-2.94c-2.59-4.71-6.02-6.5-6.02-6.5c2.14,1.74,4.87,6.21,5.23,6.9c0.38,0.75,1.8,2.05,3.1,3.2
								c0.2,0.18,0.35,0.31,0.44,0.39c0.32,0.3,0.44,0.6,0.3,1.39l-0.03,0.05c-0.96,1.65-3.57,2.65-5.59,2.14
								c-1.93-0.49-4.36-2.15-5.25-4.36c-1.01-2.52-2.64-3.22-3.51-3.6l-0.05-0.02c-3.93-1.22-6.09-5.76-6.67-9.86
								c-0.59-4.21-3.36-8.82-3.96-9.57v0c-0.07-0.1-3.28-4.5-4.86-6.17c0,0,2.09,3.38,3.3,5.33c-1.58-0.9-3.42-2.33-4.65-4.14
								c-1.45-2.12-1.5-3.35-1.09-5.14c0.34-1.5,1.28-8.15,1.87-11.15c0.15-0.52,0.29-1.1,0.44-1.7c5.39-4.59,5.42-12.18,5.45-18.92
								c0-0.86,0.01-1.71,0.02-2.53c0.17-9.04,0.24-17.21-0.52-25.53c-0.14-1.56-0.24-3.16-0.34-4.86
								c-0.3-5.1-0.67-10.13-2.25-15.03c-2.31-7.12-7.45-12.51-12.2-18.09c-1.73-2.03-2.94-4.77-4.16-7.12
								c-2.07-4.01-4.13-8.35-4.95-12.83c-0.13-0.72-0.26-1.58-0.39-2.55c3.97,2.6,8.86,1.18,12.72-1.47
								c4.84-3.33,7.61-9.37,8.14-14.98c0.18-1.93,0.21-3.8,0.12-5.62c0.92,0.48,2.03,0.55,3.02,0.28
								c-0.82,6.93-1.11,16.12,3.02,21.17c2.25,2.75,5.14,4.22,7.72,3.55c-0.26,2.01-0.42,3.34-0.45,3.81
								c-0.08,1.35,0.05,2.31,0.18,3.32c0.17,1.31,0.37,2.79,0.17,5.58c-0.34,4.8-7.23,18.41-7.23,18.41
								c0.09-0.15,1.07-1.79,2.33-4.08c0.08,13.94,0.16,27.88,0.24,41.82c0.06,10.57-0.88,22.94,5.57,32.01
								c0.16,2.97,0.43,5.81,0.57,6.25C244.94,532.58,245.32,533.77,245.41,535.42z M250.27,464.46c0.08,4.69-1.44,15.25-3.05,26.43
								c-1.56,10.81-3.16,21.93-3.38,28.34c-0.06,1.15-0.03,2.84,0.05,4.59c-6.65-9.89-4.83-23.7-4.9-35.04
								c-0.07-12.92-0.15-25.85-0.22-38.77c1.71-3.18,3.7-7.2,4.7-10.29C245.19,443.84,250.12,456.25,250.27,464.46z M248.84,370.43
								c1.41,19.05-4.08,40.9-5.6,52.72c-0.01,0.06-0.01,0.11-0.02,0.17c-3.46,1.1-7.61-2.16-9-6.17
								c-2.05-5.94-1.35-16.68-0.59-20.88c2.04-11.17,7.43-23.33,9.13-32.19c1.8-9.44,1.93-16.59,1.15-24.86
								C245.97,349.11,248.19,361.62,248.84,370.43z M242.63,333.32c1.24,9.69,1.49,19.76-0.53,29.18
								c-1.94,9.02-7.67,22.52-9.34,34.03c-0.1,0.72-0.21,1.49-0.31,2.3c-1.02,0.35-2.23,0.24-3.14-0.41
								c-1.11-15.78-11.61-27.76-15.4-41.56c2.26-5.24,4.78-10.39,6.88-15.7c4-10.1,7.42-20.6,8.69-31.43
								c0.45-3.82,2.84-13.71-1.23-16.62c-0.8-0.57-2.26,0.05-2.73,0.77c-1.63,2.46-4.22,5.72-4.87,8.65
								c-2.09,9.43-2.97,18.92-6.09,28.16c-1.79,5.32-4.36,10.3-6.26,15.55c-1.87,5.16-2.96,10.63-3.75,16.06
								c-0.6,4.11-1,8.21-1.22,12.31c-1.07-5.66-2.41-11.36-3.56-16.27c-1.17-4.98-2.17-9.27-2.5-11.82
								c-0.63-4.91,0.07-9.94,0.38-11.82c6.52-0.89,8.89-6.44,11-11.39c0.74-1.73,1.43-3.36,2.27-4.82
								c2.98-5.16,5.34-9.88,7.42-14.04c2.48-4.95,4.51-8.99,6.71-12.11c0.04-0.02,0.07-0.03,0.11-0.06
								c3.12-2.07,6.01-4.54,8.9-6.96l0.08,0.29c0.01,0.04,0.42,1.29,0.97,3.31c-4.67,4.7-4.35,12.5-3.3,18.87
								c1.27,7.74,2.11,18.22,9.94,21.84C242.04,330.73,242.33,331.98,242.63,333.32z M235.32,289.63
								c1.41,5.24,3.54,14.6,3.07,21.86c-0.24,3.71,1.17,9.31,2.95,16.39c0.07,0.3,0.15,0.61,0.23,0.93
								c-6.91-3.67-8.08-13.99-9.13-21.2C231.57,301.56,231.05,294.21,235.32,289.63z M231.86,266.02c1.7,2.67,4.54,7.15,4.01,11.38
								c-0.61,4.92-1.15,6.16-1.45,6.76c-1.96,1.62-3.92,3.23-5.91,4.8c-2.26,1.79-4.28,3-6.44,0.37c-1.55-1.88-3.73-4.56-4.25-7.06
								c-1.87-9.12,6.48-14.44,13.3-17.44C231.32,265.16,231.56,265.54,231.86,266.02z M233.4,227.61
								c-0.82,2.16-1.62,4.24-2.17,5.91c-0.62,0.77-1.3,1.49-2.01,2.18c0.48-2.6,0.6-5.29,0.53-7.73c0-0.03-0.01-0.05-0.02-0.08
								c1.79-0.75,3.4-1.83,4.78-3.23C234.15,225.64,233.77,226.63,233.4,227.61z M234.79,223.43c-1.75,2.05-4,3.54-6.55,4.34
								c0.99-2.39,1.66-4.75,1.95-7.26c1.8-0.7,3.48-1.69,5.01-2.97C235.21,219.8,235.02,222.02,234.79,223.43z M236.02,220.54
								c-0.01,0.02-0.17,0.57-0.46,1.38c0.62-5.61-0.16-11.51-2.63-16.39c2.26-1.78,4.27-3.86,5.77-5.61
								c0.12-0.14,0.22-0.28,0.34-0.41C238.42,205.8,237.25,216.85,236.02,220.54z M251.35,250.76
								c-0.38-10.38-2.19-19.93-5.24-24.78c-2.55-4.06-6.08-12.03-7.26-15.35c0-0.01,0-0.03-0.01-0.07
								c0.61-4.64,1.14-9.62,1.43-12.62c0.06-0.07,0.11-0.15,0.17-0.22c0.71,11.43,4.02,22.56,8.14,33.3
								c1.92,5.02,2.95,8.63,5.76,13.3c2.72,4.51,6.24,8.22,9.24,11.12c-1.4,2.37-2.41,4.28-3.29,6.78
								c-1.75-2.01-4.17-4.35-6.27-5.92C253.7,256,251.46,253.75,251.35,250.76z M260.12,291.11c-0.29-0.78-0.59-1.58-0.89-2.37
								c-2.9-7.69-5.91-15.63-6.09-20.12c-0.29-6.87,0.6-10.36,0.92-11.38c2.14,1.6,4.27,3.62,6.01,5.66
								c-0.28,0.86-0.55,1.8-0.82,2.85c-2.15,8.55-0.69,17.39,0.9,25.41C260.13,291.15,260.13,291.13,260.12,291.11z M261.95,296.09
								c-2.91-11.86-5.3-25.76,0.38-36.94c4.22-8.32,10.98-15.9,10.73-25.49c1.68,2.55,6.43,10.36,6.43,17.35v8.03
								c-1.06,10.78-6.69,19.88-10.3,29.91c-2.14,5.95-3.57,11.99-4.3,18.16c-0.04-0.32-0.06-0.64-0.12-0.98
								C264.04,301.82,262.93,298.64,261.95,296.09z M265.95,351.61c-0.5-1.46-0.76-3.34,0.3-4.96c1.58-2.42,3.86-6.58,5.14-8.95
								c0.03,1.14,0.09,2.45,0.16,3.63c-0.94,1.78-3.08,5.77-4.81,8.4C266.34,350.34,266.09,350.98,265.95,351.61z M268.17,357.13
								c-0.73-1.27-2.16-4.35-0.54-6.81c1.35-2.06,2.95-4.94,4.05-6.97c0.06,0.76,0.11,1.33,0.14,1.55
								c-0.26,0.92-1.92,6.86-2.25,10.64L268.17,357.13z M281.3,289.04c-0.89,7.31-3.86,15.59-3.51,25.4
								c0.54,15.37,0.22,29.25-0.25,31.46c-0.46,2.14-4.21,12.13-5.12,14.54c-0.66-0.37-1.83-1.36-1.83-3.74
								c0-3.62,2.27-11.53,2.29-11.6l0.03-0.11l-0.02-0.12c-0.01-0.07-1.05-7.02-0.36-9.93l0.03-0.14l-0.04-0.13
								c-0.54-1.86,0.3-6.25-2.27-7.21c-0.43-0.16-0.85-0.12-1.23,0.12c-1.56,1-1.86,3.21-2.18,5.55c-0.25,1.84-0.51,3.75-1.38,5.12
								c-1.3,2.05-2.24,2.51-2.7,2.51c-1.84-0.01-0.23-5.65-0.23-10.79c0-1.99,0.61-4.13,1.59-8.28c0.35-1.5,0.68-2.66,0.91-3.93
								c7.1-8.92,13.33-18.5,16.34-29.4C281.36,288.59,281.33,288.81,281.3,289.04z M282.52,276.98c-0.1,1.64-0.37,3.45-0.52,5.03
								c-1.91,13.15-8.65,24.17-16.76,34.48c0.17-1.51,0.2-3.34-0.01-6.07c0.8-9.69,3.35-18.92,7.34-27.97
								c3.13-7.08,6.31-14.1,7.38-21.77C280.84,262.43,283.07,267.78,282.52,276.98z"/>
							<path d="M191.33,256.45c-3.86,1.17-7.69,2.39-11.53,3.63c-4.78,1.54-5.78-2.17-5.81-5.03c-0.04-2.74,1.46-5.27,3.22-7.31
								c2.95-3.41,8.01-4.48,12.4-4.75C194.78,242.68,196.35,254.76,191.33,256.45 M193.98,244.38c-2.81-4.66-11.88-0.96-15.29,1.24
								c-3.8,2.45-7.02,8.63-4.72,12.92c1.07,1.99,2.37,2.64,4.68,2.46c1.66-0.13,3.38-0.99,4.93-1.52
								c2.61-0.88,5.29-1.61,7.93-2.41c1.47-0.5,3.32-1.22,3.46-2.98C195.17,251.57,195.35,246.66,193.98,244.38"/>
							<path d="M199.65,256.52c-5.02-1.69-3.45-13.78,1.72-13.46c4.38,0.26,9.44,1.33,12.4,4.75c1.76,2.04,3.26,4.57,3.22,7.31
								c-0.04,2.87-1.03,6.57-5.81,5.03C207.34,258.91,203.5,257.69,199.65,256.52 M197,244.44c-1.37,2.28-1.19,7.2-1,9.71
								c0.14,1.76,1.99,2.48,3.46,2.98c2.64,0.8,5.32,1.53,7.93,2.41c1.56,0.52,3.27,1.39,4.93,1.52c2.31,0.18,3.61-0.46,4.68-2.46
								c2.3-4.29-0.92-10.47-4.72-12.92C208.88,243.48,199.81,239.78,197,244.44"/>
						</g>
					</g>
					<path d="M192.79,289.96c-0.12,4.1-0.24,8.19-0.36,12.29c-0.2,6.61-7.83-0.14-9.51-2.06c-4.73-6.98-6-16.15-7.57-24.28
						c-1.29-6.69,0.89-12.11,7.73-14.18c4.81-1.46,9.98-1.59,10.35,4.68C193.89,274.16,193.02,282.19,192.79,289.96 M193.28,261.71
						c-4.38-4.94-15.17,0.34-17.71,4.52c-2.76,4.53-0.58,11.37,0.39,15.91c1.36,6.37,2.71,12.94,6.42,18.4l0.03,0.03l0.02,0.04
						c2.33,2.69,5.68,4.97,9.25,5.57c2.4,0.41,1.48-7.15,1.5-8.03c0.22-7.51,0.9-15.02,1.07-22.53
						C194.3,273.83,195.78,264.53,193.28,261.71z"/>
					<path d="M197.55,266.4c0.37-6.27,5.54-6.13,10.35-4.68c6.85,2.07,9.02,7.49,7.73,14.18c-1.57,8.13-2.84,17.3-7.57,24.28
						c-1.68,1.91-9.31,8.67-9.51,2.06c-0.12-4.1-0.24-8.19-0.37-12.29C197.96,282.19,197.09,274.16,197.55,266.4 M197.79,298.15
						c0.03,0.87-0.9,8.43,1.5,8.03c3.57-0.6,6.92-2.88,9.25-5.57l0.02-0.04l0.03-0.03c3.71-5.46,5.07-12.03,6.42-18.4
						c0.97-4.54,2.54-11.06,0.39-15.91c-1.85-4.17-12.78-9.43-17.57-4.46c-2.72,2.81-1.22,10.4-1.12,13.85"/>
				</g>
			</g>
		</g>
	</g>
</g>
</svg>
