<?xml version="1.0" encoding="utf-8"?>
<!-- Generator: Adobe Illustrator 26.0.1, SVG Export Plug-In . SVG Version: 6.00 Build 0)  -->
<svg version="1.1" id="Layer_1" xmlns="http://www.w3.org/2000/svg" xmlns:xlink="http://www.w3.org/1999/xlink" x="0px" y="0px"
	 viewBox="0 0 432 648" style="enable-background:new 0 0 432 648;" xml:space="preserve">
<style type="text/css">
	.st0{display:none;opacity:0.5;fill:none;stroke:#231F20;stroke-width:0.05;stroke-miterlimit:10;}
	.st1{fill:#FFFFFF;stroke:#000000;stroke-width:0.1;stroke-miterlimit:10;}
</style>
<path class="st0" d="M418.44,444.92c-2.94,1.51-8.31,5.17-9.04,17.27"/>
<g>
	<g id="Front_00000059291271315217382090000007518221297666198919_">
		<g>
			<g>
				<g>
					<g>
						<path class="st1" d="M296.22,261.1v-8.56c0-6.19-3.43-12.79-5.57-16.29c2.11-7.07,2.14-24,0.99-31.85
							c-0.7-4.78-4.02-8.67-5.67-11.16c0.03-0.19,0.06-0.38,0.1-0.58c0.9-5.77-3.02-19.93-5.37-25.9c-1.56-3.96-4.82-5.47-7.44-6.67
							c-1.42-0.65-2.64-1.22-3.33-2.02c-1.77-2.06-3.52-2.63-5.08-3.12c-0.41-0.13-0.8-0.26-1.18-0.41
							c-0.6-0.24-1.12-0.72-1.92-1.44c-1.36-1.23-3.41-3.1-7.8-5.64c-2.41-1.4-5.8-3.02-9.39-4.74c-5.88-2.82-12.75-6.06-14.38-8.08
							c-1.49-1.84-1.65-7.67-1.67-9.59c0.71-1.8,0.79-4.65,0.76-6.3c0.3,0.14,0.66,0.21,1.09,0.16c1.47-0.18,2.84-2.46,4.48-5.43
							c0.46-0.83,0.9-1.62,1.23-2.09c1.42-2.03,1.11-6.43,0.07-9.72c-0.3-0.96-0.82-1.52-1.53-1.65c-0.98-0.18-2.05,0.57-2.82,1.27
							c0.15-4.1,0.09-15.65-4.65-21.34c-4.08-4.9-12.24-6.11-15.34-6.41l-1.22,0c-3.09,0.29-11.26,1.51-15.34,6.41
							c-4.74,5.69-4.79,17.23-4.65,21.34c-0.77-0.7-1.84-1.45-2.82-1.27c-0.71,0.13-1.23,0.69-1.53,1.65
							c-1.04,3.29-1.35,7.69,0.07,9.72c0.33,0.48,0.77,1.26,1.23,2.09c1.64,2.97,3.02,5.25,4.48,5.43c0.43,0.05,0.79-0.02,1.09-0.16
							c-0.03,1.82,0.07,5.1,1,6.82c0,0,0,0.01,0.01,0.01c-0.04,1.35-0.33,7.15-1.91,9.1c-1.64,2.02-8.3,5.21-14.18,8.03
							c-3.59,1.72-6.98,3.34-9.39,4.74c-4.39,2.54-6.44,4.41-7.8,5.64c-0.8,0.73-1.33,1.21-1.92,1.44
							c-0.38,0.15-0.77,0.28-1.18,0.41c-1.55,0.5-3.31,1.06-5.08,3.12c-0.69,0.81-1.91,1.37-3.33,2.02
							c-2.62,1.21-5.88,2.71-7.44,6.67c-2.35,5.97-6.27,20.13-5.37,25.9c0.06,0.41,0.13,0.82,0.21,1.22
							c-1.66,2.48-4.65,6.08-5.33,10.74c-1.14,7.81-1.27,24.09,0.8,31.22c-2.1,3.38-5.82,10.27-5.82,16.71v8.56
							c-0.59,0.96-3.69,6.55-3.02,17.45c0.25,4.18,0.72,8.03,1.22,12.11c0.88,7.26,3.85,15.5,3.5,25.22
							c-0.52,14.82-0.31,28.97,0.27,31.7c0.54,2.5,5.16,14.69,5.36,15.2l0.17,0.45l0.47-0.12c0.03-0.01,2.8-0.8,3.04-4.46l1.48,1.69
							l0.39-0.55c0.09-0.12,1.39-1.97,1.76-4.26c0.82-1.39,2.53-4.97,0.55-8c-2.26-3.45-5.99-10.58-6.03-10.65l0,0
							c-0.01-0.24-0.03-0.44-0.06-0.59c0.55-4.24,0-5.78,1.58-6.37c0.13-0.05,0.2-0.03,0.28,0.02c1.15,0.74,1.41,2.71,1.69,4.79
							c0.26,1.95,0.54,3.98,1.53,5.55c1.17,1.84,2.97,4.23,5.06,2.49c1.38-1.15,0.17-9.03-0.16-11.36
							c-0.42-2.92-0.42-3.74-1.57-8.36c-0.73-2.94-1.18-4.47-1.37-5.83c-0.1-1.12,0.19-5.8,0.62-9.21
							c0.49-3.92,2.91-10.34,5.48-17.13c2.93-7.76,5.96-15.78,6.16-20.44c0.3-7.21-0.65-10.8-0.99-11.83
							c0.61-0.73,2.31-2.99,2.77-5.9c0.54-3.39,0.37-9.28,0.35-9.43c0.02-0.1,1.8-10.27,4.73-14.93c2.23-3.54,5.51-10.47,6.91-14.1
							c0.51,3.59,1.08,6.8,1.65,8.51c0.73,2.18,1.65,4.59,2.54,6.93c1.27,3.33,2.47,6.48,2.78,8.13c0.44,2.33,0.13,19.47,0.03,25.1
							c-0.02,1.21-0.04,2-0.04,2.2c0,0.01,0,0.01-0.01,0.02c-0.11,0.11-0.19,0.3-0.22,0.5c-0.23,0.41-0.58,0.97-0.91,1.49
							c-1.77,2.79-4.74,7.47-4.17,12.08c0.64,5.14,1.42,7.29,1.7,7.94c-0.58,1.85-4.88,15.92-4.22,26.07
							c0.23,3.54-1.16,9.06-2.92,16.05c-2.27,9.01-6.56,29.76-7.52,42.71c-1.41,19.15,4.08,41.06,5.6,52.9
							c0.32,2.53,0.54,4.21,0.57,4.72c0.07,1.25-0.04,2.11-0.18,3.11c-0.18,1.36-0.39,2.9-0.18,5.79c0.02,0.29,0.07,0.61,0.14,0.95
							c-0.74,1.66-7.26,16.63-7.43,26.41c-0.08,4.77,1.44,15.37,3.06,26.58c1.46,10.15,2.86,20.65,3.3,27.13l0.01,0.17
							c0.04,0.54,0.07,1.06,0.09,1.54c0.07,3.47-0.26,10.39-0.49,11.07c-0.52,1.59-1.01,3.1-0.97,5.43
							c-0.14,0.14-0.28,0.27-0.42,0.39c-1.92,1.64-2.7,3.85-3.45,5.99c-0.25,0.7-0.48,1.36-0.75,1.99
							c-1.04,2.42-10.21,9.99-11.48,10.78c-0.99,0.62-3.49,4.29-3.49,4.29c-0.94,1-0.65,2.66-0.46,3.75
							c0.03,0.19,0.07,0.37,0.09,0.53c0.08,0.58,0.26,0.98,0.4,1.31c0.13,0.28,0.22,0.49,0.22,0.74c0.01,0.34-0.05,0.75-0.1,1.14
							c-0.05,0.35-0.1,0.72-0.11,1.06c-0.01,0.61,0.02,2.08,0.61,2.57c0.34,0.28,0.66,0.48,1.13,0.56c-0.05,0.15-0.12,0.35-0.2,0.59
							c-0.37,1.08,0.45,2.19,1.05,2.64c0.43,0.32,1.11,0.35,1.58,0.32c0,0.09,0.02,0.15,0.03,0.2c0.07,0.77,0.33,1.83,1.31,2.29
							c1,0.47,1.51,0.36,2.09,0.08c1.14,1.58,3.47,2.54,5.55,2.34c0.27-0.03,0.54-0.07,0.8-0.14c2.15-0.55,4.85-2.41,5.85-4.89
							c0.8-1.99,1.97-2.65,3.01-3.1c4.29-1.35,6.63-6.13,7.26-10.57c0.55-3.92,3.06-8.19,3.72-9.06c3-1.26,4.77-2.85,6.31-5.1
							c1.61-2.36,1.67-3.87,1.22-5.83c-0.43-1.86-1.59-10.64-2-12c-0.35-1.19-0.52-2.41-0.8-3.9c-0.87-4.63,4.88-28.52,6.56-33.18
							c0.65-1.78,1.57-3.73,2.65-5.98c1.82-3.82,4.09-8.57,5.9-14.59c2.74-9.11-1.59-29.25-2.12-31.63
							c1.59-2.79,3.01-5.69,4.24-8.64c0.98-2.36,1.91-4.81,2.37-7.34c0.68-3.73,1.28-10.78,1.96-18.94
							c0.61-7.21,1.29-15.39,2.13-21.92c1.04-8.06,3.17-17.15,4.88-24.46c1.17-5,2.19-9.32,2.52-11.93
							c0.62-4.87,0.01-9.72-0.34-11.84c0.38,0.04,1.49,0.05,1.76,0c-0.34,2.12-0.96,6.97-0.34,11.84c0.33,2.6,1.34,6.92,2.52,11.93
							c1.71,7.31,3.85,16.41,4.88,24.46c0.84,6.53,1.53,14.7,2.13,21.92c0.69,8.17,1.28,15.22,1.96,18.94
							c0.46,2.52,1.39,4.98,2.37,7.34c1.23,2.95,2.64,5.85,4.24,8.64c-0.53,2.38-4.86,22.53-2.12,31.63
							c1.81,6.02,4.08,10.77,5.9,14.59c1.08,2.26,2,4.2,2.65,5.98c1.69,4.65,7.43,28.54,6.56,33.18c-0.28,1.49-0.44,2.7-0.8,3.9
							c-0.4,1.36-1.57,10.14-2,12c-0.45,1.96-0.39,3.47,1.22,5.83c1.54,2.25,3.31,3.84,6.31,5.1c0.65,0.88,3.17,5.14,3.72,9.06
							c0.62,4.44,2.97,9.22,7.26,10.57c1.04,0.45,2.21,1.11,3.01,3.1c1,2.49,3.7,4.34,5.85,4.89c0.26,0.07,0.53,0.11,0.8,0.14
							c2.09,0.2,4.41-0.76,5.55-2.34c0.58,0.28,1.09,0.39,2.09-0.08c1.07-0.51,1.28-1.72,1.33-2.49c0.47,0.03,1.16,0,1.59-0.32
							c0.6-0.44,1.41-1.55,1.05-2.64c-0.08-0.22-0.14-0.41-0.19-0.56l0,0c0-0.01-0.01-0.02-0.01-0.04c0.47-0.09,0.79-0.28,1.13-0.56
							c0.59-0.49,0.63-1.96,0.61-2.57c-0.01-0.34-0.06-0.7-0.11-1.06c-0.05-0.39-0.11-0.8-0.1-1.14c0-0.25,0.1-0.46,0.22-0.74
							c0.14-0.32,0.32-0.72,0.4-1.31c0.02-0.16,0.05-0.34,0.09-0.53c0.19-1.09,0.48-2.75-0.46-3.75c0,0-2.5-3.67-3.49-4.29
							c-1.26-0.79-10.44-8.36-11.48-10.78c-0.27-0.63-0.5-1.29-0.75-1.99c-0.75-2.14-1.53-4.35-3.45-5.99
							c-0.14-0.12-0.28-0.25-0.42-0.39c0.04-2.34-0.45-3.85-0.97-5.43c-0.22-0.68-0.56-7.59-0.49-11.07c0.02-0.48,0.05-1,0.09-1.54
							c0.01-0.06,0.02-0.12,0.03-0.17l-0.02,0c0.44-6.48,1.84-16.97,3.3-27.13c1.62-11.21,3.15-21.81,3.06-26.58
							c-0.17-9.71-6.61-24.54-7.42-26.37c0.09-0.41,0.15-0.79,0.17-1.14c0.21-2.89,0-4.43-0.18-5.79c-0.13-1-0.25-1.86-0.18-3.11
							c0.03-0.51,0.24-2.18,0.57-4.72c1.52-11.84,7.01-33.75,5.6-52.9c-0.96-12.94-5.25-33.7-7.52-42.71
							c-1.76-6.99-3.15-12.51-2.92-16.05c0.66-10.15-3.64-24.21-4.22-26.07c0.28-0.65,1.06-2.8,1.7-7.94
							c0.57-4.61-2.4-9.29-4.17-12.08c-0.52-0.82-1.11-1.75-1.14-2.01c0-0.2-0.01-0.99-0.04-2.2c-0.1-5.63-0.41-22.77,0.03-25.1
							c0.31-1.64,1.51-4.79,2.78-8.13c0.89-2.34,1.81-4.75,2.54-6.93c0.55-1.66,1.08-4.75,1.58-8.19c0-0.01,0-0.01,0-0.02
							c1.43,3.54,4.62,10.05,6.68,13.7c3.63,6.44,4.88,16.94,5.09,24.36c0.08,2.95,2.16,5.17,2.77,5.9
							c-0.34,1.04-1.29,4.62-0.99,11.83c0.19,4.66,3.23,12.68,6.16,20.44c2.57,6.79,4.99,13.21,5.48,17.13
							c0.35,2.83,0.7,4.66,0.72,6.05c0.02,1.34,0.01,2.68-0.12,4.02c-0.12,1.24-0.64,2.71-1.27,5.22c-1.15,4.62-1.15,5.44-1.57,8.36
							c-0.33,2.33-1.54,10.22-0.16,11.36c2.1,1.74,3.89-0.64,5.06-2.49c1-1.57,1.27-3.59,1.53-5.55c0.28-2.09,0.55-4.06,1.69-4.79
							c0.08-0.05,0.15-0.07,0.28-0.02c1.58,0.59,1.02,2.14,1.58,6.37c-0.03,0.15-0.05,0.35-0.06,0.59l0,0
							c-0.04,0.07-3.77,7.2-6.03,10.65c-1.99,3.03-0.28,6.61,0.55,8c0.37,2.29,1.67,4.14,1.76,4.26l0.39,0.55l1.48-1.69
							c0.24,3.66,3.01,4.45,3.04,4.46l0.47,0.12l0.17-0.45c0.2-0.52,4.83-12.7,5.36-15.2c0.59-2.73,0.8-16.87,0.27-31.7
							c-0.34-9.72,2.62-17.95,3.5-25.22c0.5-4.08,0.96-7.93,1.22-12.11C299.91,267.65,296.81,262.07,296.22,261.1z"/>
					</g>
				</g>
			</g>
		</g>
	</g>
</g>
</svg>
