<?xml version="1.0" encoding="utf-8"?>
<!-- Generator: Adobe Illustrator 26.0.1, SVG Export Plug-In . SVG Version: 6.00 Build 0)  -->
<svg version="1.1" id="Layer_1" xmlns="http://www.w3.org/2000/svg" xmlns:xlink="http://www.w3.org/1999/xlink" x="0px" y="0px"
	 viewBox="0 0 432 648" style="enable-background:new 0 0 432 648;" xml:space="preserve">
<style type="text/css">
	.st0{fill:#FFFFFF;}
	.st1{fill:#E92A2A;}
	.st2{fill:#D52626;}
	.st3{fill:#9A1A1C;}
	.st4{fill:#8D1819;}
	.st5{fill:#A89FA8;}
	.st6{fill:#998F99;}
	.st7{fill:#E9E7E9;}
</style>
<g>
	<g>
		<g id="Front_00000006671737096016306020000014336614318821168541_">
			<g>
				<g>
					<g>
						<g>
							<path class="st0" d="M281.71,258.59v-8.57c0-6.2-3.43-12.8-5.57-16.31c2.11-7.08,2.14-24.03,0.99-31.89
								c-0.7-4.78-4.03-8.68-5.67-11.17c0.03-0.19,0.06-0.38,0.1-0.58c0.9-5.78-3.02-19.96-5.38-25.93
								c-1.56-3.97-4.83-5.47-7.45-6.68c-1.42-0.65-2.64-1.22-3.33-2.02c-1.77-2.06-3.53-2.63-5.08-3.13
								c-0.41-0.13-0.8-0.26-1.18-0.41c-0.6-0.24-1.12-0.72-1.92-1.45c-1.36-1.23-3.41-3.1-7.81-5.65c-2.41-1.4-5.81-3.02-9.4-4.75
								c-5.89-2.82-12.76-6.07-14.4-8.09c-1.49-1.84-1.65-7.68-1.67-9.6c0.71-1.81,0.79-4.66,0.76-6.31
								c0.3,0.14,0.66,0.22,1.09,0.16c1.47-0.18,2.84-2.46,4.49-5.43c0.46-0.83,0.9-1.62,1.23-2.1c1.42-2.03,1.11-6.44,0.07-9.73
								c-0.3-0.96-0.82-1.52-1.53-1.65c-0.98-0.18-2.05,0.57-2.82,1.27c0.15-4.11,0.09-15.67-4.65-21.36
								c-4.09-4.9-12.26-6.12-15.36-6.41l-1.22,0c-3.1,0.29-11.27,1.51-15.36,6.41c-4.74,5.69-4.8,17.25-4.65,21.36
								c-0.77-0.71-1.84-1.45-2.82-1.27c-0.71,0.13-1.23,0.69-1.53,1.65c-1.04,3.3-1.35,7.7,0.07,9.73c0.33,0.48,0.77,1.26,1.23,2.1
								c1.64,2.97,3.02,5.25,4.49,5.43c0.43,0.05,0.79-0.02,1.09-0.16c-0.03,1.82,0.07,5.1,1,6.83c0,0,0,0.01,0.01,0.01
								c-0.04,1.36-0.33,7.16-1.91,9.11c-1.64,2.02-8.31,5.22-14.2,8.04c-3.59,1.72-6.99,3.35-9.4,4.75
								c-4.39,2.55-6.45,4.41-7.81,5.65c-0.8,0.73-1.33,1.21-1.92,1.45c-0.38,0.15-0.77,0.28-1.18,0.41
								c-1.55,0.5-3.31,1.06-5.08,3.13c-0.69,0.81-1.92,1.37-3.33,2.02c-2.62,1.21-5.88,2.71-7.45,6.68
								c-2.36,5.98-6.28,20.16-5.38,25.93c0.06,0.41,0.13,0.82,0.21,1.22c-1.66,2.48-4.65,6.09-5.34,10.75
								c-1.15,7.82-1.27,24.12,0.8,31.26c-2.11,3.38-5.83,10.28-5.83,16.73v8.57c-0.59,0.96-3.69,6.56-3.03,17.47
								c0.25,4.18,0.72,8.04,1.22,12.12c0.88,7.27,3.85,15.51,3.51,25.25c-0.52,14.84-0.31,29,0.27,31.73
								c0.54,2.51,5.17,14.7,5.37,15.22l0.17,0.45l0.47-0.12c0.03-0.01,2.81-0.8,3.05-4.46l1.48,1.69l0.39-0.55
								c0.09-0.12,1.39-1.97,1.76-4.27c0.83-1.39,2.54-4.97,0.55-8.01c-2.26-3.45-6-10.59-6.04-10.66l0,0
								c-0.01-0.24-0.03-0.45-0.06-0.59c0.56-4.24,0-5.79,1.58-6.38c0.13-0.05,0.2-0.03,0.28,0.02c1.15,0.74,1.41,2.71,1.7,4.8
								c0.26,1.96,0.54,3.98,1.53,5.55c1.17,1.85,2.97,4.23,5.07,2.49c1.38-1.15,0.17-9.04-0.16-11.38
								c-0.42-2.92-0.42-3.74-1.57-8.37c-0.74-2.95-1.18-4.48-1.37-5.84c-0.1-1.13,0.19-5.81,0.62-9.22
								c0.49-3.93,2.92-10.35,5.49-17.15c2.94-7.77,5.97-15.8,6.17-20.46c0.3-7.22-0.65-10.81-0.99-11.85
								c0.61-0.73,2.31-2.99,2.77-5.91c0.54-3.4,0.37-9.29,0.36-9.44c0.02-0.1,1.8-10.28,4.74-14.95
								c2.23-3.54,5.52-10.49,6.92-14.12c0.51,3.59,1.08,6.8,1.65,8.52c0.73,2.18,1.65,4.6,2.54,6.94c1.27,3.34,2.48,6.49,2.78,8.13
								c0.44,2.33,0.13,19.49,0.03,25.13c-0.02,1.21-0.04,2.01-0.04,2.2c0,0.01,0,0.01-0.01,0.02c-0.11,0.11-0.19,0.3-0.22,0.5
								c-0.23,0.41-0.58,0.97-0.91,1.49c-1.77,2.8-4.74,7.48-4.17,12.09c0.64,5.15,1.42,7.3,1.7,7.95
								c-0.59,1.86-4.89,15.94-4.23,26.1c0.23,3.54-1.16,9.07-2.92,16.07c-2.27,9.02-6.57,29.8-7.53,42.76
								c-1.42,19.17,4.09,41.11,5.6,52.96c0.33,2.54,0.54,4.21,0.57,4.72c0.07,1.25-0.04,2.12-0.18,3.12
								c-0.18,1.36-0.39,2.9-0.18,5.8c0.02,0.29,0.07,0.61,0.14,0.95c-0.74,1.66-7.27,16.65-7.44,26.44
								c-0.08,4.78,1.45,15.39,3.07,26.61c1.47,10.17,2.86,20.67,3.31,27.16l0.01,0.17c0.04,0.54,0.07,1.06,0.09,1.54
								c0.07,3.48-0.26,10.4-0.49,11.08c-0.52,1.59-1.01,3.1-0.97,5.44c-0.14,0.14-0.28,0.27-0.43,0.39
								c-1.92,1.64-2.7,3.85-3.45,5.99c-0.25,0.7-0.48,1.36-0.75,2c-1.04,2.42-10.23,10-11.49,10.8c-0.99,0.62-3.49,4.29-3.49,4.29
								c-0.94,1.01-0.65,2.66-0.46,3.76c0.03,0.19,0.07,0.37,0.09,0.53c0.08,0.58,0.26,0.99,0.4,1.31c0.13,0.28,0.22,0.49,0.22,0.74
								c0.01,0.34-0.05,0.75-0.1,1.14c-0.05,0.35-0.1,0.72-0.11,1.06c-0.01,0.61,0.02,2.08,0.61,2.57c0.34,0.28,0.66,0.48,1.13,0.56
								c-0.05,0.15-0.12,0.35-0.2,0.59c-0.37,1.08,0.45,2.19,1.05,2.64c0.43,0.32,1.11,0.35,1.58,0.32c0,0.09,0.02,0.15,0.03,0.2
								c0.07,0.77,0.33,1.83,1.32,2.3c1,0.47,1.51,0.36,2.09,0.08c1.14,1.58,3.47,2.54,5.56,2.34c0.27-0.03,0.54-0.07,0.8-0.14
								c2.15-0.55,4.86-2.41,5.86-4.9c0.8-2,1.98-2.65,3.02-3.11c4.3-1.35,6.64-6.14,7.27-10.58c0.55-3.92,3.07-8.2,3.72-9.07
								c3-1.26,4.78-2.85,6.31-5.1c1.61-2.37,1.68-3.88,1.23-5.84c-0.43-1.87-1.6-10.65-2-12.02c-0.36-1.2-0.52-2.41-0.8-3.9
								c-0.87-4.64,4.88-28.56,6.57-33.22c0.65-1.78,1.58-3.73,2.65-5.99c1.82-3.82,4.09-8.58,5.91-14.61
								c2.75-9.12-1.59-29.29-2.12-31.67c1.59-2.8,3.01-5.69,4.24-8.65c0.98-2.37,1.91-4.82,2.37-7.35
								c0.69-3.73,1.28-10.79,1.97-18.97c0.61-7.22,1.3-15.41,2.14-21.95c1.04-8.07,3.17-17.17,4.89-24.49
								c1.17-5.01,2.19-9.33,2.52-11.94c0.62-4.87,0.01-9.73-0.34-11.86c0.38,0.04,1.49,0.05,1.76,0
								c-0.35,2.12-0.96,6.98-0.34,11.86c0.33,2.61,1.35,6.93,2.52,11.94c1.72,7.32,3.85,16.43,4.89,24.49
								c0.84,6.54,1.53,14.72,2.14,21.95c0.69,8.18,1.28,15.24,1.97,18.97c0.46,2.53,1.39,4.98,2.37,7.35
								c1.23,2.95,2.65,5.85,4.24,8.65c-0.53,2.38-4.86,22.56-2.12,31.67c1.81,6.03,4.08,10.78,5.91,14.61
								c1.08,2.26,2.01,4.21,2.65,5.99c1.69,4.66,7.44,28.58,6.57,33.22c-0.28,1.49-0.44,2.71-0.8,3.9
								c-0.41,1.37-1.57,10.15-2,12.02c-0.45,1.96-0.39,3.47,1.23,5.84c1.54,2.25,3.31,3.85,6.31,5.1c0.65,0.88,3.17,5.15,3.72,9.07
								c0.62,4.44,2.97,9.23,7.27,10.58c1.04,0.45,2.21,1.11,3.02,3.11c1,2.49,3.7,4.35,5.86,4.9c0.26,0.07,0.53,0.11,0.8,0.14
								c2.09,0.2,4.42-0.76,5.56-2.34c0.58,0.28,1.09,0.4,2.09-0.08c1.07-0.51,1.29-1.72,1.33-2.49c0.47,0.03,1.16,0,1.59-0.32
								c0.6-0.44,1.42-1.55,1.05-2.64c-0.08-0.22-0.14-0.41-0.19-0.56l0,0c0-0.01-0.01-0.02-0.01-0.04
								c0.47-0.09,0.79-0.28,1.13-0.56c0.59-0.49,0.63-1.96,0.61-2.57c-0.01-0.34-0.06-0.7-0.11-1.06c-0.05-0.39-0.11-0.8-0.1-1.14
								c0-0.25,0.1-0.46,0.22-0.74c0.14-0.32,0.32-0.73,0.4-1.31c0.02-0.16,0.05-0.34,0.09-0.53c0.19-1.09,0.48-2.75-0.46-3.76
								c0,0-2.51-3.67-3.49-4.29c-1.27-0.79-10.46-8.37-11.49-10.8c-0.27-0.63-0.5-1.29-0.75-2c-0.75-2.14-1.53-4.35-3.45-5.99
								c-0.14-0.12-0.28-0.25-0.43-0.39c0.04-2.34-0.45-3.85-0.97-5.44c-0.22-0.68-0.56-7.6-0.49-11.08c0.02-0.48,0.05-1,0.09-1.54
								c0.01-0.06,0.02-0.12,0.03-0.17l-0.02,0c0.44-6.49,1.84-16.99,3.31-27.16c1.62-11.23,3.15-21.83,3.07-26.61
								c-0.17-9.72-6.61-24.57-7.42-26.4c0.09-0.41,0.15-0.79,0.17-1.14c0.21-2.9,0-4.44-0.18-5.8c-0.13-1-0.25-1.86-0.18-3.12
								c0.03-0.51,0.24-2.19,0.57-4.72c1.52-11.86,7.02-33.79,5.6-52.96c-0.96-12.96-5.25-33.74-7.53-42.76
								c-1.76-7-3.16-12.53-2.92-16.07c0.66-10.16-3.64-24.24-4.23-26.1c0.28-0.65,1.06-2.8,1.7-7.95c0.57-4.62-2.4-9.3-4.17-12.09
								c-0.52-0.82-1.11-1.75-1.14-2.01c0-0.2-0.01-1-0.04-2.2c-0.1-5.64-0.41-22.8,0.03-25.13c0.31-1.65,1.51-4.8,2.78-8.13
								c0.89-2.34,1.82-4.76,2.54-6.94c0.55-1.66,1.08-4.75,1.58-8.2c0-0.01,0-0.01,0-0.02c1.43,3.55,4.63,10.06,6.69,13.72
								c3.64,6.45,4.89,16.97,5.09,24.39c0.08,2.95,2.16,5.18,2.77,5.91c-0.34,1.04-1.3,4.62-0.99,11.85
								c0.19,4.66,3.23,12.69,6.17,20.46c2.57,6.8,5,13.23,5.49,17.15c0.35,2.83,0.7,4.67,0.72,6.06c0.02,1.34,0.01,2.68-0.12,4.03
								c-0.12,1.24-0.64,2.71-1.27,5.22c-1.16,4.63-1.15,5.45-1.57,8.37c-0.33,2.34-1.55,10.23-0.16,11.38
								c2.1,1.74,3.9-0.64,5.07-2.49c1-1.57,1.27-3.6,1.53-5.55c0.28-2.09,0.55-4.06,1.7-4.8c0.08-0.05,0.15-0.07,0.28-0.02
								c1.58,0.59,1.02,2.14,1.58,6.38c-0.03,0.15-0.05,0.35-0.06,0.59l0,0c-0.04,0.07-3.77,7.21-6.04,10.66
								c-1.99,3.04-0.28,6.61,0.55,8.01c0.37,2.29,1.67,4.14,1.76,4.27l0.39,0.55l1.48-1.69c0.24,3.66,3.02,4.46,3.05,4.46
								l0.47,0.12l0.17-0.45c0.2-0.52,4.83-12.72,5.37-15.22c0.59-2.73,0.8-16.89,0.27-31.73c-0.34-9.73,2.62-17.98,3.51-25.25
								c0.5-4.08,0.96-7.94,1.22-12.12C285.4,265.14,282.3,259.55,281.71,258.59z"/>
						</g>
					</g>
				</g>
			</g>
		</g>
	</g>
	<g>
		<g id="Brachioradialis__x28_fore_arm_upper_x29__00000068650363730187269280000003334227240512152193_">
			<g>
				<path class="st1" d="M263.08,295.17l0.01,0.02c1.37,3.88,2.43,7.32,2.74,9.83c0.06,0.43,0.1,0.83,0.15,1.22
					c0.72-6.23,2.36-12.23,4.52-18.24c3.54-9.85,9.1-19.09,10.31-29.61l-0.02-8.68c0-6.92-4.9-14.5-6.63-17.12
					c0.25,9.59-6.55,17.15-10.78,25.47C257.51,269.64,260.04,283.02,263.08,295.17"/>
				<path class="st2" d="M262.11,291.67c-0.17-0.73-0.33-1.47-0.49-2.21c0-0.01,0-0.02,0-0.02c0.16,0.74,0.32,1.48,0.49,2.22
					C262.11,291.66,262.11,291.66,262.11,291.67 M263.37,280.47c-0.17-0.28-0.34-0.57-0.48-0.86c0.66-3.6,1.53-7.16,2.61-10.66
					c1.01-3.28,2.28-6.55,3.51-9.71c3.2-8.25,6.51-16.77,5.31-25.95c0.23,0.35,0.49,0.78,0.78,1.26c0.79,9.25-2.67,18.04-6.02,26.55
					c-0.34,0.87-0.69,1.74-1.03,2.61C265.94,269.13,264.38,274.74,263.37,280.47"/>
				<path class="st2" d="M264.56,300.11c-0.25-0.82-0.53-1.68-0.83-2.58c0,0,0-0.01,0-0.01c0.3,0.89,0.58,1.75,0.83,2.57
					C264.56,300.1,264.56,300.1,264.56,300.11 M268.72,284.12c-0.21-0.03-0.42-0.06-0.63-0.11c0.76-2.08,1.6-4.16,2.54-6.26
					c0.44-0.98,0.88-1.96,1.33-2.94c2.29-5.05,4.67-10.27,6.07-15.79c1.43-5.61,1.51-11.87,0.27-18.25
					c0.38,0.92,0.74,1.88,1.06,2.85c0.99,8.21-0.22,16.38-3.61,24.37c-0.91,2.14-1.88,4.3-2.83,6.38
					C271.47,277.55,270.01,280.8,268.72,284.12 M265.91,283.11c-0.18-0.11-0.35-0.24-0.52-0.37c0.41-2.15,0.89-4.29,1.45-6.41
					c1.09-4.17,2.75-8.31,4.36-12.33c3.5-8.75,7.13-17.8,5.01-27.53c0.33,0.61,0.67,1.26,1.01,1.96c1.25,9.07-2.15,17.54-5.44,25.76
					c-0.66,1.64-1.34,3.35-1.97,5.02C268.12,273.67,266.82,278.31,265.91,283.11"/>
				<path class="st3" d="M265.53,306.01c-0.18-1.49-0.34-3.85-0.97-5.91c0.55-4.09,1.41-7.96,2.57-11.54
					c0.48-1.5,1.02-2.98,1.59-4.44c0.28,0.03,0.55,0.05,0.83,0.05c0.86,0,1.83-0.17,2.63-0.46c-0.63,1.51-1.23,3.03-1.79,4.58
					c-2.14,5.96-3.47,12.59-4.21,18.77L265.53,306.01z M264.35,297.88c0.14-5.06,0.66-9.99,1.57-14.78
					c0.56,0.36,1.18,0.64,1.85,0.82c0.11,0.03,0.21,0.06,0.32,0.08C266.4,288.63,265.17,293.22,264.35,297.88 M263.73,297.52
					c-0.18-0.55-0.38-1.1-0.58-1.67c-0.03-0.09-0.06-0.17-0.09-0.26l0,0c0-0.01,0-0.01-0.01-0.02l-0.01-0.03
					c-0.01-0.02-0.01-0.05-0.02-0.07c-0.31-1.26-0.62-2.53-0.92-3.81c0.19-3.77,0.61-7.5,1.26-11.18c0.54,0.87,1.22,1.65,2.02,2.27
					C264.46,287.62,263.91,292.56,263.73,297.52 M261.62,289.44c-2.2-10.39-3.14-21.27,1.76-30.91c0.44-0.87,0.91-1.73,1.4-2.58
					c-1.83,6.75-4.52,14.18-2.84,21.08c0.21,0.88,0.53,1.76,0.94,2.58C262.29,282.86,261.87,286.14,261.62,289.44"/>
				<path class="st4" d="M262.11,291.65c-0.17-0.73-0.33-1.47-0.49-2.22c0.25-3.3,0.67-6.58,1.26-9.83c0.15,0.3,0.31,0.58,0.48,0.86
					C262.72,284.15,262.3,287.88,262.11,291.65"/>
				<path class="st4" d="M264.56,300.1c-0.25-0.82-0.53-1.68-0.83-2.57c0.17-4.96,0.73-9.91,1.66-14.78
					c0.17,0.13,0.34,0.25,0.52,0.37c-0.91,4.78-1.43,9.72-1.57,14.78c0.82-4.66,2.05-9.25,3.74-13.87c0.21,0.05,0.42,0.08,0.63,0.11
					c-0.57,1.47-1.11,2.95-1.59,4.44C265.98,292.13,265.12,296.01,264.56,300.1"/>
			</g>
			<g id="fore_arm_upper_00000181053421872433631430000004016595851547598997_">
				<path class="st1" d="M127.16,307.13c-0.72-6.23-2.12-12.76-4.28-18.77c-3.54-9.85-9.04-18.8-10.25-29.32v-8.71
					c0-6.92,4.82-15.39,6.54-18.01c-0.25,9.59,6.86,17.29,11.08,25.6c5.88,11.58,3.15,25.79,0.1,37.93L127.16,307.13z"/>
				<path class="st2" d="M131.04,291.73c0,0,0-0.01,0-0.02c0.17-0.73,0.33-1.47,0.49-2.22c0,0.01,0,0.02,0,0.02
					C131.38,290.26,131.21,291,131.04,291.73 M129.79,280.54c-1.01-5.74-2.57-11.34-4.68-16.76c-0.34-0.87-0.68-1.74-1.03-2.61
					c-3.35-8.52-6.81-17.31-6.02-26.55c0.29-0.48,0.56-0.9,0.78-1.26c-1.2,9.17,2.11,17.7,5.31,25.95c1.23,3.16,2.5,6.43,3.51,9.71
					c1.08,3.5,1.95,7.06,2.61,10.66C130.12,279.97,129.96,280.26,129.79,280.54"/>
				<path class="st2" d="M128.59,300.17c0,0,0-0.01,0-0.01c0.25-0.82,0.53-1.68,0.83-2.57c0,0,0,0.01,0,0.01
					C129.12,298.49,128.84,299.35,128.59,300.17 M124.44,284.18c-1.29-3.32-2.76-6.57-4.19-9.74c-0.94-2.08-1.92-4.23-2.83-6.38
					c-3.39-7.98-4.6-16.16-3.61-24.37c0.31-0.98,0.67-1.94,1.06-2.85c-1.24,6.38-1.16,12.64,0.27,18.25
					c1.4,5.52,3.78,10.74,6.07,15.79c0.44,0.98,0.89,1.95,1.33,2.94c0.94,2.1,1.78,4.18,2.54,6.26
					C124.86,284.12,124.65,284.15,124.44,284.18 M127.24,283.17c-0.91-4.8-2.2-9.44-3.89-13.89c-0.63-1.67-1.31-3.37-1.97-5.02
					c-3.29-8.22-6.69-16.69-5.44-25.76c0.34-0.69,0.68-1.35,1.01-1.96c-2.12,9.72,1.5,18.77,5.01,27.53
					c1.61,4.01,3.27,8.16,4.36,12.33c0.56,2.12,1.04,4.26,1.45,6.41C127.59,282.93,127.42,283.05,127.24,283.17"/>
				<path class="st3" d="M127.18,307.29c-0.73-6.18-2.16-12.98-4.3-18.94c-0.55-1.54-1.16-3.07-1.79-4.58
					c0.8,0.29,1.64,0.45,2.49,0.45c0.27,0,0.55-0.02,0.83-0.05c0.57,1.47,1.11,2.95,1.59,4.44c1.15,3.57,2.01,7.44,2.57,11.54
					c-0.63,2.06-0.79,4.32-0.97,5.82C127.55,306.32,127.18,307.29,127.18,307.29z M128.79,297.94c-0.82-4.66-2.05-9.25-3.74-13.87
					c0.11-0.02,0.21-0.05,0.32-0.08c0.67-0.19,1.29-0.47,1.85-0.82C128.13,287.95,128.65,292.89,128.79,297.94 M129.4,297.59
					c-0.17-4.96-0.73-9.91-1.66-14.78c0.81-0.62,1.48-1.4,2.02-2.27c0.65,3.68,1.07,7.41,1.26,11.18c-0.29,1.28-0.6,2.55-0.92,3.81
					c-0.01,0.02-0.01,0.05-0.02,0.07l-0.01,0.03c0,0.01,0,0.01-0.01,0.02l0,0c-0.03,0.09-0.06,0.18-0.09,0.26
					C129.78,296.48,129.58,297.04,129.4,297.59 M131.51,289.5c-0.25-3.3-0.67-6.58-1.26-9.83c0.41-0.82,0.73-1.7,0.94-2.58
					c1.68-6.9-0.89-15.55-2.72-22.3c0.49,0.85,0.96,1.71,1.4,2.58C134.77,267,133.71,279.11,131.51,289.5"/>
				<path class="st4" d="M131.04,291.72c0.17-0.73,0.33-1.47,0.49-2.22c-0.25-3.3-0.67-6.58-1.26-9.83
					c-0.15,0.3-0.31,0.58-0.48,0.86C130.43,284.21,130.85,287.94,131.04,291.72"/>
				<path class="st4" d="M128.59,300.16c0.25-0.82,0.53-1.68,0.83-2.57c-0.17-4.96-0.73-9.91-1.66-14.78
					c-0.17,0.13-0.34,0.25-0.52,0.37c0.91,4.78,1.43,9.72,1.57,14.78c-0.82-4.66-2.05-9.25-3.74-13.87
					c-0.21,0.05-0.42,0.08-0.63,0.11c0.57,1.47,1.11,2.95,1.59,4.44C127.18,292.2,128.04,296.07,128.59,300.16"/>
			</g>
		</g>
		<g id="Front_00000127724376033142385280000008533462382627415182_">
			<path class="st5" d="M196.58,139.14c-0.88-0.07-1.76-0.26-2.59-0.56c-0.17-1.54-0.35-3.11-0.54-4.71c0.43,0.1,0.9,0.18,1.35,0.24
				c0.36,0.05,0.72,0.08,1.06,0.11h1.43c0.33-0.03,0.68-0.06,1.04-0.11c0.45-0.06,0.9-0.13,1.32-0.23
				c-0.19,1.61-0.37,3.18-0.54,4.72C198.3,138.89,197.44,139.07,196.58,139.14 M199.8,138.32c0.17-1.54,0.35-3.08,0.53-4.63
				c0.08-0.02,0.15-0.05,0.22-0.08c0.51-0.18,1.46-0.77,2.63-1.58c-0.13,1.6-0.38,3.18-0.7,4.74
				C201.63,137.38,200.74,137.91,199.8,138.32 M193.3,138.3c-0.94-0.42-1.84-0.96-2.69-1.56c-0.32-1.56-0.57-3.13-0.69-4.73
				c1.2,0.83,2.17,1.43,2.69,1.62c0.06,0.02,0.11,0.04,0.17,0.06C192.95,135.22,193.12,136.76,193.3,138.3 M203.29,136.18
				c0.28-1.53,0.49-3.07,0.59-4.63c1.49-1.07,3.24-2.42,4.85-3.77c-0.5,1.69-0.99,3.26-1.48,4.72c-0.49,0.55-1.01,1.08-1.54,1.59
				C204.95,134.81,204.14,135.52,203.29,136.18 M189.8,136.14c-0.83-0.65-1.61-1.35-2.35-2.05c-0.53-0.51-1.05-1.04-1.54-1.59
				c-0.49-1.46-0.98-3.03-1.48-4.72c1.59,1.33,3.31,2.66,4.8,3.73C189.31,133.07,189.52,134.61,189.8,136.14"/>
			<path class="st6" d="M190.6,136.74c-0.27-0.19-0.54-0.39-0.8-0.6c-0.28-1.52-0.49-3.06-0.58-4.62c0.24,0.17,0.47,0.33,0.69,0.49
				C190.03,133.6,190.28,135.18,190.6,136.74"/>
			<path class="st6" d="M193.99,138.58c-0.12-0.04-0.23-0.09-0.35-0.13c-0.12-0.05-0.23-0.1-0.35-0.15
				c-0.17-1.54-0.35-3.08-0.53-4.62c0.22,0.07,0.44,0.13,0.68,0.19C193.64,135.47,193.82,137.04,193.99,138.58"/>
			<path class="st6" d="M202.48,136.78c0.32-1.56,0.57-3.14,0.7-4.74c0.22-0.15,0.45-0.32,0.69-0.49c-0.09,1.56-0.3,3.11-0.59,4.63
				C203.03,136.39,202.76,136.59,202.48,136.78"/>
			<path class="st6" d="M199.1,138.6c0.17-1.54,0.35-3.11,0.54-4.72c0.24-0.05,0.46-0.11,0.68-0.18c-0.18,1.54-0.36,3.09-0.53,4.63
				c-0.1,0.04-0.19,0.08-0.29,0.12C199.38,138.5,199.24,138.55,199.1,138.6"/>
			<path class="st7" d="M194.85,169.48c-0.11-0.21-0.23-0.41-0.36-0.61c-0.06-0.09-0.12-0.18-0.18-0.27
				c0.5-7.85-0.1-15.13-1.81-21.64c-0.25-0.96-0.51-1.92-0.77-2.87c-0.71-2.6-1.44-5.25-1.93-7.96c0.26,0.21,0.53,0.41,0.8,0.6
				c0.43,2.12,1,4.2,1.55,6.24c0.69,2.54,1.4,5.17,1.86,7.84c1.06,6.2,1.36,12.24,0.91,18.47
				C194.92,169.36,194.89,169.43,194.85,169.48"/>
			<path class="st7" d="M195.98,173.77c-0.08-0.8-0.2-1.59-0.4-2.32c0.51-5.35-0.03-10.8-0.55-16.1c-0.09-0.87-0.17-1.74-0.25-2.61
				c-0.44-4.74-0.94-9.57-1.48-14.44c0.11,0.05,0.23,0.1,0.35,0.15c0.12,0.05,0.23,0.09,0.35,0.13c0.65,5.81,1.19,11.14,1.63,16.17
				c0.06,0.69,0.12,1.39,0.19,2.08C196.32,162.39,196.84,168.12,195.98,173.77"/>
			<path class="st7" d="M198.89,168.74c-0.51-7.88-0.01-15.25,1.7-21.78c0.25-0.96,0.51-1.92,0.77-2.87
				c0.71-2.58,1.43-5.22,1.92-7.91c-0.26,0.2-0.53,0.4-0.8,0.59c-0.43,2.1-0.99,4.17-1.54,6.2c-0.69,2.54-1.4,5.17-1.86,7.84
				c-1.06,6.19-1.22,12.81-0.77,19.05L198.89,168.74z"/>
			<path class="st7" d="M197.27,173.41c-0.91-5.72-0.5-10.96,0.02-16.59c0.06-0.69,0.13-1.38,0.19-2.08
				c0.44-5.03,0.98-10.36,1.63-16.15c0.14-0.05,0.27-0.1,0.4-0.15c0.1-0.04,0.19-0.08,0.29-0.12c-0.54,4.86-1.04,9.69-1.48,14.42
				c-0.08,0.87-0.17,1.73-0.25,2.6c-0.53,5.35-0.98,11.13-0.45,16.53c-0.19,0.76-0.02,0.6-0.09,1.43L197.27,173.41z"/>
			<g>
				<path class="st5" d="M227.87,446.07c0.45,0,0.9-0.03,1.34-0.11c2.29-0.38,3.98-1.69,5.45-3.28c-0.01,0-0.02,0-0.02,0l-0.21,0.01
					c-3.06,0-13.45-8.46-15.77-11.06c0,0,13.53,9.99,15.73,9.99c0.03,0,0.06,0,0.09-0.01c1.84-0.28,7.1-8.91,7.21-9.09h0
					c0,0-0.08,0.14-0.24,0.38c-1.74,1.9-4.24,3.2-6.82,3.2c-0.14,0-0.27,0-0.41-0.01c-2.84-0.15-5.6-2.09-6.31-4.81
					c-0.52-2.03,0.11-4.22,1.23-5.99c1.12-1.78,2.71-3.22,4.27-4.64c-3.25,1.09-4.78,1.77-6.51,2.97c-1.26,0.87-5.25,2.74-8.18,2.74
					c-1.1,0-2.05-0.26-2.65-0.94c-0.6-0.69-1.2-1.37-1.68-2.15c-0.26-0.43-0.53-0.86-0.79-1.3c-0.4-0.02-0.81-0.07-1.2-0.15
					c-1.03-0.19-2.04-0.57-2.99-1.17c0.13,0.95,0.25,1.8,0.38,2.5c0.82,4.48,2.88,8.82,4.96,12.83c0.34,0.65,0.67,1.33,1.02,2.01
					c0.93,1.81,1.93,3.67,3.21,5.15l0.1,0.11c0.8,0.35,1.59,0.68,2.31,1C223.44,445.22,225.65,446.07,227.87,446.07"/>
				<path class="st5" d="M165.51,446.07c-0.45,0-0.9-0.03-1.34-0.11c-2.29-0.38-3.98-1.69-5.45-3.28c0.01,0,0.02,0,0.02,0l0.21,0.01
					c3.06,0,13.45-8.46,15.77-11.06c0,0-13.53,9.99-15.73,9.99c-0.03,0-0.06,0-0.09-0.01c-1.84-0.28-7.1-8.91-7.21-9.09h0
					c0,0,0.08,0.14,0.24,0.38c1.74,1.9,4.24,3.2,6.82,3.2c0.14,0,0.27,0,0.41-0.01c2.84-0.15,5.6-2.09,6.31-4.81
					c0.52-2.03-0.11-4.22-1.23-5.99c-1.12-1.78-2.71-3.22-4.27-4.64c3.25,1.09,4.78,1.77,6.51,2.97c1.26,0.87,5.25,2.74,8.18,2.74
					c1.1,0,2.05-0.26,2.65-0.94c0.6-0.69,1.2-1.37,1.68-2.15c0.26-0.43,0.53-0.86,0.79-1.3c0.4-0.02,0.81-0.07,1.2-0.15
					c1.03-0.19,2.04-0.57,2.99-1.17c-0.13,0.95-0.25,1.8-0.38,2.5c-0.82,4.48-2.88,8.82-4.96,12.83c-0.34,0.65-0.67,1.33-1.02,2.01
					c-0.93,1.81-1.93,3.67-3.21,5.15l-0.1,0.11c-0.8,0.35-1.59,0.68-2.31,1C169.94,445.22,167.73,446.07,165.51,446.07"/>
				<g>
					<g>
						<path d="M190.31,239.03c-3.32,0.51-6.34,1.66-9.49,2.74c-8.45,2.91-5.45-7.98-3.14-11.71c2.68-4.32,8.11-6.79,13.02-7.7
							c5.86-1.08,4.53,5.84,4.44,8.46C195.02,234.35,195.33,238.38,190.31,239.03 M195.79,230.87c0.07-1.93,0.19-3.85,0.04-5.78
							c-0.52-6.74-10.96-1.76-13.74-0.09c-5.36,3.23-8.22,9.52-7.47,15.57c0.15,1.23,1.13,2.86,2.64,2.69
							c4.54-0.51,8.64-2.92,13.17-3.62c2.37-0.31,3.82-0.73,4.91-2.84C196.13,235.25,195.73,232.54,195.79,230.87"/>
						<path d="M202.67,239.03c-5.09-0.66-4.78-4.69-4.91-8.22c-0.1-2.61-1.46-9.54,4.47-8.45c4.97,0.92,10.48,3.4,13.21,7.73
							c2.36,3.74,5.42,14.64-3.15,11.7C209.1,240.7,206.03,239.55,202.67,239.03 M197.11,230.86c0.06,1.67-0.34,4.38,0.47,5.94
							c1.1,2.11,2.58,2.54,4.98,2.85c4.6,0.71,8.75,3.13,13.35,3.65c1.53,0.17,2.52-1.45,2.67-2.68c0.74-6.05-2.17-12.34-7.6-15.58
							c-2.82-1.68-13.41-6.68-13.91,0.06C196.91,227.02,197.04,228.93,197.11,230.86"/>
						<path d="M188.67,219.42c-2.79,1.66-12.73,8.15-13.47,1.48c-0.64-5.76,1.06-9.84,6.38-12.44c3.24-1.59,8.41-4.62,11.99-4.02
							c2.46,1.44,1.47,6.19,1.07,8.34C194.02,216.08,191.35,217.83,188.67,219.42 M193.98,203.86c-0.76-0.32-1.74-0.2-2.52-0.08
							c-1.32,0.2-2.58,0.71-3.79,1.26c-0.32,0.14-0.64,0.29-0.96,0.44c-2.78,1.29-6.18,2.22-8.58,4.19
							c-2.46,2.02-3.42,4.25-3.73,7.38c-0.16,1.59-0.5,6.78,1,8.06c1.78,1.51,3.92-0.22,5.7-1.06c3.68-1.74,8.56-3.46,11.49-6.38
							c2.3-2.29,3.64-6.22,3.53-9.42c-0.05-1.45-0.54-3.39-1.84-4.22L193.98,203.86"/>
						<path d="M203.93,219.45c-2.68-1.59-5.35-3.34-5.97-6.64c-0.4-2.16-1.39-6.9,1.07-8.34c3.58-0.6,8.75,2.43,11.99,4.02
							c5.32,2.61,7.02,6.68,6.38,12.44C216.66,227.59,206.72,221.11,203.93,219.45 M198.61,203.89l-0.3,0.16
							c-1.3,0.83-1.8,2.77-1.84,4.22c-0.1,3.2,1.23,7.13,3.53,9.42c2.93,2.91,7.82,4.63,11.49,6.38c1.78,0.85,3.91,2.57,5.7,1.06
							c1.51-1.27,1.16-6.46,1-8.06c-0.31-3.13-1.27-5.36-3.73-7.38c-2.4-1.97-5.81-2.89-8.58-4.19c-0.32-0.15-0.64-0.3-0.96-0.44
							c-1.21-0.55-2.47-1.06-3.79-1.26C200.36,203.69,199.38,203.57,198.61,203.89"/>
						<g>
							<path d="M158.86,442.7l-0.21-0.01c-0.01,0-0.02,0-0.02,0c0,0-0.01-0.01-0.01-0.01c-2.66-0.47-7.55-8.94-7.55-10.13h0.53
								c0.11,0.18,5.37,8.81,7.21,9.09c0.03,0,0.05,0.01,0.09,0.01c2.2,0,15.73-9.99,15.73-9.99
								C172.3,434.24,161.91,442.7,158.86,442.7"/>
							<path d="M234.36,442.7l0.21-0.01c0.01,0,0.02,0,0.02,0c0,0,0.01-0.01,0.01-0.01c2.66-0.47,7.55-8.94,7.55-10.13h-0.53
								c-0.11,0.18-5.37,8.81-7.21,9.09c-0.03,0-0.05,0.01-0.09,0.01c-2.2,0-15.73-9.99-15.73-9.99
								C220.91,434.24,231.3,442.7,234.36,442.7"/>
							<path d="M281.7,258.58v-8.57c0-6.2-3.43-12.8-5.57-16.31c2.11-7.08,2.14-24.03,0.99-31.89c-0.7-4.78-4.03-8.68-5.67-11.17
								c0.03-0.19,0.06-0.38,0.1-0.58c0.9-5.78-3.02-19.96-5.38-25.93c-1.56-3.97-4.83-5.47-7.45-6.68
								c-1.42-0.65-2.64-1.22-3.33-2.02c-1.77-2.06-3.53-2.63-5.08-3.13c-0.41-0.13-0.8-0.26-1.18-0.41
								c-0.6-0.24-1.12-0.72-1.92-1.45c-1.36-1.23-3.41-3.1-7.8-5.65c-2.41-1.4-5.81-3.02-9.4-4.75c-5.89-2.82-12.76-6.07-14.4-8.09
								c-1.49-1.84-1.65-7.68-1.67-9.6c0.71-1.81,0.79-4.66,0.76-6.31c0.3,0.14,0.66,0.22,1.09,0.16c1.47-0.18,2.84-2.46,4.49-5.43
								c0.46-0.83,0.9-1.62,1.23-2.1c1.42-2.03,1.11-6.44,0.07-9.73c-0.3-0.96-0.82-1.52-1.53-1.65c-0.98-0.18-2.05,0.57-2.82,1.27
								c0.15-4.11,0.09-15.67-4.65-21.36c-4.09-4.9-12.26-6.12-15.36-6.41l-1.22,0c-3.1,0.29-11.27,1.51-15.36,6.41
								c-4.74,5.69-4.8,17.25-4.65,21.36c-0.77-0.71-1.84-1.45-2.82-1.27c-0.71,0.13-1.23,0.69-1.53,1.65
								c-1.04,3.3-1.35,7.7,0.07,9.73c0.33,0.48,0.77,1.26,1.23,2.1c1.64,2.97,3.02,5.25,4.49,5.43c0.43,0.05,0.79-0.02,1.09-0.16
								c-0.03,1.82,0.07,5.1,1,6.83c0,0,0,0.01,0.01,0.01c-0.04,1.36-0.33,7.16-1.91,9.11c-1.64,2.02-8.31,5.22-14.2,8.04
								c-3.59,1.72-6.99,3.35-9.4,4.75c-4.39,2.55-6.45,4.41-7.8,5.65c-0.8,0.73-1.33,1.21-1.93,1.45
								c-0.38,0.15-0.77,0.28-1.18,0.41c-1.55,0.5-3.31,1.06-5.08,3.13c-0.69,0.81-1.92,1.37-3.33,2.02
								c-2.62,1.21-5.88,2.71-7.45,6.68c-2.36,5.98-6.28,20.16-5.38,25.93c0.06,0.41,0.13,0.82,0.21,1.22
								c-1.66,2.48-4.65,6.09-5.34,10.75c-1.15,7.82-1.27,24.12,0.8,31.26c-2.11,3.38-5.83,10.28-5.83,16.73v8.57
								c-0.59,0.96-3.69,6.56-3.03,17.47c0.25,4.18,0.72,8.04,1.22,12.12c0.88,7.27,3.85,15.51,3.51,25.25
								c-0.52,14.84-0.31,29,0.27,31.73c0.54,2.51,5.17,14.7,5.37,15.22l0.17,0.45l0.47-0.12c0.03-0.01,2.81-0.8,3.05-4.46
								l1.48,1.69l0.39-0.55c0.09-0.12,1.39-1.97,1.76-4.27c0.83-1.39,2.54-4.97,0.55-8.01c-2.26-3.45-6-10.59-6.04-10.66l0,0
								c-0.01-0.24-0.03-0.45-0.06-0.59c0.56-4.24,0-5.79,1.58-6.38c0.13-0.05,0.2-0.03,0.28,0.02c1.15,0.74,1.41,2.71,1.7,4.8
								c0.26,1.96,0.54,3.98,1.53,5.55c1.17,1.85,2.97,4.23,5.07,2.49c1.38-1.15,0.17-9.04-0.16-11.38
								c-0.42-2.92-0.42-3.74-1.57-8.37c-0.74-2.95-1.18-4.48-1.37-5.84c-0.1-1.13,0.19-5.81,0.62-9.22
								c0.49-3.93,2.92-10.35,5.49-17.15c2.94-7.77,5.97-15.8,6.17-20.46c0.3-7.22-0.65-10.81-0.99-11.85
								c0.61-0.73,2.31-2.99,2.77-5.91c0.54-3.4,0.37-9.29,0.36-9.44c0.02-0.1,1.8-10.28,4.74-14.95
								c2.23-3.54,5.52-10.49,6.92-14.12c0.51,3.59,1.08,6.8,1.65,8.52c0.73,2.18,1.65,4.6,2.54,6.94c1.27,3.34,2.48,6.49,2.78,8.13
								c0.44,2.33,0.13,19.49,0.03,25.13c-0.02,1.21-0.04,2.01-0.04,2.2c0,0.01,0,0.01-0.01,0.02c-0.11,0.11-0.19,0.3-0.22,0.5
								c-0.23,0.41-0.58,0.97-0.91,1.49c-1.77,2.8-4.74,7.48-4.17,12.09c0.64,5.15,1.42,7.3,1.7,7.95
								c-0.59,1.86-4.89,15.94-4.23,26.1c0.23,3.54-1.16,9.07-2.92,16.07c-2.27,9.02-6.57,29.8-7.53,42.76
								c-1.42,19.17,4.09,41.11,5.6,52.96c0.33,2.54,0.54,4.21,0.57,4.72c0.07,1.25-0.04,2.12-0.18,3.12
								c-0.18,1.36-0.39,2.9-0.18,5.8c0.02,0.29,0.07,0.61,0.14,0.95c-0.74,1.66-7.27,16.65-7.44,26.44
								c-0.08,4.78,1.45,15.39,3.07,26.61c1.47,10.17,2.86,20.67,3.31,27.16l0.01,0.17c0.04,0.54,0.07,1.06,0.09,1.54
								c0.07,3.48-0.26,10.4-0.49,11.08c-0.52,1.59-1.01,3.1-0.97,5.44c-0.14,0.14-0.28,0.27-0.43,0.39
								c-1.92,1.64-2.7,3.85-3.45,5.99c-0.25,0.7-0.48,1.36-0.75,2c-1.04,2.42-10.23,10-11.49,10.8c-0.99,0.62-3.49,4.29-3.49,4.29
								c-0.94,1.01-0.65,2.66-0.46,3.76c0.03,0.19,0.07,0.37,0.09,0.53c0.08,0.58,0.26,0.99,0.4,1.31c0.13,0.28,0.22,0.49,0.22,0.74
								c0.01,0.34-0.05,0.75-0.1,1.14c-0.05,0.35-0.1,0.72-0.11,1.06c-0.01,0.61,0.02,2.08,0.61,2.57c0.34,0.28,0.66,0.48,1.13,0.56
								c-0.05,0.15-0.12,0.35-0.2,0.59c-0.37,1.08,0.45,2.19,1.05,2.64c0.43,0.32,1.11,0.35,1.58,0.32c0,0.09,0.02,0.15,0.03,0.2
								c0.07,0.77,0.33,1.83,1.32,2.3c1,0.47,1.51,0.36,2.09,0.08c1.14,1.58,3.47,2.54,5.56,2.34c0.27-0.03,0.54-0.07,0.8-0.14
								c2.15-0.55,4.86-2.41,5.86-4.9c0.8-2,1.98-2.65,3.02-3.11c4.3-1.35,6.64-6.14,7.27-10.58c0.55-3.92,3.07-8.2,3.72-9.07
								c3-1.26,4.78-2.85,6.31-5.1c1.61-2.37,1.68-3.88,1.23-5.84c-0.43-1.87-1.6-10.65-2-12.02c-0.36-1.2-0.52-2.41-0.8-3.9
								c-0.87-4.64,4.88-28.56,6.57-33.22c0.65-1.78,1.58-3.73,2.65-5.99c1.82-3.82,4.09-8.58,5.91-14.61
								c2.75-9.12-1.59-29.29-2.12-31.67c1.59-2.8,3.01-5.69,4.24-8.65c0.98-2.37,1.91-4.82,2.37-7.35
								c0.69-3.73,1.28-10.79,1.97-18.97c0.61-7.22,1.3-15.41,2.14-21.95c1.04-8.07,3.17-17.17,4.89-24.49
								c1.17-5.01,2.19-9.33,2.52-11.94c0.62-4.87,0.01-9.73-0.34-11.86c0.38,0.04,1.49,0.05,1.76,0
								c-0.35,2.12-0.96,6.98-0.34,11.86c0.33,2.61,1.35,6.93,2.52,11.94c1.72,7.32,3.85,16.43,4.89,24.49
								c0.84,6.54,1.53,14.72,2.14,21.95c0.69,8.18,1.28,15.24,1.97,18.97c0.47,2.53,1.39,4.98,2.37,7.35
								c1.23,2.95,2.65,5.85,4.24,8.65c-0.53,2.38-4.86,22.56-2.12,31.67c1.81,6.03,4.08,10.78,5.91,14.61
								c1.08,2.26,2.01,4.21,2.65,5.99c1.69,4.66,7.44,28.58,6.57,33.22c-0.28,1.49-0.44,2.71-0.8,3.9
								c-0.41,1.37-1.57,10.15-2,12.02c-0.45,1.96-0.39,3.47,1.23,5.84c1.54,2.25,3.31,3.85,6.31,5.1c0.65,0.88,3.17,5.15,3.72,9.07
								c0.62,4.44,2.97,9.23,7.27,10.58c1.04,0.45,2.21,1.11,3.02,3.11c1,2.49,3.7,4.35,5.86,4.9c0.26,0.07,0.53,0.11,0.8,0.14
								c2.09,0.2,4.42-0.76,5.56-2.34c0.59,0.28,1.09,0.4,2.09-0.08c1.07-0.51,1.28-1.72,1.33-2.49c0.47,0.03,1.16,0,1.59-0.32
								c0.6-0.44,1.41-1.55,1.05-2.64c-0.08-0.22-0.14-0.41-0.19-0.56l0,0c0-0.01-0.01-0.02-0.01-0.04
								c0.47-0.09,0.79-0.28,1.13-0.56c0.59-0.49,0.63-1.96,0.61-2.57c-0.01-0.34-0.06-0.7-0.11-1.06c-0.05-0.39-0.11-0.8-0.1-1.14
								c0-0.25,0.1-0.46,0.22-0.74c0.14-0.32,0.32-0.72,0.4-1.31c0.02-0.16,0.05-0.34,0.09-0.53c0.19-1.09,0.48-2.75-0.46-3.76
								c0,0-2.51-3.67-3.49-4.29c-1.27-0.79-10.46-8.37-11.49-10.8c-0.27-0.63-0.5-1.29-0.75-2c-0.75-2.14-1.53-4.35-3.45-5.99
								c-0.14-0.12-0.28-0.25-0.43-0.39c0.04-2.34-0.45-3.85-0.97-5.44c-0.22-0.68-0.56-7.6-0.49-11.08c0.02-0.48,0.05-1,0.09-1.54
								c0.01-0.06,0.02-0.12,0.03-0.17l-0.02,0c0.44-6.49,1.84-16.99,3.31-27.16c1.62-11.23,3.15-21.83,3.07-26.61
								c-0.17-9.72-6.61-24.57-7.42-26.4c0.09-0.41,0.15-0.79,0.17-1.14c0.21-2.9,0-4.44-0.18-5.8c-0.13-1-0.25-1.86-0.18-3.12
								c0.03-0.51,0.24-2.19,0.57-4.72c1.52-11.86,7.02-33.79,5.6-52.96c-0.96-12.96-5.25-33.74-7.53-42.76
								c-1.76-7-3.16-12.53-2.92-16.07c0.66-10.16-3.64-24.24-4.23-26.1c0.28-0.65,1.06-2.8,1.7-7.95c0.57-4.62-2.4-9.3-4.17-12.09
								c-0.52-0.82-1.11-1.75-1.14-2.01c0-0.2-0.01-1-0.04-2.2c-0.1-5.64-0.41-22.8,0.03-25.13c0.31-1.65,1.51-4.8,2.78-8.13
								c0.89-2.34,1.82-4.76,2.54-6.94c0.55-1.66,1.08-4.75,1.58-8.2c0-0.01,0-0.01,0-0.02c1.43,3.55,4.63,10.06,6.69,13.72
								c3.64,6.45,4.89,16.97,5.09,24.39c0.08,2.95,2.16,5.18,2.77,5.91c-0.34,1.04-1.3,4.62-0.99,11.85
								c0.19,4.66,3.23,12.69,6.17,20.46c2.57,6.8,5,13.23,5.49,17.15c0.35,2.83,0.7,4.67,0.72,6.06c0.02,1.34,0.01,2.68-0.12,4.03
								c-0.12,1.24-0.64,2.71-1.27,5.22c-1.16,4.63-1.15,5.45-1.57,8.37c-0.33,2.34-1.55,10.23-0.16,11.38
								c2.1,1.74,3.9-0.64,5.07-2.49c1-1.57,1.27-3.6,1.53-5.55c0.28-2.09,0.55-4.06,1.7-4.8c0.08-0.05,0.15-0.07,0.28-0.02
								c1.58,0.59,1.02,2.14,1.58,6.38c-0.03,0.15-0.05,0.35-0.06,0.59l0,0c-0.04,0.07-3.77,7.21-6.04,10.66
								c-1.99,3.04-0.28,6.61,0.55,8.01c0.37,2.29,1.67,4.14,1.76,4.27l0.39,0.55l1.48-1.69c0.24,3.66,3.02,4.46,3.05,4.46
								l0.47,0.12l0.17-0.45c0.2-0.52,4.83-12.72,5.37-15.22c0.59-2.73,0.8-16.89,0.27-31.73c-0.34-9.73,2.62-17.98,3.51-25.25
								c0.5-4.08,0.97-7.94,1.22-12.12C285.39,265.14,282.29,259.55,281.7,258.58z M276.26,201.34c1.32,7.7,1.08,24.28-0.83,31.24
								c-0.41-0.63-0.71-1.07-0.87-1.28c-0.09-1.6-0.78-13.77-1.96-19.52c-1.12-5.42-3.11-10.62-3.52-11.66
								c0.28-0.81,1.36-4.09,2.14-8.28C272.02,192.77,275.71,198.13,276.26,201.34z M221.24,260.36c0.01-1.23,0.08-2.45,0.19-3.67
								c0.28,0.08,0.61,0.08,1.02-0.03c2.67-0.73,5.02-5.23,6.14-7.39c1.28-2.48,2.24-5.01,2.85-7.65
								c-0.02,4.36,0.05,10.11,0.14,15.38c-1.77,3.01-4.16,5.71-7.15,7.54c-0.45,0.29-1.08,0.57-1.61,0.64
								c-1.06,0.14-1.6-1.23-1.49-2.1C221.28,262.17,221.24,261.26,221.24,260.36z M231.52,236.31c-0.26,6.07-2.43,11.91-6.11,16.75
								c-0.93,1.22-2,2.72-3.76,1.92c-0.93-0.42-0.86-1.48-0.74-2.33c0.19-1.31,0.32-2.62,0.57-3.92c0.12-0.65,0.29-1.3,0.5-1.93
								c0.03-0.09,0.17-0.55,0.32-0.97c0.53,0.15,1.27-0.06,2.28-0.79c3.03-2.17,4.68-5.59,5.53-9.27c0.62-0.54,1.22-1.12,1.77-1.72
								c-0.08,0.31-0.15,0.6-0.2,0.86C231.63,235.17,231.53,236.26,231.52,236.31z M227.07,241.67c-0.51,0.71-1.02,1.38-1.68,1.96
								c-0.77,0.68-1.73,1.84-2.88,1.22c-1.04-0.56-0.7-2.34-0.61-3.28c0.16-1.65,0.38-3.3,0.56-4.95c2.76-2.46,5.01-5.63,6.58-9.12
								c0.4-0.11,0.8-0.24,1.19-0.38C230.34,231.68,229.84,237.83,227.07,241.67z M226.58,230.84c-1.13,1.7-4.06,7.06-4.72,2.77
								c-0.42-2.75-1.59-6.87,0.57-9.28c0.72-0.14,1.25-1.02,1.75-1.48c0.58-0.52,1.15-1.06,1.71-1.62c0.2-0.2,0.39-0.41,0.59-0.62
								c1.44-0.13,2.83-0.42,4.15-0.87C230.14,223.74,228.74,227.59,226.58,230.84z M221.55,222.21c-0.47-1.25-1.02-2.5-1-3.86
								c0.03-3.64,2.93-6.49,6.14-8.09c1.86,0.65,3.78,1.1,5.76,1.34c-1.43,2.51-3.06,4.91-5.01,7.07
								c-0.71,0.79-1.58,1.46-2.37,2.18c-0.5,0.46-1.01,0.92-1.49,1.39c-0.32,0.32-0.82,0.84-1.29,0.9
								C221.72,223.22,221.73,222.67,221.55,222.21z M227.18,219.87c0.63-0.69,1.25-1.38,1.84-2.11c1.55-1.91,2.93-3.96,4.15-6.1
								c0.91,0.08,1.85,0.14,2.77,0.14c0.23,1.16,0.34,2.52,0.37,3.9l-0.02,0.01C233.7,218.03,230.6,219.43,227.18,219.87z
								 M224.36,208.59c0.23-0.01,0.46-0.01,0.69-0.02c2.89-0.14,5.85-1.69,8.49-3.69c1.04,2.03,1.77,4.12,2.25,6.28l0,0
								C231.76,211.16,227.91,210.28,224.36,208.59z M228.48,206.92c-6.78,2.91-19.09-0.21-24.51-5.62
								c-4.19-4.19-4.92-10.9-5.49-16.55c-0.38-3.74-1.89-11.19,0.31-14.6c4.34-6.72,9.72-7.61,17.46-8.04
								c15.52-0.88,16.6,3.97,21.86,9.02c1.78,1.71,2.89,3.52,4.14,5.3c3.84,5.47,4.84,10.59,4.39,11.13
								C242.36,194.54,236.24,203.58,228.48,206.92z M208.27,147.47c0.79-2,1.47-3.7,1.92-4.79c0.72-1.74,1.33-4.14,1.82-6.55
								c5.67,5.09,6.74,15.21,13.71,18.82c1.15,0.59,2.31,0.98,3.49,1.2c-1.75,0.76-3.8,1.58-5.99,2.29
								C216.24,158.23,210.52,154.02,208.27,147.47z M221.51,158.96c-6.11,1.76-12.94,2.44-17.31-1.11
								c1.21-3.11,2.56-6.55,3.71-9.48C210.21,154.27,215.28,158.19,221.51,158.96z M209.7,142.48c-1.85,4.46-7.6,19.3-9.09,23.15
								c-0.39-2.55-1.26-9.61,0.15-14.42c0.71-2.41,1.7-4.81,2.84-7.6c1.68-4.08,3.76-9.14,5.87-16.44
								c1.37-1.18,2.59-2.31,3.39-3.21c0.03,0.6,0.09,1.34,0.18,2.16C212.69,129.37,211.32,138.57,209.7,142.48z M247.26,187.77
								l0.02-0.03c3.87,7.42,10.29,12.77,18.24,15.21c7.19,15.26,4.7,34.69-1.23,50.41c-3.04-3.05-6.05-6.75-8.26-10.36
								c-2.84-4.64-4.58-9.91-6.42-15.02c-3.75-10.39-6.85-21.1-7.46-32.11C243.98,193.27,245.57,190.53,247.26,187.77z
								 M265.05,253.33c6.21-14.46,8.6-35.01,1.44-50.44c0.56-0.74,1.11-1.49,1.67-2.23c0.5,1.29,2.35,6.21,3.4,11.33
								c1.06,5.15,1.72,15.88,1.89,18.76c0,0.46,0.03,0.8,0.06,1.05c0.56,8.27-4.07,14.58-8.19,21.64c-0.12,0.21-0.24,0.4-0.36,0.6
								c-0.05-0.04-0.09-0.09-0.14-0.14C264.91,253.74,264.98,253.49,265.05,253.33z M255.73,157.09c0.74,0.48,1.62,0.89,2.54,1.31
								c2.58,1.19,5.5,2.53,6.9,6.1c2.32,5.89,6.19,19.79,5.31,25.38c-0.74,4.74-1.99,8.65-2.36,9.74
								c-2.07,2.62-3.35,2.81-6.69,1.13c-2.29-1.15-4.53-2.47-6.46-4.2c-3.28-2.93-5.84-6.32-7.73-10.32
								c-0.01-0.02-0.02-0.03-0.04-0.05c-0.67-5.47-5.35-12.92-10.81-18.16c-0.24-0.53-0.45-1.07-0.61-1.62
								c-1.77-6.07,3.22-7.29,7.98-6.99C247.28,159.64,253.79,161.1,255.73,157.09z M249.97,153.3c1.49,0.48,3.03,0.97,4.6,2.8
								c0.18,0.22,0.4,0.41,0.63,0.6c-2.65,6.25-15.35-1.15-19.7,4.4c-1.28,1.63-1.23,3.63-0.51,5.67
								c-3.4-2.95-7.12-5.34-10.17-5.43c-15.46-0.46-20.61,1.5-23.85,4.8c0.47-1.21,1.62-4.18,2.97-7.65
								c6.96,5.38,19.46,0.97,26.45-2.17c6.14,0.64,12.59-2.61,18.65-3.33C249.35,153.1,249.66,153.2,249.97,153.3z M214.96,132.67
								c1.79,2.21,8.28,5.32,14.57,8.33c3.57,1.71,6.95,3.33,9.33,4.71c4.29,2.49,6.3,4.31,7.62,5.51c0.56,0.51,1.02,0.91,1.48,1.23
								c-8.99,1.37-19.84,7.56-26.18-2.35c-3.11-4.86-5.22-10.81-9.61-14.74c0.55-2.89,0.94-5.7,1.14-7.34
								C213.62,129.83,214.13,131.65,214.96,132.67z M178.59,114.53c-0.01,0.03-0.38,0.69-1.06,0.6c-1.04-0.13-2.69-3.11-3.68-4.89
								c-0.5-0.9-0.92-1.67-1.29-2.19c-1.06-1.52-1.03-5.3,0.07-8.8c0.18-0.56,0.41-0.86,0.71-0.92c0.76-0.14,2.1,1.08,2.82,1.98
								l1.08,1.36l-0.13-1.74c-0.01-0.15-1.1-15.55,4.33-22.07c4.03-4.84,12.71-5.88,15.14-6.07c2.43,0.2,11.11,1.24,15.14,6.07
								c5.43,6.52,4.34,21.91,4.33,22.07l-0.13,1.74l1.08-1.36c0.72-0.91,2.06-2.12,2.82-1.98c0.29,0.05,0.53,0.36,0.71,0.92
								c1.1,3.5,1.13,7.28,0.07,8.8c-0.37,0.52-0.79,1.3-1.29,2.19c-0.99,1.78-2.64,4.76-3.68,4.89c-0.68,0.09-1.05-0.57-1.06-0.6
								l-1.17-2.25l0.16,2.52c0,0.05,0.33,5.4-0.83,7.55c-1.18,2.19-10.71,9.6-12.54,10.26c-1.03,0.37-2.5,0.51-3.61,0.56
								c-1.11-0.05-2.58-0.19-3.61-0.56c-1.83-0.67-11.36-8.07-12.54-10.26c-1.16-2.15-0.83-7.5-0.83-7.55l0.16-2.52L178.59,114.53z
								 M170.35,265.42c-0.53-0.07-1.16-0.35-1.61-0.64c-2.77-1.7-5.02-4.13-6.75-6.86c0.08-4.81,0.15-10.11,0.16-14.43
								c0.6,2.06,1.42,4.06,2.43,6.02c1.11,2.16,3.47,6.66,6.13,7.39c0.4,0.11,0.74,0.11,1.02,0.03c0.11,1.22,0.18,2.44,0.19,3.67
								c0.01,0.9-0.04,1.81-0.09,2.71C171.95,264.19,171.42,265.56,170.35,265.42z M171.52,255.23c-1.76,0.8-2.83-0.71-3.76-1.92
								c-2.81-3.69-4.74-7.97-5.61-12.49c-0.02-2.87-0.09-5-0.24-5.77c-0.01-0.04-0.02-0.09-0.03-0.14c0.38,0.38,0.77,0.75,1.18,1.1
								c0.84,3.69,2.5,7.11,5.52,9.27c1.01,0.73,1.75,0.94,2.28,0.79c0.15,0.42,0.29,0.88,0.32,0.97c0.21,0.63,0.37,1.27,0.5,1.93
								c0.25,1.3,0.38,2.62,0.57,3.92C172.37,253.75,172.45,254.81,171.52,255.23z M170.66,245.09c-1.15,0.62-2.11-0.54-2.88-1.22
								c-0.66-0.58-1.17-1.25-1.68-1.96c-2.77-3.84-3.27-9.98-3.16-14.56c0.39,0.14,0.79,0.27,1.19,0.38
								c1.56,3.49,3.81,6.66,6.57,9.12c0.18,1.65,0.4,3.29,0.56,4.95C171.36,242.75,171.7,244.53,170.66,245.09z M171.31,233.85
								c-0.66,4.3-3.58-1.07-4.72-2.77c-2.18-3.26-3.58-7.31-4.06-11.36c1.24,0.42,2.54,0.7,3.89,0.85c0.29,0.3,0.57,0.61,0.86,0.9
								c0.56,0.55,1.12,1.09,1.71,1.62c0.51,0.46,1.03,1.34,1.76,1.48C172.9,226.98,171.73,231.11,171.31,233.85z M157.3,212.06
								C157.3,212.05,157.3,212.05,157.3,212.06c0.9,0,1.83-0.05,2.71-0.13c1.22,2.14,2.6,4.18,4.15,6.09
								c0.5,0.62,1.02,1.22,1.56,1.82c-3.31-0.48-6.31-1.87-8.84-4.11l-0.01-0.01C156.92,214.38,157.08,213.17,157.3,212.06z
								 M170.87,223.39c-0.48-0.06-0.97-0.58-1.29-0.9c-0.48-0.48-0.98-0.94-1.49-1.39c-0.79-0.71-1.66-1.38-2.37-2.18
								c-1.95-2.16-3.58-4.56-5-7.07c1.99-0.23,3.92-0.67,5.79-1.33c3.21,1.61,6.08,4.45,6.11,8.08c0.01,1.36-0.53,2.61-1.01,3.86
								C171.44,222.92,171.45,223.47,170.87,223.39z M157.43,211.41c0.51-2.28,1.33-4.52,2.48-6.67c2.6,1.9,5.48,3.36,8.26,3.49
								c0.62,0.03,1.22,0.05,1.81,0.06C166.13,210.34,161.89,211.4,157.43,211.41z M164.75,206.58
								c-7.76-3.33-14.64-13.13-18.17-19.37c0.27-3.14,1.94-6.9,4.45-10.55c2.88-4.2,6.29-8.21,8.52-10
								c6.05-4.88,11.39-4.67,16.53-4.51c7.74,0.25,14.61,1.59,18.36,7.65c2.14,3.46,0.69,10.87,0.31,14.6
								c-0.57,5.65-1.3,12.36-5.49,16.55C183.84,206.38,171.86,209.64,164.75,206.58z M127.59,203.33
								c8.12-2.46,14.68-7.97,18.55-15.6c1.72,2.83,3.27,5.6,5.15,8.23c-0.59,11.04-3.7,21.79-7.46,32.21
								c-1.84,5.11-3.58,10.38-6.42,15.02c-2.41,3.94-5.03,7.47-8.37,10.69C123.1,238.2,120.49,218.59,127.59,203.33z
								 M128.06,253.13c-4.05-6.87-8.8-13.44-8.21-21.69c0.18-3.02,0.92-14.35,1.97-19.46c0.98-4.75,2.64-9.33,3.28-11
								c0.58,0.78,1.16,1.55,1.74,2.32c0.01,0.02,0.03,0.03,0.04,0.04C119.96,218.49,122.3,237.54,128.06,253.13z M192.6,165.57
								c-1.49-3.84-7.25-18.69-9.09-23.15c-2.06-4.99-3.19-15.49-3.24-15.92c0.1-0.89,0.17-1.71,0.2-2.37
								c0.81,0.88,1.98,1.97,3.29,3.09c2.1,7.25,4.17,12.28,5.84,16.33c1.14,2.79,2.14,5.19,2.84,7.6
								C193.86,155.96,192.99,163.03,192.6,165.57z M185.37,148.51c1.17,2.96,2.52,6.41,3.72,9.5c-2.93,2.92-11.11,2.85-17.54,1.17
								C177.89,158.46,183.06,154.5,185.37,148.51z M169.9,158.64l-0.05,0.02c-2.15-0.7-4.16-1.5-5.89-2.26
								c1.18-0.23,2.34-0.61,3.49-1.2c7-3.62,8.05-13.83,13.8-18.9c0.48,2.34,1.07,4.64,1.77,6.33c0.46,1.11,1.17,2.88,1.99,4.96
								C182.76,154.23,176.96,158.47,169.9,158.64z M146.9,151.21c1.33-1.2,3.33-3.02,7.62-5.51c2.38-1.38,5.75-3,9.33-4.71
								c6.28-3.01,12.78-6.12,14.57-8.33c0.75-0.93,1.24-2.52,1.55-4.16c0.22,1.72,0.6,4.35,1.12,7.03
								c-4.45,3.93-6.56,9.93-9.69,14.82c-6.38,9.98-17.34,3.64-26.36,2.33C145.64,152.34,146.19,151.86,146.9,151.21z
								 M138.81,156.1c1.57-1.83,3.11-2.33,4.6-2.8c0.05-0.01,0.09-0.03,0.13-0.04l0.45-0.02c6.09,0.69,12.59,3.99,18.77,3.35
								c7.03,3.15,19.88,6.99,26.57,2.08c1.18,3.03,2.2,5.65,2.72,7.02c-3.32-3.18-8.8-4.65-23.8-4.26
								c-3.04,0.08-6.6,2.19-9.97,5.25c0.6-1.91,0.57-3.77-0.63-5.3c-4.37-5.56-17.15,1.92-19.73-4.47
								C138.26,156.64,138.56,156.38,138.81,156.1z M128.21,164.5c1.41-3.57,4.33-4.91,6.9-6.1c0.81-0.38,1.6-0.74,2.28-1.16
								c1.88,4.14,8.47,2.66,12.02,2.44c4.76-0.3,9.75,0.92,7.98,6.99c-0.13,0.44-0.28,0.87-0.46,1.3
								c-5.69,5.68-10.53,13.74-10.96,18.69c-1.89,3.97-4.44,7.33-7.69,10.24c-1.93,1.73-4.17,3.04-6.47,4.2
								c-3.2,1.61-4.38,1.45-6.3-0.87l-0.15-0.29c-0.02-0.04-1.6-4.48-2.47-10.06C122.02,184.29,125.89,170.38,128.21,164.5z
								 M117.56,201.55c0.49-2.89,3.52-7.5,4.71-9.1c0.77,3.88,1.76,6.88,2.02,7.65c-0.41,1.04-2.4,6.24-3.52,11.66
								c-1.18,5.75-1.88,17.92-1.96,19.52c-0.11,0.16-0.32,0.45-0.58,0.85C116.47,224.84,116.28,209.02,117.56,201.55z
								 M109.71,275.98c-0.53-8.74,1.45-14.02,2.42-16.03c1.13,7.51,4.35,15.03,7.42,21.96c4.07,9.2,6.59,19.55,7.34,29.43
								c-0.08,2.04,0,3.5,0.2,4.78c-7.69-9.73-14.28-20.3-16.68-32.51C110.12,281.11,109.87,278.6,109.71,275.98z M124.07,356.17
								l-1.4-1.6c-0.32-3.78-1.99-9.72-2.25-10.64c0.03-0.22,0.08-0.79,0.14-1.55c1.1,2.03,2.7,4.91,4.05,6.97
								C126.22,351.82,124.79,354.91,124.07,356.17z M120.85,336.73c1.27,2.37,3.55,6.54,5.14,8.96c1.06,1.62,0.81,3.5,0.3,4.96
								c-0.14-0.63-0.39-1.27-0.79-1.88c-1.73-2.63-3.88-6.63-4.81-8.41C120.76,339.18,120.82,337.88,120.85,336.73z M128.11,320.71
								c0.98,4.16,1.59,6.29,1.59,8.28c0,5.14,1.61,10.79-0.23,10.79c-0.45,0-1.4-0.46-2.7-2.51c-0.87-1.38-1.13-3.28-1.38-5.13
								c-0.32-2.34-0.61-4.55-2.18-5.56c-0.38-0.24-0.8-0.28-1.23-0.12c-2.57,0.97-1.73,5.35-2.27,7.21l-0.04,0.13l0.03,0.14
								c0.68,2.91-0.35,9.87-0.36,9.94l-0.02,0.12l0.03,0.11c0.02,0.08,2.3,7.99,2.3,11.61c0,2.39-1.17,3.37-1.84,3.74
								c-0.91-2.41-4.67-12.4-5.13-14.55c-0.47-2.21-0.79-16.09-0.25-31.47c0.34-9.51-2.44-17.58-3.42-24.72
								c3.14,10.55,9.28,19.87,16.23,28.57l0.04,0.06C127.51,318.48,127.8,319.39,128.11,320.71z M130.61,293.15
								c-0.34,1.45-0.2,0.85-0.59,2.44c-1.36,3.85-2.33,7.31-2.64,9.8c-0.05,0.44-0.1,0.86-0.15,1.26
								c-0.81-5.92-2.34-12.78-4.31-18.24c-3.49-9.71-8.9-19.15-10.2-29.49c0,0,0.01-0.01,0.01-0.01l0.01-0.01V250
								c0-6.91,4.65-14.64,6.38-17.27c0,0,0-0.01,0-0.01c-0.07,9.42,6.6,16.9,10.78,25.11c5.09,10.01,3.25,23.84,0.86,34.58
								C130.67,292.85,130.68,292.83,130.61,293.15z M139.03,267.87c-0.19,4.49-3.19,12.44-6.1,20.13
								c-0.14,0.38-0.48,1.04-0.85,1.74c1.76-8.34,2.67-16.74,0.87-25.28c-0.18-0.85-0.41-1.67-0.68-2.49
								c1.73-2.05,3.68-3.89,5.83-5.51C138.42,257.45,139.32,260.94,139.03,267.87z M146.06,225.2c-3.05,4.85-4.81,14.91-4.89,15.44
								c0,0.06,0.17,6.05-0.35,9.34c-0.5,3.18-2.69,5.58-2.72,5.6l-0.22,0.24c0,0,0,0,0,0c-2.16,1.6-4.11,3.42-5.85,5.44
								c-0.05-0.13-0.09-0.24-0.12-0.35c-0.79-2.15-1.83-4.22-2.97-6.24c3.2-3.02,6.14-6.4,9.02-11.17
								c2.82-4.67,3.84-8.29,5.77-13.31c4.14-10.8,7.46-21.96,8.15-33.45c0.11,0.15,0.22,0.3,0.34,0.46
								c0.28,2.88,0.74,7.44,1.31,11.83c0.01,0.05,0.01,0.1,0.02,0.15C152.42,212.43,148.67,221.06,146.06,225.2z M153.44,198.69
								c1.54,1.78,3.62,3.88,5.95,5.66c-2.46,4.58-3.51,9.54-3.14,14.47C155.13,214.4,154.03,204.53,153.44,198.69z M157.73,223.18
								c-0.65-2.52-0.89-4.72-0.89-6.66c1.53,1.28,3.2,2.26,5,2.96c0.29,2.56,0.96,5.11,1.96,7.52
								C161.49,226.27,159.41,224.96,157.73,223.18z M159.62,228.63c-0.03-0.08-0.09-0.21-0.15-0.36c-0.57-1.36-1.02-2.64-1.39-3.85
								c1.26,1.14,2.68,2.05,4.24,2.71c-0.01,0.02-0.02,0.05-0.02,0.07c-0.07,2.44,0.05,5.13,0.53,7.74
								c-0.47-0.44-0.92-0.91-1.35-1.39C161.04,232.22,160.35,230.56,159.62,228.63z M156.6,276.56c-0.52-4.24,2.32-8.71,4.01-11.39
								c0.31-0.48,0.55-0.87,0.75-1.2c6.76,3.03,14.86,8.34,13.04,17.33c-0.51,2.5-2.7,5.18-4.25,7.07
								c-2.17,2.63-4.19,1.43-6.45-0.37c-1.96-1.55-3.9-3.14-5.83-4.74C157.54,282.16,157.04,280.1,156.6,276.56z M151.12,327.06
								c1.79-7.09,3.2-12.69,2.95-16.4c-0.48-7.29,1.67-16.7,3.09-21.93c4.19,4.58,3.68,11.89,2.8,17.9
								c-1.04,7.17-2.21,17.43-9.03,21.16C151.01,327.54,151.07,327.3,151.12,327.06z M143.63,369.64
								c0.62-8.34,2.63-19.99,4.59-29.6c-0.64,7.48-0.44,14.05,1.26,22.93c1.7,8.87,7.09,21.03,9.13,32.21
								c0.77,4.2,1.47,14.95-0.59,20.89c-1.36,3.94-5.38,7.16-8.81,6.23C147.68,410.45,142.23,388.66,143.63,369.64z M145.2,490.02
								c-1.61-11.18-3.14-21.75-3.06-26.44c0.14-8.23,5.08-20.66,6.81-24.77c0.97,3.08,2.97,7.13,4.7,10.35
								c-0.07,12.92-0.15,25.84-0.22,38.75c-0.06,11.35,1.75,25.16-4.9,35.06c0.08-1.75,0.11-3.44,0.05-4.59
								C148.36,511.96,146.76,500.83,145.2,490.02z M164.04,524.72c0.07,0.38,0.15,0.75,0.22,1.11c-3.87-4.37-3.92-11.01-3.94-16.97
								c0-0.87-0.01-1.72-0.02-2.54c-0.14-7.72-0.21-14.8,0.25-21.86c0.8,3.53,2.95,8.74,8.69,11.29
								C166.88,504.51,163.3,520.79,164.04,524.72z M179.2,470.4c-1.79,5.95-4.04,10.67-5.85,14.46c-1.09,2.28-2.03,4.25-2.69,6.09
								c-0.28,0.78-0.67,2.07-1.12,3.7c-5.8-2.67-8.04-8.57-8.86-11.89c0.05-0.62,0.09-1.24,0.15-1.85c0.15-1.57,0.24-3.19,0.34-4.9
								c0.26-4.49,0.39-9.07,1.78-13.38c1.05-3.26,2.71-6.31,4.64-9.13c1.95-2.84,4.38-5.28,6.4-8.05c1.18-1.62,2.28-3.3,3.32-5.03
								C178.32,445.33,181.57,462.5,179.2,470.4z M183.67,422.85c-0.82,4.48-2.88,8.82-4.96,12.83c-1.22,2.36-2.43,5.1-4.16,7.13
								c-4.75,5.58-9.89,10.97-12.2,18.1c-1.59,4.9-1.96,9.93-2.25,15.04c-0.1,1.7-0.19,3.3-0.34,4.86
								c-0.77,8.32-0.69,16.49-0.52,25.54c0.02,0.82,0.02,1.67,0.02,2.53c0.03,6.74,0.06,14.33,5.45,18.93
								c0.15,0.6,0.29,1.18,0.44,1.7c0.59,3,1.53,9.65,1.87,11.15c0.41,1.79,0.35,3.02-1.09,5.14c-1.23,1.81-3.07,3.24-4.66,4.14
								c1.21-1.95,3.3-5.33,3.3-5.33c-1.58,1.67-4.8,6.08-4.87,6.17l0,0c-0.6,0.75-3.37,5.36-3.96,9.57
								c-0.58,4.1-2.74,8.64-6.67,9.87l-0.05,0.02c-0.87,0.38-2.5,1.08-3.51,3.6c-0.89,2.21-3.32,3.87-5.25,4.37
								c-2.02,0.52-4.64-0.48-5.6-2.14l-0.03-0.05c-0.15-0.8-0.02-1.09,0.3-1.39c0.09-0.08,0.24-0.22,0.44-0.39
								c1.3-1.15,2.72-2.45,3.1-3.2c0.35-0.69,3.09-5.16,5.23-6.9c0,0-3.43,1.79-6.02,6.5c-0.36,0.65-2.13,2.26-2.9,2.94
								c-0.21,0.18-0.37,0.33-0.46,0.41c-0.56,0.53-0.73,1.13-0.58,2.08c-0.39,0.19-0.63,0.25-1.33-0.08
								c-0.6-0.28-0.77-1.06-0.82-1.64l0,0c0-0.03,0.28-3.61,6.66-11.73c0,0-2.09,1.66-3.9,4.36c-2.35,3.51-3.22,5.4-3.52,6.42
								c-0.43,0.04-0.99,0.02-1.2-0.14c-0.43-0.32-0.93-1.07-0.74-1.64c0.07-0.22,0.13-0.4,0.18-0.54l0,0
								c0.75-2.6,3.46-8.56,5.76-11.18c0,0-1.34,0.92-3,3.52c-1.66,2.6-2.59,4.28-3.32,6.46c-0.35-0.04-0.56-0.16-0.84-0.39
								c-0.13-0.12-0.31-0.85-0.29-1.87c0.01-0.29,0.05-0.61,0.1-0.96c0.06-0.43,0.12-0.87,0.11-1.28c0-0.11-0.01-0.22-0.03-0.32
								c0.36-1.49,1.42-4.17,4.22-7.47c0,0-1.33,1.12-2.45,2.65c-1,1.37-1.76,2.43-2.25,3.51c-0.05-0.16-0.09-0.32-0.12-0.52
								c-0.02-0.17-0.06-0.36-0.09-0.57c-0.17-0.98-0.4-2.31,0.23-3c0,0,2.39-3.57,3.32-4.15c1.36-0.85,10.68-8.51,11.84-11.2
								c0.28-0.66,0.53-1.37,0.77-2.05c0.71-2.03,1.45-4.13,3.19-5.61c2.49-2.13,4.27-7.45,4.27-7.45
								c-0.01,0.02-1.65,3.14-3.51,5.39c0.09-1.65,0.47-2.84,0.91-4.17c0.14-0.44,0.41-3.28,0.57-6.26
								c6.45-9.07,5.52-21.45,5.58-32.03c0.08-13.94,0.16-27.87,0.24-41.8c1.29,2.35,2.3,4.04,2.39,4.19c0,0-6.89-13.61-7.23-18.42
								c-0.2-2.79,0-4.27,0.17-5.58c0.13-1.01,0.26-1.97,0.18-3.32c-0.03-0.49-0.21-1.93-0.48-4.08c2.54,0.55,5.34-0.92,7.54-3.61
								c4.06-4.97,3.85-13.92,3.06-20.81c0.95,0.33,2.01,0.28,2.93-0.18c-0.05,1.76,0.05,3.53,0.34,5.32
								c0.9,5.56,3.3,11.66,8.14,14.99c3.87,2.66,8.76,4.08,12.73,1.47C183.93,421.27,183.8,422.13,183.67,422.85z M185.62,403.98
								c-0.49,5.86-0.97,11.48-1.46,15.47c-6.5,5.09-14.55-1.87-17.78-7.56c-3.5-6.17-3.17-13.58-1.65-20.25
								c2.78-12.23,10.67-22.56,14.15-34.59c2.15,5.05,4.04,10.19,5.07,15.63c1.39,7.37,2.04,14.82,2.45,22.28
								C186.12,398.01,185.86,401.07,185.62,403.98z M187.76,381.99c-0.36,2.79-0.69,5.88-1,9.07c-0.88-11.95-2.7-23.72-7.58-34.95
								c-8.08-18.61-15.93-36.73-16.32-57.38c-0.02-1.32,0.07-2.55,0.33-3.86c1.12-5.64,5.34,2.65,5.46,2.88
								c1.26,2.4,2.63,4.12,2.96,6.95c0.15,1.33,0.28,2.58,0.56,3.9c1.96,9.17,3.66,18.07,6.96,26.91c1.51,4.05,3.53,7.89,5,11.95
								c1.65,4.57,2.36,9.59,3.14,14.37c0.78,4.79,1.21,9.62,1.36,14.45C188.3,378.21,188,380.13,187.76,381.99z M195.17,345.56
								c-0.32,2.55-1.33,6.85-2.5,11.83c-1.15,4.92-2.5,10.65-3.57,16.33c-0.22-4.03-0.62-8.05-1.21-12.08
								c-0.79-5.43-1.88-10.9-3.75-16.07c-1.9-5.25-4.47-10.24-6.26-15.56c-3.12-9.25-3.99-18.75-6.09-28.18
								c-0.65-2.93-3.24-6.19-4.87-8.65c-0.48-0.72-1.93-1.34-2.73-0.77c-4.08,2.9-1.68,12.8-1.23,16.63
								c1.27,10.84,4.69,21.34,8.69,31.45c2.09,5.28,4.59,10.4,6.84,15.61c-3.77,13.69-14.81,27.11-15.6,41.61
								c-0.92,0.63-2.07,0.7-3.04,0.28c-0.11-0.9-0.23-1.76-0.34-2.56c-1.67-11.52-7.41-25.03-9.35-34.05
								c-1.83-8.51-1.8-17.55-0.87-26.37c0.52-2.41,1.02-4.58,1.46-6.41c7.74-3.67,8.58-14.1,9.85-21.81
								c1.04-6.34,1.37-14.09-3.22-18.8c0.55-1.97,0.94-3.2,0.96-3.24l0.07-0.22l-0.01-0.01c2.81,2.35,5.63,4.75,8.67,6.77
								c0.14,0.09,0.28,0.15,0.42,0.19c2.17,3.11,4.18,7.1,6.62,11.98c2.08,4.17,4.45,8.89,7.43,14.05
								c0.84,1.46,1.54,3.09,2.28,4.82c2.11,4.95,4.48,10.5,10.98,11.4C195.1,335.62,195.79,340.65,195.17,345.56z M197,332.79
								c-0.04,0-0.33,0-0.33,0c-7.26-0.01-9.5-5.29-11.89-10.88c-0.72-1.68-1.46-3.42-2.33-4.94c-2.96-5.13-5.32-9.84-7.4-14
								c-2.35-4.69-4.3-8.57-6.39-11.67c2.32-1.12,4.97-6.31,5.68-7.53c2.63-4.56,0.64-10.04-2.38-13.96
								c-2.27-2.94-6.64-5.39-10.09-6.95c0.03-0.1,0.04-0.2,0.04-0.28c0-0.2,0.01-1,0.04-2.19c0.01-0.45,0.02-0.91,0.02-1.37
								c1,1.46,2.13,2.79,3.43,4.02c1.23,1.15,3.77,3.57,5.52,3.6c1.39,0.02,1.38-1.32,1.49-2.42c0.24-2.55,0.18-5.12-0.06-7.67
								c0.54-0.59,0.67-1.67,0.66-2.56c-0.02-3.14-0.56-5.68-1.63-8.22c1.31-1.37,0.42-6.35,0.01-8.91c0-0.01,0.01-0.01,0.01-0.01
								c0.71-3.55,2.48-9.18,0.06-12.4c0.43-0.3,0.56-1,0.77-1.48c0.67-1.6,1.31-3.73,1.04-5.48c-0.49-3.17-3.08-5.71-5.95-7.27
								c1.38-0.53,2.73-1.17,4.02-1.94c8.25-0.15,14.17-2.66,19.25-7.75c3.86-3.87,4.21-11.04,4.8-16.13
								c0.51-4.45,1.81-11.49-0.8-15.55c-0.52-0.8-1.04-1.54-1.62-2.22c0.08-0.4,1.77-9.58-0.01-15.62
								c-0.72-2.44-1.71-4.85-2.86-7.65c-1.61-3.9-3.58-8.7-5.59-15.51c3.19,2.66,6.9,5.34,8.1,5.78c0.95,0.35,2.2,0.51,3.27,0.59
								h1.42c1.07-0.08,2.31-0.24,3.27-0.59c1.21-0.44,4.96-3.15,8.17-5.83c-2.03,6.87-4.01,11.69-5.62,15.62
								c-1.15,2.8-2.15,5.22-2.86,7.65c-1.78,6.05-0.08,15.24-0.01,15.63c0,0-1.07,1.68-1.6,2.51c-2.62,4.05-1.31,11.1-0.8,15.55
								c0.58,5.09,0.93,12.27,4.8,16.13c5.3,5.31,11.52,7.82,20.34,7.75c0.95,0.5,1.92,0.95,2.91,1.33
								c-2.88,1.55-5.48,4.11-5.98,7.28c-0.27,1.74,0.37,3.88,1.04,5.48c0.2,0.48,0.34,1.18,0.77,1.48
								c-2.43,3.22-0.66,8.85,0.06,12.4c0,0.01,0.01,0.01,0.01,0.02c-0.42,2.56-1.29,7.53,0.01,8.91c-1.07,2.54-1.61,5.08-1.64,8.22
								c-0.01,0.89,0.12,1.97,0.66,2.56c-0.24,2.55-0.3,5.12-0.06,7.67c0.1,1.1,0.1,2.44,1.49,2.42c1.75-0.03,4.29-2.45,5.52-3.6
								c1.5-1.4,2.75-2.95,3.84-4.65c0.01,0.72,0.02,1.42,0.04,2.11c0.02,1.2,0.04,1.99,0.04,2.19c0,0.09,0.02,0.19,0.05,0.3
								c-3.47,1.54-7.93,3.93-10.26,6.94c-3.02,3.92-5.32,9.4-2.69,13.96c0.72,1.25,3.66,6.79,6.08,7.73
								c-2.07,3.09-4.01,6.95-6.34,11.61c-2.08,4.15-4.43,8.86-7.4,14c-0.88,1.52-1.62,3.26-2.33,4.94
								C206.4,327.47,204.17,332.73,197,332.79z M206.76,390.93c-0.31-3.14-0.63-6.19-0.99-8.94c-0.24-1.88-0.54-3.82-0.88-5.77
								c0.15-4.92,0.58-9.83,1.37-14.7c0.77-4.78,1.48-9.8,3.14-14.37c1.47-4.06,3.48-7.9,5-11.95c3.3-8.83,5-17.74,6.96-26.91
								c0.28-1.32,0.41-2.56,0.56-3.9c0.33-2.83,1.7-4.54,2.96-6.95c0.12-0.23,4.34-8.52,5.46-2.88c0.26,1.31,0.36,2.54,0.33,3.86
								c-0.39,20.65-8.24,38.78-16.32,57.38C209.45,367.09,207.64,378.93,206.76,390.93z M207.92,403.98
								c-0.25-2.94-0.51-6.05-0.79-9.13c0.41-7.52,1.06-15.03,2.46-22.46c1.02-5.41,2.89-10.51,5.02-15.52
								c3.48,12.01,11.42,22.57,14.19,34.78c1.52,6.67,1.85,14.08-1.65,20.25c-3.23,5.7-11.28,12.65-17.78,7.56
								C208.88,415.46,208.41,409.85,207.92,403.98z M222.88,490.94c-0.66-1.83-1.61-3.8-2.69-6.09c-1.81-3.79-4.06-8.51-5.85-14.46
								c-2.38-7.9,0.88-25.07,1.9-29.99c1.04,1.73,2.14,3.41,3.32,5.03c2.02,2.78,4.45,5.21,6.4,8.05c1.93,2.82,3.59,5.87,4.64,9.13
								c1.39,4.31,1.52,8.9,1.78,13.38c0.1,1.71,0.19,3.32,0.34,4.9c0.05,0.55,0.09,1.09,0.13,1.64c-0.54,2.26-1.76,5.87-4.41,8.78
								c-1.18,1.29-2.63,2.45-4.44,3.29C223.55,493,223.16,491.72,222.88,490.94z M224.29,495.71c2.1-0.94,3.71-2.25,4.96-3.69
								c2.2-2.56,3.24-5.56,3.72-7.81c0.48,7.15,0.4,14.3,0.26,22.11c-0.02,0.83-0.02,1.68-0.02,2.54
								c-0.02,5.96-0.07,12.6-3.94,16.97c0.08-0.37,0.15-0.73,0.22-1.11C230.24,520.78,226.64,504.46,224.29,495.71z M246.54,534.57
								c-1.87-2.25-3.51-5.37-3.51-5.39c0,0,1.78,5.33,4.27,7.45c1.74,1.49,2.48,3.58,3.19,5.61c0.24,0.68,0.49,1.39,0.77,2.05
								c1.15,2.7,10.47,10.35,11.84,11.2c0.92,0.58,3.32,4.15,3.32,4.15c0.64,0.68,0.4,2.02,0.23,3c-0.04,0.21-0.07,0.4-0.09,0.57
								c-0.03,0.19-0.07,0.36-0.11,0.51c-0.48-1.09-1.25-2.16-2.26-3.55c-1.12-1.52-2.45-2.65-2.45-2.65
								c2.83,3.34,3.88,6.04,4.23,7.52c-0.02,0.1-0.03,0.21-0.03,0.32c-0.01,0.41,0.05,0.85,0.11,1.28c0.05,0.35,0.09,0.67,0.1,0.96
								c0.02,1.02-0.16,1.75-0.29,1.87c-0.27,0.22-0.48,0.34-0.83,0.39c-0.73-2.2-1.66-3.89-3.34-6.51c-1.66-2.6-3-3.52-3-3.52
								c2.25,2.56,4.88,8.31,5.7,10.99c0.05,0.18,0.13,0.42,0.26,0.78c0.19,0.57-0.3,1.32-0.74,1.64c-0.18,0.13-0.62,0.17-1.01,0.15
								c-0.13-0.84-0.8-2.71-3.64-6.95c-1.81-2.7-3.9-4.36-3.9-4.36c5.38,6.84,6.43,10.47,6.62,11.45l-0.01,0.3
								c-0.01,0.48-0.03,1.75-0.84,2.14c-0.7,0.33-0.94,0.27-1.33,0.08c0.15-0.95-0.02-1.55-0.58-2.08
								c-0.09-0.09-0.25-0.23-0.46-0.41c-0.77-0.68-2.54-2.29-2.9-2.94c-2.59-4.71-6.02-6.5-6.02-6.5c2.14,1.74,4.88,6.21,5.23,6.9
								c0.38,0.75,1.8,2.05,3.1,3.2c0.2,0.18,0.35,0.31,0.44,0.39c0.32,0.3,0.44,0.6,0.3,1.39l-0.03,0.05
								c-0.96,1.65-3.57,2.66-5.6,2.14c-1.94-0.49-4.36-2.15-5.25-4.37c-1.01-2.52-2.64-3.22-3.51-3.6l-0.05-0.02
								c-3.94-1.22-6.1-5.76-6.67-9.87c-0.59-4.21-3.37-8.83-3.96-9.57v0c-0.07-0.1-3.28-4.5-4.87-6.17c0,0,2.09,3.38,3.3,5.33
								c-1.58-0.9-3.42-2.33-4.66-4.14c-1.45-2.12-1.51-3.35-1.09-5.14c0.34-1.5,1.28-8.15,1.88-11.15c0.15-0.52,0.29-1.1,0.44-1.7
								c5.39-4.59,5.42-12.19,5.45-18.93c0-0.86,0.01-1.71,0.02-2.53c0.17-9.05,0.24-17.22-0.52-25.54
								c-0.14-1.56-0.24-3.16-0.34-4.86c-0.3-5.11-0.67-10.14-2.25-15.04c-2.31-7.12-7.45-12.51-12.2-18.1
								c-1.73-2.03-2.94-4.77-4.16-7.13c-2.07-4.01-4.13-8.36-4.96-12.83c-0.13-0.72-0.26-1.58-0.39-2.55
								c3.97,2.6,8.86,1.18,12.73-1.47c4.85-3.33,7.61-9.38,8.14-14.99c0.18-1.93,0.21-3.8,0.12-5.62c0.93,0.48,2.03,0.55,3.02,0.28
								c-0.82,6.94-1.11,16.13,3.02,21.18c2.25,2.75,5.14,4.22,7.73,3.56c-0.26,2.01-0.42,3.34-0.45,3.81
								c-0.08,1.35,0.05,2.31,0.18,3.32c0.17,1.31,0.37,2.79,0.17,5.58c-0.34,4.8-7.23,18.42-7.23,18.42
								c0.09-0.15,1.07-1.79,2.33-4.08c0.08,13.95,0.16,27.9,0.24,41.85c0.06,10.57-0.88,22.96,5.58,32.03
								c0.16,2.97,0.43,5.82,0.57,6.26C246.06,531.74,246.45,532.93,246.54,534.57z M251.39,463.58c0.08,4.69-1.44,15.26-3.06,26.44
								c-1.56,10.82-3.17,21.94-3.38,28.35c-0.06,1.16-0.03,2.84,0.05,4.59c-6.65-9.9-4.84-23.71-4.9-35.06
								c-0.07-12.93-0.15-25.86-0.22-38.8c1.71-3.18,3.71-7.2,4.71-10.29C246.32,442.94,251.25,455.36,251.39,463.58z
								 M249.96,369.49c1.41,19.06-4.08,40.92-5.6,52.75c-0.01,0.06-0.01,0.11-0.02,0.17c-3.47,1.1-7.61-2.16-9-6.18
								c-2.05-5.95-1.35-16.69-0.59-20.89c2.04-11.18,7.44-23.34,9.13-32.21c1.81-9.44,1.93-16.6,1.15-24.87
								C247.09,348.16,249.31,360.67,249.96,369.49z M243.75,332.36c1.24,9.7,1.49,19.77-0.53,29.19
								c-1.94,9.02-7.68,22.53-9.35,34.05c-0.1,0.72-0.21,1.5-0.31,2.3c-1.02,0.35-2.23,0.24-3.14-0.41
								c-1.11-15.79-11.62-27.77-15.41-41.59c2.27-5.24,4.78-10.4,6.88-15.7c4-10.1,7.43-20.61,8.69-31.45
								c0.45-3.82,2.84-13.72-1.23-16.63c-0.8-0.57-2.26,0.05-2.73,0.77c-1.63,2.46-4.22,5.72-4.87,8.65
								c-2.1,9.43-2.97,18.93-6.09,28.18c-1.79,5.32-4.36,10.3-6.26,15.56c-1.87,5.17-2.96,10.64-3.75,16.07
								c-0.6,4.11-1,8.21-1.22,12.32c-1.07-5.67-2.41-11.37-3.56-16.27c-1.17-4.98-2.18-9.28-2.5-11.83
								c-0.63-4.92,0.07-9.95,0.38-11.83c6.52-0.89,8.9-6.45,11.01-11.4c0.74-1.73,1.43-3.36,2.28-4.82
								c2.98-5.16,5.34-9.88,7.43-14.05c2.48-4.96,4.51-8.99,6.72-12.12c0.04-0.02,0.07-0.03,0.11-0.06
								c3.12-2.07,6.01-4.54,8.9-6.96l0.08,0.29c0.01,0.04,0.42,1.3,0.97,3.31c-4.67,4.7-4.35,12.51-3.3,18.88
								c1.27,7.75,2.11,18.23,9.95,21.85C243.16,329.77,243.45,331.02,243.75,332.36z M236.44,288.65
								c1.41,5.25,3.54,14.6,3.07,21.87c-0.24,3.71,1.17,9.31,2.95,16.4c0.07,0.3,0.15,0.61,0.23,0.93
								c-6.91-3.68-8.09-14-9.13-21.21C232.69,300.58,232.17,293.22,236.44,288.65z M232.98,265.02c1.7,2.68,4.54,7.15,4.01,11.39
								c-0.61,4.92-1.15,6.16-1.45,6.77c-1.96,1.62-3.92,3.23-5.91,4.81c-2.26,1.79-4.28,3-6.45,0.37
								c-1.55-1.88-3.74-4.57-4.25-7.07c-1.87-9.12,6.49-14.45,13.31-17.45C232.44,264.16,232.68,264.54,232.98,265.02z
								 M234.52,226.59c-0.82,2.16-1.62,4.24-2.17,5.92c-0.62,0.77-1.3,1.5-2.01,2.18c0.48-2.61,0.6-5.3,0.53-7.74
								c0-0.03-0.01-0.05-0.02-0.08c1.79-0.75,3.4-1.84,4.78-3.23C235.27,224.62,234.89,225.61,234.52,226.59z M235.91,222.4
								c-1.75,2.06-4,3.54-6.55,4.34c0.99-2.39,1.66-4.75,1.95-7.26c1.81-0.7,3.49-1.69,5.02-2.97
								C236.33,218.77,236.14,220.99,235.91,222.4z M237.14,219.51c-0.01,0.02-0.17,0.57-0.46,1.38c0.62-5.62-0.16-11.52-2.63-16.4
								c2.27-1.79,4.28-3.86,5.77-5.61c0.12-0.14,0.22-0.28,0.34-0.41C239.54,204.77,238.37,215.82,237.14,219.51z M252.47,249.75
								c-0.38-10.38-2.19-19.94-5.24-24.79c-2.56-4.06-6.09-12.03-7.26-15.35c0-0.01,0-0.03-0.01-0.07
								c0.61-4.65,1.14-9.62,1.43-12.63c0.06-0.07,0.11-0.15,0.17-0.22c0.71,11.44,4.02,22.57,8.14,33.32
								c1.92,5.02,2.95,8.64,5.77,13.31c2.72,4.51,6.24,8.23,9.25,11.13c-1.4,2.37-2.42,4.28-3.29,6.78
								c-1.75-2.01-4.17-4.35-6.27-5.92C254.83,255,252.58,252.74,252.47,249.75z M261.26,290.13c-0.29-0.78-0.59-1.58-0.9-2.37
								c-2.91-7.69-5.91-15.64-6.1-20.13c-0.29-6.87,0.6-10.37,0.92-11.38c2.14,1.6,4.27,3.62,6.01,5.67
								c-0.28,0.86-0.55,1.8-0.82,2.85c-2.15,8.56-0.69,17.4,0.9,25.42C261.27,290.16,261.26,290.15,261.26,290.13z M263.08,295.11
								c-2.91-11.86-5.31-25.77,0.38-36.96c4.23-8.32,10.99-15.91,10.74-25.5c1.69,2.55,6.44,10.37,6.44,17.36v8.03
								c-1.06,10.78-6.7,19.9-10.3,29.93c-2.14,5.95-3.57,12-4.3,18.17c-0.04-0.32-0.06-0.64-0.12-0.98
								C265.17,300.84,264.06,297.66,263.08,295.11z M267.09,350.66c-0.5-1.46-0.76-3.34,0.3-4.96c1.59-2.42,3.87-6.59,5.14-8.96
								c0.03,1.14,0.09,2.45,0.16,3.63c-0.94,1.78-3.09,5.77-4.81,8.41C267.47,349.39,267.23,350.02,267.09,350.66z M269.31,356.18
								c-0.73-1.27-2.16-4.35-0.54-6.82c1.35-2.06,2.96-4.94,4.05-6.97c0.06,0.76,0.11,1.33,0.14,1.55
								c-0.26,0.93-1.93,6.86-2.25,10.64L269.31,356.18z M282.45,288.05c-0.89,7.31-3.86,15.6-3.51,25.41
								c0.54,15.38,0.22,29.26-0.25,31.47c-0.46,2.14-4.22,12.14-5.13,14.55c-0.66-0.37-1.84-1.36-1.84-3.74
								c0-3.62,2.27-11.53,2.3-11.61l0.03-0.11l-0.02-0.12c-0.01-0.07-1.05-7.03-0.36-9.94l0.03-0.14l-0.04-0.13
								c-0.54-1.87,0.3-6.25-2.27-7.21c-0.43-0.16-0.85-0.12-1.23,0.12c-1.56,1-1.86,3.22-2.18,5.56c-0.25,1.84-0.51,3.75-1.38,5.13
								c-1.3,2.05-2.24,2.51-2.7,2.51c-1.85-0.01-0.23-5.65-0.23-10.79c0-2,0.61-4.13,1.59-8.28c0.35-1.5,0.68-2.66,0.92-3.93
								c7.11-8.92,13.34-18.51,16.35-29.41C282.5,287.6,282.48,287.82,282.45,288.05z M283.66,275.99c-0.1,1.65-0.37,3.45-0.52,5.03
								c-1.92,13.16-8.65,24.19-16.77,34.5c0.17-1.51,0.2-3.34-0.01-6.07c0.8-9.7,3.35-18.94,7.35-27.99
								c3.13-7.09,6.31-14.11,7.38-21.79C281.99,261.43,284.22,266.78,283.66,275.99z"/>
							<path d="M192.42,255.45c-3.86,1.17-7.7,2.4-11.53,3.63c-4.79,1.54-5.78-2.17-5.82-5.04c-0.04-2.74,1.46-5.27,3.22-7.31
								c2.96-3.42,8.02-4.49,12.41-4.75C195.88,241.67,197.44,253.75,192.42,255.45 M195.07,243.37c-2.81-4.66-11.89-0.96-15.3,1.24
								c-3.8,2.45-7.03,8.64-4.72,12.93c1.07,1.99,2.37,2.64,4.68,2.46c1.67-0.13,3.38-0.99,4.94-1.52
								c2.61-0.88,5.29-1.61,7.93-2.41c1.47-0.5,3.33-1.22,3.47-2.98C196.26,250.57,196.44,245.64,195.07,243.37"/>
							<path d="M200.74,255.51c-5.02-1.69-3.45-13.78,1.72-13.47c4.39,0.26,9.45,1.33,12.41,4.75c1.76,2.04,3.26,4.57,3.22,7.31
								c-0.04,2.87-1.03,6.57-5.82,5.04C208.44,257.91,204.6,256.68,200.74,255.51 M198.1,243.43c-1.37,2.28-1.19,7.2-1,9.72
								c0.14,1.77,1.99,2.49,3.47,2.98c2.64,0.8,5.32,1.53,7.93,2.41c1.56,0.52,3.27,1.39,4.94,1.52c2.31,0.18,3.61-0.46,4.68-2.46
								c2.3-4.29-0.92-10.48-4.72-12.93C209.98,242.47,200.91,238.76,198.1,243.43"/>
						</g>
					</g>
					<path d="M193.88,288.97c-0.12,4.1-0.24,8.2-0.36,12.29c-0.2,6.62-7.84-0.14-9.52-2.06c-4.73-6.98-6-16.16-7.57-24.29
						c-1.29-6.69,0.89-12.12,7.74-14.19c4.81-1.46,9.98-1.59,10.36,4.68C194.99,273.17,194.11,281.2,193.88,288.97 M194.38,260.71
						c-4.38-4.95-15.18,0.34-17.72,4.52c-2.76,4.54-0.58,11.38,0.39,15.92c1.36,6.37,2.71,12.95,6.43,18.41l0.03,0.03l0.02,0.04
						c2.33,2.69,5.68,4.97,9.26,5.57c2.4,0.41,1.48-7.16,1.5-8.03c0.22-7.51,0.9-15.03,1.07-22.54
						C195.39,272.84,196.88,263.53,194.38,260.71z"/>
					<path d="M198.65,265.4c0.37-6.27,5.54-6.13,10.36-4.68c6.85,2.07,9.03,7.5,7.74,14.19c-1.57,8.13-2.84,17.31-7.57,24.29
						c-1.68,1.91-9.32,8.67-9.52,2.06c-0.12-4.1-0.24-8.2-0.37-12.29C199.06,281.2,198.18,273.17,198.65,265.4 M198.89,297.17
						c0.03,0.87-0.9,8.44,1.5,8.03c3.57-0.6,6.93-2.88,9.26-5.57l0.02-0.04l0.03-0.03c3.72-5.46,5.07-12.04,6.43-18.41
						c0.97-4.54,2.54-11.06,0.39-15.92c-1.85-4.18-12.78-9.43-17.58-4.46c-2.72,2.82-1.22,10.41-1.12,13.86"/>
				</g>
			</g>
		</g>
	</g>
</g>
</svg>
