<svg id="Layer_1" data-name="Layer 1" xmlns="http://www.w3.org/2000/svg" viewBox="0 0 175.91 507.41"><defs><style>.cls-1{fill:#fff;}.cls-2{fill:#e92a2a;}.cls-3{fill:#d52626;}.cls-4{fill:#9a1a1c;}.cls-5{fill:#8d1819;}.cls-6{fill:#a89fa8;}.cls-7{fill:#998f99;}.cls-8{fill:#e9e7e9;}</style></defs><g id="Front"><path class="cls-1" d="M280.56,259.31v-8.55c0-6.19-3.43-12.78-5.56-16.28,2.11-7.07,2.14-24,1-31.83-.7-4.77-4-8.66-5.67-11.15,0-.2.07-.39.1-.58.9-5.77-3-19.92-5.37-25.88-1.56-4-4.81-5.47-7.43-6.67a10,10,0,0,1-3.33-2,9.78,9.78,0,0,0-5.07-3.12c-.41-.13-.8-.26-1.18-.41a6.91,6.91,0,0,1-1.92-1.44,41.31,41.31,0,0,0-7.79-5.64c-2.41-1.39-5.79-3-9.38-4.73-5.88-2.82-12.74-6.06-14.37-8.08-1.49-1.84-1.65-7.67-1.67-9.58a18.88,18.88,0,0,0,.76-6.3,1.9,1.9,0,0,0,1.09.16c1.46-.18,2.84-2.46,4.48-5.42.46-.83.89-1.61,1.23-2.09,1.42-2,1.11-6.42.07-9.71-.31-1-.82-1.52-1.53-1.65a3.78,3.78,0,0,0-2.82,1.27c.15-4.1.09-15.64-4.64-21.32-4.08-4.89-12.23-6.11-15.33-6.4H195c-3.1.29-11.25,1.51-15.33,6.4C175,84,174.9,95.51,175,99.61a3.78,3.78,0,0,0-2.81-1.27c-.72.13-1.23.69-1.54,1.65-1,3.29-1.34,7.68.08,9.71.33.48.76,1.26,1.22,2.09,1.65,3,3,5.24,4.48,5.42a1.9,1.9,0,0,0,1.09-.16c0,1.82.07,5.1,1,6.82h0c0,1.35-.32,7.15-1.9,9.1s-8.29,5.2-14.17,8c-3.59,1.72-7,3.34-9.38,4.74a40.26,40.26,0,0,0-7.79,5.63,6.91,6.91,0,0,1-1.92,1.44c-.38.16-.77.28-1.18.41a9.78,9.78,0,0,0-5.07,3.12,9.9,9.9,0,0,1-3.33,2c-2.62,1.21-5.87,2.71-7.43,6.67-2.36,6-6.27,20.11-5.37,25.88.07.41.13.82.21,1.22-1.66,2.47-4.65,6.07-5.33,10.72-1.14,7.81-1.27,24.08.8,31.2-2.1,3.38-5.82,10.26-5.82,16.7v8.55c-.59,1-3.68,6.55-3,17.44.25,4.18.72,8,1.21,12.1.88,7.26,3.85,15.48,3.5,25.2-.52,14.81-.31,28.94.28,31.67.53,2.5,5.16,14.67,5.35,15.19l.18.45.46-.13a4.65,4.65,0,0,0,3-4.45l1.48,1.68.39-.54a11.09,11.09,0,0,0,1.76-4.26c.82-1.39,2.53-5,.54-8-2.26-3.45-6-10.57-6-10.64h0a4,4,0,0,0-.06-.59c.56-4.23,0-5.77,1.58-6.37a.3.3,0,0,1,.28,0c1.14.74,1.41,2.71,1.69,4.8a13.67,13.67,0,0,0,1.53,5.54c1.16,1.84,3,4.22,5.06,2.48,1.38-1.15.17-9-.17-11.35a55.3,55.3,0,0,0-1.57-8.35c-.73-2.95-1.17-4.47-1.36-5.83a74.71,74.71,0,0,1,.61-9.21c.49-3.91,2.92-10.33,5.48-17.11,2.93-7.76,6-15.77,6.15-20.43.31-7.2-.64-10.78-1-11.82a12.85,12.85,0,0,0,2.77-5.9,64.32,64.32,0,0,0,.35-9.41c0-.1,1.8-10.27,4.73-14.92a105.23,105.23,0,0,0,6.9-14.09,59.24,59.24,0,0,0,1.65,8.51c.72,2.17,1.64,4.59,2.54,6.92A64.12,64.12,0,0,1,160,236c.44,2.33.13,19.45,0,25.08,0,1.2,0,2,0,2.19v0a.89.89,0,0,0-.22.49c-.23.41-.58,1-.91,1.49-1.77,2.79-4.74,7.46-4.17,12.07.64,5.14,1.42,7.29,1.7,7.93-.58,1.85-4.88,15.91-4.22,26.05.23,3.53-1.16,9.05-2.92,16-2.26,9-6.55,29.74-7.51,42.68-1.41,19.13,4.08,41,5.6,52.85.32,2.54.53,4.21.56,4.72a14.47,14.47,0,0,1-.17,3.11,24.68,24.68,0,0,0-.18,5.79,9.32,9.32,0,0,0,.13.95c-.73,1.66-7.25,16.62-7.42,26.38-.09,4.77,1.44,15.36,3.06,26.56,1.46,10.15,2.86,20.63,3.3,27.11v.17c0,.54.07,1.06.09,1.54a95.46,95.46,0,0,1-.49,11.06,15.08,15.08,0,0,0-1,5.43l-.42.39c-1.92,1.64-2.7,3.84-3.45,6-.24.7-.48,1.36-.74,2-1,2.42-10.21,10-11.47,10.78-1,.62-3.49,4.28-3.49,4.28-.94,1-.65,2.66-.46,3.75,0,.19.07.37.09.53a4.34,4.34,0,0,0,.4,1.31,2,2,0,0,1,.22.74,8,8,0,0,1-.11,1.14c0,.35-.09.72-.1,1.06,0,.61,0,2.08.61,2.56a2.3,2.3,0,0,0,1.13.57l-.2.59a2.38,2.38,0,0,0,2.63,3,.84.84,0,0,0,0,.19,2.67,2.67,0,0,0,1.32,2.3,2.08,2.08,0,0,0,2.09.07,6.38,6.38,0,0,0,5.54,2.34,5.35,5.35,0,0,0,.8-.14,9.07,9.07,0,0,0,5.84-4.89,5.19,5.19,0,0,1,3-3.1c4.29-1.35,6.63-6.12,7.26-10.56a24.7,24.7,0,0,1,3.71-9.05,13.26,13.26,0,0,0,6.3-5.1,6.41,6.41,0,0,0,1.23-5.82c-.43-1.87-1.6-10.64-2-12a38,38,0,0,1-.8-3.9c-.87-4.62,4.88-28.49,6.56-33.14.65-1.78,1.57-3.73,2.65-6a99.6,99.6,0,0,0,5.9-14.58c2.74-9.1-1.59-29.23-2.12-31.61a76.54,76.54,0,0,0,4.23-8.63,35.84,35.84,0,0,0,2.37-7.33c.69-3.73,1.28-10.77,2-18.93.61-7.21,1.3-15.38,2.14-21.9,1-8.05,3.16-17.14,4.87-24.44,1.18-5,2.19-9.32,2.52-11.92a43.41,43.41,0,0,0-.34-11.83,11.39,11.39,0,0,0,1.76,0,43.49,43.49,0,0,0-.34,11.84c.33,2.6,1.34,6.92,2.51,11.92,1.72,7.3,3.85,16.39,4.88,24.44.84,6.52,1.53,14.69,2.13,21.9.69,8.16,1.28,15.2,2,18.93a36.44,36.44,0,0,0,2.36,7.33,76.62,76.62,0,0,0,4.24,8.63c-.53,2.38-4.86,22.51-2.12,31.61a98.49,98.49,0,0,0,5.9,14.58c1.07,2.25,2,4.2,2.65,6,1.68,4.65,7.42,28.52,6.55,33.14-.28,1.49-.44,2.71-.79,3.9-.41,1.36-1.57,10.13-2,12a6.4,6.4,0,0,0,1.22,5.82,13.29,13.29,0,0,0,6.31,5.1,24.7,24.7,0,0,1,3.71,9.05c.62,4.44,3,9.21,7.25,10.56a5.14,5.14,0,0,1,3,3.1,9.11,9.11,0,0,0,5.85,4.89,5.22,5.22,0,0,0,.79.14,6.39,6.39,0,0,0,5.55-2.34,2.08,2.08,0,0,0,2.09-.07,2.79,2.79,0,0,0,1.33-2.49,2.64,2.64,0,0,0,1.59-.33,2.55,2.55,0,0,0,1-2.63l-.18-.56h0v0a2.3,2.3,0,0,0,1.13-.57c.59-.48.62-2,.61-2.56a9.77,9.77,0,0,0-.11-1.06,9.6,9.6,0,0,1-.1-1.14,2,2,0,0,1,.22-.74,4.64,4.64,0,0,0,.4-1.31c0-.16.05-.34.09-.53.19-1.09.47-2.74-.46-3.75,0,0-2.5-3.66-3.49-4.28-1.26-.79-10.43-8.36-11.47-10.78-.27-.63-.5-1.29-.75-2-.75-2.14-1.52-4.34-3.44-6-.14-.12-.29-.25-.43-.39a14.86,14.86,0,0,0-1-5.43,96,96,0,0,1-.48-11.06c0-.48.05-1,.09-1.54,0-.06,0-.12,0-.17h0c.44-6.48,1.84-17,3.3-27.11,1.62-11.2,3.14-21.79,3.06-26.56-.17-9.7-6.6-24.52-7.41-26.34a7.51,7.51,0,0,0,.17-1.14,24.13,24.13,0,0,0-.18-5.79,15.15,15.15,0,0,1-.17-3.11c0-.51.24-2.18.57-4.71,1.51-11.83,7-33.73,5.59-52.86-.95-12.93-5.24-33.67-7.51-42.67-1.76-7-3.15-12.5-2.92-16,.66-10.14-3.63-24.19-4.22-26,.28-.64,1.06-2.79,1.7-7.93.57-4.6-2.39-9.27-4.16-12.06a11.6,11.6,0,0,1-1.14-2c0-.2,0-1,0-2.2-.1-5.63-.41-22.75,0-25.08a66.22,66.22,0,0,1,2.78-8.12c.89-2.33,1.81-4.75,2.54-6.92a58.63,58.63,0,0,0,1.57-8.19h0a148.06,148.06,0,0,0,6.68,13.69c3.63,6.43,4.88,16.93,5.08,24.33.08,3,2.15,5.17,2.76,5.9-.34,1-1.29,4.61-1,11.82.19,4.65,3.22,12.67,6.15,20.42,2.57,6.79,5,13.21,5.48,17.12.35,2.83.7,4.66.72,6.05a33.74,33.74,0,0,1-.12,4,47.5,47.5,0,0,1-1.27,5.21,56.62,56.62,0,0,0-1.56,8.36c-.34,2.33-1.55,10.2-.17,11.35,2.1,1.74,3.89-.64,5.06-2.48a13.83,13.83,0,0,0,1.53-5.55c.28-2.08.55-4.05,1.69-4.79a.27.27,0,0,1,.28,0c1.58.59,1,2.13,1.57,6.37,0,.14,0,.35-.06.59h0c0,.07-3.76,7.19-6,10.64-2,3-.28,6.6.54,8a11.09,11.09,0,0,0,1.76,4.26l.39.54,1.48-1.68a4.66,4.66,0,0,0,3,4.45l.46.13.17-.45c.2-.52,4.83-12.69,5.36-15.19.59-2.73.8-16.86.28-31.67-.35-9.72,2.61-17.94,3.5-25.2.49-4.07,1-7.92,1.21-12.1C284.24,265.86,281.15,260.28,280.56,259.31Z" transform="translate(-107.77 -71.89)"/></g><g id="Deltoids_front" data-name="Deltoids front"><path class="cls-2" d="M156.5,167.58a17.33,17.33,0,0,1-3.47,6,28.1,28.1,0,0,0-3,3.19l-.32.42a23,23,0,0,0-4.58,10.21v0a31.89,31.89,0,0,1-7.7,10.27,29.61,29.61,0,0,1-6.46,4.2c-3.27,1.64-4.56,1.48-6.55-1A61.78,61.78,0,0,1,122,191c-.88-5.58,2.9-19.93,5.22-25.8,1.41-3.57,4.31-4.91,6.88-6.1a18.65,18.65,0,0,0,2.45-1.25c2,3.93,8.5,3,12,2.74,4.75-.29,9.74.92,8,7" transform="translate(-107.77 -71.89)"/><path class="cls-3" d="M138.75,189.16a64.14,64.14,0,0,1,17.44-26.3,4.19,4.19,0,0,1,.32.59,63.66,63.66,0,0,0-16.74,24.82l-1,.89" transform="translate(-107.77 -71.89)"/><path class="cls-3" d="M131.19,201.82h0l.66-.34h0l-.66.34m1.06-.55h0l.34-.18h0l-.34.19m-.78-6.53c.86-11,4.13-27,15.4-34,.56-.05,1.07-.11,1.54-.14-11.86,6.37-15.32,22.51-16.25,33.76-.23.13-.46.26-.69.37" transform="translate(-107.77 -71.89)"/><path class="cls-3" d="M133.33,200.66h0l.68-.41h0l-.68.4m.93-7.74c2.19-12.09,8.08-25.08,19.35-31.84a6.67,6.67,0,0,1,.78.31c-11.14,6.43-17.06,19-19.35,30.9l-.78.63" transform="translate(-107.77 -71.89)"/><path class="cls-3" d="M129.52,202.59h0l.78-.33h0l-.78.33m.7-7.33c-.1-2-.37-4.09-.63-6.11-.48-3.74-1-7.61-.44-11.36a45.63,45.63,0,0,1,7.47-19.35l0,0a4.17,4.17,0,0,0,.38.61c-5.11,7.64-7.72,15.94-7.55,24a58.17,58.17,0,0,0,.69,6.86c.24,1.71.48,3.43.61,5.16l-.57.21" transform="translate(-107.77 -71.89)"/><path class="cls-3" d="M127.74,203h0a4.78,4.78,0,0,0,1.21-.22h0a4.38,4.38,0,0,1-1.21.22m.25-7.36-.57,0c-.22-1.36-.45-2.71-.69-4.06-1.22-7.06-2.48-14.29-1.1-21.05.59-1.88,1.16-3.54,1.67-4.83a8.74,8.74,0,0,1,2.56-3.57c-6.09,8.85-4.26,19.27-2.49,29.35.24,1.38.48,2.78.71,4.19H128m-3.46-1a7.53,7.53,0,0,1-.92-.68,36.21,36.21,0,0,1-1.47-8.46c.13-1.08.32-2.22.54-3.4l.07.2a36.67,36.67,0,0,0,1.78,12.34" transform="translate(-107.77 -71.89)"/><path class="cls-4" d="M127.63,203a2.73,2.73,0,0,1-1.13-.24,5.9,5.9,0,0,1-2.08-1.83c0-.17-.18-.55-.36-1.1a65.62,65.62,0,0,1-1.85-7.58,6.29,6.29,0,0,0,1.4,1.7,36.34,36.34,0,0,0,4.13,9h-.11m1.32-.22c-.16-2.34-.48-4.75-.87-7.14l.41,0a7.73,7.73,0,0,0,1.73-.37,22.28,22.28,0,0,1-.7,7.33l-.57.2m-.69-.23a36.63,36.63,0,0,1-3.73-7.92,6.85,6.85,0,0,0,2.89,1c.37,2.33.68,4.67.84,6.94m2-.3a22.48,22.48,0,0,0,.49-7.21c.23-.09.46-.2.68-.31-.21,2.73-.28,5.16-.28,7.08h0l-.2.1-.14.07-.54.26m1.55-.78c0-1.94.09-4.38.31-7.11a20.09,20.09,0,0,0,2.1-1.45,63.64,63.64,0,0,0-.93,7.74l-.73.42,0-.09-.37.27-.41.22m2.16-1.23a63.86,63.86,0,0,1,1-8l.2-.16q1.77-1.47,3.51-3a60.46,60.46,0,0,0-2.51,9.57l-.54.4c-.55.4-1.11.77-1.69,1.12m3-2.15a59.86,59.86,0,0,1,2.75-9.83q3.72-3.26,7.26-6.7a23.28,23.28,0,0,0-1.24,3.16,21.71,21.71,0,0,0-.6,2.47c0,.14,0,.17-.05.25l-.14.3a31,31,0,0,1-2.44,4.19h0a32.17,32.17,0,0,1-2.57,3.25,35.83,35.83,0,0,1-2.55,2.53l-.41.36" transform="translate(-107.77 -71.89)"/><path class="cls-5" d="M136.24,198.73a60.46,60.46,0,0,1,2.51-9.57l1-.89A59.86,59.86,0,0,0,137,198.1l-.78.63" transform="translate(-107.77 -71.89)"/><path class="cls-5" d="M131.19,201.82c0-1.92.07-4.35.28-7.08.23-.11.46-.24.69-.37-.22,2.73-.3,5.17-.31,7.11l-.66.34m1.07-.56.37-.27,0,.09-.34.18" transform="translate(-107.77 -71.89)"/><path class="cls-5" d="M133.33,200.66a63.64,63.64,0,0,1,.93-7.74l.78-.63a63.86,63.86,0,0,0-1,8l-.68.41" transform="translate(-107.77 -71.89)"/><path class="cls-5" d="M129.52,202.59a22.28,22.28,0,0,0,.7-7.33l.57-.21a22.48,22.48,0,0,1-.49,7.21l-.78.33" transform="translate(-107.77 -71.89)"/><path class="cls-5" d="M127.74,203a36.34,36.34,0,0,1-4.13-9,7.53,7.53,0,0,0,.92.68,36.63,36.63,0,0,0,3.73,7.92c-.16-2.27-.47-4.61-.84-6.94l.57,0h.09c.39,2.39.71,4.8.87,7.14a4.78,4.78,0,0,1-1.21.22" transform="translate(-107.77 -71.89)"/><path class="cls-2" d="M234.41,166.7c-1.23-6.19,3.73-6.76,8.48-6.47,3.49.22,9.79,1.44,11.77-2.49a20.89,20.89,0,0,0,2.59,1.41c2.57,1.19,5.57,2.95,7,6.51,2.31,5.87,6.14,19.86,5.27,25.44a60.75,60.75,0,0,1-2.45,9.9c-2,2.48-3.49,2.58-6.77.94a29.55,29.55,0,0,1-6.45-4.2,31.61,31.61,0,0,1-7.7-10.27l0,0a23,23,0,0,0-4.58-10.21,39.26,39.26,0,0,0-3.18-3.9C236.82,171.51,235.07,170.06,234.41,166.7Z" transform="translate(-107.77 -71.89)"/><path class="cls-3" d="M259.71,194.76c-.24-.12-.46-.25-.69-.38-.93-11.26-4.91-27.73-16.79-34.09.47,0,1,.07,1.59.13,11.29,7,15,23.29,15.89,34.34" transform="translate(-107.77 -71.89)"/><path class="cls-3" d="M256.92,192.91l-.79-.64c-2.29-11.85-8.52-24.62-19.63-31.06.24-.11.5-.22.76-.31,11.25,6.76,17.46,19.93,19.66,32" transform="translate(-107.77 -71.89)"/><path class="cls-3" d="M263.29,195.71h-.2c.23-1.42.48-2.85.72-4.25,1.78-10.12,3.61-20.58-2.56-29.46a8.9,8.9,0,0,1,2.68,3.68c.46,1.16,1,2.64,1.51,4.3,1.55,6.91.26,14.33-1,21.58q-.36,2.06-.69,4.14h-.46m3.3-.92a36.5,36.5,0,0,0,1.83-12.49l.09-.23h0c.21,1.08.38,2.14.52,3.15a37,37,0,0,1-1.55,8.94,6.57,6.57,0,0,1-.92.64" transform="translate(-107.77 -71.89)"/><path class="cls-3" d="M261,195.3l-.57-.22c.12-1.74.37-3.48.61-5.19a60.37,60.37,0,0,0,.69-6.86c.17-8.06-2.55-16.52-7.64-24.15a4.74,4.74,0,0,0,.39-.6A46.32,46.32,0,0,1,262,177.79c.55,3.75.05,7.62-.44,11.36-.26,2-.53,4.09-.62,6.15" transform="translate(-107.77 -71.89)"/><path class="cls-3" d="M252.42,189.14l-1-.89a64.41,64.41,0,0,0-16.83-24.88,3.8,3.8,0,0,1,.32-.6,64.94,64.94,0,0,1,17.53,26.37" transform="translate(-107.77 -71.89)"/><path class="cls-4" d="M263.59,203h-.15a36.54,36.54,0,0,0,4.07-8.86,7.37,7.37,0,0,0,1.69-1.7A62.26,62.26,0,0,1,267,201a4.5,4.5,0,0,1-3.42,2m-1.36-.24-.58-.21a22.15,22.15,0,0,1-.69-7.26,7.38,7.38,0,0,0,1.82.39l.31,0c-.38,2.37-.71,4.75-.86,7.06m.69-.21c.16-2.25.46-4.56.83-6.86a6.64,6.64,0,0,0,2.84-.91,36.72,36.72,0,0,1-3.67,7.77m-2.05-.34-.59-.28-.29-.15c0-1.92-.07-4.33-.28-7,.22.12.45.22.68.32a22.32,22.32,0,0,0,.48,7.14m-1.54-.78-.59-.31-.19-.14,0,0-.73-.41a62.87,62.87,0,0,0-.92-7.71,21.93,21.93,0,0,0,2.1,1.47c.22,2.71.3,5.13.31,7.06m-2.17-1.23c-.77-.48-1.52-1-2.24-1.55a59.84,59.84,0,0,0-2.5-9.52q1.79,1.55,3.62,3.06l.09.07a61.74,61.74,0,0,1,1,7.94m-3-2.19-.31-.28a31.67,31.67,0,0,1-7.66-10.18v-.13l0-.07c-.12-.65-.26-1.29-.44-1.91a22.3,22.3,0,0,0-1.4-3.79q3.48,3.38,7.13,6.59a60.15,60.15,0,0,1,2.74,9.77" transform="translate(-107.77 -71.89)"/><path class="cls-5" d="M260,201.79l-.66-.35c0-1.93-.09-4.35-.31-7.06.23.13.45.26.69.38.21,2.7.27,5.11.28,7" transform="translate(-107.77 -71.89)"/><path class="cls-5" d="M257.84,200.62l-.68-.41a61.74,61.74,0,0,0-1-7.94l.79.64a62.87,62.87,0,0,1,.92,7.71" transform="translate(-107.77 -71.89)"/><path class="cls-5" d="M263.44,203a4.88,4.88,0,0,1-1.21-.24c.15-2.31.48-4.69.86-7.06h.66c-.37,2.3-.67,4.61-.83,6.86a36.72,36.72,0,0,0,3.67-7.77,6.57,6.57,0,0,0,.92-.64,36.54,36.54,0,0,1-4.07,8.86" transform="translate(-107.77 -71.89)"/><path class="cls-5" d="M261.65,202.56c-.25-.1-.51-.21-.78-.34a22.32,22.32,0,0,1-.48-7.14l.57.22a22.15,22.15,0,0,0,.69,7.26" transform="translate(-107.77 -71.89)"/><path class="cls-5" d="M254.92,198.66l-.78-.64a60.15,60.15,0,0,0-2.74-9.77l1,.89a59.84,59.84,0,0,1,2.5,9.52" transform="translate(-107.77 -71.89)"/></g><g id="Front-2" data-name="Front"><path class="cls-6" d="M195.61,140.11a9.74,9.74,0,0,1-2.58-.56c-.18-1.53-.36-3.1-.55-4.7.44.1.9.18,1.36.24s.71.08,1,.11h1.43c.33,0,.68-.06,1-.11s.9-.13,1.32-.23q-.28,2.41-.54,4.71a9.86,9.86,0,0,1-2.52.54m3.21-.81c.17-1.54.35-3.08.53-4.62l.23-.08A15.13,15.13,0,0,0,202.2,133a37.45,37.45,0,0,1-.7,4.73,14.88,14.88,0,0,1-2.68,1.54m-6.49,0a15.34,15.34,0,0,1-2.68-1.56A37.28,37.28,0,0,1,189,133a15.29,15.29,0,0,0,2.68,1.61l.16.06c.19,1.54.36,3.08.53,4.61m10-2.11a37.38,37.38,0,0,0,.58-4.62c1.49-1.07,3.24-2.42,4.84-3.76-.5,1.69-1,3.25-1.48,4.71-.49.54-1,1.07-1.54,1.58a30.46,30.46,0,0,1-2.4,2.09m-13.47,0a30.8,30.8,0,0,1-2.34-2c-.53-.51-1.05-1-1.54-1.58-.49-1.46-1-3-1.48-4.71,1.59,1.32,3.31,2.66,4.79,3.72a37.21,37.21,0,0,0,.57,4.61" transform="translate(-107.77 -71.89)"/><path class="cls-7" d="M189.65,137.71c-.28-.19-.54-.39-.81-.6a37.21,37.21,0,0,1-.57-4.61l.69.49a37.28,37.28,0,0,0,.69,4.72" transform="translate(-107.77 -71.89)"/><path class="cls-7" d="M193,139.55l-.35-.13-.35-.15c-.17-1.53-.34-3.07-.53-4.61l.68.19c.19,1.6.37,3.17.55,4.7" transform="translate(-107.77 -71.89)"/><path class="cls-7" d="M201.5,137.76a37.45,37.45,0,0,0,.7-4.73l.69-.49a37.38,37.38,0,0,1-.58,4.62c-.27.21-.53.41-.81.6" transform="translate(-107.77 -71.89)"/><path class="cls-7" d="M198.13,139.57q.26-2.3.54-4.71a6.11,6.11,0,0,0,.68-.18c-.18,1.54-.36,3.08-.53,4.62l-.29.12-.4.15" transform="translate(-107.77 -71.89)"/><path class="cls-8" d="M193.88,170.39c-.11-.21-.23-.41-.35-.61l-.18-.26a68.3,68.3,0,0,0-1.8-21.6l-.78-2.86c-.71-2.59-1.43-5.24-1.93-7.95.27.21.53.41.81.6.43,2.12,1,4.19,1.55,6.23.69,2.54,1.4,5.17,1.85,7.83A75.44,75.44,0,0,1,194,170.2a.3.3,0,0,1-.08.19" transform="translate(-107.77 -71.89)"/><path class="cls-8" d="M195,174.67a14.4,14.4,0,0,0-.39-2.32c.51-5.34,0-10.78-.55-16.06-.09-.87-.17-1.74-.25-2.61-.44-4.72-.94-9.55-1.49-14.41l.35.15.35.13c.65,5.8,1.19,11.12,1.62,16.14.06.69.13,1.38.19,2.08.51,5.54,1,11.26.17,16.9" transform="translate(-107.77 -71.89)"/><path class="cls-8" d="M197.92,169.65a69,69,0,0,1,1.69-21.73l.78-2.86c.7-2.58,1.42-5.21,1.92-7.9-.27.21-.53.41-.81.6-.43,2.1-1,4.16-1.54,6.18-.69,2.54-1.4,5.16-1.85,7.83a80.15,80.15,0,0,0-.77,19Z" transform="translate(-107.77 -71.89)"/><path class="cls-8" d="M196.3,174.32c-.9-5.71-.49-10.94,0-16.56l.18-2.07c.45-5,1-10.34,1.63-16.12l.4-.15.29-.12c-.54,4.85-1,9.67-1.48,14.38-.08.87-.16,1.73-.25,2.6a86.51,86.51,0,0,0-.45,16.49c-.18.76,0,.61-.08,1.43Z" transform="translate(-107.77 -71.89)"/><path class="cls-6" d="M226.84,446.41a8.54,8.54,0,0,0,1.34-.1,9.58,9.58,0,0,0,5.44-3.27h-.23c-3,0-13.42-8.44-15.74-11,0,0,13.51,10,15.7,10h.09c1.83-.29,7.08-8.89,7.19-9.08h0l-.24.38a9.47,9.47,0,0,1-6.8,3.2h-.41a6.87,6.87,0,0,1-6.29-4.81,7.77,7.77,0,0,1,1.22-6,24,24,0,0,1,4.26-4.63,23.08,23.08,0,0,0-6.5,3c-1.26.87-5.24,2.73-8.16,2.73a3.36,3.36,0,0,1-2.64-.94,15.5,15.5,0,0,1-1.68-2.14c-.27-.43-.53-.87-.79-1.3a9.81,9.81,0,0,1-1.2-.14,8.51,8.51,0,0,1-3-1.17c.13.95.26,1.79.39,2.5.82,4.47,2.87,8.8,4.94,12.81.34.65.67,1.32,1,2a25.83,25.83,0,0,0,3.2,5.14l.1.11,2.3,1a16.14,16.14,0,0,0,6.48,1.77" transform="translate(-107.77 -71.89)"/><path class="cls-6" d="M164.6,446.41a8.64,8.64,0,0,1-1.34-.1,9.58,9.58,0,0,1-5.44-3.27h.23c3,0,13.42-8.44,15.74-11,0,0-13.51,10-15.7,10H158c-1.83-.29-7.08-8.89-7.19-9.08h0l.24.38a9.47,9.47,0,0,0,6.8,3.2h.41a6.89,6.89,0,0,0,6.3-4.81,7.82,7.82,0,0,0-1.23-6,23.63,23.63,0,0,0-4.26-4.63,23.08,23.08,0,0,1,6.5,3c1.26.87,5.24,2.73,8.16,2.73a3.4,3.4,0,0,0,2.65-.94,16.22,16.22,0,0,0,1.67-2.14c.27-.43.53-.87.79-1.3a9.81,9.81,0,0,0,1.2-.14,8.44,8.44,0,0,0,3-1.17c-.13.95-.26,1.79-.39,2.5-.82,4.47-2.87,8.8-4.94,12.81-.34.65-.67,1.32-1,2a25.83,25.83,0,0,1-3.2,5.14l-.1.11-2.3,1a16.14,16.14,0,0,1-6.48,1.77" transform="translate(-107.77 -71.89)"/><path d="M189.35,239.79a54.83,54.83,0,0,0-9.47,2.74c-8.44,2.91-5.44-8-3.13-11.69,2.68-4.3,8.1-6.78,13-7.68,5.84-1.08,4.51,5.83,4.42,8.44-.12,3.53.19,7.55-4.82,8.19m5.47-8.13a55.53,55.53,0,0,0,0-5.77c-.52-6.73-10.94-1.76-13.71-.09a16,16,0,0,0-7.46,15.54c.15,1.23,1.13,2.86,2.64,2.69,4.53-.51,8.61-2.92,13.14-3.62,2.37-.3,3.82-.73,4.9-2.83.8-1.55.39-4.25.45-5.92" transform="translate(-107.77 -71.89)"/><path d="M201.69,239.8c-5.07-.66-4.77-4.68-4.9-8.2-.1-2.61-1.46-9.53,4.46-8.43,5,.91,10.46,3.39,13.18,7.71,2.36,3.73,5.41,14.6-3.14,11.68a56,56,0,0,0-9.6-2.76m-5.55-8.15c.06,1.67-.34,4.37.47,5.93,1.1,2.1,2.57,2.53,5,2.84,4.59.71,8.74,3.12,13.33,3.64,1.53.17,2.51-1.45,2.66-2.68A16,16,0,0,0,210,225.83c-2.81-1.68-13.38-6.67-13.88.06a50.34,50.34,0,0,0,0,5.76" transform="translate(-107.77 -71.89)"/><path d="M187.72,220.23c-2.79,1.66-12.71,8.13-13.44,1.48-.64-5.75,1.06-9.82,6.37-12.42,3.23-1.59,8.39-4.62,12-4,2.46,1.43,1.47,6.17,1.07,8.32-.62,3.29-3.29,5-6,6.63M193,204.7a4.86,4.86,0,0,0-2.51-.08,14.54,14.54,0,0,0-3.79,1.25l-.95.44c-2.77,1.29-6.17,2.21-8.57,4.18a9.86,9.86,0,0,0-3.72,7.36c-.16,1.59-.5,6.77,1,8,1.78,1.5,3.91-.22,5.69-1.06,3.67-1.74,8.54-3.46,11.47-6.36a13.54,13.54,0,0,0,3.52-9.4c0-1.45-.54-3.38-1.84-4.21l-.3-.16" transform="translate(-107.77 -71.89)"/><path d="M202.94,220.26c-2.67-1.59-5.34-3.34-6-6.63-.4-2.15-1.39-6.89,1.07-8.33,3.57-.6,8.73,2.43,12,4,5.31,2.6,7,6.67,6.37,12.42-.73,6.66-10.65.18-13.44-1.47m-5.3-15.53-.3.15c-1.3.83-1.8,2.77-1.84,4.21a13.5,13.5,0,0,0,3.52,9.4c2.93,2.91,7.8,4.62,11.47,6.36,1.78.85,3.91,2.57,5.69,1.07,1.5-1.27,1.16-6.45,1-8a9.84,9.84,0,0,0-3.72-7.36c-2.4-2-5.8-2.89-8.57-4.18l-.95-.44a14.56,14.56,0,0,0-3.79-1.26,5,5,0,0,0-2.51.09" transform="translate(-107.77 -71.89)"/><path d="M158,443.05h-.24c-2.65-.47-7.53-8.93-7.53-10.12h.54c.11.19,5.35,8.79,7.19,9.08H158c2.2,0,15.7-10,15.7-10-2.32,2.59-12.69,11-15.74,11" transform="translate(-107.77 -71.89)"/><path d="M233.31,443.05h.24c2.65-.47,7.53-8.93,7.53-10.12h-.53c-.11.19-5.36,8.79-7.19,9.08h-.09c-2.2,0-15.7-10-15.7-10,2.32,2.59,12.69,11,15.74,11" transform="translate(-107.77 -71.89)"/><path d="M280.56,259.31v-8.55c0-6.19-3.43-12.78-5.56-16.29,2.11-7.06,2.14-24,1-31.82-.7-4.77-4-8.66-5.67-11.15,0-.2.07-.39.1-.58.9-5.77-3-19.92-5.37-25.89-1.56-4-4.81-5.46-7.43-6.66a10,10,0,0,1-3.33-2,9.78,9.78,0,0,0-5.07-3.12c-.41-.13-.8-.26-1.18-.41a7.34,7.34,0,0,1-1.92-1.44,41.31,41.31,0,0,0-7.79-5.64c-2.41-1.39-5.79-3-9.38-4.73-5.88-2.82-12.74-6.06-14.37-8.08-1.49-1.84-1.65-7.67-1.67-9.58a18.88,18.88,0,0,0,.76-6.3,1.9,1.9,0,0,0,1.09.16c1.46-.18,2.84-2.46,4.48-5.42.46-.83.89-1.62,1.23-2.09,1.42-2,1.11-6.42.07-9.71-.31-1-.82-1.52-1.53-1.65a3.71,3.71,0,0,0-2.82,1.27c.15-4.1.09-15.64-4.64-21.32-4.08-4.89-12.23-6.11-15.33-6.4H195c-3.1.29-11.25,1.51-15.33,6.4C175,84,174.9,95.51,175,99.61a3.71,3.71,0,0,0-2.81-1.27c-.72.13-1.23.69-1.54,1.65-1,3.29-1.34,7.68.08,9.71.33.47.76,1.26,1.22,2.09,1.65,3,3,5.24,4.48,5.42a1.9,1.9,0,0,0,1.09-.16c0,1.82.07,5.09,1,6.82h0c0,1.35-.32,7.15-1.9,9.09s-8.29,5.21-14.17,8c-3.59,1.72-7,3.34-9.38,4.73a40.61,40.61,0,0,0-7.79,5.64,6.91,6.91,0,0,1-1.92,1.44c-.38.15-.77.28-1.18.41a9.78,9.78,0,0,0-5.07,3.12,9.9,9.9,0,0,1-3.33,2c-2.62,1.2-5.87,2.71-7.43,6.67-2.36,6-6.27,20.11-5.37,25.88.07.41.13.82.21,1.22-1.66,2.47-4.65,6.07-5.33,10.72-1.14,7.8-1.27,24.07.8,31.2-2.1,3.37-5.82,10.26-5.82,16.7v8.55c-.59,1-3.68,6.55-3,17.44.25,4.18.72,8,1.21,12.1.88,7.26,3.85,15.48,3.5,25.2-.52,14.81-.31,28.94.28,31.67.53,2.5,5.16,14.67,5.35,15.19l.17.45.47-.13a4.66,4.66,0,0,0,3-4.45l1.48,1.68.39-.54a11.09,11.09,0,0,0,1.76-4.26c.82-1.39,2.53-5,.54-8-2.26-3.45-6-10.57-6-10.64h0a3.85,3.85,0,0,0-.06-.59c.56-4.23,0-5.78,1.58-6.37a.3.3,0,0,1,.28,0c1.14.74,1.41,2.71,1.69,4.79a13.67,13.67,0,0,0,1.53,5.55c1.16,1.84,3,4.22,5.06,2.48,1.38-1.15.17-9-.17-11.35a55.6,55.6,0,0,0-1.57-8.36c-.73-2.94-1.17-4.46-1.36-5.82a74.71,74.71,0,0,1,.61-9.21c.49-3.91,2.92-10.33,5.48-17.12,2.93-7.75,6-15.77,6.15-20.42.31-7.21-.64-10.78-1-11.82a12.85,12.85,0,0,0,2.77-5.9,64.35,64.35,0,0,0,.35-9.41c0-.11,1.8-10.27,4.73-14.92a105.23,105.23,0,0,0,6.9-14.09,59.24,59.24,0,0,0,1.65,8.51c.72,2.17,1.64,4.58,2.54,6.92A63.58,63.58,0,0,1,160,236c.44,2.32.13,19.45,0,25.08,0,1.2,0,2,0,2.19v0a.93.93,0,0,0-.22.5c-.23.41-.58,1-.91,1.49-1.77,2.79-4.74,7.46-4.17,12.07.64,5.14,1.42,7.28,1.7,7.93-.58,1.85-4.88,15.91-4.22,26,.23,3.54-1.16,9.06-2.92,16-2.26,9-6.55,29.74-7.51,42.68-1.41,19.13,4.08,41,5.6,52.85.32,2.54.53,4.21.56,4.72a14.47,14.47,0,0,1-.17,3.11,24.65,24.65,0,0,0-.18,5.79,9.32,9.32,0,0,0,.13.95c-.73,1.66-7.25,16.62-7.42,26.38-.09,4.77,1.44,15.36,3.06,26.56,1.46,10.15,2.85,20.63,3.3,27.11v.17c0,.54.07,1.06.09,1.54a95.46,95.46,0,0,1-.49,11.06,15,15,0,0,0-1,5.43l-.42.39c-1.92,1.64-2.7,3.84-3.45,6-.24.7-.48,1.36-.74,2-1,2.42-10.21,10-11.47,10.78-1,.61-3.49,4.28-3.49,4.28-.94,1-.65,2.66-.46,3.75,0,.19.07.37.09.53a4.43,4.43,0,0,0,.4,1.31,2,2,0,0,1,.22.74,8,8,0,0,1-.11,1.14,7.75,7.75,0,0,0-.1,1c0,.61,0,2.09.61,2.57a2.38,2.38,0,0,0,1.13.57l-.2.59a2.38,2.38,0,0,0,2.63,3,.84.84,0,0,0,0,.19,2.64,2.64,0,0,0,1.32,2.29,2,2,0,0,0,2.08.08,6.41,6.41,0,0,0,5.55,2.34,5.35,5.35,0,0,0,.8-.14,9.07,9.07,0,0,0,5.84-4.89,5.19,5.19,0,0,1,3-3.1c4.29-1.35,6.63-6.12,7.26-10.56a24.7,24.7,0,0,1,3.71-9.05,13.26,13.26,0,0,0,6.3-5.1A6.43,6.43,0,0,0,167,540.6c-.43-1.86-1.6-10.63-2-12a38,38,0,0,1-.8-3.9c-.87-4.62,4.88-28.49,6.56-33.14.65-1.78,1.57-3.73,2.65-6a99.6,99.6,0,0,0,5.9-14.58c2.74-9.1-1.59-29.23-2.12-31.61a76.54,76.54,0,0,0,4.23-8.63,36.47,36.47,0,0,0,2.37-7.33c.69-3.73,1.28-10.77,2-18.93.61-7.21,1.3-15.38,2.14-21.9,1-8.05,3.16-17.14,4.87-24.45,1.18-5,2.19-9.31,2.52-11.91a43.39,43.39,0,0,0-.34-11.83,11.39,11.39,0,0,0,1.76,0,43.49,43.49,0,0,0-.34,11.84c.33,2.6,1.34,6.92,2.51,11.91,1.72,7.31,3.85,16.4,4.88,24.45.84,6.52,1.53,14.69,2.13,21.9.69,8.16,1.28,15.2,2,18.93a36.44,36.44,0,0,0,2.36,7.33,76.62,76.62,0,0,0,4.24,8.63c-.53,2.38-4.86,22.51-2.12,31.61a98.49,98.49,0,0,0,5.9,14.58c1.07,2.25,2,4.2,2.65,6,1.68,4.65,7.42,28.52,6.55,33.14-.28,1.49-.44,2.71-.79,3.9-.41,1.36-1.57,10.13-2,12a6.42,6.42,0,0,0,1.22,5.83,13.29,13.29,0,0,0,6.31,5.1,24.7,24.7,0,0,1,3.71,9.05c.62,4.44,3,9.21,7.25,10.56a5.14,5.14,0,0,1,3,3.1,9.11,9.11,0,0,0,5.85,4.89,5.22,5.22,0,0,0,.79.14,6.39,6.39,0,0,0,5.55-2.34,2.06,2.06,0,0,0,2.09-.08,2.76,2.76,0,0,0,1.33-2.48,2.64,2.64,0,0,0,1.59-.33,2.55,2.55,0,0,0,1-2.63l-.18-.56h0v0a2.38,2.38,0,0,0,1.13-.57c.59-.48.62-2,.61-2.57a9.86,9.86,0,0,0-.11-1,7.88,7.88,0,0,1-.1-1.14,2,2,0,0,1,.22-.74,4.75,4.75,0,0,0,.4-1.31c0-.16.05-.34.09-.53.19-1.09.47-2.75-.46-3.75,0,0-2.5-3.67-3.49-4.28-1.26-.8-10.43-8.36-11.47-10.78-.27-.63-.5-1.29-.75-2-.75-2.14-1.52-4.34-3.44-6-.14-.12-.29-.25-.43-.39a14.82,14.82,0,0,0-1-5.43,96,96,0,0,1-.48-11.06c0-.48.05-1,.09-1.54,0-.06,0-.12,0-.17h0c.44-6.48,1.84-17,3.3-27.11,1.62-11.2,3.14-21.79,3.06-26.56-.17-9.7-6.6-24.52-7.41-26.34a7.51,7.51,0,0,0,.17-1.14,24.68,24.68,0,0,0-.18-5.79,15.15,15.15,0,0,1-.17-3.11c0-.51.24-2.18.57-4.71,1.51-11.83,7-33.73,5.59-52.86-.95-12.93-5.24-33.67-7.51-42.67-1.76-7-3.15-12.51-2.92-16,.66-10.14-3.63-24.19-4.22-26,.28-.64,1.06-2.79,1.7-7.93.57-4.6-2.39-9.27-4.16-12.07a11,11,0,0,1-1.14-2c0-.2,0-1,0-2.2-.1-5.63-.41-22.75,0-25.08a66.22,66.22,0,0,1,2.78-8.12c.89-2.33,1.81-4.75,2.54-6.92a58.93,58.93,0,0,0,1.57-8.19h0a146.69,146.69,0,0,0,6.68,13.68c3.63,6.44,4.88,16.94,5.08,24.34.08,3,2.15,5.17,2.76,5.9-.34,1-1.29,4.61-1,11.82.19,4.65,3.22,12.67,6.15,20.42,2.57,6.79,5,13.2,5.48,17.12.35,2.83.7,4.66.72,6.05a33.74,33.74,0,0,1-.12,4,47.5,47.5,0,0,1-1.27,5.21,56.62,56.62,0,0,0-1.56,8.36c-.34,2.33-1.55,10.2-.17,11.35,2.1,1.74,3.89-.64,5.06-2.48a13.87,13.87,0,0,0,1.53-5.55c.28-2.08.55-4.05,1.69-4.79a.27.27,0,0,1,.28,0c1.58.59,1,2.13,1.57,6.37,0,.14,0,.34-.06.59h0c0,.07-3.76,7.19-6,10.64-2,3-.28,6.6.54,8a11.18,11.18,0,0,0,1.76,4.26l.39.54,1.48-1.68a4.68,4.68,0,0,0,3,4.45l.46.13.17-.45c.2-.52,4.83-12.69,5.36-15.19.59-2.73.8-16.86.28-31.67-.35-9.72,2.61-17.94,3.49-25.2.5-4.08,1-7.93,1.22-12.1C284.24,265.86,281.15,260.27,280.56,259.31Zm-5.43-57.12c1.32,7.68,1.08,24.22-.83,31.17-.4-.62-.71-1.07-.86-1.28-.09-1.6-.78-13.75-2-19.48A77.33,77.33,0,0,0,268,201a62.85,62.85,0,0,0,2.14-8.27C270.9,193.64,274.58,199,275.13,202.19Zm-54.91,58.89c0-1.23.09-2.44.19-3.66a1.88,1.88,0,0,0,1,0c2.66-.74,5-5.23,6.12-7.38a32.92,32.92,0,0,0,2.85-7.63c0,4.35,0,10.09.14,15.34a21.38,21.38,0,0,1-7.14,7.53,4.32,4.32,0,0,1-1.61.64c-1.06.14-1.59-1.23-1.48-2.1C220.26,262.89,220.22,262,220.22,261.08Zm10.26-24a29.66,29.66,0,0,1-6.1,16.72c-.92,1.21-2,2.71-3.75,1.92-.93-.42-.85-1.48-.73-2.32.19-1.31.32-2.62.57-3.92a14.22,14.22,0,0,1,.49-1.92c0-.1.17-.55.32-1a2.94,2.94,0,0,0,2.28-.79c3-2.16,4.67-5.58,5.51-9.26a22,22,0,0,0,1.77-1.71c-.08.31-.15.6-.2.85S230.49,237,230.48,237.08ZM226,242.43a11.16,11.16,0,0,1-1.68,1.95c-.76.68-1.72,1.84-2.87,1.22s-.7-2.34-.61-3.28c.16-1.65.38-3.29.56-4.93a27,27,0,0,0,6.57-9.11c.4-.11.79-.24,1.18-.38C229.3,232.47,228.81,238.6,226,242.43Zm-.49-10.81c-1.14,1.7-4.06,7-4.71,2.76-.42-2.74-1.59-6.85.56-9.25.72-.15,1.25-1,1.75-1.48s1.15-1.06,1.71-1.62c.2-.2.39-.41.58-.61a17.8,17.8,0,0,0,4.15-.87A25.64,25.64,0,0,1,225.55,231.62Zm-5-8.6a10.86,10.86,0,0,1-1-3.85c0-3.63,2.92-6.48,6.13-8.08a26.85,26.85,0,0,0,5.75,1.34,39.8,39.8,0,0,1-5,7c-.71.79-1.58,1.46-2.37,2.18-.5.45-1,.91-1.48,1.39a2.86,2.86,0,0,1-1.3.9C220.7,224,220.71,223.48,220.53,223Zm5.62-2.34q.94-1,1.83-2.1a44.11,44.11,0,0,0,4.14-6.09c.91.09,1.85.14,2.77.14a23.07,23.07,0,0,1,.37,3.9h0A16.74,16.74,0,0,1,226.15,220.68Zm-2.81-11.26.69,0c2.88-.14,5.83-1.69,8.47-3.68a26.26,26.26,0,0,1,2.24,6.27h0A26.58,26.58,0,0,1,223.34,209.42Zm4.1-1.67c-6.76,2.9-19.05-.21-24.46-5.61-4.18-4.19-4.9-10.88-5.47-16.52-.38-3.73-1.89-11.17.31-14.58,4.34-6.7,9.71-7.59,17.42-8,15.5-.88,16.57,4,21.82,9a32.51,32.51,0,0,1,4.13,5.29c3.83,5.46,4.84,10.57,4.39,11.11C241.3,195.4,235.19,204.43,227.44,207.75Zm-20.16-59.33c.79-2,1.47-3.69,1.92-4.77a38.25,38.25,0,0,0,1.81-6.54c5.66,5.08,6.73,15.18,13.69,18.78a12.84,12.84,0,0,0,3.48,1.2c-1.75.76-3.8,1.57-6,2.28A15.93,15.93,0,0,1,207.28,148.42Zm13.21,11.48c-6.1,1.75-12.91,2.43-17.28-1.11,1.21-3.1,2.55-6.53,3.71-9.46A16.53,16.53,0,0,0,220.49,159.9Zm-11.78-16.46c-1.85,4.45-7.59,19.27-9.08,23.1-.39-2.54-1.26-9.59.15-14.39.71-2.4,1.7-4.8,2.84-7.58a146.63,146.63,0,0,0,5.86-16.41,38,38,0,0,0,3.38-3.2c0,.59.09,1.34.18,2.15C211.69,130.36,210.32,139.55,208.71,143.44Zm37.48,45.21,0,0A30.32,30.32,0,0,0,264.4,203.8c7.18,15.22,4.69,34.62-1.23,50.3a59.4,59.4,0,0,1-8.24-10.34c-2.83-4.63-4.57-9.9-6.41-15-3.74-10.38-6.84-21.06-7.44-32C242.92,194.14,244.5,191.4,246.19,188.65Zm17.75,65.42c6.19-14.44,8.58-34.94,1.43-50.34L267,201.5a76.86,76.86,0,0,1,3.39,11.31c1.06,5.15,1.72,15.85,1.89,18.72a7,7,0,0,0,.06,1.05c.56,8.25-4.06,14.56-8.18,21.6-.12.2-.23.4-.35.59l-.14-.13C263.8,254.48,263.87,254.23,263.94,254.07Zm-9.3-96a20.59,20.59,0,0,0,2.53,1.31c2.57,1.18,5.49,2.52,6.89,6.09,2.31,5.87,6.18,19.74,5.3,25.32a62.06,62.06,0,0,1-2.35,9.72c-2.06,2.62-3.34,2.81-6.68,1.14a29.38,29.38,0,0,1-6.45-4.19,32,32,0,0,1-7.72-10.3l0-.05c-.67-5.46-5.34-12.9-10.8-18.12a13.72,13.72,0,0,1-.6-1.62c-1.77-6.06,3.21-7.27,8-7C246.21,160.57,252.71,162,254.64,158Zm-5.75-3.79a8.79,8.79,0,0,1,4.59,2.8,5.13,5.13,0,0,0,.63.6c-2.64,6.24-15.31-1.14-19.66,4.39-1.27,1.62-1.23,3.62-.5,5.66-3.39-2.94-7.11-5.33-10.15-5.42-15.43-.46-20.57,1.49-23.8,4.79l3-7.64c6.94,5.38,19.42,1,26.4-2.16,6.13.64,12.56-2.61,18.61-3.33ZM214,133.65c1.79,2.21,8.27,5.32,14.54,8.32,3.56,1.71,6.93,3.32,9.31,4.7a39.49,39.49,0,0,1,7.6,5.5,13.45,13.45,0,0,0,1.48,1.22c-9,1.37-19.8,7.55-26.13-2.35-3.1-4.85-5.2-10.79-9.59-14.71.56-2.88.94-5.69,1.14-7.33A11,11,0,0,0,214,133.65Zm-36.29-18.1a1.12,1.12,0,0,1-1.06.6c-1-.12-2.69-3.1-3.67-4.88-.5-.89-.93-1.66-1.29-2.18-1.06-1.52-1-5.29.07-8.78.18-.56.41-.87.71-.92.75-.14,2.09,1.07,2.81,2l1.08,1.36-.13-1.73c0-.16-1.1-15.52,4.32-22,4-4.82,12.69-5.86,15.12-6.06,2.42.2,11.09,1.24,15.11,6.06,5.42,6.51,4.33,21.87,4.32,22l-.13,1.73,1.08-1.36c.72-.91,2.06-2.12,2.81-2,.3,0,.53.36.71.92,1.1,3.49,1.13,7.26.07,8.78-.36.52-.79,1.29-1.28,2.18-1,1.78-2.64,4.76-3.68,4.88a1.12,1.12,0,0,1-1.06-.6l-1.17-2.24.16,2.52s.33,5.38-.82,7.53-10.69,9.58-12.52,10.25a11.88,11.88,0,0,1-7.21,0c-1.83-.67-11.34-8.06-12.52-10.25s-.82-7.48-.82-7.53l.16-2.52Zm-8.22,150.59a4.32,4.32,0,0,1-1.61-.64,21.08,21.08,0,0,1-6.73-6.85c.08-4.8.15-10.09.16-14.4a33.88,33.88,0,0,0,2.42,6c1.11,2.15,3.46,6.64,6.12,7.38a1.88,1.88,0,0,0,1,0c.1,1.22.17,2.43.19,3.66,0,.91,0,1.81-.09,2.71C171,264.91,170.5,266.28,169.44,266.14ZM170.6,256c-1.76.79-2.83-.71-3.75-1.92a30,30,0,0,1-5.6-12.47,47,47,0,0,0-.24-5.75l0-.14c.38.38.77.75,1.18,1.1.84,3.68,2.49,7.1,5.51,9.26a2.94,2.94,0,0,0,2.28.79c.15.42.29.87.32,1a15.93,15.93,0,0,1,.5,1.92c.24,1.3.37,2.61.56,3.92C171.45,254.49,171.53,255.55,170.6,256Zm-.86-10.12c-1.15.62-2.1-.54-2.87-1.22a11.16,11.16,0,0,1-1.68-1.95c-2.77-3.83-3.26-10-3.15-14.53.39.14.78.27,1.19.38a27,27,0,0,0,6.56,9.11c.18,1.64.4,3.28.56,4.93C170.44,243.51,170.78,245.29,169.74,245.85Zm.65-11.22c-.65,4.29-3.57-1.06-4.7-2.76a26.3,26.3,0,0,1-4.06-11.33,17.83,17.83,0,0,0,3.89.84c.28.3.56.61.85.9q.84.84,1.71,1.62c.5.45,1,1.33,1.75,1.48C172,227.78,170.81,231.89,170.39,234.63Zm-14-21.75a26.82,26.82,0,0,0,2.7-.13,45.55,45.55,0,0,0,4.14,6.08c.5.62,1,1.22,1.56,1.81a16.82,16.82,0,0,1-8.82-4.1h0A23.14,23.14,0,0,1,156.41,212.88ZM170,224.2a2.84,2.84,0,0,1-1.29-.9c-.49-.48-1-.94-1.49-1.39-.79-.72-1.65-1.39-2.37-2.18a39.8,39.8,0,0,1-5-7,26.81,26.81,0,0,0,5.78-1.32c3.2,1.6,6.07,4.44,6.1,8.06a10.86,10.86,0,0,1-1,3.85C170.52,223.73,170.53,224.27,170,224.2Zm-13.42-12h0a26.6,26.6,0,0,1,2.48-6.66c2.6,1.9,5.47,3.35,8.24,3.48.62,0,1.22.05,1.81.06A26.53,26.53,0,0,1,156.54,212.24Zm7.31-4.82c-7.75-3.33-14.61-13.11-18.14-19.34.27-3.13,1.94-6.88,4.44-10.52a53.66,53.66,0,0,1,8.5-10c6-4.88,11.37-4.67,16.49-4.5,7.72.25,14.58,1.58,18.32,7.63,2.14,3.45.69,10.84.32,14.57-.57,5.64-1.29,12.34-5.48,16.52C182.9,207.21,171,210.47,163.85,207.42Zm-37.09-3.25a30.46,30.46,0,0,0,18.51-15.57c1.72,2.82,3.26,5.59,5.14,8.21-.59,11-3.69,21.74-7.45,32.15-1.84,5.09-3.57,10.36-6.4,15a52.58,52.58,0,0,1-8.36,10.66C122.28,239,119.68,219.4,126.76,204.17Zm.47,49.7c-4-6.86-8.79-13.41-8.19-21.64.17-3,.91-14.33,2-19.43a77.13,77.13,0,0,1,3.27-11c.58.77,1.16,1.54,1.73,2.32a.08.08,0,0,1,0,0C119.15,219.3,121.48,238.31,127.23,253.87Zm64.41-87.38c-1.49-3.83-7.23-18.65-9.07-23.1-2.06-5-3.19-15.45-3.24-15.88.11-.89.17-1.72.21-2.37a38.47,38.47,0,0,0,3.28,3.08,146.57,146.57,0,0,0,5.83,16.3,80.05,80.05,0,0,1,2.84,7.59C192.9,156.9,192,164,191.64,166.49Zm-7.22-17,3.72,9.49c-2.92,2.91-11.09,2.84-17.51,1.16A16.51,16.51,0,0,0,184.42,149.46ZM169,159.57l0,0c-2.14-.7-4.15-1.5-5.88-2.25a12.84,12.84,0,0,0,3.48-1.2c7-3.62,8-13.81,13.77-18.86a37.27,37.27,0,0,0,1.77,6.32c.46,1.11,1.17,2.87,2,5A16,16,0,0,1,169,159.57ZM146,152.16a39.49,39.49,0,0,1,7.6-5.5c2.37-1.38,5.74-3,9.31-4.7,6.27-3,12.75-6.11,14.54-8.31a10,10,0,0,0,1.54-4.16c.22,1.72.6,4.35,1.12,7-4.44,3.91-6.55,9.9-9.67,14.78-6.37,10-17.31,3.64-26.31,2.33A10.22,10.22,0,0,0,146,152.16ZM138,157a8.67,8.67,0,0,1,4.58-2.79l.14-.05.45,0c6.08.69,12.56,4,18.73,3.34,7,3.15,19.84,7,26.52,2.07,1.18,3,2.19,5.64,2.72,7-3.31-3.18-8.78-4.65-23.75-4.26-3,.08-6.58,2.19-9.94,5.24a5.5,5.5,0,0,0-.63-5.29c-4.36-5.56-17.12,1.91-19.7-4.46A5.16,5.16,0,0,0,138,157Zm-10.58,8.39c1.4-3.57,4.31-4.91,6.88-6.09a22,22,0,0,0,2.28-1.16c1.88,4.13,8.45,2.65,12,2.43,4.75-.29,9.73.92,8,7a9.9,9.9,0,0,1-.46,1.29c-5.67,5.67-10.51,13.71-10.93,18.65a31.78,31.78,0,0,1-7.68,10.22,29,29,0,0,1-6.45,4.19c-3.2,1.61-4.38,1.45-6.29-.87l-.15-.28a60.27,60.27,0,0,1-2.47-10C121.2,185.17,125.06,171.29,127.38,165.42Zm-10.63,37c.49-2.88,3.52-7.48,4.7-9.07a61.14,61.14,0,0,0,2,7.63A77.33,77.33,0,0,0,120,212.59c-1.18,5.73-1.87,17.88-2,19.48-.11.16-.32.45-.58.85C115.66,225.64,115.47,209.85,116.75,202.39Zm-7.83,74.29c-.53-8.73,1.45-14,2.42-16,1.13,7.49,4.34,15,7.4,21.91A91.15,91.15,0,0,1,126.06,312a25.06,25.06,0,0,0,.2,4.78C118.58,307,112,296.48,109.61,284.3,109.33,281.79,109.08,279.29,108.92,276.68Zm14.32,80-1.39-1.6a71.18,71.18,0,0,0-2.25-10.62c0-.22.09-.79.14-1.55,1.1,2,2.69,4.9,4.05,7C125.4,352.36,124,355.44,123.24,356.71ZM120,337.3c1.27,2.37,3.55,6.53,5.13,8.94a5.55,5.55,0,0,1,.3,4.95,5.37,5.37,0,0,0-.78-1.87c-1.73-2.63-3.87-6.62-4.81-8.39C119.94,339.74,120,338.44,120,337.3Zm7.25-16c1,4.14,1.59,6.27,1.59,8.26,0,5.13,1.61,10.77-.24,10.77-.45,0-1.39-.46-2.69-2.5a13.16,13.16,0,0,1-1.38-5.12c-.31-2.33-.61-4.54-2.17-5.54a1.31,1.31,0,0,0-1.23-.13c-2.56,1-1.72,5.34-2.26,7.2l0,.14,0,.13c.68,2.91-.35,9.85-.36,9.92l0,.11,0,.12c0,.08,2.29,8,2.29,11.58A3.92,3.92,0,0,1,119,360c-.9-2.4-4.65-12.38-5.11-14.52s-.79-16.06-.25-31.41c.33-9.49-2.43-17.54-3.41-24.67,3.14,10.53,9.26,19.84,16.2,28.52l0,.05C126.69,319.08,127,320,127.28,321.32Zm2.5-27.51c-.35,1.46-.2.85-.59,2.44a50.42,50.42,0,0,0-2.63,9.78q-.09.66-.15,1.26a95.85,95.85,0,0,0-4.3-18.21c-3.49-9.69-8.88-19.11-10.18-29.43h0v-8.89c0-6.9,4.64-14.61,6.37-17.24h0c-.08,9.4,6.59,16.86,10.75,25.06,5.08,10,3.24,23.79.86,34.51C129.83,293.51,129.84,293.49,129.78,293.81Zm8.4-25.23c-.19,4.48-3.19,12.41-6.09,20.09-.14.37-.47,1-.84,1.74,1.76-8.32,2.67-16.7.86-25.23a22.62,22.62,0,0,0-.67-2.48,34.48,34.48,0,0,1,5.82-5.5C137.57,258.18,138.47,261.67,138.18,268.58Zm7-42.58c-3,4.83-4.8,14.88-4.88,15.41a68,68,0,0,1-.35,9.33,11.87,11.87,0,0,1-2.71,5.58l-.21.24h0A36.3,36.3,0,0,0,131.2,262a2.08,2.08,0,0,1-.12-.35,42.77,42.77,0,0,0-3-6.23,50.78,50.78,0,0,0,9-11.15c2.82-4.67,3.84-8.28,5.76-13.29,4.13-10.77,7.44-21.91,8.13-33.37l.34.45c.28,2.87.74,7.42,1.31,11.81a.89.89,0,0,0,0,.15A106.53,106.53,0,0,1,145.19,226Zm7.37-26.46a41.66,41.66,0,0,0,5.94,5.65,26.22,26.22,0,0,0-3.13,14.43C154.24,215.22,153.15,205.37,152.56,199.54ZM156.84,224a26.3,26.3,0,0,1-.88-6.65,17.48,17.48,0,0,0,5,2.95,27.84,27.84,0,0,0,2,7.51A14.15,14.15,0,0,1,156.84,224Zm1.89,5.44-.16-.36a40.47,40.47,0,0,1-1.38-3.85,14.41,14.41,0,0,0,4.23,2.71.14.14,0,0,0,0,.07,36.6,36.6,0,0,0,.54,7.72c-.47-.44-.92-.9-1.35-1.39C160.15,233,159.45,231.34,158.73,229.42Zm-3,47.83c-.52-4.23,2.31-8.7,4-11.37.3-.48.55-.87.74-1.2,6.75,3,14.84,8.33,13,17.3-.51,2.5-2.69,5.18-4.24,7-2.16,2.63-4.18,1.43-6.43-.36-2-1.55-3.89-3.14-5.82-4.73A40.2,40.2,0,0,1,155.71,277.25Zm-5.46,50.4c1.78-7.07,3.19-12.66,2.95-16.36-.48-7.28,1.67-16.67,3.08-21.89,4.18,4.57,3.67,11.86,2.8,17.86-1,7.16-2.21,17.4-9,21.12Zm-7.48,42.49c.61-8.32,2.63-19.95,4.58-29.54a77.75,77.75,0,0,0,1.26,22.89c1.69,8.85,7.08,21,9.11,32.14.76,4.2,1.46,14.92-.59,20.85-1.36,3.93-5.37,7.14-8.79,6.22C146.81,410.87,141.37,389.12,142.77,370.14Zm1.56,120.14c-1.61-11.16-3.13-21.71-3.05-26.39.15-8.21,5.08-20.62,6.81-24.72a67.19,67.19,0,0,0,4.69,10.33q-.12,19.33-.23,38.67c-.06,11.32,1.75,25.11-4.89,35,.08-1.75.11-3.43.05-4.59C147.49,512.17,145.89,501.07,144.33,490.28Zm18.81,34.63c.07.38.14.75.22,1.11-3.86-4.36-3.91-11-3.93-16.93,0-.87,0-1.72,0-2.54-.14-7.71-.21-14.77.25-21.82.8,3.52,2.95,8.72,8.67,11.27C166,504.74,162.4,521,163.14,524.91Zm15.12-54.21a97.7,97.7,0,0,1-5.83,14.43c-1.09,2.28-2,4.24-2.69,6.07-.29.78-.68,2.07-1.12,3.69-5.79-2.66-8-8.55-8.84-11.86,0-.62.09-1.24.14-1.85.15-1.57.24-3.18.34-4.89.26-4.48.39-9.05,1.78-13.36a35.73,35.73,0,0,1,4.63-9.11c2-2.83,4.37-5.26,6.39-8,1.18-1.62,2.28-3.3,3.31-5C177.39,445.68,180.64,462.82,178.26,470.7Zm4.46-47.46c-.82,4.47-2.87,8.81-4.94,12.81-1.22,2.36-2.43,5.09-4.16,7.11-4.74,5.57-9.87,11-12.17,18.06-1.59,4.89-2,9.91-2.25,15-.1,1.69-.2,3.29-.34,4.85a229.43,229.43,0,0,0-.52,25.49c0,.82,0,1.66,0,2.52,0,6.73.06,14.3,5.44,18.89.15.6.29,1.17.44,1.69.59,3,1.53,9.64,1.87,11.13.41,1.79.35,3-1.09,5.13a14.31,14.31,0,0,1-4.65,4.14l3.3-5.33c-1.58,1.67-4.79,6.07-4.86,6.16h0a25.82,25.82,0,0,0-3.95,9.56c-.58,4.09-2.74,8.62-6.66,9.84l0,0a6,6,0,0,0-3.5,3.59,8.16,8.16,0,0,1-5.24,4.36,5.38,5.38,0,0,1-5.58-2.13l0,0c-.15-.8,0-1.09.29-1.39l.44-.39a17.6,17.6,0,0,0,3.1-3.2c.35-.69,3.08-5.15,5.21-6.89a16.44,16.44,0,0,0-6,6.49,20.94,20.94,0,0,1-2.9,2.93c-.2.19-.37.33-.46.41a2.07,2.07,0,0,0-.57,2.08c-.4.19-.64.25-1.33-.08a1.9,1.9,0,0,1-.82-1.63h0s.28-3.61,6.65-11.71a21,21,0,0,0-3.89,4.35c-2.35,3.51-3.22,5.39-3.52,6.41a2.25,2.25,0,0,1-1.19-.14,1.74,1.74,0,0,1-.74-1.64c.08-.22.14-.39.18-.54h0c.75-2.59,3.45-8.54,5.75-11.15a12.88,12.88,0,0,0-3,3.51A27.88,27.88,0,0,0,127.7,570a1.53,1.53,0,0,1-.83-.39,3.52,3.52,0,0,1-.29-1.87,8.87,8.87,0,0,1,.09-1,8.1,8.1,0,0,0,.11-1.28,1.66,1.66,0,0,0,0-.32A19.08,19.08,0,0,1,131,557.7a16.92,16.92,0,0,0-2.44,2.64,19.5,19.5,0,0,0-2.24,3.5,2.34,2.34,0,0,1-.12-.52c0-.17-.06-.36-.1-.56-.16-1-.4-2.31.24-3,0,0,2.39-3.57,3.31-4.14,1.36-.85,10.66-8.49,11.81-11.18.28-.66.53-1.36.77-2.05.71-2,1.45-4.11,3.19-5.6,2.48-2.12,4.26-7.43,4.26-7.43a37.11,37.11,0,0,1-3.51,5.37,14.86,14.86,0,0,1,.91-4.16,57.42,57.42,0,0,0,.56-6.24c6.44-9.05,5.51-21.41,5.57-32l.24-41.72c1.28,2.34,2.29,4,2.38,4.18s-6.87-13.59-7.22-18.38a23.38,23.38,0,0,1,.18-5.57,16,16,0,0,0,.18-3.31c0-.5-.21-1.93-.48-4.07,2.53.54,5.33-.93,7.52-3.6,4.05-5,3.84-13.9,3.05-20.77A3.83,3.83,0,0,0,162,399a27.91,27.91,0,0,0,.33,5.3c.9,5.56,3.29,11.64,8.13,15,3.86,2.66,8.74,4.07,12.7,1.47C183,421.67,182.85,422.53,182.72,423.24Zm1.95-18.82c-.49,5.85-1,11.45-1.45,15.44-6.49,5.08-14.52-1.87-17.75-7.55-3.5-6.16-3.16-13.55-1.64-20.21,2.77-12.21,10.65-22.52,14.12-34.52a75.61,75.61,0,0,1,5.05,15.6,169.44,169.44,0,0,1,2.45,22.23C185.17,398.46,184.92,401.51,184.67,404.42Zm2.14-21.95c-.36,2.79-.69,5.87-1,9-.88-11.93-2.69-23.68-7.56-34.88C170.18,338.07,162.36,320,162,299.37a17.9,17.9,0,0,1,.34-3.85c1.12-5.63,5.33,2.65,5.45,2.88,1.26,2.4,2.63,4.11,2.95,6.93.15,1.33.28,2.57.56,3.89,2,9.15,3.66,18,7,26.85,1.5,4,3.52,7.87,5,11.92,1.65,4.57,2.36,9.58,3.13,14.34a111.1,111.1,0,0,1,1.36,14.43C187.35,378.69,187.05,380.61,186.81,382.47Zm7.39-36.36c-.32,2.55-1.33,6.84-2.49,11.81s-2.5,10.63-3.57,16.3c-.22-4-.62-8-1.2-12.06a81.37,81.37,0,0,0-3.75-16c-1.89-5.25-4.46-10.22-6.25-15.53-3.11-9.23-4-18.71-6.08-28.12-.65-2.93-3.23-6.17-4.86-8.63-.48-.72-1.93-1.34-2.73-.77-4.07,2.9-1.68,12.78-1.23,16.59,1.26,10.82,4.68,21.3,8.67,31.39,2.09,5.26,4.58,10.38,6.83,15.58-3.76,13.66-14.78,27.05-15.57,41.52a3.11,3.11,0,0,1-3,.28c-.11-.89-.22-1.75-.34-2.55-1.67-11.5-7.39-25-9.33-34-1.82-8.49-1.8-17.51-.86-26.31.52-2.4,1-4.57,1.46-6.39,7.72-3.66,8.56-14.07,9.82-21.77,1.05-6.32,1.37-14.06-3.21-18.76.54-2,.94-3.19,1-3.23l.07-.22v0a98.31,98.31,0,0,0,8.66,6.76,1.3,1.3,0,0,0,.42.18,102,102,0,0,1,6.6,12c2.08,4.16,4.44,8.87,7.42,14a46.82,46.82,0,0,1,2.27,4.81c2.1,4.94,4.46,10.48,11,11.38A43.83,43.83,0,0,1,194.2,346.11ZM196,333.37h-.33c-7.24,0-9.49-5.28-11.86-10.85a46.56,46.56,0,0,0-2.33-4.93c-3-5.13-5.31-9.82-7.38-14A107.08,107.08,0,0,0,167.75,292c2.32-1.12,5-6.3,5.67-7.52,2.63-4.55.64-10-2.37-13.93-2.26-2.93-6.63-5.38-10.07-6.93a1.55,1.55,0,0,0,0-.29c0-.2,0-1,0-2.19,0-.44,0-.9,0-1.37a23.33,23.33,0,0,0,3.43,4c1.22,1.15,3.76,3.57,5.5,3.59,1.39,0,1.38-1.32,1.49-2.41a40.73,40.73,0,0,0-.07-7.65,4,4,0,0,0,.67-2.56,20.68,20.68,0,0,0-1.64-8.2c1.31-1.37.43-6.34,0-8.89v0c.71-3.54,2.48-9.15.06-12.37.43-.3.56-1,.76-1.48a11,11,0,0,0,1-5.47c-.5-3.16-3.08-5.7-5.94-7.25a26.51,26.51,0,0,0,4-1.94c8.23-.14,14.14-2.65,19.21-7.73,3.86-3.86,4.21-11,4.79-16.1.51-4.44,1.81-11.47-.8-15.51a20.14,20.14,0,0,0-1.62-2.22c.08-.4,1.77-9.56,0-15.59a80.12,80.12,0,0,0-2.86-7.64,147.69,147.69,0,0,1-5.58-15.48c3.19,2.66,6.89,5.33,8.08,5.77a13.41,13.41,0,0,0,3.27.59h1.42a13.42,13.42,0,0,0,3.26-.59c1.2-.44,4.95-3.15,8.15-5.82a147.3,147.3,0,0,1-5.61,15.58,80,80,0,0,0-2.86,7.63c-1.77,6-.08,15.21,0,15.6l-1.6,2.5c-2.61,4.05-1.31,11.08-.8,15.52.58,5.07.93,12.24,4.79,16.1,5.29,5.29,11.5,7.8,20.3,7.73a26.14,26.14,0,0,0,2.9,1.33c-2.87,1.55-5.47,4.1-6,7.27a11,11,0,0,0,1,5.47c.2.48.33,1.18.76,1.48-2.42,3.22-.65,8.83.06,12.37v0c-.42,2.55-1.29,7.52,0,8.89a20.51,20.51,0,0,0-1.63,8.2,3.94,3.94,0,0,0,.66,2.56,40.73,40.73,0,0,0-.06,7.65c.1,1.09.09,2.44,1.48,2.41,1.74,0,4.28-2.44,5.5-3.59a23.64,23.64,0,0,0,3.84-4.64c0,.72,0,1.42,0,2.11,0,1.19,0,2,0,2.19a1.17,1.17,0,0,0,.05.3c-3.47,1.53-7.92,3.91-10.24,6.92-3,3.91-5.31,9.38-2.68,13.93.72,1.25,3.65,6.77,6.06,7.71a111.18,111.18,0,0,0-6.33,11.59c-2.07,4.14-4.43,8.84-7.38,14a44.67,44.67,0,0,0-2.33,4.93C205.42,328.06,203.18,333.31,196,333.37Zm9.74,58c-.3-3.13-.63-6.17-1-8.92-.24-1.88-.54-3.81-.88-5.76A111.29,111.29,0,0,1,205.28,362c.77-4.77,1.48-9.78,3.12-14.34,1.47-4.05,3.48-7.88,5-11.92,3.29-8.82,5-17.7,6.94-26.86.28-1.31.41-2.55.57-3.88.32-2.83,1.69-4.54,2.95-6.94.12-.22,4.33-8.5,5.45-2.87a17.23,17.23,0,0,1,.33,3.85c-.39,20.61-8.22,38.7-16.28,57.27C208.46,367.6,206.65,379.41,205.77,391.39Zm1.16,13c-.25-2.94-.51-6-.79-9.12a170.79,170.79,0,0,1,2.46-22.42,74.73,74.73,0,0,1,5-15.49c3.47,12,11.39,22.52,14.16,34.71,1.51,6.66,1.85,14-1.64,20.21-3.23,5.68-11.26,12.63-17.75,7.55C207.89,415.87,207.42,410.27,206.93,404.42Zm14.93,86.78c-.66-1.83-1.6-3.79-2.69-6.07a98.72,98.72,0,0,1-5.84-14.43c-2.37-7.88.88-25,1.9-29.93,1,1.72,2.13,3.4,3.31,5,2,2.77,4.44,5.2,6.38,8a36.09,36.09,0,0,1,4.64,9.11c1.39,4.31,1.51,8.88,1.78,13.36.09,1.71.19,3.32.33,4.89.05.54.09,1.09.13,1.63a20,20,0,0,1-4.4,8.76,13.87,13.87,0,0,1-4.43,3.28C222.53,493.25,222.14,492,221.86,491.2Zm1.41,4.75a14.1,14.1,0,0,0,4.95-3.68,17.61,17.61,0,0,0,3.71-7.79c.48,7.13.41,14.27.26,22.07,0,.82,0,1.67,0,2.54,0,5.94-.07,12.57-3.93,16.93.07-.36.15-.73.22-1.11C229.2,521,225.61,504.69,223.27,496Zm22.2,38.79a36.18,36.18,0,0,1-3.51-5.37s1.78,5.31,4.26,7.43c1.74,1.49,2.47,3.58,3.19,5.6.24.69.48,1.39.77,2.05,1.14,2.69,10.45,10.33,11.81,11.18.92.57,3.31,4.14,3.31,4.14.63.68.4,2,.23,3,0,.2-.07.39-.09.56a5,5,0,0,1-.11.51,20.1,20.1,0,0,0-2.26-3.54,17.49,17.49,0,0,0-2.44-2.64,19,19,0,0,1,4.22,7.5,3.11,3.11,0,0,0,0,.32,11.44,11.44,0,0,0,.11,1.28,7,7,0,0,1,.1,1,3.75,3.75,0,0,1-.29,1.87,1.45,1.45,0,0,1-.83.38,27.88,27.88,0,0,0-3.33-6.5,12.77,12.77,0,0,0-3-3.51c2.24,2.56,4.87,8.3,5.69,11,.05.18.13.42.25.78a1.71,1.71,0,0,1-.73,1.64,1.92,1.92,0,0,1-1,.15c-.13-.83-.81-2.7-3.64-6.93a20.87,20.87,0,0,0-3.9-4.35c5.38,6.83,6.42,10.44,6.61,11.43v.29c0,.48,0,1.75-.84,2.13s-.94.27-1.33.08a2.09,2.09,0,0,0-.58-2.08l-.45-.41a20.94,20.94,0,0,1-2.9-2.93,16.42,16.42,0,0,0-6-6.49c2.13,1.74,4.87,6.2,5.22,6.89a17.26,17.26,0,0,0,3.1,3.2l.43.39c.32.3.45.59.3,1.39l0,0a5.4,5.4,0,0,1-5.58,2.13,8.14,8.14,0,0,1-5.24-4.36,6,6,0,0,0-3.51-3.59l0,0c-3.93-1.22-6.09-5.75-6.66-9.84a25.82,25.82,0,0,0-4-9.56h0c-.07-.09-3.28-4.49-4.86-6.16l3.3,5.33a14.21,14.21,0,0,1-4.65-4.14c-1.45-2.12-1.5-3.34-1.09-5.13.34-1.49,1.28-8.13,1.87-11.13.14-.52.29-1.09.44-1.69,5.37-4.59,5.41-12.16,5.44-18.89,0-.86,0-1.7,0-2.52a229.43,229.43,0,0,0-.52-25.49c-.15-1.56-.24-3.16-.34-4.85-.3-5.1-.66-10.12-2.25-15-2.3-7.1-7.44-12.49-12.18-18.06-1.72-2-2.93-4.75-4.15-7.11-2.07-4-4.12-8.34-4.95-12.81-.13-.71-.26-1.57-.38-2.54,4,2.59,8.84,1.18,12.7-1.48,4.83-3.32,7.59-9.36,8.13-15a37.8,37.8,0,0,0,.11-5.61,4.21,4.21,0,0,0,3,.28c-.82,6.92-1.11,16.1,3,21.14,2.24,2.75,5.13,4.22,7.71,3.55-.25,2-.42,3.34-.45,3.81a15.28,15.28,0,0,0,.19,3.31,24.09,24.09,0,0,1,.17,5.57c-.34,4.8-7.22,18.38-7.22,18.38s1.07-1.78,2.33-4.07l.24,41.76c.06,10.55-.88,22.91,5.56,32a56.34,56.34,0,0,0,.57,6.24A15.22,15.22,0,0,1,245.47,534.74Zm4.84-70.85c.08,4.68-1.44,15.23-3.05,26.39-1.55,10.79-3.16,21.89-3.37,28.29-.06,1.16,0,2.84,0,4.59-6.63-9.88-4.82-23.67-4.89-35q-.1-19.37-.22-38.72a69.52,69.52,0,0,0,4.7-10.27C245.25,443.3,250.17,455.69,250.31,463.89ZM248.89,370c1.4,19-4.08,40.84-5.59,52.64l0,.17c-3.46,1.1-7.6-2.16-9-6.16-2-5.94-1.34-16.66-.58-20.85,2-11.16,7.42-23.3,9.11-32.15A81.59,81.59,0,0,0,244,338.83C246,348.71,248.24,361.19,248.89,370Zm-6.2-37.06c1.24,9.67,1.49,19.73-.53,29.13-1.94,9-7.67,22.49-9.33,34-.11.73-.21,1.5-.31,2.3a3.49,3.49,0,0,1-3.13-.41c-1.11-15.76-11.6-27.72-15.38-41.5,2.26-5.23,4.78-10.38,6.87-15.68,4-10.08,7.41-20.56,8.68-31.38.44-3.82,2.83-13.69-1.23-16.59-.81-.57-2.26,0-2.73.76-1.64,2.46-4.22,5.71-4.87,8.64-2.09,9.41-3,18.89-6.08,28.12-1.78,5.31-4.35,10.28-6.25,15.52a82.33,82.33,0,0,0-3.74,16q-.9,6.15-1.22,12.29c-1.07-5.65-2.4-11.35-3.55-16.24s-2.17-9.26-2.49-11.81a43,43,0,0,1,.38-11.8c6.51-.89,8.88-6.44,11-11.38a46.82,46.82,0,0,1,2.27-4.81c3-5.15,5.33-9.87,7.42-14a97.32,97.32,0,0,1,6.7-12.1.53.53,0,0,0,.1-.06,100.18,100.18,0,0,0,8.89-6.94l.08.29s.42,1.29,1,3.3c-4.67,4.69-4.34,12.48-3.3,18.84,1.28,7.73,2.11,18.2,9.93,21.81C242.1,330.36,242.39,331.6,242.69,332.94Zm-7.3-43.62c1.41,5.23,3.54,14.57,3.07,21.82-.24,3.7,1.16,9.29,2.94,16.37.08.29.16.6.23.92-6.9-3.67-8.06-14-9.11-21.17C231.64,301.23,231.13,293.88,235.39,289.32Zm-3.46-23.58c1.7,2.67,4.53,7.14,4,11.36-.61,4.92-1.14,6.15-1.45,6.76-2,1.61-3.91,3.22-5.9,4.79-2.25,1.79-4.27,3-6.43.37-1.54-1.88-3.73-4.56-4.24-7-1.87-9.11,6.47-14.42,13.28-17.42C231.39,264.88,231.63,265.26,231.93,265.74Zm1.54-38.36c-.82,2.16-1.61,4.23-2.16,5.91a23,23,0,0,1-2,2.17,37.2,37.2,0,0,0,.53-7.72.24.24,0,0,0,0-.08,14.67,14.67,0,0,0,4.77-3.22C234.22,225.42,233.84,226.41,233.47,227.38Zm1.39-4.17a14.15,14.15,0,0,1-6.54,4.33,27,27,0,0,0,2-7.25,17.43,17.43,0,0,0,5-3A38.51,38.51,0,0,1,234.86,223.21Zm1.23-2.89s-.18.57-.46,1.38A29.42,29.42,0,0,0,233,205.33a41.74,41.74,0,0,0,5.76-5.6l.34-.42C238.48,205.61,237.32,216.63,236.09,220.32Zm15.3,30.18c-.38-10.37-2.19-19.91-5.23-24.74a102.34,102.34,0,0,1-7.25-15.33.32.32,0,0,0,0-.07c.61-4.63,1.13-9.6,1.43-12.6l.16-.22c.71,11.41,4,22.53,8.13,33.25,1.92,5,2.94,8.62,5.75,13.29a56.25,56.25,0,0,0,9.23,11.11,36.27,36.27,0,0,0-3.28,6.76,44.13,44.13,0,0,0-6.26-5.9A9,9,0,0,1,251.39,250.5Zm8.76,40.29c-.29-.78-.59-1.57-.89-2.36-2.9-7.68-5.9-15.61-6.08-20.09-.29-6.86.59-10.35.91-11.36a37.76,37.76,0,0,1,6,5.65c-.28.86-.55,1.79-.82,2.85-2.14,8.54-.68,17.36.9,25.36Zm1.83,5c-2.91-11.84-5.3-25.73.37-36.89,4.22-8.3,11-15.87,10.72-25.45,1.68,2.55,6.42,10.35,6.42,17.33v8c-1.05,10.76-6.68,19.85-10.28,29.87a82.14,82.14,0,0,0-4.29,18.13c0-.32-.06-.64-.12-1A50.46,50.46,0,0,0,262,295.77Zm4,55.43a5.55,5.55,0,0,1,.3-4.95c1.58-2.41,3.86-6.57,5.13-8.94,0,1.14.08,2.44.15,3.62-.93,1.78-3.08,5.77-4.8,8.4A5.37,5.37,0,0,0,266,351.2Zm2.21,5.51c-.72-1.26-2.15-4.34-.54-6.8,1.35-2.06,3-4.93,4.05-7,.05.76.1,1.33.14,1.55a69.9,69.9,0,0,0-2.25,10.62Zm13.12-68c-.89,7.3-3.86,15.56-3.51,25.36.54,15.35.22,29.21-.25,31.41s-4.21,12.12-5.12,14.52a3.94,3.94,0,0,1-1.83-3.74c0-3.62,2.27-11.51,2.29-11.59l0-.11v-.11c0-.07-1.05-7-.37-9.92l0-.14,0-.13c-.54-1.86.3-6.24-2.27-7.2a1.32,1.32,0,0,0-1.22.12c-1.56,1-1.86,3.21-2.18,5.55a13,13,0,0,1-1.37,5.12c-1.3,2-2.24,2.5-2.7,2.5-1.84,0-.23-5.64-.23-10.77,0-2,.61-4.12,1.59-8.27.36-1.5.68-2.65.91-3.92,7.1-8.91,13.31-18.48,16.32-29.35C281.36,288.27,281.33,288.49,281.31,288.72Zm1.21-12c-.1,1.65-.37,3.45-.52,5-1.92,13.13-8.64,24.13-16.74,34.43a30.91,30.91,0,0,0,0-6.06,86.11,86.11,0,0,1,7.33-27.93c3.13-7.07,6.3-14.08,7.36-21.74C280.84,262.15,283.07,267.5,282.52,276.68Z" transform="translate(-107.77 -71.89)"/><path d="M191.46,256.18Q185.69,258,180,259.8c-4.77,1.54-5.77-2.16-5.8-5s1.45-5.26,3.21-7.3c2.95-3.41,8-4.48,12.38-4.74,5.17-.31,6.73,11.75,1.72,13.44m2.64-12.05c-2.8-4.66-11.86-1-15.27,1.24-3.79,2.45-7,8.62-4.71,12.9,1.07,2,2.37,2.63,4.68,2.45a21.87,21.87,0,0,0,4.92-1.51c2.61-.88,5.29-1.61,7.92-2.41,1.47-.5,3.32-1.22,3.46-3,.2-2.51.37-7.42-1-9.69" transform="translate(-107.77 -71.89)"/><path d="M199.77,256.25c-5-1.69-3.45-13.76,1.71-13.45,4.38.27,9.44,1.33,12.39,4.74,1.76,2,3.25,4.57,3.21,7.3s-1,6.56-5.8,5c-3.83-1.23-7.66-2.45-11.51-3.62m-2.65-12.06c-1.37,2.27-1.19,7.18-1,9.7.14,1.76,2,2.48,3.46,3,2.63.8,5.31,1.53,7.92,2.41a22.42,22.42,0,0,0,4.92,1.52c2.31.18,3.61-.47,4.68-2.46,2.3-4.28-.92-10.45-4.72-12.9-3.4-2.2-12.46-5.9-15.27-1.24" transform="translate(-107.77 -71.89)"/><path d="M192.92,289.64q-.18,6.14-.37,12.27c-.19,6.6-7.82-.14-9.49-2.05-4.73-7-6-16.13-7.56-24.25-1.29-6.68.89-12.09,7.72-14.16,4.81-1.45,10-1.59,10.34,4.67.46,7.75-.41,15.77-.64,23.52m.49-28.2c-4.37-4.94-15.15.34-17.69,4.51-2.75,4.53-.57,11.36.39,15.89,1.36,6.35,2.71,12.92,6.42,18.37l0,0,0,0a16.44,16.44,0,0,0,9.24,5.57c2.39.4,1.47-7.15,1.5-8,.22-7.5.9-15,1.07-22.49C194.43,273.54,195.91,264.25,193.41,261.44Z" transform="translate(-107.77 -71.89)"/><path d="M197.67,266.12c.37-6.26,5.53-6.12,10.34-4.67,6.84,2.07,9,7.48,7.72,14.16-1.57,8.12-2.83,17.28-7.56,24.25-1.67,1.91-9.3,8.65-9.49,2.05q-.19-6.14-.37-12.27c-.23-7.75-1.1-15.77-.64-23.52m.24,31.7c0,.87-.89,8.42,1.51,8a16.51,16.51,0,0,0,9.24-5.57l0,0,0,0c3.71-5.45,5.06-12,6.42-18.37,1-4.53,2.53-11,.39-15.89-1.85-4.17-12.76-9.42-17.55-4.46-2.71,2.81-1.22,10.39-1.12,13.84" transform="translate(-107.77 -71.89)"/></g></svg>