<?xml version="1.0" encoding="utf-8"?>
<!-- Generator: Adobe Illustrator 26.0.1, SVG Export Plug-In . SVG Version: 6.00 Build 0)  -->
<svg version="1.1" id="Layer_1" xmlns="http://www.w3.org/2000/svg" xmlns:xlink="http://www.w3.org/1999/xlink" x="0px" y="0px"
	 viewBox="0 0 432 648" style="enable-background:new 0 0 432 648;" xml:space="preserve">
<style type="text/css">
	.st0{fill:#FFFFFF;}
	.st1{fill:#E92A2A;}
	.st2{fill:#D52626;}
	.st3{fill:#9A1A1C;}
	.st4{fill:#8D1819;}
	.st5{fill:#A89FA8;}
	.st6{fill:#998F99;}
	.st7{fill:#E9E7E9;}
</style>
<g>
	<g>
		<g id="Front_00000151507887526342002210000009010880971492698047_">
			<g>
				<g>
					<g>
						<g>
							<path class="st0" d="M285.53,259.2v-8.56c0-6.18-3.43-12.78-5.56-16.28c2.11-7.07,2.14-23.98,0.99-31.83
								c-0.7-4.77-4.02-8.66-5.66-11.15c0.03-0.19,0.06-0.38,0.1-0.58c0.9-5.77-3.01-19.92-5.37-25.89
								c-1.56-3.96-4.82-5.46-7.43-6.67c-1.41-0.65-2.64-1.21-3.33-2.02c-1.77-2.06-3.52-2.62-5.07-3.12
								c-0.41-0.13-0.8-0.26-1.18-0.41c-0.6-0.24-1.12-0.72-1.92-1.44c-1.36-1.23-3.41-3.09-7.79-5.64c-2.41-1.4-5.8-3.02-9.38-4.74
								c-5.88-2.81-12.74-6.06-14.37-8.08c-1.49-1.84-1.65-7.67-1.67-9.58c0.71-1.8,0.79-4.65,0.76-6.3
								c0.3,0.14,0.66,0.21,1.09,0.16c1.46-0.18,2.84-2.46,4.48-5.42c0.46-0.83,0.9-1.62,1.23-2.09c1.42-2.03,1.11-6.42,0.07-9.71
								c-0.3-0.96-0.82-1.52-1.53-1.65c-0.98-0.18-2.05,0.56-2.82,1.27c0.15-4.1,0.09-15.64-4.64-21.32
								c-4.08-4.89-12.23-6.11-15.33-6.4l-1.22,0c-3.09,0.29-11.25,1.51-15.33,6.4c-4.74,5.68-4.79,17.22-4.64,21.32
								c-0.76-0.7-1.84-1.44-2.81-1.27c-0.71,0.13-1.23,0.69-1.53,1.65c-1.04,3.29-1.35,7.68,0.07,9.71
								c0.33,0.48,0.77,1.26,1.23,2.09c1.64,2.96,3.01,5.24,4.48,5.42c0.43,0.05,0.79-0.02,1.09-0.16c-0.03,1.82,0.07,5.09,1,6.82
								c0,0,0,0.01,0.01,0.01c-0.04,1.35-0.33,7.15-1.9,9.1c-1.63,2.02-8.29,5.21-14.17,8.02c-3.59,1.72-6.98,3.34-9.38,4.74
								c-4.38,2.54-6.43,4.4-7.79,5.64c-0.8,0.73-1.33,1.21-1.92,1.44c-0.38,0.15-0.77,0.28-1.18,0.41
								c-1.55,0.5-3.31,1.06-5.07,3.12c-0.69,0.81-1.91,1.37-3.33,2.02c-2.62,1.21-5.87,2.71-7.43,6.67
								c-2.35,5.97-6.27,20.12-5.37,25.89c0.06,0.41,0.13,0.82,0.21,1.22c-1.66,2.48-4.64,6.08-5.33,10.73
								c-1.14,7.8-1.27,24.07,0.8,31.2c-2.1,3.38-5.82,10.26-5.82,16.7v8.56c-0.59,0.96-3.68,6.54-3.02,17.44
								c0.25,4.18,0.72,8.03,1.22,12.1c0.88,7.26,3.84,15.48,3.5,25.2c-0.52,14.81-0.31,28.94,0.27,31.67
								c0.54,2.5,5.16,14.68,5.36,15.19l0.17,0.45l0.47-0.12c0.03-0.01,2.8-0.8,3.04-4.46l1.48,1.69l0.39-0.54
								c0.09-0.12,1.39-1.97,1.76-4.26c0.82-1.39,2.53-4.96,0.55-7.99c-2.26-3.45-5.99-10.57-6.03-10.64l0,0
								c-0.01-0.24-0.03-0.44-0.06-0.59c0.55-4.23,0-5.77,1.58-6.37c0.13-0.05,0.2-0.03,0.28,0.02c1.15,0.74,1.41,2.71,1.69,4.79
								c0.26,1.95,0.54,3.97,1.53,5.54c1.17,1.84,2.96,4.23,5.06,2.48c1.38-1.15,0.17-9.02-0.16-11.36
								c-0.42-2.91-0.42-3.73-1.57-8.35c-0.73-2.94-1.17-4.47-1.37-5.83c-0.1-1.12,0.19-5.79,0.62-9.21
								c0.49-3.92,2.91-10.33,5.48-17.12c2.93-7.75,5.96-15.77,6.15-20.42c0.3-7.21-0.65-10.79-0.99-11.82
								c0.61-0.73,2.3-2.98,2.76-5.9c0.54-3.39,0.37-9.28,0.35-9.42c0.02-0.1,1.8-10.27,4.73-14.92c2.23-3.54,5.51-10.47,6.9-14.09
								c0.51,3.58,1.07,6.79,1.65,8.51c0.72,2.17,1.65,4.59,2.54,6.92c1.27,3.33,2.47,6.48,2.78,8.12
								c0.44,2.33,0.13,19.45,0.03,25.08c-0.02,1.2-0.04,2-0.04,2.2c0,0.01,0,0.01-0.01,0.02c-0.11,0.11-0.19,0.3-0.22,0.5
								c-0.22,0.41-0.58,0.97-0.91,1.49c-1.77,2.79-4.74,7.46-4.17,12.07c0.64,5.14,1.42,7.29,1.7,7.93
								c-0.58,1.85-4.88,15.91-4.22,26.05c0.23,3.54-1.16,9.06-2.92,16.04c-2.27,9-6.56,29.74-7.51,42.68
								c-1.41,19.13,4.08,41.03,5.59,52.86c0.32,2.53,0.54,4.21,0.57,4.72c0.07,1.25-0.04,2.11-0.18,3.11
								c-0.18,1.36-0.39,2.9-0.18,5.79c0.02,0.29,0.07,0.61,0.14,0.95c-0.74,1.66-7.26,16.62-7.43,26.39
								c-0.08,4.77,1.44,15.36,3.06,26.56c1.46,10.15,2.86,20.63,3.3,27.11l0.01,0.17c0.04,0.54,0.07,1.06,0.09,1.54
								c0.07,3.47-0.26,10.38-0.49,11.06c-0.52,1.59-1.01,3.09-0.97,5.43c-0.14,0.14-0.28,0.27-0.42,0.39
								c-1.92,1.64-2.7,3.85-3.45,5.98c-0.25,0.7-0.48,1.36-0.75,1.99c-1.03,2.42-10.21,9.99-11.47,10.78
								c-0.99,0.62-3.49,4.29-3.49,4.29c-0.94,1-0.65,2.66-0.46,3.75c0.03,0.19,0.07,0.37,0.09,0.53c0.08,0.58,0.26,0.98,0.4,1.31
								c0.13,0.28,0.22,0.49,0.22,0.74c0.01,0.34-0.05,0.75-0.1,1.14c-0.05,0.35-0.1,0.72-0.11,1.06c-0.01,0.61,0.02,2.08,0.61,2.57
								c0.34,0.28,0.66,0.48,1.13,0.56c-0.05,0.15-0.12,0.35-0.2,0.59c-0.37,1.08,0.45,2.19,1.05,2.63
								c0.43,0.32,1.11,0.35,1.58,0.32c0,0.09,0.02,0.15,0.03,0.2c0.07,0.77,0.33,1.83,1.31,2.29c1,0.47,1.5,0.36,2.09,0.08
								c1.14,1.58,3.46,2.54,5.55,2.34c0.27-0.03,0.54-0.07,0.8-0.14c2.15-0.55,4.85-2.4,5.85-4.89c0.8-1.99,1.97-2.65,3.01-3.1
								c4.29-1.35,6.63-6.13,7.25-10.56c0.55-3.91,3.06-8.18,3.71-9.06c2.99-1.26,4.77-2.84,6.3-5.09c1.61-2.36,1.67-3.87,1.22-5.83
								c-0.43-1.86-1.59-10.63-2-12c-0.35-1.19-0.52-2.41-0.8-3.9c-0.87-4.63,4.87-28.5,6.56-33.15c0.65-1.78,1.57-3.73,2.65-5.98
								c1.82-3.82,4.09-8.57,5.9-14.58c2.74-9.1-1.59-29.23-2.11-31.61c1.59-2.79,3.01-5.68,4.23-8.63c0.98-2.36,1.9-4.81,2.37-7.33
								c0.68-3.72,1.28-10.77,1.96-18.93c0.61-7.21,1.29-15.38,2.13-21.9c1.03-8.05,3.17-17.14,4.88-24.44
								c1.17-5,2.18-9.32,2.51-11.92c0.62-4.87,0.01-9.71-0.34-11.83c0.37,0.04,1.49,0.05,1.76,0c-0.34,2.12-0.96,6.97-0.34,11.84
								c0.33,2.6,1.34,6.92,2.51,11.92c1.71,7.3,3.84,16.39,4.88,24.44c0.84,6.52,1.53,14.69,2.13,21.9
								c0.69,8.16,1.28,15.21,1.96,18.93c0.46,2.52,1.39,4.97,2.37,7.33c1.23,2.95,2.64,5.84,4.23,8.63
								c-0.53,2.38-4.85,22.51-2.11,31.61c1.81,6.01,4.08,10.76,5.9,14.58c1.07,2.25,2,4.2,2.65,5.98
								c1.69,4.65,7.43,28.52,6.56,33.15c-0.28,1.49-0.44,2.7-0.8,3.9c-0.4,1.36-1.57,10.13-2,12c-0.45,1.96-0.39,3.46,1.22,5.83
								c1.53,2.25,3.31,3.84,6.3,5.09c0.65,0.87,3.16,5.14,3.71,9.06c0.62,4.44,2.96,9.21,7.25,10.56c1.04,0.45,2.21,1.11,3.01,3.1
								c1,2.48,3.7,4.34,5.85,4.89c0.26,0.07,0.53,0.11,0.8,0.14c2.09,0.2,4.41-0.76,5.55-2.34c0.58,0.28,1.09,0.39,2.09-0.08
								c1.07-0.51,1.28-1.72,1.33-2.49c0.47,0.03,1.16,0,1.59-0.32c0.6-0.44,1.41-1.55,1.05-2.63c-0.08-0.22-0.14-0.41-0.19-0.56
								l0,0c0-0.01-0.01-0.02-0.01-0.04c0.47-0.09,0.79-0.28,1.13-0.56c0.59-0.49,0.63-1.96,0.61-2.57
								c-0.01-0.34-0.06-0.7-0.11-1.06c-0.05-0.39-0.11-0.8-0.1-1.14c0-0.25,0.1-0.46,0.22-0.74c0.14-0.32,0.32-0.72,0.4-1.31
								c0.02-0.16,0.05-0.34,0.09-0.53c0.19-1.09,0.48-2.74-0.46-3.75c0,0-2.5-3.67-3.49-4.29c-1.26-0.79-10.44-8.36-11.47-10.78
								c-0.27-0.63-0.5-1.29-0.75-1.99c-0.75-2.14-1.53-4.34-3.45-5.98c-0.14-0.12-0.28-0.25-0.42-0.39
								c0.04-2.34-0.45-3.84-0.97-5.43c-0.22-0.68-0.56-7.59-0.49-11.06c0.02-0.48,0.05-1,0.09-1.54c0.01-0.06,0.02-0.12,0.03-0.17
								l-0.02,0c0.44-6.48,1.84-16.96,3.3-27.11c1.62-11.21,3.14-21.79,3.06-26.56c-0.17-9.7-6.6-24.52-7.41-26.35
								c0.09-0.41,0.15-0.79,0.17-1.14c0.21-2.89,0-4.43-0.18-5.79c-0.13-1-0.25-1.86-0.18-3.11c0.03-0.51,0.24-2.18,0.57-4.72
								c1.51-11.83,7.01-33.73,5.59-52.86c-0.95-12.93-5.24-33.67-7.51-42.68c-1.76-6.99-3.15-12.5-2.92-16.04
								c0.66-10.14-3.64-24.2-4.22-26.05c0.28-0.65,1.06-2.79,1.7-7.93c0.57-4.61-2.39-9.28-4.17-12.07
								c-0.52-0.82-1.11-1.75-1.14-2.01c0-0.2-0.01-0.99-0.04-2.2c-0.1-5.63-0.41-22.75,0.03-25.08c0.31-1.64,1.51-4.79,2.78-8.12
								c0.89-2.33,1.81-4.75,2.54-6.92c0.55-1.66,1.08-4.75,1.57-8.19c0-0.01,0-0.01,0-0.02c1.42,3.54,4.62,10.04,6.68,13.69
								c3.63,6.44,4.88,16.93,5.08,24.34c0.08,2.95,2.15,5.17,2.76,5.9c-0.34,1.04-1.29,4.61-0.99,11.82
								c0.19,4.65,3.22,12.67,6.15,20.42c2.57,6.79,4.99,13.2,5.48,17.12c0.35,2.83,0.7,4.66,0.72,6.05
								c0.02,1.34,0.01,2.68-0.12,4.02c-0.12,1.24-0.64,2.7-1.27,5.21c-1.15,4.62-1.15,5.44-1.57,8.35
								c-0.33,2.33-1.54,10.21-0.16,11.36c2.09,1.74,3.89-0.64,5.06-2.48c0.99-1.57,1.27-3.59,1.53-5.54
								c0.28-2.09,0.55-4.05,1.69-4.79c0.08-0.05,0.15-0.07,0.28-0.02c1.58,0.59,1.02,2.13,1.58,6.37
								c-0.03,0.15-0.05,0.35-0.06,0.59l0,0c-0.04,0.07-3.77,7.19-6.03,10.64c-1.99,3.03-0.28,6.6,0.55,7.99
								c0.37,2.29,1.67,4.14,1.76,4.26l0.39,0.54l1.48-1.69c0.24,3.66,3.01,4.45,3.04,4.46l0.47,0.12l0.17-0.45
								c0.2-0.52,4.82-12.69,5.36-15.19c0.59-2.73,0.8-16.86,0.27-31.67c-0.34-9.72,2.62-17.94,3.5-25.2
								c0.5-4.07,0.96-7.92,1.22-12.1C289.21,265.75,286.12,260.16,285.53,259.2z"/>
						</g>
					</g>
				</g>
			</g>
		</g>
	</g>
	<g>
		<g id="Extensor__x28_fore_arm_lower_x29__00000059990010255944087630000014462349753901457052_">
			<g>
				<path class="st1" d="M269.89,316.72c8-10.1,14.82-21.08,16.97-33.88l0.01-0.1c0.21-1.93,0.64-3.95,0.77-5.98
					c0.55-9.02-1.85-14.76-2.78-16.6c-1.05,7.66-4.25,15.14-7.37,22.2c-4.1,9.29-6.68,18.77-7.39,28.76c0.06,1.6,0,2.94-0.19,4.17
					v0.01v0.02C269.9,315.79,269.89,316.25,269.89,316.72"/>
				<path class="st2" d="M270.12,312.48c0-0.43,0-0.89-0.02-1.36c0.08-1.06,0.17-2.11,0.29-3.16c0.02-0.05,0.03-0.1,0.05-0.15
					c-0.12,1.05-0.22,2.11-0.3,3.17c-0.01,0.04-0.02,0.07-0.03,0.11c0.01-0.02,0.02-0.03,0.03-0.05c0,0.03-0.01,0.07-0.01,0.1v0.02
					c0.01,0.44,0.02,0.87,0.02,1.28C270.14,312.45,270.13,312.47,270.12,312.48 M273.91,305.31c-0.17-0.13-0.34-0.27-0.49-0.43
					c0.47-0.85,0.93-1.7,1.4-2.53c5.55-10.04,11.29-20.41,12.47-32.09c0.1,1.08,0.16,2.26,0.16,3.52
					c-1.84,10.37-7.02,19.73-12.03,28.82C274.92,303.49,274.42,304.4,273.91,305.31 M272.62,303.74c-0.13-0.27-0.25-0.56-0.35-0.87
					c1.34-3.34,2.85-6.62,4.32-9.84c4.48-9.76,9.1-19.83,8.89-30.92c0.21,0.54,0.43,1.18,0.65,1.92
					c-0.31,10.41-4.68,19.93-8.91,29.17C275.64,296.64,274.03,300.16,272.62,303.74"/>
				<path class="st3" d="M269.92,316.66c0-0.42,0.01-0.85,0.02-1.27c0.13-0.9,0.2-1.88,0.21-2.96c1.2-2.39,2.48-4.78,3.77-7.12
					c0.65,0.48,1.42,0.73,2.28,0.73c0.46,0,0.95-0.08,1.45-0.23C275.31,309.56,272.68,313.16,269.92,316.66 M270.14,311.03
					c0-0.02,0-0.04,0-0.06c0.69-2.45,1.54-4.86,2.48-7.24c0.22,0.44,0.49,0.82,0.8,1.14C272.31,306.91,271.2,308.97,270.14,311.03
					 M270.44,307.81c0.35-2.98,0.86-5.91,1.53-8.81c-0.06,0.99-0.05,1.97,0.1,2.92c0.05,0.33,0.12,0.65,0.21,0.95
					C271.62,304.5,271,306.14,270.44,307.81"/>
				<path class="st4" d="M270.15,312.43c0-0.41,0-0.83-0.02-1.28v-0.02c0-0.03,0.01-0.07,0.01-0.1c1.06-2.07,2.17-4.13,3.28-6.16
					c0.16,0.16,0.32,0.3,0.49,0.43C272.63,307.66,271.35,310.04,270.15,312.43 M270.14,310.98c0.08-1.06,0.18-2.12,0.3-3.17
					c0.56-1.66,1.18-3.31,1.83-4.94c0.1,0.31,0.21,0.6,0.35,0.87C271.68,306.12,270.84,308.53,270.14,310.98"/>
			</g>
			<g>
				<path class="st1" d="M131.28,316.72c-8-10.1-14.82-21.08-16.97-33.88l-0.01-0.1c-0.21-1.93-0.38-3.88-0.5-5.9
					c-0.55-9.02,1.56-14.71,2.49-16.56c1.05,7.66,4.28,15.03,7.4,22.08c4.1,9.29,6.68,18.77,7.39,28.76c-0.06,1.6,0,2.94,0.19,4.17
					v0.01v0.02C131.27,315.79,131.28,316.25,131.28,316.72"/>
				<path class="st2" d="M127.23,305.23c-0.5-0.91-1-1.82-1.5-2.72c-5.02-9.09-10.19-18.45-12.03-28.82
					c0.01-1.26,0.06-2.43,0.16-3.52c1.18,11.68,6.92,22.05,12.47,32.09c0.46,0.84,0.93,1.68,1.4,2.53
					C127.57,304.95,127.4,305.1,127.23,305.23 M128.52,303.65c-1.41-3.58-3.02-7.1-4.6-10.55c-4.24-9.23-8.61-18.76-8.91-29.17
					c0.22-0.74,0.44-1.38,0.65-1.92c-0.21,11.08,4.41,21.16,8.89,30.92c1.48,3.22,2.98,6.5,4.32,9.84
					C128.77,303.09,128.66,303.38,128.52,303.65"/>
				<path class="st3" d="M131.25,316.66c-2.76-3.5-5.39-7.1-7.73-10.85c0.5,0.16,0.99,0.23,1.45,0.23c0.85,0,1.63-0.26,2.28-0.73
					c1.29,2.34,2.57,4.73,3.77,7.12c0.01,1.08,0.08,2.06,0.21,2.96C131.24,315.81,131.25,316.24,131.25,316.66 M131.03,311.03
					c-1.06-2.07-2.17-4.13-3.28-6.16c0.31-0.32,0.58-0.7,0.8-1.14c0.94,2.38,1.78,4.79,2.48,7.24
					C131.03,311,131.03,311.02,131.03,311.03 M130.72,307.81c-0.56-1.66-1.18-3.31-1.83-4.94c0.09-0.3,0.16-0.61,0.21-0.95
					c0.14-0.95,0.15-1.93,0.1-2.92C129.86,301.9,130.38,304.83,130.72,307.81"/>
				<path class="st4" d="M131.02,312.43c-1.2-2.39-2.48-4.78-3.77-7.12c0.17-0.13,0.34-0.27,0.49-0.43
					c1.11,2.03,2.22,4.09,3.28,6.16c0,0.03,0.01,0.07,0.01,0.1v0.02C131.02,311.6,131.02,312.02,131.02,312.43 M131.03,310.98
					c-0.69-2.45-1.54-4.86-2.48-7.24c0.13-0.27,0.25-0.56,0.35-0.87c0.66,1.63,1.27,3.28,1.83,4.94
					C130.85,308.86,130.95,309.91,131.03,310.98"/>
			</g>
		</g>
		<g id="Front_00000034068901412220358480000006465129443355075725_">
			<path class="st5" d="M200.57,139.99c-0.88-0.07-1.76-0.26-2.58-0.56c-0.17-1.53-0.35-3.1-0.54-4.7c0.43,0.1,0.89,0.18,1.35,0.24
				c0.36,0.05,0.72,0.08,1.06,0.11h1.42c0.33-0.03,0.68-0.06,1.04-0.11c0.45-0.06,0.89-0.13,1.32-0.23
				c-0.19,1.61-0.37,3.17-0.54,4.71C202.29,139.73,201.43,139.92,200.57,139.99 M203.78,139.17c0.17-1.54,0.35-3.08,0.53-4.62
				c0.08-0.02,0.15-0.05,0.22-0.08c0.51-0.18,1.46-0.76,2.63-1.57c-0.13,1.6-0.38,3.17-0.7,4.73
				C205.62,138.23,204.72,138.76,203.78,139.17 M197.3,139.14c-0.94-0.42-1.84-0.95-2.69-1.56c-0.32-1.55-0.57-3.13-0.69-4.73
				c1.2,0.83,2.17,1.43,2.68,1.61c0.06,0.02,0.11,0.04,0.17,0.06C196.95,136.07,197.12,137.61,197.3,139.14 M207.27,137.04
				c0.28-1.52,0.49-3.06,0.58-4.62c1.49-1.07,3.23-2.42,4.84-3.76c-0.5,1.69-0.99,3.25-1.48,4.71c-0.49,0.55-1,1.08-1.54,1.58
				C208.92,135.66,208.12,136.38,207.27,137.04 M193.81,136.99c-0.83-0.65-1.61-1.35-2.34-2.04c-0.53-0.51-1.05-1.04-1.54-1.58
				c-0.49-1.46-0.98-3.02-1.48-4.71c1.59,1.33,3.31,2.66,4.79,3.72C193.32,133.93,193.53,135.47,193.81,136.99"/>
			<path class="st6" d="M194.61,137.59c-0.27-0.19-0.54-0.39-0.8-0.6c-0.28-1.52-0.49-3.06-0.58-4.61c0.24,0.17,0.47,0.33,0.69,0.49
				C194.04,134.46,194.29,136.03,194.61,137.59"/>
			<path class="st6" d="M197.99,139.43c-0.12-0.04-0.23-0.09-0.35-0.13c-0.12-0.05-0.23-0.1-0.34-0.15
				c-0.17-1.54-0.35-3.07-0.53-4.61c0.21,0.07,0.44,0.13,0.68,0.19C197.63,136.33,197.81,137.89,197.99,139.43"/>
			<path class="st6" d="M206.47,137.63c0.32-1.56,0.57-3.13,0.7-4.73c0.22-0.15,0.45-0.32,0.69-0.49c-0.09,1.56-0.3,3.1-0.58,4.62
				C207.01,137.24,206.74,137.44,206.47,137.63"/>
			<path class="st6" d="M203.09,139.45c0.17-1.54,0.35-3.1,0.54-4.71c0.23-0.05,0.46-0.11,0.68-0.18c-0.18,1.54-0.36,3.08-0.53,4.62
				c-0.1,0.04-0.19,0.08-0.29,0.12C203.36,139.35,203.23,139.4,203.09,139.45"/>
			<path class="st7" d="M198.84,170.27c-0.11-0.21-0.23-0.41-0.35-0.61c-0.06-0.09-0.12-0.18-0.18-0.27c0.5-7.84-0.1-15.1-1.8-21.6
				c-0.25-0.96-0.51-1.91-0.77-2.86c-0.71-2.59-1.43-5.24-1.93-7.94c0.26,0.21,0.53,0.41,0.8,0.6c0.43,2.11,1,4.19,1.55,6.23
				c0.69,2.54,1.4,5.16,1.86,7.82c1.06,6.18,1.35,12.22,0.91,18.44C198.92,170.15,198.89,170.22,198.84,170.27"/>
			<path class="st7" d="M199.98,174.55c-0.08-0.8-0.2-1.58-0.4-2.32c0.51-5.34-0.03-10.78-0.55-16.07
				c-0.09-0.87-0.17-1.74-0.25-2.61c-0.44-4.73-0.94-9.56-1.48-14.41c0.11,0.05,0.23,0.1,0.34,0.15c0.12,0.05,0.23,0.09,0.35,0.13
				c0.65,5.8,1.19,11.12,1.63,16.14c0.06,0.69,0.12,1.39,0.19,2.08C200.31,163.19,200.83,168.91,199.98,174.55"/>
			<path class="st7" d="M202.88,169.53c-0.51-7.87-0.01-15.22,1.69-21.74c0.25-0.96,0.51-1.91,0.77-2.86
				c0.71-2.58,1.42-5.21,1.92-7.89c-0.26,0.2-0.53,0.4-0.8,0.59c-0.43,2.1-0.99,4.16-1.54,6.19c-0.69,2.54-1.4,5.16-1.86,7.82
				c-1.06,6.18-1.21,12.79-0.77,19.01L202.88,169.53z"/>
			<path class="st7" d="M201.26,174.19c-0.9-5.71-0.5-10.94,0.02-16.56c0.06-0.69,0.13-1.38,0.19-2.07
				c0.44-5.02,0.98-10.34,1.63-16.12c0.14-0.05,0.27-0.1,0.4-0.15c0.1-0.04,0.19-0.08,0.29-0.12c-0.54,4.85-1.04,9.67-1.48,14.39
				c-0.08,0.86-0.17,1.73-0.25,2.6c-0.53,5.34-0.98,11.1-0.45,16.5c-0.19,0.76-0.02,0.6-0.09,1.43L201.26,174.19z"/>
			<g>
				<path class="st5" d="M231.81,446.32c0.45,0,0.89-0.03,1.34-0.11c2.28-0.38,3.98-1.68,5.44-3.27c-0.01,0-0.02,0-0.02,0
					l-0.21,0.01c-3.05,0-13.42-8.44-15.74-11.03c0,0,13.51,9.97,15.7,9.97c0.03,0,0.06,0,0.08-0.01c1.83-0.28,7.08-8.89,7.19-9.07h0
					c0,0-0.08,0.14-0.23,0.38c-1.74,1.9-4.23,3.19-6.81,3.19c-0.14,0-0.27,0-0.41-0.01c-2.83-0.15-5.59-2.09-6.29-4.8
					c-0.52-2.03,0.11-4.21,1.23-5.98c1.12-1.77,2.7-3.21,4.26-4.63c-3.25,1.08-4.77,1.77-6.5,2.96c-1.26,0.87-5.24,2.73-8.17,2.73
					c-1.1,0-2.05-0.26-2.64-0.94c-0.6-0.69-1.2-1.37-1.68-2.14c-0.26-0.43-0.53-0.86-0.79-1.29c-0.4-0.02-0.8-0.07-1.2-0.15
					c-1.03-0.19-2.03-0.56-2.99-1.17c0.13,0.95,0.25,1.79,0.38,2.5c0.82,4.47,2.88,8.8,4.95,12.81c0.34,0.65,0.67,1.33,1.02,2.01
					c0.92,1.81,1.92,3.66,3.2,5.14l0.1,0.11c0.8,0.35,1.59,0.68,2.31,1C227.38,445.48,229.58,446.32,231.81,446.32"/>
				<path class="st5" d="M169.56,446.32c-0.45,0-0.89-0.03-1.34-0.11c-2.28-0.38-3.98-1.68-5.44-3.27c0.01,0,0.02,0,0.02,0
					l0.21,0.01c3.05,0,13.42-8.44,15.74-11.03c0,0-13.51,9.97-15.7,9.97c-0.03,0-0.06,0-0.08-0.01c-1.83-0.28-7.08-8.89-7.19-9.07h0
					c0,0,0.08,0.14,0.23,0.38c1.74,1.9,4.23,3.19,6.81,3.19c0.14,0,0.27,0,0.41-0.01c2.83-0.15,5.59-2.09,6.29-4.8
					c0.52-2.03-0.11-4.21-1.23-5.98c-1.12-1.77-2.7-3.21-4.26-4.63c3.25,1.08,4.77,1.77,6.5,2.96c1.26,0.87,5.24,2.73,8.17,2.73
					c1.1,0,2.05-0.26,2.64-0.94c0.6-0.69,1.2-1.37,1.68-2.14c0.26-0.43,0.53-0.86,0.79-1.29c0.4-0.02,0.8-0.07,1.2-0.15
					c1.03-0.19,2.03-0.56,2.99-1.17c-0.13,0.95-0.25,1.79-0.38,2.5c-0.82,4.47-2.88,8.8-4.95,12.81c-0.34,0.65-0.67,1.33-1.02,2.01
					c-0.92,1.81-1.92,3.66-3.2,5.14l-0.1,0.11c-0.8,0.35-1.59,0.68-2.31,1C173.99,445.48,171.78,446.32,169.56,446.32"/>
				<g>
					<g>
						<path d="M194.31,239.68c-3.31,0.51-6.33,1.66-9.47,2.74c-8.44,2.91-5.44-7.96-3.13-11.69c2.68-4.31,8.1-6.78,12.99-7.68
							c5.85-1.08,4.52,5.83,4.43,8.44C199.02,235.01,199.32,239.03,194.31,239.68 M199.78,231.54c0.07-1.93,0.19-3.84,0.04-5.76
							c-0.52-6.73-10.94-1.76-13.71-0.09c-5.35,3.23-8.2,9.5-7.46,15.54c0.15,1.23,1.13,2.85,2.64,2.68
							c4.53-0.51,8.62-2.91,13.15-3.61c2.36-0.3,3.82-0.73,4.9-2.83C200.13,235.91,199.72,233.21,199.78,231.54"/>
						<path d="M206.66,239.68c-5.08-0.66-4.78-4.68-4.9-8.2c-0.1-2.61-1.46-9.52,4.46-8.43c4.96,0.92,10.46,3.4,13.18,7.71
							c2.35,3.73,5.41,14.61-3.14,11.68C213.07,241.35,210.01,240.2,206.66,239.68 M201.1,231.53c0.06,1.67-0.34,4.37,0.47,5.93
							c1.1,2.1,2.57,2.53,4.97,2.84c4.59,0.71,8.73,3.12,13.32,3.64c1.53,0.17,2.51-1.45,2.66-2.68c0.74-6.04-2.17-12.32-7.59-15.56
							c-2.81-1.68-13.38-6.67-13.89,0.06C200.9,227.7,201.03,229.61,201.1,231.53"/>
						<path d="M192.68,220.11c-2.79,1.66-12.71,8.13-13.44,1.48c-0.63-5.75,1.06-9.82,6.37-12.42c3.24-1.58,8.4-4.61,11.97-4.01
							c2.45,1.44,1.47,6.18,1.06,8.33C198.02,216.78,195.35,218.52,192.68,220.11 M197.98,204.58c-0.76-0.32-1.74-0.2-2.51-0.08
							c-1.32,0.2-2.57,0.71-3.78,1.26c-0.32,0.14-0.64,0.29-0.96,0.44c-2.77,1.29-6.17,2.21-8.57,4.18
							c-2.45,2.01-3.42,4.24-3.72,7.36c-0.16,1.59-0.5,6.77,1,8.04c1.78,1.51,3.91-0.22,5.69-1.06c3.67-1.74,8.54-3.46,11.47-6.36
							c2.3-2.28,3.63-6.2,3.53-9.4c-0.04-1.45-0.54-3.38-1.84-4.21L197.98,204.58"/>
						<path d="M207.91,220.14c-2.67-1.59-5.34-3.34-5.96-6.63c-0.4-2.15-1.39-6.89,1.06-8.33c3.57-0.6,8.73,2.43,11.97,4.01
							c5.31,2.6,7.01,6.67,6.37,12.42C220.61,228.27,210.69,221.79,207.91,220.14 M202.6,204.61l-0.3,0.16
							c-1.3,0.83-1.8,2.76-1.84,4.21c-0.1,3.2,1.23,7.12,3.53,9.4c2.93,2.91,7.8,4.62,11.47,6.36c1.78,0.84,3.91,2.57,5.69,1.06
							c1.51-1.27,1.16-6.45,1-8.04c-0.31-3.12-1.27-5.35-3.72-7.36c-2.39-1.97-5.8-2.89-8.57-4.18c-0.32-0.15-0.64-0.3-0.96-0.44
							c-1.21-0.55-2.46-1.06-3.78-1.26C204.34,204.41,203.36,204.29,202.6,204.61"/>
						<g>
							<path d="M162.92,442.96l-0.21-0.01c-0.01,0-0.02,0-0.02,0c0,0-0.01-0.01-0.01-0.01c-2.65-0.47-7.53-8.92-7.53-10.11h0.53
								c0.11,0.18,5.36,8.79,7.19,9.07c0.03,0,0.05,0.01,0.08,0.01c2.2,0,15.7-9.97,15.7-9.97
								C176.34,434.52,165.97,442.96,162.92,442.96"/>
							<path d="M238.28,442.96l0.21-0.01c0.01,0,0.02,0,0.02,0c0,0,0.01-0.01,0.01-0.01c2.65-0.47,7.53-8.92,7.53-10.11h-0.53
								c-0.11,0.18-5.36,8.79-7.19,9.07c-0.03,0-0.05,0.01-0.08,0.01c-2.2,0-15.7-9.97-15.7-9.97
								C224.85,434.52,235.23,442.96,238.28,442.96"/>
							<path d="M285.53,259.2v-8.56c0-6.18-3.43-12.78-5.56-16.28c2.11-7.07,2.14-23.98,0.99-31.83c-0.7-4.77-4.02-8.66-5.66-11.15
								c0.03-0.19,0.06-0.38,0.1-0.58c0.9-5.77-3.01-19.92-5.37-25.89c-1.56-3.96-4.82-5.46-7.43-6.67
								c-1.41-0.65-2.64-1.21-3.33-2.02c-1.77-2.06-3.52-2.62-5.07-3.12c-0.41-0.13-0.8-0.26-1.18-0.41
								c-0.6-0.24-1.12-0.72-1.92-1.44c-1.36-1.23-3.41-3.09-7.79-5.64c-2.41-1.4-5.8-3.02-9.38-4.74
								c-5.88-2.81-12.74-6.06-14.37-8.08c-1.49-1.84-1.65-7.67-1.67-9.58c0.71-1.8,0.79-4.65,0.76-6.3
								c0.3,0.14,0.66,0.21,1.09,0.16c1.46-0.18,2.84-2.46,4.48-5.42c0.46-0.83,0.9-1.62,1.23-2.09c1.42-2.03,1.11-6.42,0.07-9.71
								c-0.3-0.96-0.82-1.52-1.53-1.65c-0.98-0.18-2.05,0.56-2.82,1.27c0.15-4.1,0.09-15.64-4.64-21.32
								c-4.08-4.89-12.23-6.11-15.33-6.4l0-0.09c-0.06,0-0.27,0.01-0.61,0.04c-0.34-0.02-0.55-0.03-0.61-0.04l0,0.09
								c-3.09,0.29-11.25,1.51-15.33,6.4c-4.74,5.68-4.79,17.22-4.64,21.32c-0.76-0.7-1.84-1.44-2.81-1.27
								c-0.71,0.13-1.23,0.69-1.53,1.65c-1.04,3.29-1.35,7.68,0.07,9.71c0.33,0.48,0.77,1.26,1.23,2.09
								c1.64,2.96,3.01,5.24,4.48,5.42c0.43,0.05,0.79-0.02,1.09-0.16c-0.03,1.82,0.07,5.09,1,6.82c0,0,0,0.01,0.01,0.01
								c-0.04,1.35-0.33,7.15-1.9,9.1c-1.63,2.02-8.29,5.21-14.17,8.02c-3.59,1.72-6.98,3.34-9.38,4.74
								c-4.38,2.54-6.43,4.4-7.79,5.64c-0.8,0.73-1.33,1.21-1.92,1.44c-0.38,0.15-0.77,0.28-1.18,0.41
								c-1.55,0.5-3.31,1.06-5.07,3.12c-0.69,0.81-1.91,1.37-3.33,2.02c-2.62,1.21-5.87,2.71-7.43,6.67
								c-2.35,5.97-6.27,20.12-5.37,25.89c0.06,0.41,0.13,0.82,0.21,1.22c-1.66,2.48-4.64,6.08-5.33,10.73
								c-1.14,7.8-1.27,24.07,0.8,31.2c-2.1,3.38-5.82,10.26-5.82,16.7v8.56c-0.59,0.96-3.68,6.54-3.02,17.44
								c0.25,4.18,0.72,8.03,1.22,12.1c0.88,7.26,3.84,15.48,3.5,25.2c-0.52,14.81-0.31,28.94,0.27,31.67
								c0.54,2.5,5.16,14.68,5.36,15.19l0.17,0.45l0.46-0.12c0.03-0.01,2.8-0.8,3.04-4.46l1.48,1.69l0.39-0.54
								c0.09-0.12,1.39-1.97,1.76-4.26c0.82-1.39,2.53-4.96,0.55-7.99c-2.26-3.45-5.99-10.57-6.03-10.64l0,0
								c-0.01-0.24-0.03-0.44-0.06-0.59c0.55-4.23,0-5.77,1.58-6.37c0.13-0.05,0.2-0.03,0.28,0.02c1.15,0.74,1.41,2.71,1.69,4.79
								c0.26,1.95,0.54,3.97,1.53,5.54c1.17,1.84,2.96,4.23,5.06,2.48c1.38-1.15,0.17-9.02-0.16-11.36
								c-0.42-2.91-0.42-3.73-1.57-8.35c-0.73-2.94-1.17-4.47-1.37-5.83c-0.1-1.12,0.19-5.79,0.62-9.21
								c0.49-3.92,2.91-10.33,5.48-17.12c2.93-7.75,5.96-15.77,6.15-20.42c0.3-7.21-0.65-10.79-0.99-11.82
								c0.61-0.73,2.3-2.98,2.76-5.9c0.54-3.39,0.37-9.28,0.35-9.42c0.02-0.1,1.8-10.27,4.73-14.92c2.23-3.54,5.51-10.47,6.9-14.09
								c0.51,3.58,1.08,6.79,1.65,8.51c0.72,2.17,1.65,4.59,2.54,6.92c1.27,3.33,2.47,6.48,2.78,8.12
								c0.44,2.33,0.13,19.45,0.03,25.08c-0.02,1.2-0.04,2-0.04,2.2c0,0.01,0,0.01-0.01,0.02c-0.11,0.11-0.19,0.3-0.22,0.5
								c-0.22,0.41-0.58,0.97-0.91,1.49c-1.77,2.79-4.74,7.46-4.16,12.07c0.64,5.14,1.42,7.28,1.7,7.93
								c-0.58,1.85-4.88,15.91-4.22,26.05c0.23,3.54-1.16,9.06-2.92,16.04c-2.27,9-6.56,29.74-7.51,42.68
								c-1.41,19.13,4.08,41.03,5.59,52.86c0.32,2.53,0.54,4.21,0.57,4.72c0.07,1.25-0.04,2.11-0.17,3.11
								c-0.18,1.36-0.39,2.9-0.18,5.79c0.02,0.29,0.07,0.61,0.14,0.95c-0.74,1.66-7.26,16.62-7.43,26.39
								c-0.08,4.77,1.44,15.36,3.06,26.56c1.46,10.15,2.86,20.63,3.3,27.11l0.01,0.17c0.04,0.54,0.07,1.06,0.09,1.54
								c0.07,3.47-0.26,10.38-0.49,11.06c-0.52,1.59-1,3.09-0.97,5.43c-0.14,0.14-0.28,0.27-0.42,0.39
								c-1.92,1.64-2.69,3.85-3.45,5.98c-0.25,0.7-0.48,1.36-0.75,1.99c-1.03,2.42-10.21,9.99-11.47,10.78
								c-0.99,0.62-3.49,4.29-3.49,4.29c-0.94,1-0.65,2.66-0.46,3.75c0.03,0.19,0.07,0.37,0.09,0.53c0.08,0.58,0.26,0.98,0.4,1.31
								c0.13,0.28,0.22,0.49,0.22,0.74c0.01,0.34-0.05,0.75-0.1,1.14c-0.05,0.35-0.1,0.72-0.11,1.06c-0.01,0.61,0.02,2.08,0.61,2.57
								c0.34,0.28,0.66,0.48,1.13,0.56c-0.05,0.15-0.12,0.35-0.2,0.59c-0.37,1.08,0.45,2.19,1.05,2.63
								c0.43,0.32,1.11,0.35,1.58,0.32c0,0.09,0.02,0.15,0.03,0.2c0.07,0.77,0.33,1.83,1.31,2.29c1,0.47,1.5,0.36,2.09,0.08
								c1.14,1.58,3.46,2.54,5.55,2.34c0.27-0.03,0.54-0.07,0.8-0.14c2.15-0.55,4.85-2.4,5.85-4.89c0.8-1.99,1.97-2.65,3.01-3.1
								c4.29-1.35,6.63-6.13,7.25-10.56c0.55-3.91,3.06-8.18,3.71-9.06c2.99-1.26,4.77-2.84,6.3-5.09c1.61-2.36,1.67-3.87,1.22-5.83
								c-0.43-1.86-1.59-10.63-2-12c-0.35-1.19-0.52-2.41-0.8-3.9c-0.87-4.63,4.87-28.5,6.56-33.15c0.65-1.78,1.57-3.73,2.65-5.98
								c1.82-3.82,4.09-8.57,5.9-14.58c2.74-9.1-1.59-29.23-2.11-31.61c1.59-2.79,3.01-5.68,4.23-8.63c0.98-2.36,1.9-4.81,2.37-7.33
								c0.68-3.72,1.28-10.77,1.96-18.93c0.61-7.21,1.29-15.38,2.13-21.9c1.03-8.05,3.17-17.14,4.88-24.44
								c1.17-5,2.18-9.32,2.51-11.92c0.62-4.87,0.01-9.71-0.34-11.83c0.37,0.04,1.49,0.05,1.76,0c-0.34,2.12-0.96,6.97-0.34,11.84
								c0.33,2.6,1.34,6.92,2.51,11.92c1.71,7.3,3.84,16.39,4.88,24.44c0.84,6.52,1.53,14.69,2.13,21.9
								c0.69,8.16,1.28,15.21,1.96,18.93c0.46,2.52,1.39,4.97,2.37,7.33c1.23,2.95,2.64,5.84,4.23,8.63
								c-0.53,2.38-4.85,22.51-2.11,31.61c1.81,6.01,4.08,10.76,5.9,14.58c1.07,2.25,2,4.2,2.65,5.98
								c1.69,4.65,7.43,28.52,6.56,33.15c-0.28,1.49-0.44,2.7-0.8,3.9c-0.4,1.36-1.57,10.13-2,12c-0.45,1.96-0.39,3.46,1.22,5.83
								c1.53,2.25,3.31,3.84,6.3,5.09c0.65,0.87,3.17,5.14,3.71,9.06c0.62,4.44,2.96,9.21,7.25,10.56c1.04,0.45,2.21,1.11,3.01,3.1
								c1,2.48,3.7,4.34,5.85,4.89c0.26,0.07,0.53,0.11,0.8,0.14c2.09,0.2,4.41-0.76,5.55-2.34c0.58,0.28,1.09,0.39,2.09-0.08
								c1.07-0.51,1.28-1.72,1.33-2.49c0.47,0.03,1.16,0,1.59-0.32c0.6-0.44,1.41-1.55,1.05-2.63c-0.08-0.22-0.14-0.41-0.19-0.56
								l0,0c0-0.01-0.01-0.02-0.01-0.04c0.47-0.09,0.79-0.28,1.13-0.56c0.59-0.49,0.63-1.96,0.61-2.57
								c-0.01-0.34-0.06-0.7-0.11-1.06c-0.05-0.39-0.11-0.8-0.1-1.14c0-0.25,0.1-0.46,0.22-0.74c0.14-0.32,0.32-0.72,0.4-1.31
								c0.02-0.16,0.05-0.34,0.09-0.53c0.19-1.09,0.48-2.74-0.46-3.75c0,0-2.5-3.67-3.49-4.29c-1.26-0.79-10.44-8.36-11.47-10.78
								c-0.27-0.63-0.5-1.29-0.75-1.99c-0.75-2.14-1.53-4.34-3.45-5.98c-0.14-0.12-0.28-0.25-0.42-0.39
								c0.04-2.34-0.45-3.84-0.97-5.43c-0.22-0.68-0.56-7.59-0.49-11.06c0.02-0.48,0.05-1,0.09-1.54c0.01-0.06,0.02-0.12,0.03-0.17
								l-0.02,0c0.44-6.48,1.84-16.96,3.3-27.11c1.62-11.21,3.14-21.79,3.06-26.56c-0.17-9.7-6.6-24.52-7.41-26.35
								c0.09-0.41,0.15-0.79,0.17-1.14c0.21-2.89,0-4.43-0.18-5.79c-0.13-1-0.25-1.86-0.17-3.11c0.03-0.51,0.24-2.18,0.57-4.72
								c1.51-11.83,7.01-33.73,5.59-52.86c-0.95-12.93-5.24-33.67-7.51-42.68c-1.76-6.99-3.15-12.5-2.92-16.04
								c0.66-10.14-3.64-24.2-4.22-26.05c0.28-0.65,1.06-2.79,1.7-7.93c0.57-4.61-2.39-9.28-4.16-12.07
								c-0.52-0.82-1.11-1.75-1.14-2.01c0-0.2-0.01-0.99-0.04-2.2c-0.1-5.63-0.41-22.75,0.03-25.08c0.31-1.64,1.51-4.79,2.78-8.12
								c0.89-2.33,1.81-4.75,2.54-6.92c0.55-1.66,1.08-4.75,1.57-8.19c0-0.01,0-0.01,0-0.02c1.42,3.54,4.62,10.04,6.68,13.69
								c3.63,6.44,4.88,16.93,5.08,24.34c0.08,2.95,2.15,5.17,2.76,5.9c-0.34,1.04-1.29,4.61-0.99,11.82
								c0.19,4.65,3.22,12.67,6.15,20.42c2.57,6.79,4.99,13.2,5.48,17.12c0.35,2.83,0.7,4.66,0.72,6.05
								c0.02,1.34,0.01,2.68-0.12,4.02c-0.12,1.24-0.64,2.7-1.27,5.21c-1.15,4.62-1.15,5.44-1.57,8.35
								c-0.33,2.33-1.54,10.21-0.16,11.36c2.09,1.74,3.89-0.64,5.06-2.48c0.99-1.57,1.27-3.59,1.53-5.54
								c0.28-2.09,0.55-4.05,1.69-4.79c0.08-0.05,0.15-0.07,0.28-0.02c1.58,0.59,1.02,2.13,1.58,6.37
								c-0.03,0.15-0.05,0.35-0.06,0.59l0,0c-0.04,0.07-3.77,7.19-6.03,10.64c-1.99,3.03-0.28,6.6,0.55,7.99
								c0.37,2.29,1.67,4.14,1.76,4.26l0.39,0.54l1.48-1.69c0.24,3.66,3.01,4.45,3.04,4.46l0.47,0.12l0.17-0.45
								c0.2-0.52,4.82-12.69,5.36-15.19c0.59-2.73,0.8-16.86,0.27-31.67c-0.34-9.72,2.62-17.94,3.5-25.2
								c0.5-4.07,0.96-7.92,1.22-12.1C289.21,265.74,286.12,260.16,285.53,259.2z M280.1,202.07c1.32,7.69,1.08,24.23-0.83,31.18
								c-0.4-0.63-0.71-1.07-0.86-1.28c-0.09-1.6-0.78-13.75-1.96-19.48c-1.11-5.41-3.1-10.6-3.51-11.64
								c0.28-0.81,1.35-4.08,2.14-8.27C275.87,193.51,279.56,198.86,280.1,202.07z M225.19,260.97c0.01-1.23,0.08-2.45,0.19-3.67
								c0.28,0.08,0.61,0.08,1.01-0.03c2.66-0.73,5.01-5.22,6.12-7.38c1.27-2.47,2.24-5,2.85-7.63c-0.02,4.35,0.05,10.09,0.14,15.35
								c-1.77,3-4.15,5.7-7.14,7.53c-0.45,0.29-1.08,0.57-1.61,0.64c-1.06,0.14-1.59-1.23-1.48-2.1
								C225.23,262.78,225.18,261.87,225.19,260.97z M235.45,236.97c-0.25,6.06-2.43,11.89-6.1,16.72
								c-0.92,1.21-1.99,2.71-3.75,1.92c-0.93-0.42-0.86-1.48-0.73-2.32c0.19-1.31,0.32-2.62,0.56-3.92
								c0.12-0.65,0.29-1.29,0.5-1.92c0.03-0.09,0.17-0.55,0.32-0.97c0.53,0.15,1.26-0.06,2.28-0.79c3.02-2.16,4.67-5.58,5.51-9.26
								c0.62-0.54,1.21-1.11,1.77-1.72c-0.08,0.31-0.15,0.6-0.2,0.86C235.56,235.83,235.45,236.91,235.45,236.97z M231,242.31
								c-0.51,0.71-1.02,1.37-1.68,1.95c-0.77,0.68-1.73,1.83-2.87,1.22c-1.04-0.56-0.7-2.34-0.61-3.28
								c0.16-1.65,0.38-3.29,0.56-4.94c2.75-2.46,5.01-5.62,6.56-9.11c0.4-0.11,0.8-0.24,1.18-0.38
								C234.27,232.35,233.77,238.49,231,242.31z M230.51,231.51c-1.13,1.69-4.05,7.05-4.71,2.76c-0.42-2.74-1.59-6.86,0.56-9.26
								c0.72-0.14,1.25-1.02,1.75-1.48c0.58-0.52,1.15-1.06,1.7-1.61c0.2-0.2,0.39-0.41,0.59-0.62c1.44-0.13,2.82-0.42,4.14-0.87
								C234.06,224.42,232.67,228.27,230.51,231.51z M225.5,222.9c-0.47-1.24-1.01-2.49-1-3.85c0.03-3.63,2.92-6.47,6.13-8.08
								c1.85,0.65,3.78,1.1,5.75,1.33c-1.42,2.51-3.05,4.9-5,7.06c-0.71,0.79-1.58,1.46-2.37,2.17c-0.5,0.46-1,0.91-1.48,1.39
								c-0.32,0.32-0.81,0.83-1.29,0.9C225.67,223.91,225.67,223.36,225.5,222.9z M231.11,220.56c0.63-0.68,1.25-1.38,1.84-2.1
								c1.55-1.91,2.93-3.95,4.14-6.09c0.9,0.08,1.84,0.14,2.77,0.14c0.23,1.15,0.34,2.51,0.37,3.9l-0.02,0.01
								C237.62,218.72,234.52,220.12,231.11,220.56z M228.3,209.3c0.23-0.01,0.45-0.01,0.69-0.02c2.88-0.14,5.83-1.69,8.47-3.68
								c1.03,2.02,1.76,4.11,2.25,6.27l0,0C235.68,211.86,231.84,210.99,228.3,209.3z M232.41,207.63
								c-6.77,2.9-19.06-0.21-24.46-5.61c-4.18-4.18-4.91-10.88-5.48-16.52c-0.37-3.73-1.89-11.17,0.31-14.58
								c4.33-6.71,9.71-7.59,17.42-8.03c15.49-0.87,16.57,3.96,21.82,9.01c1.77,1.7,2.89,3.52,4.13,5.29
								c3.83,5.46,4.83,10.57,4.39,11.11C246.27,195.28,240.15,204.31,232.41,207.63z M212.24,148.3c0.79-2,1.47-3.7,1.92-4.78
								c0.72-1.74,1.33-4.13,1.81-6.54c5.66,5.08,6.73,15.19,13.69,18.78c1.14,0.59,2.31,0.98,3.48,1.2
								c-1.75,0.76-3.79,1.57-5.98,2.28C220.2,159.03,214.48,154.84,212.24,148.3z M225.46,159.77c-6.1,1.75-12.91,2.43-17.28-1.1
								c1.21-3.1,2.55-6.53,3.71-9.46C214.18,155.09,219.23,159,225.46,159.77z M213.67,143.32c-1.84,4.45-7.59,19.27-9.07,23.1
								c-0.39-2.54-1.26-9.59,0.15-14.39c0.71-2.4,1.69-4.8,2.84-7.58c1.68-4.07,3.75-9.12,5.86-16.41c1.37-1.18,2.59-2.31,3.38-3.2
								c0.03,0.59,0.09,1.34,0.18,2.16C216.65,130.23,215.28,139.42,213.67,143.32z M251.15,188.52l0.02-0.03
								c3.86,7.41,10.27,12.74,18.2,15.18c7.17,15.23,4.69,34.63-1.23,50.31c-3.04-3.05-6.04-6.74-8.24-10.34
								c-2.84-4.63-4.57-9.89-6.41-14.99c-3.75-10.37-6.84-21.06-7.44-32.04C247.88,194.02,249.47,191.28,251.15,188.52z
								 M268.91,253.95c6.19-14.43,8.58-34.94,1.44-50.34c0.55-0.74,1.11-1.49,1.66-2.23c0.5,1.29,2.35,6.2,3.4,11.31
								c1.06,5.14,1.72,15.85,1.88,18.72c0,0.46,0.03,0.8,0.06,1.05c0.56,8.25-4.06,14.56-8.17,21.6c-0.12,0.21-0.24,0.4-0.35,0.6
								c-0.05-0.04-0.09-0.09-0.14-0.14C268.77,254.37,268.84,254.12,268.91,253.95z M259.61,157.9c0.74,0.48,1.62,0.89,2.53,1.31
								c2.57,1.18,5.48,2.53,6.89,6.09c2.31,5.88,6.18,19.75,5.3,25.33c-0.74,4.74-1.99,8.63-2.36,9.72
								c-2.06,2.62-3.34,2.81-6.68,1.13c-2.29-1.15-4.52-2.46-6.45-4.19c-3.27-2.93-5.83-6.3-7.72-10.3
								c-0.01-0.02-0.02-0.03-0.04-0.05c-0.67-5.46-5.34-12.9-10.79-18.12c-0.24-0.53-0.45-1.07-0.61-1.62
								c-1.77-6.06,3.21-7.27,7.96-6.98C251.18,160.45,257.68,161.91,259.61,157.9z M253.86,154.12c1.49,0.48,3.02,0.97,4.59,2.8
								c0.18,0.22,0.4,0.41,0.63,0.6c-2.65,6.24-15.32-1.14-19.66,4.39c-1.28,1.63-1.23,3.63-0.51,5.66
								c-3.39-2.94-7.1-5.33-10.15-5.42c-15.44-0.46-20.57,1.49-23.8,4.79c0.47-1.21,1.61-4.17,2.96-7.63
								c6.95,5.37,19.42,0.97,26.4-2.16c6.13,0.64,12.56-2.61,18.61-3.33C253.24,153.92,253.55,154.02,253.86,154.12z
								 M218.92,133.53c1.78,2.21,8.27,5.31,14.54,8.31c3.57,1.71,6.94,3.32,9.31,4.7c4.29,2.49,6.29,4.3,7.61,5.5
								c0.56,0.51,1.01,0.91,1.48,1.22c-8.97,1.37-19.8,7.54-26.13-2.35c-3.1-4.85-5.21-10.79-9.59-14.71
								c0.55-2.88,0.94-5.69,1.14-7.33C217.58,130.69,218.09,132.51,218.92,133.53z M182.62,115.42c-0.01,0.03-0.38,0.69-1.06,0.6
								c-1.04-0.13-2.69-3.1-3.67-4.88c-0.49-0.89-0.92-1.66-1.29-2.19c-1.06-1.52-1.03-5.29,0.07-8.78
								c0.18-0.55,0.41-0.86,0.71-0.92c0.76-0.14,2.09,1.07,2.81,1.98l1.08,1.36l-0.13-1.73c-0.01-0.15-1.1-15.52,4.32-22.02
								c4.02-4.83,12.69-5.86,15.11-6.06c2.42,0.2,11.09,1.23,15.12,6.06c5.42,6.51,4.34,21.87,4.32,22.02l-0.13,1.73l1.08-1.36
								c0.72-0.9,2.05-2.12,2.81-1.98c0.29,0.05,0.53,0.36,0.71,0.92c1.1,3.49,1.13,7.26,0.07,8.78c-0.37,0.52-0.79,1.29-1.29,2.19
								c-0.99,1.78-2.63,4.75-3.68,4.88c-0.68,0.09-1.05-0.57-1.06-0.6l-1.17-2.24l0.16,2.52c0,0.05,0.33,5.39-0.83,7.54
								c-1.18,2.19-10.69,9.58-12.52,10.24c-1.03,0.37-2.5,0.51-3.61,0.56c-1.11-0.05-2.58-0.19-3.61-0.56
								c-1.83-0.67-11.34-8.06-12.52-10.24c-1.16-2.15-0.83-7.48-0.83-7.54l0.16-2.52L182.62,115.42z M174.4,266.03
								c-0.53-0.07-1.16-0.35-1.61-0.64c-2.77-1.69-5.01-4.12-6.73-6.85c0.08-4.8,0.15-10.09,0.16-14.4
								c0.6,2.05,1.41,4.05,2.42,6.01c1.11,2.16,3.46,6.65,6.12,7.38c0.4,0.11,0.74,0.11,1.01,0.03c0.11,1.22,0.18,2.44,0.19,3.67
								c0.01,0.9-0.04,1.8-0.08,2.71C175.99,264.8,175.46,266.17,174.4,266.03z M175.56,255.86c-1.76,0.79-2.82-0.71-3.75-1.92
								c-2.81-3.69-4.73-7.96-5.6-12.47c-0.02-2.86-0.09-4.99-0.24-5.75c-0.01-0.04-0.02-0.09-0.03-0.14
								c0.38,0.38,0.77,0.75,1.18,1.1c0.84,3.68,2.49,7.09,5.51,9.26c1.01,0.73,1.75,0.94,2.28,0.79c0.15,0.42,0.29,0.88,0.32,0.97
								c0.21,0.63,0.37,1.27,0.5,1.92c0.24,1.3,0.37,2.61,0.56,3.92C176.41,254.38,176.49,255.44,175.56,255.86z M174.7,245.74
								c-1.15,0.62-2.1-0.54-2.87-1.22c-0.66-0.58-1.16-1.25-1.68-1.95c-2.77-3.83-3.26-9.96-3.15-14.53
								c0.39,0.14,0.78,0.27,1.19,0.38c1.56,3.48,3.81,6.65,6.56,9.11c0.18,1.65,0.4,3.29,0.56,4.94
								C175.4,243.39,175.74,245.17,174.7,245.74z M175.35,234.52c-0.65,4.29-3.58-1.07-4.71-2.76c-2.18-3.26-3.58-7.3-4.05-11.34
								c1.24,0.42,2.54,0.7,3.88,0.84c0.29,0.3,0.56,0.61,0.86,0.9c0.55,0.55,1.12,1.09,1.71,1.61c0.51,0.46,1.03,1.33,1.75,1.48
								C176.94,227.66,175.77,231.78,175.35,234.52z M161.36,212.76C161.36,212.76,161.36,212.76,161.36,212.76
								c0.91,0,1.82-0.05,2.7-0.13c1.21,2.13,2.59,4.17,4.14,6.08c0.5,0.62,1.02,1.22,1.56,1.81c-3.3-0.48-6.3-1.86-8.82-4.1
								l-0.01-0.01C160.98,215.08,161.15,213.87,161.36,212.76z M174.91,224.08c-0.48-0.06-0.97-0.58-1.29-0.9
								c-0.48-0.48-0.98-0.94-1.48-1.39c-0.79-0.71-1.66-1.38-2.37-2.17c-1.94-2.15-3.57-4.55-4.99-7.05
								c1.98-0.23,3.92-0.67,5.78-1.32c3.2,1.6,6.07,4.44,6.1,8.06c0.01,1.36-0.53,2.61-1,3.85
								C175.48,223.61,175.49,224.16,174.91,224.08z M161.5,212.12c0.51-2.28,1.33-4.51,2.48-6.66c2.6,1.9,5.47,3.35,8.24,3.49
								c0.61,0.03,1.22,0.05,1.81,0.06C170.18,211.06,165.96,212.11,161.5,212.12z M168.8,207.3c-7.74-3.33-14.61-13.1-18.14-19.34
								c0.27-3.14,1.94-6.88,4.44-10.53c2.88-4.19,6.28-8.19,8.5-9.98c6.04-4.87,11.37-4.66,16.49-4.5
								c7.73,0.25,14.58,1.58,18.33,7.63c2.14,3.45,0.69,10.84,0.31,14.58c-0.57,5.64-1.29,12.34-5.48,16.52
								C187.86,207.09,175.9,210.35,168.8,207.3z M131.72,204.05c8.11-2.45,14.65-7.95,18.51-15.57c1.72,2.83,3.26,5.59,5.14,8.21
								c-0.59,11.02-3.69,21.74-7.45,32.15c-1.84,5.1-3.57,10.36-6.41,14.99c-2.41,3.93-5.02,7.46-8.36,10.67
								C127.24,238.86,124.63,219.29,131.72,204.05z M132.18,253.76c-4.04-6.86-8.79-13.41-8.19-21.65
								c0.18-3.02,0.92-14.33,1.97-19.42c0.98-4.74,2.63-9.31,3.27-10.98c0.58,0.77,1.16,1.55,1.73,2.32
								c0.01,0.02,0.03,0.03,0.04,0.04C124.1,219.19,126.43,238.2,132.18,253.76z M196.6,166.37c-1.49-3.83-7.23-18.65-9.07-23.1
								c-2.06-4.98-3.19-15.46-3.23-15.89c0.1-0.89,0.17-1.71,0.2-2.37c0.81,0.88,1.98,1.96,3.29,3.09
								c2.1,7.23,4.16,12.25,5.83,16.3c1.14,2.78,2.13,5.18,2.84,7.58C197.86,156.78,196.99,163.83,196.6,166.37z M189.38,149.34
								c1.16,2.95,2.51,6.39,3.72,9.49c-2.92,2.91-11.09,2.84-17.51,1.16C181.92,159.27,187.08,155.31,189.38,149.34z
								 M173.94,159.45l-0.05,0.02c-2.14-0.7-4.15-1.5-5.88-2.25c1.17-0.23,2.34-0.61,3.48-1.2c6.99-3.61,8.03-13.81,13.77-18.86
								c0.48,2.33,1.07,4.63,1.77,6.32c0.46,1.11,1.17,2.87,1.99,4.95C186.78,155.04,180.99,159.28,173.94,159.45z M150.99,152.04
								c1.32-1.2,3.32-3.02,7.61-5.5c2.37-1.38,5.74-2.99,9.31-4.7c6.27-3,12.75-6.11,14.54-8.31c0.75-0.93,1.24-2.52,1.55-4.16
								c0.22,1.72,0.6,4.35,1.12,7.02c-4.44,3.92-6.55,9.91-9.67,14.79c-6.37,9.96-17.31,3.64-26.31,2.32
								C149.73,153.16,150.28,152.68,150.99,152.04z M142.91,156.91c1.57-1.83,3.1-2.32,4.59-2.8c0.05-0.01,0.09-0.03,0.13-0.04
								l0.45-0.02c6.08,0.69,12.56,3.98,18.73,3.34c7.02,3.15,19.84,6.98,26.52,2.07c1.18,3.03,2.19,5.64,2.72,7
								c-3.31-3.18-8.78-4.64-23.75-4.26c-3.04,0.08-6.59,2.19-9.95,5.24c0.6-1.91,0.57-3.76-0.63-5.29
								c-4.36-5.55-17.12,1.91-19.69-4.46C142.37,157.45,142.66,157.2,142.91,156.91z M132.33,165.29c1.4-3.56,4.32-4.9,6.89-6.09
								c0.81-0.37,1.6-0.74,2.28-1.16c1.87,4.13,8.45,2.65,12,2.43c4.75-0.3,9.73,0.92,7.96,6.98c-0.13,0.44-0.28,0.87-0.46,1.29
								c-5.67,5.67-10.51,13.71-10.94,18.65c-1.88,3.96-4.43,7.32-7.68,10.22c-1.93,1.73-4.16,3.04-6.45,4.19
								c-3.2,1.61-4.37,1.45-6.29-0.87l-0.15-0.28c-0.02-0.04-1.59-4.47-2.46-10.04C126.16,185.04,130.02,171.17,132.33,165.29z
								 M121.7,202.27c0.49-2.88,3.52-7.49,4.7-9.08c0.77,3.88,1.75,6.87,2.02,7.63c-0.41,1.04-2.4,6.23-3.51,11.64
								c-1.18,5.74-1.87,17.89-1.96,19.48c-0.11,0.16-0.32,0.45-0.58,0.85C120.62,225.53,120.43,209.73,121.7,202.27z
								 M113.87,276.56c-0.53-8.72,1.44-14,2.41-16c1.13,7.49,4.35,15,7.4,21.92c4.06,9.19,6.57,19.51,7.32,29.37
								c-0.08,2.03,0,3.49,0.2,4.77c-7.68-9.71-14.25-20.26-16.65-32.45C114.28,281.68,114.03,279.18,113.87,276.56z M128.2,356.6
								l-1.4-1.59c-0.32-3.77-1.98-9.7-2.25-10.62c0.03-0.22,0.08-0.79,0.14-1.55c1.09,2.03,2.69,4.9,4.04,6.96
								C130.35,352.26,128.92,355.34,128.2,356.6z M124.99,337.2c1.27,2.37,3.55,6.53,5.13,8.94c1.06,1.61,0.81,3.49,0.3,4.95
								c-0.14-0.63-0.39-1.26-0.79-1.87c-1.72-2.63-3.87-6.62-4.8-8.39C124.9,339.64,124.96,338.34,124.99,337.2z M132.23,321.21
								c0.98,4.15,1.59,6.28,1.59,8.27c0,5.13,1.61,10.77-0.23,10.77c-0.45,0-1.4-0.46-2.69-2.51c-0.87-1.37-1.13-3.28-1.38-5.12
								c-0.32-2.34-0.61-4.54-2.17-5.55c-0.38-0.24-0.8-0.28-1.23-0.12c-2.56,0.96-1.73,5.34-2.26,7.2l-0.04,0.13l0.03,0.14
								c0.68,2.91-0.35,9.85-0.36,9.92l-0.02,0.12l0.03,0.11c0.02,0.08,2.29,7.97,2.29,11.59c0,2.38-1.17,3.37-1.83,3.74
								c-0.91-2.4-4.66-12.38-5.12-14.52c-0.47-2.21-0.79-16.06-0.25-31.41c0.33-9.49-2.43-17.54-3.41-24.67
								c3.14,10.53,9.26,19.84,16.2,28.52l0.04,0.06C131.64,318.98,131.92,319.89,132.23,321.21z M134.73,293.71
								c-0.34,1.45-0.2,0.85-0.59,2.44c-1.36,3.84-2.33,7.3-2.64,9.78c-0.05,0.44-0.1,0.85-0.15,1.26
								c-0.81-5.91-2.34-12.76-4.3-18.21c-3.49-9.7-8.88-19.11-10.18-29.44c0,0,0.01-0.01,0.01-0.01l0.01-0.01v-8.88
								c0-6.9,4.64-14.61,6.37-17.24c0,0,0-0.01,0-0.01c-0.07,9.4,6.59,16.86,10.76,25.06c5.08,10,3.24,23.79,0.86,34.52
								C134.79,293.4,134.8,293.38,134.73,293.71z M143.13,268.47c-0.19,4.48-3.19,12.42-6.09,20.09c-0.14,0.38-0.48,1.04-0.84,1.74
								c1.76-8.32,2.67-16.7,0.86-25.23c-0.18-0.84-0.41-1.67-0.68-2.48c1.73-2.05,3.67-3.89,5.82-5.5
								C142.52,258.07,143.42,261.55,143.13,268.47z M150.15,225.88c-3.04,4.84-4.8,14.88-4.88,15.42c0,0.06,0.17,6.03-0.35,9.33
								c-0.5,3.17-2.69,5.57-2.71,5.59l-0.22,0.24c0,0,0,0,0,0c-2.15,1.6-4.1,3.42-5.84,5.43c-0.05-0.13-0.09-0.24-0.11-0.35
								c-0.79-2.15-1.83-4.21-2.97-6.23c3.2-3.02,6.13-6.38,9-11.15c2.81-4.67,3.84-8.28,5.76-13.29
								c4.13-10.78,7.45-21.91,8.13-33.38c0.11,0.15,0.22,0.3,0.34,0.45c0.28,2.88,0.74,7.42,1.31,11.81
								c0.01,0.05,0.01,0.1,0.02,0.15C156.5,213.14,152.75,221.75,150.15,225.88z M157.52,199.42c1.54,1.78,3.62,3.87,5.94,5.64
								c-2.46,4.57-3.5,9.52-3.14,14.44C159.2,215.11,158.1,205.25,157.52,199.42z M161.8,223.86c-0.65-2.51-0.89-4.71-0.88-6.65
								c1.52,1.28,3.2,2.26,4.99,2.95c0.29,2.56,0.96,5.1,1.96,7.51C165.55,226.95,163.48,225.64,161.8,223.86z M163.68,229.3
								c-0.03-0.08-0.08-0.21-0.15-0.36c-0.57-1.36-1.02-2.64-1.39-3.85c1.25,1.14,2.68,2.05,4.23,2.7
								c-0.01,0.02-0.02,0.05-0.02,0.07c-0.07,2.44,0.05,5.12,0.53,7.72c-0.47-0.44-0.92-0.9-1.34-1.38
								C165.1,232.88,164.41,231.23,163.68,229.3z M160.67,277.14c-0.52-4.23,2.31-8.7,4.01-11.37c0.31-0.48,0.55-0.87,0.74-1.2
								c6.74,3.02,14.84,8.33,13.02,17.3c-0.51,2.5-2.69,5.17-4.24,7.05c-2.16,2.63-4.18,1.42-6.43-0.37
								c-1.96-1.55-3.89-3.14-5.82-4.73C161.61,282.73,161.11,280.67,160.67,277.14z M155.2,327.55c1.78-7.08,3.19-12.67,2.95-16.37
								c-0.47-7.28,1.67-16.67,3.08-21.89c4.18,4.57,3.67,11.87,2.8,17.87c-1.04,7.16-2.2,17.4-9.01,21.12
								C155.09,328.03,155.15,327.78,155.2,327.55z M147.72,370.04c0.61-8.33,2.63-19.95,4.59-29.54
								c-0.64,7.47-0.44,14.03,1.25,22.89c1.69,8.85,7.08,20.99,9.11,32.15c0.76,4.19,1.47,14.92-0.59,20.85
								c-1.36,3.93-5.37,7.14-8.79,6.22C151.77,410.78,146.32,389.02,147.72,370.04z M149.29,490.19
								c-1.61-11.16-3.13-21.71-3.05-26.39c0.14-8.21,5.08-20.62,6.8-24.73c0.97,3.08,2.97,7.12,4.69,10.33
								c-0.07,12.89-0.15,25.79-0.22,38.68c-0.06,11.32,1.74,25.11-4.89,34.99c0.08-1.75,0.11-3.43,0.05-4.58
								C152.45,512.09,150.85,500.99,149.29,490.19z M168.09,524.83c0.07,0.38,0.15,0.75,0.22,1.11
								c-3.86-4.37-3.91-10.99-3.93-16.94c0-0.87-0.01-1.71-0.02-2.54c-0.14-7.71-0.21-14.77,0.25-21.82
								c0.8,3.52,2.95,8.72,8.67,11.26C170.93,504.66,167.36,520.9,168.09,524.83z M183.22,470.61c-1.79,5.94-4.03,10.65-5.84,14.43
								c-1.09,2.28-2.03,4.25-2.69,6.07c-0.28,0.78-0.67,2.07-1.12,3.69c-5.79-2.66-8.02-8.55-8.84-11.87
								c0.05-0.62,0.09-1.23,0.15-1.85c0.14-1.57,0.24-3.18,0.34-4.89c0.26-4.48,0.39-9.05,1.78-13.36c1.05-3.25,2.7-6.3,4.63-9.11
								c1.94-2.83,4.37-5.27,6.39-8.04c1.18-1.62,2.28-3.29,3.31-5.02C182.35,445.59,185.6,462.73,183.22,470.61z M187.68,423.15
								c-0.82,4.47-2.88,8.8-4.95,12.81c-1.22,2.35-2.43,5.09-4.15,7.11c-4.74,5.57-9.87,10.95-12.18,18.06
								c-1.58,4.89-1.95,9.91-2.25,15.01c-0.1,1.7-0.19,3.3-0.33,4.85c-0.77,8.31-0.69,16.46-0.52,25.49
								c0.02,0.82,0.02,1.66,0.02,2.52c0.03,6.73,0.06,14.3,5.44,18.89c0.15,0.6,0.29,1.17,0.44,1.7c0.59,2.99,1.53,9.64,1.87,11.13
								c0.41,1.79,0.35,3.01-1.09,5.13c-1.23,1.81-3.07,3.23-4.65,4.14c1.21-1.95,3.3-5.32,3.3-5.32c-1.58,1.67-4.79,6.07-4.86,6.16
								l0,0c-0.59,0.74-3.36,5.35-3.95,9.55c-0.57,4.1-2.73,8.63-6.66,9.85l-0.05,0.02c-0.87,0.38-2.49,1.08-3.5,3.59
								c-0.89,2.21-3.31,3.87-5.24,4.36c-2.02,0.52-4.63-0.48-5.59-2.13l-0.03-0.05c-0.15-0.79-0.02-1.09,0.3-1.39
								c0.09-0.08,0.24-0.22,0.44-0.39c1.3-1.15,2.71-2.45,3.1-3.2c0.35-0.69,3.09-5.15,5.22-6.89c0,0-3.42,1.78-6.01,6.49
								c-0.36,0.65-2.13,2.26-2.89,2.93c-0.21,0.18-0.37,0.33-0.46,0.41c-0.56,0.53-0.73,1.13-0.58,2.08
								c-0.39,0.19-0.63,0.25-1.33-0.08c-0.6-0.28-0.77-1.06-0.81-1.63l0,0c0-0.03,0.28-3.61,6.65-11.71c0,0-2.09,1.65-3.9,4.35
								c-2.35,3.51-3.21,5.39-3.51,6.4c-0.42,0.04-0.99,0.02-1.2-0.14c-0.43-0.32-0.93-1.07-0.73-1.64c0.07-0.22,0.13-0.4,0.18-0.54
								l0,0c0.75-2.59,3.46-8.54,5.75-11.16c0,0-1.34,0.92-2.99,3.51c-1.66,2.6-2.59,4.27-3.31,6.45c-0.35-0.04-0.56-0.16-0.84-0.39
								c-0.13-0.12-0.31-0.85-0.29-1.86c0.01-0.28,0.05-0.61,0.1-0.95c0.06-0.43,0.12-0.87,0.11-1.28c0-0.11-0.01-0.22-0.03-0.32
								c0.36-1.49,1.42-4.16,4.21-7.45c0,0-1.33,1.12-2.44,2.64c-1,1.36-1.76,2.43-2.24,3.5c-0.05-0.15-0.09-0.32-0.12-0.52
								c-0.02-0.17-0.06-0.36-0.09-0.57c-0.17-0.97-0.4-2.31,0.23-2.99c0,0,2.39-3.56,3.31-4.14c1.36-0.85,10.66-8.49,11.81-11.18
								c0.28-0.66,0.53-1.36,0.77-2.05c0.71-2.02,1.45-4.12,3.19-5.6c2.48-2.12,4.26-7.44,4.26-7.44c-0.01,0.02-1.65,3.13-3.51,5.38
								c0.09-1.64,0.47-2.83,0.91-4.16c0.14-0.44,0.41-3.28,0.57-6.24c6.44-9.05,5.51-21.41,5.57-31.96
								c0.08-13.91,0.16-27.82,0.24-41.72c1.28,2.34,2.29,4.03,2.38,4.18c0,0-6.88-13.59-7.22-18.38c-0.2-2.78,0-4.26,0.17-5.57
								c0.13-1.01,0.26-1.96,0.18-3.31c-0.03-0.49-0.21-1.92-0.48-4.07c2.53,0.55,5.33-0.92,7.52-3.6
								c4.05-4.96,3.84-13.9,3.06-20.77c0.95,0.32,2.01,0.28,2.92-0.18c-0.05,1.75,0.05,3.52,0.33,5.31
								c0.9,5.55,3.29,11.64,8.13,14.96c3.86,2.65,8.74,4.07,12.7,1.47C187.94,421.57,187.81,422.43,187.68,423.15z M189.63,404.32
								c-0.49,5.85-0.96,11.46-1.45,15.44c-6.49,5.08-14.52-1.87-17.75-7.55c-3.5-6.16-3.16-13.56-1.65-20.21
								c2.77-12.21,10.65-22.52,14.12-34.53c2.15,5.04,4.03,10.17,5.06,15.6c1.39,7.35,2.04,14.79,2.45,22.24
								C190.13,398.36,189.88,401.42,189.63,404.32z M191.77,382.37c-0.36,2.79-0.69,5.87-1,9.05c-0.88-11.92-2.69-23.68-7.56-34.88
								c-8.07-18.57-15.9-36.66-16.29-57.27c-0.02-1.32,0.07-2.54,0.33-3.85c1.12-5.63,5.33,2.65,5.45,2.87
								c1.26,2.4,2.63,4.11,2.95,6.93c0.15,1.33,0.28,2.58,0.56,3.89c1.96,9.15,3.65,18.04,6.94,26.86
								c1.51,4.04,3.52,7.87,4.99,11.93c1.65,4.56,2.36,9.57,3.13,14.34c0.77,4.78,1.21,9.6,1.36,14.43
								C192.31,378.59,192.01,380.51,191.77,382.37z M199.16,346.01c-0.32,2.55-1.33,6.84-2.49,11.81
								c-1.15,4.91-2.49,10.63-3.56,16.3c-0.22-4.02-0.62-8.04-1.2-12.06c-0.79-5.42-1.88-10.88-3.74-16.04
								c-1.9-5.24-4.46-10.22-6.25-15.53c-3.11-9.23-3.99-18.71-6.08-28.13c-0.65-2.93-3.23-6.17-4.86-8.63
								c-0.48-0.72-1.93-1.34-2.73-0.76c-4.07,2.9-1.68,12.78-1.23,16.59c1.26,10.82,4.68,21.3,8.68,31.39
								c2.09,5.27,4.58,10.38,6.83,15.58c-3.77,13.66-14.78,27.06-15.57,41.53c-0.92,0.63-2.07,0.7-3.03,0.28
								c-0.11-0.9-0.23-1.75-0.34-2.56c-1.67-11.5-7.4-24.98-9.33-33.99c-1.82-8.49-1.8-17.52-0.86-26.31
								c0.52-2.4,1.02-4.57,1.46-6.39c7.73-3.66,8.56-14.07,9.83-21.77c1.04-6.33,1.36-14.07-3.22-18.76
								c0.55-1.97,0.94-3.19,0.95-3.23l0.07-0.22l-0.01-0.01c2.81,2.35,5.62,4.74,8.66,6.75c0.14,0.09,0.28,0.15,0.42,0.19
								c2.16,3.1,4.17,7.08,6.61,11.96c2.08,4.16,4.44,8.87,7.41,14.02c0.84,1.46,1.54,3.09,2.27,4.81
								c2.1,4.94,4.47,10.48,10.96,11.38C199.1,336.09,199.79,341.11,199.16,346.01z M200.99,333.26c-0.04,0-0.33,0-0.33,0
								c-7.24-0.01-9.49-5.28-11.86-10.86c-0.71-1.68-1.45-3.41-2.33-4.93c-2.96-5.12-5.31-9.82-7.38-13.97
								c-2.34-4.68-4.29-8.55-6.37-11.65c2.32-1.12,4.96-6.3,5.67-7.52c2.63-4.55,0.64-10.02-2.37-13.93
								c-2.26-2.93-6.63-5.38-10.07-6.93c0.03-0.1,0.04-0.2,0.04-0.28c0-0.2,0.01-0.99,0.04-2.19c0.01-0.45,0.02-0.91,0.02-1.37
								c0.99,1.45,2.12,2.79,3.43,4.01c1.23,1.15,3.76,3.56,5.5,3.59c1.39,0.02,1.38-1.32,1.48-2.42c0.24-2.55,0.18-5.11-0.06-7.65
								c0.54-0.59,0.67-1.67,0.66-2.56c-0.02-3.13-0.56-5.67-1.63-8.21c1.3-1.37,0.42-6.34,0.01-8.89c0-0.01,0.01-0.01,0.01-0.01
								c0.71-3.54,2.48-9.16,0.06-12.38c0.43-0.3,0.56-1,0.76-1.48c0.67-1.59,1.31-3.73,1.04-5.47c-0.49-3.16-3.08-5.7-5.94-7.25
								c1.38-0.53,2.72-1.17,4.02-1.94c8.23-0.15,14.14-2.66,19.21-7.73c3.86-3.86,4.21-11.02,4.79-16.1
								c0.51-4.44,1.81-11.47-0.8-15.52c-0.52-0.8-1.04-1.54-1.61-2.22c0.08-0.4,1.77-9.56-0.01-15.59
								c-0.71-2.43-1.71-4.84-2.86-7.64c-1.6-3.89-3.57-8.68-5.58-15.48c3.19,2.66,6.89,5.33,8.09,5.76
								c0.95,0.35,2.19,0.51,3.26,0.59h1.42c1.07-0.08,2.31-0.24,3.26-0.59c1.21-0.44,4.95-3.15,8.16-5.82
								c-2.02,6.85-4,11.67-5.61,15.59c-1.15,2.79-2.14,5.21-2.86,7.64c-1.78,6.04-0.08,15.21-0.01,15.6c0,0-1.06,1.68-1.59,2.5
								c-2.61,4.05-1.31,11.08-0.8,15.52c0.58,5.08,0.93,12.24,4.79,16.1c5.29,5.3,11.5,7.8,20.3,7.74c0.95,0.5,1.92,0.95,2.9,1.33
								c-2.87,1.55-5.47,4.1-5.97,7.27c-0.27,1.74,0.37,3.87,1.04,5.47c0.2,0.48,0.34,1.18,0.76,1.48
								c-2.42,3.22-0.66,8.83,0.06,12.38c0,0.01,0.01,0.01,0.01,0.02c-0.41,2.55-1.29,7.52,0.01,8.89
								c-1.07,2.53-1.61,5.07-1.63,8.21c-0.01,0.89,0.12,1.97,0.66,2.56c-0.24,2.54-0.3,5.11-0.06,7.65c0.1,1.09,0.1,2.44,1.48,2.42
								c1.74-0.03,4.28-2.44,5.5-3.59c1.49-1.4,2.75-2.94,3.84-4.64c0.01,0.71,0.02,1.42,0.04,2.1c0.02,1.19,0.04,1.98,0.04,2.19
								c0,0.09,0.02,0.19,0.05,0.3c-3.47,1.54-7.92,3.92-10.24,6.92c-3.02,3.91-5.31,9.38-2.69,13.93c0.72,1.25,3.65,6.77,6.06,7.72
								c-2.07,3.08-4.01,6.93-6.33,11.58c-2.07,4.15-4.43,8.84-7.38,13.97c-0.88,1.52-1.61,3.25-2.33,4.93
								C210.38,327.96,208.14,333.2,200.99,333.26z M210.74,391.29c-0.3-3.13-0.63-6.17-0.98-8.92c-0.24-1.88-0.54-3.81-0.88-5.76
								c0.15-4.91,0.58-9.81,1.37-14.67c0.77-4.77,1.48-9.78,3.13-14.34c1.47-4.05,3.48-7.88,4.99-11.93
								c3.29-8.82,4.99-17.7,6.94-26.86c0.28-1.31,0.41-2.56,0.56-3.89c0.32-2.82,1.69-4.53,2.95-6.93
								c0.12-0.22,4.33-8.51,5.45-2.87c0.26,1.31,0.36,2.53,0.33,3.85c-0.39,20.61-8.22,38.7-16.29,57.27
								C213.42,367.5,211.61,379.31,210.74,391.29z M211.89,404.32c-0.25-2.94-0.51-6.03-0.79-9.12c0.41-7.51,1.06-15.01,2.46-22.42
								c1.02-5.4,2.88-10.49,5.01-15.49c3.48,11.99,11.4,22.52,14.17,34.71c1.51,6.66,1.85,14.05-1.65,20.21
								c-3.23,5.69-11.26,12.63-17.75,7.55C212.85,415.78,212.38,410.17,211.89,404.32z M226.82,491.11
								c-0.66-1.83-1.6-3.8-2.69-6.07c-1.8-3.79-4.05-8.49-5.84-14.43c-2.37-7.88,0.88-25.02,1.89-29.93
								c1.03,1.72,2.13,3.4,3.31,5.02c2.02,2.77,4.44,5.2,6.39,8.04c1.93,2.81,3.58,5.86,4.63,9.11c1.39,4.31,1.52,8.88,1.78,13.36
								c0.1,1.71,0.19,3.32,0.34,4.89c0.05,0.55,0.09,1.09,0.13,1.63c-0.54,2.26-1.76,5.86-4.4,8.76c-1.17,1.29-2.63,2.44-4.43,3.28
								C227.49,493.16,227.11,491.89,226.82,491.11z M228.23,495.87c2.1-0.94,3.71-2.24,4.95-3.68c2.2-2.55,3.23-5.55,3.72-7.79
								c0.48,7.13,0.4,14.27,0.26,22.07c-0.02,0.83-0.02,1.67-0.02,2.54c-0.02,5.95-0.07,12.57-3.93,16.94
								c0.08-0.36,0.15-0.73,0.22-1.11C234.17,520.89,230.58,504.61,228.23,495.87z M250.43,534.66c-1.86-2.24-3.5-5.36-3.51-5.38
								c0,0,1.78,5.32,4.26,7.44c1.74,1.48,2.47,3.58,3.19,5.6c0.24,0.68,0.49,1.39,0.77,2.05c1.15,2.69,10.45,10.33,11.81,11.18
								c0.92,0.58,3.31,4.14,3.31,4.14c0.63,0.68,0.4,2.02,0.23,2.99c-0.04,0.21-0.07,0.4-0.09,0.57c-0.03,0.19-0.07,0.35-0.11,0.51
								c-0.48-1.09-1.24-2.16-2.26-3.54c-1.11-1.52-2.44-2.64-2.44-2.64c2.82,3.33,3.87,6.03,4.22,7.51
								c-0.02,0.1-0.03,0.21-0.03,0.32c-0.01,0.41,0.05,0.85,0.11,1.28c0.05,0.34,0.09,0.67,0.1,0.95c0.02,1.02-0.16,1.75-0.29,1.86
								c-0.27,0.22-0.48,0.34-0.83,0.39c-0.73-2.2-1.66-3.88-3.33-6.5c-1.65-2.59-2.99-3.51-2.99-3.51
								c2.24,2.56,4.87,8.29,5.69,10.97c0.05,0.18,0.13,0.42,0.25,0.78c0.19,0.57-0.3,1.32-0.73,1.64c-0.18,0.13-0.62,0.17-1,0.15
								c-0.13-0.84-0.8-2.7-3.64-6.93c-1.81-2.7-3.9-4.35-3.9-4.35c5.37,6.83,6.42,10.45,6.61,11.43l-0.01,0.29
								c-0.01,0.48-0.03,1.75-0.84,2.13c-0.7,0.33-0.94,0.27-1.33,0.08c0.15-0.95-0.02-1.55-0.58-2.08
								c-0.09-0.09-0.25-0.23-0.46-0.41c-0.76-0.68-2.54-2.28-2.89-2.93c-2.59-4.7-6.01-6.49-6.01-6.49
								c2.13,1.74,4.87,6.2,5.22,6.89c0.38,0.75,1.8,2.04,3.1,3.2c0.2,0.18,0.35,0.31,0.44,0.39c0.32,0.3,0.44,0.59,0.3,1.39
								l-0.03,0.05c-0.96,1.65-3.57,2.65-5.59,2.13c-1.93-0.49-4.35-2.15-5.24-4.36c-1.01-2.51-2.63-3.22-3.5-3.59l-0.05-0.02
								c-3.93-1.22-6.09-5.75-6.66-9.85c-0.59-4.2-3.36-8.81-3.95-9.55v0c-0.07-0.1-3.28-4.49-4.86-6.16c0,0,2.09,3.37,3.3,5.32
								c-1.58-0.9-3.42-2.33-4.65-4.14c-1.44-2.12-1.5-3.34-1.09-5.13c0.34-1.49,1.28-8.14,1.87-11.13c0.15-0.52,0.29-1.1,0.44-1.7
								c5.38-4.59,5.41-12.16,5.44-18.89c0-0.86,0.01-1.7,0.02-2.52c0.17-9.03,0.24-17.19-0.52-25.49
								c-0.14-1.55-0.24-3.15-0.33-4.85c-0.3-5.1-0.66-10.12-2.25-15.01c-2.31-7.11-7.44-12.49-12.18-18.06
								c-1.73-2.03-2.94-4.76-4.15-7.11c-2.07-4.01-4.12-8.34-4.95-12.81c-0.13-0.72-0.26-1.58-0.39-2.55
								c3.96,2.6,8.84,1.18,12.7-1.47c4.84-3.32,7.6-9.36,8.13-14.96c0.18-1.93,0.21-3.79,0.12-5.61c0.92,0.48,2.03,0.55,3.02,0.28
								c-0.82,6.92-1.11,16.1,3.01,21.14c2.24,2.75,5.13,4.22,7.71,3.55c-0.26,2-0.42,3.33-0.45,3.81c-0.08,1.35,0.05,2.3,0.18,3.31
								c0.17,1.31,0.37,2.79,0.17,5.57c-0.34,4.79-7.22,18.38-7.22,18.38c0.09-0.15,1.07-1.79,2.33-4.07
								c0.08,13.92,0.16,27.85,0.24,41.77c0.06,10.55-0.87,22.91,5.57,31.96c0.16,2.97,0.43,5.81,0.57,6.24
								C249.96,531.83,250.34,533.02,250.43,534.66z M255.28,463.8c0.08,4.68-1.44,15.23-3.05,26.39c-1.56,10.8-3.16,21.9-3.37,28.3
								c-0.06,1.15-0.03,2.84,0.05,4.58c-6.64-9.88-4.83-23.67-4.89-34.99c-0.07-12.91-0.15-25.81-0.22-38.72
								c1.7-3.17,3.7-7.19,4.7-10.27C250.22,443.2,255.14,455.6,255.28,463.8z M253.85,369.9c1.4,19.03-4.08,40.85-5.59,52.65
								c-0.01,0.06-0.01,0.11-0.02,0.17c-3.46,1.1-7.6-2.16-8.98-6.17c-2.05-5.93-1.35-16.66-0.59-20.85
								c2.03-11.16,7.42-23.3,9.11-32.15c1.8-9.42,1.93-16.57,1.14-24.82C250.99,348.6,253.2,361.09,253.85,369.9z M247.66,332.83
								c1.24,9.68,1.49,19.73-0.53,29.14c-1.93,9.01-7.66,22.49-9.33,33.99c-0.1,0.72-0.21,1.49-0.31,2.29
								c-1.01,0.35-2.22,0.24-3.13-0.41c-1.11-15.76-11.6-27.72-15.38-41.51c2.26-5.23,4.77-10.38,6.87-15.67
								c3.99-10.09,7.41-20.57,8.67-31.39c0.44-3.82,2.84-13.7-1.23-16.59c-0.8-0.57-2.25,0.05-2.73,0.76
								c-1.63,2.46-4.21,5.71-4.86,8.63c-2.09,9.41-2.97,18.9-6.08,28.13c-1.79,5.31-4.36,10.28-6.25,15.53
								c-1.87,5.16-2.96,10.62-3.74,16.04c-0.6,4.1-1,8.2-1.22,12.29c-1.07-5.66-2.4-11.35-3.55-16.24
								c-1.17-4.97-2.17-9.26-2.49-11.81c-0.63-4.91,0.06-9.93,0.38-11.81c6.51-0.89,8.88-6.44,10.98-11.38
								c0.73-1.72,1.43-3.35,2.27-4.81c2.97-5.15,5.33-9.87,7.41-14.02c2.47-4.95,4.5-8.97,6.7-12.1c0.04-0.02,0.07-0.03,0.11-0.06
								c3.12-2.06,6-4.53,8.89-6.95l0.08,0.29c0.01,0.04,0.42,1.29,0.97,3.3c-4.66,4.69-4.34,12.48-3.29,18.84
								c1.27,7.73,2.11,18.2,9.93,21.81C247.07,330.25,247.36,331.5,247.66,332.83z M240.36,289.21c1.41,5.24,3.54,14.58,3.06,21.83
								c-0.24,3.7,1.17,9.29,2.95,16.37c0.07,0.3,0.15,0.61,0.23,0.93c-6.9-3.67-8.07-13.98-9.12-21.17
								C236.61,301.12,236.09,293.77,240.36,289.21z M236.9,265.62c1.69,2.67,4.53,7.14,4.01,11.37c-0.61,4.91-1.14,6.15-1.45,6.75
								c-1.96,1.61-3.91,3.22-5.9,4.8c-2.26,1.79-4.27,3-6.43,0.37c-1.55-1.88-3.73-4.56-4.24-7.05
								c-1.87-9.1,6.47-14.42,13.28-17.42C236.36,264.77,236.6,265.15,236.9,265.62z M238.44,227.27c-0.82,2.15-1.61,4.23-2.17,5.9
								c-0.62,0.77-1.29,1.49-2.01,2.17c0.48-2.6,0.6-5.29,0.53-7.72c0-0.03-0.01-0.05-0.02-0.08c1.78-0.75,3.4-1.83,4.78-3.22
								C239.18,225.3,238.81,226.29,238.44,227.27z M239.83,223.09c-1.75,2.05-4,3.54-6.54,4.33c0.99-2.38,1.65-4.74,1.95-7.25
								c1.8-0.69,3.48-1.68,5.01-2.96C240.24,219.46,240.06,221.68,239.83,223.09z M241.05,220.2c-0.01,0.02-0.17,0.57-0.45,1.38
								c0.62-5.61-0.16-11.49-2.63-16.37c2.26-1.78,4.27-3.86,5.76-5.6c0.12-0.14,0.22-0.28,0.34-0.41
								C243.45,205.49,242.28,216.52,241.05,220.2z M256.36,250.38c-0.38-10.36-2.19-19.91-5.23-24.74
								c-2.55-4.05-6.08-12.01-7.25-15.33c0-0.01,0-0.03-0.01-0.07c0.61-4.64,1.13-9.61,1.43-12.61c0.06-0.07,0.11-0.15,0.17-0.22
								c0.71,11.42,4.02,22.53,8.13,33.26c1.92,5.01,2.94,8.62,5.76,13.29c2.71,4.5,6.23,8.21,9.23,11.11
								c-1.4,2.37-2.41,4.27-3.29,6.77c-1.75-2.01-4.16-4.34-6.26-5.91C258.71,255.62,256.47,253.37,256.36,250.38z M265.12,290.68
								c-0.29-0.78-0.59-1.57-0.89-2.37c-2.9-7.68-5.9-15.61-6.09-20.09c-0.29-6.86,0.6-10.35,0.92-11.36c2.14,1.6,4.27,3.62,6,5.65
								c-0.28,0.86-0.55,1.79-0.82,2.85c-2.15,8.54-0.68,17.37,0.9,25.37C265.13,290.72,265.13,290.7,265.12,290.68z M266.94,295.66
								c-2.9-11.84-5.3-25.72,0.38-36.89c4.22-8.31,10.97-15.88,10.72-25.45c1.68,2.55,6.43,10.35,6.43,17.32v8.01
								c-1.06,10.76-6.68,19.86-10.28,29.87c-2.14,5.94-3.56,11.97-4.29,18.13c-0.04-0.32-0.06-0.64-0.12-0.98
								C269.03,301.38,267.93,298.2,266.94,295.66z M270.95,351.1c-0.5-1.46-0.75-3.34,0.3-4.95c1.58-2.41,3.86-6.57,5.13-8.94
								c0.03,1.14,0.09,2.44,0.16,3.62c-0.93,1.77-3.08,5.76-4.8,8.39C271.33,349.83,271.08,350.47,270.95,351.1z M273.16,356.61
								c-0.73-1.26-2.15-4.35-0.54-6.81c1.35-2.06,2.95-4.93,4.04-6.96c0.06,0.76,0.11,1.33,0.14,1.55
								c-0.26,0.92-1.92,6.85-2.25,10.62L273.16,356.61z M286.28,288.61c-0.89,7.3-3.85,15.57-3.51,25.37
								c0.54,15.35,0.22,29.21-0.25,31.41c-0.46,2.14-4.21,12.12-5.12,14.52c-0.66-0.37-1.83-1.36-1.83-3.74
								c0-3.62,2.27-11.51,2.29-11.59l0.03-0.11l-0.02-0.12c-0.01-0.07-1.04-7.01-0.36-9.92l0.03-0.14l-0.04-0.13
								c-0.54-1.86,0.3-6.24-2.26-7.2c-0.43-0.16-0.85-0.12-1.23,0.12c-1.56,1-1.86,3.21-2.17,5.55c-0.25,1.84-0.5,3.74-1.38,5.12
								c-1.3,2.05-2.24,2.51-2.69,2.51c-1.84-0.01-0.23-5.64-0.23-10.77c0-1.99,0.61-4.12,1.59-8.27c0.35-1.5,0.68-2.66,0.91-3.92
								c7.09-8.91,13.31-18.48,16.31-29.36C286.33,288.16,286.31,288.38,286.28,288.61z M287.49,276.57
								c-0.1,1.64-0.36,3.44-0.52,5.02c-1.91,13.14-8.64,24.14-16.74,34.44c0.17-1.51,0.2-3.33-0.01-6.06
								c0.8-9.68,3.34-18.9,7.33-27.93c3.13-7.07,6.3-14.08,7.37-21.74C285.82,262.04,288.05,267.38,287.49,276.57z"/>
							<path d="M196.42,256.07c-3.85,1.17-7.68,2.39-11.51,3.62c-4.78,1.53-5.77-2.17-5.81-5.03c-0.04-2.73,1.46-5.26,3.22-7.3
								c2.95-3.41,8-4.48,12.38-4.74C199.87,242.31,201.43,254.38,196.42,256.07 M199.07,244.01c-2.8-4.65-11.86-0.96-15.27,1.24
								c-3.8,2.45-7.01,8.62-4.71,12.91c1.07,1.99,2.37,2.63,4.68,2.45c1.66-0.13,3.37-0.99,4.93-1.51
								c2.61-0.88,5.28-1.61,7.92-2.41c1.47-0.5,3.32-1.22,3.46-2.98C200.26,251.2,200.44,246.29,199.07,244.01"/>
							<path d="M204.73,256.13c-5.01-1.69-3.45-13.76,1.72-13.44c4.38,0.26,9.43,1.33,12.38,4.74c1.76,2.03,3.25,4.56,3.22,7.3
								c-0.04,2.86-1.03,6.56-5.81,5.03C212.41,258.52,208.58,257.3,204.73,256.13 M202.09,244.07c-1.37,2.27-1.19,7.19-1,9.7
								c0.14,1.76,1.99,2.48,3.46,2.98c2.64,0.8,5.31,1.53,7.92,2.41c1.56,0.52,3.27,1.38,4.93,1.51c2.31,0.18,3.61-0.46,4.68-2.45
								c2.3-4.28-0.92-10.46-4.71-12.91C213.95,243.11,204.89,239.42,202.09,244.07"/>
						</g>
					</g>
					<path d="M197.88,289.53c-0.12,4.09-0.24,8.18-0.36,12.27c-0.2,6.6-7.82-0.14-9.5-2.05c-4.73-6.97-5.99-16.13-7.56-24.25
						c-1.29-6.68,0.88-12.1,7.72-14.16c4.8-1.45,9.96-1.59,10.34,4.67C198.98,273.75,198.11,281.78,197.88,289.53 M198.37,261.32
						c-4.37-4.94-15.15,0.34-17.69,4.51c-2.76,4.53-0.58,11.36,0.39,15.89c1.35,6.36,2.71,12.93,6.41,18.38l0.03,0.03l0.02,0.04
						c2.33,2.68,5.67,4.96,9.24,5.56c2.4,0.41,1.47-7.15,1.5-8.02c0.22-7.5,0.9-15,1.07-22.5
						C199.39,273.43,200.87,264.14,198.37,261.32z"/>
					<path d="M202.63,266.01c0.37-6.26,5.53-6.12,10.34-4.67c6.84,2.07,9.01,7.48,7.72,14.16c-1.57,8.12-2.83,17.28-7.56,24.25
						c-1.68,1.91-9.3,8.66-9.5,2.05c-0.12-4.09-0.24-8.18-0.36-12.27C203.04,281.78,202.17,273.75,202.63,266.01 M202.88,297.71
						c0.03,0.87-0.9,8.42,1.5,8.02c3.57-0.6,6.91-2.88,9.24-5.56l0.02-0.04l0.03-0.03c3.71-5.45,5.06-12.02,6.41-18.38
						c0.97-4.53,2.54-11.04,0.39-15.89c-1.85-4.17-12.76-9.42-17.55-4.46c-2.71,2.81-1.22,10.39-1.12,13.84"/>
				</g>
			</g>
		</g>
	</g>
</g>
</svg>
