<?xml version="1.0" encoding="utf-8"?>
<!-- Generator: Adobe Illustrator 26.0.1, SVG Export Plug-In . SVG Version: 6.00 Build 0)  -->
<svg version="1.1" id="Layer_1" xmlns="http://www.w3.org/2000/svg" xmlns:xlink="http://www.w3.org/1999/xlink" x="0px" y="0px"
	 viewBox="0 0 432 648" style="enable-background:new 0 0 432 648;" xml:space="preserve">
<style type="text/css">
	.st0{fill:#FFFFFF;}
	.st1{fill:#E92A2A;}
	.st2{fill:#D52626;}
	.st3{fill:#A89FA8;}
	.st4{fill:#998F99;}
	.st5{fill:#E9E7E9;}
</style>
<g>
	<g>
		<g id="Front_00000118387366050541833080000017268204027550969755_">
			<g>
				<g>
					<g>
						<g>
							<path class="st0" d="M277.86,259.15v-8.56c0-6.19-3.43-12.78-5.56-16.29c2.11-7.07,2.14-23.99,0.99-31.84
								c-0.7-4.77-4.02-8.66-5.66-11.15c0.03-0.19,0.06-0.38,0.1-0.58c0.9-5.77-3.01-19.92-5.37-25.89
								c-1.56-3.96-4.82-5.46-7.44-6.67c-1.42-0.65-2.64-1.21-3.33-2.02c-1.77-2.06-3.52-2.62-5.07-3.12
								c-0.41-0.13-0.8-0.26-1.18-0.41c-0.6-0.24-1.12-0.72-1.92-1.44c-1.36-1.23-3.41-3.09-7.79-5.64c-2.41-1.4-5.8-3.02-9.39-4.74
								c-5.88-2.81-12.74-6.06-14.37-8.08c-1.49-1.84-1.65-7.67-1.67-9.58c0.71-1.8,0.79-4.65,0.76-6.3
								c0.3,0.14,0.66,0.21,1.09,0.16c1.47-0.18,2.84-2.46,4.48-5.42c0.46-0.83,0.9-1.62,1.23-2.09c1.42-2.03,1.11-6.42,0.07-9.72
								c-0.3-0.96-0.82-1.52-1.53-1.65c-0.98-0.18-2.05,0.56-2.82,1.27c0.15-4.1,0.09-15.64-4.64-21.33
								c-4.08-4.89-12.24-6.11-15.33-6.4l-1.22,0c-3.09,0.29-11.25,1.51-15.33,6.4c-4.74,5.68-4.79,17.22-4.64,21.33
								c-0.76-0.7-1.84-1.44-2.81-1.27c-0.71,0.13-1.23,0.69-1.53,1.65c-1.04,3.29-1.35,7.69,0.07,9.72
								c0.33,0.48,0.77,1.26,1.23,2.09c1.64,2.96,3.01,5.25,4.48,5.42c0.43,0.05,0.79-0.02,1.09-0.16c-0.03,1.82,0.07,5.1,1,6.82
								c0,0,0,0.01,0.01,0.01c-0.04,1.35-0.33,7.15-1.9,9.1c-1.64,2.02-8.3,5.21-14.17,8.02c-3.59,1.72-6.98,3.34-9.39,4.74
								c-4.38,2.54-6.43,4.41-7.79,5.64c-0.8,0.73-1.33,1.21-1.92,1.44c-0.38,0.15-0.77,0.28-1.18,0.41
								c-1.55,0.5-3.31,1.06-5.07,3.12c-0.69,0.81-1.91,1.37-3.33,2.02c-2.62,1.21-5.87,2.71-7.44,6.67
								c-2.35,5.97-6.27,20.12-5.37,25.89c0.06,0.41,0.13,0.82,0.21,1.22c-1.66,2.48-4.65,6.08-5.33,10.73
								c-1.14,7.8-1.27,24.08,0.8,31.2c-2.1,3.38-5.82,10.26-5.82,16.71v8.56c-0.59,0.96-3.68,6.54-3.02,17.44
								c0.25,4.18,0.72,8.03,1.22,12.1c0.88,7.26,3.84,15.49,3.5,25.2c-0.52,14.81-0.31,28.95,0.27,31.68
								c0.54,2.5,5.16,14.68,5.36,15.2l0.17,0.45l0.47-0.12c0.03-0.01,2.8-0.8,3.04-4.46l1.48,1.69l0.39-0.54
								c0.09-0.12,1.39-1.97,1.76-4.26c0.82-1.39,2.53-4.97,0.55-8c-2.26-3.45-5.99-10.57-6.03-10.64l0,0
								c-0.01-0.24-0.03-0.44-0.06-0.59c0.55-4.23,0-5.78,1.58-6.37c0.13-0.05,0.2-0.03,0.28,0.02c1.15,0.74,1.41,2.71,1.69,4.79
								c0.26,1.95,0.54,3.97,1.53,5.54c1.17,1.84,2.96,4.23,5.06,2.48c1.38-1.15,0.17-9.02-0.16-11.36
								c-0.42-2.91-0.42-3.73-1.57-8.35c-0.73-2.94-1.18-4.47-1.37-5.83c-0.1-1.12,0.19-5.8,0.62-9.21
								c0.49-3.92,2.91-10.33,5.48-17.12c2.93-7.76,5.96-15.77,6.16-20.43c0.3-7.21-0.65-10.79-0.99-11.83
								c0.61-0.73,2.3-2.98,2.76-5.9c0.54-3.39,0.37-9.28,0.35-9.42c0.02-0.1,1.8-10.27,4.73-14.92c2.23-3.54,5.51-10.47,6.9-14.09
								c0.51,3.59,1.08,6.79,1.65,8.51c0.72,2.18,1.65,4.59,2.54,6.93c1.27,3.33,2.47,6.48,2.78,8.12
								c0.44,2.33,0.13,19.46,0.03,25.09c-0.02,1.2-0.04,2-0.04,2.2c0,0.01,0,0.01-0.01,0.02c-0.11,0.11-0.19,0.3-0.22,0.5
								c-0.22,0.41-0.58,0.97-0.91,1.49c-1.77,2.79-4.74,7.47-4.17,12.07c0.64,5.14,1.42,7.29,1.7,7.93
								c-0.58,1.85-4.88,15.91-4.22,26.05c0.23,3.54-1.16,9.06-2.92,16.04c-2.27,9.01-6.56,29.75-7.51,42.68
								c-1.41,19.14,4.08,41.04,5.59,52.87c0.32,2.53,0.54,4.21,0.57,4.72c0.07,1.25-0.04,2.11-0.18,3.11
								c-0.18,1.36-0.39,2.9-0.18,5.79c0.02,0.29,0.07,0.61,0.14,0.95c-0.74,1.66-7.26,16.63-7.43,26.39
								c-0.08,4.77,1.44,15.36,3.06,26.57c1.46,10.15,2.86,20.64,3.3,27.11l0.01,0.17c0.04,0.54,0.07,1.06,0.09,1.54
								c0.07,3.47-0.26,10.38-0.49,11.06c-0.52,1.59-1.01,3.09-0.97,5.43c-0.14,0.14-0.28,0.27-0.42,0.39
								c-1.92,1.64-2.7,3.85-3.45,5.98c-0.25,0.7-0.48,1.36-0.75,1.99c-1.03,2.42-10.21,9.99-11.47,10.78
								c-0.99,0.62-3.49,4.29-3.49,4.29c-0.94,1-0.65,2.66-0.46,3.75c0.03,0.19,0.07,0.37,0.09,0.53c0.08,0.58,0.26,0.98,0.4,1.31
								c0.13,0.28,0.22,0.49,0.22,0.74c0.01,0.34-0.05,0.75-0.1,1.14c-0.05,0.35-0.1,0.72-0.11,1.06c-0.01,0.61,0.02,2.08,0.61,2.57
								c0.34,0.28,0.66,0.48,1.13,0.56c-0.05,0.15-0.12,0.35-0.2,0.59c-0.37,1.08,0.45,2.19,1.05,2.63
								c0.43,0.32,1.11,0.35,1.58,0.32c0,0.09,0.02,0.15,0.03,0.2c0.07,0.77,0.33,1.83,1.31,2.29c1,0.47,1.5,0.36,2.09,0.08
								c1.14,1.58,3.46,2.54,5.55,2.34c0.27-0.03,0.54-0.07,0.8-0.14c2.15-0.55,4.85-2.41,5.85-4.89c0.8-1.99,1.97-2.65,3.01-3.1
								c4.29-1.35,6.63-6.13,7.25-10.57c0.55-3.92,3.06-8.18,3.72-9.06c2.99-1.26,4.77-2.84,6.3-5.1c1.61-2.36,1.67-3.87,1.22-5.83
								c-0.43-1.86-1.59-10.64-2-12c-0.35-1.19-0.52-2.41-0.8-3.9c-0.87-4.63,4.87-28.51,6.56-33.16c0.65-1.78,1.57-3.73,2.65-5.98
								c1.82-3.82,4.09-8.57,5.9-14.58c2.74-9.1-1.59-29.24-2.11-31.62c1.59-2.79,3.01-5.68,4.23-8.63c0.98-2.36,1.9-4.81,2.37-7.33
								c0.68-3.72,1.28-10.77,1.96-18.93c0.61-7.21,1.29-15.38,2.13-21.91c1.03-8.05,3.17-17.14,4.88-24.45
								c1.17-5,2.18-9.32,2.52-11.92c0.62-4.87,0.01-9.72-0.34-11.84c0.37,0.04,1.49,0.05,1.76,0c-0.34,2.12-0.96,6.97-0.34,11.84
								c0.33,2.6,1.34,6.92,2.52,11.92c1.71,7.31,3.84,16.4,4.88,24.45c0.84,6.53,1.53,14.7,2.13,21.91
								c0.69,8.16,1.28,15.21,1.96,18.93c0.46,2.52,1.39,4.97,2.37,7.33c1.23,2.95,2.64,5.84,4.23,8.63
								c-0.53,2.38-4.85,22.52-2.11,31.62c1.81,6.01,4.08,10.77,5.9,14.58c1.07,2.25,2,4.2,2.65,5.98
								c1.69,4.65,7.43,28.53,6.56,33.16c-0.28,1.49-0.44,2.7-0.8,3.9c-0.4,1.36-1.57,10.13-2,12c-0.45,1.96-0.39,3.47,1.22,5.83
								c1.53,2.25,3.31,3.84,6.3,5.1c0.65,0.88,3.17,5.14,3.72,9.06c0.62,4.44,2.96,9.22,7.25,10.57c1.04,0.45,2.21,1.11,3.01,3.1
								c1,2.48,3.7,4.34,5.85,4.89c0.26,0.07,0.53,0.11,0.8,0.14c2.09,0.2,4.41-0.76,5.55-2.34c0.58,0.28,1.09,0.39,2.09-0.08
								c1.07-0.51,1.28-1.72,1.33-2.49c0.47,0.03,1.16,0,1.59-0.32c0.6-0.44,1.41-1.55,1.05-2.63c-0.08-0.22-0.14-0.41-0.19-0.56
								l0,0c0-0.01-0.01-0.02-0.01-0.04c0.47-0.09,0.79-0.28,1.13-0.56c0.59-0.49,0.63-1.96,0.61-2.57
								c-0.01-0.34-0.06-0.7-0.11-1.06c-0.05-0.39-0.11-0.8-0.1-1.14c0-0.25,0.1-0.46,0.22-0.74c0.14-0.32,0.32-0.72,0.4-1.31
								c0.02-0.16,0.05-0.34,0.09-0.53c0.19-1.09,0.48-2.74-0.46-3.75c0,0-2.5-3.67-3.49-4.29c-1.26-0.79-10.44-8.36-11.47-10.78
								c-0.27-0.63-0.5-1.29-0.75-1.99c-0.75-2.14-1.53-4.34-3.45-5.98c-0.14-0.12-0.28-0.25-0.42-0.39
								c0.04-2.34-0.45-3.84-0.97-5.43c-0.22-0.68-0.56-7.59-0.49-11.06c0.02-0.48,0.05-1,0.09-1.54c0.01-0.06,0.02-0.12,0.03-0.17
								l-0.02,0c0.44-6.48,1.84-16.97,3.3-27.11c1.62-11.21,3.15-21.8,3.06-26.57c-0.17-9.7-6.6-24.53-7.41-26.35
								c0.09-0.41,0.15-0.79,0.17-1.14c0.21-2.89,0-4.43-0.18-5.79c-0.13-1-0.25-1.86-0.18-3.11c0.03-0.51,0.24-2.18,0.57-4.72
								c1.51-11.83,7.01-33.73,5.59-52.87c-0.95-12.94-5.24-33.68-7.51-42.68c-1.76-6.99-3.15-12.51-2.92-16.04
								c0.66-10.14-3.64-24.2-4.22-26.05c0.28-0.65,1.06-2.79,1.7-7.93c0.57-4.61-2.39-9.28-4.17-12.07
								c-0.52-0.82-1.11-1.75-1.14-2.01c0-0.2-0.01-0.99-0.04-2.2c-0.1-5.63-0.41-22.76,0.03-25.09c0.31-1.64,1.51-4.79,2.78-8.12
								c0.89-2.34,1.81-4.75,2.54-6.93c0.55-1.66,1.08-4.75,1.57-8.19c0-0.01,0-0.01,0-0.02c1.42,3.54,4.62,10.04,6.68,13.69
								c3.63,6.44,4.88,16.94,5.08,24.34c0.08,2.95,2.15,5.17,2.76,5.9c-0.34,1.04-1.29,4.62-0.99,11.83
								c0.19,4.65,3.22,12.67,6.16,20.43c2.57,6.79,4.99,13.2,5.48,17.12c0.35,2.83,0.7,4.66,0.72,6.05
								c0.02,1.34,0.01,2.68-0.12,4.02c-0.12,1.24-0.64,2.7-1.27,5.21c-1.15,4.62-1.15,5.44-1.57,8.35
								c-0.33,2.33-1.54,10.21-0.16,11.36c2.09,1.74,3.89-0.64,5.06-2.48c1-1.57,1.27-3.59,1.53-5.54c0.28-2.09,0.55-4.06,1.69-4.79
								c0.08-0.05,0.15-0.07,0.28-0.02c1.58,0.59,1.02,2.13,1.58,6.37c-0.03,0.15-0.05,0.35-0.06,0.59l0,0
								c-0.04,0.07-3.77,7.19-6.03,10.64c-1.99,3.03-0.28,6.6,0.55,8c0.37,2.29,1.67,4.14,1.76,4.26l0.39,0.54l1.48-1.69
								c0.24,3.66,3.01,4.45,3.04,4.46l0.47,0.12l0.17-0.45c0.2-0.52,4.82-12.69,5.36-15.2c0.59-2.73,0.8-16.87,0.27-31.68
								c-0.34-9.72,2.62-17.94,3.5-25.2c0.5-4.08,0.96-7.93,1.22-12.1C281.54,265.69,278.45,260.11,277.86,259.15z"/>
						</g>
					</g>
				</g>
			</g>
		</g>
	</g>
	<g>
		<g id="Flexor_digitorium__x28_Under_arm_x29__00000119835047464519370950000017135948005878373051_">
			<path class="st1" d="M135.76,267.69c0.29-6.81-0.86-9.92-1.19-10.96c-2.24,1.67-4.25,3.58-6.03,5.71c0.32,0.93,0.4,2.6,0.6,3.56
				c1.82,8.61,0.88,17.07-0.91,25.47c0.32-0.85,0.64-1.71,0.97-2.57c2.9-7.68,6.29-15.94,6.48-20.42L135.76,267.69z"/>
			<path class="st1" d="M249.87,267.46c-0.29-6.81,1.12-9.91,1.44-10.95c2.24,1.67,4.43,3.72,6.21,5.85
				c-0.32,0.93-0.69,2.16-0.89,3.12c-1.82,8.61-0.69,17.73,1.1,26.13c-0.32-0.85-1.02-1.93-1.36-2.79
				c-2.9-7.68-6.3-15.98-6.49-20.46L249.87,267.46z"/>
			<path class="st2" d="M130.24,276.95c0.01-0.39,0.02-0.77,0.02-1.16c3.05-4.48,4.75-8.56,5.16-12.47
				c0.05,0.95,0.07,2.01,0.05,3.18C134.59,269.8,132.86,273.24,130.24,276.95 M129.86,269.07c-0.04-0.31-0.08-0.62-0.13-0.94
				c2.57-3.63,4.2-6.82,5.07-9.94c0.08,0.37,0.17,0.81,0.25,1.32C134.05,262.51,132.36,265.61,129.86,269.07"/>
			<path class="st2" d="M255.51,277.04c-2.57-3.64-4.3-7.02-5.22-10.25c-0.02-1.1-0.01-2.1,0.03-3.01c0.5,3.79,2.2,7.75,5.16,12.1
				C255.49,276.26,255.5,276.65,255.51,277.04 M255.88,269.14c-2.48-3.43-4.16-6.5-5.18-9.46c0.08-0.51,0.16-0.95,0.24-1.32
				c0.89,3.08,2.52,6.25,5.07,9.85C255.96,268.51,255.92,268.83,255.88,269.14"/>
		</g>
		<g id="Front_00000103981725189358210890000005492776221092792456_">
			<path class="st3" d="M192.87,139.91c-0.88-0.07-1.76-0.26-2.58-0.56c-0.17-1.53-0.35-3.1-0.54-4.7c0.43,0.1,0.89,0.18,1.35,0.24
				c0.36,0.05,0.72,0.08,1.06,0.11h1.42c0.33-0.03,0.68-0.06,1.04-0.11c0.45-0.06,0.89-0.13,1.32-0.23
				c-0.19,1.61-0.37,3.18-0.54,4.71C194.58,139.66,193.73,139.84,192.87,139.91 M196.08,139.09c0.17-1.54,0.35-3.08,0.53-4.62
				c0.08-0.02,0.15-0.05,0.22-0.08c0.51-0.18,1.46-0.76,2.63-1.57c-0.13,1.6-0.38,3.18-0.7,4.73
				C197.92,138.15,197.02,138.68,196.08,139.09 M189.59,139.07c-0.94-0.42-1.84-0.96-2.69-1.56c-0.32-1.55-0.57-3.13-0.69-4.73
				c1.2,0.83,2.17,1.43,2.68,1.61c0.06,0.02,0.11,0.04,0.17,0.06C189.24,135.99,189.42,137.53,189.59,139.07 M199.57,136.96
				c0.28-1.52,0.49-3.06,0.58-4.62c1.49-1.07,3.24-2.42,4.84-3.76c-0.5,1.69-0.99,3.25-1.48,4.71c-0.49,0.55-1,1.08-1.54,1.58
				C201.22,135.58,200.42,136.3,199.57,136.96 M186.1,136.91c-0.83-0.65-1.61-1.35-2.35-2.04c-0.53-0.51-1.05-1.04-1.54-1.58
				c-0.49-1.46-0.98-3.02-1.48-4.71c1.59,1.33,3.31,2.66,4.79,3.72C185.62,133.85,185.82,135.39,186.1,136.91"/>
			<path class="st4" d="M186.91,137.51c-0.27-0.19-0.54-0.39-0.8-0.6c-0.28-1.52-0.49-3.06-0.58-4.62c0.24,0.17,0.47,0.33,0.69,0.49
				C186.34,134.38,186.59,135.96,186.91,137.51"/>
			<path class="st4" d="M190.29,139.35c-0.12-0.04-0.23-0.09-0.35-0.13s-0.23-0.1-0.34-0.15c-0.17-1.54-0.35-3.07-0.53-4.61
				c0.21,0.07,0.44,0.13,0.68,0.19C189.93,136.25,190.11,137.82,190.29,139.35"/>
			<path class="st4" d="M198.77,137.55c0.32-1.56,0.57-3.13,0.7-4.73c0.22-0.15,0.45-0.32,0.69-0.49c-0.09,1.56-0.3,3.1-0.58,4.62
				C199.31,137.16,199.04,137.36,198.77,137.55"/>
			<path class="st4" d="M195.39,139.37c0.17-1.54,0.35-3.1,0.54-4.71c0.23-0.05,0.46-0.11,0.68-0.18c-0.18,1.54-0.36,3.08-0.53,4.62
				c-0.1,0.04-0.19,0.08-0.29,0.12C195.66,139.27,195.53,139.32,195.39,139.37"/>
			<path class="st5" d="M191.14,170.2c-0.11-0.21-0.23-0.41-0.35-0.61c-0.06-0.09-0.12-0.18-0.18-0.27c0.5-7.84-0.1-15.1-1.81-21.6
				c-0.25-0.96-0.51-1.91-0.77-2.86c-0.71-2.59-1.43-5.24-1.93-7.94c0.26,0.21,0.53,0.41,0.8,0.6c0.43,2.11,1,4.19,1.55,6.23
				c0.69,2.54,1.4,5.16,1.86,7.83c1.06,6.18,1.35,12.22,0.91,18.44C191.21,170.08,191.19,170.15,191.14,170.2"/>
			<path class="st5" d="M192.27,174.48c-0.08-0.8-0.2-1.58-0.4-2.32c0.51-5.34-0.03-10.78-0.55-16.07
				c-0.09-0.87-0.17-1.74-0.25-2.61c-0.44-4.73-0.94-9.56-1.48-14.42c0.11,0.05,0.23,0.1,0.34,0.15s0.23,0.09,0.35,0.13
				c0.65,5.8,1.19,11.12,1.63,16.14c0.06,0.69,0.12,1.39,0.19,2.08C192.61,163.12,193.13,168.84,192.27,174.48"/>
			<path class="st5" d="M195.18,169.46c-0.51-7.87-0.01-15.22,1.69-21.74c0.25-0.96,0.51-1.91,0.77-2.86
				c0.71-2.58,1.42-5.21,1.92-7.89c-0.26,0.2-0.53,0.4-0.8,0.59c-0.43,2.1-0.99,4.16-1.54,6.19c-0.69,2.54-1.4,5.16-1.86,7.83
				c-1.06,6.18-1.21,12.79-0.77,19.02L195.18,169.46z"/>
			<path class="st5" d="M193.56,174.12c-0.9-5.71-0.5-10.94,0.02-16.56c0.06-0.69,0.13-1.38,0.19-2.07
				c0.44-5.02,0.98-10.34,1.63-16.12c0.14-0.05,0.27-0.1,0.4-0.15c0.1-0.04,0.19-0.08,0.29-0.12c-0.54,4.85-1.04,9.68-1.48,14.39
				c-0.08,0.86-0.17,1.73-0.25,2.6c-0.53,5.34-0.98,11.11-0.45,16.5c-0.19,0.76-0.02,0.6-0.09,1.43L193.56,174.12z"/>
			<g>
				<path class="st3" d="M224.11,446.3c0.45,0,0.89-0.03,1.34-0.11c2.28-0.38,3.98-1.68,5.45-3.27c-0.01,0-0.02,0-0.02,0l-0.21,0.01
					c-3.05,0-13.43-8.45-15.75-11.04c0,0,13.51,9.97,15.71,9.97c0.03,0,0.06,0,0.09-0.01c1.84-0.28,7.08-8.89,7.19-9.07h0
					c0,0-0.08,0.14-0.23,0.38c-1.74,1.9-4.23,3.19-6.81,3.19c-0.14,0-0.27,0-0.41-0.01c-2.83-0.15-5.6-2.09-6.29-4.8
					c-0.52-2.03,0.11-4.21,1.23-5.98c1.12-1.77,2.7-3.21,4.26-4.63c-3.25,1.08-4.77,1.77-6.5,2.96c-1.26,0.87-5.25,2.73-8.17,2.73
					c-1.1,0-2.05-0.26-2.64-0.94c-0.6-0.69-1.2-1.37-1.68-2.14c-0.26-0.43-0.53-0.86-0.79-1.29c-0.4-0.02-0.8-0.07-1.2-0.15
					c-1.03-0.19-2.03-0.56-2.99-1.17c0.13,0.95,0.25,1.79,0.38,2.5c0.82,4.47,2.88,8.81,4.95,12.81c0.34,0.65,0.67,1.33,1.02,2.01
					c0.92,1.81,1.92,3.66,3.2,5.14l0.1,0.11c0.8,0.35,1.59,0.68,2.31,1C219.68,445.46,221.89,446.3,224.11,446.3"/>
				<path class="st3" d="M161.85,446.3c-0.45,0-0.89-0.03-1.34-0.11c-2.28-0.38-3.98-1.68-5.45-3.27c0.01,0,0.02,0,0.02,0l0.21,0.01
					c3.05,0,13.43-8.45,15.75-11.04c0,0-13.51,9.97-15.71,9.97c-0.03,0-0.06,0-0.08-0.01c-1.84-0.28-7.08-8.89-7.19-9.07h0
					c0,0,0.08,0.14,0.23,0.38c1.74,1.9,4.23,3.19,6.81,3.19c0.14,0,0.27,0,0.41-0.01c2.83-0.15,5.6-2.09,6.29-4.8
					c0.52-2.03-0.11-4.21-1.23-5.98c-1.12-1.77-2.7-3.21-4.26-4.63c3.25,1.08,4.77,1.77,6.5,2.96c1.26,0.87,5.25,2.73,8.17,2.73
					c1.1,0,2.05-0.26,2.64-0.94c0.6-0.69,1.2-1.37,1.68-2.14c0.26-0.43,0.53-0.86,0.79-1.29c0.4-0.02,0.8-0.07,1.2-0.15
					c1.03-0.19,2.03-0.56,2.99-1.17c-0.13,0.95-0.25,1.79-0.38,2.5c-0.82,4.47-2.88,8.81-4.95,12.81c-0.34,0.65-0.67,1.33-1.02,2.01
					c-0.92,1.81-1.92,3.66-3.2,5.14l-0.1,0.11c-0.8,0.35-1.59,0.68-2.31,1C166.28,445.46,164.07,446.3,161.85,446.3"/>
				<g>
					<g>
						<path d="M186.61,239.62c-3.31,0.51-6.33,1.66-9.47,2.74c-8.44,2.91-5.45-7.96-3.13-11.69c2.68-4.31,8.1-6.78,13-7.69
							c5.85-1.08,4.52,5.83,4.43,8.44C191.31,234.95,191.62,238.98,186.61,239.62 M192.08,231.48c0.07-1.93,0.19-3.84,0.04-5.77
							c-0.52-6.73-10.94-1.76-13.71-0.09c-5.35,3.23-8.2,9.5-7.46,15.54c0.15,1.23,1.13,2.85,2.64,2.68
							c4.53-0.51,8.62-2.91,13.15-3.61c2.36-0.3,3.82-0.73,4.9-2.83C192.43,235.85,192.02,233.15,192.08,231.48"/>
						<path d="M198.96,239.62c-5.08-0.66-4.78-4.68-4.9-8.2c-0.1-2.61-1.46-9.52,4.47-8.43c4.96,0.92,10.46,3.4,13.18,7.71
							c2.35,3.73,5.41,14.61-3.14,11.68C205.37,241.3,202.31,240.14,198.96,239.62 M193.4,231.47c0.06,1.67-0.34,4.37,0.47,5.93
							c1.1,2.1,2.57,2.53,4.97,2.84c4.59,0.71,8.74,3.12,13.33,3.64c1.53,0.17,2.51-1.45,2.66-2.68c0.74-6.04-2.17-12.32-7.59-15.56
							c-2.81-1.68-13.38-6.67-13.89,0.06C193.2,227.64,193.33,229.55,193.4,231.47"/>
						<path d="M184.97,220.05c-2.79,1.66-12.71,8.13-13.44,1.48c-0.63-5.75,1.06-9.82,6.37-12.42c3.24-1.58,8.4-4.62,11.97-4.01
							c2.46,1.44,1.47,6.18,1.06,8.33C190.32,216.71,187.65,218.46,184.97,220.05 M190.28,204.52c-0.76-0.32-1.74-0.2-2.51-0.08
							c-1.32,0.2-2.57,0.71-3.78,1.26c-0.32,0.14-0.64,0.29-0.96,0.44c-2.77,1.29-6.17,2.21-8.57,4.18
							c-2.45,2.01-3.42,4.24-3.73,7.36c-0.16,1.59-0.5,6.77,1,8.04c1.78,1.51,3.91-0.22,5.69-1.06c3.67-1.74,8.55-3.46,11.47-6.36
							c2.3-2.28,3.63-6.21,3.53-9.4c-0.05-1.45-0.54-3.38-1.84-4.21L190.28,204.52"/>
						<path d="M200.21,220.08c-2.67-1.59-5.35-3.34-5.96-6.63c-0.4-2.15-1.39-6.89,1.06-8.33c3.57-0.6,8.73,2.43,11.97,4.01
							c5.31,2.6,7.01,6.67,6.37,12.42C212.91,228.21,202.99,221.73,200.21,220.08 M194.9,204.54l-0.3,0.16
							c-1.3,0.83-1.8,2.76-1.84,4.21c-0.1,3.2,1.23,7.12,3.53,9.4c2.93,2.91,7.8,4.62,11.47,6.36c1.78,0.84,3.91,2.57,5.69,1.06
							c1.51-1.27,1.16-6.45,1-8.04c-0.31-3.12-1.27-5.35-3.73-7.36c-2.39-1.97-5.8-2.89-8.57-4.18c-0.32-0.15-0.64-0.3-0.96-0.44
							c-1.21-0.55-2.46-1.06-3.78-1.26C196.64,204.34,195.66,204.23,194.9,204.54"/>
						<g>
							<path d="M155.21,442.94l-0.21-0.01c-0.01,0-0.02,0-0.02,0c0,0-0.01-0.01-0.01-0.01c-2.65-0.47-7.53-8.93-7.53-10.12h0.53
								c0.11,0.18,5.36,8.79,7.19,9.07c0.03,0,0.05,0.01,0.09,0.01c2.2,0,15.71-9.97,15.71-9.97
								C168.64,434.49,158.27,442.94,155.21,442.94"/>
							<path d="M230.58,442.94l0.21-0.01c0.01,0,0.02,0,0.02,0c0,0,0.01-0.01,0.01-0.01c2.65-0.47,7.53-8.93,7.53-10.12h-0.53
								c-0.11,0.18-5.36,8.79-7.19,9.07c-0.03,0-0.05,0.01-0.09,0.01c-2.2,0-15.71-9.97-15.71-9.97
								C217.16,434.49,227.53,442.94,230.58,442.94"/>
							<path d="M277.84,259.14v-8.56c0-6.19-3.43-12.78-5.56-16.29c2.11-7.07,2.14-23.99,0.99-31.84c-0.7-4.77-4.02-8.66-5.66-11.15
								c0.03-0.19,0.06-0.38,0.1-0.58c0.9-5.77-3.01-19.92-5.37-25.89c-1.56-3.96-4.82-5.46-7.44-6.67
								c-1.42-0.65-2.64-1.21-3.33-2.02c-1.77-2.06-3.52-2.62-5.07-3.12c-0.41-0.13-0.8-0.26-1.18-0.41
								c-0.6-0.24-1.12-0.72-1.92-1.44c-1.36-1.23-3.41-3.09-7.79-5.64c-2.41-1.4-5.8-3.02-9.39-4.74
								c-5.88-2.81-12.74-6.06-14.37-8.08c-1.49-1.84-1.65-7.67-1.67-9.58c0.71-1.8,0.79-4.65,0.76-6.3
								c0.3,0.14,0.66,0.21,1.09,0.16c1.47-0.18,2.84-2.46,4.48-5.42c0.46-0.83,0.9-1.62,1.23-2.09c1.42-2.03,1.11-6.42,0.07-9.72
								c-0.3-0.96-0.82-1.52-1.53-1.65c-0.98-0.18-2.05,0.56-2.82,1.27c0.15-4.1,0.09-15.64-4.64-21.33
								c-4.08-4.89-12.24-6.11-15.33-6.4h-1.22c-3.09,0.29-11.25,1.51-15.33,6.4c-4.74,5.68-4.79,17.22-4.64,21.33
								c-0.76-0.7-1.84-1.44-2.81-1.27c-0.71,0.13-1.23,0.69-1.53,1.65c-1.04,3.29-1.35,7.69,0.07,9.72
								c0.33,0.48,0.77,1.26,1.23,2.09c1.64,2.96,3.01,5.25,4.48,5.42c0.43,0.05,0.79-0.02,1.09-0.16c-0.03,1.82,0.07,5.1,1,6.82
								c0,0,0,0.01,0.01,0.01c-0.04,1.35-0.33,7.15-1.9,9.1c-1.64,2.02-8.3,5.21-14.17,8.02c-3.59,1.72-6.98,3.34-9.39,4.74
								c-4.38,2.54-6.43,4.41-7.79,5.64c-0.8,0.73-1.33,1.21-1.92,1.44c-0.38,0.15-0.77,0.28-1.18,0.41
								c-1.55,0.5-3.31,1.06-5.07,3.12c-0.69,0.81-1.91,1.37-3.33,2.02c-2.62,1.21-5.87,2.71-7.44,6.67
								c-2.35,5.97-6.27,20.12-5.37,25.89c0.06,0.41,0.13,0.82,0.21,1.22c-1.66,2.48-4.65,6.08-5.33,10.73
								c-1.14,7.8-1.27,24.08,0.8,31.2c-2.1,3.38-5.82,10.26-5.82,16.71v8.56c-0.59,0.96-3.68,6.54-3.02,17.44
								c0.25,4.18,0.72,8.03,1.22,12.1c0.88,7.26,3.84,15.49,3.5,25.2c-0.52,14.81-0.31,28.95,0.27,31.68
								c0.54,2.5,5.16,14.68,5.36,15.2l0.17,0.45l0.46-0.12c0.03-0.01,2.8-0.8,3.04-4.46l1.48,1.69l0.39-0.54
								c0.09-0.12,1.39-1.97,1.76-4.26c0.82-1.39,2.53-4.97,0.55-8c-2.26-3.45-5.99-10.57-6.03-10.64l0,0
								c-0.01-0.24-0.03-0.44-0.06-0.59c0.55-4.23,0-5.77,1.58-6.37c0.13-0.05,0.2-0.03,0.28,0.02c1.15,0.74,1.41,2.71,1.69,4.79
								c0.26,1.95,0.54,3.97,1.53,5.54c1.17,1.84,2.96,4.23,5.06,2.48c1.38-1.15,0.17-9.02-0.16-11.36
								c-0.42-2.91-0.42-3.73-1.57-8.35c-0.73-2.94-1.18-4.47-1.37-5.83c-0.1-1.12,0.19-5.8,0.62-9.21
								c0.49-3.92,2.91-10.33,5.48-17.12c2.93-7.76,5.96-15.77,6.16-20.43c0.3-7.21-0.65-10.79-0.99-11.83
								c0.61-0.73,2.3-2.98,2.76-5.9c0.54-3.39,0.37-9.28,0.35-9.42c0.02-0.1,1.8-10.27,4.73-14.92c2.23-3.54,5.51-10.47,6.91-14.09
								c0.51,3.59,1.08,6.79,1.65,8.51c0.72,2.18,1.65,4.59,2.54,6.93c1.27,3.33,2.47,6.48,2.78,8.12
								c0.44,2.33,0.13,19.46,0.03,25.09c-0.02,1.2-0.04,2-0.04,2.2c0,0.01,0,0.01-0.01,0.02c-0.11,0.11-0.19,0.3-0.22,0.5
								c-0.22,0.41-0.58,0.97-0.91,1.49c-1.77,2.79-4.74,7.47-4.17,12.07c0.64,5.14,1.42,7.29,1.7,7.93
								c-0.58,1.85-4.88,15.91-4.22,26.05c0.23,3.54-1.16,9.06-2.92,16.04c-2.27,9.01-6.56,29.75-7.51,42.68
								c-1.41,19.14,4.08,41.04,5.59,52.87c0.32,2.53,0.54,4.21,0.57,4.72c0.07,1.25-0.04,2.11-0.18,3.11
								c-0.18,1.36-0.39,2.9-0.18,5.79c0.02,0.29,0.07,0.61,0.14,0.95c-0.74,1.66-7.26,16.63-7.43,26.39
								c-0.08,4.77,1.44,15.36,3.06,26.57c1.46,10.15,2.86,20.64,3.3,27.11l0.01,0.17c0.04,0.54,0.07,1.06,0.09,1.54
								c0.07,3.47-0.26,10.38-0.49,11.06c-0.52,1.59-1.01,3.09-0.97,5.43c-0.14,0.14-0.28,0.27-0.42,0.39
								c-1.92,1.64-2.7,3.85-3.45,5.98c-0.25,0.7-0.48,1.36-0.75,1.99c-1.04,2.42-10.21,9.99-11.47,10.78
								c-0.99,0.62-3.49,4.29-3.49,4.29c-0.94,1-0.65,2.66-0.46,3.75c0.03,0.19,0.06,0.37,0.09,0.53c0.08,0.58,0.26,0.98,0.4,1.31
								c0.13,0.28,0.22,0.49,0.22,0.74c0.01,0.34-0.05,0.75-0.1,1.14c-0.05,0.35-0.1,0.72-0.11,1.06c-0.01,0.61,0.02,2.08,0.61,2.57
								c0.34,0.28,0.66,0.48,1.13,0.56c-0.05,0.15-0.12,0.35-0.2,0.59c-0.37,1.08,0.45,2.19,1.05,2.63
								c0.43,0.32,1.11,0.35,1.58,0.32c0,0.09,0.02,0.15,0.03,0.2c0.07,0.77,0.33,1.83,1.31,2.29c1,0.47,1.5,0.36,2.09,0.08
								c1.14,1.58,3.46,2.54,5.55,2.34c0.27-0.03,0.54-0.07,0.8-0.14c2.15-0.55,4.85-2.41,5.85-4.89c0.8-1.99,1.97-2.65,3.01-3.1
								c4.29-1.35,6.63-6.13,7.25-10.57c0.55-3.92,3.06-8.18,3.72-9.06c2.99-1.26,4.77-2.84,6.3-5.1c1.61-2.36,1.67-3.87,1.22-5.83
								c-0.43-1.86-1.59-10.64-2-12c-0.35-1.19-0.52-2.41-0.8-3.9c-0.87-4.63,4.87-28.51,6.56-33.16c0.65-1.78,1.57-3.73,2.65-5.98
								c1.82-3.82,4.09-8.57,5.9-14.58c2.74-9.1-1.59-29.24-2.11-31.62c1.59-2.79,3.01-5.68,4.23-8.63c0.98-2.36,1.9-4.81,2.37-7.33
								c0.68-3.72,1.28-10.77,1.96-18.93c0.61-7.21,1.29-15.38,2.13-21.91c1.03-8.05,3.17-17.14,4.88-24.45
								c1.17-5,2.18-9.32,2.52-11.92c0.62-4.87,0.01-9.72-0.34-11.84c0.37,0.04,1.49,0.05,1.76,0c-0.34,2.12-0.96,6.97-0.34,11.84
								c0.33,2.6,1.34,6.92,2.52,11.92c1.71,7.31,3.84,16.4,4.88,24.45c0.84,6.53,1.53,14.7,2.13,21.91
								c0.69,8.16,1.28,15.21,1.96,18.93c0.46,2.52,1.39,4.97,2.37,7.33c1.23,2.95,2.64,5.84,4.23,8.63
								c-0.53,2.38-4.85,22.52-2.11,31.62c1.81,6.01,4.08,10.77,5.9,14.58c1.07,2.25,2,4.2,2.65,5.98
								c1.69,4.65,7.43,28.53,6.56,33.16c-0.28,1.49-0.44,2.7-0.8,3.9c-0.4,1.36-1.57,10.13-2,12c-0.45,1.96-0.39,3.47,1.22,5.83
								c1.53,2.25,3.31,3.84,6.3,5.1c0.65,0.88,3.17,5.14,3.71,9.06c0.62,4.44,2.96,9.22,7.25,10.57c1.04,0.45,2.21,1.11,3.01,3.1
								c1,2.48,3.7,4.34,5.85,4.89c0.26,0.07,0.53,0.11,0.8,0.14c2.09,0.2,4.41-0.76,5.55-2.34c0.58,0.28,1.09,0.39,2.09-0.08
								c1.07-0.51,1.28-1.72,1.33-2.49c0.47,0.03,1.16,0,1.59-0.32c0.6-0.44,1.41-1.55,1.05-2.63c-0.08-0.22-0.14-0.41-0.19-0.56
								l0,0c0-0.01-0.01-0.02-0.01-0.04c0.47-0.09,0.79-0.28,1.13-0.56c0.59-0.49,0.63-1.96,0.61-2.57
								c-0.01-0.34-0.06-0.7-0.11-1.06c-0.05-0.39-0.11-0.8-0.1-1.14c0-0.25,0.1-0.46,0.22-0.74c0.14-0.32,0.32-0.72,0.4-1.31
								c0.02-0.16,0.05-0.34,0.09-0.53c0.19-1.09,0.48-2.74-0.46-3.75c0,0-2.5-3.67-3.49-4.29c-1.26-0.79-10.44-8.36-11.47-10.78
								c-0.27-0.63-0.5-1.29-0.75-1.99c-0.75-2.14-1.53-4.34-3.45-5.98c-0.14-0.12-0.28-0.25-0.42-0.39
								c0.04-2.34-0.45-3.84-0.97-5.43c-0.22-0.68-0.56-7.59-0.49-11.06c0.02-0.48,0.05-1,0.09-1.54c0.01-0.06,0.02-0.12,0.03-0.17
								l-0.02,0c0.44-6.48,1.84-16.97,3.3-27.11c1.62-11.21,3.15-21.8,3.06-26.57c-0.17-9.7-6.6-24.53-7.41-26.35
								c0.09-0.41,0.15-0.79,0.17-1.14c0.21-2.89,0-4.43-0.18-5.79c-0.13-1-0.25-1.86-0.18-3.11c0.03-0.51,0.24-2.18,0.57-4.72
								c1.52-11.83,7.01-33.73,5.59-52.87c-0.95-12.94-5.24-33.68-7.51-42.68c-1.76-6.99-3.15-12.51-2.92-16.04
								c0.66-10.14-3.64-24.2-4.22-26.05c0.28-0.65,1.06-2.79,1.7-7.93c0.57-4.61-2.39-9.28-4.17-12.07
								c-0.52-0.82-1.11-1.75-1.14-2.01c0-0.2-0.01-0.99-0.04-2.2c-0.1-5.63-0.41-22.76,0.03-25.09c0.31-1.64,1.51-4.79,2.78-8.12
								c0.89-2.34,1.81-4.75,2.54-6.93c0.55-1.66,1.08-4.75,1.57-8.19c0-0.01,0-0.01,0-0.02c1.42,3.54,4.62,10.04,6.68,13.69
								c3.63,6.44,4.88,16.94,5.08,24.34c0.08,2.95,2.15,5.17,2.76,5.9c-0.34,1.04-1.29,4.62-0.99,11.83
								c0.19,4.65,3.22,12.67,6.16,20.43c2.57,6.79,4.99,13.2,5.48,17.12c0.35,2.83,0.7,4.66,0.72,6.05
								c0.02,1.34,0.01,2.68-0.12,4.02c-0.12,1.24-0.64,2.7-1.27,5.21c-1.15,4.62-1.15,5.44-1.57,8.35
								c-0.33,2.33-1.54,10.21-0.16,11.36c2.09,1.74,3.89-0.64,5.06-2.48c1-1.57,1.27-3.59,1.53-5.54c0.28-2.09,0.55-4.06,1.69-4.79
								c0.08-0.05,0.15-0.07,0.28-0.02c1.58,0.59,1.02,2.13,1.58,6.37c-0.03,0.15-0.05,0.35-0.06,0.59l0,0
								c-0.04,0.07-3.77,7.19-6.03,10.64c-1.99,3.03-0.28,6.6,0.55,8c0.37,2.29,1.67,4.14,1.76,4.26l0.39,0.54l1.48-1.69
								c0.24,3.66,3.01,4.45,3.04,4.46l0.47,0.12l0.17-0.45c0.2-0.52,4.82-12.69,5.36-15.2c0.59-2.73,0.8-16.86,0.27-31.68
								c-0.34-9.72,2.62-17.94,3.5-25.2c0.5-4.08,0.96-7.93,1.22-12.1C281.53,265.69,278.44,260.11,277.84,259.14z M272.42,202
								c1.32,7.69,1.08,24.23-0.83,31.18c-0.4-0.63-0.71-1.07-0.86-1.28c-0.09-1.6-0.78-13.75-1.96-19.49
								c-1.11-5.41-3.1-10.6-3.51-11.64c0.28-0.81,1.35-4.08,2.14-8.27C268.18,193.45,271.87,198.8,272.42,202z M217.49,260.92
								c0.01-1.23,0.08-2.45,0.19-3.67c0.28,0.08,0.61,0.08,1.01-0.03c2.66-0.73,5.01-5.22,6.12-7.38c1.27-2.47,2.24-5,2.85-7.63
								c-0.02,4.35,0.05,10.1,0.14,15.35c-1.77,3-4.15,5.7-7.14,7.53c-0.45,0.29-1.08,0.57-1.61,0.64c-1.06,0.14-1.59-1.23-1.48-2.1
								C217.53,262.72,217.48,261.82,217.49,260.92z M227.75,236.91c-0.26,6.06-2.43,11.89-6.1,16.72
								c-0.92,1.21-1.99,2.72-3.75,1.92c-0.93-0.42-0.86-1.48-0.73-2.33c0.19-1.31,0.32-2.62,0.56-3.92
								c0.12-0.65,0.29-1.29,0.5-1.92c0.03-0.09,0.17-0.55,0.32-0.97c0.53,0.15,1.26-0.06,2.28-0.79c3.02-2.16,4.67-5.58,5.52-9.26
								c0.62-0.54,1.21-1.11,1.77-1.72c-0.08,0.31-0.15,0.6-0.2,0.86C227.86,235.77,227.76,236.86,227.75,236.91z M223.31,242.26
								c-0.51,0.71-1.02,1.37-1.68,1.95c-0.77,0.68-1.73,1.83-2.87,1.22c-1.04-0.56-0.7-2.34-0.61-3.28
								c0.16-1.65,0.38-3.29,0.56-4.94c2.76-2.46,5.01-5.62,6.57-9.11c0.4-0.11,0.8-0.24,1.18-0.38
								C226.57,232.29,226.08,238.43,223.31,242.26z M222.81,231.45c-1.13,1.69-4.05,7.05-4.71,2.76c-0.42-2.74-1.59-6.86,0.56-9.26
								c0.72-0.14,1.25-1.02,1.75-1.48c0.58-0.52,1.15-1.06,1.7-1.61c0.2-0.2,0.39-0.41,0.59-0.62c1.44-0.13,2.82-0.42,4.14-0.87
								C226.37,224.36,224.98,228.21,222.81,231.45z M217.8,222.84c-0.47-1.24-1.01-2.49-1-3.85c0.03-3.63,2.92-6.48,6.13-8.08
								c1.86,0.65,3.78,1.1,5.75,1.33c-1.42,2.51-3.05,4.9-5,7.06c-0.71,0.79-1.58,1.46-2.37,2.17c-0.5,0.46-1,0.91-1.49,1.39
								c-0.32,0.32-0.81,0.83-1.29,0.9C217.97,223.84,217.98,223.3,217.8,222.84z M223.41,220.5c0.63-0.68,1.25-1.38,1.84-2.1
								c1.55-1.91,2.93-3.95,4.14-6.09c0.9,0.08,1.84,0.14,2.77,0.14c0.23,1.15,0.34,2.51,0.37,3.9l-0.02,0.01
								C229.92,218.66,226.83,220.06,223.41,220.5z M220.61,209.24c0.23-0.01,0.45-0.01,0.69-0.02c2.88-0.14,5.84-1.69,8.48-3.68
								c1.03,2.02,1.76,4.11,2.25,6.27l0,0C227.99,211.8,224.15,210.92,220.61,209.24z M224.71,207.57
								c-6.77,2.91-19.06-0.21-24.46-5.61c-4.18-4.19-4.91-10.88-5.48-16.53c-0.37-3.73-1.89-11.17,0.31-14.58
								c4.33-6.71,9.71-7.59,17.43-8.03c15.5-0.87,16.57,3.96,21.83,9.01c1.77,1.7,2.89,3.52,4.13,5.29
								c3.83,5.46,4.84,10.57,4.39,11.11C238.57,195.21,232.46,204.24,224.71,207.57z M204.54,148.22c0.79-2,1.47-3.7,1.92-4.78
								c0.72-1.74,1.33-4.13,1.81-6.54c5.67,5.08,6.73,15.19,13.69,18.79c1.14,0.59,2.31,0.98,3.48,1.2
								c-1.75,0.76-3.79,1.57-5.98,2.28C212.5,158.96,206.78,154.77,204.54,148.22z M217.76,159.7c-6.1,1.75-12.91,2.43-17.28-1.1
								c1.21-3.1,2.55-6.54,3.71-9.46C206.48,155.01,211.53,158.93,217.76,159.7z M205.97,143.24c-1.84,4.45-7.59,19.27-9.08,23.11
								c-0.39-2.54-1.26-9.59,0.15-14.39c0.71-2.4,1.7-4.8,2.84-7.58c1.68-4.07,3.75-9.12,5.86-16.41c1.37-1.18,2.59-2.31,3.38-3.2
								c0.03,0.59,0.09,1.34,0.18,2.16C208.95,130.15,207.58,139.34,205.97,143.24z M243.46,188.46l0.02-0.03
								c3.86,7.41,10.27,12.75,18.2,15.19c7.18,15.23,4.69,34.63-1.23,50.32c-3.04-3.05-6.04-6.74-8.25-10.35
								c-2.84-4.63-4.57-9.9-6.41-14.99c-3.75-10.38-6.84-21.07-7.45-32.05C240.19,193.95,241.78,191.21,243.46,188.46z
								 M261.22,253.9c6.2-14.44,8.58-34.95,1.44-50.35c0.55-0.74,1.11-1.49,1.66-2.23c0.5,1.29,2.35,6.2,3.4,11.31
								c1.06,5.15,1.72,15.86,1.88,18.73c0,0.46,0.03,0.8,0.06,1.05c0.56,8.25-4.06,14.56-8.18,21.6c-0.12,0.21-0.24,0.4-0.35,0.6
								c-0.05-0.04-0.09-0.09-0.14-0.14C261.08,254.31,261.15,254.06,261.22,253.9z M251.92,157.83c0.74,0.48,1.62,0.89,2.53,1.31
								c2.57,1.18,5.49,2.53,6.89,6.09c2.32,5.88,6.18,19.76,5.3,25.33c-0.74,4.74-1.99,8.63-2.36,9.72
								c-2.06,2.62-3.34,2.81-6.68,1.13c-2.29-1.15-4.52-2.46-6.45-4.19c-3.27-2.93-5.83-6.3-7.72-10.3
								c-0.01-0.02-0.02-0.03-0.04-0.05c-0.67-5.46-5.34-12.9-10.8-18.13c-0.24-0.53-0.45-1.07-0.61-1.62
								c-1.77-6.06,3.21-7.27,7.96-6.98C243.48,160.38,249.99,161.83,251.92,157.83z M246.17,154.05c1.48,0.48,3.02,0.97,4.59,2.8
								c0.18,0.22,0.4,0.41,0.63,0.6c-2.65,6.24-15.32-1.14-19.66,4.39c-1.28,1.63-1.23,3.63-0.51,5.66
								c-3.39-2.94-7.1-5.33-10.15-5.42c-15.44-0.46-20.57,1.49-23.8,4.79c0.47-1.21,1.62-4.17,2.96-7.63
								c6.95,5.38,19.43,0.97,26.41-2.16c6.13,0.64,12.57-2.61,18.61-3.33C245.55,153.84,245.86,153.95,246.17,154.05z
								 M211.22,133.45c1.79,2.21,8.27,5.31,14.54,8.32c3.57,1.71,6.94,3.32,9.31,4.7c4.29,2.49,6.29,4.3,7.61,5.5
								c0.56,0.51,1.01,0.91,1.48,1.22c-8.97,1.37-19.81,7.55-26.14-2.35c-3.1-4.85-5.21-10.79-9.59-14.72
								c0.55-2.88,0.94-5.69,1.14-7.33C209.88,130.61,210.39,132.43,211.22,133.45z M174.92,115.34c-0.01,0.03-0.38,0.69-1.06,0.6
								c-1.04-0.13-2.69-3.1-3.67-4.88c-0.49-0.89-0.92-1.67-1.29-2.19c-1.06-1.52-1.03-5.29,0.07-8.78
								c0.18-0.55,0.41-0.86,0.71-0.92c0.76-0.14,2.09,1.07,2.81,1.98l1.08,1.36l-0.13-1.73c-0.01-0.15-1.1-15.52,4.32-22.03
								c4.02-4.83,12.69-5.86,15.12-6.06c2.43,0.2,11.09,1.24,15.12,6.06c5.42,6.51,4.34,21.87,4.33,22.03l-0.13,1.73l1.08-1.36
								c0.72-0.9,2.05-2.12,2.81-1.98c0.29,0.05,0.53,0.36,0.71,0.92c1.1,3.49,1.13,7.27,0.07,8.78c-0.37,0.52-0.79,1.29-1.29,2.19
								c-0.99,1.78-2.63,4.75-3.68,4.88c-0.68,0.08-1.05-0.57-1.06-0.6l-1.17-2.24l0.16,2.52c0,0.05,0.33,5.39-0.83,7.54
								c-1.18,2.19-10.69,9.58-12.52,10.25c-1.03,0.37-2.5,0.51-3.61,0.56c-1.11-0.05-2.58-0.19-3.61-0.56
								c-1.83-0.67-11.34-8.06-12.52-10.25c-1.16-2.15-0.83-7.48-0.83-7.54l0.16-2.52L174.92,115.34z M166.69,265.97
								c-0.53-0.07-1.16-0.35-1.61-0.64c-2.77-1.69-5.01-4.12-6.73-6.85c0.08-4.8,0.15-10.09,0.16-14.41
								c0.6,2.05,1.41,4.05,2.42,6.01c1.11,2.16,3.46,6.65,6.12,7.38c0.4,0.11,0.74,0.11,1.01,0.03c0.11,1.22,0.18,2.44,0.19,3.67
								c0.01,0.9-0.04,1.81-0.08,2.71C168.28,264.75,167.75,266.11,166.69,265.97z M167.85,255.8c-1.76,0.79-2.83-0.71-3.75-1.92
								c-2.81-3.69-4.73-7.96-5.6-12.47c-0.02-2.86-0.09-4.99-0.24-5.76c-0.01-0.04-0.02-0.09-0.03-0.14
								c0.38,0.38,0.77,0.75,1.18,1.1c0.84,3.68,2.5,7.09,5.51,9.26c1.01,0.73,1.75,0.94,2.28,0.79c0.15,0.42,0.29,0.88,0.32,0.97
								c0.21,0.63,0.37,1.27,0.5,1.92c0.24,1.3,0.37,2.61,0.56,3.92C168.71,254.32,168.78,255.38,167.85,255.8z M166.99,245.68
								c-1.15,0.62-2.1-0.54-2.87-1.22c-0.66-0.58-1.16-1.25-1.68-1.95c-2.77-3.83-3.26-9.96-3.15-14.53
								c0.39,0.14,0.78,0.27,1.19,0.38c1.56,3.48,3.81,6.65,6.56,9.11c0.18,1.65,0.4,3.29,0.56,4.94
								C167.69,243.34,168.03,245.12,166.99,245.68z M167.65,234.46c-0.65,4.29-3.58-1.07-4.71-2.76c-2.18-3.26-3.58-7.3-4.06-11.34
								c1.24,0.42,2.54,0.7,3.89,0.84c0.29,0.3,0.56,0.61,0.86,0.9c0.55,0.55,1.12,1.09,1.71,1.61c0.51,0.46,1.03,1.33,1.75,1.48
								C169.24,227.6,168.07,231.72,167.65,234.46z M153.66,212.7C153.66,212.7,153.66,212.7,153.66,212.7c0.9,0,1.82-0.05,2.7-0.13
								c1.21,2.13,2.59,4.17,4.14,6.08c0.5,0.62,1.02,1.22,1.56,1.81c-3.3-0.48-6.3-1.86-8.82-4.1l-0.01-0.01
								C153.28,215.02,153.43,213.8,153.66,212.7z M167.21,224.02c-0.48-0.06-0.97-0.58-1.29-0.9c-0.48-0.48-0.98-0.94-1.48-1.39
								c-0.79-0.71-1.66-1.38-2.37-2.17c-1.94-2.15-3.57-4.55-4.99-7.05c1.98-0.23,3.92-0.67,5.78-1.32c3.2,1.6,6.07,4.44,6.1,8.06
								c0.01,1.36-0.53,2.61-1,3.85C167.77,223.55,167.78,224.09,167.21,224.02z M153.79,212.05c0.5-2.28,1.33-4.51,2.48-6.66
								c2.6,1.9,5.47,3.35,8.24,3.49c0.61,0.03,1.22,0.05,1.81,0.06C162.48,210.99,158.24,212.04,153.79,212.05z M161.1,207.23
								c-7.75-3.33-14.62-13.11-18.14-19.34c0.27-3.14,1.94-6.88,4.44-10.53c2.88-4.19,6.28-8.19,8.5-9.98
								c6.04-4.87,11.37-4.67,16.5-4.5c7.73,0.25,14.58,1.58,18.33,7.63c2.14,3.45,0.69,10.85,0.31,14.58
								c-0.57,5.64-1.29,12.34-5.48,16.53C180.16,207.03,168.2,210.29,161.1,207.23z M124,203.98c8.11-2.45,14.65-7.96,18.52-15.58
								c1.72,2.83,3.26,5.59,5.14,8.22c-0.59,11.02-3.69,21.75-7.45,32.16c-1.84,5.1-3.57,10.36-6.41,14.99
								c-2.41,3.93-5.02,7.46-8.36,10.67C119.52,238.8,116.92,219.22,124,203.98z M124.47,253.7c-4.04-6.86-8.79-13.41-8.19-21.65
								c0.18-3.02,0.92-14.33,1.97-19.43c0.98-4.74,2.63-9.31,3.27-10.98c0.58,0.77,1.16,1.55,1.73,2.32
								c0.01,0.02,0.02,0.03,0.04,0.04C116.38,219.12,118.72,238.14,124.47,253.7z M188.9,166.3c-1.49-3.83-7.23-18.65-9.08-23.11
								c-2.06-4.98-3.19-15.46-3.23-15.89c0.1-0.89,0.17-1.71,0.2-2.37c0.81,0.88,1.98,1.97,3.29,3.09
								c2.1,7.24,4.16,12.25,5.83,16.31c1.14,2.78,2.13,5.18,2.84,7.58C190.16,156.7,189.29,163.76,188.9,166.3z M181.68,149.26
								c1.16,2.95,2.51,6.39,3.72,9.49c-2.92,2.91-11.09,2.84-17.51,1.16C174.22,159.2,179.37,155.24,181.68,149.26z M166.23,159.38
								l-0.05,0.02c-2.14-0.7-4.16-1.5-5.88-2.25c1.18-0.23,2.34-0.61,3.48-1.2c6.99-3.62,8.03-13.81,13.77-18.86
								c0.48,2.33,1.07,4.63,1.77,6.32c0.46,1.11,1.17,2.87,1.99,4.95C179.08,154.97,173.29,159.21,166.23,159.38z M143.28,151.96
								c1.32-1.2,3.32-3.02,7.61-5.5c2.37-1.38,5.74-2.99,9.31-4.7c6.27-3,12.75-6.11,14.54-8.32c0.75-0.93,1.24-2.52,1.55-4.16
								c0.22,1.72,0.6,4.35,1.12,7.02c-4.44,3.92-6.55,9.91-9.68,14.79c-6.37,9.96-17.31,3.64-26.31,2.32
								C142.02,153.09,142.57,152.61,143.28,151.96z M135.2,156.84c1.57-1.83,3.1-2.32,4.59-2.8c0.05-0.01,0.09-0.03,0.13-0.04
								l0.45-0.02c6.08,0.69,12.56,3.98,18.74,3.34c7.02,3.15,19.84,6.98,26.53,2.07c1.18,3.03,2.19,5.64,2.72,7
								c-3.31-3.18-8.78-4.64-23.76-4.26c-3.04,0.08-6.59,2.19-9.95,5.24c0.6-1.91,0.57-3.77-0.63-5.29
								c-4.36-5.55-17.12,1.91-19.7-4.46C134.66,157.38,134.95,157.12,135.2,156.84z M124.62,165.22c1.4-3.56,4.32-4.91,6.89-6.09
								c0.81-0.37,1.6-0.74,2.28-1.16c1.87,4.13,8.45,2.65,12,2.43c4.75-0.3,9.74,0.92,7.96,6.98c-0.13,0.44-0.28,0.87-0.46,1.29
								c-5.68,5.67-10.51,13.71-10.94,18.66c-1.88,3.96-4.43,7.32-7.68,10.23c-1.93,1.73-4.16,3.04-6.45,4.19
								c-3.2,1.61-4.37,1.45-6.29-0.87l-0.15-0.28c-0.02-0.04-1.6-4.47-2.46-10.04C118.44,184.98,122.3,171.1,124.62,165.22z
								 M113.99,202.21c0.49-2.88,3.52-7.49,4.7-9.08c0.77,3.88,1.75,6.87,2.02,7.64c-0.41,1.04-2.4,6.23-3.51,11.64
								c-1.18,5.74-1.87,17.89-1.96,19.49c-0.11,0.16-0.32,0.45-0.58,0.85C112.9,225.47,112.71,209.67,113.99,202.21z
								 M106.16,276.51c-0.53-8.73,1.44-14,2.41-16c1.13,7.5,4.35,15,7.41,21.92c4.06,9.19,6.57,19.51,7.33,29.38
								c-0.08,2.03,0,3.49,0.2,4.78c-7.68-9.72-14.26-20.26-16.65-32.45C106.56,281.63,106.32,279.13,106.16,276.51z M120.48,356.57
								l-1.4-1.59c-0.32-3.77-1.98-9.7-2.25-10.63c0.03-0.22,0.08-0.79,0.14-1.55c1.09,2.03,2.69,4.9,4.04,6.96
								C122.64,352.22,121.21,355.3,120.48,356.57z M117.27,337.16c1.27,2.37,3.55,6.53,5.13,8.94c1.06,1.61,0.81,3.49,0.3,4.95
								c-0.14-0.63-0.39-1.26-0.79-1.87c-1.72-2.63-3.87-6.62-4.8-8.39C117.18,339.6,117.24,338.3,117.27,337.16z M124.52,321.17
								c0.98,4.15,1.59,6.28,1.59,8.27c0,5.13,1.61,10.77-0.23,10.78c-0.45,0-1.4-0.46-2.69-2.51c-0.87-1.37-1.13-3.28-1.38-5.12
								c-0.32-2.34-0.61-4.54-2.17-5.55c-0.38-0.24-0.8-0.28-1.23-0.12c-2.56,0.96-1.73,5.34-2.26,7.2l-0.04,0.13l0.03,0.14
								c0.68,2.91-0.35,9.85-0.36,9.92l-0.02,0.12l0.03,0.11c0.02,0.08,2.29,7.97,2.29,11.59c0,2.38-1.17,3.37-1.83,3.74
								c-0.91-2.4-4.66-12.38-5.12-14.52c-0.47-2.21-0.79-16.07-0.25-31.42c0.34-9.49-2.43-17.55-3.41-24.68
								c3.14,10.53,9.27,19.84,16.2,28.52l0.04,0.06C123.93,318.93,124.21,319.85,124.52,321.17z M127.02,293.66
								c-0.34,1.45-0.2,0.85-0.59,2.44c-1.36,3.84-2.33,7.3-2.64,9.78c-0.05,0.44-0.1,0.85-0.15,1.26
								c-0.81-5.91-2.34-12.76-4.3-18.21c-3.49-9.7-8.88-19.12-10.18-29.44c0,0,0.01-0.01,0.01-0.01l0.01-0.01v-8.88
								c0-6.9,4.64-14.61,6.37-17.24c0,0,0-0.01,0-0.01c-0.07,9.4,6.59,16.87,10.76,25.07c5.08,10,3.24,23.79,0.86,34.52
								C127.08,293.36,127.08,293.34,127.02,293.66z M135.42,268.41c-0.19,4.48-3.19,12.42-6.09,20.1
								c-0.14,0.38-0.48,1.04-0.84,1.74c1.76-8.32,2.67-16.71,0.86-25.24c-0.18-0.84-0.41-1.67-0.68-2.48
								c1.73-2.05,3.67-3.89,5.82-5.5C134.81,258.01,135.71,261.5,135.42,268.41z M142.44,225.82c-3.04,4.84-4.8,14.89-4.88,15.42
								c0,0.06,0.17,6.04-0.35,9.33c-0.5,3.17-2.69,5.57-2.71,5.59l-0.22,0.24c0,0,0,0,0,0c-2.15,1.6-4.1,3.42-5.84,5.43
								c-0.05-0.13-0.09-0.24-0.11-0.35c-0.79-2.15-1.83-4.21-2.97-6.23c3.2-3.02,6.13-6.38,9-11.15c2.81-4.67,3.84-8.28,5.76-13.29
								c4.13-10.78,7.45-21.92,8.14-33.39c0.11,0.15,0.22,0.3,0.34,0.45c0.28,2.88,0.74,7.42,1.31,11.81
								c0.01,0.05,0.01,0.1,0.02,0.15C148.79,213.08,145.04,221.69,142.44,225.82z M149.81,199.36c1.54,1.78,3.62,3.87,5.94,5.65
								c-2.46,4.58-3.5,9.52-3.14,14.44C151.49,215.04,150.39,205.18,149.81,199.36z M154.09,223.8c-0.65-2.52-0.89-4.71-0.88-6.65
								c1.52,1.28,3.2,2.26,4.99,2.95c0.29,2.56,0.96,5.1,1.96,7.51C157.84,226.88,155.77,225.58,154.09,223.8z M155.97,229.24
								c-0.03-0.08-0.08-0.21-0.15-0.36c-0.57-1.36-1.02-2.64-1.39-3.85c1.25,1.14,2.68,2.05,4.23,2.7
								c-0.01,0.02-0.02,0.05-0.02,0.07c-0.07,2.44,0.05,5.12,0.53,7.72c-0.47-0.44-0.92-0.9-1.34-1.39
								C157.4,232.83,156.7,231.17,155.97,229.24z M152.96,277.09c-0.52-4.23,2.31-8.7,4.01-11.37c0.31-0.48,0.55-0.87,0.74-1.2
								c6.75,3.02,14.84,8.33,13.02,17.3c-0.51,2.5-2.7,5.17-4.24,7.05c-2.16,2.63-4.18,1.42-6.43-0.37
								c-1.96-1.55-3.89-3.14-5.82-4.73C153.9,282.68,153.4,280.62,152.96,277.09z M147.5,327.51c1.78-7.08,3.19-12.67,2.95-16.37
								c-0.47-7.28,1.67-16.67,3.08-21.9c4.18,4.58,3.67,11.87,2.8,17.87c-1.04,7.16-2.2,17.4-9.01,21.12
								C147.38,327.98,147.44,327.74,147.5,327.51z M140.01,370.01c0.61-8.33,2.63-19.96,4.59-29.55
								c-0.64,7.47-0.44,14.03,1.25,22.89c1.69,8.85,7.08,21,9.12,32.15c0.76,4.19,1.47,14.92-0.59,20.85
								c-1.36,3.93-5.37,7.14-8.79,6.22C144.06,410.75,138.61,388.99,140.01,370.01z M141.58,490.18
								c-1.61-11.16-3.13-21.71-3.05-26.4c0.14-8.22,5.08-20.63,6.8-24.73c0.97,3.08,2.97,7.12,4.69,10.33
								c-0.07,12.9-0.15,25.79-0.22,38.69c-0.06,11.33,1.74,25.12-4.89,35c0.08-1.75,0.11-3.43,0.05-4.58
								C144.74,512.08,143.14,500.97,141.58,490.18z M160.39,524.82c0.07,0.38,0.15,0.75,0.22,1.11
								c-3.86-4.37-3.91-10.99-3.93-16.94c0-0.87-0.01-1.71-0.02-2.54c-0.14-7.71-0.21-14.77,0.25-21.82
								c0.8,3.52,2.95,8.72,8.67,11.27C163.22,504.65,159.65,520.89,160.39,524.82z M175.52,470.59
								c-1.79,5.94-4.03,10.65-5.84,14.43c-1.09,2.28-2.03,4.25-2.69,6.07c-0.28,0.78-0.67,2.07-1.12,3.69
								c-5.79-2.66-8.03-8.56-8.84-11.87c0.05-0.62,0.09-1.23,0.15-1.85c0.14-1.57,0.24-3.18,0.34-4.89
								c0.26-4.48,0.39-9.06,1.78-13.36c1.05-3.25,2.7-6.3,4.63-9.11c1.94-2.84,4.37-5.27,6.39-8.04c1.18-1.62,2.28-3.29,3.31-5.02
								C174.64,445.57,177.89,462.71,175.52,470.59z M179.98,423.12c-0.82,4.47-2.88,8.81-4.95,12.81
								c-1.22,2.35-2.43,5.09-4.15,7.11c-4.74,5.57-9.88,10.95-12.18,18.06c-1.58,4.89-1.95,9.91-2.25,15.01
								c-0.1,1.7-0.19,3.3-0.34,4.85c-0.77,8.31-0.69,16.46-0.52,25.5c0.02,0.82,0.02,1.66,0.02,2.52
								c0.03,6.73,0.06,14.31,5.44,18.89c0.15,0.6,0.29,1.17,0.44,1.7c0.59,2.99,1.53,9.64,1.87,11.13
								c0.41,1.79,0.35,3.01-1.09,5.13c-1.23,1.81-3.07,3.23-4.65,4.14c1.21-1.95,3.3-5.33,3.3-5.33c-1.58,1.67-4.79,6.07-4.86,6.16
								v0c-0.59,0.74-3.36,5.35-3.95,9.56c-0.57,4.1-2.73,8.63-6.66,9.85l-0.04,0.02c-0.87,0.38-2.49,1.08-3.5,3.59
								c-0.89,2.21-3.31,3.87-5.24,4.36c-2.02,0.52-4.63-0.48-5.59-2.13l-0.03-0.05c-0.15-0.8-0.02-1.09,0.3-1.39
								c0.09-0.08,0.24-0.22,0.44-0.39c1.3-1.15,2.71-2.45,3.1-3.2c0.35-0.69,3.09-5.15,5.22-6.89c0,0-3.42,1.78-6.01,6.49
								c-0.36,0.65-2.13,2.26-2.89,2.94c-0.21,0.18-0.37,0.33-0.46,0.41c-0.56,0.53-0.73,1.13-0.58,2.08
								c-0.39,0.19-0.63,0.25-1.33-0.08c-0.6-0.28-0.77-1.06-0.81-1.63l0,0c0-0.03,0.28-3.61,6.65-11.71c0,0-2.09,1.66-3.9,4.35
								c-2.35,3.51-3.21,5.39-3.51,6.41c-0.42,0.04-0.99,0.02-1.2-0.14c-0.43-0.32-0.93-1.07-0.73-1.64
								c0.07-0.22,0.13-0.4,0.18-0.54l0,0c0.75-2.59,3.46-8.54,5.75-11.16c0,0-1.34,0.92-2.99,3.51c-1.66,2.6-2.59,4.27-3.32,6.45
								c-0.35-0.04-0.56-0.16-0.83-0.39c-0.13-0.12-0.31-0.85-0.29-1.86c0.01-0.28,0.05-0.61,0.1-0.96
								c0.06-0.43,0.12-0.87,0.11-1.28c0-0.11-0.01-0.22-0.03-0.32c0.36-1.49,1.42-4.16,4.21-7.45c0,0-1.33,1.12-2.44,2.64
								c-1,1.37-1.76,2.43-2.24,3.5c-0.05-0.15-0.09-0.32-0.12-0.52c-0.02-0.17-0.06-0.36-0.09-0.57c-0.17-0.97-0.4-2.31,0.23-2.99
								c0,0,2.39-3.56,3.31-4.14c1.36-0.85,10.67-8.49,11.82-11.18c0.28-0.66,0.53-1.36,0.77-2.05c0.71-2.02,1.45-4.12,3.19-5.6
								c2.48-2.12,4.26-7.44,4.26-7.44c-0.01,0.02-1.65,3.13-3.51,5.38c0.09-1.64,0.47-2.83,0.91-4.16
								c0.14-0.44,0.41-3.28,0.57-6.24c6.44-9.05,5.51-21.41,5.57-31.97c0.08-13.91,0.16-27.82,0.24-41.73
								c1.28,2.34,2.29,4.03,2.38,4.18c0,0-6.88-13.59-7.22-18.39c-0.2-2.78,0-4.26,0.17-5.57c0.13-1.01,0.26-1.96,0.18-3.31
								c-0.03-0.49-0.21-1.92-0.48-4.07c2.54,0.55,5.34-0.92,7.52-3.6c4.05-4.96,3.84-13.9,3.06-20.78
								c0.95,0.32,2.01,0.28,2.92-0.18c-0.05,1.75,0.05,3.52,0.33,5.31c0.9,5.55,3.29,11.64,8.13,14.96
								c3.86,2.65,8.74,4.07,12.71,1.47C180.24,421.55,180.11,422.41,179.98,423.12z M181.93,404.29
								c-0.49,5.85-0.96,11.46-1.45,15.45c-6.49,5.08-14.52-1.87-17.75-7.55c-3.5-6.16-3.16-13.56-1.65-20.22
								c2.77-12.21,10.66-22.53,14.13-34.53c2.15,5.04,4.03,10.17,5.06,15.6c1.39,7.36,2.04,14.79,2.45,22.24
								C182.43,398.33,182.17,401.39,181.93,404.29z M184.07,382.34c-0.36,2.79-0.69,5.87-1,9.05c-0.88-11.93-2.69-23.68-7.56-34.89
								c-8.07-18.58-15.9-36.67-16.29-57.28c-0.02-1.32,0.07-2.54,0.33-3.85c1.12-5.63,5.34,2.65,5.45,2.87
								c1.26,2.4,2.63,4.11,2.95,6.93c0.15,1.33,0.28,2.58,0.56,3.89c1.96,9.16,3.65,18.04,6.95,26.86
								c1.51,4.04,3.52,7.87,4.99,11.93c1.65,4.56,2.36,9.57,3.13,14.34c0.77,4.79,1.21,9.6,1.36,14.43
								C184.6,378.56,184.3,380.48,184.07,382.34z M191.46,345.97c-0.32,2.55-1.33,6.84-2.5,11.81c-1.15,4.91-2.49,10.63-3.56,16.3
								c-0.22-4.02-0.62-8.04-1.2-12.06c-0.79-5.42-1.88-10.88-3.75-16.04c-1.9-5.25-4.46-10.22-6.25-15.53
								c-3.11-9.23-3.99-18.72-6.08-28.13c-0.65-2.93-3.23-6.17-4.87-8.64c-0.48-0.72-1.93-1.34-2.73-0.76
								c-4.07,2.9-1.68,12.78-1.23,16.6c1.26,10.82,4.68,21.31,8.68,31.39c2.09,5.27,4.58,10.38,6.83,15.58
								c-3.77,13.67-14.79,27.06-15.57,41.54c-0.92,0.63-2.07,0.7-3.03,0.28c-0.11-0.9-0.23-1.75-0.34-2.56
								c-1.67-11.5-7.4-24.98-9.33-33.99c-1.82-8.5-1.8-17.52-0.86-26.32c0.52-2.4,1.02-4.57,1.46-6.4
								c7.73-3.66,8.56-14.07,9.83-21.77c1.04-6.33,1.36-14.07-3.22-18.77c0.55-1.97,0.94-3.19,0.95-3.24l0.07-0.22l-0.01-0.01
								c2.81,2.35,5.62,4.74,8.66,6.75c0.14,0.09,0.28,0.15,0.42,0.19c2.16,3.1,4.17,7.08,6.61,11.96
								c2.08,4.16,4.44,8.87,7.42,14.03c0.84,1.46,1.54,3.09,2.27,4.81c2.1,4.94,4.47,10.48,10.97,11.38
								C191.39,336.05,192.08,341.07,191.46,345.97z M193.29,333.22c-0.04,0-0.33,0-0.33,0c-7.24-0.01-9.49-5.28-11.87-10.86
								c-0.71-1.68-1.45-3.41-2.33-4.93c-2.96-5.13-5.31-9.82-7.38-13.97c-2.34-4.68-4.29-8.55-6.38-11.65
								c2.32-1.12,4.96-6.3,5.67-7.52c2.63-4.55,0.64-10.02-2.37-13.93c-2.26-2.93-6.63-5.38-10.07-6.93
								c0.03-0.1,0.04-0.2,0.04-0.28c0-0.2,0.01-0.99,0.04-2.19c0.01-0.45,0.02-0.91,0.02-1.37c0.99,1.45,2.12,2.79,3.43,4.01
								c1.23,1.15,3.76,3.56,5.51,3.59c1.39,0.02,1.38-1.32,1.48-2.42c0.24-2.55,0.18-5.11-0.06-7.65c0.54-0.59,0.67-1.67,0.66-2.56
								c-0.02-3.13-0.56-5.67-1.63-8.21c1.3-1.37,0.42-6.34,0.01-8.89c0-0.01,0.01-0.01,0.01-0.01c0.71-3.54,2.48-9.16,0.06-12.38
								c0.43-0.3,0.56-1,0.76-1.48c0.67-1.59,1.31-3.73,1.04-5.47c-0.49-3.16-3.08-5.7-5.94-7.26c1.38-0.53,2.72-1.17,4.02-1.94
								c8.23-0.15,14.14-2.66,19.22-7.73c3.86-3.86,4.21-11.03,4.79-16.1c0.51-4.44,1.81-11.47-0.8-15.52
								c-0.52-0.8-1.04-1.54-1.61-2.22c0.07-0.4,1.77-9.56-0.01-15.6c-0.71-2.43-1.71-4.84-2.86-7.64
								c-1.6-3.89-3.57-8.68-5.58-15.48c3.19,2.66,6.89,5.33,8.09,5.77c0.95,0.35,2.19,0.51,3.26,0.59h1.42
								c1.07-0.08,2.31-0.24,3.26-0.59c1.21-0.44,4.95-3.15,8.16-5.82c-2.02,6.86-4,11.67-5.61,15.59
								c-1.15,2.79-2.14,5.21-2.86,7.64c-1.78,6.04-0.08,15.21-0.01,15.6c0,0-1.06,1.68-1.6,2.5c-2.61,4.05-1.31,11.08-0.8,15.52
								c0.58,5.08,0.93,12.24,4.79,16.1c5.29,5.3,11.5,7.8,20.3,7.74c0.95,0.5,1.92,0.95,2.9,1.33c-2.87,1.55-5.47,4.1-5.97,7.27
								c-0.27,1.74,0.37,3.88,1.04,5.47c0.2,0.48,0.34,1.18,0.77,1.48c-2.42,3.22-0.66,8.84,0.06,12.38c0,0.01,0.01,0.01,0.01,0.02
								c-0.41,2.55-1.29,7.52,0.01,8.89c-1.07,2.53-1.61,5.07-1.63,8.21c-0.01,0.89,0.12,1.97,0.66,2.56
								c-0.24,2.54-0.3,5.11-0.06,7.65c0.1,1.09,0.1,2.44,1.48,2.42c1.74-0.03,4.28-2.44,5.51-3.59c1.49-1.4,2.75-2.94,3.84-4.64
								c0.01,0.71,0.02,1.42,0.04,2.1c0.02,1.19,0.04,1.99,0.04,2.19c0,0.09,0.02,0.19,0.05,0.3c-3.47,1.54-7.92,3.92-10.24,6.92
								c-3.02,3.91-5.32,9.38-2.69,13.93c0.72,1.25,3.65,6.78,6.07,7.72c-2.07,3.08-4.01,6.94-6.33,11.59
								c-2.07,4.15-4.43,8.85-7.38,13.97c-0.88,1.52-1.61,3.25-2.33,4.93C202.68,327.91,200.44,333.16,193.29,333.22z
								 M203.04,391.26c-0.3-3.13-0.63-6.17-0.98-8.92c-0.24-1.88-0.54-3.81-0.88-5.76c0.15-4.91,0.58-9.81,1.37-14.68
								c0.77-4.77,1.48-9.78,3.13-14.34c1.47-4.05,3.48-7.89,4.99-11.93c3.29-8.82,4.99-17.71,6.95-26.86
								c0.28-1.31,0.41-2.56,0.56-3.89c0.32-2.82,1.69-4.53,2.95-6.93c0.12-0.22,4.33-8.51,5.45-2.87c0.26,1.31,0.36,2.53,0.33,3.85
								c-0.39,20.62-8.22,38.71-16.29,57.28C205.72,367.47,203.91,379.28,203.04,391.26z M204.19,404.29
								c-0.25-2.94-0.51-6.04-0.79-9.12c0.41-7.51,1.06-15.01,2.46-22.43c1.02-5.4,2.88-10.49,5.01-15.5
								c3.48,11.99,11.4,22.53,14.17,34.72c1.51,6.66,1.85,14.06-1.65,20.22c-3.23,5.69-11.26,12.63-17.75,7.55
								C205.15,415.75,204.68,410.14,204.19,404.29z M219.13,491.1c-0.66-1.83-1.6-3.8-2.69-6.07c-1.81-3.79-4.05-8.5-5.84-14.43
								c-2.37-7.88,0.88-25.02,1.89-29.94c1.03,1.72,2.13,3.4,3.31,5.02c2.02,2.77,4.45,5.2,6.39,8.04
								c1.93,2.81,3.58,5.86,4.63,9.11c1.39,4.31,1.52,8.88,1.78,13.36c0.1,1.71,0.19,3.32,0.34,4.89c0.05,0.55,0.09,1.09,0.13,1.63
								c-0.54,2.26-1.76,5.86-4.4,8.77c-1.17,1.29-2.63,2.44-4.43,3.28C219.79,493.15,219.41,491.88,219.13,491.1z M220.54,495.85
								c2.1-0.94,3.71-2.24,4.95-3.68c2.2-2.55,3.23-5.55,3.72-7.79c0.48,7.14,0.4,14.28,0.26,22.07c-0.02,0.83-0.02,1.67-0.02,2.54
								c-0.02,5.95-0.07,12.57-3.93,16.94c0.08-0.36,0.15-0.73,0.22-1.11C226.47,520.88,222.88,504.59,220.54,495.85z
								 M242.74,534.65c-1.86-2.24-3.5-5.36-3.51-5.38c0,0,1.78,5.32,4.26,7.44c1.74,1.48,2.47,3.58,3.19,5.6
								c0.24,0.68,0.49,1.39,0.77,2.05c1.15,2.69,10.46,10.33,11.82,11.18c0.92,0.58,3.31,4.14,3.31,4.14
								c0.64,0.68,0.4,2.02,0.23,2.99c-0.04,0.21-0.07,0.4-0.09,0.57c-0.03,0.19-0.07,0.36-0.11,0.51
								c-0.48-1.09-1.24-2.16-2.26-3.54c-1.12-1.52-2.44-2.64-2.44-2.64c2.82,3.33,3.87,6.03,4.22,7.51
								c-0.02,0.1-0.03,0.21-0.03,0.32c-0.01,0.41,0.05,0.85,0.11,1.28c0.05,0.34,0.09,0.67,0.1,0.96c0.02,1.02-0.16,1.75-0.29,1.86
								c-0.27,0.22-0.48,0.34-0.83,0.39c-0.73-2.2-1.66-3.88-3.33-6.5c-1.65-2.59-2.99-3.51-2.99-3.51
								c2.24,2.56,4.88,8.3,5.69,10.97c0.05,0.18,0.13,0.42,0.26,0.78c0.19,0.57-0.3,1.32-0.73,1.64c-0.18,0.13-0.62,0.17-1,0.15
								c-0.13-0.84-0.8-2.7-3.64-6.93c-1.81-2.7-3.9-4.35-3.9-4.35c5.37,6.83,6.42,10.45,6.61,11.43l-0.01,0.29
								c-0.01,0.48-0.03,1.75-0.84,2.13c-0.7,0.33-0.94,0.27-1.33,0.08c0.15-0.95-0.02-1.55-0.58-2.08
								c-0.09-0.09-0.25-0.23-0.46-0.41c-0.77-0.68-2.54-2.28-2.89-2.94c-2.59-4.7-6.01-6.49-6.01-6.49
								c2.13,1.74,4.87,6.2,5.22,6.89c0.38,0.75,1.8,2.04,3.1,3.2c0.2,0.18,0.35,0.31,0.44,0.39c0.32,0.3,0.44,0.59,0.3,1.39
								l-0.03,0.05c-0.96,1.65-3.57,2.65-5.59,2.13c-1.93-0.49-4.35-2.15-5.24-4.36c-1.01-2.51-2.63-3.22-3.5-3.59l-0.04-0.02
								c-3.93-1.22-6.09-5.75-6.66-9.85c-0.59-4.2-3.36-8.81-3.95-9.56v0c-0.07-0.1-3.28-4.49-4.86-6.16c0,0,2.09,3.37,3.3,5.33
								c-1.58-0.9-3.42-2.33-4.65-4.14c-1.44-2.12-1.5-3.34-1.09-5.13c0.34-1.49,1.28-8.14,1.87-11.13c0.15-0.52,0.29-1.1,0.44-1.7
								c5.38-4.59,5.41-12.17,5.44-18.89c0-0.86,0.01-1.7,0.02-2.52c0.17-9.03,0.24-17.19-0.52-25.5c-0.14-1.55-0.24-3.15-0.33-4.85
								c-0.3-5.1-0.67-10.12-2.25-15.01c-2.31-7.11-7.44-12.49-12.18-18.06c-1.73-2.03-2.94-4.76-4.15-7.11
								c-2.07-4.01-4.13-8.34-4.95-12.81c-0.13-0.72-0.26-1.58-0.39-2.55c3.96,2.6,8.85,1.18,12.71-1.47
								c4.84-3.32,7.6-9.36,8.13-14.96c0.18-1.93,0.21-3.8,0.12-5.61c0.92,0.48,2.03,0.55,3.02,0.28
								c-0.82,6.92-1.11,16.1,3.02,21.15c2.24,2.75,5.13,4.22,7.71,3.55c-0.26,2-0.42,3.33-0.45,3.81c-0.08,1.35,0.05,2.3,0.18,3.31
								c0.17,1.31,0.37,2.79,0.17,5.57c-0.34,4.79-7.22,18.39-7.22,18.39c0.09-0.15,1.07-1.79,2.33-4.08
								c0.08,13.93,0.16,27.85,0.24,41.78c0.06,10.56-0.88,22.92,5.57,31.97c0.16,2.97,0.42,5.81,0.57,6.24
								C242.27,531.82,242.65,533.01,242.74,534.65z M247.59,463.78c0.08,4.68-1.44,15.23-3.05,26.4c-1.56,10.8-3.16,21.9-3.38,28.3
								c-0.06,1.15-0.03,2.84,0.05,4.58c-6.64-9.88-4.83-23.67-4.89-35c-0.07-12.91-0.15-25.82-0.22-38.73
								c1.7-3.17,3.7-7.19,4.7-10.28C242.52,443.18,247.44,455.58,247.59,463.78z M246.16,369.86c1.4,19.03-4.08,40.85-5.59,52.66
								c-0.01,0.06-0.01,0.11-0.02,0.17c-3.46,1.1-7.6-2.16-8.98-6.17c-2.05-5.94-1.35-16.66-0.59-20.85
								c2.03-11.16,7.42-23.3,9.12-32.15c1.8-9.42,1.93-16.57,1.14-24.83C243.3,348.56,245.51,361.06,246.16,369.86z M239.96,332.79
								c1.24,9.68,1.49,19.74-0.53,29.14c-1.93,9.01-7.67,22.5-9.33,33.99c-0.1,0.72-0.21,1.49-0.31,2.29
								c-1.01,0.35-2.22,0.24-3.13-0.41c-1.11-15.76-11.6-27.72-15.38-41.51c2.26-5.23,4.77-10.38,6.87-15.68
								c3.99-10.09,7.41-20.57,8.68-31.39c0.45-3.82,2.84-13.7-1.23-16.6c-0.8-0.57-2.25,0.05-2.73,0.77
								c-1.63,2.46-4.22,5.71-4.87,8.63c-2.09,9.42-2.97,18.9-6.08,28.13c-1.79,5.31-4.36,10.28-6.25,15.53
								c-1.87,5.16-2.96,10.62-3.75,16.04c-0.6,4.1-1,8.2-1.22,12.3c-1.07-5.66-2.4-11.35-3.55-16.25
								c-1.17-4.97-2.17-9.26-2.5-11.81c-0.63-4.91,0.06-9.93,0.38-11.81c6.51-0.89,8.88-6.44,10.99-11.38
								c0.73-1.72,1.43-3.35,2.27-4.81c2.97-5.15,5.33-9.87,7.41-14.03c2.47-4.95,4.51-8.98,6.7-12.1c0.04-0.02,0.07-0.03,0.11-0.06
								c3.12-2.06,6-4.54,8.89-6.95l0.08,0.29c0.01,0.04,0.42,1.29,0.97,3.3c-4.66,4.69-4.34,12.48-3.29,18.85
								c1.27,7.73,2.11,18.2,9.93,21.82C239.37,330.21,239.66,331.45,239.96,332.79z M232.66,289.16
								c1.41,5.24,3.54,14.58,3.06,21.83c-0.24,3.7,1.17,9.29,2.95,16.37c0.07,0.3,0.15,0.61,0.23,0.93
								c-6.9-3.67-8.07-13.98-9.12-21.18C228.92,301.07,228.4,293.73,232.66,289.16z M229.21,265.57c1.69,2.67,4.53,7.14,4.01,11.37
								c-0.61,4.91-1.15,6.15-1.45,6.76c-1.96,1.61-3.92,3.22-5.9,4.8c-2.26,1.79-4.27,3-6.43,0.37c-1.55-1.88-3.73-4.56-4.24-7.05
								c-1.87-9.11,6.47-14.43,13.28-17.42C228.66,264.71,228.9,265.09,229.21,265.57z M230.74,227.21
								c-0.82,2.15-1.61,4.23-2.17,5.91c-0.62,0.77-1.3,1.49-2.01,2.17c0.48-2.6,0.6-5.29,0.53-7.72c0-0.03-0.01-0.05-0.02-0.08
								c1.78-0.75,3.4-1.83,4.78-3.22C231.49,225.24,231.11,226.23,230.74,227.21z M232.13,223.03c-1.75,2.05-4,3.54-6.54,4.34
								c0.99-2.38,1.65-4.74,1.95-7.25c1.8-0.69,3.48-1.68,5.01-2.96C232.55,219.4,232.36,221.62,232.13,223.03z M233.36,220.14
								c-0.01,0.02-0.17,0.57-0.45,1.38c0.62-5.61-0.16-11.5-2.63-16.37c2.26-1.78,4.27-3.86,5.76-5.6
								c0.12-0.14,0.22-0.28,0.34-0.41C235.75,205.42,234.59,216.45,233.36,220.14z M248.67,250.32
								c-0.38-10.37-2.19-19.91-5.23-24.75c-2.55-4.05-6.08-12.01-7.25-15.33c0-0.01,0-0.03-0.01-0.07
								c0.61-4.64,1.13-9.61,1.43-12.61c0.06-0.07,0.11-0.15,0.17-0.22c0.71,11.42,4.02,22.54,8.13,33.27
								c1.92,5.01,2.94,8.62,5.76,13.29c2.71,4.5,6.23,8.21,9.23,11.11c-1.4,2.37-2.41,4.27-3.29,6.77
								c-1.75-2.01-4.16-4.35-6.26-5.91C251.02,255.57,248.78,253.31,248.67,250.32z M257.43,290.64c-0.29-0.78-0.59-1.57-0.89-2.37
								c-2.9-7.68-5.9-15.61-6.09-20.1c-0.29-6.86,0.6-10.35,0.92-11.36c2.14,1.6,4.27,3.62,6,5.66c-0.28,0.86-0.55,1.79-0.82,2.85
								c-2.15,8.54-0.68,17.37,0.9,25.38C257.44,290.67,257.44,290.65,257.43,290.64z M259.25,295.61
								c-2.9-11.84-5.3-25.73,0.38-36.89c4.22-8.31,10.97-15.88,10.72-25.46c1.68,2.55,6.43,10.35,6.43,17.33v8.02
								c-1.06,10.76-6.68,19.86-10.28,29.88c-2.14,5.94-3.56,11.97-4.29,18.13c-0.04-0.32-0.06-0.64-0.12-0.98
								C261.34,301.33,260.24,298.15,259.25,295.61z M263.26,351.06c-0.5-1.46-0.75-3.34,0.3-4.95c1.58-2.41,3.86-6.58,5.13-8.94
								c0.03,1.14,0.09,2.44,0.16,3.62c-0.94,1.77-3.08,5.76-4.8,8.39C263.64,349.79,263.39,350.43,263.26,351.06z M265.48,356.57
								c-0.73-1.26-2.15-4.35-0.54-6.81c1.35-2.06,2.95-4.93,4.04-6.96c0.06,0.76,0.11,1.33,0.14,1.55
								c-0.26,0.92-1.92,6.85-2.25,10.63L265.48,356.57z M278.59,288.56c-0.89,7.3-3.85,15.57-3.51,25.37
								c0.54,15.35,0.22,29.21-0.25,31.42c-0.46,2.14-4.21,12.12-5.12,14.52c-0.66-0.37-1.83-1.36-1.83-3.74
								c0-3.62,2.27-11.51,2.29-11.59l0.03-0.11l-0.02-0.12c-0.01-0.07-1.04-7.01-0.36-9.92l0.03-0.14l-0.04-0.13
								c-0.54-1.86,0.3-6.24-2.26-7.2c-0.43-0.16-0.85-0.12-1.23,0.12c-1.56,1-1.86,3.21-2.17,5.55c-0.25,1.84-0.5,3.74-1.38,5.12
								c-1.3,2.05-2.24,2.51-2.69,2.51c-1.84-0.01-0.23-5.64-0.23-10.78c0-1.99,0.61-4.12,1.59-8.27c0.35-1.5,0.68-2.66,0.91-3.93
								c7.09-8.91,13.31-18.48,16.32-29.36C278.64,288.11,278.62,288.33,278.59,288.56z M279.8,276.52
								c-0.1,1.64-0.36,3.44-0.52,5.02c-1.91,13.14-8.64,24.14-16.74,34.44c0.17-1.51,0.2-3.33-0.01-6.06
								c0.8-9.68,3.34-18.9,7.33-27.94c3.13-7.07,6.3-14.08,7.37-21.75C278.13,261.99,280.36,267.33,279.8,276.52z"/>
							<path d="M188.72,256.02c-3.85,1.17-7.68,2.39-11.51,3.62c-4.78,1.53-5.77-2.17-5.81-5.03c-0.04-2.73,1.46-5.26,3.22-7.3
								c2.95-3.41,8.01-4.48,12.38-4.74C192.17,242.26,193.73,254.32,188.72,256.02 M191.36,243.95c-2.8-4.66-11.86-0.96-15.27,1.24
								c-3.8,2.45-7.01,8.62-4.72,12.91c1.07,1.99,2.37,2.63,4.68,2.45c1.66-0.13,3.37-0.99,4.93-1.52
								c2.61-0.88,5.29-1.61,7.92-2.41c1.47-0.5,3.32-1.22,3.46-2.98C192.56,251.14,192.73,246.23,191.36,243.95"/>
							<path d="M197.03,256.08c-5.01-1.69-3.45-13.76,1.72-13.45c4.38,0.26,9.43,1.33,12.38,4.74c1.76,2.03,3.25,4.56,3.22,7.3
								c-0.04,2.86-1.03,6.56-5.81,5.03C204.71,258.47,200.88,257.25,197.03,256.08 M194.38,244.02c-1.37,2.28-1.19,7.19-1,9.7
								c0.14,1.76,1.99,2.48,3.46,2.98c2.64,0.8,5.31,1.53,7.92,2.41c1.56,0.52,3.27,1.38,4.93,1.52c2.31,0.18,3.61-0.46,4.68-2.45
								c2.3-4.28-0.92-10.46-4.72-12.91C206.25,243.06,197.19,239.36,194.38,244.02"/>
						</g>
					</g>
					<path d="M190.18,289.48c-0.12,4.09-0.24,8.18-0.36,12.27c-0.2,6.6-7.82-0.14-9.5-2.05c-4.73-6.97-5.99-16.13-7.56-24.25
						c-1.29-6.68,0.88-12.1,7.72-14.17c4.81-1.45,9.97-1.59,10.34,4.67C191.28,273.7,190.41,281.72,190.18,289.48 M190.67,261.27
						c-4.37-4.94-15.15,0.34-17.69,4.51c-2.76,4.53-0.58,11.36,0.39,15.89c1.35,6.36,2.71,12.93,6.41,18.38l0.03,0.03l0.02,0.04
						c2.33,2.69,5.67,4.96,9.24,5.56c2.4,0.41,1.48-7.15,1.5-8.02c0.22-7.5,0.9-15,1.07-22.5
						C191.69,273.37,193.17,264.09,190.67,261.27z"/>
					<path d="M194.93,265.95c0.37-6.26,5.53-6.12,10.34-4.67c6.84,2.07,9.01,7.49,7.72,14.17c-1.57,8.12-2.83,17.28-7.56,24.25
						c-1.68,1.91-9.3,8.66-9.5,2.05c-0.12-4.09-0.24-8.18-0.36-12.27C195.34,281.72,194.47,273.7,194.93,265.95 M195.18,297.66
						c0.03,0.87-0.9,8.42,1.5,8.02c3.57-0.6,6.91-2.88,9.24-5.56l0.02-0.04l0.03-0.03c3.71-5.45,5.06-12.02,6.42-18.38
						c0.97-4.53,2.54-11.04,0.39-15.89c-1.85-4.17-12.76-9.42-17.55-4.46c-2.71,2.81-1.22,10.39-1.12,13.84"/>
				</g>
			</g>
		</g>
	</g>
</g>
</svg>
