<?xml version="1.0" encoding="utf-8"?>
<!-- Generator: Adobe Illustrator 26.0.1, SVG Export Plug-In . SVG Version: 6.00 Build 0)  -->
<svg version="1.1" id="Layer_1" xmlns="http://www.w3.org/2000/svg" xmlns:xlink="http://www.w3.org/1999/xlink" x="0px" y="0px"
	 viewBox="0 0 432 648" style="enable-background:new 0 0 432 648;" xml:space="preserve">
<style type="text/css">
	.st0{fill:#FFFFFF;}
	.st1{fill:#E92A2A;}
	.st2{fill:#D52626;}
	.st3{fill:#9A1A1C;}
	.st4{fill:#8D1819;}
	.st5{fill:#A89FA8;}
	.st6{fill:#998F99;}
	.st7{fill:#E9E7E9;}
</style>
<g>
	<g>
		<g id="Front_00000016054267031143977780000009735584957702449037_">
			<g>
				<g>
					<g>
						<g>
							<path class="st0" d="M280.56,259.32v-8.56c0-6.18-3.43-12.78-5.56-16.28c2.11-7.07,2.14-23.98,0.99-31.83
								c-0.7-4.77-4.02-8.66-5.66-11.15c0.03-0.19,0.06-0.38,0.1-0.58c0.9-5.77-3.01-19.91-5.36-25.88
								c-1.56-3.96-4.82-5.46-7.43-6.67c-1.41-0.65-2.64-1.21-3.33-2.02c-1.76-2.06-3.52-2.62-5.07-3.12
								c-0.41-0.13-0.8-0.26-1.18-0.41c-0.6-0.24-1.12-0.72-1.92-1.44c-1.36-1.23-3.41-3.09-7.79-5.64c-2.41-1.4-5.8-3.02-9.38-4.74
								c-5.88-2.81-12.74-6.06-14.37-8.08c-1.49-1.84-1.65-7.66-1.67-9.58c0.71-1.8,0.79-4.65,0.76-6.3
								c0.3,0.14,0.66,0.21,1.09,0.16c1.46-0.18,2.84-2.46,4.48-5.42c0.46-0.83,0.9-1.62,1.23-2.09c1.42-2.03,1.11-6.42,0.07-9.71
								c-0.3-0.96-0.82-1.51-1.53-1.65c-0.98-0.18-2.05,0.56-2.82,1.27c0.15-4.1,0.09-15.64-4.64-21.32
								c-4.08-4.89-12.23-6.11-15.32-6.4l-1.22,0c-3.09,0.29-11.25,1.51-15.32,6.4c-4.73,5.68-4.79,17.22-4.64,21.32
								c-0.76-0.7-1.84-1.44-2.81-1.27c-0.71,0.13-1.23,0.69-1.53,1.65c-1.04,3.29-1.35,7.68,0.07,9.71
								c0.33,0.48,0.77,1.26,1.23,2.09c1.64,2.96,3.01,5.24,4.48,5.42c0.43,0.05,0.79-0.02,1.09-0.16c-0.03,1.82,0.07,5.09,1,6.82
								c0,0,0,0.01,0.01,0.01c-0.04,1.35-0.33,7.15-1.9,9.1c-1.63,2.02-8.29,5.21-14.17,8.02c-3.59,1.72-6.98,3.34-9.38,4.74
								c-4.38,2.54-6.43,4.4-7.79,5.64c-0.8,0.73-1.33,1.21-1.92,1.44c-0.38,0.15-0.77,0.28-1.18,0.41
								c-1.55,0.5-3.31,1.06-5.07,3.12c-0.69,0.8-1.91,1.37-3.33,2.02c-2.62,1.21-5.87,2.71-7.43,6.67
								c-2.35,5.97-6.27,20.12-5.36,25.88c0.06,0.41,0.13,0.82,0.21,1.22c-1.66,2.48-4.64,6.08-5.33,10.73
								c-1.14,7.8-1.27,24.07,0.8,31.19c-2.1,3.38-5.82,10.26-5.82,16.7v8.56c-0.59,0.96-3.68,6.54-3.02,17.44
								c0.25,4.18,0.72,8.03,1.22,12.1c0.88,7.26,3.84,15.48,3.5,25.2c-0.52,14.81-0.31,28.94,0.27,31.67
								c0.54,2.5,5.16,14.67,5.36,15.19l0.17,0.45l0.47-0.12c0.03-0.01,2.8-0.8,3.04-4.46l1.48,1.69l0.39-0.54
								c0.09-0.12,1.39-1.97,1.76-4.26c0.82-1.39,2.53-4.96,0.55-7.99c-2.26-3.45-5.99-10.57-6.03-10.64l0,0
								c-0.01-0.24-0.03-0.44-0.06-0.59c0.55-4.23,0-5.77,1.58-6.37c0.13-0.05,0.2-0.03,0.28,0.02c1.15,0.74,1.41,2.71,1.69,4.79
								c0.26,1.95,0.54,3.97,1.53,5.54c1.17,1.84,2.96,4.22,5.06,2.48c1.38-1.15,0.17-9.02-0.16-11.35
								c-0.42-2.91-0.42-3.73-1.57-8.35c-0.73-2.94-1.17-4.47-1.37-5.83c-0.1-1.12,0.19-5.79,0.62-9.21
								c0.49-3.92,2.91-10.33,5.48-17.12c2.93-7.75,5.96-15.77,6.15-20.42c0.3-7.21-0.65-10.79-0.99-11.82
								c0.61-0.73,2.3-2.98,2.76-5.9c0.54-3.39,0.37-9.27,0.35-9.42c0.02-0.1,1.8-10.26,4.73-14.92c2.23-3.54,5.51-10.46,6.9-14.09
								c0.51,3.58,1.07,6.79,1.65,8.51c0.72,2.17,1.65,4.59,2.54,6.92c1.27,3.33,2.47,6.47,2.78,8.12
								c0.44,2.33,0.13,19.45,0.03,25.08c-0.02,1.2-0.04,2-0.04,2.2c0,0.01,0,0.01-0.01,0.02c-0.11,0.11-0.19,0.3-0.22,0.5
								c-0.22,0.41-0.58,0.97-0.91,1.49c-1.77,2.79-4.74,7.46-4.16,12.07c0.64,5.14,1.42,7.28,1.7,7.93
								c-0.58,1.85-4.88,15.91-4.22,26.04c0.23,3.54-1.16,9.05-2.92,16.04c-2.27,9-6.56,29.74-7.51,42.67
								c-1.41,19.13,4.08,41.03,5.59,52.86c0.32,2.53,0.54,4.21,0.57,4.71c0.07,1.25-0.04,2.11-0.18,3.11
								c-0.18,1.36-0.39,2.9-0.18,5.79c0.02,0.29,0.07,0.61,0.14,0.95c-0.74,1.66-7.26,16.62-7.43,26.38
								c-0.08,4.77,1.44,15.35,3.06,26.56c1.46,10.15,2.86,20.63,3.3,27.11l0.01,0.17c0.04,0.54,0.07,1.06,0.09,1.54
								c0.07,3.47-0.26,10.38-0.49,11.06c-0.52,1.59-1,3.09-0.97,5.43c-0.14,0.14-0.28,0.27-0.42,0.39
								c-1.92,1.64-2.69,3.85-3.45,5.98c-0.25,0.7-0.48,1.36-0.75,1.99c-1.03,2.42-10.21,9.98-11.47,10.78
								c-0.99,0.62-3.49,4.28-3.49,4.28c-0.94,1-0.65,2.66-0.46,3.75c0.03,0.19,0.07,0.37,0.09,0.53c0.08,0.58,0.26,0.98,0.4,1.31
								c0.13,0.28,0.22,0.49,0.22,0.74c0.01,0.34-0.05,0.75-0.1,1.14c-0.05,0.35-0.1,0.72-0.11,1.06c-0.01,0.61,0.02,2.08,0.61,2.57
								c0.34,0.28,0.66,0.48,1.13,0.56c-0.05,0.15-0.12,0.35-0.2,0.59c-0.37,1.08,0.45,2.19,1.05,2.63
								c0.43,0.32,1.11,0.35,1.58,0.32c0,0.09,0.02,0.15,0.03,0.2c0.07,0.77,0.33,1.83,1.31,2.29c1,0.47,1.5,0.36,2.09,0.08
								c1.14,1.58,3.46,2.54,5.55,2.34c0.27-0.03,0.54-0.07,0.8-0.14c2.15-0.55,4.85-2.4,5.84-4.89c0.8-1.99,1.97-2.65,3.01-3.1
								c4.29-1.35,6.63-6.13,7.25-10.56c0.55-3.91,3.06-8.18,3.71-9.05c2.99-1.26,4.77-2.84,6.3-5.09c1.61-2.36,1.67-3.87,1.22-5.83
								c-0.43-1.86-1.59-10.63-2-11.99c-0.35-1.19-0.52-2.41-0.8-3.9c-0.87-4.63,4.87-28.5,6.56-33.15
								c0.65-1.78,1.57-3.73,2.65-5.98c1.82-3.82,4.09-8.57,5.9-14.58c2.74-9.1-1.59-29.23-2.11-31.61
								c1.59-2.79,3.01-5.68,4.23-8.63c0.98-2.36,1.9-4.81,2.37-7.33c0.68-3.72,1.28-10.77,1.96-18.93
								c0.61-7.21,1.29-15.38,2.13-21.9c1.03-8.05,3.17-17.14,4.88-24.44c1.17-5,2.18-9.31,2.51-11.92
								c0.62-4.86,0.01-9.71-0.34-11.83c0.37,0.04,1.49,0.05,1.76,0c-0.34,2.12-0.96,6.97-0.34,11.83c0.33,2.6,1.34,6.92,2.51,11.92
								c1.71,7.3,3.84,16.39,4.88,24.44c0.84,6.52,1.53,14.69,2.13,21.9c0.69,8.16,1.28,15.21,1.96,18.93
								c0.46,2.52,1.39,4.97,2.37,7.33c1.23,2.95,2.64,5.84,4.23,8.63c-0.53,2.38-4.85,22.51-2.11,31.61
								c1.81,6.01,4.08,10.76,5.9,14.58c1.07,2.25,2,4.2,2.65,5.98c1.69,4.65,7.43,28.52,6.56,33.15c-0.28,1.49-0.44,2.7-0.8,3.9
								c-0.4,1.36-1.57,10.13-2,11.99c-0.45,1.96-0.39,3.46,1.22,5.83c1.53,2.25,3.31,3.84,6.3,5.09c0.65,0.87,3.16,5.14,3.71,9.05
								c0.62,4.44,2.96,9.21,7.25,10.56c1.04,0.45,2.21,1.11,3.01,3.1c1,2.48,3.7,4.34,5.84,4.89c0.26,0.07,0.53,0.11,0.8,0.14
								c2.09,0.2,4.41-0.76,5.55-2.34c0.58,0.28,1.09,0.39,2.09-0.08c1.07-0.51,1.28-1.72,1.33-2.49c0.47,0.03,1.16,0,1.59-0.32
								c0.6-0.44,1.41-1.55,1.05-2.63c-0.08-0.22-0.14-0.41-0.19-0.56l0,0c0-0.01-0.01-0.02-0.01-0.04
								c0.47-0.09,0.79-0.28,1.13-0.56c0.59-0.49,0.63-1.96,0.61-2.57c-0.01-0.34-0.06-0.7-0.11-1.06c-0.05-0.39-0.11-0.8-0.1-1.14
								c0-0.25,0.1-0.46,0.22-0.74c0.14-0.32,0.32-0.72,0.4-1.31c0.02-0.16,0.05-0.34,0.09-0.53c0.19-1.09,0.48-2.74-0.46-3.75
								c0,0-2.5-3.67-3.49-4.28c-1.26-0.79-10.43-8.36-11.47-10.78c-0.27-0.63-0.5-1.29-0.75-1.99c-0.75-2.14-1.53-4.34-3.45-5.98
								c-0.14-0.12-0.28-0.25-0.42-0.39c0.04-2.34-0.45-3.84-0.97-5.43c-0.22-0.68-0.56-7.59-0.49-11.06c0.02-0.48,0.05-1,0.09-1.54
								c0.01-0.06,0.02-0.12,0.03-0.17l-0.02,0c0.44-6.48,1.84-16.96,3.3-27.11c1.62-11.21,3.14-21.79,3.06-26.56
								c-0.17-9.7-6.6-24.52-7.41-26.34c0.09-0.41,0.15-0.79,0.17-1.14c0.21-2.89,0-4.43-0.18-5.79c-0.13-1-0.25-1.86-0.18-3.11
								c0.03-0.51,0.24-2.18,0.57-4.71c1.51-11.83,7-33.72,5.59-52.86c-0.95-12.93-5.24-33.67-7.51-42.67
								c-1.76-6.98-3.15-12.5-2.92-16.04c0.66-10.14-3.63-24.19-4.22-26.04c0.28-0.65,1.06-2.79,1.7-7.93
								c0.57-4.61-2.39-9.28-4.16-12.07c-0.52-0.82-1.11-1.75-1.14-2.01c0-0.2-0.01-0.99-0.04-2.2c-0.1-5.63-0.41-22.75,0.03-25.08
								c0.31-1.64,1.51-4.79,2.78-8.12c0.89-2.33,1.81-4.75,2.54-6.92c0.55-1.66,1.08-4.74,1.57-8.18c0-0.01,0-0.01,0-0.02
								c1.42,3.54,4.62,10.04,6.68,13.69c3.63,6.44,4.88,16.93,5.08,24.34c0.08,2.95,2.15,5.17,2.76,5.9
								c-0.34,1.04-1.29,4.61-0.99,11.82c0.19,4.65,3.22,12.67,6.15,20.42c2.57,6.79,4.99,13.2,5.48,17.12
								c0.35,2.83,0.7,4.66,0.72,6.05c0.02,1.34,0.01,2.68-0.12,4.02c-0.12,1.24-0.64,2.7-1.27,5.21c-1.15,4.62-1.15,5.44-1.57,8.35
								c-0.33,2.33-1.54,10.21-0.16,11.35c2.09,1.74,3.89-0.64,5.06-2.48c0.99-1.57,1.27-3.59,1.53-5.54
								c0.28-2.09,0.55-4.05,1.69-4.79c0.08-0.05,0.15-0.07,0.28-0.02c1.58,0.59,1.02,2.13,1.58,6.37
								c-0.03,0.15-0.05,0.35-0.06,0.59l0,0c-0.04,0.07-3.77,7.19-6.03,10.64c-1.99,3.03-0.28,6.6,0.55,7.99
								c0.37,2.29,1.67,4.14,1.76,4.26l0.39,0.54l1.48-1.69c0.24,3.66,3.01,4.45,3.04,4.46l0.47,0.12l0.17-0.45
								c0.2-0.52,4.82-12.69,5.36-15.19c0.59-2.73,0.8-16.86,0.27-31.67c-0.34-9.71,2.62-17.94,3.5-25.2
								c0.5-4.07,0.96-7.92,1.22-12.1C284.24,265.86,281.15,260.28,280.56,259.32z"/>
						</g>
					</g>
				</g>
			</g>
		</g>
	</g>
	<g>
		<g id="Sternocleids_00000023974072084213464410000011312879415426696110_">
			<g>
				<path class="st1" d="M202.98,158.66c1.21-3.1,2.74-6.85,3.91-9.77c2.28,5.86,8.11,10.25,14.33,11.03
					c-6.09,1.76-13.07,3.07-18.14-0.84L202.98,158.66z"/>
				<path class="st2" d="M211.29,160.15c-2.44-1.61-4.52-3.72-6.12-6.24c0.1-0.25,0.2-0.5,0.3-0.75c1.69,2.79,3.96,5.09,6.67,6.77
					C211.86,160.01,211.57,160.09,211.29,160.15"/>
				<path class="st3" d="M213.64,161.49l-2.44,0.32c-2.89,0-5.29-0.84-7.47-2.37c1.17,0.57,3.04,0.97,4.97,0.97
					c0.87,0,1.75-0.08,2.58-0.26C212.02,160.63,212.85,161.1,213.64,161.49 M214.59,161.25c-0.94-0.4-1.61-0.79-2.46-1.32
					c1-0.32,2.12-1.04,2.81-1.74c1.7,0.87,4.14,1.44,6.14,1.7c-1.79,0.51-4.3,1.27-6.13,1.51L214.59,161.25z"/>
				<path class="st4" d="M213.67,161.51c-0.79-0.39-1.65-0.88-2.38-1.36c0.29-0.06,0.57-0.14,0.85-0.22
					c0.85,0.53,1.84,1.05,2.78,1.45c-0.41,0.05-0.68,0.09-1.1,0.13L213.67,161.51z"/>
				<path class="st1" d="M188.24,158.71c-1.21-3.1-2.69-6.84-3.85-9.75c-2.28,5.86-7.46,10.38-13.68,11.15
					c6.09,1.76,13.22,2.55,17.58-0.98L188.24,158.71z"/>
				<path class="st2" d="M179.85,160.15c2.44-1.61,4.64-3.96,6.24-6.47c-0.1-0.25-0.2-0.5-0.3-0.75c-1.69,2.79-4.08,5.32-6.79,7
					C179.28,160.01,179.57,160.09,179.85,160.15"/>
				<path class="st3" d="M177.4,161.54c0.79-0.39,1.72-0.91,2.45-1.4c0.84,0.18,1.72,0.26,2.58,0.26c1.93,0,4.93-1.04,5.86-1.57
					c-2.81,2.36-5.63,2.95-8.53,2.95C179.77,161.79,178.1,161.6,177.4,161.54z M176.32,161.32c-0.61,0.39-4.14-0.65-5.95-1.18
					c-1.93-0.56,4.34-0.85,6.03-1.72c0.69,0.7,1.6,1.18,2.6,1.5C178.16,160.45,177.26,160.92,176.32,161.32"/>
				<path class="st4" d="M177.52,161.48c0.79-0.39,1.6-0.86,2.34-1.34c-0.29-0.06-0.57-0.13-0.85-0.22
					c-0.85,0.53-1.8,1.02-2.73,1.42C176.69,161.4,177.1,161.44,177.52,161.48"/>
			</g>
			<g id="Sternocleid_00000044899938488804376990000006978057755969951630_">
				<g>
					<path class="st1" d="M207.2,148.58v0.01c2.22,6.53,7.95,10.72,14.91,10.93c2.18-0.7,4.79-1.77,6.53-2.52
						c-1.17-0.22-2.47-0.66-3.62-1.25c-6.95-3.59-8.45-13.92-14.12-18.99c-0.48,2.4-1.07,5.31-1.79,7.04
						C208.67,144.89,207.99,146.58,207.2,148.58"/>
					<path class="st2" d="M228.13,157.36c-1.13-0.22-2.35-0.61-3.45-1.18c0.06,0.02,0.13,0.03,0.2,0.05
						c0.57,0.28,1.14,0.51,1.72,0.69c0.5,0.16,1.1,0.31,1.6,0.41c-0.02,0.01-0.03,0.02-0.05,0.03L228.13,157.36z M222.3,156.23
						c-6.3-1.89-11.19-4.83-14.66-8.73c0.09-0.23,0.18-0.46,0.27-0.68c3.49,4.03,8.5,7.03,15.05,8.92c-0.19,0.19-0.32,0.3-0.57,0.44
						L222.3,156.23z"/>
					<path class="st2" d="M221.15,152.93c-4.84-0.9-9.55-3.48-12.79-7.23c0.1-0.24,0.19-0.46,0.27-0.68
						c3.01,3.58,7.4,6.11,11.9,7.12c0.2,0.27,0.38,0.47,0.59,0.73L221.15,152.93z"/>
					<path class="st2" d="M217.56,147.34c-2.77-0.94-5.77-2.4-8.27-4.06c0.08-0.2,0.15-0.42,0.23-0.64
						c2.31,1.55,5.09,2.93,7.62,3.85C217.27,146.77,217.56,147.34,217.56,147.34z"/>
					<path class="st3" d="M221.98,159.75c-5.35-0.16-9.75-2.81-12.61-6.93c2.03,1.87,4.81,3.56,7.62,4.05
						c0.43,0.07,0.99,0.12,1.62,0.12c1.23,0,2.68-0.19,3.7-0.77c1.69,0.51,3.48,0.94,5.39,1.31c-1.64,0.7-3.26,1.52-5.25,2.16
						L221.98,159.75z M226.23,156.48c-0.6-0.15-2.69-0.57-3.27-0.74c0.13-0.13,0.41-0.51,0.5-0.67
						C223.91,155.4,226.23,156.48,226.23,156.48z"/>
					<path class="st4" d="M227.88,157.54c0.13-0.06,1.27-0.74,1.4-0.8c-1.13-0.22-1.3,0.3-1.72,0.08c-0.55-0.29-4.03-0.93-4.61-1.09
						c-0.19,0.19-0.41,0.35-0.65,0.49c1.69,0.51,3.62,0.98,5.53,1.35L227.88,157.54z"/>
				</g>
				<g>
					<path class="st1" d="M184.14,148.22c-0.79-2-1.41-3.56-1.86-4.64c-0.72-1.73-1.31-4.23-1.8-6.64
						c-5.67,5.08-7.25,15.58-14.2,19.17c-1.15,0.59-2.3,0.98-3.48,1.21c1.74,0.75,4.07,1.89,6.25,2.59
						c6.97-0.21,12.94-4.87,15.17-11.4L184.14,148.22z"/>
					<path class="st2" d="M170.42,152.83c4.84-0.9,9.29-3.51,12.53-7.26c-0.1-0.24-0.19-0.46-0.27-0.68
						c-3.01,3.58-7.14,6.15-11.64,7.15C170.84,152.31,170.63,152.58,170.42,152.83"/>
					<path class="st2" d="M173.85,147.26c2.77-0.94,5.65-2.44,8.15-4.11c-0.08-0.2-0.15-0.42-0.23-0.64
						c-2.31,1.55-4.97,2.97-7.5,3.9C174.13,146.69,173.99,146.98,173.85,147.26"/>
					<path class="st3" d="M168.41,159.68c-1.98-0.65-3.33-1.46-4.97-2.16c1.91-0.37,3.7-0.81,5.39-1.31
						c1.01,0.58,2.46,0.77,3.7,0.77c0.62,0,1.19-0.05,1.62-0.12c2.81-0.49,5.89-2.48,7.93-4.31c-1.96,3.63-7.48,7.13-12.83,7.29
						L168.41,159.68z M166.4,156.2c0,0,0.01,0,0.01-0.01c0.51-0.26,0.98-0.57,1.43-0.9c0.09,0.16,0.2,0.3,0.33,0.43
						C167.6,155.89,167,156.05,166.4,156.2"/>
					<path class="st4" d="M163.42,157.53c-0.13-0.06-0.25-0.14-0.38-0.19c1.13-0.22,2.27-0.58,3.37-1.14
						c0.6-0.15,1.18-0.31,1.76-0.48c0.19,0.19,0.41,0.35,0.66,0.49c-1.69,0.51-3.41,0.93-5.32,1.3L163.42,157.53z"/>
				</g>
			</g>
		</g>
		<g id="Front_00000111902678743624040560000005344422648858683301_">
			<path class="st5" d="M195.61,140.11c-0.88-0.07-1.76-0.26-2.58-0.56c-0.17-1.53-0.35-3.1-0.54-4.7c0.43,0.1,0.89,0.18,1.35,0.24
				c0.36,0.05,0.72,0.08,1.06,0.11h1.42c0.33-0.03,0.68-0.06,1.04-0.11c0.44-0.06,0.89-0.13,1.32-0.23
				c-0.19,1.61-0.37,3.17-0.54,4.71C197.32,139.86,196.47,140.04,195.61,140.11 M198.82,139.3c0.17-1.54,0.35-3.08,0.53-4.62
				c0.08-0.02,0.15-0.05,0.22-0.08c0.51-0.18,1.46-0.76,2.63-1.57c-0.13,1.6-0.38,3.17-0.7,4.73
				C200.66,138.35,199.76,138.88,198.82,139.3 M192.34,139.27c-0.94-0.42-1.84-0.95-2.69-1.56c-0.32-1.55-0.57-3.13-0.69-4.72
				c1.2,0.83,2.17,1.43,2.68,1.61c0.06,0.02,0.11,0.04,0.17,0.06C191.99,136.2,192.16,137.74,192.34,139.27 M202.31,137.16
				c0.28-1.52,0.49-3.06,0.58-4.62c1.49-1.07,3.23-2.42,4.84-3.76c-0.5,1.69-0.99,3.25-1.48,4.71c-0.49,0.55-1,1.08-1.54,1.58
				C203.96,135.79,203.16,136.5,202.31,137.16 M188.85,137.11c-0.83-0.65-1.61-1.35-2.34-2.04c-0.53-0.51-1.05-1.04-1.54-1.58
				c-0.49-1.46-0.98-3.02-1.48-4.71c1.59,1.32,3.31,2.66,4.79,3.72C188.36,134.06,188.57,135.59,188.85,137.11"/>
			<path class="st6" d="M189.65,137.71c-0.27-0.19-0.54-0.39-0.8-0.6c-0.28-1.52-0.49-3.06-0.58-4.61c0.24,0.17,0.47,0.33,0.69,0.49
				C189.08,134.58,189.33,136.16,189.65,137.71"/>
			<path class="st6" d="M193.03,139.55c-0.12-0.04-0.23-0.09-0.35-0.13s-0.23-0.1-0.34-0.15c-0.17-1.54-0.35-3.07-0.53-4.61
				c0.21,0.07,0.44,0.13,0.68,0.19C192.67,136.45,192.85,138.02,193.03,139.55"/>
			<path class="st6" d="M201.51,137.76c0.32-1.56,0.57-3.13,0.7-4.73c0.22-0.15,0.45-0.32,0.69-0.49c-0.09,1.56-0.3,3.1-0.58,4.62
				C202.05,137.37,201.78,137.56,201.51,137.76"/>
			<path class="st6" d="M198.13,139.57c0.17-1.54,0.35-3.1,0.54-4.71c0.23-0.05,0.46-0.11,0.68-0.18c-0.18,1.54-0.36,3.08-0.53,4.62
				c-0.1,0.04-0.19,0.08-0.29,0.12C198.4,139.47,198.27,139.52,198.13,139.57"/>
			<path class="st7" d="M193.88,170.39c-0.11-0.21-0.23-0.41-0.35-0.61c-0.06-0.09-0.12-0.18-0.18-0.27c0.5-7.84-0.1-15.1-1.8-21.6
				c-0.25-0.96-0.51-1.91-0.77-2.86c-0.71-2.59-1.43-5.24-1.93-7.94c0.26,0.21,0.53,0.41,0.8,0.6c0.43,2.11,1,4.19,1.55,6.23
				c0.69,2.54,1.4,5.16,1.86,7.82c1.06,6.18,1.35,12.21,0.91,18.44C193.96,170.27,193.93,170.34,193.88,170.39"/>
			<path class="st7" d="M195.02,174.67c-0.08-0.8-0.2-1.58-0.4-2.32c0.51-5.34-0.03-10.78-0.55-16.06
				c-0.09-0.87-0.17-1.74-0.25-2.61c-0.44-4.73-0.94-9.55-1.48-14.41c0.11,0.05,0.23,0.1,0.34,0.15s0.23,0.09,0.35,0.13
				c0.65,5.8,1.19,11.12,1.63,16.14c0.06,0.69,0.12,1.39,0.19,2.08C195.35,163.31,195.87,169.03,195.02,174.67"/>
			<path class="st7" d="M197.92,169.65c-0.51-7.86-0.01-15.22,1.69-21.73c0.25-0.96,0.51-1.91,0.77-2.86
				c0.71-2.57,1.42-5.21,1.92-7.89c-0.26,0.2-0.53,0.4-0.8,0.59c-0.43,2.1-0.99,4.16-1.54,6.19c-0.69,2.54-1.4,5.16-1.86,7.82
				c-1.06,6.18-1.21,12.79-0.77,19.01L197.92,169.65z"/>
			<path class="st7" d="M196.3,174.32c-0.9-5.71-0.5-10.94,0.02-16.56c0.06-0.69,0.13-1.38,0.19-2.07
				c0.44-5.02,0.98-10.33,1.63-16.12c0.14-0.05,0.27-0.1,0.4-0.15c0.1-0.04,0.19-0.08,0.29-0.12c-0.54,4.85-1.04,9.67-1.48,14.39
				c-0.08,0.86-0.17,1.73-0.25,2.6c-0.53,5.34-0.98,11.1-0.45,16.49c-0.19,0.76-0.02,0.6-0.09,1.43L196.3,174.32z"/>
			<g>
				<path class="st5" d="M226.84,446.41c0.45,0,0.89-0.03,1.34-0.11c2.28-0.38,3.98-1.68,5.44-3.27c-0.01,0-0.02,0-0.02,0
					l-0.21,0.01c-3.05,0-13.42-8.44-15.74-11.03c0,0,13.5,9.97,15.7,9.97c0.03,0,0.06,0,0.08-0.01c1.83-0.28,7.08-8.89,7.19-9.07h0
					c0,0-0.08,0.14-0.23,0.38c-1.74,1.9-4.23,3.19-6.81,3.19c-0.14,0-0.27,0-0.41-0.01c-2.83-0.15-5.59-2.09-6.29-4.8
					c-0.52-2.03,0.11-4.21,1.23-5.98c1.12-1.77,2.7-3.21,4.26-4.63c-3.25,1.08-4.77,1.77-6.5,2.96c-1.26,0.87-5.24,2.73-8.17,2.73
					c-1.1,0-2.05-0.26-2.64-0.94c-0.6-0.69-1.2-1.37-1.68-2.14c-0.26-0.43-0.53-0.86-0.79-1.29c-0.4-0.02-0.8-0.07-1.2-0.15
					c-1.03-0.19-2.03-0.56-2.99-1.17c0.13,0.95,0.25,1.79,0.38,2.5c0.82,4.47,2.88,8.8,4.95,12.81c0.34,0.65,0.67,1.33,1.02,2.01
					c0.92,1.81,1.92,3.66,3.2,5.14l0.1,0.11c0.8,0.35,1.59,0.68,2.31,1C222.41,445.56,224.62,446.41,226.84,446.41"/>
				<path class="st5" d="M164.6,446.41c-0.45,0-0.89-0.03-1.34-0.11c-2.28-0.38-3.98-1.68-5.44-3.27c0.01,0,0.02,0,0.02,0l0.21,0.01
					c3.05,0,13.42-8.44,15.74-11.03c0,0-13.5,9.97-15.7,9.97c-0.03,0-0.06,0-0.08-0.01c-1.83-0.28-7.08-8.89-7.19-9.07h0
					c0,0,0.08,0.14,0.23,0.38c1.74,1.9,4.23,3.19,6.81,3.19c0.14,0,0.27,0,0.41-0.01c2.83-0.15,5.59-2.09,6.29-4.8
					c0.52-2.03-0.11-4.21-1.23-5.98c-1.12-1.77-2.7-3.21-4.26-4.63c3.25,1.08,4.77,1.77,6.5,2.96c1.26,0.87,5.24,2.73,8.17,2.73
					c1.1,0,2.05-0.26,2.64-0.94c0.6-0.69,1.2-1.37,1.68-2.14c0.26-0.43,0.53-0.86,0.79-1.29c0.4-0.02,0.8-0.07,1.2-0.15
					c1.03-0.19,2.03-0.56,2.99-1.17c-0.13,0.95-0.25,1.79-0.38,2.5c-0.82,4.47-2.88,8.8-4.95,12.81c-0.34,0.65-0.67,1.33-1.02,2.01
					c-0.92,1.81-1.92,3.66-3.2,5.14l-0.1,0.11c-0.8,0.35-1.59,0.68-2.31,1C169.03,445.56,166.82,446.41,164.6,446.41"/>
				<g>
					<g>
						<path d="M189.35,239.79c-3.31,0.51-6.33,1.66-9.47,2.74c-8.44,2.91-5.44-7.96-3.13-11.69c2.68-4.31,8.1-6.78,12.99-7.68
							c5.85-1.08,4.52,5.83,4.43,8.44C194.06,235.12,194.36,239.15,189.35,239.79 M194.82,231.66c0.07-1.93,0.19-3.84,0.04-5.76
							c-0.52-6.73-10.94-1.76-13.71-0.09c-5.35,3.22-8.2,9.5-7.46,15.54c0.15,1.23,1.13,2.85,2.64,2.68
							c4.53-0.51,8.62-2.91,13.15-3.61c2.36-0.3,3.82-0.73,4.9-2.83C195.17,236.03,194.76,233.32,194.82,231.66"/>
						<path d="M201.69,239.8c-5.08-0.66-4.77-4.68-4.9-8.2c-0.1-2.61-1.46-9.52,4.46-8.43c4.96,0.91,10.46,3.4,13.18,7.71
							c2.35,3.73,5.41,14.61-3.14,11.68C208.11,241.47,205.05,240.31,201.69,239.8 M196.14,231.65c0.06,1.67-0.34,4.37,0.47,5.92
							c1.1,2.1,2.57,2.53,4.97,2.84c4.59,0.71,8.73,3.12,13.32,3.64c1.53,0.17,2.51-1.45,2.66-2.68c0.74-6.04-2.17-12.32-7.59-15.55
							c-2.81-1.68-13.38-6.67-13.89,0.06C195.94,227.81,196.07,229.72,196.14,231.65"/>
						<path d="M187.72,220.23c-2.79,1.66-12.7,8.13-13.44,1.48c-0.63-5.75,1.06-9.82,6.37-12.42c3.24-1.58,8.4-4.61,11.97-4.01
							c2.45,1.44,1.47,6.17,1.06,8.33C193.06,216.89,190.39,218.64,187.72,220.23 M193.02,204.7c-0.76-0.32-1.74-0.2-2.51-0.08
							c-1.32,0.2-2.57,0.71-3.78,1.26c-0.32,0.14-0.64,0.29-0.96,0.44c-2.77,1.29-6.17,2.21-8.57,4.18
							c-2.45,2.01-3.41,4.24-3.72,7.36c-0.16,1.59-0.5,6.77,1,8.04c1.78,1.5,3.91-0.22,5.69-1.06c3.67-1.74,8.54-3.46,11.47-6.36
							c2.3-2.28,3.63-6.2,3.53-9.4c-0.04-1.45-0.54-3.38-1.84-4.21L193.02,204.7"/>
						<path d="M202.95,220.25c-2.67-1.59-5.34-3.34-5.96-6.63c-0.4-2.15-1.39-6.89,1.06-8.33c3.57-0.6,8.73,2.43,11.97,4.01
							c5.31,2.6,7.01,6.67,6.37,12.42C215.65,228.38,205.73,221.91,202.95,220.25 M197.64,204.72l-0.3,0.16
							c-1.3,0.83-1.8,2.76-1.84,4.21c-0.1,3.2,1.23,7.12,3.53,9.4c2.93,2.91,7.8,4.62,11.47,6.36c1.78,0.84,3.91,2.57,5.69,1.06
							c1.5-1.27,1.16-6.45,1-8.04c-0.31-3.12-1.27-5.35-3.72-7.36c-2.39-1.97-5.8-2.89-8.57-4.18c-0.32-0.15-0.64-0.3-0.96-0.44
							c-1.21-0.55-2.46-1.06-3.78-1.26C199.38,204.52,198.4,204.41,197.64,204.72"/>
						<g>
							<path d="M157.96,443.05l-0.21-0.01c-0.01,0-0.02,0-0.02,0c0,0-0.01-0.01-0.01-0.01c-2.65-0.47-7.53-8.92-7.53-10.11h0.53
								c0.11,0.18,5.36,8.79,7.19,9.07c0.03,0,0.05,0.01,0.08,0.01c2.2,0,15.7-9.97,15.7-9.97
								C171.39,434.61,161.02,443.05,157.96,443.05"/>
							<path d="M233.31,443.05l0.21-0.01c0.01,0,0.02,0,0.02,0c0,0,0.01-0.01,0.01-0.01c2.65-0.47,7.53-8.92,7.53-10.11h-0.53
								c-0.11,0.18-5.36,8.79-7.19,9.07c-0.03,0-0.05,0.01-0.08,0.01c-2.2,0-15.7-9.97-15.7-9.97
								C219.89,434.61,230.26,443.05,233.31,443.05"/>
							<path d="M280.56,259.31v-8.56c0-6.18-3.43-12.78-5.56-16.28c2.11-7.07,2.14-23.98,0.99-31.83c-0.7-4.77-4.02-8.66-5.66-11.15
								c0.03-0.19,0.06-0.38,0.1-0.58c0.9-5.77-3.01-19.91-5.36-25.88c-1.56-3.96-4.82-5.46-7.43-6.67
								c-1.41-0.65-2.64-1.21-3.33-2.02c-1.76-2.06-3.52-2.62-5.07-3.12c-0.41-0.13-0.8-0.26-1.18-0.41
								c-0.6-0.24-1.12-0.72-1.92-1.44c-1.36-1.23-3.41-3.09-7.79-5.64c-2.41-1.4-5.8-3.02-9.38-4.74
								c-5.88-2.81-12.74-6.06-14.37-8.08c-1.49-1.84-1.65-7.66-1.67-9.58c0.71-1.8,0.79-4.65,0.76-6.3
								c0.3,0.14,0.66,0.21,1.09,0.16c1.46-0.18,2.84-2.46,4.48-5.42c0.46-0.83,0.9-1.62,1.23-2.09c1.42-2.03,1.11-6.42,0.07-9.71
								c-0.3-0.96-0.82-1.52-1.53-1.65c-0.98-0.18-2.05,0.56-2.82,1.27c0.15-4.1,0.09-15.64-4.64-21.32
								c-4.08-4.89-12.23-6.11-15.32-6.4l-1.22,0c-3.09,0.29-11.25,1.51-15.32,6.4c-4.73,5.68-4.79,17.22-4.64,21.32
								c-0.76-0.7-1.84-1.44-2.81-1.27c-0.71,0.13-1.23,0.69-1.53,1.65c-1.04,3.29-1.35,7.68,0.07,9.71
								c0.33,0.48,0.77,1.26,1.23,2.09c1.64,2.96,3.01,5.24,4.48,5.42c0.43,0.05,0.79-0.02,1.09-0.16c-0.03,1.82,0.07,5.09,1,6.82
								c0,0,0,0.01,0.01,0.01c-0.04,1.35-0.33,7.15-1.9,9.1c-1.63,2.02-8.29,5.21-14.17,8.02c-3.59,1.72-6.98,3.34-9.38,4.74
								c-4.38,2.54-6.43,4.4-7.79,5.64c-0.8,0.73-1.33,1.21-1.92,1.44c-0.38,0.15-0.77,0.28-1.18,0.41
								c-1.55,0.5-3.31,1.06-5.07,3.12c-0.69,0.8-1.91,1.37-3.33,2.02c-2.62,1.21-5.87,2.71-7.43,6.67
								c-2.35,5.97-6.27,20.12-5.36,25.88c0.06,0.41,0.13,0.82,0.21,1.22c-1.66,2.48-4.64,6.08-5.33,10.73
								c-1.14,7.8-1.27,24.07,0.8,31.19c-2.1,3.38-5.82,10.26-5.82,16.7v8.56c-0.59,0.96-3.68,6.54-3.02,17.44
								c0.25,4.18,0.72,8.03,1.22,12.1c0.88,7.26,3.84,15.48,3.5,25.2c-0.52,14.81-0.31,28.94,0.27,31.67
								c0.54,2.5,5.16,14.67,5.36,15.19l0.17,0.45l0.47-0.12c0.03-0.01,2.8-0.8,3.04-4.46l1.48,1.69l0.39-0.54
								c0.09-0.12,1.39-1.97,1.76-4.26c0.82-1.39,2.53-4.96,0.55-7.99c-2.26-3.45-5.99-10.57-6.03-10.64l0,0
								c-0.01-0.24-0.03-0.44-0.06-0.59c0.55-4.23,0-5.77,1.58-6.37c0.13-0.05,0.2-0.03,0.28,0.02c1.15,0.74,1.41,2.71,1.69,4.79
								c0.26,1.95,0.54,3.97,1.53,5.54c1.17,1.84,2.96,4.22,5.06,2.48c1.38-1.15,0.17-9.02-0.16-11.35
								c-0.42-2.91-0.42-3.73-1.57-8.35c-0.73-2.94-1.17-4.47-1.37-5.83c-0.1-1.12,0.19-5.79,0.62-9.21
								c0.49-3.92,2.91-10.33,5.48-17.12c2.93-7.75,5.96-15.77,6.15-20.42c0.3-7.21-0.65-10.79-0.99-11.82
								c0.61-0.73,2.3-2.98,2.76-5.9c0.54-3.39,0.37-9.27,0.35-9.42c0.02-0.1,1.79-10.26,4.73-14.92c2.23-3.54,5.51-10.46,6.9-14.09
								c0.51,3.58,1.07,6.79,1.65,8.51c0.72,2.17,1.65,4.59,2.54,6.92c1.27,3.33,2.47,6.47,2.78,8.12
								c0.44,2.33,0.13,19.45,0.03,25.08c-0.02,1.2-0.04,2-0.04,2.2c0,0.01,0,0.01-0.01,0.02c-0.11,0.11-0.19,0.3-0.22,0.5
								c-0.22,0.41-0.58,0.97-0.91,1.49c-1.77,2.79-4.74,7.46-4.16,12.07c0.64,5.14,1.42,7.28,1.7,7.93
								c-0.58,1.85-4.88,15.91-4.22,26.04c0.23,3.54-1.16,9.05-2.92,16.04c-2.27,9-6.56,29.74-7.51,42.67
								c-1.41,19.13,4.08,41.03,5.59,52.86c0.32,2.53,0.54,4.21,0.57,4.71c0.07,1.25-0.04,2.11-0.18,3.11
								c-0.18,1.36-0.39,2.9-0.18,5.79c0.02,0.29,0.07,0.61,0.14,0.95c-0.74,1.66-7.26,16.62-7.43,26.38
								c-0.08,4.77,1.44,15.35,3.06,26.56c1.46,10.15,2.86,20.63,3.3,27.11l0.01,0.17c0.04,0.54,0.07,1.06,0.09,1.54
								c0.07,3.47-0.26,10.38-0.49,11.06c-0.52,1.59-1,3.09-0.97,5.43c-0.14,0.14-0.28,0.27-0.42,0.39
								c-1.92,1.64-2.69,3.85-3.45,5.98c-0.25,0.7-0.48,1.36-0.75,1.99c-1.03,2.42-10.21,9.98-11.47,10.78
								c-0.99,0.62-3.49,4.28-3.49,4.28c-0.94,1-0.65,2.66-0.46,3.75c0.03,0.19,0.07,0.37,0.09,0.53c0.08,0.58,0.26,0.98,0.4,1.31
								c0.13,0.28,0.22,0.49,0.22,0.74c0.01,0.34-0.05,0.75-0.1,1.14c-0.05,0.35-0.1,0.72-0.11,1.06c-0.01,0.61,0.02,2.08,0.61,2.57
								c0.34,0.28,0.66,0.48,1.13,0.56c-0.05,0.15-0.12,0.35-0.2,0.59c-0.37,1.08,0.45,2.19,1.05,2.63
								c0.43,0.32,1.11,0.35,1.58,0.32c0,0.09,0.02,0.15,0.03,0.2c0.07,0.77,0.33,1.83,1.31,2.29c1,0.47,1.5,0.36,2.09,0.08
								c1.14,1.58,3.46,2.54,5.55,2.34c0.27-0.03,0.54-0.07,0.8-0.14c2.15-0.55,4.85-2.4,5.84-4.89c0.8-1.99,1.97-2.65,3.01-3.1
								c4.29-1.35,6.63-6.13,7.25-10.56c0.55-3.91,3.06-8.18,3.71-9.05c2.99-1.26,4.77-2.84,6.3-5.09c1.61-2.36,1.67-3.87,1.22-5.83
								c-0.43-1.86-1.59-10.63-2-11.99c-0.35-1.19-0.52-2.41-0.8-3.9c-0.87-4.63,4.87-28.5,6.56-33.15
								c0.65-1.78,1.57-3.73,2.65-5.98c1.82-3.82,4.09-8.57,5.9-14.58c2.74-9.1-1.59-29.23-2.11-31.61
								c1.59-2.79,3.01-5.68,4.23-8.63c0.98-2.36,1.9-4.81,2.37-7.33c0.68-3.72,1.28-10.77,1.96-18.93
								c0.61-7.21,1.29-15.38,2.13-21.9c1.03-8.05,3.17-17.14,4.88-24.44c1.17-5,2.18-9.31,2.51-11.92
								c0.62-4.86,0.01-9.71-0.34-11.83c0.37,0.04,1.49,0.05,1.76,0c-0.34,2.12-0.96,6.97-0.34,11.83c0.33,2.6,1.34,6.92,2.51,11.92
								c1.71,7.3,3.84,16.39,4.88,24.44c0.84,6.52,1.53,14.69,2.13,21.9c0.69,8.16,1.28,15.21,1.96,18.93
								c0.46,2.52,1.39,4.97,2.37,7.33c1.23,2.95,2.64,5.84,4.23,8.63c-0.53,2.38-4.85,22.51-2.11,31.61
								c1.81,6.01,4.08,10.76,5.9,14.58c1.07,2.25,2,4.2,2.65,5.98c1.69,4.65,7.43,28.52,6.56,33.15c-0.28,1.49-0.44,2.7-0.8,3.9
								c-0.4,1.36-1.57,10.13-2,11.99c-0.45,1.96-0.39,3.46,1.22,5.83c1.53,2.25,3.31,3.84,6.3,5.09c0.65,0.87,3.16,5.14,3.71,9.05
								c0.62,4.44,2.96,9.21,7.25,10.56c1.04,0.45,2.21,1.11,3.01,3.1c1,2.48,3.7,4.34,5.84,4.89c0.26,0.07,0.53,0.11,0.8,0.14
								c2.09,0.2,4.41-0.76,5.55-2.34c0.58,0.28,1.09,0.39,2.09-0.08c1.07-0.51,1.28-1.72,1.33-2.49c0.47,0.03,1.16,0,1.59-0.32
								c0.6-0.44,1.41-1.55,1.05-2.63c-0.08-0.22-0.14-0.41-0.19-0.56l0,0c0-0.01-0.01-0.02-0.01-0.04
								c0.47-0.09,0.79-0.28,1.13-0.56c0.59-0.49,0.63-1.96,0.61-2.57c-0.01-0.34-0.06-0.7-0.11-1.06c-0.05-0.39-0.11-0.8-0.1-1.14
								c0-0.25,0.1-0.46,0.22-0.74c0.14-0.32,0.32-0.72,0.4-1.31c0.02-0.16,0.05-0.34,0.09-0.53c0.19-1.09,0.48-2.74-0.46-3.75
								c0,0-2.5-3.67-3.49-4.28c-1.26-0.79-10.43-8.36-11.47-10.78c-0.27-0.63-0.5-1.29-0.75-1.99c-0.75-2.14-1.53-4.34-3.45-5.98
								c-0.14-0.12-0.28-0.25-0.42-0.39c0.04-2.34-0.45-3.84-0.97-5.43c-0.22-0.68-0.56-7.59-0.49-11.06c0.02-0.48,0.05-1,0.09-1.54
								c0.01-0.06,0.02-0.12,0.03-0.17l-0.02,0c0.44-6.48,1.84-16.96,3.3-27.11c1.62-11.21,3.14-21.79,3.06-26.56
								c-0.17-9.7-6.6-24.52-7.41-26.34c0.09-0.41,0.15-0.79,0.17-1.14c0.21-2.89,0-4.43-0.18-5.79c-0.13-1-0.25-1.86-0.18-3.11
								c0.03-0.51,0.24-2.18,0.57-4.71c1.51-11.83,7-33.72,5.59-52.86c-0.95-12.93-5.24-33.67-7.51-42.67
								c-1.76-6.98-3.15-12.5-2.92-16.04c0.66-10.14-3.63-24.19-4.22-26.04c0.28-0.65,1.06-2.79,1.7-7.93
								c0.57-4.61-2.39-9.28-4.16-12.07c-0.52-0.82-1.11-1.75-1.14-2.01c0-0.2-0.01-0.99-0.04-2.2c-0.1-5.63-0.41-22.75,0.03-25.08
								c0.31-1.64,1.51-4.79,2.78-8.12c0.89-2.33,1.81-4.75,2.54-6.92c0.55-1.66,1.08-4.74,1.57-8.18c0-0.01,0-0.01,0-0.02
								c1.42,3.54,4.62,10.04,6.68,13.69c3.63,6.44,4.88,16.93,5.08,24.34c0.08,2.95,2.15,5.17,2.76,5.9
								c-0.34,1.04-1.29,4.61-0.99,11.82c0.19,4.65,3.22,12.67,6.15,20.42c2.57,6.79,4.99,13.2,5.48,17.12
								c0.35,2.83,0.7,4.66,0.72,6.05c0.02,1.34,0.01,2.68-0.12,4.02c-0.12,1.24-0.64,2.7-1.27,5.21c-1.15,4.62-1.15,5.44-1.57,8.35
								c-0.33,2.33-1.54,10.21-0.16,11.35c2.09,1.74,3.89-0.64,5.06-2.48c0.99-1.57,1.27-3.59,1.53-5.54
								c0.28-2.09,0.55-4.05,1.69-4.79c0.08-0.05,0.15-0.07,0.28-0.02c1.58,0.59,1.02,2.13,1.58,6.37
								c-0.03,0.15-0.05,0.35-0.06,0.59l0,0c-0.04,0.07-3.77,7.19-6.03,10.64c-1.99,3.03-0.28,6.6,0.55,7.99
								c0.37,2.29,1.67,4.14,1.76,4.26l0.39,0.54l1.48-1.69c0.24,3.66,3.01,4.45,3.04,4.46l0.47,0.12l0.17-0.45
								c0.2-0.52,4.82-12.69,5.36-15.19c0.59-2.73,0.8-16.86,0.27-31.67c-0.34-9.71,2.62-17.94,3.5-25.2
								c0.5-4.07,0.96-7.92,1.22-12.1C284.24,265.85,281.15,260.27,280.56,259.31z M275.13,202.18c1.32,7.69,1.08,24.23-0.83,31.17
								c-0.4-0.63-0.71-1.07-0.86-1.28c-0.09-1.6-0.78-13.75-1.96-19.48c-1.11-5.41-3.1-10.6-3.51-11.64
								c0.28-0.81,1.35-4.08,2.14-8.26C270.9,193.63,274.59,198.98,275.13,202.18z M220.23,261.08c0.01-1.23,0.08-2.45,0.19-3.67
								c0.28,0.08,0.61,0.08,1.01-0.03c2.66-0.73,5.01-5.22,6.12-7.38c1.27-2.47,2.24-5,2.85-7.63c-0.02,4.35,0.05,10.09,0.14,15.35
								c-1.76,3-4.15,5.7-7.14,7.53c-0.45,0.29-1.08,0.57-1.61,0.64c-1.06,0.14-1.59-1.23-1.48-2.1
								C220.26,262.89,220.22,261.98,220.23,261.08z M230.49,237.08c-0.25,6.06-2.43,11.89-6.1,16.72
								c-0.92,1.21-1.99,2.71-3.75,1.92c-0.93-0.42-0.86-1.48-0.73-2.32c0.19-1.3,0.32-2.62,0.56-3.92c0.12-0.65,0.29-1.29,0.5-1.92
								c0.03-0.09,0.17-0.55,0.32-0.97c0.53,0.15,1.26-0.06,2.28-0.79c3.02-2.16,4.67-5.57,5.51-9.25c0.62-0.54,1.21-1.11,1.77-1.72
								c-0.08,0.31-0.15,0.6-0.2,0.86C230.59,235.95,230.49,237.03,230.49,237.08z M226.04,242.43c-0.51,0.71-1.02,1.37-1.67,1.95
								c-0.77,0.68-1.73,1.83-2.87,1.22c-1.04-0.56-0.7-2.34-0.61-3.28c0.16-1.65,0.38-3.29,0.56-4.94c2.75-2.46,5-5.62,6.56-9.1
								c0.4-0.11,0.8-0.24,1.18-0.38C229.3,232.47,228.81,238.6,226.04,242.43z M225.55,231.62c-1.13,1.69-4.05,7.05-4.71,2.76
								c-0.42-2.74-1.59-6.86,0.56-9.26c0.72-0.14,1.25-1.02,1.75-1.48c0.58-0.52,1.15-1.06,1.7-1.61c0.2-0.2,0.39-0.41,0.59-0.62
								c1.44-0.13,2.82-0.42,4.14-0.87C229.1,224.54,227.71,228.39,225.55,231.62z M220.53,223.01c-0.47-1.24-1.01-2.49-1-3.85
								c0.03-3.63,2.92-6.47,6.13-8.07c1.85,0.65,3.78,1.1,5.75,1.33c-1.42,2.51-3.05,4.9-5,7.06c-0.71,0.79-1.58,1.46-2.37,2.17
								c-0.5,0.46-1,0.91-1.48,1.39c-0.32,0.32-0.81,0.83-1.29,0.9C220.7,224.02,220.71,223.47,220.53,223.01z M226.15,220.68
								c0.63-0.68,1.25-1.38,1.84-2.1c1.55-1.91,2.93-3.95,4.14-6.08c0.9,0.08,1.84,0.14,2.77,0.14c0.23,1.15,0.34,2.51,0.37,3.9
								l-0.02,0.01C232.65,218.84,229.56,220.23,226.15,220.68z M223.34,209.42c0.23-0.01,0.45-0.01,0.69-0.02
								c2.88-0.14,5.83-1.69,8.47-3.68c1.03,2.02,1.76,4.11,2.25,6.27l0,0C230.72,211.98,226.88,211.1,223.34,209.42z
								 M227.44,207.75c-6.76,2.9-19.05-0.21-24.46-5.61c-4.18-4.18-4.91-10.88-5.48-16.52c-0.37-3.73-1.89-11.16,0.31-14.57
								c4.33-6.71,9.7-7.59,17.42-8.03c15.49-0.87,16.57,3.96,21.82,9.01c1.77,1.7,2.88,3.51,4.13,5.29
								c3.83,5.46,4.83,10.57,4.39,11.1C241.3,195.4,235.19,204.42,227.44,207.75z M207.28,148.42c0.79-2,1.47-3.7,1.92-4.78
								c0.72-1.74,1.33-4.13,1.81-6.54c5.66,5.08,6.73,15.18,13.69,18.78c1.14,0.59,2.31,0.98,3.48,1.2
								c-1.75,0.76-3.79,1.57-5.98,2.28C215.23,159.16,209.52,154.96,207.28,148.42z M220.49,159.89c-6.1,1.75-12.91,2.43-17.28-1.1
								c1.21-3.1,2.55-6.53,3.71-9.46C209.21,155.21,214.27,159.12,220.49,159.89z M208.71,143.44c-1.84,4.45-7.59,19.27-9.07,23.1
								c-0.39-2.54-1.26-9.59,0.15-14.39c0.71-2.4,1.7-4.8,2.84-7.58c1.67-4.07,3.75-9.12,5.85-16.41c1.37-1.18,2.59-2.31,3.38-3.2
								c0.03,0.59,0.09,1.34,0.18,2.16C211.69,130.36,210.32,139.55,208.71,143.44z M246.19,188.64l0.02-0.03
								c3.86,7.41,10.27,12.74,18.2,15.18c7.17,15.23,4.69,34.62-1.23,50.3c-3.04-3.05-6.03-6.74-8.24-10.34
								c-2.84-4.63-4.57-9.89-6.41-14.99c-3.75-10.37-6.84-21.06-7.44-32.04C242.92,194.13,244.5,191.4,246.19,188.64z
								 M263.94,254.07c6.19-14.43,8.58-34.94,1.44-50.34c0.55-0.74,1.11-1.49,1.66-2.23c0.5,1.29,2.35,6.2,3.4,11.31
								c1.06,5.14,1.72,15.85,1.88,18.72c0,0.46,0.03,0.8,0.06,1.05c0.56,8.25-4.06,14.55-8.17,21.59c-0.12,0.21-0.24,0.4-0.35,0.6
								c-0.05-0.04-0.09-0.09-0.14-0.14C263.8,254.48,263.87,254.23,263.94,254.07z M254.64,158.03c0.74,0.48,1.62,0.89,2.53,1.31
								c2.57,1.18,5.48,2.53,6.89,6.09c2.31,5.87,6.18,19.75,5.3,25.33c-0.74,4.73-1.99,8.63-2.36,9.72
								c-2.06,2.61-3.34,2.81-6.67,1.13c-2.29-1.15-4.52-2.46-6.45-4.19c-3.27-2.92-5.83-6.3-7.72-10.3
								c-0.01-0.02-0.02-0.03-0.04-0.05c-0.67-5.46-5.34-12.9-10.79-18.12c-0.24-0.53-0.45-1.07-0.61-1.62
								c-1.77-6.06,3.21-7.27,7.96-6.97C246.21,160.57,252.71,162.03,254.64,158.03z M248.9,154.24c1.48,0.48,3.02,0.97,4.59,2.8
								c0.18,0.22,0.4,0.41,0.63,0.6c-2.65,6.24-15.32-1.14-19.66,4.39c-1.28,1.63-1.23,3.63-0.51,5.66
								c-3.39-2.94-7.1-5.33-10.15-5.42c-15.43-0.46-20.57,1.49-23.8,4.79c0.47-1.21,1.61-4.17,2.96-7.63
								c6.95,5.37,19.42,0.97,26.4-2.16c6.13,0.64,12.56-2.61,18.61-3.33C248.28,154.04,248.58,154.14,248.9,154.24z M213.95,133.65
								c1.78,2.2,8.27,5.31,14.54,8.31c3.57,1.71,6.94,3.32,9.31,4.7c4.29,2.49,6.28,4.3,7.61,5.5c0.56,0.51,1.01,0.91,1.48,1.22
								c-8.97,1.37-19.8,7.54-26.13-2.35c-3.1-4.85-5.21-10.79-9.59-14.71c0.55-2.88,0.94-5.69,1.14-7.33
								C212.62,130.82,213.13,132.63,213.95,133.65z M177.66,115.55c-0.01,0.03-0.38,0.69-1.06,0.6c-1.04-0.13-2.69-3.1-3.67-4.88
								c-0.49-0.89-0.92-1.66-1.29-2.19c-1.06-1.52-1.03-5.29,0.07-8.78c0.18-0.55,0.41-0.86,0.71-0.92
								c0.76-0.14,2.09,1.07,2.81,1.98l1.08,1.36l-0.13-1.73c-0.01-0.15-1.1-15.52,4.32-22.02c4.02-4.83,12.69-5.86,15.11-6.06
								c2.42,0.2,11.09,1.23,15.11,6.06c5.42,6.5,4.33,21.87,4.32,22.02l-0.13,1.73l1.08-1.36c0.72-0.9,2.05-2.12,2.81-1.98
								c0.29,0.05,0.53,0.36,0.71,0.92c1.1,3.49,1.13,7.26,0.07,8.78c-0.37,0.52-0.79,1.29-1.29,2.19
								c-0.98,1.78-2.63,4.75-3.68,4.88c-0.68,0.09-1.05-0.57-1.06-0.6l-1.17-2.24l0.16,2.52c0,0.05,0.33,5.39-0.83,7.53
								c-1.18,2.19-10.69,9.58-12.51,10.24c-1.03,0.37-2.5,0.51-3.61,0.56c-1.11-0.05-2.58-0.19-3.6-0.56
								c-1.83-0.67-11.34-8.06-12.52-10.24c-1.16-2.15-0.83-7.48-0.83-7.53l0.16-2.52L177.66,115.55z M169.44,266.14
								c-0.53-0.07-1.16-0.35-1.61-0.64c-2.77-1.69-5.01-4.12-6.73-6.85c0.08-4.8,0.15-10.09,0.16-14.4
								c0.6,2.05,1.41,4.05,2.42,6.01c1.11,2.16,3.46,6.65,6.12,7.38c0.4,0.11,0.74,0.11,1.01,0.03c0.11,1.22,0.18,2.44,0.19,3.67
								c0.01,0.9-0.04,1.8-0.08,2.71C171.03,264.91,170.5,266.28,169.44,266.14z M170.6,255.97c-1.76,0.79-2.82-0.71-3.75-1.92
								c-2.81-3.69-4.73-7.96-5.6-12.46c-0.02-2.86-0.09-4.99-0.24-5.75c-0.01-0.04-0.02-0.09-0.03-0.14
								c0.38,0.38,0.77,0.75,1.18,1.1c0.84,3.68,2.49,7.09,5.51,9.25c1.01,0.72,1.75,0.94,2.28,0.79c0.15,0.42,0.29,0.88,0.32,0.97
								c0.21,0.63,0.37,1.27,0.5,1.92c0.24,1.3,0.37,2.61,0.56,3.92C171.46,254.49,171.53,255.55,170.6,255.97z M169.74,245.85
								c-1.15,0.62-2.1-0.54-2.87-1.22c-0.66-0.58-1.16-1.25-1.68-1.95c-2.77-3.83-3.26-9.96-3.15-14.53
								c0.39,0.14,0.78,0.27,1.19,0.38c1.56,3.48,3.81,6.65,6.56,9.1c0.18,1.65,0.4,3.29,0.56,4.94
								C170.44,243.51,170.78,245.29,169.74,245.85z M170.4,234.63c-0.65,4.29-3.58-1.07-4.71-2.76c-2.18-3.26-3.57-7.3-4.05-11.33
								c1.24,0.42,2.54,0.7,3.88,0.84c0.29,0.3,0.56,0.61,0.86,0.9c0.55,0.55,1.12,1.09,1.7,1.61c0.51,0.45,1.03,1.33,1.75,1.48
								C171.99,227.77,170.81,231.89,170.4,234.63z M156.41,212.88c0.91,0,1.82-0.05,2.7-0.13c1.21,2.13,2.59,4.17,4.14,6.08
								c0.5,0.62,1.02,1.22,1.56,1.81c-3.3-0.48-6.3-1.86-8.82-4.1l-0.01-0.01C156.03,215.2,156.19,213.99,156.41,212.88z
								 M169.96,224.19c-0.48-0.06-0.97-0.58-1.29-0.9c-0.48-0.48-0.98-0.94-1.48-1.39c-0.79-0.71-1.65-1.38-2.37-2.17
								c-1.94-2.15-3.57-4.55-4.99-7.05c1.98-0.23,3.91-0.67,5.78-1.32c3.2,1.6,6.07,4.44,6.1,8.06c0.01,1.36-0.53,2.61-1,3.85
								C170.52,223.72,170.53,224.27,169.96,224.19z M156.55,212.24C156.55,212.24,156.55,212.24,156.55,212.24
								c0.51-2.28,1.33-4.51,2.48-6.66c2.6,1.9,5.47,3.35,8.24,3.49c0.61,0.03,1.22,0.05,1.81,0.06
								C165.22,211.17,161,212.23,156.55,212.24z M163.85,207.41c-7.74-3.33-14.61-13.1-18.13-19.33c0.27-3.14,1.94-6.88,4.44-10.53
								c2.88-4.19,6.28-8.19,8.5-9.98c6.04-4.87,11.37-4.66,16.49-4.5c7.72,0.25,14.58,1.58,18.33,7.63
								c2.14,3.45,0.69,10.84,0.31,14.57c-0.57,5.64-1.29,12.34-5.48,16.52C182.9,207.21,170.95,210.47,163.85,207.41z
								 M126.76,204.17c8.11-2.45,14.65-7.95,18.51-15.57c1.72,2.83,3.26,5.59,5.14,8.21c-0.59,11.02-3.69,21.74-7.45,32.15
								c-1.84,5.09-3.57,10.36-6.41,14.99c-2.41,3.93-5.02,7.46-8.36,10.66C122.29,238.97,119.68,219.4,126.76,204.17z
								 M127.23,253.87c-4.04-6.86-8.78-13.41-8.19-21.64c0.18-3.02,0.92-14.32,1.97-19.42c0.98-4.74,2.63-9.31,3.27-10.98
								c0.58,0.77,1.15,1.55,1.73,2.32c0.01,0.02,0.03,0.03,0.04,0.04C119.15,219.3,121.48,238.31,127.23,253.87z M191.64,166.49
								c-1.49-3.83-7.23-18.65-9.07-23.1c-2.06-4.98-3.19-15.46-3.23-15.89c0.1-0.89,0.17-1.71,0.2-2.37
								c0.81,0.88,1.98,1.96,3.29,3.09c2.1,7.23,4.16,12.25,5.83,16.3c1.14,2.78,2.13,5.18,2.84,7.58
								C192.9,156.9,192.03,163.95,191.64,166.49z M184.42,149.46c1.16,2.95,2.51,6.39,3.71,9.48c-2.92,2.91-11.09,2.84-17.51,1.16
								C176.96,159.39,182.12,155.44,184.42,149.46z M168.98,159.57l-0.05,0.02c-2.14-0.7-4.15-1.5-5.88-2.25
								c1.18-0.23,2.34-0.61,3.48-1.2c6.99-3.61,8.03-13.8,13.77-18.86c0.48,2.33,1.07,4.63,1.77,6.32
								c0.46,1.11,1.16,2.87,1.99,4.95C181.82,155.17,176.04,159.41,168.98,159.57z M146.04,152.16c1.32-1.2,3.32-3.02,7.61-5.5
								c2.37-1.38,5.74-2.99,9.31-4.7c6.27-3,12.75-6.11,14.54-8.31c0.75-0.93,1.24-2.52,1.55-4.15c0.22,1.72,0.6,4.35,1.12,7.01
								c-4.44,3.92-6.55,9.91-9.67,14.79c-6.37,9.96-17.3,3.64-26.31,2.32C144.78,153.29,145.33,152.8,146.04,152.16z
								 M137.96,157.03c1.57-1.83,3.1-2.32,4.59-2.8c0.05-0.01,0.09-0.03,0.13-0.04l0.45-0.02c6.08,0.69,12.56,3.98,18.73,3.34
								c7.02,3.15,19.84,6.98,26.52,2.07c1.18,3.02,2.19,5.64,2.72,7c-3.31-3.17-8.78-4.64-23.75-4.26
								c-3.04,0.08-6.58,2.19-9.95,5.24c0.6-1.91,0.57-3.76-0.63-5.29c-4.36-5.55-17.12,1.91-19.69-4.46
								C137.41,157.58,137.71,157.32,137.96,157.03z M127.38,165.42c1.4-3.56,4.32-4.9,6.89-6.09c0.81-0.37,1.59-0.74,2.28-1.15
								c1.87,4.13,8.45,2.65,12,2.43c4.75-0.3,9.73,0.92,7.96,6.97c-0.13,0.44-0.28,0.87-0.46,1.29
								c-5.67,5.67-10.51,13.71-10.94,18.65c-1.88,3.96-4.43,7.32-7.68,10.22c-1.93,1.73-4.16,3.04-6.45,4.19
								c-3.2,1.61-4.37,1.45-6.29-0.87l-0.15-0.28c-0.02-0.04-1.59-4.47-2.46-10.04C121.21,185.16,125.07,171.29,127.38,165.42z
								 M116.75,202.39c0.49-2.88,3.52-7.49,4.7-9.08c0.77,3.88,1.75,6.86,2.02,7.63c-0.41,1.04-2.4,6.23-3.51,11.64
								c-1.18,5.74-1.87,17.89-1.96,19.48c-0.11,0.16-0.32,0.45-0.58,0.85C115.67,225.64,115.48,209.85,116.75,202.39z
								 M108.92,276.67c-0.53-8.72,1.44-13.99,2.41-16c1.13,7.49,4.34,14.99,7.4,21.92c4.06,9.19,6.57,19.51,7.32,29.37
								c-0.08,2.03,0,3.49,0.2,4.77c-7.68-9.71-14.25-20.26-16.65-32.44C109.33,281.79,109.08,279.29,108.92,276.67z M123.25,356.7
								l-1.4-1.59c-0.32-3.77-1.98-9.7-2.25-10.62c0.03-0.22,0.08-0.79,0.14-1.55c1.09,2.03,2.69,4.9,4.04,6.96
								C125.4,352.36,123.97,355.44,123.25,356.7z M120.03,337.3c1.27,2.37,3.55,6.53,5.13,8.94c1.06,1.61,0.81,3.49,0.3,4.95
								c-0.14-0.63-0.39-1.26-0.79-1.87c-1.72-2.63-3.87-6.62-4.8-8.39C119.95,339.74,120.01,338.44,120.03,337.3z M127.28,321.31
								c0.98,4.15,1.59,6.28,1.59,8.27c0,5.13,1.61,10.77-0.23,10.77c-0.45,0-1.4-0.46-2.69-2.51c-0.87-1.37-1.13-3.28-1.37-5.12
								c-0.32-2.34-0.61-4.54-2.17-5.55c-0.38-0.24-0.8-0.28-1.23-0.12c-2.56,0.96-1.73,5.34-2.26,7.2l-0.04,0.13l0.03,0.14
								c0.68,2.9-0.35,9.85-0.36,9.92l-0.02,0.12l0.03,0.11c0.02,0.08,2.29,7.97,2.29,11.59c0,2.38-1.17,3.37-1.83,3.74
								c-0.91-2.4-4.66-12.38-5.11-14.52c-0.47-2.2-0.79-16.06-0.25-31.41c0.34-9.49-2.43-17.54-3.41-24.67
								c3.14,10.53,9.26,19.83,16.2,28.51l0.04,0.06C126.69,319.08,126.97,319.99,127.28,321.31z M129.78,293.81
								c-0.34,1.45-0.2,0.85-0.59,2.44c-1.36,3.84-2.33,7.3-2.64,9.78c-0.05,0.44-0.1,0.85-0.15,1.26
								c-0.81-5.91-2.34-12.75-4.3-18.21c-3.48-9.69-8.88-19.11-10.18-29.43c0,0,0.01-0.01,0.01-0.01l0.01-0.01v-8.87
								c0-6.9,4.64-14.61,6.37-17.24c0,0,0-0.01,0-0.01c-0.07,9.4,6.59,16.86,10.76,25.06c5.08,9.99,3.24,23.79,0.86,34.51
								C129.84,293.51,129.84,293.49,129.78,293.81z M138.18,268.57c-0.19,4.48-3.19,12.41-6.09,20.09
								c-0.14,0.38-0.48,1.04-0.84,1.74c1.76-8.32,2.67-16.7,0.86-25.23c-0.18-0.84-0.41-1.67-0.68-2.48
								c1.73-2.05,3.67-3.89,5.82-5.5C137.57,258.18,138.47,261.66,138.18,268.57z M145.2,226c-3.04,4.84-4.8,14.88-4.88,15.41
								c0,0.06,0.17,6.03-0.35,9.33c-0.5,3.17-2.69,5.56-2.71,5.59l-0.22,0.24c0,0,0,0,0,0c-2.15,1.6-4.1,3.42-5.84,5.43
								c-0.05-0.13-0.09-0.24-0.11-0.35c-0.79-2.15-1.83-4.21-2.97-6.23c3.2-3.02,6.13-6.38,9-11.15c2.81-4.66,3.84-8.28,5.76-13.28
								c4.13-10.78,7.45-21.91,8.13-33.38c0.11,0.15,0.22,0.3,0.34,0.45c0.28,2.87,0.74,7.42,1.31,11.81
								c0.01,0.05,0.01,0.1,0.02,0.15C151.55,213.26,147.8,221.86,145.2,226z M152.56,199.54c1.54,1.78,3.62,3.87,5.94,5.64
								c-2.46,4.57-3.5,9.52-3.14,14.44C154.24,215.22,153.15,205.36,152.56,199.54z M156.85,223.98c-0.65-2.51-0.89-4.71-0.88-6.65
								c1.52,1.28,3.2,2.26,4.99,2.95c0.29,2.56,0.96,5.1,1.96,7.51C160.59,227.06,158.52,225.76,156.85,223.98z M158.73,229.42
								c-0.03-0.08-0.08-0.21-0.15-0.36c-0.57-1.36-1.02-2.64-1.39-3.85c1.25,1.14,2.68,2.05,4.23,2.7
								c-0.01,0.02-0.02,0.05-0.02,0.07c-0.07,2.44,0.05,5.12,0.53,7.72c-0.47-0.44-0.92-0.9-1.34-1.38
								C160.15,233,159.46,231.34,158.73,229.42z M155.71,277.25c-0.52-4.23,2.31-8.7,4.01-11.37c0.31-0.48,0.55-0.87,0.74-1.2
								c6.74,3.02,14.83,8.33,13.02,17.3c-0.51,2.5-2.69,5.17-4.24,7.05c-2.16,2.63-4.18,1.42-6.43-0.37
								c-1.96-1.55-3.89-3.14-5.81-4.73C156.65,282.84,156.15,280.78,155.71,277.25z M150.25,327.65
								c1.78-7.08,3.19-12.67,2.95-16.37c-0.47-7.28,1.67-16.66,3.08-21.89c4.18,4.57,3.67,11.86,2.8,17.87
								c-1.04,7.16-2.2,17.4-9.01,21.11C150.13,328.13,150.19,327.88,150.25,327.65z M142.77,370.14
								c0.61-8.33,2.63-19.95,4.58-29.54c-0.64,7.47-0.44,14.02,1.25,22.88c1.69,8.85,7.08,20.99,9.11,32.14
								c0.76,4.19,1.47,14.91-0.58,20.85c-1.36,3.93-5.37,7.14-8.79,6.22C146.82,410.87,141.37,389.12,142.77,370.14z
								 M144.34,490.27c-1.61-11.16-3.13-21.7-3.05-26.39c0.14-8.21,5.07-20.62,6.8-24.72c0.97,3.08,2.97,7.12,4.69,10.33
								c-0.07,12.89-0.15,25.78-0.22,38.67c-0.06,11.32,1.74,25.11-4.89,34.99c0.08-1.75,0.11-3.43,0.05-4.58
								C147.5,512.17,145.89,501.07,144.34,490.27z M163.14,524.9c0.07,0.38,0.15,0.75,0.22,1.11c-3.86-4.36-3.91-10.99-3.93-16.94
								c0-0.87-0.01-1.71-0.02-2.54c-0.14-7.7-0.21-14.76,0.24-21.81c0.8,3.52,2.95,8.72,8.67,11.26
								C165.98,504.74,162.4,520.98,163.14,524.9z M178.27,470.69c-1.79,5.93-4.03,10.64-5.84,14.43c-1.09,2.28-2.03,4.25-2.69,6.07
								c-0.28,0.78-0.67,2.07-1.12,3.69c-5.79-2.66-8.02-8.55-8.84-11.87c0.05-0.62,0.09-1.23,0.15-1.85
								c0.14-1.57,0.24-3.18,0.34-4.89c0.26-4.48,0.39-9.05,1.78-13.36c1.05-3.25,2.7-6.3,4.63-9.11c1.94-2.83,4.37-5.27,6.39-8.04
								c1.18-1.62,2.28-3.29,3.31-5.02C177.39,445.68,180.64,462.81,178.27,470.69z M182.72,423.24c-0.82,4.47-2.88,8.8-4.95,12.81
								c-1.22,2.35-2.43,5.09-4.15,7.11c-4.74,5.57-9.87,10.95-12.18,18.06c-1.58,4.89-1.95,9.91-2.25,15.01
								c-0.1,1.7-0.19,3.3-0.33,4.85c-0.77,8.31-0.69,16.46-0.52,25.49c0.02,0.82,0.02,1.66,0.02,2.52
								c0.03,6.72,0.06,14.3,5.44,18.89c0.15,0.6,0.29,1.17,0.44,1.69c0.59,2.99,1.53,9.63,1.87,11.13
								c0.41,1.79,0.35,3.01-1.09,5.13c-1.23,1.81-3.07,3.23-4.65,4.13c1.21-1.95,3.3-5.32,3.3-5.32c-1.58,1.67-4.79,6.06-4.86,6.16
								h0c-0.59,0.74-3.36,5.35-3.95,9.55c-0.57,4.1-2.73,8.63-6.66,9.85l-0.04,0.02c-0.87,0.38-2.49,1.08-3.5,3.59
								c-0.89,2.21-3.31,3.86-5.24,4.36c-2.02,0.52-4.63-0.48-5.58-2.13l-0.03-0.05c-0.15-0.79-0.02-1.09,0.3-1.39
								c0.09-0.08,0.24-0.22,0.44-0.39c1.3-1.15,2.71-2.45,3.1-3.2c0.35-0.69,3.09-5.15,5.22-6.89c0,0-3.42,1.78-6.01,6.49
								c-0.36,0.65-2.13,2.25-2.89,2.93c-0.21,0.18-0.37,0.33-0.46,0.41c-0.56,0.53-0.73,1.13-0.58,2.08
								c-0.39,0.19-0.63,0.25-1.33-0.08c-0.6-0.28-0.77-1.06-0.81-1.63l0,0c0-0.03,0.28-3.61,6.65-11.71c0,0-2.09,1.65-3.9,4.35
								c-2.35,3.51-3.21,5.39-3.51,6.4c-0.42,0.04-0.99,0.02-1.2-0.14c-0.43-0.32-0.93-1.07-0.73-1.64c0.07-0.22,0.13-0.4,0.18-0.54
								l0,0c0.75-2.59,3.46-8.54,5.75-11.16c0,0-1.34,0.92-2.99,3.51c-1.66,2.6-2.59,4.27-3.31,6.44c-0.35-0.04-0.56-0.16-0.83-0.39
								c-0.13-0.12-0.31-0.85-0.29-1.86c0.01-0.28,0.05-0.61,0.1-0.95c0.06-0.43,0.12-0.87,0.11-1.28c0-0.11-0.01-0.22-0.03-0.32
								c0.36-1.49,1.42-4.16,4.21-7.45c0,0-1.33,1.12-2.44,2.64c-1,1.36-1.76,2.43-2.24,3.5c-0.05-0.15-0.09-0.32-0.12-0.52
								c-0.02-0.17-0.06-0.36-0.09-0.57c-0.17-0.97-0.4-2.31,0.23-2.99c0,0,2.39-3.56,3.31-4.14c1.36-0.85,10.66-8.49,11.81-11.18
								c0.28-0.66,0.53-1.36,0.77-2.05c0.71-2.02,1.45-4.12,3.18-5.6c2.48-2.12,4.26-7.44,4.26-7.44c-0.01,0.02-1.65,3.13-3.51,5.38
								c0.09-1.64,0.47-2.83,0.91-4.16c0.14-0.44,0.41-3.28,0.57-6.24c6.44-9.05,5.51-21.41,5.57-31.96
								c0.08-13.91,0.16-27.81,0.24-41.72c1.28,2.34,2.29,4.03,2.38,4.18c0,0-6.88-13.59-7.22-18.38c-0.2-2.78,0-4.26,0.17-5.57
								c0.13-1.01,0.26-1.96,0.18-3.31c-0.03-0.49-0.21-1.92-0.48-4.07c2.53,0.55,5.33-0.92,7.52-3.6
								c4.05-4.96,3.84-13.89,3.06-20.77c0.95,0.32,2.01,0.28,2.92-0.18c-0.05,1.75,0.05,3.52,0.33,5.31
								c0.9,5.55,3.29,11.64,8.13,14.96c3.86,2.65,8.74,4.07,12.7,1.47C182.99,421.66,182.86,422.52,182.72,423.24z M184.67,404.41
								c-0.49,5.85-0.96,11.46-1.45,15.44c-6.49,5.08-14.52-1.86-17.75-7.55c-3.5-6.16-3.16-13.56-1.65-20.21
								c2.77-12.21,10.65-22.52,14.12-34.52c2.15,5.04,4.03,10.16,5.05,15.6c1.39,7.35,2.04,14.79,2.45,22.23
								C185.18,398.45,184.92,401.51,184.67,404.41z M186.81,382.47c-0.36,2.79-0.69,5.87-1,9.05c-0.88-11.92-2.69-23.67-7.56-34.88
								c-8.07-18.57-15.89-36.66-16.29-57.27c-0.02-1.32,0.07-2.54,0.33-3.85c1.12-5.63,5.33,2.65,5.45,2.87
								c1.26,2.4,2.63,4.11,2.95,6.93c0.15,1.33,0.28,2.58,0.56,3.89c1.96,9.15,3.65,18.04,6.94,26.85
								c1.51,4.04,3.52,7.87,4.99,11.92c1.65,4.56,2.36,9.57,3.13,14.34c0.77,4.78,1.21,9.6,1.36,14.43
								C187.35,378.69,187.05,380.6,186.81,382.47z M194.2,346.11c-0.32,2.55-1.33,6.84-2.49,11.81c-1.15,4.91-2.49,10.62-3.56,16.3
								c-0.22-4.02-0.62-8.03-1.2-12.06c-0.79-5.42-1.88-10.88-3.74-16.04c-1.9-5.24-4.46-10.22-6.25-15.53
								c-3.11-9.23-3.99-18.71-6.08-28.12c-0.65-2.93-3.23-6.17-4.86-8.63c-0.48-0.72-1.93-1.33-2.73-0.76
								c-4.07,2.9-1.68,12.77-1.23,16.59c1.26,10.82,4.68,21.3,8.67,31.38c2.09,5.27,4.58,10.38,6.83,15.58
								c-3.77,13.66-14.78,27.05-15.57,41.53c-0.92,0.63-2.07,0.7-3.03,0.28c-0.11-0.9-0.23-1.75-0.34-2.56
								c-1.67-11.49-7.39-24.98-9.33-33.98c-1.82-8.49-1.8-17.51-0.86-26.31c0.52-2.4,1.02-4.57,1.46-6.39
								c7.72-3.66,8.56-14.07,9.83-21.76c1.04-6.33,1.36-14.06-3.22-18.76c0.55-1.97,0.94-3.19,0.95-3.23l0.07-0.22l-0.01-0.01
								c2.81,2.35,5.62,4.74,8.66,6.75c0.14,0.09,0.28,0.15,0.42,0.19c2.16,3.1,4.17,7.08,6.61,11.96
								c2.08,4.16,4.44,8.87,7.41,14.02c0.84,1.46,1.54,3.09,2.27,4.81c2.1,4.94,4.47,10.48,10.96,11.38
								C194.14,336.19,194.83,341.21,194.2,346.11z M196.03,333.36c-0.04,0-0.33,0-0.33,0c-7.24-0.01-9.49-5.28-11.86-10.86
								c-0.71-1.68-1.45-3.41-2.33-4.93c-2.96-5.12-5.31-9.82-7.38-13.97c-2.34-4.68-4.29-8.55-6.37-11.65
								c2.32-1.12,4.96-6.3,5.67-7.52c2.63-4.55,0.64-10.02-2.37-13.93c-2.26-2.93-6.63-5.38-10.07-6.93
								c0.03-0.1,0.04-0.2,0.04-0.28c0-0.2,0.01-0.99,0.04-2.19c0.01-0.45,0.02-0.91,0.02-1.37c0.99,1.45,2.12,2.78,3.43,4.01
								c1.23,1.15,3.76,3.56,5.5,3.59c1.39,0.02,1.38-1.32,1.48-2.42c0.24-2.55,0.18-5.11-0.06-7.65c0.54-0.59,0.67-1.67,0.66-2.56
								c-0.02-3.13-0.56-5.67-1.63-8.2c1.3-1.37,0.42-6.34,0.01-8.89c0-0.01,0.01-0.01,0.01-0.01c0.71-3.54,2.48-9.16,0.06-12.37
								c0.43-0.3,0.56-1,0.76-1.48c0.67-1.59,1.31-3.73,1.04-5.47c-0.49-3.16-3.08-5.7-5.94-7.25c1.38-0.53,2.72-1.17,4.02-1.94
								c8.23-0.15,14.14-2.66,19.21-7.73c3.86-3.86,4.21-11.02,4.79-16.1c0.51-4.44,1.81-11.47-0.8-15.52
								c-0.52-0.8-1.04-1.54-1.61-2.22c0.07-0.4,1.77-9.56-0.01-15.59c-0.71-2.43-1.71-4.84-2.86-7.64
								c-1.6-3.89-3.57-8.68-5.58-15.48c3.19,2.66,6.89,5.33,8.08,5.76c0.95,0.35,2.19,0.51,3.26,0.59h1.42
								c1.07-0.08,2.31-0.24,3.26-0.59c1.21-0.44,4.95-3.15,8.16-5.82c-2.02,6.85-4,11.67-5.61,15.58c-1.15,2.79-2.14,5.2-2.86,7.64
								c-1.78,6.04-0.08,15.21-0.01,15.59c0,0-1.06,1.68-1.59,2.5c-2.61,4.05-1.31,11.08-0.8,15.52c0.58,5.08,0.93,12.24,4.79,16.1
								c5.29,5.3,11.5,7.8,20.3,7.74c0.95,0.5,1.92,0.94,2.9,1.33c-2.87,1.55-5.47,4.1-5.97,7.27c-0.27,1.74,0.37,3.87,1.04,5.47
								c0.2,0.48,0.34,1.18,0.76,1.48c-2.42,3.22-0.66,8.83,0.06,12.37c0,0.01,0.01,0.01,0.01,0.02c-0.41,2.55-1.29,7.52,0.01,8.89
								c-1.07,2.53-1.61,5.07-1.63,8.21c-0.01,0.89,0.12,1.96,0.66,2.56c-0.24,2.54-0.3,5.1-0.06,7.65c0.1,1.09,0.1,2.44,1.48,2.42
								c1.74-0.03,4.28-2.44,5.5-3.59c1.49-1.4,2.75-2.94,3.84-4.64c0.01,0.71,0.02,1.42,0.04,2.1c0.02,1.19,0.04,1.98,0.04,2.19
								c0,0.09,0.02,0.19,0.05,0.3c-3.47,1.54-7.92,3.92-10.23,6.92c-3.02,3.91-5.31,9.38-2.69,13.93c0.72,1.25,3.65,6.77,6.06,7.72
								c-2.07,3.08-4,6.93-6.33,11.58c-2.07,4.14-4.43,8.84-7.38,13.97c-0.88,1.52-1.61,3.25-2.33,4.93
								C205.42,328.06,203.18,333.3,196.03,333.36z M205.77,391.39c-0.3-3.13-0.63-6.17-0.98-8.92c-0.24-1.88-0.54-3.81-0.88-5.76
								c0.15-4.91,0.58-9.81,1.37-14.67c0.77-4.77,1.48-9.78,3.13-14.34c1.47-4.05,3.48-7.88,4.99-11.92
								c3.29-8.81,4.99-17.7,6.94-26.85c0.28-1.31,0.41-2.56,0.56-3.89c0.32-2.82,1.69-4.53,2.95-6.93
								c0.12-0.22,4.33-8.51,5.45-2.87c0.26,1.31,0.36,2.53,0.33,3.85c-0.39,20.61-8.22,38.7-16.29,57.27
								C208.46,367.6,206.65,379.41,205.77,391.39z M206.93,404.41c-0.25-2.94-0.51-6.03-0.79-9.12c0.41-7.51,1.06-15,2.46-22.42
								c1.02-5.39,2.88-10.49,5.01-15.49c3.48,11.98,11.39,22.52,14.16,34.71c1.51,6.65,1.85,14.05-1.65,20.21
								c-3.23,5.68-11.26,12.63-17.75,7.55C207.89,415.87,207.42,410.26,206.93,404.41z M221.86,491.19
								c-0.66-1.83-1.6-3.8-2.69-6.07c-1.8-3.78-4.05-8.49-5.84-14.43c-2.37-7.88,0.88-25.02,1.89-29.93
								c1.03,1.72,2.13,3.4,3.31,5.02c2.02,2.77,4.44,5.2,6.39,8.04c1.93,2.81,3.58,5.86,4.63,9.11c1.39,4.3,1.52,8.88,1.78,13.36
								c0.1,1.7,0.19,3.31,0.34,4.89c0.05,0.55,0.09,1.09,0.13,1.63c-0.54,2.26-1.76,5.86-4.4,8.76c-1.17,1.29-2.63,2.44-4.43,3.28
								C222.53,493.24,222.14,491.97,221.86,491.19z M223.27,495.95c2.09-0.94,3.71-2.24,4.95-3.68c2.2-2.55,3.23-5.55,3.72-7.79
								c0.48,7.13,0.4,14.27,0.26,22.07c-0.02,0.83-0.02,1.67-0.02,2.54c-0.02,5.95-0.07,12.57-3.93,16.94
								c0.08-0.36,0.15-0.73,0.22-1.11C229.2,520.97,225.61,504.68,223.27,495.95z M245.47,534.74c-1.86-2.24-3.5-5.36-3.51-5.38
								c0,0,1.78,5.32,4.26,7.44c1.74,1.48,2.47,3.58,3.18,5.6c0.24,0.68,0.49,1.39,0.77,2.05c1.15,2.69,10.45,10.33,11.81,11.18
								c0.92,0.58,3.31,4.14,3.31,4.14c0.63,0.68,0.4,2.02,0.23,2.99c-0.04,0.21-0.07,0.4-0.09,0.57c-0.03,0.19-0.07,0.35-0.11,0.51
								c-0.48-1.09-1.24-2.16-2.26-3.54c-1.11-1.52-2.44-2.64-2.44-2.64c2.82,3.33,3.87,6.03,4.22,7.5
								c-0.02,0.1-0.03,0.21-0.03,0.32c-0.01,0.41,0.05,0.85,0.11,1.28c0.05,0.34,0.09,0.67,0.1,0.95c0.02,1.02-0.16,1.75-0.29,1.86
								c-0.27,0.22-0.48,0.34-0.83,0.39c-0.73-2.2-1.66-3.88-3.33-6.5c-1.65-2.59-2.99-3.51-2.99-3.51
								c2.24,2.56,4.87,8.29,5.69,10.97c0.05,0.18,0.13,0.42,0.25,0.78c0.19,0.57-0.3,1.32-0.73,1.64c-0.18,0.13-0.62,0.17-1,0.15
								c-0.13-0.84-0.8-2.7-3.64-6.93c-1.81-2.7-3.9-4.35-3.9-4.35c5.37,6.83,6.42,10.45,6.61,11.43l-0.01,0.29
								c-0.01,0.48-0.03,1.75-0.84,2.13c-0.7,0.33-0.94,0.27-1.33,0.08c0.15-0.95-0.02-1.55-0.58-2.08
								c-0.09-0.09-0.25-0.23-0.46-0.41c-0.76-0.68-2.54-2.28-2.89-2.93c-2.59-4.7-6.01-6.49-6.01-6.49
								c2.13,1.74,4.87,6.2,5.22,6.89c0.38,0.75,1.8,2.04,3.1,3.2c0.2,0.18,0.35,0.31,0.44,0.39c0.32,0.3,0.44,0.59,0.3,1.39
								l-0.03,0.05c-0.96,1.65-3.57,2.65-5.58,2.13c-1.93-0.49-4.35-2.15-5.24-4.36c-1.01-2.51-2.63-3.22-3.5-3.59l-0.04-0.02
								c-3.93-1.22-6.08-5.75-6.66-9.85c-0.59-4.2-3.36-8.81-3.95-9.55l0,0c-0.07-0.1-3.28-4.49-4.86-6.16c0,0,2.09,3.37,3.3,5.32
								c-1.58-0.9-3.41-2.33-4.65-4.13c-1.44-2.12-1.5-3.34-1.09-5.13c0.34-1.49,1.28-8.14,1.87-11.13c0.15-0.52,0.29-1.1,0.44-1.69
								c5.38-4.59,5.41-12.16,5.44-18.89c0-0.86,0.01-1.7,0.02-2.52c0.17-9.03,0.24-17.18-0.52-25.49
								c-0.14-1.55-0.24-3.15-0.33-4.85c-0.3-5.09-0.67-10.12-2.25-15.01c-2.31-7.11-7.44-12.49-12.18-18.06
								c-1.73-2.03-2.94-4.76-4.15-7.11c-2.07-4-4.12-8.34-4.95-12.81c-0.13-0.72-0.26-1.58-0.39-2.55c3.96,2.6,8.84,1.18,12.7-1.47
								c4.84-3.32,7.6-9.36,8.13-14.96c0.18-1.93,0.21-3.79,0.12-5.61c0.92,0.47,2.03,0.55,3.02,0.28
								c-0.82,6.92-1.11,16.09,3.01,21.14c2.24,2.74,5.13,4.22,7.71,3.55c-0.26,2-0.42,3.33-0.45,3.81
								c-0.08,1.35,0.05,2.3,0.18,3.31c0.17,1.31,0.37,2.79,0.17,5.57c-0.34,4.79-7.22,18.38-7.22,18.38
								c0.09-0.15,1.07-1.78,2.33-4.07c0.08,13.92,0.16,27.84,0.24,41.76c0.06,10.55-0.87,22.91,5.57,31.96
								c0.16,2.97,0.42,5.81,0.57,6.24C245,531.91,245.38,533.09,245.47,534.74z M250.31,463.88c0.08,4.68-1.44,15.23-3.05,26.39
								c-1.56,10.79-3.16,21.9-3.37,28.3c-0.06,1.15-0.03,2.84,0.05,4.58c-6.64-9.88-4.83-23.66-4.89-34.99
								c-0.07-12.91-0.15-25.81-0.22-38.72c1.7-3.17,3.7-7.18,4.7-10.27C245.25,443.29,250.17,455.68,250.31,463.88z M248.89,369.99
								c1.4,19.02-4.08,40.84-5.59,52.64c-0.01,0.06-0.01,0.11-0.02,0.17c-3.46,1.1-7.6-2.16-8.98-6.16
								c-2.05-5.93-1.35-16.65-0.58-20.85c2.03-11.16,7.42-23.29,9.11-32.14c1.8-9.42,1.93-16.57,1.14-24.82
								C246.02,348.7,248.24,361.19,248.89,369.99z M242.69,332.93c1.24,9.68,1.49,19.73-0.53,29.13
								c-1.93,9.01-7.66,22.49-9.33,33.98c-0.1,0.72-0.21,1.49-0.31,2.29c-1.01,0.35-2.22,0.24-3.13-0.41
								c-1.11-15.76-11.59-27.72-15.37-41.5c2.26-5.23,4.77-10.38,6.87-15.67c3.99-10.08,7.41-20.57,8.67-31.38
								c0.44-3.82,2.84-13.69-1.23-16.59c-0.8-0.57-2.25,0.05-2.73,0.76c-1.63,2.46-4.21,5.71-4.86,8.63
								c-2.09,9.41-2.97,18.89-6.08,28.12c-1.79,5.31-4.36,10.28-6.25,15.53c-1.87,5.16-2.95,10.62-3.74,16.04
								c-0.6,4.1-1,8.2-1.22,12.29c-1.07-5.66-2.4-11.35-3.55-16.24c-1.17-4.97-2.17-9.26-2.49-11.81
								c-0.63-4.91,0.07-9.93,0.38-11.81c6.51-0.89,8.88-6.43,10.98-11.38c0.73-1.72,1.43-3.35,2.27-4.81
								c2.97-5.15,5.33-9.86,7.41-14.02c2.47-4.95,4.5-8.97,6.7-12.09c0.04-0.02,0.07-0.03,0.11-0.06c3.12-2.06,6-4.53,8.89-6.94
								l0.08,0.29c0.01,0.04,0.42,1.29,0.97,3.3c-4.66,4.69-4.34,12.48-3.29,18.84c1.27,7.73,2.11,18.19,9.93,21.81
								C242.1,330.35,242.39,331.6,242.69,332.93z M235.39,289.31c1.41,5.24,3.54,14.57,3.06,21.82c-0.24,3.7,1.17,9.29,2.95,16.37
								c0.07,0.3,0.15,0.61,0.23,0.93c-6.9-3.67-8.07-13.97-9.11-21.17C231.65,301.22,231.13,293.88,235.39,289.31z M231.94,265.73
								c1.69,2.67,4.53,7.14,4.01,11.37c-0.61,4.91-1.15,6.15-1.45,6.75c-1.95,1.61-3.91,3.22-5.9,4.8c-2.26,1.79-4.27,3-6.43,0.37
								c-1.55-1.88-3.73-4.56-4.24-7.05c-1.87-9.1,6.47-14.42,13.28-17.41C231.39,264.88,231.63,265.26,231.94,265.73z
								 M233.47,227.38c-0.82,2.15-1.61,4.23-2.16,5.9c-0.62,0.77-1.29,1.49-2.01,2.17c0.48-2.6,0.6-5.28,0.53-7.72
								c0-0.03-0.01-0.05-0.02-0.08c1.78-0.75,3.4-1.83,4.77-3.22C234.22,225.42,233.84,226.4,233.47,227.38z M234.86,223.2
								c-1.75,2.05-4,3.54-6.54,4.33c0.99-2.38,1.65-4.74,1.95-7.25c1.8-0.69,3.48-1.68,5.01-2.96
								C235.28,219.58,235.09,221.8,234.86,223.2z M236.09,220.32c-0.01,0.02-0.17,0.57-0.45,1.38c0.62-5.61-0.16-11.49-2.63-16.37
								c2.26-1.78,4.27-3.86,5.76-5.6c0.12-0.14,0.22-0.28,0.34-0.41C238.48,205.6,237.32,216.63,236.09,220.32z M251.39,250.49
								c-0.38-10.36-2.19-19.9-5.23-24.74c-2.55-4.05-6.08-12.01-7.25-15.32c0-0.01,0-0.03-0.01-0.07c0.61-4.64,1.13-9.61,1.43-12.6
								c0.06-0.07,0.11-0.15,0.17-0.22c0.71,11.41,4.02,22.53,8.13,33.26c1.92,5.01,2.94,8.62,5.76,13.28
								c2.71,4.5,6.23,8.21,9.23,11.11c-1.4,2.37-2.41,4.27-3.29,6.77c-1.75-2.01-4.16-4.34-6.26-5.91
								C253.74,255.73,251.5,253.48,251.39,250.49z M260.16,290.79c-0.29-0.78-0.59-1.57-0.89-2.37c-2.9-7.67-5.9-15.61-6.09-20.09
								c-0.29-6.86,0.6-10.35,0.92-11.36c2.14,1.6,4.27,3.61,6,5.65c-0.28,0.86-0.55,1.79-0.82,2.84
								c-2.15,8.54-0.68,17.37,0.9,25.37C260.17,290.83,260.16,290.81,260.16,290.79z M261.98,295.76
								c-2.9-11.84-5.3-25.72,0.38-36.88c4.22-8.3,10.97-15.88,10.72-25.45c1.68,2.55,6.42,10.35,6.42,17.32v8.01
								c-1.06,10.76-6.68,19.86-10.28,29.87c-2.13,5.94-3.56,11.97-4.29,18.13c-0.04-0.32-0.06-0.64-0.12-0.98
								C264.06,301.49,262.96,298.3,261.98,295.76z M265.98,351.2c-0.5-1.46-0.75-3.34,0.3-4.95c1.58-2.41,3.86-6.57,5.13-8.94
								c0.03,1.14,0.09,2.44,0.16,3.62c-0.93,1.77-3.08,5.76-4.8,8.39C266.36,349.93,266.11,350.56,265.98,351.2z M268.19,356.71
								c-0.72-1.26-2.15-4.34-0.54-6.8c1.35-2.06,2.95-4.93,4.04-6.96c0.06,0.76,0.11,1.33,0.14,1.55
								c-0.26,0.92-1.92,6.85-2.24,10.62L268.19,356.71z M281.31,288.72c-0.89,7.3-3.85,15.56-3.51,25.36
								c0.54,15.35,0.22,29.2-0.25,31.41c-0.46,2.14-4.21,12.12-5.11,14.52c-0.66-0.37-1.83-1.36-1.83-3.74
								c0-3.62,2.27-11.51,2.29-11.59l0.03-0.11l-0.02-0.12c-0.01-0.07-1.04-7.01-0.36-9.92l0.03-0.14l-0.04-0.13
								c-0.54-1.86,0.3-6.24-2.26-7.2c-0.43-0.16-0.85-0.12-1.23,0.12c-1.56,1-1.86,3.21-2.17,5.55c-0.25,1.84-0.5,3.74-1.37,5.12
								c-1.3,2.05-2.24,2.51-2.69,2.51c-1.84-0.01-0.23-5.64-0.23-10.77c0-1.99,0.61-4.12,1.59-8.27c0.35-1.5,0.68-2.66,0.91-3.92
								c7.09-8.91,13.31-18.48,16.31-29.35C281.36,288.27,281.33,288.49,281.31,288.72z M282.52,276.68
								c-0.1,1.64-0.36,3.44-0.52,5.02c-1.91,13.13-8.63,24.14-16.73,34.43c0.17-1.51,0.2-3.33-0.01-6.06
								c0.8-9.68,3.34-18.9,7.33-27.93c3.12-7.07,6.3-14.08,7.36-21.74C280.84,262.15,283.07,267.49,282.52,276.68z"/>
							<path d="M191.46,256.18c-3.85,1.17-7.68,2.39-11.51,3.62c-4.78,1.53-5.77-2.16-5.81-5.03c-0.04-2.73,1.46-5.26,3.22-7.3
								c2.95-3.41,8-4.48,12.38-4.74C194.91,242.43,196.47,254.49,191.46,256.18 M194.11,244.12c-2.8-4.65-11.86-0.96-15.27,1.24
								c-3.79,2.45-7.01,8.62-4.71,12.9c1.07,1.99,2.37,2.63,4.68,2.45c1.66-0.13,3.37-0.99,4.93-1.51
								c2.61-0.88,5.28-1.61,7.92-2.41c1.47-0.5,3.32-1.22,3.46-2.98C195.3,251.31,195.48,246.4,194.11,244.12"/>
							<path d="M199.77,256.24c-5.01-1.69-3.45-13.75,1.72-13.44c4.38,0.26,9.43,1.33,12.38,4.74c1.76,2.03,3.25,4.56,3.22,7.3
								c-0.04,2.86-1.03,6.56-5.81,5.03C207.45,258.63,203.62,257.41,199.77,256.24 M197.13,244.19c-1.37,2.27-1.19,7.19-1,9.7
								c0.14,1.76,1.99,2.48,3.46,2.98c2.64,0.8,5.31,1.53,7.92,2.41c1.56,0.52,3.26,1.38,4.93,1.51c2.31,0.18,3.61-0.46,4.68-2.45
								c2.3-4.28-0.92-10.45-4.71-12.9C208.99,243.23,199.93,239.53,197.13,244.19"/>
						</g>
					</g>
					<path d="M192.92,289.64c-0.12,4.09-0.24,8.18-0.36,12.27c-0.2,6.6-7.82-0.14-9.5-2.05c-4.72-6.97-5.99-16.13-7.56-24.24
						c-1.29-6.68,0.88-12.09,7.72-14.16c4.8-1.45,9.96-1.59,10.34,4.67C194.02,273.86,193.15,281.88,192.92,289.64 M193.41,261.43
						c-4.37-4.93-15.15,0.34-17.69,4.51c-2.76,4.53-0.58,11.36,0.39,15.89c1.35,6.36,2.71,12.92,6.41,18.37l0.03,0.03l0.02,0.04
						c2.33,2.68,5.67,4.96,9.24,5.56c2.4,0.41,1.47-7.14,1.5-8.02c0.22-7.5,0.9-15,1.07-22.49
						C194.43,273.53,195.91,264.25,193.41,261.43z"/>
					<path d="M197.67,266.12c0.37-6.26,5.53-6.12,10.34-4.67c6.84,2.07,9.01,7.48,7.72,14.16c-1.57,8.11-2.83,17.27-7.56,24.24
						c-1.68,1.91-9.3,8.66-9.5,2.05c-0.12-4.09-0.24-8.18-0.36-12.27C198.08,281.88,197.21,273.86,197.67,266.12 M197.92,297.82
						c0.03,0.87-0.9,8.42,1.5,8.02c3.57-0.6,6.91-2.88,9.24-5.56l0.02-0.04l0.03-0.03c3.71-5.45,5.06-12.02,6.41-18.37
						c0.97-4.53,2.54-11.04,0.39-15.89c-1.85-4.17-12.76-9.42-17.55-4.46c-2.71,2.81-1.22,10.39-1.12,13.83"/>
				</g>
			</g>
		</g>
	</g>
</g>
</svg>
