<?xml version="1.0" encoding="utf-8"?>
<!-- Generator: Adobe Illustrator 26.0.1, SVG Export Plug-In . SVG Version: 6.00 Build 0)  -->
<svg version="1.1" id="Layer_1" xmlns="http://www.w3.org/2000/svg" xmlns:xlink="http://www.w3.org/1999/xlink" x="0px" y="0px"
	 viewBox="0 0 432 648" style="enable-background:new 0 0 432 648;" xml:space="preserve">
<style type="text/css">
	.st0{display:none;opacity:0.5;fill:none;stroke:#231F20;stroke-width:0.05;stroke-miterlimit:10;}
	.st1{fill:#FFFFFF;}
	.st2{fill:#E92A2A;}
	.st3{fill:#A89FA8;}
	.st4{fill:#998F99;}
	.st5{fill:#E9E7E9;}
</style>
<path class="st0" d="M418.44,444.92c-2.94,1.51-8.31,5.17-9.04,17.27"/>
<g>
	<g>
		<g>
			<g id="Front_00000085213545349991222160000005553816717196714938_">
				<g>
					<g>
						<g>
							<g>
								<path class="st1" d="M295.45,259.86v-8.56c0-6.19-3.43-12.79-5.57-16.29c2.11-7.07,2.14-24,0.99-31.85
									c-0.7-4.78-4.02-8.67-5.67-11.16c0.03-0.19,0.06-0.38,0.1-0.58c0.9-5.77-3.02-19.93-5.37-25.9
									c-1.56-3.96-4.82-5.47-7.44-6.67c-1.42-0.65-2.64-1.22-3.33-2.02c-1.77-2.06-3.52-2.63-5.08-3.12
									c-0.41-0.13-0.8-0.26-1.18-0.41c-0.6-0.24-1.12-0.72-1.92-1.44c-1.36-1.23-3.41-3.1-7.8-5.64c-2.41-1.4-5.8-3.02-9.39-4.74
									c-5.88-2.82-12.75-6.06-14.38-8.08c-1.49-1.84-1.65-7.67-1.67-9.59c0.71-1.8,0.79-4.65,0.76-6.3
									c0.3,0.14,0.66,0.21,1.09,0.16c1.47-0.18,2.84-2.46,4.48-5.43c0.46-0.83,0.9-1.62,1.23-2.09c1.42-2.03,1.11-6.43,0.07-9.72
									c-0.3-0.96-0.82-1.52-1.53-1.65c-0.98-0.18-2.05,0.57-2.82,1.27c0.15-4.1,0.09-15.65-4.65-21.34
									c-4.08-4.9-12.24-6.11-15.34-6.41l-1.22,0c-3.09,0.29-11.26,1.51-15.34,6.41c-4.74,5.69-4.79,17.23-4.65,21.34
									c-0.77-0.7-1.84-1.45-2.82-1.27c-0.71,0.13-1.23,0.69-1.53,1.65c-1.04,3.29-1.35,7.69,0.07,9.72
									c0.33,0.48,0.77,1.26,1.23,2.09c1.64,2.97,3.02,5.25,4.48,5.43c0.43,0.05,0.79-0.02,1.09-0.16c-0.03,1.82,0.07,5.1,1,6.82
									c0,0,0,0.01,0.01,0.01c-0.04,1.35-0.33,7.15-1.91,9.1c-1.64,2.02-8.3,5.21-14.18,8.03c-3.59,1.72-6.98,3.34-9.39,4.74
									c-4.39,2.54-6.44,4.41-7.8,5.64c-0.8,0.73-1.33,1.21-1.92,1.44c-0.38,0.15-0.77,0.28-1.18,0.41
									c-1.55,0.5-3.31,1.06-5.08,3.12c-0.69,0.81-1.91,1.37-3.33,2.02c-2.62,1.21-5.88,2.71-7.44,6.67
									c-2.35,5.97-6.27,20.13-5.37,25.9c0.06,0.41,0.13,0.82,0.21,1.22c-1.66,2.48-4.65,6.08-5.33,10.74
									c-1.14,7.81-1.27,24.09,0.8,31.22c-2.1,3.38-5.82,10.27-5.82,16.71v8.56c-0.59,0.96-3.69,6.55-3.02,17.45
									c0.25,4.18,0.72,8.03,1.22,12.11c0.88,7.26,3.85,15.5,3.5,25.22c-0.52,14.82-0.31,28.97,0.27,31.7
									c0.54,2.5,5.16,14.69,5.36,15.2l0.17,0.45l0.47-0.12c0.03-0.01,2.8-0.8,3.04-4.46l1.48,1.69l0.39-0.55
									c0.09-0.12,1.39-1.97,1.76-4.26c0.82-1.39,2.53-4.97,0.55-8c-2.26-3.45-5.99-10.58-6.03-10.65l0,0
									c-0.01-0.24-0.03-0.44-0.06-0.59c0.55-4.24,0-5.78,1.58-6.37c0.13-0.05,0.2-0.03,0.28,0.02c1.15,0.74,1.41,2.71,1.69,4.79
									c0.26,1.95,0.54,3.98,1.53,5.55c1.17,1.84,2.97,4.23,5.06,2.49c1.38-1.15,0.17-9.03-0.16-11.36
									c-0.42-2.92-0.42-3.74-1.57-8.36c-0.73-2.94-1.18-4.47-1.37-5.83c-0.1-1.12,0.19-5.8,0.62-9.21
									c0.49-3.92,2.91-10.34,5.48-17.13c2.93-7.76,5.96-15.78,6.16-20.44c0.3-7.21-0.65-10.8-0.99-11.83
									c0.61-0.73,2.31-2.99,2.77-5.9c0.54-3.39,0.37-9.28,0.35-9.43c0.02-0.1,1.8-10.27,4.73-14.93
									c2.23-3.54,5.51-10.47,6.91-14.1c0.51,3.59,1.08,6.8,1.65,8.51c0.73,2.18,1.65,4.59,2.54,6.93
									c1.27,3.33,2.47,6.48,2.78,8.13c0.44,2.33,0.13,19.47,0.03,25.1c-0.02,1.21-0.04,2-0.04,2.2c0,0.01,0,0.01-0.01,0.02
									c-0.11,0.11-0.19,0.3-0.22,0.5c-0.23,0.41-0.58,0.97-0.91,1.49c-1.77,2.79-4.74,7.47-4.17,12.08
									c0.64,5.14,1.42,7.29,1.7,7.94c-0.58,1.85-4.88,15.92-4.22,26.07c0.23,3.54-1.16,9.06-2.92,16.05
									c-2.27,9.01-6.56,29.76-7.52,42.71c-1.41,19.15,4.08,41.06,5.6,52.9c0.32,2.53,0.54,4.21,0.57,4.72
									c0.07,1.25-0.04,2.11-0.18,3.11c-0.18,1.36-0.39,2.9-0.18,5.79c0.02,0.29,0.07,0.61,0.14,0.95
									c-0.74,1.66-7.26,16.63-7.43,26.41c-0.08,4.77,1.44,15.37,3.06,26.58c1.46,10.15,2.86,20.65,3.3,27.13l0.01,0.17
									c0.04,0.54,0.07,1.06,0.09,1.54c0.07,3.47-0.26,10.39-0.49,11.07c-0.52,1.59-1.01,3.1-0.97,5.43
									c-0.14,0.14-0.28,0.27-0.42,0.39c-1.92,1.64-2.7,3.85-3.45,5.99c-0.25,0.7-0.48,1.36-0.75,1.99
									c-1.04,2.42-10.21,9.99-11.48,10.78c-0.99,0.62-3.49,4.29-3.49,4.29c-0.94,1-0.65,2.66-0.46,3.75
									c0.03,0.19,0.07,0.37,0.09,0.53c0.08,0.58,0.26,0.98,0.4,1.31c0.13,0.28,0.22,0.49,0.22,0.74c0.01,0.34-0.05,0.75-0.1,1.14
									c-0.05,0.35-0.1,0.72-0.11,1.06c-0.01,0.61,0.02,2.08,0.61,2.57c0.34,0.28,0.66,0.48,1.13,0.56
									c-0.05,0.15-0.12,0.35-0.2,0.59c-0.37,1.08,0.45,2.19,1.05,2.64c0.43,0.32,1.11,0.35,1.58,0.32c0,0.09,0.02,0.15,0.03,0.2
									c0.07,0.77,0.33,1.83,1.31,2.29c1,0.47,1.51,0.36,2.09,0.08c1.14,1.58,3.47,2.54,5.55,2.34c0.27-0.03,0.54-0.07,0.8-0.14
									c2.15-0.55,4.85-2.41,5.85-4.89c0.8-1.99,1.97-2.65,3.01-3.1c4.29-1.35,6.63-6.13,7.26-10.57c0.55-3.92,3.06-8.19,3.72-9.06
									c3-1.26,4.77-2.85,6.31-5.1c1.61-2.36,1.67-3.87,1.22-5.83c-0.43-1.86-1.59-10.64-2-12c-0.35-1.19-0.52-2.41-0.8-3.9
									c-0.87-4.63,4.88-28.52,6.56-33.18c0.65-1.78,1.57-3.73,2.65-5.98c1.82-3.82,4.09-8.57,5.9-14.59
									c2.74-9.11-1.59-29.25-2.12-31.63c1.59-2.79,3.01-5.69,4.24-8.64c0.98-2.36,1.91-4.81,2.37-7.34
									c0.68-3.73,1.28-10.78,1.96-18.94c0.61-7.21,1.29-15.39,2.13-21.92c1.04-8.06,3.17-17.15,4.88-24.46
									c1.17-5,2.19-9.32,2.52-11.93c0.62-4.87,0.01-9.72-0.34-11.84c0.38,0.04,1.49,0.05,1.76,0c-0.34,2.12-0.96,6.97-0.34,11.84
									c0.33,2.6,1.34,6.92,2.52,11.93c1.71,7.31,3.85,16.41,4.88,24.46c0.84,6.53,1.53,14.7,2.13,21.92
									c0.69,8.17,1.28,15.22,1.96,18.94c0.46,2.52,1.39,4.98,2.37,7.34c1.23,2.95,2.64,5.85,4.24,8.64
									c-0.53,2.38-4.86,22.53-2.12,31.63c1.81,6.02,4.08,10.77,5.9,14.59c1.08,2.26,2,4.2,2.65,5.98
									c1.69,4.65,7.43,28.54,6.56,33.18c-0.28,1.49-0.44,2.7-0.8,3.9c-0.4,1.36-1.57,10.14-2,12c-0.45,1.96-0.39,3.47,1.22,5.83
									c1.54,2.25,3.31,3.84,6.31,5.1c0.65,0.88,3.17,5.14,3.72,9.06c0.62,4.44,2.96,9.22,7.26,10.57c1.04,0.45,2.21,1.11,3.01,3.1
									c1,2.49,3.7,4.34,5.85,4.89c0.26,0.07,0.53,0.11,0.8,0.14c2.09,0.2,4.41-0.76,5.55-2.34c0.58,0.28,1.09,0.39,2.09-0.08
									c1.07-0.51,1.28-1.72,1.33-2.49c0.47,0.03,1.16,0,1.59-0.32c0.6-0.44,1.41-1.55,1.05-2.64c-0.08-0.22-0.14-0.41-0.19-0.56
									l0,0c0-0.01-0.01-0.02-0.01-0.04c0.47-0.09,0.79-0.28,1.13-0.56c0.59-0.49,0.63-1.96,0.61-2.57
									c-0.01-0.34-0.06-0.7-0.11-1.06c-0.05-0.39-0.11-0.8-0.1-1.14c0-0.25,0.1-0.46,0.22-0.74c0.14-0.32,0.32-0.72,0.4-1.31
									c0.02-0.16,0.05-0.34,0.09-0.53c0.19-1.09,0.48-2.75-0.46-3.75c0,0-2.5-3.67-3.49-4.29c-1.26-0.79-10.44-8.36-11.48-10.78
									c-0.27-0.63-0.5-1.29-0.75-1.99c-0.75-2.14-1.53-4.35-3.45-5.99c-0.14-0.12-0.28-0.25-0.42-0.39
									c0.04-2.34-0.45-3.85-0.97-5.43c-0.22-0.68-0.56-7.59-0.49-11.07c0.02-0.48,0.05-1,0.09-1.54c0.01-0.06,0.02-0.12,0.03-0.17
									l-0.02,0c0.44-6.48,1.84-16.97,3.3-27.13c1.62-11.21,3.15-21.81,3.06-26.58c-0.17-9.71-6.61-24.54-7.42-26.37
									c0.09-0.41,0.15-0.79,0.17-1.14c0.21-2.89,0-4.43-0.18-5.79c-0.13-1-0.25-1.86-0.18-3.11c0.03-0.51,0.24-2.18,0.57-4.72
									c1.52-11.84,7.01-33.75,5.6-52.9c-0.96-12.94-5.25-33.7-7.52-42.71c-1.76-6.99-3.15-12.51-2.92-16.05
									c0.66-10.15-3.64-24.21-4.22-26.07c0.28-0.65,1.06-2.8,1.7-7.94c0.57-4.61-2.4-9.29-4.17-12.08
									c-0.52-0.82-1.11-1.75-1.14-2.01c0-0.2-0.01-0.99-0.04-2.2c-0.1-5.63-0.41-22.77,0.03-25.1c0.31-1.64,1.51-4.79,2.78-8.13
									c0.89-2.34,1.81-4.75,2.54-6.93c0.55-1.66,1.08-4.75,1.58-8.19c0-0.01,0-0.01,0-0.02c1.43,3.54,4.62,10.05,6.68,13.7
									c3.63,6.44,4.88,16.94,5.09,24.36c0.08,2.95,2.16,5.17,2.77,5.9c-0.34,1.04-1.29,4.62-0.99,11.83
									c0.19,4.66,3.23,12.68,6.16,20.44c2.57,6.79,4.99,13.21,5.48,17.13c0.35,2.83,0.7,4.66,0.72,6.05
									c0.02,1.34,0.01,2.68-0.12,4.02c-0.12,1.24-0.64,2.71-1.27,5.22c-1.15,4.62-1.15,5.44-1.57,8.36
									c-0.33,2.33-1.54,10.22-0.16,11.36c2.1,1.74,3.89-0.64,5.06-2.49c1-1.57,1.27-3.59,1.53-5.55c0.28-2.09,0.55-4.06,1.69-4.79
									c0.08-0.05,0.15-0.07,0.28-0.02c1.58,0.59,1.02,2.14,1.58,6.37c-0.03,0.15-0.05,0.35-0.06,0.59l0,0
									c-0.04,0.07-3.77,7.2-6.03,10.65c-1.99,3.03-0.28,6.61,0.55,8c0.37,2.29,1.67,4.14,1.76,4.26l0.39,0.55l1.48-1.69
									c0.24,3.66,3.01,4.45,3.04,4.46l0.47,0.12l0.17-0.45c0.2-0.52,4.83-12.7,5.36-15.2c0.59-2.73,0.8-16.87,0.27-31.7
									c-0.34-9.72,2.62-17.95,3.5-25.22c0.5-4.08,0.96-7.93,1.22-12.11C299.14,266.41,296.04,260.82,295.45,259.86z"/>
							</g>
						</g>
					</g>
				</g>
			</g>
		</g>
		<g>
			<path class="st2" d="M163.93,441.98c-0.21-1.43-0.74-2.07-1.18-2.85c-1.72,4.12-6.96,17.17-7.1,25.39
				c-0.08,4.69,1.44,15.24,3.05,26.42c1.84,12.72,3.94,25.89,3.56,31.28c-0.04,0.66,0.09,1.49,0.02,2.06
				c1.88-2.9,2.78-4.1,2.92-5.09C158,487.26,156.83,457.57,163.93,441.98z"/>
			<path class="st2" d="M257.51,442.27c0.21-1.43,0.74-2.07,1.18-2.85c1.72,4.12,6.96,17.17,7.1,25.39
				c0.08,4.69-1.44,15.24-3.05,26.42c-1.84,12.72-3.94,25.89-3.56,31.28c0.04,0.66-0.09,1.49-0.02,2.06
				c-1.88-2.9-2.78-4.1-2.92-5.09C263.45,487.56,264.62,457.86,257.51,442.27z"/>
		</g>
	</g>
	<g>
		<path class="st3" d="M210.39,140.49c-0.88-0.07-1.76-0.26-2.58-0.56c-0.17-1.53-0.35-3.1-0.54-4.71c0.43,0.1,0.9,0.18,1.35,0.24
			c0.36,0.05,0.72,0.08,1.06,0.11h1.43c0.33-0.03,0.68-0.06,1.04-0.11c0.45-0.06,0.89-0.13,1.32-0.23
			c-0.19,1.61-0.37,3.18-0.54,4.71C212.11,140.24,211.26,140.42,210.39,140.49 M213.61,139.67c0.17-1.54,0.35-3.08,0.53-4.62
			c0.08-0.02,0.15-0.05,0.22-0.08c0.51-0.18,1.46-0.77,2.63-1.58c-0.13,1.6-0.38,3.18-0.7,4.73
			C215.45,138.73,214.55,139.26,213.61,139.67 M207.12,139.65c-0.94-0.42-1.84-0.96-2.69-1.56c-0.32-1.56-0.57-3.13-0.69-4.73
			c1.2,0.83,2.17,1.43,2.68,1.61c0.06,0.02,0.11,0.04,0.17,0.06C206.77,136.57,206.95,138.11,207.12,139.65 M217.1,137.54
			c0.28-1.52,0.49-3.07,0.59-4.63c1.49-1.07,3.24-2.42,4.84-3.76c-0.5,1.69-0.99,3.25-1.48,4.71c-0.49,0.55-1,1.08-1.54,1.59
			C218.76,136.16,217.95,136.88,217.1,137.54 M203.63,137.49c-0.83-0.65-1.61-1.35-2.35-2.04c-0.53-0.51-1.05-1.04-1.54-1.59
			c-0.49-1.46-0.98-3.02-1.48-4.71c1.59,1.33,3.31,2.66,4.79,3.72C203.14,134.43,203.35,135.97,203.63,137.49"/>
		<path class="st4" d="M204.43,138.09c-0.27-0.19-0.54-0.39-0.8-0.6c-0.28-1.52-0.49-3.06-0.58-4.62c0.24,0.17,0.47,0.33,0.69,0.49
			C203.86,134.96,204.11,136.53,204.43,138.09"/>
		<path class="st4" d="M207.81,139.93c-0.12-0.04-0.23-0.09-0.35-0.13c-0.12-0.05-0.23-0.1-0.34-0.15
			c-0.17-1.54-0.35-3.08-0.53-4.62c0.21,0.07,0.44,0.13,0.68,0.19C207.46,136.83,207.64,138.39,207.81,139.93"/>
		<path class="st4" d="M216.3,138.13c0.32-1.56,0.57-3.13,0.7-4.73c0.22-0.15,0.45-0.32,0.69-0.49c-0.09,1.56-0.3,3.1-0.59,4.63
			C216.84,137.74,216.57,137.94,216.3,138.13"/>
		<path class="st4" d="M212.92,139.95c0.17-1.54,0.35-3.11,0.54-4.71c0.24-0.05,0.46-0.11,0.68-0.18c-0.18,1.54-0.36,3.08-0.53,4.62
			c-0.1,0.04-0.19,0.08-0.29,0.12C213.19,139.85,213.06,139.9,212.92,139.95"/>
		<path class="st5" d="M208.67,170.8c-0.11-0.21-0.23-0.41-0.35-0.61c-0.06-0.09-0.12-0.18-0.18-0.27c0.5-7.84-0.1-15.11-1.81-21.61
			c-0.25-0.96-0.51-1.91-0.77-2.87c-0.71-2.59-1.43-5.24-1.93-7.95c0.26,0.21,0.53,0.41,0.8,0.6c0.43,2.12,1,4.19,1.55,6.23
			c0.69,2.54,1.4,5.17,1.86,7.83c1.06,6.19,1.35,12.22,0.91,18.45C208.74,170.68,208.71,170.74,208.67,170.8"/>
		<path class="st5" d="M209.8,175.08c-0.08-0.8-0.2-1.58-0.4-2.32c0.51-5.34-0.03-10.79-0.55-16.08c-0.09-0.87-0.17-1.74-0.25-2.61
			c-0.44-4.73-0.94-9.56-1.48-14.42c0.11,0.05,0.23,0.1,0.34,0.15c0.12,0.05,0.23,0.09,0.35,0.13c0.65,5.8,1.19,11.13,1.63,16.15
			c0.06,0.69,0.12,1.39,0.19,2.08C210.14,163.71,210.66,169.44,209.8,175.08"/>
		<path class="st5" d="M212.71,170.05c-0.51-7.87-0.01-15.23,1.69-21.75c0.25-0.96,0.51-1.91,0.77-2.87
			c0.71-2.58,1.43-5.21,1.92-7.9c-0.26,0.2-0.53,0.4-0.8,0.59c-0.43,2.1-0.99,4.16-1.54,6.19c-0.69,2.54-1.4,5.17-1.86,7.83
			c-1.06,6.19-1.21,12.8-0.77,19.03L212.71,170.05z"/>
		<path class="st5" d="M211.09,174.72c-0.9-5.72-0.5-10.95,0.02-16.57c0.06-0.69,0.13-1.38,0.19-2.07
			c0.44-5.03,0.98-10.34,1.63-16.13c0.14-0.05,0.27-0.1,0.4-0.15c0.1-0.04,0.19-0.08,0.29-0.12c-0.54,4.86-1.04,9.68-1.48,14.4
			c-0.08,0.86-0.17,1.73-0.25,2.6c-0.53,5.34-0.98,11.11-0.45,16.51c-0.19,0.76-0.02,0.6-0.09,1.43L211.09,174.72z"/>
		<g>
			<path class="st3" d="M241.66,447.05c0.45,0,0.9-0.03,1.34-0.11c2.29-0.38,3.98-1.68,5.45-3.27c-0.01,0-0.02,0-0.02,0l-0.21,0.01
				c-3.05,0-13.43-8.45-15.75-11.04c0,0,13.52,9.98,15.71,9.98c0.03,0,0.06,0,0.09-0.01c1.84-0.28,7.09-8.9,7.2-9.08h0
				c0,0-0.08,0.14-0.23,0.38c-1.74,1.9-4.23,3.2-6.81,3.2c-0.14,0-0.27,0-0.41-0.01c-2.84-0.15-5.6-2.09-6.3-4.81
				c-0.52-2.03,0.11-4.21,1.23-5.99c1.12-1.77,2.7-3.21,4.26-4.63c-3.25,1.09-4.77,1.77-6.51,2.97c-1.26,0.87-5.25,2.73-8.17,2.73
				c-1.1,0-2.05-0.26-2.65-0.94c-0.6-0.69-1.2-1.37-1.68-2.14c-0.26-0.43-0.53-0.86-0.79-1.29c-0.4-0.02-0.8-0.07-1.2-0.15
				c-1.03-0.19-2.04-0.57-2.99-1.17c0.13,0.95,0.25,1.79,0.38,2.5c0.82,4.47,2.88,8.81,4.95,12.82c0.34,0.65,0.67,1.33,1.02,2.01
				c0.93,1.81,1.92,3.66,3.2,5.15l0.1,0.11c0.8,0.35,1.59,0.68,2.31,1C237.22,446.2,239.43,447.05,241.66,447.05"/>
			<path class="st3" d="M179.36,447.05c-0.45,0-0.9-0.03-1.34-0.11c-2.29-0.38-3.98-1.68-5.45-3.27c0.01,0,0.02,0,0.02,0l0.21,0.01
				c3.05,0,13.43-8.45,15.75-11.04c0,0-13.52,9.98-15.71,9.98c-0.03,0-0.06,0-0.09-0.01c-1.84-0.28-7.09-8.9-7.2-9.08h0
				c0,0,0.08,0.14,0.23,0.38c1.74,1.9,4.23,3.2,6.81,3.2c0.14,0,0.27,0,0.41-0.01c2.84-0.15,5.6-2.09,6.3-4.81
				c0.52-2.03-0.11-4.21-1.23-5.99c-1.12-1.77-2.7-3.21-4.26-4.63c3.25,1.09,4.77,1.77,6.51,2.97c1.26,0.87,5.25,2.73,8.17,2.73
				c1.1,0,2.05-0.26,2.65-0.94c0.6-0.69,1.2-1.37,1.68-2.14c0.26-0.43,0.53-0.86,0.79-1.29c0.4-0.02,0.8-0.07,1.2-0.15
				c1.03-0.19,2.04-0.57,2.99-1.17c-0.13,0.95-0.25,1.79-0.38,2.5c-0.82,4.47-2.88,8.81-4.95,12.82c-0.34,0.65-0.67,1.33-1.02,2.01
				c-0.93,1.81-1.92,3.66-3.2,5.15l-0.1,0.11c-0.8,0.35-1.59,0.68-2.31,1C183.79,446.2,181.59,447.05,179.36,447.05"/>
			<g>
				<path d="M209.64,226.34c-0.52-6.74-10.95-1.76-13.72-0.09c-5.35,3.23-8.21,9.51-7.46,15.55c0.15,1.23,1.13,2.85,2.64,2.68
					c4.53-0.51,8.63-2.92,13.16-3.61c2.37-0.3,3.82-0.73,4.9-2.83c0.8-1.56,0.39-4.26,0.45-5.93
					C209.67,230.18,209.79,228.27,209.64,226.34z M208.96,232.06c-0.12,3.53,0.19,7.55-4.83,8.2c-3.31,0.51-6.33,1.66-9.48,2.74
					c-8.44,2.91-5.45-7.97-3.13-11.7c2.68-4.31,8.1-6.78,13-7.69C210.38,222.53,209.05,229.44,208.96,232.06z"/>
				<path d="M211.4,238.03c1.1,2.1,2.57,2.53,4.97,2.84c4.59,0.71,8.74,3.12,13.33,3.64c1.53,0.17,2.52-1.45,2.67-2.68
					c0.74-6.04-2.17-12.33-7.6-15.57c-2.81-1.68-13.39-6.68-13.9,0.06c-0.14,1.93-0.02,3.84,0.05,5.77
					C210.99,233.77,210.58,236.48,211.4,238.03z M216.05,223.61c4.97,0.92,10.47,3.4,13.19,7.72c2.36,3.74,5.42,14.62-3.14,11.69
					c-3.19-1.09-6.25-2.24-9.61-2.76c-5.08-0.66-4.78-4.68-4.91-8.21C211.48,229.44,210.12,222.52,216.05,223.61z"/>
				<path d="M194.94,225.28c3.67-1.74,8.55-3.46,11.48-6.37c2.3-2.28,3.63-6.21,3.53-9.41c-0.04-1.45-0.54-3.38-1.84-4.21l-0.3-0.16
					c-0.76-0.32-1.74-0.2-2.51-0.08c-1.32,0.2-2.58,0.71-3.79,1.26c-0.32,0.14-0.64,0.29-0.96,0.44c-2.77,1.29-6.18,2.21-8.57,4.18
					c-2.45,2.02-3.42,4.24-3.73,7.37c-0.16,1.59-0.5,6.77,1,8.05C191.03,227.84,193.16,226.12,194.94,225.28z M195.42,209.72
					c3.24-1.59,8.4-4.62,11.98-4.02c2.46,1.44,1.47,6.18,1.06,8.33c-0.62,3.29-3.29,5.04-5.97,6.63
					c-2.79,1.66-12.71,8.14-13.45,1.48C188.41,216.4,190.11,212.32,195.42,209.72z"/>
				<path d="M225.29,225.3c1.78,0.84,3.91,2.57,5.69,1.06c1.51-1.27,1.16-6.46,1-8.05c-0.31-3.13-1.27-5.35-3.73-7.37
					c-2.4-1.97-5.8-2.89-8.57-4.18c-0.32-0.15-0.64-0.3-0.96-0.44c-1.21-0.55-2.46-1.06-3.79-1.26c-0.77-0.12-1.75-0.23-2.51,0.08
					l-0.3,0.16c-1.3,0.83-1.8,2.77-1.84,4.21c-0.1,3.2,1.23,7.12,3.53,9.41C216.74,221.84,221.62,223.56,225.29,225.3z
					 M212.84,205.73c3.57-0.6,8.74,2.43,11.98,4.02c5.32,2.6,7.01,6.68,6.38,12.43c-0.74,6.66-10.66,0.18-13.45-1.48
					c-2.67-1.59-5.35-3.34-5.97-6.63C211.37,211.91,210.38,207.17,212.84,205.73z"/>
				<path d="M172.67,442.62c-1.84-0.28-7.09-8.9-7.2-9.08h-0.53c0,1.19,4.88,9.65,7.54,10.12c0,0,0.01,0.01,0.01,0.01
					c0.01,0,0.01,0,0.02,0l0.21,0.01c3.05,0,13.43-8.45,15.75-11.04c0,0-13.52,9.98-15.71,9.98
					C172.73,442.62,172.7,442.62,172.67,442.62z"/>
				<path d="M255.37,433.54c-0.11,0.18-5.36,8.8-7.2,9.08c-0.03,0-0.05,0.01-0.08,0.01c-2.2,0-15.71-9.98-15.71-9.98
					c2.32,2.59,12.7,11.04,15.75,11.04l0.21-0.01c0.01,0,0.02,0,0.02,0c0,0,0.01-0.01,0.01-0.01c2.66-0.47,7.54-8.93,7.54-10.12
					H255.37z"/>
				<path d="M295.42,259.79v-8.56c0-6.19-3.43-12.79-5.57-16.29c2.11-7.07,2.14-24,0.99-31.85c-0.7-4.78-4.02-8.67-5.67-11.16
					c0.03-0.19,0.06-0.38,0.1-0.58c0.9-5.77-3.02-19.93-5.37-25.9c-1.56-3.96-4.82-5.47-7.44-6.67c-1.42-0.65-2.64-1.22-3.33-2.02
					c-1.77-2.06-3.52-2.63-5.08-3.12c-0.41-0.13-0.8-0.26-1.18-0.41c-0.6-0.24-1.12-0.72-1.92-1.44c-1.36-1.23-3.41-3.1-7.8-5.64
					c-2.41-1.4-5.8-3.02-9.39-4.74c-5.88-2.82-12.75-6.06-14.38-8.08c-1.49-1.84-1.65-7.67-1.67-9.59c0.71-1.8,0.79-4.65,0.76-6.3
					c0.29,0.14,0.66,0.21,1.09,0.16c1.47-0.18,2.84-2.46,4.48-5.43c0.46-0.83,0.9-1.62,1.23-2.09c1.42-2.03,1.11-6.43,0.07-9.72
					c-0.3-0.96-0.82-1.52-1.53-1.65c-0.98-0.18-2.05,0.57-2.82,1.27c0.15-4.1,0.09-15.65-4.65-21.34
					c-4.08-4.9-12.24-6.11-15.34-6.41l-1.22,0c-3.1,0.29-11.26,1.51-15.34,6.41c-4.74,5.69-4.79,17.23-4.65,21.34
					c-0.77-0.7-1.84-1.45-2.82-1.27c-0.71,0.13-1.23,0.69-1.53,1.65c-1.04,3.29-1.35,7.69,0.07,9.72c0.33,0.48,0.77,1.26,1.23,2.09
					c1.64,2.97,3.02,5.25,4.48,5.43c0.43,0.05,0.79-0.02,1.09-0.16c-0.03,1.82,0.07,5.1,1,6.82c0,0,0,0.01,0.01,0.01
					c-0.04,1.35-0.33,7.15-1.91,9.1c-1.64,2.02-8.3,5.21-14.18,8.03c-3.59,1.72-6.98,3.34-9.39,4.74c-4.39,2.54-6.44,4.41-7.8,5.64
					c-0.8,0.73-1.33,1.21-1.92,1.44c-0.38,0.15-0.77,0.28-1.18,0.41c-1.55,0.5-3.31,1.06-5.08,3.12c-0.69,0.81-1.91,1.37-3.33,2.02
					c-2.62,1.21-5.88,2.71-7.44,6.67c-2.35,5.97-6.27,20.13-5.37,25.9c0.06,0.41,0.13,0.82,0.21,1.22
					c-1.66,2.48-4.65,6.08-5.33,10.74c-1.14,7.81-1.27,24.09,0.8,31.22c-2.1,3.38-5.82,10.27-5.82,16.71v8.56
					c-0.59,0.96-3.69,6.55-3.02,17.45c0.25,4.18,0.72,8.03,1.22,12.11c0.88,7.26,3.85,15.5,3.5,25.22
					c-0.52,14.82-0.31,28.96,0.27,31.7c0.54,2.5,5.16,14.69,5.36,15.2l0.17,0.45l0.46-0.12c0.03-0.01,2.8-0.8,3.04-4.46l1.48,1.69
					l0.39-0.54c0.09-0.12,1.39-1.97,1.76-4.26c0.82-1.39,2.53-4.97,0.55-8c-2.26-3.45-5.99-10.58-6.03-10.65l0,0
					c-0.01-0.24-0.03-0.44-0.06-0.59c0.56-4.24,0-5.78,1.58-6.37c0.13-0.05,0.2-0.03,0.28,0.02c1.15,0.74,1.41,2.71,1.69,4.79
					c0.26,1.95,0.54,3.98,1.53,5.55c1.17,1.84,2.97,4.23,5.06,2.49c1.38-1.15,0.17-9.03-0.16-11.36c-0.42-2.92-0.42-3.74-1.57-8.36
					c-0.74-2.94-1.18-4.47-1.37-5.83c-0.1-1.12,0.19-5.8,0.62-9.21c0.49-3.92,2.91-10.34,5.48-17.13
					c2.93-7.76,5.96-15.78,6.16-20.44c0.3-7.21-0.65-10.8-0.99-11.83c0.61-0.73,2.31-2.99,2.77-5.9c0.54-3.39,0.37-9.28,0.36-9.43
					c0.02-0.1,1.8-10.27,4.73-14.93c2.23-3.54,5.51-10.47,6.91-14.1c0.51,3.59,1.08,6.8,1.65,8.51c0.72,2.18,1.65,4.59,2.54,6.93
					c1.27,3.33,2.47,6.48,2.78,8.12c0.44,2.33,0.13,19.47,0.03,25.1c-0.02,1.21-0.04,2-0.04,2.2c0,0.01,0,0.01-0.01,0.02
					c-0.11,0.11-0.19,0.3-0.22,0.5c-0.23,0.41-0.58,0.97-0.91,1.49c-1.77,2.79-4.74,7.47-4.17,12.08c0.64,5.14,1.42,7.29,1.7,7.94
					c-0.58,1.85-4.88,15.92-4.22,26.07c0.23,3.54-1.16,9.06-2.92,16.05c-2.27,9.01-6.56,29.76-7.52,42.71
					c-1.41,19.15,4.08,41.06,5.6,52.9c0.33,2.53,0.54,4.21,0.57,4.72c0.07,1.25-0.04,2.11-0.18,3.11c-0.18,1.36-0.39,2.9-0.18,5.79
					c0.02,0.29,0.07,0.61,0.14,0.95c-0.74,1.66-7.26,16.63-7.43,26.41c-0.08,4.77,1.44,15.37,3.06,26.58
					c1.47,10.15,2.86,20.65,3.3,27.13l0.01,0.17c0.04,0.54,0.07,1.06,0.09,1.54c0.07,3.47-0.26,10.39-0.49,11.07
					c-0.52,1.59-1.01,3.1-0.97,5.43c-0.14,0.14-0.28,0.27-0.42,0.39c-1.92,1.64-2.7,3.85-3.45,5.99c-0.25,0.7-0.48,1.36-0.75,1.99
					c-1.04,2.42-10.21,9.99-11.48,10.79c-0.99,0.62-3.49,4.29-3.49,4.29c-0.94,1-0.65,2.66-0.46,3.75c0.03,0.19,0.07,0.37,0.09,0.53
					c0.08,0.58,0.26,0.98,0.4,1.31c0.13,0.28,0.22,0.49,0.22,0.74c0.01,0.34-0.05,0.75-0.1,1.14c-0.05,0.35-0.1,0.72-0.11,1.06
					c-0.01,0.61,0.02,2.08,0.61,2.57c0.34,0.28,0.66,0.48,1.13,0.56c-0.05,0.15-0.12,0.35-0.2,0.59c-0.37,1.08,0.45,2.19,1.05,2.64
					c0.43,0.32,1.11,0.35,1.58,0.32c0,0.09,0.02,0.15,0.03,0.2c0.07,0.77,0.33,1.83,1.31,2.29c1,0.47,1.51,0.36,2.09,0.08
					c1.14,1.58,3.47,2.54,5.55,2.34c0.27-0.03,0.54-0.07,0.8-0.14c2.15-0.55,4.85-2.41,5.85-4.89c0.8-1.99,1.97-2.65,3.01-3.1
					c4.29-1.35,6.63-6.13,7.26-10.57c0.55-3.92,3.06-8.19,3.72-9.06c3-1.26,4.77-2.85,6.31-5.1c1.61-2.36,1.67-3.87,1.22-5.83
					c-0.43-1.86-1.59-10.64-2-12c-0.36-1.19-0.52-2.41-0.8-3.9c-0.87-4.63,4.88-28.52,6.56-33.18c0.65-1.78,1.57-3.73,2.65-5.98
					c1.82-3.82,4.09-8.57,5.9-14.59c2.74-9.11-1.59-29.25-2.12-31.63c1.59-2.79,3.01-5.69,4.24-8.64c0.98-2.36,1.91-4.81,2.37-7.34
					c0.69-3.73,1.28-10.78,1.96-18.94c0.61-7.21,1.29-15.39,2.13-21.92c1.04-8.06,3.17-17.15,4.88-24.46
					c1.17-5,2.19-9.32,2.52-11.93c0.62-4.87,0.01-9.72-0.34-11.84c0.37,0.04,1.49,0.05,1.76,0c-0.34,2.12-0.96,6.97-0.34,11.84
					c0.33,2.6,1.34,6.92,2.52,11.93c1.71,7.31,3.85,16.41,4.88,24.46c0.84,6.53,1.53,14.7,2.13,21.92
					c0.69,8.17,1.28,15.22,1.96,18.94c0.46,2.52,1.39,4.98,2.37,7.34c1.23,2.95,2.64,5.85,4.24,8.64
					c-0.53,2.38-4.86,22.53-2.12,31.63c1.81,6.02,4.08,10.77,5.9,14.59c1.08,2.26,2,4.2,2.65,5.98c1.69,4.65,7.43,28.54,6.56,33.18
					c-0.28,1.49-0.44,2.7-0.8,3.9c-0.4,1.36-1.57,10.14-2,12c-0.45,1.96-0.39,3.47,1.22,5.83c1.54,2.25,3.31,3.84,6.31,5.1
					c0.65,0.88,3.17,5.14,3.72,9.06c0.62,4.44,2.97,9.22,7.26,10.57c1.04,0.45,2.21,1.11,3.01,3.1c1,2.49,3.7,4.34,5.85,4.89
					c0.26,0.07,0.53,0.11,0.8,0.14c2.09,0.2,4.41-0.76,5.55-2.34c0.58,0.28,1.09,0.39,2.09-0.08c1.07-0.51,1.28-1.72,1.33-2.49
					c0.47,0.03,1.16,0,1.59-0.32c0.6-0.44,1.41-1.55,1.05-2.64c-0.08-0.22-0.14-0.41-0.19-0.56l0,0c0-0.01-0.01-0.02-0.01-0.04
					c0.47-0.09,0.79-0.28,1.13-0.56c0.59-0.49,0.63-1.96,0.61-2.57c-0.01-0.34-0.06-0.7-0.1-1.06c-0.05-0.39-0.11-0.8-0.1-1.14
					c0-0.25,0.1-0.46,0.22-0.74c0.14-0.32,0.32-0.72,0.4-1.31c0.02-0.16,0.05-0.34,0.09-0.53c0.19-1.09,0.48-2.75-0.46-3.75
					c0,0-2.5-3.67-3.49-4.29c-1.26-0.79-10.44-8.36-11.48-10.79c-0.27-0.63-0.5-1.29-0.75-1.99c-0.75-2.14-1.53-4.35-3.45-5.99
					c-0.14-0.12-0.28-0.25-0.42-0.39c0.04-2.34-0.45-3.85-0.97-5.43c-0.22-0.68-0.56-7.59-0.49-11.07c0.02-0.48,0.05-1,0.09-1.54
					c0.01-0.06,0.02-0.12,0.03-0.17l-0.02,0c0.44-6.48,1.84-16.97,3.3-27.13c1.62-11.21,3.15-21.81,3.06-26.58
					c-0.17-9.71-6.61-24.54-7.41-26.37c0.09-0.41,0.15-0.79,0.17-1.14c0.21-2.89,0-4.43-0.18-5.79c-0.13-1-0.25-1.86-0.18-3.11
					c0.03-0.51,0.24-2.18,0.57-4.72c1.52-11.84,7.01-33.75,5.6-52.9c-0.95-12.94-5.25-33.7-7.52-42.71
					c-1.76-6.99-3.15-12.51-2.92-16.05c0.66-10.15-3.64-24.21-4.22-26.07c0.28-0.65,1.06-2.8,1.7-7.94
					c0.57-4.61-2.4-9.29-4.17-12.08c-0.52-0.82-1.11-1.75-1.14-2.01c0-0.2-0.01-0.99-0.04-2.2c-0.1-5.63-0.41-22.77,0.03-25.1
					c0.31-1.65,1.51-4.79,2.78-8.13c0.89-2.34,1.81-4.75,2.54-6.93c0.55-1.66,1.08-4.75,1.57-8.19c0-0.01,0-0.01,0-0.02
					c1.43,3.54,4.62,10.05,6.68,13.7c3.63,6.44,4.88,16.94,5.09,24.36c0.08,2.95,2.16,5.17,2.77,5.9
					c-0.34,1.04-1.29,4.62-0.99,11.83c0.19,4.66,3.23,12.68,6.16,20.44c2.57,6.79,4.99,13.21,5.48,17.13
					c0.35,2.83,0.7,4.66,0.72,6.05c0.02,1.34,0.01,2.68-0.12,4.02c-0.12,1.24-0.64,2.71-1.27,5.22c-1.15,4.62-1.15,5.44-1.57,8.36
					c-0.33,2.33-1.54,10.22-0.16,11.36c2.1,1.74,3.89-0.64,5.06-2.49c1-1.57,1.27-3.59,1.53-5.55c0.28-2.09,0.55-4.06,1.69-4.79
					c0.08-0.05,0.15-0.07,0.28-0.02c1.58,0.59,1.02,2.14,1.58,6.37c-0.03,0.15-0.05,0.35-0.06,0.59l0,0
					c-0.04,0.07-3.77,7.2-6.03,10.65c-1.99,3.03-0.28,6.61,0.55,8c0.37,2.29,1.67,4.14,1.76,4.26l0.39,0.54l1.48-1.69
					c0.24,3.66,3.01,4.45,3.04,4.46l0.47,0.12l0.17-0.45c0.2-0.52,4.83-12.7,5.36-15.2c0.59-2.73,0.8-16.87,0.27-31.7
					c-0.34-9.72,2.62-17.95,3.5-25.22c0.5-4.08,0.96-7.93,1.22-12.11C299.1,266.34,296.01,260.75,295.42,259.79z M289.99,202.61
					c1.32,7.69,1.08,24.25-0.83,31.2c-0.41-0.63-0.71-1.07-0.86-1.28c-0.09-1.6-0.78-13.76-1.96-19.5
					c-1.11-5.42-3.1-10.61-3.51-11.65c0.28-0.81,1.35-4.08,2.14-8.27C285.75,194.06,289.44,199.41,289.99,202.61z M235.03,261.56
					c0.01-1.23,0.08-2.45,0.19-3.67c0.28,0.08,0.61,0.08,1.01-0.03c2.66-0.73,5.01-5.23,6.13-7.38c1.28-2.47,2.24-5,2.85-7.64
					c-0.02,4.35,0.05,10.1,0.14,15.36c-1.77,3.01-4.15,5.7-7.15,7.53c-0.45,0.29-1.08,0.57-1.61,0.64c-1.06,0.14-1.59-1.23-1.48-2.1
					C235.07,263.37,235.02,262.46,235.03,261.56z M245.3,237.54c-0.26,6.06-2.43,11.9-6.11,16.73c-0.92,1.21-2,2.72-3.75,1.92
					c-0.93-0.42-0.86-1.48-0.73-2.33c0.19-1.31,0.32-2.62,0.56-3.92c0.12-0.65,0.29-1.29,0.5-1.92c0.03-0.09,0.17-0.55,0.32-0.97
					c0.53,0.15,1.26-0.06,2.28-0.79c3.02-2.16,4.68-5.58,5.52-9.26c0.62-0.54,1.21-1.11,1.77-1.72c-0.08,0.31-0.15,0.6-0.2,0.86
					C245.41,236.41,245.3,237.49,245.3,237.54z M240.85,242.89c-0.51,0.71-1.02,1.38-1.68,1.96c-0.77,0.68-1.73,1.83-2.87,1.22
					c-1.04-0.56-0.7-2.34-0.61-3.28c0.16-1.65,0.38-3.29,0.56-4.94c2.76-2.46,5.01-5.62,6.57-9.11c0.4-0.11,0.8-0.24,1.18-0.38
					C244.12,232.92,243.62,239.06,240.85,242.89z M240.36,232.08c-1.13,1.7-4.06,7.05-4.71,2.76c-0.42-2.74-1.59-6.86,0.56-9.27
					c0.72-0.14,1.25-1.02,1.75-1.48c0.58-0.52,1.15-1.06,1.7-1.62c0.2-0.2,0.39-0.41,0.59-0.62c1.44-0.13,2.82-0.42,4.15-0.87
					C243.92,224.99,242.52,228.84,240.36,232.08z M235.34,223.46c-0.47-1.25-1.01-2.5-1-3.85c0.03-3.63,2.92-6.48,6.14-8.08
					c1.86,0.65,3.78,1.1,5.76,1.33c-1.42,2.51-3.05,4.91-5,7.06c-0.71,0.79-1.58,1.46-2.37,2.17c-0.5,0.46-1,0.91-1.49,1.39
					c-0.32,0.32-0.81,0.83-1.29,0.9C235.51,224.47,235.52,223.92,235.34,223.46z M240.96,221.13c0.63-0.68,1.25-1.38,1.84-2.11
					c1.55-1.91,2.93-3.95,4.15-6.09c0.9,0.08,1.84,0.14,2.77,0.14c0.23,1.15,0.34,2.52,0.37,3.9l-0.02,0.01
					C247.47,219.28,244.37,220.68,240.96,221.13z M238.15,209.85c0.23-0.01,0.46-0.01,0.69-0.02c2.88-0.14,5.84-1.69,8.48-3.68
					c1.03,2.02,1.76,4.12,2.25,6.27l0,0C245.54,212.42,241.69,211.54,238.15,209.85z M242.26,208.18
					c-6.77,2.91-19.07-0.21-24.48-5.62c-4.19-4.19-4.91-10.89-5.48-16.53c-0.37-3.73-1.89-11.17,0.31-14.59
					c4.34-6.71,9.71-7.6,17.44-8.03c15.51-0.88,16.58,3.97,21.84,9.01c1.78,1.71,2.89,3.52,4.13,5.29
					c3.83,5.47,4.84,10.58,4.39,11.11C256.13,195.82,250.01,204.86,242.26,208.18z M222.08,148.81c0.79-2,1.47-3.7,1.92-4.78
					c0.72-1.74,1.33-4.13,1.81-6.55c5.67,5.08,6.74,15.2,13.7,18.8c1.15,0.59,2.31,0.98,3.48,1.2c-1.75,0.76-3.8,1.58-5.98,2.29
					C230.04,159.55,224.32,155.35,222.08,148.81z M235.3,160.29c-6.11,1.76-12.92,2.43-17.29-1.1c1.21-3.1,2.55-6.54,3.71-9.47
					C224.01,155.6,229.07,159.52,235.3,160.29z M223.5,143.82c-1.84,4.45-7.59,19.28-9.08,23.12c-0.39-2.54-1.26-9.6,0.15-14.4
					c0.71-2.4,1.7-4.81,2.84-7.59c1.68-4.07,3.75-9.12,5.86-16.42c1.37-1.18,2.59-2.31,3.38-3.21c0.03,0.59,0.09,1.34,0.18,2.16
					C226.49,130.73,225.12,139.92,223.5,143.82z M261.02,189.06l0.02-0.03c3.86,7.42,10.28,12.75,18.21,15.2
					c7.18,15.24,4.69,34.65-1.23,50.35c-3.04-3.05-6.04-6.74-8.25-10.35c-2.84-4.63-4.57-9.9-6.41-15
					c-3.75-10.38-6.85-21.08-7.45-32.07C257.75,194.56,259.33,191.82,261.02,189.06z M278.78,254.54
					c6.2-14.45,8.59-34.97,1.44-50.38c0.55-0.74,1.11-1.49,1.67-2.23c0.5,1.29,2.35,6.21,3.4,11.32c1.06,5.15,1.72,15.87,1.89,18.74
					c0,0.46,0.03,0.8,0.06,1.05c0.56,8.26-4.06,14.57-8.18,21.61c-0.12,0.21-0.24,0.4-0.36,0.6c-0.05-0.04-0.09-0.09-0.14-0.14
					C278.65,254.95,278.71,254.7,278.78,254.54z M269.48,158.42c0.74,0.48,1.62,0.89,2.53,1.31c2.57,1.18,5.49,2.53,6.89,6.09
					c2.32,5.88,6.18,19.77,5.31,25.35c-0.74,4.74-1.99,8.64-2.36,9.73c-2.06,2.62-3.34,2.81-6.68,1.13
					c-2.29-1.15-4.53-2.46-6.46-4.19c-3.27-2.93-5.84-6.31-7.72-10.31c-0.01-0.02-0.02-0.03-0.04-0.05
					c-0.67-5.47-5.34-12.91-10.8-18.14c-0.24-0.53-0.45-1.07-0.61-1.62c-1.77-6.06,3.21-7.28,7.97-6.98
					C261.04,160.97,267.54,162.43,269.48,158.42z M263.73,154.63c1.49,0.48,3.02,0.97,4.59,2.8c0.19,0.22,0.4,0.41,0.63,0.6
					c-2.65,6.24-15.33-1.14-19.68,4.39c-1.28,1.63-1.23,3.63-0.51,5.67c-3.39-2.94-7.11-5.33-10.15-5.42
					c-15.45-0.46-20.58,1.5-23.82,4.79c0.47-1.21,1.62-4.17,2.97-7.64c6.95,5.38,19.44,0.97,26.42-2.16
					c6.14,0.64,12.57-2.61,18.62-3.33C263.11,154.43,263.41,154.53,263.73,154.63z M228.76,134.03c1.79,2.21,8.27,5.32,14.55,8.32
					c3.57,1.71,6.94,3.33,9.32,4.7c4.29,2.49,6.29,4.3,7.61,5.51c0.56,0.51,1.01,0.91,1.48,1.22c-8.97,1.37-19.82,7.55-26.15-2.35
					c-3.1-4.85-5.21-10.8-9.6-14.72c0.55-2.88,0.94-5.69,1.14-7.33C227.42,131.19,227.93,133.01,228.76,134.03z M192.43,115.91
					c-0.01,0.03-0.38,0.69-1.06,0.6c-1.04-0.13-2.69-3.1-3.68-4.88c-0.49-0.89-0.92-1.67-1.29-2.19c-1.06-1.52-1.03-5.3,0.07-8.79
					c0.18-0.56,0.41-0.86,0.71-0.92c0.76-0.14,2.1,1.08,2.81,1.98l1.08,1.36l-0.13-1.73c-0.01-0.15-1.1-15.53,4.33-22.04
					c4.03-4.83,12.7-5.87,15.13-6.07c2.43,0.2,11.1,1.24,15.13,6.07c5.43,6.51,4.34,21.89,4.33,22.04l-0.13,1.73l1.08-1.36
					c0.72-0.9,2.06-2.12,2.81-1.98c0.29,0.05,0.53,0.36,0.71,0.92c1.1,3.49,1.13,7.27,0.07,8.79c-0.37,0.52-0.79,1.29-1.29,2.19
					c-0.99,1.78-2.64,4.76-3.68,4.88c-0.68,0.09-1.05-0.57-1.06-0.6l-1.17-2.24l0.16,2.52c0,0.05,0.33,5.39-0.83,7.54
					c-1.18,2.19-10.7,9.59-12.52,10.25c-1.03,0.37-2.5,0.51-3.61,0.56c-1.11-0.05-2.58-0.19-3.61-0.56
					c-1.83-0.67-11.35-8.06-12.53-10.25c-1.16-2.15-0.83-7.49-0.83-7.54l0.16-2.52L192.43,115.91z M184.2,266.62
					c-0.53-0.07-1.16-0.35-1.61-0.64c-2.77-1.69-5.02-4.12-6.74-6.86c0.08-4.8,0.15-10.1,0.16-14.41c0.6,2.06,1.41,4.05,2.43,6.01
					c1.11,2.16,3.47,6.65,6.13,7.38c0.4,0.11,0.74,0.11,1.01,0.03c0.11,1.22,0.18,2.44,0.19,3.67c0.01,0.9-0.04,1.81-0.08,2.71
					C185.8,265.39,185.27,266.76,184.2,266.62z M185.37,256.44c-1.76,0.79-2.83-0.71-3.75-1.92c-2.81-3.69-4.74-7.96-5.61-12.48
					c-0.02-2.86-0.09-4.99-0.24-5.76c-0.01-0.04-0.02-0.09-0.03-0.14c0.38,0.38,0.77,0.75,1.18,1.1c0.84,3.68,2.5,7.1,5.52,9.26
					c1.01,0.73,1.75,0.94,2.28,0.79c0.15,0.42,0.29,0.88,0.32,0.97c0.21,0.63,0.37,1.27,0.5,1.92c0.25,1.3,0.37,2.61,0.57,3.92
					C186.22,254.97,186.3,256.02,185.37,256.44z M184.51,246.31c-1.15,0.62-2.1-0.54-2.87-1.22c-0.66-0.58-1.16-1.25-1.68-1.96
					c-2.77-3.83-3.27-9.97-3.15-14.54c0.39,0.14,0.78,0.27,1.19,0.38c1.56,3.49,3.81,6.65,6.57,9.11c0.18,1.65,0.4,3.29,0.56,4.94
					C185.21,243.97,185.55,245.75,184.51,246.31z M185.16,235.09c-0.65,4.29-3.58-1.07-4.71-2.76c-2.18-3.26-3.58-7.3-4.06-11.34
					c1.24,0.42,2.54,0.7,3.89,0.84c0.29,0.3,0.56,0.61,0.86,0.9c0.56,0.55,1.12,1.09,1.71,1.62c0.51,0.46,1.03,1.34,1.75,1.48
					C186.75,228.23,185.58,232.35,185.16,235.09z M170.74,216.98l-0.01-0.01c0.05-1.33,0.21-2.54,0.43-3.65
					c0.91,0,1.82-0.05,2.71-0.13c1.21,2.13,2.59,4.18,4.14,6.08c0.5,0.62,1.02,1.22,1.56,1.81
					C176.27,220.6,173.27,219.22,170.74,216.98z M184.72,224.64c-0.48-0.06-0.97-0.58-1.29-0.9c-0.48-0.48-0.98-0.94-1.49-1.39
					c-0.79-0.71-1.66-1.38-2.37-2.17c-1.94-2.15-3.57-4.55-5-7.06c1.99-0.23,3.92-0.67,5.78-1.33c3.2,1.61,6.07,4.44,6.11,8.07
					c0.01,1.36-0.53,2.61-1,3.85C185.29,224.17,185.3,224.72,184.72,224.64z M171.3,212.68C171.3,212.68,171.3,212.68,171.3,212.68
					c0.51-2.28,1.33-4.52,2.48-6.67c2.6,1.9,5.48,3.35,8.25,3.49c0.62,0.03,1.22,0.05,1.81,0.06
					C179.98,211.61,175.76,212.67,171.3,212.68z M178.61,207.85c-7.75-3.33-14.62-13.11-18.15-19.35c0.27-3.14,1.94-6.89,4.44-10.54
					c2.88-4.19,6.29-8.2,8.51-9.99c6.04-4.88,11.38-4.67,16.51-4.5c7.73,0.25,14.59,1.58,18.34,7.64
					c2.14,3.45,0.69,10.85,0.31,14.59c-0.57,5.64-1.29,12.35-5.48,16.53C197.68,207.64,185.71,210.9,178.61,207.85z M141.49,204.6
					c8.11-2.45,14.66-7.96,18.53-15.58c1.72,2.83,3.26,5.6,5.14,8.22c-0.59,11.03-3.7,21.76-7.46,32.17
					c-1.84,5.1-3.57,10.37-6.41,15c-2.41,3.94-5.03,7.46-8.36,10.67C137.01,239.43,134.4,219.85,141.49,204.6z M141.96,254.34
					c-4.04-6.87-8.79-13.42-8.2-21.66c0.18-3.02,0.92-14.34,1.97-19.44c0.98-4.75,2.64-9.32,3.27-10.99
					c0.58,0.77,1.16,1.55,1.73,2.32c0.01,0.02,0.03,0.03,0.04,0.04C133.87,219.75,136.21,238.77,141.96,254.34z M206.42,166.89
					c-1.49-3.84-7.24-18.66-9.08-23.12c-2.06-4.98-3.19-15.47-3.24-15.9c0.1-0.89,0.17-1.71,0.2-2.37c0.81,0.88,1.98,1.97,3.29,3.09
					c2.1,7.24,4.16,12.26,5.83,16.31c1.14,2.78,2.13,5.18,2.84,7.59C207.68,157.29,206.81,164.35,206.42,166.89z M199.2,149.85
					c1.17,2.95,2.51,6.4,3.72,9.49c-2.92,2.92-11.1,2.84-17.52,1.16C191.74,159.79,196.89,155.83,199.2,149.85z M183.75,159.97
					l-0.05,0.02c-2.15-0.7-4.16-1.5-5.88-2.25c1.18-0.23,2.34-0.61,3.48-1.2c7-3.62,8.04-13.82,13.78-18.87
					c0.48,2.33,1.07,4.64,1.77,6.32c0.46,1.11,1.17,2.88,1.99,4.95C196.6,155.56,190.81,159.8,183.75,159.97z M160.78,152.55
					c1.32-1.2,3.33-3.02,7.61-5.51c2.37-1.38,5.75-2.99,9.32-4.7c6.27-3.01,12.76-6.11,14.55-8.32c0.75-0.93,1.24-2.52,1.55-4.16
					c0.22,1.72,0.6,4.35,1.12,7.02c-4.45,3.92-6.56,9.91-9.68,14.8c-6.38,9.97-17.32,3.64-26.33,2.33
					C159.52,153.68,160.07,153.19,160.78,152.55z M152.7,157.42c1.57-1.83,3.11-2.32,4.59-2.8c0.05-0.01,0.09-0.03,0.13-0.04
					l0.46-0.02c6.09,0.69,12.57,3.99,18.75,3.35c7.03,3.15,19.85,6.99,26.54,2.08c1.18,3.03,2.19,5.64,2.72,7.01
					c-3.32-3.18-8.79-4.65-23.77-4.26c-3.04,0.08-6.59,2.19-9.95,5.24c0.6-1.91,0.57-3.77-0.63-5.3
					c-4.36-5.56-17.13,1.92-19.71-4.47C152.15,157.97,152.45,157.71,152.7,157.42z M142.11,165.81c1.4-3.57,4.32-4.91,6.89-6.09
					c0.81-0.37,1.6-0.74,2.28-1.16c1.87,4.13,8.46,2.65,12.01,2.43c4.75-0.3,9.74,0.92,7.97,6.98c-0.13,0.44-0.28,0.87-0.46,1.29
					c-5.68,5.67-10.52,13.72-10.94,18.67c-1.88,3.97-4.43,7.32-7.69,10.23c-1.93,1.73-4.16,3.04-6.46,4.19
					c-3.2,1.61-4.38,1.45-6.3-0.87l-0.15-0.29c-0.02-0.04-1.6-4.47-2.47-10.04C135.93,185.58,139.79,171.69,142.11,165.81z
					 M131.47,202.82c0.49-2.88,3.52-7.49,4.7-9.08c0.77,3.88,1.76,6.87,2.02,7.64c-0.41,1.04-2.4,6.23-3.51,11.65
					c-1.18,5.74-1.87,17.9-1.96,19.5c-0.11,0.16-0.32,0.45-0.58,0.85C130.39,226.09,130.2,210.29,131.47,202.82z M123.64,277.17
					c-0.53-8.73,1.44-14.01,2.42-16.01c1.13,7.5,4.35,15.01,7.41,21.94c4.06,9.19,6.58,19.52,7.33,29.39c-0.08,2.04,0,3.49,0.2,4.78
					c-7.68-9.72-14.26-20.27-16.66-32.47C124.05,282.29,123.8,279.79,123.64,277.17z M137.97,357.26l-1.4-1.59
					c-0.32-3.78-1.98-9.71-2.25-10.63c0.03-0.22,0.08-0.79,0.14-1.55c1.09,2.03,2.7,4.9,4.05,6.96
					C140.13,352.92,138.7,356,137.97,357.26z M134.76,337.84c1.27,2.37,3.55,6.53,5.13,8.95c1.06,1.61,0.81,3.49,0.3,4.95
					c-0.14-0.63-0.39-1.26-0.79-1.88c-1.72-2.63-3.87-6.62-4.81-8.4C134.67,340.29,134.73,338.99,134.76,337.84z M142.01,321.84
					c0.98,4.15,1.59,6.28,1.59,8.27c0,5.13,1.61,10.78-0.23,10.78c-0.45,0-1.4-0.46-2.7-2.51c-0.87-1.38-1.13-3.28-1.38-5.12
					c-0.32-2.34-0.61-4.55-2.17-5.55c-0.38-0.24-0.8-0.28-1.23-0.12c-2.56,0.96-1.73,5.34-2.26,7.21l-0.04,0.13l0.03,0.14
					c0.68,2.91-0.35,9.85-0.36,9.92l-0.02,0.12l0.03,0.11c0.02,0.08,2.29,7.98,2.29,11.6c0,2.38-1.17,3.37-1.83,3.74
					c-0.91-2.4-4.66-12.39-5.12-14.53c-0.47-2.21-0.79-16.08-0.25-31.44c0.33-9.5-2.43-17.55-3.41-24.69
					c3.14,10.54,9.27,19.85,16.21,28.54l0.04,0.06C141.42,319.61,141.7,320.52,142.01,321.84z M144.51,294.32
					c-0.34,1.45-0.2,0.85-0.59,2.44c-1.36,3.84-2.33,7.3-2.64,9.79c-0.06,0.44-0.1,0.85-0.15,1.26c-0.81-5.91-2.34-12.77-4.3-18.22
					c-3.49-9.7-8.89-19.13-10.19-29.46c0,0,0.01-0.01,0.01-0.01l0.01-0.01v-8.88c0-6.91,4.65-14.62,6.38-17.25c0,0,0-0.01,0-0.01
					c-0.07,9.41,6.6,16.88,10.76,25.08c5.08,10,3.24,23.81,0.86,34.54C144.57,294.02,144.58,294,144.51,294.32z M152.92,269.06
					c-0.19,4.48-3.19,12.43-6.09,20.11c-0.14,0.38-0.48,1.04-0.84,1.74c1.76-8.33,2.67-16.72,0.86-25.25
					c-0.18-0.84-0.41-1.67-0.68-2.48c1.73-2.05,3.67-3.89,5.83-5.5C152.31,258.65,153.21,262.14,152.92,269.06z M159.94,226.45
					c-3.05,4.84-4.81,14.89-4.89,15.43c0,0.06,0.17,6.04-0.35,9.33c-0.5,3.17-2.69,5.57-2.71,5.59l-0.22,0.24c0,0,0,0,0,0
					c-2.15,1.6-4.1,3.42-5.84,5.44c-0.05-0.13-0.09-0.24-0.12-0.35c-0.79-2.15-1.83-4.21-2.97-6.23c3.2-3.02,6.13-6.39,9.01-11.16
					c2.81-4.67,3.84-8.28,5.76-13.29c4.13-10.79,7.45-21.93,8.14-33.41c0.11,0.15,0.22,0.3,0.34,0.45
					c0.28,2.88,0.74,7.43,1.31,11.82c0.01,0.05,0.01,0.1,0.02,0.15C166.3,213.7,162.55,222.31,159.94,226.45z M167.31,199.97
					c1.54,1.78,3.62,3.87,5.95,5.65c-2.46,4.58-3.51,9.53-3.14,14.45C169,215.66,167.9,205.8,167.31,199.97z M171.6,224.43
					c-0.65-2.52-0.89-4.71-0.88-6.65c1.52,1.28,3.2,2.26,5,2.95c0.29,2.56,0.96,5.1,1.96,7.51
					C175.35,227.51,173.28,226.21,171.6,224.43z M173.48,229.87c-0.03-0.08-0.08-0.21-0.15-0.36c-0.57-1.36-1.02-2.64-1.39-3.85
					c1.25,1.14,2.68,2.05,4.23,2.7c-0.01,0.02-0.02,0.05-0.02,0.07c-0.07,2.44,0.05,5.12,0.53,7.73c-0.47-0.44-0.92-0.9-1.34-1.39
					C174.9,233.46,174.21,231.8,173.48,229.87z M170.47,277.74c-0.52-4.23,2.32-8.7,4.01-11.38c0.31-0.48,0.55-0.87,0.75-1.2
					c6.75,3.02,14.85,8.33,13.03,17.31c-0.51,2.5-2.7,5.18-4.24,7.06c-2.16,2.63-4.18,1.42-6.44-0.37
					c-1.96-1.55-3.89-3.14-5.82-4.73C171.41,283.34,170.9,281.28,170.47,277.74z M165,328.19c1.78-7.08,3.19-12.68,2.95-16.38
					c-0.47-7.29,1.67-16.68,3.08-21.91c4.19,4.58,3.67,11.87,2.8,17.88c-1.04,7.17-2.2,17.41-9.02,21.13
					C164.88,328.66,164.94,328.42,165,328.19z M157.51,370.71c0.61-8.33,2.63-19.97,4.59-29.56c-0.64,7.47-0.44,14.04,1.25,22.9
					c1.69,8.86,7.09,21.01,9.12,32.17c0.76,4.2,1.47,14.93-0.59,20.87c-1.36,3.94-5.38,7.15-8.8,6.22
					C161.56,411.48,156.11,389.71,157.51,370.71z M159.08,490.95c-1.61-11.17-3.13-21.72-3.05-26.41
					c0.14-8.22,5.08-20.64,6.81-24.75c0.23,0.72,0.51,1.5,0.84,2.3c-3.01,6.95-9.91,23.19,1.07,77.34
					c-0.63,1.54-1.39,3.03-2.33,4.43c0.08-1.75,0.11-3.43,0.05-4.59C162.24,512.86,160.64,501.75,159.08,490.95z M165.22,518.19
					c-10.6-52.62-4.18-68.13-1.14-75.14c1.01,2.37,2.29,4.91,3.45,7.07c-0.07,12.9-0.15,25.81-0.22,38.71
					C167.25,498.14,168.45,509.1,165.22,518.19z M177.9,525.61c0.07,0.38,0.15,0.75,0.22,1.11c-3.86-4.37-3.91-11-3.93-16.95
					c0-0.87-0.01-1.72-0.02-2.54c-0.14-7.71-0.21-14.78,0.25-21.83c0.8,3.52,2.95,8.73,8.67,11.27
					C180.74,505.42,177.16,521.68,177.9,525.61z M193.04,471.35c-1.79,5.94-4.04,10.65-5.84,14.44c-1.09,2.28-2.03,4.25-2.69,6.08
					c-0.28,0.78-0.67,2.07-1.12,3.7c-5.79-2.67-8.03-8.56-8.85-11.88c0.05-0.62,0.09-1.23,0.15-1.85c0.15-1.57,0.24-3.18,0.34-4.89
					c0.26-4.48,0.39-9.06,1.78-13.37c1.05-3.26,2.7-6.3,4.64-9.12c1.94-2.84,4.37-5.27,6.39-8.04c1.18-1.62,2.28-3.3,3.31-5.02
					C192.16,446.32,195.41,463.47,193.04,471.35z M197.5,423.86c-0.82,4.47-2.88,8.81-4.95,12.82c-1.22,2.36-2.43,5.09-4.16,7.12
					c-4.75,5.57-9.88,10.96-12.19,18.07c-1.59,4.89-1.95,9.92-2.25,15.02c-0.1,1.7-0.19,3.3-0.33,4.85
					c-0.77,8.31-0.69,16.47-0.52,25.51c0.02,0.82,0.02,1.66,0.02,2.53c0.03,6.73,0.06,14.31,5.44,18.9c0.15,0.6,0.29,1.17,0.44,1.7
					c0.59,3,1.53,9.64,1.87,11.14c0.41,1.79,0.35,3.01-1.09,5.13c-1.23,1.81-3.07,3.24-4.65,4.14c1.21-1.95,3.3-5.33,3.3-5.33
					c-1.58,1.67-4.79,6.07-4.86,6.17v0c-0.59,0.74-3.37,5.35-3.96,9.56c-0.58,4.1-2.73,8.63-6.67,9.85l-0.04,0.02
					c-0.87,0.38-2.49,1.08-3.5,3.6c-0.89,2.21-3.31,3.87-5.25,4.36c-2.02,0.52-4.63-0.48-5.59-2.14l-0.03-0.05
					c-0.15-0.8-0.02-1.09,0.3-1.39c0.09-0.08,0.24-0.22,0.44-0.39c1.3-1.15,2.72-2.45,3.1-3.2c0.35-0.69,3.09-5.16,5.22-6.9
					c0,0-3.43,1.78-6.01,6.49c-0.36,0.65-2.13,2.26-2.9,2.94c-0.21,0.18-0.37,0.33-0.46,0.41c-0.56,0.53-0.73,1.13-0.58,2.08
					c-0.39,0.19-0.63,0.25-1.33-0.08c-0.6-0.28-0.77-1.06-0.82-1.64l0,0c0-0.03,0.28-3.61,6.66-11.72c0,0-2.09,1.66-3.9,4.36
					c-2.35,3.51-3.22,5.39-3.52,6.41c-0.43,0.04-0.99,0.02-1.2-0.14c-0.43-0.32-0.93-1.07-0.73-1.64c0.07-0.22,0.13-0.4,0.18-0.54
					l0,0c0.75-2.59,3.46-8.55,5.75-11.17c0,0-1.34,0.92-2.99,3.52c-1.66,2.6-2.59,4.28-3.32,6.45c-0.35-0.04-0.56-0.16-0.84-0.39
					c-0.13-0.12-0.31-0.85-0.29-1.87c0.01-0.28,0.05-0.61,0.1-0.96c0.06-0.43,0.12-0.87,0.11-1.28c0-0.11-0.01-0.22-0.03-0.32
					c0.36-1.49,1.42-4.16,4.21-7.46c0,0-1.33,1.12-2.44,2.64c-1,1.37-1.76,2.43-2.24,3.51c-0.05-0.15-0.09-0.32-0.12-0.52
					c-0.02-0.17-0.06-0.36-0.09-0.57c-0.17-0.98-0.4-2.31,0.23-2.99c0,0,2.39-3.56,3.31-4.14c1.36-0.85,10.67-8.5,11.82-11.19
					c0.28-0.66,0.53-1.36,0.77-2.05c0.71-2.03,1.45-4.12,3.19-5.6c2.49-2.12,4.26-7.44,4.26-7.44c-0.01,0.02-1.65,3.13-3.51,5.38
					c0.09-1.64,0.47-2.83,0.91-4.16c0.14-0.44,0.41-3.28,0.57-6.25c1.3-1.83,2.29-3.8,3.06-5.85l0,0c0,0,0,0,0,0
					c3.04-8.13,2.46-17.7,2.51-26.13c0.08-13.92,0.16-27.84,0.24-41.75c1.28,2.34,2.29,4.03,2.39,4.18c0,0-6.88-13.6-7.23-18.4
					c-0.2-2.79,0-4.27,0.17-5.57c0.13-1.01,0.26-1.96,0.18-3.32c-0.03-0.49-0.21-1.92-0.48-4.07c2.54,0.55,5.34-0.92,7.53-3.6
					c4.05-4.96,3.84-13.91,3.06-20.79c0.95,0.32,2.01,0.28,2.93-0.18c-0.05,1.75,0.05,3.52,0.33,5.31
					c0.9,5.56,3.29,11.65,8.13,14.97c3.86,2.65,8.75,4.07,12.71,1.47C197.76,422.28,197.63,423.14,197.5,423.86z M199.45,405.01
					c-0.49,5.86-0.96,11.47-1.45,15.46c-6.49,5.08-14.53-1.87-17.76-7.56c-3.5-6.16-3.16-13.57-1.65-20.23
					c2.78-12.22,10.66-22.54,14.13-34.55c2.15,5.04,4.03,10.17,5.06,15.61c1.39,7.36,2.04,14.8,2.45,22.25
					C199.95,399.05,199.7,402.11,199.45,405.01z M201.59,383.05c-0.36,2.79-0.69,5.87-1,9.06c-0.88-11.93-2.7-23.69-7.57-34.91
					c-8.07-18.59-15.91-36.69-16.3-57.32c-0.02-1.32,0.07-2.55,0.33-3.85c1.12-5.64,5.34,2.65,5.46,2.88
					c1.26,2.4,2.63,4.11,2.95,6.94c0.15,1.33,0.28,2.58,0.56,3.89c1.96,9.16,3.66,18.05,6.95,26.88c1.51,4.04,3.52,7.88,4.99,11.93
					c1.65,4.56,2.36,9.58,3.13,14.35c0.77,4.79,1.21,9.61,1.36,14.44C202.13,379.27,201.83,381.19,201.59,383.05z M208.99,346.66
					c-0.32,2.55-1.33,6.84-2.5,11.82c-1.15,4.91-2.49,10.63-3.57,16.31c-0.22-4.02-0.62-8.04-1.21-12.07
					c-0.79-5.42-1.88-10.89-3.75-16.05c-1.9-5.25-4.47-10.23-6.26-15.54c-3.11-9.24-3.99-18.73-6.08-28.15
					c-0.65-2.93-3.24-6.18-4.87-8.64c-0.48-0.72-1.93-1.34-2.73-0.77c-4.07,2.9-1.68,12.79-1.23,16.61
					c1.26,10.83,4.68,21.32,8.68,31.41c2.09,5.27,4.58,10.39,6.84,15.59c-3.77,13.67-14.79,27.07-15.58,41.56
					c-0.92,0.63-2.07,0.7-3.03,0.28c-0.11-0.9-0.23-1.76-0.34-2.56c-1.67-11.5-7.4-25-9.34-34.01c-1.83-8.5-1.8-17.53-0.87-26.33
					c0.52-2.4,1.02-4.57,1.46-6.4c7.73-3.66,8.57-14.08,9.83-21.78c1.04-6.33,1.36-14.08-3.22-18.78c0.55-1.97,0.94-3.19,0.95-3.24
					l0.07-0.22l-0.01-0.01c2.81,2.35,5.63,4.75,8.66,6.76c0.14,0.09,0.28,0.15,0.42,0.19c2.16,3.11,4.17,7.09,6.61,11.97
					c2.08,4.16,4.44,8.88,7.42,14.03c0.84,1.46,1.54,3.09,2.27,4.82c2.11,4.94,4.47,10.49,10.97,11.39
					C208.92,336.73,209.61,341.75,208.99,346.66z M210.82,333.91c-0.04,0-0.33,0-0.33,0c-7.25-0.01-9.49-5.28-11.87-10.86
					c-0.72-1.68-1.45-3.41-2.33-4.93c-2.96-5.13-5.31-9.83-7.39-13.98c-2.34-4.68-4.29-8.56-6.38-11.66
					c2.32-1.12,4.97-6.31,5.67-7.53c2.63-4.56,0.64-10.03-2.38-13.94c-2.26-2.93-6.64-5.38-10.08-6.94c0.03-0.1,0.04-0.2,0.04-0.28
					c0-0.2,0.01-0.99,0.04-2.19c0.01-0.45,0.02-0.91,0.02-1.37c0.99,1.45,2.12,2.79,3.43,4.01c1.23,1.15,3.76,3.56,5.51,3.59
					c1.39,0.02,1.38-1.32,1.48-2.42c0.24-2.55,0.18-5.11-0.06-7.66c0.54-0.59,0.67-1.67,0.66-2.56c-0.02-3.13-0.56-5.68-1.63-8.21
					c1.3-1.37,0.42-6.35,0.01-8.9c0-0.01,0.01-0.01,0.01-0.01c0.71-3.54,2.48-9.17,0.06-12.38c0.43-0.3,0.56-1,0.76-1.48
					c0.67-1.59,1.31-3.73,1.04-5.47c-0.49-3.16-3.08-5.71-5.94-7.26c1.38-0.53,2.72-1.17,4.02-1.94c8.24-0.15,14.15-2.66,19.23-7.74
					c3.86-3.86,4.21-11.03,4.79-16.11c0.51-4.44,1.81-11.48-0.8-15.53c-0.52-0.8-1.04-1.54-1.61-2.22c0.07-0.4,1.77-9.57-0.01-15.61
					c-0.72-2.43-1.71-4.85-2.86-7.64c-1.6-3.9-3.57-8.69-5.59-15.49c3.19,2.66,6.89,5.33,8.09,5.77c0.95,0.35,2.19,0.51,3.26,0.59
					h1.42c1.07-0.08,2.31-0.24,3.26-0.59c1.21-0.44,4.96-3.15,8.16-5.83c-2.02,6.86-4.01,11.68-5.62,15.6
					c-1.15,2.8-2.14,5.21-2.86,7.64c-1.78,6.04-0.08,15.22-0.01,15.61c0,0-1.06,1.68-1.6,2.5c-2.62,4.05-1.31,11.09-0.8,15.53
					c0.58,5.08,0.93,12.25,4.79,16.11c5.3,5.3,11.51,7.81,20.31,7.74c0.95,0.5,1.92,0.95,2.91,1.33c-2.87,1.55-5.48,4.1-5.97,7.28
					c-0.27,1.74,0.37,3.88,1.04,5.47c0.2,0.48,0.34,1.18,0.77,1.48c-2.42,3.22-0.66,8.84,0.06,12.38c0,0.01,0.01,0.01,0.01,0.02
					c-0.41,2.55-1.29,7.52,0.01,8.89c-1.07,2.54-1.61,5.08-1.63,8.21c-0.01,0.89,0.12,1.97,0.66,2.56c-0.24,2.55-0.3,5.11-0.06,7.66
					c0.1,1.09,0.1,2.44,1.48,2.42c1.74-0.03,4.28-2.44,5.51-3.59c1.49-1.4,2.75-2.94,3.84-4.64c0.01,0.72,0.02,1.42,0.04,2.11
					c0.02,1.2,0.04,1.99,0.04,2.19c0,0.09,0.02,0.19,0.05,0.3c-3.47,1.54-7.93,3.92-10.24,6.93c-3.02,3.91-5.32,9.39-2.69,13.94
					c0.72,1.25,3.65,6.78,6.07,7.72c-2.07,3.09-4.01,6.94-6.34,11.59c-2.08,4.15-4.43,8.85-7.39,13.98
					c-0.88,1.52-1.61,3.25-2.33,4.93C220.21,328.6,217.98,333.85,210.82,333.91z M220.57,391.98c-0.3-3.14-0.63-6.18-0.98-8.93
					c-0.24-1.88-0.54-3.81-0.88-5.76c0.15-4.91,0.58-9.81,1.37-14.68c0.77-4.77,1.48-9.79,3.13-14.35
					c1.47-4.06,3.48-7.89,4.99-11.93c3.29-8.82,4.99-17.71,6.95-26.88c0.28-1.31,0.41-2.56,0.56-3.89c0.32-2.82,1.69-4.54,2.95-6.94
					c0.12-0.22,4.34-8.51,5.46-2.88c0.26,1.31,0.36,2.53,0.33,3.85c-0.39,20.63-8.23,38.73-16.3,57.32
					C223.26,368.17,221.44,379.99,220.57,391.98z M221.72,405.01c-0.25-2.94-0.51-6.04-0.79-9.12c0.41-7.51,1.06-15.02,2.46-22.44
					c1.02-5.4,2.89-10.5,5.01-15.51c3.48,11.99,11.4,22.54,14.18,34.74c1.51,6.66,1.85,14.06-1.65,20.23
					c-3.23,5.69-11.27,12.64-17.76,7.56C222.69,416.48,222.22,410.87,221.72,405.01z M236.67,491.87c-0.66-1.83-1.6-3.8-2.69-6.08
					c-1.81-3.79-4.05-8.5-5.84-14.44c-2.37-7.89,0.88-25.04,1.89-29.95c1.03,1.72,2.13,3.4,3.31,5.02c2.02,2.77,4.45,5.21,6.39,8.04
					c1.93,2.82,3.58,5.86,4.64,9.12c1.39,4.31,1.52,8.89,1.78,13.37c0.1,1.71,0.19,3.32,0.34,4.89c0.05,0.55,0.09,1.09,0.13,1.63
					c-0.54,2.26-1.76,5.86-4.41,8.77c-1.18,1.29-2.63,2.44-4.43,3.28C237.34,493.92,236.95,492.65,236.67,491.87z M238.08,496.63
					c2.1-0.94,3.71-2.24,4.95-3.68c2.2-2.55,3.23-5.55,3.72-7.8c0.48,7.14,0.4,14.28,0.26,22.09c-0.01,0.83-0.02,1.68-0.02,2.54
					c-0.02,5.95-0.07,12.58-3.93,16.95c0.08-0.36,0.15-0.73,0.22-1.11C244.02,521.67,240.43,505.37,238.08,496.63z M260.3,535.45
					c-1.86-2.25-3.5-5.36-3.51-5.38c0,0,1.78,5.32,4.26,7.44c1.74,1.48,2.47,3.58,3.19,5.6c0.24,0.68,0.49,1.39,0.77,2.05
					c1.15,2.69,10.46,10.34,11.82,11.19c0.92,0.58,3.31,4.14,3.31,4.14c0.64,0.68,0.4,2.02,0.23,2.99c-0.04,0.21-0.07,0.4-0.09,0.57
					c-0.03,0.19-0.07,0.36-0.11,0.51c-0.48-1.09-1.25-2.16-2.26-3.54c-1.12-1.52-2.44-2.64-2.44-2.64c2.83,3.34,3.87,6.03,4.22,7.51
					c-0.02,0.1-0.03,0.21-0.03,0.32c-0.01,0.41,0.05,0.85,0.11,1.28c0.05,0.34,0.09,0.67,0.1,0.96c0.02,1.02-0.16,1.75-0.29,1.87
					c-0.27,0.22-0.48,0.34-0.83,0.39c-0.73-2.2-1.66-3.88-3.33-6.51c-1.65-2.59-2.99-3.52-2.99-3.52c2.25,2.56,4.88,8.3,5.7,10.98
					c0.05,0.18,0.13,0.42,0.26,0.78c0.19,0.57-0.3,1.32-0.73,1.64c-0.18,0.13-0.62,0.17-1.01,0.15c-0.13-0.84-0.8-2.7-3.64-6.94
					c-1.81-2.7-3.9-4.36-3.9-4.36c5.38,6.84,6.42,10.46,6.61,11.44l-0.01,0.29c-0.01,0.48-0.03,1.75-0.84,2.13
					c-0.7,0.33-0.94,0.27-1.33,0.08c0.15-0.95-0.02-1.55-0.58-2.08c-0.09-0.09-0.25-0.23-0.46-0.41c-0.77-0.68-2.54-2.28-2.9-2.94
					c-2.59-4.71-6.01-6.49-6.01-6.49c2.13,1.74,4.87,6.2,5.22,6.9c0.38,0.75,1.8,2.04,3.1,3.2c0.2,0.18,0.35,0.31,0.44,0.39
					c0.32,0.3,0.44,0.59,0.3,1.39l-0.03,0.05c-0.96,1.65-3.57,2.65-5.59,2.14c-1.93-0.49-4.36-2.15-5.24-4.36
					c-1.01-2.51-2.63-3.22-3.51-3.6l-0.04-0.02c-3.93-1.22-6.09-5.75-6.67-9.85c-0.59-4.21-3.36-8.82-3.96-9.56v0
					c-0.07-0.1-3.28-4.5-4.86-6.17c0,0,2.09,3.38,3.3,5.33c-1.58-0.9-3.42-2.33-4.65-4.14c-1.44-2.12-1.5-3.34-1.09-5.13
					c0.34-1.5,1.28-8.14,1.87-11.14c0.15-0.52,0.29-1.1,0.44-1.7c5.38-4.59,5.42-12.17,5.44-18.9c0-0.86,0.01-1.71,0.02-2.53
					c0.17-9.04,0.24-17.2-0.52-25.51c-0.14-1.55-0.24-3.16-0.33-4.85c-0.3-5.1-0.67-10.13-2.25-15.02
					c-2.31-7.11-7.44-12.5-12.19-18.07c-1.73-2.03-2.94-4.76-4.16-7.12c-2.07-4.01-4.13-8.35-4.95-12.82
					c-0.13-0.72-0.26-1.58-0.39-2.55c3.97,2.6,8.85,1.18,12.71-1.47c4.84-3.32,7.6-9.37,8.13-14.97c0.18-1.93,0.21-3.8,0.12-5.62
					c0.92,0.48,2.03,0.55,3.02,0.28c-0.82,6.93-1.11,16.11,3.02,21.16c2.24,2.75,5.13,4.22,7.72,3.55c-0.26,2-0.42,3.34-0.45,3.81
					c-0.08,1.35,0.05,2.31,0.18,3.32c0.17,1.31,0.37,2.79,0.17,5.57c-0.34,4.8-7.23,18.4-7.23,18.4c0.09-0.15,1.07-1.79,2.33-4.08
					c0.08,13.93,0.16,27.87,0.24,41.8c0.06,10.56-0.88,22.93,5.57,31.99c0.16,2.97,0.43,5.81,0.57,6.25
					C259.82,532.62,260.21,533.81,260.3,535.45z M253.87,488.84c-0.07-12.92-0.15-25.83-0.22-38.75c1.15-2.14,2.43-4.67,3.45-7.03
					c3.08,7.11,9.35,22.86-1.18,75.04C252.73,509.02,253.92,498.1,253.87,488.84z M265.15,464.54c0.08,4.69-1.44,15.24-3.05,26.41
					c-1.56,10.8-3.16,21.92-3.38,28.32c-0.06,1.15-0.03,2.84,0.05,4.59c-0.99-1.47-1.77-3.04-2.42-4.66
					c10.86-53.59,4.21-70.03,1.16-77.1c0.32-0.8,0.61-1.57,0.85-2.29C260.08,443.93,265,456.33,265.15,464.54z M263.72,370.57
					c1.41,19.04-4.08,40.88-5.59,52.69c-0.01,0.06-0.01,0.11-0.02,0.17c-3.46,1.1-7.6-2.16-8.99-6.17
					c-2.05-5.94-1.35-16.67-0.59-20.87c2.03-11.16,7.43-23.31,9.12-32.17c1.8-9.43,1.93-16.58,1.14-24.84
					C260.85,349.26,263.07,361.76,263.72,370.57z M257.52,333.47c1.24,9.69,1.49,19.75-0.53,29.16c-1.94,9.01-7.67,22.51-9.34,34.01
					c-0.1,0.72-0.21,1.49-0.31,2.3c-1.01,0.35-2.23,0.24-3.13-0.41c-1.11-15.77-11.6-27.74-15.39-41.54
					c2.26-5.23,4.78-10.38,6.88-15.69c4-10.09,7.42-20.58,8.68-31.41c0.45-3.82,2.84-13.71-1.23-16.61
					c-0.8-0.57-2.25,0.05-2.73,0.77c-1.63,2.46-4.22,5.71-4.87,8.64c-2.09,9.42-2.97,18.91-6.08,28.15
					c-1.79,5.31-4.36,10.29-6.26,15.54c-1.87,5.16-2.96,10.63-3.75,16.05c-0.6,4.1-1,8.2-1.22,12.3
					c-1.07-5.66-2.41-11.36-3.55-16.26c-1.17-4.97-2.17-9.27-2.5-11.82c-0.63-4.91,0.07-9.93,0.38-11.82
					c6.52-0.89,8.88-6.44,10.99-11.39c0.74-1.73,1.43-3.35,2.27-4.82c2.98-5.16,5.34-9.87,7.42-14.03
					c2.48-4.95,4.51-8.98,6.71-12.11c0.04-0.02,0.07-0.03,0.11-0.06c3.12-2.07,6.01-4.54,8.89-6.95l0.08,0.29
					c0.01,0.04,0.42,1.29,0.97,3.3c-4.67,4.69-4.34,12.49-3.29,18.86c1.27,7.74,2.11,18.21,9.94,21.83
					C256.93,330.89,257.22,332.14,257.52,333.47z M250.21,289.82c1.41,5.24,3.54,14.59,3.07,21.84c-0.24,3.71,1.17,9.3,2.95,16.38
					c0.07,0.3,0.15,0.61,0.23,0.93c-6.91-3.67-8.08-13.99-9.12-21.19C246.46,301.74,245.95,294.39,250.21,289.82z M246.75,266.22
					c1.7,2.67,4.53,7.15,4.01,11.38c-0.61,4.92-1.15,6.16-1.45,6.76c-1.96,1.61-3.92,3.22-5.91,4.8c-2.26,1.79-4.27,3-6.44,0.37
					c-1.55-1.88-3.73-4.56-4.24-7.06c-1.87-9.11,6.48-14.43,13.29-17.43C246.21,265.36,246.45,265.74,246.75,266.22z M248.29,227.83
					c-0.82,2.16-1.62,4.23-2.17,5.91c-0.62,0.77-1.3,1.49-2.01,2.18c0.48-2.6,0.6-5.29,0.53-7.73c0-0.03-0.01-0.05-0.02-0.08
					c1.78-0.75,3.4-1.83,4.78-3.22C249.04,225.87,248.66,226.86,248.29,227.83z M249.68,223.65c-1.75,2.05-4,3.54-6.55,4.34
					c0.99-2.38,1.65-4.74,1.95-7.25c1.8-0.69,3.48-1.68,5.01-2.97C250.1,220.02,249.91,222.24,249.68,223.65z M250.91,220.77
					c-0.01,0.02-0.17,0.57-0.46,1.38c0.62-5.61-0.16-11.5-2.63-16.38c2.26-1.78,4.27-3.86,5.76-5.61c0.12-0.14,0.22-0.28,0.34-0.41
					C253.31,206.04,252.14,217.07,250.91,220.77z M266.23,250.96c-0.38-10.37-2.19-19.92-5.24-24.76
					c-2.55-4.05-6.08-12.02-7.26-15.34c0-0.01,0-0.03-0.01-0.07c0.61-4.64,1.14-9.61,1.43-12.62c0.06-0.07,0.11-0.15,0.17-0.22
					c0.71,11.42,4.02,22.55,8.13,33.28c1.92,5.01,2.95,8.63,5.76,13.29c2.71,4.5,6.23,8.22,9.24,11.12
					c-1.4,2.37-2.41,4.28-3.29,6.77c-1.75-2.01-4.16-4.35-6.26-5.91C268.58,256.21,266.34,253.96,266.23,250.96z M275,291.3
					c-0.29-0.78-0.59-1.57-0.89-2.37c-2.9-7.68-5.9-15.62-6.09-20.11c-0.29-6.86,0.6-10.36,0.92-11.37c2.14,1.6,4.27,3.62,6,5.66
					c-0.28,0.86-0.55,1.8-0.82,2.85c-2.15,8.55-0.69,17.38,0.9,25.39C275.01,291.33,275,291.31,275,291.3z M276.82,296.27
					c-2.91-11.85-5.3-25.74,0.38-36.91c4.22-8.31,10.98-15.89,10.73-25.47c1.68,2.55,6.43,10.35,6.43,17.34v8.02
					c-1.06,10.77-6.69,19.87-10.29,29.89c-2.14,5.94-3.56,11.98-4.3,18.14c-0.04-0.32-0.06-0.64-0.12-0.98
					C278.91,302,277.8,298.82,276.82,296.27z M280.82,351.75c-0.5-1.46-0.75-3.34,0.3-4.95c1.58-2.42,3.86-6.58,5.13-8.95
					c0.03,1.14,0.09,2.44,0.16,3.63c-0.94,1.77-3.08,5.77-4.81,8.4C281.21,350.49,280.96,351.12,280.82,351.75z M283.04,357.27
					c-0.73-1.26-2.16-4.35-0.54-6.81c1.35-2.06,2.95-4.94,4.05-6.96c0.06,0.76,0.11,1.33,0.14,1.55c-0.26,0.92-1.92,6.86-2.25,10.63
					L283.04,357.27z M296.17,289.22c-0.89,7.3-3.86,15.58-3.51,25.38c0.54,15.36,0.22,29.23-0.25,31.44
					c-0.46,2.14-4.21,12.13-5.12,14.53c-0.66-0.37-1.83-1.36-1.83-3.74c0-3.62,2.27-11.52,2.29-11.6l0.03-0.11l-0.02-0.12
					c-0.01-0.07-1.04-7.02-0.36-9.92l0.03-0.14l-0.04-0.13c-0.54-1.86,0.3-6.24-2.26-7.21c-0.43-0.16-0.85-0.12-1.23,0.12
					c-1.56,1-1.86,3.21-2.17,5.55c-0.25,1.84-0.5,3.75-1.38,5.12c-1.3,2.05-2.24,2.51-2.7,2.51c-1.84-0.01-0.23-5.65-0.23-10.78
					c0-1.99,0.61-4.12,1.59-8.27c0.35-1.5,0.68-2.66,0.91-3.93c7.1-8.91,13.32-18.49,16.33-29.38
					C296.22,288.77,296.19,288.99,296.17,289.22z M297.38,277.17c-0.1,1.64-0.36,3.45-0.52,5.03c-1.91,13.15-8.64,24.16-16.75,34.46
					c0.17-1.51,0.2-3.33-0.01-6.07c0.8-9.68,3.34-18.91,7.34-27.95c3.13-7.08,6.31-14.09,7.37-21.76
					C295.7,262.63,297.94,267.98,297.38,277.17z"/>
				<path d="M193.61,245.83c-3.8,2.45-7.02,8.63-4.72,12.91c1.07,1.99,2.37,2.64,4.68,2.46c1.66-0.13,3.37-0.99,4.93-1.52
					c2.61-0.88,5.29-1.61,7.93-2.41c1.47-0.5,3.32-1.22,3.46-2.98c0.2-2.51,0.38-7.43-1-9.7
					C206.09,239.93,197.02,243.63,193.61,245.83z M206.25,256.66c-3.86,1.17-7.69,2.39-11.52,3.62c-4.78,1.54-5.77-2.17-5.81-5.03
					c-0.04-2.74,1.46-5.27,3.22-7.3c2.95-3.41,8.01-4.48,12.39-4.74C209.7,242.89,211.26,254.97,206.25,256.66z"/>
				<path d="M214.38,257.34c2.64,0.8,5.31,1.53,7.93,2.41c1.56,0.52,3.27,1.39,4.93,1.52c2.31,0.18,3.61-0.46,4.68-2.46
					c2.3-4.29-0.92-10.46-4.72-12.91c-3.41-2.2-12.48-5.9-15.28-1.24c-1.37,2.28-1.19,7.19-1,9.7
					C211.06,256.12,212.91,256.84,214.38,257.34z M216.28,243.27c4.38,0.26,9.44,1.33,12.39,4.74c1.76,2.04,3.26,4.57,3.22,7.3
					c-0.04,2.86-1.03,6.57-5.81,5.03c-3.83-1.23-7.66-2.45-11.52-3.62C209.54,255.03,211.11,242.95,216.28,243.27z"/>
				<path d="M190.5,266.43c-2.76,4.53-0.58,11.37,0.39,15.9c1.35,6.36,2.71,12.93,6.42,18.39l0.03,0.03l0.02,0.04
					c2.33,2.69,5.68,4.96,9.25,5.57c2.4,0.41,1.48-7.15,1.5-8.02c0.22-7.5,0.9-15.01,1.07-22.51c0.04-1.79,1.52-11.08-0.98-13.9
					C203.82,256.98,193.04,262.26,190.5,266.43z M207.7,290.14c-0.12,4.09-0.24,8.19-0.36,12.28c-0.2,6.61-7.83-0.14-9.5-2.06
					c-4.73-6.98-6-16.14-7.56-24.26c-1.29-6.68,0.89-12.1,7.73-14.17c4.81-1.45,9.97-1.59,10.34,4.67
					C208.81,274.35,207.93,282.38,207.7,290.14z"/>
				<path d="M223.45,300.79l0.02-0.04l0.03-0.03c3.71-5.46,5.06-12.03,6.42-18.39c0.97-4.53,2.54-11.05,0.39-15.9
					c-1.85-4.17-12.77-9.42-17.56-4.46c-2.72,2.81-1.22,10.39-1.12,13.85l1.07,22.51c0.03,0.87-0.9,8.43,1.5,8.02
					C217.78,305.75,221.13,303.47,223.45,300.79z M213.47,302.42c-0.12-4.09-0.24-8.19-0.36-12.28c-0.23-7.76-1.1-15.79-0.64-23.54
					c0.37-6.26,5.54-6.13,10.34-4.67c6.84,2.07,9.02,7.49,7.73,14.17c-1.57,8.12-2.83,17.29-7.56,24.26
					C221.29,302.28,213.66,309.03,213.47,302.42z"/>
			</g>
		</g>
	</g>
</g>
</svg>
