<?xml version="1.0" encoding="utf-8"?>
<!-- Generator: Adobe Illustrator 26.0.1, SVG Export Plug-In . SVG Version: 6.00 Build 0)  -->
<svg version="1.1" id="Layer_1" xmlns="http://www.w3.org/2000/svg" xmlns:xlink="http://www.w3.org/1999/xlink" x="0px" y="0px"
	 viewBox="0 0 432 648" style="enable-background:new 0 0 432 648;" xml:space="preserve">
<style type="text/css">
	.st0{fill:#FFFFFF;}
	.st1{fill:#E92A2A;}
	.st2{fill:#D52626;}
	.st3{fill:#9A1A1C;}
	.st4{fill:#8D1819;}
	.st5{fill:#A89FA8;}
	.st6{fill:#998F99;}
	.st7{fill:#E9E7E9;}
</style>
<g>
	<g>
		<g id="Front_00000048493083150940045140000003775331266808213939_">
			<g>
				<g>
					<g>
						<g>
							<path class="st0" d="M276.87,258.91v-8.59c0-6.21-3.44-12.82-5.58-16.34c2.12-7.09,2.15-24.07,0.99-31.95
								c-0.7-4.79-4.04-8.69-5.68-11.19c0.03-0.19,0.07-0.38,0.1-0.58c0.9-5.79-3.03-19.99-5.39-25.98
								c-1.57-3.98-4.83-5.48-7.46-6.69c-1.42-0.65-2.65-1.22-3.34-2.03c-1.77-2.07-3.54-2.63-5.09-3.13
								c-0.41-0.13-0.8-0.26-1.18-0.41c-0.6-0.24-1.13-0.72-1.93-1.45c-1.36-1.24-3.42-3.11-7.82-5.66
								c-2.42-1.4-5.82-3.03-9.42-4.76c-5.9-2.82-12.78-6.08-14.43-8.11c-1.49-1.84-1.66-7.69-1.67-9.62
								c0.71-1.81,0.79-4.66,0.76-6.32c0.3,0.14,0.66,0.22,1.09,0.16c1.47-0.18,2.85-2.47,4.49-5.44c0.46-0.83,0.9-1.62,1.23-2.1
								c1.43-2.04,1.11-6.45,0.07-9.75c-0.3-0.96-0.82-1.52-1.54-1.65c-0.98-0.18-2.06,0.57-2.83,1.27
								c0.15-4.12,0.09-15.7-4.66-21.4c-4.09-4.91-12.28-6.13-15.38-6.42l-1.22,0c-3.1,0.29-11.29,1.51-15.38,6.42
								c-4.75,5.7-4.81,17.28-4.66,21.4c-0.77-0.71-1.84-1.45-2.82-1.27c-0.72,0.13-1.23,0.69-1.54,1.65
								c-1.04,3.3-1.35,7.71,0.07,9.75c0.33,0.48,0.77,1.27,1.23,2.1c1.65,2.97,3.02,5.26,4.49,5.44c0.43,0.05,0.79-0.02,1.09-0.16
								c-0.03,1.82,0.07,5.11,1,6.84c0,0,0,0.01,0.01,0.01c-0.04,1.36-0.33,7.17-1.91,9.13c-1.64,2.03-8.32,5.23-14.22,8.05
								c-3.6,1.72-7,3.35-9.42,4.76c-4.4,2.55-6.46,4.42-7.82,5.66c-0.8,0.73-1.33,1.21-1.93,1.45c-0.38,0.15-0.77,0.28-1.18,0.41
								c-1.56,0.5-3.32,1.06-5.09,3.13c-0.69,0.81-1.92,1.37-3.34,2.03c-2.63,1.21-5.9,2.72-7.46,6.69
								c-2.36,5.99-6.29,20.19-5.39,25.98c0.06,0.41,0.13,0.82,0.21,1.22c-1.67,2.48-4.66,6.1-5.35,10.77
								c-1.15,7.83-1.28,24.16,0.8,31.31c-2.11,3.39-5.84,10.3-5.84,16.76v8.59c-0.6,0.97-3.7,6.57-3.03,17.5
								c0.25,4.19,0.72,8.06,1.22,12.15c0.88,7.29,3.86,15.54,3.51,25.29c-0.53,14.87-0.31,29.05,0.27,31.79
								c0.54,2.51,5.18,14.73,5.38,15.25l0.17,0.45l0.47-0.12c0.03-0.01,2.81-0.8,3.05-4.47l1.48,1.69l0.39-0.55
								c0.09-0.12,1.4-1.98,1.76-4.27c0.83-1.4,2.54-4.98,0.55-8.02c-2.27-3.46-6.01-10.61-6.05-10.68l0,0
								c-0.01-0.24-0.03-0.45-0.06-0.59c0.56-4.25,0-5.8,1.58-6.39c0.13-0.05,0.2-0.03,0.28,0.02c1.15,0.74,1.42,2.72,1.7,4.81
								c0.26,1.96,0.54,3.99,1.54,5.56c1.17,1.85,2.97,4.24,5.08,2.49c1.38-1.15,0.17-9.06-0.16-11.4
								c-0.42-2.92-0.42-3.75-1.57-8.38c-0.74-2.95-1.18-4.48-1.37-5.85c-0.1-1.13,0.19-5.82,0.62-9.24
								c0.49-3.93,2.92-10.37,5.5-17.18c2.94-7.78,5.98-15.83,6.18-20.5c0.3-7.24-0.65-10.83-1-11.87c0.61-0.73,2.31-2.99,2.77-5.92
								c0.54-3.4,0.37-9.31,0.36-9.45c0.02-0.1,1.8-10.3,4.74-14.98c2.24-3.55,5.53-10.5,6.93-14.14c0.51,3.6,1.08,6.82,1.65,8.54
								c0.73,2.18,1.65,4.61,2.55,6.95c1.28,3.34,2.48,6.5,2.79,8.15c0.44,2.34,0.13,19.52,0.03,25.17
								c-0.02,1.21-0.04,2.01-0.04,2.21c0,0.01,0,0.01-0.01,0.02c-0.11,0.11-0.19,0.3-0.22,0.5c-0.23,0.41-0.58,0.97-0.91,1.49
								c-1.78,2.8-4.75,7.49-4.18,12.12c0.64,5.16,1.42,7.31,1.7,7.96c-0.59,1.86-4.9,15.97-4.23,26.14
								c0.23,3.55-1.16,9.09-2.93,16.1c-2.28,9.04-6.58,29.85-7.54,42.83c-1.42,19.2,4.09,41.18,5.61,53.06
								c0.33,2.54,0.54,4.22,0.57,4.73c0.07,1.25-0.04,2.12-0.18,3.12c-0.18,1.36-0.39,2.91-0.18,5.81
								c0.02,0.29,0.07,0.61,0.14,0.95c-0.74,1.67-7.28,16.68-7.45,26.48c-0.08,4.79,1.45,15.41,3.07,26.66
								c1.47,10.18,2.87,20.71,3.31,27.21l0.01,0.17c0.04,0.55,0.07,1.06,0.09,1.55c0.07,3.48-0.27,10.42-0.49,11.1
								c-0.52,1.59-1.01,3.11-0.97,5.45c-0.14,0.14-0.28,0.27-0.43,0.39c-1.93,1.64-2.7,3.86-3.46,6c-0.25,0.7-0.48,1.37-0.75,2
								c-1.04,2.43-10.24,10.02-11.51,10.82c-0.99,0.62-3.5,4.3-3.5,4.3c-0.94,1.01-0.65,2.67-0.46,3.76
								c0.03,0.2,0.07,0.38,0.09,0.53c0.08,0.59,0.26,0.99,0.4,1.31c0.13,0.28,0.22,0.49,0.22,0.74c0.01,0.34-0.05,0.75-0.1,1.15
								c-0.05,0.36-0.1,0.72-0.11,1.06c-0.01,0.61,0.02,2.09,0.62,2.58c0.34,0.28,0.66,0.48,1.13,0.56c-0.05,0.15-0.12,0.35-0.2,0.6
								c-0.37,1.09,0.45,2.2,1.05,2.64c0.43,0.32,1.11,0.35,1.59,0.32c0,0.09,0.02,0.15,0.03,0.2c0.07,0.77,0.33,1.83,1.32,2.3
								c1,0.47,1.51,0.36,2.1,0.08c1.15,1.58,3.48,2.55,5.57,2.35c0.27-0.03,0.54-0.07,0.8-0.14c2.16-0.55,4.86-2.41,5.87-4.91
								c0.8-2,1.98-2.66,3.02-3.11c4.31-1.36,6.65-6.15,7.28-10.6c0.55-3.93,3.07-8.21,3.73-9.09c3.01-1.26,4.79-2.85,6.33-5.11
								c1.62-2.37,1.68-3.89,1.23-5.85c-0.43-1.87-1.6-10.67-2-12.04c-0.36-1.2-0.52-2.42-0.8-3.91
								c-0.87-4.65,4.89-28.61,6.58-33.27c0.65-1.79,1.58-3.74,2.66-6c1.83-3.83,4.1-8.6,5.92-14.63
								c2.75-9.13-1.59-29.34-2.12-31.73c1.6-2.8,3.02-5.7,4.25-8.66c0.99-2.37,1.91-4.83,2.38-7.36c0.69-3.74,1.28-10.81,1.97-19
								c0.61-7.24,1.3-15.44,2.14-21.98c1.04-8.08,3.18-17.2,4.9-24.53c1.18-5.02,2.19-9.35,2.52-11.96
								c0.62-4.88,0.01-9.75-0.34-11.88c0.38,0.04,1.49,0.05,1.76,0c-0.35,2.12-0.96,6.99-0.34,11.88
								c0.33,2.61,1.35,6.94,2.52,11.96c1.72,7.33,3.86,16.45,4.9,24.53c0.84,6.55,1.53,14.75,2.14,21.98
								c0.69,8.19,1.28,15.26,1.97,19c0.47,2.53,1.39,4.99,2.38,7.36c1.23,2.96,2.65,5.86,4.25,8.66
								c-0.53,2.39-4.87,22.59-2.12,31.73c1.82,6.04,4.09,10.8,5.92,14.63c1.08,2.26,2.01,4.22,2.66,6
								c1.69,4.67,7.46,28.63,6.58,33.27c-0.28,1.49-0.44,2.71-0.8,3.91c-0.41,1.37-1.57,10.17-2,12.04
								c-0.45,1.96-0.39,3.48,1.23,5.85c1.54,2.26,3.32,3.85,6.33,5.11c0.66,0.88,3.18,5.16,3.73,9.09
								c0.62,4.45,2.97,9.25,7.28,10.6c1.04,0.45,2.22,1.11,3.02,3.11c1,2.49,3.71,4.35,5.87,4.91c0.26,0.07,0.53,0.11,0.8,0.14
								c2.09,0.2,4.43-0.76,5.57-2.35c0.59,0.28,1.09,0.4,2.1-0.08c1.07-0.51,1.29-1.73,1.34-2.5c0.47,0.03,1.16,0,1.6-0.32
								c0.6-0.45,1.42-1.56,1.05-2.64c-0.08-0.22-0.14-0.41-0.19-0.56l0,0c0-0.01-0.01-0.02-0.01-0.04
								c0.47-0.09,0.79-0.28,1.13-0.56c0.59-0.49,0.63-1.97,0.62-2.58c-0.01-0.34-0.06-0.7-0.11-1.06c-0.05-0.39-0.11-0.8-0.1-1.15
								c0-0.26,0.1-0.46,0.22-0.74c0.14-0.32,0.32-0.73,0.4-1.31c0.02-0.16,0.05-0.34,0.09-0.53c0.19-1.1,0.48-2.75-0.46-3.76
								c0,0-2.51-3.68-3.5-4.3c-1.27-0.79-10.47-8.39-11.51-10.82c-0.27-0.63-0.5-1.3-0.75-2c-0.75-2.14-1.53-4.36-3.46-6
								c-0.14-0.12-0.28-0.25-0.43-0.39c0.04-2.34-0.45-3.86-0.97-5.45c-0.22-0.68-0.56-7.62-0.49-11.1c0.02-0.48,0.05-1,0.09-1.55
								c0.01-0.06,0.02-0.12,0.03-0.17l-0.02,0c0.45-6.5,1.84-17.02,3.31-27.21c1.62-11.25,3.16-21.87,3.07-26.66
								c-0.17-9.73-6.63-24.61-7.44-26.44c0.09-0.41,0.15-0.8,0.17-1.14c0.21-2.9,0-4.45-0.18-5.81c-0.13-1-0.25-1.87-0.18-3.12
								c0.03-0.51,0.25-2.19,0.57-4.73c1.52-11.88,7.03-33.85,5.61-53.06c-0.96-12.98-5.26-33.8-7.54-42.83
								c-1.77-7.01-3.16-12.55-2.93-16.1c0.66-10.18-3.65-24.28-4.23-26.14c0.28-0.65,1.07-2.8,1.7-7.96
								c0.57-4.62-2.4-9.31-4.18-12.12c-0.52-0.82-1.11-1.76-1.14-2.01c0-0.2-0.01-1-0.04-2.21c-0.1-5.65-0.41-22.84,0.03-25.17
								c0.31-1.65,1.51-4.81,2.79-8.15c0.89-2.34,1.82-4.77,2.55-6.95c0.56-1.67,1.08-4.76,1.58-8.22c0-0.01,0-0.01,0-0.02
								c1.43,3.56,4.63,10.08,6.7,13.74c3.65,6.46,4.9,16.99,5.1,24.43c0.08,2.96,2.16,5.18,2.77,5.92c-0.34,1.04-1.3,4.63-1,11.87
								c0.19,4.67,3.24,12.72,6.18,20.5c2.58,6.81,5.01,13.25,5.5,17.18c0.35,2.84,0.7,4.67,0.73,6.07
								c0.02,1.34,0.01,2.69-0.12,4.03c-0.12,1.24-0.64,2.71-1.27,5.23c-1.16,4.64-1.16,5.46-1.58,8.38
								c-0.34,2.34-1.55,10.25-0.16,11.4c2.1,1.75,3.91-0.64,5.08-2.49c1-1.58,1.27-3.6,1.54-5.56c0.28-2.09,0.55-4.07,1.7-4.81
								c0.08-0.05,0.15-0.07,0.28-0.02c1.58,0.59,1.02,2.14,1.58,6.39c-0.03,0.15-0.05,0.35-0.06,0.59l0,0
								c-0.04,0.07-3.78,7.22-6.05,10.68c-1.99,3.04-0.28,6.63,0.55,8.02c0.37,2.3,1.68,4.15,1.76,4.27l0.39,0.55l1.48-1.69
								c0.24,3.67,3.02,4.47,3.05,4.47l0.47,0.12l0.17-0.45c0.2-0.52,4.84-12.74,5.38-15.25c0.59-2.74,0.8-16.92,0.27-31.79
								c-0.34-9.75,2.63-18.01,3.51-25.29c0.5-4.09,0.97-7.95,1.22-12.15C280.57,265.48,277.47,259.88,276.87,258.91z"/>
						</g>
					</g>
				</g>
			</g>
		</g>
	</g>
	<g>
		<g id="Upper_abs_00000019673035505528962960000002050134511127847299_">
			<g>
				<path class="st1" d="M185.33,239.31c-3.32,0.52-6.35,1.67-9.51,2.76c-8.47,2.91-5.47-8-3.14-11.73
					c2.68-4.32,8.13-6.81,13.04-7.72c5.86-1.08,4.54,5.86,4.45,8.48C190.05,234.64,190.36,238.67,185.33,239.31"/>
				<path class="st2" d="M177.21,241.59L177.21,241.59c0.23-0.08,0.46-0.16,0.69-0.24c0,0,0,0,0,0
					C177.67,241.43,177.44,241.51,177.21,241.59 M177.4,239.56c0.47-4.78,1.06-9.73,1.76-14.78c0.07-0.03,0.14-0.07,0.21-0.1
					c0.17-0.08,0.34-0.16,0.51-0.24c-0.72,5.1-1.32,10.11-1.8,14.95C177.86,239.45,177.63,239.51,177.4,239.56"/>
				<path class="st2" d="M180.72,240.42C180.72,240.42,180.72,240.42,180.72,240.42c0.23-0.07,0.46-0.14,0.68-0.21c0,0,0,0,0,0
					C181.18,240.28,180.95,240.35,180.72,240.42 M180.92,238.47c0.5-4.89,1.12-9.97,1.85-15.12c0.23-0.07,0.47-0.14,0.7-0.21
					c-0.73,5.13-1.36,10.17-1.85,15.02C181.38,238.27,181.15,238.37,180.92,238.47"/>
				<path class="st2" d="M185.97,234.42c0.47-3.8,1-7.71,1.62-11.85c0.23,0.04,0.45,0.1,0.65,0.18c-0.52,3.53-0.99,6.87-1.4,10.1
					C186.59,233.39,186.3,233.92,185.97,234.42"/>
				<path class="st2" d="M173.7,242.55L173.7,242.55c0.21-0.02,0.44-0.04,0.68-0.09l0,0C174.14,242.5,173.91,242.53,173.7,242.55
					 M173.87,240.24c0.33-4.23,0.75-8.51,1.26-12.77c0.24-0.22,0.49-0.43,0.75-0.63c-0.54,4.43-0.98,8.89-1.33,13.28
					c-0.14,0.03-0.28,0.05-0.42,0.07C174.04,240.21,173.95,240.23,173.87,240.24"/>
				<path class="st2" d="M171.83,242.24c-0.21-0.1-0.39-0.23-0.55-0.38c-0.03-0.03-0.06-0.06-0.09-0.09c0,0,0,0,0,0
					C171.37,241.96,171.58,242.11,171.83,242.24C171.83,242.24,171.83,242.24,171.83,242.24 M171.25,240.56
					c0.16-2.8,0.36-5.69,0.61-8.63c0.26-0.58,0.54-1.11,0.8-1.54c-0.31,3.46-0.55,6.85-0.74,10.12
					C171.7,240.53,171.47,240.55,171.25,240.56"/>
				<path class="st3" d="M172.96,242.54c-0.44-0.04-0.81-0.14-1.13-0.31c0.03-0.57,0.06-1.15,0.09-1.73
					c0.65-0.06,1.3-0.16,1.95-0.27c-0.06,0.77-0.12,1.54-0.17,2.31C173.43,242.56,173.19,242.56,172.96,242.54 M174.37,242.46
					c0.05-0.78,0.11-1.56,0.17-2.34c0.95-0.17,1.91-0.34,2.86-0.56c-0.07,0.68-0.13,1.36-0.19,2.03c-0.34,0.12-0.67,0.23-1.01,0.35
					c-0.13,0.04-0.25,0.09-0.38,0.13c-0.36,0.13-0.7,0.23-1.03,0.3C174.65,242.41,174.51,242.44,174.37,242.46 M171.18,241.77
					c-0.32-0.32-0.55-0.73-0.71-1.21c0.26,0.01,0.52,0.01,0.77,0C171.23,240.96,171.21,241.37,171.18,241.77 M177.9,241.35
					c0.06-0.65,0.12-1.3,0.19-1.95c0.97-0.25,1.93-0.54,2.83-0.92c-0.07,0.65-0.13,1.3-0.19,1.94
					C179.78,240.7,178.84,241.02,177.9,241.35 M181.41,240.21c0.07-0.68,0.13-1.36,0.21-2.05c0.99-0.47,1.9-1.06,2.72-1.8
					c0.63-0.58,1.18-1.23,1.64-1.94c-0.2,1.65-0.39,3.27-0.57,4.89c-0.02,0-0.05,0.01-0.07,0.01c-0.34,0.05-0.67,0.11-1,0.18
					C183.34,239.69,182.37,239.93,181.41,240.21 M186.08,239.19c0.23-2.07,0.48-4.18,0.76-6.34c0.49-1.07,0.84-2.21,1.07-3.35
					c0.44-2.2,0.47-4.45,0.44-6.7c1.79,0.79,2.06,3.13,2.01,5.26c-0.01,0.49-0.04,0.97-0.08,1.42c-0.05,0.62-0.1,1.18-0.11,1.62
					c-0.1,2.97,0.1,6.28-2.78,7.66C187.01,238.93,186.58,239.08,186.08,239.19"/>
				<path class="st4" d="M177.21,241.59c0.06-0.67,0.13-1.35,0.19-2.03c0.23-0.05,0.45-0.11,0.68-0.16
					c-0.06,0.66-0.13,1.31-0.19,1.95C177.67,241.43,177.44,241.51,177.21,241.59"/>
				<path class="st4" d="M180.72,240.41c0.06-0.64,0.13-1.29,0.19-1.94c0.24-0.1,0.47-0.2,0.7-0.31c-0.07,0.69-0.14,1.37-0.21,2.05
					C181.18,240.28,180.95,240.34,180.72,240.41"/>
				<path class="st4" d="M185.4,239.31c0.18-1.61,0.37-3.24,0.57-4.89c0.33-0.5,0.62-1.03,0.87-1.57c-0.27,2.16-0.53,4.27-0.76,6.34
					C185.87,239.23,185.64,239.27,185.4,239.31"/>
				<path class="st4" d="M173.7,242.55c0.05-0.77,0.11-1.53,0.17-2.31c0.09-0.01,0.17-0.03,0.26-0.04c0.14-0.02,0.28-0.05,0.42-0.07
					c-0.06,0.78-0.12,1.56-0.17,2.34C174.14,242.5,173.91,242.53,173.7,242.55"/>
				<path class="st4" d="M171.83,242.24c-0.25-0.12-0.46-0.28-0.64-0.47c0.02-0.4,0.04-0.81,0.06-1.21
					c0.22-0.01,0.45-0.02,0.67-0.04C171.89,241.09,171.86,241.67,171.83,242.24"/>
			</g>
			<g>
				<path class="st1" d="M197.72,239.32c3.37,0.53,6.43,1.68,9.63,2.78c8.59,2.93,5.52-7.99,3.15-11.72
					c-2.73-4.33-8.25-6.83-13.23-7.75c-5.94-1.09-4.58,5.85-4.48,8.46C192.93,234.63,192.62,238.67,197.72,239.32"/>
				<path class="st2" d="M205.95,241.61c-0.23-0.08-0.46-0.16-0.7-0.24c0,0,0,0,0,0C205.49,241.45,205.72,241.53,205.95,241.61
					L205.95,241.61 M205.75,239.58c-0.23-0.05-0.46-0.11-0.69-0.17c-0.49-4.84-1.12-9.86-1.86-14.95c0.17,0.08,0.35,0.16,0.52,0.24
					c0.07,0.03,0.14,0.07,0.21,0.1C204.65,229.84,205.27,234.8,205.75,239.58"/>
				<path class="st2" d="M202.39,240.43c-0.23-0.07-0.46-0.14-0.69-0.21c0,0,0,0,0,0C201.93,240.29,202.16,240.36,202.39,240.43
					C202.39,240.43,202.39,240.43,202.39,240.43 M202.19,238.49c-0.24-0.1-0.48-0.2-0.71-0.31c-0.52-4.85-1.16-9.89-1.91-15.02
					c0.24,0.07,0.47,0.13,0.71,0.21C201.03,228.52,201.67,233.59,202.19,238.49"/>
				<path class="st2" d="M197.06,234.42c-0.48-3.8-1.03-7.71-1.66-11.86c-0.24,0.04-0.46,0.1-0.66,0.18
					c0.54,3.53,1.02,6.88,1.44,10.1C196.43,233.39,196.72,233.92,197.06,234.42"/>
				<path class="st2" d="M209.51,242.58c-0.22-0.02-0.44-0.05-0.68-0.09l0,0C209.07,242.53,209.29,242.56,209.51,242.58
					L209.51,242.58 M209.33,240.27c-0.09-0.01-0.17-0.03-0.26-0.04c-0.14-0.02-0.28-0.05-0.43-0.08c-0.36-4.39-0.82-8.84-1.38-13.28
					c0.26,0.2,0.51,0.41,0.76,0.63C208.55,231.76,208.99,236.04,209.33,240.27"/>
				<path class="st2" d="M211.4,242.27C211.4,242.27,211.4,242.27,211.4,242.27c0.25-0.13,0.47-0.28,0.65-0.47c0,0,0,0,0,0
					c-0.03,0.03-0.06,0.06-0.09,0.09C211.8,242.04,211.61,242.17,211.4,242.27 M211.99,240.59c-0.23-0.01-0.45-0.03-0.68-0.05
					c-0.19-3.27-0.45-6.67-0.77-10.12c0.27,0.43,0.55,0.96,0.82,1.54C211.61,234.91,211.82,237.8,211.99,240.59"/>
				<path class="st3" d="M210.26,242.57c-0.23,0.02-0.48,0.02-0.75,0c-0.06-0.77-0.12-1.53-0.18-2.31c0.65,0.11,1.31,0.22,1.97,0.28
					c0.03,0.58,0.07,1.15,0.1,1.73C211.08,242.43,210.7,242.54,210.26,242.57 M208.83,242.49c-0.14-0.02-0.28-0.06-0.43-0.09
					c-0.33-0.08-0.67-0.18-1.04-0.3c-0.13-0.04-0.26-0.09-0.38-0.13c-0.34-0.12-0.68-0.24-1.02-0.35c-0.06-0.67-0.13-1.35-0.2-2.03
					c0.96,0.22,1.93,0.4,2.89,0.57C208.71,240.93,208.77,241.71,208.83,242.49 M212.05,241.8c-0.02-0.4-0.04-0.81-0.07-1.21
					c0.26,0.01,0.52,0.01,0.78,0C212.61,241.07,212.38,241.48,212.05,241.8 M205.25,241.37c-0.95-0.33-1.91-0.65-2.87-0.94
					c-0.06-0.64-0.13-1.29-0.2-1.94c0.92,0.38,1.88,0.68,2.87,0.93C205.13,240.07,205.19,240.72,205.25,241.37 M201.69,240.22
					c-0.97-0.28-1.96-0.53-2.96-0.72c-0.33-0.07-0.67-0.12-1.01-0.18c-0.02,0-0.05-0.01-0.07-0.01c-0.18-1.61-0.38-3.24-0.59-4.89
					c0.47,0.71,1.03,1.37,1.67,1.95c0.82,0.74,1.76,1.33,2.76,1.8C201.55,238.86,201.63,239.54,201.69,240.22 M196.96,239.19
					c-0.5-0.11-0.94-0.26-1.32-0.44c-2.92-1.38-2.72-4.69-2.83-7.66c-0.02-0.44-0.07-1-0.12-1.62c-0.03-0.45-0.07-0.93-0.08-1.42
					c-0.06-2.13,0.21-4.47,2.02-5.25c-0.02,2.25,0.01,4.5,0.46,6.7c0.23,1.15,0.59,2.29,1.09,3.35
					C196.46,235.01,196.72,237.12,196.96,239.19"/>
				<path class="st4" d="M205.95,241.61c-0.06-0.67-0.13-1.35-0.2-2.03c-0.23-0.05-0.46-0.11-0.69-0.17
					c0.07,0.66,0.13,1.31,0.19,1.95C205.49,241.45,205.72,241.53,205.95,241.61"/>
				<path class="st4" d="M202.39,240.43c-0.06-0.64-0.13-1.29-0.2-1.94c-0.24-0.1-0.48-0.2-0.71-0.31c0.07,0.69,0.15,1.37,0.21,2.05
					C201.93,240.29,202.16,240.36,202.39,240.43"/>
				<path class="st4" d="M197.65,239.31c-0.18-1.61-0.38-3.24-0.59-4.89c-0.33-0.5-0.63-1.03-0.88-1.58
					c0.28,2.16,0.54,4.27,0.78,6.34C197.17,239.24,197.4,239.28,197.65,239.31"/>
				<path class="st4" d="M209.51,242.57c-0.06-0.77-0.12-1.53-0.18-2.31c-0.09-0.01-0.17-0.03-0.26-0.04
					c-0.14-0.02-0.28-0.05-0.43-0.08c0.06,0.78,0.13,1.56,0.18,2.34C209.07,242.53,209.29,242.56,209.51,242.57"/>
				<path class="st4" d="M211.4,242.27c0.25-0.12,0.47-0.28,0.65-0.47c-0.02-0.4-0.04-0.81-0.07-1.21
					c-0.23-0.01-0.45-0.03-0.68-0.05C211.34,241.13,211.37,241.7,211.4,242.27"/>
			</g>
			<g>
				<path class="st1" d="M189.67,213.02c-0.62,3.3-3.3,5.06-5.98,6.66c-2.81,1.66-12.75,8.17-13.49,1.49
					c-0.64-5.78,1.06-9.85,6.39-12.47c3.24-1.59,8.43-4.64,12-4.03C191.07,206.12,190.07,210.87,189.67,213.02"/>
				<path class="st2" d="M178.22,219.06c0.25-3.83,0.57-7.73,0.93-11.65c0.24-0.12,0.48-0.24,0.73-0.36
					c-0.37,3.95-0.69,7.88-0.94,11.73C178.7,218.87,178.46,218.97,178.22,219.06"/>
				<path class="st2" d="M181.86,217.24c0.26-3.81,0.58-7.66,0.94-11.51c0.24-0.1,0.48-0.19,0.72-0.27
					c-0.36,3.76-0.67,7.54-0.94,11.28C182.35,216.91,182.11,217.07,181.86,217.24"/>
				<path class="st2" d="M187.23,211.3c0.18-2.13,0.38-4.36,0.61-6.7c0.24,0.01,0.47,0.03,0.69,0.06c0,0,0,0,0,0l-0.06-0.01
					c0.01,0.11,0.02,0.23,0.03,0.34c-0.12,1.27-0.24,2.51-0.35,3.72C187.93,209.6,187.62,210.47,187.23,211.3"/>
				<path class="st2" d="M174.07,224.07C174.07,224.06,174.07,224.06,174.07,224.07c0.23-0.03,0.46-0.07,0.7-0.12l0,0
					C174.53,224,174.3,224.04,174.07,224.07 M174.27,220.11c0.2-3.48,0.46-7.02,0.77-10.55c0.24-0.15,0.48-0.3,0.74-0.44
					c-0.32,3.64-0.59,7.27-0.8,10.86c-0.13,0.03-0.26,0.05-0.39,0.08C174.48,220.08,174.38,220.1,174.27,220.11"/>
				<path class="st2" d="M171.69,223.77c-0.23-0.12-0.43-0.27-0.62-0.46c-0.02-0.02-0.05-0.05-0.07-0.07c0,0,0,0,0-0.01
					C171.2,223.45,171.43,223.63,171.69,223.77C171.69,223.77,171.69,223.77,171.69,223.77 M171.79,220.26
					c-0.23-0.02-0.47-0.05-0.7-0.09c0.08-2.31,0.19-4.62,0.32-6.93c0.01-0.02,0.02-0.03,0.03-0.05c0.22-0.38,0.46-0.75,0.74-1.1
					C172.02,214.83,171.89,217.56,171.79,220.26"/>
				<path class="st3" d="M173.3,224.12c-0.6,0-1.15-0.11-1.61-0.35c0.03-1.16,0.07-2.33,0.11-3.5c0.2,0.01,0.4,0.02,0.6,0.02
					c0.63,0,1.26-0.07,1.88-0.17c-0.08,1.32-0.14,2.64-0.2,3.95C173.8,224.1,173.55,224.12,173.3,224.12 M174.77,223.94
					c0.06-1.31,0.13-2.63,0.2-3.96c1.1-0.22,2.19-0.53,3.24-0.93c-0.08,1.27-0.16,2.52-0.23,3.77c-0.75,0.34-1.51,0.64-2.25,0.87
					C175.41,223.79,175.09,223.88,174.77,223.94 M171,223.23c-0.41-0.47-0.7-1.14-0.8-2.07c-0.05-0.43-0.08-0.85-0.1-1.26
					c0.32,0.12,0.65,0.21,1,0.28C171.06,221.2,171.03,222.22,171,223.23 M178.7,222.49c0.07-1.23,0.15-2.47,0.23-3.72
					c1.02-0.43,2-0.94,2.92-1.54c-0.09,1.23-0.16,2.46-0.24,3.68c-0.78,0.45-1.67,0.95-2.59,1.41
					C178.92,222.39,178.81,222.44,178.7,222.49 M182.34,220.49c0.08-1.25,0.16-2.5,0.25-3.76c1.15-0.83,2.19-1.8,3.07-2.92
					c0.61-0.78,1.14-1.63,1.57-2.52c-0.19,2.2-0.35,4.3-0.49,6.34c-0.68,0.56-1.43,1.06-2.2,1.54c-0.28,0.17-0.57,0.35-0.85,0.51
					c-0.18,0.11-0.39,0.23-0.62,0.37C182.85,220.19,182.6,220.33,182.34,220.49 M187.48,216.97c0.19-2.61,0.41-5.34,0.67-8.25
					c0.3-1.22,0.42-2.48,0.35-3.72c0.01-0.11,0.02-0.22,0.03-0.34l0.06,0.01c0,0,0.01,0,0.02,0c0,0,0.01,0.01,0.01,0.01
					c2.45,1.46,1.45,6.2,1.05,8.34C189.36,214.66,188.55,215.92,187.48,216.97"/>
				<path class="st4" d="M177.98,222.83c0.07-1.25,0.15-2.5,0.23-3.77c0.24-0.09,0.48-0.19,0.72-0.28
					c-0.08,1.25-0.16,2.49-0.23,3.72C178.46,222.61,178.22,222.72,177.98,222.83"/>
				<path class="st4" d="M181.62,220.92c0.07-1.22,0.15-2.45,0.24-3.68c0.25-0.16,0.49-0.33,0.73-0.5
					c-0.09,1.26-0.17,2.51-0.25,3.76C182.12,220.63,181.87,220.77,181.62,220.92"/>
				<path class="st4" d="M186.74,217.63c0.14-2.03,0.3-4.14,0.49-6.34c0.39-0.83,0.71-1.69,0.92-2.58
					c-0.26,2.91-0.48,5.64-0.67,8.25C187.24,217.2,187,217.42,186.74,217.63 M188.5,205c-0.01-0.11-0.02-0.23-0.03-0.34l0.06,0.01
					C188.52,204.77,188.51,204.89,188.5,205"/>
				<path class="st4" d="M174.07,224.06c0.06-1.31,0.13-2.63,0.2-3.95c0.1-0.02,0.21-0.04,0.31-0.05c0.13-0.02,0.26-0.05,0.39-0.08
					c-0.08,1.33-0.15,2.65-0.2,3.96C174.54,223.99,174.3,224.03,174.07,224.06"/>
				<path class="st4" d="M171.69,223.77c-0.26-0.13-0.49-0.31-0.68-0.53c0.03-1.02,0.06-2.03,0.1-3.05c0.23,0.04,0.46,0.07,0.7,0.09
					C171.75,221.44,171.71,222.61,171.69,223.77"/>
			</g>
			<g>
				<path class="st1" d="M192.99,213.05c0.62,3.3,3.3,5.06,5.98,6.66c2.81,1.66,12.75,8.17,13.49,1.49
					c0.64-5.78-1.06-9.85-6.39-12.47c-3.24-1.59-8.43-4.64-12-4.03C191.59,206.14,192.59,210.9,192.99,213.05"/>
				<path class="st2" d="M204.44,219.08c-0.25-3.83-0.57-7.73-0.93-11.65c-0.24-0.12-0.48-0.24-0.73-0.36
					c0.37,3.95,0.69,7.88,0.94,11.73C203.97,218.9,204.2,218.99,204.44,219.08"/>
				<path class="st2" d="M200.81,217.26c-0.26-3.81-0.58-7.66-0.94-11.51c-0.24-0.1-0.48-0.19-0.72-0.27
					c0.36,3.76,0.67,7.54,0.94,11.28C200.31,216.93,200.56,217.1,200.81,217.26"/>
				<path class="st2" d="M195.44,211.32c-0.18-2.13-0.38-4.36-0.61-6.7c-0.24,0.01-0.47,0.03-0.69,0.06c0,0,0,0,0,0l0.06-0.01
					c-0.01,0.11-0.02,0.23-0.03,0.34c0.12,1.27,0.24,2.51,0.35,3.72C194.73,209.63,195.04,210.5,195.44,211.32"/>
				<path class="st2" d="M208.59,224.09c-0.23-0.03-0.46-0.07-0.7-0.12l0,0C208.13,224.02,208.36,224.06,208.59,224.09
					C208.59,224.09,208.59,224.09,208.59,224.09 M208.39,220.14c-0.1-0.02-0.21-0.04-0.31-0.05c-0.13-0.02-0.26-0.05-0.39-0.08
					c-0.21-3.58-0.47-7.22-0.8-10.86c0.25,0.14,0.5,0.29,0.74,0.44C207.93,213.13,208.19,216.66,208.39,220.14"/>
				<path class="st2" d="M210.98,223.8C210.98,223.79,210.98,223.79,210.98,223.8c0.26-0.14,0.49-0.32,0.68-0.54c0,0,0,0,0,0.01
					c-0.02,0.02-0.05,0.05-0.07,0.07C211.41,223.53,211.21,223.68,210.98,223.8 M210.87,220.29c-0.1-2.7-0.23-5.43-0.39-8.16
					c0.28,0.35,0.52,0.72,0.74,1.1c0.01,0.02,0.02,0.03,0.03,0.05c0.13,2.31,0.24,4.62,0.32,6.93
					C211.34,220.24,211.1,220.27,210.87,220.29"/>
				<path class="st3" d="M209.37,224.14c-0.25,0-0.51-0.02-0.77-0.05c-0.06-1.31-0.13-2.63-0.2-3.95c0.62,0.1,1.26,0.17,1.88,0.17
					c0.2,0,0.4-0.01,0.6-0.02c0.04,1.17,0.08,2.34,0.11,3.5C210.52,224.04,209.97,224.14,209.37,224.14 M207.89,223.97
					c-0.31-0.07-0.63-0.15-0.96-0.25c-0.74-0.23-1.5-0.53-2.25-0.87c-0.07-1.25-0.15-2.5-0.23-3.77c1.05,0.4,2.14,0.7,3.24,0.93
					C207.76,221.34,207.83,222.66,207.89,223.97 M211.66,223.26c-0.03-1.02-0.06-2.03-0.1-3.05c0.34-0.06,0.68-0.15,1-0.28
					c-0.02,0.41-0.05,0.83-0.1,1.26C212.36,222.12,212.08,222.79,211.66,223.26 M203.96,222.52c-0.11-0.05-0.22-0.11-0.33-0.16
					c-0.93-0.46-1.82-0.96-2.59-1.41c-0.07-1.22-0.15-2.45-0.24-3.68c0.92,0.6,1.9,1.11,2.92,1.54
					C203.81,220.05,203.89,221.29,203.96,222.52 M200.32,220.52c-0.26-0.16-0.5-0.3-0.73-0.44c-0.23-0.14-0.44-0.27-0.62-0.37
					c-0.28-0.17-0.57-0.34-0.85-0.51c-0.77-0.47-1.52-0.97-2.2-1.54c-0.14-2.03-0.3-4.14-0.49-6.34c0.43,0.9,0.96,1.75,1.57,2.52
					c0.88,1.11,1.92,2.09,3.07,2.92C200.16,218.02,200.24,219.27,200.32,220.52 M195.18,216.99c-1.07-1.05-1.88-2.3-2.19-3.94
					c-0.4-2.15-1.4-6.88,1.05-8.34c0,0,0.01,0,0.01-0.01c0,0,0.01,0,0.02,0l0.06-0.01c0.01,0.11,0.02,0.22,0.03,0.34
					c-0.08,1.24,0.05,2.5,0.35,3.72C194.77,211.65,195,214.38,195.18,216.99"/>
				<path class="st4" d="M204.68,222.85c-0.07-1.25-0.15-2.5-0.23-3.77c-0.24-0.09-0.48-0.19-0.72-0.28
					c0.08,1.25,0.16,2.49,0.23,3.72C204.2,222.63,204.44,222.74,204.68,222.85"/>
				<path class="st4" d="M201.04,220.94c-0.07-1.22-0.15-2.45-0.24-3.68c-0.25-0.16-0.49-0.33-0.73-0.5
					c0.09,1.26,0.17,2.51,0.25,3.76C200.55,220.65,200.79,220.8,201.04,220.94"/>
				<path class="st4" d="M195.93,217.66c-0.26-0.21-0.51-0.43-0.75-0.67c-0.19-2.61-0.41-5.34-0.67-8.25
					c0.22,0.89,0.53,1.75,0.92,2.58C195.62,213.52,195.78,215.62,195.93,217.66 M194.17,205.02c-0.01-0.11-0.02-0.22-0.03-0.34
					l0.06-0.01C194.18,204.8,194.17,204.91,194.17,205.02"/>
				<path class="st4" d="M208.59,224.09c-0.06-1.31-0.13-2.63-0.2-3.95c-0.1-0.02-0.21-0.04-0.31-0.05
					c-0.13-0.02-0.26-0.05-0.39-0.08c0.08,1.33,0.15,2.65,0.2,3.96C208.13,224.02,208.36,224.06,208.59,224.09"/>
				<path class="st4" d="M210.98,223.79c0.26-0.13,0.49-0.31,0.68-0.53c-0.03-1.02-0.06-2.03-0.1-3.05
					c-0.23,0.04-0.46,0.07-0.7,0.09C210.91,221.46,210.95,222.63,210.98,223.79"/>
			</g>
		</g>
		<g id="Front_00000126296935850462696700000010915302316853495961_">
			<path class="st5" d="M191.61,139.26c-0.89-0.07-1.76-0.26-2.59-0.56c-0.17-1.54-0.35-3.11-0.54-4.72c0.44,0.1,0.9,0.18,1.36,0.24
				c0.36,0.05,0.72,0.08,1.06,0.11h1.43c0.33-0.03,0.69-0.06,1.04-0.11c0.45-0.06,0.9-0.13,1.32-0.23
				c-0.19,1.61-0.37,3.19-0.55,4.73C193.33,139.01,192.48,139.19,191.61,139.26 M194.84,138.44c0.17-1.54,0.35-3.09,0.53-4.64
				c0.08-0.02,0.15-0.05,0.22-0.08c0.51-0.18,1.46-0.77,2.64-1.58c-0.13,1.6-0.38,3.19-0.7,4.75
				C196.68,137.5,195.78,138.03,194.84,138.44 M188.33,138.42c-0.94-0.42-1.85-0.96-2.7-1.56c-0.32-1.56-0.57-3.14-0.69-4.74
				c1.2,0.83,2.18,1.43,2.69,1.62c0.06,0.02,0.11,0.04,0.17,0.06C187.97,135.33,188.15,136.88,188.33,138.42 M198.33,136.3
				c0.28-1.53,0.49-3.08,0.59-4.64c1.5-1.07,3.25-2.43,4.86-3.77c-0.5,1.69-1,3.26-1.49,4.72c-0.49,0.55-1.01,1.08-1.54,1.59
				C199.99,134.92,199.19,135.64,198.33,136.3 M184.82,136.25c-0.83-0.65-1.62-1.35-2.35-2.05c-0.54-0.51-1.05-1.04-1.54-1.59
				c-0.49-1.46-0.99-3.03-1.49-4.72c1.59,1.33,3.32,2.67,4.8,3.73C184.33,133.18,184.54,134.73,184.82,136.25"/>
			<path class="st6" d="M185.63,136.85c-0.27-0.19-0.54-0.4-0.81-0.6c-0.28-1.53-0.49-3.07-0.58-4.63c0.24,0.17,0.47,0.33,0.69,0.49
				C185.06,133.71,185.31,135.29,185.63,136.85"/>
			<path class="st6" d="M189.02,138.7c-0.12-0.04-0.23-0.09-0.35-0.13c-0.12-0.05-0.23-0.1-0.35-0.15
				c-0.17-1.54-0.35-3.09-0.53-4.63c0.22,0.07,0.44,0.13,0.68,0.19C188.67,135.59,188.85,137.16,189.02,138.7"/>
			<path class="st6" d="M197.53,136.9c0.32-1.56,0.57-3.14,0.7-4.75c0.22-0.15,0.45-0.32,0.69-0.49c-0.09,1.57-0.3,3.11-0.59,4.64
				C198.07,136.5,197.8,136.7,197.53,136.9"/>
			<path class="st6" d="M194.14,138.72c0.17-1.54,0.35-3.12,0.55-4.73c0.24-0.05,0.46-0.11,0.68-0.18
				c-0.18,1.55-0.36,3.09-0.53,4.64c-0.1,0.04-0.19,0.08-0.29,0.12C194.41,138.62,194.28,138.67,194.14,138.72"/>
			<path class="st7" d="M189.88,169.66c-0.11-0.21-0.23-0.42-0.36-0.61c-0.06-0.09-0.12-0.18-0.18-0.27
				c0.51-7.87-0.1-15.15-1.81-21.68c-0.25-0.96-0.51-1.92-0.77-2.87c-0.71-2.6-1.44-5.26-1.94-7.97c0.26,0.21,0.53,0.41,0.81,0.6
				c0.44,2.12,1,4.21,1.56,6.25c0.69,2.55,1.41,5.18,1.86,7.85c1.06,6.21,1.36,12.26,0.91,18.51
				C189.95,169.54,189.92,169.6,189.88,169.66"/>
			<path class="st7" d="M191.02,173.95c-0.08-0.81-0.2-1.59-0.4-2.33c0.51-5.36-0.03-10.82-0.55-16.12
				c-0.09-0.87-0.17-1.75-0.25-2.61c-0.44-4.74-0.94-9.59-1.49-14.47c0.11,0.05,0.23,0.1,0.35,0.15c0.12,0.05,0.23,0.09,0.35,0.13
				c0.66,5.82,1.19,11.16,1.64,16.2c0.06,0.7,0.12,1.39,0.19,2.09C191.35,162.55,191.87,168.29,191.02,173.95"/>
			<path class="st7" d="M193.93,168.91c-0.51-7.89-0.01-15.27,1.7-21.82c0.25-0.96,0.51-1.92,0.77-2.87
				c0.71-2.58,1.43-5.23,1.93-7.92c-0.26,0.2-0.53,0.4-0.81,0.6c-0.43,2.11-1,4.18-1.55,6.21c-0.69,2.55-1.41,5.18-1.86,7.85
				c-1.06,6.21-1.22,12.84-0.77,19.08L193.93,168.91z"/>
			<path class="st7" d="M192.31,173.59c-0.91-5.73-0.5-10.98,0.02-16.62c0.06-0.69,0.13-1.39,0.19-2.08
				c0.44-5.04,0.98-10.37,1.63-16.18c0.14-0.05,0.27-0.1,0.41-0.15c0.1-0.04,0.19-0.08,0.29-0.12c-0.55,4.87-1.04,9.71-1.48,14.44
				c-0.08,0.87-0.17,1.74-0.25,2.61c-0.53,5.36-0.98,11.15-0.45,16.56c-0.19,0.76-0.02,0.6-0.09,1.43L192.31,173.59z"/>
			<g>
				<path class="st5" d="M222.96,446.72c0.45,0,0.9-0.03,1.35-0.11c2.29-0.38,3.99-1.69,5.46-3.28c-0.01,0-0.02,0-0.02,0l-0.21,0.01
					c-3.06,0-13.47-8.48-15.8-11.07c0,0,13.56,10.01,15.76,10.01c0.03,0,0.06,0,0.09-0.01c1.84-0.28,7.11-8.92,7.22-9.11h0
					c0,0-0.08,0.14-0.24,0.38c-1.75,1.91-4.25,3.21-6.83,3.21c-0.14,0-0.27,0-0.41-0.01c-2.84-0.15-5.61-2.1-6.32-4.82
					c-0.52-2.03,0.11-4.22,1.23-6c1.13-1.78,2.71-3.22,4.28-4.65c-3.26,1.09-4.79,1.77-6.52,2.98c-1.26,0.87-5.26,2.74-8.2,2.74
					c-1.1,0-2.05-0.26-2.65-0.95c-0.6-0.69-1.21-1.37-1.68-2.15c-0.26-0.43-0.53-0.86-0.79-1.3c-0.41-0.02-0.81-0.07-1.21-0.15
					c-1.03-0.19-2.04-0.57-3-1.17c0.13,0.96,0.25,1.8,0.38,2.51c0.82,4.48,2.89,8.84,4.96,12.86c0.34,0.65,0.67,1.33,1.02,2.02
					c0.93,1.81,1.93,3.67,3.21,5.16l0.1,0.11c0.8,0.35,1.59,0.68,2.32,1.01C218.52,445.88,220.73,446.72,222.96,446.72"/>
				<path class="st5" d="M160.49,446.72c-0.45,0-0.9-0.03-1.35-0.11c-2.29-0.38-3.99-1.69-5.46-3.28c0.01,0,0.02,0,0.02,0l0.21,0.01
					c3.06,0,13.47-8.48,15.8-11.07c0,0-13.56,10.01-15.76,10.01c-0.03,0-0.06,0-0.09-0.01c-1.84-0.28-7.11-8.92-7.22-9.11h0
					c0,0,0.08,0.14,0.24,0.38c1.75,1.91,4.25,3.21,6.83,3.21c0.14,0,0.27,0,0.41-0.01c2.84-0.15,5.61-2.1,6.32-4.82
					c0.52-2.03-0.11-4.22-1.23-6c-1.13-1.78-2.71-3.22-4.28-4.65c3.26,1.09,4.79,1.77,6.52,2.98c1.26,0.87,5.26,2.74,8.2,2.74
					c1.1,0,2.05-0.26,2.65-0.95c0.6-0.69,1.21-1.37,1.68-2.15c0.26-0.43,0.53-0.86,0.79-1.3c0.41-0.02,0.81-0.07,1.21-0.15
					c1.03-0.19,2.04-0.57,3-1.17c-0.13,0.96-0.25,1.8-0.38,2.51c-0.82,4.48-2.89,8.84-4.96,12.86c-0.34,0.65-0.67,1.33-1.02,2.02
					c-0.93,1.81-1.93,3.67-3.21,5.16l-0.1,0.11c-0.8,0.35-1.59,0.68-2.32,1.01C164.93,445.88,162.72,446.72,160.49,446.72"/>
				<g>
					<g>
						<path d="M185.33,239.32c-3.32,0.51-6.35,1.66-9.51,2.75c-8.47,2.92-5.46-7.99-3.14-11.73c2.69-4.32,8.13-6.8,13.04-7.71
							c5.87-1.08,4.53,5.85,4.44,8.47C190.05,234.63,190.36,238.67,185.33,239.32 M190.82,231.15c0.07-1.94,0.19-3.85,0.04-5.79
							c-0.52-6.76-10.98-1.77-13.76-0.09c-5.37,3.24-8.23,9.53-7.48,15.6c0.15,1.23,1.13,2.86,2.65,2.69
							c4.55-0.51,8.65-2.92,13.2-3.63c2.37-0.31,3.83-0.73,4.91-2.84C191.17,235.54,190.76,232.83,190.82,231.15"/>
						<path d="M197.72,239.32c-5.09-0.66-4.79-4.7-4.92-8.23c-0.1-2.62-1.47-9.56,4.48-8.46c4.98,0.92,10.5,3.41,13.23,7.74
							c2.36,3.75,5.43,14.66-3.15,11.72C204.16,241,201.08,239.84,197.72,239.32 M192.14,231.15c0.06,1.67-0.34,4.39,0.47,5.95
							c1.1,2.11,2.58,2.54,4.98,2.85c4.6,0.71,8.77,3.13,13.37,3.65c1.54,0.17,2.52-1.45,2.67-2.69c0.74-6.06-2.17-12.36-7.62-15.61
							c-2.82-1.68-13.43-6.69-13.94,0.06C191.94,227.29,192.07,229.21,192.14,231.15"/>
						<path d="M183.69,219.68c-2.8,1.66-12.75,8.16-13.49,1.48c-0.64-5.77,1.06-9.86,6.4-12.47c3.25-1.59,8.43-4.63,12.01-4.03
							c2.46,1.44,1.47,6.2,1.07,8.36C189.05,216.33,186.37,218.09,183.69,219.68 M189.01,204.09c-0.77-0.32-1.75-0.2-2.52-0.08
							c-1.33,0.2-2.58,0.71-3.8,1.26c-0.32,0.14-0.64,0.29-0.96,0.44c-2.78,1.3-6.19,2.22-8.6,4.19c-2.46,2.02-3.43,4.25-3.74,7.39
							c-0.16,1.6-0.51,6.79,1.01,8.07c1.79,1.51,3.92-0.22,5.71-1.06c3.68-1.75,8.58-3.47,11.51-6.39c2.31-2.29,3.64-6.23,3.54-9.43
							c-0.05-1.45-0.54-3.39-1.85-4.23L189.01,204.09"/>
						<path d="M198.98,219.71c-2.68-1.6-5.36-3.35-5.98-6.65c-0.41-2.16-1.4-6.91,1.07-8.36c3.58-0.6,8.76,2.44,12.01,4.03
							c5.33,2.61,7.03,6.7,6.4,12.47C211.73,227.87,201.77,221.37,198.98,219.71 M193.65,204.12l-0.31,0.16
							c-1.3,0.83-1.8,2.77-1.85,4.23c-0.1,3.21,1.23,7.14,3.54,9.43c2.94,2.92,7.83,4.64,11.51,6.39c1.78,0.85,3.92,2.58,5.71,1.06
							c1.51-1.28,1.16-6.47,1.01-8.07c-0.31-3.14-1.28-5.37-3.74-7.39c-2.4-1.97-5.82-2.9-8.6-4.19c-0.32-0.15-0.64-0.3-0.96-0.44
							c-1.21-0.55-2.47-1.06-3.8-1.26C195.4,203.92,194.42,203.8,193.65,204.12"/>
						<g>
							<path d="M153.82,443.35l-0.21-0.01c-0.01,0-0.02,0-0.02,0c0,0-0.01-0.01-0.01-0.01c-2.66-0.47-7.56-8.96-7.56-10.15h0.53
								c0.11,0.18,5.38,8.82,7.22,9.11c0.03,0,0.05,0.01,0.09,0.01c2.2,0,15.76-10.01,15.76-10.01
								C167.3,434.88,156.89,443.35,153.82,443.35"/>
							<path d="M229.46,443.35l0.21-0.01c0.01,0,0.02,0,0.02,0c0,0,0.01-0.01,0.01-0.01c2.66-0.47,7.56-8.96,7.56-10.15h-0.53
								c-0.11,0.18-5.38,8.82-7.22,9.11c-0.03,0-0.05,0.01-0.09,0.01c-2.2,0-15.76-10.01-15.76-10.01
								C215.98,434.88,226.39,443.35,229.46,443.35"/>
							<path d="M276.88,258.91v-8.59c0-6.21-3.44-12.82-5.58-16.34c2.12-7.09,2.15-24.07,0.99-31.95c-0.7-4.79-4.04-8.69-5.68-11.19
								c0.03-0.19,0.07-0.38,0.1-0.58c0.9-5.79-3.03-19.99-5.39-25.98c-1.57-3.98-4.83-5.48-7.46-6.69
								c-1.42-0.65-2.65-1.22-3.34-2.03c-1.77-2.07-3.54-2.63-5.09-3.13c-0.41-0.13-0.8-0.26-1.18-0.41
								c-0.6-0.24-1.13-0.72-1.93-1.45c-1.36-1.24-3.42-3.11-7.82-5.66c-2.42-1.4-5.82-3.03-9.42-4.76
								c-5.9-2.82-12.78-6.08-14.42-8.11c-1.49-1.84-1.66-7.69-1.67-9.62c0.71-1.81,0.79-4.66,0.76-6.32
								c0.3,0.14,0.66,0.22,1.09,0.16c1.47-0.18,2.85-2.47,4.49-5.44c0.46-0.83,0.9-1.62,1.23-2.1c1.43-2.04,1.11-6.45,0.07-9.75
								c-0.3-0.96-0.82-1.52-1.54-1.65c-0.98-0.18-2.06,0.57-2.83,1.27c0.15-4.12,0.09-15.7-4.66-21.4
								c-4.09-4.91-12.28-6.13-15.38-6.42l-1.22,0c-3.1,0.29-11.29,1.51-15.38,6.42c-4.75,5.7-4.81,17.28-4.66,21.4
								c-0.77-0.71-1.84-1.45-2.82-1.27c-0.72,0.13-1.23,0.69-1.54,1.65c-1.04,3.3-1.35,7.71,0.07,9.75
								c0.33,0.48,0.77,1.27,1.23,2.1c1.65,2.97,3.02,5.26,4.49,5.44c0.43,0.05,0.79-0.02,1.09-0.16c-0.03,1.82,0.07,5.11,1,6.84
								c0,0,0,0.01,0.01,0.01c-0.04,1.36-0.33,7.17-1.91,9.13c-1.64,2.03-8.32,5.23-14.22,8.05c-3.6,1.72-7,3.35-9.42,4.76
								c-4.4,2.55-6.46,4.42-7.82,5.66c-0.8,0.73-1.33,1.21-1.93,1.45c-0.38,0.15-0.77,0.28-1.18,0.41
								c-1.56,0.5-3.32,1.06-5.09,3.13c-0.69,0.81-1.92,1.37-3.34,2.03c-2.63,1.21-5.9,2.72-7.46,6.69
								c-2.36,5.99-6.29,20.19-5.39,25.98c0.06,0.41,0.13,0.82,0.21,1.22c-1.67,2.48-4.66,6.1-5.35,10.77
								c-1.15,7.83-1.28,24.16,0.8,31.31c-2.11,3.39-5.84,10.3-5.84,16.76v8.59c-0.6,0.97-3.7,6.57-3.03,17.5
								c0.25,4.19,0.72,8.06,1.22,12.15c0.88,7.29,3.86,15.54,3.51,25.29c-0.53,14.87-0.31,29.05,0.27,31.79
								c0.54,2.51,5.18,14.73,5.38,15.25l0.17,0.45l0.47-0.12c0.03-0.01,2.81-0.8,3.05-4.47l1.48,1.69l0.39-0.55
								c0.09-0.12,1.4-1.98,1.76-4.27c0.83-1.4,2.54-4.98,0.55-8.02c-2.27-3.46-6.01-10.61-6.05-10.68l0,0
								c-0.01-0.24-0.03-0.45-0.06-0.59c0.56-4.25,0-5.8,1.58-6.39c0.13-0.05,0.2-0.03,0.28,0.02c1.15,0.74,1.42,2.72,1.7,4.81
								c0.26,1.96,0.54,3.99,1.54,5.56c1.17,1.85,2.97,4.24,5.08,2.49c1.38-1.15,0.17-9.06-0.16-11.4
								c-0.42-2.92-0.42-3.75-1.57-8.38c-0.74-2.95-1.18-4.48-1.37-5.85c-0.1-1.13,0.19-5.82,0.62-9.24
								c0.49-3.93,2.92-10.37,5.5-17.18c2.94-7.78,5.98-15.83,6.18-20.5c0.3-7.24-0.65-10.83-1-11.87c0.61-0.73,2.31-2.99,2.77-5.92
								c0.54-3.4,0.37-9.31,0.36-9.45c0.02-0.1,1.8-10.3,4.74-14.98c2.24-3.55,5.53-10.5,6.93-14.14c0.51,3.6,1.08,6.82,1.65,8.54
								c0.73,2.18,1.65,4.61,2.55,6.95c1.28,3.34,2.48,6.5,2.79,8.15c0.44,2.34,0.13,19.52,0.03,25.17
								c-0.02,1.21-0.04,2.01-0.04,2.21c0,0.01,0,0.01-0.01,0.02c-0.11,0.11-0.19,0.3-0.22,0.5c-0.23,0.41-0.58,0.97-0.91,1.49
								c-1.78,2.8-4.75,7.49-4.18,12.12c0.64,5.16,1.42,7.31,1.7,7.96c-0.59,1.86-4.9,15.97-4.23,26.14
								c0.23,3.55-1.16,9.09-2.93,16.1c-2.28,9.04-6.58,29.85-7.54,42.83c-1.42,19.2,4.09,41.18,5.61,53.06
								c0.33,2.54,0.54,4.22,0.57,4.73c0.07,1.25-0.04,2.12-0.18,3.12c-0.18,1.36-0.39,2.91-0.18,5.81
								c0.02,0.29,0.07,0.61,0.14,0.95c-0.74,1.67-7.28,16.68-7.45,26.48c-0.08,4.79,1.45,15.41,3.07,26.66
								c1.47,10.18,2.87,20.71,3.31,27.21l0.01,0.17c0.04,0.55,0.07,1.06,0.09,1.55c0.07,3.48-0.27,10.42-0.49,11.1
								c-0.52,1.59-1.01,3.11-0.97,5.45c-0.14,0.14-0.28,0.27-0.43,0.39c-1.93,1.64-2.7,3.86-3.46,6c-0.25,0.7-0.48,1.37-0.75,2
								c-1.04,2.43-10.24,10.02-11.51,10.82c-0.99,0.62-3.5,4.3-3.5,4.3c-0.94,1.01-0.65,2.67-0.46,3.76
								c0.03,0.2,0.07,0.38,0.09,0.53c0.08,0.59,0.26,0.99,0.4,1.31c0.13,0.28,0.22,0.49,0.22,0.74c0.01,0.34-0.05,0.75-0.1,1.15
								c-0.05,0.36-0.1,0.72-0.11,1.06c-0.01,0.61,0.02,2.09,0.62,2.58c0.34,0.28,0.66,0.48,1.13,0.56c-0.05,0.15-0.12,0.35-0.2,0.6
								c-0.37,1.09,0.45,2.2,1.05,2.64c0.43,0.32,1.11,0.35,1.59,0.32c0,0.09,0.02,0.15,0.03,0.2c0.07,0.77,0.33,1.83,1.32,2.3
								c1,0.47,1.51,0.36,2.1,0.08c1.15,1.58,3.48,2.55,5.57,2.35c0.27-0.03,0.54-0.07,0.8-0.14c2.16-0.55,4.86-2.41,5.87-4.91
								c0.8-2,1.98-2.66,3.02-3.11c4.31-1.36,6.65-6.15,7.28-10.6c0.55-3.93,3.07-8.21,3.73-9.09c3.01-1.26,4.79-2.85,6.33-5.11
								c1.62-2.37,1.68-3.89,1.23-5.85c-0.43-1.87-1.6-10.67-2-12.04c-0.36-1.2-0.52-2.42-0.8-3.91
								c-0.87-4.65,4.89-28.61,6.58-33.27c0.65-1.79,1.58-3.74,2.66-6c1.83-3.83,4.1-8.6,5.92-14.63
								c2.75-9.13-1.59-29.34-2.12-31.73c1.6-2.8,3.02-5.7,4.25-8.66c0.99-2.37,1.91-4.83,2.38-7.36c0.69-3.74,1.28-10.81,1.97-19
								c0.61-7.24,1.3-15.44,2.14-21.98c1.04-8.08,3.18-17.2,4.9-24.53c1.18-5.02,2.19-9.35,2.52-11.96
								c0.62-4.88,0.01-9.75-0.34-11.88c0.38,0.04,1.49,0.05,1.76,0c-0.35,2.12-0.96,6.99-0.34,11.88
								c0.33,2.61,1.35,6.94,2.52,11.96c1.72,7.33,3.86,16.45,4.9,24.53c0.84,6.55,1.53,14.75,2.14,21.98
								c0.69,8.19,1.28,15.26,1.97,19c0.47,2.53,1.39,4.99,2.38,7.36c1.23,2.96,2.65,5.86,4.25,8.66
								c-0.53,2.39-4.87,22.59-2.12,31.73c1.82,6.04,4.09,10.8,5.92,14.63c1.08,2.26,2.01,4.22,2.66,6
								c1.69,4.67,7.46,28.63,6.58,33.27c-0.28,1.49-0.44,2.71-0.8,3.91c-0.41,1.37-1.58,10.17-2,12.04
								c-0.45,1.96-0.39,3.48,1.23,5.85c1.54,2.26,3.32,3.85,6.33,5.11c0.66,0.88,3.18,5.16,3.73,9.09
								c0.62,4.45,2.97,9.25,7.28,10.6c1.04,0.45,2.22,1.11,3.02,3.11c1,2.49,3.71,4.35,5.87,4.91c0.26,0.07,0.53,0.11,0.8,0.14
								c2.09,0.2,4.42-0.76,5.57-2.35c0.59,0.28,1.09,0.4,2.1-0.08c1.07-0.51,1.29-1.73,1.34-2.5c0.47,0.03,1.16,0,1.6-0.32
								c0.6-0.45,1.42-1.56,1.05-2.64c-0.08-0.22-0.14-0.41-0.19-0.56l0,0c0-0.01-0.01-0.02-0.01-0.04
								c0.47-0.09,0.79-0.28,1.13-0.56c0.59-0.49,0.63-1.97,0.62-2.58c-0.01-0.34-0.06-0.7-0.11-1.06c-0.05-0.39-0.11-0.8-0.1-1.15
								c0-0.26,0.1-0.46,0.22-0.74c0.14-0.32,0.32-0.73,0.4-1.31c0.02-0.16,0.05-0.34,0.09-0.53c0.19-1.1,0.48-2.75-0.46-3.76
								c0,0-2.51-3.68-3.5-4.3c-1.27-0.79-10.47-8.39-11.51-10.82c-0.27-0.63-0.5-1.3-0.75-2c-0.75-2.14-1.53-4.36-3.46-6
								c-0.14-0.12-0.28-0.25-0.43-0.39c0.04-2.34-0.45-3.86-0.97-5.45c-0.22-0.68-0.56-7.62-0.49-11.1c0.02-0.48,0.05-1,0.09-1.55
								c0.01-0.06,0.02-0.12,0.03-0.17l-0.02,0c0.45-6.5,1.84-17.02,3.31-27.21c1.62-11.25,3.16-21.87,3.07-26.66
								c-0.17-9.73-6.63-24.61-7.44-26.44c0.09-0.41,0.15-0.8,0.17-1.14c0.21-2.9,0-4.45-0.18-5.81c-0.13-1-0.25-1.87-0.18-3.12
								c0.03-0.51,0.25-2.19,0.57-4.73c1.52-11.88,7.03-33.85,5.61-53.06c-0.96-12.98-5.26-33.8-7.54-42.83
								c-1.77-7.01-3.16-12.55-2.93-16.1c0.66-10.18-3.65-24.28-4.23-26.14c0.28-0.65,1.07-2.8,1.7-7.96
								c0.57-4.62-2.4-9.31-4.18-12.12c-0.52-0.82-1.11-1.76-1.14-2.01c0-0.2-0.01-1-0.04-2.21c-0.1-5.65-0.41-22.84,0.03-25.17
								c0.31-1.65,1.51-4.81,2.79-8.15c0.89-2.34,1.82-4.77,2.55-6.95c0.56-1.67,1.08-4.76,1.58-8.22c0-0.01,0-0.01,0-0.02
								c1.43,3.56,4.63,10.08,6.7,13.74c3.65,6.46,4.9,16.99,5.1,24.43c0.08,2.96,2.16,5.18,2.77,5.92c-0.34,1.04-1.3,4.63-1,11.87
								c0.19,4.67,3.24,12.72,6.18,20.5c2.58,6.81,5.01,13.25,5.5,17.18c0.35,2.84,0.7,4.67,0.73,6.07
								c0.02,1.34,0.01,2.69-0.12,4.03c-0.12,1.24-0.64,2.71-1.27,5.23c-1.16,4.64-1.16,5.46-1.58,8.38
								c-0.34,2.34-1.55,10.25-0.16,11.4c2.1,1.75,3.91-0.64,5.08-2.49c1-1.58,1.27-3.6,1.54-5.56c0.28-2.09,0.55-4.07,1.7-4.81
								c0.08-0.05,0.15-0.07,0.28-0.02c1.58,0.59,1.02,2.14,1.58,6.39c-0.03,0.15-0.05,0.35-0.06,0.59l0,0
								c-0.04,0.07-3.78,7.22-6.05,10.68c-1.99,3.04-0.28,6.63,0.55,8.02c0.37,2.3,1.68,4.15,1.76,4.27l0.39,0.55l1.48-1.69
								c0.24,3.67,3.02,4.47,3.05,4.47l0.47,0.12l0.17-0.45c0.2-0.52,4.84-12.74,5.38-15.25c0.59-2.74,0.8-16.92,0.27-31.79
								c-0.34-9.75,2.63-18.01,3.51-25.29c0.5-4.09,0.97-7.95,1.22-12.15C280.58,265.48,277.48,259.88,276.88,258.91z
								 M271.44,201.57c1.32,7.71,1.08,24.32-0.84,31.29c-0.41-0.63-0.72-1.07-0.87-1.29c-0.09-1.6-0.78-13.8-1.96-19.56
								c-1.12-5.43-3.11-10.64-3.52-11.68c0.28-0.81,1.36-4.1,2.15-8.3C267.19,192.99,270.89,198.35,271.44,201.57z M216.32,260.69
								c0.01-1.23,0.08-2.46,0.19-3.68c0.28,0.08,0.61,0.08,1.02-0.03c2.67-0.73,5.03-5.24,6.15-7.41c1.28-2.48,2.25-5.02,2.86-7.66
								c-0.02,4.37,0.05,10.13,0.14,15.41c-1.77,3.02-4.16,5.72-7.17,7.56c-0.45,0.29-1.08,0.57-1.61,0.64
								c-1.07,0.14-1.6-1.23-1.49-2.11C216.36,262.5,216.31,261.6,216.32,260.69z M226.62,236.6c-0.26,6.08-2.44,11.93-6.13,16.78
								c-0.93,1.22-2,2.72-3.76,1.93c-0.94-0.42-0.86-1.48-0.74-2.33c0.19-1.31,0.32-2.63,0.57-3.93c0.12-0.65,0.29-1.3,0.5-1.93
								c0.03-0.09,0.17-0.55,0.32-0.97c0.53,0.15,1.27-0.06,2.28-0.79c3.03-2.17,4.69-5.6,5.54-9.29c0.62-0.55,1.22-1.12,1.77-1.73
								c-0.08,0.31-0.15,0.61-0.2,0.86C226.73,235.46,226.62,236.55,226.62,236.6z M222.16,241.96c-0.51,0.71-1.02,1.38-1.68,1.96
								c-0.77,0.68-1.73,1.84-2.88,1.22c-1.04-0.56-0.7-2.35-0.61-3.29c0.16-1.65,0.38-3.3,0.56-4.95c2.77-2.47,5.02-5.64,6.59-9.14
								c0.4-0.11,0.8-0.24,1.19-0.38C225.43,231.97,224.94,238.12,222.16,241.96z M221.66,231.12c-1.14,1.7-4.07,7.07-4.73,2.77
								c-0.42-2.75-1.6-6.88,0.57-9.29c0.73-0.14,1.25-1.03,1.76-1.48c0.58-0.53,1.15-1.07,1.71-1.62c0.2-0.2,0.39-0.41,0.59-0.62
								c1.44-0.13,2.83-0.42,4.16-0.87C225.23,224.01,223.83,227.87,221.66,231.12z M216.63,222.48c-0.48-1.25-1.02-2.5-1.01-3.86
								c0.03-3.64,2.93-6.5,6.16-8.11c1.86,0.66,3.79,1.1,5.77,1.34c-1.43,2.51-3.06,4.92-5.02,7.08c-0.71,0.79-1.59,1.47-2.38,2.18
								c-0.51,0.46-1.01,0.92-1.49,1.4c-0.32,0.32-0.82,0.84-1.3,0.9C216.8,223.49,216.81,222.94,216.63,222.48z M222.26,220.13
								c0.63-0.69,1.25-1.39,1.84-2.11c1.55-1.91,2.94-3.96,4.16-6.11c0.91,0.08,1.85,0.14,2.78,0.14c0.23,1.16,0.34,2.52,0.37,3.91
								l-0.02,0.01C228.79,218.29,225.69,219.69,222.26,220.13z M219.45,208.83c0.23-0.01,0.46-0.01,0.69-0.02
								c2.89-0.14,5.86-1.69,8.51-3.69c1.04,2.03,1.77,4.13,2.25,6.29l0,0C226.85,211.4,223,210.52,219.45,208.83z M223.57,207.15
								c-6.79,2.92-19.13-0.21-24.55-5.63c-4.2-4.2-4.93-10.92-5.5-16.58c-0.38-3.75-1.89-11.21,0.32-14.63
								c4.35-6.73,9.74-7.62,17.49-8.06c15.55-0.88,16.63,3.98,21.9,9.04c1.78,1.71,2.9,3.53,4.14,5.31
								c3.84,5.48,4.85,10.61,4.4,11.15C237.48,194.76,231.34,203.82,223.57,207.15z M203.33,147.6c0.79-2.01,1.48-3.71,1.93-4.79
								c0.72-1.74,1.33-4.15,1.82-6.56c5.68,5.1,6.76,15.24,13.74,18.85c1.15,0.59,2.31,0.98,3.49,1.21c-1.76,0.76-3.81,1.58-6,2.29
								C211.31,158.38,205.58,154.17,203.33,147.6z M216.59,159.12c-6.12,1.76-12.96,2.44-17.34-1.11c1.21-3.11,2.56-6.56,3.72-9.49
								C205.27,154.42,210.34,158.34,216.59,159.12z M204.76,142.6c-1.85,4.47-7.62,19.34-9.11,23.19
								c-0.39-2.55-1.26-9.63,0.15-14.44c0.71-2.41,1.7-4.82,2.85-7.61c1.68-4.09,3.76-9.15,5.88-16.47
								c1.38-1.18,2.6-2.32,3.39-3.22c0.03,0.6,0.09,1.35,0.18,2.16C207.75,129.47,206.38,138.69,204.76,142.6z M242.38,187.98
								l0.02-0.03c3.87,7.44,10.31,12.79,18.27,15.24c7.2,15.28,4.7,34.75-1.23,50.49c-3.05-3.06-6.06-6.76-8.27-10.38
								c-2.85-4.65-4.58-9.93-6.43-15.05c-3.76-10.41-6.87-21.14-7.47-32.16C239.1,193.49,240.69,190.74,242.38,187.98z
								 M260.2,253.65c6.22-14.49,8.61-35.07,1.44-50.53c0.56-0.75,1.11-1.49,1.67-2.24c0.5,1.3,2.35,6.22,3.41,11.35
								c1.06,5.16,1.72,15.91,1.89,18.79c0,0.46,0.03,0.8,0.06,1.06c0.57,8.28-4.08,14.61-8.2,21.68c-0.12,0.21-0.24,0.4-0.36,0.6
								c-0.05-0.04-0.09-0.09-0.14-0.14C260.06,254.06,260.13,253.81,260.2,253.65z M250.87,157.24c0.74,0.49,1.62,0.89,2.54,1.32
								c2.58,1.19,5.5,2.54,6.91,6.11c2.32,5.9,6.2,19.82,5.32,25.42c-0.74,4.75-2,8.66-2.36,9.76c-2.07,2.62-3.35,2.82-6.7,1.14
								c-2.3-1.15-4.54-2.47-6.48-4.2c-3.29-2.94-5.85-6.33-7.75-10.34c-0.01-0.02-0.02-0.03-0.04-0.05
								c-0.67-5.48-5.36-12.95-10.83-18.19c-0.24-0.53-0.45-1.08-0.61-1.63c-1.78-6.08,3.22-7.3,7.99-7
								C242.4,159.8,248.93,161.26,250.87,157.24z M245.1,153.45c1.49,0.48,3.03,0.97,4.61,2.81c0.19,0.22,0.4,0.41,0.63,0.6
								c-2.66,6.26-15.38-1.15-19.73,4.4c-1.28,1.63-1.24,3.64-0.51,5.68c-3.4-2.95-7.13-5.35-10.18-5.44
								c-15.49-0.46-20.65,1.5-23.89,4.81c0.47-1.21,1.62-4.18,2.98-7.66c6.97,5.39,19.49,0.97,26.5-2.17
								c6.15,0.64,12.61-2.62,18.68-3.34C244.48,153.24,244.78,153.35,245.1,153.45z M210.02,132.78c1.79,2.21,8.3,5.33,14.59,8.35
								c3.58,1.71,6.96,3.34,9.34,4.72c4.3,2.49,6.31,4.32,7.64,5.52c0.56,0.51,1.02,0.91,1.49,1.23c-9,1.37-19.87,7.57-26.23-2.36
								c-3.11-4.87-5.22-10.83-9.63-14.77c0.56-2.89,0.94-5.71,1.15-7.35C208.68,129.93,209.2,131.75,210.02,132.78z M173.6,114.61
								c-0.01,0.03-0.38,0.69-1.06,0.6c-1.04-0.13-2.7-3.11-3.69-4.9c-0.5-0.9-0.92-1.67-1.29-2.2c-1.07-1.52-1.03-5.31,0.07-8.81
								c0.18-0.56,0.42-0.87,0.71-0.92c0.76-0.14,2.1,1.08,2.82,1.99l1.08,1.37l-0.13-1.74c-0.01-0.15-1.1-15.58,4.34-22.11
								c4.04-4.85,12.74-5.89,15.17-6.08c2.43,0.2,11.13,1.24,15.17,6.08c5.44,6.53,4.35,21.95,4.34,22.11l-0.13,1.74l1.09-1.37
								c0.72-0.91,2.06-2.12,2.82-1.99c0.29,0.06,0.53,0.36,0.71,0.92c1.11,3.5,1.14,7.29,0.07,8.81c-0.37,0.52-0.8,1.3-1.29,2.2
								c-0.99,1.78-2.64,4.77-3.69,4.9c-0.68,0.09-1.05-0.58-1.06-0.6l-1.17-2.25l0.16,2.53c0,0.05,0.33,5.41-0.83,7.56
								c-1.18,2.2-10.73,9.61-12.56,10.28c-1.03,0.38-2.51,0.51-3.62,0.57c-1.11-0.05-2.59-0.19-3.62-0.57
								c-1.84-0.67-11.38-8.09-12.56-10.28c-1.16-2.16-0.83-7.51-0.83-7.56l0.16-2.53L173.6,114.61z M165.34,265.76
								c-0.53-0.07-1.16-0.35-1.61-0.64c-2.78-1.7-5.03-4.14-6.76-6.88c0.08-4.82,0.15-10.13,0.16-14.46
								c0.6,2.06,1.42,4.07,2.43,6.03c1.12,2.16,3.48,6.67,6.15,7.41c0.41,0.11,0.74,0.11,1.02,0.03c0.11,1.22,0.18,2.45,0.19,3.68
								c0.01,0.91-0.04,1.81-0.09,2.72C166.94,264.53,166.41,265.9,165.34,265.76z M166.51,255.56c-1.76,0.8-2.83-0.71-3.76-1.93
								c-2.82-3.7-4.75-7.99-5.62-12.51c-0.02-2.87-0.09-5.01-0.24-5.78c-0.01-0.04-0.02-0.09-0.03-0.14
								c0.38,0.38,0.77,0.75,1.18,1.11c0.85,3.69,2.5,7.12,5.53,9.29c1.02,0.73,1.75,0.94,2.28,0.79c0.15,0.42,0.29,0.88,0.32,0.97
								c0.21,0.63,0.37,1.28,0.5,1.93c0.25,1.3,0.38,2.62,0.57,3.93C167.37,254.07,167.44,255.14,166.51,255.56z M165.64,245.4
								c-1.15,0.62-2.11-0.54-2.88-1.22c-0.66-0.58-1.17-1.25-1.68-1.96c-2.78-3.84-3.28-10-3.16-14.58
								c0.39,0.14,0.79,0.27,1.19,0.38c1.57,3.5,3.82,6.67,6.59,9.14c0.18,1.65,0.4,3.3,0.56,4.95
								C166.35,243.05,166.69,244.84,165.64,245.4z M166.3,234.14c-0.66,4.3-3.59-1.07-4.73-2.77c-2.19-3.27-3.59-7.33-4.07-11.38
								c1.25,0.42,2.55,0.71,3.9,0.85c0.29,0.3,0.57,0.61,0.86,0.9c0.56,0.56,1.13,1.1,1.71,1.62c0.51,0.46,1.03,1.34,1.76,1.48
								C167.9,227.26,166.72,231.39,166.3,234.14z M152.26,212.3c0.91,0,1.82-0.05,2.71-0.13c1.22,2.14,2.6,4.19,4.15,6.1
								c0.5,0.62,1.03,1.23,1.56,1.82c-3.31-0.49-6.32-1.87-8.85-4.12l-0.01-0.01C151.88,214.63,152.04,213.42,152.26,212.3z
								 M165.86,223.66c-0.48-0.06-0.97-0.58-1.3-0.9c-0.48-0.48-0.99-0.94-1.49-1.4c-0.79-0.71-1.66-1.39-2.38-2.18
								c-1.95-2.16-3.58-4.57-5.01-7.08c1.99-0.23,3.93-0.67,5.8-1.33c3.21,1.61,6.09,4.46,6.12,8.09c0.01,1.36-0.53,2.61-1.01,3.86
								C166.43,223.19,166.44,223.74,165.86,223.66z M152.4,211.66C152.4,211.66,152.4,211.66,152.4,211.66
								c0.51-2.28,1.34-4.53,2.49-6.68c2.61,1.91,5.49,3.36,8.27,3.5c0.62,0.03,1.22,0.05,1.81,0.06
								C161.1,210.59,156.87,211.65,152.4,211.66z M159.73,206.82c-7.77-3.34-14.67-13.15-18.2-19.41
								c0.27-3.15,1.94-6.91,4.45-10.57c2.89-4.21,6.3-8.22,8.53-10.02c6.06-4.89,11.41-4.68,16.55-4.51
								c7.75,0.25,14.63,1.59,18.4,7.66c2.15,3.46,0.69,10.88,0.32,14.63c-0.57,5.66-1.3,12.38-5.5,16.58
								C178.86,206.61,166.86,209.88,159.73,206.82z M122.5,203.56c8.14-2.46,14.7-7.98,18.58-15.63c1.73,2.84,3.27,5.61,5.16,8.24
								c-0.59,11.06-3.71,21.82-7.48,32.27c-1.85,5.11-3.58,10.4-6.43,15.05c-2.42,3.95-5.04,7.48-8.39,10.71
								C118.01,238.5,115.39,218.85,122.5,203.56z M122.97,253.45c-4.06-6.89-8.82-13.46-8.22-21.73c0.18-3.03,0.92-14.38,1.97-19.5
								c0.98-4.76,2.64-9.35,3.28-11.02c0.58,0.78,1.16,1.55,1.74,2.33c0.01,0.02,0.03,0.03,0.04,0.04
								C114.86,218.75,117.2,237.83,122.97,253.45z M187.63,165.74c-1.49-3.85-7.26-18.72-9.11-23.19c-2.07-5-3.2-15.52-3.24-15.95
								c0.1-0.89,0.17-1.72,0.2-2.38c0.81,0.88,1.99,1.97,3.3,3.1c2.1,7.26,4.17,12.3,5.85,16.36c1.15,2.79,2.14,5.2,2.85,7.61
								C188.89,156.11,188.02,163.19,187.63,165.74z M180.38,148.65c1.17,2.96,2.52,6.42,3.73,9.52
								c-2.93,2.92-11.13,2.85-17.57,1.17C172.89,158.62,178.07,154.64,180.38,148.65z M164.88,158.79l-0.05,0.02
								c-2.15-0.7-4.17-1.51-5.9-2.26c1.18-0.23,2.35-0.61,3.49-1.2c7.02-3.63,8.06-13.86,13.82-18.93
								c0.48,2.34,1.07,4.65,1.77,6.34c0.46,1.12,1.17,2.88,1.99,4.97C177.77,154.37,171.96,158.63,164.88,158.79z M141.85,151.35
								c1.33-1.21,3.34-3.03,7.64-5.52c2.38-1.38,5.76-3,9.34-4.72c6.29-3.01,12.8-6.13,14.59-8.35c0.76-0.93,1.24-2.53,1.55-4.17
								c0.22,1.72,0.6,4.36,1.12,7.04c-4.46,3.93-6.57,9.94-9.71,14.84c-6.39,10-17.37,3.65-26.41,2.33
								C140.59,152.49,141.14,152,141.85,151.35z M133.74,156.25c1.57-1.84,3.11-2.33,4.61-2.81c0.05-0.01,0.09-0.03,0.13-0.04
								l0.46-0.02c6.11,0.69,12.61,4,18.8,3.36c7.05,3.16,19.91,7.01,26.62,2.08c1.18,3.04,2.2,5.66,2.73,7.03
								c-3.33-3.19-8.81-4.66-23.84-4.27c-3.05,0.08-6.61,2.19-9.98,5.26c0.6-1.91,0.57-3.78-0.63-5.31
								c-4.38-5.57-17.18,1.92-19.77-4.48C133.19,156.79,133.49,156.53,133.74,156.25z M123.12,164.66
								c1.41-3.58,4.33-4.92,6.91-6.11c0.81-0.38,1.6-0.74,2.29-1.16c1.88,4.14,8.48,2.66,12.04,2.44c4.77-0.3,9.77,0.92,7.99,7
								c-0.13,0.44-0.28,0.87-0.46,1.3c-5.7,5.69-10.55,13.76-10.98,18.72c-1.89,3.98-4.44,7.34-7.71,10.26
								c-1.94,1.73-4.18,3.05-6.48,4.2c-3.21,1.61-4.39,1.45-6.31-0.87l-0.15-0.29c-0.02-0.04-1.6-4.48-2.47-10.07
								C116.92,184.48,120.8,170.56,123.12,164.66z M112.46,201.78c0.49-2.89,3.53-7.52,4.72-9.11c0.78,3.89,1.76,6.89,2.02,7.66
								c-0.41,1.04-2.4,6.25-3.52,11.68c-1.19,5.76-1.88,17.95-1.96,19.56c-0.11,0.16-0.32,0.45-0.58,0.85
								C111.36,225.11,111.17,209.26,112.46,201.78z M104.6,276.34c-0.53-8.76,1.45-14.05,2.42-16.06c1.14,7.52,4.36,15.05,7.43,22
								c4.07,9.22,6.6,19.58,7.35,29.48c-0.08,2.04,0,3.5,0.2,4.79c-7.7-9.75-14.31-20.33-16.71-32.56
								C105.01,281.47,104.76,278.97,104.6,276.34z M118.97,356.68l-1.4-1.6c-0.32-3.79-1.99-9.74-2.25-10.66
								c0.03-0.22,0.08-0.79,0.14-1.55c1.1,2.03,2.7,4.92,4.06,6.98C121.13,352.31,119.7,355.41,118.97,356.68z M115.75,337.2
								c1.27,2.38,3.56,6.55,5.15,8.97c1.06,1.62,0.81,3.5,0.3,4.97c-0.14-0.63-0.39-1.27-0.79-1.88c-1.73-2.64-3.88-6.64-4.82-8.42
								C115.66,339.65,115.72,338.34,115.75,337.2z M123.02,321.15c0.98,4.16,1.6,6.3,1.6,8.3c0,5.15,1.62,10.81-0.23,10.81
								c-0.46,0-1.4-0.46-2.7-2.52c-0.87-1.38-1.13-3.29-1.38-5.14c-0.32-2.34-0.61-4.56-2.18-5.57c-0.38-0.24-0.8-0.28-1.23-0.12
								c-2.57,0.97-1.73,5.36-2.27,7.23l-0.04,0.13l0.03,0.14c0.68,2.92-0.35,9.88-0.37,9.95l-0.02,0.12l0.03,0.11
								c0.02,0.08,2.3,8,2.3,11.63c0,2.39-1.17,3.38-1.84,3.75c-0.91-2.41-4.67-12.43-5.13-14.57c-0.47-2.21-0.8-16.12-0.25-31.53
								c0.34-9.53-2.44-17.61-3.42-24.76c3.15,10.57,9.3,19.91,16.26,28.62l0.04,0.06C122.43,318.91,122.71,319.83,123.02,321.15z
								 M125.53,293.54c-0.34,1.46-0.2,0.85-0.59,2.45c-1.36,3.85-2.34,7.32-2.65,9.82c-0.05,0.44-0.1,0.86-0.15,1.26
								c-0.81-5.93-2.35-12.8-4.31-18.28c-3.5-9.73-8.92-19.18-10.22-29.55c0,0,0.01-0.01,0.01-0.01l0.01-0.01v-8.91
								c0-6.93,4.66-14.66,6.39-17.3c0,0,0-0.01,0-0.01c-0.07,9.44,6.61,16.93,10.8,25.16c5.1,10.03,3.25,23.88,0.86,34.64
								C125.59,293.24,125.6,293.22,125.53,293.54z M133.96,268.21c-0.19,4.5-3.2,12.46-6.11,20.17c-0.14,0.38-0.48,1.04-0.85,1.75
								c1.77-8.35,2.68-16.76,0.87-25.33c-0.18-0.85-0.42-1.67-0.68-2.49c1.73-2.05,3.68-3.9,5.84-5.52
								C133.35,257.77,134.25,261.27,133.96,268.21z M141.01,225.47c-3.06,4.85-4.82,14.94-4.9,15.47c0,0.06,0.17,6.06-0.35,9.36
								c-0.5,3.18-2.7,5.59-2.72,5.61l-0.22,0.24c0,0,0,0,0,0c-2.16,1.6-4.11,3.43-5.86,5.45c-0.05-0.13-0.09-0.24-0.12-0.35
								c-0.79-2.16-1.84-4.22-2.98-6.25c3.21-3.03,6.15-6.41,9.03-11.19c2.82-4.68,3.85-8.31,5.78-13.33
								c4.15-10.82,7.47-21.99,8.16-33.51c0.11,0.15,0.22,0.31,0.34,0.46c0.28,2.89,0.74,7.45,1.31,11.85
								c0.01,0.05,0.01,0.1,0.02,0.15C147.38,212.68,143.62,221.32,141.01,225.47z M148.4,198.92c1.55,1.78,3.63,3.88,5.96,5.67
								c-2.46,4.59-3.52,9.56-3.15,14.49C150.09,214.66,148.99,204.76,148.4,198.92z M152.7,223.45c-0.65-2.52-0.89-4.72-0.89-6.67
								c1.53,1.28,3.21,2.27,5.01,2.96c0.29,2.57,0.96,5.12,1.96,7.53C156.46,226.54,154.38,225.23,152.7,223.45z M154.59,228.91
								c-0.03-0.08-0.09-0.21-0.15-0.36c-0.57-1.36-1.03-2.65-1.39-3.86c1.26,1.15,2.69,2.06,4.25,2.71
								c-0.01,0.02-0.02,0.05-0.02,0.08c-0.07,2.44,0.05,5.14,0.53,7.75c-0.47-0.45-0.92-0.91-1.35-1.39
								C156.01,232.5,155.32,230.84,154.59,228.91z M151.56,276.92c-0.53-4.24,2.32-8.73,4.02-11.41c0.31-0.48,0.55-0.87,0.75-1.2
								c6.77,3.03,14.89,8.36,13.07,17.37c-0.51,2.51-2.7,5.19-4.26,7.08c-2.17,2.64-4.19,1.43-6.46-0.37
								c-1.96-1.56-3.9-3.15-5.84-4.74C152.51,282.53,152,280.47,151.56,276.92z M146.08,327.51c1.79-7.1,3.2-12.71,2.96-16.43
								c-0.48-7.31,1.68-16.73,3.09-21.97c4.2,4.59,3.68,11.91,2.81,17.93c-1.04,7.19-2.21,17.46-9.04,21.19
								C145.96,327.99,146.02,327.75,146.08,327.51z M138.57,370.16c0.62-8.36,2.64-20.03,4.6-29.65
								c-0.64,7.5-0.44,14.08,1.26,22.97c1.7,8.88,7.11,21.07,9.15,32.27c0.77,4.21,1.47,14.97-0.59,20.93
								c-1.36,3.95-5.39,7.17-8.82,6.24C142.63,411.05,137.16,389.21,138.57,370.16z M140.14,490.75
								c-1.62-11.2-3.14-21.79-3.06-26.49c0.14-8.24,5.09-20.7,6.83-24.82c0.97,3.09,2.98,7.14,4.71,10.37
								c-0.07,12.94-0.15,25.88-0.22,38.82c-0.06,11.37,1.75,25.2-4.91,35.12c0.08-1.75,0.11-3.44,0.05-4.6
								C143.31,512.73,141.71,501.59,140.14,490.75z M159.02,525.52c0.07,0.38,0.15,0.75,0.22,1.12c-3.87-4.38-3.92-11.03-3.95-17
								c0-0.87-0.01-1.72-0.02-2.55c-0.14-7.73-0.21-14.82,0.25-21.9c0.8,3.53,2.96,8.75,8.7,11.31
								C161.86,505.27,158.27,521.57,159.02,525.52z M174.2,471.1c-1.79,5.96-4.05,10.68-5.86,14.48c-1.09,2.29-2.03,4.26-2.7,6.1
								c-0.28,0.78-0.68,2.08-1.13,3.71c-5.81-2.67-8.05-8.59-8.87-11.91c0.05-0.62,0.09-1.24,0.15-1.86
								c0.15-1.58,0.24-3.19,0.34-4.9c0.26-4.49,0.39-9.09,1.79-13.41c1.06-3.27,2.71-6.32,4.65-9.14c1.95-2.85,4.38-5.29,6.41-8.07
								c1.18-1.62,2.29-3.31,3.32-5.03C173.32,445.99,176.58,463.19,174.2,471.1z M178.68,423.47c-0.82,4.48-2.89,8.84-4.96,12.86
								c-1.22,2.36-2.44,5.11-4.17,7.14c-4.76,5.59-9.91,10.99-12.23,18.13c-1.59,4.9-1.96,9.95-2.26,15.06
								c-0.1,1.7-0.19,3.31-0.34,4.87c-0.77,8.34-0.69,16.52-0.53,25.59c0.02,0.82,0.02,1.67,0.02,2.53
								c0.03,6.75,0.06,14.36,5.46,18.96c0.15,0.6,0.29,1.18,0.44,1.7c0.59,3,1.53,9.67,1.88,11.17c0.41,1.79,0.35,3.02-1.1,5.15
								c-1.24,1.81-3.08,3.25-4.66,4.15c1.21-1.96,3.31-5.34,3.31-5.34c-1.59,1.67-4.81,6.09-4.88,6.18l0,0
								c-0.6,0.75-3.38,5.37-3.97,9.59c-0.58,4.11-2.74,8.66-6.68,9.88l-0.05,0.02c-0.87,0.38-2.5,1.09-3.52,3.61
								c-0.89,2.22-3.32,3.88-5.26,4.38c-2.03,0.52-4.64-0.48-5.61-2.14l-0.03-0.05c-0.15-0.8-0.02-1.1,0.3-1.39
								c0.09-0.08,0.24-0.22,0.44-0.39c1.3-1.16,2.72-2.45,3.11-3.21c0.35-0.69,3.1-5.17,5.24-6.92c0,0-3.44,1.79-6.03,6.51
								c-0.36,0.66-2.14,2.26-2.91,2.95c-0.21,0.18-0.37,0.33-0.46,0.41c-0.56,0.53-0.73,1.13-0.58,2.08
								c-0.39,0.19-0.64,0.25-1.33-0.08c-0.6-0.29-0.77-1.06-0.82-1.64l0,0c0-0.03,0.28-3.62,6.68-11.75c0,0-2.1,1.66-3.91,4.37
								c-2.36,3.52-3.23,5.41-3.53,6.43c-0.43,0.04-0.99,0.02-1.2-0.14c-0.43-0.32-0.93-1.07-0.74-1.64
								c0.07-0.22,0.13-0.4,0.18-0.54l0,0c0.75-2.6,3.47-8.57,5.77-11.2c0,0-1.34,0.93-3,3.53c-1.67,2.61-2.6,4.29-3.33,6.47
								c-0.35-0.04-0.56-0.16-0.84-0.39c-0.13-0.12-0.31-0.85-0.29-1.87c0.01-0.29,0.05-0.61,0.1-0.96
								c0.06-0.43,0.12-0.87,0.11-1.28c0-0.11-0.01-0.22-0.03-0.32c0.37-1.49,1.42-4.17,4.22-7.48c0,0-1.33,1.13-2.45,2.65
								c-1.01,1.37-1.77,2.43-2.25,3.52c-0.05-0.16-0.09-0.32-0.12-0.52c-0.02-0.17-0.06-0.36-0.09-0.57c-0.17-0.98-0.4-2.32,0.23-3
								c0,0,2.4-3.57,3.32-4.15c1.36-0.85,10.7-8.52,11.86-11.22c0.28-0.66,0.53-1.37,0.77-2.05c0.71-2.03,1.45-4.13,3.2-5.62
								c2.49-2.13,4.28-7.46,4.28-7.46c-0.01,0.02-1.65,3.14-3.52,5.4c0.09-1.65,0.47-2.84,0.91-4.17c0.14-0.44,0.41-3.29,0.57-6.27
								c6.47-9.08,5.53-21.49,5.59-32.08c0.08-13.96,0.16-27.92,0.24-41.88c1.29,2.35,2.3,4.04,2.39,4.19c0,0-6.9-13.64-7.25-18.45
								c-0.2-2.79,0-4.28,0.17-5.59c0.13-1.01,0.26-1.97,0.18-3.33c-0.03-0.49-0.21-1.93-0.48-4.09c2.54,0.55,5.35-0.92,7.55-3.61
								c4.06-4.98,3.85-13.95,3.07-20.85c0.95,0.33,2.02,0.29,2.93-0.18c-0.05,1.76,0.05,3.53,0.34,5.33
								c0.9,5.57,3.3,11.68,8.16,15.02c3.87,2.66,8.77,4.09,12.75,1.48C178.94,421.88,178.81,422.75,178.68,423.47z M180.63,404.57
								c-0.49,5.87-0.97,11.5-1.46,15.5c-6.51,5.1-14.57-1.87-17.81-7.58c-3.51-6.18-3.17-13.61-1.65-20.29
								c2.78-12.25,10.69-22.6,14.17-34.65c2.15,5.06,4.05,10.2,5.07,15.66c1.39,7.38,2.05,14.84,2.46,22.32
								C181.14,398.58,180.88,401.65,180.63,404.57z M182.78,382.54c-0.36,2.8-0.69,5.89-1,9.08c-0.88-11.97-2.7-23.76-7.59-35.01
								c-8.1-18.64-15.95-36.8-16.35-57.49c-0.02-1.32,0.07-2.55,0.33-3.86c1.13-5.65,5.35,2.66,5.47,2.88
								c1.26,2.41,2.64,4.13,2.96,6.96c0.15,1.34,0.28,2.59,0.57,3.9c1.96,9.19,3.67,18.11,6.97,26.95c1.51,4.06,3.53,7.9,5,11.97
								c1.66,4.58,2.37,9.61,3.14,14.39c0.78,4.8,1.21,9.64,1.37,14.48C183.32,378.75,183.02,380.67,182.78,382.54z M190.2,346.04
								c-0.32,2.56-1.33,6.86-2.5,11.85c-1.16,4.93-2.5,10.66-3.58,16.36c-0.22-4.03-0.62-8.06-1.21-12.1
								c-0.79-5.44-1.89-10.92-3.76-16.1c-1.9-5.26-4.48-10.26-6.28-15.58c-3.12-9.26-4-18.78-6.1-28.23
								c-0.65-2.94-3.24-6.2-4.88-8.67c-0.48-0.72-1.94-1.34-2.74-0.77c-4.08,2.91-1.68,12.82-1.24,16.66
								c1.27,10.86,4.7,21.38,8.71,31.5c2.09,5.29,4.6,10.42,6.86,15.64c-3.78,13.71-14.84,27.15-15.63,41.68
								c-0.92,0.63-2.08,0.71-3.04,0.28c-0.11-0.9-0.23-1.76-0.34-2.57c-1.67-11.54-7.42-25.07-9.36-34.11
								c-1.83-8.52-1.8-17.58-0.87-26.41c0.52-2.41,1.02-4.59,1.47-6.42c7.75-3.67,8.59-14.12,9.86-21.85
								c1.05-6.35,1.37-14.12-3.23-18.83c0.55-1.98,0.94-3.2,0.96-3.25l0.07-0.22l-0.01-0.01c2.82,2.36,5.64,4.76,8.69,6.78
								c0.14,0.09,0.28,0.15,0.42,0.19c2.17,3.11,4.18,7.11,6.63,12c2.09,4.17,4.46,8.9,7.44,14.08c0.85,1.47,1.54,3.1,2.28,4.83
								c2.11,4.96,4.48,10.52,11,11.42C190.13,336.08,190.82,341.12,190.2,346.04z M192.03,333.25c-0.04,0-0.33,0-0.33,0
								c-7.27-0.01-9.52-5.3-11.91-10.9c-0.72-1.68-1.46-3.42-2.34-4.95c-2.97-5.14-5.33-9.86-7.41-14.02
								c-2.35-4.7-4.3-8.58-6.4-11.69c2.33-1.12,4.98-6.32,5.69-7.55c2.64-4.57,0.64-10.06-2.38-13.98
								c-2.27-2.94-6.65-5.4-10.11-6.96c0.03-0.1,0.04-0.2,0.04-0.28c0-0.2,0.01-1,0.04-2.2c0.01-0.45,0.02-0.91,0.02-1.38
								c1,1.46,2.13,2.8,3.44,4.03c1.23,1.15,3.78,3.57,5.53,3.6c1.39,0.02,1.38-1.33,1.49-2.42c0.24-2.56,0.18-5.13-0.06-7.68
								c0.54-0.59,0.67-1.68,0.66-2.56c-0.02-3.14-0.56-5.69-1.64-8.24c1.31-1.38,0.42-6.36,0.01-8.92c0-0.01,0.01-0.01,0.01-0.01
								c0.71-3.56,2.49-9.19,0.06-12.42c0.43-0.3,0.56-1,0.77-1.49c0.67-1.6,1.31-3.74,1.04-5.49c-0.49-3.17-3.09-5.72-5.96-7.28
								c1.38-0.54,2.73-1.18,4.03-1.94c8.26-0.15,14.19-2.67,19.28-7.76c3.87-3.87,4.22-11.06,4.81-16.16
								c0.51-4.46,1.82-11.51-0.8-15.58c-0.52-0.81-1.04-1.55-1.62-2.23c0.08-0.4,1.78-9.59-0.01-15.65
								c-0.72-2.44-1.71-4.86-2.87-7.66c-1.61-3.91-3.58-8.71-5.6-15.54c3.2,2.67,6.91,5.35,8.12,5.79c0.96,0.35,2.2,0.51,3.27,0.59
								h1.43c1.07-0.08,2.32-0.24,3.27-0.59c1.21-0.44,4.97-3.16,8.19-5.85c-2.03,6.88-4.02,11.71-5.63,15.64
								c-1.15,2.8-2.15,5.22-2.87,7.66c-1.78,6.06-0.08,15.26-0.01,15.65c0,0-1.07,1.69-1.6,2.51c-2.62,4.06-1.32,11.12-0.8,15.58
								c0.58,5.1,0.94,12.29,4.81,16.16c5.31,5.32,11.54,7.83,20.38,7.77c0.95,0.5,1.92,0.95,2.91,1.33
								c-2.88,1.56-5.49,4.11-5.99,7.3c-0.27,1.75,0.37,3.89,1.04,5.49c0.2,0.48,0.34,1.18,0.77,1.49
								c-2.43,3.23-0.66,8.87,0.06,12.42c0,0.01,0.01,0.01,0.01,0.02c-0.42,2.56-1.3,7.55,0.01,8.92c-1.08,2.54-1.62,5.09-1.64,8.24
								c-0.01,0.89,0.12,1.97,0.67,2.56c-0.24,2.55-0.3,5.12-0.06,7.68c0.1,1.1,0.1,2.45,1.49,2.42c1.75-0.03,4.3-2.45,5.53-3.6
								c1.5-1.4,2.76-2.95,3.85-4.66c0.01,0.72,0.02,1.42,0.04,2.11c0.02,1.2,0.04,1.99,0.04,2.2c0,0.09,0.02,0.19,0.05,0.3
								c-3.48,1.54-7.95,3.93-10.27,6.95c-3.03,3.92-5.33,9.41-2.7,13.98c0.73,1.26,3.66,6.8,6.09,7.75
								c-2.08,3.1-4.02,6.96-6.36,11.63c-2.08,4.16-4.44,8.88-7.41,14.02c-0.88,1.52-1.62,3.26-2.34,4.95
								C201.46,327.92,199.21,333.19,192.03,333.25z M201.81,391.49c-0.31-3.15-0.63-6.2-0.99-8.96c-0.24-1.88-0.54-3.82-0.89-5.78
								c0.15-4.93,0.58-9.84,1.37-14.73c0.77-4.79,1.49-9.82,3.14-14.39c1.47-4.07,3.49-7.91,5-11.97
								c3.3-8.85,5.01-17.77,6.97-26.95c0.28-1.32,0.41-2.57,0.57-3.9c0.33-2.83,1.7-4.55,2.96-6.96c0.12-0.23,4.35-8.54,5.47-2.88
								c0.26,1.31,0.36,2.54,0.33,3.86c-0.4,20.69-8.25,38.84-16.35,57.49C204.51,367.61,202.69,379.47,201.81,391.49z
								 M202.97,404.57c-0.25-2.95-0.51-6.06-0.79-9.15c0.41-7.54,1.06-15.06,2.47-22.5c1.02-5.42,2.89-10.53,5.03-15.55
								c3.49,12.03,11.44,22.61,14.22,34.84c1.52,6.68,1.86,14.11-1.65,20.29c-3.24,5.71-11.3,12.67-17.81,7.58
								C203.94,416.07,203.47,410.44,202.97,404.57z M217.96,491.68c-0.67-1.83-1.61-3.81-2.7-6.1c-1.81-3.8-4.07-8.53-5.86-14.48
								c-2.38-7.91,0.88-25.11,1.9-30.04c1.04,1.73,2.14,3.41,3.32,5.03c2.03,2.78,4.46,5.22,6.41,8.07
								c1.94,2.82,3.59,5.88,4.65,9.14c1.4,4.32,1.52,8.91,1.79,13.41c0.1,1.71,0.19,3.33,0.34,4.9c0.05,0.55,0.09,1.09,0.13,1.64
								c-0.54,2.27-1.76,5.88-4.42,8.8c-1.18,1.29-2.64,2.45-4.45,3.29C218.63,493.74,218.24,492.46,217.96,491.68z M219.38,496.45
								c2.1-0.95,3.72-2.25,4.97-3.7c2.21-2.56,3.24-5.57,3.73-7.82c0.48,7.16,0.4,14.33,0.26,22.15c-0.02,0.83-0.02,1.68-0.02,2.55
								c-0.02,5.97-0.07,12.62-3.95,17c0.08-0.37,0.15-0.74,0.22-1.12C225.33,521.57,221.73,505.22,219.38,496.45z M241.66,535.39
								c-1.87-2.25-3.51-5.38-3.52-5.4c0,0,1.78,5.34,4.28,7.46c1.74,1.49,2.48,3.59,3.2,5.62c0.24,0.69,0.49,1.39,0.77,2.05
								c1.15,2.7,10.49,10.37,11.86,11.22c0.93,0.58,3.32,4.15,3.32,4.15c0.64,0.68,0.4,2.02,0.23,3c-0.04,0.21-0.07,0.4-0.09,0.57
								c-0.03,0.19-0.07,0.36-0.11,0.51c-0.48-1.09-1.25-2.17-2.27-3.55c-1.12-1.52-2.45-2.65-2.45-2.65
								c2.83,3.35,3.88,6.05,4.24,7.53c-0.02,0.1-0.03,0.21-0.03,0.32c-0.01,0.41,0.05,0.86,0.11,1.28c0.05,0.35,0.09,0.67,0.1,0.96
								c0.02,1.02-0.16,1.76-0.29,1.87c-0.27,0.23-0.48,0.34-0.83,0.39c-0.73-2.21-1.67-3.89-3.34-6.52c-1.66-2.6-3-3.53-3-3.53
								c2.25,2.57,4.89,8.32,5.71,11.01c0.05,0.18,0.13,0.42,0.26,0.78c0.19,0.57-0.3,1.32-0.74,1.64
								c-0.18,0.13-0.62,0.17-1.01,0.15c-0.13-0.84-0.81-2.71-3.65-6.96c-1.81-2.71-3.91-4.37-3.91-4.37
								c5.39,6.86,6.44,10.49,6.63,11.47l-0.01,0.3c-0.01,0.48-0.03,1.76-0.84,2.14c-0.7,0.33-0.94,0.27-1.33,0.08
								c0.15-0.95-0.02-1.55-0.58-2.08c-0.09-0.09-0.25-0.23-0.46-0.41c-0.77-0.68-2.54-2.29-2.9-2.95
								c-2.6-4.72-6.03-6.51-6.03-6.51c2.14,1.74,4.88,6.22,5.24,6.92c0.38,0.75,1.8,2.05,3.11,3.21c0.2,0.18,0.35,0.31,0.44,0.39
								c0.32,0.3,0.44,0.6,0.3,1.39l-0.03,0.05c-0.96,1.66-3.58,2.66-5.61,2.14c-1.94-0.5-4.37-2.16-5.26-4.38
								c-1.01-2.52-2.64-3.23-3.52-3.61l-0.05-0.02c-3.94-1.22-6.11-5.77-6.68-9.88c-0.59-4.22-3.37-8.84-3.97-9.59l0,0
								c-0.07-0.1-3.29-4.51-4.88-6.18c0,0,2.1,3.39,3.31,5.34c-1.59-0.91-3.43-2.34-4.66-4.15c-1.45-2.13-1.51-3.35-1.1-5.15
								c0.34-1.5,1.29-8.17,1.88-11.17c0.15-0.52,0.3-1.1,0.44-1.7c5.4-4.6,5.43-12.21,5.46-18.96c0-0.86,0.01-1.71,0.02-2.53
								c0.17-9.07,0.24-17.25-0.53-25.59c-0.14-1.56-0.24-3.17-0.34-4.87c-0.3-5.11-0.67-10.16-2.26-15.06
								c-2.31-7.13-7.47-12.54-12.23-18.13c-1.73-2.03-2.95-4.78-4.17-7.14c-2.08-4.02-4.14-8.37-4.96-12.86
								c-0.13-0.72-0.26-1.58-0.39-2.56c3.98,2.61,8.88,1.18,12.75-1.48c4.85-3.33,7.62-9.4,8.16-15.02
								c0.18-1.94,0.21-3.81,0.12-5.63c0.93,0.48,2.03,0.55,3.03,0.28c-0.82,6.95-1.11,16.16,3.03,21.22
								c2.25,2.76,5.15,4.23,7.74,3.56c-0.26,2.01-0.42,3.35-0.45,3.82c-0.08,1.36,0.05,2.31,0.18,3.33
								c0.18,1.31,0.37,2.8,0.17,5.59c-0.34,4.81-7.25,18.45-7.25,18.45c0.09-0.15,1.07-1.79,2.34-4.09
								c0.08,13.97,0.16,27.95,0.24,41.92c0.06,10.59-0.88,23,5.59,32.08c0.16,2.98,0.43,5.83,0.57,6.27
								C241.19,532.55,241.57,533.74,241.66,535.39z M246.52,464.27c0.08,4.7-1.44,15.28-3.06,26.49
								c-1.56,10.83-3.17,21.98-3.39,28.4c-0.06,1.16-0.03,2.85,0.05,4.6c-6.66-9.92-4.85-23.75-4.91-35.12
								c-0.07-12.95-0.15-25.91-0.22-38.86c1.71-3.18,3.71-7.21,4.71-10.31C241.44,443.59,246.38,456.03,246.52,464.27z
								 M245.09,370.02c1.41,19.1-4.09,41-5.61,52.84c-0.01,0.06-0.01,0.11-0.02,0.17c-3.47,1.11-7.63-2.17-9.02-6.19
								c-2.06-5.96-1.35-16.72-0.59-20.93c2.04-11.2,7.45-23.38,9.15-32.27c1.81-9.46,1.94-16.63,1.15-24.91
								C242.22,348.64,244.44,361.18,245.09,370.02z M238.87,332.82c1.24,9.72,1.49,19.81-0.54,29.25
								c-1.94,9.04-7.69,22.57-9.36,34.11c-0.11,0.73-0.21,1.5-0.31,2.3c-1.02,0.35-2.23,0.24-3.14-0.41
								c-1.11-15.82-11.64-27.82-15.43-41.66c2.27-5.25,4.79-10.41,6.9-15.73c4.01-10.12,7.44-20.64,8.71-31.5
								c0.45-3.83,2.85-13.75-1.24-16.65c-0.8-0.57-2.26,0.05-2.74,0.77c-1.64,2.47-4.23,5.73-4.88,8.67
								c-2.1,9.45-2.98,18.96-6.1,28.23c-1.8,5.33-4.37,10.32-6.28,15.58c-1.87,5.18-2.97,10.66-3.76,16.1
								c-0.6,4.12-1,8.23-1.22,12.34c-1.07-5.68-2.41-11.39-3.56-16.3c-1.17-4.99-2.18-9.29-2.5-11.85
								c-0.63-4.93,0.07-9.96,0.38-11.85c6.53-0.89,8.91-6.46,11.02-11.42c0.74-1.73,1.43-3.36,2.28-4.83
								c2.98-5.17,5.35-9.9,7.44-14.08c2.48-4.97,4.52-9.01,6.73-12.14c0.04-0.02,0.07-0.03,0.11-0.06
								c3.13-2.07,6.02-4.55,8.92-6.97l0.08,0.29c0.01,0.04,0.42,1.3,0.98,3.31c-4.68,4.71-4.36,12.53-3.3,18.91
								c1.28,7.76,2.12,18.26,9.97,21.89C238.28,330.23,238.57,331.47,238.87,332.82z M231.55,289.03
								c1.42,5.26,3.55,14.63,3.08,21.91c-0.24,3.72,1.17,9.33,2.96,16.43c0.07,0.3,0.15,0.61,0.23,0.93
								c-6.93-3.68-8.1-14.03-9.15-21.25C227.78,300.99,227.27,293.61,231.55,289.03z M228.08,265.36c1.7,2.68,4.55,7.17,4.02,11.41
								c-0.61,4.93-1.15,6.17-1.45,6.78c-1.96,1.62-3.93,3.23-5.92,4.81c-2.26,1.8-4.29,3.01-6.46,0.37
								c-1.55-1.89-3.74-4.57-4.26-7.08c-1.87-9.14,6.5-14.48,13.33-17.48C227.53,264.5,227.77,264.88,228.08,265.36z
								 M229.62,226.86c-0.83,2.16-1.62,4.25-2.17,5.93c-0.62,0.78-1.3,1.5-2.02,2.18c0.48-2.61,0.6-5.3,0.53-7.75
								c0-0.03-0.01-0.05-0.02-0.08c1.79-0.75,3.41-1.84,4.79-3.23C230.37,224.89,229.99,225.88,229.62,226.86z M231.01,222.67
								c-1.76,2.06-4.01,3.55-6.57,4.35c0.99-2.39,1.66-4.76,1.95-7.27c1.81-0.7,3.49-1.69,5.03-2.97
								C231.43,219.03,231.24,221.26,231.01,222.67z M232.24,219.77c-0.01,0.02-0.17,0.57-0.46,1.38
								c0.62-5.63-0.16-11.54-2.64-16.43c2.27-1.79,4.28-3.87,5.78-5.62c0.12-0.14,0.22-0.28,0.34-0.42
								C234.65,205,233.48,216.07,232.24,219.77z M247.61,250.06c-0.38-10.4-2.2-19.98-5.25-24.83c-2.56-4.07-6.1-12.06-7.28-15.38
								c0-0.01,0-0.03-0.01-0.07c0.61-4.65,1.14-9.64,1.43-12.65c0.06-0.07,0.11-0.15,0.17-0.22c0.71,11.46,4.03,22.61,8.16,33.38
								c1.93,5.03,2.95,8.65,5.78,13.33c2.72,4.52,6.25,8.24,9.27,11.15c-1.4,2.38-2.42,4.29-3.3,6.79
								c-1.76-2.02-4.17-4.36-6.28-5.93C249.96,255.32,247.72,253.06,247.61,250.06z M256.4,290.51c-0.3-0.79-0.59-1.58-0.9-2.38
								c-2.91-7.7-5.92-15.67-6.11-20.17c-0.29-6.88,0.6-10.39,0.92-11.4c2.15,1.61,4.28,3.63,6.02,5.67
								c-0.28,0.87-0.55,1.8-0.82,2.86c-2.16,8.57-0.69,17.43,0.9,25.47C256.41,290.55,256.41,290.53,256.4,290.51z M258.23,295.5
								c-2.91-11.89-5.32-25.82,0.38-37.02c4.23-8.34,11.01-15.94,10.76-25.54c1.69,2.56,6.45,10.38,6.45,17.39v8.04
								c-1.06,10.8-6.71,19.93-10.32,29.98c-2.14,5.96-3.57,12.02-4.31,18.2c-0.04-0.32-0.06-0.65-0.12-0.98
								C260.33,301.25,259.21,298.05,258.23,295.5z M262.25,351.15c-0.5-1.46-0.76-3.35,0.3-4.97c1.59-2.42,3.87-6.6,5.15-8.97
								c0.03,1.15,0.09,2.45,0.16,3.64c-0.94,1.78-3.09,5.78-4.82,8.42C262.63,349.88,262.38,350.51,262.25,351.15z M264.47,356.68
								c-0.73-1.27-2.16-4.36-0.54-6.83c1.36-2.07,2.96-4.95,4.06-6.98c0.06,0.76,0.11,1.33,0.14,1.55
								c-0.26,0.93-1.93,6.88-2.25,10.66L264.47,356.68z M277.63,288.43c-0.89,7.33-3.87,15.62-3.52,25.46
								c0.54,15.41,0.22,29.32-0.25,31.53c-0.46,2.15-4.22,12.16-5.13,14.57c-0.66-0.37-1.84-1.36-1.84-3.75
								c0-3.63,2.28-11.55,2.3-11.63l0.03-0.11l-0.02-0.12c-0.01-0.07-1.05-7.04-0.37-9.95l0.03-0.14l-0.04-0.13
								c-0.54-1.87,0.3-6.26-2.27-7.23c-0.43-0.16-0.86-0.12-1.23,0.12c-1.57,1.01-1.86,3.22-2.18,5.57
								c-0.25,1.85-0.51,3.76-1.38,5.14c-1.3,2.05-2.25,2.52-2.7,2.52c-1.85-0.01-0.23-5.66-0.23-10.81c0-2,0.61-4.14,1.6-8.3
								c0.36-1.51,0.69-2.67,0.92-3.94c7.12-8.94,13.36-18.55,16.37-29.46C277.69,287.98,277.66,288.2,277.63,288.43z
								 M278.85,276.35c-0.1,1.65-0.37,3.46-0.52,5.04c-1.92,13.18-8.67,24.23-16.8,34.57c0.17-1.52,0.2-3.34-0.01-6.08
								c0.8-9.71,3.35-18.97,7.36-28.04c3.14-7.1,6.32-14.13,7.39-21.82C277.17,261.77,279.41,267.13,278.85,276.35z"/>
							<path d="M187.45,255.77c-3.87,1.18-7.71,2.4-11.55,3.63c-4.79,1.54-5.79-2.17-5.83-5.05c-0.04-2.74,1.46-5.28,3.23-7.32
								c2.96-3.42,8.03-4.49,12.43-4.76C190.91,241.96,192.48,254.07,187.45,255.77 M190.1,243.67c-2.81-4.67-11.91-0.96-15.33,1.24
								c-3.81,2.46-7.04,8.65-4.73,12.95c1.07,2,2.38,2.64,4.69,2.46c1.67-0.13,3.38-0.99,4.95-1.52c2.62-0.88,5.3-1.61,7.95-2.42
								c1.48-0.5,3.33-1.22,3.47-2.99C191.3,250.88,191.48,245.95,190.1,243.67"/>
							<path d="M195.79,255.83c-5.03-1.7-3.46-13.81,1.73-13.49c4.39,0.26,9.47,1.34,12.43,4.76c1.77,2.04,3.27,4.58,3.23,7.32
								c-0.04,2.87-1.03,6.59-5.83,5.05C203.49,258.23,199.65,257.01,195.79,255.83 M193.13,243.73c-1.38,2.28-1.2,7.21-1,9.73
								c0.14,1.77,1.99,2.49,3.47,2.99c2.65,0.8,5.33,1.54,7.95,2.42c1.56,0.53,3.28,1.39,4.95,1.52c2.31,0.18,3.62-0.46,4.69-2.46
								c2.31-4.3-0.92-10.49-4.73-12.95C205.04,242.77,195.95,239.06,193.13,243.73"/>
						</g>
					</g>
					<path d="M188.91,289.36c-0.12,4.11-0.24,8.21-0.36,12.32c-0.2,6.63-7.85-0.14-9.53-2.06c-4.74-7-6.01-16.19-7.59-24.34
						c-1.29-6.7,0.89-12.14,7.75-14.22c4.82-1.46,10-1.59,10.37,4.69C190.02,273.52,189.14,281.57,188.91,289.36 M189.41,261.04
						c-4.39-4.95-15.21,0.34-17.75,4.53c-2.77,4.54-0.58,11.4,0.39,15.95c1.36,6.38,2.72,12.97,6.44,18.44l0.03,0.03l0.02,0.04
						c2.33,2.69,5.69,4.98,9.27,5.58c2.41,0.41,1.48-7.17,1.51-8.05c0.22-7.53,0.9-15.05,1.08-22.58
						C190.43,273.19,191.91,263.87,189.41,261.04z"/>
					<path d="M193.68,265.74c0.37-6.28,5.55-6.15,10.37-4.69c6.86,2.08,9.05,7.51,7.75,14.22c-1.57,8.15-2.84,17.34-7.59,24.34
						c-1.68,1.92-9.34,8.69-9.53,2.06c-0.12-4.11-0.24-8.21-0.37-12.32C194.1,281.57,193.22,273.52,193.68,265.74 M193.93,297.57
						c0.03,0.88-0.9,8.45,1.51,8.05c3.58-0.6,6.94-2.89,9.27-5.58l0.02-0.04l0.03-0.03c3.72-5.47,5.08-12.06,6.44-18.44
						c0.97-4.55,2.55-11.08,0.39-15.95c-1.85-4.18-12.81-9.45-17.61-4.47c-2.72,2.82-1.22,10.43-1.12,13.89"/>
				</g>
			</g>
		</g>
	</g>
</g>
</svg>
