<?xml version="1.0" encoding="utf-8"?>
<!-- Generator: Adobe Illustrator 26.0.1, SVG Export Plug-In . SVG Version: 6.00 Build 0)  -->
<svg version="1.1" id="Layer_1" xmlns="http://www.w3.org/2000/svg" xmlns:xlink="http://www.w3.org/1999/xlink" x="0px" y="0px"
	 viewBox="0 0 432 648" style="enable-background:new 0 0 432 648;" xml:space="preserve">
<style type="text/css">
	.st0{fill:#FFFFFF;}
	.st1{fill:#E92A2A;}
	.st2{fill:#D52626;}
	.st3{fill:#9A1A1C;}
	.st4{fill:#8D1819;}
	.st5{fill:#A89FA8;}
	.st6{fill:#998F99;}
	.st7{fill:#E9E7E9;}
</style>
<g>
	<g>
		<g id="Front_00000132789797822432463660000018078957432963883413_">
			<g>
				<g>
					<g>
						<g>
							<path class="st0" d="M293.08,259.22v-8.56c0-6.19-3.43-12.78-5.56-16.28c2.11-7.07,2.14-23.99,0.99-31.84
								c-0.7-4.77-4.02-8.66-5.66-11.15c0.03-0.19,0.06-0.38,0.1-0.58c0.9-5.77-3.01-19.92-5.37-25.89
								c-1.56-3.96-4.82-5.46-7.43-6.67c-1.42-0.65-2.64-1.21-3.33-2.02c-1.77-2.06-3.52-2.62-5.07-3.12
								c-0.41-0.13-0.8-0.26-1.18-0.41c-0.6-0.24-1.12-0.72-1.92-1.44c-1.36-1.23-3.41-3.09-7.79-5.64c-2.41-1.4-5.8-3.02-9.38-4.74
								c-5.88-2.81-12.74-6.06-14.37-8.08c-1.49-1.84-1.65-7.67-1.67-9.58c0.71-1.8,0.79-4.65,0.76-6.3
								c0.3,0.14,0.66,0.21,1.09,0.16c1.47-0.18,2.84-2.46,4.48-5.42c0.46-0.83,0.9-1.62,1.23-2.09c1.42-2.03,1.11-6.42,0.07-9.71
								c-0.3-0.96-0.82-1.52-1.53-1.65c-0.98-0.18-2.05,0.56-2.82,1.27c0.15-4.1,0.09-15.64-4.64-21.32
								c-4.08-4.89-12.24-6.11-15.33-6.4l-1.22,0c-3.09,0.29-11.25,1.51-15.33,6.4c-4.74,5.68-4.79,17.22-4.64,21.32
								c-0.76-0.7-1.84-1.44-2.81-1.27c-0.71,0.13-1.23,0.69-1.53,1.65c-1.04,3.29-1.35,7.69,0.07,9.71
								c0.33,0.48,0.77,1.26,1.23,2.09c1.64,2.96,3.01,5.24,4.48,5.42c0.43,0.05,0.79-0.02,1.09-0.16c-0.03,1.82,0.07,5.1,1,6.82
								c0,0,0,0.01,0.01,0.01c-0.04,1.35-0.33,7.15-1.9,9.1c-1.63,2.02-8.29,5.21-14.17,8.02c-3.59,1.72-6.98,3.34-9.38,4.74
								c-4.38,2.54-6.43,4.41-7.79,5.64c-0.8,0.73-1.33,1.21-1.92,1.44c-0.38,0.15-0.77,0.28-1.18,0.41
								c-1.55,0.5-3.31,1.06-5.07,3.12c-0.69,0.81-1.91,1.37-3.33,2.02c-2.62,1.21-5.87,2.71-7.43,6.67
								c-2.35,5.97-6.27,20.12-5.37,25.89c0.06,0.41,0.13,0.82,0.21,1.22c-1.66,2.48-4.65,6.08-5.33,10.73
								c-1.14,7.8-1.27,24.08,0.8,31.2c-2.1,3.38-5.82,10.26-5.82,16.7v8.56c-0.59,0.96-3.68,6.54-3.02,17.44
								c0.25,4.18,0.72,8.03,1.22,12.1c0.88,7.26,3.84,15.49,3.5,25.2c-0.52,14.81-0.31,28.95,0.27,31.68
								c0.54,2.5,5.16,14.68,5.36,15.19l0.17,0.45l0.47-0.12c0.03-0.01,2.8-0.8,3.04-4.46l1.48,1.69l0.39-0.54
								c0.09-0.12,1.39-1.97,1.76-4.26c0.82-1.39,2.53-4.97,0.55-7.99c-2.26-3.45-5.99-10.57-6.03-10.64l0,0
								c-0.01-0.24-0.03-0.44-0.06-0.59c0.55-4.23,0-5.77,1.58-6.37c0.13-0.05,0.2-0.03,0.28,0.02c1.15,0.74,1.41,2.71,1.69,4.79
								c0.26,1.95,0.54,3.97,1.53,5.54c1.17,1.84,2.96,4.23,5.06,2.48c1.38-1.15,0.17-9.02-0.16-11.36
								c-0.42-2.91-0.42-3.73-1.57-8.35c-0.73-2.94-1.18-4.47-1.37-5.83c-0.1-1.12,0.19-5.79,0.62-9.21
								c0.49-3.92,2.91-10.33,5.48-17.12c2.93-7.76,5.96-15.77,6.16-20.43c0.3-7.21-0.65-10.79-0.99-11.83
								c0.61-0.73,2.3-2.98,2.76-5.9c0.54-3.39,0.37-9.28,0.35-9.42c0.02-0.1,1.8-10.27,4.73-14.92c2.23-3.54,5.51-10.47,6.9-14.09
								c0.51,3.59,1.08,6.79,1.65,8.51c0.72,2.18,1.65,4.59,2.54,6.93c1.27,3.33,2.47,6.48,2.78,8.12
								c0.44,2.33,0.13,19.46,0.03,25.08c-0.02,1.2-0.04,2-0.04,2.2c0,0.01,0,0.01-0.01,0.02c-0.11,0.11-0.19,0.3-0.22,0.5
								c-0.22,0.41-0.58,0.97-0.91,1.49c-1.77,2.79-4.74,7.46-4.17,12.07c0.64,5.14,1.42,7.29,1.7,7.93
								c-0.58,1.85-4.88,15.91-4.22,26.05c0.23,3.54-1.16,9.06-2.92,16.04c-2.27,9-6.56,29.75-7.51,42.68
								c-1.41,19.14,4.08,41.04,5.59,52.87c0.32,2.53,0.54,4.21,0.57,4.72c0.07,1.25-0.04,2.11-0.18,3.11
								c-0.18,1.36-0.39,2.9-0.18,5.79c0.02,0.29,0.07,0.61,0.14,0.95c-0.74,1.66-7.26,16.62-7.43,26.39
								c-0.08,4.77,1.44,15.36,3.06,26.57c1.46,10.15,2.86,20.63,3.3,27.11l0.01,0.17c0.04,0.54,0.07,1.06,0.09,1.54
								c0.07,3.47-0.26,10.38-0.49,11.06c-0.52,1.59-1.01,3.09-0.97,5.43c-0.14,0.14-0.28,0.27-0.42,0.39
								c-1.92,1.64-2.7,3.85-3.45,5.98c-0.25,0.7-0.48,1.36-0.75,1.99c-1.03,2.42-10.21,9.99-11.47,10.78
								c-0.99,0.62-3.49,4.29-3.49,4.29c-0.94,1-0.65,2.66-0.46,3.75c0.03,0.19,0.07,0.37,0.09,0.53c0.08,0.58,0.26,0.98,0.4,1.31
								c0.13,0.28,0.22,0.49,0.22,0.74c0.01,0.34-0.05,0.75-0.1,1.14c-0.05,0.35-0.1,0.72-0.11,1.06c-0.01,0.61,0.02,2.08,0.61,2.57
								c0.34,0.28,0.66,0.48,1.13,0.56c-0.05,0.15-0.12,0.35-0.2,0.59c-0.37,1.08,0.45,2.19,1.05,2.63
								c0.43,0.32,1.11,0.35,1.58,0.32c0,0.09,0.02,0.15,0.03,0.2c0.07,0.77,0.33,1.83,1.31,2.29c1,0.47,1.5,0.36,2.09,0.08
								c1.14,1.58,3.46,2.54,5.55,2.34c0.27-0.03,0.54-0.07,0.8-0.14c2.15-0.55,4.85-2.41,5.85-4.89c0.8-1.99,1.97-2.65,3.01-3.1
								c4.29-1.35,6.63-6.13,7.25-10.57c0.55-3.92,3.06-8.18,3.71-9.06c2.99-1.26,4.77-2.84,6.3-5.1c1.61-2.36,1.67-3.87,1.22-5.83
								c-0.43-1.86-1.59-10.63-2-12c-0.35-1.19-0.52-2.41-0.8-3.9c-0.87-4.63,4.87-28.51,6.56-33.16c0.65-1.78,1.57-3.73,2.65-5.98
								c1.82-3.82,4.09-8.57,5.9-14.58c2.74-9.1-1.59-29.24-2.11-31.62c1.59-2.79,3.01-5.68,4.23-8.63c0.98-2.36,1.9-4.81,2.37-7.33
								c0.68-3.72,1.28-10.77,1.96-18.93c0.61-7.21,1.29-15.38,2.13-21.91c1.03-8.05,3.17-17.14,4.88-24.45
								c1.17-5,2.18-9.32,2.52-11.92c0.62-4.87,0.01-9.72-0.34-11.83c0.37,0.04,1.49,0.05,1.76,0c-0.34,2.12-0.96,6.97-0.34,11.84
								c0.33,2.6,1.34,6.92,2.52,11.92c1.71,7.3,3.84,16.4,4.88,24.45c0.84,6.53,1.53,14.7,2.13,21.91
								c0.69,8.16,1.28,15.21,1.96,18.93c0.46,2.52,1.39,4.97,2.37,7.33c1.23,2.95,2.64,5.84,4.23,8.63
								c-0.53,2.38-4.85,22.51-2.11,31.62c1.81,6.01,4.08,10.77,5.9,14.58c1.07,2.25,2,4.2,2.65,5.98
								c1.69,4.65,7.43,28.53,6.56,33.16c-0.28,1.49-0.44,2.7-0.8,3.9c-0.4,1.36-1.57,10.13-2,12c-0.45,1.96-0.39,3.47,1.22,5.83
								c1.53,2.25,3.31,3.84,6.3,5.1c0.65,0.88,3.17,5.14,3.71,9.06c0.62,4.44,2.96,9.21,7.25,10.57c1.04,0.45,2.21,1.11,3.01,3.1
								c1,2.48,3.7,4.34,5.85,4.89c0.26,0.07,0.53,0.11,0.8,0.14c2.09,0.2,4.41-0.76,5.55-2.34c0.58,0.28,1.09,0.39,2.09-0.08
								c1.07-0.51,1.28-1.72,1.33-2.49c0.47,0.03,1.16,0,1.59-0.32c0.6-0.44,1.41-1.55,1.05-2.63c-0.08-0.22-0.14-0.41-0.19-0.56
								l0,0c0-0.01-0.01-0.02-0.01-0.04c0.47-0.09,0.79-0.28,1.13-0.56c0.59-0.49,0.63-1.96,0.61-2.57
								c-0.01-0.34-0.06-0.7-0.11-1.06c-0.05-0.39-0.11-0.8-0.1-1.14c0-0.25,0.1-0.46,0.22-0.74c0.14-0.32,0.32-0.72,0.4-1.31
								c0.02-0.16,0.05-0.34,0.09-0.53c0.19-1.09,0.48-2.74-0.46-3.75c0,0-2.5-3.67-3.49-4.29c-1.26-0.79-10.44-8.36-11.47-10.78
								c-0.27-0.63-0.5-1.29-0.75-1.99c-0.75-2.14-1.53-4.34-3.45-5.98c-0.14-0.12-0.28-0.25-0.42-0.39
								c0.04-2.34-0.45-3.84-0.97-5.43c-0.22-0.68-0.56-7.59-0.49-11.06c0.02-0.48,0.05-1,0.09-1.54c0.01-0.06,0.02-0.12,0.03-0.17
								l-0.02,0c0.44-6.48,1.84-16.96,3.3-27.11c1.62-11.21,3.15-21.8,3.06-26.57c-0.17-9.7-6.6-24.52-7.41-26.35
								c0.09-0.41,0.15-0.79,0.17-1.14c0.21-2.89,0-4.43-0.18-5.79c-0.13-1-0.25-1.86-0.18-3.11c0.03-0.51,0.24-2.18,0.57-4.72
								c1.51-11.83,7.01-33.73,5.59-52.87c-0.95-12.94-5.24-33.68-7.51-42.68c-1.76-6.99-3.15-12.51-2.92-16.04
								c0.66-10.14-3.64-24.2-4.22-26.05c0.28-0.65,1.06-2.79,1.7-7.93c0.57-4.61-2.39-9.28-4.17-12.07
								c-0.52-0.82-1.11-1.75-1.14-2.01c0-0.2-0.01-0.99-0.04-2.2c-0.1-5.63-0.41-22.76,0.03-25.08c0.31-1.64,1.51-4.79,2.78-8.12
								c0.89-2.34,1.81-4.75,2.54-6.93c0.55-1.66,1.08-4.75,1.57-8.19c0-0.01,0-0.01,0-0.02c1.42,3.54,4.62,10.04,6.68,13.69
								c3.63,6.44,4.88,16.93,5.08,24.34c0.08,2.95,2.15,5.17,2.76,5.9c-0.34,1.04-1.29,4.62-0.99,11.83
								c0.19,4.65,3.22,12.67,6.16,20.43c2.57,6.79,4.99,13.2,5.48,17.12c0.35,2.83,0.7,4.66,0.72,6.05
								c0.02,1.34,0.01,2.68-0.12,4.02c-0.12,1.24-0.64,2.7-1.27,5.21c-1.15,4.62-1.15,5.44-1.57,8.35
								c-0.33,2.33-1.54,10.21-0.16,11.36c2.09,1.74,3.89-0.64,5.06-2.48c1-1.57,1.27-3.59,1.53-5.54c0.28-2.09,0.55-4.06,1.69-4.79
								c0.08-0.05,0.15-0.07,0.28-0.02c1.58,0.59,1.02,2.13,1.58,6.37c-0.03,0.15-0.05,0.35-0.06,0.59l0,0
								c-0.04,0.07-3.77,7.19-6.03,10.64c-1.99,3.03-0.28,6.6,0.55,7.99c0.37,2.29,1.67,4.14,1.76,4.26l0.39,0.54l1.48-1.69
								c0.24,3.66,3.01,4.45,3.04,4.46l0.47,0.12l0.17-0.45c0.2-0.52,4.82-12.69,5.36-15.19c0.59-2.73,0.8-16.86,0.27-31.68
								c-0.34-9.72,2.62-17.94,3.5-25.2c0.5-4.08,0.96-7.93,1.22-12.1C296.77,265.77,293.68,260.19,293.08,259.22z"/>
						</g>
					</g>
				</g>
			</g>
		</g>
	</g>
	<g>
		<g id="Mid_quad_00000049941163474254219590000003569688916903111321_">
			<g>
				<path class="st1" d="M255.5,333.43c-0.35-1.48-0.22-1.94-0.57-3.32l-0.34-1.06c-7.88-3.65-8.73-13.87-10.02-21.57
					c-1.06-6.34-1.29-13.93,3.39-18.64c-0.56-1.97-1.27-3.81-1.27-3.81l-0.26,0.17c-2.86,2.34-5.72,4.74-8.82,6.75
					c-0.14,0.09-0.27,0.16-0.42,0.19c-1.65,2.32-3.2,5.14-4.92,8.46l0.01,6.62c0.14-0.69,0.98-4,1.13-4.69
					c0.66-2.93,3.05-6.06,4.72-8.52c0.49-0.73,1.6-1.49,2.41-0.92c4.15,2.9,1.71,12.8,1.25,16.61c-1.29,10.84-4.97,21.33-9.04,31.43
					c-2.12,5.28-4.69,10.26-6.98,15.45c3.83,13.69,15.31,27.25,16.1,41.75v0.01c1,0.66,2.27,0.68,3.28,0.16
					c0.1-2.42,0.75-4.66,1.18-6.76c2.17-10.56,7.1-20.25,8.9-31C256.71,351.77,256.81,342.44,255.5,333.43z"/>
				<path class="st1" d="M161.12,333.69c0.35-1.48,0.72-2.91,1.07-4.29l0.06-0.35c7.88-3.65,8.28-13.75,9.57-21.45
					c1.06-6.34,1.29-13.93-3.39-18.64c0.56-1.97,1.41-4.04,1.41-4.04l0.26,0.17c2.86,2.34,5.72,4.74,8.82,6.75
					c0.14,0.09,0.13,0.39,0.28,0.42c1.65,2.32,3.2,5.14,4.92,8.46l0.03,6.89c-0.14-0.69-1.02-4.28-1.17-4.96
					c-0.66-2.93-3.05-6.06-4.72-8.52c-0.49-0.73-1.6-1.49-2.41-0.92c-4.15,2.9-1.71,12.8-1.25,16.61
					c1.29,10.84,4.97,21.33,9.04,31.43c2.12,5.28,4.69,10.26,6.98,15.45c-3.83,13.69-15.31,27.25-16.1,41.75v0.01
					c-1,0.66-2.27,0.68-3.28,0.16c-0.1-2.42-0.46-4.79-0.89-6.9c-2.17-10.56-7.4-20.12-9.2-30.87
					C159.68,351.9,159.81,342.71,161.12,333.69z"/>
				<path class="st2" d="M243.88,382.11c0.37-2.19,0.69-4.37,0.96-6.53c0.09,2.13,0.24,4.29,0.43,6.47
					c0.22-0.03,0.44-0.07,0.66-0.11c-0.36-4.04-0.53-8-0.54-11.86c0.21-2.74,0.31-5.44,0.33-8.11c0.89,6.14,2.32,11.45,4.39,16.25
					c0.11-0.31,0.22-0.62,0.33-0.93c-2.86-6.91-4.45-14.93-4.97-25.06c1.38,6.55,3.82,12.7,7.29,18.35
					c0.09-0.28,0.18-0.56,0.27-0.84c-3.49-5.82-5.87-12.17-7.14-18.93c1.6,3.41,4.58,8.47,9.11,11.32c0.04-0.23,0.09-0.47,0.13-0.7
					c-4.52-2.97-7.88-8.62-9.7-13.38c-0.13-0.9-0.25-1.81-0.33-2.73c0.14-1.33,0.34-2.64,0.63-3.93
					c1.71,5.64,5.21,10.34,10.24,13.61c0.02-0.25,0.04-0.5,0.06-0.75c-5.06-3.39-8.49-8.26-9.98-14.12
					c0.45-1.71,1.03-3.37,1.74-4.99c0.6,5.35,3.65,10.03,8.51,12.91c0-0.26,0-0.52,0-0.77c-4.78-2.98-7.73-7.94-7.95-13.36
					c0.99-2.04,2.17-4,3.58-5.88c-0.18-0.14-0.35-0.27-0.51-0.42c-2.59,3.45-4.48,7.21-5.67,11.23l0-0.02l-0.05,0.23
					c-0.13,0.45-0.27,0.91-0.38,1.37c0.16-5.65,0.71-11.58,2.55-17.6c-0.14-0.28-0.27-0.57-0.39-0.86
					c-0.03,0.04-0.06,0.08-0.08,0.13c-1.05,3.29-1.7,6.56-2.11,9.77c-0.41-6.36-1.71-12.62-3.94-18.7c-0.07,0.45-0.15,0.9-0.23,1.36
					c2.86,8.26,4.05,16.84,3.54,25.53l0.01,0.02c-0.03,1-0.05,1.99-0.06,2.97c-1.01-6.48-2.9-12.87-5.66-18.98
					c-0.1,0.34-0.19,0.69-0.29,1.03c0.03,0.06,0.05,0.12,0.08,0.18c0.13,13.09-4.38,24.32-12.44,30.98
					c-0.36,0.25-0.32,0.14-0.41,0.35c0.03,0.12,0.2,0.52,0.24,0.64c8.25-6.47,13.03-17.5,13.27-30.45c1.01,2.48,1.89,4.99,2.62,7.54
					c0.03,10.76-5.51,20.38-14.91,25.89c0.08,0.21,0.15,0.42,0.23,0.63c8.98-5.22,14.58-14.18,15.27-24.31
					c0.53,2.08,0.98,4.18,1.32,6.29c-2.23,8.97-7.29,16.3-15.05,21.78c0.09,0.2,0.18,0.41,0.27,0.62c7.51-5.27,12.54-12.23,15-20.72
					c0.13,0.95,0.25,1.89,0.34,2.84c-1.98,8.85-6.35,16.5-13.04,22.73c0.1,0.21,0.21,0.41,0.31,0.62
					c6.38-5.89,10.69-13.05,12.9-21.29l0.02,0.28c-1.43,9.37-4.84,18.1-10.17,25.95c0.14,0.19,0.28,0.38,0.42,0.56
					c4.88-7.11,8.19-14.94,9.88-23.33c0.2,9.48-1.44,18.99-4.94,27.99c0.2,0.12,0.4,0.22,0.59,0.32c2.43-6.23,3.97-12.71,4.65-19.25
					c-0.04,6.53-0.65,13.25-1.83,20.11C243.45,382.08,243.67,382.1,243.88,382.11"/>
				<path class="st3" d="M243.62,399.03c-0.62,0-1.24-0.17-1.77-0.54l0,0c-0.08-1.48-0.27-2.96-0.55-4.42
					c1.06-4.03,1.91-8.02,2.59-11.97c0.11,0,0.22,0.01,0.33,0.01c0.36,0,0.71-0.02,1.06-0.07c0.25,2.81,0.65,6.03,1.06,8.9
					c-0.08,0.34-1.15,6.11-1.22,7.72C244.65,398.91,244.14,399.03,243.62,399.03 M240.98,392.61c-0.57-2.45-1.38-4.88-2.34-7.28
					c0.63-1.36,1.22-2.74,1.76-4.13c0.93,0.47,1.88,0.75,2.82,0.86C242.63,385.54,241.88,389.06,240.98,392.61 M246.74,389.07
					c-0.31-2.32-0.61-4.86-0.81-7.13c1.2-0.25,2.34-0.77,3.39-1.49c-0.97,2.76-1.78,5.68-2.51,8.52L246.74,389.07 M238.3,384.47
					c-1.1-2.66-2.36-5.3-3.67-7.92c0.08-0.11,0.16-0.22,0.23-0.33c1.08,1.39,2.3,2.67,3.67,3.78c0.42,0.34,0.84,0.63,1.27,0.88
					C239.34,382.08,238.84,383.28,238.3,384.47 M234.3,375.88c-0.27-0.53-0.53-1.06-0.8-1.59c0.3,0.47,0.62,0.92,0.94,1.37
					C234.39,375.73,234.34,375.8,234.3,375.88"/>
				<path class="st4" d="M241.29,394.08c-0.09-0.49-0.2-0.98-0.31-1.46c0.9-3.55,1.64-7.07,2.24-10.56
					c0.22,0.03,0.44,0.04,0.66,0.05C243.21,386.05,242.35,390.04,241.29,394.08 M246.32,390.86c-0.42-2.86-0.8-6.01-1.05-8.81
					c0.22-0.03,0.44-0.07,0.66-0.11c0.2,2.27,0.5,4.86,0.82,7.18c-0.15,0.58-0.24,0.95-0.37,1.53L246.32,390.86z M238.65,385.33
					c-0.11-0.28-0.23-0.57-0.35-0.86c0.54-1.19,1.04-2.39,1.51-3.6c0.2,0.12,0.4,0.22,0.59,0.32
					C239.86,382.59,239.28,383.96,238.65,385.33 M234.63,376.55c-0.11-0.23-0.23-0.45-0.34-0.68c0.05-0.07,0.1-0.14,0.15-0.22
					c0.14,0.19,0.28,0.38,0.42,0.56C234.79,376.33,234.71,376.44,234.63,376.55"/>
			</g>
			<g>
				<path class="st2" d="M172.32,382.57c-0.37-2.22-0.68-4.42-0.94-6.61c-0.09,2.16-0.23,4.34-0.43,6.55
					c-0.22-0.03-0.43-0.07-0.65-0.11c0.35-4.09,0.52-8.1,0.53-12.01c-0.21-2.77-0.3-5.5-0.32-8.21c-0.88,6.21-2.28,11.6-4.3,16.45
					c-0.11-0.31-0.22-0.63-0.33-0.94c2.81-7,4.36-15.12,4.88-25.37c-1.35,6.63-3.75,12.86-7.15,18.58
					c-0.09-0.28-0.18-0.57-0.26-0.85c3.43-5.9,5.76-12.33,7.01-19.16c-1.57,3.46-4.49,8.58-8.94,11.47
					c-0.04-0.24-0.09-0.47-0.13-0.71c4.43-3.01,7.73-8.73,9.52-13.54c0.12-0.92,0.24-1.84,0.33-2.77c-0.14-1.35-0.34-2.68-0.62-3.98
					c-1.67,5.71-5.12,10.47-10.05,13.78c-0.02-0.25-0.04-0.51-0.06-0.76c4.97-3.44,8.33-8.37,9.79-14.3
					c-0.44-1.73-1.01-3.42-1.7-5.05c-0.59,5.42-3.58,10.16-8.35,13.08c0-0.26,0-0.52,0-0.78c4.69-3.02,7.59-8.04,7.8-13.53
					c-0.97-2.06-2.13-4.05-3.51-5.95c0.17-0.14,0.34-0.28,0.5-0.42c2.54,3.49,4.39,7.3,5.57,11.37l0-0.02l0.05,0.23
					c0.13,0.46,0.26,0.92,0.38,1.39c-0.15-5.72-0.69-11.73-2.5-17.82c0.13-0.29,0.26-0.58,0.39-0.87c0.03,0.04,0.06,0.08,0.07,0.13
					c1.03,3.34,1.66,6.64,2.07,9.9c0.4-6.44,1.77-13.08,3.96-19.23c0.07,0.46,0.15,0.92,0.22,1.37c-2.81,8.36-4.07,17.35-3.56,26.14
					l-0.01,0.02c0.03,1.01,0.05,2.01,0.06,3.01c1-6.56,2.97-13.37,5.68-19.56c0.09,0.35,0.19,0.7,0.29,1.05
					c-0.02,0.06-0.17,0.47-0.2,0.53c-0.12,13.26,4.79,24.97,12.7,31.71c0.09,0.21-0.19,0.14-0.1,0.35c-0.03,0.12-0.07,0.24-0.1,0.36
					c-8.09-6.55-12.89-17.78-13.13-30.89c-0.99,2.51-1.85,5.05-2.57,7.63c-0.03,10.89,5.4,20.64,14.63,26.22
					c-0.07,0.21-0.15,0.43-0.23,0.64c-8.81-5.28-14.3-14.36-14.98-24.61c-0.52,2.11-0.96,4.23-1.3,6.37
					c2.19,9.09,7.15,16.5,14.77,22.05c-0.09,0.21-0.18,0.42-0.27,0.62c-7.37-5.33-12.31-12.39-14.72-20.98
					c-0.13,0.96-0.25,1.92-0.34,2.88c1.94,8.96,6.24,16.7,12.8,23.01c-0.1,0.21-0.2,0.42-0.3,0.63
					c-6.26-5.97-10.49-13.21-12.65-21.55l-0.02,0.29c1.41,9.49,4.75,18.33,9.98,26.28c-0.14,0.19-0.27,0.38-0.41,0.57
					c-4.78-7.2-8.03-15.13-9.69-23.62c-0.19,9.6,1.41,19.22,4.84,28.34c-0.19,0.12-0.39,0.23-0.58,0.33
					c-2.38-6.31-3.9-12.87-4.56-19.49c0.04,6.61,0.63,13.41,1.79,20.36C172.75,382.54,172.54,382.56,172.32,382.57"/>
				<path class="st3" d="M172.55,399.32c-0.51,0-1.02-0.12-1.47-0.36c-0.07-1.61-0.25-3.19-0.49-4.69c-0.12-0.76-0.25-1.49-0.4-2.2
					c-0.01-0.06-0.03-0.13-0.04-0.19c-0.07-0.34-0.14-0.68-0.22-1.02c0.41-2.86,0.74-5.7,0.99-8.5c0.34,0.05,0.69,0.07,1.04,0.07
					c0.11,0,0.21,0,0.32-0.01c0.66,3.94,1.67,8.59,2.71,12.62c-0.28,1.46-0.22,2.2-0.3,3.69l-0.41,0.06
					C173.77,399.14,173.16,399.32,172.55,399.32 M175.26,393.38c-0.88-3.55-1.74-7.54-2.33-11.02c0.92-0.11,1.85-0.39,2.77-0.86
					c0.53,1.39,1.11,2.76,1.72,4.13c-0.94,2.4-1.2,4.56-1.76,7.01L175.26,393.38 M169.53,389.12c-0.72-2.83-1.62-5.61-2.57-8.37
					c1.02,0.73,2.15,1.24,3.32,1.49C170.09,384.51,169.84,386.8,169.53,389.12 M177.77,384.77c-0.53-1.19-1.02-2.39-1.48-3.59
					c0.42-0.25,0.84-0.54,1.25-0.88c1.35-1.1,2.54-2.38,3.6-3.77c0.07,0.11,0.15,0.22,0.23,0.33
					C180.09,379.48,178.85,382.12,177.77,384.77 M181.7,376.19c-0.05-0.07-0.1-0.14-0.14-0.22c0.32-0.45,0.63-0.9,0.93-1.37
					C182.22,375.13,181.96,375.66,181.7,376.19"/>
				<path class="st4" d="M175,395.05c-1.04-4.03-2.04-8.69-2.71-12.63c0.22-0.01,0.43-0.03,0.65-0.05
					c0.59,3.48,1.49,7.68,2.37,11.23C175.19,394.07,175,395.05,175,395.05z M169.94,390.85c-0.13-0.58-0.27-1.16-0.41-1.73
					c0.31-2.31,0.56-4.61,0.76-6.88c0.21,0.05,0.43,0.08,0.65,0.11C170.68,385.15,170.35,387.99,169.94,390.85 M177.43,385.63
					c-0.62-1.36-1.19-2.74-1.72-4.13c0.19-0.1,0.39-0.21,0.58-0.32c0.46,1.21,0.95,2.41,1.48,3.59
					C177.66,385.06,177.54,385.34,177.43,385.63 M181.37,376.86c-0.08-0.11-0.15-0.22-0.23-0.33c0.14-0.18,0.28-0.37,0.41-0.56
					c0.05,0.07,0.1,0.14,0.14,0.22C181.59,376.41,181.48,376.64,181.37,376.86"/>
			</g>
		</g>
		<g id="Front_00000078751357120247010790000004441322102951524261_">
			<path class="st5" d="M208.11,140c-0.88-0.07-1.76-0.26-2.58-0.56c-0.17-1.53-0.35-3.1-0.54-4.7c0.43,0.1,0.89,0.18,1.35,0.24
				c0.36,0.05,0.72,0.08,1.06,0.11h1.42c0.33-0.03,0.68-0.06,1.04-0.11c0.45-0.06,0.89-0.13,1.32-0.23
				c-0.19,1.61-0.37,3.17-0.54,4.71C209.82,139.74,208.97,139.93,208.11,140 M211.32,139.18c0.17-1.54,0.35-3.08,0.53-4.62
				c0.08-0.02,0.15-0.05,0.22-0.08c0.51-0.18,1.46-0.76,2.63-1.57c-0.13,1.6-0.38,3.17-0.7,4.73
				C213.16,138.24,212.26,138.77,211.32,139.18 M204.83,139.15c-0.94-0.42-1.84-0.96-2.69-1.56c-0.32-1.55-0.57-3.13-0.69-4.73
				c1.2,0.83,2.17,1.43,2.68,1.61c0.06,0.02,0.11,0.04,0.17,0.06C204.49,136.08,204.66,137.62,204.83,139.15 M214.81,137.05
				c0.28-1.52,0.49-3.06,0.58-4.62c1.49-1.07,3.24-2.42,4.84-3.76c-0.5,1.69-0.99,3.25-1.48,4.71c-0.49,0.55-1,1.08-1.54,1.58
				C216.46,135.67,215.66,136.38,214.81,137.05 M201.34,137c-0.83-0.65-1.61-1.35-2.35-2.04c-0.53-0.51-1.05-1.04-1.54-1.58
				c-0.49-1.46-0.98-3.02-1.48-4.71c1.59,1.33,3.31,2.66,4.79,3.72C200.86,133.94,201.06,135.48,201.34,137"/>
			<path class="st6" d="M202.15,137.6c-0.27-0.19-0.54-0.39-0.8-0.6c-0.28-1.52-0.49-3.06-0.58-4.62c0.24,0.17,0.47,0.33,0.69,0.49
				C201.58,134.47,201.83,136.04,202.15,137.6"/>
			<path class="st6" d="M205.53,139.44c-0.12-0.04-0.23-0.09-0.35-0.13c-0.12-0.05-0.23-0.1-0.34-0.15
				c-0.17-1.54-0.35-3.07-0.53-4.61c0.21,0.07,0.44,0.13,0.68,0.19C205.17,136.34,205.35,137.9,205.53,139.44"/>
			<path class="st6" d="M214.01,137.64c0.32-1.56,0.57-3.13,0.7-4.73c0.22-0.15,0.45-0.32,0.69-0.49c-0.09,1.56-0.3,3.1-0.58,4.62
				C214.55,137.25,214.28,137.45,214.01,137.64"/>
			<path class="st6" d="M210.63,139.46c0.17-1.54,0.35-3.1,0.54-4.71c0.23-0.05,0.46-0.11,0.68-0.18c-0.18,1.54-0.36,3.08-0.53,4.62
				c-0.1,0.04-0.19,0.08-0.29,0.12C210.9,139.36,210.77,139.41,210.63,139.46"/>
			<path class="st7" d="M206.38,170.28c-0.11-0.21-0.23-0.41-0.35-0.61c-0.06-0.09-0.12-0.18-0.18-0.27c0.5-7.84-0.1-15.1-1.8-21.6
				c-0.25-0.96-0.51-1.91-0.77-2.86c-0.71-2.59-1.43-5.24-1.93-7.94c0.26,0.21,0.53,0.41,0.8,0.6c0.43,2.11,1,4.19,1.55,6.23
				c0.69,2.54,1.4,5.16,1.86,7.82c1.06,6.18,1.35,12.22,0.91,18.44C206.45,170.17,206.43,170.23,206.38,170.28"/>
			<path class="st7" d="M207.52,174.56c-0.08-0.8-0.2-1.58-0.4-2.32c0.51-5.34-0.03-10.78-0.55-16.07
				c-0.09-0.87-0.17-1.74-0.25-2.61c-0.44-4.73-0.94-9.56-1.48-14.42c0.11,0.05,0.23,0.1,0.34,0.15c0.12,0.05,0.23,0.09,0.35,0.13
				c0.65,5.8,1.19,11.12,1.63,16.14c0.06,0.69,0.12,1.39,0.19,2.08C207.85,163.2,208.37,168.92,207.52,174.56"/>
			<path class="st7" d="M210.42,169.54c-0.51-7.87-0.01-15.22,1.69-21.74c0.25-0.96,0.51-1.91,0.77-2.86
				c0.71-2.58,1.42-5.21,1.92-7.89c-0.26,0.2-0.53,0.4-0.8,0.59c-0.43,2.1-0.99,4.16-1.54,6.19c-0.69,2.54-1.4,5.16-1.86,7.82
				c-1.06,6.18-1.21,12.79-0.77,19.02L210.42,169.54z"/>
			<path class="st7" d="M208.8,174.21c-0.9-5.71-0.5-10.94,0.02-16.56c0.06-0.69,0.13-1.38,0.19-2.07
				c0.44-5.02,0.98-10.34,1.63-16.12c0.14-0.05,0.27-0.1,0.4-0.15c0.1-0.04,0.19-0.08,0.29-0.12c-0.54,4.85-1.04,9.67-1.48,14.39
				c-0.08,0.86-0.17,1.73-0.25,2.6c-0.53,5.34-0.98,11.11-0.45,16.5c-0.19,0.76-0.02,0.6-0.09,1.43L208.8,174.21z"/>
			<g>
				<path class="st5" d="M239.35,446.37c0.45,0,0.89-0.03,1.34-0.11c2.28-0.38,3.98-1.68,5.44-3.27c-0.01,0-0.02,0-0.02,0
					l-0.21,0.01c-3.05,0-13.43-8.45-15.74-11.04c0,0,13.51,9.97,15.7,9.97c0.03,0,0.06,0,0.08-0.01c1.83-0.28,7.08-8.89,7.19-9.07h0
					c0,0-0.08,0.14-0.23,0.38c-1.74,1.9-4.23,3.19-6.81,3.19c-0.14,0-0.27,0-0.41-0.01c-2.83-0.15-5.59-2.09-6.29-4.8
					c-0.52-2.03,0.11-4.21,1.23-5.98c1.12-1.77,2.7-3.21,4.26-4.63c-3.25,1.08-4.77,1.77-6.5,2.96c-1.26,0.87-5.24,2.73-8.17,2.73
					c-1.1,0-2.05-0.26-2.64-0.94c-0.6-0.69-1.2-1.37-1.68-2.14c-0.26-0.43-0.53-0.86-0.79-1.29c-0.4-0.02-0.8-0.07-1.2-0.15
					c-1.03-0.19-2.03-0.56-2.99-1.17c0.13,0.95,0.25,1.79,0.38,2.5c0.82,4.47,2.88,8.81,4.95,12.81c0.34,0.65,0.67,1.33,1.02,2.01
					c0.92,1.81,1.92,3.66,3.2,5.14l0.1,0.11c0.8,0.35,1.59,0.68,2.31,1C234.92,445.52,237.13,446.37,239.35,446.37"/>
				<path class="st5" d="M177.09,446.37c-0.45,0-0.89-0.03-1.34-0.11c-2.28-0.38-3.98-1.68-5.44-3.27c0.01,0,0.02,0,0.02,0
					l0.21,0.01c3.05,0,13.43-8.45,15.74-11.04c0,0-13.51,9.97-15.7,9.97c-0.03,0-0.06,0-0.09-0.01c-1.83-0.28-7.08-8.89-7.19-9.07h0
					c0,0,0.08,0.14,0.23,0.38c1.74,1.9,4.23,3.19,6.81,3.19c0.14,0,0.27,0,0.41-0.01c2.83-0.15,5.59-2.09,6.29-4.8
					c0.52-2.03-0.11-4.21-1.23-5.98c-1.12-1.77-2.7-3.21-4.26-4.63c3.25,1.08,4.77,1.77,6.5,2.96c1.26,0.87,5.24,2.73,8.17,2.73
					c1.1,0,2.05-0.26,2.64-0.94c0.6-0.69,1.2-1.37,1.68-2.14c0.26-0.43,0.53-0.86,0.79-1.29c0.4-0.02,0.8-0.07,1.2-0.15
					c1.03-0.19,2.03-0.56,2.99-1.17c-0.13,0.95-0.25,1.79-0.38,2.5c-0.82,4.47-2.88,8.81-4.95,12.81c-0.34,0.65-0.67,1.33-1.02,2.01
					c-0.92,1.81-1.92,3.66-3.2,5.14l-0.1,0.11c-0.8,0.35-1.59,0.68-2.31,1C181.52,445.52,179.32,446.37,177.09,446.37"/>
				<g>
					<g>
						<path d="M201.85,239.7c-3.31,0.51-6.33,1.66-9.47,2.74c-8.44,2.91-5.45-7.96-3.13-11.69c2.68-4.31,8.1-6.78,13-7.69
							c5.85-1.08,4.52,5.83,4.43,8.44C206.55,235.03,206.86,239.06,201.85,239.7 M207.32,231.56c0.07-1.93,0.19-3.84,0.04-5.77
							c-0.52-6.73-10.94-1.76-13.71-0.09c-5.35,3.23-8.2,9.5-7.46,15.54c0.15,1.23,1.13,2.85,2.64,2.68
							c4.53-0.51,8.62-2.91,13.15-3.61c2.36-0.3,3.82-0.73,4.9-2.83C207.67,235.93,207.26,233.23,207.32,231.56"/>
						<path d="M214.2,239.7c-5.08-0.66-4.78-4.68-4.9-8.2c-0.1-2.61-1.46-9.52,4.47-8.43c4.96,0.92,10.46,3.4,13.18,7.71
							c2.35,3.73,5.41,14.61-3.14,11.68C220.61,241.38,217.55,240.22,214.2,239.7 M208.64,231.56c0.06,1.67-0.34,4.37,0.47,5.93
							c1.1,2.1,2.57,2.53,4.97,2.84c4.59,0.71,8.74,3.12,13.33,3.64c1.53,0.17,2.51-1.45,2.66-2.68c0.74-6.04-2.17-12.32-7.59-15.56
							c-2.81-1.68-13.38-6.67-13.89,0.06C208.44,227.72,208.57,229.63,208.64,231.56"/>
						<path d="M200.21,220.13c-2.79,1.66-12.71,8.13-13.44,1.48c-0.63-5.75,1.06-9.82,6.37-12.42c3.24-1.58,8.4-4.62,11.97-4.01
							c2.46,1.44,1.47,6.18,1.06,8.33C205.56,216.8,202.89,218.54,200.21,220.13 M205.52,204.6c-0.76-0.32-1.74-0.2-2.51-0.08
							c-1.32,0.2-2.57,0.71-3.78,1.26c-0.32,0.14-0.64,0.29-0.96,0.44c-2.77,1.29-6.17,2.21-8.57,4.18
							c-2.45,2.01-3.42,4.24-3.72,7.36c-0.16,1.59-0.5,6.77,1,8.04c1.78,1.51,3.91-0.22,5.69-1.06c3.67-1.74,8.55-3.46,11.47-6.36
							c2.3-2.28,3.63-6.2,3.53-9.4c-0.04-1.45-0.54-3.38-1.84-4.21L205.52,204.6"/>
						<path d="M215.45,220.16c-2.67-1.59-5.35-3.34-5.96-6.63c-0.4-2.15-1.39-6.89,1.06-8.33c3.57-0.6,8.73,2.43,11.97,4.01
							c5.31,2.6,7.01,6.67,6.37,12.42C228.15,228.29,218.23,221.81,215.45,220.16 M210.14,204.62l-0.3,0.16
							c-1.3,0.83-1.8,2.76-1.84,4.21c-0.1,3.2,1.23,7.12,3.53,9.4c2.93,2.91,7.8,4.62,11.47,6.36c1.78,0.84,3.91,2.57,5.69,1.06
							c1.51-1.27,1.16-6.45,1-8.04c-0.31-3.12-1.27-5.35-3.72-7.36c-2.39-1.97-5.8-2.89-8.57-4.18c-0.32-0.15-0.64-0.3-0.96-0.44
							c-1.21-0.55-2.46-1.06-3.78-1.26C211.88,204.42,210.9,204.31,210.14,204.62"/>
						<g>
							<path d="M170.45,443.01l-0.21-0.01c-0.01,0-0.02,0-0.02,0c0,0-0.01-0.01-0.01-0.01c-2.65-0.47-7.53-8.93-7.53-10.12h0.53
								c0.11,0.18,5.36,8.79,7.19,9.07c0.03,0,0.05,0.01,0.09,0.01c2.2,0,15.7-9.97,15.7-9.97
								C183.88,434.56,173.51,443.01,170.45,443.01"/>
							<path d="M245.82,443.01l0.21-0.01c0.01,0,0.02,0,0.02,0c0,0,0.01-0.01,0.01-0.01c2.65-0.47,7.53-8.93,7.53-10.12h-0.53
								c-0.11,0.18-5.36,8.79-7.19,9.07c-0.03,0-0.05,0.01-0.08,0.01c-2.2,0-15.7-9.97-15.7-9.97
								C232.4,434.56,242.77,443.01,245.82,443.01"/>
							<path d="M293.08,259.22v-8.56c0-6.19-3.43-12.78-5.56-16.28c2.11-7.07,2.14-23.99,0.99-31.84c-0.7-4.77-4.02-8.66-5.66-11.15
								c0.03-0.19,0.06-0.38,0.1-0.58c0.9-5.77-3.01-19.92-5.37-25.89c-1.56-3.96-4.82-5.46-7.43-6.67
								c-1.42-0.65-2.64-1.21-3.33-2.02c-1.77-2.06-3.52-2.62-5.07-3.12c-0.41-0.13-0.8-0.26-1.18-0.41
								c-0.6-0.24-1.12-0.72-1.92-1.44c-1.36-1.23-3.41-3.09-7.79-5.64c-2.41-1.4-5.8-3.02-9.38-4.74
								c-5.88-2.81-12.74-6.06-14.37-8.08c-1.49-1.84-1.65-7.67-1.67-9.58c0.71-1.8,0.79-4.65,0.76-6.3
								c0.3,0.14,0.66,0.21,1.09,0.16c1.46-0.18,2.84-2.46,4.48-5.42c0.46-0.83,0.9-1.62,1.23-2.09c1.42-2.03,1.11-6.42,0.07-9.71
								c-0.3-0.96-0.82-1.52-1.53-1.65c-0.98-0.18-2.05,0.56-2.82,1.27c0.15-4.1,0.09-15.64-4.64-21.32
								c-4.08-4.89-12.23-6.11-15.33-6.4l-1.22,0c-3.09,0.29-11.25,1.51-15.33,6.4c-4.74,5.68-4.79,17.22-4.64,21.32
								c-0.76-0.7-1.84-1.44-2.81-1.27c-0.71,0.13-1.23,0.69-1.53,1.65c-1.04,3.29-1.35,7.69,0.07,9.71
								c0.33,0.48,0.77,1.26,1.23,2.09c1.64,2.96,3.01,5.25,4.48,5.42c0.43,0.05,0.79-0.02,1.09-0.16c-0.03,1.82,0.07,5.1,1,6.82
								c0,0,0,0.01,0.01,0.01c-0.04,1.35-0.33,7.15-1.9,9.1c-1.63,2.02-8.29,5.21-14.17,8.02c-3.59,1.72-6.98,3.34-9.38,4.74
								c-4.38,2.54-6.43,4.41-7.79,5.64c-0.8,0.73-1.33,1.21-1.92,1.44c-0.38,0.15-0.77,0.28-1.18,0.41
								c-1.55,0.5-3.31,1.06-5.07,3.12c-0.69,0.81-1.91,1.37-3.33,2.02c-2.62,1.21-5.87,2.71-7.43,6.67
								c-2.35,5.97-6.27,20.12-5.37,25.89c0.06,0.41,0.13,0.82,0.21,1.22c-1.66,2.48-4.65,6.08-5.33,10.73
								c-1.14,7.8-1.27,24.08,0.8,31.2c-2.1,3.38-5.82,10.26-5.82,16.7v8.56c-0.59,0.96-3.68,6.54-3.02,17.44
								c0.25,4.18,0.72,8.03,1.22,12.1c0.88,7.26,3.84,15.49,3.5,25.2c-0.52,14.81-0.31,28.95,0.27,31.68
								c0.54,2.5,5.16,14.68,5.36,15.19l0.17,0.45l0.47-0.12c0.03-0.01,2.8-0.8,3.04-4.46l1.48,1.69l0.39-0.54
								c0.09-0.12,1.39-1.97,1.76-4.26c0.82-1.39,2.53-4.97,0.55-7.99c-2.26-3.45-5.99-10.57-6.03-10.64l0,0
								c-0.01-0.24-0.03-0.44-0.06-0.59c0.55-4.23,0-5.77,1.58-6.37c0.13-0.05,0.2-0.03,0.28,0.02c1.15,0.74,1.41,2.71,1.69,4.79
								c0.26,1.95,0.54,3.97,1.53,5.54c1.17,1.84,2.96,4.23,5.06,2.48c1.38-1.15,0.17-9.02-0.16-11.36
								c-0.42-2.91-0.42-3.73-1.57-8.35c-0.73-2.94-1.18-4.47-1.37-5.83c-0.1-1.12,0.19-5.79,0.62-9.21
								c0.49-3.92,2.91-10.33,5.48-17.12c2.93-7.76,5.96-15.77,6.16-20.43c0.3-7.21-0.65-10.79-0.99-11.83
								c0.61-0.73,2.3-2.98,2.76-5.9c0.54-3.39,0.37-9.28,0.35-9.42c0.02-0.1,1.8-10.27,4.73-14.92c2.23-3.54,5.51-10.47,6.9-14.09
								c0.51,3.59,1.07,6.79,1.65,8.51c0.72,2.18,1.65,4.59,2.54,6.93c1.27,3.33,2.47,6.48,2.78,8.12
								c0.44,2.33,0.13,19.46,0.03,25.08c-0.02,1.2-0.04,2-0.04,2.2c0,0.01,0,0.01-0.01,0.02c-0.11,0.11-0.19,0.3-0.22,0.5
								c-0.22,0.41-0.58,0.97-0.91,1.49c-1.77,2.79-4.74,7.46-4.17,12.07c0.64,5.14,1.42,7.29,1.7,7.93
								c-0.58,1.85-4.88,15.91-4.22,26.05c0.23,3.54-1.16,9.06-2.92,16.04c-2.27,9-6.56,29.75-7.51,42.68
								c-1.41,19.14,4.08,41.04,5.59,52.87c0.32,2.53,0.54,4.21,0.57,4.72c0.07,1.25-0.04,2.11-0.18,3.11
								c-0.18,1.36-0.39,2.9-0.18,5.79c0.02,0.29,0.07,0.61,0.14,0.95c-0.74,1.66-7.26,16.62-7.43,26.39
								c-0.08,4.77,1.44,15.36,3.06,26.57c1.46,10.15,2.86,20.63,3.3,27.11l0.01,0.17c0.04,0.54,0.07,1.06,0.09,1.54
								c0.07,3.47-0.26,10.38-0.49,11.06c-0.52,1.59-1.01,3.09-0.97,5.43c-0.14,0.14-0.28,0.27-0.42,0.39
								c-1.92,1.64-2.7,3.85-3.45,5.98c-0.25,0.7-0.48,1.36-0.75,1.99c-1.03,2.42-10.21,9.99-11.47,10.78
								c-0.99,0.62-3.49,4.29-3.49,4.29c-0.94,1-0.65,2.66-0.46,3.75c0.03,0.19,0.07,0.37,0.09,0.53c0.08,0.58,0.26,0.98,0.4,1.31
								c0.13,0.28,0.22,0.49,0.22,0.74c0.01,0.34-0.05,0.75-0.1,1.14c-0.05,0.35-0.1,0.72-0.11,1.06c-0.01,0.61,0.02,2.08,0.61,2.57
								c0.34,0.28,0.66,0.48,1.13,0.56c-0.05,0.15-0.12,0.35-0.2,0.59c-0.37,1.08,0.45,2.19,1.05,2.63
								c0.43,0.32,1.11,0.35,1.58,0.32c0,0.09,0.02,0.15,0.03,0.2c0.07,0.77,0.33,1.83,1.31,2.29c1,0.47,1.5,0.36,2.09,0.08
								c1.14,1.58,3.46,2.54,5.55,2.34c0.27-0.03,0.54-0.07,0.8-0.14c2.15-0.55,4.85-2.41,5.85-4.89c0.8-1.99,1.97-2.65,3.01-3.1
								c4.29-1.35,6.63-6.13,7.25-10.57c0.55-3.92,3.06-8.18,3.71-9.06c2.99-1.26,4.77-2.84,6.3-5.1c1.61-2.36,1.67-3.87,1.22-5.83
								c-0.43-1.86-1.59-10.63-2-12c-0.35-1.19-0.52-2.41-0.8-3.9c-0.87-4.63,4.87-28.51,6.56-33.16c0.65-1.78,1.57-3.73,2.65-5.98
								c1.82-3.82,4.09-8.57,5.9-14.58c2.74-9.1-1.59-29.24-2.11-31.62c1.59-2.79,3.01-5.68,4.23-8.63c0.98-2.36,1.9-4.81,2.37-7.33
								c0.68-3.72,1.28-10.77,1.96-18.93c0.61-7.21,1.29-15.38,2.13-21.91c1.03-8.05,3.17-17.14,4.88-24.45
								c1.17-5,2.18-9.32,2.52-11.92c0.62-4.87,0.01-9.72-0.34-11.83c0.37,0.04,1.49,0.05,1.76,0c-0.34,2.12-0.96,6.97-0.34,11.84
								c0.33,2.6,1.34,6.92,2.52,11.92c1.71,7.3,3.84,16.4,4.88,24.45c0.84,6.53,1.53,14.7,2.13,21.91
								c0.69,8.16,1.28,15.21,1.96,18.93c0.46,2.52,1.39,4.97,2.37,7.33c1.23,2.95,2.64,5.84,4.23,8.63
								c-0.53,2.38-4.85,22.51-2.11,31.62c1.81,6.01,4.08,10.77,5.9,14.58c1.07,2.25,2,4.2,2.65,5.98
								c1.69,4.65,7.43,28.53,6.56,33.16c-0.28,1.49-0.44,2.7-0.8,3.9c-0.4,1.36-1.57,10.13-2,12c-0.45,1.96-0.39,3.47,1.22,5.83
								c1.53,2.25,3.31,3.84,6.3,5.1c0.65,0.88,3.17,5.14,3.71,9.06c0.62,4.44,2.96,9.21,7.25,10.57c1.04,0.45,2.21,1.11,3.01,3.1
								c1,2.48,3.7,4.34,5.85,4.89c0.26,0.07,0.53,0.11,0.8,0.14c2.09,0.2,4.41-0.76,5.55-2.34c0.58,0.28,1.09,0.39,2.09-0.08
								c1.07-0.51,1.28-1.72,1.33-2.49c0.47,0.03,1.16,0,1.59-0.32c0.6-0.44,1.41-1.55,1.05-2.63c-0.08-0.22-0.14-0.41-0.19-0.56
								l0,0c0-0.01-0.01-0.02-0.01-0.04c0.47-0.09,0.79-0.28,1.13-0.56c0.59-0.49,0.63-1.96,0.61-2.57
								c-0.01-0.34-0.06-0.7-0.11-1.06c-0.05-0.39-0.11-0.8-0.1-1.14c0-0.25,0.1-0.46,0.22-0.74c0.14-0.32,0.32-0.72,0.4-1.31
								c0.02-0.16,0.05-0.34,0.09-0.53c0.19-1.09,0.48-2.74-0.46-3.75c0,0-2.5-3.67-3.49-4.29c-1.26-0.79-10.44-8.36-11.47-10.78
								c-0.27-0.63-0.5-1.29-0.75-1.99c-0.75-2.14-1.53-4.34-3.45-5.98c-0.14-0.12-0.28-0.25-0.42-0.39
								c0.04-2.34-0.45-3.84-0.97-5.43c-0.22-0.68-0.56-7.59-0.49-11.06c0.02-0.48,0.05-1,0.09-1.54c0.01-0.06,0.02-0.12,0.03-0.17
								l-0.02,0c0.44-6.48,1.84-16.96,3.3-27.11c1.62-11.21,3.15-21.8,3.06-26.57c-0.17-9.7-6.6-24.52-7.41-26.35
								c0.09-0.41,0.15-0.79,0.17-1.14c0.21-2.89,0-4.43-0.18-5.79c-0.13-1-0.25-1.86-0.18-3.11c0.03-0.51,0.24-2.18,0.57-4.72
								c1.51-11.83,7.01-33.73,5.59-52.87c-0.95-12.94-5.24-33.68-7.51-42.68c-1.76-6.99-3.15-12.51-2.92-16.04
								c0.66-10.14-3.64-24.2-4.22-26.05c0.28-0.65,1.06-2.79,1.7-7.93c0.57-4.61-2.39-9.28-4.17-12.07
								c-0.52-0.82-1.11-1.75-1.14-2.01c0-0.2-0.01-0.99-0.04-2.2c-0.1-5.63-0.41-22.76,0.03-25.08c0.31-1.64,1.51-4.79,2.78-8.12
								c0.89-2.34,1.81-4.75,2.54-6.93c0.55-1.66,1.08-4.75,1.57-8.19c0-0.01,0-0.01,0-0.02c1.42,3.54,4.62,10.04,6.68,13.69
								c3.63,6.44,4.88,16.93,5.08,24.34c0.08,2.95,2.15,5.17,2.76,5.9c-0.34,1.04-1.29,4.62-0.99,11.83
								c0.19,4.65,3.22,12.67,6.15,20.43c2.57,6.79,4.99,13.2,5.48,17.12c0.35,2.83,0.7,4.66,0.72,6.05
								c0.02,1.34,0.01,2.68-0.12,4.02c-0.12,1.24-0.64,2.7-1.27,5.21c-1.15,4.62-1.15,5.44-1.57,8.35
								c-0.33,2.33-1.54,10.21-0.16,11.36c2.09,1.74,3.89-0.64,5.06-2.48c1-1.57,1.27-3.59,1.53-5.54c0.28-2.09,0.55-4.06,1.69-4.79
								c0.08-0.05,0.15-0.07,0.28-0.02c1.58,0.59,1.02,2.13,1.58,6.37c-0.03,0.15-0.05,0.35-0.06,0.59l0,0
								c-0.04,0.07-3.77,7.19-6.03,10.64c-1.99,3.03-0.28,6.6,0.55,7.99c0.37,2.29,1.67,4.14,1.76,4.26l0.39,0.54l1.48-1.69
								c0.24,3.66,3.01,4.45,3.04,4.46l0.47,0.12l0.17-0.45c0.2-0.52,4.82-12.69,5.36-15.19c0.59-2.73,0.8-16.86,0.27-31.68
								c-0.34-9.72,2.62-17.94,3.5-25.2c0.5-4.08,0.96-7.93,1.22-12.1C296.76,265.77,293.67,260.19,293.08,259.22z M287.65,202.08
								c1.32,7.69,1.08,24.23-0.83,31.18c-0.4-0.63-0.71-1.07-0.86-1.28c-0.09-1.6-0.78-13.75-1.96-19.49
								c-1.11-5.41-3.1-10.6-3.51-11.64c0.28-0.81,1.35-4.08,2.14-8.27C283.42,193.53,287.1,198.88,287.65,202.08z M232.73,261
								c0.01-1.23,0.08-2.45,0.19-3.67c0.28,0.08,0.61,0.08,1.01-0.03c2.66-0.73,5.01-5.22,6.12-7.38c1.27-2.47,2.24-5,2.85-7.63
								c-0.02,4.35,0.05,10.09,0.14,15.35c-1.77,3-4.15,5.7-7.14,7.53c-0.45,0.29-1.08,0.57-1.61,0.64
								c-1.06,0.14-1.59-1.23-1.48-2.1C232.77,262.8,232.72,261.9,232.73,261z M242.99,236.99c-0.25,6.06-2.43,11.89-6.1,16.72
								c-0.92,1.21-1.99,2.72-3.75,1.92c-0.93-0.42-0.86-1.48-0.73-2.32c0.19-1.31,0.32-2.62,0.56-3.92
								c0.12-0.65,0.29-1.29,0.5-1.92c0.03-0.09,0.17-0.55,0.32-0.97c0.53,0.15,1.26-0.06,2.28-0.79c3.02-2.16,4.67-5.58,5.52-9.26
								c0.62-0.54,1.21-1.11,1.77-1.72c-0.08,0.31-0.15,0.6-0.2,0.86C243.1,235.85,243,236.94,242.99,236.99z M238.55,242.34
								c-0.51,0.71-1.02,1.37-1.68,1.95c-0.77,0.68-1.73,1.83-2.87,1.22c-1.04-0.56-0.7-2.34-0.61-3.28
								c0.16-1.65,0.38-3.29,0.56-4.94c2.76-2.46,5.01-5.62,6.57-9.11c0.4-0.11,0.8-0.24,1.18-0.38
								C241.81,232.37,241.32,238.51,238.55,242.34z M238.05,231.53c-1.13,1.69-4.06,7.05-4.71,2.76c-0.42-2.74-1.59-6.86,0.56-9.26
								c0.72-0.14,1.25-1.02,1.75-1.48c0.58-0.52,1.15-1.06,1.7-1.61c0.2-0.2,0.39-0.41,0.59-0.62c1.44-0.13,2.82-0.42,4.14-0.87
								C241.61,224.44,240.22,228.29,238.05,231.53z M233.04,222.92c-0.47-1.24-1.01-2.49-1-3.85c0.03-3.63,2.92-6.48,6.13-8.08
								c1.85,0.65,3.78,1.1,5.75,1.33c-1.42,2.51-3.05,4.9-5,7.06c-0.71,0.79-1.58,1.46-2.37,2.17c-0.5,0.46-1,0.91-1.49,1.39
								c-0.32,0.32-0.81,0.83-1.29,0.9C233.21,223.93,233.22,223.38,233.04,222.92z M238.65,220.58c0.63-0.68,1.25-1.38,1.84-2.1
								c1.55-1.91,2.93-3.95,4.14-6.09c0.9,0.08,1.84,0.14,2.77,0.14c0.23,1.15,0.34,2.51,0.37,3.9l-0.02,0.01
								C245.16,218.74,242.07,220.14,238.65,220.58z M235.84,209.32c0.23-0.01,0.45-0.01,0.69-0.02c2.88-0.14,5.84-1.69,8.47-3.68
								c1.03,2.02,1.76,4.11,2.25,6.27l0,0C243.23,211.88,239.39,211,235.84,209.32z M239.95,207.65
								c-6.77,2.9-19.06-0.21-24.46-5.61c-4.18-4.18-4.91-10.88-5.48-16.52c-0.37-3.73-1.89-11.17,0.31-14.58
								c4.33-6.71,9.71-7.59,17.42-8.03c15.5-0.87,16.57,3.96,21.82,9.01c1.77,1.7,2.89,3.52,4.13,5.29
								c3.83,5.46,4.84,10.57,4.39,11.11C253.81,195.3,247.7,204.32,239.95,207.65z M219.78,148.31c0.79-2,1.47-3.7,1.92-4.78
								c0.72-1.74,1.33-4.13,1.81-6.54c5.66,5.08,6.73,15.19,13.69,18.78c1.14,0.59,2.31,0.98,3.48,1.2
								c-1.75,0.76-3.79,1.57-5.98,2.28C227.74,159.05,222.02,154.85,219.78,148.31z M233,159.78c-6.1,1.75-12.91,2.43-17.28-1.1
								c1.21-3.1,2.55-6.54,3.71-9.46C221.72,155.1,226.77,159.01,233,159.78z M221.21,143.33c-1.84,4.45-7.59,19.27-9.08,23.1
								c-0.39-2.54-1.26-9.59,0.15-14.39c0.71-2.4,1.7-4.8,2.84-7.58c1.67-4.07,3.75-9.12,5.86-16.41c1.37-1.18,2.59-2.31,3.38-3.2
								c0.03,0.59,0.09,1.34,0.18,2.16C224.19,130.24,222.82,139.43,221.21,143.33z M258.7,188.54l0.02-0.03
								c3.86,7.41,10.27,12.75,18.2,15.19c7.18,15.23,4.69,34.63-1.23,50.32c-3.04-3.05-6.04-6.74-8.25-10.35
								c-2.84-4.63-4.57-9.9-6.41-14.99c-3.75-10.38-6.84-21.07-7.45-32.05C255.43,194.03,257.02,191.29,258.7,188.54z
								 M276.46,253.98c6.2-14.44,8.58-34.95,1.44-50.35c0.55-0.74,1.11-1.49,1.66-2.23c0.5,1.29,2.35,6.2,3.4,11.31
								c1.06,5.15,1.72,15.86,1.88,18.72c0,0.46,0.02,0.8,0.06,1.05c0.56,8.25-4.06,14.56-8.17,21.6c-0.12,0.21-0.24,0.4-0.35,0.6
								c-0.05-0.04-0.09-0.09-0.14-0.14C276.32,254.39,276.39,254.14,276.46,253.98z M267.16,157.91c0.74,0.48,1.62,0.89,2.53,1.31
								c2.57,1.18,5.49,2.53,6.89,6.09c2.31,5.88,6.18,19.75,5.3,25.33c-0.74,4.74-1.99,8.63-2.36,9.72
								c-2.06,2.62-3.34,2.81-6.68,1.13c-2.29-1.15-4.52-2.46-6.45-4.19c-3.27-2.93-5.83-6.3-7.72-10.3
								c-0.01-0.02-0.02-0.03-0.04-0.05c-0.67-5.46-5.34-12.9-10.8-18.13c-0.24-0.53-0.45-1.07-0.61-1.62
								c-1.77-6.06,3.21-7.27,7.96-6.98C258.72,160.46,265.22,161.92,267.16,157.91z M261.41,154.13c1.48,0.48,3.02,0.97,4.59,2.8
								c0.18,0.22,0.4,0.41,0.63,0.6c-2.65,6.24-15.32-1.14-19.66,4.39c-1.28,1.63-1.23,3.63-0.51,5.66
								c-3.39-2.94-7.1-5.33-10.15-5.42c-15.44-0.46-20.57,1.49-23.8,4.79c0.47-1.21,1.62-4.17,2.96-7.63
								c6.95,5.37,19.42,0.97,26.41-2.16c6.13,0.64,12.56-2.61,18.61-3.33C260.79,153.93,261.09,154.03,261.41,154.13z
								 M226.46,133.54c1.78,2.21,8.27,5.31,14.54,8.32c3.57,1.71,6.94,3.32,9.31,4.7c4.29,2.49,6.29,4.3,7.61,5.5
								c0.56,0.51,1.01,0.91,1.48,1.22c-8.97,1.37-19.8,7.55-26.14-2.35c-3.1-4.85-5.21-10.79-9.59-14.71
								c0.55-2.88,0.94-5.69,1.14-7.33C225.12,130.7,225.63,132.52,226.46,133.54z M190.16,115.43c-0.01,0.03-0.38,0.69-1.06,0.6
								c-1.04-0.13-2.69-3.1-3.67-4.88c-0.49-0.89-0.92-1.67-1.29-2.19c-1.06-1.52-1.03-5.29,0.07-8.78
								c0.18-0.55,0.41-0.86,0.71-0.92c0.76-0.14,2.09,1.07,2.81,1.98l1.08,1.36l-0.13-1.73c-0.01-0.15-1.1-15.52,4.32-22.03
								c4.02-4.83,12.69-5.86,15.12-6.06c2.42,0.2,11.09,1.24,15.12,6.06c5.42,6.51,4.34,21.87,4.32,22.03l-0.13,1.73l1.08-1.36
								c0.72-0.9,2.05-2.12,2.81-1.98c0.29,0.05,0.53,0.36,0.71,0.92c1.1,3.49,1.13,7.27,0.07,8.78c-0.37,0.52-0.79,1.29-1.29,2.19
								c-0.99,1.78-2.63,4.75-3.68,4.88c-0.68,0.08-1.05-0.57-1.06-0.6l-1.17-2.24l0.16,2.52c0,0.05,0.33,5.39-0.83,7.54
								c-1.18,2.19-10.69,9.58-12.52,10.25c-1.03,0.37-2.5,0.51-3.61,0.56c-1.11-0.05-2.58-0.19-3.61-0.56
								c-1.83-0.67-11.34-8.06-12.52-10.25c-1.16-2.15-0.83-7.48-0.83-7.54l0.16-2.52L190.16,115.43z M181.93,266.05
								c-0.53-0.07-1.16-0.35-1.61-0.64c-2.77-1.69-5.01-4.12-6.73-6.85c0.08-4.8,0.15-10.09,0.16-14.41
								c0.6,2.05,1.41,4.05,2.42,6.01c1.11,2.16,3.46,6.65,6.12,7.38c0.4,0.11,0.74,0.11,1.01,0.03c0.11,1.22,0.18,2.44,0.19,3.67
								c0.01,0.9-0.04,1.8-0.09,2.71C183.53,264.82,182.99,266.19,181.93,266.05z M183.09,255.88c-1.76,0.79-2.82-0.71-3.75-1.92
								c-2.81-3.69-4.73-7.96-5.6-12.47c-0.02-2.86-0.09-4.99-0.24-5.76c-0.01-0.04-0.02-0.09-0.03-0.14
								c0.38,0.38,0.77,0.75,1.18,1.1c0.84,3.68,2.5,7.09,5.51,9.26c1.01,0.73,1.75,0.94,2.28,0.79c0.15,0.42,0.29,0.88,0.32,0.97
								c0.21,0.63,0.37,1.27,0.5,1.92c0.25,1.3,0.37,2.61,0.56,3.92C183.95,254.4,184.02,255.46,183.09,255.88z M182.23,245.76
								c-1.15,0.62-2.1-0.54-2.87-1.22c-0.66-0.58-1.16-1.25-1.68-1.95c-2.77-3.83-3.26-9.96-3.15-14.53
								c0.39,0.14,0.78,0.27,1.19,0.38c1.56,3.48,3.81,6.65,6.56,9.11c0.18,1.65,0.4,3.29,0.56,4.94
								C182.94,243.42,183.27,245.2,182.23,245.76z M182.89,234.54c-0.65,4.29-3.58-1.07-4.71-2.76c-2.18-3.26-3.58-7.3-4.06-11.34
								c1.24,0.42,2.54,0.7,3.88,0.84c0.29,0.3,0.56,0.61,0.86,0.9c0.55,0.55,1.12,1.09,1.71,1.61c0.51,0.46,1.03,1.33,1.75,1.48
								C184.48,227.68,183.31,231.8,182.89,234.54z M168.9,212.78C168.9,212.78,168.9,212.78,168.9,212.78
								c0.88-0.02,1.96-0.06,2.7-0.13c1.21,2.13,2.59,4.17,4.14,6.08c0.5,0.62,1.02,1.22,1.56,1.81c-3.3-0.48-6.3-1.86-8.82-4.1
								l-0.01-0.01C168.52,215.1,168.68,213.89,168.9,212.78z M182.45,224.1c-0.48-0.06-0.97-0.58-1.29-0.9
								c-0.48-0.48-0.98-0.94-1.49-1.39c-0.79-0.71-1.66-1.38-2.37-2.17c-1.94-2.15-3.57-4.55-4.99-7.05
								c1.98-0.23,3.92-0.67,5.78-1.32c3.2,1.6,6.07,4.44,6.1,8.06c0.01,1.36-0.53,2.61-1,3.85
								C183.02,223.63,183.02,224.18,182.45,224.1z M169.04,212.12c0.51-2.27,1.33-4.5,2.47-6.64c2.6,1.9,5.47,3.35,8.24,3.49
								c0.61,0.03,1.22,0.05,1.81,0.06C177.86,211,173.35,212.04,169.04,212.12z M176.34,207.32c-7.75-3.33-14.61-13.11-18.14-19.34
								c0.27-3.14,1.94-6.88,4.44-10.53c2.88-4.19,6.28-8.19,8.5-9.98c6.04-4.87,11.37-4.67,16.5-4.5
								c7.73,0.25,14.58,1.58,18.33,7.63c2.14,3.45,0.69,10.85,0.31,14.58c-0.57,5.64-1.29,12.34-5.48,16.52
								C195.4,207.11,183.44,210.37,176.34,207.32z M139.25,204.07c8.11-2.45,14.65-7.96,18.52-15.58c1.72,2.83,3.26,5.59,5.14,8.22
								c-0.59,11.02-3.69,21.75-7.45,32.15c-1.84,5.1-3.57,10.36-6.41,14.99c-2.41,3.93-5.02,7.46-8.36,10.67
								C134.77,238.88,132.16,219.31,139.25,204.07z M139.71,253.78c-4.04-6.86-8.79-13.41-8.19-21.65
								c0.18-3.02,0.92-14.33,1.97-19.43c0.98-4.74,2.63-9.31,3.27-10.98c0.58,0.77,1.16,1.55,1.73,2.32
								c0.01,0.02,0.03,0.03,0.04,0.04C131.63,219.21,133.96,238.22,139.71,253.78z M204.14,166.38c-1.49-3.83-7.23-18.65-9.08-23.1
								c-2.06-4.98-3.19-15.46-3.23-15.89c0.1-0.89,0.17-1.71,0.2-2.37c0.81,0.88,1.98,1.97,3.29,3.09
								c2.1,7.23,4.16,12.25,5.83,16.3c1.14,2.78,2.13,5.18,2.84,7.58C205.4,156.79,204.53,163.84,204.14,166.38z M196.92,149.35
								c1.16,2.95,2.51,6.39,3.72,9.49c-2.92,2.91-11.09,2.84-17.51,1.16C189.46,159.28,194.61,155.32,196.92,149.35z
								 M181.48,159.46l-0.05,0.02c-2.14-0.7-4.16-1.5-5.88-2.25c1.18-0.23,2.34-0.61,3.48-1.2c6.99-3.62,8.03-13.81,13.77-18.86
								c0.48,2.33,1.07,4.63,1.77,6.32c0.46,1.11,1.17,2.87,1.99,4.95C194.32,155.05,188.53,159.3,181.48,159.46z M158.52,152.05
								c1.32-1.2,3.32-3.02,7.61-5.5c2.37-1.38,5.74-2.99,9.31-4.7c6.27-3,12.75-6.11,14.54-8.32c0.75-0.93,1.24-2.52,1.55-4.16
								c0.22,1.72,0.6,4.35,1.12,7.02c-4.44,3.92-6.55,9.91-9.68,14.79c-6.37,9.96-17.31,3.64-26.31,2.32
								C157.27,153.17,157.82,152.69,158.52,152.05z M150.44,156.92c1.57-1.83,3.1-2.32,4.59-2.8c0.05-0.01,0.09-0.03,0.13-0.04
								l0.45-0.02c6.08,0.69,12.56,3.98,18.74,3.34c7.02,3.15,19.84,6.98,26.53,2.07c1.18,3.03,2.19,5.64,2.72,7
								c-3.31-3.18-8.78-4.64-23.76-4.26c-3.04,0.08-6.59,2.19-9.95,5.24c0.6-1.91,0.57-3.77-0.63-5.29
								c-4.36-5.55-17.12,1.91-19.7-4.46C149.9,157.46,150.2,157.21,150.44,156.92z M139.86,165.31c1.4-3.56,4.32-4.9,6.89-6.09
								c0.81-0.37,1.6-0.74,2.28-1.16c1.87,4.13,8.45,2.65,12,2.43c4.75-0.3,9.73,0.92,7.96,6.98c-0.13,0.44-0.28,0.87-0.46,1.29
								c-5.68,5.67-10.51,13.71-10.94,18.65c-1.88,3.96-4.43,7.32-7.68,10.22c-1.93,1.73-4.16,3.04-6.45,4.19
								c-3.2,1.61-4.37,1.45-6.29-0.87l-0.15-0.28c-0.02-0.04-1.6-4.47-2.46-10.04C133.69,185.06,137.55,171.18,139.86,165.31z
								 M129.23,202.29c0.49-2.88,3.52-7.49,4.7-9.08c0.77,3.88,1.75,6.87,2.02,7.63c-0.41,1.04-2.4,6.23-3.51,11.64
								c-1.18,5.74-1.87,17.89-1.96,19.49c-0.11,0.16-0.32,0.45-0.58,0.85C128.15,225.55,127.96,209.75,129.23,202.29z
								 M121.4,276.59c-0.53-8.73,1.44-14,2.41-16c1.13,7.49,4.35,15,7.4,21.92c4.06,9.19,6.57,19.51,7.32,29.38
								c-0.08,2.03,0,3.49,0.2,4.78c-7.68-9.72-14.25-20.26-16.65-32.45C121.81,281.71,121.56,279.21,121.4,276.59z M135.73,356.64
								l-1.4-1.59c-0.32-3.77-1.98-9.7-2.25-10.63c0.03-0.22,0.08-0.79,0.14-1.55c1.09,2.03,2.69,4.9,4.04,6.96
								C137.88,352.29,136.45,355.38,135.73,356.64z M132.52,337.23c1.27,2.37,3.55,6.53,5.13,8.94c1.06,1.61,0.81,3.49,0.3,4.95
								c-0.14-0.63-0.39-1.26-0.79-1.87c-1.72-2.63-3.87-6.62-4.8-8.39C132.43,339.67,132.49,338.37,132.52,337.23z M139.76,321.24
								c0.98,4.15,1.59,6.28,1.59,8.27c0,5.13,1.61,10.77-0.23,10.78c-0.45,0-1.4-0.46-2.69-2.51c-0.87-1.37-1.13-3.28-1.38-5.12
								c-0.32-2.34-0.61-4.54-2.17-5.55c-0.38-0.24-0.8-0.28-1.23-0.12c-2.56,0.96-1.73,5.34-2.26,7.2l-0.04,0.13l0.03,0.14
								c0.68,2.91-0.35,9.85-0.36,9.92L131,344.5l0.03,0.11c0.02,0.08,2.29,7.97,2.29,11.59c0,2.38-1.17,3.37-1.83,3.74
								c-0.91-2.4-4.66-12.38-5.12-14.52c-0.47-2.21-0.79-16.07-0.25-31.42c0.34-9.49-2.43-17.54-3.41-24.67
								c3.14,10.53,9.26,19.84,16.2,28.52l0.04,0.06C139.17,319.01,139.45,319.92,139.76,321.24z M142.26,293.73
								c-0.34,1.45-0.2,0.85-0.59,2.44c-1.36,3.84-2.33,7.3-2.64,9.78c-0.05,0.44-0.1,0.85-0.15,1.26
								c-0.81-5.91-2.34-12.76-4.3-18.21c-3.49-9.7-8.88-19.12-10.18-29.44c0,0,0.01-0.01,0.01-0.01l0.01-0.01v-8.88
								c0-6.9,4.64-14.61,6.37-17.24c0,0,0-0.01,0-0.01c-0.07,9.4,6.59,16.87,10.76,25.07c5.08,10,3.24,23.79,0.86,34.52
								C142.32,293.43,142.33,293.41,142.26,293.73z M150.67,268.49c-0.19,4.48-3.19,12.42-6.09,20.09
								c-0.14,0.38-0.48,1.04-0.84,1.74c1.76-8.32,2.67-16.71,0.86-25.24c-0.18-0.84-0.41-1.67-0.68-2.48
								c1.73-2.05,3.67-3.89,5.82-5.5C150.06,258.09,150.95,261.58,150.67,268.49z M157.68,225.9c-3.04,4.84-4.8,14.89-4.88,15.42
								c0,0.06,0.17,6.04-0.35,9.33c-0.5,3.17-2.69,5.57-2.71,5.59l-0.22,0.24c0,0,0,0,0,0c-2.15,1.6-4.1,3.42-5.84,5.43
								c-0.05-0.13-0.09-0.24-0.11-0.35c-0.79-2.15-1.83-4.21-2.97-6.23c3.2-3.02,6.13-6.38,9-11.15c2.81-4.67,3.84-8.28,5.76-13.29
								c4.13-10.78,7.45-21.92,8.14-33.39c0.11,0.15,0.22,0.3,0.34,0.45c0.28,2.88,0.74,7.42,1.31,11.81
								c0.01,0.05,0.01,0.1,0.02,0.15C164.04,213.16,160.29,221.77,157.68,225.9z M165.05,199.44c1.54,1.78,3.62,3.87,5.94,5.65
								c-2.46,4.58-3.5,9.52-3.14,14.44C166.73,215.12,165.64,205.26,165.05,199.44z M169.34,223.88c-0.65-2.51-0.89-4.71-0.88-6.65
								c1.52,1.28,3.2,2.26,4.99,2.95c0.29,2.56,0.96,5.1,1.96,7.51C173.08,226.97,171.01,225.66,169.34,223.88z M171.22,229.33
								c-0.03-0.08-0.08-0.21-0.15-0.36c-0.57-1.36-1.02-2.64-1.39-3.85c1.25,1.14,2.68,2.05,4.23,2.7
								c-0.01,0.02-0.02,0.05-0.02,0.07c-0.07,2.44,0.05,5.12,0.53,7.72c-0.47-0.44-0.92-0.9-1.34-1.39
								C172.64,232.91,171.95,231.25,171.22,229.33z M168.2,277.16c-0.52-4.23,2.31-8.7,4.01-11.37c0.31-0.48,0.55-0.87,0.74-1.2
								c6.75,3.02,14.84,8.33,13.02,17.3c-0.51,2.5-2.7,5.17-4.24,7.05c-2.16,2.63-4.18,1.42-6.43-0.37
								c-1.96-1.55-3.89-3.14-5.82-4.73C169.14,282.76,168.64,280.7,168.2,277.16z M162.74,327.58c1.78-7.08,3.19-12.67,2.95-16.37
								c-0.47-7.28,1.67-16.67,3.08-21.89c4.18,4.58,3.67,11.87,2.8,17.87c-1.04,7.16-2.2,17.4-9.01,21.12
								C162.62,328.06,162.68,327.81,162.74,327.58z M155.25,370.08c0.61-8.33,2.63-19.96,4.59-29.55
								c-0.64,7.47-0.44,14.03,1.25,22.89c1.69,8.85,7.08,20.99,9.11,32.15c0.76,4.19,1.47,14.92-0.59,20.85
								c-1.36,3.93-5.37,7.14-8.79,6.22C159.3,410.82,153.85,389.06,155.25,370.08z M156.82,490.24
								c-1.61-11.16-3.13-21.71-3.05-26.39c0.14-8.21,5.08-20.63,6.8-24.73c0.97,3.08,2.97,7.12,4.69,10.33
								c-0.07,12.9-0.15,25.79-0.22,38.68c-0.06,11.33,1.74,25.11-4.89,35c0.08-1.75,0.11-3.43,0.05-4.58
								C159.98,512.15,158.38,501.04,156.82,490.24z M175.63,524.88c0.07,0.38,0.15,0.75,0.22,1.11
								c-3.86-4.37-3.91-10.99-3.93-16.94c0-0.87-0.01-1.71-0.02-2.54c-0.14-7.71-0.21-14.77,0.25-21.82
								c0.8,3.52,2.95,8.72,8.67,11.27C178.47,504.71,174.89,520.96,175.63,524.88z M190.76,470.66
								c-1.79,5.94-4.03,10.65-5.84,14.43c-1.09,2.28-2.03,4.25-2.69,6.07c-0.28,0.78-0.67,2.07-1.12,3.69
								c-5.79-2.66-8.03-8.56-8.84-11.87c0.05-0.62,0.09-1.23,0.15-1.85c0.14-1.57,0.24-3.18,0.34-4.89
								c0.26-4.48,0.39-9.06,1.78-13.36c1.05-3.25,2.7-6.3,4.63-9.11c1.94-2.83,4.37-5.27,6.39-8.04c1.18-1.62,2.28-3.29,3.31-5.02
								C189.88,445.64,193.13,462.78,190.76,470.66z M195.22,423.19c-0.82,4.47-2.88,8.81-4.95,12.81
								c-1.22,2.35-2.43,5.09-4.15,7.11c-4.74,5.57-9.88,10.95-12.18,18.06c-1.58,4.89-1.95,9.91-2.25,15.01
								c-0.1,1.7-0.19,3.3-0.34,4.85c-0.77,8.31-0.69,16.46-0.52,25.5c0.01,0.82,0.02,1.66,0.02,2.52
								c0.03,6.73,0.06,14.31,5.44,18.89c0.15,0.6,0.29,1.17,0.44,1.7c0.59,2.99,1.53,9.64,1.87,11.13
								c0.41,1.79,0.35,3.01-1.09,5.13c-1.23,1.81-3.07,3.23-4.65,4.14c1.21-1.95,3.3-5.33,3.3-5.33c-1.58,1.67-4.79,6.07-4.86,6.16
								l0,0c-0.59,0.74-3.36,5.35-3.95,9.55c-0.57,4.1-2.73,8.63-6.66,9.85l-0.04,0.02c-0.87,0.38-2.49,1.08-3.5,3.59
								c-0.89,2.21-3.31,3.87-5.24,4.36c-2.02,0.52-4.63-0.48-5.59-2.13l-0.03-0.05c-0.15-0.8-0.02-1.09,0.3-1.39
								c0.09-0.08,0.24-0.22,0.44-0.39c1.3-1.15,2.71-2.45,3.1-3.2c0.35-0.69,3.09-5.15,5.22-6.89c0,0-3.42,1.78-6.01,6.49
								c-0.36,0.65-2.13,2.26-2.89,2.94c-0.21,0.18-0.37,0.33-0.46,0.41c-0.56,0.53-0.73,1.13-0.58,2.08
								c-0.39,0.19-0.63,0.25-1.33-0.08c-0.6-0.28-0.77-1.06-0.81-1.63l0,0c0-0.03,0.28-3.61,6.65-11.71c0,0-2.09,1.66-3.9,4.35
								c-2.35,3.51-3.21,5.39-3.51,6.41c-0.42,0.04-0.99,0.02-1.2-0.14c-0.43-0.32-0.93-1.07-0.73-1.64
								c0.07-0.22,0.13-0.4,0.18-0.54l0,0c0.75-2.59,3.46-8.54,5.75-11.16c0,0-1.34,0.92-2.99,3.51c-1.66,2.6-2.59,4.27-3.32,6.45
								c-0.35-0.04-0.56-0.16-0.83-0.39c-0.13-0.12-0.31-0.85-0.29-1.86c0.01-0.28,0.05-0.61,0.1-0.95
								c0.06-0.43,0.12-0.87,0.11-1.28c0-0.11-0.01-0.22-0.03-0.32c0.36-1.49,1.42-4.16,4.21-7.45c0,0-1.33,1.12-2.44,2.64
								c-1,1.36-1.76,2.43-2.24,3.5c-0.05-0.15-0.09-0.32-0.12-0.52c-0.02-0.17-0.06-0.36-0.09-0.57c-0.17-0.97-0.4-2.31,0.23-2.99
								c0,0,2.39-3.56,3.31-4.14c1.36-0.85,10.67-8.49,11.82-11.18c0.28-0.66,0.53-1.36,0.77-2.05c0.71-2.02,1.45-4.12,3.19-5.6
								c2.48-2.12,4.26-7.44,4.26-7.44c-0.01,0.02-1.65,3.13-3.51,5.38c0.09-1.64,0.47-2.83,0.91-4.16
								c0.14-0.44,0.41-3.28,0.57-6.24c6.44-9.05,5.51-21.41,5.57-31.97c0.08-13.91,0.16-27.82,0.24-41.73
								c1.28,2.34,2.29,4.03,2.38,4.18c0,0-6.88-13.59-7.22-18.38c-0.2-2.78,0-4.26,0.17-5.57c0.13-1.01,0.26-1.96,0.18-3.31
								c-0.03-0.49-0.21-1.92-0.48-4.07c2.53,0.55,5.34-0.92,7.52-3.6c4.05-4.96,3.84-13.9,3.06-20.77
								c0.95,0.32,2.01,0.28,2.92-0.18c-0.05,1.75,0.05,3.52,0.33,5.31c0.9,5.55,3.29,11.64,8.13,14.96
								c3.86,2.65,8.74,4.07,12.71,1.47C195.48,421.62,195.35,422.48,195.22,423.19z M197.17,404.36
								c-0.49,5.85-0.96,11.46-1.45,15.45c-6.49,5.08-14.52-1.87-17.75-7.55c-3.5-6.16-3.16-13.56-1.65-20.21
								c2.77-12.21,10.65-22.52,14.12-34.53c2.15,5.04,4.03,10.17,5.06,15.6c1.39,7.36,2.04,14.79,2.45,22.24
								C197.67,398.4,197.41,401.46,197.17,404.36z M199.31,382.41c-0.36,2.79-0.69,5.87-1,9.05c-0.88-11.93-2.69-23.68-7.56-34.89
								c-8.07-18.58-15.9-36.67-16.29-57.28c-0.02-1.32,0.07-2.54,0.33-3.85c1.12-5.63,5.34,2.65,5.45,2.87
								c1.26,2.4,2.63,4.11,2.95,6.93c0.15,1.33,0.28,2.58,0.56,3.89c1.96,9.15,3.65,18.04,6.94,26.86
								c1.51,4.04,3.52,7.87,4.99,11.93c1.65,4.56,2.36,9.57,3.13,14.34c0.77,4.79,1.21,9.6,1.36,14.43
								C199.84,378.63,199.55,380.55,199.31,382.41z M206.7,346.05c-0.32,2.55-1.33,6.84-2.49,11.81
								c-1.15,4.91-2.49,10.63-3.56,16.3c-0.22-4.02-0.62-8.04-1.2-12.06c-0.79-5.42-1.88-10.88-3.75-16.04
								c-1.9-5.24-4.46-10.22-6.25-15.53c-3.11-9.23-3.99-18.71-6.08-28.13c-0.65-2.93-3.23-6.17-4.86-8.63
								c-0.48-0.72-1.93-1.34-2.73-0.76c-4.07,2.9-1.68,12.78-1.23,16.6c1.26,10.82,4.68,21.31,8.68,31.39
								c2.09,5.27,4.58,10.38,6.83,15.58c-3.77,13.67-14.78,27.06-15.57,41.54c-0.92,0.63-2.07,0.7-3.03,0.28
								c-0.11-0.9-0.23-1.75-0.34-2.56c-1.67-11.5-7.4-24.98-9.33-33.99c-1.82-8.49-1.8-17.52-0.86-26.32
								c0.52-2.4,1.02-4.57,1.46-6.4c7.73-3.66,8.56-14.07,9.83-21.77c1.04-6.33,1.36-14.07-3.22-18.77
								c0.55-1.97,0.94-3.19,0.95-3.23l0.07-0.22l-0.01-0.01c2.81,2.35,5.62,4.74,8.66,6.75c0.14,0.09,0.28,0.15,0.42,0.19
								c2.16,3.1,4.17,7.08,6.61,11.96c2.08,4.16,4.44,8.87,7.41,14.03c0.84,1.46,1.54,3.09,2.27,4.81
								c2.1,4.94,4.47,10.48,10.97,11.38C206.64,336.12,207.32,341.14,206.7,346.05z M208.53,333.3c-0.04,0-0.33,0-0.33,0
								c-7.24-0.01-9.49-5.28-11.87-10.86c-0.71-1.68-1.45-3.41-2.33-4.93c-2.96-5.13-5.31-9.82-7.38-13.97
								c-2.34-4.68-4.29-8.55-6.37-11.65c2.32-1.12,4.96-6.3,5.67-7.52c2.63-4.55,0.64-10.02-2.37-13.93
								c-2.26-2.93-6.63-5.38-10.07-6.93c0.03-0.1,0.04-0.2,0.04-0.28c0-0.2,0.01-0.99,0.04-2.19c0.01-0.45,0.02-0.91,0.02-1.37
								c0.99,1.45,2.12,2.79,3.43,4.01c1.23,1.15,3.76,3.56,5.51,3.59c1.39,0.02,1.38-1.32,1.48-2.42c0.24-2.55,0.18-5.11-0.06-7.65
								c0.54-0.59,0.67-1.67,0.66-2.56c-0.02-3.13-0.56-5.67-1.63-8.21c1.3-1.37,0.42-6.34,0.01-8.89c0-0.01,0.01-0.01,0.01-0.01
								c0.71-3.54,2.48-9.16,0.06-12.38c0.43-0.3,0.56-1,0.76-1.48c0.67-1.59,1.31-3.73,1.04-5.47c-0.49-3.16-3.08-5.7-5.94-7.26
								c1.38-0.53,2.72-1.17,4.02-1.94c8.23-0.15,14.14-2.66,19.22-7.73c3.86-3.86,4.21-11.02,4.79-16.1
								c0.51-4.44,1.81-11.47-0.8-15.52c-0.52-0.8-1.04-1.54-1.61-2.22c0.07-0.4,1.77-9.56-0.01-15.6
								c-0.71-2.43-1.71-4.84-2.86-7.64c-1.6-3.89-3.57-8.68-5.58-15.48c3.19,2.66,6.89,5.33,8.09,5.77
								c0.95,0.35,2.19,0.51,3.26,0.59h1.42c1.07-0.08,2.31-0.24,3.26-0.59c1.21-0.44,4.95-3.15,8.16-5.82
								c-2.02,6.86-4,11.67-5.61,15.59c-1.15,2.79-2.14,5.21-2.86,7.64c-1.78,6.04-0.08,15.21-0.01,15.6c0,0-1.06,1.68-1.59,2.5
								c-2.61,4.05-1.31,11.08-0.8,15.52c0.58,5.08,0.93,12.24,4.79,16.1c5.29,5.3,11.5,7.8,20.3,7.74c0.95,0.5,1.92,0.95,2.9,1.33
								c-2.87,1.55-5.47,4.1-5.97,7.27c-0.27,1.74,0.37,3.87,1.04,5.47c0.2,0.48,0.34,1.18,0.76,1.48
								c-2.42,3.22-0.66,8.83,0.06,12.38c0,0.01,0.01,0.01,0.01,0.02c-0.41,2.55-1.29,7.52,0.01,8.89
								c-1.07,2.53-1.61,5.07-1.63,8.21c-0.01,0.89,0.12,1.97,0.66,2.56c-0.24,2.54-0.3,5.11-0.06,7.65c0.1,1.09,0.1,2.44,1.48,2.42
								c1.74-0.03,4.28-2.44,5.51-3.59c1.49-1.4,2.75-2.94,3.84-4.64c0.01,0.71,0.02,1.42,0.04,2.1c0.02,1.19,0.04,1.98,0.04,2.19
								c0,0.09,0.02,0.19,0.05,0.3c-3.47,1.54-7.92,3.92-10.24,6.92c-3.02,3.91-5.31,9.38-2.69,13.93c0.72,1.25,3.65,6.77,6.07,7.72
								c-2.07,3.08-4.01,6.94-6.33,11.59c-2.07,4.15-4.43,8.84-7.38,13.97c-0.88,1.52-1.61,3.25-2.33,4.93
								C217.92,327.99,215.68,333.24,208.53,333.3z M218.28,391.34c-0.3-3.13-0.63-6.17-0.98-8.92c-0.24-1.88-0.54-3.81-0.88-5.76
								c0.15-4.91,0.58-9.81,1.37-14.67c0.77-4.77,1.48-9.78,3.13-14.34c1.47-4.05,3.48-7.89,4.99-11.93
								c3.29-8.82,4.99-17.7,6.94-26.86c0.28-1.31,0.41-2.56,0.56-3.89c0.32-2.82,1.69-4.53,2.95-6.93
								c0.12-0.22,4.33-8.51,5.45-2.87c0.26,1.31,0.36,2.53,0.33,3.85c-0.39,20.62-8.22,38.71-16.29,57.28
								C220.96,367.54,219.15,379.35,218.28,391.34z M219.43,404.36c-0.25-2.94-0.51-6.04-0.79-9.12
								c0.41-7.51,1.06-15.01,2.46-22.42c1.02-5.4,2.88-10.49,5.01-15.5c3.48,11.99,11.4,22.53,14.17,34.72
								c1.51,6.66,1.85,14.06-1.65,20.21c-3.23,5.69-11.26,12.63-17.75,7.55C220.39,415.82,219.92,410.21,219.43,404.36z
								 M234.37,491.17c-0.66-1.83-1.6-3.8-2.69-6.07c-1.8-3.79-4.05-8.5-5.84-14.43c-2.37-7.88,0.88-25.02,1.89-29.93
								c1.03,1.72,2.13,3.4,3.31,5.02c2.02,2.77,4.45,5.2,6.39,8.04c1.93,2.81,3.58,5.86,4.63,9.11c1.39,4.31,1.52,8.88,1.78,13.36
								c0.1,1.71,0.19,3.32,0.34,4.89c0.05,0.55,0.09,1.09,0.13,1.63c-0.54,2.26-1.76,5.86-4.4,8.77c-1.17,1.29-2.63,2.44-4.43,3.28
								C235.03,493.22,234.65,491.94,234.37,491.17z M235.78,495.92c2.1-0.94,3.71-2.24,4.95-3.68c2.2-2.55,3.23-5.55,3.72-7.79
								c0.48,7.14,0.4,14.27,0.26,22.07c-0.02,0.83-0.02,1.67-0.02,2.54c-0.02,5.95-0.07,12.57-3.93,16.94
								c0.08-0.36,0.15-0.73,0.22-1.11C241.71,520.95,238.12,504.66,235.78,495.92z M257.98,534.72c-1.86-2.24-3.5-5.36-3.51-5.38
								c0,0,1.78,5.32,4.26,7.44c1.74,1.48,2.47,3.58,3.19,5.6c0.24,0.68,0.49,1.39,0.77,2.05c1.15,2.69,10.46,10.33,11.82,11.18
								c0.92,0.58,3.31,4.14,3.31,4.14c0.63,0.68,0.4,2.02,0.23,2.99c-0.04,0.21-0.07,0.4-0.09,0.57c-0.03,0.19-0.07,0.36-0.11,0.51
								c-0.48-1.09-1.24-2.16-2.26-3.54c-1.11-1.52-2.44-2.64-2.44-2.64c2.82,3.33,3.87,6.03,4.22,7.51
								c-0.02,0.1-0.03,0.21-0.03,0.32c-0.01,0.41,0.05,0.85,0.11,1.28c0.05,0.34,0.09,0.67,0.1,0.95c0.02,1.02-0.16,1.75-0.29,1.86
								c-0.27,0.22-0.48,0.34-0.83,0.39c-0.73-2.2-1.66-3.88-3.33-6.5c-1.65-2.59-2.99-3.51-2.99-3.51
								c2.24,2.56,4.88,8.29,5.69,10.97c0.05,0.18,0.13,0.42,0.25,0.78c0.19,0.57-0.3,1.32-0.73,1.64c-0.18,0.13-0.62,0.17-1,0.15
								c-0.13-0.84-0.8-2.7-3.64-6.93c-1.81-2.7-3.9-4.35-3.9-4.35c5.37,6.83,6.42,10.45,6.61,11.43l-0.01,0.29
								c-0.01,0.48-0.03,1.75-0.84,2.13c-0.7,0.33-0.94,0.27-1.33,0.08c0.15-0.95-0.02-1.55-0.58-2.08
								c-0.09-0.09-0.25-0.23-0.46-0.41c-0.76-0.68-2.54-2.28-2.89-2.94c-2.59-4.7-6.01-6.49-6.01-6.49
								c2.13,1.74,4.87,6.2,5.22,6.89c0.38,0.75,1.8,2.04,3.1,3.2c0.2,0.18,0.35,0.31,0.44,0.39c0.32,0.3,0.44,0.59,0.3,1.39
								l-0.03,0.05c-0.96,1.65-3.57,2.65-5.59,2.13c-1.93-0.49-4.35-2.15-5.24-4.36c-1.01-2.51-2.63-3.22-3.5-3.59l-0.04-0.02
								c-3.93-1.22-6.09-5.75-6.66-9.85c-0.59-4.2-3.36-8.81-3.95-9.55l0,0c-0.07-0.1-3.28-4.49-4.86-6.16c0,0,2.09,3.37,3.3,5.33
								c-1.58-0.9-3.42-2.33-4.65-4.14c-1.44-2.12-1.5-3.34-1.09-5.13c0.34-1.49,1.28-8.14,1.87-11.13c0.15-0.52,0.29-1.1,0.44-1.7
								c5.38-4.59,5.41-12.17,5.44-18.89c0-0.86,0.01-1.7,0.02-2.52c0.17-9.03,0.24-17.19-0.52-25.5c-0.14-1.55-0.24-3.15-0.34-4.85
								c-0.3-5.1-0.67-10.12-2.25-15.01c-2.31-7.11-7.44-12.49-12.18-18.06c-1.73-2.03-2.94-4.76-4.15-7.11
								c-2.07-4.01-4.13-8.34-4.95-12.81c-0.13-0.72-0.26-1.58-0.39-2.55c3.96,2.6,8.85,1.18,12.71-1.47
								c4.84-3.32,7.6-9.36,8.13-14.96c0.18-1.93,0.21-3.8,0.12-5.61c0.92,0.48,2.03,0.55,3.02,0.28
								c-0.82,6.92-1.11,16.1,3.01,21.15c2.24,2.75,5.13,4.22,7.71,3.55c-0.26,2-0.42,3.33-0.45,3.81c-0.08,1.35,0.05,2.3,0.18,3.31
								c0.17,1.31,0.37,2.79,0.17,5.57c-0.34,4.79-7.22,18.38-7.22,18.38c0.09-0.15,1.07-1.79,2.33-4.08
								c0.08,13.92,0.16,27.85,0.24,41.77c0.06,10.56-0.88,22.92,5.57,31.97c0.16,2.97,0.42,5.81,0.57,6.24
								C257.51,531.89,257.89,533.08,257.98,534.72z M262.83,463.85c0.08,4.68-1.44,15.23-3.05,26.39
								c-1.56,10.8-3.16,21.9-3.38,28.3c-0.06,1.15-0.03,2.84,0.05,4.58c-6.64-9.88-4.83-23.67-4.89-35
								c-0.07-12.91-0.15-25.82-0.22-38.73c1.7-3.17,3.7-7.19,4.7-10.28C257.76,443.25,262.68,455.64,262.83,463.85z M261.4,369.93
								c1.4,19.03-4.08,40.85-5.59,52.65c-0.01,0.06-0.01,0.11-0.02,0.17c-3.46,1.1-7.6-2.16-8.98-6.17
								c-2.05-5.93-1.35-16.66-0.59-20.85c2.03-11.16,7.42-23.3,9.11-32.15c1.8-9.42,1.93-16.57,1.14-24.83
								C258.53,348.64,260.75,361.13,261.4,369.93z M255.2,332.86c1.24,9.68,1.49,19.74-0.53,29.14
								c-1.93,9.01-7.66,22.49-9.33,33.99c-0.1,0.72-0.21,1.49-0.31,2.29c-1.01,0.35-2.22,0.24-3.13-0.41
								c-1.11-15.76-11.6-27.72-15.38-41.51c2.26-5.23,4.77-10.38,6.87-15.68c3.99-10.09,7.41-20.57,8.68-31.39
								c0.45-3.82,2.84-13.7-1.23-16.6c-0.8-0.57-2.25,0.05-2.73,0.76c-1.63,2.46-4.21,5.71-4.86,8.63
								c-2.09,9.42-2.97,18.9-6.08,28.13c-1.79,5.31-4.36,10.28-6.25,15.53c-1.87,5.16-2.96,10.62-3.75,16.04
								c-0.6,4.1-1,8.2-1.22,12.29c-1.07-5.66-2.4-11.35-3.55-16.25c-1.17-4.97-2.17-9.26-2.49-11.81
								c-0.63-4.91,0.06-9.93,0.38-11.81c6.51-0.89,8.88-6.44,10.99-11.38c0.73-1.72,1.43-3.35,2.27-4.81
								c2.97-5.15,5.33-9.87,7.41-14.03c2.47-4.95,4.51-8.98,6.7-12.1c0.04-0.02,0.07-0.03,0.11-0.06c3.12-2.06,6-4.53,8.89-6.95
								l0.08,0.29c0.01,0.04,0.42,1.29,0.97,3.3c-4.66,4.69-4.34,12.48-3.29,18.85c1.27,7.73,2.11,18.2,9.93,21.81
								C254.61,330.29,254.9,331.53,255.2,332.86z M247.9,289.23c1.41,5.24,3.54,14.58,3.06,21.83c-0.24,3.7,1.17,9.29,2.95,16.37
								c0.07,0.3,0.15,0.61,0.23,0.93c-6.9-3.67-8.07-13.98-9.12-21.18C244.15,301.15,243.64,293.8,247.9,289.23z M244.44,265.65
								c1.69,2.67,4.53,7.14,4.01,11.37c-0.61,4.91-1.15,6.15-1.45,6.76c-1.96,1.61-3.92,3.22-5.9,4.8c-2.26,1.79-4.27,3-6.43,0.37
								c-1.55-1.88-3.73-4.56-4.24-7.05c-1.87-9.11,6.47-14.42,13.28-17.42C243.9,264.79,244.14,265.17,244.44,265.65z
								 M245.98,227.29c-0.82,2.15-1.61,4.23-2.17,5.91c-0.62,0.77-1.29,1.49-2.01,2.17c0.48-2.6,0.6-5.29,0.53-7.72
								c0-0.03-0.01-0.05-0.02-0.08c1.78-0.75,3.4-1.83,4.78-3.22C246.73,225.32,246.35,226.31,245.98,227.29z M247.37,223.11
								c-1.75,2.05-4,3.54-6.54,4.34c0.99-2.38,1.65-4.74,1.95-7.25c1.8-0.69,3.48-1.68,5.01-2.96
								C247.79,219.48,247.6,221.7,247.37,223.11z M248.6,220.22c-0.01,0.02-0.17,0.57-0.45,1.38c0.62-5.61-0.16-11.5-2.63-16.37
								c2.26-1.78,4.27-3.86,5.76-5.6c0.12-0.14,0.22-0.28,0.34-0.41C250.99,205.5,249.83,216.54,248.6,220.22z M263.91,250.4
								c-0.38-10.37-2.19-19.91-5.23-24.75c-2.55-4.05-6.08-12.01-7.25-15.33c0-0.01,0-0.03-0.01-0.07
								c0.61-4.64,1.13-9.61,1.43-12.61c0.06-0.07,0.11-0.15,0.17-0.22c0.71,11.42,4.02,22.53,8.13,33.26
								c1.92,5.01,2.94,8.62,5.76,13.29c2.71,4.5,6.23,8.21,9.23,11.11c-1.4,2.37-2.41,4.27-3.29,6.77
								c-1.75-2.01-4.16-4.34-6.26-5.91C266.26,255.65,264.02,253.39,263.91,250.4z M272.67,290.71c-0.29-0.78-0.59-1.57-0.89-2.37
								c-2.9-7.68-5.9-15.61-6.09-20.09c-0.29-6.86,0.6-10.35,0.92-11.36c2.14,1.6,4.27,3.62,6,5.65c-0.28,0.86-0.55,1.79-0.82,2.85
								c-2.15,8.54-0.68,17.37,0.9,25.38C272.68,290.75,272.68,290.73,272.67,290.71z M274.49,295.69
								c-2.9-11.84-5.3-25.73,0.38-36.89c4.22-8.31,10.97-15.88,10.72-25.45c1.68,2.55,6.43,10.35,6.43,17.32v8.02
								c-1.06,10.76-6.68,19.86-10.28,29.88c-2.13,5.94-3.56,11.97-4.29,18.13c-0.04-0.32-0.06-0.64-0.12-0.98
								C276.58,301.41,275.47,298.23,274.49,295.69z M278.49,351.13c-0.5-1.46-0.75-3.34,0.3-4.95c1.58-2.41,3.86-6.57,5.13-8.94
								c0.03,1.14,0.09,2.44,0.16,3.62c-0.93,1.77-3.08,5.76-4.8,8.39C278.88,349.87,278.63,350.5,278.49,351.13z M280.71,356.65
								c-0.73-1.26-2.15-4.35-0.54-6.81c1.35-2.06,2.95-4.93,4.04-6.96c0.06,0.76,0.11,1.33,0.14,1.55
								c-0.26,0.92-1.92,6.85-2.25,10.63L280.71,356.65z M293.83,288.64c-0.89,7.3-3.85,15.57-3.51,25.37
								c0.54,15.35,0.22,29.21-0.25,31.42c-0.46,2.14-4.21,12.12-5.12,14.52c-0.66-0.37-1.83-1.36-1.83-3.74
								c0-3.62,2.27-11.51,2.29-11.59l0.03-0.11l-0.02-0.12c-0.01-0.07-1.04-7.01-0.36-9.92l0.03-0.14l-0.04-0.13
								c-0.54-1.86,0.3-6.24-2.26-7.2c-0.43-0.16-0.85-0.12-1.23,0.12c-1.56,1-1.86,3.21-2.17,5.55c-0.25,1.84-0.5,3.74-1.38,5.12
								c-1.3,2.05-2.24,2.51-2.69,2.51c-1.84-0.01-0.23-5.64-0.23-10.78c0-1.99,0.61-4.12,1.59-8.27c0.35-1.5,0.68-2.66,0.91-3.93
								c7.09-8.91,13.31-18.48,16.32-29.36C293.88,288.19,293.85,288.41,293.83,288.64z M295.04,276.6
								c-0.1,1.64-0.36,3.44-0.52,5.02c-1.91,13.14-8.64,24.14-16.74,34.44c0.17-1.51,0.2-3.33-0.01-6.06
								c0.8-9.68,3.34-18.9,7.33-27.94c3.13-7.07,6.3-14.08,7.37-21.75C293.36,262.07,295.59,267.41,295.04,276.6z"/>
							<path d="M203.96,256.09c-3.85,1.17-7.68,2.39-11.51,3.62c-4.78,1.53-5.77-2.17-5.81-5.03c-0.04-2.73,1.46-5.26,3.22-7.3
								c2.95-3.41,8.01-4.48,12.38-4.74C207.41,242.34,208.97,254.4,203.96,256.09 M206.6,244.03c-2.8-4.66-11.86-0.96-15.27,1.24
								c-3.8,2.45-7.01,8.62-4.71,12.91c1.07,1.99,2.37,2.63,4.68,2.45c1.66-0.13,3.37-0.99,4.93-1.52
								c2.61-0.88,5.28-1.61,7.92-2.41c1.47-0.5,3.32-1.22,3.46-2.98C207.8,251.22,207.98,246.31,206.6,244.03"/>
							<path d="M212.27,256.16c-5.01-1.69-3.45-13.76,1.72-13.45c4.38,0.26,9.43,1.33,12.38,4.74c1.76,2.03,3.25,4.56,3.22,7.3
								c-0.04,2.86-1.03,6.56-5.81,5.03C219.95,258.55,216.12,257.33,212.27,256.16 M209.63,244.1c-1.37,2.27-1.19,7.19-1,9.7
								c0.14,1.76,1.99,2.48,3.46,2.98c2.64,0.8,5.31,1.53,7.92,2.41c1.56,0.52,3.27,1.38,4.93,1.52c2.31,0.18,3.61-0.46,4.68-2.45
								c2.3-4.28-0.92-10.46-4.71-12.91C221.49,243.14,212.43,239.44,209.63,244.1"/>
						</g>
					</g>
					<path d="M205.42,289.56c-0.12,4.09-0.24,8.18-0.36,12.27c-0.2,6.6-7.82-0.14-9.5-2.05c-4.73-6.97-5.99-16.13-7.56-24.25
						c-1.29-6.68,0.88-12.1,7.72-14.17c4.81-1.45,9.97-1.59,10.34,4.67C206.52,273.78,205.65,281.8,205.42,289.56 M205.91,261.35
						c-4.37-4.94-15.15,0.34-17.69,4.51c-2.76,4.53-0.58,11.36,0.39,15.89c1.35,6.36,2.71,12.93,6.41,18.38l0.03,0.03l0.02,0.04
						c2.33,2.69,5.67,4.96,9.24,5.56c2.4,0.41,1.48-7.15,1.5-8.02c0.22-7.5,0.9-15,1.07-22.5
						C206.93,273.45,208.41,264.16,205.91,261.35z"/>
					<path d="M210.17,266.03c0.37-6.26,5.53-6.12,10.34-4.67c6.84,2.07,9.01,7.48,7.72,14.17c-1.57,8.12-2.83,17.28-7.56,24.25
						c-1.68,1.91-9.3,8.66-9.5,2.05c-0.12-4.09-0.24-8.18-0.36-12.27C210.58,281.8,209.71,273.78,210.17,266.03 M210.42,297.74
						c0.03,0.87-0.9,8.42,1.5,8.02c3.57-0.6,6.91-2.88,9.24-5.56l0.02-0.04l0.03-0.03c3.71-5.45,5.06-12.02,6.41-18.38
						c0.97-4.53,2.54-11.04,0.39-15.89c-1.85-4.17-12.76-9.42-17.55-4.46c-2.71,2.81-1.22,10.39-1.12,13.84"/>
				</g>
			</g>
		</g>
	</g>
</g>
</svg>
