<?xml version="1.0" encoding="utf-8"?>
<!-- Generator: Adobe Illustrator 26.0.1, SVG Export Plug-In . SVG Version: 6.00 Build 0)  -->
<svg version="1.1" id="Layer_1" xmlns="http://www.w3.org/2000/svg" xmlns:xlink="http://www.w3.org/1999/xlink" x="0px" y="0px"
	 viewBox="0 0 432 648" style="enable-background:new 0 0 432 648;" xml:space="preserve">
<style type="text/css">
	.st0{fill:#FFFFFF;}
	.st1{fill:#E92A2A;}
	.st2{fill:#A89FA8;}
	.st3{fill:#998F99;}
	.st4{fill:#E9E7E9;}
</style>
<g>
	<g>
		<g id="Front_00000169546913121669549740000018008326553522781344_">
			<g>
				<g>
					<g>
						<g>
							<path class="st0" d="M293.08,258.76v-8.57c0-6.19-3.43-12.8-5.57-16.31c2.11-7.08,2.14-24.02,0.99-31.88
								c-0.7-4.78-4.03-8.67-5.67-11.17c0.03-0.19,0.06-0.38,0.1-0.58c0.9-5.78-3.02-19.95-5.37-25.93
								c-1.56-3.97-4.82-5.47-7.45-6.68c-1.42-0.65-2.64-1.22-3.33-2.02c-1.77-2.06-3.53-2.63-5.08-3.12
								c-0.41-0.13-0.8-0.26-1.18-0.41c-0.6-0.24-1.12-0.72-1.92-1.44c-1.36-1.23-3.41-3.1-7.8-5.65c-2.41-1.4-5.81-3.02-9.4-4.75
								c-5.89-2.82-12.76-6.07-14.39-8.09c-1.49-1.84-1.65-7.68-1.67-9.6c0.71-1.81,0.79-4.65,0.76-6.31
								c0.3,0.14,0.66,0.22,1.09,0.16c1.47-0.18,2.84-2.46,4.49-5.43c0.46-0.83,0.9-1.62,1.23-2.1c1.42-2.03,1.11-6.43,0.07-9.73
								c-0.3-0.96-0.82-1.52-1.53-1.65c-0.98-0.18-2.05,0.57-2.82,1.27c0.15-4.11,0.09-15.66-4.65-21.36
								c-4.08-4.9-12.25-6.12-15.35-6.41l-1.22,0c-3.1,0.29-11.27,1.51-15.35,6.41c-4.74,5.69-4.8,17.25-4.65,21.36
								c-0.77-0.71-1.84-1.45-2.82-1.27c-0.71,0.13-1.23,0.69-1.53,1.65c-1.04,3.3-1.35,7.7,0.07,9.73c0.33,0.48,0.77,1.26,1.23,2.1
								c1.64,2.97,3.02,5.25,4.49,5.43c0.43,0.05,0.79-0.02,1.09-0.16c-0.03,1.82,0.07,5.1,1,6.83c0,0,0,0.01,0.01,0.01
								c-0.04,1.35-0.33,7.16-1.91,9.11c-1.64,2.02-8.31,5.22-14.19,8.04c-3.59,1.72-6.99,3.35-9.4,4.75
								c-4.39,2.55-6.44,4.41-7.8,5.65c-0.8,0.73-1.33,1.21-1.92,1.44c-0.38,0.15-0.77,0.28-1.18,0.41
								c-1.55,0.5-3.31,1.06-5.08,3.12c-0.69,0.81-1.92,1.37-3.33,2.02c-2.62,1.21-5.88,2.71-7.45,6.68
								c-2.35,5.98-6.28,20.15-5.37,25.93c0.06,0.41,0.13,0.82,0.21,1.22c-1.66,2.48-4.65,6.09-5.33,10.75
								c-1.15,7.81-1.27,24.11,0.8,31.25c-2.1,3.38-5.83,10.28-5.83,16.73v8.57c-0.59,0.96-3.69,6.55-3.03,17.47
								c0.25,4.18,0.72,8.04,1.22,12.12c0.88,7.27,3.85,15.51,3.51,25.24c-0.52,14.83-0.31,28.99,0.27,31.72
								c0.54,2.5,5.17,14.7,5.37,15.22l0.17,0.45l0.47-0.12c0.03-0.01,2.8-0.8,3.04-4.46l1.48,1.69l0.39-0.55
								c0.09-0.12,1.39-1.97,1.76-4.26c0.82-1.39,2.54-4.97,0.55-8.01c-2.26-3.45-6-10.58-6.04-10.66l0,0
								c-0.01-0.24-0.03-0.45-0.06-0.59c0.56-4.24,0-5.78,1.58-6.38c0.13-0.05,0.2-0.03,0.28,0.02c1.15,0.74,1.41,2.71,1.69,4.8
								c0.26,1.96,0.54,3.98,1.53,5.55c1.17,1.84,2.97,4.23,5.07,2.49c1.38-1.15,0.17-9.04-0.16-11.37
								c-0.42-2.92-0.42-3.74-1.57-8.37c-0.74-2.95-1.18-4.47-1.37-5.84c-0.1-1.13,0.19-5.8,0.62-9.22
								c0.49-3.92,2.92-10.35,5.49-17.15c2.94-7.77,5.97-15.8,6.16-20.46c0.3-7.22-0.65-10.81-0.99-11.84
								c0.61-0.73,2.31-2.99,2.77-5.91c0.54-3.39,0.37-9.29,0.36-9.43c0.02-0.1,1.8-10.28,4.73-14.94
								c2.23-3.54,5.52-10.48,6.91-14.11c0.51,3.59,1.08,6.8,1.65,8.52c0.73,2.18,1.65,4.6,2.54,6.94c1.27,3.34,2.47,6.49,2.78,8.13
								c0.44,2.33,0.13,19.48,0.03,25.12c-0.02,1.21-0.04,2-0.04,2.2c0,0.01,0,0.01-0.01,0.02c-0.11,0.11-0.19,0.3-0.22,0.5
								c-0.23,0.41-0.58,0.97-0.91,1.49c-1.77,2.8-4.74,7.48-4.17,12.09c0.64,5.15,1.42,7.3,1.7,7.94
								c-0.58,1.86-4.89,15.93-4.23,26.09c0.23,3.54-1.16,9.07-2.92,16.07c-2.27,9.02-6.57,29.79-7.52,42.74
								c-1.41,19.16,4.08,41.1,5.6,52.95c0.33,2.54,0.54,4.21,0.57,4.72c0.07,1.25-0.04,2.12-0.18,3.12
								c-0.18,1.36-0.39,2.9-0.18,5.8c0.02,0.29,0.07,0.61,0.14,0.95c-0.74,1.66-7.27,16.65-7.44,26.43
								c-0.08,4.78,1.45,15.38,3.07,26.6c1.47,10.16,2.86,20.66,3.31,27.15l0.01,0.17c0.04,0.54,0.07,1.06,0.09,1.54
								c0.07,3.48-0.26,10.4-0.49,11.08c-0.52,1.59-1.01,3.1-0.97,5.44c-0.14,0.14-0.28,0.27-0.42,0.39
								c-1.92,1.64-2.7,3.85-3.45,5.99c-0.25,0.7-0.48,1.36-0.75,1.99c-1.04,2.42-10.22,10-11.49,10.79
								c-0.99,0.62-3.49,4.29-3.49,4.29c-0.94,1.01-0.65,2.66-0.46,3.75c0.03,0.19,0.07,0.37,0.09,0.53
								c0.08,0.58,0.26,0.99,0.4,1.31c0.13,0.28,0.22,0.49,0.22,0.74c0.01,0.34-0.05,0.75-0.1,1.14c-0.05,0.35-0.1,0.72-0.11,1.06
								c-0.01,0.61,0.02,2.08,0.61,2.57c0.34,0.28,0.66,0.48,1.13,0.56c-0.05,0.15-0.12,0.35-0.2,0.59
								c-0.37,1.08,0.45,2.19,1.05,2.64c0.43,0.32,1.11,0.35,1.58,0.32c0,0.09,0.02,0.15,0.03,0.2c0.07,0.77,0.33,1.83,1.32,2.3
								c1,0.47,1.51,0.36,2.09,0.08c1.14,1.58,3.47,2.54,5.56,2.34c0.27-0.03,0.54-0.07,0.8-0.14c2.15-0.55,4.85-2.41,5.85-4.9
								c0.8-2,1.97-2.65,3.02-3.11c4.3-1.35,6.64-6.14,7.26-10.58c0.55-3.92,3.07-8.19,3.72-9.07c3-1.26,4.78-2.85,6.31-5.1
								c1.61-2.37,1.68-3.88,1.23-5.84c-0.43-1.87-1.6-10.65-2-12.01c-0.35-1.2-0.52-2.41-0.8-3.9c-0.87-4.64,4.88-28.55,6.57-33.2
								c0.65-1.78,1.58-3.73,2.65-5.99c1.82-3.82,4.09-8.58,5.91-14.6c2.74-9.11-1.59-29.28-2.12-31.66
								c1.59-2.79,3.01-5.69,4.24-8.64c0.98-2.37,1.91-4.82,2.37-7.34c0.69-3.73,1.28-10.79,1.97-18.96
								c0.61-7.22,1.3-15.4,2.14-21.94c1.04-8.06,3.17-17.17,4.89-24.48c1.17-5.01,2.19-9.33,2.52-11.94
								c0.62-4.87,0.01-9.73-0.34-11.85c0.38,0.04,1.49,0.05,1.76,0c-0.35,2.12-0.96,6.98-0.34,11.85
								c0.33,2.61,1.35,6.93,2.52,11.94c1.71,7.32,3.85,16.42,4.89,24.48c0.84,6.53,1.53,14.72,2.14,21.94
								c0.69,8.17,1.28,15.23,1.97,18.96c0.46,2.53,1.39,4.98,2.37,7.34c1.23,2.95,2.64,5.85,4.24,8.64
								c-0.53,2.38-4.86,22.55-2.12,31.66c1.81,6.02,4.08,10.78,5.91,14.6c1.08,2.26,2.01,4.21,2.65,5.99
								c1.69,4.66,7.44,28.57,6.57,33.2c-0.28,1.49-0.44,2.71-0.8,3.9c-0.41,1.36-1.57,10.15-2,12.01
								c-0.45,1.96-0.39,3.47,1.23,5.84c1.54,2.25,3.31,3.84,6.31,5.1c0.65,0.88,3.17,5.15,3.72,9.07
								c0.62,4.44,2.97,9.23,7.26,10.58c1.04,0.45,2.21,1.11,3.02,3.11c1,2.49,3.7,4.35,5.85,4.9c0.26,0.07,0.53,0.11,0.8,0.14
								c2.09,0.2,4.42-0.76,5.56-2.34c0.58,0.28,1.09,0.39,2.09-0.08c1.07-0.51,1.28-1.72,1.33-2.49c0.47,0.03,1.16,0,1.59-0.32
								c0.6-0.44,1.41-1.55,1.05-2.64c-0.08-0.22-0.14-0.41-0.19-0.56l0,0c0-0.01-0.01-0.02-0.01-0.04
								c0.47-0.09,0.79-0.28,1.13-0.56c0.59-0.49,0.63-1.96,0.61-2.57c-0.01-0.34-0.06-0.7-0.11-1.06c-0.05-0.39-0.11-0.8-0.1-1.14
								c0-0.25,0.1-0.46,0.22-0.74c0.14-0.32,0.32-0.72,0.4-1.31c0.02-0.16,0.05-0.34,0.09-0.53c0.19-1.09,0.48-2.75-0.46-3.75
								c0,0-2.5-3.67-3.49-4.29c-1.27-0.79-10.45-8.37-11.49-10.79c-0.27-0.63-0.5-1.29-0.75-1.99c-0.75-2.14-1.53-4.35-3.45-5.99
								c-0.14-0.12-0.28-0.25-0.42-0.39c0.04-2.34-0.45-3.85-0.97-5.44c-0.22-0.68-0.56-7.6-0.49-11.08c0.02-0.48,0.05-1,0.09-1.54
								c0.01-0.06,0.02-0.12,0.03-0.17l-0.02,0c0.44-6.49,1.84-16.99,3.31-27.15c1.62-11.22,3.15-21.83,3.07-26.6
								c-0.17-9.71-6.61-24.56-7.42-26.39c0.09-0.41,0.15-0.79,0.17-1.14c0.21-2.9,0-4.44-0.18-5.8c-0.13-1-0.25-1.86-0.18-3.12
								c0.03-0.51,0.24-2.19,0.57-4.72c1.52-11.85,7.02-33.78,5.6-52.95c-0.96-12.95-5.25-33.73-7.52-42.74
								c-1.76-7-3.15-12.52-2.92-16.07c0.66-10.15-3.64-24.23-4.23-26.09c0.28-0.65,1.06-2.8,1.7-7.94
								c0.57-4.61-2.4-9.29-4.17-12.09c-0.52-0.82-1.11-1.75-1.14-2.01c0-0.2-0.01-1-0.04-2.2c-0.1-5.64-0.41-22.79,0.03-25.12
								c0.31-1.65,1.51-4.8,2.78-8.13c0.89-2.34,1.82-4.76,2.54-6.94c0.55-1.66,1.08-4.75,1.58-8.2c0-0.01,0-0.01,0-0.02
								c1.43,3.55,4.62,10.05,6.69,13.71c3.64,6.45,4.89,16.96,5.09,24.38c0.08,2.95,2.16,5.17,2.77,5.91
								c-0.34,1.04-1.29,4.62-0.99,11.84c0.19,4.66,3.23,12.69,6.16,20.46c2.57,6.8,5,13.22,5.49,17.15
								c0.35,2.83,0.7,4.66,0.72,6.06c0.02,1.34,0.01,2.68-0.12,4.03c-0.12,1.24-0.64,2.71-1.27,5.22
								c-1.16,4.63-1.15,5.45-1.57,8.37c-0.33,2.34-1.55,10.22-0.16,11.37c2.1,1.74,3.9-0.64,5.07-2.49c1-1.57,1.27-3.6,1.53-5.55
								c0.28-2.09,0.55-4.06,1.69-4.8c0.08-0.05,0.15-0.07,0.28-0.02c1.58,0.59,1.02,2.14,1.58,6.38c-0.03,0.15-0.05,0.35-0.06,0.59
								l0,0c-0.04,0.07-3.77,7.2-6.04,10.66c-1.99,3.03-0.28,6.61,0.55,8.01c0.37,2.29,1.67,4.14,1.76,4.26l0.39,0.55l1.48-1.69
								c0.24,3.66,3.02,4.46,3.04,4.46l0.47,0.12l0.17-0.45c0.2-0.52,4.83-12.71,5.37-15.22c0.59-2.73,0.8-16.89,0.27-31.72
								c-0.34-9.73,2.62-17.97,3.51-25.24c0.5-4.08,0.96-7.94,1.22-12.12C296.77,265.31,293.68,259.72,293.08,258.76z"/>
						</g>
					</g>
				</g>
			</g>
		</g>
	</g>
	<g>
		<g id="Sartorius__x28_inner_leg_x29__00000102536573613490932600000017041354994911230648_">
			<path class="st1" d="M200.13,376.67c-0.34,1.94-0.66,3.93-0.91,5.79c-0.35,2.79-0.76,6.25-1.06,9.43
				c-0.88-11.95-2.77-24.1-7.65-35.33c-8.07-18.6-15.91-36.72-16.31-57.36c-0.02-1.32,0.07-2.55,0.32-3.85
				c1.13-5.64,4.79,1.32,5.57,2.61c1.4,2.32,2.62,3.91,2.95,6.74c0.16,1.33,0.32,3,0.61,4.33c1.95,9.16,3.73,17.98,7.02,26.8
				c1.51,4.05,3.46,7.89,4.93,11.96c1.66,4.57,2.37,9.66,3.14,14.43c0.77,4.79,1.23,9.32,1.39,14.16L200.13,376.67z"/>
			<path class="st1" d="M216.22,376.43c0.34,1.94,0.63,3.85,0.87,5.71c0.35,2.79,0.76,5.93,1.06,9.11
				c0.88-11.95,2.63-23.76,7.52-34.98c8.07-18.6,16.32-36.72,16.71-57.36c0.02-1.32-0.08-3-0.43-4.27c-1.72-6.24-6.19,3.12-6.3,3.35
				c-1.27,2.4-2.1,4.06-2.42,6.89c-0.16,1.33-0.28,2.58-0.57,3.9c-1.95,9.16-3.65,17.66-6.94,26.48c-1.51,4.05-3.53,7.88-5,11.95
				c-1.66,4.57-2.36,9.99-3.14,14.76C216.81,366.77,216.38,371.59,216.22,376.43"/>
		</g>
		<g id="Front_00000130628591068895556750000017781827681630428858_">
			<path class="st2" d="M207.98,139.35c-0.88-0.07-1.76-0.26-2.58-0.56c-0.17-1.54-0.35-3.1-0.54-4.71c0.43,0.1,0.9,0.18,1.35,0.24
				c0.36,0.05,0.72,0.08,1.06,0.11h1.43c0.33-0.03,0.68-0.06,1.04-0.11c0.45-0.06,0.89-0.13,1.32-0.23
				c-0.19,1.61-0.37,3.18-0.54,4.72C209.7,139.1,208.84,139.28,207.98,139.35 M211.2,138.53c0.17-1.54,0.35-3.08,0.53-4.63
				c0.08-0.02,0.15-0.05,0.22-0.08c0.51-0.18,1.46-0.77,2.63-1.58c-0.13,1.6-0.38,3.18-0.7,4.74
				C213.03,137.59,212.14,138.12,211.2,138.53 M204.7,138.51c-0.94-0.42-1.84-0.96-2.69-1.56c-0.32-1.56-0.57-3.13-0.69-4.73
				c1.2,0.83,2.17,1.43,2.68,1.62c0.06,0.02,0.11,0.04,0.17,0.06C204.35,135.43,204.53,136.97,204.7,138.51 M214.69,136.39
				c0.28-1.53,0.49-3.07,0.59-4.63c1.49-1.07,3.24-2.42,4.85-3.77c-0.5,1.69-0.99,3.26-1.48,4.72c-0.49,0.55-1.01,1.08-1.54,1.59
				C216.34,135.01,215.54,135.73,214.69,136.39 M201.2,136.34c-0.83-0.65-1.61-1.35-2.35-2.05c-0.53-0.51-1.05-1.04-1.54-1.59
				c-0.49-1.46-0.98-3.03-1.48-4.72c1.59,1.33,3.31,2.66,4.79,3.73C200.72,133.28,200.92,134.82,201.2,136.34"/>
			<path class="st3" d="M202.01,136.94c-0.27-0.19-0.54-0.39-0.8-0.6c-0.28-1.52-0.49-3.06-0.58-4.62c0.24,0.17,0.47,0.33,0.69,0.49
				C201.44,133.81,201.69,135.39,202.01,136.94"/>
			<path class="st3" d="M205.39,138.79c-0.12-0.04-0.23-0.09-0.35-0.13c-0.12-0.05-0.23-0.1-0.34-0.15
				c-0.17-1.54-0.35-3.08-0.53-4.62c0.22,0.07,0.44,0.13,0.68,0.19C205.04,135.68,205.22,137.25,205.39,138.79"/>
			<path class="st3" d="M213.88,136.99c0.32-1.56,0.57-3.14,0.7-4.74c0.22-0.15,0.45-0.32,0.69-0.49c-0.09,1.56-0.3,3.11-0.59,4.63
				C214.42,136.6,214.16,136.8,213.88,136.99"/>
			<path class="st3" d="M210.5,138.81c0.17-1.54,0.35-3.11,0.54-4.72c0.24-0.05,0.46-0.11,0.68-0.18c-0.18,1.54-0.36,3.09-0.53,4.63
				c-0.1,0.04-0.19,0.08-0.29,0.12C210.78,138.71,210.64,138.76,210.5,138.81"/>
			<path class="st4" d="M206.25,169.68c-0.11-0.21-0.23-0.41-0.36-0.61c-0.06-0.09-0.12-0.18-0.18-0.27
				c0.5-7.85-0.1-15.12-1.81-21.63c-0.25-0.96-0.51-1.92-0.77-2.87c-0.71-2.59-1.44-5.25-1.93-7.96c0.26,0.21,0.53,0.41,0.8,0.6
				c0.43,2.12,1,4.2,1.55,6.24c0.69,2.54,1.4,5.17,1.86,7.84c1.06,6.19,1.36,12.23,0.91,18.47
				C206.32,169.56,206.29,169.63,206.25,169.68"/>
			<path class="st4" d="M207.38,173.96c-0.08-0.8-0.2-1.58-0.4-2.32c0.51-5.35-0.03-10.8-0.55-16.09c-0.09-0.87-0.17-1.74-0.25-2.61
				c-0.44-4.73-0.94-9.57-1.48-14.44c0.11,0.05,0.23,0.1,0.34,0.15c0.12,0.05,0.23,0.09,0.35,0.13c0.65,5.81,1.19,11.13,1.63,16.16
				c0.06,0.69,0.12,1.39,0.19,2.08C207.72,162.59,208.24,168.32,207.38,173.96"/>
			<path class="st4" d="M210.3,168.94c-0.51-7.88-0.01-15.24,1.7-21.77c0.25-0.96,0.51-1.92,0.77-2.87
				c0.71-2.58,1.43-5.21,1.92-7.91c-0.26,0.2-0.53,0.4-0.8,0.59c-0.43,2.1-0.99,4.17-1.54,6.2c-0.69,2.54-1.4,5.17-1.86,7.84
				c-1.06,6.19-1.22,12.81-0.77,19.04L210.3,168.94z"/>
			<path class="st4" d="M208.67,173.61c-0.9-5.72-0.5-10.96,0.02-16.58c0.06-0.69,0.13-1.38,0.19-2.08
				c0.44-5.03,0.98-10.35,1.63-16.14c0.14-0.05,0.27-0.1,0.4-0.15c0.1-0.04,0.19-0.08,0.29-0.12c-0.54,4.86-1.04,9.69-1.48,14.41
				c-0.08,0.87-0.17,1.73-0.25,2.6c-0.53,5.35-0.98,11.12-0.45,16.52c-0.19,0.76-0.02,0.6-0.09,1.43L208.67,173.61z"/>
			<g>
				<path class="st2" d="M239.26,446.17c0.45,0,0.9-0.03,1.34-0.11c2.29-0.38,3.98-1.69,5.45-3.27c-0.01,0-0.02,0-0.02,0l-0.21,0.01
					c-3.06,0-13.44-8.46-15.77-11.05c0,0,13.53,9.99,15.73,9.99c0.03,0,0.06,0,0.09-0.01c1.84-0.28,7.09-8.9,7.2-9.09h0
					c0,0-0.08,0.14-0.23,0.38c-1.74,1.9-4.24,3.2-6.82,3.2c-0.14,0-0.27,0-0.41-0.01c-2.84-0.15-5.6-2.09-6.3-4.81
					c-0.52-2.03,0.11-4.21,1.23-5.99c1.12-1.78,2.71-3.22,4.27-4.64c-3.25,1.09-4.78,1.77-6.51,2.97c-1.26,0.87-5.25,2.74-8.18,2.74
					c-1.1,0-2.05-0.26-2.65-0.94c-0.6-0.69-1.2-1.37-1.68-2.14c-0.26-0.43-0.53-0.86-0.79-1.29c-0.4-0.02-0.81-0.07-1.2-0.15
					c-1.03-0.19-2.04-0.57-2.99-1.17c0.13,0.95,0.25,1.8,0.38,2.5c0.82,4.47,2.88,8.82,4.95,12.83c0.34,0.65,0.67,1.33,1.02,2.01
					c0.93,1.81,1.93,3.67,3.21,5.15l0.1,0.11c0.8,0.35,1.59,0.68,2.31,1C234.83,445.32,237.04,446.17,239.26,446.17"/>
				<path class="st2" d="M176.92,446.17c-0.45,0-0.9-0.03-1.34-0.11c-2.29-0.38-3.98-1.69-5.45-3.27c0.01,0,0.02,0,0.02,0l0.21,0.01
					c3.06,0,13.44-8.46,15.77-11.05c0,0-13.53,9.99-15.73,9.99c-0.03,0-0.06,0-0.09-0.01c-1.84-0.28-7.09-8.9-7.2-9.09h0
					c0,0,0.08,0.14,0.23,0.38c1.74,1.9,4.24,3.2,6.82,3.2c0.14,0,0.27,0,0.41-0.01c2.84-0.15,5.6-2.09,6.3-4.81
					c0.52-2.03-0.11-4.21-1.23-5.99c-1.12-1.78-2.71-3.22-4.27-4.64c3.25,1.09,4.78,1.77,6.51,2.97c1.26,0.87,5.25,2.74,8.18,2.74
					c1.1,0,2.05-0.26,2.65-0.94c0.6-0.69,1.2-1.37,1.68-2.14c0.26-0.43,0.53-0.86,0.79-1.29c0.4-0.02,0.81-0.07,1.2-0.15
					c1.03-0.19,2.04-0.57,2.99-1.17c-0.13,0.95-0.25,1.8-0.38,2.5c-0.82,4.47-2.88,8.82-4.95,12.83c-0.34,0.65-0.67,1.33-1.02,2.01
					c-0.93,1.81-1.93,3.67-3.21,5.15l-0.1,0.11c-0.8,0.35-1.59,0.68-2.31,1C181.35,445.32,179.14,446.17,176.92,446.17"/>
				<g>
					<g>
						<path d="M201.71,239.2c-3.31,0.51-6.34,1.66-9.49,2.74c-8.45,2.91-5.45-7.97-3.13-11.71c2.68-4.32,8.11-6.79,13.02-7.7
							c5.86-1.08,4.52,5.84,4.43,8.46C206.42,234.52,206.73,238.55,201.71,239.2 M207.19,231.05c0.07-1.93,0.19-3.85,0.04-5.77
							c-0.52-6.74-10.96-1.76-13.73-0.09c-5.36,3.23-8.21,9.51-7.47,15.57c0.15,1.23,1.13,2.86,2.64,2.69
							c4.54-0.51,8.63-2.92,13.17-3.62c2.37-0.31,3.82-0.73,4.9-2.84C207.53,235.43,207.13,232.72,207.19,231.05"/>
						<path d="M214.07,239.2c-5.08-0.66-4.78-4.69-4.91-8.22c-0.1-2.61-1.46-9.54,4.47-8.44c4.97,0.92,10.48,3.4,13.2,7.72
							c2.36,3.74,5.42,14.63-3.15,11.7C220.5,240.87,217.43,239.72,214.07,239.2 M208.51,231.04c0.06,1.67-0.34,4.38,0.47,5.94
							c1.1,2.11,2.57,2.54,4.97,2.85c4.6,0.71,8.75,3.13,13.35,3.65c1.53,0.17,2.52-1.45,2.67-2.68c0.74-6.05-2.17-12.34-7.6-15.58
							c-2.81-1.68-13.4-6.68-13.91,0.06C208.31,227.19,208.44,229.11,208.51,231.04"/>
						<path d="M200.07,219.6c-2.79,1.66-12.73,8.14-13.46,1.48c-0.64-5.76,1.06-9.84,6.38-12.44c3.24-1.59,8.41-4.62,11.99-4.02
							c2.46,1.44,1.47,6.19,1.07,8.34C205.43,216.26,202.75,218.01,200.07,219.6 M205.39,204.04c-0.76-0.32-1.74-0.2-2.52-0.08
							c-1.32,0.2-2.58,0.71-3.79,1.26c-0.32,0.14-0.64,0.29-0.96,0.44c-2.77,1.29-6.18,2.21-8.58,4.18
							c-2.46,2.02-3.42,4.24-3.73,7.37c-0.16,1.59-0.5,6.78,1,8.05c1.78,1.51,3.92-0.22,5.7-1.06c3.68-1.74,8.56-3.46,11.49-6.37
							c2.3-2.29,3.63-6.21,3.53-9.42c-0.05-1.45-0.54-3.39-1.84-4.22L205.39,204.04"/>
						<path d="M215.33,219.63c-2.68-1.59-5.35-3.34-5.97-6.64c-0.4-2.16-1.39-6.9,1.07-8.34c3.58-0.6,8.75,2.43,11.99,4.02
							c5.32,2.6,7.02,6.68,6.38,12.44C228.05,227.77,218.12,221.28,215.33,219.63 M210.01,204.07l-0.3,0.16
							c-1.3,0.83-1.8,2.77-1.84,4.22c-0.1,3.2,1.23,7.13,3.53,9.42c2.93,2.91,7.81,4.63,11.49,6.37c1.78,0.85,3.91,2.57,5.7,1.06
							c1.51-1.27,1.16-6.46,1-8.05c-0.31-3.13-1.27-5.36-3.73-7.37c-2.4-1.97-5.81-2.89-8.58-4.18c-0.32-0.15-0.64-0.3-0.96-0.44
							c-1.21-0.55-2.47-1.06-3.79-1.26C211.76,203.87,210.78,203.75,210.01,204.07"/>
						<g>
							<path d="M170.27,442.8l-0.21-0.01c-0.01,0-0.02,0-0.02,0c0,0-0.01-0.01-0.01-0.01c-2.66-0.47-7.54-8.94-7.54-10.13h0.53
								c0.11,0.18,5.37,8.8,7.2,9.09c0.03,0,0.05,0.01,0.09,0.01c2.2,0,15.73-9.99,15.73-9.99
								C183.71,434.34,173.33,442.8,170.27,442.8"/>
							<path d="M245.75,442.8l0.21-0.01c0.01,0,0.02,0,0.02,0c0,0,0.01-0.01,0.01-0.01c2.66-0.47,7.54-8.94,7.54-10.13h-0.53
								c-0.11,0.18-5.37,8.8-7.2,9.09c-0.03,0-0.05,0.01-0.09,0.01c-2.2,0-15.73-9.99-15.73-9.99
								C232.3,434.34,242.69,442.8,245.75,442.8"/>
							<path d="M293.07,258.75v-8.57c0-6.19-3.43-12.8-5.57-16.31c2.11-7.08,2.14-24.02,0.99-31.88c-0.7-4.78-4.03-8.67-5.67-11.17
								c0.03-0.19,0.06-0.38,0.1-0.58c0.9-5.78-3.02-19.95-5.37-25.93c-1.56-3.97-4.82-5.47-7.45-6.68
								c-1.42-0.65-2.64-1.22-3.33-2.02c-1.77-2.06-3.53-2.63-5.08-3.12c-0.41-0.13-0.8-0.26-1.18-0.41
								c-0.6-0.24-1.12-0.72-1.92-1.44c-1.36-1.23-3.41-3.1-7.8-5.65c-2.41-1.4-5.8-3.02-9.4-4.75c-5.89-2.82-12.76-6.07-14.39-8.09
								c-1.49-1.84-1.65-7.68-1.67-9.6c0.71-1.81,0.79-4.65,0.76-6.31c0.3,0.14,0.66,0.22,1.09,0.16c1.47-0.18,2.84-2.46,4.49-5.43
								c0.46-0.83,0.9-1.62,1.23-2.1c1.42-2.03,1.11-6.43,0.07-9.73c-0.3-0.96-0.82-1.52-1.53-1.65c-0.98-0.18-2.05,0.57-2.82,1.27
								c0.15-4.11,0.09-15.66-4.65-21.36c-4.08-4.9-12.25-6.12-15.35-6.41l-1.22,0c-3.1,0.29-11.27,1.51-15.35,6.41
								c-4.74,5.69-4.8,17.25-4.65,21.36c-0.77-0.71-1.84-1.45-2.82-1.27c-0.71,0.13-1.23,0.69-1.53,1.65
								c-1.04,3.3-1.35,7.7,0.07,9.73c0.33,0.48,0.77,1.26,1.23,2.1c1.64,2.97,3.02,5.25,4.49,5.43c0.43,0.05,0.79-0.02,1.09-0.16
								c-0.03,1.82,0.07,5.1,1,6.83c0,0,0,0.01,0.01,0.01c-0.04,1.35-0.33,7.16-1.91,9.11c-1.64,2.02-8.31,5.22-14.19,8.04
								c-3.59,1.72-6.99,3.35-9.4,4.75c-4.39,2.55-6.44,4.41-7.8,5.65c-0.8,0.73-1.33,1.21-1.92,1.44
								c-0.38,0.15-0.77,0.28-1.18,0.41c-1.55,0.5-3.31,1.06-5.08,3.12c-0.69,0.81-1.92,1.37-3.33,2.02
								c-2.62,1.21-5.88,2.71-7.45,6.68c-2.35,5.98-6.28,20.15-5.37,25.93c0.06,0.41,0.13,0.82,0.21,1.22
								c-1.66,2.48-4.65,6.09-5.33,10.75c-1.15,7.81-1.27,24.11,0.8,31.25c-2.11,3.38-5.83,10.28-5.83,16.73v8.57
								c-0.59,0.96-3.69,6.55-3.03,17.47c0.25,4.18,0.72,8.04,1.22,12.12c0.88,7.27,3.85,15.51,3.51,25.24
								c-0.52,14.83-0.31,28.99,0.27,31.72c0.54,2.5,5.17,14.7,5.37,15.22l0.17,0.45l0.47-0.12c0.03-0.01,2.8-0.8,3.04-4.46
								l1.48,1.69l0.39-0.55c0.09-0.12,1.39-1.97,1.76-4.26c0.82-1.39,2.54-4.97,0.55-8.01c-2.26-3.45-6-10.58-6.04-10.66l0,0
								c-0.01-0.24-0.03-0.45-0.06-0.59c0.56-4.24,0-5.78,1.58-6.38c0.13-0.05,0.2-0.03,0.28,0.02c1.15,0.74,1.41,2.71,1.69,4.8
								c0.26,1.96,0.54,3.98,1.53,5.55c1.17,1.84,2.97,4.23,5.07,2.49c1.38-1.15,0.17-9.04-0.16-11.37
								c-0.42-2.92-0.42-3.74-1.57-8.37c-0.74-2.95-1.18-4.48-1.37-5.84c-0.1-1.13,0.19-5.8,0.62-9.22
								c0.49-3.92,2.92-10.35,5.49-17.15c2.94-7.77,5.97-15.8,6.16-20.46c0.3-7.22-0.65-10.81-0.99-11.84
								c0.61-0.73,2.31-2.99,2.77-5.91c0.54-3.39,0.37-9.29,0.36-9.43c0.02-0.1,1.8-10.28,4.74-14.94
								c2.23-3.54,5.52-10.48,6.91-14.11c0.51,3.59,1.08,6.8,1.65,8.52c0.73,2.18,1.65,4.6,2.54,6.94c1.27,3.34,2.47,6.49,2.78,8.13
								c0.44,2.33,0.13,19.48,0.03,25.12c-0.02,1.21-0.04,2-0.04,2.2c0,0.01,0,0.01-0.01,0.02c-0.11,0.11-0.19,0.3-0.22,0.5
								c-0.23,0.41-0.58,0.97-0.91,1.49c-1.77,2.8-4.74,7.48-4.17,12.09c0.64,5.15,1.42,7.3,1.7,7.94
								c-0.58,1.86-4.89,15.93-4.23,26.09c0.23,3.54-1.16,9.07-2.92,16.07c-2.27,9.02-6.57,29.79-7.52,42.74
								c-1.41,19.16,4.08,41.1,5.6,52.95c0.33,2.54,0.54,4.21,0.57,4.72c0.07,1.25-0.04,2.12-0.18,3.12
								c-0.18,1.36-0.39,2.9-0.18,5.8c0.02,0.29,0.07,0.61,0.14,0.95c-0.74,1.66-7.27,16.65-7.44,26.43
								c-0.08,4.78,1.45,15.38,3.07,26.6c1.47,10.16,2.86,20.66,3.31,27.15l0.01,0.17c0.04,0.54,0.07,1.06,0.09,1.54
								c0.07,3.48-0.26,10.4-0.49,11.08c-0.52,1.59-1.01,3.1-0.97,5.44c-0.14,0.14-0.28,0.27-0.42,0.39
								c-1.92,1.64-2.7,3.85-3.45,5.99c-0.25,0.7-0.48,1.36-0.75,1.99c-1.04,2.42-10.22,10-11.49,10.79
								c-0.99,0.62-3.49,4.29-3.49,4.29c-0.94,1.01-0.65,2.66-0.46,3.75c0.03,0.19,0.07,0.37,0.09,0.53
								c0.08,0.58,0.26,0.99,0.4,1.31c0.13,0.28,0.22,0.49,0.22,0.74c0.01,0.34-0.05,0.75-0.1,1.14c-0.05,0.35-0.1,0.72-0.11,1.06
								c-0.01,0.61,0.02,2.08,0.61,2.57c0.34,0.28,0.66,0.48,1.13,0.56c-0.05,0.15-0.12,0.35-0.2,0.59
								c-0.37,1.08,0.45,2.19,1.05,2.64c0.43,0.32,1.11,0.35,1.58,0.32c0,0.09,0.02,0.15,0.03,0.2c0.07,0.77,0.33,1.83,1.31,2.3
								c1,0.47,1.51,0.36,2.09,0.08c1.14,1.58,3.47,2.54,5.56,2.34c0.27-0.03,0.54-0.07,0.8-0.14c2.15-0.55,4.85-2.41,5.85-4.9
								c0.8-2,1.97-2.65,3.02-3.11c4.3-1.35,6.64-6.14,7.26-10.58c0.55-3.92,3.07-8.19,3.72-9.07c3-1.26,4.78-2.85,6.31-5.1
								c1.61-2.37,1.68-3.88,1.23-5.84c-0.43-1.87-1.6-10.65-2-12.02c-0.36-1.2-0.52-2.41-0.8-3.9c-0.87-4.64,4.88-28.55,6.57-33.2
								c0.65-1.78,1.58-3.73,2.65-5.99c1.82-3.82,4.09-8.58,5.91-14.6c2.74-9.11-1.59-29.28-2.12-31.66
								c1.59-2.79,3.01-5.69,4.24-8.64c0.98-2.37,1.91-4.82,2.37-7.34c0.69-3.73,1.28-10.79,1.97-18.96
								c0.61-7.22,1.3-15.4,2.14-21.94c1.04-8.06,3.17-17.17,4.89-24.48c1.17-5.01,2.19-9.33,2.52-11.94
								c0.62-4.87,0.01-9.73-0.34-11.85c0.38,0.04,1.49,0.05,1.76,0c-0.35,2.12-0.96,6.98-0.34,11.85
								c0.33,2.61,1.35,6.93,2.52,11.94c1.71,7.32,3.85,16.42,4.89,24.48c0.84,6.53,1.53,14.72,2.14,21.94
								c0.69,8.17,1.28,15.23,1.97,18.96c0.46,2.53,1.39,4.98,2.37,7.34c1.23,2.95,2.64,5.85,4.24,8.64
								c-0.53,2.38-4.86,22.55-2.12,31.66c1.81,6.02,4.08,10.78,5.91,14.6c1.08,2.26,2.01,4.21,2.65,5.99
								c1.69,4.66,7.44,28.57,6.57,33.2c-0.28,1.49-0.44,2.71-0.8,3.9c-0.41,1.36-1.57,10.15-2,12.02
								c-0.45,1.96-0.39,3.47,1.23,5.84c1.54,2.25,3.31,3.84,6.31,5.1c0.65,0.88,3.17,5.15,3.72,9.07
								c0.62,4.44,2.97,9.23,7.26,10.58c1.04,0.45,2.21,1.11,3.02,3.11c1,2.49,3.7,4.35,5.85,4.9c0.26,0.07,0.53,0.11,0.8,0.14
								c2.09,0.2,4.42-0.76,5.56-2.34c0.58,0.28,1.09,0.39,2.09-0.08c1.07-0.51,1.28-1.72,1.33-2.49c0.47,0.03,1.16,0,1.59-0.32
								c0.6-0.44,1.41-1.55,1.05-2.64c-0.08-0.22-0.14-0.41-0.19-0.56l0,0c0-0.01-0.01-0.02-0.01-0.04
								c0.47-0.09,0.79-0.28,1.13-0.56c0.59-0.49,0.63-1.96,0.61-2.57c-0.01-0.34-0.06-0.7-0.11-1.06c-0.05-0.39-0.11-0.8-0.1-1.14
								c0-0.25,0.1-0.46,0.22-0.74c0.14-0.32,0.32-0.72,0.4-1.31c0.02-0.16,0.05-0.34,0.09-0.53c0.19-1.09,0.48-2.75-0.46-3.75
								c0,0-2.5-3.67-3.49-4.29c-1.27-0.79-10.45-8.37-11.49-10.79c-0.27-0.63-0.5-1.29-0.75-1.99c-0.75-2.14-1.53-4.35-3.45-5.99
								c-0.14-0.12-0.28-0.25-0.43-0.39c0.04-2.34-0.45-3.85-0.97-5.44c-0.22-0.68-0.56-7.6-0.49-11.08c0.02-0.48,0.05-1,0.09-1.54
								c0.01-0.06,0.02-0.12,0.03-0.17l-0.02,0c0.44-6.49,1.84-16.99,3.31-27.15c1.62-11.22,3.15-21.83,3.07-26.6
								c-0.17-9.71-6.61-24.56-7.42-26.39c0.09-0.41,0.15-0.79,0.17-1.14c0.21-2.9,0-4.44-0.18-5.8c-0.13-1-0.25-1.86-0.18-3.12
								c0.03-0.51,0.24-2.19,0.57-4.72c1.52-11.85,7.02-33.78,5.6-52.95c-0.96-12.95-5.25-33.73-7.52-42.74
								c-1.76-7-3.15-12.52-2.92-16.07c0.66-10.15-3.64-24.23-4.23-26.09c0.28-0.65,1.06-2.8,1.7-7.94
								c0.57-4.61-2.4-9.29-4.17-12.09c-0.52-0.82-1.11-1.75-1.14-2.01c0-0.2-0.01-1-0.04-2.2c-0.1-5.64-0.41-22.79,0.03-25.12
								c0.31-1.65,1.51-4.8,2.78-8.13c0.89-2.34,1.82-4.76,2.54-6.94c0.55-1.66,1.08-4.75,1.58-8.2c0-0.01,0-0.01,0-0.02
								c1.43,3.55,4.62,10.05,6.69,13.71c3.64,6.45,4.89,16.96,5.09,24.38c0.08,2.95,2.16,5.17,2.77,5.91
								c-0.34,1.04-1.29,4.62-0.99,11.84c0.19,4.66,3.23,12.69,6.16,20.46c2.57,6.8,5,13.22,5.49,17.15
								c0.35,2.83,0.7,4.66,0.72,6.06c0.02,1.34,0.01,2.68-0.12,4.03c-0.12,1.24-0.64,2.71-1.27,5.22
								c-1.16,4.63-1.15,5.45-1.57,8.37c-0.33,2.34-1.55,10.22-0.16,11.37c2.1,1.74,3.9-0.64,5.07-2.49c1-1.57,1.27-3.6,1.53-5.55
								c0.28-2.09,0.55-4.06,1.69-4.8c0.08-0.05,0.15-0.07,0.28-0.02c1.58,0.59,1.02,2.14,1.58,6.38c-0.03,0.15-0.05,0.35-0.06,0.59
								l0,0c-0.04,0.07-3.77,7.2-6.04,10.66c-1.99,3.03-0.28,6.61,0.55,8.01c0.37,2.29,1.67,4.14,1.76,4.26l0.39,0.55l1.48-1.69
								c0.24,3.66,3.02,4.46,3.04,4.46l0.47,0.12l0.17-0.45c0.2-0.52,4.83-12.71,5.37-15.22c0.59-2.73,0.8-16.89,0.27-31.72
								c-0.34-9.73,2.62-17.97,3.51-25.24c0.5-4.08,0.96-7.94,1.22-12.12C296.76,265.3,293.67,259.71,293.07,258.75z M287.64,201.53
								c1.32,7.7,1.08,24.27-0.83,31.23c-0.41-0.63-0.71-1.07-0.86-1.28c-0.09-1.6-0.78-13.77-1.96-19.52
								c-1.12-5.42-3.11-10.62-3.52-11.66c0.28-0.81,1.36-4.09,2.14-8.28C283.4,192.96,287.09,198.32,287.64,201.53z M232.64,260.52
								c0.01-1.23,0.08-2.45,0.19-3.67c0.28,0.08,0.61,0.08,1.02-0.03c2.66-0.73,5.02-5.23,6.13-7.39c1.28-2.48,2.24-5.01,2.85-7.64
								c-0.02,4.36,0.05,10.11,0.14,15.37c-1.77,3.01-4.15,5.71-7.15,7.54c-0.45,0.29-1.08,0.57-1.61,0.64
								c-1.06,0.14-1.6-1.23-1.49-2.1C232.67,262.33,232.63,261.43,232.64,260.52z M242.91,236.48c-0.26,6.07-2.43,11.91-6.11,16.75
								c-0.93,1.22-2,2.72-3.75,1.92c-0.93-0.42-0.86-1.48-0.73-2.33c0.19-1.31,0.32-2.62,0.57-3.92c0.12-0.65,0.29-1.3,0.5-1.93
								c0.03-0.09,0.17-0.55,0.32-0.97c0.53,0.15,1.26-0.06,2.28-0.79c3.02-2.17,4.68-5.58,5.52-9.27c0.62-0.54,1.21-1.12,1.77-1.72
								c-0.08,0.31-0.15,0.6-0.2,0.86C243.02,235.35,242.92,236.43,242.91,236.48z M238.46,241.84c-0.51,0.71-1.02,1.38-1.68,1.96
								c-0.77,0.68-1.73,1.84-2.88,1.22c-1.04-0.56-0.7-2.34-0.61-3.28c0.16-1.65,0.38-3.29,0.56-4.94
								c2.76-2.46,5.01-5.63,6.58-9.12c0.4-0.11,0.8-0.24,1.19-0.38C241.73,231.86,241.23,238,238.46,241.84z M237.97,231.01
								c-1.13,1.7-4.06,7.06-4.72,2.77c-0.42-2.75-1.59-6.87,0.56-9.27c0.72-0.14,1.25-1.02,1.75-1.48
								c0.58-0.52,1.15-1.06,1.71-1.62c0.2-0.2,0.39-0.41,0.59-0.62c1.44-0.13,2.83-0.42,4.15-0.87
								C241.53,223.92,240.13,227.77,237.97,231.01z M232.95,222.39c-0.47-1.25-1.02-2.5-1-3.86c0.03-3.64,2.92-6.48,6.14-8.09
								c1.86,0.65,3.78,1.1,5.76,1.34c-1.43,2.51-3.06,4.91-5,7.07c-0.71,0.79-1.58,1.46-2.37,2.18c-0.5,0.46-1.01,0.92-1.49,1.39
								c-0.32,0.32-0.82,0.84-1.29,0.9C233.11,223.4,233.12,222.85,232.95,222.39z M238.57,220.05c0.63-0.69,1.25-1.38,1.84-2.11
								c1.55-1.91,2.93-3.96,4.15-6.1c0.91,0.08,1.85,0.14,2.77,0.14c0.23,1.16,0.34,2.52,0.37,3.9l-0.02,0.01
								C245.08,218.21,241.98,219.61,238.57,220.05z M235.75,208.77c0.23-0.01,0.46-0.01,0.69-0.02c2.89-0.14,5.84-1.69,8.49-3.69
								c1.03,2.03,1.76,4.12,2.25,6.28l0,0C243.15,211.34,239.3,210.46,235.75,208.77z M239.87,207.1
								c-6.78,2.91-19.09-0.21-24.5-5.62c-4.19-4.19-4.92-10.9-5.48-16.55c-0.38-3.74-1.89-11.18,0.31-14.6
								c4.34-6.72,9.72-7.6,17.45-8.04c15.52-0.88,16.6,3.97,21.86,9.02c1.78,1.71,2.89,3.52,4.14,5.3
								c3.84,5.47,4.84,10.59,4.39,11.12C253.75,194.73,247.62,203.77,239.87,207.1z M219.67,147.67c0.79-2,1.47-3.7,1.92-4.78
								c0.72-1.74,1.33-4.14,1.82-6.55c5.67,5.09,6.74,15.21,13.71,18.81c1.15,0.59,2.31,0.98,3.49,1.2
								c-1.75,0.76-3.8,1.58-5.99,2.29C227.64,158.43,221.91,154.22,219.67,147.67z M232.9,159.16c-6.11,1.76-12.93,2.44-17.31-1.1
								c1.21-3.11,2.55-6.55,3.71-9.47C221.61,154.47,226.67,158.39,232.9,159.16z M221.1,142.68c-1.84,4.46-7.6,19.3-9.09,23.14
								c-0.39-2.55-1.26-9.61,0.15-14.41c0.71-2.41,1.7-4.81,2.84-7.6c1.68-4.08,3.75-9.13,5.86-16.44
								c1.37-1.18,2.59-2.31,3.39-3.21c0.03,0.6,0.09,1.34,0.18,2.16C224.08,129.58,222.71,138.78,221.1,142.68z M258.64,187.96
								l0.02-0.03c3.87,7.42,10.29,12.76,18.23,15.21c7.19,15.25,4.7,34.68-1.23,50.39c-3.04-3.05-6.05-6.75-8.26-10.36
								c-2.84-4.64-4.57-9.91-6.42-15.01c-3.75-10.39-6.85-21.1-7.46-32.09C255.37,193.46,256.96,190.72,258.64,187.96z
								 M276.42,253.49c6.21-14.46,8.6-35,1.44-50.42c0.56-0.74,1.11-1.49,1.67-2.23c0.5,1.29,2.35,6.21,3.4,11.33
								c1.06,5.15,1.72,15.88,1.89,18.75c0,0.46,0.03,0.8,0.06,1.05c0.56,8.26-4.07,14.58-8.19,21.63c-0.12,0.21-0.24,0.4-0.36,0.6
								c-0.05-0.04-0.09-0.09-0.14-0.14C276.28,253.91,276.35,253.66,276.42,253.49z M267.11,157.29c0.74,0.48,1.62,0.89,2.54,1.31
								c2.57,1.19,5.49,2.53,6.9,6.1c2.32,5.88,6.19,19.78,5.31,25.37c-0.74,4.74-1.99,8.65-2.36,9.74
								c-2.07,2.62-3.34,2.81-6.69,1.13c-2.29-1.15-4.53-2.47-6.46-4.19c-3.28-2.93-5.84-6.31-7.73-10.32
								c-0.01-0.02-0.02-0.03-0.04-0.05c-0.67-5.47-5.35-12.92-10.81-18.15c-0.24-0.53-0.45-1.07-0.61-1.62
								c-1.77-6.07,3.22-7.28,7.98-6.99C258.66,159.84,265.17,161.3,267.11,157.29z M261.35,153.5c1.49,0.48,3.02,0.97,4.6,2.8
								c0.18,0.22,0.4,0.41,0.63,0.6c-2.65,6.25-15.34-1.15-19.69,4.39c-1.28,1.63-1.23,3.63-0.51,5.67
								c-3.4-2.94-7.12-5.34-10.16-5.43c-15.46-0.46-20.6,1.5-23.84,4.8c0.47-1.21,1.62-4.17,2.97-7.65
								c6.96,5.38,19.45,0.97,26.44-2.17c6.14,0.64,12.58-2.61,18.64-3.33C260.73,153.3,261.04,153.4,261.35,153.5z M226.35,132.88
								c1.79,2.21,8.28,5.32,14.56,8.33c3.57,1.71,6.95,3.33,9.32,4.71c4.29,2.49,6.3,4.31,7.62,5.51c0.56,0.51,1.02,0.91,1.48,1.22
								c-8.98,1.37-19.83,7.56-26.17-2.35c-3.11-4.86-5.21-10.81-9.61-14.74c0.55-2.89,0.94-5.7,1.14-7.34
								C225.02,130.04,225.53,131.86,226.35,132.88z M190,114.75c-0.01,0.03-0.38,0.69-1.06,0.6c-1.04-0.13-2.69-3.11-3.68-4.89
								c-0.49-0.89-0.92-1.67-1.29-2.19c-1.06-1.52-1.03-5.3,0.07-8.79c0.18-0.56,0.41-0.86,0.71-0.92c0.76-0.14,2.1,1.08,2.82,1.98
								l1.08,1.36l-0.13-1.74c-0.01-0.15-1.1-15.54,4.33-22.06c4.03-4.84,12.71-5.87,15.14-6.07c2.43,0.2,11.11,1.24,15.14,6.07
								c5.43,6.52,4.34,21.9,4.33,22.06l-0.13,1.74l1.08-1.36c0.72-0.9,2.06-2.12,2.82-1.98c0.29,0.05,0.53,0.36,0.71,0.92
								c1.1,3.5,1.13,7.28,0.07,8.79c-0.37,0.52-0.79,1.3-1.29,2.19c-0.99,1.78-2.64,4.76-3.68,4.89c-0.68,0.09-1.05-0.57-1.06-0.6
								l-1.17-2.25l0.16,2.52c0,0.05,0.33,5.39-0.83,7.55c-1.18,2.19-10.7,9.59-12.54,10.26c-1.03,0.37-2.5,0.51-3.61,0.56
								c-1.11-0.05-2.58-0.19-3.61-0.56c-1.83-0.67-11.36-8.07-12.54-10.26c-1.16-2.15-0.83-7.49-0.83-7.55l0.16-2.52L190,114.75z
								 M181.76,265.59c-0.53-0.07-1.16-0.35-1.61-0.64c-2.77-1.69-5.02-4.13-6.74-6.86c0.08-4.81,0.15-10.11,0.16-14.43
								c0.6,2.06,1.42,4.06,2.43,6.02c1.11,2.16,3.47,6.66,6.13,7.39c0.4,0.11,0.74,0.11,1.02,0.03c0.11,1.22,0.18,2.44,0.19,3.67
								c0.01,0.9-0.04,1.81-0.09,2.71C183.36,264.36,182.83,265.73,181.76,265.59z M182.93,255.4c-1.76,0.8-2.83-0.71-3.75-1.92
								c-2.81-3.69-4.74-7.97-5.61-12.49c-0.02-2.87-0.09-5-0.24-5.76c-0.01-0.04-0.02-0.09-0.03-0.14c0.38,0.38,0.77,0.75,1.18,1.1
								c0.84,3.69,2.5,7.1,5.52,9.27c1.01,0.73,1.75,0.94,2.28,0.79c0.15,0.42,0.29,0.88,0.32,0.97c0.21,0.63,0.37,1.27,0.5,1.93
								c0.25,1.3,0.38,2.62,0.57,3.92C183.78,253.92,183.86,254.98,182.93,255.4z M182.06,245.26c-1.15,0.62-2.11-0.54-2.88-1.22
								c-0.66-0.58-1.17-1.25-1.68-1.96c-2.77-3.83-3.27-9.98-3.16-14.55c0.39,0.14,0.78,0.27,1.19,0.38
								c1.56,3.49,3.81,6.66,6.57,9.12c0.18,1.65,0.4,3.29,0.56,4.94C182.77,242.92,183.11,244.7,182.06,245.26z M182.72,234.03
								c-0.66,4.29-3.58-1.07-4.72-2.77c-2.18-3.26-3.58-7.31-4.06-11.35c1.24,0.42,2.54,0.7,3.89,0.85c0.29,0.3,0.57,0.61,0.86,0.9
								c0.56,0.55,1.12,1.09,1.71,1.62c0.51,0.46,1.03,1.34,1.75,1.48C184.31,227.16,183.14,231.28,182.72,234.03z M168.71,212.24
								c0.91,0,1.82-0.05,2.71-0.13c1.22,2.14,2.59,4.18,4.15,6.09c0.5,0.62,1.02,1.22,1.56,1.81c-3.31-0.48-6.31-1.87-8.83-4.11
								l-0.01-0.01C168.33,214.56,168.49,213.35,168.71,212.24z M182.28,223.57c-0.48-0.06-0.97-0.58-1.29-0.9
								c-0.48-0.48-0.98-0.94-1.49-1.39c-0.79-0.71-1.66-1.38-2.37-2.18c-1.95-2.16-3.58-4.56-5-7.06c1.99-0.23,3.92-0.67,5.79-1.33
								c3.2,1.61,6.08,4.45,6.11,8.07c0.01,1.36-0.53,2.61-1,3.86C182.85,223.1,182.86,223.65,182.28,223.57z M168.85,211.59
								C168.85,211.59,168.85,211.59,168.85,211.59c0.51-2.28,1.33-4.52,2.48-6.67c2.6,1.9,5.48,3.35,8.26,3.49
								c0.62,0.03,1.22,0.05,1.81,0.06C177.54,210.53,173.31,211.59,168.85,211.59z M176.16,206.77
								c-7.76-3.33-14.64-13.13-18.17-19.37c0.27-3.14,1.94-6.89,4.45-10.54c2.88-4.2,6.29-8.2,8.51-10
								c6.05-4.88,11.39-4.67,16.52-4.51c7.74,0.25,14.6,1.59,18.36,7.64c2.14,3.45,0.69,10.86,0.31,14.6
								c-0.57,5.65-1.3,12.36-5.48,16.55C195.25,206.56,183.27,209.82,176.16,206.77z M139.02,203.51
								c8.12-2.46,14.67-7.97,18.54-15.6c1.72,2.83,3.27,5.6,5.15,8.23c-0.59,11.04-3.7,21.78-7.46,32.2
								c-1.84,5.1-3.58,10.38-6.42,15.01c-2.41,3.94-5.03,7.47-8.37,10.68C134.53,238.37,131.92,218.77,139.02,203.51z
								 M139.48,253.3c-4.05-6.87-8.8-13.43-8.2-21.68c0.18-3.02,0.92-14.35,1.97-19.46c0.98-4.75,2.64-9.33,3.27-11
								c0.58,0.77,1.16,1.55,1.74,2.32c0.01,0.02,0.03,0.03,0.04,0.04C131.39,218.67,133.73,237.71,139.48,253.3z M204,165.77
								c-1.49-3.84-7.24-18.68-9.09-23.14c-2.06-4.99-3.19-15.48-3.24-15.92c0.1-0.89,0.17-1.71,0.2-2.37
								c0.81,0.88,1.98,1.97,3.29,3.09c2.1,7.25,4.17,12.27,5.83,16.33c1.14,2.78,2.13,5.19,2.84,7.6
								C205.26,156.17,204.39,163.23,204,165.77z M196.77,148.71c1.17,2.95,2.51,6.4,3.72,9.5c-2.92,2.92-11.11,2.85-17.54,1.17
								C189.3,158.66,194.46,154.7,196.77,148.71z M181.31,158.84l-0.05,0.02c-2.15-0.7-4.16-1.5-5.89-2.25
								c1.18-0.23,2.34-0.61,3.49-1.2c7-3.62,8.04-13.83,13.79-18.89c0.48,2.34,1.07,4.64,1.77,6.33c0.46,1.11,1.17,2.88,1.99,4.96
								C194.17,154.43,188.37,158.68,181.31,158.84z M158.32,151.42c1.33-1.2,3.33-3.02,7.62-5.51c2.37-1.38,5.75-2.99,9.32-4.71
								c6.28-3.01,12.77-6.12,14.56-8.33c0.75-0.93,1.24-2.52,1.55-4.16c0.22,1.72,0.6,4.35,1.12,7.03
								c-4.45,3.93-6.56,9.92-9.69,14.81c-6.38,9.98-17.33,3.64-26.35,2.33C157.06,152.55,157.61,152.06,158.32,151.42z
								 M150.23,156.3c1.57-1.83,3.11-2.33,4.6-2.8c0.05-0.01,0.09-0.03,0.13-0.04l0.45-0.02c6.09,0.69,12.58,3.99,18.76,3.35
								c7.03,3.15,19.87,6.99,26.56,2.08c1.18,3.03,2.2,5.65,2.72,7.01c-3.32-3.18-8.8-4.65-23.79-4.26
								c-3.04,0.08-6.6,2.19-9.96,5.25c0.6-1.91,0.57-3.77-0.63-5.3c-4.37-5.56-17.15,1.92-19.73-4.47
								C149.68,156.84,149.98,156.58,150.23,156.3z M139.63,164.69c1.41-3.57,4.32-4.91,6.9-6.1c0.81-0.37,1.6-0.74,2.28-1.16
								c1.88,4.14,8.47,2.65,12.02,2.43c4.76-0.3,9.75,0.92,7.97,6.99c-0.13,0.44-0.28,0.87-0.46,1.29
								c-5.68,5.68-10.53,13.73-10.95,18.68c-1.88,3.97-4.44,7.33-7.69,10.24c-1.93,1.73-4.17,3.04-6.46,4.19
								c-3.2,1.61-4.38,1.45-6.3-0.87l-0.15-0.29c-0.02-0.04-1.6-4.48-2.47-10.05C133.45,184.48,137.32,170.58,139.63,164.69z
								 M128.99,201.73c0.49-2.88,3.52-7.5,4.71-9.09c0.77,3.88,1.76,6.88,2.02,7.65c-0.41,1.04-2.4,6.24-3.52,11.66
								c-1.18,5.75-1.87,17.92-1.96,19.52c-0.11,0.16-0.32,0.45-0.58,0.85C127.9,225.02,127.71,209.2,128.99,201.73z M121.15,276.14
								c-0.53-8.74,1.45-14.02,2.42-16.03c1.13,7.51,4.35,15.02,7.42,21.95c4.07,9.2,6.58,19.54,7.34,29.42
								c-0.08,2.04,0,3.5,0.2,4.78c-7.69-9.73-14.28-20.29-16.67-32.5C121.55,281.26,121.3,278.76,121.15,276.14z M135.49,356.31
								l-1.4-1.59c-0.32-3.78-1.98-9.72-2.25-10.64c0.03-0.22,0.08-0.79,0.14-1.55c1.1,2.03,2.7,4.91,4.05,6.97
								C137.65,351.95,136.22,355.04,135.49,356.31z M132.27,336.87c1.27,2.37,3.55,6.54,5.14,8.96c1.06,1.62,0.81,3.5,0.3,4.96
								c-0.14-0.63-0.39-1.27-0.79-1.88c-1.73-2.63-3.87-6.63-4.81-8.41C132.19,339.32,132.25,338.01,132.27,336.87z M139.53,320.86
								c0.98,4.15,1.59,6.29,1.59,8.28c0,5.14,1.61,10.78-0.23,10.79c-0.45,0-1.4-0.46-2.7-2.51c-0.87-1.38-1.13-3.28-1.38-5.12
								c-0.32-2.34-0.61-4.55-2.18-5.55c-0.38-0.24-0.8-0.28-1.23-0.12c-2.57,0.97-1.73,5.35-2.27,7.21l-0.04,0.13l0.03,0.14
								c0.68,2.91-0.35,9.86-0.36,9.93l-0.02,0.12l0.03,0.11c0.02,0.08,2.29,7.98,2.29,11.61c0,2.38-1.17,3.37-1.83,3.74
								c-0.91-2.4-4.66-12.4-5.12-14.54c-0.47-2.21-0.79-16.09-0.25-31.46c0.34-9.51-2.44-17.57-3.42-24.71
								c3.14,10.55,9.28,19.87,16.23,28.56l0.04,0.06C138.94,318.62,139.22,319.53,139.53,320.86z M142.04,293.31
								c-0.34,1.45-0.2,0.85-0.59,2.44c-1.36,3.85-2.33,7.31-2.64,9.8c-0.05,0.44-0.1,0.86-0.15,1.26
								c-0.81-5.92-2.34-12.78-4.3-18.24c-3.49-9.71-8.9-19.14-10.2-29.48c0,0,0.01-0.01,0.01-0.01l0.01-0.01v-8.89
								c0-6.91,4.65-14.63,6.38-17.27c0,0,0-0.01,0-0.01c-0.07,9.42,6.6,16.89,10.77,25.1c5.09,10.01,3.25,23.83,0.86,34.57
								C142.09,293.01,142.1,292.99,142.04,293.31z M150.45,268.03c-0.19,4.49-3.19,12.44-6.1,20.12c-0.14,0.38-0.48,1.04-0.84,1.74
								c1.76-8.34,2.67-16.73,0.86-25.27c-0.18-0.84-0.41-1.67-0.68-2.48c1.73-2.05,3.67-3.89,5.83-5.51
								C149.84,257.61,150.74,261.11,150.45,268.03z M157.48,225.38c-3.05,4.84-4.81,14.91-4.89,15.44c0,0.06,0.17,6.04-0.35,9.34
								c-0.5,3.17-2.69,5.57-2.71,5.6l-0.22,0.24c0,0,0,0,0,0c-2.16,1.6-4.1,3.42-5.85,5.44c-0.05-0.13-0.09-0.24-0.11-0.35
								c-0.79-2.15-1.83-4.22-2.97-6.24c3.2-3.02,6.14-6.39,9.01-11.17c2.82-4.67,3.84-8.29,5.76-13.31
								c4.14-10.79,7.46-21.95,8.15-33.43c0.11,0.15,0.22,0.3,0.34,0.45c0.28,2.88,0.74,7.43,1.31,11.83
								c0.01,0.05,0.01,0.1,0.02,0.15C163.84,212.62,160.09,221.24,157.48,225.38z M164.86,198.88c1.54,1.78,3.62,3.88,5.95,5.65
								c-2.46,4.58-3.51,9.54-3.14,14.46C166.54,214.58,165.44,204.71,164.86,198.88z M169.15,223.36
								c-0.65-2.52-0.89-4.71-0.89-6.66c1.53,1.28,3.2,2.26,5,2.96c0.29,2.56,0.96,5.11,1.96,7.52
								C172.9,226.44,170.83,225.14,169.15,223.36z M171.03,228.81c-0.03-0.08-0.08-0.21-0.15-0.36c-0.57-1.36-1.02-2.64-1.39-3.85
								c1.25,1.14,2.68,2.05,4.24,2.71c-0.01,0.02-0.02,0.05-0.02,0.07c-0.07,2.44,0.05,5.13,0.53,7.73
								c-0.47-0.44-0.92-0.91-1.35-1.39C172.46,232.39,171.76,230.73,171.03,228.81z M168.01,276.72
								c-0.52-4.23,2.32-8.71,4.01-11.39c0.31-0.48,0.55-0.87,0.75-1.2c6.76,3.03,14.86,8.34,13.04,17.33
								c-0.51,2.5-2.7,5.18-4.25,7.06c-2.17,2.63-4.18,1.42-6.44-0.37c-1.96-1.55-3.89-3.14-5.82-4.73
								C168.96,282.32,168.45,280.26,168.01,276.72z M162.54,327.21c1.78-7.09,3.2-12.69,2.95-16.4
								c-0.48-7.29,1.67-16.69,3.09-21.93c4.19,4.58,3.68,11.89,2.8,17.9c-1.04,7.17-2.21,17.43-9.02,21.15
								C162.42,327.68,162.48,327.44,162.54,327.21z M155.05,369.77c0.62-8.34,2.63-19.98,4.59-29.59
								c-0.64,7.48-0.44,14.05,1.26,22.92c1.7,8.87,7.09,21.02,9.13,32.2c0.77,4.2,1.47,14.94-0.59,20.88
								c-1.36,3.94-5.38,7.15-8.81,6.23C159.1,410.57,153.65,388.78,155.05,369.77z M156.62,490.1
								c-1.61-11.18-3.14-21.74-3.05-26.43c0.14-8.23,5.08-20.66,6.81-24.77c0.97,3.08,2.97,7.13,4.7,10.35
								c-0.07,12.91-0.15,25.83-0.22,38.74c-0.07,11.34,1.75,25.15-4.9,35.05c0.08-1.75,0.11-3.44,0.05-4.59
								C159.78,512.04,158.18,500.92,156.62,490.1z M175.45,524.79c0.07,0.38,0.15,0.75,0.22,1.11c-3.87-4.37-3.91-11.01-3.94-16.96
								c0-0.87-0.01-1.72-0.02-2.54c-0.14-7.72-0.21-14.79,0.25-21.85c0.8,3.53,2.95,8.73,8.68,11.28
								C178.29,504.59,174.71,520.86,175.45,524.79z M190.6,470.49c-1.79,5.94-4.04,10.66-5.85,14.45
								c-1.09,2.28-2.03,4.25-2.69,6.08c-0.28,0.78-0.67,2.07-1.12,3.7c-5.8-2.67-8.04-8.57-8.86-11.89
								c0.05-0.62,0.09-1.23,0.15-1.85c0.14-1.57,0.24-3.19,0.34-4.89c0.26-4.48,0.39-9.07,1.78-13.38
								c1.05-3.26,2.71-6.31,4.64-9.12c1.95-2.84,4.38-5.28,6.4-8.05c1.18-1.62,2.28-3.3,3.32-5.02
								C189.73,445.43,192.98,462.6,190.6,470.49z M195.07,422.96c-0.82,4.47-2.88,8.82-4.95,12.83c-1.22,2.36-2.43,5.09-4.16,7.12
								c-4.75,5.58-9.89,10.97-12.2,18.09c-1.59,4.89-1.96,9.93-2.25,15.03c-0.1,1.7-0.19,3.3-0.34,4.86
								c-0.77,8.32-0.69,16.49-0.52,25.53c0.02,0.82,0.02,1.67,0.02,2.53c0.03,6.74,0.06,14.33,5.45,18.92
								c0.15,0.6,0.29,1.18,0.44,1.7c0.59,3,1.53,9.65,1.87,11.15c0.41,1.79,0.35,3.02-1.09,5.14c-1.23,1.81-3.07,3.24-4.65,4.14
								c1.21-1.95,3.3-5.33,3.3-5.33c-1.58,1.67-4.8,6.07-4.87,6.17v0c-0.6,0.75-3.37,5.36-3.96,9.57c-0.58,4.1-2.74,8.64-6.67,9.86
								l-0.05,0.02c-0.87,0.38-2.5,1.08-3.51,3.6c-0.89,2.21-3.31,3.87-5.25,4.37c-2.02,0.52-4.63-0.48-5.59-2.14l-0.03-0.05
								c-0.15-0.8-0.02-1.09,0.3-1.39c0.09-0.08,0.24-0.22,0.44-0.39c1.3-1.15,2.72-2.45,3.1-3.2c0.35-0.69,3.09-5.16,5.23-6.9
								c0,0-3.43,1.79-6.02,6.5c-0.36,0.65-2.13,2.26-2.9,2.94c-0.21,0.18-0.37,0.33-0.46,0.41c-0.56,0.53-0.73,1.13-0.58,2.08
								c-0.39,0.19-0.63,0.25-1.33-0.08c-0.6-0.28-0.77-1.06-0.82-1.64l0,0c0-0.03,0.28-3.61,6.66-11.73c0,0-2.09,1.66-3.9,4.36
								c-2.35,3.51-3.22,5.4-3.52,6.41c-0.43,0.04-0.99,0.02-1.2-0.14c-0.43-0.32-0.93-1.07-0.73-1.64c0.07-0.22,0.13-0.4,0.18-0.54
								l0,0c0.75-2.6,3.46-8.56,5.76-11.18c0,0-1.34,0.92-3,3.52c-1.66,2.6-2.59,4.28-3.32,6.46c-0.35-0.04-0.56-0.16-0.84-0.39
								c-0.13-0.12-0.31-0.85-0.29-1.87c0.01-0.29,0.05-0.61,0.1-0.96c0.06-0.43,0.12-0.87,0.11-1.28c0-0.11-0.01-0.22-0.03-0.32
								c0.36-1.49,1.42-4.16,4.21-7.46c0,0-1.33,1.12-2.45,2.64c-1,1.37-1.76,2.43-2.24,3.51c-0.05-0.15-0.09-0.32-0.12-0.52
								c-0.02-0.17-0.06-0.36-0.09-0.57c-0.17-0.98-0.4-2.31,0.23-2.99c0,0,2.39-3.57,3.32-4.15c1.36-0.85,10.68-8.5,11.83-11.2
								c0.28-0.66,0.53-1.37,0.77-2.05c0.71-2.03,1.45-4.12,3.19-5.61c2.49-2.12,4.27-7.45,4.27-7.45
								c-0.01,0.02-1.65,3.14-3.51,5.38c0.09-1.65,0.47-2.84,0.91-4.16c0.14-0.44,0.41-3.28,0.57-6.25
								c6.45-9.07,5.52-21.44,5.58-32.01c0.08-13.93,0.16-27.86,0.24-41.79c1.29,2.35,2.3,4.04,2.39,4.18c0,0-6.89-13.61-7.23-18.41
								c-0.2-2.79,0-4.27,0.17-5.58c0.13-1.01,0.26-1.97,0.18-3.32c-0.03-0.49-0.21-1.93-0.48-4.08c2.54,0.55,5.34-0.92,7.53-3.6
								c4.06-4.97,3.85-13.92,3.06-20.8c0.95,0.32,2.01,0.28,2.93-0.18c-0.05,1.76,0.05,3.53,0.34,5.32
								c0.9,5.56,3.3,11.66,8.14,14.98c3.87,2.66,8.75,4.08,12.72,1.47C195.33,421.38,195.2,422.24,195.07,422.96z M197.02,404.1
								c-0.49,5.86-0.97,11.48-1.46,15.47c-6.5,5.09-14.54-1.87-17.78-7.56c-3.5-6.17-3.16-13.58-1.65-20.24
								c2.78-12.23,10.67-22.56,14.14-34.58c2.15,5.05,4.04,10.18,5.06,15.62c1.39,7.37,2.04,14.81,2.45,22.27
								C197.53,398.13,197.27,401.19,197.02,404.1z M199.16,382.11c-0.36,2.79-0.69,5.88-1,9.06c-0.88-11.94-2.7-23.71-7.57-34.94
								c-8.08-18.6-15.92-36.72-16.32-57.36c-0.02-1.32,0.07-2.55,0.33-3.86c1.12-5.64,5.34,2.65,5.46,2.88
								c1.26,2.4,2.63,4.12,2.96,6.94c0.15,1.33,0.28,2.58,0.56,3.9c1.96,9.17,3.66,18.07,6.95,26.9c1.51,4.05,3.52,7.88,4.99,11.94
								c1.65,4.57,2.36,9.59,3.13,14.36c0.78,4.79,1.21,9.62,1.36,14.45C199.7,378.33,199.4,380.25,199.16,382.11z M206.57,345.7
								c-0.32,2.55-1.33,6.85-2.5,11.83c-1.15,4.92-2.49,10.64-3.57,16.33c-0.22-4.02-0.62-8.05-1.21-12.08
								c-0.79-5.43-1.88-10.9-3.75-16.06c-1.9-5.25-4.47-10.23-6.26-15.55c-3.12-9.25-3.99-18.74-6.09-28.17
								c-0.65-2.93-3.24-6.18-4.87-8.65c-0.48-0.72-1.93-1.34-2.73-0.77c-4.07,2.9-1.68,12.8-1.23,16.62
								c1.27,10.84,4.69,21.34,8.69,31.44c2.09,5.27,4.59,10.4,6.84,15.61c-3.77,13.68-14.81,27.1-15.6,41.6
								c-0.92,0.63-2.07,0.7-3.04,0.28c-0.11-0.9-0.23-1.76-0.34-2.56c-1.67-11.51-7.41-25.02-9.34-34.04
								c-1.83-8.51-1.8-17.54-0.87-26.36c0.52-2.4,1.02-4.58,1.46-6.41c7.74-3.66,8.57-14.09,9.84-21.8
								c1.04-6.34,1.37-14.09-3.22-18.79c0.55-1.97,0.94-3.2,0.96-3.24l0.07-0.22l-0.01-0.01c2.81,2.35,5.63,4.75,8.67,6.76
								c0.14,0.09,0.28,0.15,0.42,0.19c2.16,3.11,4.17,7.09,6.62,11.98c2.08,4.17,4.45,8.89,7.43,14.05
								c0.84,1.46,1.54,3.09,2.27,4.82c2.11,4.95,4.48,10.49,10.98,11.39C206.5,335.76,207.19,340.78,206.57,345.7z M208.4,332.93
								c-0.04,0-0.33,0-0.33,0c-7.25-0.01-9.5-5.29-11.88-10.87c-0.72-1.68-1.45-3.42-2.33-4.94c-2.96-5.13-5.32-9.84-7.4-13.99
								c-2.35-4.69-4.29-8.57-6.38-11.67c2.32-1.12,4.97-6.31,5.68-7.53c2.63-4.56,0.64-10.04-2.38-13.95
								c-2.26-2.94-6.64-5.38-10.09-6.94c0.03-0.1,0.04-0.2,0.04-0.28c0-0.2,0.01-1,0.04-2.19c0.01-0.45,0.02-0.91,0.02-1.37
								c0.99,1.45,2.12,2.79,3.43,4.02c1.23,1.15,3.77,3.57,5.51,3.6c1.39,0.02,1.38-1.32,1.48-2.42c0.24-2.55,0.18-5.12-0.06-7.67
								c0.54-0.59,0.67-1.67,0.66-2.56c-0.02-3.14-0.56-5.68-1.63-8.22c1.3-1.37,0.42-6.35,0.01-8.9c0-0.01,0.01-0.01,0.01-0.01
								c0.71-3.55,2.48-9.17,0.06-12.4c0.43-0.3,0.56-1,0.77-1.48c0.67-1.59,1.31-3.73,1.04-5.48c-0.49-3.17-3.08-5.71-5.95-7.27
								c1.38-0.53,2.73-1.17,4.02-1.94c8.24-0.15,14.16-2.66,19.24-7.74c3.86-3.87,4.21-11.04,4.8-16.13
								c0.51-4.45,1.81-11.49-0.8-15.54c-0.52-0.8-1.04-1.54-1.62-2.22c0.07-0.4,1.77-9.57-0.01-15.62
								c-0.72-2.43-1.71-4.85-2.86-7.65c-1.6-3.9-3.58-8.69-5.59-15.5c3.19,2.66,6.9,5.34,8.1,5.77c0.95,0.35,2.2,0.51,3.27,0.59
								h1.42c1.07-0.08,2.31-0.24,3.27-0.59c1.21-0.44,4.96-3.15,8.17-5.83c-2.03,6.87-4.01,11.69-5.62,15.61
								c-1.15,2.8-2.14,5.21-2.86,7.65c-1.78,6.05-0.08,15.23-0.01,15.62c0,0-1.06,1.68-1.6,2.51c-2.62,4.05-1.31,11.1-0.8,15.54
								c0.58,5.09,0.93,12.26,4.8,16.13c5.3,5.3,11.52,7.81,20.33,7.75c0.95,0.5,1.92,0.95,2.91,1.33c-2.88,1.55-5.48,4.1-5.98,7.28
								c-0.27,1.74,0.37,3.88,1.04,5.48c0.2,0.48,0.34,1.18,0.77,1.48c-2.43,3.22-0.66,8.85,0.06,12.4c0,0.01,0.01,0.01,0.01,0.02
								c-0.41,2.56-1.29,7.53,0.01,8.9c-1.07,2.54-1.61,5.08-1.64,8.22c-0.01,0.89,0.12,1.97,0.66,2.56
								c-0.24,2.55-0.3,5.11-0.06,7.67c0.1,1.1,0.1,2.44,1.49,2.42c1.74-0.03,4.29-2.45,5.51-3.6c1.49-1.4,2.75-2.95,3.84-4.65
								c0.01,0.72,0.02,1.42,0.04,2.11c0.02,1.2,0.04,1.99,0.04,2.19c0,0.09,0.02,0.19,0.05,0.3c-3.47,1.54-7.93,3.93-10.25,6.93
								c-3.02,3.92-5.32,9.39-2.69,13.95c0.72,1.25,3.65,6.78,6.07,7.73c-2.07,3.09-4.01,6.95-6.34,11.6
								c-2.08,4.15-4.43,8.86-7.39,13.99c-0.88,1.52-1.62,3.26-2.33,4.94C217.8,327.61,215.56,332.87,208.4,332.93z M218.16,391.05
								c-0.31-3.14-0.63-6.18-0.98-8.94c-0.24-1.88-0.54-3.81-0.88-5.77c0.15-4.92,0.58-9.82,1.37-14.7
								c0.77-4.78,1.48-9.8,3.13-14.36c1.47-4.06,3.48-7.9,4.99-11.94c3.3-8.83,5-17.73,6.96-26.9c0.28-1.32,0.41-2.56,0.56-3.9
								c0.32-2.83,1.69-4.54,2.96-6.94c0.12-0.23,4.34-8.52,5.46-2.88c0.26,1.31,0.36,2.54,0.33,3.86
								c-0.39,20.65-8.23,38.76-16.32,57.37C220.85,367.22,219.03,379.05,218.16,391.05z M219.31,404.1
								c-0.25-2.94-0.51-6.04-0.79-9.13c0.41-7.52,1.06-15.03,2.46-22.46c1.02-5.4,2.89-10.51,5.02-15.52
								c3.48,12,11.41,22.56,14.19,34.77c1.52,6.67,1.85,14.08-1.65,20.24c-3.23,5.69-11.28,12.65-17.78,7.56
								C220.28,415.57,219.81,409.96,219.31,404.1z M234.27,491.03c-0.66-1.83-1.6-3.8-2.69-6.08c-1.81-3.79-4.06-8.51-5.85-14.45
								c-2.38-7.89,0.88-25.06,1.9-29.98c1.03,1.72,2.14,3.41,3.32,5.02c2.02,2.78,4.45,5.21,6.4,8.05
								c1.93,2.82,3.59,5.87,4.64,9.12c1.39,4.31,1.52,8.9,1.78,13.38c0.1,1.71,0.19,3.32,0.34,4.89c0.05,0.55,0.09,1.09,0.13,1.64
								c-0.54,2.26-1.76,5.87-4.41,8.78c-1.18,1.29-2.63,2.44-4.44,3.29C234.94,493.08,234.56,491.8,234.27,491.03z M235.69,495.79
								c2.1-0.94,3.71-2.25,4.96-3.69c2.2-2.56,3.24-5.56,3.72-7.81c0.48,7.15,0.4,14.3,0.26,22.11c-0.02,0.83-0.02,1.68-0.02,2.54
								c-0.02,5.96-0.07,12.59-3.94,16.96c0.08-0.37,0.15-0.73,0.22-1.11C241.63,520.85,238.03,504.54,235.69,495.79z
								 M257.92,534.64c-1.86-2.25-3.51-5.37-3.51-5.38c0,0,1.78,5.32,4.27,7.45c1.74,1.48,2.48,3.58,3.19,5.61
								c0.24,0.68,0.49,1.39,0.77,2.05c1.15,2.69,10.47,10.34,11.83,11.2c0.92,0.58,3.32,4.15,3.32,4.15
								c0.64,0.68,0.4,2.02,0.23,2.99c-0.04,0.21-0.07,0.4-0.09,0.57c-0.03,0.19-0.07,0.36-0.11,0.51
								c-0.48-1.09-1.25-2.16-2.26-3.55c-1.12-1.52-2.45-2.64-2.45-2.64c2.83,3.34,3.87,6.04,4.23,7.52
								c-0.02,0.1-0.03,0.21-0.03,0.32c-0.01,0.41,0.05,0.85,0.11,1.28c0.05,0.35,0.09,0.67,0.1,0.96c0.02,1.02-0.16,1.75-0.29,1.87
								c-0.27,0.22-0.48,0.34-0.83,0.39c-0.73-2.2-1.66-3.89-3.34-6.51c-1.66-2.6-3-3.52-3-3.52c2.25,2.56,4.88,8.31,5.7,10.99
								c0.05,0.18,0.13,0.42,0.26,0.78c0.19,0.57-0.3,1.32-0.73,1.64c-0.18,0.13-0.62,0.17-1.01,0.15c-0.13-0.84-0.8-2.71-3.64-6.94
								c-1.81-2.7-3.9-4.36-3.9-4.36c5.38,6.84,6.43,10.46,6.62,11.45l-0.01,0.3c-0.01,0.48-0.03,1.75-0.84,2.14
								c-0.7,0.33-0.94,0.27-1.33,0.08c0.15-0.95-0.02-1.55-0.58-2.08c-0.09-0.09-0.25-0.23-0.46-0.41
								c-0.77-0.68-2.54-2.29-2.9-2.94c-2.59-4.71-6.02-6.5-6.02-6.5c2.14,1.74,4.87,6.21,5.23,6.9c0.38,0.75,1.8,2.05,3.1,3.2
								c0.2,0.18,0.35,0.31,0.44,0.39c0.32,0.3,0.44,0.6,0.3,1.39l-0.03,0.05c-0.96,1.65-3.57,2.65-5.59,2.14
								c-1.94-0.49-4.36-2.15-5.25-4.37c-1.01-2.52-2.64-3.22-3.51-3.6l-0.04-0.02c-3.93-1.22-6.1-5.76-6.67-9.86
								c-0.59-4.21-3.36-8.82-3.96-9.57l0,0c-0.07-0.1-3.28-4.5-4.87-6.17c0,0,2.09,3.38,3.3,5.33c-1.58-0.9-3.42-2.33-4.65-4.14
								c-1.45-2.12-1.5-3.35-1.09-5.14c0.34-1.5,1.28-8.15,1.87-11.15c0.15-0.52,0.29-1.1,0.44-1.7c5.39-4.59,5.42-12.18,5.45-18.92
								c0-0.86,0.01-1.71,0.02-2.53c0.17-9.05,0.24-17.21-0.52-25.53c-0.14-1.56-0.24-3.16-0.34-4.86
								c-0.3-5.1-0.67-10.14-2.25-15.03c-2.31-7.12-7.45-12.51-12.2-18.09c-1.73-2.03-2.94-4.77-4.16-7.12
								c-2.07-4.01-4.13-8.36-4.95-12.83c-0.13-0.72-0.26-1.58-0.39-2.55c3.97,2.6,8.86,1.18,12.72-1.47
								c4.84-3.33,7.61-9.38,8.14-14.98c0.18-1.93,0.21-3.8,0.12-5.62c0.93,0.48,2.03,0.55,3.02,0.28
								c-0.82,6.93-1.11,16.12,3.02,21.18c2.25,2.75,5.14,4.22,7.72,3.56c-0.26,2.01-0.42,3.34-0.45,3.81
								c-0.08,1.35,0.05,2.31,0.18,3.32c0.17,1.31,0.37,2.79,0.17,5.58c-0.34,4.8-7.23,18.41-7.23,18.41
								c0.09-0.15,1.07-1.79,2.33-4.08c0.08,13.94,0.16,27.89,0.24,41.83c0.06,10.57-0.88,22.95,5.58,32.01
								c0.16,2.97,0.43,5.82,0.57,6.25C257.45,531.81,257.83,533,257.92,534.64z M262.77,463.67c0.08,4.69-1.44,15.25-3.05,26.43
								c-1.56,10.81-3.16,21.93-3.38,28.34c-0.06,1.15-0.03,2.84,0.05,4.59c-6.65-9.9-4.84-23.7-4.9-35.05
								c-0.07-12.93-0.15-25.85-0.22-38.78c1.71-3.18,3.7-7.2,4.7-10.29C257.7,443.04,262.63,455.45,262.77,463.67z M261.35,369.62
								c1.41,19.06-4.08,40.91-5.6,52.73c-0.01,0.06-0.01,0.11-0.02,0.17c-3.47,1.1-7.61-2.16-9-6.18
								c-2.05-5.94-1.35-16.68-0.59-20.88c2.04-11.17,7.43-23.33,9.13-32.2c1.81-9.44,1.93-16.6,1.15-24.86
								C258.48,348.29,260.69,360.8,261.35,369.62z M255.14,332.5c1.24,9.69,1.49,19.76-0.53,29.18
								c-1.94,9.02-7.68,22.53-9.34,34.04c-0.1,0.72-0.21,1.49-0.31,2.3c-1.02,0.35-2.23,0.24-3.14-0.41
								c-1.11-15.78-11.61-27.76-15.4-41.57c2.27-5.24,4.78-10.39,6.88-15.7c4-10.1,7.42-20.6,8.69-31.44
								c0.45-3.82,2.84-13.72-1.23-16.62c-0.8-0.57-2.26,0.05-2.73,0.77c-1.63,2.46-4.22,5.72-4.87,8.65
								c-2.1,9.43-2.97,18.92-6.09,28.17c-1.79,5.32-4.36,10.3-6.26,15.55c-1.87,5.17-2.96,10.64-3.75,16.06
								c-0.6,4.11-1,8.21-1.22,12.31c-1.07-5.67-2.41-11.37-3.56-16.27c-1.17-4.98-2.17-9.28-2.5-11.83
								c-0.63-4.92,0.07-9.94,0.38-11.83c6.52-0.89,8.89-6.45,11-11.4c0.74-1.73,1.43-3.36,2.27-4.82
								c2.98-5.16,5.34-9.88,7.43-14.05c2.48-4.95,4.51-8.99,6.71-12.12c0.04-0.02,0.07-0.03,0.11-0.06
								c3.12-2.07,6.01-4.54,8.9-6.96l0.08,0.29c0.01,0.04,0.42,1.3,0.97,3.31c-4.67,4.7-4.35,12.5-3.3,18.87
								c1.27,7.74,2.11,18.22,9.94,21.85C254.55,329.91,254.84,331.16,255.14,332.5z M247.83,288.8c1.41,5.25,3.54,14.6,3.07,21.86
								c-0.24,3.71,1.17,9.31,2.95,16.4c0.07,0.3,0.15,0.61,0.23,0.93c-6.91-3.68-8.08-14-9.13-21.21
								C244.08,300.73,243.56,293.38,247.83,288.8z M244.37,265.18c1.7,2.68,4.54,7.15,4.01,11.39c-0.61,4.92-1.15,6.16-1.45,6.77
								c-1.96,1.62-3.92,3.23-5.91,4.8c-2.26,1.79-4.28,3-6.44,0.37c-1.55-1.88-3.73-4.56-4.25-7.06
								c-1.87-9.12,6.48-14.45,13.3-17.44C243.82,264.32,244.06,264.71,244.37,265.18z M245.91,226.76
								c-0.82,2.16-1.62,4.24-2.17,5.91c-0.62,0.77-1.3,1.49-2.01,2.18c0.48-2.61,0.6-5.29,0.53-7.73c0-0.03-0.01-0.05-0.02-0.08
								c1.79-0.75,3.4-1.83,4.78-3.23C246.65,224.8,246.28,225.79,245.91,226.76z M247.3,222.58c-1.75,2.06-4,3.54-6.55,4.34
								c0.99-2.39,1.66-4.75,1.95-7.26c1.8-0.7,3.49-1.69,5.02-2.97C247.71,218.95,247.53,221.17,247.3,222.58z M248.53,219.69
								c-0.01,0.02-0.17,0.57-0.46,1.38c0.62-5.62-0.16-11.51-2.63-16.4c2.27-1.78,4.27-3.86,5.77-5.61
								c0.12-0.14,0.22-0.28,0.34-0.41C250.92,204.95,249.76,216,248.53,219.69z M263.86,249.92c-0.38-10.38-2.19-19.94-5.24-24.78
								c-2.56-4.06-6.09-12.03-7.26-15.35c0-0.01,0-0.03-0.01-0.07c0.61-4.64,1.14-9.62,1.43-12.63c0.06-0.07,0.11-0.15,0.17-0.22
								c0.71,11.43,4.02,22.57,8.14,33.31c1.92,5.02,2.95,8.63,5.76,13.31c2.72,4.51,6.24,8.23,9.25,11.13
								c-1.4,2.37-2.41,4.28-3.29,6.78c-1.75-2.01-4.17-4.35-6.27-5.92C266.21,255.16,263.97,252.91,263.86,249.92z M272.63,290.28
								c-0.29-0.78-0.59-1.58-0.9-2.37c-2.9-7.69-5.91-15.64-6.1-20.12c-0.29-6.87,0.6-10.36,0.92-11.38
								c2.14,1.6,4.27,3.62,6.01,5.66c-0.28,0.86-0.55,1.8-0.82,2.85c-2.15,8.56-0.69,17.4,0.9,25.41
								C272.64,290.32,272.64,290.3,272.63,290.28z M274.46,295.26c-2.91-11.86-5.3-25.77,0.38-36.95
								c4.23-8.32,10.99-15.9,10.73-25.49c1.68,2.55,6.44,10.36,6.44,17.35v8.03c-1.06,10.78-6.69,19.89-10.3,29.92
								c-2.14,5.95-3.57,11.99-4.3,18.16c-0.04-0.32-0.06-0.64-0.12-0.98C276.55,301,275.44,297.81,274.46,295.26z M278.46,350.79
								c-0.5-1.46-0.76-3.34,0.3-4.96c1.59-2.42,3.87-6.58,5.14-8.96c0.03,1.14,0.09,2.45,0.16,3.63c-0.94,1.78-3.08,5.77-4.81,8.41
								C278.85,349.52,278.6,350.16,278.46,350.79z M280.69,356.31c-0.73-1.27-2.16-4.35-0.54-6.82c1.35-2.06,2.96-4.94,4.05-6.97
								c0.06,0.76,0.11,1.33,0.14,1.55c-0.26,0.92-1.92,6.86-2.25,10.64L280.69,356.31z M293.82,288.21
								c-0.89,7.31-3.86,15.59-3.51,25.41c0.54,15.37,0.22,29.25-0.25,31.46c-0.46,2.14-4.21,12.14-5.12,14.54
								c-0.66-0.37-1.83-1.36-1.83-3.74c0-3.62,2.27-11.53,2.29-11.61l0.03-0.11l-0.02-0.12c-0.01-0.07-1.05-7.02-0.36-9.93
								l0.03-0.14l-0.04-0.13c-0.54-1.86,0.3-6.25-2.27-7.21c-0.43-0.16-0.85-0.12-1.23,0.12c-1.56,1-1.86,3.22-2.18,5.55
								c-0.25,1.84-0.51,3.75-1.38,5.12c-1.3,2.05-2.24,2.51-2.7,2.51c-1.85-0.01-0.23-5.65-0.23-10.79c0-1.99,0.61-4.13,1.59-8.28
								c0.35-1.5,0.68-2.66,0.92-3.93c7.1-8.92,13.33-18.51,16.34-29.4C293.87,287.76,293.85,287.98,293.82,288.21z M295.03,276.15
								c-0.1,1.64-0.37,3.45-0.52,5.03c-1.92,13.16-8.65,24.18-16.76,34.49c0.17-1.51,0.2-3.34-0.01-6.07
								c0.8-9.69,3.35-18.93,7.34-27.98c3.13-7.08,6.31-14.1,7.38-21.78C293.36,261.6,295.59,266.95,295.03,276.15z"/>
							<path d="M203.83,255.61c-3.86,1.17-7.69,2.39-11.53,3.63c-4.78,1.54-5.78-2.17-5.82-5.04c-0.04-2.74,1.46-5.27,3.22-7.31
								c2.95-3.42,8.02-4.48,12.4-4.75C207.28,241.84,208.84,253.92,203.83,255.61 M206.47,243.54c-2.81-4.66-11.88-0.96-15.3,1.24
								c-3.8,2.45-7.02,8.64-4.72,12.93c1.07,1.99,2.37,2.64,4.68,2.46c1.67-0.13,3.38-0.99,4.94-1.52
								c2.61-0.88,5.29-1.61,7.93-2.41c1.47-0.5,3.33-1.22,3.46-2.98C207.67,250.73,207.84,245.81,206.47,243.54"/>
							<path d="M212.14,255.68c-5.02-1.69-3.45-13.78,1.72-13.47c4.38,0.26,9.45,1.33,12.4,4.75c1.76,2.04,3.26,4.57,3.22,7.31
								c-0.04,2.87-1.03,6.57-5.82,5.04C219.84,258.07,216,256.85,212.14,255.68 M209.5,243.6c-1.37,2.28-1.19,7.2-1,9.71
								c0.14,1.76,1.99,2.49,3.46,2.98c2.64,0.8,5.32,1.53,7.93,2.41c1.56,0.52,3.27,1.39,4.94,1.52c2.31,0.18,3.61-0.46,4.68-2.46
								c2.3-4.29-0.92-10.47-4.72-12.93C221.38,242.64,212.31,238.94,209.5,243.6"/>
						</g>
					</g>
					<path d="M205.28,289.13c-0.12,4.1-0.24,8.19-0.36,12.29c-0.2,6.61-7.83-0.14-9.51-2.06c-4.73-6.98-6-16.16-7.57-24.29
						c-1.29-6.69,0.89-12.11,7.73-14.19c4.81-1.46,9.98-1.59,10.35,4.68C206.39,273.33,205.51,281.36,205.28,289.13 M205.78,260.88
						c-4.38-4.94-15.17,0.34-17.72,4.52c-2.76,4.53-0.58,11.38,0.39,15.91c1.36,6.37,2.71,12.95,6.42,18.41l0.03,0.03l0.02,0.04
						c2.33,2.69,5.68,4.97,9.26,5.57c2.4,0.41,1.48-7.16,1.5-8.03c0.22-7.51,0.9-15.02,1.07-22.53
						C206.8,273,208.28,263.7,205.78,260.88z"/>
					<path d="M210.05,265.57c0.37-6.27,5.54-6.13,10.35-4.68c6.85,2.07,9.03,7.5,7.73,14.19c-1.57,8.13-2.84,17.3-7.57,24.29
						c-1.68,1.91-9.32,8.67-9.51,2.06c-0.12-4.1-0.24-8.19-0.37-12.29C210.46,281.36,209.58,273.33,210.05,265.57 M210.29,297.32
						c0.03,0.87-0.9,8.44,1.5,8.03c3.57-0.6,6.92-2.88,9.26-5.57l0.02-0.04l0.03-0.03c3.71-5.46,5.07-12.04,6.42-18.41
						c0.97-4.54,2.54-11.06,0.39-15.91c-1.85-4.17-12.78-9.43-17.58-4.46c-2.72,2.82-1.22,10.4-1.12,13.86"/>
				</g>
			</g>
		</g>
	</g>
</g>
</svg>
