<?xml version="1.0" encoding="utf-8"?>
<!-- Generator: Adobe Illustrator 26.0.1, SVG Export Plug-In . SVG Version: 6.00 Build 0)  -->
<svg version="1.1" id="Layer_1" xmlns="http://www.w3.org/2000/svg" xmlns:xlink="http://www.w3.org/1999/xlink" x="0px" y="0px"
	 viewBox="0 0 432 648" style="enable-background:new 0 0 432 648;" xml:space="preserve">
<style type="text/css">
	.st0{display:none;opacity:0.5;fill:none;stroke:#231F20;stroke-width:0.05;stroke-miterlimit:10;}
	.st1{fill:#FFFFFF;}
	.st2{fill:#E92A2A;}
	.st3{fill:#D52626;}
	.st4{fill:#A89FA8;}
	.st5{fill:#998F99;}
	.st6{fill:#E9E7E9;}
	.st7{display:none;fill:#E9E7E9;}
</style>
<path class="st0" d="M418.44,444.92c-2.94,1.51-8.31,5.17-9.04,17.27"/>
<g>
	<g>
		<g id="Front_00000100374544795799336940000013424984263302938500_">
			<g>
				<g>
					<g>
						<g>
							<path class="st1" d="M298.08,259.36v-8.6c0-6.22-3.44-12.84-5.59-16.37c2.12-7.1,2.15-24.11,0.99-31.99
								c-0.7-4.8-4.04-8.7-5.69-11.21c0.03-0.19,0.07-0.39,0.1-0.58c0.91-5.8-3.03-20.02-5.39-26.02c-1.57-3.98-4.84-5.49-7.47-6.7
								c-1.42-0.66-2.65-1.22-3.34-2.03c-1.77-2.07-3.54-2.64-5.1-3.14c-0.41-0.13-0.81-0.26-1.19-0.41
								c-0.6-0.24-1.13-0.72-1.93-1.45c-1.36-1.24-3.42-3.11-7.83-5.67c-2.42-1.4-5.83-3.03-9.43-4.76
								c-5.91-2.83-12.8-6.09-14.45-8.12c-1.5-1.85-1.66-7.7-1.67-9.63c0.71-1.81,0.79-4.67,0.77-6.33c0.3,0.14,0.66,0.22,1.09,0.16
								c1.47-0.18,2.85-2.47,4.5-5.45c0.46-0.84,0.9-1.62,1.24-2.1c1.43-2.04,1.12-6.46,0.07-9.76c-0.3-0.97-0.82-1.52-1.54-1.65
								c-0.98-0.18-2.06,0.57-2.83,1.28c0.15-4.12,0.09-15.72-4.67-21.43c-4.1-4.92-12.3-6.14-15.4-6.43l-1.22,0
								c-3.11,0.29-11.31,1.52-15.4,6.43c-4.76,5.71-4.81,17.31-4.67,21.43c-0.77-0.71-1.85-1.45-2.83-1.28
								c-0.72,0.13-1.24,0.69-1.54,1.65c-1.05,3.31-1.36,7.72,0.07,9.76c0.33,0.48,0.77,1.27,1.24,2.1c1.65,2.98,3.03,5.27,4.5,5.45
								c0.43,0.05,0.8-0.02,1.09-0.16c-0.03,1.83,0.07,5.12,1,6.85c0,0,0,0.01,0.01,0.01c-0.04,1.36-0.33,7.18-1.91,9.14
								c-1.64,2.03-8.34,5.23-14.24,8.06c-3.61,1.73-7.01,3.36-9.43,4.76c-4.41,2.56-6.47,4.43-7.83,5.67
								c-0.8,0.73-1.33,1.21-1.93,1.45c-0.38,0.15-0.78,0.28-1.19,0.41c-1.56,0.5-3.32,1.07-5.1,3.14
								c-0.69,0.81-1.92,1.37-3.34,2.03c-2.63,1.21-5.9,2.72-7.47,6.7c-2.36,6-6.3,20.22-5.39,26.02c0.06,0.42,0.13,0.82,0.21,1.22
								c-1.67,2.49-4.67,6.11-5.35,10.78c-1.15,7.84-1.28,24.2,0.8,31.36c-2.11,3.39-5.85,10.31-5.85,16.79v8.6
								c-0.6,0.97-3.7,6.58-3.04,17.53c0.25,4.2,0.72,8.07,1.22,12.16c0.89,7.3,3.86,15.56,3.52,25.33
								c-0.53,14.89-0.31,29.09,0.28,31.83c0.54,2.51,5.19,14.75,5.38,15.27l0.17,0.45l0.47-0.12c0.03-0.01,2.81-0.8,3.06-4.48
								l1.49,1.69l0.39-0.55c0.09-0.12,1.4-1.98,1.77-4.28c0.83-1.4,2.55-4.99,0.55-8.03c-2.27-3.46-6.02-10.62-6.06-10.69l0,0
								c-0.01-0.24-0.03-0.45-0.06-0.59c0.56-4.25,0-5.8,1.58-6.4c0.13-0.05,0.2-0.03,0.28,0.02c1.15,0.74,1.42,2.72,1.7,4.82
								c0.27,1.96,0.54,3.99,1.54,5.57c1.17,1.85,2.98,4.25,5.08,2.5c1.39-1.15,0.17-9.07-0.16-11.41c-0.42-2.93-0.42-3.75-1.58-8.4
								c-0.74-2.96-1.18-4.49-1.37-5.86c-0.1-1.13,0.19-5.82,0.62-9.25c0.49-3.94,2.93-10.38,5.5-17.21
								c2.95-7.79,5.99-15.85,6.19-20.53c0.3-7.25-0.65-10.84-1-11.88c0.61-0.74,2.32-3,2.78-5.93c0.54-3.41,0.37-9.32,0.36-9.47
								c0.02-0.1,1.8-10.32,4.75-15c2.24-3.55,5.54-10.52,6.94-14.16c0.51,3.6,1.08,6.82,1.66,8.55c0.73,2.19,1.65,4.61,2.55,6.96
								c1.28,3.35,2.48,6.51,2.79,8.16c0.44,2.34,0.13,19.55,0.03,25.21c-0.02,1.21-0.04,2.01-0.04,2.21c0,0.01,0,0.01-0.01,0.02
								c-0.11,0.11-0.19,0.3-0.22,0.5c-0.23,0.41-0.58,0.97-0.91,1.5c-1.78,2.81-4.76,7.5-4.19,12.13c0.64,5.16,1.42,7.32,1.71,7.97
								c-0.59,1.86-4.91,15.99-4.24,26.18c0.23,3.55-1.17,9.1-2.93,16.12c-2.28,9.05-6.59,29.89-7.55,42.89
								c-1.42,19.23,4.1,41.24,5.62,53.13c0.33,2.55,0.54,4.23,0.57,4.74c0.07,1.26-0.04,2.12-0.18,3.13
								c-0.18,1.36-0.39,2.91-0.18,5.82c0.02,0.29,0.07,0.61,0.14,0.96c-0.74,1.67-7.29,16.71-7.46,26.52
								c-0.08,4.79,1.45,15.43,3.08,26.7c1.47,10.2,2.87,20.74,3.32,27.25l0.01,0.17c0.04,0.55,0.07,1.06,0.09,1.55
								c0.07,3.49-0.27,10.44-0.49,11.12c-0.52,1.59-1.01,3.11-0.97,5.46c-0.14,0.14-0.28,0.27-0.43,0.39
								c-1.93,1.65-2.71,3.87-3.46,6.01c-0.25,0.7-0.48,1.37-0.75,2c-1.04,2.43-10.26,10.04-11.53,10.83
								c-0.99,0.62-3.51,4.31-3.51,4.31c-0.94,1.01-0.65,2.67-0.46,3.77c0.03,0.2,0.07,0.38,0.09,0.54c0.08,0.59,0.26,0.99,0.4,1.31
								c0.13,0.28,0.22,0.49,0.22,0.74c0.01,0.35-0.05,0.75-0.1,1.15c-0.05,0.36-0.1,0.72-0.11,1.06c-0.01,0.61,0.02,2.09,0.62,2.58
								c0.34,0.28,0.66,0.48,1.14,0.57c-0.05,0.15-0.12,0.35-0.2,0.6c-0.37,1.09,0.45,2.2,1.05,2.65c0.43,0.32,1.12,0.35,1.59,0.32
								c0,0.09,0.02,0.15,0.03,0.2c0.07,0.77,0.33,1.83,1.32,2.3c1,0.47,1.51,0.36,2.1,0.08c1.15,1.58,3.48,2.55,5.58,2.35
								c0.27-0.03,0.54-0.07,0.8-0.14c2.16-0.55,4.87-2.42,5.88-4.91c0.81-2,1.98-2.66,3.03-3.12c4.31-1.36,6.66-6.16,7.29-10.62
								c0.55-3.93,3.08-8.22,3.73-9.1c3.01-1.26,4.79-2.86,6.33-5.12c1.62-2.38,1.68-3.89,1.23-5.86
								c-0.43-1.87-1.6-10.69-2.01-12.06c-0.36-1.2-0.52-2.42-0.8-3.92c-0.87-4.65,4.9-28.65,6.59-33.32
								c0.65-1.79,1.58-3.74,2.66-6.01c1.83-3.84,4.11-8.61,5.93-14.66c2.75-9.15-1.59-29.38-2.12-31.77
								c1.6-2.8,3.02-5.71,4.25-8.67c0.99-2.37,1.91-4.83,2.38-7.37c0.69-3.74,1.28-10.83,1.97-19.03
								c0.61-7.25,1.3-15.46,2.14-22.01c1.04-8.09,3.18-17.23,4.9-24.57c1.18-5.02,2.19-9.36,2.53-11.98
								c0.62-4.89,0.01-9.76-0.34-11.89c0.38,0.04,1.49,0.05,1.76,0c-0.35,2.13-0.96,7-0.34,11.9c0.33,2.62,1.35,6.95,2.53,11.98
								c1.72,7.34,3.86,16.48,4.9,24.57c0.84,6.56,1.53,14.77,2.14,22.01c0.69,8.2,1.29,15.28,1.97,19.03
								c0.47,2.54,1.39,5,2.38,7.37c1.23,2.96,2.65,5.87,4.25,8.67c-0.53,2.39-4.88,22.63-2.12,31.77
								c1.82,6.04,4.1,10.82,5.93,14.66c1.08,2.27,2.01,4.22,2.66,6.01c1.69,4.67,7.47,28.67,6.59,33.32
								c-0.28,1.49-0.44,2.72-0.8,3.92c-0.41,1.37-1.58,10.18-2.01,12.06c-0.45,1.97-0.39,3.48,1.23,5.86
								c1.54,2.26,3.33,3.86,6.33,5.12c0.66,0.88,3.18,5.17,3.73,9.1c0.63,4.46,2.98,9.26,7.29,10.62c1.04,0.46,2.22,1.11,3.03,3.12
								c1,2.5,3.72,4.36,5.88,4.91c0.26,0.07,0.53,0.11,0.8,0.14c2.1,0.2,4.43-0.77,5.58-2.35c0.59,0.28,1.1,0.4,2.1-0.08
								c1.08-0.51,1.29-1.73,1.34-2.5c0.47,0.03,1.17,0,1.6-0.32c0.6-0.45,1.42-1.56,1.05-2.65c-0.08-0.23-0.14-0.41-0.19-0.56l0,0
								c0-0.01-0.01-0.02-0.01-0.04c0.47-0.09,0.79-0.28,1.13-0.57c0.59-0.49,0.63-1.97,0.62-2.58c-0.01-0.34-0.06-0.71-0.11-1.06
								c-0.05-0.39-0.11-0.8-0.1-1.15c0-0.26,0.1-0.46,0.22-0.74c0.14-0.32,0.32-0.73,0.4-1.31c0.02-0.16,0.05-0.34,0.09-0.54
								c0.19-1.1,0.48-2.76-0.46-3.77c0,0-2.51-3.69-3.51-4.31c-1.27-0.8-10.49-8.4-11.53-10.83c-0.27-0.63-0.5-1.3-0.75-2
								c-0.76-2.15-1.54-4.37-3.46-6.01c-0.14-0.12-0.28-0.25-0.43-0.39c0.04-2.35-0.45-3.86-0.97-5.46
								c-0.22-0.68-0.56-7.63-0.49-11.12c0.02-0.48,0.05-1,0.09-1.55c0.01-0.06,0.02-0.12,0.03-0.17l-0.02,0
								c0.45-6.51,1.85-17.05,3.32-27.25c1.63-11.26,3.16-21.9,3.08-26.7c-0.17-9.75-6.63-24.65-7.45-26.48
								c0.09-0.41,0.15-0.8,0.17-1.14c0.21-2.91,0-4.45-0.18-5.82c-0.13-1-0.25-1.87-0.18-3.13c0.03-0.51,0.25-2.19,0.57-4.74
								c1.52-11.89,7.04-33.9,5.62-53.13c-0.96-13-5.27-33.84-7.55-42.89c-1.77-7.02-3.17-12.57-2.93-16.12
								c0.66-10.19-3.65-24.32-4.24-26.18c0.28-0.65,1.07-2.81,1.71-7.97c0.57-4.63-2.41-9.33-4.19-12.13
								c-0.52-0.82-1.12-1.76-1.14-2.02c0-0.2-0.01-1-0.04-2.21c-0.1-5.66-0.41-22.87,0.03-25.21c0.31-1.65,1.52-4.81,2.79-8.16
								c0.9-2.35,1.82-4.77,2.55-6.96c0.56-1.67,1.08-4.77,1.58-8.23c0-0.01,0-0.01,0-0.02c1.43,3.56,4.64,10.09,6.71,13.76
								c3.65,6.47,4.91,17.02,5.11,24.46c0.08,2.96,2.17,5.19,2.78,5.93c-0.34,1.04-1.3,4.64-1,11.88
								c0.19,4.68,3.24,12.73,6.19,20.53c2.58,6.82,5.01,13.27,5.5,17.21c0.35,2.84,0.7,4.68,0.73,6.08
								c0.02,1.34,0.01,2.69-0.12,4.04c-0.12,1.25-0.64,2.72-1.27,5.24c-1.16,4.64-1.16,5.47-1.58,8.4
								c-0.34,2.34-1.55,10.26-0.16,11.41c2.11,1.75,3.91-0.65,5.08-2.5c1-1.58,1.27-3.61,1.54-5.57c0.28-2.1,0.55-4.08,1.7-4.82
								c0.08-0.05,0.15-0.07,0.28-0.02c1.59,0.6,1.03,2.14,1.58,6.4c-0.03,0.15-0.05,0.35-0.06,0.59l0,0
								c-0.04,0.07-3.79,7.23-6.06,10.69c-2,3.04-0.28,6.64,0.55,8.03c0.37,2.3,1.68,4.16,1.77,4.28l0.39,0.55l1.49-1.69
								c0.24,3.68,3.03,4.47,3.06,4.48l0.47,0.12l0.17-0.45c0.2-0.52,4.85-12.76,5.38-15.27c0.59-2.74,0.8-16.95,0.28-31.83
								c-0.34-9.77,2.63-18.03,3.52-25.33c0.5-4.1,0.97-7.96,1.22-12.16C301.78,265.94,298.68,260.32,298.08,259.36z"/>
						</g>
					</g>
				</g>
			</g>
		</g>
	</g>
	<g>
		<g id="Soleus_00000125583242798939235050000004133527487172104895_">
			<path class="st2" d="M242.51,508.39c1.75,7.88,3.23,15.2,2.72,17.89c-0.07,0.39,0.06,1.95-0.23,2.19
				c4.81-4.02,4.83-12.04,4.85-18.03c0.01-0.88,0.01-1.73,0.02-2.55c0.1-5.39,0.27-17.71-0.48-22.91
				c-3.77,9.01-4.82,8.76-9.21,12.22l2.26,9.96L242.51,508.39z"/>
			<path class="st2" d="M183.22,508.46c-1.75,7.88-3.23,15.2-2.72,17.89c0.07,0.39-0.06,1.95,0.23,2.19
				c-4.81-4.02-4.83-12.04-4.85-18.03c-0.01-0.88-0.01-1.73-0.02-2.55c-0.1-5.39-0.27-17.71,0.48-22.91
				c3.77,9.01,4.82,8.76,9.21,12.22l-2.26,9.96L183.22,508.46z"/>
			<path class="st3" d="M183.4,507.13c-6.73-5-6.97-15.12-6.69-23.19c0.01-0.41-0.63-0.41-0.64,0c-0.29,8.39,0.11,18.79,7.18,23.86
				C183.29,507.58,183.35,507.35,183.4,507.13L183.4,507.13z"/>
			<path class="st3" d="M242.45,507.13c6.73-5,6.97-15.12,6.69-23.19c-0.01-0.41,0.63-0.41,0.64,0c0.29,8.39-0.11,18.79-7.18,23.86
				C242.57,507.58,242.5,507.35,242.45,507.13L242.45,507.13z"/>
		</g>
		<g id="Front_00000003798384639304095550000002954266166031890329_">
			<path class="st4" d="M212.69,139.54c-0.89-0.07-1.77-0.26-2.59-0.56c-0.17-1.54-0.35-3.12-0.54-4.73c0.44,0.1,0.9,0.18,1.36,0.24
				c0.36,0.05,0.72,0.08,1.06,0.11h1.43c0.33-0.03,0.69-0.06,1.04-0.11c0.45-0.06,0.9-0.13,1.33-0.23
				c-0.19,1.61-0.37,3.19-0.55,4.73C214.41,139.29,213.55,139.47,212.69,139.54 M215.92,138.72c0.17-1.55,0.35-3.09,0.53-4.64
				c0.08-0.02,0.15-0.05,0.22-0.08c0.51-0.18,1.46-0.77,2.64-1.58c-0.13,1.61-0.38,3.19-0.7,4.75
				C217.76,137.77,216.86,138.3,215.92,138.72 M209.4,138.69c-0.95-0.42-1.85-0.96-2.7-1.57c-0.32-1.56-0.57-3.14-0.69-4.75
				c1.2,0.84,2.18,1.43,2.69,1.62c0.06,0.02,0.11,0.04,0.17,0.06C209.05,135.6,209.22,137.15,209.4,138.69 M219.42,136.57
				c0.28-1.53,0.49-3.08,0.59-4.65c1.5-1.07,3.25-2.43,4.87-3.78c-0.5,1.7-1,3.27-1.49,4.73c-0.49,0.55-1.01,1.08-1.55,1.59
				C221.08,135.19,220.28,135.91,219.42,136.57 M205.89,136.52c-0.83-0.65-1.62-1.35-2.36-2.05c-0.54-0.51-1.05-1.04-1.55-1.59
				c-0.49-1.46-0.99-3.04-1.49-4.73c1.59,1.33,3.32,2.67,4.81,3.74C205.4,133.45,205.61,135,205.89,136.52"/>
			<path class="st5" d="M206.7,137.13c-0.27-0.19-0.54-0.4-0.81-0.6c-0.28-1.53-0.49-3.07-0.58-4.64c0.24,0.17,0.47,0.33,0.69,0.49
				C206.12,133.98,206.37,135.56,206.7,137.13"/>
			<path class="st5" d="M210.09,138.98c-0.12-0.04-0.23-0.09-0.35-0.13s-0.23-0.1-0.35-0.15c-0.17-1.54-0.35-3.09-0.53-4.64
				c0.22,0.07,0.45,0.13,0.68,0.19C209.74,135.86,209.92,137.43,210.09,138.98"/>
			<path class="st5" d="M218.61,137.17c0.32-1.56,0.57-3.15,0.7-4.75c0.22-0.16,0.46-0.32,0.69-0.49c-0.09,1.57-0.3,3.12-0.59,4.65
				C219.16,136.78,218.89,136.98,218.61,137.17"/>
			<path class="st5" d="M215.22,139c0.17-1.54,0.36-3.12,0.55-4.73c0.24-0.05,0.47-0.11,0.68-0.18c-0.18,1.55-0.36,3.1-0.53,4.64
				c-0.1,0.04-0.19,0.08-0.29,0.12C215.5,138.9,215.36,138.95,215.22,139"/>
			<path class="st6" d="M210.95,169.98c-0.11-0.21-0.23-0.42-0.36-0.61c-0.06-0.09-0.12-0.18-0.18-0.27
				c0.51-7.88-0.1-15.18-1.81-21.71c-0.25-0.96-0.51-1.92-0.78-2.88c-0.71-2.6-1.44-5.26-1.94-7.98c0.26,0.21,0.53,0.41,0.81,0.6
				c0.44,2.13,1,4.21,1.56,6.26c0.69,2.55,1.41,5.19,1.87,7.86c1.06,6.21,1.36,12.28,0.91,18.53
				C211.02,169.86,211,169.92,210.95,169.98"/>
			<path class="st7" d="M212.09,174.28c-0.08-0.81-0.2-1.59-0.4-2.33c0.51-5.37-0.03-10.84-0.55-16.15
				c-0.09-0.87-0.17-1.75-0.25-2.62c-0.44-4.75-0.94-9.6-1.49-14.49c0.11,0.05,0.23,0.1,0.35,0.15s0.23,0.09,0.35,0.13
				c0.66,5.83,1.2,11.17,1.64,16.22c0.06,0.7,0.12,1.39,0.19,2.09C212.43,162.86,212.95,168.61,212.09,174.28"/>
			<path class="st6" d="M215.01,169.23c-0.51-7.91-0.01-15.3,1.7-21.85c0.25-0.96,0.51-1.92,0.78-2.88
				c0.71-2.59,1.43-5.23,1.93-7.93c-0.26,0.2-0.53,0.4-0.81,0.6c-0.43,2.11-1,4.18-1.55,6.22c-0.69,2.55-1.41,5.19-1.87,7.86
				c-1.06,6.21-1.22,12.85-0.77,19.11L215.01,169.23z"/>
			<path class="st6" d="M213.39,173.92c-0.91-5.74-0.5-10.99,0.02-16.64c0.06-0.69,0.13-1.39,0.19-2.08
				c0.44-5.05,0.98-10.39,1.63-16.2c0.14-0.05,0.27-0.1,0.41-0.16c0.1-0.04,0.19-0.08,0.29-0.12c-0.55,4.88-1.04,9.72-1.49,14.46
				c-0.08,0.87-0.17,1.74-0.25,2.61c-0.53,5.36-0.98,11.16-0.45,16.58c-0.19,0.76-0.02,0.61-0.09,1.44L213.39,173.92z"/>
			<g>
				<path class="st4" d="M244.08,447.43c0.45,0,0.9-0.03,1.35-0.11c2.29-0.38,4-1.69,5.47-3.29c-0.01,0-0.02,0-0.02,0l-0.21,0.01
					c-3.07,0-13.49-8.49-15.82-11.09c0,0,13.57,10.02,15.78,10.02c0.03,0,0.06,0,0.09-0.01c1.84-0.28,7.12-8.94,7.23-9.12h0
					c0,0-0.09,0.14-0.24,0.38c-1.75,1.91-4.25,3.21-6.84,3.21c-0.14,0-0.27,0-0.41-0.01c-2.85-0.15-5.62-2.1-6.32-4.83
					c-0.52-2.04,0.11-4.23,1.23-6.01c1.13-1.78,2.72-3.23,4.28-4.65c-3.26,1.09-4.79,1.78-6.53,2.98c-1.27,0.87-5.27,2.75-8.21,2.75
					c-1.1,0-2.06-0.27-2.66-0.95c-0.6-0.69-1.21-1.37-1.69-2.15c-0.27-0.43-0.53-0.87-0.79-1.3c-0.41-0.02-0.81-0.07-1.21-0.15
					c-1.04-0.19-2.04-0.57-3-1.17c0.13,0.96,0.25,1.8,0.38,2.51c0.82,4.49,2.89,8.85,4.97,12.87c0.34,0.65,0.67,1.33,1.02,2.02
					c0.93,1.82,1.93,3.68,3.22,5.17l0.1,0.11c0.8,0.35,1.59,0.68,2.32,1.01C239.63,446.58,241.85,447.43,244.08,447.43"/>
				<path class="st4" d="M181.52,447.43c-0.45,0-0.9-0.03-1.35-0.11c-2.29-0.38-4-1.69-5.47-3.29c0.01,0,0.02,0,0.02,0l0.21,0.01
					c3.07,0,13.49-8.49,15.82-11.09c0,0-13.57,10.02-15.78,10.02c-0.03,0-0.06,0-0.09-0.01c-1.84-0.28-7.12-8.94-7.23-9.12h0
					c0,0,0.09,0.14,0.24,0.38c1.75,1.91,4.25,3.21,6.84,3.21c0.14,0,0.27,0,0.41-0.01c2.85-0.15,5.62-2.1,6.32-4.83
					c0.52-2.04-0.11-4.23-1.23-6.01c-1.13-1.78-2.72-3.23-4.28-4.65c3.26,1.09,4.79,1.78,6.53,2.98c1.27,0.87,5.27,2.75,8.21,2.75
					c1.1,0,2.06-0.27,2.66-0.95c0.6-0.69,1.21-1.37,1.69-2.15c0.27-0.43,0.53-0.87,0.79-1.3c0.41-0.02,0.81-0.07,1.21-0.15
					c1.04-0.19,2.04-0.57,3-1.17c-0.13,0.96-0.25,1.8-0.38,2.51c-0.82,4.49-2.89,8.85-4.97,12.87c-0.34,0.65-0.67,1.33-1.02,2.02
					c-0.93,1.82-1.93,3.68-3.22,5.17l-0.1,0.11c-0.8,0.35-1.59,0.68-2.32,1.01C185.97,446.58,183.75,447.43,181.52,447.43"/>
				<g>
					<g>
						<path d="M206.4,239.74c-3.33,0.51-6.36,1.67-9.52,2.75c-8.48,2.92-5.47-8-3.14-11.75c2.69-4.33,8.14-6.81,13.06-7.72
							c5.88-1.08,4.54,5.86,4.45,8.49C211.13,235.04,211.43,239.09,206.4,239.74 M211.89,231.56c0.07-1.94,0.19-3.86,0.04-5.79
							c-0.52-6.77-11-1.77-13.78-0.09c-5.37,3.24-8.24,9.55-7.49,15.62c0.15,1.23,1.13,2.87,2.65,2.7
							c4.55-0.51,8.66-2.93,13.21-3.63c2.38-0.31,3.84-0.73,4.92-2.85C212.24,235.95,211.84,233.24,211.89,231.56"/>
						<path d="M218.8,239.74c-5.1-0.66-4.8-4.7-4.93-8.24c-0.1-2.62-1.47-9.57,4.49-8.47c4.99,0.92,10.51,3.42,13.25,7.75
							c2.37,3.75,5.44,14.68-3.16,11.74C225.25,241.42,222.17,240.26,218.8,239.74 M213.22,231.55c0.06,1.68-0.34,4.39,0.47,5.96
							c1.1,2.11,2.58,2.54,4.99,2.86c4.61,0.71,8.78,3.14,13.39,3.66c1.54,0.17,2.53-1.46,2.68-2.69
							c0.74-6.07-2.18-12.38-7.63-15.63c-2.82-1.69-13.45-6.7-13.96,0.06C213.02,227.69,213.15,229.61,213.22,231.55"/>
						<path d="M204.75,220.07c-2.8,1.67-12.77,8.17-13.51,1.48c-0.64-5.78,1.07-9.87,6.4-12.48c3.25-1.59,8.44-4.64,12.03-4.03
							c2.47,1.45,1.47,6.21,1.07,8.37C210.13,216.72,207.44,218.47,204.75,220.07 M210.09,204.46c-0.77-0.32-1.75-0.2-2.53-0.08
							c-1.33,0.2-2.59,0.71-3.8,1.26c-0.32,0.15-0.64,0.29-0.96,0.44c-2.78,1.3-6.2,2.22-8.61,4.2c-2.46,2.02-3.43,4.26-3.74,7.4
							c-0.16,1.6-0.51,6.8,1.01,8.08c1.79,1.51,3.93-0.22,5.72-1.07c3.69-1.75,8.59-3.47,11.53-6.4c2.31-2.29,3.65-6.24,3.55-9.45
							c-0.05-1.45-0.54-3.4-1.85-4.23L210.09,204.46"/>
						<path d="M220.06,220.1c-2.69-1.6-5.37-3.35-5.99-6.66c-0.41-2.16-1.4-6.92,1.07-8.37c3.59-0.61,8.78,2.44,12.03,4.03
							c5.34,2.61,7.04,6.7,6.4,12.48C232.83,228.27,222.86,221.76,220.06,220.1 M214.73,204.49l-0.31,0.16
							c-1.31,0.83-1.8,2.78-1.85,4.23c-0.1,3.21,1.23,7.15,3.55,9.45c2.94,2.92,7.84,4.65,11.53,6.4c1.79,0.85,3.93,2.58,5.72,1.07
							c1.51-1.28,1.16-6.48,1.01-8.08c-0.31-3.14-1.28-5.37-3.74-7.4c-2.41-1.98-5.83-2.9-8.61-4.2c-0.32-0.15-0.64-0.3-0.96-0.44
							c-1.22-0.55-2.47-1.06-3.8-1.26C216.48,204.29,215.5,204.17,214.73,204.49"/>
						<g>
							<path d="M174.85,444.05l-0.21-0.01c-0.01,0-0.02,0-0.02,0c0,0-0.01-0.01-0.01-0.01c-2.67-0.47-7.57-8.97-7.57-10.17h0.53
								c0.11,0.18,5.39,8.83,7.23,9.12c0.03,0,0.05,0.01,0.09,0.01c2.21,0,15.78-10.02,15.78-10.02
								C188.34,435.56,177.92,444.05,174.85,444.05"/>
							<path d="M250.59,444.05l0.21-0.01c0.01,0,0.02,0,0.02,0c0,0,0.01-0.01,0.01-0.01c2.67-0.47,7.57-8.97,7.57-10.17h-0.53
								c-0.11,0.18-5.39,8.83-7.23,9.12c-0.03,0-0.05,0.01-0.09,0.01c-2.21,0-15.78-10.02-15.78-10.02
								C237.09,435.56,247.52,444.05,250.59,444.05"/>
							<path d="M298.08,259.36v-8.6c0-6.22-3.45-12.84-5.59-16.37c2.12-7.1,2.15-24.11,0.99-31.99c-0.7-4.8-4.04-8.7-5.69-11.21
								c0.03-0.19,0.07-0.39,0.1-0.58c0.91-5.8-3.03-20.02-5.39-26.02c-1.57-3.98-4.84-5.49-7.47-6.7
								c-1.42-0.66-2.65-1.22-3.34-2.03c-1.77-2.07-3.54-2.64-5.1-3.14c-0.41-0.13-0.81-0.26-1.19-0.41
								c-0.6-0.24-1.13-0.72-1.93-1.45c-1.36-1.24-3.42-3.11-7.83-5.67c-2.42-1.4-5.83-3.03-9.43-4.76
								c-5.91-2.83-12.8-6.09-14.45-8.12c-1.5-1.85-1.66-7.7-1.67-9.63c0.71-1.81,0.79-4.67,0.76-6.33c0.3,0.14,0.66,0.22,1.09,0.16
								c1.47-0.18,2.85-2.47,4.5-5.45c0.46-0.83,0.9-1.62,1.24-2.1c1.43-2.04,1.12-6.46,0.07-9.76c-0.3-0.97-0.82-1.52-1.54-1.65
								c-0.98-0.18-2.06,0.57-2.83,1.28c0.15-4.12,0.09-15.72-4.67-21.43c-4.1-4.92-12.3-6.14-15.4-6.43l-1.22,0
								c-3.11,0.29-11.31,1.52-15.4,6.43c-4.76,5.71-4.81,17.31-4.67,21.43c-0.77-0.71-1.85-1.45-2.83-1.28
								c-0.72,0.13-1.23,0.69-1.54,1.65c-1.05,3.31-1.36,7.72,0.07,9.76c0.33,0.48,0.77,1.27,1.24,2.1c1.65,2.98,3.03,5.27,4.5,5.45
								c0.43,0.05,0.8-0.02,1.09-0.16c-0.03,1.83,0.07,5.12,1,6.85c0,0,0,0.01,0.01,0.01c-0.04,1.36-0.33,7.18-1.91,9.14
								c-1.64,2.03-8.34,5.24-14.24,8.06c-3.61,1.73-7.01,3.36-9.43,4.76c-4.41,2.56-6.47,4.43-7.83,5.67
								c-0.8,0.73-1.33,1.21-1.93,1.45c-0.38,0.15-0.78,0.28-1.19,0.41c-1.56,0.5-3.32,1.07-5.1,3.14
								c-0.69,0.81-1.92,1.37-3.34,2.03c-2.63,1.21-5.9,2.72-7.47,6.7c-2.36,6-6.3,20.22-5.39,26.02c0.06,0.42,0.13,0.82,0.21,1.22
								c-1.67,2.49-4.67,6.11-5.35,10.78c-1.15,7.84-1.28,24.2,0.8,31.36c-2.11,3.39-5.85,10.31-5.85,16.79v8.6
								c-0.6,0.97-3.7,6.58-3.04,17.53c0.25,4.2,0.72,8.07,1.22,12.16c0.89,7.3,3.86,15.56,3.52,25.33
								c-0.53,14.89-0.31,29.09,0.28,31.83c0.54,2.51,5.19,14.75,5.38,15.27l0.17,0.45l0.47-0.12c0.03-0.01,2.81-0.8,3.06-4.48
								l1.49,1.69l0.39-0.55c0.09-0.12,1.4-1.98,1.77-4.28c0.83-1.4,2.55-4.99,0.55-8.03c-2.27-3.46-6.02-10.62-6.06-10.69l0,0
								c-0.01-0.24-0.03-0.45-0.06-0.59c0.56-4.25,0-5.8,1.58-6.4c0.13-0.05,0.2-0.03,0.28,0.02c1.15,0.74,1.42,2.72,1.7,4.82
								c0.27,1.96,0.54,3.99,1.54,5.57c1.17,1.85,2.98,4.25,5.08,2.5c1.39-1.15,0.17-9.07-0.16-11.41c-0.42-2.93-0.42-3.75-1.58-8.4
								c-0.74-2.96-1.18-4.49-1.37-5.86c-0.1-1.13,0.19-5.82,0.62-9.25c0.49-3.94,2.93-10.38,5.5-17.21
								c2.95-7.79,5.99-15.85,6.19-20.53c0.3-7.25-0.65-10.84-1-11.88c0.61-0.73,2.32-3,2.78-5.93c0.54-3.41,0.37-9.32,0.36-9.47
								c0.02-0.1,1.8-10.32,4.75-15c2.24-3.55,5.54-10.52,6.94-14.16c0.51,3.6,1.08,6.83,1.66,8.55c0.73,2.19,1.65,4.61,2.55,6.96
								c1.28,3.35,2.48,6.51,2.79,8.16c0.44,2.34,0.13,19.55,0.03,25.21c-0.02,1.21-0.04,2.01-0.04,2.21c0,0.01,0,0.01-0.01,0.02
								c-0.11,0.11-0.19,0.3-0.22,0.5c-0.23,0.41-0.58,0.97-0.91,1.5c-1.78,2.81-4.76,7.5-4.19,12.13c0.64,5.16,1.42,7.32,1.71,7.97
								c-0.59,1.86-4.91,15.99-4.24,26.18c0.23,3.55-1.17,9.1-2.93,16.12c-2.28,9.05-6.59,29.89-7.55,42.89
								c-1.42,19.23,4.1,41.24,5.62,53.13c0.33,2.55,0.54,4.23,0.57,4.74c0.07,1.26-0.04,2.12-0.18,3.13
								c-0.18,1.36-0.39,2.91-0.18,5.82c0.02,0.29,0.07,0.61,0.14,0.96c-0.74,1.67-7.29,16.71-7.47,26.52
								c-0.08,4.79,1.45,15.43,3.08,26.7c1.47,10.2,2.87,20.74,3.32,27.25l0.01,0.17c0.04,0.55,0.07,1.06,0.09,1.55
								c0.07,3.49-0.27,10.44-0.49,11.12c-0.52,1.59-1.01,3.11-0.97,5.46c-0.14,0.14-0.28,0.27-0.43,0.39
								c-1.93,1.65-2.71,3.87-3.46,6.01c-0.25,0.7-0.48,1.37-0.75,2c-1.04,2.43-10.26,10.04-11.53,10.83
								c-0.99,0.62-3.51,4.31-3.51,4.31c-0.94,1.01-0.65,2.67-0.46,3.77c0.03,0.2,0.07,0.38,0.09,0.54c0.08,0.59,0.26,0.99,0.4,1.31
								c0.13,0.28,0.22,0.49,0.22,0.74c0.01,0.35-0.05,0.75-0.1,1.15c-0.05,0.36-0.1,0.72-0.11,1.06c-0.01,0.61,0.02,2.09,0.62,2.58
								c0.34,0.28,0.66,0.48,1.14,0.57c-0.05,0.15-0.12,0.35-0.2,0.6c-0.37,1.09,0.45,2.2,1.05,2.65c0.43,0.32,1.12,0.35,1.59,0.32
								c0,0.09,0.02,0.15,0.03,0.2c0.07,0.77,0.33,1.83,1.32,2.3c1,0.47,1.51,0.36,2.1,0.08c1.15,1.58,3.48,2.55,5.58,2.35
								c0.27-0.03,0.54-0.07,0.8-0.14c2.16-0.55,4.87-2.42,5.87-4.91c0.81-2,1.98-2.66,3.03-3.12c4.31-1.36,6.66-6.16,7.29-10.62
								c0.55-3.93,3.08-8.22,3.73-9.1c3.01-1.26,4.79-2.86,6.33-5.12c1.62-2.38,1.68-3.89,1.23-5.86
								c-0.43-1.87-1.6-10.69-2.01-12.06c-0.36-1.2-0.52-2.42-0.8-3.92c-0.87-4.65,4.9-28.65,6.59-33.32
								c0.65-1.79,1.58-3.74,2.66-6.01c1.83-3.84,4.11-8.61,5.93-14.66c2.75-9.15-1.59-29.38-2.13-31.77
								c1.6-2.8,3.02-5.71,4.25-8.67c0.99-2.37,1.91-4.83,2.38-7.37c0.69-3.74,1.28-10.83,1.97-19.03
								c0.61-7.25,1.3-15.46,2.14-22.01c1.04-8.09,3.18-17.23,4.9-24.57c1.18-5.02,2.19-9.36,2.53-11.98
								c0.62-4.89,0.01-9.76-0.34-11.89c0.38,0.04,1.49,0.05,1.76,0c-0.35,2.13-0.96,7-0.34,11.9c0.33,2.62,1.35,6.95,2.53,11.98
								c1.72,7.34,3.86,16.48,4.9,24.57c0.84,6.56,1.53,14.77,2.14,22.01c0.69,8.2,1.29,15.28,1.97,19.03
								c0.47,2.54,1.39,5,2.38,7.37c1.23,2.96,2.65,5.87,4.25,8.67c-0.53,2.39-4.88,22.63-2.12,31.77
								c1.82,6.04,4.1,10.82,5.93,14.66c1.08,2.27,2.01,4.22,2.66,6.01c1.69,4.67,7.47,28.67,6.59,33.32
								c-0.28,1.49-0.44,2.72-0.8,3.92c-0.41,1.37-1.58,10.18-2.01,12.06c-0.45,1.97-0.39,3.48,1.23,5.86
								c1.54,2.26,3.33,3.86,6.33,5.12c0.66,0.88,3.18,5.17,3.73,9.1c0.63,4.46,2.98,9.26,7.29,10.62c1.04,0.46,2.22,1.11,3.03,3.12
								c1,2.5,3.72,4.36,5.87,4.91c0.26,0.07,0.53,0.11,0.8,0.14c2.1,0.2,4.43-0.77,5.58-2.35c0.59,0.28,1.1,0.4,2.1-0.08
								c1.08-0.51,1.29-1.73,1.34-2.5c0.47,0.03,1.17,0,1.6-0.32c0.6-0.45,1.42-1.56,1.05-2.65c-0.08-0.23-0.14-0.41-0.19-0.56l0,0
								c0-0.01-0.01-0.02-0.01-0.04c0.47-0.09,0.79-0.28,1.13-0.57c0.59-0.49,0.63-1.97,0.62-2.58c-0.01-0.34-0.06-0.71-0.11-1.06
								c-0.05-0.39-0.11-0.8-0.1-1.15c0-0.26,0.1-0.46,0.22-0.74c0.14-0.32,0.32-0.73,0.4-1.31c0.02-0.16,0.05-0.34,0.09-0.54
								c0.19-1.1,0.48-2.76-0.46-3.77c0,0-2.51-3.69-3.51-4.31c-1.27-0.8-10.49-8.4-11.53-10.83c-0.27-0.63-0.5-1.3-0.75-2
								c-0.76-2.15-1.54-4.37-3.46-6.01c-0.14-0.12-0.28-0.25-0.43-0.39c0.04-2.35-0.45-3.86-0.97-5.46
								c-0.22-0.68-0.56-7.63-0.49-11.12c0.02-0.48,0.05-1,0.09-1.55c0.01-0.06,0.02-0.12,0.03-0.17l-0.02,0
								c0.45-6.51,1.85-17.05,3.32-27.25c1.63-11.26,3.16-21.9,3.08-26.7c-0.17-9.75-6.63-24.65-7.45-26.48
								c0.09-0.41,0.15-0.8,0.17-1.14c0.21-2.91,0-4.45-0.18-5.82c-0.13-1-0.25-1.87-0.18-3.13c0.03-0.51,0.25-2.19,0.57-4.74
								c1.52-11.89,7.04-33.9,5.62-53.13c-0.96-13-5.27-33.84-7.55-42.89c-1.77-7.02-3.17-12.57-2.93-16.12
								c0.66-10.19-3.65-24.32-4.24-26.18c0.28-0.65,1.07-2.81,1.71-7.97c0.57-4.63-2.41-9.33-4.19-12.13
								c-0.52-0.82-1.12-1.76-1.14-2.02c0-0.2-0.01-1-0.04-2.21c-0.1-5.66-0.41-22.87,0.03-25.21c0.31-1.65,1.52-4.81,2.79-8.16
								c0.9-2.35,1.82-4.77,2.55-6.96c0.56-1.67,1.08-4.77,1.58-8.23c0-0.01,0-0.01,0-0.02c1.43,3.56,4.64,10.09,6.71,13.76
								c3.65,6.47,4.91,17.02,5.11,24.46c0.08,2.96,2.17,5.19,2.78,5.93c-0.34,1.04-1.3,4.64-1,11.88
								c0.19,4.68,3.24,12.73,6.19,20.53c2.58,6.82,5.01,13.27,5.5,17.21c0.35,2.84,0.7,4.68,0.73,6.08
								c0.02,1.34,0.01,2.69-0.12,4.04c-0.12,1.25-0.64,2.72-1.27,5.24c-1.16,4.64-1.16,5.47-1.58,8.4
								c-0.34,2.34-1.55,10.26-0.16,11.41c2.1,1.75,3.91-0.65,5.08-2.5c1-1.58,1.27-3.61,1.54-5.57c0.28-2.1,0.55-4.08,1.7-4.82
								c0.08-0.05,0.15-0.07,0.28-0.02c1.59,0.6,1.03,2.14,1.58,6.4c-0.03,0.15-0.05,0.35-0.06,0.59l0,0
								c-0.04,0.07-3.79,7.23-6.06,10.69c-2,3.04-0.28,6.64,0.55,8.03c0.37,2.3,1.68,4.16,1.77,4.28l0.39,0.55l1.49-1.69
								c0.24,3.68,3.03,4.47,3.06,4.48l0.47,0.12l0.17-0.45c0.2-0.52,4.85-12.76,5.38-15.27c0.59-2.74,0.8-16.95,0.28-31.83
								c-0.34-9.77,2.63-18.03,3.52-25.33c0.5-4.1,0.97-7.96,1.22-12.16C301.78,265.93,298.67,260.32,298.08,259.36z M292.63,201.93
								c1.32,7.73,1.08,24.35-0.84,31.34c-0.41-0.63-0.72-1.08-0.87-1.29c-0.09-1.6-0.78-13.82-1.97-19.58
								c-1.12-5.44-3.12-10.65-3.53-11.7c0.28-0.81,1.36-4.1,2.15-8.31C288.37,193.34,292.07,198.71,292.63,201.93z M237.43,261.14
								c0.01-1.24,0.08-2.46,0.19-3.69c0.28,0.08,0.61,0.08,1.02-0.03c2.67-0.73,5.04-5.25,6.15-7.42c1.28-2.48,2.25-5.03,2.86-7.67
								c-0.02,4.37,0.05,10.14,0.14,15.43c-1.77,3.02-4.17,5.73-7.18,7.57c-0.45,0.29-1.08,0.57-1.61,0.64
								c-1.07,0.14-1.6-1.23-1.49-2.11C237.47,262.95,237.42,262.04,237.43,261.14z M247.74,237.01
								c-0.26,6.09-2.44,11.95-6.13,16.81c-0.93,1.22-2,2.73-3.77,1.93c-0.94-0.42-0.86-1.48-0.74-2.34
								c0.19-1.31,0.32-2.63,0.57-3.94c0.12-0.65,0.29-1.3,0.5-1.93c0.03-0.09,0.17-0.55,0.33-0.98c0.53,0.15,1.27-0.06,2.29-0.79
								c3.04-2.17,4.7-5.6,5.54-9.3c0.62-0.55,1.22-1.12,1.78-1.73c-0.08,0.32-0.15,0.61-0.2,0.86
								C247.85,235.87,247.75,236.96,247.74,237.01z M243.28,242.38c-0.51,0.71-1.02,1.38-1.68,1.96c-0.77,0.68-1.73,1.84-2.89,1.22
								c-1.05-0.56-0.71-2.35-0.61-3.29c0.16-1.66,0.38-3.31,0.57-4.96c2.77-2.47,5.03-5.65,6.6-9.15c0.4-0.11,0.8-0.24,1.19-0.38
								C246.56,232.37,246.06,238.54,243.28,242.38z M242.78,231.52c-1.14,1.7-4.07,7.08-4.73,2.77c-0.42-2.75-1.6-6.89,0.57-9.31
								c0.73-0.14,1.25-1.03,1.76-1.48c0.58-0.53,1.16-1.07,1.71-1.62c0.2-0.2,0.39-0.41,0.59-0.62c1.45-0.13,2.84-0.42,4.17-0.87
								C246.35,224.4,244.95,228.27,242.78,231.52z M237.74,222.87c-0.48-1.25-1.02-2.51-1.01-3.87c0.03-3.65,2.93-6.51,6.16-8.12
								c1.86,0.66,3.8,1.1,5.78,1.34c-1.43,2.52-3.07,4.93-5.02,7.09c-0.72,0.8-1.59,1.47-2.38,2.18c-0.51,0.46-1.01,0.92-1.49,1.4
								c-0.32,0.32-0.82,0.84-1.3,0.9C237.91,223.88,237.92,223.33,237.74,222.87z M243.38,220.52c0.63-0.69,1.25-1.39,1.85-2.11
								c1.56-1.92,2.94-3.97,4.16-6.12c0.91,0.08,1.85,0.14,2.78,0.14c0.23,1.16,0.34,2.53,0.37,3.92l-0.02,0.01
								C249.92,218.67,246.81,220.08,243.38,220.52z M240.56,209.2c0.23-0.01,0.46-0.01,0.69-0.02c2.9-0.14,5.86-1.7,8.52-3.7
								c1.04,2.03,1.77,4.13,2.26,6.3l0,0C247.98,211.78,244.12,210.9,240.56,209.2z M244.69,207.53
								c-6.8,2.92-19.15-0.21-24.58-5.64c-4.2-4.21-4.93-10.94-5.5-16.61c-0.38-3.75-1.9-11.22,0.32-14.65
								c4.35-6.74,9.75-7.63,17.51-8.07c15.57-0.88,16.65,3.98,21.93,9.05c1.78,1.71,2.9,3.53,4.15,5.32
								c3.85,5.49,4.86,10.62,4.41,11.16C258.62,195.11,252.47,204.18,244.69,207.53z M224.42,147.89c0.8-2.01,1.48-3.72,1.93-4.8
								c0.72-1.75,1.33-4.15,1.82-6.57c5.69,5.11,6.77,15.26,13.76,18.88c1.15,0.59,2.32,0.98,3.5,1.21
								c-1.76,0.77-3.81,1.58-6.01,2.3C232.41,158.68,226.67,154.47,224.42,147.89z M237.7,159.42c-6.13,1.76-12.98,2.44-17.37-1.11
								c1.21-3.12,2.56-6.57,3.72-9.51C226.36,154.71,231.44,158.65,237.7,159.42z M225.85,142.89c-1.85,4.47-7.63,19.37-9.12,23.22
								c-0.39-2.55-1.27-9.64,0.15-14.46c0.71-2.42,1.7-4.83,2.85-7.62c1.68-4.09,3.77-9.16,5.89-16.49c1.38-1.18,2.6-2.32,3.4-3.22
								c0.04,0.6,0.09,1.35,0.18,2.17C228.85,129.73,227.47,138.97,225.85,142.89z M263.53,188.32l0.02-0.03
								c3.88,7.45,10.32,12.81,18.29,15.26c7.21,15.3,4.71,34.8-1.23,50.56c-3.05-3.06-6.07-6.77-8.29-10.4
								c-2.85-4.65-4.59-9.95-6.44-15.07c-3.77-10.43-6.88-21.17-7.48-32.21C260.24,193.84,261.84,191.09,263.53,188.32z
								 M281.37,254.08c6.23-14.51,8.63-35.12,1.44-50.6c0.56-0.75,1.11-1.49,1.67-2.24c0.5,1.3,2.36,6.23,3.42,11.37
								c1.06,5.17,1.73,15.93,1.89,18.82c0,0.47,0.03,0.8,0.06,1.06c0.57,8.29-4.08,14.63-8.22,21.71c-0.12,0.21-0.24,0.4-0.36,0.6
								c-0.05-0.04-0.09-0.09-0.14-0.14C281.23,254.5,281.3,254.25,281.37,254.08z M272.03,157.55c0.74,0.49,1.63,0.89,2.54,1.32
								c2.58,1.19,5.51,2.54,6.92,6.12c2.33,5.9,6.21,19.85,5.33,25.46c-0.74,4.76-2,8.68-2.37,9.77c-2.07,2.63-3.36,2.82-6.71,1.14
								c-2.3-1.16-4.55-2.47-6.48-4.21c-3.29-2.94-5.86-6.34-7.76-10.35c-0.01-0.02-0.02-0.03-0.04-0.05
								c-0.67-5.49-5.37-12.96-10.85-18.22c-0.24-0.53-0.45-1.08-0.61-1.63c-1.78-6.09,3.23-7.31,8-7.01
								C263.55,160.1,270.08,161.57,272.03,157.55z M266.25,153.74c1.49,0.48,3.04,0.97,4.61,2.81c0.19,0.22,0.4,0.41,0.63,0.6
								c-2.66,6.27-15.4-1.15-19.76,4.41c-1.28,1.64-1.24,3.65-0.51,5.69c-3.41-2.96-7.14-5.36-10.2-5.45
								c-15.51-0.46-20.67,1.5-23.92,4.81c0.47-1.22,1.62-4.19,2.98-7.67c6.98,5.4,19.52,0.97,26.54-2.17
								c6.16,0.64,12.63-2.62,18.71-3.34C265.63,153.54,265.93,153.64,266.25,153.74z M231.13,133.05
								c1.79,2.22,8.31,5.34,14.61,8.36c3.59,1.72,6.97,3.34,9.36,4.72c4.31,2.5,6.32,4.32,7.65,5.53c0.56,0.51,1.02,0.91,1.49,1.23
								c-9.01,1.38-19.9,7.58-26.26-2.36c-3.12-4.88-5.23-10.85-9.64-14.79c0.56-2.9,0.94-5.72,1.15-7.36
								C229.78,130.19,230.3,132.02,231.13,133.05z M194.65,114.85c-0.01,0.03-0.38,0.69-1.07,0.6c-1.05-0.13-2.7-3.12-3.69-4.9
								c-0.5-0.9-0.93-1.67-1.29-2.2c-1.07-1.52-1.04-5.32,0.07-8.83c0.18-0.56,0.42-0.87,0.71-0.92c0.76-0.14,2.11,1.08,2.83,1.99
								l1.09,1.37l-0.13-1.74c-0.01-0.16-1.1-15.6,4.35-22.14c4.04-4.85,12.76-5.89,15.19-6.09c2.44,0.2,11.15,1.24,15.19,6.09
								c5.45,6.54,4.36,21.98,4.35,22.14l-0.13,1.74l1.09-1.37c0.72-0.91,2.06-2.13,2.83-1.99c0.29,0.06,0.53,0.37,0.71,0.92
								c1.11,3.51,1.14,7.3,0.07,8.83c-0.37,0.52-0.8,1.3-1.29,2.2c-0.99,1.79-2.65,4.78-3.69,4.9c-0.69,0.09-1.05-0.58-1.07-0.6
								l-1.17-2.25l0.16,2.53c0,0.05,0.33,5.41-0.83,7.57c-1.18,2.2-10.74,9.63-12.58,10.3c-1.03,0.38-2.51,0.52-3.62,0.57
								c-1.11-0.05-2.59-0.19-3.62-0.57c-1.84-0.67-11.4-8.1-12.58-10.3c-1.16-2.16-0.83-7.52-0.83-7.57l0.16-2.53L194.65,114.85z
								 M186.38,266.22c-0.53-0.07-1.16-0.36-1.62-0.64c-2.78-1.7-5.04-4.14-6.77-6.89c0.08-4.82,0.15-10.14,0.16-14.48
								c0.6,2.06,1.42,4.07,2.44,6.04c1.12,2.17,3.48,6.68,6.15,7.42c0.41,0.11,0.74,0.11,1.02,0.03c0.11,1.22,0.18,2.45,0.19,3.69
								c0.01,0.91-0.04,1.81-0.09,2.72C187.98,264.98,187.45,266.36,186.38,266.22z M187.55,256c-1.76,0.8-2.84-0.71-3.77-1.93
								c-2.82-3.7-4.76-8-5.63-12.53c-0.02-2.88-0.09-5.02-0.24-5.78c-0.01-0.04-0.02-0.09-0.03-0.14c0.38,0.38,0.78,0.75,1.18,1.11
								c0.85,3.7,2.51,7.13,5.54,9.3c1.02,0.73,1.76,0.94,2.29,0.79c0.15,0.42,0.29,0.88,0.33,0.97c0.21,0.63,0.38,1.28,0.5,1.93
								c0.25,1.3,0.38,2.62,0.57,3.94C188.41,254.51,188.48,255.57,187.55,256z M186.68,245.82c-1.15,0.62-2.11-0.54-2.89-1.22
								c-0.66-0.58-1.17-1.25-1.68-1.96c-2.78-3.85-3.28-10.01-3.17-14.6c0.39,0.14,0.79,0.27,1.19,0.38
								c1.57,3.5,3.83,6.68,6.59,9.15c0.18,1.65,0.4,3.3,0.56,4.96C187.39,243.47,187.73,245.26,186.68,245.82z M187.34,234.55
								c-0.66,4.31-3.6-1.07-4.73-2.77c-2.19-3.28-3.59-7.34-4.08-11.39c1.25,0.42,2.55,0.71,3.9,0.85c0.29,0.3,0.57,0.61,0.86,0.91
								c0.56,0.56,1.13,1.1,1.71,1.62c0.51,0.46,1.03,1.34,1.76,1.48C188.94,227.66,187.76,231.79,187.34,234.55z M173.28,212.68
								C173.28,212.68,173.28,212.68,173.28,212.68c0.9,0,1.84-0.05,2.72-0.13c1.22,2.14,2.6,4.19,4.16,6.11
								c0.5,0.62,1.03,1.23,1.56,1.82c-3.32-0.49-6.33-1.87-8.87-4.12l-0.01-0.01C172.9,215.01,173.06,213.8,173.28,212.68z
								 M186.9,224.06c-0.48-0.06-0.97-0.58-1.3-0.9c-0.48-0.48-0.99-0.94-1.49-1.4c-0.79-0.72-1.66-1.39-2.38-2.18
								c-1.95-2.16-3.59-4.57-5.02-7.09c1.99-0.23,3.94-0.67,5.81-1.33c3.22,1.61,6.1,4.46,6.13,8.1c0.01,1.36-0.53,2.62-1.01,3.87
								C187.47,223.59,187.48,224.13,186.9,224.06z M173.42,212.03c0.51-2.29,1.34-4.53,2.49-6.69c2.61,1.91,5.5,3.37,8.29,3.5
								c0.62,0.03,1.22,0.05,1.82,0.06C182.15,210.96,177.89,212.02,173.42,212.03z M180.76,207.19
								c-7.78-3.34-14.69-13.17-18.23-19.43c0.27-3.15,1.95-6.92,4.46-10.58c2.89-4.21,6.31-8.23,8.54-10.03
								c6.07-4.9,11.43-4.69,16.58-4.52c7.76,0.25,14.65,1.59,18.42,7.67c2.15,3.47,0.69,10.9,0.32,14.65
								c-0.57,5.67-1.3,12.4-5.5,16.61C199.91,206.98,187.9,210.26,180.76,207.19z M143.48,203.93c8.15-2.47,14.72-7.99,18.61-15.65
								c1.73,2.84,3.28,5.62,5.17,8.26c-0.59,11.07-3.71,21.85-7.49,32.31c-1.85,5.12-3.59,10.41-6.44,15.07
								c-2.42,3.95-5.05,7.49-8.4,10.72C138.98,238.91,136.36,219.24,143.48,203.93z M143.95,253.89
								c-4.06-6.9-8.83-13.48-8.23-21.76c0.18-3.03,0.92-14.4,1.98-19.52c0.98-4.77,2.65-9.36,3.29-11.03
								c0.58,0.78,1.16,1.56,1.74,2.33c0.01,0.02,0.02,0.03,0.04,0.04C135.83,219.14,138.18,238.25,143.95,253.89z M208.7,166.06
								c-1.49-3.85-7.27-18.75-9.12-23.22c-2.07-5-3.2-15.54-3.25-15.97c0.1-0.89,0.17-1.72,0.2-2.38c0.81,0.88,1.99,1.97,3.3,3.1
								c2.11,7.27,4.18,12.31,5.86,16.39c1.15,2.79,2.14,5.21,2.85,7.62C209.96,156.41,209.09,163.5,208.7,166.06z M201.44,148.94
								c1.17,2.97,2.52,6.43,3.73,9.53c-2.93,2.93-11.15,2.86-17.6,1.17C193.95,158.92,199.12,154.94,201.44,148.94z M185.92,159.1
								l-0.05,0.02c-2.16-0.7-4.18-1.51-5.91-2.26c1.18-0.23,2.35-0.61,3.5-1.21c7.03-3.63,8.07-13.88,13.84-18.95
								c0.48,2.35,1.08,4.66,1.78,6.35c0.46,1.12,1.17,2.89,2,4.97C198.83,154.67,193.01,158.93,185.92,159.1z M162.86,151.65
								c1.33-1.21,3.34-3.03,7.65-5.53c2.38-1.38,5.77-3.01,9.36-4.72c6.3-3.02,12.82-6.14,14.61-8.36
								c0.76-0.93,1.24-2.53,1.56-4.18c0.22,1.73,0.6,4.37,1.12,7.05c-4.47,3.94-6.58,9.96-9.72,14.86
								c-6.4,10.01-17.39,3.66-26.44,2.34C161.59,152.78,162.15,152.3,162.86,151.65z M154.74,156.55c1.58-1.84,3.12-2.33,4.61-2.81
								c0.05-0.01,0.09-0.03,0.14-0.04l0.46-0.02c6.11,0.69,12.62,4,18.83,3.36c7.06,3.16,19.94,7.02,26.66,2.08
								c1.18,3.04,2.2,5.67,2.73,7.04c-3.33-3.19-8.83-4.67-23.87-4.28c-3.05,0.08-6.62,2.2-10,5.27c0.6-1.92,0.57-3.78-0.63-5.32
								c-4.38-5.58-17.21,1.92-19.79-4.48C154.19,157.09,154.49,156.84,154.74,156.55z M144.1,164.97c1.41-3.58,4.34-4.93,6.92-6.12
								c0.82-0.38,1.6-0.74,2.29-1.16c1.88,4.15,8.5,2.66,12.06,2.44c4.77-0.3,9.78,0.92,8,7.01c-0.13,0.44-0.29,0.87-0.46,1.3
								c-5.7,5.7-10.56,13.78-10.99,18.75c-1.89,3.98-4.45,7.35-7.72,10.28c-1.94,1.73-4.18,3.05-6.49,4.21
								c-3.21,1.62-4.39,1.46-6.32-0.87l-0.15-0.29c-0.02-0.04-1.6-4.49-2.48-10.09C137.9,184.83,141.78,170.88,144.1,164.97z
								 M133.42,202.14c0.5-2.89,3.53-7.53,4.72-9.12c0.78,3.9,1.76,6.9,2.03,7.67c-0.41,1.05-2.41,6.26-3.53,11.7
								c-1.19,5.77-1.88,17.98-1.97,19.58c-0.11,0.16-0.32,0.45-0.58,0.86C132.33,225.51,132.14,209.64,133.42,202.14z
								 M125.55,276.81c-0.53-8.77,1.45-14.07,2.43-16.08c1.14,7.53,4.37,15.07,7.44,22.03c4.08,9.23,6.61,19.61,7.36,29.52
								c-0.08,2.04,0,3.51,0.2,4.8c-7.72-9.76-14.33-20.36-16.73-32.61C125.96,281.95,125.71,279.44,125.55,276.81z M139.95,357.25
								l-1.4-1.6c-0.33-3.79-1.99-9.75-2.26-10.68c0.03-0.22,0.08-0.79,0.14-1.56c1.1,2.04,2.71,4.92,4.06,6.99
								C142.11,352.89,140.68,355.98,139.95,357.25z M136.72,337.75c1.28,2.38,3.56,6.56,5.15,8.99c1.06,1.62,0.81,3.51,0.3,4.97
								c-0.14-0.64-0.39-1.27-0.79-1.88c-1.73-2.64-3.89-6.65-4.83-8.44C136.63,340.2,136.69,338.9,136.72,337.75z M144,321.68
								c0.98,4.17,1.6,6.31,1.6,8.31c0,5.16,1.62,10.82-0.23,10.83c-0.46,0-1.41-0.46-2.71-2.52c-0.88-1.38-1.13-3.29-1.38-5.14
								c-0.32-2.35-0.62-4.57-2.18-5.57c-0.38-0.24-0.8-0.28-1.23-0.12c-2.58,0.97-1.74,5.37-2.27,7.24l-0.04,0.13l0.03,0.14
								c0.68,2.92-0.35,9.9-0.37,9.97l-0.02,0.12l0.03,0.11c0.02,0.08,2.3,8.01,2.3,11.65c0,2.39-1.18,3.39-1.84,3.76
								c-0.91-2.41-4.68-12.44-5.14-14.59c-0.48-2.22-0.8-16.15-0.25-31.57c0.34-9.54-2.44-17.63-3.43-24.8
								c3.15,10.58,9.31,19.94,16.28,28.66l0.04,0.06C143.41,319.44,143.69,320.35,144,321.68z M146.52,294.04
								c-0.34,1.46-0.2,0.85-0.59,2.45c-1.36,3.86-2.34,7.33-2.65,9.83c-0.06,0.44-0.1,0.86-0.15,1.27
								c-0.81-5.94-2.35-12.82-4.32-18.3c-3.5-9.75-8.93-19.21-10.23-29.59c0,0,0.01-0.01,0.01-0.01l0.01-0.01v-8.92
								c0-6.94,4.67-14.68,6.4-17.33c0,0,0-0.01,0-0.01c-0.07,9.45,6.62,16.95,10.81,25.19c5.1,10.05,3.26,23.91,0.86,34.69
								C146.57,293.73,146.58,293.71,146.52,294.04z M154.96,268.67c-0.19,4.5-3.2,12.48-6.12,20.19c-0.14,0.38-0.48,1.04-0.85,1.75
								c1.77-8.37,2.68-16.79,0.87-25.36c-0.18-0.85-0.42-1.68-0.68-2.49c1.74-2.06,3.69-3.91,5.85-5.53
								C154.35,258.22,155.25,261.72,154.96,268.67z M162.01,225.87c-3.06,4.86-4.83,14.96-4.91,15.49c0,0.06,0.17,6.07-0.35,9.37
								c-0.5,3.19-2.7,5.59-2.72,5.62l-0.22,0.24c0,0,0,0,0,0c-2.16,1.61-4.12,3.43-5.87,5.46c-0.05-0.13-0.09-0.24-0.12-0.35
								c-0.79-2.16-1.84-4.23-2.98-6.26c3.22-3.03,6.16-6.42,9.05-11.21c2.83-4.69,3.86-8.32,5.78-13.35
								c4.15-10.83,7.48-22.02,8.18-33.55c0.11,0.15,0.22,0.31,0.34,0.46c0.28,2.89,0.74,7.46,1.31,11.87
								c0.01,0.05,0.01,0.1,0.02,0.15C168.4,213.06,164.63,221.71,162.01,225.87z M169.42,199.28c1.55,1.79,3.64,3.89,5.97,5.67
								c-2.47,4.6-3.52,9.57-3.15,14.51C171.11,215.04,170,205.13,169.42,199.28z M173.72,223.84c-0.65-2.53-0.89-4.73-0.89-6.68
								c1.53,1.28,3.21,2.27,5.02,2.97c0.29,2.57,0.96,5.12,1.97,7.54C177.49,226.94,175.41,225.63,173.72,223.84z M175.61,229.31
								c-0.03-0.08-0.09-0.21-0.15-0.36c-0.57-1.36-1.03-2.65-1.39-3.87c1.26,1.15,2.69,2.06,4.25,2.71
								c-0.01,0.02-0.02,0.05-0.02,0.08c-0.07,2.45,0.05,5.15,0.54,7.76c-0.47-0.45-0.92-0.91-1.35-1.39
								C177.04,232.91,176.35,231.24,175.61,229.31z M172.58,277.39c-0.53-4.25,2.32-8.74,4.03-11.43c0.31-0.48,0.55-0.88,0.75-1.21
								c6.78,3.04,14.91,8.37,13.08,17.39c-0.51,2.51-2.71,5.2-4.26,7.09c-2.17,2.64-4.2,1.43-6.47-0.37
								c-1.97-1.56-3.91-3.15-5.84-4.75C173.53,283.01,173.02,280.94,172.58,277.39z M167.09,328.05
								c1.79-7.11,3.21-12.73,2.96-16.45c-0.48-7.32,1.68-16.75,3.1-22c4.21,4.6,3.69,11.93,2.81,17.96
								c-1.04,7.2-2.21,17.49-9.05,21.22C166.97,328.53,167.03,328.28,167.09,328.05z M159.57,370.76
								c0.62-8.37,2.64-20.05,4.61-29.69c-0.64,7.51-0.44,14.1,1.26,23c1.7,8.9,7.12,21.1,9.16,32.31
								c0.77,4.22,1.47,14.99-0.59,20.96c-1.37,3.95-5.4,7.18-8.84,6.25C163.64,411.7,158.16,389.84,159.57,370.76z M161.15,491.52
								c-1.62-11.22-3.15-21.82-3.07-26.52c0.14-8.26,5.1-20.73,6.84-24.85c0.97,3.09,2.98,7.15,4.71,10.38
								c-0.07,12.96-0.15,25.92-0.22,38.88c-0.06,11.38,1.75,25.24-4.92,35.17c0.08-1.76,0.11-3.45,0.05-4.61
								C164.32,513.53,162.71,502.37,161.15,491.52z M180.05,526.33c0.07,0.38,0.15,0.75,0.22,1.12
								c-3.88-4.39-3.93-11.05-3.95-17.02c0-0.87-0.01-1.72-0.02-2.55c-0.14-7.74-0.21-14.84,0.25-21.93
								c0.81,3.54,2.96,8.76,8.71,11.32C182.9,506.06,179.3,522.38,180.05,526.33z M195.25,471.84c-1.8,5.97-4.05,10.7-5.87,14.5
								c-1.09,2.29-2.04,4.27-2.7,6.1c-0.28,0.79-0.68,2.08-1.13,3.71c-5.82-2.68-8.07-8.6-8.89-11.93
								c0.05-0.62,0.09-1.24,0.15-1.86c0.15-1.58,0.24-3.2,0.34-4.91c0.26-4.5,0.39-9.1,1.79-13.43c1.06-3.27,2.72-6.33,4.66-9.16
								c1.95-2.85,4.39-5.29,6.42-8.08c1.18-1.62,2.29-3.31,3.33-5.04C194.37,446.69,197.64,463.92,195.25,471.84z M199.74,424.14
								c-0.82,4.49-2.89,8.85-4.97,12.87c-1.22,2.37-2.44,5.11-4.17,7.15c-4.77,5.6-9.92,11.01-12.24,18.15
								c-1.59,4.91-1.96,9.96-2.26,15.08c-0.1,1.7-0.19,3.31-0.34,4.87c-0.77,8.35-0.69,16.54-0.53,25.62
								c0.02,0.82,0.02,1.67,0.02,2.54c0.03,6.76,0.06,14.38,5.47,18.99c0.15,0.6,0.29,1.18,0.44,1.7
								c0.59,3.01,1.54,9.68,1.88,11.19c0.41,1.8,0.35,3.03-1.1,5.16c-1.24,1.82-3.08,3.25-4.67,4.16c1.21-1.96,3.31-5.35,3.31-5.35
								c-1.59,1.68-4.81,6.1-4.88,6.19v0c-0.6,0.75-3.38,5.38-3.97,9.6c-0.58,4.12-2.75,8.67-6.69,9.9l-0.04,0.02
								c-0.88,0.38-2.51,1.09-3.52,3.61c-0.89,2.22-3.33,3.88-5.27,4.38c-2.03,0.52-4.65-0.48-5.61-2.14l-0.03-0.05
								c-0.15-0.8-0.02-1.1,0.3-1.4c0.09-0.08,0.24-0.22,0.44-0.4c1.3-1.16,2.73-2.46,3.11-3.21c0.35-0.69,3.1-5.18,5.25-6.93
								c0,0-3.44,1.79-6.04,6.52c-0.36,0.66-2.14,2.27-2.91,2.95c-0.21,0.18-0.37,0.33-0.46,0.41c-0.57,0.53-0.73,1.13-0.58,2.09
								c-0.39,0.19-0.64,0.25-1.33-0.08c-0.6-0.29-0.77-1.06-0.82-1.64l0,0c0-0.03,0.28-3.62,6.68-11.77c0,0-2.1,1.66-3.92,4.38
								c-2.36,3.53-3.23,5.41-3.53,6.44c-0.43,0.04-0.99,0.02-1.2-0.14c-0.43-0.32-0.93-1.07-0.74-1.64
								c0.08-0.22,0.13-0.4,0.18-0.54l0,0c0.75-2.61,3.47-8.59,5.78-11.21c0,0-1.35,0.93-3.01,3.53c-1.67,2.61-2.6,4.3-3.33,6.48
								c-0.35-0.04-0.56-0.16-0.84-0.39c-0.13-0.12-0.31-0.85-0.29-1.87c0.01-0.29,0.05-0.61,0.1-0.96
								c0.06-0.43,0.12-0.87,0.11-1.28c0-0.11-0.01-0.22-0.03-0.32c0.37-1.5,1.42-4.18,4.23-7.49c0,0-1.33,1.13-2.45,2.65
								c-1.01,1.37-1.77,2.44-2.25,3.52c-0.05-0.16-0.09-0.32-0.12-0.53c-0.02-0.17-0.06-0.36-0.09-0.57
								c-0.17-0.98-0.4-2.32,0.23-3.01c0,0,2.4-3.58,3.33-4.16c1.37-0.86,10.72-8.53,11.87-11.24c0.28-0.66,0.53-1.37,0.77-2.06
								c0.72-2.03,1.46-4.14,3.2-5.63c2.5-2.13,4.28-7.47,4.28-7.47c-0.01,0.02-1.65,3.15-3.53,5.4c0.09-1.65,0.47-2.85,0.91-4.18
								c0.14-0.44,0.41-3.29,0.57-6.27c6.47-9.1,5.53-21.52,5.6-32.13c0.08-13.98,0.16-27.96,0.24-41.94c1.29,2.35,2.3,4.05,2.4,4.2
								c0,0-6.91-13.66-7.26-18.48c-0.2-2.8,0-4.29,0.17-5.6c0.14-1.01,0.26-1.97,0.18-3.33c-0.03-0.5-0.21-1.93-0.49-4.09
								c2.55,0.55,5.36-0.93,7.56-3.62c4.07-4.98,3.86-13.97,3.07-20.88c0.95,0.33,2.02,0.29,2.94-0.18
								c-0.05,1.76,0.05,3.54,0.34,5.33c0.9,5.58,3.31,11.7,8.17,15.04c3.88,2.67,8.79,4.09,12.77,1.48
								C200,422.55,199.87,423.42,199.74,424.14z M201.69,405.21c-0.49,5.88-0.97,11.52-1.46,15.52c-6.52,5.1-14.59-1.87-17.84-7.59
								c-3.51-6.19-3.17-13.63-1.65-20.31c2.79-12.27,10.71-22.64,14.19-34.7c2.16,5.06,4.05,10.22,5.08,15.68
								c1.4,7.39,2.05,14.86,2.46,22.35C202.2,399.22,201.94,402.29,201.69,405.21z M203.84,383.15c-0.36,2.8-0.69,5.9-1,9.09
								c-0.88-11.99-2.71-23.8-7.6-35.06c-8.11-18.67-15.98-36.85-16.37-57.57c-0.02-1.32,0.07-2.56,0.33-3.87
								c1.13-5.66,5.36,2.66,5.48,2.89c1.27,2.41,2.64,4.13,2.97,6.97c0.15,1.34,0.28,2.59,0.57,3.91
								c1.97,9.2,3.67,18.13,6.98,26.99c1.52,4.06,3.54,7.91,5.01,11.99c1.66,4.58,2.37,9.62,3.15,14.41
								c0.78,4.81,1.21,9.65,1.37,14.5C204.38,379.36,204.08,381.28,203.84,383.15z M211.27,346.61c-0.32,2.56-1.34,6.87-2.51,11.87
								c-1.16,4.94-2.5,10.68-3.58,16.38c-0.22-4.04-0.62-8.08-1.21-12.12c-0.79-5.45-1.89-10.94-3.76-16.12
								c-1.91-5.27-4.49-10.27-6.28-15.61c-3.13-9.28-4.01-18.81-6.11-28.27c-0.65-2.94-3.25-6.2-4.89-8.68
								c-0.48-0.72-1.94-1.34-2.74-0.77c-4.09,2.91-1.69,12.84-1.24,16.68c1.27,10.87,4.71,21.41,8.72,31.55
								c2.1,5.29,4.6,10.43,6.87,15.66c-3.79,13.73-14.86,27.19-15.65,41.74c-0.92,0.63-2.08,0.71-3.05,0.28
								c-0.11-0.9-0.23-1.76-0.34-2.57c-1.67-11.55-7.43-25.11-9.38-34.16c-1.83-8.54-1.81-17.61-0.87-26.45
								c0.52-2.41,1.02-4.59,1.47-6.43c7.76-3.68,8.6-14.14,9.88-21.88c1.05-6.36,1.37-14.14-3.23-18.86
								c0.55-1.98,0.94-3.21,0.96-3.25l0.07-0.22l-0.01-0.01c2.82,2.36,5.65,4.77,8.7,6.79c0.14,0.09,0.28,0.15,0.42,0.19
								c2.17,3.12,4.19,7.12,6.64,12.02c2.09,4.18,4.46,8.92,7.45,14.1c0.85,1.47,1.54,3.1,2.28,4.84
								c2.11,4.96,4.49,10.53,11.02,11.43C211.21,336.63,211.9,341.68,211.27,346.61z M213.11,333.8c-0.04,0-0.33,0-0.33,0
								c-7.28-0.01-9.54-5.3-11.92-10.91c-0.72-1.69-1.46-3.43-2.34-4.95c-2.97-5.15-5.34-9.87-7.42-14.04
								c-2.35-4.71-4.31-8.6-6.41-11.71c2.33-1.13,4.99-6.33,5.7-7.56c2.64-4.58,0.64-10.07-2.39-14c-2.27-2.95-6.66-5.4-10.12-6.97
								c0.03-0.1,0.04-0.2,0.04-0.28c0-0.2,0.01-1,0.04-2.2c0.01-0.45,0.02-0.91,0.02-1.38c1,1.46,2.13,2.8,3.45,4.03
								c1.23,1.15,3.78,3.58,5.53,3.61c1.39,0.02,1.39-1.33,1.49-2.43c0.24-2.56,0.18-5.14-0.06-7.69c0.54-0.59,0.67-1.68,0.67-2.57
								c-0.02-3.15-0.56-5.7-1.64-8.25c1.31-1.38,0.43-6.37,0.01-8.93c0-0.01,0.01-0.01,0.01-0.01c0.71-3.56,2.49-9.21,0.06-12.44
								c0.43-0.3,0.56-1.01,0.77-1.49c0.68-1.6,1.31-3.75,1.04-5.49c-0.49-3.18-3.09-5.73-5.97-7.29c1.38-0.54,2.73-1.18,4.04-1.95
								c8.27-0.15,14.21-2.67,19.31-7.77c3.88-3.88,4.23-11.08,4.81-16.18c0.51-4.46,1.82-11.53-0.81-15.6
								c-0.52-0.81-1.04-1.55-1.62-2.23c0.08-0.4,1.78-9.61-0.01-15.67c-0.72-2.44-1.72-4.87-2.87-7.67
								c-1.61-3.91-3.59-8.72-5.61-15.56c3.2,2.67,6.92,5.36,8.13,5.79c0.96,0.35,2.2,0.51,3.28,0.59h1.43
								c1.07-0.08,2.32-0.24,3.28-0.59c1.21-0.44,4.98-3.16,8.2-5.85c-2.03,6.89-4.02,11.73-5.64,15.66
								c-1.16,2.81-2.15,5.23-2.87,7.67c-1.78,6.07-0.08,15.29-0.01,15.67c0,0-1.07,1.69-1.6,2.52c-2.63,4.07-1.32,11.14-0.81,15.6
								c0.59,5.1,0.94,12.3,4.81,16.18c5.32,5.32,11.56,7.84,20.4,7.78c0.95,0.5,1.93,0.95,2.92,1.34c-2.89,1.56-5.5,4.12-6,7.31
								c-0.27,1.75,0.37,3.89,1.04,5.49c0.2,0.48,0.34,1.18,0.77,1.49c-2.43,3.23-0.66,8.88,0.06,12.44c0,0.01,0.01,0.01,0.01,0.02
								c-0.42,2.56-1.3,7.56,0.01,8.93c-1.08,2.55-1.62,5.1-1.64,8.25c-0.01,0.89,0.12,1.98,0.67,2.57
								c-0.24,2.56-0.3,5.13-0.06,7.69c0.1,1.1,0.1,2.45,1.49,2.43c1.75-0.03,4.3-2.45,5.53-3.61c1.5-1.41,2.76-2.96,3.86-4.66
								c0.01,0.72,0.02,1.43,0.04,2.11c0.02,1.2,0.04,1.99,0.04,2.2c0,0.09,0.02,0.19,0.05,0.3c-3.49,1.55-7.96,3.94-10.29,6.96
								c-3.03,3.93-5.34,9.43-2.7,14c0.73,1.26,3.67,6.81,6.1,7.76c-2.08,3.1-4.03,6.97-6.36,11.64c-2.08,4.17-4.45,8.89-7.42,14.04
								c-0.88,1.53-1.62,3.27-2.34,4.95C222.55,328.46,220.3,333.74,213.11,333.8z M222.9,392.12c-0.31-3.15-0.63-6.2-0.99-8.97
								c-0.24-1.89-0.55-3.83-0.89-5.79c0.15-4.93,0.59-9.86,1.38-14.75c0.77-4.79,1.49-9.83,3.15-14.41
								c1.47-4.07,3.5-7.92,5.01-11.99c3.31-8.86,5.01-17.79,6.98-26.99c0.28-1.32,0.41-2.57,0.57-3.91
								c0.33-2.84,1.7-4.56,2.97-6.97c0.12-0.23,4.35-8.55,5.48-2.89c0.26,1.31,0.36,2.55,0.33,3.87
								c-0.4,20.72-8.26,38.9-16.37,57.57C225.6,368.21,223.78,380.08,222.9,392.12z M224.06,405.21c-0.25-2.95-0.51-6.07-0.79-9.16
								c0.41-7.55,1.06-15.08,2.47-22.53c1.02-5.42,2.9-10.54,5.04-15.57c3.49,12.05,11.45,22.64,14.24,34.89
								c1.52,6.69,1.86,14.13-1.65,20.31c-3.24,5.71-11.32,12.69-17.84,7.59C225.03,416.73,224.56,411.09,224.06,405.21z
								 M239.08,492.45c-0.67-1.84-1.61-3.82-2.7-6.1c-1.81-3.8-4.07-8.54-5.87-14.5c-2.38-7.92,0.88-25.15,1.9-30.08
								c1.04,1.73,2.14,3.42,3.33,5.04c2.03,2.78,4.47,5.23,6.42,8.08c1.94,2.83,3.6,5.89,4.66,9.16c1.4,4.33,1.53,8.93,1.79,13.43
								c0.1,1.71,0.19,3.33,0.34,4.91c0.05,0.55,0.09,1.09,0.13,1.64c-0.54,2.27-1.76,5.89-4.43,8.81c-1.18,1.3-2.64,2.45-4.45,3.3
								C239.74,494.51,239.36,493.23,239.08,492.45z M240.49,497.22c2.11-0.95,3.73-2.25,4.97-3.7c2.21-2.57,3.25-5.58,3.73-7.83
								c0.48,7.17,0.41,14.35,0.26,22.18c-0.02,0.83-0.02,1.68-0.02,2.55c-0.02,5.98-0.07,12.64-3.95,17.02
								c0.08-0.37,0.15-0.74,0.22-1.12C246.45,522.38,242.85,506.01,240.49,497.22z M262.8,536.21c-1.87-2.26-3.52-5.39-3.53-5.4
								c0,0,1.79,5.34,4.28,7.47c1.75,1.49,2.49,3.59,3.2,5.63c0.24,0.69,0.49,1.4,0.77,2.06c1.16,2.7,10.51,10.38,11.87,11.24
								c0.93,0.58,3.33,4.16,3.33,4.16c0.64,0.68,0.4,2.03,0.23,3.01c-0.04,0.21-0.07,0.4-0.09,0.57c-0.03,0.19-0.07,0.36-0.11,0.51
								c-0.48-1.1-1.25-2.17-2.27-3.56c-1.12-1.53-2.45-2.65-2.45-2.65c2.84,3.35,3.89,6.06,4.24,7.54
								c-0.02,0.1-0.03,0.21-0.03,0.32c-0.01,0.41,0.05,0.86,0.11,1.28c0.05,0.35,0.09,0.67,0.1,0.96c0.02,1.02-0.16,1.76-0.29,1.87
								c-0.27,0.23-0.48,0.34-0.83,0.39c-0.73-2.21-1.67-3.9-3.35-6.53c-1.66-2.6-3.01-3.53-3.01-3.53
								c2.25,2.57,4.9,8.34,5.72,11.03c0.05,0.18,0.13,0.42,0.26,0.79c0.19,0.57-0.3,1.32-0.74,1.64c-0.18,0.13-0.62,0.17-1.01,0.15
								c-0.13-0.84-0.81-2.72-3.66-6.97c-1.82-2.71-3.92-4.38-3.92-4.38c5.4,6.87,6.45,10.5,6.64,11.49l-0.01,0.3
								c-0.01,0.48-0.03,1.76-0.84,2.14c-0.7,0.33-0.94,0.27-1.33,0.08c0.15-0.95-0.02-1.55-0.58-2.09
								c-0.09-0.09-0.25-0.23-0.46-0.41c-0.77-0.68-2.55-2.29-2.91-2.95c-2.6-4.73-6.04-6.52-6.04-6.52
								c2.14,1.75,4.89,6.23,5.25,6.93c0.38,0.75,1.81,2.05,3.11,3.21c0.2,0.18,0.35,0.31,0.44,0.4c0.32,0.3,0.44,0.6,0.3,1.4
								l-0.03,0.05c-0.96,1.66-3.59,2.66-5.61,2.14c-1.94-0.5-4.37-2.16-5.27-4.38c-1.02-2.53-2.65-3.23-3.52-3.61l-0.04-0.02
								c-3.95-1.23-6.12-5.78-6.69-9.9c-0.59-4.22-3.38-8.85-3.97-9.6v0c-0.07-0.1-3.29-4.52-4.88-6.19c0,0,2.1,3.39,3.31,5.35
								c-1.59-0.91-3.43-2.34-4.67-4.16c-1.45-2.13-1.51-3.36-1.1-5.16c0.34-1.5,1.29-8.18,1.88-11.19c0.15-0.52,0.3-1.1,0.44-1.7
								c5.4-4.61,5.44-12.23,5.47-18.99c0-0.87,0.01-1.71,0.02-2.54c0.17-9.08,0.24-17.27-0.53-25.62
								c-0.14-1.56-0.24-3.17-0.34-4.87c-0.3-5.12-0.67-10.17-2.26-15.08c-2.32-7.14-7.48-12.55-12.24-18.15
								c-1.73-2.04-2.95-4.78-4.17-7.15c-2.08-4.03-4.15-8.39-4.97-12.87c-0.13-0.72-0.26-1.58-0.39-2.56
								c3.98,2.61,8.89,1.19,12.77-1.48c4.86-3.34,7.63-9.41,8.17-15.04c0.18-1.94,0.21-3.81,0.12-5.64
								c0.93,0.48,2.04,0.55,3.03,0.28c-0.82,6.96-1.11,16.18,3.03,21.25c2.25,2.76,5.15,4.24,7.75,3.57
								c-0.26,2.01-0.42,3.35-0.45,3.83c-0.08,1.36,0.05,2.32,0.18,3.33c0.18,1.31,0.37,2.8,0.17,5.6
								c-0.34,4.82-7.26,18.48-7.26,18.48c0.09-0.15,1.08-1.79,2.34-4.1c0.08,13.99,0.16,27.99,0.24,41.98
								c0.06,10.61-0.88,23.03,5.6,32.13c0.16,2.98,0.43,5.84,0.57,6.27C262.33,533.37,262.71,534.56,262.8,536.21z M267.68,464.99
								c0.08,4.71-1.45,15.3-3.07,26.52c-1.57,10.85-3.18,22.01-3.39,28.44c-0.06,1.16-0.03,2.85,0.05,4.61
								c-6.67-9.93-4.85-23.79-4.92-35.17c-0.07-12.97-0.15-25.94-0.22-38.92c1.71-3.19,3.72-7.22,4.72-10.33
								C262.59,444.29,267.53,456.75,267.68,464.99z M266.24,370.61c1.41,19.12-4.1,41.05-5.62,52.92
								c-0.01,0.06-0.01,0.11-0.02,0.17c-3.48,1.11-7.64-2.17-9.03-6.2c-2.06-5.96-1.36-16.74-0.59-20.96
								c2.04-11.21,7.46-23.41,9.16-32.31c1.81-9.47,1.94-16.65,1.15-24.95C263.36,349.21,265.59,361.77,266.24,370.61z
								 M260.01,333.36c1.24,9.73,1.49,19.83-0.54,29.29c-1.94,9.05-7.7,22.61-9.38,34.16c-0.11,0.73-0.21,1.5-0.31,2.31
								c-1.02,0.35-2.23,0.24-3.15-0.41c-1.11-15.84-11.66-27.86-15.45-41.72c2.27-5.26,4.8-10.43,6.91-15.75
								c4.01-10.14,7.45-20.67,8.72-31.55c0.45-3.84,2.85-13.76-1.24-16.68c-0.8-0.57-2.26,0.05-2.74,0.77
								c-1.64,2.47-4.24,5.74-4.89,8.68c-2.1,9.46-2.98,18.99-6.11,28.27c-1.8,5.34-4.38,10.34-6.28,15.61
								c-1.88,5.18-2.97,10.67-3.76,16.12c-0.6,4.12-1,8.24-1.22,12.36c-1.08-5.69-2.42-11.41-3.57-16.33
								c-1.17-4.99-2.18-9.31-2.51-11.87c-0.63-4.93,0.07-9.98,0.38-11.87c6.54-0.89,8.92-6.47,11.04-11.44
								c0.74-1.73,1.44-3.37,2.28-4.84c2.99-5.18,5.36-9.92,7.45-14.1c2.49-4.97,4.53-9.02,6.74-12.16
								c0.04-0.02,0.07-0.03,0.11-0.06c3.13-2.07,6.03-4.56,8.93-6.98l0.08,0.29c0.01,0.04,0.42,1.3,0.98,3.32
								c-4.69,4.71-4.36,12.54-3.31,18.94c1.28,7.77,2.12,18.29,9.98,21.92C259.42,330.77,259.71,332.02,260.01,333.36z
								 M252.68,289.51c1.42,5.26,3.55,14.65,3.08,21.94c-0.24,3.72,1.17,9.34,2.96,16.45c0.08,0.3,0.15,0.61,0.23,0.93
								c-6.94-3.69-8.11-14.05-9.16-21.28C248.91,301.49,248.39,294.11,252.68,289.51z M249.2,265.81c1.7,2.68,4.55,7.18,4.03,11.43
								c-0.61,4.94-1.15,6.18-1.46,6.79c-1.97,1.62-3.93,3.24-5.93,4.82c-2.27,1.8-4.29,3.01-6.47,0.37
								c-1.55-1.89-3.75-4.58-4.26-7.09c-1.88-9.15,6.51-14.5,13.35-17.51C248.66,264.95,248.9,265.34,249.2,265.81z M250.75,227.26
								c-0.83,2.17-1.62,4.25-2.18,5.93c-0.62,0.78-1.3,1.5-2.02,2.18c0.48-2.61,0.6-5.31,0.53-7.76c0-0.03-0.01-0.05-0.02-0.08
								c1.79-0.75,3.41-1.84,4.8-3.24C251.5,225.29,251.12,226.28,250.75,227.26z M252.14,223.06c-1.76,2.06-4.02,3.55-6.57,4.36
								c0.99-2.39,1.66-4.76,1.96-7.28c1.81-0.7,3.5-1.69,5.03-2.98C252.56,219.42,252.37,221.65,252.14,223.06z M253.38,220.16
								c-0.01,0.02-0.17,0.57-0.46,1.38c0.62-5.64-0.16-11.55-2.64-16.45c2.27-1.79,4.29-3.88,5.79-5.63
								c0.12-0.14,0.23-0.28,0.34-0.42C255.78,205.37,254.61,216.46,253.38,220.16z M268.76,250.49
								c-0.38-10.42-2.2-20.01-5.26-24.87c-2.56-4.07-6.11-12.07-7.29-15.4c0-0.01,0-0.03-0.01-0.07c0.61-4.66,1.14-9.66,1.43-12.67
								c0.06-0.07,0.11-0.15,0.17-0.22c0.71,11.47,4.04,22.65,8.17,33.43c1.93,5.03,2.96,8.66,5.79,13.35
								c2.73,4.52,6.26,8.25,9.28,11.17c-1.4,2.38-2.42,4.29-3.3,6.8c-1.76-2.02-4.18-4.37-6.29-5.94
								C271.12,255.76,268.87,253.5,268.76,250.49z M277.57,291c-0.3-0.79-0.6-1.58-0.9-2.38c-2.92-7.71-5.93-15.69-6.12-20.19
								c-0.29-6.89,0.6-10.4,0.92-11.42c2.15,1.61,4.29,3.63,6.03,5.68c-0.28,0.87-0.55,1.8-0.82,2.86
								c-2.16,8.59-0.69,17.46,0.9,25.5C277.58,291.04,277.57,291.02,277.57,291z M279.4,296c-2.92-11.9-5.32-25.86,0.38-37.07
								c4.24-8.35,11.02-15.96,10.77-25.58c1.69,2.56,6.46,10.4,6.46,17.41v8.06c-1.06,10.82-6.72,19.96-10.34,30.02
								c-2.15,5.97-3.58,12.03-4.32,18.22c-0.04-0.32-0.06-0.65-0.12-0.98C281.5,301.75,280.39,298.55,279.4,296z M283.42,351.72
								c-0.51-1.47-0.76-3.35,0.3-4.97c1.59-2.43,3.88-6.61,5.15-8.99c0.03,1.15,0.09,2.45,0.16,3.64c-0.94,1.78-3.1,5.79-4.83,8.44
								C283.81,350.45,283.56,351.08,283.42,351.72z M285.65,357.26c-0.73-1.27-2.16-4.37-0.54-6.84c1.36-2.07,2.97-4.96,4.06-6.99
								c0.06,0.77,0.11,1.34,0.14,1.56c-0.26,0.93-1.93,6.89-2.26,10.68L285.65,357.26z M298.83,288.92
								c-0.89,7.34-3.87,15.65-3.52,25.49c0.54,15.43,0.22,29.36-0.25,31.57c-0.46,2.15-4.23,12.18-5.14,14.59
								c-0.67-0.37-1.84-1.36-1.84-3.76c0-3.64,2.28-11.57,2.3-11.65l0.03-0.11l-0.02-0.12c-0.01-0.07-1.05-7.05-0.37-9.97
								l0.03-0.14l-0.04-0.13c-0.54-1.87,0.3-6.27-2.27-7.24c-0.43-0.16-0.86-0.12-1.23,0.12c-1.57,1.01-1.87,3.23-2.18,5.57
								c-0.25,1.85-0.51,3.76-1.38,5.14c-1.3,2.06-2.25,2.52-2.71,2.52c-1.85-0.01-0.23-5.67-0.23-10.83c0-2,0.61-4.14,1.6-8.31
								c0.36-1.51,0.69-2.67,0.92-3.94c7.13-8.95,13.38-18.57,16.4-29.51C298.88,288.47,298.86,288.69,298.83,288.92z
								 M300.05,276.82c-0.1,1.65-0.37,3.46-0.52,5.05c-1.92,13.2-8.68,24.26-16.82,34.61c0.17-1.52,0.2-3.35-0.01-6.09
								c0.8-9.73,3.36-18.99,7.37-28.07c3.14-7.11,6.33-14.15,7.4-21.85C298.37,262.21,300.61,267.58,300.05,276.82z"/>
							<path d="M208.52,256.21c-3.87,1.18-7.72,2.4-11.57,3.64c-4.8,1.54-5.8-2.18-5.84-5.05c-0.04-2.75,1.46-5.29,3.23-7.33
								c2.96-3.43,8.04-4.5,12.44-4.76C211.98,242.39,213.56,254.51,208.52,256.21 M211.18,244.09c-2.82-4.68-11.92-0.97-15.35,1.25
								c-3.81,2.46-7.05,8.67-4.74,12.97c1.07,2,2.38,2.65,4.7,2.47c1.67-0.13,3.39-1,4.95-1.52c2.62-0.88,5.31-1.61,7.96-2.42
								c1.48-0.5,3.34-1.22,3.48-2.99C212.37,251.31,212.55,246.38,211.18,244.09"/>
							<path d="M216.87,256.27c-5.04-1.7-3.46-13.83,1.73-13.51c4.4,0.26,9.48,1.34,12.44,4.76c1.77,2.04,3.27,4.59,3.23,7.33
								c-0.04,2.88-1.04,6.59-5.84,5.05C224.59,258.68,220.74,257.45,216.87,256.27 M214.21,244.15c-1.38,2.29-1.2,7.22-1,9.75
								c0.14,1.77,2,2.49,3.48,2.99c2.65,0.81,5.34,1.54,7.96,2.42c1.56,0.53,3.28,1.39,4.95,1.52c2.32,0.18,3.63-0.46,4.7-2.47
								c2.31-4.3-0.92-10.51-4.74-12.97C226.13,243.19,217.03,239.48,214.21,244.15"/>
						</g>
					</g>
					<path d="M209.98,289.84c-0.12,4.11-0.24,8.22-0.37,12.33c-0.2,6.64-7.86-0.14-9.54-2.06c-4.75-7.01-6.02-16.21-7.6-24.37
						c-1.3-6.71,0.89-12.16,7.76-14.24c4.83-1.46,10.01-1.6,10.39,4.69C211.09,273.98,210.22,282.05,209.98,289.84 M210.48,261.49
						c-4.4-4.96-15.23,0.35-17.78,4.53c-2.77,4.55-0.58,11.42,0.39,15.97c1.36,6.39,2.72,12.99,6.45,18.47l0.03,0.03l0.02,0.04
						c2.34,2.7,5.7,4.99,9.29,5.59c2.41,0.41,1.48-7.18,1.51-8.06c0.22-7.54,0.91-15.07,1.08-22.61
						C211.5,273.65,212.99,264.32,210.48,261.49z"/>
					<path d="M214.76,266.2c0.37-6.29,5.56-6.15,10.39-4.69c6.87,2.08,9.06,7.52,7.76,14.24c-1.57,8.16-2.85,17.36-7.6,24.37
						c-1.68,1.92-9.35,8.7-9.54,2.06c-0.12-4.11-0.24-8.22-0.37-12.33C215.17,282.05,214.3,273.98,214.76,266.2 M215.01,298.06
						c0.03,0.88-0.9,8.47,1.51,8.06c3.59-0.61,6.95-2.89,9.29-5.59l0.02-0.04l0.03-0.03c3.73-5.48,5.08-12.08,6.45-18.47
						c0.97-4.55,2.55-11.1,0.39-15.97c-1.86-4.19-12.82-9.46-17.64-4.48c-2.73,2.83-1.23,10.44-1.12,13.91"/>
				</g>
			</g>
		</g>
	</g>
</g>
</svg>
