<?xml version="1.0" encoding="utf-8"?>
<!-- Generator: Adobe Illustrator 26.0.1, SVG Export Plug-In . SVG Version: 6.00 Build 0)  -->
<svg version="1.1" id="Layer_1" xmlns="http://www.w3.org/2000/svg" xmlns:xlink="http://www.w3.org/1999/xlink" x="0px" y="0px"
	 viewBox="0 0 432 648" style="enable-background:new 0 0 432 648;" xml:space="preserve">
<style type="text/css">
	.st0{fill:#FFFFFF;}
	.st1{fill:#E92A2A;}
	.st2{fill:#A89FA8;}
	.st3{fill:#998F99;}
	.st4{fill:#E9E7E9;}
</style>
<g>
	<g>
		<g id="Front_00000005950384167409047610000014115310968008115631_">
			<g>
				<g>
					<g>
						<g>
							<path class="st0" d="M280.54,259.13v-8.58c0-6.2-3.44-12.81-5.58-16.33c2.11-7.09,2.14-24.05,0.99-31.92
								c-0.7-4.78-4.03-8.68-5.68-11.18c0.03-0.19,0.07-0.38,0.1-0.58c0.9-5.78-3.02-19.97-5.38-25.96
								c-1.56-3.97-4.83-5.48-7.45-6.69c-1.42-0.65-2.64-1.22-3.34-2.03c-1.77-2.07-3.53-2.63-5.09-3.13
								c-0.41-0.13-0.8-0.26-1.18-0.41c-0.6-0.24-1.13-0.72-1.93-1.45c-1.36-1.24-3.42-3.1-7.81-5.65c-2.41-1.4-5.81-3.03-9.41-4.75
								c-5.89-2.82-12.77-6.08-14.41-8.1c-1.49-1.84-1.66-7.69-1.67-9.61c0.71-1.81,0.79-4.66,0.76-6.31
								c0.3,0.14,0.66,0.22,1.09,0.16c1.47-0.18,2.84-2.47,4.49-5.44c0.46-0.83,0.9-1.62,1.23-2.1c1.42-2.04,1.11-6.44,0.07-9.74
								c-0.3-0.96-0.82-1.52-1.54-1.65c-0.98-0.18-2.06,0.57-2.82,1.27c0.15-4.11,0.09-15.68-4.66-21.38
								c-4.09-4.91-12.27-6.13-15.37-6.42l-1.22,0c-3.1,0.29-11.28,1.51-15.37,6.42c-4.75,5.7-4.8,17.27-4.66,21.38
								c-0.77-0.71-1.84-1.45-2.82-1.27c-0.72,0.13-1.23,0.69-1.54,1.65c-1.04,3.3-1.35,7.71,0.07,9.74
								c0.33,0.48,0.77,1.26,1.23,2.1c1.65,2.97,3.02,5.26,4.49,5.44c0.43,0.05,0.79-0.02,1.09-0.16c-0.03,1.82,0.07,5.11,1,6.84
								c0,0,0,0.01,0.01,0.01c-0.04,1.36-0.33,7.17-1.91,9.12c-1.64,2.02-8.32,5.22-14.21,8.05c-3.6,1.72-7,3.35-9.41,4.75
								c-4.4,2.55-6.45,4.42-7.81,5.65c-0.8,0.73-1.33,1.21-1.93,1.45c-0.38,0.15-0.77,0.28-1.18,0.41
								c-1.55,0.5-3.32,1.06-5.09,3.13c-0.69,0.81-1.92,1.37-3.34,2.03c-2.62,1.21-5.89,2.71-7.45,6.69
								c-2.36,5.98-6.28,20.17-5.38,25.96c0.06,0.41,0.13,0.82,0.21,1.22c-1.67,2.48-4.66,6.1-5.34,10.76
								c-1.15,7.82-1.27,24.14,0.8,31.28c-2.11,3.39-5.84,10.29-5.84,16.75v8.58c-0.59,0.96-3.69,6.56-3.03,17.49
								c0.25,4.19,0.72,8.05,1.22,12.13c0.88,7.28,3.85,15.53,3.51,25.27c-0.52,14.85-0.31,29.02,0.27,31.76
								c0.54,2.51,5.18,14.72,5.37,15.23l0.17,0.45l0.47-0.12c0.03-0.01,2.81-0.8,3.05-4.47l1.48,1.69l0.39-0.55
								c0.09-0.12,1.39-1.97,1.76-4.27c0.83-1.4,2.54-4.98,0.55-8.02c-2.27-3.46-6.01-10.6-6.04-10.67l0,0
								c-0.01-0.24-0.03-0.45-0.06-0.59c0.56-4.24,0-5.79,1.58-6.38c0.13-0.05,0.2-0.03,0.28,0.02c1.15,0.74,1.42,2.71,1.7,4.8
								c0.26,1.96,0.54,3.98,1.54,5.56c1.17,1.85,2.97,4.24,5.07,2.49c1.38-1.15,0.17-9.05-0.16-11.39
								c-0.42-2.92-0.42-3.74-1.57-8.38c-0.74-2.95-1.18-4.48-1.37-5.84c-0.1-1.13,0.19-5.81,0.62-9.23
								c0.49-3.93,2.92-10.36,5.49-17.17c2.94-7.78,5.98-15.82,6.17-20.48c0.3-7.23-0.65-10.82-0.99-11.86
								c0.61-0.73,2.31-2.99,2.77-5.91c0.54-3.4,0.37-9.3,0.36-9.44c0.02-0.1,1.8-10.29,4.74-14.96c2.23-3.55,5.52-10.49,6.92-14.13
								c0.51,3.59,1.08,6.81,1.65,8.53c0.73,2.18,1.65,4.6,2.54,6.94c1.27,3.34,2.48,6.49,2.79,8.14
								c0.44,2.33,0.13,19.51,0.03,25.15c-0.02,1.21-0.04,2.01-0.04,2.2c0,0.01,0,0.01-0.01,0.02c-0.11,0.11-0.19,0.3-0.22,0.5
								c-0.23,0.41-0.58,0.97-0.91,1.49c-1.78,2.8-4.75,7.48-4.18,12.1c0.64,5.15,1.42,7.31,1.7,7.95
								c-0.59,1.86-4.89,15.95-4.23,26.12c0.23,3.55-1.16,9.08-2.93,16.08c-2.27,9.03-6.57,29.83-7.53,42.8
								c-1.42,19.19,4.09,41.14,5.61,53.01c0.33,2.54,0.54,4.22,0.57,4.73c0.07,1.25-0.04,2.12-0.18,3.12
								c-0.18,1.36-0.39,2.9-0.18,5.8c0.02,0.29,0.07,0.61,0.14,0.95c-0.74,1.67-7.28,16.67-7.45,26.46
								c-0.08,4.78,1.45,15.4,3.07,26.64c1.47,10.17,2.87,20.69,3.31,27.18l0.01,0.17c0.04,0.54,0.07,1.06,0.09,1.55
								c0.07,3.48-0.27,10.41-0.49,11.09c-0.52,1.59-1.01,3.1-0.97,5.44c-0.14,0.14-0.28,0.27-0.43,0.39c-1.92,1.64-2.7,3.86-3.46,6
								c-0.25,0.7-0.48,1.37-0.75,2c-1.04,2.43-10.24,10.01-11.5,10.81c-0.99,0.62-3.5,4.3-3.5,4.3c-0.94,1.01-0.65,2.66-0.46,3.76
								c0.03,0.19,0.07,0.37,0.09,0.53c0.08,0.58,0.26,0.99,0.4,1.31c0.13,0.28,0.22,0.49,0.22,0.74c0.01,0.34-0.05,0.75-0.1,1.14
								c-0.05,0.36-0.1,0.72-0.11,1.06c-0.01,0.61,0.02,2.09,0.61,2.58c0.34,0.28,0.66,0.48,1.13,0.56c-0.05,0.15-0.12,0.35-0.2,0.6
								c-0.37,1.09,0.45,2.2,1.05,2.64c0.43,0.32,1.11,0.35,1.58,0.32c0,0.09,0.02,0.15,0.03,0.2c0.07,0.77,0.33,1.83,1.32,2.3
								c1,0.47,1.51,0.36,2.09,0.08c1.14,1.58,3.47,2.55,5.57,2.34c0.27-0.03,0.54-0.07,0.8-0.14c2.15-0.55,4.86-2.41,5.86-4.9
								c0.8-2,1.98-2.66,3.02-3.11c4.3-1.35,6.65-6.14,7.27-10.59c0.55-3.93,3.07-8.2,3.72-9.08c3-1.26,4.78-2.85,6.32-5.11
								c1.62-2.37,1.68-3.88,1.23-5.84c-0.43-1.87-1.6-10.66-2-12.03c-0.36-1.2-0.52-2.42-0.8-3.91
								c-0.87-4.64,4.89-28.58,6.58-33.24c0.65-1.79,1.58-3.74,2.66-6c1.83-3.83,4.1-8.59,5.91-14.62
								c2.75-9.12-1.59-29.31-2.12-31.7c1.6-2.8,3.01-5.7,4.24-8.65c0.98-2.37,1.91-4.82,2.37-7.35c0.69-3.73,1.28-10.8,1.97-18.98
								c0.61-7.23,1.3-15.42,2.14-21.96c1.04-8.07,3.17-17.19,4.89-24.51c1.18-5.01,2.19-9.34,2.52-11.95
								c0.62-4.88,0.01-9.74-0.34-11.87c0.38,0.04,1.49,0.05,1.76,0c-0.35,2.12-0.96,6.99-0.34,11.87
								c0.33,2.61,1.35,6.94,2.52,11.95c1.72,7.32,3.85,16.44,4.89,24.51c0.84,6.54,1.53,14.73,2.14,21.96
								c0.69,8.18,1.28,15.25,1.97,18.98c0.47,2.53,1.39,4.99,2.37,7.35c1.23,2.96,2.65,5.86,4.24,8.65
								c-0.53,2.39-4.87,22.57-2.12,31.7c1.82,6.03,4.09,10.79,5.91,14.62c1.08,2.26,2.01,4.21,2.66,6
								c1.69,4.66,7.45,28.6,6.58,33.24c-0.28,1.49-0.44,2.71-0.8,3.91c-0.41,1.37-1.57,10.16-2,12.03
								c-0.45,1.96-0.39,3.47,1.23,5.84c1.54,2.26,3.32,3.85,6.32,5.11c0.66,0.88,3.17,5.15,3.72,9.08
								c0.62,4.45,2.97,9.24,7.27,10.59c1.04,0.45,2.22,1.11,3.02,3.11c1,2.49,3.71,4.35,5.86,4.9c0.26,0.07,0.53,0.11,0.8,0.14
								c2.09,0.2,4.42-0.76,5.57-2.34c0.59,0.28,1.09,0.4,2.09-0.08c1.07-0.51,1.29-1.73,1.33-2.5c0.47,0.03,1.16,0,1.59-0.32
								c0.6-0.45,1.42-1.56,1.05-2.64c-0.08-0.22-0.14-0.41-0.19-0.56l0,0c0-0.01-0.01-0.02-0.01-0.04
								c0.47-0.09,0.79-0.28,1.13-0.56c0.59-0.49,0.63-1.96,0.61-2.58c-0.01-0.34-0.06-0.7-0.11-1.06c-0.05-0.39-0.11-0.8-0.1-1.14
								c0-0.25,0.1-0.46,0.22-0.74c0.14-0.32,0.32-0.73,0.4-1.31c0.02-0.16,0.05-0.34,0.09-0.53c0.19-1.1,0.48-2.75-0.46-3.76
								c0,0-2.51-3.68-3.5-4.3c-1.27-0.79-10.47-8.38-11.5-10.81c-0.27-0.63-0.5-1.29-0.75-2c-0.75-2.14-1.53-4.36-3.46-6
								c-0.14-0.12-0.28-0.25-0.43-0.39c0.04-2.34-0.45-3.85-0.97-5.44c-0.22-0.68-0.56-7.61-0.49-11.09c0.02-0.48,0.05-1,0.09-1.55
								c0.01-0.06,0.02-0.12,0.03-0.17l-0.02,0c0.44-6.49,1.84-17.01,3.31-27.18c1.62-11.24,3.15-21.85,3.07-26.64
								c-0.17-9.73-6.62-24.59-7.43-26.42c0.09-0.41,0.15-0.8,0.17-1.14c0.21-2.9,0-4.44-0.18-5.8c-0.13-1-0.25-1.87-0.18-3.12
								c0.03-0.51,0.25-2.19,0.57-4.73c1.52-11.87,7.02-33.82,5.61-53.01c-0.96-12.97-5.26-33.77-7.53-42.8
								c-1.76-7-3.16-12.54-2.93-16.08c0.66-10.17-3.65-24.26-4.23-26.12c0.28-0.65,1.07-2.8,1.7-7.95c0.57-4.62-2.4-9.3-4.18-12.1
								c-0.52-0.82-1.11-1.75-1.14-2.01c0-0.2-0.01-1-0.04-2.2c-0.1-5.64-0.41-22.82,0.03-25.15c0.31-1.65,1.51-4.8,2.79-8.14
								c0.89-2.34,1.82-4.76,2.54-6.94c0.55-1.66,1.08-4.76,1.58-8.21c0-0.01,0-0.01,0-0.02c1.43,3.55,4.63,10.07,6.7,13.73
								c3.64,6.45,4.89,16.98,5.1,24.41c0.08,2.96,2.16,5.18,2.77,5.91c-0.34,1.04-1.3,4.63-0.99,11.86
								c0.19,4.67,3.23,12.71,6.17,20.48c2.57,6.81,5,13.24,5.49,17.17c0.35,2.84,0.7,4.67,0.73,6.07c0.02,1.34,0.01,2.69-0.12,4.03
								c-0.12,1.24-0.64,2.71-1.27,5.23c-1.16,4.63-1.16,5.45-1.57,8.38c-0.33,2.34-1.55,10.24-0.16,11.39
								c2.1,1.75,3.9-0.64,5.07-2.49c1-1.58,1.27-3.6,1.54-5.56c0.28-2.09,0.55-4.07,1.7-4.8c0.08-0.05,0.15-0.07,0.28-0.02
								c1.58,0.59,1.02,2.14,1.58,6.38c-0.03,0.15-0.05,0.35-0.06,0.59l0,0c-0.04,0.07-3.78,7.21-6.04,10.67
								c-1.99,3.04-0.28,6.62,0.55,8.02c0.37,2.29,1.67,4.15,1.76,4.27l0.39,0.55l1.48-1.69c0.24,3.67,3.02,4.46,3.05,4.47
								l0.47,0.12l0.17-0.45c0.2-0.52,4.84-12.73,5.37-15.23c0.59-2.74,0.8-16.91,0.27-31.76c-0.34-9.74,2.63-17.99,3.51-25.27
								c0.5-4.09,0.97-7.95,1.22-12.13C284.23,265.69,281.14,260.1,280.54,259.13z"/>
						</g>
					</g>
				</g>
			</g>
		</g>
	</g>
	<g>
		<g id="Scm_00000162322887259074223320000005134647122668849332_">
			<path class="st1" d="M199.33,167.24c1.48-3.85,7.36-19.45,9.21-23.92c2.1-5.08,3.43-16.23,3.43-16.32v-0.16
				c-0.09-0.86,0.02-2.26-0.03-2.9c-0.8,0.87-2.5,2.08-3.81,3.21l-0.21,0.53c-2.11,7.3-4.13,12.4-5.81,16.48
				c-1.14,2.78-2.14,5.19-2.85,7.6c-1.41,4.81-0.72,10.6-0.33,13.16L199.33,167.24z"/>
			<path class="st1" d="M191.64,166.11c0.39-2.56,1.13-9.4-0.29-14.21c-0.71-2.41-1.72-5-2.86-7.78c-1.68-4.08-3.69-8.84-5.79-16.14
				l-0.15-0.35c-1.31-1.12-2.53-2.21-3.33-3.09c-0.04,0.64-0.18,1.61-0.27,2.47v0.16c0,0.09,1.14,10.88,3.24,15.96
				c1.85,4.46,7.68,19.75,9.16,23.59L191.64,166.11z"/>
		</g>
		<g id="Front_00000086685763129939668640000010414093469771917499_">
			<path class="st2" d="M195.36,139.57c-0.88-0.07-1.76-0.26-2.59-0.56c-0.17-1.54-0.35-3.11-0.54-4.72c0.44,0.1,0.9,0.18,1.36,0.24
				c0.36,0.05,0.72,0.08,1.06,0.11h1.43c0.33-0.03,0.69-0.06,1.04-0.11c0.45-0.06,0.9-0.13,1.32-0.23
				c-0.19,1.61-0.37,3.18-0.54,4.72C197.08,139.32,196.22,139.5,195.36,139.57 M198.58,138.75c0.17-1.54,0.35-3.09,0.53-4.63
				c0.08-0.02,0.15-0.05,0.22-0.08c0.51-0.18,1.46-0.77,2.63-1.58c-0.13,1.6-0.38,3.18-0.7,4.74
				C200.42,137.81,199.52,138.34,198.58,138.75 M192.08,138.73c-0.94-0.42-1.84-0.96-2.7-1.56c-0.32-1.56-0.57-3.14-0.69-4.74
				c1.2,0.83,2.17,1.43,2.69,1.62c0.06,0.02,0.11,0.04,0.17,0.06C191.73,135.64,191.9,137.19,192.08,138.73 M202.08,136.61
				c0.28-1.53,0.49-3.07,0.59-4.64c1.5-1.07,3.24-2.42,4.85-3.77c-0.5,1.69-1,3.26-1.48,4.72c-0.49,0.55-1.01,1.08-1.54,1.59
				C203.74,135.23,202.93,135.95,202.08,136.61 M188.58,136.56c-0.83-0.65-1.61-1.35-2.35-2.05c-0.53-0.51-1.05-1.04-1.54-1.59
				c-0.49-1.46-0.99-3.03-1.49-4.72c1.59,1.33,3.32,2.67,4.8,3.73C188.09,133.5,188.29,135.04,188.58,136.56"/>
			<path class="st3" d="M189.38,137.16c-0.27-0.19-0.54-0.39-0.81-0.6c-0.28-1.52-0.49-3.07-0.58-4.63
				c0.24,0.17,0.47,0.33,0.69,0.49C188.81,134.02,189.06,135.6,189.38,137.16"/>
			<path class="st3" d="M192.77,139.01c-0.12-0.04-0.23-0.09-0.35-0.13s-0.23-0.1-0.35-0.15c-0.17-1.54-0.35-3.08-0.53-4.63
				c0.22,0.07,0.44,0.13,0.68,0.19C192.42,135.9,192.6,137.47,192.77,139.01"/>
			<path class="st3" d="M201.27,137.21c0.32-1.56,0.57-3.14,0.7-4.74c0.22-0.15,0.45-0.32,0.69-0.49c-0.09,1.56-0.3,3.11-0.59,4.64
				C201.81,136.81,201.54,137.01,201.27,137.21"/>
			<path class="st3" d="M197.89,139.03c0.17-1.54,0.35-3.11,0.54-4.72c0.24-0.05,0.46-0.11,0.68-0.18
				c-0.18,1.55-0.36,3.09-0.53,4.63c-0.1,0.04-0.19,0.08-0.29,0.12C198.16,138.93,198.03,138.98,197.89,139.03"/>
			<path class="st4" d="M193.63,169.94c-0.11-0.21-0.23-0.41-0.36-0.61c-0.06-0.09-0.12-0.18-0.18-0.27
				c0.5-7.86-0.1-15.14-1.81-21.66c-0.25-0.96-0.51-1.92-0.77-2.87c-0.71-2.6-1.44-5.25-1.94-7.96c0.26,0.21,0.53,0.41,0.81,0.6
				c0.44,2.12,1,4.2,1.56,6.25c0.69,2.55,1.41,5.18,1.86,7.85c1.06,6.2,1.36,12.25,0.91,18.49
				C193.7,169.82,193.67,169.88,193.63,169.94"/>
			<path class="st4" d="M194.76,174.23c-0.08-0.81-0.2-1.59-0.4-2.33c0.51-5.35-0.03-10.81-0.55-16.11
				c-0.09-0.87-0.17-1.74-0.25-2.61c-0.44-4.74-0.94-9.58-1.49-14.45c0.11,0.05,0.23,0.1,0.35,0.15s0.23,0.09,0.35,0.13
				c0.65,5.81,1.19,11.15,1.63,16.18c0.06,0.7,0.12,1.39,0.19,2.09C195.1,162.84,195.62,168.57,194.76,174.23"/>
			<path class="st4" d="M197.68,169.19c-0.51-7.89-0.01-15.26,1.7-21.8c0.25-0.96,0.51-1.92,0.77-2.87
				c0.71-2.58,1.43-5.22,1.93-7.92c-0.26,0.2-0.53,0.4-0.81,0.6c-0.43,2.11-0.99,4.17-1.55,6.2c-0.69,2.55-1.41,5.18-1.86,7.85
				c-1.06,6.2-1.22,12.82-0.77,19.07L197.68,169.19z"/>
			<path class="st4" d="M196.06,173.87c-0.91-5.73-0.5-10.97,0.02-16.6c0.06-0.69,0.13-1.39,0.19-2.08
				c0.44-5.04,0.98-10.36,1.63-16.16c0.14-0.05,0.27-0.1,0.4-0.15c0.1-0.04,0.19-0.08,0.29-0.12c-0.54,4.87-1.04,9.7-1.48,14.43
				c-0.08,0.87-0.17,1.73-0.25,2.6c-0.53,5.35-0.98,11.14-0.45,16.54c-0.19,0.76-0.02,0.6-0.09,1.43L196.06,173.87z"/>
			<g>
				<path class="st2" d="M226.68,446.75c0.45,0,0.9-0.03,1.34-0.11c2.29-0.38,3.99-1.69,5.46-3.28c-0.01,0-0.02,0-0.02,0l-0.21,0.01
					c-3.06,0-13.46-8.47-15.79-11.06c0,0,13.54,10,15.75,10c0.03,0,0.06,0,0.09-0.01c1.84-0.28,7.1-8.92,7.21-9.1h0
					c0,0-0.08,0.14-0.24,0.38c-1.75,1.9-4.24,3.2-6.83,3.2c-0.14,0-0.27,0-0.41-0.01c-2.84-0.15-5.61-2.09-6.31-4.82
					c-0.52-2.03,0.11-4.22,1.23-6c1.13-1.78,2.71-3.22,4.27-4.64c-3.26,1.09-4.78,1.77-6.52,2.97c-1.26,0.87-5.26,2.74-8.19,2.74
					c-1.1,0-2.05-0.26-2.65-0.95c-0.6-0.69-1.21-1.37-1.68-2.15c-0.26-0.43-0.53-0.86-0.79-1.3c-0.4-0.02-0.81-0.07-1.2-0.15
					c-1.03-0.19-2.04-0.57-2.99-1.17c0.13,0.96,0.25,1.8,0.38,2.51c0.82,4.48,2.89,8.83,4.96,12.85c0.34,0.65,0.67,1.33,1.02,2.02
					c0.93,1.81,1.93,3.67,3.21,5.16l0.1,0.11c0.8,0.35,1.59,0.68,2.31,1C222.24,445.91,224.45,446.75,226.68,446.75"/>
				<path class="st2" d="M164.26,446.75c-0.45,0-0.9-0.03-1.34-0.11c-2.29-0.38-3.99-1.69-5.46-3.28c0.01,0,0.02,0,0.02,0l0.21,0.01
					c3.06,0,13.46-8.47,15.79-11.06c0,0-13.54,10-15.75,10c-0.03,0-0.06,0-0.09-0.01c-1.84-0.28-7.1-8.92-7.21-9.1h0
					c0,0,0.08,0.14,0.24,0.38c1.75,1.9,4.24,3.2,6.83,3.2c0.14,0,0.27,0,0.41-0.01c2.84-0.15,5.61-2.09,6.31-4.82
					c0.52-2.03-0.11-4.22-1.23-6c-1.13-1.78-2.71-3.22-4.27-4.64c3.26,1.09,4.78,1.77,6.52,2.97c1.26,0.87,5.26,2.74,8.19,2.74
					c1.1,0,2.05-0.26,2.65-0.95c0.6-0.69,1.21-1.37,1.68-2.15c0.26-0.43,0.53-0.86,0.79-1.3c0.4-0.02,0.81-0.07,1.2-0.15
					c1.03-0.19,2.04-0.57,2.99-1.17c-0.13,0.96-0.25,1.8-0.38,2.51c-0.82,4.48-2.89,8.83-4.96,12.85c-0.34,0.65-0.67,1.33-1.02,2.02
					c-0.93,1.81-1.93,3.67-3.21,5.16l-0.1,0.11c-0.8,0.35-1.59,0.68-2.31,1C168.7,445.91,166.49,446.75,164.26,446.75"/>
				<g>
					<g>
						<path d="M189.08,239.54c-3.32,0.51-6.34,1.66-9.5,2.75c-8.46,2.92-5.46-7.98-3.14-11.72c2.68-4.32,8.12-6.8,13.03-7.71
							c5.86-1.08,4.53,5.85,4.44,8.47C193.8,234.86,194.11,238.89,189.08,239.54 M194.57,231.38c0.07-1.93,0.19-3.85,0.04-5.78
							c-0.52-6.75-10.97-1.77-13.75-0.09c-5.36,3.23-8.22,9.53-7.48,15.58c0.15,1.23,1.13,2.86,2.64,2.69
							c4.54-0.51,8.64-2.92,13.18-3.62c2.37-0.31,3.83-0.73,4.91-2.84C194.91,235.76,194.51,233.05,194.57,231.38"/>
						<path d="M201.46,239.54c-5.09-0.66-4.79-4.69-4.92-8.22c-0.1-2.62-1.47-9.55,4.48-8.45c4.98,0.92,10.49,3.41,13.22,7.73
							c2.36,3.74,5.43,14.65-3.15,11.71C207.89,241.22,204.82,240.06,201.46,239.54 M195.89,231.37c0.06,1.67-0.34,4.38,0.47,5.94
							c1.1,2.11,2.58,2.54,4.98,2.85c4.6,0.71,8.76,3.13,13.36,3.65c1.53,0.17,2.52-1.45,2.67-2.68c0.74-6.06-2.17-12.35-7.61-15.6
							c-2.82-1.68-13.42-6.69-13.93,0.06C195.69,227.52,195.82,229.44,195.89,231.37"/>
						<path d="M187.44,219.92c-2.79,1.66-12.74,8.15-13.48,1.48c-0.64-5.77,1.06-9.85,6.39-12.45c3.25-1.59,8.42-4.63,12-4.02
							c2.46,1.44,1.47,6.19,1.07,8.35C192.8,216.57,190.12,218.32,187.44,219.92 M192.76,204.34c-0.76-0.32-1.74-0.2-2.52-0.08
							c-1.33,0.2-2.58,0.71-3.79,1.26c-0.32,0.14-0.64,0.29-0.96,0.44c-2.78,1.29-6.19,2.22-8.59,4.19
							c-2.46,2.02-3.42,4.25-3.73,7.38c-0.16,1.59-0.5,6.79,1,8.06c1.78,1.51,3.92-0.22,5.7-1.06c3.68-1.75,8.57-3.47,11.5-6.38
							c2.31-2.29,3.64-6.22,3.54-9.43c-0.05-1.45-0.54-3.39-1.85-4.22L192.76,204.34"/>
						<path d="M202.72,219.94c-2.68-1.59-5.36-3.35-5.98-6.65c-0.4-2.16-1.4-6.91,1.07-8.35c3.58-0.6,8.76,2.43,12,4.02
							c5.33,2.61,7.03,6.69,6.39,12.45C215.46,228.1,205.51,221.6,202.72,219.94 M197.4,204.37l-0.31,0.16
							c-1.3,0.83-1.8,2.77-1.85,4.22c-0.1,3.21,1.23,7.14,3.54,9.43c2.94,2.91,7.82,4.63,11.5,6.38c1.78,0.85,3.92,2.57,5.7,1.06
							c1.51-1.27,1.16-6.47,1-8.06c-0.31-3.13-1.28-5.36-3.73-7.38c-2.4-1.97-5.81-2.9-8.59-4.19c-0.32-0.15-0.64-0.3-0.96-0.44
							c-1.21-0.55-2.47-1.06-3.79-1.26C199.14,204.17,198.16,204.05,197.4,204.37"/>
						<g>
							<path d="M157.61,443.38l-0.21-0.01c-0.01,0-0.02,0-0.02,0c0,0-0.01-0.01-0.01-0.01c-2.66-0.47-7.55-8.95-7.55-10.14h0.53
								c0.11,0.18,5.37,8.81,7.21,9.1c0.03,0,0.05,0.01,0.09,0.01c2.2,0,15.75-10,15.75-10
								C171.07,434.92,160.67,443.38,157.61,443.38"/>
							<path d="M233.17,443.38l0.21-0.01c0.01,0,0.02,0,0.02,0c0,0,0.01-0.01,0.01-0.01c2.66-0.47,7.55-8.95,7.55-10.14h-0.53
								c-0.11,0.18-5.37,8.81-7.21,9.1c-0.03,0-0.05,0.01-0.09,0.01c-2.2,0-15.75-10-15.75-10
								C219.71,434.92,230.11,443.38,233.17,443.38"/>
							<path d="M280.55,259.11v-8.58c0-6.2-3.44-12.81-5.58-16.33c2.11-7.09,2.14-24.05,0.99-31.92c-0.7-4.78-4.03-8.68-5.68-11.18
								c0.03-0.19,0.07-0.38,0.1-0.58c0.9-5.78-3.02-19.97-5.38-25.96c-1.56-3.97-4.83-5.48-7.45-6.69
								c-1.42-0.65-2.64-1.22-3.34-2.03c-1.77-2.07-3.53-2.63-5.09-3.13c-0.41-0.13-0.8-0.26-1.18-0.41
								c-0.6-0.24-1.13-0.72-1.93-1.45c-1.36-1.24-3.42-3.1-7.81-5.65c-2.41-1.4-5.81-3.03-9.41-4.75
								c-5.89-2.82-12.77-6.08-14.41-8.1c-1.49-1.84-1.66-7.69-1.67-9.61c0.71-1.81,0.79-4.66,0.76-6.31
								c0.3,0.14,0.66,0.22,1.09,0.16c1.47-0.18,2.84-2.47,4.49-5.44c0.46-0.83,0.9-1.62,1.23-2.1c1.42-2.04,1.11-6.44,0.07-9.74
								c-0.3-0.96-0.82-1.52-1.54-1.65c-0.98-0.18-2.06,0.57-2.82,1.27c0.15-4.11,0.09-15.68-4.66-21.38
								c-4.09-4.91-12.27-6.13-15.37-6.42l-1.22,0c-3.1,0.29-11.28,1.51-15.37,6.42c-4.75,5.7-4.8,17.27-4.66,21.38
								c-0.77-0.71-1.84-1.45-2.82-1.27c-0.72,0.13-1.23,0.69-1.54,1.65c-1.04,3.3-1.35,7.71,0.07,9.74
								c0.33,0.48,0.77,1.26,1.23,2.1c1.65,2.97,3.02,5.26,4.49,5.44c0.43,0.05,0.79-0.02,1.09-0.16c-0.03,1.82,0.07,5.11,1,6.84
								c0,0,0,0.01,0.01,0.01c-0.04,1.36-0.33,7.17-1.91,9.12c-1.64,2.02-8.32,5.22-14.21,8.05c-3.6,1.72-7,3.35-9.41,4.75
								c-4.4,2.55-6.45,4.42-7.81,5.65c-0.8,0.73-1.33,1.21-1.93,1.45c-0.38,0.15-0.77,0.28-1.18,0.41
								c-1.55,0.5-3.32,1.06-5.09,3.13c-0.69,0.81-1.92,1.37-3.34,2.03c-2.62,1.21-5.89,2.71-7.45,6.69
								c-2.36,5.98-6.28,20.17-5.38,25.96c0.06,0.41,0.13,0.82,0.21,1.22c-1.67,2.48-4.66,6.1-5.34,10.76
								c-1.15,7.82-1.27,24.14,0.8,31.28c-2.11,3.39-5.84,10.29-5.84,16.75v8.58c-0.59,0.96-3.69,6.56-3.03,17.49
								c0.25,4.19,0.72,8.05,1.22,12.13c0.88,7.28,3.85,15.53,3.51,25.27c-0.52,14.85-0.31,29.02,0.27,31.76
								c0.54,2.51,5.18,14.72,5.37,15.23l0.17,0.45l0.47-0.12c0.03-0.01,2.81-0.8,3.05-4.47l1.48,1.69l0.39-0.55
								c0.09-0.12,1.39-1.97,1.76-4.27c0.83-1.4,2.54-4.98,0.55-8.02c-2.27-3.46-6.01-10.6-6.04-10.67l0,0
								c-0.01-0.24-0.03-0.45-0.06-0.59c0.56-4.24,0-5.79,1.58-6.38c0.13-0.05,0.2-0.03,0.28,0.02c1.15,0.74,1.42,2.71,1.7,4.8
								c0.26,1.96,0.54,3.98,1.54,5.56c1.17,1.85,2.97,4.24,5.07,2.49c1.38-1.15,0.17-9.05-0.16-11.39
								c-0.42-2.92-0.42-3.74-1.57-8.38c-0.74-2.95-1.18-4.48-1.37-5.84c-0.1-1.13,0.19-5.81,0.62-9.23
								c0.49-3.93,2.92-10.36,5.49-17.17c2.94-7.78,5.98-15.82,6.17-20.48c0.3-7.23-0.65-10.82-0.99-11.86
								c0.61-0.73,2.31-2.99,2.77-5.91c0.54-3.4,0.37-9.3,0.36-9.44c0.02-0.1,1.8-10.29,4.74-14.96c2.23-3.55,5.52-10.49,6.92-14.13
								c0.51,3.59,1.08,6.81,1.65,8.53c0.73,2.18,1.65,4.6,2.54,6.94c1.27,3.34,2.48,6.49,2.79,8.14
								c0.44,2.33,0.13,19.51,0.03,25.15c-0.02,1.21-0.04,2.01-0.04,2.2c0,0.01,0,0.01-0.01,0.02c-0.11,0.11-0.19,0.3-0.22,0.5
								c-0.23,0.41-0.58,0.97-0.91,1.49c-1.78,2.8-4.75,7.48-4.18,12.1c0.64,5.15,1.42,7.31,1.7,7.95
								c-0.59,1.86-4.89,15.95-4.23,26.12c0.23,3.55-1.16,9.08-2.93,16.08c-2.27,9.03-6.57,29.83-7.53,42.8
								c-1.42,19.19,4.09,41.14,5.61,53.01c0.33,2.54,0.54,4.22,0.57,4.73c0.07,1.25-0.04,2.12-0.18,3.12
								c-0.18,1.36-0.39,2.9-0.18,5.8c0.02,0.29,0.07,0.61,0.14,0.95c-0.74,1.67-7.28,16.67-7.45,26.46
								c-0.08,4.78,1.45,15.4,3.07,26.64c1.47,10.17,2.86,20.69,3.31,27.18l0.01,0.17c0.04,0.54,0.07,1.06,0.09,1.55
								c0.07,3.48-0.27,10.41-0.49,11.09c-0.52,1.59-1.01,3.1-0.97,5.44c-0.14,0.14-0.28,0.27-0.43,0.39c-1.92,1.64-2.7,3.86-3.46,6
								c-0.25,0.7-0.48,1.37-0.75,2c-1.04,2.43-10.24,10.01-11.5,10.81c-0.99,0.62-3.5,4.3-3.5,4.3c-0.94,1.01-0.65,2.66-0.46,3.76
								c0.03,0.19,0.07,0.37,0.09,0.53c0.08,0.58,0.26,0.99,0.4,1.31c0.13,0.28,0.22,0.49,0.22,0.74c0.01,0.34-0.05,0.75-0.1,1.14
								c-0.05,0.36-0.1,0.72-0.11,1.06c-0.01,0.61,0.02,2.09,0.61,2.58c0.34,0.28,0.66,0.48,1.13,0.56c-0.05,0.15-0.12,0.35-0.2,0.6
								c-0.37,1.09,0.45,2.2,1.05,2.64c0.43,0.32,1.11,0.35,1.58,0.32c0,0.09,0.02,0.15,0.03,0.2c0.07,0.77,0.33,1.83,1.32,2.3
								c1,0.47,1.51,0.36,2.09,0.08c1.14,1.58,3.47,2.54,5.57,2.34c0.27-0.03,0.54-0.07,0.8-0.14c2.15-0.55,4.86-2.41,5.86-4.9
								c0.8-2,1.98-2.66,3.02-3.11c4.3-1.35,6.65-6.14,7.27-10.59c0.55-3.93,3.07-8.2,3.72-9.08c3-1.26,4.78-2.85,6.32-5.11
								c1.62-2.37,1.68-3.88,1.23-5.84c-0.43-1.87-1.6-10.66-2-12.03c-0.36-1.2-0.52-2.42-0.8-3.91
								c-0.87-4.64,4.89-28.58,6.58-33.24c0.65-1.79,1.58-3.74,2.66-6c1.83-3.83,4.1-8.59,5.91-14.62
								c2.75-9.12-1.59-29.31-2.12-31.7c1.6-2.8,3.01-5.7,4.24-8.65c0.98-2.37,1.91-4.82,2.37-7.35c0.69-3.73,1.28-10.8,1.97-18.98
								c0.61-7.23,1.3-15.42,2.14-21.96c1.04-8.07,3.17-17.19,4.89-24.51c1.18-5.01,2.19-9.34,2.52-11.95
								c0.62-4.88,0.01-9.74-0.34-11.87c0.38,0.04,1.49,0.05,1.76,0c-0.35,2.12-0.96,6.99-0.34,11.87
								c0.33,2.61,1.35,6.94,2.52,11.95c1.72,7.32,3.85,16.44,4.89,24.51c0.84,6.54,1.53,14.73,2.14,21.96
								c0.69,8.18,1.28,15.25,1.97,18.98c0.47,2.53,1.39,4.99,2.37,7.35c1.23,2.96,2.65,5.86,4.24,8.65
								c-0.53,2.39-4.87,22.57-2.12,31.7c1.82,6.03,4.09,10.79,5.91,14.62c1.08,2.26,2.01,4.21,2.66,6
								c1.69,4.66,7.45,28.6,6.58,33.24c-0.28,1.49-0.44,2.71-0.8,3.91c-0.41,1.37-1.57,10.16-2,12.03
								c-0.45,1.96-0.39,3.47,1.23,5.84c1.54,2.26,3.32,3.85,6.32,5.11c0.66,0.88,3.17,5.15,3.72,9.08
								c0.62,4.45,2.97,9.24,7.27,10.59c1.04,0.45,2.22,1.11,3.02,3.11c1,2.49,3.71,4.35,5.86,4.9c0.26,0.07,0.53,0.11,0.8,0.14
								c2.09,0.2,4.42-0.76,5.57-2.34c0.59,0.28,1.09,0.4,2.09-0.08c1.07-0.51,1.29-1.73,1.33-2.5c0.47,0.03,1.16,0,1.59-0.32
								c0.6-0.45,1.42-1.56,1.05-2.64c-0.08-0.22-0.14-0.41-0.19-0.56l0,0c0-0.01-0.01-0.02-0.01-0.04
								c0.47-0.09,0.79-0.28,1.13-0.56c0.59-0.49,0.63-1.96,0.61-2.58c-0.01-0.34-0.06-0.7-0.11-1.06c-0.05-0.39-0.11-0.8-0.1-1.14
								c0-0.26,0.1-0.46,0.22-0.74c0.14-0.32,0.32-0.73,0.4-1.31c0.02-0.16,0.05-0.34,0.09-0.53c0.19-1.1,0.48-2.75-0.46-3.76
								c0,0-2.51-3.68-3.5-4.3c-1.27-0.79-10.47-8.38-11.5-10.81c-0.27-0.63-0.5-1.29-0.75-2c-0.75-2.14-1.53-4.36-3.46-6
								c-0.14-0.12-0.28-0.25-0.43-0.39c0.04-2.34-0.45-3.85-0.97-5.44c-0.22-0.68-0.56-7.61-0.49-11.09c0.02-0.48,0.05-1,0.09-1.55
								c0.01-0.06,0.02-0.12,0.03-0.17l-0.02,0c0.44-6.49,1.84-17.01,3.31-27.18c1.62-11.24,3.15-21.85,3.07-26.64
								c-0.17-9.73-6.62-24.59-7.43-26.42c0.09-0.41,0.15-0.8,0.17-1.14c0.21-2.9,0-4.44-0.18-5.8c-0.13-1-0.25-1.87-0.18-3.12
								c0.03-0.51,0.25-2.19,0.57-4.73c1.52-11.87,7.02-33.82,5.61-53.01c-0.96-12.97-5.26-33.77-7.53-42.8
								c-1.76-7-3.16-12.54-2.93-16.08c0.66-10.17-3.65-24.26-4.23-26.12c0.28-0.65,1.07-2.8,1.7-7.95c0.57-4.62-2.4-9.3-4.18-12.1
								c-0.52-0.82-1.11-1.75-1.14-2.01c0-0.2-0.01-1-0.04-2.2c-0.1-5.64-0.41-22.82,0.03-25.15c0.31-1.65,1.51-4.8,2.79-8.14
								c0.89-2.34,1.82-4.76,2.54-6.94c0.55-1.66,1.08-4.76,1.58-8.21c0-0.01,0-0.01,0-0.02c1.43,3.55,4.63,10.07,6.7,13.73
								c3.64,6.45,4.89,16.98,5.1,24.41c0.08,2.96,2.16,5.18,2.77,5.91c-0.34,1.04-1.3,4.63-0.99,11.86
								c0.19,4.67,3.23,12.71,6.17,20.48c2.57,6.81,5,13.24,5.49,17.17c0.35,2.84,0.7,4.67,0.73,6.07c0.02,1.34,0.01,2.69-0.12,4.03
								c-0.12,1.24-0.64,2.71-1.27,5.23c-1.16,4.63-1.16,5.45-1.57,8.38c-0.33,2.34-1.55,10.24-0.16,11.39
								c2.1,1.75,3.9-0.64,5.07-2.49c1-1.58,1.27-3.6,1.54-5.56c0.28-2.09,0.55-4.07,1.7-4.8c0.08-0.05,0.15-0.07,0.28-0.02
								c1.58,0.59,1.02,2.14,1.58,6.38c-0.03,0.15-0.05,0.35-0.06,0.59l0,0c-0.04,0.07-3.78,7.21-6.04,10.67
								c-1.99,3.04-0.28,6.62,0.55,8.02c0.37,2.29,1.67,4.15,1.76,4.27l0.39,0.55l1.48-1.69c0.24,3.67,3.02,4.46,3.05,4.47
								l0.47,0.12l0.17-0.45c0.2-0.52,4.84-12.73,5.37-15.23c0.59-2.74,0.8-16.91,0.27-31.76c-0.34-9.74,2.63-17.99,3.51-25.27
								c0.5-4.09,0.97-7.95,1.22-12.13C284.25,265.67,281.15,260.08,280.55,259.11z M275.11,201.82c1.32,7.71,1.08,24.3-0.84,31.27
								c-0.41-0.63-0.72-1.07-0.87-1.29c-0.09-1.6-0.78-13.79-1.96-19.54c-1.12-5.43-3.11-10.63-3.52-11.67
								c0.28-0.81,1.36-4.09,2.15-8.29C270.87,193.25,274.56,198.61,275.11,201.82z M220.05,260.89c0.01-1.23,0.08-2.46,0.19-3.68
								c0.28,0.08,0.61,0.08,1.02-0.03c2.67-0.73,5.02-5.24,6.14-7.4c1.28-2.48,2.24-5.02,2.86-7.65
								c-0.02,4.36,0.05,10.12,0.14,15.39c-1.77,3.01-4.16,5.71-7.16,7.55c-0.45,0.29-1.08,0.57-1.61,0.64
								c-1.07,0.14-1.6-1.23-1.49-2.11C220.08,262.7,220.04,261.79,220.05,260.89z M230.34,236.82c-0.26,6.07-2.43,11.92-6.12,16.77
								c-0.93,1.22-2,2.72-3.76,1.93c-0.94-0.42-0.86-1.48-0.74-2.33c0.19-1.31,0.32-2.63,0.57-3.93c0.12-0.65,0.29-1.3,0.5-1.93
								c0.03-0.09,0.17-0.55,0.32-0.97c0.53,0.15,1.27-0.06,2.28-0.79c3.03-2.17,4.68-5.59,5.53-9.28c0.62-0.54,1.22-1.12,1.77-1.72
								c-0.08,0.31-0.15,0.61-0.2,0.86C230.44,235.68,230.34,236.77,230.34,236.82z M225.88,242.18c-0.51,0.71-1.02,1.38-1.68,1.96
								c-0.77,0.68-1.73,1.84-2.88,1.22c-1.04-0.56-0.7-2.35-0.61-3.29c0.16-1.65,0.38-3.3,0.56-4.95c2.76-2.46,5.02-5.64,6.58-9.13
								c0.4-0.11,0.8-0.24,1.19-0.38C229.15,232.19,228.65,238.34,225.88,242.18z M225.38,231.34c-1.14,1.7-4.07,7.07-4.72,2.77
								c-0.42-2.75-1.6-6.88,0.57-9.28c0.72-0.14,1.25-1.02,1.76-1.48c0.58-0.52,1.15-1.06,1.71-1.62c0.2-0.2,0.39-0.41,0.59-0.62
								c1.44-0.13,2.83-0.42,4.16-0.87C228.95,224.24,227.55,228.1,225.38,231.34z M220.36,222.71c-0.48-1.25-1.02-2.5-1-3.86
								c0.03-3.64,2.93-6.49,6.15-8.1c1.86,0.66,3.79,1.1,5.77,1.34c-1.43,2.51-3.06,4.92-5.01,7.08c-0.71,0.79-1.58,1.46-2.37,2.18
								c-0.5,0.46-1.01,0.92-1.49,1.4c-0.32,0.32-0.82,0.84-1.3,0.9C220.52,223.72,220.53,223.17,220.36,222.71z M225.98,220.37
								c0.63-0.69,1.25-1.39,1.84-2.11c1.55-1.91,2.94-3.96,4.15-6.1c0.91,0.08,1.85,0.14,2.78,0.14c0.23,1.16,0.34,2.52,0.37,3.91
								l-0.02,0.01C232.51,218.52,229.41,219.92,225.98,220.37z M223.17,209.08c0.23-0.01,0.46-0.01,0.69-0.02
								c2.89-0.14,5.85-1.69,8.5-3.69c1.04,2.03,1.77,4.13,2.25,6.29l0,0C230.57,211.64,226.72,210.76,223.17,209.08z M227.28,207.4
								c-6.78,2.91-19.11-0.21-24.53-5.63c-4.19-4.2-4.92-10.91-5.49-16.57c-0.38-3.74-1.89-11.2,0.32-14.62
								c4.34-6.73,9.73-7.61,17.47-8.05c15.54-0.88,16.62,3.98,21.88,9.03c1.78,1.71,2.89,3.52,4.14,5.3
								c3.84,5.48,4.85,10.6,4.4,11.14C241.18,195.02,235.05,204.07,227.28,207.4z M207.06,147.9c0.79-2,1.48-3.71,1.92-4.79
								c0.72-1.74,1.33-4.14,1.82-6.56c5.68,5.09,6.75,15.23,13.73,18.83c1.15,0.59,2.31,0.98,3.49,1.2
								c-1.76,0.76-3.8,1.58-5.99,2.29C215.04,158.67,209.31,154.46,207.06,147.9z M220.31,159.41c-6.12,1.76-12.95,2.44-17.33-1.11
								c1.21-3.11,2.56-6.55,3.72-9.49C209,154.71,214.07,158.63,220.31,159.41z M208.49,142.91c-1.85,4.46-7.61,19.32-9.1,23.17
								c-0.39-2.55-1.26-9.62,0.15-14.43c0.71-2.41,1.7-4.82,2.85-7.6c1.68-4.08,3.76-9.14,5.87-16.46
								c1.37-1.18,2.59-2.32,3.39-3.21c0.03,0.6,0.09,1.35,0.18,2.16C211.48,129.79,210.11,139,208.49,142.91z M246.08,188.24
								l0.02-0.03c3.87,7.43,10.3,12.78,18.25,15.23c7.19,15.27,4.7,34.72-1.23,50.45c-3.04-3.06-6.05-6.76-8.27-10.37
								c-2.84-4.64-4.58-9.92-6.43-15.03c-3.76-10.4-6.86-21.12-7.47-32.13C242.8,193.75,244.39,191,246.08,188.24z M263.89,253.85
								c6.21-14.47,8.61-35.04,1.44-50.48c0.56-0.74,1.11-1.49,1.67-2.24c0.5,1.29,2.35,6.22,3.41,11.34
								c1.06,5.16,1.72,15.9,1.89,18.77c0,0.46,0.03,0.8,0.06,1.05c0.56,8.27-4.07,14.6-8.2,21.66c-0.12,0.21-0.24,0.4-0.36,0.6
								c-0.05-0.04-0.09-0.09-0.14-0.14C263.75,254.26,263.82,254.02,263.89,253.85z M254.56,157.53c0.74,0.49,1.62,0.89,2.54,1.31
								c2.58,1.19,5.5,2.53,6.91,6.11c2.32,5.89,6.19,19.81,5.32,25.4c-0.74,4.75-1.99,8.66-2.36,9.75
								c-2.07,2.62-3.35,2.82-6.69,1.13c-2.3-1.15-4.54-2.47-6.47-4.2c-3.28-2.93-5.85-6.32-7.74-10.33
								c-0.01-0.02-0.02-0.03-0.04-0.05c-0.67-5.48-5.35-12.93-10.82-18.17c-0.24-0.53-0.45-1.07-0.61-1.63
								c-1.78-6.07,3.22-7.29,7.98-6.99C246.1,160.09,252.62,161.55,254.56,157.53z M248.8,153.74c1.49,0.48,3.03,0.97,4.6,2.81
								c0.19,0.22,0.4,0.41,0.63,0.6c-2.65,6.26-15.36-1.15-19.72,4.4c-1.28,1.63-1.24,3.64-0.51,5.68
								c-3.4-2.95-7.12-5.35-10.17-5.44c-15.48-0.46-20.63,1.5-23.87,4.8c0.47-1.21,1.62-4.18,2.97-7.65
								c6.97,5.39,19.48,0.97,26.48-2.17c6.15,0.64,12.6-2.62,18.66-3.34C248.18,153.54,248.48,153.64,248.8,153.74z M213.76,133.09
								c1.79,2.21,8.29,5.33,14.58,8.34c3.58,1.71,6.96,3.33,9.33,4.71c4.3,2.49,6.3,4.31,7.63,5.52c0.56,0.51,1.02,0.91,1.48,1.23
								c-8.99,1.37-19.86,7.57-26.2-2.36c-3.11-4.86-5.22-10.82-9.62-14.75c0.56-2.89,0.94-5.71,1.14-7.35
								C212.42,130.25,212.93,132.07,213.76,133.09z M177.36,114.94c-0.01,0.03-0.38,0.69-1.06,0.6c-1.04-0.13-2.7-3.11-3.68-4.89
								c-0.5-0.9-0.92-1.67-1.29-2.19c-1.06-1.52-1.03-5.31,0.07-8.81c0.18-0.56,0.41-0.87,0.71-0.92c0.76-0.14,2.1,1.08,2.82,1.98
								l1.08,1.37l-0.13-1.74c-0.01-0.15-1.1-15.56,4.34-22.09c4.03-4.84,12.73-5.88,15.16-6.08c2.43,0.2,11.12,1.24,15.16,6.08
								c5.44,6.52,4.35,21.93,4.34,22.09l-0.13,1.74l1.08-1.37c0.72-0.91,2.06-2.12,2.82-1.98c0.29,0.05,0.53,0.36,0.71,0.92
								c1.11,3.5,1.14,7.29,0.07,8.81c-0.37,0.52-0.79,1.3-1.29,2.19c-0.99,1.78-2.64,4.77-3.69,4.89c-0.68,0.09-1.05-0.58-1.06-0.6
								l-1.17-2.25l0.16,2.53c0,0.05,0.33,5.4-0.83,7.56c-1.18,2.19-10.72,9.61-12.55,10.27c-1.03,0.38-2.51,0.51-3.62,0.57
								c-1.11-0.05-2.58-0.19-3.62-0.57c-1.83-0.67-11.37-8.08-12.55-10.27c-1.16-2.16-0.83-7.5-0.83-7.56l0.16-2.53L177.36,114.94z
								 M169.11,265.96c-0.53-0.07-1.16-0.35-1.61-0.64c-2.77-1.7-5.03-4.13-6.75-6.87c0.08-4.81,0.15-10.12,0.16-14.44
								c0.6,2.06,1.42,4.06,2.43,6.03c1.12,2.16,3.47,6.67,6.14,7.4c0.41,0.11,0.74,0.11,1.02,0.03c0.11,1.22,0.18,2.44,0.19,3.68
								c0.01,0.9-0.04,1.81-0.09,2.71C170.71,264.73,170.18,266.1,169.11,265.96z M170.28,255.76c-1.76,0.8-2.83-0.71-3.76-1.93
								c-2.81-3.7-4.75-7.98-5.62-12.5c-0.02-2.87-0.09-5-0.24-5.77c-0.01-0.04-0.02-0.09-0.03-0.14c0.38,0.38,0.77,0.75,1.18,1.11
								c0.85,3.69,2.5,7.11,5.53,9.28c1.02,0.73,1.75,0.94,2.28,0.79c0.15,0.42,0.29,0.88,0.32,0.97c0.21,0.63,0.37,1.27,0.5,1.93
								c0.25,1.3,0.38,2.62,0.57,3.93C171.13,254.28,171.21,255.34,170.28,255.76z M169.41,245.61c-1.15,0.62-2.11-0.54-2.88-1.22
								c-0.66-0.58-1.17-1.25-1.68-1.96c-2.78-3.84-3.27-9.99-3.16-14.57c0.39,0.14,0.79,0.27,1.19,0.38
								c1.56,3.49,3.82,6.67,6.58,9.13c0.18,1.65,0.4,3.3,0.56,4.95C170.12,243.26,170.46,245.05,169.41,245.61z M170.07,234.36
								c-0.66,4.3-3.59-1.07-4.72-2.77c-2.18-3.27-3.58-7.32-4.07-11.37c1.25,0.42,2.55,0.71,3.9,0.85c0.29,0.3,0.57,0.61,0.86,0.9
								c0.56,0.56,1.13,1.09,1.71,1.62c0.51,0.46,1.03,1.34,1.76,1.48C171.67,227.49,170.49,231.61,170.07,234.36z M156.04,212.55
								C156.05,212.55,156.05,212.54,156.04,212.55c0.91,0,1.83-0.05,2.71-0.13c1.22,2.14,2.6,4.18,4.15,6.1
								c0.5,0.62,1.02,1.23,1.56,1.82c-3.31-0.49-6.32-1.87-8.85-4.12l-0.01-0.01C155.66,214.87,155.83,213.66,156.04,212.55z
								 M169.63,223.89c-0.48-0.06-0.97-0.58-1.29-0.9c-0.48-0.48-0.98-0.94-1.49-1.4c-0.79-0.71-1.66-1.38-2.37-2.18
								c-1.95-2.16-3.58-4.56-5.01-7.07c1.99-0.23,3.93-0.67,5.79-1.33c3.21,1.61,6.08,4.45,6.12,8.08
								c0.01,1.36-0.53,2.61-1.01,3.86C170.2,223.42,170.21,223.97,169.63,223.89z M156.18,211.9c0.51-2.28,1.34-4.52,2.48-6.68
								c2.61,1.9,5.49,3.36,8.27,3.5c0.62,0.03,1.22,0.05,1.81,0.06C164.89,210.83,160.65,211.89,156.18,211.9z M163.51,207.07
								c-7.77-3.34-14.65-13.14-18.19-19.39c0.27-3.14,1.94-6.9,4.45-10.56c2.88-4.2,6.3-8.21,8.52-10.01
								c6.06-4.89,11.4-4.68,16.54-4.51c7.75,0.25,14.62,1.59,18.38,7.65c2.14,3.46,0.69,10.87,0.32,14.62
								c-0.57,5.66-1.3,12.37-5.49,16.57C182.62,206.86,170.63,210.13,163.51,207.07z M126.31,203.81
								c8.13-2.46,14.69-7.98,18.56-15.62c1.72,2.84,3.27,5.61,5.15,8.24c-0.59,11.05-3.7,21.8-7.47,32.24
								c-1.85,5.11-3.58,10.39-6.43,15.03c-2.42,3.94-5.04,7.48-8.38,10.7C121.82,238.71,119.21,219.09,126.31,203.81z
								 M126.78,253.65c-4.05-6.88-8.81-13.45-8.21-21.71c0.18-3.02,0.92-14.37,1.97-19.48c0.98-4.76,2.64-9.34,3.28-11.01
								c0.58,0.78,1.16,1.55,1.74,2.33c0.01,0.02,0.03,0.03,0.04,0.04C118.68,218.99,121.02,238.05,126.78,253.65z M191.38,166.03
								c-1.49-3.84-7.25-18.7-9.1-23.17c-2.07-4.99-3.2-15.5-3.24-15.93c0.1-0.89,0.17-1.72,0.2-2.38c0.81,0.88,1.98,1.97,3.3,3.09
								c2.1,7.25,4.17,12.29,5.84,16.35c1.15,2.79,2.14,5.19,2.85,7.6C192.64,156.41,191.77,163.48,191.38,166.03z M184.14,148.95
								c1.17,2.96,2.52,6.41,3.73,9.51c-2.93,2.92-11.12,2.85-17.56,1.17C176.66,158.91,181.83,154.94,184.14,148.95z
								 M168.66,159.08l-0.05,0.02c-2.15-0.7-4.17-1.51-5.9-2.26c1.18-0.23,2.34-0.61,3.49-1.2c7.01-3.62,8.05-13.84,13.81-18.91
								c0.48,2.34,1.07,4.65,1.77,6.34c0.46,1.12,1.17,2.88,1.99,4.96C181.53,154.67,175.73,158.92,168.66,159.08z M145.64,151.65
								c1.33-1.21,3.33-3.03,7.63-5.52c2.38-1.38,5.76-3,9.33-4.71c6.29-3.01,12.79-6.13,14.58-8.34c0.76-0.93,1.24-2.52,1.55-4.17
								c0.22,1.72,0.6,4.36,1.12,7.03c-4.46,3.93-6.57,9.93-9.7,14.83c-6.39,9.99-17.35,3.65-26.38,2.33
								C144.38,152.78,144.93,152.3,145.64,151.65z M137.54,156.54c1.57-1.83,3.11-2.33,4.6-2.81c0.05-0.01,0.09-0.03,0.13-0.04
								l0.46-0.02c6.1,0.69,12.6,3.99,18.78,3.35c7.04,3.16,19.89,7,26.6,2.08c1.18,3.03,2.2,5.66,2.73,7.02
								c-3.32-3.18-8.81-4.66-23.82-4.27c-3.05,0.08-6.6,2.19-9.97,5.26c0.6-1.91,0.57-3.77-0.63-5.31
								c-4.37-5.57-17.17,1.92-19.75-4.47C137,157.08,137.29,156.83,137.54,156.54z M126.93,164.95c1.41-3.57,4.33-4.92,6.91-6.11
								c0.81-0.38,1.6-0.74,2.29-1.16c1.88,4.14,8.48,2.66,12.03,2.44c4.76-0.3,9.76,0.92,7.98,6.99c-0.13,0.44-0.28,0.87-0.46,1.3
								c-5.69,5.68-10.54,13.75-10.97,18.7c-1.89,3.97-4.44,7.34-7.7,10.25c-1.93,1.73-4.17,3.05-6.47,4.2
								c-3.21,1.61-4.38,1.45-6.31-0.87l-0.15-0.29c-0.02-0.04-1.6-4.48-2.47-10.06C120.74,184.75,124.61,170.84,126.93,164.95z
								 M116.28,202.03c0.49-2.89,3.53-7.51,4.71-9.1c0.78,3.89,1.76,6.88,2.02,7.65c-0.41,1.04-2.4,6.25-3.52,11.67
								c-1.18,5.75-1.88,17.94-1.96,19.54c-0.11,0.16-0.32,0.45-0.58,0.85C115.18,225.35,114.99,209.51,116.28,202.03z
								 M108.42,276.52c-0.53-8.75,1.45-14.03,2.42-16.04c1.13,7.51,4.36,15.04,7.42,21.98c4.07,9.21,6.59,19.56,7.34,29.45
								c-0.08,2.04,0,3.5,0.2,4.79c-7.7-9.74-14.29-20.32-16.69-32.54C108.83,281.65,108.58,279.15,108.42,276.52z M122.79,356.79
								l-1.4-1.6c-0.32-3.78-1.99-9.73-2.25-10.65c0.03-0.22,0.08-0.79,0.14-1.55c1.1,2.03,2.7,4.91,4.06,6.98
								C124.95,352.43,123.51,355.52,122.79,356.79z M119.57,337.33c1.27,2.37,3.56,6.55,5.14,8.97c1.06,1.62,0.81,3.5,0.3,4.96
								c-0.14-0.63-0.39-1.27-0.79-1.88c-1.73-2.64-3.88-6.64-4.82-8.42C119.48,339.78,119.54,338.47,119.57,337.33z M126.83,321.29
								c0.98,4.16,1.59,6.29,1.59,8.29c0,5.14,1.61,10.8-0.23,10.8c-0.46,0-1.4-0.46-2.7-2.52c-0.87-1.38-1.13-3.29-1.38-5.13
								c-0.32-2.34-0.61-4.56-2.18-5.56c-0.38-0.24-0.8-0.28-1.23-0.12c-2.57,0.97-1.73,5.35-2.27,7.22l-0.04,0.13l0.03,0.14
								c0.68,2.91-0.35,9.88-0.37,9.94l-0.02,0.12l0.03,0.11c0.02,0.08,2.3,7.99,2.3,11.62c0,2.39-1.17,3.38-1.84,3.75
								c-0.91-2.41-4.67-12.41-5.13-14.56c-0.47-2.21-0.79-16.11-0.25-31.5c0.34-9.52-2.44-17.59-3.42-24.74
								c3.15,10.56,9.29,19.89,16.24,28.59l0.04,0.06C126.24,319.06,126.52,319.97,126.83,321.29z M129.34,293.71
								c-0.34,1.46-0.2,0.85-0.59,2.45c-1.36,3.85-2.33,7.32-2.64,9.81c-0.05,0.44-0.1,0.86-0.15,1.26
								c-0.81-5.92-2.34-12.79-4.31-18.26c-3.49-9.72-8.91-19.17-10.21-29.52c0,0,0.01-0.01,0.01-0.01l0.01-0.01v-8.9
								c0-6.92,4.66-14.65,6.39-17.29c0,0,0-0.01,0-0.01c-0.07,9.43,6.61,16.91,10.79,25.13c5.09,10.02,3.25,23.86,0.86,34.61
								C129.4,293.41,129.4,293.39,129.34,293.71z M137.76,268.4c-0.19,4.49-3.19,12.45-6.1,20.15c-0.14,0.38-0.48,1.04-0.85,1.75
								c1.76-8.35,2.67-16.75,0.87-25.3c-0.18-0.85-0.41-1.67-0.68-2.49c1.73-2.05,3.68-3.9,5.84-5.52
								C137.15,257.98,138.05,261.47,137.76,268.4z M144.8,225.7c-3.05,4.85-4.82,14.93-4.9,15.46c0,0.06,0.17,6.05-0.35,9.35
								c-0.5,3.18-2.7,5.58-2.72,5.6l-0.22,0.24c0,0,0,0,0,0c-2.16,1.6-4.11,3.43-5.86,5.45c-0.05-0.13-0.09-0.24-0.12-0.35
								c-0.79-2.16-1.84-4.22-2.98-6.25c3.21-3.03,6.14-6.4,9.03-11.18c2.82-4.68,3.85-8.3,5.77-13.32
								c4.14-10.81,7.47-21.97,8.16-33.47c0.11,0.15,0.22,0.3,0.34,0.46c0.28,2.88,0.74,7.44,1.31,11.84
								c0.01,0.05,0.01,0.1,0.02,0.15C151.17,212.92,147.41,221.56,144.8,225.7z M152.19,199.17c1.54,1.78,3.63,3.88,5.96,5.66
								c-2.46,4.59-3.51,9.55-3.14,14.48C153.87,214.9,152.77,205.01,152.19,199.17z M156.48,223.68c-0.65-2.52-0.89-4.72-0.89-6.67
								c1.53,1.28,3.21,2.27,5.01,2.96c0.29,2.56,0.96,5.11,1.96,7.53C160.24,226.77,158.16,225.46,156.48,223.68z M158.37,229.13
								c-0.03-0.08-0.09-0.21-0.15-0.36c-0.57-1.36-1.02-2.64-1.39-3.86c1.26,1.14,2.68,2.06,4.24,2.71
								c-0.01,0.02-0.02,0.05-0.02,0.07c-0.07,2.44,0.05,5.13,0.53,7.74c-0.47-0.45-0.92-0.91-1.35-1.39
								C159.79,232.72,159.1,231.06,158.37,229.13z M155.35,277.1c-0.52-4.24,2.32-8.72,4.02-11.4c0.31-0.48,0.55-0.87,0.75-1.2
								c6.76,3.03,14.88,8.35,13.05,17.35c-0.51,2.51-2.7,5.19-4.25,7.07c-2.17,2.63-4.19,1.43-6.45-0.37
								c-1.96-1.56-3.9-3.15-5.83-4.74C156.29,282.71,155.79,280.65,155.35,277.1z M149.87,327.65c1.79-7.1,3.2-12.7,2.96-16.42
								c-0.48-7.3,1.68-16.71,3.09-21.95c4.2,4.59,3.68,11.9,2.81,17.92c-1.04,7.18-2.21,17.45-9.03,21.17
								C149.75,328.13,149.81,327.88,149.87,327.65z M142.37,370.26c0.62-8.35,2.64-20.01,4.6-29.62
								c-0.64,7.49-0.44,14.06,1.26,22.95c1.7,8.88,7.1,21.05,9.14,32.24c0.77,4.21,1.47,14.96-0.59,20.91
								c-1.36,3.94-5.39,7.16-8.82,6.23C146.42,411.11,140.96,389.3,142.37,370.26z M143.94,490.74
								c-1.62-11.19-3.14-21.77-3.06-26.46c0.14-8.24,5.09-20.68,6.82-24.8c0.97,3.08,2.98,7.14,4.7,10.36
								c-0.07,12.93-0.15,25.86-0.22,38.79c-0.06,11.36,1.75,25.18-4.91,35.09c0.08-1.75,0.11-3.44,0.05-4.6
								C147.1,512.7,145.5,501.57,143.94,490.74z M162.79,525.48c0.07,0.38,0.15,0.75,0.22,1.11c-3.87-4.38-3.92-11.02-3.94-16.98
								c0-0.87-0.01-1.72-0.02-2.55c-0.14-7.73-0.21-14.81,0.25-21.88c0.8,3.53,2.95,8.74,8.69,11.3
								C165.64,505.25,162.05,521.54,162.79,525.48z M177.96,471.11c-1.79,5.95-4.04,10.67-5.85,14.47
								c-1.09,2.28-2.03,4.26-2.7,6.09c-0.28,0.78-0.67,2.08-1.12,3.7c-5.8-2.67-8.05-8.58-8.87-11.9c0.05-0.62,0.09-1.24,0.15-1.86
								c0.15-1.58,0.24-3.19,0.34-4.9c0.26-4.49,0.39-9.08,1.79-13.4c1.06-3.26,2.71-6.31,4.65-9.14c1.95-2.84,4.38-5.28,6.41-8.06
								c1.18-1.62,2.28-3.3,3.32-5.03C177.09,446.02,180.34,463.21,177.96,471.11z M182.44,423.52c-0.82,4.48-2.89,8.83-4.96,12.85
								c-1.22,2.36-2.43,5.1-4.16,7.13c-4.76,5.59-9.9,10.98-12.21,18.11c-1.59,4.9-1.96,9.94-2.26,15.05
								c-0.1,1.7-0.19,3.31-0.34,4.86c-0.77,8.33-0.69,16.51-0.52,25.56c0.02,0.82,0.02,1.67,0.02,2.53
								c0.03,6.74,0.06,14.34,5.46,18.94c0.15,0.6,0.29,1.18,0.44,1.7c0.59,3,1.53,9.66,1.88,11.16c0.41,1.79,0.35,3.02-1.09,5.14
								c-1.24,1.81-3.07,3.24-4.66,4.15c1.21-1.96,3.31-5.34,3.31-5.34c-1.58,1.67-4.8,6.08-4.87,6.18h0
								c-0.6,0.75-3.37,5.37-3.96,9.58c-0.58,4.11-2.74,8.65-6.68,9.87l-0.04,0.02c-0.87,0.38-2.5,1.08-3.51,3.6
								c-0.89,2.22-3.32,3.88-5.26,4.37c-2.02,0.52-4.64-0.48-5.6-2.14l-0.03-0.05c-0.15-0.8-0.02-1.09,0.3-1.39
								c0.09-0.08,0.24-0.22,0.44-0.39c1.3-1.16,2.72-2.45,3.1-3.2c0.35-0.69,3.1-5.17,5.23-6.91c0,0-3.43,1.79-6.03,6.51
								c-0.36,0.65-2.14,2.26-2.9,2.94c-0.21,0.18-0.37,0.33-0.46,0.41c-0.56,0.53-0.73,1.13-0.58,2.08
								c-0.39,0.19-0.63,0.25-1.33-0.08c-0.6-0.29-0.77-1.06-0.82-1.64l0,0c0-0.03,0.28-3.62,6.67-11.74c0,0-2.09,1.66-3.91,4.37
								c-2.36,3.52-3.22,5.4-3.52,6.42c-0.43,0.04-0.99,0.02-1.2-0.14c-0.43-0.32-0.93-1.07-0.74-1.64c0.07-0.22,0.13-0.4,0.18-0.54
								l0,0c0.75-2.6,3.47-8.57,5.77-11.19c0,0-1.34,0.92-3,3.52c-1.66,2.61-2.6,4.29-3.32,6.46c-0.35-0.04-0.56-0.16-0.84-0.39
								c-0.13-0.12-0.31-0.85-0.29-1.87c0.01-0.29,0.05-0.61,0.1-0.96c0.06-0.43,0.12-0.87,0.11-1.28c0-0.11-0.01-0.22-0.03-0.32
								c0.37-1.49,1.42-4.17,4.22-7.47c0,0-1.33,1.13-2.45,2.65c-1.01,1.37-1.77,2.43-2.25,3.51c-0.05-0.16-0.09-0.32-0.12-0.52
								c-0.02-0.17-0.06-0.36-0.09-0.57c-0.17-0.98-0.4-2.32,0.23-3c0,0,2.4-3.57,3.32-4.15c1.36-0.85,10.69-8.51,11.85-11.21
								c0.28-0.66,0.53-1.37,0.77-2.05c0.71-2.03,1.45-4.13,3.19-5.62c2.49-2.13,4.27-7.46,4.27-7.46
								c-0.01,0.02-1.65,3.14-3.52,5.39c0.09-1.65,0.47-2.84,0.91-4.17c0.14-0.44,0.41-3.29,0.57-6.26
								c6.46-9.08,5.52-21.47,5.58-32.05c0.08-13.95,0.16-27.89,0.24-41.84c1.29,2.35,2.3,4.04,2.39,4.19c0,0-6.9-13.63-7.24-18.43
								c-0.2-2.79,0-4.28,0.17-5.59c0.13-1.01,0.26-1.97,0.18-3.32c-0.03-0.49-0.21-1.93-0.48-4.08c2.54,0.55,5.35-0.92,7.54-3.61
								c4.06-4.97,3.85-13.93,3.07-20.83c0.95,0.33,2.01,0.29,2.93-0.18c-0.05,1.76,0.05,3.53,0.34,5.32c0.9,5.57,3.3,11.67,8.15,15
								c3.87,2.66,8.77,4.08,12.74,1.48C182.7,421.94,182.57,422.8,182.44,423.52z M184.39,404.63c-0.49,5.87-0.97,11.49-1.46,15.49
								c-6.51,5.09-14.56-1.87-17.8-7.57c-3.51-6.17-3.17-13.59-1.65-20.27c2.78-12.24,10.68-22.58,14.16-34.62
								c2.15,5.05,4.04,10.19,5.07,15.64c1.39,7.37,2.05,14.83,2.46,22.3C184.89,398.66,184.64,401.72,184.39,404.63z
								 M186.53,382.62c-0.36,2.79-0.69,5.89-1,9.07c-0.88-11.96-2.7-23.74-7.58-34.98c-8.09-18.62-15.94-36.76-16.33-57.43
								c-0.02-1.32,0.07-2.55,0.33-3.86c1.12-5.65,5.35,2.66,5.47,2.88c1.26,2.41,2.63,4.12,2.96,6.95c0.15,1.34,0.28,2.58,0.57,3.9
								c1.96,9.18,3.66,18.09,6.96,26.93c1.51,4.05,3.53,7.89,5,11.96c1.65,4.57,2.37,9.6,3.14,14.38c0.78,4.8,1.21,9.63,1.36,14.47
								C187.07,378.84,186.77,380.76,186.53,382.62z M193.95,346.16c-0.32,2.55-1.33,6.86-2.5,11.84
								c-1.15,4.92-2.5,10.66-3.57,16.35c-0.22-4.03-0.62-8.06-1.21-12.09c-0.79-5.44-1.88-10.91-3.76-16.08
								c-1.9-5.26-4.48-10.25-6.27-15.57c-3.12-9.26-4-18.76-6.1-28.2c-0.65-2.93-3.24-6.19-4.88-8.66
								c-0.48-0.72-1.93-1.34-2.74-0.77c-4.08,2.91-1.68,12.81-1.24,16.64c1.27,10.85,4.69,21.36,8.7,31.47
								c2.09,5.28,4.59,10.41,6.85,15.62c-3.78,13.7-14.82,27.13-15.61,41.65c-0.92,0.63-2.08,0.71-3.04,0.28
								c-0.11-0.9-0.23-1.76-0.34-2.56c-1.67-11.53-7.42-25.05-9.36-34.08c-1.83-8.52-1.8-17.56-0.87-26.39
								c0.52-2.41,1.02-4.58,1.46-6.41c7.75-3.67,8.58-14.11,9.85-21.83c1.04-6.35,1.37-14.11-3.23-18.82
								c0.55-1.98,0.94-3.2,0.96-3.24l0.07-0.22l-0.01-0.01c2.81,2.36,5.64,4.76,8.68,6.77c0.14,0.09,0.28,0.15,0.42,0.19
								c2.17,3.11,4.18,7.1,6.62,11.99c2.09,4.17,4.45,8.9,7.43,14.06c0.85,1.47,1.54,3.1,2.28,4.83
								c2.11,4.95,4.48,10.51,10.99,11.41C193.88,336.21,194.57,341.24,193.95,346.16z M195.78,333.38c-0.04,0-0.33,0-0.33,0
								c-7.26-0.01-9.51-5.29-11.9-10.89c-0.72-1.68-1.46-3.42-2.33-4.94c-2.97-5.14-5.32-9.85-7.4-14.01
								c-2.35-4.69-4.3-8.58-6.39-11.68c2.32-1.12,4.98-6.32,5.68-7.54c2.63-4.56,0.64-10.05-2.38-13.97
								c-2.27-2.94-6.65-5.39-10.1-6.95c0.03-0.1,0.04-0.2,0.04-0.28c0-0.2,0.01-1,0.04-2.19c0.01-0.45,0.02-0.91,0.02-1.37
								c1,1.46,2.13,2.79,3.44,4.02c1.23,1.15,3.77,3.57,5.52,3.6c1.39,0.02,1.38-1.33,1.49-2.42c0.24-2.56,0.18-5.12-0.06-7.67
								c0.54-0.59,0.67-1.67,0.66-2.56c-0.02-3.14-0.56-5.69-1.64-8.23c1.31-1.38,0.42-6.36,0.01-8.91c0-0.01,0.01-0.01,0.01-0.01
								c0.71-3.55,2.48-9.18,0.06-12.41c0.43-0.3,0.56-1,0.77-1.48c0.67-1.6,1.31-3.74,1.04-5.48c-0.49-3.17-3.09-5.72-5.95-7.27
								c1.38-0.53,2.73-1.17,4.03-1.94c8.25-0.15,14.18-2.66,19.27-7.75c3.87-3.87,4.22-11.05,4.8-16.15
								c0.51-4.45,1.82-11.5-0.8-15.56c-0.52-0.8-1.04-1.55-1.62-2.23c0.07-0.4,1.77-9.59-0.01-15.64
								c-0.72-2.44-1.71-4.86-2.86-7.66c-1.61-3.91-3.58-8.7-5.6-15.52c3.19,2.67,6.91,5.34,8.11,5.78c0.95,0.35,2.2,0.51,3.27,0.59
								h1.42c1.07-0.08,2.32-0.24,3.27-0.59c1.21-0.44,4.97-3.16,8.18-5.84c-2.03,6.87-4.01,11.7-5.63,15.63
								c-1.15,2.8-2.15,5.22-2.86,7.66c-1.78,6.05-0.08,15.25-0.01,15.64c0,0-1.07,1.68-1.6,2.51c-2.62,4.06-1.32,11.11-0.8,15.56
								c0.58,5.09,0.94,12.28,4.8,16.15c5.31,5.31,11.53,7.82,20.36,7.76c0.95,0.5,1.92,0.95,2.91,1.33
								c-2.88,1.55-5.49,4.11-5.98,7.29c-0.27,1.74,0.37,3.89,1.04,5.48c0.2,0.48,0.34,1.18,0.77,1.49
								c-2.43,3.23-0.66,8.86,0.06,12.41c0,0.01,0.01,0.01,0.01,0.02c-0.42,2.56-1.29,7.54,0.01,8.91
								c-1.07,2.54-1.62,5.09-1.64,8.23c-0.01,0.89,0.12,1.97,0.66,2.56c-0.24,2.55-0.3,5.12-0.06,7.67c0.1,1.1,0.1,2.44,1.49,2.42
								c1.75-0.03,4.29-2.45,5.52-3.6c1.5-1.4,2.76-2.95,3.85-4.65c0.01,0.72,0.02,1.42,0.04,2.11c0.02,1.2,0.04,1.99,0.04,2.19
								c0,0.09,0.02,0.19,0.05,0.3c-3.48,1.54-7.94,3.93-10.26,6.94c-3.02,3.92-5.33,9.41-2.69,13.97c0.72,1.26,3.66,6.79,6.08,7.74
								c-2.08,3.09-4.02,6.95-6.35,11.62c-2.08,4.16-4.44,8.87-7.4,14.01c-0.88,1.52-1.62,3.26-2.33,4.94
								C205.19,328.06,202.95,333.32,195.78,333.38z M205.55,391.57c-0.31-3.14-0.63-6.19-0.99-8.95c-0.24-1.88-0.54-3.82-0.89-5.77
								c0.15-4.92,0.58-9.83,1.37-14.71c0.77-4.78,1.48-9.81,3.14-14.38c1.47-4.06,3.49-7.91,5-11.96c3.3-8.84,5-17.75,6.96-26.93
								c0.28-1.32,0.41-2.57,0.57-3.9c0.33-2.83,1.7-4.55,2.96-6.95c0.12-0.23,4.34-8.53,5.47-2.88c0.26,1.31,0.36,2.54,0.33,3.86
								c-0.39,20.67-8.24,38.81-16.33,57.43C208.24,367.72,206.43,379.56,205.55,391.57z M206.71,404.63
								c-0.25-2.95-0.51-6.05-0.79-9.14c0.41-7.53,1.06-15.05,2.46-22.48c1.02-5.41,2.89-10.52,5.03-15.54
								c3.49,12.02,11.43,22.58,14.21,34.81c1.52,6.67,1.86,14.09-1.65,20.27c-3.24,5.7-11.29,12.66-17.8,7.57
								C207.68,416.12,207.2,410.5,206.71,404.63z M221.69,491.67c-0.66-1.83-1.61-3.81-2.7-6.09c-1.81-3.8-4.06-8.52-5.85-14.47
								c-2.38-7.9,0.88-25.09,1.9-30.01c1.04,1.73,2.14,3.41,3.32,5.03c2.03,2.78,4.46,5.22,6.41,8.06
								c1.94,2.82,3.59,5.87,4.65,9.14c1.39,4.32,1.52,8.91,1.79,13.4c0.1,1.71,0.19,3.32,0.34,4.9c0.05,0.55,0.09,1.09,0.13,1.64
								c-0.54,2.27-1.76,5.87-4.42,8.79c-1.18,1.29-2.64,2.45-4.44,3.29C222.35,493.72,221.97,492.45,221.69,491.67z M223.1,496.44
								c2.1-0.95,3.72-2.25,4.96-3.69c2.21-2.56,3.24-5.57,3.73-7.82c0.48,7.15,0.4,14.31,0.26,22.13
								c-0.02,0.83-0.02,1.68-0.02,2.55c-0.02,5.96-0.07,12.61-3.94,16.98c0.08-0.37,0.15-0.73,0.22-1.11
								C229.05,521.53,225.45,505.2,223.1,496.44z M245.36,535.34c-1.87-2.25-3.51-5.37-3.52-5.39c0,0,1.78,5.33,4.27,7.46
								c1.74,1.49,2.48,3.59,3.19,5.62c0.24,0.69,0.49,1.39,0.77,2.05c1.15,2.7,10.48,10.36,11.85,11.21
								c0.92,0.58,3.32,4.15,3.32,4.15c0.64,0.68,0.4,2.02,0.23,3c-0.04,0.21-0.07,0.4-0.09,0.57c-0.03,0.19-0.07,0.36-0.11,0.51
								c-0.48-1.09-1.25-2.17-2.27-3.55c-1.12-1.52-2.45-2.65-2.45-2.65c2.83,3.34,3.88,6.05,4.23,7.53
								c-0.02,0.1-0.03,0.21-0.03,0.32c-0.01,0.41,0.05,0.85,0.11,1.28c0.05,0.35,0.09,0.67,0.1,0.96c0.02,1.02-0.16,1.75-0.29,1.87
								c-0.27,0.23-0.48,0.34-0.83,0.39c-0.73-2.2-1.66-3.89-3.34-6.52c-1.66-2.6-3-3.52-3-3.52c2.25,2.56,4.89,8.32,5.71,11
								c0.05,0.18,0.13,0.42,0.26,0.78c0.19,0.57-0.3,1.32-0.74,1.64c-0.18,0.13-0.62,0.17-1.01,0.15
								c-0.13-0.84-0.81-2.71-3.65-6.95c-1.81-2.71-3.91-4.37-3.91-4.37c5.39,6.85,6.43,10.48,6.63,11.46l-0.01,0.3
								c-0.01,0.48-0.03,1.75-0.84,2.14c-0.7,0.33-0.94,0.27-1.33,0.08c0.15-0.95-0.02-1.55-0.58-2.08
								c-0.09-0.09-0.25-0.23-0.46-0.41c-0.77-0.68-2.54-2.29-2.9-2.94c-2.59-4.72-6.03-6.51-6.03-6.51
								c2.14,1.74,4.88,6.22,5.23,6.91c0.38,0.75,1.8,2.05,3.1,3.2c0.2,0.18,0.35,0.31,0.44,0.39c0.32,0.3,0.44,0.6,0.3,1.39
								l-0.03,0.05c-0.96,1.66-3.58,2.66-5.6,2.14c-1.94-0.5-4.36-2.16-5.26-4.37c-1.01-2.52-2.64-3.22-3.51-3.6l-0.05-0.02
								c-3.94-1.22-6.1-5.77-6.68-9.87c-0.59-4.21-3.37-8.83-3.96-9.58l0,0c-0.07-0.1-3.29-4.51-4.87-6.18c0,0,2.09,3.38,3.31,5.34
								c-1.59-0.9-3.42-2.33-4.66-4.15c-1.45-2.12-1.51-3.35-1.09-5.14c0.34-1.5,1.28-8.16,1.88-11.16c0.15-0.52,0.29-1.1,0.44-1.7
								c5.39-4.6,5.43-12.2,5.46-18.94c0-0.86,0.01-1.71,0.02-2.53c0.17-9.06,0.24-17.23-0.52-25.56c-0.14-1.56-0.24-3.16-0.34-4.86
								c-0.3-5.11-0.67-10.15-2.26-15.05c-2.31-7.13-7.46-12.52-12.21-18.11c-1.73-2.03-2.94-4.77-4.16-7.13
								c-2.07-4.02-4.14-8.37-4.96-12.85c-0.13-0.72-0.26-1.58-0.39-2.56c3.97,2.61,8.87,1.18,12.74-1.48
								c4.85-3.33,7.62-9.39,8.15-15c0.18-1.93,0.21-3.81,0.12-5.63c0.93,0.48,2.03,0.55,3.02,0.28c-0.82,6.94-1.11,16.14,3.02,21.2
								c2.25,2.75,5.14,4.23,7.73,3.56c-0.26,2.01-0.42,3.34-0.45,3.82c-0.08,1.35,0.05,2.31,0.18,3.32
								c0.18,1.31,0.37,2.8,0.17,5.59c-0.34,4.81-7.24,18.43-7.24,18.43c0.09-0.15,1.07-1.79,2.33-4.09
								c0.08,13.96,0.16,27.92,0.24,41.88c0.06,10.58-0.88,22.98,5.58,32.05c0.16,2.97,0.43,5.82,0.57,6.26
								C244.89,532.5,245.27,533.69,245.36,535.34z M250.22,464.28c0.08,4.7-1.44,15.27-3.06,26.46
								c-1.56,10.82-3.17,21.96-3.38,28.38c-0.06,1.16-0.03,2.85,0.05,4.6c-6.65-9.91-4.84-23.73-4.91-35.09
								c-0.07-12.94-0.15-25.89-0.22-38.83c1.71-3.18,3.71-7.21,4.71-10.3C245.14,443.63,250.08,456.05,250.22,464.28z
								 M248.79,370.12c1.41,19.08-4.09,40.96-5.6,52.79c-0.01,0.06-0.01,0.11-0.02,0.17c-3.47,1.1-7.62-2.17-9.01-6.18
								c-2.06-5.95-1.35-16.7-0.59-20.91c2.04-11.19,7.44-23.36,9.14-32.24c1.81-9.45,1.93-16.62,1.15-24.89
								C245.92,348.76,248.14,361.29,248.79,370.12z M242.58,332.95c1.24,9.71,1.49,19.79-0.54,29.22
								c-1.94,9.03-7.68,22.55-9.36,34.08c-0.11,0.72-0.21,1.5-0.31,2.3c-1.02,0.35-2.23,0.24-3.14-0.41
								c-1.11-15.8-11.63-27.8-15.42-41.62c2.27-5.25,4.79-10.41,6.89-15.72c4-10.11,7.43-20.63,8.7-31.47
								c0.45-3.83,2.84-13.73-1.24-16.64c-0.8-0.57-2.26,0.05-2.74,0.77c-1.64,2.47-4.23,5.72-4.88,8.66
								c-2.1,9.44-2.97,18.95-6.1,28.2c-1.79,5.32-4.37,10.31-6.27,15.57c-1.87,5.17-2.96,10.65-3.76,16.08
								c-0.6,4.11-1,8.22-1.22,12.33c-1.07-5.67-2.41-11.38-3.56-16.29c-1.17-4.98-2.18-9.29-2.5-11.84
								c-0.63-4.92,0.07-9.95,0.38-11.84c6.53-0.89,8.9-6.45,11.01-11.41c0.74-1.73,1.43-3.36,2.28-4.83
								c2.98-5.17,5.35-9.89,7.43-14.06c2.48-4.96,4.52-9,6.72-12.13c0.04-0.02,0.07-0.03,0.11-0.06c3.13-2.07,6.02-4.55,8.91-6.97
								l0.08,0.29c0.01,0.04,0.42,1.3,0.97,3.31c-4.68,4.7-4.35,12.52-3.3,18.9c1.28,7.75,2.12,18.25,9.96,21.87
								C241.98,330.36,242.27,331.61,242.58,332.95z M235.26,289.2c1.41,5.25,3.55,14.62,3.07,21.89
								c-0.24,3.71,1.17,9.32,2.96,16.42c0.07,0.3,0.15,0.61,0.23,0.93c-6.92-3.68-8.09-14.01-9.14-21.23
								C231.5,301.15,230.98,293.78,235.26,289.2z M231.79,265.55c1.7,2.68,4.54,7.16,4.02,11.4c-0.61,4.93-1.15,6.17-1.45,6.77
								c-1.96,1.62-3.93,3.23-5.92,4.81c-2.26,1.8-4.28,3-6.45,0.37c-1.55-1.88-3.74-4.57-4.25-7.07
								c-1.87-9.13,6.49-14.46,13.32-17.47C231.25,264.69,231.49,265.08,231.79,265.55z M233.33,227.09
								c-0.82,2.16-1.62,4.24-2.17,5.92c-0.62,0.78-1.3,1.5-2.02,2.18c0.48-2.61,0.6-5.3,0.53-7.74c0-0.03-0.01-0.05-0.02-0.08
								c1.79-0.75,3.41-1.84,4.79-3.23C234.08,225.12,233.7,226.11,233.33,227.09z M234.73,222.9c-1.76,2.06-4.01,3.55-6.56,4.35
								c0.99-2.39,1.66-4.75,1.95-7.27c1.81-0.7,3.49-1.69,5.02-2.97C235.14,219.27,234.95,221.49,234.73,222.9z M235.96,220.01
								c-0.01,0.02-0.17,0.57-0.46,1.38c0.62-5.62-0.16-11.53-2.64-16.42c2.27-1.79,4.28-3.87,5.77-5.62
								c0.12-0.14,0.22-0.28,0.34-0.42C238.35,205.25,237.19,216.31,235.96,220.01z M251.3,250.27
								c-0.38-10.39-2.19-19.96-5.25-24.81c-2.56-4.06-6.09-12.04-7.27-15.37c0-0.01,0-0.03-0.01-0.07
								c0.61-4.65,1.14-9.63,1.43-12.64c0.06-0.07,0.11-0.15,0.17-0.22c0.71,11.45,4.03,22.59,8.15,33.35
								c1.93,5.02,2.95,8.64,5.77,13.32c2.72,4.51,6.24,8.24,9.26,11.14c-1.4,2.38-2.42,4.29-3.29,6.79
								c-1.75-2.01-4.17-4.36-6.27-5.93C253.66,255.52,251.41,253.27,251.3,250.27z M260.09,290.68c-0.29-0.78-0.59-1.58-0.9-2.38
								c-2.91-7.7-5.92-15.65-6.1-20.15c-0.29-6.88,0.6-10.38,0.92-11.39c2.14,1.61,4.28,3.63,6.02,5.67
								c-0.28,0.86-0.55,1.8-0.82,2.85c-2.15,8.57-0.69,17.42,0.9,25.44C260.1,290.72,260.1,290.7,260.09,290.68z M261.92,295.67
								c-2.91-11.87-5.31-25.8,0.38-36.99c4.23-8.33,11-15.92,10.75-25.52c1.69,2.55,6.44,10.38,6.44,17.37v8.04
								c-1.06,10.79-6.7,19.91-10.31,29.96c-2.14,5.95-3.57,12.01-4.31,18.18c-0.04-0.32-0.06-0.65-0.12-0.98
								C264.01,301.41,262.9,298.22,261.92,295.67z M265.93,351.26c-0.5-1.46-0.76-3.35,0.3-4.96c1.59-2.42,3.87-6.59,5.14-8.97
								c0.03,1.15,0.09,2.45,0.16,3.63c-0.94,1.78-3.09,5.78-4.82,8.42C266.32,350,266.07,350.63,265.93,351.26z M268.15,356.79
								c-0.73-1.27-2.16-4.36-0.54-6.82c1.35-2.07,2.96-4.95,4.06-6.98c0.06,0.76,0.11,1.33,0.14,1.55
								c-0.26,0.93-1.93,6.87-2.25,10.65L268.15,356.79z M281.3,288.6c-0.89,7.32-3.86,15.61-3.52,25.44
								c0.54,15.39,0.22,29.29-0.25,31.5c-0.46,2.14-4.22,12.15-5.13,14.56c-0.66-0.37-1.84-1.36-1.84-3.75
								c0-3.63,2.27-11.54,2.3-11.62l0.03-0.11l-0.02-0.12c-0.01-0.07-1.05-7.03-0.37-9.94l0.03-0.14l-0.04-0.13
								c-0.54-1.87,0.3-6.25-2.27-7.22c-0.43-0.16-0.86-0.12-1.23,0.12c-1.56,1.01-1.86,3.22-2.18,5.56
								c-0.25,1.85-0.51,3.75-1.38,5.13c-1.3,2.05-2.25,2.52-2.7,2.52c-1.85-0.01-0.23-5.66-0.23-10.8c0-2,0.61-4.13,1.59-8.29
								c0.36-1.5,0.68-2.66,0.92-3.94c7.11-8.93,13.35-18.53,16.36-29.44C281.36,288.16,281.33,288.38,281.3,288.6z M282.52,276.53
								c-0.1,1.65-0.37,3.45-0.52,5.04c-1.92,13.17-8.66,24.21-16.78,34.53c0.17-1.52,0.2-3.34-0.01-6.08
								c0.8-9.7,3.35-18.95,7.35-28.01c3.13-7.09,6.32-14.12,7.39-21.8C280.84,261.96,283.08,267.32,282.52,276.53z"/>
							<path d="M191.2,255.97c-3.86,1.17-7.7,2.4-11.54,3.63c-4.79,1.54-5.78-2.17-5.82-5.04c-0.04-2.74,1.46-5.28,3.23-7.32
								c2.96-3.42,8.03-4.49,12.42-4.75C194.66,242.18,196.22,254.28,191.2,255.97 M193.85,243.88c-2.81-4.67-11.9-0.96-15.31,1.24
								c-3.81,2.46-7.03,8.65-4.73,12.94c1.07,2,2.38,2.64,4.69,2.46c1.67-0.13,3.38-0.99,4.94-1.52c2.62-0.88,5.3-1.61,7.94-2.41
								c1.48-0.5,3.33-1.22,3.47-2.99C195.05,251.09,195.23,246.16,193.85,243.88"/>
							<path d="M199.53,256.04c-5.02-1.7-3.46-13.79,1.72-13.48c4.39,0.26,9.46,1.33,12.42,4.75c1.77,2.04,3.26,4.58,3.23,7.32
								c-0.04,2.87-1.03,6.58-5.82,5.04C207.23,258.43,203.39,257.21,199.53,256.04 M196.88,243.94c-1.37,2.28-1.2,7.21-1,9.72
								c0.14,1.77,1.99,2.49,3.47,2.99c2.64,0.8,5.33,1.53,7.94,2.41c1.56,0.53,3.27,1.39,4.94,1.52c2.31,0.18,3.62-0.46,4.69-2.46
								c2.3-4.29-0.92-10.48-4.73-12.94C208.77,242.98,199.69,239.28,196.88,243.94"/>
						</g>
					</g>
					<path d="M192.66,289.53c-0.12,4.1-0.24,8.2-0.36,12.3c-0.2,6.62-7.84-0.14-9.52-2.06c-4.74-6.99-6.01-16.18-7.58-24.31
						c-1.29-6.7,0.89-12.13,7.74-14.2c4.82-1.46,9.99-1.59,10.37,4.68C193.77,273.71,192.89,281.75,192.66,289.53 M193.16,261.24
						c-4.39-4.95-15.19,0.34-17.74,4.52c-2.77,4.54-0.58,11.39,0.39,15.93c1.36,6.38,2.71,12.96,6.43,18.43l0.03,0.03l0.02,0.04
						c2.33,2.69,5.69,4.97,9.27,5.58c2.4,0.41,1.48-7.17,1.5-8.04c0.22-7.52,0.9-15.04,1.07-22.56
						C194.18,273.38,195.66,264.07,193.16,261.24z"/>
					<path d="M197.43,265.94c0.37-6.27,5.55-6.14,10.37-4.68c6.86,2.07,9.04,7.5,7.74,14.2c-1.57,8.14-2.84,17.32-7.58,24.31
						c-1.68,1.92-9.33,8.68-9.52,2.06c-0.12-4.1-0.24-8.2-0.37-12.3C197.84,281.75,196.97,273.71,197.43,265.94 M197.67,297.73
						c0.03,0.87-0.9,8.45,1.5,8.04c3.58-0.6,6.93-2.89,9.27-5.58l0.02-0.04l0.03-0.03c3.72-5.47,5.07-12.05,6.43-18.43
						c0.97-4.54,2.54-11.07,0.39-15.93c-1.85-4.18-12.79-9.44-17.6-4.47c-2.72,2.82-1.22,10.42-1.12,13.87"/>
				</g>
			</g>
		</g>
	</g>
</g>
</svg>
