<?xml version="1.0" encoding="utf-8"?>
<!-- Generator: Adobe Illustrator 26.0.1, SVG Export Plug-In . SVG Version: 6.00 Build 0)  -->
<svg version="1.1" id="Layer_1" xmlns="http://www.w3.org/2000/svg" xmlns:xlink="http://www.w3.org/1999/xlink" x="0px" y="0px"
	 viewBox="0 0 432 648" style="enable-background:new 0 0 432 648;" xml:space="preserve">
<style type="text/css">
	.st0{fill:#FFFFFF;}
	.st1{fill:#E92A2A;}
	.st2{fill:#D52626;}
	.st3{fill:#A89FA8;}
	.st4{fill:#998F99;}
	.st5{fill:#E9E7E9;}
</style>
<g>
	<g>
		<g id="Front_00000165229042429758786300000010734641074224402821_">
			<g>
				<g>
					<g>
						<g>
							<path class="st0" d="M293.08,258.77l-0.03-8.55c-0.03-6.18-3.48-12.76-5.62-16.25c2.08-7.07,2.04-23.98,0.86-31.82
								c-0.72-4.77-4.05-8.64-5.71-11.12c0.03-0.19,0.06-0.38,0.09-0.58c0.88-5.77-3.09-19.9-5.47-25.85
								c-1.58-3.95-4.84-5.44-7.46-6.63c-1.42-0.65-2.64-1.2-3.33-2c-1.77-2.05-3.53-2.61-5.08-3.1c-0.41-0.13-0.8-0.25-1.18-0.4
								c-0.6-0.23-1.13-0.71-1.93-1.43c-1.36-1.23-3.42-3.08-7.81-5.6c-2.41-1.39-5.81-2.99-9.4-4.7
								c-5.88-2.79-12.76-6.01-14.4-8.02c-1.49-1.83-1.68-7.65-1.7-9.57c0.7-1.81,0.77-4.65,0.74-6.3c0.3,0.14,0.66,0.21,1.09,0.16
								c1.46-0.18,2.83-2.47,4.45-5.44c0.46-0.83,0.89-1.62,1.22-2.1c1.41-2.03,1.08-6.42,0.03-9.71c-0.31-0.96-0.82-1.51-1.54-1.64
								c-0.98-0.17-2.05,0.57-2.81,1.28c0.13-4.1,0.03-15.63-4.73-21.29c-4.1-4.87-12.25-6.06-15.34-6.34l-1.22,0
								c-3.09,0.3-11.24,1.55-15.29,6.46c-4.71,5.7-4.72,17.23-4.55,21.33c-0.77-0.7-1.84-1.44-2.82-1.26
								c-0.71,0.13-1.23,0.69-1.52,1.65c-1.03,3.29-1.32,7.69,0.11,9.71c0.33,0.47,0.77,1.26,1.24,2.09c1.65,2.96,3.03,5.23,4.5,5.4
								c0.43,0.05,0.79-0.03,1.09-0.17c-0.02,1.82,0.09,5.09,1.02,6.81c0,0,0,0.01,0.01,0.01c-0.04,1.35-0.3,7.14-1.87,9.1
								c-1.63,2.02-8.27,5.24-14.13,8.08c-3.58,1.73-6.96,3.37-9.36,4.77c-4.37,2.56-6.41,4.43-7.76,5.67
								c-0.79,0.73-1.32,1.21-1.91,1.45c-0.38,0.15-0.77,0.28-1.18,0.41c-1.55,0.5-3.3,1.07-5.06,3.14
								c-0.69,0.81-1.91,1.37-3.32,2.03c-2.61,1.22-5.86,2.73-7.4,6.69c-2.33,5.97-6.18,20.13-5.26,25.89
								c0.07,0.41,0.14,0.82,0.21,1.22c-1.65,2.48-4.62,6.09-5.28,10.75c-1.11,7.8-1.17,24.07,0.92,31.18
								c-2.09,3.38-5.77,10.28-5.75,16.72l0.03,8.55c-0.59,0.96-3.65,6.56-2.95,17.44c0.27,4.17,0.75,8.02,1.26,12.09
								c0.91,7.25,3.9,15.46,3.6,25.17c-0.46,14.81-0.19,28.93,0.4,31.66c0.55,2.5,5.22,14.65,5.42,15.16l0.17,0.45l0.46-0.13
								c0.03-0.01,2.8-0.81,3.02-4.47l1.48,1.68l0.39-0.55c0.09-0.12,1.38-1.97,1.74-4.26c0.82-1.39,2.51-4.97,0.51-7.99
								c-2.27-3.44-6.03-10.54-6.07-10.61l0,0c-0.01-0.24-0.04-0.44-0.06-0.59c0.54-4.23-0.03-5.77,1.55-6.37
								c0.13-0.05,0.2-0.03,0.28,0.02c1.15,0.73,1.42,2.7,1.71,4.78c0.27,1.95,0.55,3.97,1.55,5.54c1.17,1.84,2.98,4.21,5.07,2.46
								c1.37-1.15,0.13-9.02-0.21-11.35c-0.43-2.91-0.43-3.73-1.6-8.34c-0.75-2.94-1.19-4.46-1.39-5.82
								c-0.1-1.12,0.17-5.79,0.58-9.2c0.47-3.92,2.87-10.34,5.4-17.13c2.9-7.76,5.89-15.79,6.07-20.44
								c0.27-7.21-0.69-10.78-1.04-11.81c0.61-0.73,2.29-2.99,2.74-5.91c0.52-3.39,0.33-9.27,0.32-9.42
								c0.02-0.1,1.75-10.27,4.66-14.93c2.21-3.54,5.46-10.48,6.84-14.11c0.52,3.58,1.1,6.78,1.68,8.5
								c0.73,2.17,1.66,4.58,2.56,6.91c1.28,3.32,2.5,6.46,2.81,8.1c0.44,2.32,0.21,19.44,0.13,25.07c-0.02,1.2-0.03,2-0.03,2.2
								c0,0.01,0,0.01-0.01,0.02c-0.1,0.11-0.18,0.3-0.22,0.5c-0.22,0.41-0.58,0.97-0.9,1.49c-1.76,2.8-4.7,7.48-4.11,12.08
								c0.66,5.13,1.45,7.28,1.73,7.92c-0.58,1.85-4.81,15.92-4.11,26.05c0.25,3.53-1.12,9.06-2.85,16.04
								c-2.23,9.01-6.43,29.76-7.33,42.69c-1.33,19.13,4.24,40.99,5.81,52.82c0.33,2.53,0.56,4.2,0.59,4.71
								c0.08,1.25-0.03,2.11-0.16,3.11c-0.18,1.36-0.37,2.9-0.16,5.79c0.02,0.29,0.07,0.61,0.14,0.95
								c-0.73,1.66-7.18,16.64-7.32,26.41c-0.06,4.77,1.51,15.34,3.17,26.54c1.5,10.14,2.94,20.61,3.41,27.08l0.01,0.17
								c0.04,0.54,0.07,1.06,0.09,1.54c0.08,3.47-0.22,10.38-0.44,11.06c-0.51,1.59-0.99,3.1-0.95,5.43
								c-0.14,0.14-0.28,0.27-0.42,0.39c-1.91,1.64-2.68,3.86-3.42,5.99c-0.24,0.7-0.47,1.36-0.74,1.99
								c-1.02,2.42-10.16,10.02-11.42,10.82c-0.98,0.62-3.47,4.3-3.47,4.3c-0.93,1.01-0.64,2.66-0.44,3.75
								c0.03,0.19,0.07,0.37,0.09,0.53c0.08,0.58,0.26,0.98,0.4,1.3c0.13,0.28,0.22,0.49,0.22,0.74c0.01,0.34-0.05,0.75-0.1,1.14
								c-0.05,0.35-0.1,0.72-0.1,1.06c-0.01,0.61,0.03,2.08,0.62,2.56c0.34,0.28,0.66,0.47,1.13,0.56c-0.05,0.15-0.11,0.35-0.2,0.59
								c-0.36,1.08,0.46,2.19,1.06,2.63c0.43,0.31,1.11,0.34,1.58,0.32c0,0.09,0.02,0.15,0.03,0.2c0.08,0.76,0.34,1.82,1.32,2.29
								c1,0.47,1.51,0.35,2.09,0.07c1.15,1.57,3.47,2.52,5.56,2.31c0.27-0.03,0.54-0.07,0.79-0.14c2.15-0.56,4.83-2.42,5.82-4.91
								c0.79-1.99,1.96-2.65,3-3.11c4.28-1.37,6.6-6.15,7.21-10.59c0.53-3.92,3.03-8.19,3.68-9.07c2.99-1.27,4.75-2.86,6.28-5.12
								c1.6-2.37,1.66-3.88,1.2-5.83c-0.44-1.86-1.64-10.62-2.05-11.98c-0.36-1.19-0.52-2.41-0.81-3.89
								c-0.89-4.62,4.75-28.51,6.42-33.16c0.64-1.78,1.56-3.73,2.62-5.99c1.8-3.82,4.05-8.58,5.84-14.6
								c2.7-9.11-1.7-29.21-2.24-31.59c1.58-2.79,2.98-5.69,4.19-8.64c0.97-2.36,1.88-4.82,2.34-7.34
								c0.67-3.72,1.23-10.77,1.89-18.93c0.58-7.21,1.23-15.38,2.04-21.9c1-8.05,3.09-17.15,4.78-24.45c1.15-5,2.14-9.32,2.46-11.92
								c0.6-4.87-0.03-9.71-0.39-11.83c0.37,0.04,1.48,0.04,1.76-0.01c-0.34,2.12-0.93,6.97-0.29,11.83
								c0.34,2.6,1.37,6.91,2.56,11.9c1.74,7.29,3.91,16.37,4.97,24.41c0.86,6.52,1.59,14.68,2.22,21.88
								c0.72,8.15,1.34,15.2,2.04,18.91c0.47,2.52,1.41,4.96,2.4,7.32c1.24,2.94,2.66,5.83,4.27,8.61
								c-0.52,2.38-4.76,22.52-1.98,31.61c1.84,6,4.12,10.74,5.95,14.55c1.08,2.25,2.02,4.19,2.67,5.97
								c1.7,4.64,7.54,28.48,6.69,33.11c-0.27,1.49-0.43,2.7-0.78,3.9c-0.4,1.36-1.53,10.13-1.95,12c-0.44,1.96-0.37,3.46,1.25,5.82
								c1.54,2.24,3.32,3.82,6.32,5.07c0.66,0.87,3.18,5.13,3.75,9.04c0.64,4.43,3,9.2,7.29,10.53c1.04,0.45,2.21,1.1,3.02,3.09
								c1.01,2.48,3.71,4.32,5.86,4.86c0.26,0.07,0.53,0.11,0.8,0.13c2.09,0.19,4.4-0.78,5.54-2.36c0.58,0.28,1.09,0.39,2.09-0.09
								c1.07-0.51,1.28-1.73,1.32-2.49c0.47,0.02,1.16-0.01,1.59-0.33c0.6-0.45,1.41-1.56,1.03-2.64c-0.08-0.22-0.14-0.41-0.19-0.56
								l0,0c0-0.01-0.01-0.02-0.01-0.04c0.47-0.09,0.79-0.28,1.12-0.57c0.59-0.49,0.62-1.96,0.6-2.57c-0.01-0.34-0.06-0.7-0.11-1.05
								c-0.06-0.39-0.11-0.8-0.11-1.14c0-0.25,0.09-0.46,0.22-0.74c0.14-0.32,0.32-0.72,0.39-1.31c0.02-0.16,0.05-0.34,0.08-0.53
								c0.19-1.09,0.47-2.74-0.47-3.74c0,0-2.51-3.65-3.5-4.27c-1.27-0.79-10.47-8.31-11.51-10.73c-0.27-0.63-0.51-1.29-0.76-1.99
								c-0.76-2.13-1.54-4.34-3.47-5.96c-0.14-0.12-0.28-0.25-0.43-0.39c0.03-2.33-0.47-3.84-0.99-5.42
								c-0.22-0.68-0.59-7.58-0.53-11.05c0.02-0.48,0.05-1,0.08-1.54c0.01-0.06,0.02-0.12,0.03-0.17l-0.02,0
								c0.42-6.48,1.77-16.96,3.19-27.11c1.57-11.21,3.05-21.79,2.95-26.56c-0.21-9.69-6.7-24.48-7.51-26.31
								c0.09-0.41,0.15-0.79,0.17-1.14c0.19-2.89-0.02-4.43-0.2-5.78c-0.14-1-0.26-1.86-0.19-3.11c0.03-0.51,0.24-2.18,0.55-4.72
								c1.47-11.83,6.86-33.74,5.37-52.86c-1.01-12.92-5.38-33.64-7.68-42.63c-1.79-6.97-3.2-12.48-2.98-16.02
								c0.62-10.14-3.73-24.17-4.32-26.02c0.28-0.65,1.05-2.8,1.67-7.93c0.55-4.61-2.43-9.26-4.21-12.05
								c-0.52-0.82-1.12-1.74-1.15-2c0-0.2-0.02-0.99-0.04-2.2c-0.12-5.62-0.5-22.74-0.08-25.07c0.3-1.64,1.49-4.79,2.74-8.13
								c0.88-2.34,1.79-4.76,2.51-6.93c0.55-1.66,1.06-4.75,1.54-8.19c0-0.01,0-0.01,0-0.02c1.44,3.53,4.66,10.01,6.73,13.66
								c3.66,6.42,4.95,16.9,5.18,24.31c0.09,2.95,2.17,5.15,2.79,5.88c-0.34,1.04-1.27,4.62-0.94,11.82
								c0.21,4.65,3.27,12.65,6.23,20.39c2.59,6.78,5.04,13.18,5.54,17.09c0.36,2.82,0.72,4.65,0.75,6.04
								c0.03,1.33,0.02,2.68-0.11,4.02c-0.11,1.24-0.63,2.7-1.25,5.22c-1.13,4.62-1.13,5.44-1.53,8.36
								c-0.32,2.33-1.5,10.21-0.12,11.35c2.1,1.73,3.89-0.66,5.05-2.5c0.99-1.57,1.25-3.59,1.51-5.55c0.27-2.09,0.53-4.05,1.67-4.8
								c0.08-0.05,0.15-0.07,0.28-0.02c1.58,0.59,1.03,2.13,1.6,6.36c-0.03,0.15-0.04,0.35-0.06,0.59l0,0
								c-0.04,0.07-3.74,7.21-5.98,10.66c-1.97,3.04-0.25,6.6,0.58,7.99c0.38,2.29,1.69,4.13,1.77,4.25l0.39,0.54l1.47-1.69
								c0.25,3.65,3.03,4.43,3.06,4.44l0.47,0.12l0.17-0.45c0.19-0.52,4.77-12.71,5.29-15.21c0.57-2.73,0.73-16.86,0.14-31.66
								c-0.38-9.71,2.54-17.94,3.4-25.2c0.48-4.07,0.93-7.92,1.17-12.1C296.79,265.29,293.68,259.73,293.08,258.77z"/>
						</g>
					</g>
				</g>
			</g>
		</g>
	</g>
	<g>
		<g id="Gluteus_medius_00000174599358510457258730000000859182281137128839_">
			<path class="st1" d="M171.87,308.16c-0.98,7.16-2.28,16.96-9.05,20.74c0.05-0.25,0.12-0.48,0.17-0.73
				c1.71-7.08,3.07-12.68,2.81-16.39c-0.54-7.27,1.59-17.37,2.95-22.62c4.23,4.53,4.09,11.73,3.27,17.74L171.87,308.16z"/>
			<path class="st2" d="M169.69,318.6c-0.02-0.03-0.04-0.07-0.04-0.1c-2.15-8.9-1.92-18.22,0.52-27.07
				c0.16,0.27,0.33,0.53,0.47,0.81c-2.18,8.28-2.44,16.73-0.6,25.04C169.92,317.72,169.81,318.16,169.69,318.6"/>
			<path class="st2" d="M167.1,324.72c-0.8-2.39-1.37-4.85-1.72-7.34c0.05-0.3,0.1-0.59,0.14-0.88c0.07-0.47,0.13-0.92,0.18-1.36
				c0.17,1.75,0.41,3.75,0.91,5.66c0.1,0.37,0.23,0.79,0.37,1.23c0.2,0.61,0.42,1.29,0.57,1.96
				C167.39,324.24,167.25,324.48,167.1,324.72"/>
			<path class="st1" d="M244.88,307.1c-0.74-6.92-1.17-14.09,2.98-18.7c1.45,5.22,3.72,15.35,3.3,22.63
				c-0.2,3.71,3.23,12.33,3.41,17.48C249.74,327.31,246.21,319.46,244.88,307.1z"/>
			<path class="st2" d="M249.89,323.99c0.76-2.4,1.41-5.36,1.71-7.86c-0.05-0.3-0.06-0.66-0.1-0.95c-0.08-0.47-0.19-0.84-0.25-1.28
				c-0.14,1.75-0.46,4.24-0.93,6.16c-0.09,0.38-0.22,0.79-0.35,1.24c-0.19,0.61-0.39,1.29-0.53,1.97
				C249.58,323.51,249.73,323.75,249.89,323.99"/>
			<path class="st2" d="M246.97,317.87c0.02-0.03,0.03-0.07,0.04-0.11c1.99-8.94,1.69-17.93-0.91-26.73
				c-0.16,0.27-0.3,0.55-0.44,0.84c2.33,8.24,2.63,16.34,0.94,24.68C246.71,317,246.84,317.44,246.97,317.87"/>
		</g>
		<g id="Front_00000163050172395215450020000002897901250372094339_">
			<path class="st3" d="M207.45,139.97c-0.88-0.07-1.76-0.25-2.58-0.55c-0.18-1.53-0.37-3.1-0.56-4.7c0.43,0.1,0.9,0.17,1.35,0.23
				c0.36,0.05,0.72,0.08,1.06,0.11l1.42-0.01c0.33-0.03,0.68-0.06,1.04-0.11c0.44-0.06,0.89-0.13,1.32-0.23
				c-0.18,1.61-0.35,3.17-0.52,4.71C209.17,139.71,208.32,139.9,207.45,139.97 M210.66,139.14c0.16-1.54,0.33-3.08,0.51-4.62
				c0.08-0.02,0.15-0.05,0.22-0.08c0.5-0.19,1.45-0.77,2.62-1.59c-0.12,1.6-0.36,3.17-0.67,4.73
				C212.49,138.19,211.6,138.72,210.66,139.14 M204.18,139.15c-0.94-0.41-1.84-0.95-2.69-1.54c-0.33-1.55-0.58-3.12-0.71-4.72
				c1.2,0.82,2.17,1.42,2.69,1.6c0.06,0.02,0.11,0.04,0.17,0.06C203.82,136.08,204,137.61,204.18,139.15 M214.14,136.99
				c0.27-1.52,0.48-3.06,0.56-4.62c1.49-1.07,3.22-2.43,4.82-3.78c-0.49,1.69-0.98,3.25-1.46,4.71c-0.49,0.55-1,1.08-1.53,1.59
				C215.78,135.61,214.99,136.33,214.14,136.99 M200.68,137.01c-0.83-0.64-1.62-1.34-2.35-2.03c-0.54-0.5-1.05-1.03-1.54-1.58
				c-0.49-1.45-1-3.01-1.5-4.7c1.59,1.32,3.32,2.64,4.8,3.69C200.18,133.96,200.39,135.49,200.68,137.01"/>
			<path class="st4" d="M201.48,137.6c-0.27-0.19-0.54-0.39-0.81-0.6c-0.29-1.52-0.5-3.05-0.6-4.61c0.24,0.17,0.47,0.33,0.69,0.48
				C200.9,134.48,201.16,136.05,201.48,137.6"/>
			<path class="st4" d="M204.87,139.42c-0.12-0.04-0.23-0.09-0.35-0.13c-0.12-0.05-0.23-0.09-0.34-0.14
				c-0.18-1.53-0.36-3.07-0.55-4.61c0.21,0.07,0.44,0.13,0.68,0.19C204.5,136.33,204.69,137.89,204.87,139.42"/>
			<path class="st4" d="M213.34,137.59c0.31-1.56,0.56-3.13,0.67-4.73c0.22-0.16,0.45-0.32,0.69-0.49c-0.09,1.56-0.29,3.1-0.56,4.62
				C213.88,137.19,213.61,137.39,213.34,137.59"/>
			<path class="st4" d="M209.98,139.42c0.17-1.54,0.34-3.1,0.52-4.71c0.23-0.05,0.46-0.12,0.68-0.19c-0.17,1.54-0.34,3.08-0.51,4.62
				c-0.09,0.04-0.19,0.08-0.29,0.12C210.25,139.32,210.11,139.37,209.98,139.42"/>
			<path class="st5" d="M205.88,170.25c-0.11-0.21-0.23-0.41-0.36-0.61c-0.06-0.09-0.12-0.18-0.18-0.27
				c0.46-7.84-0.18-15.09-1.91-21.58c-0.26-0.96-0.52-1.91-0.79-2.86c-0.72-2.59-1.46-5.23-1.97-7.93c0.26,0.2,0.53,0.4,0.81,0.6
				c0.44,2.11,1.02,4.18,1.58,6.22c0.7,2.53,1.43,5.15,1.89,7.81c1.09,6.18,1.41,12.2,1,18.43
				C205.95,170.13,205.93,170.2,205.88,170.25"/>
			<path class="st5" d="M207.04,174.52c-0.08-0.8-0.21-1.58-0.41-2.32c0.48-5.34-0.08-10.78-0.63-16.05
				c-0.09-0.87-0.18-1.74-0.27-2.6c-0.46-4.72-0.98-9.55-1.55-14.4c0.11,0.05,0.23,0.1,0.34,0.14c0.12,0.05,0.23,0.09,0.35,0.13
				c0.68,5.79,1.24,11.11,1.71,16.12c0.06,0.69,0.13,1.39,0.2,2.08C207.31,163.17,207.86,168.88,207.04,174.52"/>
			<path class="st5" d="M209.92,169.49c-0.55-7.86-0.09-15.21,1.58-21.73c0.25-0.96,0.5-1.91,0.76-2.87c0.69-2.58,1.4-5.21,1.88-7.9
				c-0.26,0.2-0.53,0.4-0.8,0.6c-0.42,2.1-0.97,4.16-1.51,6.19c-0.68,2.54-1.38,5.17-1.82,7.83c-1.03,6.18-1.15,12.79-0.67,19.01
				L209.92,169.49z"/>
			<path class="st5" d="M208.32,174.16c-0.93-5.7-0.55-10.93-0.07-16.55c0.06-0.69,0.12-1.38,0.18-2.07
				c0.42-5.02,0.92-10.34,1.54-16.12c0.14-0.05,0.27-0.1,0.4-0.16c0.1-0.04,0.19-0.08,0.29-0.12c-0.52,4.85-0.99,9.67-1.41,14.39
				c-0.08,0.86-0.16,1.73-0.24,2.6c-0.5,5.34-0.92,11.1-0.36,16.49c-0.18,0.76-0.02,0.6-0.08,1.43L208.32,174.16z"/>
			<g>
				<path class="st3" d="M240.21,446.01c0.45,0,0.89-0.04,1.34-0.12c2.28-0.39,3.97-1.7,5.43-3.3c-0.01,0-0.02,0-0.02,0l-0.21,0.02
					c-3.05,0.02-13.46-8.37-15.79-10.95c0,0,13.55,9.9,15.74,9.89c0.03,0,0.06,0,0.08-0.01c1.83-0.29,7.03-8.92,7.14-9.1h0
					c0,0-0.08,0.14-0.23,0.38c-1.73,1.91-4.21,3.21-6.79,3.23c-0.14,0-0.27,0-0.41-0.01c-2.83-0.14-5.6-2.06-6.31-4.77
					c-0.53-2.02,0.09-4.21,1.2-5.99c1.11-1.78,2.68-3.22,4.24-4.65c-3.24,1.1-4.76,1.79-6.48,3c-1.25,0.87-5.23,2.76-8.15,2.77
					c-1.1,0.01-2.05-0.25-2.65-0.93c-0.6-0.68-1.21-1.36-1.69-2.13c-0.27-0.43-0.53-0.86-0.79-1.29c-0.4-0.02-0.8-0.07-1.2-0.14
					c-1.03-0.18-2.04-0.55-2.99-1.15c0.13,0.95,0.26,1.79,0.39,2.5c0.84,4.46,2.92,8.79,5.01,12.78c0.34,0.65,0.68,1.32,1.02,2
					c0.93,1.8,1.94,3.65,3.22,5.12l0.1,0.11c0.8,0.34,1.59,0.67,2.31,0.99C235.78,445.18,237.99,446.02,240.21,446.01"/>
				<path class="st3" d="M178,446.32c-0.45,0-0.89-0.03-1.34-0.1c-2.28-0.37-3.98-1.66-5.46-3.24c0.01,0,0.02,0,0.02,0l0.21,0.01
					c3.05-0.02,13.37-8.51,15.68-11.11c0,0-13.45,10.03-15.64,10.04c-0.03,0-0.06,0-0.08-0.01c-1.84-0.27-7.12-8.85-7.23-9.03h0
					c0,0,0.09,0.14,0.24,0.38c1.75,1.89,4.24,3.17,6.82,3.16c0.14,0,0.27,0,0.41-0.01c2.83-0.17,5.58-2.12,6.27-4.83
					c0.51-2.03-0.13-4.21-1.26-5.97c-1.13-1.77-2.72-3.2-4.28-4.61c3.25,1.07,4.78,1.74,6.51,2.93c1.26,0.86,5.26,2.71,8.18,2.69
					c1.1-0.01,2.05-0.27,2.64-0.96c0.6-0.69,1.19-1.37,1.67-2.15c0.26-0.43,0.52-0.86,0.78-1.3c0.4-0.02,0.8-0.07,1.2-0.15
					c1.03-0.19,2.03-0.57,2.98-1.18c-0.12,0.95-0.24,1.79-0.37,2.5c-0.8,4.47-2.83,8.81-4.88,12.83c-0.33,0.65-0.66,1.33-1,2.01
					c-0.92,1.81-1.9,3.67-3.17,5.16l-0.1,0.11c-0.8,0.35-1.58,0.68-2.3,1.01C182.42,445.45,180.22,446.31,178,446.32"/>
				<g>
					<g>
						<path d="M201.7,239.65c-3.31,0.53-6.32,1.69-9.45,2.79c-8.42,2.95-5.48-7.93-3.19-11.67c2.65-4.32,8.06-6.82,12.95-7.75
							c5.84-1.11,4.54,5.81,4.47,8.42C206.38,234.96,206.71,238.98,201.7,239.65 M207.13,231.49c0.06-1.93,0.17-3.84,0.01-5.76
							c-0.55-6.73-10.95-1.71-13.71-0.02c-5.33,3.25-8.15,9.54-7.38,15.57c0.16,1.23,1.14,2.85,2.65,2.67
							c4.53-0.53,8.6-2.96,13.12-3.68c2.36-0.32,3.81-0.75,4.88-2.85C207.49,235.86,207.08,233.16,207.13,231.49"/>
						<path d="M214.04,239.59c-5.08-0.63-4.8-4.65-4.94-8.17c-0.11-2.61-1.51-9.51,4.42-8.45c4.96,0.89,10.47,3.34,13.21,7.64
							c2.37,3.72,5.48,14.57-3.08,11.69C220.46,241.23,217.39,240.09,214.04,239.59 M208.44,231.47c0.07,1.67-0.32,4.37,0.5,5.92
							c1.11,2.1,2.58,2.52,4.98,2.82c4.59,0.69,8.75,3.08,13.34,3.57c1.53,0.17,2.51-1.46,2.65-2.69c0.71-6.04-2.23-12.3-7.66-15.51
							c-2.82-1.66-13.41-6.6-13.88,0.13C208.23,227.64,208.36,229.55,208.44,231.47"/>
						<path d="M199.97,220.1c-2.78,1.67-12.66,8.19-13.43,1.54c-0.66-5.74,1.01-9.82,6.31-12.45c3.23-1.6,8.37-4.65,11.94-4.07
							c2.46,1.43,1.5,6.17,1.1,8.32C205.29,216.74,202.63,218.5,199.97,220.1 M205.19,204.55c-0.76-0.31-1.74-0.19-2.51-0.07
							c-1.32,0.21-2.57,0.72-3.78,1.27c-0.32,0.15-0.64,0.3-0.95,0.45c-2.76,1.3-6.16,2.24-8.54,4.22
							c-2.44,2.03-3.39,4.25-3.69,7.38c-0.15,1.59-0.47,6.77,1.04,8.03c1.79,1.5,3.91-0.24,5.68-1.09c3.66-1.76,8.52-3.5,11.43-6.42
							c2.29-2.29,3.6-6.22,3.48-9.41c-0.05-1.45-0.56-3.38-1.86-4.2L205.19,204.55"/>
						<path d="M215.19,220.05c-2.68-1.58-5.36-3.31-5.99-6.6c-0.41-2.15-1.43-6.88,1.02-8.33c3.57-0.62,8.74,2.38,11.98,3.95
							c5.32,2.57,7.04,6.63,6.43,12.38C227.93,228.11,217.99,221.69,215.19,220.05 M209.81,204.55l-0.3,0.16
							c-1.29,0.83-1.78,2.77-1.82,4.22c-0.08,3.2,1.26,7.11,3.57,9.38c2.94,2.89,7.82,4.58,11.5,6.3c1.78,0.84,3.92,2.55,5.69,1.03
							c1.5-1.28,1.13-6.45,0.96-8.04c-0.32-3.12-1.3-5.34-3.76-7.34c-2.4-1.95-5.81-2.86-8.58-4.13c-0.32-0.15-0.64-0.29-0.96-0.44
							c-1.21-0.54-2.47-1.04-3.79-1.24C211.55,204.34,210.57,204.23,209.81,204.55"/>
						<g>
							<path d="M171.34,442.99l-0.21-0.01c-0.01,0-0.02,0-0.02,0c0,0-0.01-0.01-0.01-0.01c-2.65-0.46-7.57-8.88-7.58-10.07l0.53,0
								c0.11,0.18,5.4,8.76,7.23,9.03c0.03,0,0.05,0.01,0.08,0.01c2.2-0.01,15.64-10.04,15.64-10.04
								C184.72,434.49,174.4,442.98,171.34,442.99"/>
							<path d="M246.67,442.62l0.21-0.02c0.01,0,0.02,0,0.02,0c0,0,0.01-0.01,0.01-0.01c2.65-0.48,7.48-8.96,7.48-10.15l-0.53,0
								c-0.11,0.18-5.31,8.81-7.14,9.1c-0.03,0-0.05,0.01-0.08,0.01c-2.2,0.01-15.74-9.89-15.74-9.89
								C233.21,434.24,243.61,442.63,246.67,442.62"/>
							<path d="M292.97,258.7l-0.04-8.55c-0.03-6.18-3.49-12.75-5.64-16.25c2.07-7.07,2.02-23.98,0.83-31.82
								c-0.72-4.77-4.06-8.64-5.72-11.12c0.03-0.19,0.06-0.38,0.09-0.58c0.87-5.77-3.11-19.89-5.49-25.85
								c-1.58-3.95-4.84-5.44-7.46-6.63c-1.42-0.64-2.64-1.2-3.34-2c-1.77-2.05-3.53-2.6-5.09-3.09c-0.41-0.13-0.8-0.25-1.18-0.4
								c-0.6-0.23-1.13-0.71-1.93-1.43c-1.36-1.22-3.42-3.08-7.81-5.6c-2.41-1.38-5.81-2.99-9.4-4.69c-5.89-2.78-12.76-5.99-14.41-8
								c-1.5-1.83-1.69-7.65-1.71-9.57c0.7-1.81,0.76-4.65,0.73-6.3c0.3,0.13,0.66,0.21,1.09,0.16c1.46-0.19,2.82-2.47,4.45-5.44
								c0.46-0.83,0.89-1.62,1.22-2.1c1.41-2.04,1.08-6.43,0.02-9.71c-0.31-0.96-0.83-1.51-1.54-1.64
								c-0.98-0.17-2.05,0.57-2.81,1.28c0.12-4.1,0.01-15.63-4.75-21.29c-4.1-4.87-12.26-6.05-15.35-6.32l-1.22,0.01
								c-3.09,0.31-11.24,1.56-15.29,6.48c-4.7,5.7-4.7,17.24-4.53,21.33c-0.77-0.7-1.84-1.43-2.82-1.25
								c-0.71,0.13-1.22,0.69-1.52,1.65c-1.02,3.29-1.31,7.69,0.12,9.71c0.34,0.47,0.77,1.26,1.24,2.08c1.66,2.95,3.04,5.23,4.5,5.4
								c0.43,0.05,0.79-0.03,1.09-0.17c-0.02,1.82,0.09,5.09,1.03,6.81c0,0,0,0.01,0.01,0.01c-0.04,1.35-0.29,7.14-1.86,9.1
								c-1.62,2.03-8.26,5.25-14.12,8.09c-3.58,1.74-6.96,3.37-9.36,4.78c-4.37,2.56-6.41,4.43-7.76,5.67
								c-0.79,0.73-1.32,1.21-1.91,1.45c-0.38,0.15-0.77,0.28-1.18,0.41c-1.55,0.5-3.3,1.08-5.05,3.14
								c-0.69,0.81-1.9,1.38-3.32,2.04c-2.61,1.22-5.86,2.73-7.4,6.7c-2.32,5.98-6.16,20.14-5.23,25.9
								c0.07,0.41,0.14,0.82,0.21,1.22c-1.65,2.48-4.61,6.1-5.27,10.75c-1.1,7.8-1.15,24.07,0.95,31.18
								c-2.08,3.39-5.76,10.29-5.73,16.72l0.04,8.55c-0.59,0.96-3.65,6.56-2.93,17.45c0.27,4.17,0.76,8.02,1.28,12.09
								c0.92,7.25,3.92,15.46,3.62,25.17c-0.45,14.81-0.17,28.93,0.43,31.66c0.55,2.5,5.23,14.64,5.43,15.16l0.17,0.45l0.46-0.13
								c0.03-0.01,2.8-0.81,3.02-4.47l1.49,1.68l0.39-0.55c0.09-0.12,1.38-1.98,1.73-4.26c0.82-1.4,2.51-4.98,0.51-7.99
								c-2.28-3.43-6.04-10.53-6.08-10.61l0,0c-0.01-0.24-0.04-0.44-0.06-0.59c0.53-4.23-0.03-5.77,1.54-6.37
								c0.13-0.05,0.2-0.03,0.28,0.02c1.15,0.73,1.42,2.7,1.72,4.78c0.27,1.95,0.56,3.97,1.56,5.53c1.17,1.83,2.98,4.21,5.07,2.46
								c1.37-1.15,0.13-9.02-0.22-11.35c-0.43-2.91-0.43-3.73-1.61-8.34c-0.75-2.94-1.2-4.46-1.4-5.82
								c-0.1-1.12,0.16-5.79,0.57-9.21c0.47-3.92,2.86-10.34,5.39-17.14c2.89-7.77,5.88-15.79,6.05-20.45
								c0.26-7.21-0.7-10.78-1.05-11.81c0.61-0.73,2.29-2.99,2.73-5.91c0.52-3.39,0.32-9.27,0.31-9.42
								c0.02-0.1,1.74-10.27,4.65-14.94c2.21-3.55,5.45-10.49,6.83-14.12c0.53,3.58,1.11,6.78,1.69,8.49
								c0.74,2.17,1.67,4.58,2.57,6.91c1.29,3.32,2.5,6.46,2.82,8.1c0.45,2.32,0.23,19.44,0.15,25.07c-0.02,1.2-0.03,2-0.02,2.2
								c0,0.01,0,0.01-0.01,0.02c-0.1,0.11-0.18,0.3-0.22,0.5c-0.22,0.41-0.58,0.97-0.9,1.49c-1.76,2.8-4.7,7.48-4.1,12.09
								c0.66,5.13,1.45,7.27,1.74,7.92c-0.57,1.85-4.8,15.93-4.09,26.06c0.25,3.53-1.11,9.06-2.84,16.05
								c-2.22,9.01-6.4,29.76-7.29,42.69c-1.32,19.13,4.28,40.99,5.86,52.81c0.34,2.53,0.56,4.2,0.59,4.71
								c0.08,1.25-0.03,2.11-0.16,3.11c-0.17,1.36-0.37,2.9-0.15,5.79c0.02,0.29,0.07,0.61,0.14,0.95
								c-0.73,1.66-7.17,16.65-7.29,26.41c-0.06,4.77,1.52,15.34,3.19,26.53c1.51,10.13,2.96,20.61,3.44,27.08l0.01,0.17
								c0.04,0.54,0.07,1.06,0.1,1.54c0.09,3.47-0.21,10.38-0.43,11.06c-0.51,1.59-0.99,3.1-0.94,5.43
								c-0.14,0.14-0.28,0.27-0.42,0.39c-1.91,1.65-2.67,3.86-3.41,6c-0.24,0.7-0.47,1.36-0.74,1.99
								c-1.02,2.42-10.15,10.03-11.41,10.83c-0.98,0.62-3.46,4.3-3.46,4.3c-0.93,1.01-0.64,2.66-0.44,3.75
								c0.03,0.19,0.07,0.37,0.09,0.53c0.08,0.58,0.26,0.98,0.41,1.3c0.13,0.28,0.22,0.49,0.22,0.74c0.01,0.34-0.05,0.75-0.1,1.14
								c-0.05,0.35-0.09,0.72-0.1,1.06c-0.01,0.61,0.03,2.08,0.63,2.56c0.34,0.28,0.66,0.47,1.13,0.56
								c-0.05,0.15-0.11,0.35-0.19,0.59c-0.36,1.08,0.46,2.19,1.06,2.63c0.43,0.31,1.11,0.34,1.58,0.31c0,0.09,0.02,0.15,0.03,0.2
								c0.08,0.76,0.34,1.82,1.32,2.28c1,0.47,1.51,0.35,2.09,0.07c1.15,1.57,3.47,2.52,5.56,2.31c0.27-0.03,0.54-0.07,0.79-0.14
								c2.15-0.56,4.83-2.43,5.82-4.92c0.79-2,1.96-2.66,2.99-3.11c4.28-1.37,6.6-6.16,7.2-10.6c0.53-3.92,3.02-8.19,3.67-9.07
								c2.99-1.27,4.75-2.87,6.27-5.12c1.6-2.37,1.65-3.88,1.19-5.83c-0.44-1.86-1.65-10.62-2.06-11.98
								c-0.36-1.19-0.53-2.41-0.81-3.89c-0.89-4.62,4.73-28.51,6.39-33.17c0.64-1.78,1.55-3.73,2.62-5.99
								c1.8-3.82,4.04-8.58,5.82-14.6c2.69-9.11-1.73-29.21-2.27-31.59c1.58-2.8,2.98-5.7,4.19-8.65c0.97-2.37,1.88-4.82,2.33-7.34
								c0.67-3.73,1.22-10.77,1.87-18.93c0.57-7.21,1.22-15.38,2.02-21.9c0.99-8.05,3.08-17.15,4.75-24.46
								c1.15-5,2.14-9.32,2.45-11.92c0.6-4.87-0.04-9.71-0.4-11.83c0.37,0.04,1.48,0.04,1.76-0.01c-0.33,2.12-0.92,6.97-0.28,11.83
								c0.34,2.6,1.38,6.91,2.57,11.9c1.75,7.29,3.92,16.37,5,24.41c0.87,6.52,1.6,14.68,2.24,21.88
								c0.73,8.15,1.35,15.19,2.06,18.91c0.48,2.52,1.41,4.96,2.4,7.32c1.24,2.94,2.67,5.83,4.27,8.61
								c-0.52,2.38-4.74,22.53-1.95,31.61c1.84,6,4.13,10.74,5.97,14.54c1.09,2.25,2.02,4.19,2.68,5.96
								c1.71,4.64,7.57,28.47,6.72,33.1c-0.27,1.49-0.43,2.7-0.78,3.9c-0.4,1.36-1.52,10.14-1.94,12c-0.44,1.96-0.37,3.47,1.25,5.82
								c1.54,2.24,3.33,3.82,6.33,5.06c0.66,0.87,3.19,5.12,3.76,9.03c0.64,4.43,3.01,9.19,7.3,10.52c1.04,0.45,2.21,1.1,3.02,3.08
								c1.01,2.48,3.72,4.32,5.87,4.86c0.26,0.06,0.53,0.11,0.8,0.13c2.09,0.19,4.4-0.78,5.54-2.36c0.58,0.28,1.09,0.39,2.09-0.09
								c1.07-0.51,1.27-1.73,1.32-2.49c0.47,0.02,1.16-0.01,1.59-0.33c0.6-0.45,1.4-1.56,1.03-2.64c-0.08-0.22-0.14-0.41-0.19-0.56
								l0,0c0-0.01-0.01-0.02-0.01-0.04c0.47-0.09,0.78-0.29,1.12-0.57c0.59-0.49,0.62-1.96,0.6-2.57c-0.01-0.34-0.06-0.7-0.11-1.05
								c-0.06-0.39-0.11-0.8-0.11-1.14c0-0.25,0.09-0.46,0.22-0.74c0.14-0.32,0.32-0.72,0.39-1.31c0.02-0.16,0.05-0.34,0.08-0.53
								c0.18-1.09,0.46-2.75-0.48-3.74c0,0-2.52-3.65-3.51-4.27c-1.27-0.78-10.47-8.3-11.52-10.71c-0.27-0.63-0.51-1.29-0.76-1.99
								c-0.76-2.13-1.55-4.33-3.47-5.96c-0.14-0.12-0.28-0.25-0.43-0.39c0.02-2.33-0.47-3.84-1-5.42
								c-0.22-0.68-0.59-7.58-0.54-11.05c0.02-0.48,0.05-1,0.08-1.54c0.01-0.06,0.02-0.12,0.03-0.17l-0.02,0
								c0.41-6.48,1.75-16.96,3.16-27.11c1.56-11.21,3.03-21.8,2.93-26.57c-0.22-9.69-6.72-24.48-7.54-26.3
								c0.09-0.41,0.14-0.79,0.17-1.14c0.19-2.89-0.02-4.43-0.21-5.78c-0.14-1-0.26-1.86-0.19-3.11c0.03-0.51,0.23-2.18,0.55-4.72
								c1.45-11.83,6.83-33.75,5.32-52.87c-1.02-12.92-5.41-33.63-7.72-42.62c-1.79-6.97-3.21-12.48-3-16.02
								c0.61-10.14-3.76-24.17-4.35-26.01c0.28-0.65,1.05-2.8,1.66-7.93c0.55-4.61-2.44-9.26-4.22-12.04
								c-0.52-0.82-1.12-1.74-1.15-2c0-0.2-0.02-0.99-0.05-2.2c-0.13-5.62-0.52-22.74-0.1-25.07c0.3-1.64,1.48-4.79,2.74-8.13
								c0.88-2.34,1.79-4.76,2.5-6.93c0.54-1.66,1.05-4.75,1.53-8.19c0-0.01,0-0.01,0-0.02c1.44,3.53,4.66,10.01,6.74,13.65
								c3.66,6.42,4.96,16.9,5.2,24.3c0.09,2.95,2.18,5.15,2.79,5.88c-0.34,1.04-1.27,4.62-0.93,11.82
								c0.22,4.65,3.29,12.65,6.25,20.38c2.6,6.77,5.05,13.17,5.56,17.09c0.37,2.82,0.72,4.65,0.75,6.04
								c0.03,1.33,0.02,2.68-0.1,4.02c-0.11,1.24-0.63,2.71-1.24,5.22c-1.13,4.62-1.12,5.44-1.53,8.36
								c-0.32,2.33-1.49,10.21-0.11,11.35c2.1,1.73,3.89-0.66,5.04-2.51c0.99-1.58,1.25-3.6,1.5-5.55c0.27-2.09,0.53-4.06,1.67-4.8
								c0.08-0.05,0.15-0.07,0.28-0.02c1.58,0.58,1.03,2.13,1.61,6.36c-0.03,0.15-0.04,0.35-0.06,0.59l0,0
								c-0.04,0.07-3.73,7.21-5.97,10.67c-1.97,3.04-0.24,6.6,0.59,7.99c0.38,2.29,1.69,4.13,1.78,4.25l0.39,0.54l1.47-1.69
								c0.26,3.65,3.03,4.43,3.06,4.44l0.47,0.12l0.17-0.45c0.19-0.52,4.76-12.71,5.28-15.21c0.57-2.73,0.71-16.86,0.11-31.66
								c-0.39-9.71,2.53-17.95,3.37-25.21c0.47-4.08,0.92-7.93,1.15-12.1C296.69,265.22,293.57,259.66,292.97,258.7z M287.26,201.62
								c1.35,7.68,1.2,24.21-0.68,31.17c-0.41-0.62-0.72-1.07-0.87-1.28c-0.09-1.6-0.84-13.74-2.05-19.47
								c-1.14-5.4-3.15-10.58-3.57-11.62c0.27-0.81,1.33-4.09,2.1-8.27C282.99,193.1,286.7,198.42,287.26,201.62z M232.67,260.78
								c0.01-1.23,0.07-2.45,0.17-3.67c0.28,0.08,0.61,0.08,1.01-0.04c2.66-0.74,4.98-5.24,6.08-7.41c1.26-2.48,2.21-5.01,2.81-7.64
								c0,4.35,0.1,10.09,0.22,15.34c-1.75,3.01-4.12,5.72-7.1,7.56c-0.45,0.29-1.07,0.58-1.6,0.65c-1.06,0.14-1.6-1.22-1.49-2.09
								C232.72,262.58,232.67,261.68,232.67,260.78z M242.96,235.33c-0.05,0.27-0.15,1.35-0.15,1.4c-0.22,6.06-2.37,11.9-6.02,16.74
								c-0.92,1.22-1.98,2.72-3.74,1.94c-0.93-0.42-0.86-1.47-0.74-2.32c0.18-1.31,0.31-2.62,0.54-3.92
								c0.12-0.65,0.28-1.29,0.49-1.92c0.03-0.09,0.17-0.55,0.32-0.97c0.53,0.14,1.26-0.07,2.27-0.8c3.01-2.18,4.64-5.6,5.47-9.28
								c0.62-0.55,1.21-1.12,1.76-1.73C243.07,234.79,243,235.08,242.96,235.33z M238.39,242.1c-0.51,0.71-1.01,1.38-1.66,1.96
								c-0.76,0.68-1.72,1.84-2.86,1.23c-1.04-0.55-0.71-2.34-0.63-3.27c0.15-1.65,0.36-3.29,0.54-4.94
								c2.74-2.47,4.97-5.64,6.52-9.13c0.4-0.11,0.79-0.24,1.18-0.39C241.6,232.13,241.14,238.26,238.39,242.1z M237.84,231.3
								c-1.12,1.7-4.02,7.06-4.69,2.78c-0.43-2.74-1.62-6.85,0.52-9.26c0.72-0.15,1.24-1.03,1.74-1.48c0.58-0.53,1.14-1.07,1.7-1.62
								c0.2-0.2,0.39-0.41,0.58-0.62c1.44-0.14,2.82-0.44,4.14-0.89C241.36,224.2,239.99,228.05,237.84,231.3z M232.79,222.72
								c-0.48-1.24-1.03-2.49-1.02-3.84c0.01-3.63,2.89-6.49,6.09-8.1c1.86,0.64,3.78,1.08,5.75,1.3c-1.41,2.51-3.03,4.92-4.96,7.08
								c-0.71,0.79-1.57,1.47-2.36,2.18c-0.5,0.46-1,0.92-1.48,1.4c-0.32,0.32-0.81,0.84-1.29,0.9
								C232.96,223.73,232.97,223.18,232.79,222.72z M238.39,220.36c0.63-0.69,1.24-1.39,1.82-2.11c1.54-1.91,2.91-3.96,4.11-6.1
								c0.9,0.08,1.84,0.13,2.77,0.12c0.23,1.15,0.35,2.51,0.39,3.89l-0.02,0.01C244.88,218.49,241.8,219.9,238.39,220.36z
								 M235.52,209.11c0.23-0.01,0.45-0.01,0.69-0.03c2.88-0.16,5.82-1.72,8.45-3.72c1.04,2.02,1.78,4.1,2.28,6.26l0,0
								C242.91,211.64,239.07,210.78,235.52,209.11z M239.62,207.43c-6.75,2.94-19.05-0.11-24.48-5.49
								c-4.2-4.16-4.96-10.85-5.56-16.49c-0.39-3.73-1.94-11.15,0.24-14.57c4.3-6.73,9.66-7.64,17.37-8.11
								c15.48-0.95,16.58,3.88,21.86,8.89c1.78,1.69,2.9,3.5,4.15,5.27c3.86,5.44,4.89,10.54,4.44,11.08
								C253.41,195.01,247.34,204.06,239.62,207.43z M219.17,148.22c0.78-2,1.45-3.7,1.89-4.78c0.71-1.74,1.3-4.14,1.78-6.55
								c5.69,5.05,6.8,15.14,13.78,18.7c1.15,0.59,2.31,0.96,3.49,1.18c-1.75,0.77-3.78,1.59-5.96,2.31
								C227.17,158.91,221.44,154.75,219.17,148.22z M232.43,159.62c-6.09,1.78-12.89,2.5-17.28-1.02c1.19-3.11,2.52-6.54,3.66-9.47
								C221.13,155,226.2,158.88,232.43,159.62z M220.57,143.23c-1.82,4.46-7.49,19.3-8.96,23.14c-0.4-2.54-1.31-9.58,0.08-14.38
								c0.69-2.41,1.67-4.81,2.8-7.59c1.65-4.08,3.7-9.13,5.77-16.43c1.36-1.18,2.57-2.32,3.36-3.22c0.04,0.59,0.1,1.34,0.19,2.15
								C223.48,130.14,222.16,139.33,220.57,143.23z M258.26,188.23l0.02-0.03c3.89,7.39,10.33,12.69,18.27,15.09
								c7.25,15.18,4.86,34.59-0.98,50.29c-3.05-3.03-6.07-6.71-8.29-10.3c-2.86-4.61-4.62-9.87-6.48-14.95
								c-3.8-10.35-6.94-21.02-7.6-31.99C255.02,193.74,256.59,190.99,258.26,188.23z M276.33,253.54
								c6.12-14.46,8.4-34.97,1.18-50.33c0.55-0.74,1.1-1.49,1.65-2.24c0.51,1.29,2.38,6.19,3.45,11.29
								c1.08,5.14,1.8,15.84,1.98,18.7c0.01,0.46,0.03,0.8,0.06,1.05c0.6,8.24-3.99,14.57-8.06,21.63c-0.12,0.21-0.24,0.4-0.35,0.6
								c-0.05-0.04-0.09-0.09-0.14-0.14C276.2,253.95,276.26,253.71,276.33,253.54z M266.56,157.58c0.74,0.48,1.62,0.88,2.54,1.3
								c2.58,1.17,5.49,2.5,6.91,6.05c2.34,5.86,6.27,19.71,5.43,25.29c-0.72,4.74-1.94,8.64-2.31,9.73
								c-2.05,2.62-3.32,2.82-6.67,1.16c-2.29-1.14-4.53-2.44-6.47-4.15c-3.29-2.91-5.86-6.27-7.77-10.26
								c-0.01-0.02-0.02-0.03-0.04-0.05c-0.69-5.46-5.4-12.86-10.88-18.06c-0.24-0.53-0.45-1.07-0.61-1.62
								c-1.8-6.05,3.17-7.28,7.92-7.01C258.14,160.17,264.65,161.6,266.56,157.58z M260.79,153.83c1.49,0.47,3.02,0.95,4.6,2.77
								c0.19,0.21,0.4,0.41,0.63,0.59c-2.61,6.25-15.32-1.07-19.63,4.48c-1.27,1.63-1.21,3.63-0.48,5.66
								c-3.4-2.92-7.13-5.29-10.17-5.37c-15.43-0.38-20.55,1.6-23.76,4.91c0.46-1.21,1.59-4.17,2.92-7.64
								c6.97,5.34,19.42,0.87,26.38-2.29c6.13,0.61,12.54-2.67,18.59-3.42C260.17,153.63,260.48,153.73,260.79,153.83z
								 M225.76,133.42c1.79,2.2,8.29,5.27,14.57,8.24c3.57,1.69,6.95,3.29,9.33,4.65c4.3,2.46,6.3,4.27,7.63,5.46
								c0.56,0.5,1.02,0.9,1.49,1.21c-8.96,1.41-19.75,7.64-26.13-2.22c-3.13-4.83-5.26-10.76-9.66-14.66
								c0.54-2.88,0.91-5.69,1.1-7.33C224.41,130.59,224.93,132.41,225.76,133.42z M189.39,115.51c-0.01,0.03-0.37,0.69-1.06,0.61
								c-1.04-0.12-2.7-3.09-3.7-4.86c-0.5-0.89-0.93-1.66-1.3-2.18c-1.07-1.51-1.06-5.28,0.03-8.78c0.17-0.56,0.41-0.86,0.7-0.92
								c0.76-0.14,2.1,1.06,2.82,1.96l1.09,1.36l-0.14-1.73c-0.01-0.15-1.18-15.51,4.21-22.04c4-4.85,12.66-5.92,15.08-6.14
								c2.42,0.19,11.09,1.18,15.14,5.98c5.45,6.47,4.44,21.84,4.43,21.99l-0.12,1.73l1.07-1.37c0.71-0.91,2.04-2.13,2.8-1.99
								c0.29,0.05,0.53,0.36,0.71,0.91c1.12,3.48,1.17,7.26,0.12,8.78c-0.36,0.52-0.79,1.3-1.28,2.19c-0.98,1.78-2.61,4.76-3.65,4.9
								c-0.68,0.09-1.05-0.57-1.06-0.59l-1.18-2.24l0.17,2.52c0,0.05,0.36,5.38-0.79,7.54c-1.16,2.19-10.63,9.63-12.46,10.3
								c-1.03,0.38-2.5,0.53-3.6,0.58c-1.11-0.05-2.58-0.18-3.61-0.55c-1.83-0.66-11.37-8-12.56-10.18
								c-1.17-2.14-0.87-7.47-0.86-7.53l0.15-2.52L189.39,115.51z M181.93,266.08c-0.53-0.07-1.16-0.35-1.61-0.63
								c-2.77-1.68-5.03-4.09-6.76-6.81c0.06-4.8,0.1-10.09,0.08-14.4c0.61,2.05,1.43,4.04,2.45,5.99c1.12,2.15,3.49,6.63,6.16,7.34
								c0.4,0.11,0.74,0.11,1.01,0.03c0.11,1.22,0.19,2.44,0.21,3.66c0.01,0.9-0.03,1.8-0.07,2.71
								C183.51,264.85,182.99,266.22,181.93,266.08z M183.04,255.91c-1.75,0.8-2.83-0.69-3.76-1.9c-2.82-3.67-4.77-7.93-5.66-12.43
								c-0.04-2.86-0.12-4.99-0.26-5.75c-0.01-0.04-0.02-0.09-0.03-0.14c0.38,0.38,0.78,0.74,1.18,1.1
								c0.86,3.67,2.53,7.08,5.56,9.22c1.02,0.72,1.75,0.93,2.28,0.78c0.15,0.42,0.3,0.87,0.33,0.97c0.21,0.63,0.38,1.27,0.51,1.92
								c0.25,1.3,0.39,2.61,0.58,3.91C183.88,254.43,183.97,255.49,183.04,255.91z M182.13,245.8c-1.14,0.62-2.1-0.53-2.88-1.2
								c-0.66-0.58-1.17-1.24-1.69-1.95c-2.79-3.81-3.31-9.94-3.22-14.51c0.39,0.14,0.78,0.27,1.19,0.38
								c1.58,3.47,3.84,6.63,6.6,9.07c0.19,1.64,0.42,3.28,0.59,4.93C182.82,243.46,183.16,245.24,182.13,245.8z M178,231.85
								c-2.19-3.25-3.61-7.28-4.11-11.31c1.24,0.41,2.54,0.69,3.89,0.82c0.29,0.3,0.57,0.61,0.86,0.9c0.56,0.55,1.13,1.09,1.71,1.61
								c0.51,0.45,1.04,1.33,1.76,1.47c2.17,2.39,1.01,6.51,0.61,9.25C182.09,238.87,179.14,233.54,178,231.85z M168.63,212.91
								C168.63,212.91,168.63,212.91,168.63,212.91c0.9,0,1.82-0.06,2.7-0.14c1.22,2.13,2.61,4.16,4.17,6.06
								c0.5,0.62,1.03,1.22,1.56,1.8c-3.3-0.47-6.31-1.83-8.84-4.06l-0.01-0.01C168.27,215.23,168.42,214.02,168.63,212.91z
								 M182.23,224.15c-0.48-0.06-0.97-0.57-1.29-0.89c-0.48-0.48-0.99-0.93-1.49-1.38c-0.79-0.71-1.66-1.37-2.38-2.16
								c-1.95-2.14-3.59-4.53-5.03-7.02c1.98-0.24,3.91-0.69,5.77-1.35c3.21,1.59,6.09,4.41,6.14,8.03
								c0.02,1.36-0.51,2.61-0.98,3.85C182.8,223.68,182.81,224.23,182.23,224.15z M168.77,212.27c0.5-2.28,1.31-4.51,2.44-6.67
								c2.61,1.88,5.49,3.32,8.26,3.44c0.61,0.03,1.22,0.04,1.81,0.05C177.44,211.16,173.22,212.23,168.77,212.27z M176.04,207.41
								c-7.76-3.29-14.67-13.02-18.23-19.24c0.25-3.14,1.9-6.89,4.38-10.55c2.85-4.2,6.24-8.22,8.44-10.02
								c6.01-4.9,11.34-4.72,16.46-4.58c7.72,0.21,14.58,1.51,18.36,7.54c2.15,3.44,0.74,10.84,0.39,14.57
								c-0.54,5.64-1.23,12.34-5.39,16.54C195.09,207.11,183.16,210.43,176.04,207.41z M138.96,204.35
								c8.09-2.49,14.6-8.02,18.43-15.66c1.73,2.82,3.29,5.57,5.18,8.19c-0.53,11.02-3.58,21.75-7.29,32.17
								c-1.81,5.1-3.52,10.37-6.33,15.02c-2.39,3.94-4.98,7.48-8.3,10.7C134.65,239.16,131.95,219.61,138.96,204.35z M139.67,254.03
								c-4.07-6.84-8.85-13.36-8.3-21.59c0.16-3.01,0.84-14.32,1.87-19.43c0.95-4.74,2.59-9.32,3.21-10.99
								c0.58,0.77,1.16,1.54,1.74,2.31c0.01,0.02,0.03,0.03,0.04,0.04C131.42,219.52,133.85,238.51,139.67,254.03z M203.62,166.36
								c-1.5-3.82-7.32-18.61-9.19-23.05c-2.08-4.97-3.26-15.44-3.31-15.87c0.1-0.89,0.16-1.71,0.19-2.37
								c0.81,0.88,1.99,1.95,3.3,3.07c2.13,7.22,4.22,12.23,5.9,16.27c1.16,2.77,2.16,5.17,2.87,7.57
								C204.83,156.77,204,163.82,203.62,166.36z M196.32,149.38c1.18,2.94,2.54,6.38,3.76,9.46c-2.9,2.93-11.07,2.9-17.5,1.25
								C188.91,159.34,194.04,155.36,196.32,149.38z M180.94,159.56l-0.05,0.02c-2.15-0.69-4.16-1.48-5.89-2.22
								c1.17-0.23,2.33-0.62,3.47-1.22c6.97-3.65,7.96-13.84,13.67-18.92c0.49,2.33,1.09,4.63,1.8,6.31
								c0.47,1.11,1.18,2.87,2.01,4.94C193.75,155.09,187.99,159.36,180.94,159.56z M157.96,152.26c1.32-1.21,3.31-3.03,7.58-5.54
								c2.36-1.39,5.72-3.02,9.28-4.74c6.25-3.03,12.72-6.17,14.49-8.38c0.75-0.93,1.22-2.52,1.53-4.16
								c0.23,1.72,0.62,4.34,1.15,7.01c-4.42,3.94-6.5,9.93-9.6,14.83c-6.32,9.99-17.28,3.72-26.29,2.45
								C156.71,153.4,157.26,152.91,157.96,152.26z M149.91,157.18c1.56-1.84,3.09-2.34,4.57-2.82c0.05-0.01,0.09-0.03,0.13-0.04
								l0.45-0.03c6.08,0.66,12.57,3.92,18.74,3.25c7.03,3.11,19.86,6.88,26.52,1.94c1.19,3.02,2.22,5.63,2.75,6.99
								c-3.33-3.16-8.8-4.6-23.76-4.14c-3.03,0.09-6.57,2.22-9.92,5.29c0.59-1.91,0.55-3.77-0.66-5.29c-4.38-5.53-17.1,2-19.71-4.36
								C149.37,157.72,149.66,157.46,149.91,157.18z M139.38,165.61c1.38-3.57,4.29-4.92,6.85-6.12c0.81-0.38,1.59-0.75,2.27-1.17
								c1.89,4.12,8.46,2.61,12.01,2.37c4.75-0.32,9.73,0.87,7.99,6.93c-0.13,0.44-0.28,0.87-0.45,1.29
								c-5.64,5.69-10.44,13.76-10.84,18.7c-1.86,3.97-4.39,7.34-7.63,10.26c-1.92,1.73-4.14,3.06-6.43,4.22
								c-3.19,1.62-4.36,1.47-6.29-0.83l-0.15-0.28c-0.02-0.04-1.62-4.46-2.51-10.02C133.3,185.38,137.09,171.49,139.38,165.61z
								 M128.94,202.63c0.48-2.88,3.48-7.5,4.65-9.1c0.79,3.87,1.79,6.85,2.05,7.62c-0.4,1.04-2.36,6.24-3.45,11.65
								c-1.15,5.74-1.78,17.89-1.86,19.49c-0.11,0.16-0.31,0.45-0.58,0.85C127.97,225.87,127.7,210.09,128.94,202.63z
								 M121.49,276.92c-0.57-8.72,1.37-14,2.33-16.01c1.17,7.48,4.42,14.97,7.51,21.87c4.1,9.16,6.67,19.47,7.47,29.32
								c-0.07,2.03,0.02,3.49,0.22,4.77c-7.72-9.67-14.35-20.18-16.8-32.35C121.92,282.03,121.66,279.54,121.49,276.92z
								 M136.2,356.85l-1.4-1.58c-0.34-3.77-2.03-9.69-2.3-10.61c0.03-0.22,0.08-0.79,0.13-1.55c1.1,2.02,2.72,4.88,4.08,6.94
								C138.34,352.5,136.92,355.58,136.2,356.85z M132.9,337.47c1.28,2.36,3.58,6.51,5.17,8.91c1.06,1.61,0.82,3.48,0.33,4.95
								c-0.14-0.63-0.39-1.26-0.79-1.87c-1.74-2.62-3.9-6.6-4.84-8.36C132.82,339.91,132.87,338.61,132.9,337.47z M140.06,321.45
								c1,4.14,1.62,6.27,1.63,8.26c0.03,5.13,1.66,10.75-0.18,10.77c-0.45,0-1.4-0.45-2.71-2.49c-0.88-1.37-1.14-3.27-1.4-5.11
								c-0.33-2.33-0.64-4.54-2.2-5.53c-0.38-0.24-0.8-0.28-1.23-0.12c-2.56,0.98-1.7,5.35-2.23,7.21l-0.04,0.13l0.03,0.14
								c0.69,2.9-0.3,9.84-0.31,9.91l-0.02,0.12l0.03,0.11c0.02,0.08,2.33,7.96,2.35,11.57c0.01,2.38-1.15,3.37-1.81,3.74
								c-0.92-2.4-4.72-12.35-5.19-14.49c-0.48-2.2-0.87-16.05-0.41-31.4c0.29-9.49-2.52-17.52-3.53-24.64
								c3.19,10.51,9.36,19.78,16.34,28.42l0.04,0.06C139.46,319.22,139.74,320.14,140.06,321.45z M142.42,293.95
								c-0.34,1.45-0.19,0.85-0.57,2.44c-1.34,3.85-2.29,7.31-2.59,9.79c-0.05,0.44-0.1,0.85-0.14,1.26
								c-0.84-5.9-2.4-12.74-4.39-18.18c-3.53-9.67-8.97-19.06-10.32-29.37c0,0,0.01-0.01,0.01-0.01l0.01-0.01l-0.04-8.87
								c-0.03-6.9,4.57-14.63,6.28-17.26c0,0,0-0.01,0-0.01c-0.03,9.4,6.67,16.82,10.88,25c5.13,9.97,3.36,23.76,1.03,34.5
								C142.48,293.65,142.48,293.63,142.42,293.95z M150.69,268.68c-0.16,4.48-3.12,12.43-5.98,20.11
								c-0.14,0.38-0.47,1.04-0.83,1.74c1.72-8.33,2.58-16.71,0.74-25.23c-0.18-0.84-0.42-1.66-0.69-2.48
								c1.72-2.05,3.65-3.9,5.79-5.53C150.03,258.29,150.95,261.77,150.69,268.68z M157.49,226.08c-3.02,4.85-4.72,14.9-4.8,15.43
								c0,0.06,0.2,6.03-0.3,9.32c-0.48,3.17-2.66,5.58-2.68,5.6l-0.22,0.24c0,0,0,0,0,0c-2.14,1.61-4.08,3.43-5.81,5.46
								c-0.05-0.13-0.09-0.24-0.12-0.35c-0.8-2.15-1.85-4.2-3-6.21c3.18-3.03,6.09-6.41,8.94-11.19c2.79-4.68,3.79-8.29,5.69-13.31
								c4.07-10.79,7.33-21.94,7.96-33.41c0.11,0.15,0.22,0.3,0.34,0.45c0.29,2.87,0.78,7.41,1.37,11.8
								c0.01,0.05,0.01,0.1,0.02,0.15C163.78,213.31,160.07,221.93,157.49,226.08z M164.72,199.6c1.55,1.77,3.63,3.85,5.97,5.61
								c-2.43,4.58-3.45,9.54-3.06,14.45C166.48,215.26,165.34,205.41,164.72,199.6z M168.21,217.36c1.53,1.27,3.21,2.24,5.01,2.92
								c0.3,2.55,0.98,5.09,1.99,7.49c-2.32-0.72-4.4-2.01-6.08-3.78C168.46,221.49,168.22,219.3,168.21,217.36z M171.03,229.43
								c-0.03-0.08-0.09-0.21-0.15-0.36c-0.57-1.35-1.03-2.63-1.4-3.84c1.26,1.13,2.68,2.04,4.24,2.68
								c-0.01,0.02-0.02,0.05-0.02,0.07c-0.06,2.43,0.08,5.12,0.57,7.71c-0.47-0.44-0.92-0.9-1.35-1.38
								C172.47,233,171.77,231.35,171.03,229.43z M168.26,277.26c-0.54-4.22,2.27-8.7,3.95-11.38c0.3-0.48,0.55-0.87,0.74-1.2
								c6.76,2.99,14.87,8.25,13.1,17.23c-0.49,2.5-2.67,5.18-4.2,7.07c-2.15,2.64-4.17,1.44-6.43-0.34
								c-1.96-1.54-3.9-3.12-5.84-4.7C169.23,282.84,168.72,280.79,168.26,277.26z M163.05,327.67c1.75-7.08,3.12-12.68,2.87-16.38
								c-0.51-7.27,1.59-16.67,2.97-21.9c4.21,4.55,3.73,11.84,2.89,17.85c-1,7.16-2.11,17.4-8.9,21.15
								C162.94,328.15,163,327.91,163.05,327.67z M155.79,370.19c0.57-8.33,2.53-19.96,4.43-29.55c-0.6,7.47-0.37,14.02,1.37,22.87
								c1.74,8.84,7.18,20.95,9.27,32.09c0.78,4.19,1.54,14.9-0.48,20.84c-1.34,3.94-5.33,7.17-8.76,6.26
								C160.04,410.88,154.48,389.16,155.79,370.19z M157.96,490.27c-1.67-11.15-3.24-21.68-3.18-26.36
								c0.1-8.21,4.97-20.64,6.67-24.75c0.98,3.07,3,7.1,4.74,10.3c-0.01,12.89-0.02,25.77-0.03,38.66
								c-0.01,11.32,1.87,25.09-4.71,35c0.07-1.75,0.09-3.43,0.02-4.58C161.23,512.14,159.57,501.05,157.96,490.27z M176.93,524.79
								c0.07,0.38,0.15,0.75,0.23,1.11c-3.88-4.34-3.96-10.97-4.01-16.91c-0.01-0.87-0.02-1.71-0.03-2.54
								c-0.18-7.7-0.29-14.76,0.14-21.81c0.82,3.52,2.99,8.7,8.72,11.22C179.66,504.62,176.17,520.87,176.93,524.79z M191.78,470.53
								c-1.76,5.94-3.98,10.66-5.76,14.45c-1.07,2.28-2,4.25-2.66,6.08c-0.28,0.78-0.66,2.07-1.1,3.7c-5.8-2.63-8.06-8.51-8.9-11.82
								c0.04-0.62,0.09-1.23,0.14-1.85c0.14-1.57,0.22-3.18,0.31-4.89c0.24-4.48,0.34-9.05,1.71-13.36
								c1.04-3.26,2.67-6.31,4.58-9.13c1.93-2.84,4.34-5.29,6.34-8.07c1.17-1.62,2.26-3.3,3.28-5.03
								C190.77,445.52,194.11,462.64,191.78,470.53z M196,423.07c-0.8,4.47-2.83,8.81-4.88,12.83c-1.2,2.36-2.4,5.1-4.12,7.13
								c-4.71,5.59-9.82,11-12.08,18.11c-1.56,4.89-1.9,9.92-2.17,15.01c-0.09,1.69-0.18,3.3-0.31,4.85
								c-0.72,8.31-0.61,16.46-0.4,25.48c0.02,0.82,0.03,1.66,0.03,2.52c0.06,6.72,0.13,14.3,5.53,18.85
								c0.15,0.6,0.3,1.17,0.45,1.69c0.6,2.99,1.58,9.62,1.93,11.12c0.42,1.79,0.37,3.01-1.07,5.13c-1.22,1.81-3.05,3.25-4.62,4.16
								c1.2-1.96,3.27-5.34,3.27-5.34c-1.57,1.68-4.76,6.09-4.82,6.18l0,0c-0.59,0.75-3.34,5.36-3.9,9.57
								c-0.55,4.1-2.69,8.64-6.61,9.88l-0.04,0.02c-0.87,0.38-2.49,1.09-3.48,3.61c-0.88,2.21-3.29,3.88-5.22,4.38
								c-2.01,0.53-4.63-0.46-5.59-2.1l-0.03-0.05c-0.15-0.79-0.03-1.09,0.29-1.39c0.09-0.08,0.24-0.22,0.44-0.4
								c1.29-1.16,2.7-2.46,3.08-3.21c0.35-0.69,3.06-5.17,5.18-6.91c0,0-3.41,1.8-5.97,6.51c-0.36,0.65-2.12,2.26-2.88,2.95
								c-0.21,0.18-0.37,0.33-0.46,0.41c-0.56,0.53-0.72,1.13-0.57,2.08c-0.39,0.19-0.63,0.25-1.33-0.07
								c-0.6-0.28-0.77-1.05-0.82-1.63l0,0c0-0.03,0.26-3.61,6.59-11.74c0,0-2.08,1.66-3.87,4.37c-2.33,3.52-3.19,5.4-3.48,6.42
								c-0.42,0.05-0.99,0.02-1.2-0.13c-0.43-0.32-0.93-1.06-0.74-1.63c0.07-0.22,0.13-0.4,0.18-0.54l0,0
								c0.74-2.59,3.41-8.56,5.69-11.18c0,0-1.33,0.93-2.97,3.53c-1.65,2.61-2.57,4.28-3.28,6.46c-0.35-0.04-0.56-0.16-0.84-0.38
								c-0.13-0.12-0.32-0.84-0.3-1.86c0-0.28,0.05-0.61,0.09-0.95c0.06-0.43,0.11-0.87,0.1-1.28c0-0.11-0.02-0.22-0.03-0.32
								c0.36-1.49,1.39-4.16,4.17-7.47c0,0-1.32,1.13-2.43,2.65c-0.99,1.37-1.75,2.43-2.22,3.51c-0.05-0.15-0.09-0.32-0.12-0.52
								c-0.02-0.17-0.06-0.36-0.09-0.57c-0.17-0.97-0.41-2.31,0.22-2.99c0,0,2.37-3.57,3.29-4.15c1.35-0.86,10.62-8.54,11.75-11.23
								c0.28-0.66,0.52-1.36,0.76-2.05c0.7-2.03,1.43-4.12,3.16-5.61c2.47-2.13,4.22-7.46,4.22-7.46c-0.01,0.02-1.63,3.14-3.48,5.39
								c0.08-1.64,0.46-2.83,0.88-4.16c0.14-0.44,0.39-3.28,0.54-6.24c6.39-9.08,5.4-21.43,5.4-31.98
								c0.01-13.9,0.02-27.8,0.03-41.71c1.3,2.33,2.31,4.02,2.4,4.16c0,0-6.94-13.55-7.31-18.34c-0.21-2.78-0.02-4.26,0.15-5.57
								c0.13-1.01,0.25-1.96,0.17-3.31c-0.03-0.49-0.22-1.92-0.5-4.07c2.54,0.54,5.33-0.95,7.5-3.63
								c4.02-4.98,3.77-13.91,2.95-20.78c0.95,0.32,2.01,0.27,2.92-0.2c-0.04,1.75,0.06,3.52,0.36,5.3
								c0.93,5.55,3.35,11.62,8.2,14.91c3.87,2.63,8.76,4.02,12.71,1.41C196.25,421.49,196.12,422.35,196,423.07z M197.85,404.24
								c-0.46,5.85-0.91,11.46-1.38,15.44c-6.46,5.11-14.52-1.79-17.78-7.46c-3.53-6.14-3.23-13.53-1.75-20.19
								c2.71-12.22,10.54-22.56,13.94-34.58c2.17,5.02,4.08,10.14,5.13,15.57c1.42,7.34,2.11,14.77,2.56,22.21
								C198.32,398.27,198.08,401.33,197.85,404.24z M199.88,382.29c-0.34,2.79-0.66,5.87-0.95,9.05
								c-0.94-11.91-2.81-23.65-7.73-34.83c-8.16-18.52-16.07-36.57-16.57-57.17c-0.03-1.32,0.06-2.54,0.31-3.85
								c1.09-5.64,5.35,2.62,5.47,2.85c1.27,2.39,2.65,4.1,2.98,6.91c0.16,1.33,0.3,2.57,0.58,3.89c2,9.14,3.74,18.01,7.08,26.81
								c1.53,4.03,3.56,7.85,5.04,11.89c1.67,4.55,2.41,9.56,3.2,14.32c0.8,4.78,1.25,9.59,1.43,14.41
								C200.39,378.51,200.1,380.42,199.88,382.29z M207.08,345.91c-0.31,2.55-1.29,6.84-2.43,11.81
								c-1.13,4.91-2.44,10.63-3.48,16.31c-0.24-4.02-0.66-8.03-1.26-12.05c-0.82-5.41-1.93-10.87-3.82-16.01
								c-1.92-5.23-4.51-10.19-6.33-15.49c-3.16-9.21-4.08-18.68-6.22-28.08c-0.66-2.92-3.26-6.15-4.91-8.61
								c-0.48-0.72-1.93-1.32-2.73-0.75c-4.05,2.92-1.61,12.78-1.15,16.59c1.32,10.81,4.79,21.27,8.83,31.33
								c2.11,5.25,4.63,10.35,6.91,15.54c-3.7,13.68-14.64,27.12-15.36,41.59c-0.91,0.63-2.06,0.71-3.03,0.3
								c-0.11-0.9-0.23-1.75-0.35-2.55c-1.72-11.48-7.52-24.93-9.5-33.92c-1.87-8.48-1.88-17.5-1-26.3c0.51-2.4,1-4.57,1.43-6.4
								c7.7-3.7,8.49-14.11,9.71-21.81c1.01-6.33,1.29-14.07-3.31-18.74c0.54-1.97,0.92-3.2,0.94-3.24l0.07-0.22l-0.01-0.01
								c2.82,2.33,5.64,4.71,8.69,6.71c0.14,0.09,0.28,0.15,0.42,0.18c2.18,3.09,4.2,7.06,6.66,11.92c2.1,4.15,4.48,8.85,7.48,13.98
								c0.85,1.46,1.55,3.08,2.29,4.8c2.13,4.93,4.52,10.45,11.02,11.32C206.97,335.99,207.68,341,207.08,345.91z M208.84,333.16
								c-0.04,0-0.33,0.01-0.33,0.01c-7.24,0.03-9.51-5.23-11.91-10.79c-0.72-1.67-1.47-3.4-2.35-4.91
								c-2.98-5.11-5.36-9.79-7.45-13.92c-2.37-4.67-4.33-8.53-6.43-11.61c2.31-1.13,4.93-6.32,5.63-7.54
								c2.6-4.56,0.59-10.02-2.44-13.91c-2.27-2.92-6.65-5.34-10.1-6.88c0.02-0.1,0.04-0.2,0.04-0.28c0-0.2,0.01-0.99,0.02-2.19
								c0.01-0.45,0.01-0.91,0.02-1.37c1,1.45,2.13,2.77,3.45,3.99c1.23,1.14,3.78,3.54,5.52,3.56c1.39,0.02,1.37-1.33,1.47-2.42
								c0.23-2.55,0.15-5.11-0.1-7.65c0.54-0.59,0.66-1.67,0.65-2.56c-0.04-3.13-0.59-5.67-1.67-8.19c1.3-1.38,0.39-6.34-0.04-8.89
								c0-0.01,0.01-0.01,0.01-0.01c0.69-3.54,2.43-9.17-0.01-12.37c0.43-0.31,0.56-1,0.76-1.48c0.66-1.59,1.29-3.73,1.01-5.47
								c-0.51-3.16-3.1-5.68-5.97-7.22c1.37-0.54,2.71-1.18,4.01-1.96c8.22-0.19,14.12-2.73,19.17-7.82
								c3.84-3.88,4.15-11.04,4.71-16.12c0.49-4.44,1.75-11.48-0.88-15.51c-0.52-0.8-1.05-1.54-1.62-2.21
								c0.07-0.4,1.72-9.56-0.09-15.59c-0.73-2.43-1.73-4.83-2.89-7.62c-1.62-3.88-3.61-8.66-5.66-15.44
								c3.2,2.64,6.91,5.29,8.11,5.72c0.95,0.34,2.19,0.5,3.26,0.57l1.42-0.01c1.07-0.08,2.31-0.25,3.26-0.61
								c1.2-0.44,4.94-3.17,8.12-5.86c-1.99,6.86-3.94,11.69-5.53,15.61c-1.13,2.8-2.11,5.21-2.82,7.65
								c-1.74,6.04,0,15.2,0.07,15.59c0,0-1.05,1.68-1.58,2.51c-2.59,4.06-1.26,11.08-0.72,15.51c0.61,5.07,0.99,12.23,4.87,16.07
								c5.32,5.27,11.53,7.74,20.33,7.63c0.95,0.49,1.92,0.94,2.91,1.31c-2.86,1.56-5.45,4.12-5.93,7.3
								c-0.26,1.74,0.38,3.87,1.06,5.46c0.2,0.48,0.34,1.18,0.77,1.48c-2.4,3.23-0.61,8.83,0.12,12.37c0,0.01,0.01,0.01,0.01,0.02
								c-0.4,2.55-1.25,7.52,0.05,8.88c-1.06,2.54-1.59,5.08-1.59,8.21c0,0.89,0.13,1.96,0.68,2.55c-0.23,2.54-0.28,5.1-0.02,7.65
								c0.11,1.09,0.11,2.44,1.5,2.41c1.74-0.04,4.26-2.46,5.48-3.62c1.48-1.41,2.73-2.95,3.81-4.66c0.02,0.71,0.03,1.42,0.05,2.1
								c0.03,1.19,0.05,1.98,0.05,2.19c0,0.09,0.02,0.19,0.05,0.3c-3.46,1.56-7.9,3.96-10.2,6.97c-2.99,3.92-5.26,9.4-2.62,13.94
								c0.73,1.25,3.68,6.75,6.1,7.68c-2.05,3.09-3.97,6.95-6.27,11.61c-2.05,4.15-4.38,8.86-7.31,14c-0.87,1.52-1.6,3.26-2.3,4.94
								C218.2,327.8,216,333.06,208.84,333.16z M218.88,391.11c-0.32-3.13-0.66-6.17-1.03-8.91c-0.25-1.87-0.56-3.8-0.91-5.75
								c0.12-4.91,0.53-9.81,1.29-14.67c0.75-4.77,1.43-9.78,3.06-14.35c1.45-4.06,3.44-7.9,4.92-11.94
								c3.25-8.83,4.9-17.72,6.81-26.88c0.27-1.31,0.4-2.56,0.54-3.89c0.31-2.82,1.67-4.54,2.91-6.94c0.12-0.23,4.29-8.52,5.44-2.9
								c0.27,1.3,0.37,2.53,0.35,3.85c-0.29,20.6-8.02,38.72-15.99,57.33C221.44,367.32,219.69,379.13,218.88,391.11z M220.1,404.12
								c-0.26-2.93-0.54-6.03-0.83-9.11c0.37-7.51,0.98-15,2.34-22.42c0.99-5.4,2.83-10.5,4.93-15.51
								c3.53,11.96,11.5,22.45,14.33,34.63c1.55,6.64,1.92,14.04-1.54,20.21c-3.2,5.7-11.19,12.68-17.7,7.64
								C221.12,415.57,220.62,409.97,220.1,404.12z M235.46,490.8c-0.67-1.82-1.62-3.79-2.72-6.06c-1.82-3.77-4.09-8.47-5.91-14.39
								c-2.41-7.86,0.75-25.01,1.74-29.93c1.04,1.72,2.15,3.39,3.33,5c2.03,2.76,4.47,5.18,6.43,8c1.94,2.8,3.61,5.84,4.68,9.08
								c1.41,4.3,1.56,8.87,1.85,13.34c0.11,1.7,0.21,3.31,0.36,4.88c0.05,0.54,0.09,1.09,0.14,1.63c-0.52,2.26-1.73,5.86-4.36,8.78
								c-1.17,1.29-2.62,2.45-4.41,3.3C236.14,492.85,235.74,491.58,235.46,490.8z M236.89,495.55c2.09-0.95,3.69-2.26,4.93-3.71
								c2.19-2.56,3.2-5.56,3.67-7.81c0.51,7.13,0.47,14.26,0.37,22.06c-0.01,0.82-0.01,1.67-0.01,2.54
								c0.01,5.94-0.01,12.57-3.84,16.95c0.07-0.36,0.15-0.73,0.22-1.11C242.95,520.53,239.28,504.27,236.89,495.55z M259.28,534.21
								c-1.87-2.23-3.52-5.34-3.53-5.36c0,0,1.8,5.3,4.3,7.41c1.74,1.47,2.49,3.56,3.21,5.58c0.24,0.68,0.5,1.39,0.78,2.04
								c1.16,2.68,10.5,10.27,11.86,11.11c0.92,0.57,3.33,4.12,3.33,4.12c0.64,0.68,0.41,2.01,0.25,2.99
								c-0.03,0.21-0.07,0.4-0.09,0.57c-0.03,0.19-0.07,0.36-0.11,0.51c-0.48-1.09-1.26-2.15-2.28-3.53
								c-1.12-1.51-2.45-2.63-2.45-2.63c2.84,3.32,3.9,6.01,4.26,7.48c-0.02,0.1-0.03,0.21-0.03,0.32
								c-0.01,0.41,0.06,0.85,0.12,1.28c0.05,0.34,0.09,0.67,0.1,0.95c0.03,1.02-0.15,1.75-0.28,1.87
								c-0.27,0.23-0.48,0.34-0.83,0.39c-0.74-2.19-1.68-3.87-3.36-6.48c-1.67-2.58-3.01-3.5-3.01-3.5
								c2.26,2.54,4.91,8.27,5.74,10.94c0.05,0.18,0.13,0.42,0.26,0.78c0.2,0.57-0.3,1.32-0.73,1.64c-0.18,0.13-0.61,0.17-1,0.16
								c-0.13-0.83-0.82-2.7-3.67-6.91c-1.82-2.69-3.92-4.33-3.92-4.33c5.4,6.8,6.47,10.41,6.66,11.39l0,0.29
								c-0.01,0.48-0.02,1.75-0.83,2.14c-0.69,0.33-0.94,0.27-1.33,0.08c0.15-0.95-0.02-1.55-0.59-2.07
								c-0.09-0.08-0.25-0.23-0.46-0.41c-0.77-0.68-2.55-2.27-2.91-2.92c-2.61-4.69-6.04-6.45-6.04-6.45
								c2.14,1.73,4.9,6.17,5.25,6.86c0.39,0.75,1.81,2.03,3.11,3.18c0.2,0.17,0.35,0.31,0.44,0.39c0.32,0.3,0.44,0.59,0.3,1.39
								l-0.03,0.05c-0.95,1.66-3.55,2.67-5.57,2.16c-1.93-0.48-4.36-2.13-5.26-4.33c-1.02-2.51-2.65-3.2-3.52-3.57l-0.05-0.02
								c-3.93-1.2-6.11-5.72-6.71-9.81c-0.61-4.2-3.4-8.79-4-9.53l0,0c-0.07-0.1-3.3-4.48-4.89-6.13c0,0,2.1,3.36,3.32,5.31
								c-1.59-0.89-3.43-2.31-4.67-4.11c-1.45-2.11-1.52-3.33-1.12-5.12c0.34-1.5,1.24-8.14,1.81-11.13c0.14-0.52,0.29-1.1,0.43-1.7
								c5.35-4.61,5.35-12.19,5.34-18.91c0-0.86,0-1.7,0.01-2.52c0.12-9.03,0.16-17.18-0.65-25.48c-0.15-1.55-0.25-3.15-0.36-4.85
								c-0.32-5.09-0.72-10.11-2.32-14.99c-2.34-7.09-7.5-12.45-12.27-17.99c-1.73-2.02-2.96-4.74-4.19-7.09
								c-2.09-3.99-4.16-8.32-5.01-12.78c-0.14-0.72-0.27-1.57-0.4-2.55c3.97,2.58,8.85,1.14,12.69-1.54
								c4.82-3.34,7.55-9.4,8.05-14.99c0.17-1.93,0.19-3.79,0.09-5.61c0.93,0.47,2.03,0.54,3.02,0.27
								c-0.78,6.92-1.03,16.09,3.12,21.12c2.26,2.73,5.15,4.19,7.73,3.51c-0.25,2-0.4,3.33-0.43,3.81c-0.07,1.35,0.06,2.3,0.2,3.31
								c0.18,1.31,0.39,2.78,0.2,5.57c-0.32,4.79-7.12,18.41-7.12,18.41c0.09-0.15,1.06-1.79,2.31-4.08
								c0.15,13.92,0.3,27.83,0.45,41.75c0.11,10.55-0.76,22.91,5.72,31.92c0.18,2.96,0.45,5.8,0.6,6.24
								C258.79,531.38,259.18,532.57,259.28,534.21z M263.77,463.36c0.11,4.68-1.36,15.23-2.92,26.39c-1.5,10.8-3.05,21.9-3.23,28.3
								c-0.06,1.15-0.02,2.84,0.07,4.58c-6.68-9.84-4.94-23.63-5.07-34.95c-0.14-12.9-0.28-25.8-0.42-38.7
								c1.69-3.18,3.66-7.2,4.64-10.29C258.6,442.8,263.58,455.16,263.77,463.36z M261.87,369.51c1.5,19.01-3.87,40.85-5.32,52.65
								c-0.01,0.06-0.01,0.11-0.02,0.17c-3.45,1.12-7.61-2.12-9.01-6.12c-2.08-5.92-1.43-16.64-0.69-20.84
								c1.98-11.16,7.3-23.32,8.95-32.18c1.75-9.43,1.85-16.57,1.02-24.82C258.9,348.24,261.17,360.71,261.87,369.51z
								 M255.49,332.49c1.29,9.67,1.58,19.72-0.39,29.13c-1.89,9.01-7.55,22.52-9.15,34.02c-0.1,0.72-0.2,1.49-0.3,2.29
								c-1.01,0.35-2.22,0.25-3.13-0.39c-1.18-15.74-11.73-27.65-15.58-41.41c2.23-5.24,4.72-10.4,6.79-15.7
								c3.94-10.1,7.3-20.6,8.51-31.42c0.43-3.82,2.77-13.7-1.31-16.58c-0.8-0.57-2.25,0.06-2.72,0.78
								c-1.62,2.47-4.18,5.73-4.82,8.65c-2.04,9.42-2.87,18.9-5.93,28.14c-1.76,5.32-4.3,10.3-6.17,15.55
								c-1.84,5.16-2.9,10.63-3.66,16.05c-0.58,4.1-0.95,8.2-1.15,12.29c-1.1-5.65-2.46-11.33-3.63-16.22
								c-1.19-4.96-2.22-9.25-2.55-11.79c-0.65-4.9,0.02-9.92,0.32-11.8c6.5-0.92,8.84-6.48,10.92-11.43
								c0.73-1.73,1.41-3.36,2.25-4.82c2.95-5.17,5.28-9.89,7.34-14.05c2.45-4.96,4.46-8.99,6.64-12.12
								c0.04-0.02,0.07-0.03,0.11-0.06c3.11-2.08,5.98-4.56,8.85-6.99l0.09,0.29c0.01,0.04,0.42,1.29,0.99,3.29
								c-4.64,4.71-4.28,12.5-3.2,18.85c1.31,7.72,2.2,18.18,10.03,21.75C254.89,329.91,255.18,331.16,255.49,332.49z
								 M247.98,288.92c1.44,5.23,3.61,14.55,3.17,21.8c-0.22,3.7,1.21,9.28,3.03,16.35c0.08,0.3,0.15,0.6,0.23,0.93
								c-6.92-3.63-8.14-13.93-9.22-21.12C244.29,300.85,243.74,293.51,247.98,288.92z M244.4,265.37
								c1.71,2.66,4.56,7.11,4.06,11.34c-0.58,4.91-1.11,6.16-1.41,6.76c-1.95,1.62-3.9,3.24-5.87,4.82
								c-2.25,1.8-4.25,3.02-6.43,0.4c-1.56-1.87-3.75-4.54-4.27-7.03c-1.91-9.09,6.4-14.45,13.19-17.48
								C243.85,264.51,244.1,264.89,244.4,265.37z M245.74,227.02c-0.81,2.16-1.59,4.24-2.13,5.91c-0.61,0.78-1.29,1.5-2,2.18
								c0.47-2.6,0.57-5.29,0.49-7.72c0-0.03-0.01-0.05-0.02-0.08c1.78-0.76,3.39-1.85,4.76-3.24
								C246.48,225.05,246.11,226.04,245.74,227.02z M247.11,222.84c-1.74,2.06-3.98,3.56-6.52,4.37c0.97-2.39,1.63-4.75,1.91-7.25
								c1.8-0.7,3.47-1.7,4.99-2.99C247.51,219.21,247.33,221.43,247.11,222.84z M248.32,219.95c-0.01,0.02-0.17,0.57-0.45,1.38
								c0.59-5.61-0.21-11.49-2.71-16.35c2.25-1.79,4.25-3.88,5.73-5.63c0.12-0.14,0.22-0.28,0.34-0.42
								C250.64,205.23,249.53,216.26,248.32,219.95z M263.77,250.03c-0.43-10.36-2.29-19.89-5.35-24.7
								c-2.57-4.04-6.13-11.98-7.32-15.28c0-0.01,0-0.03-0.01-0.07c0.59-4.64,1.09-9.61,1.36-12.61c0.05-0.07,0.11-0.15,0.16-0.22
								c0.77,11.41,4.13,22.5,8.29,33.2c1.94,5,2.99,8.6,5.82,13.25c2.73,4.48,6.27,8.18,9.28,11.06c-1.38,2.38-2.39,4.28-3.25,6.78
								c-1.76-2-4.18-4.32-6.28-5.87C266.15,255.26,263.9,253.02,263.77,250.03z M272.74,290.28c-0.3-0.78-0.6-1.57-0.91-2.36
								c-2.94-7.66-5.97-15.57-6.18-20.05c-0.32-6.85,0.54-10.35,0.86-11.36c2.14,1.59,4.28,3.59,6.02,5.62
								c-0.28,0.86-0.54,1.8-0.8,2.85c-2.1,8.55-0.6,17.36,1.02,25.36C272.75,290.31,272.74,290.29,272.74,290.28z M274.58,295.24
								c-2.96-11.82-5.42-25.69,0.19-36.87c4.18-8.32,10.88-15.92,10.58-25.49c1.69,2.54,6.47,10.31,6.51,17.28l0.04,8.01
								c-1,10.76-6.58,19.88-10.13,29.91c-2.1,5.95-3.5,11.98-4.2,18.14c-0.04-0.32-0.06-0.64-0.12-0.98
								C276.7,300.95,275.57,297.77,274.58,295.24z M278.86,350.63c-0.51-1.46-0.77-3.33,0.28-4.95c1.57-2.42,3.82-6.59,5.08-8.96
								c0.03,1.14,0.1,2.44,0.18,3.62c-0.93,1.78-3.05,5.78-4.76,8.41C279.24,349.36,278.99,350,278.86,350.63z M281.1,356.13
								c-0.73-1.26-2.17-4.33-0.58-6.8c1.34-2.07,2.92-4.95,4.01-6.98c0.06,0.76,0.11,1.33,0.15,1.55
								c-0.26,0.92-1.89,6.86-2.19,10.63L281.1,356.13z M293.87,288.1c-0.85,7.3-3.77,15.58-3.38,25.37
								c0.62,15.34,0.37,29.19-0.09,31.4c-0.45,2.14-4.15,12.13-5.04,14.54c-0.66-0.37-1.84-1.35-1.85-3.73
								c-0.02-3.62,2.21-11.52,2.23-11.59l0.03-0.11l-0.02-0.12c-0.01-0.07-1.08-7-0.41-9.91l0.03-0.14l-0.04-0.13
								c-0.55-1.86,0.27-6.24-2.3-7.19c-0.43-0.16-0.85-0.11-1.23,0.13c-1.55,1.01-1.84,3.22-2.14,5.55
								c-0.24,1.84-0.49,3.74-1.35,5.12c-1.28,2.05-2.23,2.52-2.68,2.52c-1.84,0-0.26-5.64-0.29-10.77
								c-0.01-1.99,0.59-4.12,1.55-8.27c0.35-1.5,0.67-2.66,0.89-3.93c7.04-8.94,13.21-18.54,16.16-29.42
								C293.92,287.65,293.9,287.87,293.87,288.1z M295.02,276.06c-0.09,1.64-0.35,3.44-0.49,5.02
								c-1.85,13.14-8.51,24.17-16.56,34.51c0.17-1.51,0.19-3.33-0.04-6.06c0.75-9.68,3.24-18.91,7.19-27.96
								c3.09-7.09,6.23-14.11,7.25-21.77C293.27,261.54,295.53,266.87,295.02,276.06z"/>
							<path d="M203.89,256.02c-3.84,1.19-7.66,2.43-11.49,3.68c-4.77,1.56-5.78-2.14-5.83-5c-0.05-2.73,1.43-5.27,3.18-7.31
								c2.93-3.42,7.98-4.52,12.35-4.8C207.27,242.25,208.89,254.31,203.89,256.02 M206.47,243.96c-2.83-4.64-11.86-0.9-15.26,1.32
								c-3.78,2.47-6.97,8.65-4.65,12.92c1.08,1.98,2.38,2.62,4.69,2.43c1.66-0.14,3.36-1.01,4.92-1.54c2.6-0.89,5.27-1.63,7.9-2.45
								c1.47-0.5,3.31-1.23,3.44-2.99C207.7,251.13,207.86,246.22,206.47,243.96"/>
							<path d="M212.2,256.04c-5.02-1.67-3.51-13.73,1.65-13.45c4.38,0.24,9.43,1.28,12.4,4.68c1.77,2.02,3.27,4.55,3.25,7.28
								c-0.02,2.86-1,6.56-5.78,5.05C219.88,258.39,216.05,257.19,212.2,256.04 M209.49,244c-1.36,2.28-1.16,7.19-0.95,9.7
								c0.15,1.76,2,2.47,3.47,2.96c2.64,0.79,5.32,1.5,7.93,2.37c1.56,0.52,3.27,1.37,4.93,1.49c2.31,0.17,3.6-0.48,4.66-2.48
								c2.28-4.29-0.97-10.45-4.78-12.88C221.35,242.98,212.27,239.34,209.49,244"/>
						</g>
					</g>
					<path d="M205.52,289.46c-0.1,4.09-0.2,8.18-0.3,12.27c-0.16,6.6-7.82-0.1-9.5-2.01c-4.76-6.94-6.07-16.09-7.68-24.2
						c-1.32-6.67,0.82-12.09,7.65-14.2c4.8-1.48,9.95-1.64,10.36,4.62C206.54,273.68,205.71,281.71,205.52,289.46 M205.87,261.26
						c-4.4-4.91-15.14,0.42-17.66,4.6c-2.73,4.54-0.52,11.36,0.47,15.88c1.39,6.35,2.77,12.91,6.5,18.34l0.03,0.03l0.02,0.04
						c2.34,2.67,5.69,4.93,9.26,5.51c2.4,0.39,1.44-7.15,1.46-8.02c0.18-7.5,0.83-14.99,0.96-22.49
						C206.95,273.35,208.38,264.06,205.87,261.26z"/>
					<path d="M210.15,265.92c0.34-6.26,5.5-6.15,10.31-4.72c6.85,2.03,9.05,7.44,7.79,14.12c-1.53,8.12-2.74,17.28-7.43,24.27
						c-1.67,1.92-9.25,8.7-9.48,2.1c-0.14-4.09-0.28-8.18-0.43-12.26C210.64,281.68,209.73,273.67,210.15,265.92 M210.55,297.61
						c0.03,0.87-0.85,8.42,1.54,8.01c3.56-0.62,6.9-2.91,9.21-5.61l0.02-0.04l0.03-0.03c3.68-5.47,5-12.04,6.32-18.4
						c0.94-4.53,2.48-11.05,0.31-15.88c-1.87-4.16-12.8-9.35-17.56-4.37c-2.7,2.82-1.17,10.39-1.05,13.83"/>
				</g>
			</g>
		</g>
	</g>
</g>
</svg>
