<?xml version="1.0" encoding="utf-8"?>
<!-- Generator: Adobe Illustrator 26.0.1, SVG Export Plug-In . SVG Version: 6.00 Build 0)  -->
<svg version="1.1" id="Layer_1" xmlns="http://www.w3.org/2000/svg" xmlns:xlink="http://www.w3.org/1999/xlink" x="0px" y="0px"
	 viewBox="0 0 432 648" style="enable-background:new 0 0 432 648;" xml:space="preserve">
<style type="text/css">
	.st0{fill:#FFFFFF;}
	.st1{fill:#E92A2A;}
	.st2{fill:#A89FA8;}
	.st3{fill:#998F99;}
	.st4{fill:#E9E7E9;}
</style>
<g>
	<g>
		<g id="Front_00000145741736255865676490000017263622829411366802_">
			<g>
				<g>
					<g>
						<g>
							<path class="st0" d="M280.56,259.78v-8.54c0-6.17-3.42-12.76-5.55-16.26c2.11-7.05,2.13-23.95,0.99-31.78
								c-0.7-4.76-4.01-8.65-5.65-11.14c0.03-0.19,0.06-0.38,0.1-0.58c0.9-5.76-3.01-19.89-5.36-25.84
								c-1.56-3.96-4.81-5.45-7.42-6.66c-1.41-0.65-2.63-1.21-3.32-2.02c-1.76-2.06-3.52-2.62-5.06-3.11
								c-0.41-0.13-0.8-0.26-1.18-0.41c-0.59-0.24-1.12-0.72-1.92-1.44c-1.35-1.23-3.4-3.09-7.78-5.63
								c-2.4-1.39-5.79-3.01-9.37-4.73c-5.87-2.81-12.72-6.05-14.35-8.07c-1.49-1.84-1.65-7.65-1.66-9.57
								c0.71-1.8,0.78-4.64,0.76-6.29c0.29,0.14,0.66,0.21,1.09,0.16c1.46-0.18,2.83-2.46,4.47-5.41c0.46-0.83,0.89-1.61,1.23-2.09
								c1.42-2.03,1.11-6.41,0.07-9.7c-0.3-0.96-0.82-1.51-1.53-1.64c-0.98-0.18-2.05,0.56-2.81,1.27
								c0.15-4.1,0.09-15.61-4.64-21.29c-4.07-4.89-12.21-6.1-15.3-6.39l-1.22,0c-3.09,0.29-11.23,1.51-15.3,6.39
								c-4.73,5.67-4.78,17.19-4.64,21.29c-0.76-0.7-1.83-1.44-2.81-1.27c-0.71,0.13-1.23,0.68-1.53,1.64
								c-1.04,3.29-1.35,7.67,0.07,9.7c0.33,0.48,0.77,1.26,1.23,2.09c1.64,2.96,3.01,5.24,4.47,5.41c0.43,0.05,0.79-0.02,1.09-0.16
								c-0.03,1.82,0.07,5.09,1,6.81c0,0,0,0.01,0.01,0.01c-0.04,1.35-0.33,7.14-1.9,9.08c-1.63,2.02-8.28,5.2-14.15,8.01
								c-3.58,1.72-6.97,3.34-9.37,4.73c-4.38,2.54-6.42,4.4-7.78,5.63c-0.8,0.72-1.32,1.2-1.92,1.44
								c-0.38,0.15-0.77,0.28-1.18,0.41c-1.55,0.5-3.3,1.06-5.06,3.11c-0.69,0.8-1.91,1.37-3.32,2.02c-2.61,1.2-5.86,2.7-7.42,6.66
								c-2.35,5.96-6.26,20.09-5.36,25.84c0.06,0.41,0.13,0.82,0.21,1.22c-1.66,2.47-4.64,6.07-5.32,10.71
								c-1.14,7.79-1.27,24.04,0.8,31.15c-2.1,3.37-5.81,10.25-5.81,16.68v8.54c-0.59,0.96-3.68,6.53-3.02,17.41
								c0.25,4.17,0.72,8.01,1.21,12.08c0.88,7.25,3.84,15.46,3.49,25.16c-0.52,14.79-0.31,28.9,0.27,31.62
								c0.53,2.5,5.15,14.65,5.35,15.17l0.17,0.45l0.46-0.12c0.03-0.01,2.8-0.8,3.04-4.45l1.48,1.68l0.39-0.54
								c0.09-0.12,1.39-1.97,1.75-4.25c0.82-1.39,2.53-4.96,0.55-7.98c-2.26-3.44-5.98-10.55-6.02-10.62l0,0
								c-0.01-0.24-0.03-0.44-0.06-0.59c0.55-4.23,0-5.76,1.57-6.36c0.13-0.05,0.2-0.03,0.28,0.02c1.14,0.74,1.41,2.7,1.69,4.78
								c0.26,1.95,0.54,3.97,1.53,5.54c1.16,1.84,2.96,4.22,5.05,2.48c1.38-1.15,0.17-9.01-0.16-11.34
								c-0.42-2.91-0.42-3.73-1.57-8.34c-0.73-2.94-1.17-4.46-1.37-5.82c-0.1-1.12,0.19-5.78,0.62-9.19
								c0.49-3.91,2.91-10.31,5.47-17.09c2.93-7.74,5.95-15.75,6.14-20.39c0.3-7.2-0.65-10.77-0.99-11.81
								c0.61-0.73,2.3-2.98,2.76-5.89c0.53-3.38,0.37-9.26,0.35-9.4c0.02-0.1,1.79-10.25,4.72-14.9c2.22-3.53,5.5-10.45,6.89-14.07
								c0.51,3.58,1.07,6.78,1.64,8.49c0.72,2.17,1.64,4.58,2.53,6.91c1.27,3.33,2.47,6.47,2.77,8.11
								c0.43,2.32,0.13,19.42,0.03,25.04c-0.02,1.2-0.04,2-0.04,2.19c0,0.01,0,0.01-0.01,0.02c-0.11,0.11-0.18,0.3-0.22,0.5
								c-0.22,0.41-0.58,0.97-0.91,1.49c-1.77,2.79-4.73,7.45-4.16,12.05c0.64,5.13,1.41,7.27,1.7,7.92
								c-0.58,1.85-4.87,15.88-4.21,26.01c0.23,3.53-1.16,9.04-2.91,16.02c-2.26,8.99-6.55,29.7-7.5,42.61
								c-1.41,19.1,4.07,40.97,5.58,52.78c0.32,2.53,0.54,4.2,0.57,4.71c0.07,1.25-0.04,2.11-0.17,3.11
								c-0.18,1.36-0.39,2.89-0.18,5.78c0.02,0.29,0.07,0.61,0.13,0.95c-0.74,1.66-7.24,16.6-7.42,26.35
								c-0.08,4.76,1.44,15.33,3.06,26.52c1.46,10.13,2.85,20.6,3.3,27.07l0.01,0.17c0.04,0.54,0.07,1.06,0.09,1.54
								c0.07,3.47-0.26,10.37-0.48,11.04c-0.52,1.58-1,3.09-0.97,5.42c-0.14,0.14-0.28,0.27-0.42,0.39
								c-1.92,1.64-2.69,3.84-3.44,5.97c-0.25,0.7-0.48,1.36-0.75,1.99c-1.03,2.42-10.19,9.97-11.45,10.76
								c-0.99,0.62-3.48,4.28-3.48,4.28c-0.93,1-0.65,2.65-0.46,3.74c0.03,0.19,0.07,0.37,0.09,0.53c0.08,0.58,0.26,0.98,0.4,1.3
								c0.12,0.28,0.22,0.49,0.22,0.74c0.01,0.34-0.05,0.75-0.1,1.14c-0.05,0.35-0.1,0.72-0.11,1.05c-0.01,0.61,0.02,2.08,0.61,2.56
								c0.34,0.28,0.66,0.48,1.13,0.56c-0.05,0.15-0.12,0.35-0.2,0.59c-0.37,1.08,0.45,2.19,1.04,2.63
								c0.43,0.32,1.11,0.35,1.58,0.32c0,0.09,0.02,0.15,0.03,0.2c0.07,0.76,0.33,1.82,1.31,2.29c1,0.47,1.5,0.36,2.08,0.08
								c1.14,1.57,3.46,2.53,5.54,2.33c0.27-0.03,0.54-0.07,0.79-0.14c2.15-0.55,4.84-2.4,5.84-4.88c0.8-1.99,1.97-2.64,3.01-3.1
								c4.28-1.35,6.62-6.12,7.24-10.55c0.55-3.91,3.06-8.17,3.71-9.04c2.99-1.25,4.76-2.84,6.29-5.09
								c1.61-2.36,1.67-3.87,1.22-5.82c-0.43-1.86-1.59-10.62-1.99-11.98c-0.35-1.19-0.51-2.41-0.79-3.89
								c-0.87-4.62,4.86-28.46,6.55-33.1c0.64-1.78,1.57-3.72,2.64-5.97c1.82-3.81,4.08-8.55,5.89-14.56
								c2.74-9.09-1.58-29.19-2.11-31.56c1.59-2.79,3-5.67,4.23-8.62c0.98-2.36,1.9-4.8,2.36-7.32c0.68-3.72,1.28-10.75,1.96-18.9
								c0.61-7.2,1.29-15.35,2.13-21.87c1.03-8.04,3.16-17.11,4.87-24.41c1.17-4.99,2.18-9.3,2.51-11.9
								c0.62-4.86,0.01-9.7-0.34-11.81c0.37,0.04,1.48,0.05,1.75,0c-0.34,2.11-0.96,6.96-0.34,11.82c0.33,2.6,1.34,6.91,2.51,11.9
								c1.71,7.29,3.84,16.37,4.87,24.41c0.84,6.51,1.52,14.67,2.13,21.87c0.68,8.15,1.28,15.18,1.96,18.9
								c0.46,2.52,1.38,4.96,2.36,7.32c1.22,2.94,2.64,5.83,4.23,8.62c-0.53,2.38-4.85,22.48-2.11,31.56
								c1.81,6,4.07,10.75,5.89,14.56c1.07,2.25,2,4.19,2.64,5.97c1.68,4.64,7.42,28.48,6.55,33.1c-0.28,1.48-0.44,2.7-0.79,3.89
								c-0.4,1.36-1.57,10.12-1.99,11.98c-0.45,1.95-0.39,3.46,1.22,5.82c1.53,2.25,3.3,3.83,6.29,5.09
								c0.65,0.87,3.16,5.13,3.71,9.04c0.62,4.43,2.96,9.2,7.24,10.55c1.04,0.45,2.21,1.11,3.01,3.1c1,2.48,3.69,4.33,5.84,4.88
								c0.26,0.07,0.52,0.11,0.79,0.14c2.08,0.2,4.4-0.76,5.54-2.33c0.58,0.28,1.09,0.39,2.08-0.08c1.07-0.51,1.28-1.72,1.33-2.49
								c0.47,0.03,1.16,0,1.59-0.32c0.6-0.44,1.41-1.55,1.04-2.63c-0.08-0.22-0.14-0.41-0.19-0.56l0,0c0-0.01-0.01-0.02-0.01-0.04
								c0.47-0.09,0.79-0.28,1.13-0.56c0.59-0.49,0.62-1.96,0.61-2.56c-0.01-0.33-0.06-0.7-0.11-1.05c-0.05-0.39-0.11-0.8-0.1-1.14
								c0-0.25,0.09-0.46,0.22-0.74c0.14-0.32,0.32-0.72,0.4-1.3c0.02-0.16,0.05-0.34,0.09-0.53c0.19-1.09,0.48-2.74-0.46-3.74
								c0,0-2.5-3.66-3.48-4.28c-1.26-0.79-10.42-8.34-11.45-10.76c-0.27-0.63-0.5-1.29-0.75-1.99c-0.75-2.13-1.53-4.34-3.44-5.97
								c-0.14-0.12-0.28-0.25-0.42-0.39c0.04-2.33-0.45-3.84-0.97-5.42c-0.22-0.68-0.56-7.58-0.48-11.04c0.02-0.48,0.05-1,0.09-1.54
								c0.01-0.06,0.02-0.12,0.03-0.17l-0.02,0c0.44-6.47,1.83-16.94,3.3-27.07c1.61-11.19,3.14-21.76,3.06-26.52
								c-0.17-9.68-6.59-24.48-7.4-26.31c0.09-0.41,0.15-0.79,0.17-1.14c0.21-2.89,0-4.42-0.18-5.78c-0.13-1-0.25-1.86-0.17-3.11
								c0.03-0.51,0.24-2.18,0.57-4.71c1.51-11.81,6.99-33.68,5.58-52.78c-0.95-12.91-5.23-33.62-7.5-42.61
								c-1.76-6.97-3.14-12.48-2.91-16.02c0.66-10.12-3.63-24.16-4.21-26.01c0.28-0.64,1.06-2.79,1.7-7.92
								c0.57-4.6-2.39-9.26-4.16-12.05c-0.52-0.82-1.11-1.75-1.14-2c0-0.2-0.01-0.99-0.04-2.19c-0.1-5.62-0.41-22.72,0.03-25.04
								c0.31-1.64,1.51-4.78,2.77-8.11c0.89-2.33,1.81-4.74,2.53-6.91c0.55-1.66,1.08-4.74,1.57-8.17c0-0.01,0-0.01,0-0.02
								c1.42,3.54,4.61,10.02,6.67,13.67c3.63,6.43,4.87,16.91,5.07,24.3c0.08,2.94,2.15,5.16,2.76,5.89
								c-0.34,1.03-1.29,4.61-0.99,11.81c0.19,4.65,3.22,12.65,6.14,20.39c2.56,6.78,4.98,13.18,5.47,17.09
								c0.35,2.82,0.7,4.65,0.72,6.04c0.02,1.33,0.01,2.68-0.12,4.01c-0.12,1.24-0.64,2.7-1.26,5.21c-1.15,4.61-1.15,5.43-1.57,8.34
								c-0.33,2.33-1.54,10.19-0.16,11.34c2.09,1.74,3.89-0.64,5.05-2.48c0.99-1.57,1.27-3.58,1.53-5.54
								c0.28-2.08,0.55-4.05,1.69-4.78c0.08-0.05,0.15-0.07,0.28-0.02c1.58,0.59,1.02,2.13,1.57,6.36
								c-0.03,0.15-0.05,0.35-0.06,0.59l0,0c-0.04,0.07-3.76,7.18-6.02,10.62c-1.98,3.02-0.28,6.59,0.55,7.98
								c0.37,2.29,1.67,4.13,1.75,4.25l0.39,0.54l1.48-1.68c0.24,3.65,3.01,4.44,3.04,4.45l0.46,0.12l0.17-0.45
								c0.2-0.52,4.81-12.67,5.35-15.17c0.58-2.73,0.8-16.84,0.27-31.62c-0.34-9.7,2.61-17.91,3.49-25.16
								c0.49-4.07,0.96-7.91,1.21-12.08C284.24,266.31,281.16,260.74,280.56,259.78z"/>
						</g>
					</g>
				</g>
			</g>
		</g>
	</g>
	<g>
		<g id="Triceps_long_head_00000155138620430681102690000016234797157449072260_">
			<path class="st1" d="M240.62,197.37c0,0,4.96,41.72,23.28,58.32c0.18,0.47-3.51,7.59-3.51,7.59s-4.45-4.94-6.24-6.22
				c-3.04-2.17-4.2-2.06-3.87-14.45c-0.33-2.5-1.58-10.73-3.49-13.81s-8.57-17.22-8.57-17.22l1.33-12.97L240.62,197.37z"/>
			<path class="st1" d="M151.1,197.53c0,0-4.97,42.02-23.28,58.62c-0.18,0.47,3.33,7.19,3.33,7.19l6.21-5.84
				c0,0,4.22-2.44,3.89-14.83c0.33-2.5,1.58-10.73,3.49-13.81s8.57-17.22,8.57-17.22l-1.33-12.97L151.1,197.53z"/>
		</g>
		<g id="Front_00000074428132159579357180000013838633991260067996_">
			<path class="st2" d="M195.73,140.76c-0.88-0.07-1.75-0.26-2.58-0.56c-0.17-1.53-0.35-3.09-0.54-4.7c0.43,0.1,0.89,0.18,1.35,0.24
				c0.36,0.05,0.72,0.08,1.06,0.11h1.42c0.33-0.03,0.68-0.06,1.03-0.11c0.44-0.06,0.89-0.13,1.32-0.23c-0.19,1.6-0.37,3.17-0.54,4.7
				C197.45,140.5,196.6,140.69,195.73,140.76 M198.94,139.94c0.17-1.54,0.35-3.07,0.53-4.61c0.08-0.02,0.15-0.05,0.22-0.08
				c0.5-0.18,1.45-0.76,2.62-1.57c-0.13,1.6-0.38,3.17-0.7,4.72C200.78,139,199.88,139.53,198.94,139.94 M192.47,139.92
				c-0.94-0.42-1.84-0.95-2.68-1.56c-0.32-1.55-0.57-3.12-0.69-4.72c1.19,0.83,2.16,1.42,2.68,1.61c0.06,0.02,0.11,0.04,0.17,0.06
				C192.12,136.85,192.3,138.38,192.47,139.92 M202.42,137.81c0.28-1.52,0.49-3.06,0.58-4.62c1.49-1.07,3.23-2.41,4.83-3.75
				c-0.5,1.68-0.99,3.25-1.48,4.7c-0.49,0.55-1,1.08-1.54,1.58C204.08,136.44,203.28,137.15,202.42,137.81 M188.98,137.76
				c-0.83-0.65-1.61-1.34-2.34-2.04c-0.53-0.51-1.04-1.03-1.54-1.58c-0.49-1.45-0.98-3.02-1.48-4.7c1.58,1.32,3.3,2.65,4.78,3.71
				C188.5,134.71,188.7,136.24,188.98,137.76"/>
			<path class="st3" d="M189.78,138.36c-0.27-0.19-0.54-0.39-0.8-0.6c-0.28-1.52-0.49-3.05-0.58-4.61c0.24,0.17,0.47,0.33,0.69,0.49
				C189.22,135.24,189.47,136.81,189.78,138.36"/>
			<path class="st3" d="M193.16,140.2c-0.12-0.04-0.23-0.09-0.35-0.13c-0.11-0.05-0.23-0.1-0.34-0.15
				c-0.17-1.53-0.35-3.07-0.53-4.61c0.21,0.07,0.44,0.13,0.68,0.19C192.81,137.1,192.99,138.67,193.16,140.2"/>
			<path class="st3" d="M201.62,138.4c0.32-1.55,0.57-3.13,0.7-4.72c0.22-0.15,0.45-0.32,0.69-0.49c-0.09,1.56-0.3,3.1-0.58,4.62
				C202.16,138.01,201.89,138.21,201.62,138.4"/>
			<path class="st3" d="M198.26,140.22c0.17-1.53,0.35-3.1,0.54-4.7c0.23-0.05,0.46-0.11,0.68-0.18c-0.18,1.54-0.36,3.08-0.53,4.61
				c-0.09,0.04-0.19,0.08-0.29,0.12C198.53,140.12,198.39,140.17,198.26,140.22"/>
			<path class="st4" d="M194.01,170.99c-0.11-0.21-0.23-0.41-0.35-0.61c-0.06-0.09-0.12-0.18-0.18-0.27
				c0.5-7.82-0.1-15.08-1.8-21.56c-0.25-0.96-0.51-1.91-0.77-2.86c-0.71-2.59-1.43-5.23-1.93-7.93c0.26,0.21,0.53,0.41,0.8,0.6
				c0.43,2.11,1,4.18,1.55,6.22c0.69,2.53,1.4,5.16,1.85,7.81c1.06,6.17,1.35,12.2,0.9,18.41
				C194.08,170.87,194.06,170.94,194.01,170.99"/>
			<path class="st4" d="M195.14,175.26c-0.08-0.8-0.2-1.58-0.4-2.32c0.51-5.33-0.03-10.76-0.55-16.04c-0.09-0.87-0.17-1.74-0.25-2.6
				c-0.44-4.72-0.94-9.54-1.48-14.39c0.11,0.05,0.23,0.1,0.34,0.15c0.11,0.05,0.23,0.09,0.35,0.13c0.65,5.79,1.19,11.1,1.63,16.11
				c0.06,0.69,0.12,1.38,0.19,2.08C195.48,163.92,196,169.64,195.14,175.26"/>
			<path class="st4" d="M198.05,170.25c-0.51-7.85-0.01-15.19,1.69-21.7c0.25-0.96,0.51-1.91,0.77-2.86c0.7-2.57,1.42-5.2,1.92-7.88
				c-0.26,0.2-0.53,0.4-0.8,0.59c-0.43,2.1-0.99,4.15-1.54,6.18c-0.69,2.53-1.4,5.15-1.85,7.81c-1.06,6.17-1.21,12.77-0.77,18.98
				L198.05,170.25z"/>
			<path class="st4" d="M196.43,174.91c-0.9-5.7-0.5-10.92,0.02-16.53c0.06-0.69,0.13-1.38,0.19-2.07
				c0.44-5.01,0.97-10.32,1.62-16.09c0.14-0.05,0.27-0.1,0.4-0.15c0.1-0.04,0.19-0.08,0.29-0.12c-0.54,4.85-1.04,9.66-1.48,14.37
				c-0.08,0.86-0.17,1.73-0.25,2.59c-0.53,5.33-0.98,11.09-0.45,16.47c-0.19,0.76-0.02,0.6-0.09,1.43L196.43,174.91z"/>
			<g>
				<path class="st2" d="M226.92,446.61c0.45,0,0.89-0.03,1.34-0.11c2.28-0.38,3.97-1.68,5.44-3.26c-0.01,0-0.02,0-0.02,0
					l-0.21,0.01c-3.05,0-13.4-8.43-15.72-11.02c0,0,13.48,9.96,15.68,9.96c0.03,0,0.06,0,0.08-0.01c1.83-0.28,7.07-8.88,7.18-9.06h0
					c0,0-0.08,0.14-0.23,0.38c-1.74,1.9-4.22,3.19-6.8,3.19c-0.14,0-0.27,0-0.41-0.01c-2.83-0.15-5.59-2.09-6.28-4.8
					c-0.52-2.02,0.11-4.2,1.23-5.97c1.12-1.77,2.7-3.21,4.25-4.62c-3.24,1.08-4.76,1.77-6.49,2.96c-1.26,0.87-5.24,2.73-8.15,2.73
					c-1.1,0-2.04-0.26-2.64-0.94c-0.6-0.68-1.2-1.36-1.67-2.14c-0.26-0.43-0.52-0.86-0.79-1.29c-0.4-0.02-0.8-0.07-1.2-0.15
					c-1.03-0.19-2.03-0.56-2.98-1.16c0.13,0.95,0.25,1.79,0.38,2.5c0.82,4.46,2.87,8.79,4.94,12.79c0.33,0.65,0.67,1.32,1.01,2.01
					c0.92,1.8,1.92,3.66,3.2,5.13l0.1,0.11c0.8,0.35,1.58,0.67,2.3,1C222.5,445.77,224.7,446.61,226.92,446.61"/>
				<path class="st2" d="M164.77,446.61c-0.45,0-0.89-0.03-1.34-0.11c-2.28-0.38-3.97-1.68-5.44-3.26c0.01,0,0.02,0,0.02,0
					l0.21,0.01c3.05,0,13.4-8.43,15.72-11.02c0,0-13.48,9.96-15.68,9.96c-0.03,0-0.06,0-0.08-0.01c-1.83-0.28-7.07-8.88-7.18-9.06h0
					c0,0,0.08,0.14,0.23,0.38c1.74,1.9,4.22,3.19,6.8,3.19c0.14,0,0.27,0,0.41-0.01c2.83-0.15,5.59-2.09,6.28-4.8
					c0.52-2.02-0.11-4.2-1.23-5.97c-1.12-1.77-2.7-3.21-4.25-4.62c3.24,1.08,4.76,1.77,6.49,2.96c1.26,0.87,5.24,2.73,8.15,2.73
					c1.1,0,2.04-0.26,2.64-0.94c0.6-0.68,1.2-1.36,1.67-2.14c0.26-0.43,0.52-0.86,0.79-1.29c0.4-0.02,0.8-0.07,1.2-0.15
					c1.03-0.19,2.03-0.56,2.98-1.16c-0.13,0.95-0.25,1.79-0.38,2.5c-0.82,4.46-2.87,8.79-4.94,12.79c-0.33,0.65-0.67,1.32-1.01,2.01
					c-0.92,1.8-1.92,3.66-3.2,5.13l-0.1,0.11c-0.8,0.35-1.58,0.67-2.3,1C169.19,445.77,166.99,446.61,164.77,446.61"/>
				<g>
					<g>
						<path d="M189.49,240.29c-3.3,0.51-6.32,1.65-9.46,2.74c-8.42,2.9-5.44-7.95-3.12-11.67c2.67-4.3,8.09-6.77,12.97-7.67
							c5.84-1.08,4.51,5.82,4.42,8.43C194.18,235.63,194.49,239.65,189.49,240.29 M194.95,232.17c0.07-1.93,0.19-3.83,0.04-5.76
							c-0.52-6.72-10.92-1.76-13.69-0.09c-5.34,3.22-8.19,9.49-7.45,15.52c0.15,1.23,1.12,2.85,2.63,2.68
							c4.52-0.51,8.61-2.91,13.13-3.61c2.36-0.3,3.81-0.73,4.89-2.83C195.29,236.53,194.89,233.83,194.95,232.17"/>
						<path d="M201.81,240.29c-5.07-0.65-4.77-4.67-4.9-8.19c-0.1-2.61-1.46-9.51,4.46-8.42c4.95,0.91,10.44,3.39,13.16,7.7
							c2.35,3.73,5.4,14.58-3.14,11.66C208.21,241.96,205.16,240.81,201.81,240.29 M196.26,232.16c0.06,1.67-0.34,4.36,0.47,5.92
							c1.1,2.1,2.57,2.53,4.96,2.84c4.58,0.71,8.72,3.12,13.3,3.64c1.53,0.17,2.51-1.45,2.66-2.67c0.74-6.03-2.16-12.3-7.58-15.53
							c-2.81-1.67-13.36-6.66-13.87,0.06C196.07,228.33,196.19,230.24,196.26,232.16"/>
						<path d="M187.86,220.76c-2.78,1.65-12.69,8.12-13.42,1.47c-0.63-5.74,1.06-9.8,6.36-12.4c3.23-1.58,8.38-4.61,11.95-4.01
							c2.45,1.44,1.46,6.17,1.06,8.31C193.19,217.42,190.52,219.17,187.86,220.76 M193.15,205.25c-0.76-0.32-1.74-0.2-2.51-0.08
							c-1.32,0.2-2.57,0.71-3.78,1.25c-0.32,0.14-0.64,0.29-0.95,0.44c-2.77,1.29-6.16,2.21-8.55,4.17
							c-2.45,2.01-3.41,4.23-3.72,7.35c-0.16,1.59-0.5,6.76,1,8.03c1.78,1.5,3.9-0.22,5.68-1.06c3.66-1.74,8.53-3.45,11.45-6.35
							c2.3-2.28,3.62-6.19,3.52-9.39c-0.04-1.44-0.54-3.38-1.84-4.2L193.15,205.25"/>
						<path d="M203.06,220.78c-2.67-1.59-5.34-3.33-5.95-6.62c-0.4-2.15-1.39-6.88,1.06-8.31c3.56-0.6,8.72,2.42,11.95,4.01
							c5.3,2.6,7,6.66,6.36,12.4C215.75,228.9,205.84,222.44,203.06,220.78 M197.76,205.27l-0.3,0.16c-1.3,0.83-1.79,2.76-1.84,4.2
							c-0.1,3.19,1.23,7.11,3.52,9.39c2.92,2.9,7.79,4.61,11.45,6.35c1.77,0.84,3.9,2.56,5.68,1.06c1.5-1.27,1.16-6.44,1-8.03
							c-0.31-3.12-1.27-5.34-3.72-7.35c-2.39-1.96-5.79-2.88-8.55-4.17c-0.32-0.15-0.63-0.3-0.95-0.44
							c-1.21-0.55-2.46-1.05-3.78-1.25C199.5,205.08,198.53,204.96,197.76,205.27"/>
						<g>
							<path d="M158.15,443.26l-0.21-0.01c-0.01,0-0.02,0-0.02,0c0,0-0.01-0.01-0.01-0.01c-2.65-0.47-7.52-8.91-7.52-10.1h0.53
								c0.11,0.18,5.35,8.78,7.18,9.06c0.03,0,0.05,0.01,0.08,0.01c2.19,0,15.68-9.96,15.68-9.96
								C171.55,434.82,161.19,443.26,158.15,443.26"/>
							<path d="M233.38,443.26l0.21-0.01c0.01,0,0.02,0,0.02,0c0,0,0.01-0.01,0.01-0.01c2.65-0.47,7.52-8.91,7.52-10.1h-0.53
								c-0.11,0.18-5.35,8.78-7.18,9.06c-0.03,0-0.05,0.01-0.08,0.01c-2.19,0-15.68-9.96-15.68-9.96
								C219.98,434.82,230.34,443.26,233.38,443.26"/>
							<path d="M280.56,259.78v-8.54c0-6.17-3.42-12.76-5.55-16.26c2.11-7.05,2.13-23.95,0.99-31.78c-0.7-4.76-4.01-8.65-5.65-11.13
								c0.03-0.19,0.06-0.38,0.1-0.58c0.9-5.76-3.01-19.89-5.36-25.84c-1.56-3.96-4.81-5.45-7.42-6.66
								c-1.41-0.65-2.63-1.21-3.32-2.02c-1.76-2.06-3.52-2.62-5.06-3.11c-0.41-0.13-0.8-0.26-1.18-0.41
								c-0.59-0.24-1.12-0.72-1.92-1.44c-1.35-1.23-3.4-3.09-7.78-5.63c-2.4-1.39-5.79-3.01-9.37-4.73
								c-5.87-2.81-12.72-6.05-14.35-8.07c-1.49-1.84-1.65-7.65-1.66-9.57c0.71-1.8,0.78-4.64,0.76-6.29
								c0.29,0.14,0.66,0.21,1.09,0.16c1.46-0.18,2.83-2.46,4.47-5.41c0.46-0.83,0.89-1.61,1.23-2.09c1.42-2.03,1.11-6.41,0.07-9.7
								c-0.3-0.96-0.82-1.51-1.53-1.64c-0.98-0.18-2.05,0.56-2.81,1.27c0.15-4.1,0.09-15.61-4.64-21.29
								c-4.07-4.88-12.21-6.1-15.3-6.39l-1.22,0c-3.09,0.29-11.23,1.51-15.3,6.39c-4.73,5.67-4.78,17.19-4.64,21.29
								c-0.76-0.7-1.83-1.44-2.81-1.27c-0.71,0.13-1.23,0.68-1.53,1.64c-1.04,3.29-1.35,7.67,0.07,9.7
								c0.33,0.48,0.77,1.26,1.23,2.09c1.64,2.96,3.01,5.24,4.47,5.41c0.43,0.05,0.79-0.02,1.09-0.16c-0.03,1.82,0.07,5.09,1,6.81
								c0,0,0,0.01,0.01,0.01c-0.04,1.35-0.33,7.14-1.9,9.08c-1.63,2.02-8.28,5.2-14.15,8.01c-3.58,1.72-6.97,3.34-9.37,4.73
								c-4.38,2.54-6.42,4.4-7.78,5.63c-0.8,0.72-1.32,1.2-1.92,1.44c-0.38,0.15-0.77,0.28-1.18,0.41c-1.55,0.5-3.3,1.06-5.06,3.11
								c-0.69,0.8-1.91,1.37-3.32,2.02c-2.61,1.2-5.86,2.7-7.42,6.66c-2.35,5.96-6.26,20.09-5.36,25.84
								c0.06,0.41,0.13,0.82,0.21,1.22c-1.66,2.47-4.64,6.07-5.32,10.71c-1.14,7.79-1.27,24.04,0.8,31.15
								c-2.1,3.37-5.81,10.25-5.81,16.68v8.54c-0.59,0.96-3.68,6.53-3.02,17.41c0.25,4.17,0.72,8.01,1.21,12.08
								c0.88,7.25,3.84,15.46,3.49,25.16c-0.52,14.79-0.31,28.9,0.27,31.62c0.53,2.5,5.15,14.65,5.35,15.17l0.17,0.45l0.46-0.12
								c0.03-0.01,2.8-0.8,3.04-4.45l1.48,1.68l0.39-0.54c0.09-0.12,1.39-1.97,1.75-4.25c0.82-1.39,2.53-4.96,0.55-7.98
								c-2.26-3.44-5.98-10.55-6.02-10.62l0,0c-0.01-0.24-0.03-0.44-0.06-0.59c0.55-4.23,0-5.76,1.57-6.36
								c0.13-0.05,0.2-0.03,0.28,0.02c1.14,0.74,1.41,2.7,1.69,4.78c0.26,1.95,0.54,3.97,1.53,5.54c1.16,1.84,2.96,4.22,5.05,2.48
								c1.38-1.15,0.17-9.01-0.16-11.34c-0.42-2.91-0.42-3.73-1.57-8.34c-0.73-2.94-1.17-4.46-1.37-5.82
								c-0.1-1.12,0.19-5.79,0.62-9.19c0.49-3.91,2.91-10.31,5.47-17.09c2.93-7.74,5.95-15.75,6.14-20.39
								c0.3-7.2-0.65-10.77-0.99-11.81c0.61-0.73,2.3-2.98,2.76-5.89c0.53-3.38,0.37-9.26,0.35-9.4c0.02-0.1,1.79-10.25,4.72-14.9
								c2.22-3.53,5.5-10.45,6.89-14.07c0.51,3.58,1.07,6.78,1.64,8.49c0.72,2.17,1.64,4.58,2.53,6.91
								c1.27,3.33,2.47,6.47,2.77,8.11c0.43,2.32,0.13,19.42,0.03,25.04c-0.02,1.2-0.04,2-0.04,2.19c0,0.01,0,0.01-0.01,0.02
								c-0.11,0.11-0.18,0.3-0.22,0.5c-0.22,0.41-0.58,0.97-0.91,1.49c-1.77,2.79-4.73,7.45-4.16,12.05
								c0.64,5.13,1.41,7.27,1.7,7.92c-0.58,1.85-4.87,15.88-4.21,26.01c0.23,3.53-1.16,9.04-2.91,16.02
								c-2.26,8.99-6.55,29.7-7.5,42.61c-1.41,19.1,4.07,40.97,5.58,52.78c0.32,2.53,0.54,4.2,0.57,4.71
								c0.07,1.25-0.04,2.11-0.18,3.11c-0.18,1.36-0.39,2.89-0.18,5.78c0.02,0.29,0.07,0.61,0.13,0.95
								c-0.74,1.66-7.24,16.6-7.42,26.35c-0.08,4.76,1.44,15.33,3.06,26.52c1.46,10.13,2.85,20.6,3.3,27.07l0.01,0.17
								c0.04,0.54,0.07,1.06,0.09,1.54c0.07,3.47-0.26,10.37-0.48,11.04c-0.52,1.58-1,3.09-0.97,5.42
								c-0.14,0.14-0.28,0.27-0.42,0.39c-1.92,1.64-2.69,3.84-3.44,5.97c-0.25,0.7-0.48,1.36-0.75,1.99
								c-1.03,2.42-10.19,9.97-11.45,10.76c-0.99,0.62-3.48,4.28-3.48,4.28c-0.93,1-0.65,2.65-0.46,3.74
								c0.03,0.19,0.07,0.37,0.09,0.53c0.08,0.58,0.26,0.98,0.4,1.3c0.12,0.28,0.22,0.49,0.22,0.74c0.01,0.34-0.05,0.75-0.1,1.14
								c-0.05,0.35-0.1,0.72-0.1,1.05c-0.01,0.61,0.02,2.08,0.61,2.56c0.34,0.28,0.66,0.48,1.13,0.56c-0.05,0.15-0.12,0.35-0.2,0.59
								c-0.37,1.08,0.45,2.19,1.04,2.63c0.43,0.32,1.11,0.35,1.58,0.32c0,0.09,0.02,0.15,0.03,0.2c0.07,0.76,0.33,1.82,1.31,2.29
								c1,0.47,1.5,0.36,2.08,0.08c1.14,1.57,3.46,2.53,5.54,2.33c0.27-0.03,0.54-0.07,0.79-0.14c2.15-0.55,4.84-2.4,5.84-4.88
								c0.8-1.99,1.97-2.64,3.01-3.1c4.28-1.35,6.62-6.12,7.24-10.55c0.55-3.91,3.06-8.17,3.71-9.04c2.99-1.25,4.76-2.84,6.29-5.09
								c1.61-2.36,1.67-3.87,1.22-5.82c-0.43-1.86-1.59-10.62-1.99-11.98c-0.35-1.19-0.51-2.41-0.79-3.89
								c-0.87-4.62,4.86-28.46,6.55-33.1c0.64-1.78,1.57-3.72,2.64-5.97c1.82-3.81,4.08-8.55,5.89-14.56
								c2.74-9.09-1.58-29.19-2.11-31.56c1.59-2.79,3-5.67,4.23-8.62c0.98-2.36,1.9-4.8,2.36-7.32c0.68-3.72,1.28-10.75,1.96-18.9
								c0.61-7.2,1.29-15.35,2.13-21.87c1.03-8.04,3.16-17.11,4.87-24.41c1.17-4.99,2.18-9.3,2.51-11.9
								c0.62-4.86,0.01-9.7-0.34-11.81c0.37,0.04,1.48,0.05,1.75,0c-0.34,2.11-0.96,6.96-0.34,11.82c0.33,2.6,1.34,6.91,2.51,11.9
								c1.71,7.29,3.84,16.37,4.87,24.41c0.84,6.51,1.52,14.67,2.13,21.87c0.68,8.15,1.28,15.18,1.96,18.9
								c0.46,2.52,1.38,4.96,2.36,7.32c1.22,2.94,2.64,5.83,4.23,8.62c-0.53,2.38-4.85,22.48-2.11,31.56
								c1.81,6,4.07,10.75,5.89,14.56c1.07,2.25,2,4.19,2.64,5.97c1.68,4.64,7.42,28.48,6.55,33.1c-0.28,1.48-0.44,2.7-0.79,3.89
								c-0.4,1.36-1.57,10.12-1.99,11.98c-0.45,1.95-0.39,3.46,1.22,5.82c1.53,2.25,3.3,3.83,6.29,5.09
								c0.65,0.87,3.16,5.13,3.71,9.04c0.62,4.43,2.96,9.2,7.24,10.55c1.04,0.45,2.21,1.11,3.01,3.1c1,2.48,3.69,4.33,5.84,4.88
								c0.26,0.07,0.52,0.11,0.79,0.14c2.08,0.2,4.4-0.76,5.54-2.33c0.58,0.28,1.09,0.39,2.08-0.08c1.07-0.51,1.28-1.72,1.33-2.49
								c0.47,0.03,1.16,0,1.59-0.32c0.6-0.44,1.41-1.55,1.04-2.63c-0.08-0.22-0.14-0.41-0.19-0.56l0,0c0-0.01-0.01-0.02-0.01-0.04
								c0.47-0.09,0.79-0.28,1.13-0.56c0.59-0.49,0.62-1.96,0.61-2.56c-0.01-0.33-0.06-0.7-0.11-1.05c-0.05-0.39-0.11-0.8-0.1-1.14
								c0-0.25,0.09-0.46,0.22-0.74c0.14-0.32,0.32-0.72,0.4-1.3c0.02-0.16,0.05-0.34,0.09-0.53c0.19-1.09,0.48-2.74-0.46-3.74
								c0,0-2.5-3.66-3.48-4.28c-1.26-0.79-10.42-8.34-11.45-10.76c-0.27-0.63-0.5-1.29-0.75-1.99c-0.75-2.13-1.53-4.34-3.44-5.97
								c-0.14-0.12-0.28-0.25-0.42-0.39c0.04-2.33-0.45-3.84-0.97-5.42c-0.22-0.68-0.56-7.58-0.49-11.04c0.02-0.48,0.05-1,0.09-1.54
								c0.01-0.06,0.02-0.12,0.03-0.17l-0.02,0c0.44-6.47,1.83-16.94,3.3-27.07c1.61-11.19,3.14-21.76,3.06-26.52
								c-0.17-9.68-6.59-24.48-7.4-26.31c0.09-0.41,0.15-0.79,0.17-1.14c0.21-2.89,0-4.42-0.18-5.78c-0.13-1-0.25-1.86-0.17-3.11
								c0.03-0.51,0.24-2.18,0.57-4.71c1.51-11.81,6.99-33.68,5.58-52.78c-0.95-12.91-5.23-33.62-7.5-42.61
								c-1.76-6.97-3.14-12.48-2.91-16.02c0.66-10.12-3.63-24.16-4.21-26.01c0.28-0.64,1.06-2.79,1.7-7.92
								c0.57-4.6-2.39-9.26-4.16-12.05c-0.52-0.82-1.11-1.75-1.14-2c0-0.2-0.01-0.99-0.04-2.19c-0.1-5.62-0.41-22.72,0.03-25.04
								c0.31-1.64,1.51-4.78,2.77-8.11c0.89-2.33,1.81-4.74,2.53-6.91c0.55-1.66,1.08-4.74,1.57-8.17c0-0.01,0-0.01,0-0.02
								c1.42,3.54,4.61,10.02,6.67,13.67c3.63,6.43,4.87,16.91,5.07,24.3c0.08,2.94,2.15,5.16,2.76,5.89
								c-0.34,1.03-1.29,4.61-0.99,11.81c0.19,4.65,3.22,12.65,6.14,20.39c2.56,6.78,4.98,13.18,5.47,17.09
								c0.35,2.82,0.7,4.65,0.72,6.04c0.02,1.33,0.01,2.68-0.12,4.01c-0.12,1.24-0.64,2.7-1.26,5.21c-1.15,4.61-1.15,5.43-1.57,8.34
								c-0.33,2.33-1.54,10.19-0.16,11.34c2.09,1.74,3.89-0.64,5.05-2.48c0.99-1.57,1.27-3.58,1.53-5.54
								c0.28-2.08,0.55-4.05,1.69-4.78c0.08-0.05,0.15-0.07,0.28-0.02c1.58,0.59,1.02,2.13,1.57,6.36
								c-0.03,0.15-0.05,0.35-0.06,0.59l0,0c-0.04,0.07-3.76,7.18-6.02,10.62c-1.98,3.02-0.28,6.59,0.55,7.98
								c0.37,2.29,1.67,4.13,1.75,4.25l0.39,0.54l1.48-1.68c0.24,3.65,3.01,4.44,3.04,4.45l0.46,0.12l0.17-0.45
								c0.2-0.52,4.81-12.67,5.35-15.17c0.58-2.73,0.8-16.84,0.27-31.62c-0.34-9.7,2.61-17.91,3.49-25.16
								c0.49-4.07,0.96-7.91,1.21-12.08C284.24,266.31,281.15,260.74,280.56,259.78z M275.15,202.74
								c1.31,7.67,1.07,24.19-0.83,31.13c-0.4-0.62-0.71-1.07-0.86-1.28c-0.09-1.59-0.77-13.73-1.95-19.45
								c-1.11-5.4-3.1-10.58-3.5-11.62c0.28-0.81,1.35-4.07,2.14-8.25C270.92,194.2,274.6,199.54,275.15,202.74z M220.32,261.55
								c0.01-1.23,0.08-2.45,0.19-3.66c0.28,0.08,0.61,0.08,1.01-0.03c2.66-0.73,5-5.21,6.11-7.37c1.27-2.47,2.24-4.99,2.84-7.62
								c-0.02,4.34,0.05,10.08,0.14,15.33c-1.76,3-4.14,5.69-7.13,7.52c-0.45,0.28-1.08,0.57-1.6,0.64
								c-1.06,0.14-1.59-1.23-1.48-2.1C220.35,263.35,220.31,262.45,220.32,261.55z M230.56,237.58
								c-0.25,6.05-2.42,11.87-6.09,16.69c-0.92,1.21-1.99,2.71-3.74,1.92c-0.93-0.42-0.86-1.47-0.73-2.32
								c0.19-1.3,0.32-2.61,0.56-3.91c0.12-0.65,0.29-1.29,0.5-1.92c0.03-0.09,0.17-0.55,0.32-0.97c0.53,0.15,1.26-0.06,2.27-0.79
								c3.01-2.16,4.66-5.57,5.51-9.24c0.62-0.54,1.21-1.11,1.76-1.72c-0.08,0.31-0.15,0.6-0.2,0.86
								C230.67,236.45,230.56,237.53,230.56,237.58z M226.12,242.92c-0.51,0.71-1.02,1.37-1.67,1.95c-0.77,0.68-1.72,1.83-2.87,1.21
								c-1.04-0.56-0.7-2.34-0.61-3.27c0.16-1.65,0.38-3.28,0.56-4.93c2.75-2.45,5-5.61,6.55-9.09c0.4-0.11,0.79-0.24,1.18-0.38
								C229.38,232.98,228.89,239.1,226.12,242.92z M225.63,232.13c-1.13,1.69-4.05,7.04-4.7,2.76c-0.42-2.74-1.59-6.85,0.56-9.24
								c0.72-0.14,1.24-1.02,1.75-1.47c0.58-0.52,1.15-1.06,1.7-1.61c0.2-0.2,0.39-0.41,0.59-0.62c1.44-0.13,2.82-0.42,4.14-0.87
								C229.18,225.06,227.79,228.9,225.63,232.13z M220.63,223.54c-0.47-1.24-1.01-2.49-1-3.84c0.03-3.63,2.92-6.46,6.12-8.06
								c1.85,0.65,3.77,1.1,5.74,1.33c-1.42,2.5-3.05,4.9-4.99,7.05c-0.71,0.79-1.58,1.46-2.36,2.17c-0.5,0.45-1,0.91-1.48,1.39
								c-0.32,0.32-0.81,0.83-1.29,0.9C220.79,224.54,220.8,224,220.63,223.54z M226.23,221.21c0.63-0.68,1.25-1.38,1.83-2.1
								c1.55-1.9,2.92-3.94,4.14-6.08c0.9,0.08,1.84,0.14,2.76,0.14c0.23,1.15,0.34,2.51,0.37,3.89l-0.02,0.01
								C232.73,219.37,229.64,220.76,226.23,221.21z M223.43,209.96c0.23-0.01,0.45-0.01,0.69-0.02c2.88-0.14,5.83-1.69,8.46-3.68
								c1.03,2.02,1.76,4.11,2.24,6.26l0,0C230.8,212.52,226.96,211.64,223.43,209.96z M227.52,208.29
								c-6.75,2.9-19.03-0.21-24.42-5.6c-4.18-4.18-4.9-10.87-5.47-16.5c-0.37-3.73-1.88-11.15,0.31-14.55
								c4.33-6.7,9.69-7.58,17.4-8.01c15.47-0.87,16.54,3.96,21.79,8.99c1.77,1.7,2.88,3.51,4.12,5.28
								c3.82,5.45,4.83,10.55,4.38,11.09C241.36,195.96,235.26,204.97,227.52,208.29z M207.39,149.05c0.79-2,1.47-3.69,1.91-4.77
								c0.72-1.74,1.32-4.12,1.81-6.53c5.66,5.07,6.72,15.16,13.67,18.75c1.14,0.59,2.3,0.97,3.48,1.2
								c-1.75,0.76-3.79,1.57-5.97,2.28C215.33,159.77,209.63,155.58,207.39,149.05z M220.58,160.51
								c-6.09,1.75-12.89,2.43-17.25-1.1c1.21-3.1,2.55-6.52,3.7-9.44C209.32,155.83,214.37,159.74,220.58,160.51z M208.81,144.08
								c-1.84,4.44-7.58,19.24-9.06,23.07c-0.39-2.54-1.26-9.58,0.15-14.37c0.71-2.4,1.69-4.8,2.83-7.57
								c1.67-4.06,3.74-9.1,5.85-16.38c1.37-1.17,2.58-2.31,3.38-3.2c0.03,0.59,0.09,1.34,0.18,2.15
								C211.79,131.01,210.42,140.19,208.81,144.08z M246.24,189.22l0.02-0.03c3.85,7.4,10.25,12.72,18.17,15.16
								c7.16,15.2,4.68,34.57-1.23,50.23c-3.03-3.04-6.03-6.73-8.23-10.33c-2.83-4.62-4.56-9.88-6.4-14.97
								c-3.74-10.36-6.83-21.03-7.43-31.99C242.98,194.7,244.56,191.97,246.24,189.22z M263.97,254.54
								c6.19-14.41,8.57-34.89,1.43-50.26c0.55-0.74,1.11-1.48,1.66-2.23c0.5,1.29,2.34,6.19,3.39,11.29
								c1.06,5.14,1.71,15.83,1.88,18.69c0,0.46,0.03,0.8,0.06,1.05c0.56,8.24-4.06,14.53-8.16,21.56c-0.12,0.21-0.24,0.4-0.35,0.6
								c-0.05-0.04-0.09-0.09-0.14-0.14C263.83,254.95,263.9,254.71,263.97,254.54z M254.68,158.64c0.74,0.48,1.62,0.89,2.53,1.31
								c2.57,1.18,5.48,2.52,6.88,6.08c2.31,5.87,6.17,19.72,5.3,25.29c-0.74,4.73-1.98,8.62-2.35,9.71
								c-2.06,2.61-3.33,2.8-6.66,1.13c-2.29-1.15-4.52-2.46-6.44-4.18c-3.27-2.92-5.82-6.29-7.71-10.28
								c-0.01-0.02-0.02-0.03-0.04-0.05c-0.67-5.45-5.33-12.88-10.78-18.1c-0.24-0.53-0.45-1.07-0.61-1.62
								c-1.77-6.05,3.21-7.26,7.95-6.96C246.26,161.19,252.75,162.64,254.68,158.64z M248.94,154.87c1.48,0.48,3.02,0.97,4.58,2.79
								c0.18,0.22,0.4,0.41,0.63,0.6c-2.64,6.23-15.3-1.14-19.63,4.38c-1.28,1.63-1.23,3.62-0.51,5.65
								c-3.38-2.94-7.09-5.32-10.13-5.41c-15.41-0.46-20.54,1.49-23.76,4.78c0.47-1.21,1.61-4.16,2.96-7.62
								c6.94,5.37,19.39,0.97,26.36-2.16c6.12,0.64,12.54-2.6,18.58-3.32C248.33,154.66,248.63,154.77,248.94,154.87z
								 M214.05,134.31c1.78,2.2,8.25,5.3,14.51,8.3c3.56,1.71,6.93,3.32,9.29,4.69c4.28,2.48,6.28,4.29,7.6,5.5
								c0.56,0.51,1.01,0.91,1.48,1.22c-8.95,1.37-19.77,7.53-26.09-2.35c-3.1-4.84-5.2-10.78-9.58-14.69
								c0.55-2.88,0.94-5.68,1.14-7.32C212.72,131.47,213.23,133.29,214.05,134.31z M177.81,116.23c-0.01,0.03-0.38,0.68-1.06,0.6
								c-1.04-0.13-2.68-3.1-3.67-4.87c-0.49-0.89-0.92-1.66-1.29-2.18c-1.06-1.51-1.03-5.28,0.07-8.77
								c0.18-0.55,0.41-0.86,0.71-0.92c0.76-0.14,2.09,1.07,2.81,1.97l1.08,1.36l-0.13-1.73c-0.01-0.15-1.1-15.49,4.32-21.99
								c4.02-4.82,12.67-5.85,15.09-6.05c2.42,0.2,11.07,1.23,15.09,6.05c5.41,6.49,4.33,21.84,4.32,21.99l-0.13,1.73l1.08-1.36
								c0.72-0.9,2.05-2.11,2.81-1.97c0.29,0.05,0.53,0.36,0.71,0.92c1.1,3.48,1.13,7.25,0.07,8.77c-0.36,0.52-0.79,1.29-1.29,2.18
								c-0.98,1.78-2.63,4.75-3.67,4.87c-0.68,0.08-1.04-0.57-1.06-0.6l-1.17-2.24l0.16,2.51c0,0.05,0.33,5.38-0.83,7.52
								c-1.17,2.18-10.67,9.56-12.5,10.23c-1.03,0.37-2.5,0.51-3.6,0.56c-1.1-0.05-2.57-0.19-3.6-0.56
								c-1.83-0.66-11.32-8.05-12.5-10.23c-1.16-2.15-0.83-7.47-0.83-7.52l0.16-2.51L177.81,116.23z M169.6,266.6
								c-0.53-0.07-1.16-0.35-1.6-0.64c-2.76-1.69-5.01-4.11-6.72-6.84c0.08-4.79,0.15-10.08,0.16-14.38c0.6,2.05,1.41,4.04,2.42,6
								c1.11,2.15,3.46,6.64,6.11,7.37c0.4,0.11,0.73,0.11,1.01,0.03c0.11,1.22,0.18,2.43,0.19,3.66c0.01,0.9-0.04,1.8-0.08,2.7
								C171.2,265.37,170.66,266.74,169.6,266.6z M170.76,256.44c-1.75,0.79-2.82-0.71-3.74-1.92c-2.8-3.68-4.73-7.95-5.59-12.45
								c-0.02-2.86-0.09-4.98-0.24-5.75c-0.01-0.04-0.02-0.09-0.03-0.14c0.38,0.38,0.77,0.75,1.18,1.1
								c0.84,3.67,2.49,7.08,5.51,9.24c1.01,0.72,1.75,0.93,2.27,0.79c0.15,0.42,0.29,0.87,0.32,0.97c0.21,0.63,0.37,1.27,0.5,1.92
								c0.24,1.3,0.37,2.61,0.56,3.91C171.62,254.97,171.69,256.02,170.76,256.44z M169.9,246.34c-1.14,0.62-2.1-0.54-2.87-1.21
								c-0.66-0.58-1.16-1.25-1.67-1.95c-2.76-3.82-3.26-9.95-3.15-14.51c0.39,0.14,0.78,0.27,1.18,0.38
								c1.56,3.48,3.8,6.64,6.55,9.09c0.18,1.64,0.4,3.28,0.56,4.93C170.61,244,170.94,245.78,169.9,246.34z M170.56,235.14
								c-0.65,4.28-3.57-1.07-4.7-2.76c-2.17-3.25-3.57-7.29-4.05-11.32c1.24,0.42,2.53,0.7,3.88,0.84c0.29,0.3,0.56,0.61,0.86,0.9
								c0.55,0.55,1.12,1.09,1.7,1.61c0.51,0.45,1.03,1.33,1.75,1.47C172.15,228.29,170.98,232.4,170.56,235.14z M156.59,213.42
								C156.59,213.42,156.59,213.41,156.59,213.42c0.9,0,1.82-0.05,2.7-0.13c1.21,2.13,2.59,4.17,4.13,6.07
								c0.5,0.62,1.02,1.22,1.55,1.81c-3.3-0.48-6.29-1.86-8.81-4.1l-0.01-0.01C156.21,215.73,156.38,214.52,156.59,213.42z
								 M170.12,224.72c-0.48-0.06-0.97-0.58-1.29-0.9c-0.48-0.48-0.98-0.94-1.48-1.39c-0.79-0.71-1.65-1.38-2.36-2.17
								c-1.94-2.15-3.57-4.54-4.99-7.04c1.98-0.23,3.91-0.67,5.77-1.32c3.19,1.6,6.06,4.43,6.09,8.05c0.01,1.35-0.53,2.6-1,3.84
								C170.69,224.25,170.69,224.79,170.12,224.72z M156.73,212.77c0.51-2.27,1.33-4.5,2.47-6.65c2.59,1.9,5.46,3.34,8.23,3.48
								c0.61,0.03,1.21,0.05,1.8,0.06C165.4,211.71,161.17,212.76,156.73,212.77z M164.02,207.96
								c-7.73-3.32-14.59-13.08-18.11-19.31c0.27-3.13,1.93-6.87,4.43-10.51c2.87-4.18,6.27-8.18,8.49-9.96
								c6.03-4.87,11.35-4.66,16.47-4.49c7.71,0.25,14.55,1.58,18.3,7.62c2.14,3.44,0.69,10.83,0.31,14.55
								c-0.57,5.63-1.29,12.32-5.47,16.5C183.05,207.76,171.11,211.01,164.02,207.96z M126.99,204.72
								c8.1-2.45,14.63-7.94,18.48-15.55c1.72,2.82,3.26,5.58,5.13,8.2c-0.59,11-3.69,21.71-7.44,32.1
								c-1.84,5.09-3.57,10.34-6.4,14.97c-2.41,3.93-5.01,7.45-8.34,10.65C122.52,239.47,119.92,219.93,126.99,204.72z
								 M127.46,254.35c-4.03-6.85-8.77-13.39-8.18-21.61c0.18-3.01,0.91-14.3,1.96-19.39c0.97-4.73,2.63-9.3,3.26-10.96
								c0.58,0.77,1.15,1.55,1.73,2.32c0.01,0.02,0.03,0.03,0.04,0.04C119.39,219.83,121.72,238.81,127.46,254.35z M191.77,167.1
								c-1.48-3.83-7.22-18.62-9.06-23.07c-2.06-4.97-3.18-15.43-3.23-15.86c0.1-0.89,0.17-1.71,0.2-2.37
								c0.81,0.88,1.97,1.96,3.28,3.08c2.09,7.22,4.15,12.23,5.82,16.28c1.14,2.78,2.13,5.17,2.83,7.57
								C193.03,157.52,192.16,164.56,191.77,167.1z M184.57,150.09c1.16,2.95,2.51,6.38,3.71,9.47c-2.92,2.91-11.07,2.84-17.48,1.16
								C177.12,160.01,182.26,156.06,184.57,150.09z M169.15,160.19l-0.05,0.02c-2.14-0.7-4.15-1.5-5.87-2.25
								c1.17-0.22,2.33-0.61,3.48-1.2c6.98-3.61,8.02-13.78,13.75-18.83c0.48,2.33,1.07,4.63,1.77,6.31
								c0.46,1.11,1.16,2.87,1.98,4.94C181.97,155.79,176.19,160.02,169.15,160.19z M146.24,152.79c1.32-1.2,3.32-3.01,7.6-5.5
								c2.37-1.37,5.73-2.99,9.29-4.69c6.26-3,12.73-6.1,14.51-8.3c0.75-0.93,1.23-2.51,1.54-4.15c0.22,1.71,0.59,4.34,1.11,7
								c-4.44,3.91-6.54,9.89-9.66,14.76c-6.36,9.95-17.28,3.63-26.27,2.32C144.98,153.91,145.53,153.43,146.24,152.79z
								 M138.17,157.65c1.57-1.83,3.1-2.32,4.58-2.79c0.05-0.01,0.09-0.03,0.13-0.04l0.45-0.02c6.07,0.69,12.54,3.98,18.7,3.34
								c7.01,3.14,19.81,6.97,26.48,2.07c1.18,3.02,2.19,5.63,2.72,6.99c-3.31-3.17-8.77-4.64-23.72-4.25
								c-3.03,0.08-6.57,2.18-9.93,5.23c0.6-1.9,0.57-3.76-0.63-5.29c-4.35-5.55-17.09,1.91-19.66-4.46
								C137.63,158.19,137.92,157.94,138.17,157.65z M127.61,166.02c1.4-3.56,4.31-4.9,6.88-6.08c0.81-0.37,1.59-0.74,2.28-1.15
								c1.87,4.12,8.44,2.65,11.98,2.43c4.74-0.3,9.72,0.92,7.95,6.96c-0.13,0.44-0.28,0.87-0.46,1.29
								c-5.67,5.66-10.49,13.69-10.92,18.62c-1.88,3.96-4.42,7.31-7.67,10.21c-1.93,1.72-4.16,3.03-6.44,4.18
								c-3.19,1.6-4.36,1.45-6.28-0.86l-0.15-0.28c-0.02-0.04-1.59-4.46-2.46-10.02C121.44,185.74,125.3,171.89,127.61,166.02z
								 M116.99,202.95c0.49-2.88,3.51-7.48,4.69-9.06c0.77,3.87,1.75,6.85,2.01,7.62c-0.41,1.04-2.39,6.22-3.5,11.62
								c-1.18,5.73-1.87,17.86-1.95,19.45c-0.11,0.16-0.32,0.45-0.58,0.85C115.91,226.16,115.72,210.39,116.99,202.95z
								 M109.18,277.12c-0.53-8.71,1.44-13.97,2.41-15.98c1.13,7.48,4.34,14.97,7.39,21.89c4.05,9.17,6.56,19.48,7.31,29.33
								c-0.08,2.03,0,3.49,0.2,4.77c-7.66-9.7-14.23-20.23-16.62-32.39C109.58,282.23,109.34,279.73,109.18,277.12z M123.48,357.03
								l-1.39-1.59c-0.32-3.77-1.98-9.69-2.24-10.61c0.03-0.22,0.08-0.79,0.14-1.55c1.09,2.02,2.69,4.89,4.04,6.95
								C125.63,352.69,124.2,355.77,123.48,357.03z M120.27,337.66c1.27,2.36,3.54,6.52,5.12,8.93c1.06,1.61,0.8,3.48,0.3,4.94
								c-0.14-0.63-0.39-1.26-0.78-1.87c-1.72-2.63-3.86-6.61-4.8-8.38C120.18,340.09,120.24,338.8,120.27,337.66z M127.51,321.69
								c0.98,4.14,1.59,6.27,1.59,8.25c0,5.12,1.61,10.75-0.23,10.76c-0.45,0-1.4-0.46-2.69-2.5c-0.87-1.37-1.13-3.27-1.37-5.11
								c-0.31-2.33-0.61-4.54-2.17-5.54c-0.37-0.24-0.8-0.28-1.23-0.12c-2.56,0.96-1.72,5.33-2.26,7.19l-0.04,0.13l0.03,0.14
								c0.68,2.9-0.35,9.83-0.36,9.9l-0.02,0.12l0.03,0.11c0.02,0.08,2.29,7.96,2.29,11.57c0,2.38-1.17,3.36-1.83,3.73
								c-0.91-2.4-4.65-12.36-5.11-14.5c-0.47-2.2-0.79-16.04-0.25-31.36c0.33-9.48-2.43-17.51-3.41-24.63
								c3.13,10.51,9.25,19.8,16.17,28.47l0.04,0.06C126.91,319.47,127.19,320.38,127.51,321.69z M130,294.23
								c-0.34,1.45-0.2,0.84-0.59,2.43c-1.36,3.83-2.32,7.29-2.63,9.77c-0.05,0.44-0.1,0.85-0.15,1.26
								c-0.81-5.9-2.33-12.74-4.29-18.18c-3.48-9.68-8.87-19.08-10.17-29.39c0,0,0.01-0.01,0.01-0.01l0.01-0.01v-8.86
								c0-6.89,4.64-14.59,6.36-17.21c0,0,0-0.01,0-0.01c-0.07,9.39,6.58,16.84,10.74,25.03c5.07,9.98,3.23,23.75,0.86,34.46
								C130.06,293.93,130.07,293.91,130,294.23z M138.39,269.03c-0.19,4.47-3.18,12.4-6.08,20.06c-0.14,0.37-0.48,1.03-0.84,1.74
								c1.76-8.31,2.66-16.68,0.86-25.19c-0.18-0.84-0.41-1.66-0.68-2.48c1.73-2.04,3.66-3.88,5.81-5.49
								C137.78,258.65,138.68,262.13,138.39,269.03z M145.4,226.51c-3.04,4.83-4.79,14.86-4.88,15.39c0,0.06,0.17,6.03-0.35,9.31
								c-0.5,3.16-2.68,5.56-2.71,5.58l-0.22,0.24c0,0,0,0,0,0c-2.15,1.6-4.09,3.41-5.83,5.42c-0.05-0.13-0.09-0.24-0.11-0.35
								c-0.79-2.15-1.83-4.2-2.96-6.22c3.19-3.01,6.12-6.37,8.99-11.13c2.81-4.66,3.83-8.26,5.75-13.26
								c4.12-10.76,7.43-21.88,8.12-33.33c0.11,0.15,0.22,0.3,0.34,0.45c0.28,2.87,0.74,7.41,1.3,11.79
								c0.01,0.05,0.01,0.1,0.02,0.15C151.74,213.79,147.99,222.39,145.4,226.51z M152.75,200.1c1.54,1.77,3.61,3.86,5.93,5.64
								c-2.45,4.57-3.5,9.51-3.13,14.41C154.43,215.76,153.34,205.91,152.75,200.1z M157.03,224.5c-0.65-2.51-0.89-4.7-0.88-6.64
								c1.52,1.27,3.19,2.26,4.99,2.95c0.29,2.55,0.96,5.09,1.95,7.49C160.77,227.58,158.7,226.28,157.03,224.5z M158.91,229.93
								c-0.03-0.08-0.08-0.21-0.15-0.36c-0.56-1.35-1.02-2.63-1.38-3.84c1.25,1.14,2.67,2.05,4.22,2.7
								c-0.01,0.02-0.02,0.05-0.02,0.07c-0.07,2.43,0.05,5.11,0.53,7.71c-0.47-0.44-0.91-0.9-1.34-1.38
								C160.33,233.51,159.63,231.85,158.91,229.93z M155.9,277.69c-0.52-4.22,2.31-8.68,4-11.35c0.31-0.48,0.55-0.87,0.74-1.2
								c6.73,3.02,14.81,8.31,13,17.27c-0.51,2.49-2.69,5.17-4.23,7.04c-2.16,2.62-4.17,1.42-6.42-0.37
								c-1.95-1.55-3.88-3.13-5.81-4.72C156.84,283.28,156.33,281.22,155.9,277.69z M150.44,328.02c1.78-7.07,3.18-12.65,2.94-16.34
								c-0.47-7.27,1.67-16.64,3.08-21.86c4.18,4.57,3.66,11.85,2.79,17.84c-1.04,7.15-2.2,17.37-8.99,21.08
								C150.32,328.5,150.38,328.25,150.44,328.02z M142.97,370.45c0.61-8.31,2.62-19.92,4.58-29.5c-0.64,7.46-0.44,14,1.25,22.85
								c1.69,8.84,7.07,20.96,9.1,32.1c0.76,4.19,1.46,14.89-0.58,20.82c-1.36,3.93-5.36,7.13-8.78,6.21
								C147.01,411.12,141.57,389.4,142.97,370.45z M144.54,490.41c-1.61-11.15-3.13-21.67-3.04-26.35
								c0.14-8.2,5.07-20.59,6.79-24.69c0.97,3.07,2.96,7.11,4.68,10.31c-0.07,12.87-0.15,25.75-0.22,38.62
								c-0.06,11.31,1.74,25.07-4.88,34.94c0.08-1.74,0.11-3.43,0.05-4.58C147.69,512.27,146.09,501.19,144.54,490.41z
								 M163.31,524.99c0.07,0.38,0.15,0.75,0.22,1.11c-3.85-4.36-3.9-10.97-3.93-16.91c0-0.86-0.01-1.71-0.02-2.54
								c-0.14-7.69-0.21-14.74,0.24-21.78c0.8,3.52,2.94,8.71,8.65,11.25C166.14,504.85,162.57,521.07,163.31,524.99z
								 M178.42,470.86c-1.78,5.93-4.03,10.63-5.83,14.41c-1.09,2.27-2.02,4.24-2.68,6.06c-0.28,0.78-0.67,2.07-1.12,3.69
								c-5.78-2.66-8.01-8.54-8.83-11.85c0.05-0.62,0.09-1.23,0.15-1.85c0.14-1.57,0.24-3.18,0.34-4.88
								c0.26-4.47,0.39-9.04,1.78-13.34c1.05-3.25,2.7-6.29,4.63-9.1c1.94-2.83,4.36-5.26,6.38-8.02c1.17-1.61,2.27-3.29,3.3-5.01
								C177.54,445.88,180.79,462.99,178.42,470.86z M182.87,423.47c-0.82,4.46-2.87,8.79-4.94,12.79c-1.21,2.35-2.42,5.08-4.15,7.1
								c-4.73,5.56-9.86,10.94-12.16,18.03c-1.58,4.88-1.95,9.9-2.25,14.98c-0.1,1.69-0.19,3.29-0.33,4.84
								c-0.76,8.29-0.69,16.43-0.52,25.45c0.01,0.82,0.02,1.66,0.02,2.52c0.03,6.72,0.06,14.28,5.43,18.86
								c0.15,0.6,0.29,1.17,0.44,1.69c0.59,2.99,1.53,9.62,1.87,11.11c0.41,1.79,0.35,3.01-1.09,5.12c-1.23,1.8-3.06,3.23-4.64,4.13
								c1.21-1.95,3.29-5.32,3.29-5.32c-1.58,1.67-4.78,6.06-4.85,6.15l0,0c-0.59,0.74-3.36,5.34-3.95,9.54
								c-0.57,4.09-2.73,8.61-6.65,9.83l-0.04,0.02c-0.87,0.38-2.49,1.08-3.5,3.59c-0.89,2.21-3.3,3.86-5.23,4.35
								c-2.01,0.52-4.62-0.48-5.58-2.13l-0.03-0.05c-0.15-0.79-0.02-1.09,0.29-1.39c0.09-0.08,0.24-0.22,0.44-0.39
								c1.3-1.15,2.71-2.44,3.09-3.19c0.35-0.69,3.08-5.14,5.21-6.88c0,0-3.42,1.78-6,6.48c-0.36,0.65-2.13,2.25-2.89,2.93
								c-0.21,0.18-0.37,0.33-0.46,0.41c-0.56,0.53-0.73,1.13-0.58,2.07c-0.39,0.19-0.63,0.25-1.33-0.08
								c-0.6-0.28-0.76-1.06-0.81-1.63l0,0c0-0.03,0.28-3.6,6.64-11.69c0,0-2.08,1.65-3.89,4.35c-2.35,3.5-3.21,5.38-3.51,6.39
								c-0.42,0.04-0.99,0.02-1.2-0.14c-0.43-0.32-0.93-1.07-0.73-1.63c0.07-0.22,0.13-0.4,0.18-0.54l0,0
								c0.75-2.59,3.45-8.53,5.74-11.14c0,0-1.34,0.92-2.99,3.51c-1.66,2.6-2.59,4.27-3.31,6.44c-0.35-0.04-0.56-0.16-0.83-0.39
								c-0.13-0.12-0.31-0.85-0.29-1.86c0.01-0.28,0.05-0.61,0.1-0.95c0.06-0.42,0.12-0.86,0.11-1.28c0-0.11-0.01-0.22-0.03-0.32
								c0.36-1.49,1.41-4.15,4.2-7.44c0,0-1.32,1.12-2.44,2.64c-1,1.36-1.76,2.42-2.24,3.5c-0.05-0.15-0.09-0.32-0.12-0.52
								c-0.02-0.17-0.06-0.36-0.09-0.57c-0.17-0.97-0.4-2.31,0.23-2.99c0,0,2.39-3.56,3.31-4.13c1.36-0.85,10.65-8.48,11.8-11.16
								c0.28-0.66,0.53-1.36,0.77-2.04c0.71-2.02,1.45-4.11,3.18-5.59c2.48-2.12,4.26-7.43,4.26-7.43c-0.01,0.02-1.64,3.13-3.5,5.37
								c0.09-1.64,0.47-2.83,0.9-4.15c0.14-0.44,0.41-3.27,0.57-6.23c6.43-9.04,5.5-21.38,5.56-31.91
								c0.08-13.89,0.16-27.77,0.24-41.66c1.28,2.34,2.29,4.02,2.38,4.17c0,0-6.87-13.57-7.21-18.35c-0.2-2.78,0-4.26,0.17-5.56
								c0.13-1.01,0.26-1.96,0.18-3.31c-0.03-0.49-0.21-1.92-0.48-4.07c2.53,0.55,5.33-0.92,7.51-3.59
								c4.04-4.95,3.83-13.87,3.05-20.74c0.95,0.32,2,0.28,2.92-0.18c-0.05,1.75,0.05,3.51,0.33,5.3c0.9,5.54,3.29,11.62,8.12,14.94
								c3.85,2.65,8.73,4.06,12.68,1.47C183.13,421.9,183,422.76,182.87,423.47z M184.82,404.67c-0.49,5.84-0.96,11.44-1.45,15.42
								c-6.48,5.07-14.5-1.86-17.72-7.54c-3.49-6.15-3.15-13.54-1.64-20.18c2.77-12.19,10.64-22.49,14.1-34.47
								c2.14,5.03,4.02,10.15,5.05,15.57c1.39,7.34,2.04,14.77,2.44,22.2C185.32,398.72,185.06,401.77,184.82,404.67z
								 M186.95,382.76c-0.36,2.78-0.69,5.86-0.99,9.03c-0.88-11.91-2.69-23.64-7.55-34.83c-8.06-18.54-15.87-36.6-16.26-57.18
								c-0.02-1.32,0.07-2.54,0.33-3.84c1.12-5.62,5.33,2.64,5.44,2.87c1.26,2.4,2.62,4.1,2.95,6.92c0.15,1.33,0.28,2.57,0.56,3.88
								c1.95,9.14,3.65,18.01,6.93,26.81c1.51,4.03,3.51,7.86,4.98,11.91c1.65,4.55,2.36,9.56,3.12,14.32
								c0.77,4.78,1.21,9.59,1.36,14.4C187.49,378.99,187.19,380.9,186.95,382.76z M194.33,346.46c-0.32,2.54-1.33,6.83-2.49,11.79
								c-1.15,4.9-2.49,10.61-3.56,16.28c-0.22-4.01-0.62-8.02-1.2-12.04c-0.79-5.41-1.88-10.87-3.74-16.01
								c-1.89-5.24-4.46-10.2-6.24-15.5c-3.11-9.22-3.98-18.68-6.07-28.08c-0.65-2.92-3.23-6.16-4.86-8.62
								c-0.48-0.72-1.93-1.33-2.73-0.76c-4.06,2.89-1.67,12.76-1.23,16.57c1.26,10.8,4.67,21.27,8.66,31.34
								c2.08,5.26,4.57,10.37,6.82,15.56c-3.76,13.64-14.76,27.01-15.55,41.47c-0.92,0.63-2.07,0.7-3.03,0.28
								c-0.11-0.9-0.23-1.75-0.34-2.55c-1.66-11.48-7.38-24.94-9.31-33.93c-1.82-8.48-1.8-17.49-0.86-26.27
								c0.52-2.4,1.02-4.56,1.46-6.38c7.71-3.65,8.55-14.05,9.81-21.73c1.04-6.32,1.36-14.04-3.21-18.74
								c0.54-1.97,0.94-3.19,0.95-3.23l0.07-0.22l-0.01-0.01c2.8,2.35,5.61,4.74,8.64,6.74c0.14,0.09,0.28,0.15,0.42,0.19
								c2.16,3.1,4.16,7.07,6.6,11.94c2.08,4.15,4.43,8.86,7.4,14c0.84,1.46,1.53,3.08,2.27,4.81c2.1,4.93,4.46,10.46,10.95,11.36
								C194.27,336.55,194.95,341.56,194.33,346.46z M196.15,333.73c-0.04,0-0.33,0-0.33,0c-7.23-0.01-9.47-5.27-11.85-10.84
								c-0.71-1.67-1.45-3.41-2.32-4.92c-2.95-5.12-5.3-9.81-7.37-13.95c-2.34-4.67-4.28-8.54-6.36-11.63
								c2.31-1.12,4.96-6.29,5.66-7.51c2.62-4.54,0.64-10.01-2.37-13.91c-2.26-2.93-6.62-5.37-10.05-6.92
								c0.03-0.1,0.04-0.19,0.04-0.28c0-0.2,0.01-0.99,0.04-2.18c0.01-0.45,0.02-0.91,0.02-1.37c0.99,1.45,2.12,2.78,3.42,4
								c1.22,1.15,3.76,3.56,5.5,3.58c1.38,0.02,1.38-1.32,1.48-2.41c0.24-2.54,0.18-5.1-0.06-7.64c0.54-0.59,0.67-1.67,0.66-2.55
								c-0.02-3.13-0.56-5.66-1.63-8.19c1.3-1.37,0.42-6.33,0.01-8.88c0-0.01,0.01-0.01,0.01-0.01c0.71-3.54,2.47-9.14,0.06-12.36
								c0.43-0.3,0.56-1,0.76-1.48c0.67-1.59,1.31-3.72,1.03-5.46c-0.49-3.16-3.07-5.69-5.93-7.24c1.38-0.53,2.72-1.17,4.01-1.93
								c8.22-0.15,14.12-2.65,19.18-7.72c3.85-3.85,4.2-11.01,4.78-16.08c0.51-4.43,1.81-11.45-0.8-15.49
								c-0.52-0.8-1.04-1.54-1.61-2.22c0.07-0.4,1.77-9.54-0.01-15.57c-0.71-2.43-1.7-4.84-2.85-7.62
								c-1.6-3.89-3.57-8.67-5.57-15.45c3.18,2.65,6.88,5.32,8.07,5.76c0.95,0.35,2.19,0.51,3.26,0.59h1.42
								c1.07-0.08,2.31-0.24,3.25-0.59c1.2-0.44,4.95-3.14,8.14-5.81c-2.02,6.84-4,11.65-5.6,15.56c-1.15,2.79-2.14,5.2-2.85,7.62
								c-1.77,6.03-0.08,15.18-0.01,15.57c0,0-1.06,1.68-1.59,2.5c-2.61,4.04-1.31,11.06-0.8,15.49c0.58,5.07,0.93,12.22,4.78,16.08
								c5.28,5.29,11.48,7.79,20.27,7.73c0.95,0.5,1.91,0.94,2.9,1.33c-2.87,1.55-5.46,4.09-5.96,7.26
								c-0.27,1.74,0.36,3.87,1.03,5.46c0.2,0.48,0.33,1.18,0.76,1.48c-2.42,3.21-0.65,8.82,0.06,12.36c0,0.01,0.01,0.01,0.01,0.02
								c-0.41,2.55-1.29,7.51,0.01,8.87c-1.07,2.53-1.61,5.07-1.63,8.19c-0.01,0.88,0.12,1.96,0.66,2.55
								c-0.24,2.54-0.3,5.1-0.06,7.64c0.1,1.09,0.1,2.43,1.48,2.41c1.74-0.03,4.27-2.44,5.5-3.58c1.49-1.4,2.74-2.94,3.83-4.63
								c0.01,0.71,0.02,1.42,0.04,2.1c0.02,1.19,0.04,1.98,0.04,2.18c0,0.09,0.02,0.19,0.05,0.3c-3.46,1.54-7.91,3.91-10.22,6.91
								c-3.01,3.9-5.31,9.37-2.68,13.91c0.72,1.25,3.64,6.76,6.05,7.7c-2.07,3.08-4,6.92-6.32,11.57
								c-2.07,4.14-4.42,8.83-7.37,13.95c-0.87,1.52-1.61,3.25-2.32,4.92C205.53,328.43,203.3,333.67,196.15,333.73z M205.89,391.67
								c-0.3-3.13-0.63-6.16-0.98-8.91c-0.24-1.87-0.54-3.8-0.88-5.75c0.15-4.9,0.58-9.79,1.37-14.65
								c0.77-4.76,1.48-9.76,3.12-14.32c1.46-4.05,3.47-7.87,4.98-11.91c3.29-8.8,4.98-17.67,6.93-26.81
								c0.28-1.31,0.41-2.55,0.56-3.88c0.32-2.82,1.69-4.53,2.95-6.92c0.12-0.22,4.33-8.49,5.44-2.87c0.26,1.3,0.36,2.53,0.33,3.84
								c-0.39,20.58-8.21,38.64-16.26,57.18C208.56,367.91,206.76,379.7,205.89,391.67z M207.04,404.67
								c-0.25-2.93-0.51-6.03-0.79-9.1c0.41-7.5,1.06-14.98,2.45-22.39c1.02-5.39,2.88-10.47,5-15.47
								c3.47,11.97,11.38,22.49,14.14,34.66c1.51,6.65,1.85,14.03-1.64,20.18c-3.22,5.68-11.24,12.61-17.72,7.54
								C208,416.11,207.53,410.52,207.04,404.67z M221.95,491.33c-0.66-1.83-1.6-3.79-2.69-6.06c-1.8-3.78-4.04-8.48-5.83-14.41
								c-2.37-7.87,0.88-24.98,1.89-29.88c1.03,1.72,2.13,3.4,3.31,5.01c2.02,2.77,4.44,5.19,6.38,8.02
								c1.93,2.81,3.57,5.85,4.63,9.1c1.39,4.3,1.52,8.87,1.78,13.34c0.1,1.7,0.19,3.31,0.34,4.88c0.05,0.54,0.09,1.09,0.13,1.63
								c-0.53,2.26-1.75,5.85-4.4,8.75c-1.17,1.29-2.63,2.44-4.42,3.27C222.61,493.38,222.23,492.1,221.95,491.33z M223.36,496.08
								c2.09-0.94,3.7-2.24,4.94-3.68c2.2-2.55,3.23-5.54,3.71-7.78c0.48,7.12,0.4,14.25,0.26,22.04c-0.02,0.82-0.02,1.67-0.02,2.54
								c-0.02,5.94-0.07,12.55-3.93,16.91c0.08-0.36,0.15-0.73,0.22-1.11C229.28,521.06,225.7,504.8,223.36,496.08z M245.52,534.81
								c-1.86-2.24-3.49-5.35-3.5-5.37c0,0,1.77,5.31,4.26,7.43c1.73,1.48,2.47,3.57,3.18,5.59c0.24,0.68,0.49,1.39,0.77,2.04
								c1.15,2.69,10.44,10.31,11.8,11.16c0.92,0.58,3.31,4.13,3.31,4.13c0.63,0.68,0.4,2.01,0.23,2.99
								c-0.04,0.21-0.07,0.4-0.09,0.57c-0.03,0.19-0.07,0.35-0.11,0.5c-0.48-1.09-1.24-2.16-2.26-3.54
								c-1.11-1.52-2.44-2.64-2.44-2.64c2.82,3.33,3.86,6.02,4.21,7.49c-0.02,0.1-0.03,0.21-0.03,0.32
								c-0.01,0.41,0.05,0.85,0.11,1.28c0.05,0.34,0.09,0.67,0.1,0.95c0.02,1.02-0.16,1.75-0.29,1.86
								c-0.27,0.22-0.48,0.34-0.83,0.39c-0.73-2.19-1.66-3.87-3.33-6.49c-1.65-2.59-2.99-3.51-2.99-3.51
								c2.24,2.55,4.87,8.28,5.68,10.95c0.05,0.18,0.13,0.42,0.25,0.78c0.19,0.57-0.3,1.31-0.73,1.63c-0.18,0.13-0.61,0.17-1,0.15
								c-0.13-0.83-0.8-2.7-3.63-6.92c-1.81-2.69-3.89-4.35-3.89-4.35c5.36,6.82,6.41,10.43,6.6,11.41l-0.01,0.29
								c-0.01,0.48-0.03,1.75-0.84,2.13c-0.69,0.33-0.94,0.27-1.33,0.08c0.15-0.95-0.02-1.54-0.58-2.07
								c-0.09-0.08-0.25-0.23-0.46-0.41c-0.76-0.68-2.53-2.28-2.89-2.93c-2.58-4.7-6-6.48-6-6.48c2.13,1.74,4.86,6.19,5.21,6.88
								c0.38,0.75,1.8,2.04,3.09,3.19c0.2,0.17,0.35,0.31,0.44,0.39c0.32,0.3,0.44,0.59,0.3,1.39l-0.03,0.05
								c-0.96,1.65-3.56,2.65-5.58,2.13c-1.93-0.49-4.35-2.15-5.23-4.35c-1.01-2.51-2.63-3.21-3.5-3.59l-0.04-0.02
								c-3.92-1.22-6.08-5.74-6.65-9.83c-0.59-4.2-3.35-8.8-3.95-9.54l0,0c-0.07-0.1-3.27-4.49-4.85-6.15c0,0,2.08,3.37,3.29,5.32
								c-1.58-0.9-3.41-2.32-4.64-4.13c-1.44-2.11-1.5-3.34-1.09-5.12c0.34-1.49,1.28-8.12,1.87-11.11
								c0.15-0.52,0.29-1.09,0.44-1.69c5.37-4.58,5.4-12.15,5.43-18.86c0-0.86,0.01-1.7,0.02-2.52c0.17-9.02,0.24-17.16-0.52-25.45
								c-0.14-1.55-0.24-3.15-0.33-4.84c-0.3-5.09-0.66-10.1-2.25-14.98c-2.3-7.1-7.43-12.47-12.16-18.03
								c-1.72-2.02-2.93-4.75-4.15-7.1c-2.07-4-4.12-8.33-4.94-12.79c-0.13-0.72-0.26-1.57-0.39-2.55
								c3.96,2.59,8.83,1.18,12.68-1.47c4.83-3.32,7.58-9.35,8.12-14.94c0.18-1.93,0.21-3.79,0.12-5.6
								c0.92,0.47,2.02,0.55,3.01,0.28c-0.82,6.91-1.11,16.07,3.01,21.11c2.24,2.74,5.12,4.21,7.7,3.54c-0.26,2-0.42,3.33-0.45,3.8
								c-0.08,1.35,0.05,2.3,0.18,3.31c0.17,1.31,0.37,2.78,0.17,5.56c-0.34,4.79-7.21,18.35-7.21,18.35
								c0.09-0.14,1.07-1.78,2.32-4.07c0.08,13.9,0.16,27.8,0.24,41.7c0.06,10.54-0.87,22.88,5.56,31.91
								c0.16,2.96,0.42,5.8,0.57,6.23C245.05,531.98,245.43,533.17,245.52,534.81z M250.36,464.06c0.08,4.68-1.44,15.2-3.04,26.35
								c-1.56,10.78-3.15,21.86-3.37,28.25c-0.06,1.15-0.03,2.83,0.05,4.58c-6.63-9.86-4.82-23.63-4.88-34.94
								c-0.07-12.89-0.15-25.77-0.22-38.66c1.7-3.17,3.69-7.17,4.69-10.26C245.3,443.5,250.22,455.87,250.36,464.06z M248.94,370.3
								c1.4,19-4.07,40.78-5.58,52.57c-0.01,0.06-0.01,0.11-0.02,0.17c-3.45,1.1-7.59-2.16-8.97-6.16
								c-2.05-5.92-1.35-16.63-0.58-20.82c2.03-11.14,7.41-23.26,9.1-32.1c1.8-9.41,1.93-16.54,1.14-24.78
								C246.08,349.04,248.29,361.51,248.94,370.3z M242.75,333.3c1.24,9.66,1.48,19.7-0.53,29.09c-1.93,8.99-7.65,22.46-9.31,33.93
								c-0.1,0.72-0.21,1.49-0.31,2.29c-1.01,0.35-2.22,0.24-3.13-0.41c-1.1-15.73-11.58-27.68-15.35-41.44
								c2.26-5.22,4.77-10.36,6.86-15.65c3.99-10.07,7.4-20.54,8.66-31.34c0.44-3.81,2.83-13.67-1.23-16.57
								c-0.8-0.57-2.25,0.05-2.73,0.76c-1.63,2.46-4.21,5.7-4.86,8.62c-2.09,9.4-2.96,18.87-6.07,28.08
								c-1.79,5.3-4.35,10.27-6.24,15.5c-1.86,5.15-2.95,10.6-3.74,16.01c-0.6,4.09-0.99,8.18-1.21,12.27
								c-1.07-5.65-2.4-11.33-3.55-16.22c-1.16-4.96-2.17-9.25-2.49-11.79c-0.62-4.9,0.06-9.91,0.38-11.79
								c6.5-0.89,8.86-6.42,10.97-11.36c0.73-1.72,1.43-3.35,2.27-4.81c2.97-5.14,5.32-9.85,7.4-14c2.47-4.94,4.5-8.96,6.69-12.08
								c0.04-0.02,0.07-0.03,0.11-0.06c3.11-2.06,5.99-4.53,8.87-6.93l0.08,0.29c0.01,0.04,0.42,1.29,0.97,3.3
								c-4.66,4.68-4.33,12.46-3.29,18.82c1.27,7.72,2.11,18.17,9.91,21.78C242.16,330.72,242.45,331.96,242.75,333.3z
								 M235.46,289.74c1.41,5.23,3.53,14.55,3.06,21.79c-0.24,3.7,1.16,9.28,2.94,16.34c0.07,0.3,0.15,0.61,0.23,0.93
								c-6.89-3.66-8.06-13.95-9.1-21.14C231.72,301.63,231.2,294.3,235.46,289.74z M232.01,266.19c1.69,2.67,4.52,7.13,4,11.35
								c-0.61,4.91-1.14,6.14-1.45,6.74c-1.95,1.61-3.91,3.22-5.89,4.79c-2.25,1.79-4.26,2.99-6.42,0.37
								c-1.54-1.88-3.72-4.55-4.23-7.04c-1.86-9.09,6.46-14.4,13.26-17.39C231.47,265.34,231.71,265.72,232.01,266.19z
								 M233.54,227.9c-0.82,2.15-1.61,4.22-2.16,5.9c-0.62,0.77-1.29,1.49-2.01,2.17c0.48-2.6,0.6-5.28,0.53-7.71
								c0-0.03-0.01-0.05-0.02-0.08c1.78-0.75,3.39-1.83,4.77-3.22C234.29,225.94,233.92,226.92,233.54,227.9z M234.93,223.73
								c-1.75,2.05-3.99,3.53-6.53,4.33c0.98-2.38,1.65-4.73,1.94-7.24c1.8-0.69,3.47-1.68,5-2.96
								C235.35,220.11,235.16,222.32,234.93,223.73z M236.16,220.85c-0.01,0.02-0.17,0.57-0.45,1.37c0.61-5.6-0.16-11.48-2.62-16.34
								c2.26-1.78,4.26-3.85,5.75-5.59c0.12-0.14,0.22-0.28,0.34-0.41C238.55,206.15,237.38,217.17,236.16,220.85z M251.44,250.98
								c-0.38-10.35-2.18-19.87-5.22-24.7c-2.55-4.04-6.07-11.99-7.24-15.3c0-0.01,0-0.03-0.01-0.07c0.61-4.63,1.13-9.59,1.42-12.59
								c0.06-0.07,0.11-0.15,0.17-0.22c0.71,11.4,4.01,22.5,8.11,33.21c1.92,5,2.94,8.61,5.75,13.26c2.71,4.49,6.22,8.2,9.22,11.09
								c-1.39,2.37-2.41,4.27-3.28,6.76c-1.75-2-4.15-4.34-6.25-5.9C253.78,256.21,251.55,253.96,251.44,250.98z M260.19,291.22
								c-0.29-0.78-0.59-1.57-0.89-2.37c-2.9-7.66-5.89-15.59-6.08-20.06c-0.29-6.85,0.6-10.33,0.91-11.34
								c2.13,1.6,4.26,3.61,5.99,5.65c-0.28,0.86-0.55,1.79-0.81,2.84c-2.14,8.53-0.68,17.34,0.89,25.33
								C260.2,291.25,260.19,291.23,260.19,291.22z M262.01,296.18c-2.9-11.82-5.29-25.68,0.37-36.83
								c4.21-8.29,10.95-15.85,10.7-25.41c1.68,2.54,6.42,10.33,6.42,17.3v8c-1.06,10.74-6.67,19.83-10.27,29.83
								c-2.13,5.93-3.56,11.95-4.29,18.1c-0.04-0.32-0.06-0.64-0.12-0.98C264.09,301.9,262.99,298.72,262.01,296.18z M266,351.53
								c-0.5-1.46-0.75-3.33,0.3-4.94c1.58-2.41,3.85-6.56,5.12-8.93c0.03,1.14,0.09,2.44,0.16,3.62c-0.93,1.77-3.07,5.75-4.8,8.38
								C266.39,350.27,266.14,350.9,266,351.53z M268.22,357.04c-0.72-1.26-2.15-4.34-0.54-6.79c1.35-2.06,2.95-4.93,4.04-6.95
								c0.06,0.76,0.11,1.33,0.14,1.55c-0.26,0.92-1.92,6.84-2.24,10.61L268.22,357.04z M281.31,289.15
								c-0.89,7.29-3.85,15.54-3.5,25.33c0.54,15.33,0.22,29.16-0.25,31.36c-0.46,2.13-4.2,12.1-5.11,14.5
								c-0.66-0.37-1.83-1.35-1.83-3.73c0-3.61,2.26-11.49,2.29-11.57l0.03-0.11l-0.02-0.12c-0.01-0.07-1.04-7-0.36-9.9l0.03-0.14
								l-0.04-0.13c-0.54-1.86,0.3-6.23-2.26-7.19c-0.43-0.16-0.85-0.12-1.23,0.12c-1.56,1-1.85,3.21-2.17,5.54
								c-0.25,1.84-0.5,3.74-1.37,5.11c-1.29,2.04-2.24,2.51-2.69,2.5c-1.84-0.01-0.23-5.63-0.23-10.76c0-1.99,0.61-4.11,1.59-8.26
								c0.35-1.5,0.68-2.65,0.91-3.92c7.08-8.89,13.29-18.45,16.29-29.31C281.36,288.7,281.34,288.92,281.31,289.15z M282.52,277.13
								c-0.1,1.64-0.36,3.44-0.52,5.01c-1.91,13.12-8.62,24.1-16.71,34.38c0.17-1.51,0.2-3.33-0.01-6.05
								c0.8-9.66,3.34-18.87,7.32-27.89c3.12-7.06,6.29-14.06,7.35-21.71C280.85,262.62,283.07,267.95,282.52,277.13z"/>
							<path d="M191.6,256.66c-3.85,1.17-7.67,2.39-11.49,3.62c-4.77,1.53-5.76-2.16-5.8-5.02c-0.04-2.73,1.45-5.26,3.21-7.29
								c2.95-3.4,7.99-4.47,12.36-4.73C195.04,242.92,196.6,254.97,191.6,256.66 M194.23,244.62c-2.8-4.65-11.84-0.96-15.25,1.24
								c-3.79,2.45-7,8.61-4.71,12.89c1.07,1.99,2.37,2.63,4.67,2.45c1.66-0.13,3.37-0.99,4.92-1.51c2.6-0.88,5.28-1.6,7.91-2.4
								c1.47-0.5,3.32-1.21,3.45-2.97C195.43,251.79,195.6,246.89,194.23,244.62"/>
							<path d="M199.89,256.72c-5-1.69-3.44-13.74,1.72-13.42c4.37,0.26,9.42,1.33,12.36,4.73c1.76,2.03,3.25,4.56,3.21,7.29
								c-0.04,2.86-1.03,6.55-5.8,5.02C207.56,259.11,203.73,257.89,199.89,256.72 M197.25,244.68c-1.37,2.27-1.19,7.17-0.99,9.68
								c0.14,1.76,1.98,2.48,3.45,2.97c2.63,0.8,5.3,1.53,7.91,2.4c1.55,0.52,3.26,1.38,4.92,1.51c2.3,0.18,3.6-0.46,4.67-2.45
								c2.29-4.28-0.92-10.44-4.71-12.89C209.09,243.72,200.05,240.03,197.25,244.68"/>
						</g>
					</g>
					<path d="M193.05,290.07c-0.12,4.08-0.24,8.17-0.36,12.25c-0.2,6.59-7.81-0.14-9.48-2.05c-4.72-6.96-5.98-16.11-7.55-24.21
						c-1.29-6.67,0.88-12.08,7.71-14.14c4.8-1.45,9.95-1.59,10.32,4.66C194.15,274.31,193.28,282.32,193.05,290.07 M193.54,261.9
						c-4.37-4.93-15.13,0.34-17.66,4.5c-2.75,4.52-0.57,11.34,0.39,15.86c1.35,6.35,2.7,12.9,6.4,18.35l0.03,0.03l0.02,0.04
						c2.32,2.68,5.66,4.95,9.23,5.55c2.39,0.41,1.47-7.13,1.5-8c0.22-7.49,0.9-14.97,1.07-22.46
						C194.56,273.98,196.03,264.71,193.54,261.9z"/>
					<path d="M197.8,266.58c0.37-6.25,5.52-6.11,10.32-4.66c6.83,2.07,9,7.47,7.71,14.14c-1.56,8.1-2.83,17.25-7.55,24.21
						c-1.67,1.91-9.29,8.64-9.48,2.05c-0.12-4.08-0.24-8.17-0.36-12.25C198.21,282.32,197.34,274.31,197.8,266.58 M198.04,298.23
						c0.03,0.87-0.9,8.41,1.5,8c3.56-0.6,6.9-2.87,9.23-5.55l0.02-0.04l0.03-0.03c3.7-5.44,5.05-12,6.4-18.35
						c0.96-4.52,2.53-11.03,0.39-15.86c-1.84-4.16-12.74-9.4-17.52-4.45c-2.71,2.81-1.22,10.37-1.12,13.81"/>
				</g>
			</g>
		</g>
	</g>
</g>
</svg>
