<?xml version="1.0" encoding="utf-8"?>
<!-- Generator: Adobe Illustrator 26.0.1, SVG Export Plug-In . SVG Version: 6.00 Build 0)  -->
<svg version="1.1" id="Layer_1" xmlns="http://www.w3.org/2000/svg" xmlns:xlink="http://www.w3.org/1999/xlink" x="0px" y="0px"
	 viewBox="0 0 432 648" style="enable-background:new 0 0 432 648;" xml:space="preserve">
<style type="text/css">
	.st0{fill:#FFFFFF;}
	.st1{fill:#E92A2A;}
	.st2{fill:#D52626;}
	.st3{fill:#9A1A1C;}
	.st4{fill:#8D1819;}
	.st5{fill:#A89FA8;}
	.st6{fill:#998F99;}
	.st7{fill:#E9E7E9;}
</style>
<g>
	<g>
		<g id="Front_00000021095947442741400150000003598425190926930340_">
			<g>
				<g>
					<g>
						<g>
							<path class="st0" d="M294.34,259.33v-8.55c0-6.18-3.43-12.77-5.56-16.28c2.11-7.06,2.14-23.97,0.99-31.82
								c-0.7-4.77-4.02-8.66-5.66-11.15c0.03-0.19,0.06-0.38,0.1-0.58c0.9-5.76-3.01-19.91-5.36-25.87
								c-1.56-3.96-4.82-5.46-7.43-6.67c-1.41-0.65-2.64-1.21-3.33-2.02c-1.76-2.06-3.52-2.62-5.07-3.12
								c-0.41-0.13-0.8-0.26-1.18-0.41c-0.59-0.24-1.12-0.72-1.92-1.44c-1.36-1.23-3.41-3.09-7.79-5.63
								c-2.41-1.4-5.79-3.02-9.38-4.74c-5.87-2.81-12.73-6.06-14.37-8.08c-1.49-1.84-1.65-7.66-1.67-9.58
								c0.71-1.8,0.79-4.65,0.76-6.29c0.3,0.14,0.66,0.21,1.09,0.16c1.46-0.18,2.84-2.46,4.48-5.42c0.46-0.83,0.9-1.62,1.23-2.09
								c1.42-2.03,1.11-6.42,0.07-9.71c-0.3-0.96-0.82-1.51-1.53-1.65c-0.98-0.18-2.05,0.56-2.81,1.27
								c0.15-4.1,0.09-15.63-4.64-21.31c-4.08-4.89-12.23-6.11-15.32-6.4l-1.22,0c-3.09,0.29-11.24,1.51-15.32,6.4
								c-4.73,5.68-4.79,17.21-4.64,21.31c-0.76-0.7-1.84-1.44-2.81-1.27c-0.71,0.13-1.23,0.69-1.53,1.65
								c-1.04,3.29-1.35,7.68,0.07,9.71c0.33,0.48,0.77,1.26,1.23,2.09c1.64,2.96,3.01,5.24,4.48,5.42
								c0.43,0.05,0.79-0.02,1.09-0.16c-0.03,1.82,0.07,5.09,1,6.82c0,0,0,0.01,0.01,0.01c-0.04,1.35-0.33,7.14-1.9,9.09
								c-1.63,2.02-8.29,5.21-14.16,8.02c-3.59,1.72-6.97,3.34-9.38,4.74c-4.38,2.54-6.43,4.4-7.79,5.63
								c-0.8,0.73-1.33,1.2-1.92,1.44c-0.38,0.15-0.77,0.28-1.18,0.41c-1.55,0.5-3.31,1.06-5.07,3.12c-0.69,0.8-1.91,1.37-3.33,2.02
								c-2.62,1.2-5.87,2.7-7.43,6.67c-2.35,5.97-6.26,20.11-5.36,25.87c0.06,0.41,0.13,0.82,0.21,1.22
								c-1.66,2.47-4.64,6.08-5.32,10.72c-1.14,7.8-1.27,24.06,0.8,31.18c-2.1,3.38-5.82,10.26-5.82,16.7v8.55
								c-0.59,0.96-3.68,6.54-3.02,17.43c0.25,4.17,0.72,8.02,1.22,12.1c0.88,7.26,3.84,15.48,3.5,25.19
								c-0.52,14.81-0.31,28.93,0.27,31.66c0.54,2.5,5.16,14.67,5.36,15.19l0.17,0.45l0.46-0.12c0.03-0.01,2.8-0.8,3.04-4.45
								l1.48,1.68l0.39-0.54c0.09-0.12,1.39-1.97,1.76-4.26c0.82-1.39,2.53-4.96,0.55-7.99c-2.26-3.45-5.99-10.56-6.02-10.64l0,0
								c-0.01-0.24-0.03-0.44-0.06-0.59c0.55-4.23,0-5.77,1.57-6.36c0.13-0.05,0.2-0.03,0.28,0.02c1.14,0.74,1.41,2.7,1.69,4.79
								c0.26,1.95,0.54,3.97,1.53,5.54c1.17,1.84,2.96,4.22,5.06,2.48c1.38-1.15,0.17-9.02-0.16-11.35
								c-0.42-2.91-0.42-3.73-1.57-8.35c-0.73-2.94-1.17-4.47-1.37-5.82c-0.1-1.12,0.19-5.79,0.62-9.2
								c0.49-3.92,2.91-10.33,5.47-17.11c2.93-7.75,5.96-15.77,6.15-20.42c0.3-7.21-0.65-10.78-0.99-11.82
								c0.61-0.73,2.3-2.98,2.76-5.89c0.54-3.39,0.37-9.27,0.35-9.41c0.02-0.1,1.79-10.26,4.73-14.92
								c2.23-3.54,5.51-10.46,6.9-14.08c0.51,3.58,1.07,6.79,1.65,8.5c0.72,2.17,1.65,4.59,2.54,6.92c1.27,3.33,2.47,6.47,2.78,8.12
								c0.44,2.33,0.13,19.45,0.03,25.07c-0.02,1.2-0.04,2-0.04,2.2c0,0.01,0,0.01-0.01,0.02c-0.11,0.11-0.19,0.3-0.22,0.5
								c-0.22,0.41-0.58,0.97-0.91,1.49c-1.77,2.79-4.73,7.46-4.16,12.07c0.64,5.13,1.42,7.28,1.7,7.93
								c-0.58,1.85-4.88,15.9-4.22,26.04c0.23,3.54-1.16,9.05-2.92,16.03c-2.27,9-6.55,29.73-7.51,42.66
								c-1.41,19.13,4.08,41.01,5.59,52.84c0.32,2.53,0.54,4.2,0.57,4.71c0.07,1.25-0.04,2.11-0.18,3.11
								c-0.18,1.36-0.39,2.89-0.18,5.79c0.02,0.29,0.07,0.61,0.14,0.95c-0.74,1.66-7.25,16.62-7.42,26.38
								c-0.08,4.77,1.44,15.35,3.06,26.55c1.46,10.14,2.86,20.62,3.3,27.1l0.01,0.17c0.04,0.54,0.07,1.06,0.09,1.54
								c0.07,3.47-0.26,10.38-0.49,11.05c-0.52,1.59-1,3.09-0.97,5.43c-0.14,0.14-0.28,0.27-0.42,0.39
								c-1.92,1.64-2.69,3.84-3.44,5.98c-0.25,0.7-0.48,1.36-0.75,1.99c-1.03,2.42-10.2,9.98-11.47,10.77
								c-0.99,0.62-3.49,4.28-3.49,4.28c-0.94,1-0.65,2.65-0.46,3.75c0.03,0.19,0.07,0.37,0.09,0.53c0.08,0.58,0.26,0.98,0.4,1.31
								c0.13,0.28,0.22,0.49,0.22,0.74c0.01,0.34-0.05,0.75-0.1,1.14c-0.05,0.35-0.1,0.72-0.11,1.06c-0.01,0.61,0.02,2.08,0.61,2.57
								c0.34,0.28,0.66,0.48,1.13,0.56c-0.05,0.15-0.12,0.35-0.2,0.59c-0.37,1.08,0.45,2.19,1.05,2.63
								c0.43,0.32,1.11,0.35,1.58,0.32c0,0.09,0.02,0.15,0.03,0.2c0.07,0.77,0.33,1.82,1.31,2.29c1,0.47,1.5,0.36,2.09,0.08
								c1.14,1.58,3.46,2.54,5.55,2.34c0.27-0.03,0.54-0.07,0.8-0.14c2.15-0.55,4.84-2.4,5.84-4.89c0.8-1.99,1.97-2.65,3.01-3.1
								c4.29-1.35,6.63-6.13,7.25-10.56c0.55-3.91,3.06-8.18,3.71-9.05c2.99-1.26,4.77-2.84,6.3-5.09c1.61-2.36,1.67-3.87,1.22-5.83
								c-0.43-1.86-1.59-10.63-2-11.99c-0.35-1.19-0.51-2.41-0.8-3.89c-0.87-4.63,4.87-28.49,6.56-33.14
								c0.64-1.78,1.57-3.72,2.65-5.98c1.82-3.82,4.08-8.56,5.89-14.58c2.74-9.1-1.59-29.22-2.11-31.6c1.59-2.79,3-5.68,4.23-8.63
								c0.98-2.36,1.9-4.81,2.37-7.33c0.68-3.72,1.28-10.77,1.96-18.92c0.61-7.21,1.29-15.37,2.13-21.89
								c1.03-8.05,3.16-17.13,4.88-24.43c1.17-5,2.18-9.31,2.51-11.91c0.62-4.86,0.01-9.71-0.34-11.83c0.37,0.04,1.48,0.05,1.76,0
								c-0.34,2.12-0.96,6.97-0.34,11.83c0.33,2.6,1.34,6.92,2.51,11.91c1.71,7.3,3.84,16.39,4.88,24.43
								c0.84,6.52,1.53,14.69,2.13,21.89c0.69,8.16,1.28,15.2,1.96,18.92c0.46,2.52,1.39,4.97,2.37,7.33
								c1.23,2.95,2.64,5.84,4.23,8.63c-0.53,2.38-4.85,22.5-2.11,31.6c1.81,6.01,4.08,10.76,5.89,14.58c1.07,2.25,2,4.2,2.65,5.98
								c1.69,4.65,7.43,28.51,6.56,33.14c-0.28,1.49-0.44,2.7-0.8,3.89c-0.4,1.36-1.57,10.13-2,11.99
								c-0.45,1.96-0.39,3.46,1.22,5.83c1.53,2.25,3.31,3.84,6.3,5.09c0.65,0.87,3.16,5.14,3.71,9.05
								c0.62,4.43,2.96,9.21,7.25,10.56c1.04,0.45,2.21,1.11,3.01,3.1c1,2.48,3.7,4.34,5.84,4.89c0.26,0.07,0.53,0.11,0.8,0.14
								c2.09,0.2,4.41-0.76,5.55-2.34c0.58,0.28,1.09,0.39,2.09-0.08c1.07-0.51,1.28-1.72,1.33-2.49c0.47,0.03,1.16,0,1.59-0.32
								c0.6-0.44,1.41-1.55,1.05-2.63c-0.08-0.22-0.14-0.41-0.19-0.56l0,0c0-0.01-0.01-0.02-0.01-0.04
								c0.47-0.09,0.79-0.28,1.13-0.56c0.59-0.49,0.63-1.96,0.61-2.57c-0.01-0.34-0.06-0.7-0.11-1.06c-0.05-0.39-0.11-0.8-0.1-1.14
								c0-0.25,0.09-0.46,0.22-0.74c0.14-0.32,0.32-0.72,0.4-1.31c0.02-0.16,0.05-0.34,0.09-0.53c0.19-1.09,0.48-2.74-0.46-3.75
								c0,0-2.5-3.67-3.49-4.28c-1.26-0.79-10.43-8.35-11.47-10.77c-0.27-0.63-0.5-1.29-0.75-1.99c-0.75-2.13-1.53-4.34-3.44-5.98
								c-0.14-0.12-0.28-0.25-0.42-0.39c0.04-2.33-0.45-3.84-0.97-5.43c-0.22-0.68-0.56-7.59-0.49-11.05c0.02-0.48,0.05-1,0.09-1.54
								c0.01-0.06,0.02-0.12,0.03-0.17l-0.02,0c0.44-6.47,1.84-16.96,3.3-27.1c1.62-11.2,3.14-21.78,3.06-26.55
								c-0.17-9.69-6.6-24.51-7.41-26.34c0.09-0.41,0.15-0.79,0.17-1.14c0.21-2.89,0-4.43-0.18-5.79c-0.13-1-0.25-1.86-0.18-3.11
								c0.03-0.51,0.24-2.18,0.57-4.71c1.51-11.83,7-33.71,5.59-52.84c-0.95-12.93-5.24-33.66-7.51-42.66
								c-1.76-6.98-3.15-12.5-2.92-16.03c0.66-10.13-3.63-24.19-4.22-26.04c0.28-0.64,1.06-2.79,1.7-7.93
								c0.57-4.61-2.39-9.27-4.16-12.07c-0.52-0.82-1.11-1.75-1.14-2.01c0-0.2-0.01-0.99-0.04-2.2c-0.1-5.63-0.41-22.74,0.03-25.07
								c0.31-1.64,1.51-4.79,2.78-8.12c0.89-2.33,1.81-4.75,2.54-6.92c0.55-1.66,1.08-4.74,1.57-8.18c0-0.01,0-0.01,0-0.02
								c1.42,3.54,4.61,10.03,6.67,13.68c3.63,6.43,4.88,16.93,5.08,24.33c0.08,2.95,2.15,5.16,2.76,5.89
								c-0.34,1.04-1.29,4.61-0.99,11.82c0.19,4.65,3.22,12.67,6.15,20.42c2.56,6.79,4.99,13.2,5.47,17.11
								c0.35,2.83,0.7,4.65,0.72,6.05c0.02,1.33,0.01,2.68-0.12,4.02c-0.12,1.24-0.64,2.7-1.27,5.21c-1.15,4.62-1.15,5.44-1.57,8.35
								c-0.33,2.33-1.54,10.2-0.16,11.35c2.09,1.74,3.89-0.64,5.06-2.48c0.99-1.57,1.27-3.59,1.53-5.54
								c0.28-2.08,0.55-4.05,1.69-4.79c0.08-0.05,0.15-0.07,0.28-0.02c1.58,0.59,1.02,2.13,1.57,6.36
								c-0.03,0.15-0.05,0.35-0.06,0.59l0,0c-0.04,0.07-3.77,7.19-6.02,10.64c-1.99,3.03-0.28,6.6,0.55,7.99
								c0.37,2.29,1.67,4.13,1.76,4.26l0.39,0.54l1.48-1.68c0.24,3.66,3.01,4.45,3.04,4.45l0.46,0.12l0.17-0.45
								c0.2-0.52,4.82-12.69,5.36-15.19c0.58-2.73,0.8-16.86,0.27-31.66c-0.34-9.71,2.62-17.93,3.5-25.19
								c0.5-4.07,0.96-7.92,1.22-12.1C298.02,265.88,294.93,260.3,294.34,259.33z"/>
						</g>
					</g>
				</g>
			</g>
		</g>
	</g>
	<g>
		<g id="Inner_quads_00000060714215796229339310000011678859081004113842_">
			<g>
				<path class="st1" d="M199.52,394.32c-0.39-7.47-1.21-13.48-2.61-20.86c-1.03-5.42-3.02-11.32-5.18-16.36
					c-3.46,11.99-11.6,23.11-14.38,35.31c-1.51,6.65-1.64,14.04,1.85,20.2c3.23,5.69,11.63,12.83,18.12,7.73
					c0.49-3.98,2.05-21.59,2.33-24.61L199.52,394.32z"/>
				<path class="st2" d="M184.21,415.35c-1.15,0-2.32-0.16-3.52-0.49c-0.22-0.29-0.43-0.58-0.63-0.88c1.42,0.47,2.81,0.71,4.17,0.71
					c4.24,0,8.15-2.31,11.63-6.87c-0.03,0.38-0.06,0.76-0.1,1.14C192.28,413.2,188.41,415.35,184.21,415.35"/>
				<path class="st2" d="M187.69,419.03L187.69,419.03c-1.16,0-2.33-0.16-3.5-0.48c-0.41-0.34-0.81-0.71-1.19-1.08
					c1.58,0.62,3.17,0.93,4.74,0.93c1.87,0,3.72-0.43,5.55-1.29c-0.25,0.36-0.52,0.7-0.83,1.02
					C190.88,418.73,189.29,419.03,187.69,419.03 M197.5,415.02c0.02-0.25,0.05-0.5,0.07-0.75c0,0,0,0,0,0
					C197.54,414.52,197.52,414.77,197.5,415.02"/>
				<path class="st2" d="M176.61,398.3c0.03-0.3,0.06-0.59,0.09-0.89c11.28-8.78,13.77-23.51,15.45-38.76
					c0.17,0.42,0.35,0.83,0.52,1.25C190.96,375.01,188.3,389.55,176.61,398.3"/>
				<path class="st2" d="M176.5,402.47c-0.01-0.23-0.02-0.45-0.02-0.68c7.2-1.65,12.78-10.62,16.38-17.27
					c1.62-2.99,3.12-6.36,4.28-9.5l0.1,0.24c0.08,0.45,0.06,0.63,0.13,1.08c-1.99,5.18-4.61,10.18-7.6,14.33l-0.47,0.65
					C185.96,395.98,182.18,401.25,176.5,402.47"/>
				<path class="st2" d="M176.94,406.37c-0.04-0.22-0.08-0.43-0.12-0.65c12.55-0.6,19.39-17.33,21.31-22.86
					c0.06,0.5,0.11,0.99,0.17,1.49C196.01,390.46,189.1,405.72,176.94,406.37"/>
				<path class="st2" d="M178.1,410.31c-0.09-0.22-0.17-0.43-0.25-0.65c10.7-0.12,16.21-8.58,19.46-16.52
					c-0.12,0.8-0.23,1.59-0.34,2.39C193.6,402.83,188.1,410.08,178.1,410.31 M198.87,390.85c-0.04-0.53-0.08-1.06-0.12-1.59
					c0-0.01,0-0.01,0.01-0.01c0.04,0.53,0.08,1.07,0.12,1.6C198.87,390.84,198.87,390.84,198.87,390.85"/>
				<path class="st3" d="M192,421.91c-0.96,0-1.91-0.17-2.85-0.48c-0.77-0.25-1.52-0.59-2.25-1c1.86-0.03,3.67-0.54,5.09-1.84
					c0.16-0.15,0.32-0.31,0.47-0.47c1.7-0.65,3.49-1.72,5.14-3.06c-0.18,1.83-0.31,3.59-0.49,5.05
					C195.52,421.37,193.68,421.91,192,421.91 M193.29,417.11c1.59-2.28,2.18-5.23,2.47-8.14c0.89-1.09,1.91-2.59,2.75-3.95
					c-0.11,1.28-0.22,2.86-0.32,4.09c-0.16,1.82-0.3,3.37-0.45,5.01C196.32,415.33,194.73,416.43,193.29,417.11 M195.85,407.82
					c0.11-1.39,0.16-2.75,0.24-4c0.18-2.78,0.49-5.54,0.86-8.29c0.73-1.58,1.44-3.38,1.99-4.9c0.06,0.83,0.23,1.77,0.28,2.6
					c0.05,0.8,0.07,1.71,0.11,2.51c-0.14,1.54-0.27,3.18-0.39,4.7c-0.1,1.18-0.23,1.99-0.33,3.14
					C197.77,405.06,196.76,406.64,195.85,407.82 M197.3,393.14c0.36-2.4,0.83-5.13,1.23-7.53c0.11,1.1,0.22,2.3,0.31,3.4
					C198.41,390.27,197.84,391.82,197.3,393.14"/>
				<path class="st4" d="M195.76,408.96c0.04-0.38,0.07-0.76,0.1-1.14c0.9-1.18,1.9-2.72,2.74-4.2c-0.03,0.3-0.03,1.15-0.04,1.34
					C197.71,406.31,196.65,407.87,195.76,408.96"/>
				<path class="st4" d="M192.46,418.13c0.3-0.32,0.58-0.66,0.83-1.02c1.45-0.68,3-1.76,4.41-2.97c-0.02,0.25-0.05,0.88-0.06,0.92
					C195.99,416.4,194.16,417.48,192.46,418.13"/>
				<path class="st4" d="M196.96,395.53c0.11-0.8,0.22-1.6,0.34-2.39c0.54-1.32,1.1-2.87,1.53-4.13c0.04,0.53,0.11,1,0.15,1.53
					C198.43,392.06,197.69,393.95,196.96,395.53"/>
			</g>
			<g id="Inner_quads_00000098215498317472514820000007772200802408435379_">
				<path class="st1" d="M219.66,395.89c0.14,3.03,0.73,5.95,0.98,8.83c0.49,5.85,0.96,11.45,1.45,15.42
					c6.48,5.1,14.52-1.84,17.75-7.53c3.49-6.16,3.44-13.57,1.93-20.22c-2.78-12.21-12.11-27.89-14.44-35.32
					C223.55,362.81,219.09,383.4,219.66,395.89z"/>
				<path class="st2" d="M234.84,415.35c1.15,0,2.32-0.16,3.52-0.49c0.22-0.29,0.43-0.58,0.63-0.88c-1.42,0.47-2.81,0.71-4.17,0.71
					c-4.24,0-8.15-2.31-11.63-6.87c0.03,0.38,0.06,0.76,0.1,1.14C226.77,413.2,230.64,415.35,234.84,415.35"/>
				<path class="st2" d="M231.36,419.03c-1.6,0-3.2-0.3-4.77-0.9c-0.3-0.32-0.58-0.66-0.83-1.02c1.83,0.86,3.68,1.29,5.55,1.29
					c1.58,0,3.16-0.31,4.74-0.93c-0.38,0.37-0.78,0.74-1.19,1.08C233.69,418.87,232.52,419.03,231.36,419.03L231.36,419.03
					 M221.55,415.02c-0.02-0.25-0.05-0.5-0.07-0.75c0,0,0,0,0,0C221.5,414.52,221.53,414.77,221.55,415.02"/>
				<path class="st2" d="M242.59,398.41c-0.03-0.3-0.06-0.59-0.09-0.89c-11.28-8.78-14.03-23.59-15.71-38.84
					c-0.17,0.42-0.35,0.83-0.52,1.25c1.71,15.1,4.47,29.61,16.16,38.37"/>
				<path class="st2" d="M242.28,402.51c-5.68-1.22-9.19-6.52-12.54-11.18l-0.47-0.65c-2.99-4.15-5.52-8.88-7.51-14.06
					c0.07-0.45,0.15-0.9,0.23-1.35l0,0.01c1.16,3.14,2.57,6.25,4.19,9.24c3.6,6.65,9.4,15.67,16.59,17.32
					c0,0.23-0.08,0.51-0.09,0.73L242.28,402.51z"/>
				<path class="st2" d="M242.25,405.71c-12.55-0.6-19.42-17.32-21.34-22.86c-0.06,0.5-0.11,0.99-0.17,1.49
					c2.28,6.11,9.22,21.38,21.39,22.03C242.13,406.37,242.22,405.93,242.25,405.71z"/>
				<path class="st2" d="M240.95,410.31c-10-0.23-15.51-7.48-18.86-14.78c-0.11-0.8-0.22-1.6-0.34-2.39
					c3.24,7.95,8.76,16.4,19.46,16.52C241.12,409.88,241.04,410.1,240.95,410.31 M220.18,390.85c0,0,0-0.01,0-0.01
					c0.04-0.53,0.08-1.07,0.12-1.6c0,0,0,0.01,0.01,0.01C220.26,389.78,220.22,390.31,220.18,390.85"/>
				<path class="st3" d="M227.04,421.91c-1.68,0-3.36-0.53-4.95-1.77c-0.18-1.47-0.36-3.15-0.53-4.99c1.65,1.33,3.32,2.33,5.02,2.98
					c0.15,0.16,0.31,0.32,0.47,0.47c1.42,1.3,3.23,1.81,5.09,1.84c-0.73,0.41-1.49,0.75-2.25,1
					C228.96,421.74,228,421.91,227.04,421.91 M225.76,417.11c-1.45-0.68-2.88-1.63-4.28-2.83c-0.15-1.65-0.31-3.4-0.47-5.22
					c-0.11-1.23-0.21-2.5-0.32-3.77c0.84,1.37,1.71,2.59,2.6,3.68C223.58,411.88,224.17,414.83,225.76,417.11 M223.19,407.82
					c-0.9-1.18-1.78-2.52-2.62-4c-0.1-1.15-0.2-2.32-0.3-3.5c-0.13-1.52-0.26-3.06-0.4-4.6c0.04-0.8,0.09-1.59,0.14-2.39
					c0.05-0.83,0.11-1.66,0.17-2.49c0.55,1.52,1.18,3.1,1.91,4.69c0.37,2.75,0.68,5.51,0.86,8.29
					C223.03,405.07,223.09,406.43,223.19,407.82 M221.75,393.14c-0.54-1.32-1.02-2.63-1.44-3.89c0.09-1.1,0.18-2.2,0.29-3.3
					C220.99,388.35,221.39,390.74,221.75,393.14"/>
				<path class="st4" d="M223.29,408.96c-0.04-0.38-0.07-0.76-0.1-1.14c-0.9-1.18-1.78-2.52-2.62-4c0.03,0.3,0.05,0.6,0.08,0.9
					c0.02,0.19,0.03,0.38,0.05,0.56C221.53,406.65,222.4,407.87,223.29,408.96"/>
				<path class="st4" d="M226.59,418.13c-0.3-0.32-0.58-0.66-0.83-1.02c-1.45-0.68-2.88-1.63-4.28-2.83
					c0.02,0.25,0.05,0.5,0.07,0.75c0,0.05,0.01,0.09,0.01,0.14C223.21,416.49,224.89,417.48,226.59,418.13"/>
				<path class="st4" d="M222.09,395.53c-0.11-0.8-0.22-1.6-0.34-2.39c-0.54-1.32-1.02-2.63-1.44-3.89
					c-0.04,0.53-0.08,1.06-0.12,1.59C220.73,392.36,221.36,393.95,222.09,395.53"/>
			</g>
		</g>
		<g id="Front_00000088830469623827722710000012631698813768745144_">
			<path class="st5" d="M209.41,140.17c-0.88-0.07-1.76-0.26-2.58-0.56c-0.17-1.53-0.35-3.1-0.54-4.7c0.43,0.1,0.89,0.18,1.35,0.24
				c0.36,0.05,0.72,0.08,1.06,0.11h1.42c0.33-0.03,0.68-0.06,1.04-0.11c0.44-0.06,0.89-0.13,1.32-0.23
				c-0.19,1.61-0.37,3.17-0.54,4.71C211.13,139.91,210.27,140.1,209.41,140.17 M212.62,139.35c0.17-1.54,0.35-3.08,0.53-4.62
				c0.08-0.02,0.15-0.05,0.22-0.08c0.51-0.18,1.46-0.76,2.62-1.57c-0.13,1.6-0.38,3.17-0.7,4.73
				C214.46,138.41,213.56,138.94,212.62,139.35 M206.14,139.33c-0.94-0.42-1.84-0.95-2.69-1.56c-0.32-1.55-0.57-3.13-0.69-4.72
				c1.19,0.83,2.17,1.43,2.68,1.61c0.06,0.02,0.11,0.04,0.17,0.06C205.79,136.25,205.97,137.79,206.14,139.33 M216.11,137.22
				c0.28-1.52,0.49-3.06,0.58-4.62c1.49-1.07,3.23-2.42,4.84-3.76c-0.5,1.69-0.99,3.25-1.48,4.71c-0.49,0.55-1,1.08-1.54,1.58
				C217.76,135.84,216.96,136.56,216.11,137.22 M202.65,137.17c-0.83-0.65-1.61-1.34-2.34-2.04c-0.53-0.51-1.05-1.04-1.54-1.58
				c-0.49-1.46-0.98-3.02-1.48-4.71c1.59,1.32,3.31,2.66,4.78,3.72C202.16,134.11,202.37,135.65,202.65,137.17"/>
			<path class="st6" d="M203.45,137.77c-0.27-0.19-0.54-0.39-0.8-0.6c-0.28-1.52-0.49-3.06-0.58-4.61c0.24,0.17,0.47,0.33,0.69,0.49
				C202.88,134.64,203.13,136.21,203.45,137.77"/>
			<path class="st6" d="M206.83,139.61c-0.12-0.04-0.23-0.09-0.35-0.13c-0.12-0.05-0.23-0.1-0.34-0.15
				c-0.17-1.53-0.35-3.07-0.53-4.61c0.21,0.07,0.44,0.13,0.68,0.19C206.48,136.51,206.66,138.07,206.83,139.61"/>
			<path class="st6" d="M215.3,137.81c0.32-1.55,0.57-3.13,0.7-4.73c0.22-0.15,0.45-0.32,0.69-0.49c-0.09,1.56-0.3,3.1-0.58,4.62
				C215.84,137.42,215.58,137.62,215.3,137.81"/>
			<path class="st6" d="M211.93,139.63c0.17-1.54,0.35-3.1,0.54-4.71c0.23-0.05,0.46-0.11,0.68-0.18c-0.18,1.54-0.36,3.08-0.53,4.62
				c-0.1,0.04-0.19,0.08-0.29,0.12C212.2,139.53,212.07,139.58,211.93,139.63"/>
			<path class="st7" d="M207.68,170.44c-0.11-0.21-0.23-0.41-0.35-0.61c-0.06-0.09-0.12-0.18-0.18-0.27
				c0.5-7.83-0.1-15.09-1.8-21.59c-0.25-0.96-0.51-1.91-0.77-2.86c-0.71-2.59-1.43-5.24-1.93-7.94c0.26,0.21,0.53,0.41,0.8,0.6
				c0.43,2.11,1,4.19,1.55,6.23c0.69,2.54,1.4,5.16,1.86,7.82c1.06,6.18,1.35,12.21,0.91,18.43
				C207.76,170.32,207.73,170.39,207.68,170.44"/>
			<path class="st7" d="M208.82,174.71c-0.08-0.8-0.2-1.58-0.4-2.32c0.51-5.34-0.03-10.78-0.55-16.06c-0.09-0.87-0.17-1.74-0.25-2.6
				c-0.44-4.72-0.94-9.55-1.48-14.41c0.11,0.05,0.23,0.1,0.34,0.15c0.12,0.05,0.23,0.09,0.35,0.13c0.65,5.8,1.19,11.11,1.63,16.13
				c0.06,0.69,0.12,1.39,0.19,2.08C209.15,163.36,209.67,169.08,208.82,174.71"/>
			<path class="st7" d="M211.72,169.7c-0.51-7.86-0.01-15.21,1.69-21.73c0.25-0.96,0.51-1.91,0.77-2.86
				c0.71-2.57,1.42-5.2,1.92-7.89c-0.26,0.2-0.53,0.4-0.8,0.59c-0.43,2.1-0.99,4.16-1.54,6.18c-0.69,2.54-1.4,5.16-1.86,7.82
				c-1.06,6.18-1.21,12.78-0.77,19.01L211.72,169.7z"/>
			<path class="st7" d="M210.11,174.36c-0.9-5.71-0.5-10.93,0.02-16.55c0.06-0.69,0.13-1.38,0.19-2.07
				c0.44-5.02,0.98-10.33,1.63-16.11c0.14-0.05,0.27-0.1,0.4-0.15c0.1-0.04,0.19-0.08,0.29-0.12c-0.54,4.85-1.04,9.67-1.48,14.38
				c-0.08,0.86-0.17,1.73-0.25,2.6c-0.53,5.33-0.98,11.1-0.45,16.49c-0.19,0.76-0.02,0.6-0.09,1.43L210.11,174.36z"/>
			<g>
				<path class="st5" d="M240.63,446.38c0.45,0,0.89-0.03,1.34-0.11c2.28-0.38,3.97-1.68,5.44-3.27c-0.01,0-0.02,0-0.02,0
					l-0.21,0.01c-3.05,0-13.42-8.44-15.74-11.03c0,0,13.5,9.97,15.7,9.97c0.03,0,0.06,0,0.08-0.01c1.83-0.28,7.08-8.89,7.19-9.07h0
					c0,0-0.08,0.14-0.23,0.38c-1.74,1.9-4.23,3.19-6.81,3.19c-0.14,0-0.27,0-0.41-0.01c-2.83-0.15-5.59-2.09-6.29-4.8
					c-0.52-2.03,0.11-4.21,1.23-5.98c1.12-1.77,2.7-3.21,4.26-4.63c-3.25,1.08-4.77,1.77-6.5,2.96c-1.26,0.87-5.24,2.73-8.16,2.73
					c-1.1,0-2.05-0.26-2.64-0.94c-0.6-0.69-1.2-1.36-1.68-2.14c-0.26-0.43-0.53-0.86-0.79-1.29c-0.4-0.02-0.8-0.07-1.2-0.15
					c-1.03-0.19-2.03-0.56-2.98-1.17c0.13,0.95,0.25,1.79,0.38,2.5c0.82,4.47,2.88,8.8,4.94,12.8c0.34,0.65,0.67,1.33,1.01,2.01
					c0.92,1.81,1.92,3.66,3.2,5.14l0.1,0.11c0.8,0.35,1.58,0.68,2.31,1C236.21,445.53,238.41,446.38,240.63,446.38"/>
				<path class="st5" d="M178.41,446.38c-0.45,0-0.89-0.03-1.34-0.11c-2.28-0.38-3.97-1.68-5.44-3.27c0.01,0,0.02,0,0.02,0
					l0.21,0.01c3.05,0,13.42-8.44,15.74-11.03c0,0-13.5,9.97-15.7,9.97c-0.03,0-0.06,0-0.08-0.01c-1.83-0.28-7.08-8.89-7.19-9.07h0
					c0,0,0.08,0.14,0.23,0.38c1.74,1.9,4.23,3.19,6.81,3.19c0.14,0,0.27,0,0.41-0.01c2.83-0.15,5.59-2.09,6.29-4.8
					c0.52-2.03-0.11-4.21-1.23-5.98c-1.12-1.77-2.7-3.21-4.26-4.63c3.25,1.08,4.77,1.77,6.5,2.96c1.26,0.87,5.24,2.73,8.16,2.73
					c1.1,0,2.05-0.26,2.64-0.94c0.6-0.69,1.2-1.36,1.68-2.14c0.26-0.43,0.53-0.86,0.79-1.29c0.4-0.02,0.8-0.07,1.2-0.15
					c1.03-0.19,2.03-0.56,2.98-1.17c-0.13,0.95-0.25,1.79-0.38,2.5c-0.82,4.47-2.88,8.8-4.94,12.8c-0.34,0.65-0.67,1.33-1.01,2.01
					c-0.92,1.81-1.92,3.66-3.2,5.14l-0.1,0.11c-0.8,0.35-1.58,0.68-2.31,1C182.84,445.53,180.63,446.38,178.41,446.38"/>
				<g>
					<g>
						<path d="M203.16,239.82c-3.31,0.51-6.32,1.66-9.47,2.74c-8.43,2.91-5.44-7.96-3.13-11.69c2.68-4.31,8.09-6.78,12.99-7.68
							c5.85-1.08,4.52,5.83,4.43,8.44C207.86,235.15,208.16,239.17,203.16,239.82 M208.62,231.68c0.07-1.93,0.19-3.84,0.04-5.76
							c-0.52-6.73-10.94-1.76-13.71-0.09c-5.34,3.22-8.2,9.5-7.45,15.53c0.15,1.23,1.13,2.85,2.64,2.68
							c4.53-0.51,8.62-2.91,13.14-3.61c2.36-0.3,3.81-0.73,4.89-2.83C208.97,236.05,208.56,233.35,208.62,231.68"/>
						<path d="M215.49,239.82c-5.07-0.66-4.77-4.68-4.9-8.2c-0.1-2.61-1.46-9.52,4.46-8.43c4.96,0.91,10.45,3.4,13.17,7.71
							c2.35,3.73,5.41,14.6-3.14,11.68C221.9,241.49,218.85,240.34,215.49,239.82 M209.94,231.68c0.06,1.67-0.34,4.37,0.47,5.92
							c1.1,2.1,2.57,2.53,4.96,2.84c4.59,0.71,8.73,3.12,13.32,3.64c1.53,0.17,2.51-1.45,2.66-2.68c0.74-6.04-2.17-12.31-7.59-15.55
							c-2.81-1.68-13.37-6.67-13.88,0.06C209.74,227.84,209.87,229.75,209.94,231.68"/>
						<path d="M201.52,220.26c-2.79,1.66-12.7,8.13-13.44,1.48c-0.63-5.75,1.06-9.82,6.37-12.41c3.24-1.58,8.39-4.61,11.96-4.01
							c2.45,1.44,1.47,6.17,1.06,8.32C206.86,216.92,204.19,218.67,201.52,220.26 M206.82,204.73c-0.76-0.32-1.74-0.2-2.51-0.08
							c-1.32,0.2-2.57,0.71-3.78,1.25c-0.32,0.14-0.64,0.29-0.96,0.44c-2.77,1.29-6.17,2.21-8.56,4.18
							c-2.45,2.01-3.41,4.24-3.72,7.36c-0.16,1.59-0.5,6.77,1,8.04c1.78,1.5,3.91-0.22,5.68-1.06c3.67-1.74,8.54-3.46,11.47-6.36
							c2.3-2.28,3.63-6.2,3.53-9.4c-0.04-1.45-0.54-3.38-1.84-4.21L206.82,204.73"/>
						<path d="M216.74,220.29c-2.67-1.59-5.34-3.33-5.96-6.63c-0.4-2.15-1.39-6.89,1.06-8.32c3.57-0.6,8.73,2.43,11.96,4.01
							c5.31,2.6,7,6.67,6.37,12.41C229.45,228.41,219.53,221.94,216.74,220.29 M211.44,204.76l-0.3,0.16
							c-1.3,0.83-1.79,2.76-1.84,4.21c-0.1,3.19,1.23,7.12,3.53,9.4c2.93,2.9,7.8,4.62,11.47,6.36c1.78,0.84,3.91,2.57,5.68,1.06
							c1.5-1.27,1.16-6.45,1-8.04c-0.31-3.12-1.27-5.34-3.72-7.36c-2.39-1.97-5.79-2.89-8.56-4.18c-0.32-0.15-0.64-0.3-0.96-0.44
							c-1.21-0.55-2.46-1.06-3.78-1.25C213.18,204.56,212.2,204.44,211.44,204.76"/>
						<g>
							<path d="M171.78,443.02l-0.21-0.01c-0.01,0-0.02,0-0.02,0c0,0-0.01-0.01-0.01-0.01c-2.65-0.47-7.53-8.92-7.53-10.11h0.53
								c0.11,0.18,5.36,8.79,7.19,9.07c0.03,0,0.05,0.01,0.08,0.01c2.2,0,15.7-9.97,15.7-9.97
								C185.19,434.58,174.83,443.02,171.78,443.02"/>
							<path d="M247.1,443.02l0.21-0.01c0.01,0,0.02,0,0.02,0c0,0,0.01-0.01,0.01-0.01c2.65-0.47,7.53-8.92,7.53-10.11h-0.53
								c-0.11,0.18-5.36,8.79-7.19,9.07c-0.03,0-0.05,0.01-0.08,0.01c-2.2,0-15.7-9.97-15.7-9.97
								C233.68,434.58,244.05,443.02,247.1,443.02"/>
							<path d="M294.34,259.33v-8.55c0-6.18-3.43-12.77-5.56-16.28c2.11-7.06,2.14-23.97,0.99-31.82c-0.7-4.77-4.02-8.66-5.66-11.15
								c0.03-0.19,0.06-0.38,0.1-0.58c0.9-5.76-3.01-19.91-5.36-25.87c-1.56-3.96-4.82-5.46-7.43-6.66
								c-1.41-0.65-2.64-1.21-3.33-2.02c-1.76-2.06-3.52-2.62-5.07-3.12c-0.41-0.13-0.8-0.26-1.18-0.41
								c-0.59-0.24-1.12-0.72-1.92-1.44c-1.36-1.23-3.41-3.09-7.79-5.63c-2.41-1.4-5.79-3.02-9.38-4.74
								c-5.87-2.81-12.73-6.06-14.37-8.07c-1.49-1.84-1.65-7.66-1.67-9.58c0.71-1.8,0.79-4.65,0.76-6.29
								c0.3,0.14,0.66,0.21,1.09,0.16c1.46-0.18,2.84-2.46,4.48-5.42c0.46-0.83,0.9-1.62,1.23-2.09c1.42-2.03,1.11-6.42,0.07-9.71
								c-0.3-0.96-0.82-1.51-1.53-1.65c-0.98-0.18-2.05,0.56-2.81,1.27c0.15-4.1,0.09-15.63-4.64-21.31
								c-4.08-4.89-12.23-6.11-15.32-6.4l-1.22,0c-3.09,0.29-11.24,1.51-15.32,6.4c-4.73,5.68-4.79,17.21-4.64,21.31
								c-0.76-0.7-1.84-1.44-2.81-1.27c-0.71,0.13-1.23,0.69-1.53,1.65c-1.04,3.29-1.35,7.68,0.07,9.71
								c0.33,0.48,0.77,1.26,1.23,2.09c1.64,2.96,3.01,5.24,4.48,5.42c0.43,0.05,0.79-0.02,1.09-0.16c-0.03,1.82,0.07,5.09,1,6.82
								c0,0,0,0.01,0.01,0.01c-0.04,1.35-0.33,7.14-1.9,9.09c-1.63,2.02-8.29,5.21-14.16,8.02c-3.59,1.72-6.97,3.34-9.38,4.74
								c-4.38,2.54-6.43,4.4-7.79,5.63c-0.8,0.73-1.33,1.2-1.92,1.44c-0.38,0.15-0.77,0.28-1.18,0.41c-1.55,0.5-3.31,1.06-5.07,3.12
								c-0.69,0.8-1.91,1.37-3.33,2.02c-2.62,1.2-5.87,2.7-7.43,6.66c-2.35,5.97-6.26,20.11-5.36,25.87
								c0.06,0.41,0.13,0.82,0.21,1.22c-1.66,2.47-4.64,6.08-5.32,10.72c-1.14,7.8-1.27,24.06,0.8,31.18
								c-2.1,3.38-5.82,10.26-5.82,16.7v8.55c-0.59,0.96-3.68,6.54-3.02,17.43c0.25,4.17,0.72,8.02,1.22,12.1
								c0.88,7.26,3.84,15.48,3.5,25.19c-0.52,14.81-0.31,28.93,0.27,31.66c0.54,2.5,5.16,14.67,5.36,15.19l0.17,0.45l0.46-0.12
								c0.03-0.01,2.8-0.8,3.04-4.45l1.48,1.68l0.39-0.54c0.09-0.12,1.39-1.97,1.76-4.26c0.82-1.39,2.53-4.96,0.55-7.99
								c-2.26-3.45-5.99-10.56-6.02-10.64l0,0c-0.01-0.24-0.03-0.44-0.06-0.59c0.55-4.23,0-5.77,1.57-6.36
								c0.13-0.05,0.2-0.03,0.28,0.02c1.14,0.74,1.41,2.7,1.69,4.79c0.26,1.95,0.54,3.97,1.53,5.54c1.17,1.84,2.96,4.22,5.06,2.48
								c1.38-1.15,0.17-9.02-0.16-11.35c-0.42-2.91-0.42-3.73-1.57-8.35c-0.73-2.94-1.17-4.47-1.37-5.82
								c-0.1-1.12,0.19-5.79,0.62-9.2c0.49-3.92,2.91-10.33,5.47-17.11c2.93-7.75,5.96-15.77,6.15-20.42
								c0.3-7.21-0.65-10.78-0.99-11.82c0.61-0.73,2.3-2.98,2.76-5.89c0.54-3.39,0.37-9.27,0.35-9.41
								c0.02-0.1,1.79-10.26,4.73-14.92c2.23-3.54,5.51-10.46,6.9-14.08c0.51,3.58,1.07,6.79,1.65,8.5
								c0.72,2.17,1.65,4.59,2.54,6.92c1.27,3.33,2.47,6.47,2.78,8.12c0.44,2.33,0.13,19.45,0.03,25.07c-0.02,1.2-0.04,2-0.04,2.2
								c0,0.01,0,0.01-0.01,0.02c-0.11,0.11-0.19,0.3-0.22,0.5c-0.22,0.41-0.58,0.97-0.91,1.49c-1.77,2.79-4.73,7.46-4.16,12.07
								c0.64,5.13,1.42,7.28,1.7,7.93c-0.58,1.85-4.88,15.9-4.22,26.04c0.23,3.54-1.16,9.05-2.92,16.03
								c-2.27,9-6.55,29.73-7.51,42.66c-1.41,19.13,4.08,41.01,5.59,52.84c0.32,2.53,0.54,4.2,0.57,4.71
								c0.07,1.25-0.04,2.11-0.17,3.11c-0.18,1.36-0.39,2.89-0.18,5.79c0.02,0.29,0.07,0.61,0.14,0.95
								c-0.74,1.66-7.25,16.62-7.42,26.38c-0.08,4.77,1.44,15.35,3.06,26.55c1.46,10.14,2.86,20.62,3.3,27.1l0.01,0.17
								c0.04,0.54,0.07,1.06,0.09,1.54c0.07,3.47-0.26,10.38-0.49,11.05c-0.52,1.59-1,3.09-0.97,5.43
								c-0.14,0.14-0.28,0.27-0.42,0.39c-1.92,1.64-2.69,3.84-3.44,5.98c-0.25,0.7-0.48,1.36-0.75,1.99
								c-1.03,2.42-10.2,9.98-11.47,10.77c-0.99,0.62-3.49,4.28-3.49,4.28c-0.94,1-0.65,2.65-0.46,3.75
								c0.03,0.19,0.07,0.37,0.09,0.53c0.08,0.58,0.26,0.98,0.4,1.31c0.13,0.28,0.22,0.49,0.22,0.74c0.01,0.34-0.05,0.75-0.1,1.14
								c-0.05,0.35-0.1,0.72-0.11,1.06c-0.01,0.61,0.02,2.08,0.61,2.57c0.34,0.28,0.66,0.48,1.13,0.56
								c-0.05,0.15-0.12,0.35-0.2,0.59c-0.37,1.08,0.45,2.19,1.05,2.63c0.43,0.32,1.11,0.35,1.58,0.32c0,0.09,0.02,0.15,0.03,0.2
								c0.07,0.77,0.33,1.82,1.31,2.29c1,0.47,1.5,0.36,2.09,0.08c1.14,1.58,3.46,2.54,5.55,2.34c0.27-0.03,0.54-0.07,0.8-0.14
								c2.15-0.55,4.84-2.4,5.84-4.89c0.8-1.99,1.97-2.65,3.01-3.1c4.29-1.35,6.63-6.13,7.25-10.56c0.55-3.91,3.06-8.18,3.71-9.05
								c2.99-1.26,4.77-2.84,6.3-5.09c1.61-2.36,1.67-3.87,1.22-5.83c-0.43-1.86-1.59-10.63-2-11.99c-0.35-1.19-0.51-2.41-0.79-3.89
								c-0.87-4.63,4.87-28.49,6.56-33.14c0.65-1.78,1.57-3.72,2.65-5.98c1.82-3.82,4.08-8.56,5.89-14.58
								c2.74-9.1-1.59-29.22-2.11-31.6c1.59-2.79,3-5.68,4.23-8.63c0.98-2.36,1.9-4.81,2.37-7.33c0.68-3.72,1.28-10.77,1.96-18.92
								c0.61-7.21,1.29-15.37,2.13-21.89c1.03-8.05,3.16-17.13,4.88-24.43c1.17-5,2.18-9.31,2.51-11.91
								c0.62-4.86,0.01-9.71-0.34-11.83c0.37,0.04,1.48,0.05,1.76,0c-0.34,2.12-0.96,6.97-0.34,11.83c0.33,2.6,1.34,6.92,2.51,11.91
								c1.71,7.3,3.84,16.39,4.88,24.43c0.84,6.52,1.53,14.69,2.13,21.89c0.68,8.16,1.28,15.2,1.96,18.92
								c0.46,2.52,1.39,4.97,2.37,7.33c1.23,2.95,2.64,5.84,4.23,8.63c-0.53,2.38-4.85,22.5-2.11,31.6
								c1.81,6.01,4.08,10.76,5.89,14.58c1.07,2.25,2,4.2,2.65,5.98c1.69,4.65,7.42,28.51,6.56,33.14c-0.28,1.49-0.44,2.7-0.8,3.89
								c-0.4,1.36-1.57,10.13-2,11.99c-0.45,1.96-0.39,3.46,1.22,5.83c1.53,2.25,3.31,3.84,6.3,5.09c0.65,0.87,3.16,5.14,3.71,9.05
								c0.62,4.43,2.96,9.21,7.25,10.56c1.04,0.45,2.21,1.11,3.01,3.1c1,2.48,3.69,4.34,5.84,4.89c0.26,0.07,0.53,0.11,0.8,0.14
								c2.09,0.2,4.41-0.76,5.55-2.34c0.58,0.28,1.09,0.39,2.09-0.08c1.07-0.51,1.28-1.72,1.33-2.49c0.47,0.03,1.16,0,1.59-0.32
								c0.6-0.44,1.41-1.55,1.05-2.63c-0.08-0.22-0.14-0.41-0.19-0.56l0,0c0-0.01-0.01-0.02-0.01-0.04
								c0.47-0.09,0.79-0.28,1.13-0.56c0.59-0.49,0.63-1.96,0.61-2.57c-0.01-0.34-0.06-0.7-0.11-1.06c-0.05-0.39-0.11-0.8-0.1-1.14
								c0-0.25,0.09-0.46,0.22-0.74c0.14-0.32,0.32-0.72,0.4-1.31c0.02-0.16,0.05-0.34,0.09-0.53c0.19-1.09,0.48-2.74-0.46-3.75
								c0,0-2.5-3.67-3.49-4.28c-1.26-0.79-10.43-8.35-11.47-10.77c-0.27-0.63-0.5-1.29-0.75-1.99c-0.75-2.13-1.53-4.34-3.45-5.98
								c-0.14-0.12-0.28-0.25-0.42-0.39c0.04-2.33-0.45-3.84-0.97-5.43c-0.22-0.68-0.56-7.59-0.49-11.05c0.02-0.48,0.05-1,0.09-1.54
								c0.01-0.06,0.02-0.12,0.03-0.17l-0.02,0c0.44-6.47,1.84-16.96,3.3-27.1c1.62-11.2,3.14-21.78,3.06-26.55
								c-0.17-9.7-6.6-24.51-7.41-26.34c0.09-0.41,0.15-0.79,0.17-1.14c0.21-2.89,0-4.43-0.18-5.79c-0.13-1-0.25-1.86-0.18-3.11
								c0.03-0.51,0.24-2.18,0.57-4.71c1.51-11.83,7-33.71,5.59-52.84c-0.95-12.93-5.24-33.66-7.51-42.66
								c-1.76-6.98-3.15-12.5-2.92-16.03c0.66-10.13-3.63-24.19-4.22-26.04c0.28-0.64,1.06-2.79,1.7-7.93
								c0.57-4.61-2.39-9.27-4.16-12.07c-0.52-0.82-1.11-1.75-1.14-2.01c0-0.2-0.01-0.99-0.04-2.2c-0.1-5.63-0.41-22.74,0.03-25.07
								c0.31-1.64,1.51-4.79,2.78-8.12c0.89-2.33,1.81-4.75,2.54-6.92c0.55-1.66,1.08-4.74,1.57-8.18c0-0.01,0-0.01,0-0.02
								c1.42,3.54,4.61,10.03,6.67,13.68c3.63,6.43,4.88,16.93,5.08,24.33c0.08,2.95,2.15,5.16,2.76,5.89
								c-0.34,1.04-1.29,4.61-0.99,11.82c0.19,4.65,3.22,12.66,6.15,20.42c2.57,6.79,4.99,13.2,5.47,17.11
								c0.35,2.83,0.7,4.65,0.72,6.05c0.02,1.33,0.01,2.68-0.12,4.02c-0.12,1.24-0.64,2.7-1.27,5.21c-1.15,4.62-1.15,5.44-1.57,8.35
								c-0.33,2.33-1.54,10.2-0.16,11.35c2.09,1.74,3.89-0.64,5.06-2.48c0.99-1.57,1.27-3.59,1.53-5.54
								c0.28-2.08,0.55-4.05,1.69-4.79c0.08-0.05,0.15-0.07,0.28-0.02c1.58,0.59,1.02,2.13,1.57,6.36
								c-0.03,0.15-0.05,0.35-0.06,0.59l0,0c-0.04,0.07-3.77,7.19-6.02,10.64c-1.99,3.03-0.28,6.6,0.55,7.99
								c0.37,2.29,1.67,4.13,1.76,4.26l0.39,0.54l1.48-1.68c0.24,3.66,3.01,4.45,3.04,4.45l0.47,0.12l0.17-0.45
								c0.2-0.52,4.82-12.69,5.36-15.19c0.58-2.73,0.8-16.86,0.27-31.66c-0.34-9.71,2.62-17.93,3.5-25.19
								c0.5-4.07,0.96-7.92,1.22-12.1C298.02,265.87,294.93,260.29,294.34,259.33z M288.91,202.22c1.32,7.68,1.08,24.22-0.83,31.17
								c-0.4-0.63-0.71-1.07-0.86-1.28c-0.09-1.6-0.78-13.74-1.96-19.48c-1.11-5.41-3.1-10.6-3.51-11.64
								c0.28-0.81,1.35-4.08,2.14-8.26C284.68,193.67,288.36,199.02,288.91,202.22z M234.02,261.1c0.01-1.23,0.08-2.45,0.19-3.67
								c0.28,0.08,0.61,0.08,1.01-0.03c2.66-0.73,5.01-5.22,6.12-7.38c1.27-2.47,2.24-5,2.85-7.63c-0.02,4.35,0.05,10.09,0.14,15.34
								c-1.76,3-4.15,5.7-7.14,7.52c-0.45,0.28-1.08,0.57-1.61,0.64c-1.06,0.14-1.59-1.23-1.48-2.1
								C234.06,262.91,234.01,262,234.02,261.1z M244.28,237.11c-0.25,6.05-2.43,11.89-6.1,16.71c-0.92,1.21-1.99,2.71-3.75,1.92
								c-0.93-0.42-0.86-1.48-0.73-2.32c0.19-1.3,0.32-2.62,0.56-3.91c0.12-0.65,0.29-1.29,0.5-1.92c0.03-0.09,0.17-0.55,0.32-0.97
								c0.53,0.15,1.26-0.06,2.27-0.79c3.02-2.16,4.67-5.57,5.51-9.25c0.62-0.54,1.21-1.11,1.77-1.72c-0.08,0.31-0.15,0.6-0.2,0.86
								C244.38,235.97,244.28,237.06,244.28,237.11z M239.83,242.45c-0.51,0.71-1.02,1.37-1.67,1.95c-0.77,0.68-1.72,1.83-2.87,1.22
								c-1.04-0.56-0.7-2.34-0.61-3.28c0.16-1.65,0.38-3.29,0.56-4.93c2.75-2.46,5-5.62,6.56-9.1c0.4-0.11,0.8-0.24,1.18-0.38
								C243.1,232.49,242.6,238.63,239.83,242.45z M239.34,231.65c-1.13,1.69-4.05,7.04-4.71,2.76c-0.42-2.74-1.59-6.85,0.56-9.26
								c0.72-0.14,1.25-1.02,1.75-1.48c0.58-0.52,1.15-1.06,1.7-1.61c0.2-0.2,0.39-0.41,0.59-0.62c1.44-0.13,2.82-0.42,4.14-0.87
								C242.89,224.57,241.5,228.41,239.34,231.65z M234.33,223.04c-0.47-1.24-1.01-2.49-1-3.85c0.03-3.63,2.92-6.47,6.13-8.07
								c1.85,0.65,3.77,1.1,5.75,1.33c-1.42,2.5-3.05,4.9-4.99,7.06c-0.71,0.79-1.58,1.46-2.37,2.17c-0.5,0.45-1,0.91-1.48,1.39
								c-0.32,0.32-0.81,0.83-1.29,0.9C234.5,224.05,234.51,223.51,234.33,223.04z M239.94,220.71c0.63-0.68,1.25-1.38,1.83-2.1
								c1.55-1.91,2.93-3.95,4.14-6.08c0.9,0.08,1.84,0.14,2.77,0.14c0.23,1.15,0.34,2.51,0.37,3.9l-0.02,0.01
								C246.44,218.87,243.35,220.27,239.94,220.71z M237.13,209.45c0.23-0.01,0.45-0.01,0.69-0.02c2.88-0.14,5.83-1.69,8.47-3.68
								c1.03,2.02,1.76,4.11,2.24,6.27l0,0C244.51,212.01,240.67,211.14,237.13,209.45z M241.24,207.78
								c-6.76,2.9-19.05-0.21-24.45-5.61c-4.18-4.18-4.91-10.88-5.47-16.52c-0.37-3.73-1.89-11.16,0.31-14.57
								c4.33-6.71,9.7-7.59,17.42-8.02c15.49-0.87,16.56,3.96,21.81,9c1.77,1.7,2.88,3.51,4.13,5.29c3.83,5.46,4.83,10.57,4.38,11.1
								C255.09,195.44,248.98,204.46,241.24,207.78z M221.08,148.48c0.79-2,1.47-3.7,1.92-4.78c0.72-1.74,1.32-4.13,1.81-6.54
								c5.66,5.08,6.73,15.18,13.68,18.77c1.14,0.59,2.31,0.98,3.48,1.2c-1.75,0.76-3.79,1.57-5.97,2.28
								C229.03,159.21,223.32,155.01,221.08,148.48z M234.29,159.94c-6.1,1.75-12.91,2.43-17.27-1.1c1.21-3.1,2.55-6.53,3.7-9.46
								C223.01,155.26,228.07,159.17,234.29,159.94z M222.5,143.5c-1.84,4.45-7.59,19.26-9.07,23.09
								c-0.39-2.54-1.26-9.59,0.15-14.38c0.71-2.4,1.69-4.8,2.84-7.58c1.67-4.07,3.75-9.11,5.85-16.4c1.37-1.18,2.58-2.31,3.38-3.2
								c0.03,0.59,0.09,1.34,0.18,2.15C225.49,130.41,224.12,139.6,222.5,143.5z M259.97,188.68l0.02-0.03
								c3.86,7.41,10.27,12.74,18.19,15.18c7.17,15.22,4.69,34.61-1.23,50.29c-3.03-3.05-6.03-6.74-8.24-10.34
								c-2.83-4.63-4.57-9.89-6.4-14.98c-3.74-10.37-6.84-21.06-7.44-32.03C256.71,194.17,258.29,191.44,259.97,188.68z
								 M277.72,254.09c6.19-14.43,8.58-34.93,1.44-50.32c0.55-0.74,1.11-1.49,1.66-2.23c0.5,1.29,2.34,6.2,3.4,11.31
								c1.06,5.14,1.72,15.85,1.88,18.71c0,0.46,0.02,0.8,0.06,1.05c0.56,8.25-4.06,14.55-8.17,21.59c-0.12,0.21-0.24,0.4-0.35,0.6
								c-0.05-0.04-0.09-0.09-0.14-0.14C277.58,254.5,277.65,254.25,277.72,254.09z M268.43,158.08c0.74,0.48,1.62,0.89,2.53,1.31
								c2.57,1.18,5.48,2.52,6.88,6.09c2.31,5.87,6.17,19.74,5.3,25.32c-0.74,4.73-1.99,8.63-2.36,9.72
								c-2.06,2.61-3.34,2.81-6.67,1.13c-2.29-1.15-4.52-2.46-6.45-4.19c-3.27-2.92-5.83-6.3-7.72-10.3
								c-0.01-0.02-0.02-0.03-0.04-0.05c-0.67-5.46-5.34-12.89-10.79-18.12c-0.24-0.53-0.45-1.07-0.61-1.62
								c-1.77-6.05,3.21-7.27,7.96-6.97C260,160.62,266.49,162.08,268.43,158.08z M262.68,154.29c1.48,0.48,3.02,0.97,4.59,2.8
								c0.18,0.22,0.4,0.41,0.63,0.6c-2.65,6.24-15.31-1.14-19.65,4.39c-1.28,1.63-1.23,3.63-0.51,5.66
								c-3.39-2.94-7.1-5.33-10.14-5.42c-15.43-0.46-20.56,1.49-23.79,4.79c0.47-1.21,1.61-4.17,2.96-7.63
								c6.94,5.37,19.41,0.97,26.39-2.16c6.13,0.64,12.56-2.61,18.6-3.33C262.06,154.09,262.37,154.19,262.68,154.29z
								 M227.75,133.71c1.78,2.2,8.26,5.31,14.53,8.31c3.57,1.71,6.93,3.32,9.3,4.7c4.28,2.48,6.28,4.3,7.61,5.5
								c0.56,0.51,1.01,0.91,1.48,1.22c-8.96,1.37-19.79,7.54-26.12-2.35c-3.1-4.85-5.2-10.79-9.59-14.71
								c0.55-2.88,0.94-5.69,1.14-7.32C226.41,130.87,226.92,132.69,227.75,133.71z M191.47,115.61c-0.01,0.03-0.38,0.69-1.06,0.6
								c-1.04-0.13-2.69-3.1-3.67-4.88c-0.49-0.89-0.92-1.66-1.29-2.19c-1.06-1.52-1.03-5.29,0.07-8.78
								c0.18-0.55,0.41-0.86,0.71-0.92c0.76-0.14,2.09,1.07,2.81,1.98l1.08,1.36l-0.13-1.73c-0.01-0.15-1.1-15.51,4.32-22.02
								c4.02-4.83,12.69-5.86,15.11-6.06c2.42,0.2,11.09,1.23,15.11,6.06c5.42,6.5,4.33,21.86,4.32,22.02l-0.13,1.73l1.08-1.36
								c0.72-0.9,2.05-2.12,2.81-1.98c0.29,0.05,0.53,0.36,0.71,0.92c1.1,3.49,1.13,7.26,0.07,8.78c-0.37,0.52-0.79,1.29-1.29,2.19
								c-0.98,1.78-2.63,4.75-3.67,4.88c-0.68,0.08-1.05-0.57-1.06-0.6l-1.17-2.24l0.16,2.52c0,0.05,0.33,5.38-0.83,7.53
								c-1.18,2.19-10.68,9.58-12.51,10.24c-1.03,0.37-2.5,0.51-3.6,0.56c-1.11-0.05-2.58-0.19-3.6-0.56
								c-1.83-0.67-11.33-8.05-12.51-10.24c-1.16-2.15-0.83-7.48-0.83-7.53l0.16-2.52L191.47,115.61z M183.25,266.16
								c-0.53-0.07-1.16-0.35-1.61-0.64c-2.77-1.69-5.01-4.12-6.73-6.85c0.08-4.8,0.15-10.09,0.16-14.4
								c0.6,2.05,1.41,4.05,2.42,6.01c1.11,2.16,3.46,6.64,6.12,7.38c0.4,0.11,0.74,0.11,1.01,0.03c0.11,1.22,0.18,2.44,0.19,3.66
								c0.01,0.9-0.04,1.8-0.09,2.7C184.84,264.93,184.31,266.29,183.25,266.16z M184.41,255.99c-1.76,0.79-2.82-0.71-3.75-1.92
								c-2.8-3.68-4.73-7.95-5.6-12.46c-0.02-2.86-0.09-4.99-0.24-5.75c-0.01-0.04-0.02-0.09-0.03-0.14
								c0.38,0.38,0.77,0.75,1.18,1.1c0.84,3.68,2.49,7.09,5.51,9.25c1.01,0.72,1.75,0.94,2.28,0.79c0.15,0.42,0.29,0.87,0.32,0.97
								c0.21,0.63,0.37,1.27,0.5,1.92c0.24,1.3,0.37,2.61,0.56,3.91C185.26,254.51,185.34,255.57,184.41,255.99z M183.55,245.87
								c-1.15,0.62-2.1-0.54-2.87-1.22c-0.66-0.58-1.16-1.25-1.68-1.95c-2.77-3.83-3.26-9.96-3.15-14.52
								c0.39,0.14,0.78,0.27,1.19,0.38c1.56,3.48,3.81,6.65,6.56,9.1c0.18,1.65,0.4,3.29,0.56,4.93
								C184.25,243.53,184.59,245.31,183.55,245.87z M184.2,234.66c-0.65,4.29-3.58-1.07-4.71-2.76c-2.18-3.26-3.57-7.3-4.05-11.33
								c1.24,0.42,2.54,0.7,3.88,0.84c0.29,0.3,0.56,0.61,0.86,0.9c0.55,0.55,1.12,1.09,1.7,1.61c0.51,0.45,1.03,1.33,1.75,1.48
								C185.79,227.8,184.62,231.92,184.2,234.66z M170.22,212.91C170.22,212.91,170.22,212.91,170.22,212.91
								c0.91,0,1.82-0.05,2.7-0.13c1.21,2.13,2.59,4.17,4.14,6.08c0.5,0.62,1.02,1.22,1.56,1.81c-3.3-0.48-6.3-1.86-8.82-4.1
								l-0.01-0.01C169.84,215.23,170,214.02,170.22,212.91z M183.77,224.22c-0.48-0.06-0.97-0.58-1.29-0.9
								c-0.48-0.48-0.98-0.94-1.48-1.39c-0.79-0.71-1.65-1.38-2.37-2.17c-1.94-2.15-3.57-4.55-4.99-7.05
								c1.98-0.23,3.91-0.67,5.78-1.32c3.2,1.6,6.07,4.44,6.1,8.06c0.01,1.36-0.53,2.6-1,3.85
								C184.33,223.76,184.34,224.3,183.77,224.22z M170.36,212.27c0.51-2.27,1.33-4.51,2.47-6.65c2.6,1.9,5.47,3.35,8.24,3.49
								c0.61,0.03,1.22,0.05,1.81,0.06C179.03,211.21,174.81,212.26,170.36,212.27z M177.66,207.45
								c-7.74-3.33-14.61-13.1-18.13-19.33c0.27-3.13,1.94-6.88,4.44-10.52c2.87-4.19,6.28-8.19,8.5-9.98
								c6.04-4.87,11.37-4.66,16.49-4.5c7.72,0.25,14.57,1.58,18.32,7.63c2.14,3.45,0.69,10.84,0.31,14.57
								c-0.57,5.64-1.29,12.33-5.47,16.52C196.71,207.24,184.76,210.5,177.66,207.45z M140.58,204.2
								c8.11-2.45,14.64-7.95,18.51-15.57c1.72,2.83,3.26,5.59,5.14,8.21c-0.59,11.01-3.69,21.73-7.45,32.14
								c-1.84,5.09-3.57,10.36-6.41,14.98c-2.41,3.93-5.02,7.45-8.35,10.66C136.11,239,133.5,219.43,140.58,204.2z M141.05,253.89
								c-4.04-6.86-8.78-13.4-8.19-21.64c0.18-3.01,0.92-14.32,1.97-19.42c0.98-4.74,2.63-9.31,3.27-10.97
								c0.58,0.77,1.15,1.55,1.73,2.32c0.01,0.02,0.03,0.03,0.04,0.04C132.97,219.33,135.31,238.34,141.05,253.89z M205.44,166.54
								c-1.49-3.83-7.23-18.64-9.07-23.09c-2.06-4.98-3.19-15.45-3.23-15.88c0.1-0.89,0.17-1.71,0.2-2.37
								c0.81,0.88,1.98,1.96,3.29,3.08c2.1,7.23,4.16,12.25,5.82,16.3c1.14,2.78,2.13,5.18,2.84,7.58
								C206.7,156.95,205.83,164,205.44,166.54z M198.23,149.51c1.16,2.95,2.51,6.39,3.71,9.48c-2.92,2.91-11.09,2.84-17.5,1.16
								C190.77,159.44,195.92,155.49,198.23,149.51z M182.79,159.62l-0.05,0.02c-2.14-0.7-4.15-1.5-5.88-2.25
								c1.17-0.23,2.34-0.61,3.48-1.2c6.99-3.61,8.03-13.8,13.77-18.85c0.48,2.33,1.07,4.63,1.77,6.32
								c0.46,1.11,1.16,2.87,1.99,4.95C195.63,155.22,189.84,159.46,182.79,159.62z M159.85,152.21c1.32-1.2,3.32-3.02,7.61-5.5
								c2.37-1.37,5.74-2.99,9.31-4.7c6.27-3,12.75-6.11,14.53-8.31c0.75-0.93,1.24-2.52,1.55-4.15c0.22,1.72,0.6,4.34,1.12,7.01
								c-4.44,3.92-6.55,9.9-9.67,14.78c-6.37,9.96-17.3,3.64-26.3,2.32C158.6,153.34,159.14,152.85,159.85,152.21z M151.78,157.08
								c1.57-1.83,3.1-2.32,4.59-2.8c0.05-0.01,0.09-0.03,0.13-0.04l0.45-0.02c6.08,0.69,12.56,3.98,18.73,3.34
								c7.02,3.15,19.83,6.98,26.51,2.07c1.18,3.02,2.19,5.64,2.72,7c-3.31-3.17-8.78-4.64-23.74-4.25
								c-3.04,0.08-6.58,2.19-9.94,5.24c0.6-1.91,0.57-3.76-0.63-5.29c-4.36-5.55-17.11,1.91-19.69-4.46
								C151.23,157.63,151.53,157.37,151.78,157.08z M141.2,165.46c1.4-3.56,4.32-4.9,6.88-6.09c0.81-0.37,1.59-0.74,2.28-1.15
								c1.87,4.13,8.45,2.65,12,2.43c4.75-0.3,9.73,0.92,7.96,6.97c-0.13,0.44-0.28,0.87-0.46,1.29
								c-5.67,5.67-10.51,13.71-10.93,18.64c-1.88,3.96-4.43,7.31-7.68,10.22c-1.93,1.72-4.16,3.04-6.45,4.19
								c-3.2,1.61-4.37,1.45-6.29-0.87l-0.15-0.28c-0.02-0.04-1.59-4.47-2.46-10.03C135.03,185.21,138.89,171.34,141.2,165.46z
								 M130.58,202.43c0.49-2.88,3.51-7.49,4.7-9.07c0.77,3.88,1.75,6.86,2.02,7.63c-0.41,1.04-2.4,6.23-3.51,11.64
								c-1.18,5.73-1.87,17.88-1.96,19.48c-0.11,0.16-0.32,0.45-0.58,0.85C129.49,225.67,129.3,209.88,130.58,202.43z
								 M122.75,276.69c-0.53-8.72,1.44-13.99,2.41-15.99c1.13,7.49,4.34,14.99,7.4,21.91c4.06,9.18,6.57,19.5,7.32,29.36
								c-0.08,2.03,0,3.49,0.2,4.77c-7.67-9.71-14.25-20.25-16.64-32.43C123.16,281.8,122.91,279.31,122.75,276.69z M137.07,356.7
								l-1.4-1.59c-0.32-3.77-1.98-9.7-2.24-10.62c0.03-0.22,0.08-0.79,0.14-1.55c1.09,2.02,2.69,4.9,4.04,6.96
								C139.22,352.35,137.79,355.43,137.07,356.7z M133.86,337.3c1.27,2.37,3.54,6.52,5.13,8.94c1.06,1.61,0.8,3.49,0.3,4.95
								c-0.14-0.63-0.39-1.26-0.79-1.87c-1.72-2.63-3.87-6.62-4.8-8.39C133.77,339.74,133.83,338.44,133.86,337.3z M141.1,321.31
								c0.98,4.15,1.59,6.27,1.59,8.26c0,5.13,1.61,10.76-0.23,10.77c-0.45,0-1.4-0.46-2.69-2.51c-0.87-1.37-1.13-3.27-1.37-5.11
								c-0.32-2.33-0.61-4.54-2.17-5.54c-0.38-0.24-0.8-0.28-1.23-0.12c-2.56,0.96-1.73,5.34-2.26,7.2l-0.04,0.13l0.03,0.14
								c0.68,2.9-0.35,9.84-0.36,9.91l-0.02,0.12l0.03,0.11c0.02,0.08,2.29,7.97,2.29,11.58c0,2.38-1.17,3.37-1.83,3.74
								c-0.91-2.4-4.66-12.38-5.11-14.51c-0.47-2.2-0.79-16.06-0.25-31.4c0.33-9.49-2.43-17.53-3.41-24.66
								c3.14,10.53,9.26,19.83,16.19,28.5l0.04,0.06C140.51,319.08,140.79,320,141.1,321.31z M143.6,293.82
								c-0.34,1.45-0.2,0.85-0.59,2.44c-1.36,3.84-2.33,7.29-2.64,9.78c-0.05,0.44-0.1,0.85-0.15,1.26
								c-0.81-5.9-2.34-12.75-4.3-18.2c-3.48-9.69-8.88-19.11-10.18-29.43c0,0,0.01-0.01,0.01-0.01l0.01-0.01v-8.87
								c0-6.9,4.64-14.6,6.37-17.23c0,0,0-0.01,0-0.01c-0.07,9.4,6.59,16.86,10.75,25.05c5.08,9.99,3.24,23.78,0.86,34.5
								C143.66,293.52,143.66,293.5,143.6,293.82z M152,268.59c-0.19,4.48-3.18,12.41-6.08,20.08c-0.14,0.38-0.48,1.04-0.84,1.74
								c1.76-8.32,2.67-16.7,0.86-25.22c-0.18-0.84-0.41-1.67-0.68-2.48c1.73-2.04,3.67-3.88,5.82-5.5
								C151.39,258.2,152.29,261.68,152,268.59z M159.01,226.03c-3.04,4.83-4.8,14.88-4.88,15.41c0,0.06,0.17,6.03-0.35,9.32
								c-0.5,3.17-2.69,5.56-2.71,5.59l-0.22,0.24c0,0,0,0,0,0c-2.15,1.6-4.1,3.41-5.84,5.43c-0.05-0.13-0.09-0.24-0.11-0.35
								c-0.79-2.15-1.83-4.21-2.97-6.23c3.2-3.02,6.12-6.38,9-11.15c2.81-4.66,3.83-8.27,5.75-13.28
								c4.13-10.77,7.44-21.9,8.13-33.37c0.11,0.15,0.22,0.3,0.34,0.45c0.28,2.87,0.74,7.42,1.31,11.81
								c0.01,0.05,0.01,0.1,0.02,0.15C165.36,213.29,161.61,221.89,159.01,226.03z M166.38,199.58c1.54,1.78,3.62,3.87,5.94,5.64
								c-2.45,4.57-3.5,9.52-3.13,14.43C168.06,215.25,166.96,205.4,166.38,199.58z M170.66,224.01c-0.65-2.51-0.89-4.71-0.88-6.64
								c1.52,1.28,3.2,2.26,4.99,2.95c0.29,2.55,0.96,5.1,1.96,7.5C174.4,227.09,172.33,225.79,170.66,224.01z M172.54,229.45
								c-0.03-0.08-0.08-0.21-0.15-0.36c-0.57-1.36-1.02-2.64-1.38-3.84c1.25,1.14,2.67,2.05,4.23,2.7
								c-0.01,0.02-0.02,0.05-0.02,0.07c-0.07,2.43,0.05,5.12,0.53,7.72c-0.47-0.44-0.92-0.9-1.34-1.38
								C173.96,233.03,173.27,231.37,172.54,229.45z M169.53,277.26c-0.52-4.23,2.31-8.69,4.01-11.36c0.31-0.48,0.55-0.87,0.74-1.2
								c6.74,3.02,14.83,8.32,13.01,17.29c-0.51,2.5-2.69,5.17-4.24,7.05c-2.16,2.63-4.18,1.42-6.43-0.37
								c-1.96-1.55-3.89-3.14-5.81-4.72C170.47,282.85,169.96,280.8,169.53,277.26z M164.06,327.65c1.78-7.07,3.19-12.66,2.95-16.36
								c-0.47-7.28,1.67-16.66,3.08-21.88c4.18,4.57,3.67,11.86,2.8,17.86c-1.04,7.16-2.2,17.39-9.01,21.11
								C163.95,328.13,164.01,327.88,164.06,327.65z M156.59,370.13c0.61-8.32,2.63-19.94,4.58-29.53
								c-0.64,7.47-0.44,14.02,1.25,22.88c1.69,8.85,7.08,20.98,9.11,32.14c0.76,4.19,1.46,14.91-0.58,20.84
								c-1.36,3.93-5.37,7.14-8.79,6.21C160.63,410.85,155.19,389.1,156.59,370.13z M158.15,490.23
								c-1.61-11.16-3.13-21.7-3.05-26.38c0.14-8.21,5.07-20.62,6.8-24.72c0.97,3.07,2.97,7.12,4.69,10.33
								c-0.07,12.89-0.15,25.78-0.22,38.66c-0.06,11.32,1.74,25.1-4.89,34.98c0.08-1.75,0.11-3.43,0.05-4.58
								C161.31,512.12,159.71,501.02,158.15,490.23z M176.95,524.85c0.07,0.38,0.15,0.75,0.22,1.11
								c-3.86-4.36-3.91-10.99-3.93-16.93c0-0.87-0.01-1.71-0.02-2.54c-0.14-7.7-0.21-14.76,0.25-21.81
								c0.8,3.52,2.95,8.72,8.66,11.26C179.78,504.69,176.21,520.92,176.95,524.85z M192.07,470.65
								c-1.79,5.93-4.03,10.64-5.84,14.42c-1.09,2.28-2.03,4.24-2.69,6.07c-0.28,0.78-0.67,2.07-1.12,3.69
								c-5.78-2.66-8.02-8.55-8.84-11.86c0.05-0.62,0.09-1.23,0.15-1.85c0.14-1.57,0.24-3.18,0.34-4.88
								c0.26-4.48,0.39-9.05,1.78-13.35c1.05-3.25,2.7-6.29,4.63-9.11c1.94-2.83,4.37-5.26,6.39-8.03c1.18-1.61,2.28-3.29,3.31-5.01
								C191.2,445.65,194.44,462.78,192.07,470.65z M196.53,423.21c-0.82,4.47-2.88,8.8-4.94,12.8c-1.22,2.35-2.43,5.08-4.15,7.11
								c-4.74,5.57-9.87,10.95-12.18,18.05c-1.58,4.88-1.95,9.91-2.25,15c-0.1,1.69-0.19,3.3-0.33,4.85
								c-0.76,8.3-0.69,16.45-0.52,25.48c0.01,0.82,0.02,1.66,0.02,2.52c0.03,6.72,0.06,14.3,5.44,18.88
								c0.15,0.6,0.29,1.17,0.44,1.69c0.59,2.99,1.53,9.63,1.87,11.13c0.41,1.79,0.35,3.01-1.09,5.13
								c-1.23,1.81-3.06,3.23-4.65,4.13c1.21-1.95,3.29-5.32,3.29-5.32c-1.58,1.67-4.79,6.06-4.86,6.16l0,0
								c-0.59,0.74-3.36,5.35-3.95,9.55c-0.57,4.09-2.73,8.62-6.66,9.84l-0.04,0.02c-0.87,0.38-2.49,1.08-3.5,3.59
								c-0.89,2.21-3.31,3.86-5.24,4.36c-2.02,0.52-4.62-0.48-5.58-2.13l-0.03-0.05c-0.15-0.79-0.02-1.09,0.3-1.39
								c0.09-0.08,0.24-0.22,0.44-0.39c1.3-1.15,2.71-2.44,3.09-3.19c0.35-0.69,3.09-5.15,5.22-6.89c0,0-3.42,1.78-6.01,6.48
								c-0.36,0.65-2.13,2.25-2.89,2.93c-0.21,0.18-0.37,0.33-0.46,0.41c-0.56,0.53-0.73,1.13-0.58,2.08
								c-0.39,0.19-0.63,0.25-1.33-0.08c-0.6-0.28-0.77-1.06-0.81-1.63l0,0c0-0.03,0.28-3.61,6.65-11.71c0,0-2.09,1.65-3.89,4.35
								c-2.35,3.51-3.21,5.38-3.51,6.4c-0.42,0.04-0.99,0.02-1.2-0.14c-0.43-0.32-0.93-1.07-0.73-1.64c0.07-0.22,0.13-0.4,0.18-0.54
								l0,0c0.75-2.59,3.45-8.54,5.75-11.15c0,0-1.34,0.92-2.99,3.51c-1.66,2.6-2.59,4.27-3.31,6.44c-0.35-0.04-0.56-0.16-0.83-0.39
								c-0.13-0.12-0.31-0.85-0.29-1.86c0.01-0.28,0.05-0.61,0.1-0.95c0.06-0.43,0.12-0.87,0.11-1.28c0-0.11-0.01-0.22-0.03-0.32
								c0.36-1.49,1.42-4.16,4.21-7.45c0,0-1.33,1.12-2.44,2.64c-1,1.36-1.76,2.42-2.24,3.5c-0.05-0.15-0.09-0.32-0.12-0.52
								c-0.02-0.17-0.06-0.36-0.09-0.57c-0.17-0.97-0.4-2.31,0.23-2.99c0,0,2.39-3.56,3.31-4.14c1.36-0.85,10.66-8.49,11.81-11.17
								c0.28-0.66,0.53-1.36,0.77-2.05c0.71-2.02,1.45-4.12,3.18-5.6c2.48-2.12,4.26-7.43,4.26-7.43c-0.01,0.02-1.64,3.13-3.51,5.37
								c0.09-1.64,0.47-2.83,0.91-4.16c0.14-0.44,0.41-3.28,0.57-6.24c6.44-9.05,5.5-21.4,5.56-31.95
								c0.08-13.9,0.16-27.8,0.24-41.71c1.28,2.34,2.29,4.03,2.38,4.18c0,0-6.87-13.58-7.22-18.37c-0.2-2.78,0-4.26,0.17-5.57
								c0.13-1.01,0.26-1.96,0.18-3.31c-0.03-0.49-0.21-1.92-0.48-4.07c2.53,0.55,5.33-0.92,7.52-3.6
								c4.05-4.96,3.84-13.89,3.06-20.76c0.95,0.32,2.01,0.28,2.92-0.18c-0.05,1.75,0.05,3.52,0.33,5.31
								c0.9,5.55,3.29,11.63,8.12,14.96c3.86,2.65,8.74,4.07,12.7,1.47C196.79,421.64,196.66,422.5,196.53,423.21z M198.48,404.39
								c-0.49,5.85-0.96,11.45-1.45,15.44c-6.48,5.08-14.52-1.86-17.74-7.55c-3.5-6.16-3.16-13.55-1.65-20.2
								c2.77-12.2,10.65-22.51,14.12-34.51c2.15,5.04,4.03,10.16,5.05,15.59c1.39,7.35,2.04,14.78,2.45,22.23
								C198.98,398.43,198.72,401.49,198.48,404.39z M200.61,382.45c-0.36,2.79-0.69,5.87-1,9.05c-0.88-11.92-2.69-23.67-7.56-34.87
								c-8.06-18.57-15.89-36.65-16.28-57.25c-0.02-1.32,0.07-2.54,0.33-3.85c1.12-5.63,5.33,2.65,5.45,2.87
								c1.26,2.4,2.63,4.11,2.95,6.93c0.15,1.33,0.28,2.58,0.56,3.89c1.96,9.15,3.65,18.03,6.94,26.84
								c1.51,4.04,3.52,7.87,4.98,11.92c1.65,4.56,2.36,9.57,3.13,14.33c0.77,4.78,1.21,9.6,1.36,14.42
								C201.15,378.68,200.85,380.59,200.61,382.45z M208,346.11c-0.32,2.55-1.33,6.84-2.49,11.8c-1.15,4.91-2.49,10.62-3.56,16.29
								c-0.22-4.02-0.62-8.03-1.2-12.05c-0.79-5.42-1.88-10.88-3.74-16.03c-1.9-5.24-4.46-10.21-6.25-15.52
								c-3.11-9.23-3.98-18.7-6.08-28.11c-0.65-2.93-3.23-6.17-4.86-8.63c-0.48-0.72-1.93-1.33-2.73-0.76
								c-4.07,2.9-1.68,12.77-1.23,16.59c1.26,10.81,4.68,21.29,8.67,31.37c2.08,5.26,4.58,10.38,6.83,15.57
								c-3.77,13.66-14.78,27.04-15.57,41.51c-0.92,0.63-2.07,0.7-3.03,0.28c-0.11-0.9-0.23-1.75-0.34-2.56
								c-1.67-11.49-7.39-24.97-9.33-33.97c-1.82-8.49-1.8-17.51-0.86-26.3c0.52-2.4,1.02-4.57,1.46-6.39
								c7.72-3.66,8.56-14.06,9.82-21.76c1.04-6.33,1.36-14.06-3.22-18.76c0.55-1.97,0.94-3.19,0.95-3.23l0.07-0.22l-0.01-0.01
								c2.81,2.35,5.62,4.74,8.65,6.75c0.14,0.09,0.28,0.15,0.42,0.19c2.16,3.1,4.17,7.08,6.6,11.95c2.08,4.16,4.44,8.87,7.41,14.02
								c0.84,1.46,1.54,3.09,2.27,4.81c2.1,4.94,4.47,10.47,10.96,11.37C207.94,336.19,208.63,341.2,208,346.11z M209.83,333.36
								c-0.04,0-0.33,0-0.33,0c-7.24-0.01-9.48-5.28-11.86-10.85c-0.71-1.68-1.45-3.41-2.33-4.93c-2.96-5.12-5.31-9.82-7.38-13.96
								c-2.34-4.68-4.29-8.55-6.37-11.64c2.32-1.12,4.96-6.3,5.66-7.52c2.63-4.55,0.64-10.02-2.37-13.93
								c-2.26-2.93-6.63-5.37-10.06-6.93c0.03-0.1,0.04-0.2,0.04-0.28c0-0.2,0.01-0.99,0.04-2.19c0.01-0.45,0.02-0.91,0.02-1.37
								c0.99,1.45,2.12,2.78,3.43,4.01c1.23,1.15,3.76,3.56,5.5,3.59c1.39,0.02,1.38-1.32,1.48-2.41c0.24-2.55,0.18-5.11-0.06-7.65
								c0.54-0.59,0.67-1.67,0.66-2.55c-0.02-3.13-0.56-5.67-1.63-8.2c1.3-1.37,0.42-6.34,0.01-8.89c0-0.01,0.01-0.01,0.01-0.01
								c0.71-3.54,2.48-9.15,0.06-12.37c0.43-0.3,0.56-1,0.76-1.48c0.67-1.59,1.31-3.73,1.04-5.46c-0.49-3.16-3.08-5.7-5.93-7.25
								c1.38-0.53,2.72-1.17,4.02-1.94c8.23-0.15,14.14-2.65,19.21-7.73c3.85-3.86,4.2-11.02,4.79-16.09
								c0.51-4.44,1.81-11.47-0.8-15.51c-0.52-0.8-1.04-1.54-1.61-2.22c0.07-0.4,1.77-9.56-0.01-15.59
								c-0.71-2.43-1.71-4.84-2.85-7.63c-1.6-3.89-3.57-8.68-5.58-15.47c3.19,2.66,6.89,5.33,8.08,5.76
								c0.95,0.35,2.19,0.51,3.26,0.59h1.42c1.07-0.08,2.31-0.24,3.26-0.59c1.21-0.44,4.95-3.15,8.15-5.82
								c-2.02,6.85-4,11.67-5.61,15.58c-1.15,2.79-2.14,5.2-2.86,7.63c-1.78,6.04-0.08,15.2-0.01,15.59c0,0-1.06,1.68-1.59,2.5
								c-2.61,4.04-1.31,11.07-0.8,15.51c0.58,5.08,0.93,12.24,4.79,16.09c5.29,5.29,11.49,7.8,20.29,7.74
								c0.95,0.5,1.91,0.94,2.9,1.33c-2.87,1.55-5.47,4.1-5.96,7.27c-0.27,1.74,0.37,3.87,1.04,5.46c0.2,0.48,0.34,1.18,0.76,1.48
								c-2.42,3.22-0.65,8.83,0.06,12.37c0,0.01,0.01,0.01,0.01,0.02c-0.41,2.55-1.29,7.51,0.01,8.88c-1.07,2.53-1.61,5.07-1.63,8.2
								c-0.01,0.89,0.12,1.96,0.66,2.55c-0.24,2.54-0.3,5.1-0.06,7.65c0.1,1.09,0.1,2.44,1.48,2.41c1.74-0.03,4.28-2.44,5.5-3.59
								c1.49-1.4,2.75-2.94,3.84-4.64c0.01,0.71,0.02,1.42,0.04,2.1c0.02,1.19,0.04,1.98,0.04,2.19c0,0.09,0.02,0.19,0.05,0.3
								c-3.47,1.54-7.92,3.92-10.23,6.92c-3.01,3.91-5.31,9.38-2.69,13.93c0.72,1.25,3.65,6.77,6.06,7.71
								c-2.07,3.08-4,6.93-6.33,11.58c-2.07,4.14-4.42,8.84-7.38,13.96c-0.88,1.52-1.61,3.25-2.33,4.93
								C219.22,328.06,216.98,333.3,209.83,333.36z M219.57,391.37c-0.3-3.13-0.63-6.17-0.98-8.92c-0.24-1.88-0.54-3.81-0.88-5.76
								c0.15-4.91,0.58-9.8,1.37-14.67c0.77-4.77,1.48-9.78,3.13-14.33c1.47-4.05,3.48-7.88,4.98-11.92
								c3.29-8.81,4.99-17.69,6.94-26.84c0.28-1.31,0.41-2.56,0.56-3.89c0.32-2.82,1.69-4.53,2.95-6.93
								c0.12-0.22,4.33-8.5,5.45-2.87c0.26,1.31,0.36,2.53,0.33,3.85c-0.39,20.6-8.22,38.69-16.28,57.25
								C222.25,367.59,220.44,379.39,219.57,391.37z M220.72,404.39c-0.25-2.94-0.51-6.03-0.79-9.11c0.41-7.51,1.06-15,2.46-22.41
								c1.02-5.39,2.88-10.49,5.01-15.49c3.47,11.98,11.39,22.51,14.16,34.7c1.51,6.65,1.85,14.05-1.65,20.2
								c-3.23,5.68-11.26,12.62-17.74,7.55C221.69,415.85,221.22,410.24,220.72,404.39z M235.65,491.15
								c-0.66-1.83-1.6-3.79-2.69-6.07c-1.8-3.78-4.05-8.49-5.84-14.42c-2.37-7.88,0.88-25.01,1.89-29.92
								c1.03,1.72,2.13,3.4,3.31,5.01c2.02,2.77,4.44,5.2,6.39,8.03c1.93,2.81,3.58,5.85,4.63,9.11c1.39,4.3,1.52,8.88,1.78,13.35
								c0.1,1.7,0.19,3.31,0.34,4.88c0.05,0.55,0.09,1.09,0.13,1.63c-0.54,2.26-1.76,5.86-4.4,8.76c-1.17,1.29-2.63,2.44-4.43,3.28
								C236.32,493.2,235.94,491.92,235.65,491.15z M237.06,495.9c2.09-0.94,3.71-2.24,4.95-3.68c2.2-2.55,3.23-5.55,3.71-7.79
								c0.48,7.13,0.4,14.27,0.26,22.06c-0.02,0.82-0.02,1.67-0.02,2.54c-0.02,5.94-0.07,12.57-3.93,16.93
								c0.08-0.36,0.15-0.73,0.22-1.11C242.99,520.92,239.41,504.64,237.06,495.9z M259.25,534.68c-1.86-2.24-3.5-5.36-3.51-5.37
								c0,0,1.78,5.31,4.26,7.43c1.74,1.48,2.47,3.57,3.18,5.6c0.24,0.68,0.49,1.39,0.77,2.05c1.15,2.69,10.45,10.32,11.81,11.17
								c0.92,0.58,3.31,4.14,3.31,4.14c0.63,0.68,0.4,2.01,0.23,2.99c-0.04,0.21-0.07,0.4-0.09,0.57c-0.03,0.19-0.07,0.35-0.11,0.51
								c-0.48-1.09-1.24-2.16-2.26-3.54c-1.11-1.52-2.44-2.64-2.44-2.64c2.82,3.33,3.87,6.03,4.22,7.5
								c-0.02,0.1-0.03,0.21-0.03,0.32c-0.01,0.41,0.05,0.85,0.11,1.28c0.05,0.34,0.09,0.67,0.1,0.95c0.02,1.02-0.16,1.75-0.29,1.86
								c-0.27,0.22-0.48,0.34-0.83,0.39c-0.73-2.2-1.66-3.88-3.33-6.5c-1.65-2.59-2.99-3.51-2.99-3.51
								c2.24,2.56,4.87,8.29,5.69,10.97c0.05,0.18,0.13,0.42,0.25,0.78c0.19,0.57-0.3,1.32-0.73,1.64c-0.18,0.13-0.62,0.17-1,0.15
								c-0.13-0.84-0.8-2.7-3.64-6.93c-1.81-2.7-3.89-4.35-3.89-4.35c5.37,6.83,6.41,10.44,6.61,11.43l-0.01,0.29
								c-0.01,0.48-0.03,1.75-0.84,2.13c-0.7,0.33-0.94,0.27-1.33,0.08c0.15-0.95-0.02-1.55-0.58-2.08
								c-0.09-0.09-0.25-0.23-0.46-0.41c-0.76-0.68-2.53-2.28-2.89-2.93c-2.59-4.7-6.01-6.48-6.01-6.48
								c2.13,1.74,4.86,6.2,5.22,6.89c0.38,0.75,1.8,2.04,3.09,3.19c0.2,0.18,0.35,0.31,0.44,0.39c0.32,0.3,0.44,0.59,0.3,1.39
								l-0.03,0.05c-0.96,1.65-3.57,2.65-5.58,2.13c-1.93-0.49-4.35-2.15-5.24-4.36c-1.01-2.51-2.63-3.21-3.5-3.59l-0.05-0.02
								c-3.93-1.22-6.08-5.75-6.66-9.84c-0.59-4.2-3.36-8.81-3.95-9.55v0c-0.07-0.1-3.28-4.49-4.86-6.16c0,0,2.09,3.37,3.29,5.32
								c-1.58-0.9-3.41-2.33-4.65-4.13c-1.44-2.12-1.5-3.34-1.09-5.13c0.34-1.49,1.28-8.13,1.87-11.13c0.15-0.52,0.29-1.1,0.44-1.69
								c5.38-4.58,5.41-12.16,5.44-18.88c0-0.86,0.01-1.7,0.02-2.52c0.17-9.03,0.24-17.18-0.52-25.48
								c-0.14-1.55-0.24-3.15-0.33-4.85c-0.3-5.09-0.66-10.12-2.25-15c-2.3-7.11-7.44-12.49-12.18-18.05
								c-1.72-2.03-2.94-4.76-4.15-7.11c-2.07-4-4.12-8.34-4.94-12.8c-0.13-0.72-0.26-1.58-0.39-2.55c3.96,2.6,8.84,1.18,12.7-1.47
								c4.83-3.32,7.59-9.36,8.12-14.96c0.18-1.93,0.21-3.79,0.12-5.61c0.92,0.47,2.03,0.55,3.01,0.28
								c-0.82,6.92-1.11,16.09,3.01,21.14c2.24,2.74,5.13,4.21,7.71,3.55c-0.26,2-0.42,3.33-0.45,3.81
								c-0.08,1.35,0.05,2.3,0.18,3.31c0.17,1.31,0.37,2.79,0.17,5.57c-0.34,4.79-7.22,18.37-7.22,18.37
								c0.09-0.14,1.07-1.78,2.33-4.07c0.08,13.92,0.16,27.83,0.24,41.75c0.06,10.55-0.87,22.9,5.56,31.95
								c0.16,2.96,0.42,5.8,0.57,6.24C258.78,531.85,259.16,533.04,259.25,534.68z M264.1,463.85c0.08,4.68-1.44,15.22-3.05,26.38
								c-1.56,10.79-3.16,21.89-3.37,28.29c-0.06,1.15-0.03,2.84,0.05,4.58c-6.63-9.88-4.83-23.66-4.89-34.98
								c-0.07-12.9-0.15-25.8-0.22-38.71c1.7-3.17,3.7-7.18,4.69-10.27C259.04,443.26,263.96,455.65,264.1,463.85z M262.67,369.98
								c1.4,19.02-4.07,40.83-5.59,52.63c-0.01,0.06-0.01,0.11-0.02,0.17c-3.46,1.1-7.6-2.16-8.98-6.16
								c-2.05-5.93-1.35-16.65-0.58-20.84c2.03-11.15,7.42-23.29,9.11-32.14c1.8-9.42,1.93-16.56,1.14-24.81
								C259.81,348.7,262.02,361.18,262.67,369.98z M256.48,332.93c1.24,9.68,1.49,19.72-0.53,29.13c-1.93,9-7.66,22.48-9.33,33.97
								c-0.1,0.72-0.21,1.49-0.31,2.29c-1.01,0.35-2.22,0.24-3.13-0.41c-1.11-15.75-11.59-27.71-15.37-41.49
								c2.26-5.23,4.77-10.37,6.87-15.67c3.99-10.08,7.41-20.56,8.67-31.37c0.44-3.82,2.84-13.69-1.23-16.59
								c-0.8-0.57-2.25,0.05-2.73,0.76c-1.63,2.46-4.21,5.7-4.86,8.63c-2.09,9.41-2.97,18.89-6.08,28.11
								c-1.79,5.31-4.35,10.28-6.25,15.52c-1.87,5.15-2.95,10.61-3.74,16.03c-0.6,4.1-1,8.19-1.21,12.29
								c-1.07-5.65-2.4-11.34-3.55-16.24c-1.16-4.97-2.17-9.26-2.49-11.8c-0.63-4.91,0.06-9.92,0.38-11.8
								c6.51-0.89,8.87-6.43,10.98-11.37c0.73-1.72,1.43-3.35,2.27-4.81c2.97-5.15,5.33-9.86,7.41-14.02
								c2.47-4.94,4.5-8.97,6.7-12.09c0.04-0.02,0.07-0.03,0.11-0.06c3.12-2.06,6-4.53,8.88-6.94l0.08,0.29
								c0.01,0.04,0.42,1.29,0.97,3.3c-4.66,4.69-4.34,12.48-3.29,18.84c1.27,7.73,2.11,18.19,9.92,21.8
								C255.89,330.35,256.18,331.6,256.48,332.93z M249.18,289.32c1.41,5.24,3.54,14.57,3.06,21.82c-0.24,3.7,1.17,9.29,2.95,16.36
								c0.07,0.3,0.15,0.61,0.23,0.93c-6.9-3.67-8.07-13.97-9.11-21.16C245.44,301.23,244.92,293.89,249.18,289.32z M245.73,265.75
								c1.69,2.67,4.53,7.14,4.01,11.36c-0.61,4.91-1.14,6.15-1.45,6.75c-1.95,1.61-3.91,3.22-5.9,4.79
								c-2.25,1.79-4.27,2.99-6.43,0.37c-1.55-1.88-3.73-4.55-4.24-7.05c-1.87-9.1,6.47-14.42,13.27-17.41
								C245.19,264.89,245.43,265.28,245.73,265.75z M247.26,227.41c-0.82,2.15-1.61,4.23-2.16,5.9c-0.62,0.77-1.29,1.49-2.01,2.17
								c0.48-2.6,0.6-5.28,0.53-7.72c0-0.03-0.01-0.05-0.02-0.08c1.78-0.75,3.4-1.83,4.77-3.22
								C248.01,225.45,247.63,226.43,247.26,227.41z M248.65,223.23c-1.75,2.05-4,3.54-6.54,4.33c0.99-2.38,1.65-4.74,1.94-7.24
								c1.8-0.69,3.48-1.68,5.01-2.96C249.07,219.61,248.88,221.83,248.65,223.23z M249.88,220.35c-0.01,0.02-0.17,0.57-0.45,1.38
								c0.61-5.61-0.16-11.49-2.63-16.36c2.26-1.78,4.27-3.85,5.76-5.6c0.12-0.14,0.22-0.28,0.34-0.41
								C252.27,205.64,251.11,216.66,249.88,220.35z M265.18,250.52c-0.38-10.36-2.19-19.9-5.23-24.73
								c-2.55-4.05-6.07-12.01-7.25-15.32c0-0.01,0-0.03-0.01-0.07c0.61-4.64,1.13-9.6,1.43-12.6c0.06-0.07,0.11-0.15,0.17-0.22
								c0.71,11.41,4.01,22.52,8.12,33.25c1.92,5.01,2.94,8.62,5.75,13.28c2.71,4.5,6.22,8.21,9.23,11.11
								c-1.39,2.37-2.41,4.27-3.28,6.76c-1.75-2.01-4.16-4.34-6.26-5.91C267.53,255.75,265.29,253.5,265.18,250.52z M273.94,290.8
								c-0.29-0.78-0.59-1.57-0.89-2.37c-2.9-7.67-5.9-15.6-6.08-20.08c-0.29-6.86,0.6-10.34,0.92-11.36c2.14,1.6,4.26,3.61,6,5.65
								c-0.28,0.86-0.55,1.79-0.82,2.84c-2.15,8.54-0.68,17.36,0.9,25.36C273.95,290.84,273.94,290.82,273.94,290.8z M275.76,295.77
								c-2.9-11.84-5.29-25.71,0.37-36.87c4.22-8.3,10.96-15.87,10.71-25.44c1.68,2.55,6.42,10.34,6.42,17.32v8.01
								c-1.06,10.76-6.68,19.85-10.28,29.86c-2.13,5.94-3.56,11.97-4.29,18.12c-0.04-0.32-0.06-0.64-0.12-0.98
								C277.85,301.49,276.74,298.31,275.76,295.77z M279.76,351.19c-0.5-1.46-0.75-3.33,0.3-4.95c1.58-2.41,3.86-6.57,5.13-8.94
								c0.03,1.14,0.09,2.44,0.16,3.62c-0.93,1.77-3.08,5.76-4.8,8.39C280.14,349.93,279.89,350.56,279.76,351.19z M281.98,356.7
								c-0.72-1.26-2.15-4.34-0.54-6.8c1.35-2.06,2.95-4.93,4.04-6.96c0.06,0.76,0.11,1.33,0.14,1.55
								c-0.26,0.92-1.92,6.85-2.24,10.62L281.98,356.7z M295.08,288.73c-0.89,7.3-3.85,15.56-3.51,25.35
								c0.54,15.34,0.22,29.2-0.25,31.4c-0.46,2.14-4.21,12.11-5.11,14.51c-0.66-0.37-1.83-1.36-1.83-3.74
								c0-3.62,2.27-11.5,2.29-11.58l0.03-0.11l-0.02-0.12c-0.01-0.07-1.04-7.01-0.36-9.91l0.03-0.14l-0.04-0.13
								c-0.54-1.86,0.3-6.23-2.26-7.2c-0.43-0.16-0.85-0.12-1.23,0.12c-1.56,1-1.86,3.21-2.17,5.54c-0.25,1.84-0.5,3.74-1.37,5.11
								c-1.3,2.05-2.24,2.51-2.69,2.51c-1.84-0.01-0.23-5.64-0.23-10.77c0-1.99,0.61-4.12,1.59-8.26c0.35-1.5,0.68-2.65,0.91-3.92
								c7.09-8.9,13.31-18.47,16.31-29.34C295.14,288.28,295.11,288.5,295.08,288.73z M296.29,276.7c-0.1,1.64-0.36,3.44-0.52,5.02
								c-1.91,13.13-8.63,24.13-16.73,34.42c0.17-1.51,0.2-3.33-0.01-6.06c0.8-9.67,3.34-18.89,7.33-27.92
								c3.12-7.07,6.3-14.07,7.36-21.73C294.62,262.17,296.85,267.51,296.29,276.7z"/>
							<path d="M205.27,256.2c-3.85,1.17-7.68,2.39-11.51,3.62c-4.77,1.53-5.77-2.16-5.8-5.03c-0.04-2.73,1.46-5.26,3.22-7.29
								c2.95-3.41,8-4.48,12.38-4.74C208.71,242.45,210.27,254.51,205.27,256.2 M207.91,244.15c-2.8-4.65-11.86-0.96-15.27,1.24
								c-3.79,2.45-7.01,8.62-4.71,12.9c1.07,1.99,2.37,2.63,4.67,2.45c1.66-0.13,3.37-0.99,4.93-1.51
								c2.61-0.88,5.28-1.61,7.92-2.41c1.47-0.5,3.32-1.22,3.46-2.98C209.1,251.33,209.28,246.42,207.91,244.15"/>
							<path d="M213.57,256.27c-5.01-1.69-3.45-13.75,1.72-13.44c4.38,0.26,9.43,1.33,12.38,4.74c1.76,2.03,3.25,4.56,3.22,7.29
								c-0.04,2.86-1.03,6.56-5.8,5.03C221.25,258.66,217.42,257.44,213.57,256.27 M210.93,244.21c-1.37,2.27-1.19,7.18-0.99,9.69
								c0.14,1.76,1.99,2.48,3.46,2.98c2.63,0.8,5.31,1.53,7.92,2.41c1.56,0.52,3.26,1.38,4.93,1.51c2.31,0.18,3.61-0.46,4.67-2.45
								c2.3-4.28-0.92-10.45-4.71-12.9C222.78,243.25,213.73,239.56,210.93,244.21"/>
						</g>
					</g>
					<path d="M206.72,289.65c-0.12,4.09-0.24,8.18-0.36,12.27c-0.2,6.6-7.82-0.14-9.49-2.05c-4.72-6.97-5.99-16.12-7.56-24.24
						c-1.29-6.68,0.88-12.09,7.72-14.16c4.8-1.45,9.96-1.59,10.33,4.67C207.82,273.88,206.95,281.9,206.72,289.65 M207.21,261.45
						c-4.37-4.93-15.14,0.34-17.68,4.51c-2.76,4.53-0.58,11.35,0.39,15.88c1.35,6.36,2.7,12.92,6.41,18.37l0.03,0.03l0.02,0.04
						c2.32,2.68,5.67,4.96,9.24,5.56c2.4,0.41,1.47-7.14,1.5-8.01c0.22-7.5,0.9-14.99,1.07-22.49
						C208.23,273.55,209.71,264.27,207.21,261.45z"/>
					<path d="M211.47,266.14c0.37-6.25,5.53-6.12,10.33-4.67c6.84,2.07,9.01,7.48,7.72,14.16c-1.57,8.11-2.83,17.27-7.55,24.24
						c-1.68,1.91-9.3,8.65-9.49,2.05c-0.12-4.09-0.24-8.18-0.36-12.27C211.88,281.9,211.01,273.88,211.47,266.14 M211.72,297.83
						c0.03,0.87-0.9,8.42,1.5,8.01c3.57-0.6,6.91-2.88,9.24-5.56l0.02-0.04l0.03-0.03c3.71-5.45,5.06-12.01,6.41-18.37
						c0.97-4.53,2.54-11.04,0.39-15.88c-1.85-4.17-12.75-9.41-17.54-4.45c-2.71,2.81-1.22,10.38-1.12,13.83"/>
				</g>
			</g>
		</g>
	</g>
</g>
</svg>
